G04 #@! TF.GenerationSoftware,KiCad,Pcbnew,(5.1.0)-1*
G04 #@! TF.CreationDate,2019-10-18T10:52:24-07:00*
G04 #@! TF.ProjectId,FlexPC-5,466c6578-5043-42d3-952e-6b696361645f,rev?*
G04 #@! TF.SameCoordinates,Original*
G04 #@! TF.FileFunction,Soldermask,Top*
G04 #@! TF.FilePolarity,Negative*
%FSLAX46Y46*%
G04 Gerber Fmt 4.6, Leading zero omitted, Abs format (unit mm)*
G04 Created by KiCad (PCBNEW (5.1.0)-1) date 2019-10-18 10:52:24*
%MOMM*%
%LPD*%
G04 APERTURE LIST*
%ADD10C,0.100000*%
G04 APERTURE END LIST*
D10*
G36*
X140063964Y-97751322D02*
G01*
X140119470Y-97774313D01*
X140119472Y-97774314D01*
X140144619Y-97791117D01*
X140169425Y-97807692D01*
X140211910Y-97850177D01*
X140245289Y-97900132D01*
X140268280Y-97955638D01*
X140280000Y-98014560D01*
X140280000Y-98074643D01*
X140271734Y-98116200D01*
X140269332Y-98140587D01*
X140271734Y-98164973D01*
X140278847Y-98188422D01*
X140290398Y-98210032D01*
X140305944Y-98228974D01*
X140324886Y-98244519D01*
X140346497Y-98256070D01*
X140369945Y-98263183D01*
X140394332Y-98265585D01*
X140418718Y-98263183D01*
X140442166Y-98256070D01*
X140495636Y-98233922D01*
X140554558Y-98222202D01*
X140614642Y-98222202D01*
X140673564Y-98233922D01*
X140729070Y-98256913D01*
X140729072Y-98256914D01*
X140738454Y-98263183D01*
X140779025Y-98290292D01*
X140821510Y-98332777D01*
X140854889Y-98382732D01*
X140877880Y-98438238D01*
X140889600Y-98497160D01*
X140889600Y-98557244D01*
X140877880Y-98616166D01*
X140854889Y-98671672D01*
X140824922Y-98716521D01*
X140821509Y-98721628D01*
X140779026Y-98764111D01*
X140729072Y-98797490D01*
X140729071Y-98797491D01*
X140729070Y-98797491D01*
X140673564Y-98820482D01*
X140614642Y-98832202D01*
X140554558Y-98832202D01*
X140495638Y-98820483D01*
X140442165Y-98798334D01*
X140418716Y-98791222D01*
X140394330Y-98788820D01*
X140369944Y-98791222D01*
X140346495Y-98798336D01*
X140324884Y-98809887D01*
X140305942Y-98825432D01*
X140290397Y-98844374D01*
X140278846Y-98865985D01*
X140271734Y-98889434D01*
X140269332Y-98913820D01*
X140271734Y-98938205D01*
X140280000Y-98979760D01*
X140280000Y-99039842D01*
X140271734Y-99081399D01*
X140269332Y-99105786D01*
X140271734Y-99130172D01*
X140278847Y-99153621D01*
X140290398Y-99175231D01*
X140305944Y-99194173D01*
X140324886Y-99209718D01*
X140346497Y-99221269D01*
X140369945Y-99228382D01*
X140394332Y-99230784D01*
X140418718Y-99228382D01*
X140442166Y-99221269D01*
X140495636Y-99199121D01*
X140554558Y-99187401D01*
X140614642Y-99187401D01*
X140673564Y-99199121D01*
X140729070Y-99222112D01*
X140729072Y-99222113D01*
X140738454Y-99228382D01*
X140779025Y-99255491D01*
X140821510Y-99297976D01*
X140854889Y-99347931D01*
X140877880Y-99403437D01*
X140889600Y-99462359D01*
X140889600Y-99522443D01*
X140877880Y-99581365D01*
X140854889Y-99636871D01*
X140824922Y-99681720D01*
X140821509Y-99686827D01*
X140779026Y-99729310D01*
X140729072Y-99762689D01*
X140729071Y-99762690D01*
X140729070Y-99762690D01*
X140673564Y-99785681D01*
X140614642Y-99797401D01*
X140554558Y-99797401D01*
X140495638Y-99785682D01*
X140442165Y-99763533D01*
X140418716Y-99756421D01*
X140394330Y-99754019D01*
X140369944Y-99756421D01*
X140346495Y-99763535D01*
X140324884Y-99775086D01*
X140305942Y-99790631D01*
X140290397Y-99809573D01*
X140278846Y-99831184D01*
X140271734Y-99854633D01*
X140269332Y-99879019D01*
X140271734Y-99903404D01*
X140280000Y-99944959D01*
X140280000Y-100005042D01*
X140268280Y-100063964D01*
X140245289Y-100119470D01*
X140245288Y-100119472D01*
X140211909Y-100169426D01*
X140169426Y-100211909D01*
X140119472Y-100245288D01*
X140119471Y-100245289D01*
X140119470Y-100245289D01*
X140063964Y-100268280D01*
X140005042Y-100280000D01*
X139944958Y-100280000D01*
X139886036Y-100268280D01*
X139830530Y-100245289D01*
X139830529Y-100245289D01*
X139830528Y-100245288D01*
X139780574Y-100211909D01*
X139738091Y-100169426D01*
X139704712Y-100119472D01*
X139704711Y-100119470D01*
X139681720Y-100063964D01*
X139670000Y-100005042D01*
X139670000Y-99944958D01*
X139681720Y-99886036D01*
X139704711Y-99830530D01*
X139738090Y-99780575D01*
X139780575Y-99738090D01*
X139821148Y-99710980D01*
X139830528Y-99704712D01*
X139830530Y-99704711D01*
X139886036Y-99681720D01*
X139944958Y-99670000D01*
X140005042Y-99670000D01*
X140063962Y-99681719D01*
X140117435Y-99703868D01*
X140140884Y-99710980D01*
X140165270Y-99713382D01*
X140189656Y-99710980D01*
X140213105Y-99703866D01*
X140234716Y-99692315D01*
X140253658Y-99676770D01*
X140269203Y-99657828D01*
X140280754Y-99636217D01*
X140287866Y-99612768D01*
X140290268Y-99588382D01*
X140287866Y-99563997D01*
X140279600Y-99522442D01*
X140279600Y-99462360D01*
X140287866Y-99420803D01*
X140290268Y-99396416D01*
X140287866Y-99372030D01*
X140280753Y-99348581D01*
X140269202Y-99326971D01*
X140253656Y-99308029D01*
X140234714Y-99292484D01*
X140213103Y-99280933D01*
X140189655Y-99273820D01*
X140165268Y-99271418D01*
X140140882Y-99273820D01*
X140117434Y-99280933D01*
X140063964Y-99303081D01*
X140005042Y-99314801D01*
X139944958Y-99314801D01*
X139886036Y-99303081D01*
X139830530Y-99280090D01*
X139830529Y-99280090D01*
X139830528Y-99280089D01*
X139780574Y-99246710D01*
X139738091Y-99204227D01*
X139704712Y-99154273D01*
X139694729Y-99130172D01*
X139681720Y-99098765D01*
X139670000Y-99039843D01*
X139670000Y-98979759D01*
X139681720Y-98920837D01*
X139704711Y-98865331D01*
X139738090Y-98815376D01*
X139780575Y-98772891D01*
X139821148Y-98745781D01*
X139830528Y-98739513D01*
X139830530Y-98739512D01*
X139886036Y-98716521D01*
X139944958Y-98704801D01*
X140005042Y-98704801D01*
X140063962Y-98716520D01*
X140117435Y-98738669D01*
X140140884Y-98745781D01*
X140165270Y-98748183D01*
X140189656Y-98745781D01*
X140213105Y-98738667D01*
X140234716Y-98727116D01*
X140253658Y-98711571D01*
X140269203Y-98692629D01*
X140280754Y-98671018D01*
X140287866Y-98647569D01*
X140290268Y-98623183D01*
X140287866Y-98598798D01*
X140279600Y-98557243D01*
X140279600Y-98497161D01*
X140287866Y-98455604D01*
X140290268Y-98431217D01*
X140287866Y-98406831D01*
X140280753Y-98383382D01*
X140269202Y-98361772D01*
X140253656Y-98342830D01*
X140234714Y-98327285D01*
X140213103Y-98315734D01*
X140189655Y-98308621D01*
X140165268Y-98306219D01*
X140140882Y-98308621D01*
X140117434Y-98315734D01*
X140063964Y-98337882D01*
X140005042Y-98349602D01*
X139944958Y-98349602D01*
X139886036Y-98337882D01*
X139830530Y-98314891D01*
X139830529Y-98314891D01*
X139830528Y-98314890D01*
X139780574Y-98281511D01*
X139738091Y-98239028D01*
X139704712Y-98189074D01*
X139694729Y-98164973D01*
X139681720Y-98133566D01*
X139670000Y-98074644D01*
X139670000Y-98014560D01*
X139681720Y-97955638D01*
X139704711Y-97900132D01*
X139738090Y-97850177D01*
X139780575Y-97807692D01*
X139805381Y-97791117D01*
X139830528Y-97774314D01*
X139830530Y-97774313D01*
X139886036Y-97751322D01*
X139944958Y-97739602D01*
X140005042Y-97739602D01*
X140063964Y-97751322D01*
X140063964Y-97751322D01*
G37*
G36*
X163063964Y-97751322D02*
G01*
X163119470Y-97774313D01*
X163119472Y-97774314D01*
X163144619Y-97791117D01*
X163169425Y-97807692D01*
X163211910Y-97850177D01*
X163245289Y-97900132D01*
X163268280Y-97955638D01*
X163280000Y-98014560D01*
X163280000Y-98074643D01*
X163271734Y-98116200D01*
X163269332Y-98140587D01*
X163271734Y-98164973D01*
X163278847Y-98188422D01*
X163290398Y-98210032D01*
X163305944Y-98228974D01*
X163324886Y-98244519D01*
X163346497Y-98256070D01*
X163369945Y-98263183D01*
X163394332Y-98265585D01*
X163418718Y-98263183D01*
X163442166Y-98256070D01*
X163495636Y-98233922D01*
X163554558Y-98222202D01*
X163614642Y-98222202D01*
X163673564Y-98233922D01*
X163729070Y-98256913D01*
X163729072Y-98256914D01*
X163738454Y-98263183D01*
X163779025Y-98290292D01*
X163821510Y-98332777D01*
X163854889Y-98382732D01*
X163877880Y-98438238D01*
X163889600Y-98497160D01*
X163889600Y-98557244D01*
X163877880Y-98616166D01*
X163854889Y-98671672D01*
X163824922Y-98716521D01*
X163821509Y-98721628D01*
X163779026Y-98764111D01*
X163729072Y-98797490D01*
X163729071Y-98797491D01*
X163729070Y-98797491D01*
X163673564Y-98820482D01*
X163614642Y-98832202D01*
X163554558Y-98832202D01*
X163495638Y-98820483D01*
X163442165Y-98798334D01*
X163418716Y-98791222D01*
X163394330Y-98788820D01*
X163369944Y-98791222D01*
X163346495Y-98798336D01*
X163324884Y-98809887D01*
X163305942Y-98825432D01*
X163290397Y-98844374D01*
X163278846Y-98865985D01*
X163271734Y-98889434D01*
X163269332Y-98913820D01*
X163271734Y-98938205D01*
X163280000Y-98979760D01*
X163280000Y-99039842D01*
X163271734Y-99081399D01*
X163269332Y-99105786D01*
X163271734Y-99130172D01*
X163278847Y-99153621D01*
X163290398Y-99175231D01*
X163305944Y-99194173D01*
X163324886Y-99209718D01*
X163346497Y-99221269D01*
X163369945Y-99228382D01*
X163394332Y-99230784D01*
X163418718Y-99228382D01*
X163442166Y-99221269D01*
X163495636Y-99199121D01*
X163554558Y-99187401D01*
X163614642Y-99187401D01*
X163673564Y-99199121D01*
X163729070Y-99222112D01*
X163729072Y-99222113D01*
X163738454Y-99228382D01*
X163779025Y-99255491D01*
X163821510Y-99297976D01*
X163854889Y-99347931D01*
X163877880Y-99403437D01*
X163889600Y-99462359D01*
X163889600Y-99522443D01*
X163877880Y-99581365D01*
X163854889Y-99636871D01*
X163824922Y-99681720D01*
X163821509Y-99686827D01*
X163779026Y-99729310D01*
X163729072Y-99762689D01*
X163729071Y-99762690D01*
X163729070Y-99762690D01*
X163673564Y-99785681D01*
X163614642Y-99797401D01*
X163554558Y-99797401D01*
X163495638Y-99785682D01*
X163442165Y-99763533D01*
X163418716Y-99756421D01*
X163394330Y-99754019D01*
X163369944Y-99756421D01*
X163346495Y-99763535D01*
X163324884Y-99775086D01*
X163305942Y-99790631D01*
X163290397Y-99809573D01*
X163278846Y-99831184D01*
X163271734Y-99854633D01*
X163269332Y-99879019D01*
X163271734Y-99903404D01*
X163280000Y-99944959D01*
X163280000Y-100005042D01*
X163268280Y-100063964D01*
X163245289Y-100119470D01*
X163245288Y-100119472D01*
X163211909Y-100169426D01*
X163169426Y-100211909D01*
X163119472Y-100245288D01*
X163119471Y-100245289D01*
X163119470Y-100245289D01*
X163063964Y-100268280D01*
X163005042Y-100280000D01*
X162944958Y-100280000D01*
X162886036Y-100268280D01*
X162830530Y-100245289D01*
X162830529Y-100245289D01*
X162830528Y-100245288D01*
X162780574Y-100211909D01*
X162738091Y-100169426D01*
X162704712Y-100119472D01*
X162704711Y-100119470D01*
X162681720Y-100063964D01*
X162670000Y-100005042D01*
X162670000Y-99944958D01*
X162681720Y-99886036D01*
X162704711Y-99830530D01*
X162738090Y-99780575D01*
X162780575Y-99738090D01*
X162821148Y-99710980D01*
X162830528Y-99704712D01*
X162830530Y-99704711D01*
X162886036Y-99681720D01*
X162944958Y-99670000D01*
X163005042Y-99670000D01*
X163063962Y-99681719D01*
X163117435Y-99703868D01*
X163140884Y-99710980D01*
X163165270Y-99713382D01*
X163189656Y-99710980D01*
X163213105Y-99703866D01*
X163234716Y-99692315D01*
X163253658Y-99676770D01*
X163269203Y-99657828D01*
X163280754Y-99636217D01*
X163287866Y-99612768D01*
X163290268Y-99588382D01*
X163287866Y-99563997D01*
X163279600Y-99522442D01*
X163279600Y-99462360D01*
X163287866Y-99420803D01*
X163290268Y-99396416D01*
X163287866Y-99372030D01*
X163280753Y-99348581D01*
X163269202Y-99326971D01*
X163253656Y-99308029D01*
X163234714Y-99292484D01*
X163213103Y-99280933D01*
X163189655Y-99273820D01*
X163165268Y-99271418D01*
X163140882Y-99273820D01*
X163117434Y-99280933D01*
X163063964Y-99303081D01*
X163005042Y-99314801D01*
X162944958Y-99314801D01*
X162886036Y-99303081D01*
X162830530Y-99280090D01*
X162830529Y-99280090D01*
X162830528Y-99280089D01*
X162780574Y-99246710D01*
X162738091Y-99204227D01*
X162704712Y-99154273D01*
X162694729Y-99130172D01*
X162681720Y-99098765D01*
X162670000Y-99039843D01*
X162670000Y-98979759D01*
X162681720Y-98920837D01*
X162704711Y-98865331D01*
X162738090Y-98815376D01*
X162780575Y-98772891D01*
X162821148Y-98745781D01*
X162830528Y-98739513D01*
X162830530Y-98739512D01*
X162886036Y-98716521D01*
X162944958Y-98704801D01*
X163005042Y-98704801D01*
X163063962Y-98716520D01*
X163117435Y-98738669D01*
X163140884Y-98745781D01*
X163165270Y-98748183D01*
X163189656Y-98745781D01*
X163213105Y-98738667D01*
X163234716Y-98727116D01*
X163253658Y-98711571D01*
X163269203Y-98692629D01*
X163280754Y-98671018D01*
X163287866Y-98647569D01*
X163290268Y-98623183D01*
X163287866Y-98598798D01*
X163279600Y-98557243D01*
X163279600Y-98497161D01*
X163287866Y-98455604D01*
X163290268Y-98431217D01*
X163287866Y-98406831D01*
X163280753Y-98383382D01*
X163269202Y-98361772D01*
X163253656Y-98342830D01*
X163234714Y-98327285D01*
X163213103Y-98315734D01*
X163189655Y-98308621D01*
X163165268Y-98306219D01*
X163140882Y-98308621D01*
X163117434Y-98315734D01*
X163063964Y-98337882D01*
X163005042Y-98349602D01*
X162944958Y-98349602D01*
X162886036Y-98337882D01*
X162830530Y-98314891D01*
X162830529Y-98314891D01*
X162830528Y-98314890D01*
X162780574Y-98281511D01*
X162738091Y-98239028D01*
X162704712Y-98189074D01*
X162694729Y-98164973D01*
X162681720Y-98133566D01*
X162670000Y-98074644D01*
X162670000Y-98014560D01*
X162681720Y-97955638D01*
X162704711Y-97900132D01*
X162738090Y-97850177D01*
X162780575Y-97807692D01*
X162805381Y-97791117D01*
X162830528Y-97774314D01*
X162830530Y-97774313D01*
X162886036Y-97751322D01*
X162944958Y-97739602D01*
X163005042Y-97739602D01*
X163063964Y-97751322D01*
X163063964Y-97751322D01*
G37*
M02*
