%FSLAX45Y45*%
G04 Gerber Fmt 4.5, Leading zero omitted, Abs format (unit mm)*
G04 Created by KiCad (PCBNEW (5.1.0)-1) date 2019-10-18 10:52:20*
%MOMM*%
%LPD*%
G04 APERTURE LIST*
%ADD10C,0.150000*%
%ADD11C,0.200000*%
%ADD12C,0.300000*%
G04 APERTURE END LIST*
D10*
X16435000Y-10075000D02*
X16435000Y-9730000D01*
X13925000Y-10075000D02*
X13925000Y-9730000D01*
X16435000Y-9730000D02*
X13925000Y-9730000D01*
X13925000Y-10075000D02*
X16435000Y-10075000D01*
D11*
X13990000Y-9796960D02*
X14005000Y-9811960D01*
X14005000Y-9796960D02*
X13990000Y-9811960D01*
X13990000Y-9893480D02*
X14005000Y-9908480D01*
X14005000Y-9893480D02*
X13990000Y-9908480D01*
X13990000Y-9990000D02*
X14005000Y-10005000D01*
X14005000Y-9990000D02*
X13990000Y-10005000D01*
X14050960Y-9845220D02*
X14065960Y-9860220D01*
X14065960Y-9845220D02*
X14050960Y-9860220D01*
X14050960Y-9941740D02*
X14065960Y-9956740D01*
X14065960Y-9941740D02*
X14050960Y-9956740D01*
X16290000Y-9796960D02*
X16305000Y-9811960D01*
X16305000Y-9796960D02*
X16290000Y-9811960D01*
X16290000Y-9893480D02*
X16305000Y-9908480D01*
X16305000Y-9893480D02*
X16290000Y-9908480D01*
X16290000Y-9990000D02*
X16305000Y-10005000D01*
X16305000Y-9990000D02*
X16290000Y-10005000D01*
X16350960Y-9845220D02*
X16365960Y-9860220D01*
X16365960Y-9845220D02*
X16350960Y-9860220D01*
X16350960Y-9941740D02*
X16365960Y-9956740D01*
X16365960Y-9941740D02*
X16350960Y-9956740D01*
D12*
X14203928Y-10548214D02*
X14203928Y-10248214D01*
X14275357Y-10248214D01*
X14318214Y-10262500D01*
X14346786Y-10291072D01*
X14361071Y-10319643D01*
X14375357Y-10376786D01*
X14375357Y-10419643D01*
X14361071Y-10476786D01*
X14346786Y-10505357D01*
X14318214Y-10533929D01*
X14275357Y-10548214D01*
X14203928Y-10548214D01*
X14503928Y-10548214D02*
X14503928Y-10348214D01*
X14503928Y-10405357D02*
X14518214Y-10376786D01*
X14532500Y-10362500D01*
X14561071Y-10348214D01*
X14589643Y-10348214D01*
X14689643Y-10548214D02*
X14689643Y-10348214D01*
X14689643Y-10248214D02*
X14675357Y-10262500D01*
X14689643Y-10276786D01*
X14703928Y-10262500D01*
X14689643Y-10248214D01*
X14689643Y-10276786D01*
X14875357Y-10548214D02*
X14846786Y-10533929D01*
X14832500Y-10505357D01*
X14832500Y-10248214D01*
X15032500Y-10548214D02*
X15003928Y-10533929D01*
X14989643Y-10505357D01*
X14989643Y-10248214D01*
X15375357Y-10548214D02*
X15375357Y-10248214D01*
X15475357Y-10462500D01*
X15575357Y-10248214D01*
X15575357Y-10548214D01*
X15846786Y-10548214D02*
X15846786Y-10391072D01*
X15832500Y-10362500D01*
X15803928Y-10348214D01*
X15746786Y-10348214D01*
X15718214Y-10362500D01*
X15846786Y-10533929D02*
X15818214Y-10548214D01*
X15746786Y-10548214D01*
X15718214Y-10533929D01*
X15703928Y-10505357D01*
X15703928Y-10476786D01*
X15718214Y-10448214D01*
X15746786Y-10433929D01*
X15818214Y-10433929D01*
X15846786Y-10419643D01*
X15989643Y-10348214D02*
X15989643Y-10648214D01*
X15989643Y-10362500D02*
X16018214Y-10348214D01*
X16075357Y-10348214D01*
X16103928Y-10362500D01*
X16118214Y-10376786D01*
X16132500Y-10405357D01*
X16132500Y-10491072D01*
X16118214Y-10519643D01*
X16103928Y-10533929D01*
X16075357Y-10548214D01*
X16018214Y-10548214D01*
X15989643Y-10533929D01*
X16261071Y-10519643D02*
X16275357Y-10533929D01*
X16261071Y-10548214D01*
X16246786Y-10533929D01*
X16261071Y-10519643D01*
X16261071Y-10548214D01*
X16261071Y-10362500D02*
X16275357Y-10376786D01*
X16261071Y-10391072D01*
X16246786Y-10376786D01*
X16261071Y-10362500D01*
X16261071Y-10391072D01*
X13902500Y-11035000D02*
X13917500Y-11050000D01*
X13917500Y-11035000D02*
X13902500Y-11050000D01*
X14261071Y-10878214D02*
X14289643Y-10878214D01*
X14318214Y-10892500D01*
X14332500Y-10906786D01*
X14346786Y-10935357D01*
X14361071Y-10992500D01*
X14361071Y-11063929D01*
X14346786Y-11121072D01*
X14332500Y-11149643D01*
X14318214Y-11163929D01*
X14289643Y-11178214D01*
X14261071Y-11178214D01*
X14232500Y-11163929D01*
X14218214Y-11149643D01*
X14203928Y-11121072D01*
X14189643Y-11063929D01*
X14189643Y-10992500D01*
X14203928Y-10935357D01*
X14218214Y-10906786D01*
X14232500Y-10892500D01*
X14261071Y-10878214D01*
X14489643Y-11149643D02*
X14503928Y-11163929D01*
X14489643Y-11178214D01*
X14475357Y-11163929D01*
X14489643Y-11149643D01*
X14489643Y-11178214D01*
X14789643Y-11178214D02*
X14618214Y-11178214D01*
X14703928Y-11178214D02*
X14703928Y-10878214D01*
X14675357Y-10921072D01*
X14646786Y-10949643D01*
X14618214Y-10963929D01*
X15061071Y-10878214D02*
X14918214Y-10878214D01*
X14903928Y-11021072D01*
X14918214Y-11006786D01*
X14946786Y-10992500D01*
X15018214Y-10992500D01*
X15046786Y-11006786D01*
X15061071Y-11021072D01*
X15075357Y-11049643D01*
X15075357Y-11121072D01*
X15061071Y-11149643D01*
X15046786Y-11163929D01*
X15018214Y-11178214D01*
X14946786Y-11178214D01*
X14918214Y-11163929D01*
X14903928Y-11149643D01*
X15203928Y-11178214D02*
X15203928Y-10978214D01*
X15203928Y-11006786D02*
X15218214Y-10992500D01*
X15246786Y-10978214D01*
X15289643Y-10978214D01*
X15318214Y-10992500D01*
X15332500Y-11021072D01*
X15332500Y-11178214D01*
X15332500Y-11021072D02*
X15346786Y-10992500D01*
X15375357Y-10978214D01*
X15418214Y-10978214D01*
X15446786Y-10992500D01*
X15461071Y-11021072D01*
X15461071Y-11178214D01*
X15603928Y-11178214D02*
X15603928Y-10978214D01*
X15603928Y-11006786D02*
X15618214Y-10992500D01*
X15646786Y-10978214D01*
X15689643Y-10978214D01*
X15718214Y-10992500D01*
X15732500Y-11021072D01*
X15732500Y-11178214D01*
X15732500Y-11021072D02*
X15746786Y-10992500D01*
X15775357Y-10978214D01*
X15818214Y-10978214D01*
X15846786Y-10992500D01*
X15861071Y-11021072D01*
X15861071Y-11178214D01*
X16446786Y-10863929D02*
X16189643Y-11249643D01*
X16832500Y-10878214D02*
X16861071Y-10878214D01*
X16889643Y-10892500D01*
X16903928Y-10906786D01*
X16918214Y-10935357D01*
X16932500Y-10992500D01*
X16932500Y-11063929D01*
X16918214Y-11121072D01*
X16903928Y-11149643D01*
X16889643Y-11163929D01*
X16861071Y-11178214D01*
X16832500Y-11178214D01*
X16803928Y-11163929D01*
X16789643Y-11149643D01*
X16775357Y-11121072D01*
X16761071Y-11063929D01*
X16761071Y-10992500D01*
X16775357Y-10935357D01*
X16789643Y-10906786D01*
X16803928Y-10892500D01*
X16832500Y-10878214D01*
X17061071Y-11149643D02*
X17075357Y-11163929D01*
X17061071Y-11178214D01*
X17046786Y-11163929D01*
X17061071Y-11149643D01*
X17061071Y-11178214D01*
X17261071Y-10878214D02*
X17289643Y-10878214D01*
X17318214Y-10892500D01*
X17332500Y-10906786D01*
X17346786Y-10935357D01*
X17361071Y-10992500D01*
X17361071Y-11063929D01*
X17346786Y-11121072D01*
X17332500Y-11149643D01*
X17318214Y-11163929D01*
X17289643Y-11178214D01*
X17261071Y-11178214D01*
X17232500Y-11163929D01*
X17218214Y-11149643D01*
X17203928Y-11121072D01*
X17189643Y-11063929D01*
X17189643Y-10992500D01*
X17203928Y-10935357D01*
X17218214Y-10906786D01*
X17232500Y-10892500D01*
X17261071Y-10878214D01*
X17546786Y-10878214D02*
X17575357Y-10878214D01*
X17603928Y-10892500D01*
X17618214Y-10906786D01*
X17632500Y-10935357D01*
X17646786Y-10992500D01*
X17646786Y-11063929D01*
X17632500Y-11121072D01*
X17618214Y-11149643D01*
X17603928Y-11163929D01*
X17575357Y-11178214D01*
X17546786Y-11178214D01*
X17518214Y-11163929D01*
X17503928Y-11149643D01*
X17489643Y-11121072D01*
X17475357Y-11063929D01*
X17475357Y-10992500D01*
X17489643Y-10935357D01*
X17503928Y-10906786D01*
X17518214Y-10892500D01*
X17546786Y-10878214D01*
X17903928Y-10878214D02*
X17846786Y-10878214D01*
X17818214Y-10892500D01*
X17803928Y-10906786D01*
X17775357Y-10949643D01*
X17761071Y-11006786D01*
X17761071Y-11121072D01*
X17775357Y-11149643D01*
X17789643Y-11163929D01*
X17818214Y-11178214D01*
X17875357Y-11178214D01*
X17903928Y-11163929D01*
X17918214Y-11149643D01*
X17932500Y-11121072D01*
X17932500Y-11049643D01*
X17918214Y-11021072D01*
X17903928Y-11006786D01*
X17875357Y-10992500D01*
X17818214Y-10992500D01*
X17789643Y-11006786D01*
X17775357Y-11021072D01*
X17761071Y-11049643D01*
X18046786Y-10878214D02*
X18046786Y-10935357D01*
X18161071Y-10878214D02*
X18161071Y-10935357D01*
X18603928Y-11292500D02*
X18589643Y-11278214D01*
X18561071Y-11235357D01*
X18546786Y-11206786D01*
X18532500Y-11163929D01*
X18518214Y-11092500D01*
X18518214Y-11035357D01*
X18532500Y-10963929D01*
X18546786Y-10921072D01*
X18561071Y-10892500D01*
X18589643Y-10849643D01*
X18603928Y-10835357D01*
X18875357Y-11178214D02*
X18703928Y-11178214D01*
X18789643Y-11178214D02*
X18789643Y-10878214D01*
X18761071Y-10921072D01*
X18732500Y-10949643D01*
X18703928Y-10963929D01*
X19061071Y-10878214D02*
X19089643Y-10878214D01*
X19118214Y-10892500D01*
X19132500Y-10906786D01*
X19146786Y-10935357D01*
X19161071Y-10992500D01*
X19161071Y-11063929D01*
X19146786Y-11121072D01*
X19132500Y-11149643D01*
X19118214Y-11163929D01*
X19089643Y-11178214D01*
X19061071Y-11178214D01*
X19032500Y-11163929D01*
X19018214Y-11149643D01*
X19003928Y-11121072D01*
X18989643Y-11063929D01*
X18989643Y-10992500D01*
X19003928Y-10935357D01*
X19018214Y-10906786D01*
X19032500Y-10892500D01*
X19061071Y-10878214D01*
X19518214Y-11178214D02*
X19518214Y-10878214D01*
X19646786Y-11178214D02*
X19646786Y-11021072D01*
X19632500Y-10992500D01*
X19603928Y-10978214D01*
X19561071Y-10978214D01*
X19532500Y-10992500D01*
X19518214Y-11006786D01*
X19832500Y-11178214D02*
X19803928Y-11163929D01*
X19789643Y-11149643D01*
X19775357Y-11121072D01*
X19775357Y-11035357D01*
X19789643Y-11006786D01*
X19803928Y-10992500D01*
X19832500Y-10978214D01*
X19875357Y-10978214D01*
X19903928Y-10992500D01*
X19918214Y-11006786D01*
X19932500Y-11035357D01*
X19932500Y-11121072D01*
X19918214Y-11149643D01*
X19903928Y-11163929D01*
X19875357Y-11178214D01*
X19832500Y-11178214D01*
X20103928Y-11178214D02*
X20075357Y-11163929D01*
X20061071Y-11135357D01*
X20061071Y-10878214D01*
X20332500Y-11163929D02*
X20303928Y-11178214D01*
X20246786Y-11178214D01*
X20218214Y-11163929D01*
X20203928Y-11135357D01*
X20203928Y-11021072D01*
X20218214Y-10992500D01*
X20246786Y-10978214D01*
X20303928Y-10978214D01*
X20332500Y-10992500D01*
X20346786Y-11021072D01*
X20346786Y-11049643D01*
X20203928Y-11078214D01*
X20461071Y-11163929D02*
X20489643Y-11178214D01*
X20546786Y-11178214D01*
X20575357Y-11163929D01*
X20589643Y-11135357D01*
X20589643Y-11121072D01*
X20575357Y-11092500D01*
X20546786Y-11078214D01*
X20503928Y-11078214D01*
X20475357Y-11063929D01*
X20461071Y-11035357D01*
X20461071Y-11021072D01*
X20475357Y-10992500D01*
X20503928Y-10978214D01*
X20546786Y-10978214D01*
X20575357Y-10992500D01*
X20689643Y-11292500D02*
X20703928Y-11278214D01*
X20732500Y-11235357D01*
X20746786Y-11206786D01*
X20761071Y-11163929D01*
X20775357Y-11092500D01*
X20775357Y-11035357D01*
X20761071Y-10963929D01*
X20746786Y-10921072D01*
X20732500Y-10892500D01*
X20703928Y-10849643D01*
X20689643Y-10835357D01*
M02*
