G04 #@! TF.GenerationSoftware,KiCad,Pcbnew,(5.1.0)-1*
G04 #@! TF.CreationDate,2019-10-18T10:52:24-07:00*
G04 #@! TF.ProjectId,FlexPC-5,466c6578-5043-42d3-952e-6b696361645f,rev?*
G04 #@! TF.SameCoordinates,Original*
G04 #@! TF.FileFunction,Copper,L1,Top*
G04 #@! TF.FilePolarity,Positive*
%FSLAX46Y46*%
G04 Gerber Fmt 4.6, Leading zero omitted, Abs format (unit mm)*
G04 Created by KiCad (PCBNEW (5.1.0)-1) date 2019-10-18 10:52:24*
%MOMM*%
%LPD*%
G04 APERTURE LIST*
%ADD10C,0.508000*%
%ADD11C,0.152400*%
%ADD12C,0.025400*%
G04 APERTURE END LIST*
D10*
X162975000Y-98044602D03*
X162975000Y-99009801D03*
X163584600Y-98527202D03*
X162975000Y-99975000D03*
X163584600Y-99492401D03*
X139975000Y-98044602D03*
X139975000Y-99009801D03*
X140584600Y-98527202D03*
X139975000Y-99975000D03*
X140584600Y-99492401D03*
D11*
X139975000Y-98044602D02*
X161975000Y-98044602D01*
X161975000Y-98044602D02*
X162975000Y-98044602D01*
X139975000Y-99009801D02*
X161975000Y-99009801D01*
X161975000Y-99009801D02*
X162975000Y-99009801D01*
X162584600Y-98527202D02*
X163584600Y-98527202D01*
X140584600Y-98527202D02*
X162584600Y-98527202D01*
X139975000Y-99975000D02*
X161975000Y-99975000D01*
X161975000Y-99975000D02*
X162975000Y-99975000D01*
X162738401Y-99492401D02*
X163584600Y-99492401D01*
X140584600Y-99492401D02*
X162738401Y-99492401D01*
D12*
G36*
X163078118Y-98044000D02*
G01*
X162797007Y-98206072D01*
X162783475Y-98193270D01*
X162782728Y-98192617D01*
X162761350Y-98175345D01*
X162760523Y-98174731D01*
X162738172Y-98159492D01*
X162737276Y-98158934D01*
X162713951Y-98145725D01*
X162713000Y-98145238D01*
X162688702Y-98134062D01*
X162687716Y-98133658D01*
X162662444Y-98124514D01*
X162661445Y-98124198D01*
X162635199Y-98117086D01*
X162634207Y-98116860D01*
X162606988Y-98111780D01*
X162606023Y-98111638D01*
X162577831Y-98108590D01*
X162576908Y-98108524D01*
X162560000Y-98107935D01*
X162560000Y-97980065D01*
X162576908Y-97979476D01*
X162577831Y-97979410D01*
X162606023Y-97976362D01*
X162606988Y-97976221D01*
X162634207Y-97971142D01*
X162635199Y-97970915D01*
X162661445Y-97963802D01*
X162662444Y-97963486D01*
X162687716Y-97954342D01*
X162688702Y-97953938D01*
X162713000Y-97942762D01*
X162713951Y-97942275D01*
X162737276Y-97929067D01*
X162738173Y-97928509D01*
X162760524Y-97913269D01*
X162761350Y-97912655D01*
X162782728Y-97895383D01*
X162783475Y-97894730D01*
X162797007Y-97881928D01*
X163078118Y-98044000D01*
X163078118Y-98044000D01*
G37*
X163078118Y-98044000D02*
X162797007Y-98206072D01*
X162783475Y-98193270D01*
X162782728Y-98192617D01*
X162761350Y-98175345D01*
X162760523Y-98174731D01*
X162738172Y-98159492D01*
X162737276Y-98158934D01*
X162713951Y-98145725D01*
X162713000Y-98145238D01*
X162688702Y-98134062D01*
X162687716Y-98133658D01*
X162662444Y-98124514D01*
X162661445Y-98124198D01*
X162635199Y-98117086D01*
X162634207Y-98116860D01*
X162606988Y-98111780D01*
X162606023Y-98111638D01*
X162577831Y-98108590D01*
X162576908Y-98108524D01*
X162560000Y-98107935D01*
X162560000Y-97980065D01*
X162576908Y-97979476D01*
X162577831Y-97979410D01*
X162606023Y-97976362D01*
X162606988Y-97976221D01*
X162634207Y-97971142D01*
X162635199Y-97970915D01*
X162661445Y-97963802D01*
X162662444Y-97963486D01*
X162687716Y-97954342D01*
X162688702Y-97953938D01*
X162713000Y-97942762D01*
X162713951Y-97942275D01*
X162737276Y-97929067D01*
X162738173Y-97928509D01*
X162760524Y-97913269D01*
X162761350Y-97912655D01*
X162782728Y-97895383D01*
X162783475Y-97894730D01*
X162797007Y-97881928D01*
X163078118Y-98044000D01*
G36*
X163685178Y-98526600D02*
G01*
X163404067Y-98688672D01*
X163390535Y-98675870D01*
X163389788Y-98675217D01*
X163368410Y-98657945D01*
X163367583Y-98657331D01*
X163345232Y-98642092D01*
X163344336Y-98641534D01*
X163321011Y-98628325D01*
X163320060Y-98627838D01*
X163295762Y-98616662D01*
X163294776Y-98616258D01*
X163269504Y-98607114D01*
X163268505Y-98606798D01*
X163242259Y-98599686D01*
X163241267Y-98599460D01*
X163214048Y-98594380D01*
X163213083Y-98594238D01*
X163184891Y-98591190D01*
X163183968Y-98591124D01*
X163167060Y-98590535D01*
X163167060Y-98462665D01*
X163183968Y-98462076D01*
X163184891Y-98462010D01*
X163213083Y-98458962D01*
X163214048Y-98458821D01*
X163241267Y-98453742D01*
X163242259Y-98453515D01*
X163268505Y-98446402D01*
X163269504Y-98446086D01*
X163294776Y-98436942D01*
X163295762Y-98436538D01*
X163320060Y-98425362D01*
X163321011Y-98424875D01*
X163344336Y-98411667D01*
X163345233Y-98411109D01*
X163367584Y-98395869D01*
X163368410Y-98395255D01*
X163389788Y-98377983D01*
X163390535Y-98377330D01*
X163404067Y-98364528D01*
X163685178Y-98526600D01*
X163685178Y-98526600D01*
G37*
X163685178Y-98526600D02*
X163404067Y-98688672D01*
X163390535Y-98675870D01*
X163389788Y-98675217D01*
X163368410Y-98657945D01*
X163367583Y-98657331D01*
X163345232Y-98642092D01*
X163344336Y-98641534D01*
X163321011Y-98628325D01*
X163320060Y-98627838D01*
X163295762Y-98616662D01*
X163294776Y-98616258D01*
X163269504Y-98607114D01*
X163268505Y-98606798D01*
X163242259Y-98599686D01*
X163241267Y-98599460D01*
X163214048Y-98594380D01*
X163213083Y-98594238D01*
X163184891Y-98591190D01*
X163183968Y-98591124D01*
X163167060Y-98590535D01*
X163167060Y-98462665D01*
X163183968Y-98462076D01*
X163184891Y-98462010D01*
X163213083Y-98458962D01*
X163214048Y-98458821D01*
X163241267Y-98453742D01*
X163242259Y-98453515D01*
X163268505Y-98446402D01*
X163269504Y-98446086D01*
X163294776Y-98436942D01*
X163295762Y-98436538D01*
X163320060Y-98425362D01*
X163321011Y-98424875D01*
X163344336Y-98411667D01*
X163345233Y-98411109D01*
X163367584Y-98395869D01*
X163368410Y-98395255D01*
X163389788Y-98377983D01*
X163390535Y-98377330D01*
X163404067Y-98364528D01*
X163685178Y-98526600D01*
G36*
X163078118Y-99009200D02*
G01*
X162797007Y-99171272D01*
X162783475Y-99158470D01*
X162782728Y-99157817D01*
X162761350Y-99140545D01*
X162760523Y-99139931D01*
X162738172Y-99124692D01*
X162737276Y-99124134D01*
X162713951Y-99110925D01*
X162713000Y-99110438D01*
X162688702Y-99099262D01*
X162687716Y-99098858D01*
X162662444Y-99089714D01*
X162661445Y-99089398D01*
X162635199Y-99082286D01*
X162634207Y-99082060D01*
X162606988Y-99076980D01*
X162606023Y-99076838D01*
X162577831Y-99073790D01*
X162576908Y-99073724D01*
X162560000Y-99073135D01*
X162560000Y-98945265D01*
X162576908Y-98944676D01*
X162577831Y-98944610D01*
X162606023Y-98941562D01*
X162606988Y-98941421D01*
X162634207Y-98936342D01*
X162635199Y-98936115D01*
X162661445Y-98929002D01*
X162662444Y-98928686D01*
X162687716Y-98919542D01*
X162688702Y-98919138D01*
X162713000Y-98907962D01*
X162713951Y-98907475D01*
X162737276Y-98894267D01*
X162738173Y-98893709D01*
X162760524Y-98878469D01*
X162761350Y-98877855D01*
X162782728Y-98860583D01*
X162783475Y-98859930D01*
X162797007Y-98847128D01*
X163078118Y-99009200D01*
X163078118Y-99009200D01*
G37*
X163078118Y-99009200D02*
X162797007Y-99171272D01*
X162783475Y-99158470D01*
X162782728Y-99157817D01*
X162761350Y-99140545D01*
X162760523Y-99139931D01*
X162738172Y-99124692D01*
X162737276Y-99124134D01*
X162713951Y-99110925D01*
X162713000Y-99110438D01*
X162688702Y-99099262D01*
X162687716Y-99098858D01*
X162662444Y-99089714D01*
X162661445Y-99089398D01*
X162635199Y-99082286D01*
X162634207Y-99082060D01*
X162606988Y-99076980D01*
X162606023Y-99076838D01*
X162577831Y-99073790D01*
X162576908Y-99073724D01*
X162560000Y-99073135D01*
X162560000Y-98945265D01*
X162576908Y-98944676D01*
X162577831Y-98944610D01*
X162606023Y-98941562D01*
X162606988Y-98941421D01*
X162634207Y-98936342D01*
X162635199Y-98936115D01*
X162661445Y-98929002D01*
X162662444Y-98928686D01*
X162687716Y-98919542D01*
X162688702Y-98919138D01*
X162713000Y-98907962D01*
X162713951Y-98907475D01*
X162737276Y-98894267D01*
X162738173Y-98893709D01*
X162760524Y-98878469D01*
X162761350Y-98877855D01*
X162782728Y-98860583D01*
X162783475Y-98859930D01*
X162797007Y-98847128D01*
X163078118Y-99009200D01*
G36*
X163685178Y-99491800D02*
G01*
X163404067Y-99653872D01*
X163390535Y-99641070D01*
X163389788Y-99640417D01*
X163368410Y-99623145D01*
X163367583Y-99622531D01*
X163345232Y-99607292D01*
X163344336Y-99606734D01*
X163321011Y-99593525D01*
X163320060Y-99593038D01*
X163295762Y-99581862D01*
X163294776Y-99581458D01*
X163269504Y-99572314D01*
X163268505Y-99571998D01*
X163242259Y-99564886D01*
X163241267Y-99564660D01*
X163214048Y-99559580D01*
X163213083Y-99559438D01*
X163184891Y-99556390D01*
X163183968Y-99556324D01*
X163167060Y-99555735D01*
X163167060Y-99427865D01*
X163183968Y-99427276D01*
X163184891Y-99427210D01*
X163213083Y-99424162D01*
X163214048Y-99424021D01*
X163241267Y-99418942D01*
X163242259Y-99418715D01*
X163268505Y-99411602D01*
X163269504Y-99411286D01*
X163294776Y-99402142D01*
X163295762Y-99401738D01*
X163320060Y-99390562D01*
X163321011Y-99390075D01*
X163344336Y-99376867D01*
X163345233Y-99376309D01*
X163367584Y-99361069D01*
X163368410Y-99360455D01*
X163389788Y-99343183D01*
X163390535Y-99342530D01*
X163404067Y-99329728D01*
X163685178Y-99491800D01*
X163685178Y-99491800D01*
G37*
X163685178Y-99491800D02*
X163404067Y-99653872D01*
X163390535Y-99641070D01*
X163389788Y-99640417D01*
X163368410Y-99623145D01*
X163367583Y-99622531D01*
X163345232Y-99607292D01*
X163344336Y-99606734D01*
X163321011Y-99593525D01*
X163320060Y-99593038D01*
X163295762Y-99581862D01*
X163294776Y-99581458D01*
X163269504Y-99572314D01*
X163268505Y-99571998D01*
X163242259Y-99564886D01*
X163241267Y-99564660D01*
X163214048Y-99559580D01*
X163213083Y-99559438D01*
X163184891Y-99556390D01*
X163183968Y-99556324D01*
X163167060Y-99555735D01*
X163167060Y-99427865D01*
X163183968Y-99427276D01*
X163184891Y-99427210D01*
X163213083Y-99424162D01*
X163214048Y-99424021D01*
X163241267Y-99418942D01*
X163242259Y-99418715D01*
X163268505Y-99411602D01*
X163269504Y-99411286D01*
X163294776Y-99402142D01*
X163295762Y-99401738D01*
X163320060Y-99390562D01*
X163321011Y-99390075D01*
X163344336Y-99376867D01*
X163345233Y-99376309D01*
X163367584Y-99361069D01*
X163368410Y-99360455D01*
X163389788Y-99343183D01*
X163390535Y-99342530D01*
X163404067Y-99329728D01*
X163685178Y-99491800D01*
G36*
X163075578Y-99974400D02*
G01*
X162794467Y-100136472D01*
X162780935Y-100123670D01*
X162780188Y-100123017D01*
X162758810Y-100105745D01*
X162757983Y-100105131D01*
X162735632Y-100089892D01*
X162734736Y-100089334D01*
X162711411Y-100076125D01*
X162710460Y-100075638D01*
X162686162Y-100064462D01*
X162685176Y-100064058D01*
X162659904Y-100054914D01*
X162658905Y-100054598D01*
X162632659Y-100047486D01*
X162631667Y-100047260D01*
X162604448Y-100042180D01*
X162603483Y-100042038D01*
X162575291Y-100038990D01*
X162574368Y-100038924D01*
X162557460Y-100038335D01*
X162557460Y-99910465D01*
X162574368Y-99909876D01*
X162575291Y-99909810D01*
X162603483Y-99906762D01*
X162604448Y-99906621D01*
X162631667Y-99901542D01*
X162632659Y-99901315D01*
X162658905Y-99894202D01*
X162659904Y-99893886D01*
X162685176Y-99884742D01*
X162686162Y-99884338D01*
X162710460Y-99873162D01*
X162711411Y-99872675D01*
X162734736Y-99859467D01*
X162735633Y-99858909D01*
X162757984Y-99843669D01*
X162758810Y-99843055D01*
X162780188Y-99825783D01*
X162780935Y-99825130D01*
X162794467Y-99812328D01*
X163075578Y-99974400D01*
X163075578Y-99974400D01*
G37*
X163075578Y-99974400D02*
X162794467Y-100136472D01*
X162780935Y-100123670D01*
X162780188Y-100123017D01*
X162758810Y-100105745D01*
X162757983Y-100105131D01*
X162735632Y-100089892D01*
X162734736Y-100089334D01*
X162711411Y-100076125D01*
X162710460Y-100075638D01*
X162686162Y-100064462D01*
X162685176Y-100064058D01*
X162659904Y-100054914D01*
X162658905Y-100054598D01*
X162632659Y-100047486D01*
X162631667Y-100047260D01*
X162604448Y-100042180D01*
X162603483Y-100042038D01*
X162575291Y-100038990D01*
X162574368Y-100038924D01*
X162557460Y-100038335D01*
X162557460Y-99910465D01*
X162574368Y-99909876D01*
X162575291Y-99909810D01*
X162603483Y-99906762D01*
X162604448Y-99906621D01*
X162631667Y-99901542D01*
X162632659Y-99901315D01*
X162658905Y-99894202D01*
X162659904Y-99893886D01*
X162685176Y-99884742D01*
X162686162Y-99884338D01*
X162710460Y-99873162D01*
X162711411Y-99872675D01*
X162734736Y-99859467D01*
X162735633Y-99858909D01*
X162757984Y-99843669D01*
X162758810Y-99843055D01*
X162780188Y-99825783D01*
X162780935Y-99825130D01*
X162794467Y-99812328D01*
X163075578Y-99974400D01*
G36*
X140169945Y-97894730D02*
G01*
X140170692Y-97895383D01*
X140192070Y-97912655D01*
X140192897Y-97913269D01*
X140215248Y-97928508D01*
X140216144Y-97929066D01*
X140239469Y-97942275D01*
X140240420Y-97942762D01*
X140264718Y-97953938D01*
X140265704Y-97954342D01*
X140290976Y-97963486D01*
X140291975Y-97963802D01*
X140318221Y-97970914D01*
X140319213Y-97971140D01*
X140346432Y-97976220D01*
X140347397Y-97976362D01*
X140375589Y-97979410D01*
X140376512Y-97979476D01*
X140393420Y-97980065D01*
X140393420Y-98107935D01*
X140376512Y-98108524D01*
X140375589Y-98108590D01*
X140347397Y-98111638D01*
X140346432Y-98111779D01*
X140319213Y-98116858D01*
X140318221Y-98117085D01*
X140291975Y-98124198D01*
X140290976Y-98124514D01*
X140265704Y-98133658D01*
X140264718Y-98134062D01*
X140240420Y-98145238D01*
X140239469Y-98145725D01*
X140216144Y-98158933D01*
X140215247Y-98159491D01*
X140192896Y-98174731D01*
X140192070Y-98175345D01*
X140170692Y-98192617D01*
X140169945Y-98193270D01*
X140156413Y-98206072D01*
X139875302Y-98044000D01*
X140156413Y-97881928D01*
X140169945Y-97894730D01*
X140169945Y-97894730D01*
G37*
X140169945Y-97894730D02*
X140170692Y-97895383D01*
X140192070Y-97912655D01*
X140192897Y-97913269D01*
X140215248Y-97928508D01*
X140216144Y-97929066D01*
X140239469Y-97942275D01*
X140240420Y-97942762D01*
X140264718Y-97953938D01*
X140265704Y-97954342D01*
X140290976Y-97963486D01*
X140291975Y-97963802D01*
X140318221Y-97970914D01*
X140319213Y-97971140D01*
X140346432Y-97976220D01*
X140347397Y-97976362D01*
X140375589Y-97979410D01*
X140376512Y-97979476D01*
X140393420Y-97980065D01*
X140393420Y-98107935D01*
X140376512Y-98108524D01*
X140375589Y-98108590D01*
X140347397Y-98111638D01*
X140346432Y-98111779D01*
X140319213Y-98116858D01*
X140318221Y-98117085D01*
X140291975Y-98124198D01*
X140290976Y-98124514D01*
X140265704Y-98133658D01*
X140264718Y-98134062D01*
X140240420Y-98145238D01*
X140239469Y-98145725D01*
X140216144Y-98158933D01*
X140215247Y-98159491D01*
X140192896Y-98174731D01*
X140192070Y-98175345D01*
X140170692Y-98192617D01*
X140169945Y-98193270D01*
X140156413Y-98206072D01*
X139875302Y-98044000D01*
X140156413Y-97881928D01*
X140169945Y-97894730D01*
G36*
X140779545Y-98377330D02*
G01*
X140780292Y-98377983D01*
X140801670Y-98395255D01*
X140802497Y-98395869D01*
X140824848Y-98411108D01*
X140825744Y-98411666D01*
X140849069Y-98424875D01*
X140850020Y-98425362D01*
X140874318Y-98436538D01*
X140875304Y-98436942D01*
X140900576Y-98446086D01*
X140901575Y-98446402D01*
X140927821Y-98453514D01*
X140928813Y-98453740D01*
X140956032Y-98458820D01*
X140956997Y-98458962D01*
X140985189Y-98462010D01*
X140986112Y-98462076D01*
X141003020Y-98462665D01*
X141003020Y-98590535D01*
X140986112Y-98591124D01*
X140985189Y-98591190D01*
X140956997Y-98594238D01*
X140956032Y-98594379D01*
X140928813Y-98599458D01*
X140927821Y-98599685D01*
X140901575Y-98606798D01*
X140900576Y-98607114D01*
X140875304Y-98616258D01*
X140874318Y-98616662D01*
X140850020Y-98627838D01*
X140849069Y-98628325D01*
X140825744Y-98641533D01*
X140824847Y-98642091D01*
X140802496Y-98657331D01*
X140801670Y-98657945D01*
X140780292Y-98675217D01*
X140779545Y-98675870D01*
X140766013Y-98688672D01*
X140484902Y-98526600D01*
X140766013Y-98364528D01*
X140779545Y-98377330D01*
X140779545Y-98377330D01*
G37*
X140779545Y-98377330D02*
X140780292Y-98377983D01*
X140801670Y-98395255D01*
X140802497Y-98395869D01*
X140824848Y-98411108D01*
X140825744Y-98411666D01*
X140849069Y-98424875D01*
X140850020Y-98425362D01*
X140874318Y-98436538D01*
X140875304Y-98436942D01*
X140900576Y-98446086D01*
X140901575Y-98446402D01*
X140927821Y-98453514D01*
X140928813Y-98453740D01*
X140956032Y-98458820D01*
X140956997Y-98458962D01*
X140985189Y-98462010D01*
X140986112Y-98462076D01*
X141003020Y-98462665D01*
X141003020Y-98590535D01*
X140986112Y-98591124D01*
X140985189Y-98591190D01*
X140956997Y-98594238D01*
X140956032Y-98594379D01*
X140928813Y-98599458D01*
X140927821Y-98599685D01*
X140901575Y-98606798D01*
X140900576Y-98607114D01*
X140875304Y-98616258D01*
X140874318Y-98616662D01*
X140850020Y-98627838D01*
X140849069Y-98628325D01*
X140825744Y-98641533D01*
X140824847Y-98642091D01*
X140802496Y-98657331D01*
X140801670Y-98657945D01*
X140780292Y-98675217D01*
X140779545Y-98675870D01*
X140766013Y-98688672D01*
X140484902Y-98526600D01*
X140766013Y-98364528D01*
X140779545Y-98377330D01*
G36*
X140167405Y-98859930D02*
G01*
X140168152Y-98860583D01*
X140189530Y-98877855D01*
X140190357Y-98878469D01*
X140212708Y-98893708D01*
X140213604Y-98894266D01*
X140236929Y-98907475D01*
X140237880Y-98907962D01*
X140262178Y-98919138D01*
X140263164Y-98919542D01*
X140288436Y-98928686D01*
X140289435Y-98929002D01*
X140315681Y-98936114D01*
X140316673Y-98936340D01*
X140343892Y-98941420D01*
X140344857Y-98941562D01*
X140373049Y-98944610D01*
X140373972Y-98944676D01*
X140390880Y-98945265D01*
X140390880Y-99073135D01*
X140373972Y-99073724D01*
X140373049Y-99073790D01*
X140344857Y-99076838D01*
X140343892Y-99076979D01*
X140316673Y-99082058D01*
X140315681Y-99082285D01*
X140289435Y-99089398D01*
X140288436Y-99089714D01*
X140263164Y-99098858D01*
X140262178Y-99099262D01*
X140237880Y-99110438D01*
X140236929Y-99110925D01*
X140213604Y-99124133D01*
X140212707Y-99124691D01*
X140190356Y-99139931D01*
X140189530Y-99140545D01*
X140168152Y-99157817D01*
X140167405Y-99158470D01*
X140153873Y-99171272D01*
X139872762Y-99009200D01*
X140153873Y-98847128D01*
X140167405Y-98859930D01*
X140167405Y-98859930D01*
G37*
X140167405Y-98859930D02*
X140168152Y-98860583D01*
X140189530Y-98877855D01*
X140190357Y-98878469D01*
X140212708Y-98893708D01*
X140213604Y-98894266D01*
X140236929Y-98907475D01*
X140237880Y-98907962D01*
X140262178Y-98919138D01*
X140263164Y-98919542D01*
X140288436Y-98928686D01*
X140289435Y-98929002D01*
X140315681Y-98936114D01*
X140316673Y-98936340D01*
X140343892Y-98941420D01*
X140344857Y-98941562D01*
X140373049Y-98944610D01*
X140373972Y-98944676D01*
X140390880Y-98945265D01*
X140390880Y-99073135D01*
X140373972Y-99073724D01*
X140373049Y-99073790D01*
X140344857Y-99076838D01*
X140343892Y-99076979D01*
X140316673Y-99082058D01*
X140315681Y-99082285D01*
X140289435Y-99089398D01*
X140288436Y-99089714D01*
X140263164Y-99098858D01*
X140262178Y-99099262D01*
X140237880Y-99110438D01*
X140236929Y-99110925D01*
X140213604Y-99124133D01*
X140212707Y-99124691D01*
X140190356Y-99139931D01*
X140189530Y-99140545D01*
X140168152Y-99157817D01*
X140167405Y-99158470D01*
X140153873Y-99171272D01*
X139872762Y-99009200D01*
X140153873Y-98847128D01*
X140167405Y-98859930D01*
G36*
X140779545Y-99342530D02*
G01*
X140780292Y-99343183D01*
X140801670Y-99360455D01*
X140802497Y-99361069D01*
X140824848Y-99376308D01*
X140825744Y-99376866D01*
X140849069Y-99390075D01*
X140850020Y-99390562D01*
X140874318Y-99401738D01*
X140875304Y-99402142D01*
X140900576Y-99411286D01*
X140901575Y-99411602D01*
X140927821Y-99418714D01*
X140928813Y-99418940D01*
X140956032Y-99424020D01*
X140956997Y-99424162D01*
X140985189Y-99427210D01*
X140986112Y-99427276D01*
X141003020Y-99427865D01*
X141003020Y-99555735D01*
X140986112Y-99556324D01*
X140985189Y-99556390D01*
X140956997Y-99559438D01*
X140956032Y-99559579D01*
X140928813Y-99564658D01*
X140927821Y-99564885D01*
X140901575Y-99571998D01*
X140900576Y-99572314D01*
X140875304Y-99581458D01*
X140874318Y-99581862D01*
X140850020Y-99593038D01*
X140849069Y-99593525D01*
X140825744Y-99606733D01*
X140824847Y-99607291D01*
X140802496Y-99622531D01*
X140801670Y-99623145D01*
X140780292Y-99640417D01*
X140779545Y-99641070D01*
X140766013Y-99653872D01*
X140484902Y-99491800D01*
X140766013Y-99329728D01*
X140779545Y-99342530D01*
X140779545Y-99342530D01*
G37*
X140779545Y-99342530D02*
X140780292Y-99343183D01*
X140801670Y-99360455D01*
X140802497Y-99361069D01*
X140824848Y-99376308D01*
X140825744Y-99376866D01*
X140849069Y-99390075D01*
X140850020Y-99390562D01*
X140874318Y-99401738D01*
X140875304Y-99402142D01*
X140900576Y-99411286D01*
X140901575Y-99411602D01*
X140927821Y-99418714D01*
X140928813Y-99418940D01*
X140956032Y-99424020D01*
X140956997Y-99424162D01*
X140985189Y-99427210D01*
X140986112Y-99427276D01*
X141003020Y-99427865D01*
X141003020Y-99555735D01*
X140986112Y-99556324D01*
X140985189Y-99556390D01*
X140956997Y-99559438D01*
X140956032Y-99559579D01*
X140928813Y-99564658D01*
X140927821Y-99564885D01*
X140901575Y-99571998D01*
X140900576Y-99572314D01*
X140875304Y-99581458D01*
X140874318Y-99581862D01*
X140850020Y-99593038D01*
X140849069Y-99593525D01*
X140825744Y-99606733D01*
X140824847Y-99607291D01*
X140802496Y-99622531D01*
X140801670Y-99623145D01*
X140780292Y-99640417D01*
X140779545Y-99641070D01*
X140766013Y-99653872D01*
X140484902Y-99491800D01*
X140766013Y-99329728D01*
X140779545Y-99342530D01*
G36*
X140167405Y-99825130D02*
G01*
X140168152Y-99825783D01*
X140189530Y-99843055D01*
X140190357Y-99843669D01*
X140212708Y-99858908D01*
X140213604Y-99859466D01*
X140236929Y-99872675D01*
X140237880Y-99873162D01*
X140262178Y-99884338D01*
X140263164Y-99884742D01*
X140288436Y-99893886D01*
X140289435Y-99894202D01*
X140315681Y-99901314D01*
X140316673Y-99901540D01*
X140343892Y-99906620D01*
X140344857Y-99906762D01*
X140373049Y-99909810D01*
X140373972Y-99909876D01*
X140390880Y-99910465D01*
X140390880Y-100038335D01*
X140373972Y-100038924D01*
X140373049Y-100038990D01*
X140344857Y-100042038D01*
X140343892Y-100042179D01*
X140316673Y-100047258D01*
X140315681Y-100047485D01*
X140289435Y-100054598D01*
X140288436Y-100054914D01*
X140263164Y-100064058D01*
X140262178Y-100064462D01*
X140237880Y-100075638D01*
X140236929Y-100076125D01*
X140213604Y-100089333D01*
X140212707Y-100089891D01*
X140190356Y-100105131D01*
X140189530Y-100105745D01*
X140168152Y-100123017D01*
X140167405Y-100123670D01*
X140153873Y-100136472D01*
X139872762Y-99974400D01*
X140153873Y-99812328D01*
X140167405Y-99825130D01*
X140167405Y-99825130D01*
G37*
X140167405Y-99825130D02*
X140168152Y-99825783D01*
X140189530Y-99843055D01*
X140190357Y-99843669D01*
X140212708Y-99858908D01*
X140213604Y-99859466D01*
X140236929Y-99872675D01*
X140237880Y-99873162D01*
X140262178Y-99884338D01*
X140263164Y-99884742D01*
X140288436Y-99893886D01*
X140289435Y-99894202D01*
X140315681Y-99901314D01*
X140316673Y-99901540D01*
X140343892Y-99906620D01*
X140344857Y-99906762D01*
X140373049Y-99909810D01*
X140373972Y-99909876D01*
X140390880Y-99910465D01*
X140390880Y-100038335D01*
X140373972Y-100038924D01*
X140373049Y-100038990D01*
X140344857Y-100042038D01*
X140343892Y-100042179D01*
X140316673Y-100047258D01*
X140315681Y-100047485D01*
X140289435Y-100054598D01*
X140288436Y-100054914D01*
X140263164Y-100064058D01*
X140262178Y-100064462D01*
X140237880Y-100075638D01*
X140236929Y-100076125D01*
X140213604Y-100089333D01*
X140212707Y-100089891D01*
X140190356Y-100105131D01*
X140189530Y-100105745D01*
X140168152Y-100123017D01*
X140167405Y-100123670D01*
X140153873Y-100136472D01*
X139872762Y-99974400D01*
X140153873Y-99812328D01*
X140167405Y-99825130D01*
M02*
