%FSLAX45Y45*%
G04 Gerber Fmt 4.5, Leading zero omitted, Abs format (unit mm)*
G04 Created by KiCad (PCBNEW (5.1.0)-1) date 2019-07-29 23:07:23*
%MOMM*%
%LPD*%
G04 APERTURE LIST*
%ADD10C,0.050000*%
%ADD11C,0.200000*%
%ADD12C,0.300000*%
G04 APERTURE END LIST*
D10*
X13040000Y-9830000D02*
X13040000Y-8440000D01*
X15001000Y-9830000D02*
X13040000Y-9830000D01*
X15000000Y-8440000D02*
X15001000Y-9830000D01*
X13040000Y-8440000D02*
X15000000Y-8440000D01*
D11*
D12*
X13323928Y-10298214D02*
X13323928Y-9998214D01*
X13395357Y-9998214D01*
X13438214Y-10012500D01*
X13466786Y-10041072D01*
X13481071Y-10069643D01*
X13495357Y-10126786D01*
X13495357Y-10169643D01*
X13481071Y-10226786D01*
X13466786Y-10255357D01*
X13438214Y-10283929D01*
X13395357Y-10298214D01*
X13323928Y-10298214D01*
X13623928Y-10298214D02*
X13623928Y-10098214D01*
X13623928Y-10155357D02*
X13638214Y-10126786D01*
X13652500Y-10112500D01*
X13681071Y-10098214D01*
X13709643Y-10098214D01*
X13809643Y-10298214D02*
X13809643Y-10098214D01*
X13809643Y-9998214D02*
X13795357Y-10012500D01*
X13809643Y-10026786D01*
X13823928Y-10012500D01*
X13809643Y-9998214D01*
X13809643Y-10026786D01*
X13995357Y-10298214D02*
X13966786Y-10283929D01*
X13952500Y-10255357D01*
X13952500Y-9998214D01*
X14152500Y-10298214D02*
X14123928Y-10283929D01*
X14109643Y-10255357D01*
X14109643Y-9998214D01*
X14495357Y-10298214D02*
X14495357Y-9998214D01*
X14595357Y-10212500D01*
X14695357Y-9998214D01*
X14695357Y-10298214D01*
X14966786Y-10298214D02*
X14966786Y-10141072D01*
X14952500Y-10112500D01*
X14923928Y-10098214D01*
X14866786Y-10098214D01*
X14838214Y-10112500D01*
X14966786Y-10283929D02*
X14938214Y-10298214D01*
X14866786Y-10298214D01*
X14838214Y-10283929D01*
X14823928Y-10255357D01*
X14823928Y-10226786D01*
X14838214Y-10198214D01*
X14866786Y-10183929D01*
X14938214Y-10183929D01*
X14966786Y-10169643D01*
X15109643Y-10098214D02*
X15109643Y-10398214D01*
X15109643Y-10112500D02*
X15138214Y-10098214D01*
X15195357Y-10098214D01*
X15223928Y-10112500D01*
X15238214Y-10126786D01*
X15252500Y-10155357D01*
X15252500Y-10241072D01*
X15238214Y-10269643D01*
X15223928Y-10283929D01*
X15195357Y-10298214D01*
X15138214Y-10298214D01*
X15109643Y-10283929D01*
X15381071Y-10269643D02*
X15395357Y-10283929D01*
X15381071Y-10298214D01*
X15366786Y-10283929D01*
X15381071Y-10269643D01*
X15381071Y-10298214D01*
X15381071Y-10112500D02*
X15395357Y-10126786D01*
X15381071Y-10141072D01*
X15366786Y-10126786D01*
X15381071Y-10112500D01*
X15381071Y-10141072D01*
M02*
