G04 #@! TF.GenerationSoftware,KiCad,Pcbnew,(5.1.0)-1*
G04 #@! TF.CreationDate,2019-07-29T23:07:26-07:00*
G04 #@! TF.ProjectId,WireFreeV4_Release,57697265-4672-4656-9556-345f52656c65,rev?*
G04 #@! TF.SameCoordinates,Original*
G04 #@! TF.FileFunction,Copper,L2,Inr*
G04 #@! TF.FilePolarity,Positive*
%FSLAX46Y46*%
G04 Gerber Fmt 4.6, Leading zero omitted, Abs format (unit mm)*
G04 Created by KiCad (PCBNEW (5.1.0)-1) date 2019-07-29 23:07:26*
%MOMM*%
%LPD*%
G04 APERTURE LIST*
%ADD10C,0.355600*%
%ADD11C,0.127000*%
G04 APERTURE END LIST*
D10*
X139500000Y-85520000D03*
X133220000Y-84920000D03*
X130900980Y-97876440D03*
X139618720Y-88633300D03*
X139618720Y-89435940D03*
X139618720Y-90236040D03*
X138818620Y-90236040D03*
X138018520Y-90236040D03*
X137218420Y-89435940D03*
X137218420Y-90236040D03*
X137218420Y-91036140D03*
X138018520Y-91036140D03*
X138018520Y-92636340D03*
X136418320Y-92636340D03*
X136418320Y-91836240D03*
X138018520Y-91833700D03*
X133707460Y-85523800D03*
X138536000Y-85518720D03*
X131512960Y-88703529D03*
X134717439Y-97448819D03*
X132649860Y-86733200D03*
X148699220Y-91770620D03*
X148700000Y-89680000D03*
X143970000Y-86810000D03*
X143970000Y-87760000D03*
X143020000Y-87760000D03*
X141700000Y-88260000D03*
X141630000Y-85550000D03*
X142946120Y-91646580D03*
X145348960Y-92698840D03*
X146838960Y-85573840D03*
X137218420Y-91836240D03*
X145600000Y-97140000D03*
X139984601Y-97187940D03*
X141800000Y-92860000D03*
X140030000Y-88260000D03*
X138818620Y-89435940D03*
X143020000Y-86810000D03*
X139507080Y-97805160D03*
X130900820Y-89183580D03*
X131512960Y-97392860D03*
X130905900Y-96907720D03*
X147060000Y-89680000D03*
X147340000Y-92910000D03*
X139618720Y-91033600D03*
X133050000Y-97440000D03*
X131448039Y-86812839D03*
X148699220Y-93410620D03*
X143170000Y-85490000D03*
X148950000Y-97300000D03*
X146300000Y-92190000D03*
X143150000Y-89650000D03*
X131430000Y-85080000D03*
X142079000Y-96248220D03*
X140160000Y-86310000D03*
X143460000Y-93580000D03*
X145348957Y-90498843D03*
X140820000Y-88230000D03*
X134349860Y-86733200D03*
X132649860Y-88933200D03*
X139840000Y-87200000D03*
X140820000Y-89030000D03*
X138816760Y-92633800D03*
X138818900Y-91834720D03*
X139615500Y-91836240D03*
X139580000Y-95820000D03*
X140949800Y-97187940D03*
X140470000Y-96260000D03*
X140467200Y-97797540D03*
X145290000Y-86960000D03*
X146340000Y-88290000D03*
X141700000Y-86960000D03*
X145348960Y-89398840D03*
X141700000Y-87610000D03*
X145290000Y-86310000D03*
X136029700Y-94645480D03*
X137624820Y-94625160D03*
X131512960Y-95459922D03*
X134818900Y-87834720D03*
X130903360Y-94977322D03*
X135219440Y-92234180D03*
X130903360Y-93046924D03*
X135214360Y-90634820D03*
X134818900Y-93434720D03*
X131512960Y-92564325D03*
X131512960Y-91599126D03*
X133576054Y-90665300D03*
X130903360Y-90151327D03*
X135618900Y-94234720D03*
X133207750Y-92456000D03*
X137218900Y-94234720D03*
X131512960Y-89668728D03*
X133578600Y-91439966D03*
X135618900Y-89434720D03*
X134187524Y-84909120D03*
X134818900Y-90234720D03*
X135635322Y-85518720D03*
X138018900Y-88634720D03*
X136117922Y-84909120D03*
X135618900Y-92634720D03*
X142530000Y-90700000D03*
X141218900Y-94234720D03*
X143830002Y-90080000D03*
X135618900Y-93434720D03*
X144470000Y-89080000D03*
X134018900Y-93434720D03*
X143820000Y-85490000D03*
X141218900Y-92634720D03*
X139618900Y-92634720D03*
X142180000Y-85820000D03*
D11*
G36*
X133952746Y-84623043D02*
G01*
X133901447Y-84674342D01*
X133861141Y-84734665D01*
X133833378Y-84801691D01*
X133819224Y-84872846D01*
X133819224Y-84945394D01*
X133833378Y-85016549D01*
X133861141Y-85083575D01*
X133901447Y-85143898D01*
X133952746Y-85195197D01*
X134013069Y-85235503D01*
X134080095Y-85263266D01*
X134151250Y-85277420D01*
X134223798Y-85277420D01*
X134294953Y-85263266D01*
X134361979Y-85235503D01*
X134422302Y-85195197D01*
X134473601Y-85143898D01*
X134513907Y-85083575D01*
X134541670Y-85016549D01*
X134555824Y-84945394D01*
X134555824Y-84872846D01*
X134541670Y-84801691D01*
X134513907Y-84734665D01*
X134473601Y-84674342D01*
X134422302Y-84623043D01*
X134411013Y-84615500D01*
X135894433Y-84615500D01*
X135883144Y-84623043D01*
X135831845Y-84674342D01*
X135791539Y-84734665D01*
X135763776Y-84801691D01*
X135749622Y-84872846D01*
X135749622Y-84945394D01*
X135763776Y-85016549D01*
X135791539Y-85083575D01*
X135831845Y-85143898D01*
X135883144Y-85195197D01*
X135943467Y-85235503D01*
X136010493Y-85263266D01*
X136081648Y-85277420D01*
X136154196Y-85277420D01*
X136225351Y-85263266D01*
X136292377Y-85235503D01*
X136352700Y-85195197D01*
X136403999Y-85143898D01*
X136444305Y-85083575D01*
X136472068Y-85016549D01*
X136486222Y-84945394D01*
X136486222Y-84872846D01*
X136472068Y-84801691D01*
X136444305Y-84734665D01*
X136403999Y-84674342D01*
X136352700Y-84623043D01*
X136341411Y-84615500D01*
X149784656Y-84615500D01*
X149794345Y-98084500D01*
X140700656Y-98084500D01*
X140701978Y-98083617D01*
X140753277Y-98032318D01*
X140793583Y-97971995D01*
X140821346Y-97904969D01*
X140835500Y-97833814D01*
X140835500Y-97761266D01*
X140821346Y-97690111D01*
X140793583Y-97623085D01*
X140753277Y-97562762D01*
X140701978Y-97511463D01*
X140641655Y-97471157D01*
X140574629Y-97443394D01*
X140503474Y-97429240D01*
X140430926Y-97429240D01*
X140359771Y-97443394D01*
X140292745Y-97471157D01*
X140232422Y-97511463D01*
X140181123Y-97562762D01*
X140140817Y-97623085D01*
X140113054Y-97690111D01*
X140098900Y-97761266D01*
X140098900Y-97833814D01*
X140113054Y-97904969D01*
X140140817Y-97971995D01*
X140181123Y-98032318D01*
X140232422Y-98083617D01*
X140233744Y-98084500D01*
X139748595Y-98084500D01*
X139793157Y-98039938D01*
X139833463Y-97979615D01*
X139861226Y-97912589D01*
X139875380Y-97841434D01*
X139875380Y-97768886D01*
X139861226Y-97697731D01*
X139833463Y-97630705D01*
X139793157Y-97570382D01*
X139741858Y-97519083D01*
X139681535Y-97478777D01*
X139614509Y-97451014D01*
X139543354Y-97436860D01*
X139470806Y-97436860D01*
X139399651Y-97451014D01*
X139332625Y-97478777D01*
X139272302Y-97519083D01*
X139221003Y-97570382D01*
X139180697Y-97630705D01*
X139152934Y-97697731D01*
X139138780Y-97768886D01*
X139138780Y-97841434D01*
X139152934Y-97912589D01*
X139180697Y-97979615D01*
X139221003Y-98039938D01*
X139265565Y-98084500D01*
X130615500Y-98084500D01*
X130615500Y-97356586D01*
X131144660Y-97356586D01*
X131144660Y-97429134D01*
X131158814Y-97500289D01*
X131186577Y-97567315D01*
X131226883Y-97627638D01*
X131278182Y-97678937D01*
X131338505Y-97719243D01*
X131405531Y-97747006D01*
X131476686Y-97761160D01*
X131549234Y-97761160D01*
X131620389Y-97747006D01*
X131687415Y-97719243D01*
X131747738Y-97678937D01*
X131799037Y-97627638D01*
X131839343Y-97567315D01*
X131867106Y-97500289D01*
X131881260Y-97429134D01*
X131881260Y-97403726D01*
X132681700Y-97403726D01*
X132681700Y-97476274D01*
X132695854Y-97547429D01*
X132723617Y-97614455D01*
X132763923Y-97674778D01*
X132815222Y-97726077D01*
X132875545Y-97766383D01*
X132942571Y-97794146D01*
X133013726Y-97808300D01*
X133086274Y-97808300D01*
X133157429Y-97794146D01*
X133224455Y-97766383D01*
X133284778Y-97726077D01*
X133336077Y-97674778D01*
X133376383Y-97614455D01*
X133404146Y-97547429D01*
X133418300Y-97476274D01*
X133418300Y-97403726D01*
X133404146Y-97332571D01*
X133376383Y-97265545D01*
X133336077Y-97205222D01*
X133284778Y-97153923D01*
X133281401Y-97151666D01*
X140581500Y-97151666D01*
X140581500Y-97224214D01*
X140595654Y-97295369D01*
X140623417Y-97362395D01*
X140663723Y-97422718D01*
X140715022Y-97474017D01*
X140775345Y-97514323D01*
X140842371Y-97542086D01*
X140913526Y-97556240D01*
X140986074Y-97556240D01*
X141057229Y-97542086D01*
X141124255Y-97514323D01*
X141184578Y-97474017D01*
X141235877Y-97422718D01*
X141276183Y-97362395D01*
X141303946Y-97295369D01*
X141310240Y-97263726D01*
X148581700Y-97263726D01*
X148581700Y-97336274D01*
X148595854Y-97407429D01*
X148623617Y-97474455D01*
X148663923Y-97534778D01*
X148715222Y-97586077D01*
X148775545Y-97626383D01*
X148842571Y-97654146D01*
X148913726Y-97668300D01*
X148986274Y-97668300D01*
X149057429Y-97654146D01*
X149124455Y-97626383D01*
X149184778Y-97586077D01*
X149236077Y-97534778D01*
X149276383Y-97474455D01*
X149304146Y-97407429D01*
X149318300Y-97336274D01*
X149318300Y-97263726D01*
X149304146Y-97192571D01*
X149276383Y-97125545D01*
X149236077Y-97065222D01*
X149184778Y-97013923D01*
X149124455Y-96973617D01*
X149057429Y-96945854D01*
X148986274Y-96931700D01*
X148913726Y-96931700D01*
X148842571Y-96945854D01*
X148775545Y-96973617D01*
X148715222Y-97013923D01*
X148663923Y-97065222D01*
X148623617Y-97125545D01*
X148595854Y-97192571D01*
X148581700Y-97263726D01*
X141310240Y-97263726D01*
X141318100Y-97224214D01*
X141318100Y-97151666D01*
X141303946Y-97080511D01*
X141276183Y-97013485D01*
X141235877Y-96953162D01*
X141184578Y-96901863D01*
X141124255Y-96861557D01*
X141057229Y-96833794D01*
X140986074Y-96819640D01*
X140913526Y-96819640D01*
X140842371Y-96833794D01*
X140775345Y-96861557D01*
X140715022Y-96901863D01*
X140663723Y-96953162D01*
X140623417Y-97013485D01*
X140595654Y-97080511D01*
X140581500Y-97151666D01*
X133281401Y-97151666D01*
X133224455Y-97113617D01*
X133157429Y-97085854D01*
X133086274Y-97071700D01*
X133013726Y-97071700D01*
X132942571Y-97085854D01*
X132875545Y-97113617D01*
X132815222Y-97153923D01*
X132763923Y-97205222D01*
X132723617Y-97265545D01*
X132695854Y-97332571D01*
X132681700Y-97403726D01*
X131881260Y-97403726D01*
X131881260Y-97356586D01*
X131867106Y-97285431D01*
X131839343Y-97218405D01*
X131799037Y-97158082D01*
X131747738Y-97106783D01*
X131687415Y-97066477D01*
X131620389Y-97038714D01*
X131549234Y-97024560D01*
X131476686Y-97024560D01*
X131405531Y-97038714D01*
X131338505Y-97066477D01*
X131278182Y-97106783D01*
X131226883Y-97158082D01*
X131186577Y-97218405D01*
X131158814Y-97285431D01*
X131144660Y-97356586D01*
X130615500Y-97356586D01*
X130615500Y-97136028D01*
X130619823Y-97142498D01*
X130671122Y-97193797D01*
X130731445Y-97234103D01*
X130798471Y-97261866D01*
X130869626Y-97276020D01*
X130942174Y-97276020D01*
X131013329Y-97261866D01*
X131080355Y-97234103D01*
X131140678Y-97193797D01*
X131191977Y-97142498D01*
X131232283Y-97082175D01*
X131260046Y-97015149D01*
X131274200Y-96943994D01*
X131274200Y-96871446D01*
X131260046Y-96800291D01*
X131232283Y-96733265D01*
X131191977Y-96672942D01*
X131140678Y-96621643D01*
X131080355Y-96581337D01*
X131013329Y-96553574D01*
X130942174Y-96539420D01*
X130869626Y-96539420D01*
X130798471Y-96553574D01*
X130731445Y-96581337D01*
X130671122Y-96621643D01*
X130619823Y-96672942D01*
X130615500Y-96679412D01*
X130615500Y-96223726D01*
X140101700Y-96223726D01*
X140101700Y-96296274D01*
X140115854Y-96367429D01*
X140143617Y-96434455D01*
X140183923Y-96494778D01*
X140235222Y-96546077D01*
X140295545Y-96586383D01*
X140362571Y-96614146D01*
X140433726Y-96628300D01*
X140506274Y-96628300D01*
X140577429Y-96614146D01*
X140644455Y-96586383D01*
X140704778Y-96546077D01*
X140756077Y-96494778D01*
X140796383Y-96434455D01*
X140824146Y-96367429D01*
X140838300Y-96296274D01*
X140838300Y-96223726D01*
X140835957Y-96211946D01*
X141710700Y-96211946D01*
X141710700Y-96284494D01*
X141724854Y-96355649D01*
X141752617Y-96422675D01*
X141792923Y-96482998D01*
X141844222Y-96534297D01*
X141904545Y-96574603D01*
X141971571Y-96602366D01*
X142042726Y-96616520D01*
X142115274Y-96616520D01*
X142186429Y-96602366D01*
X142253455Y-96574603D01*
X142313778Y-96534297D01*
X142365077Y-96482998D01*
X142405383Y-96422675D01*
X142433146Y-96355649D01*
X142447300Y-96284494D01*
X142447300Y-96211946D01*
X142433146Y-96140791D01*
X142405383Y-96073765D01*
X142365077Y-96013442D01*
X142313778Y-95962143D01*
X142253455Y-95921837D01*
X142186429Y-95894074D01*
X142115274Y-95879920D01*
X142042726Y-95879920D01*
X141971571Y-95894074D01*
X141904545Y-95921837D01*
X141844222Y-95962143D01*
X141792923Y-96013442D01*
X141752617Y-96073765D01*
X141724854Y-96140791D01*
X141710700Y-96211946D01*
X140835957Y-96211946D01*
X140824146Y-96152571D01*
X140796383Y-96085545D01*
X140756077Y-96025222D01*
X140704778Y-95973923D01*
X140644455Y-95933617D01*
X140577429Y-95905854D01*
X140506274Y-95891700D01*
X140433726Y-95891700D01*
X140362571Y-95905854D01*
X140295545Y-95933617D01*
X140235222Y-95973923D01*
X140183923Y-96025222D01*
X140143617Y-96085545D01*
X140115854Y-96152571D01*
X140101700Y-96223726D01*
X130615500Y-96223726D01*
X130615500Y-95423648D01*
X131144660Y-95423648D01*
X131144660Y-95496196D01*
X131158814Y-95567351D01*
X131186577Y-95634377D01*
X131226883Y-95694700D01*
X131278182Y-95745999D01*
X131338505Y-95786305D01*
X131405531Y-95814068D01*
X131476686Y-95828222D01*
X131549234Y-95828222D01*
X131620389Y-95814068D01*
X131687415Y-95786305D01*
X131691274Y-95783726D01*
X139211700Y-95783726D01*
X139211700Y-95856274D01*
X139225854Y-95927429D01*
X139253617Y-95994455D01*
X139293923Y-96054778D01*
X139345222Y-96106077D01*
X139405545Y-96146383D01*
X139472571Y-96174146D01*
X139543726Y-96188300D01*
X139616274Y-96188300D01*
X139687429Y-96174146D01*
X139754455Y-96146383D01*
X139814778Y-96106077D01*
X139866077Y-96054778D01*
X139906383Y-95994455D01*
X139934146Y-95927429D01*
X139948300Y-95856274D01*
X139948300Y-95783726D01*
X139934146Y-95712571D01*
X139906383Y-95645545D01*
X139866077Y-95585222D01*
X139814778Y-95533923D01*
X139754455Y-95493617D01*
X139687429Y-95465854D01*
X139616274Y-95451700D01*
X139543726Y-95451700D01*
X139472571Y-95465854D01*
X139405545Y-95493617D01*
X139345222Y-95533923D01*
X139293923Y-95585222D01*
X139253617Y-95645545D01*
X139225854Y-95712571D01*
X139211700Y-95783726D01*
X131691274Y-95783726D01*
X131747738Y-95745999D01*
X131799037Y-95694700D01*
X131839343Y-95634377D01*
X131867106Y-95567351D01*
X131881260Y-95496196D01*
X131881260Y-95423648D01*
X131867106Y-95352493D01*
X131839343Y-95285467D01*
X131799037Y-95225144D01*
X131747738Y-95173845D01*
X131687415Y-95133539D01*
X131620389Y-95105776D01*
X131549234Y-95091622D01*
X131476686Y-95091622D01*
X131405531Y-95105776D01*
X131338505Y-95133539D01*
X131278182Y-95173845D01*
X131226883Y-95225144D01*
X131186577Y-95285467D01*
X131158814Y-95352493D01*
X131144660Y-95423648D01*
X130615500Y-95423648D01*
X130615500Y-95209432D01*
X130617283Y-95212100D01*
X130668582Y-95263399D01*
X130728905Y-95303705D01*
X130795931Y-95331468D01*
X130867086Y-95345622D01*
X130939634Y-95345622D01*
X131010789Y-95331468D01*
X131077815Y-95303705D01*
X131138138Y-95263399D01*
X131189437Y-95212100D01*
X131229743Y-95151777D01*
X131257506Y-95084751D01*
X131271660Y-95013596D01*
X131271660Y-94941048D01*
X131257506Y-94869893D01*
X131229743Y-94802867D01*
X131189437Y-94742544D01*
X131138138Y-94691245D01*
X131077815Y-94650939D01*
X131010789Y-94623176D01*
X130939634Y-94609022D01*
X130867086Y-94609022D01*
X130795931Y-94623176D01*
X130728905Y-94650939D01*
X130668582Y-94691245D01*
X130617283Y-94742544D01*
X130615500Y-94745212D01*
X130615500Y-94198446D01*
X135250600Y-94198446D01*
X135250600Y-94270994D01*
X135264754Y-94342149D01*
X135292517Y-94409175D01*
X135332823Y-94469498D01*
X135384122Y-94520797D01*
X135444445Y-94561103D01*
X135511471Y-94588866D01*
X135582626Y-94603020D01*
X135655174Y-94603020D01*
X135662938Y-94601476D01*
X135661400Y-94609206D01*
X135661400Y-94681754D01*
X135675554Y-94752909D01*
X135703317Y-94819935D01*
X135743623Y-94880258D01*
X135794922Y-94931557D01*
X135855245Y-94971863D01*
X135922271Y-94999626D01*
X135993426Y-95013780D01*
X136065974Y-95013780D01*
X136137129Y-94999626D01*
X136204155Y-94971863D01*
X136264478Y-94931557D01*
X136315777Y-94880258D01*
X136356083Y-94819935D01*
X136383846Y-94752909D01*
X136398000Y-94681754D01*
X136398000Y-94609206D01*
X136383846Y-94538051D01*
X136356083Y-94471025D01*
X136315777Y-94410702D01*
X136264478Y-94359403D01*
X136204155Y-94319097D01*
X136137129Y-94291334D01*
X136065974Y-94277180D01*
X135993426Y-94277180D01*
X135985662Y-94278724D01*
X135987200Y-94270994D01*
X135987200Y-94198446D01*
X136850600Y-94198446D01*
X136850600Y-94270994D01*
X136864754Y-94342149D01*
X136892517Y-94409175D01*
X136932823Y-94469498D01*
X136984122Y-94520797D01*
X137044445Y-94561103D01*
X137111471Y-94588866D01*
X137182626Y-94603020D01*
X137255174Y-94603020D01*
X137256520Y-94602752D01*
X137256520Y-94661434D01*
X137270674Y-94732589D01*
X137298437Y-94799615D01*
X137338743Y-94859938D01*
X137390042Y-94911237D01*
X137450365Y-94951543D01*
X137517391Y-94979306D01*
X137588546Y-94993460D01*
X137661094Y-94993460D01*
X137732249Y-94979306D01*
X137799275Y-94951543D01*
X137859598Y-94911237D01*
X137910897Y-94859938D01*
X137951203Y-94799615D01*
X137978966Y-94732589D01*
X137993120Y-94661434D01*
X137993120Y-94588886D01*
X137978966Y-94517731D01*
X137951203Y-94450705D01*
X137910897Y-94390382D01*
X137859598Y-94339083D01*
X137799275Y-94298777D01*
X137732249Y-94271014D01*
X137661094Y-94256860D01*
X137588546Y-94256860D01*
X137587200Y-94257128D01*
X137587200Y-94198446D01*
X140850600Y-94198446D01*
X140850600Y-94270994D01*
X140864754Y-94342149D01*
X140892517Y-94409175D01*
X140932823Y-94469498D01*
X140984122Y-94520797D01*
X141044445Y-94561103D01*
X141111471Y-94588866D01*
X141182626Y-94603020D01*
X141255174Y-94603020D01*
X141326329Y-94588866D01*
X141393355Y-94561103D01*
X141453678Y-94520797D01*
X141504977Y-94469498D01*
X141545283Y-94409175D01*
X141573046Y-94342149D01*
X141587200Y-94270994D01*
X141587200Y-94198446D01*
X141573046Y-94127291D01*
X141545283Y-94060265D01*
X141504977Y-93999942D01*
X141453678Y-93948643D01*
X141393355Y-93908337D01*
X141326329Y-93880574D01*
X141255174Y-93866420D01*
X141182626Y-93866420D01*
X141111471Y-93880574D01*
X141044445Y-93908337D01*
X140984122Y-93948643D01*
X140932823Y-93999942D01*
X140892517Y-94060265D01*
X140864754Y-94127291D01*
X140850600Y-94198446D01*
X137587200Y-94198446D01*
X137573046Y-94127291D01*
X137545283Y-94060265D01*
X137504977Y-93999942D01*
X137453678Y-93948643D01*
X137393355Y-93908337D01*
X137326329Y-93880574D01*
X137255174Y-93866420D01*
X137182626Y-93866420D01*
X137111471Y-93880574D01*
X137044445Y-93908337D01*
X136984122Y-93948643D01*
X136932823Y-93999942D01*
X136892517Y-94060265D01*
X136864754Y-94127291D01*
X136850600Y-94198446D01*
X135987200Y-94198446D01*
X135973046Y-94127291D01*
X135945283Y-94060265D01*
X135904977Y-93999942D01*
X135853678Y-93948643D01*
X135793355Y-93908337D01*
X135726329Y-93880574D01*
X135655174Y-93866420D01*
X135582626Y-93866420D01*
X135511471Y-93880574D01*
X135444445Y-93908337D01*
X135384122Y-93948643D01*
X135332823Y-93999942D01*
X135292517Y-94060265D01*
X135264754Y-94127291D01*
X135250600Y-94198446D01*
X130615500Y-94198446D01*
X130615500Y-93279034D01*
X130617283Y-93281702D01*
X130668582Y-93333001D01*
X130728905Y-93373307D01*
X130795931Y-93401070D01*
X130867086Y-93415224D01*
X130939634Y-93415224D01*
X131010789Y-93401070D01*
X131017123Y-93398446D01*
X133650600Y-93398446D01*
X133650600Y-93470994D01*
X133664754Y-93542149D01*
X133692517Y-93609175D01*
X133732823Y-93669498D01*
X133784122Y-93720797D01*
X133844445Y-93761103D01*
X133911471Y-93788866D01*
X133982626Y-93803020D01*
X134055174Y-93803020D01*
X134126329Y-93788866D01*
X134193355Y-93761103D01*
X134253678Y-93720797D01*
X134304977Y-93669498D01*
X134345283Y-93609175D01*
X134373046Y-93542149D01*
X134387200Y-93470994D01*
X134387200Y-93398446D01*
X134450600Y-93398446D01*
X134450600Y-93470994D01*
X134464754Y-93542149D01*
X134492517Y-93609175D01*
X134532823Y-93669498D01*
X134584122Y-93720797D01*
X134644445Y-93761103D01*
X134711471Y-93788866D01*
X134782626Y-93803020D01*
X134855174Y-93803020D01*
X134926329Y-93788866D01*
X134993355Y-93761103D01*
X135053678Y-93720797D01*
X135104977Y-93669498D01*
X135145283Y-93609175D01*
X135173046Y-93542149D01*
X135187200Y-93470994D01*
X135187200Y-93398446D01*
X135250600Y-93398446D01*
X135250600Y-93470994D01*
X135264754Y-93542149D01*
X135292517Y-93609175D01*
X135332823Y-93669498D01*
X135384122Y-93720797D01*
X135444445Y-93761103D01*
X135511471Y-93788866D01*
X135582626Y-93803020D01*
X135655174Y-93803020D01*
X135726329Y-93788866D01*
X135793355Y-93761103D01*
X135853678Y-93720797D01*
X135904977Y-93669498D01*
X135945283Y-93609175D01*
X135972392Y-93543726D01*
X143091700Y-93543726D01*
X143091700Y-93616274D01*
X143105854Y-93687429D01*
X143133617Y-93754455D01*
X143173923Y-93814778D01*
X143225222Y-93866077D01*
X143285545Y-93906383D01*
X143352571Y-93934146D01*
X143423726Y-93948300D01*
X143496274Y-93948300D01*
X143567429Y-93934146D01*
X143634455Y-93906383D01*
X143694778Y-93866077D01*
X143746077Y-93814778D01*
X143786383Y-93754455D01*
X143814146Y-93687429D01*
X143828300Y-93616274D01*
X143828300Y-93543726D01*
X143814146Y-93472571D01*
X143786383Y-93405545D01*
X143765537Y-93374346D01*
X148330920Y-93374346D01*
X148330920Y-93446894D01*
X148345074Y-93518049D01*
X148372837Y-93585075D01*
X148413143Y-93645398D01*
X148464442Y-93696697D01*
X148524765Y-93737003D01*
X148591791Y-93764766D01*
X148662946Y-93778920D01*
X148735494Y-93778920D01*
X148806649Y-93764766D01*
X148873675Y-93737003D01*
X148933998Y-93696697D01*
X148985297Y-93645398D01*
X149025603Y-93585075D01*
X149053366Y-93518049D01*
X149067520Y-93446894D01*
X149067520Y-93374346D01*
X149053366Y-93303191D01*
X149025603Y-93236165D01*
X148985297Y-93175842D01*
X148933998Y-93124543D01*
X148873675Y-93084237D01*
X148806649Y-93056474D01*
X148735494Y-93042320D01*
X148662946Y-93042320D01*
X148591791Y-93056474D01*
X148524765Y-93084237D01*
X148464442Y-93124543D01*
X148413143Y-93175842D01*
X148372837Y-93236165D01*
X148345074Y-93303191D01*
X148330920Y-93374346D01*
X143765537Y-93374346D01*
X143746077Y-93345222D01*
X143694778Y-93293923D01*
X143634455Y-93253617D01*
X143567429Y-93225854D01*
X143496274Y-93211700D01*
X143423726Y-93211700D01*
X143352571Y-93225854D01*
X143285545Y-93253617D01*
X143225222Y-93293923D01*
X143173923Y-93345222D01*
X143133617Y-93405545D01*
X143105854Y-93472571D01*
X143091700Y-93543726D01*
X135972392Y-93543726D01*
X135973046Y-93542149D01*
X135987200Y-93470994D01*
X135987200Y-93398446D01*
X135973046Y-93327291D01*
X135945283Y-93260265D01*
X135904977Y-93199942D01*
X135853678Y-93148643D01*
X135793355Y-93108337D01*
X135726329Y-93080574D01*
X135655174Y-93066420D01*
X135582626Y-93066420D01*
X135511471Y-93080574D01*
X135444445Y-93108337D01*
X135384122Y-93148643D01*
X135332823Y-93199942D01*
X135292517Y-93260265D01*
X135264754Y-93327291D01*
X135250600Y-93398446D01*
X135187200Y-93398446D01*
X135173046Y-93327291D01*
X135145283Y-93260265D01*
X135104977Y-93199942D01*
X135053678Y-93148643D01*
X134993355Y-93108337D01*
X134926329Y-93080574D01*
X134855174Y-93066420D01*
X134782626Y-93066420D01*
X134711471Y-93080574D01*
X134644445Y-93108337D01*
X134584122Y-93148643D01*
X134532823Y-93199942D01*
X134492517Y-93260265D01*
X134464754Y-93327291D01*
X134450600Y-93398446D01*
X134387200Y-93398446D01*
X134373046Y-93327291D01*
X134345283Y-93260265D01*
X134304977Y-93199942D01*
X134253678Y-93148643D01*
X134193355Y-93108337D01*
X134126329Y-93080574D01*
X134055174Y-93066420D01*
X133982626Y-93066420D01*
X133911471Y-93080574D01*
X133844445Y-93108337D01*
X133784122Y-93148643D01*
X133732823Y-93199942D01*
X133692517Y-93260265D01*
X133664754Y-93327291D01*
X133650600Y-93398446D01*
X131017123Y-93398446D01*
X131077815Y-93373307D01*
X131138138Y-93333001D01*
X131189437Y-93281702D01*
X131229743Y-93221379D01*
X131257506Y-93154353D01*
X131271660Y-93083198D01*
X131271660Y-93010650D01*
X131257506Y-92939495D01*
X131229743Y-92872469D01*
X131189437Y-92812146D01*
X131138138Y-92760847D01*
X131077815Y-92720541D01*
X131010789Y-92692778D01*
X130939634Y-92678624D01*
X130867086Y-92678624D01*
X130795931Y-92692778D01*
X130728905Y-92720541D01*
X130668582Y-92760847D01*
X130617283Y-92812146D01*
X130615500Y-92814814D01*
X130615500Y-92528051D01*
X131144660Y-92528051D01*
X131144660Y-92600599D01*
X131158814Y-92671754D01*
X131186577Y-92738780D01*
X131226883Y-92799103D01*
X131278182Y-92850402D01*
X131338505Y-92890708D01*
X131405531Y-92918471D01*
X131476686Y-92932625D01*
X131549234Y-92932625D01*
X131620389Y-92918471D01*
X131687415Y-92890708D01*
X131747738Y-92850402D01*
X131799037Y-92799103D01*
X131839343Y-92738780D01*
X131867106Y-92671754D01*
X131881260Y-92600599D01*
X131881260Y-92528051D01*
X131867106Y-92456896D01*
X131851710Y-92419726D01*
X132839450Y-92419726D01*
X132839450Y-92492274D01*
X132853604Y-92563429D01*
X132881367Y-92630455D01*
X132921673Y-92690778D01*
X132972972Y-92742077D01*
X133033295Y-92782383D01*
X133100321Y-92810146D01*
X133171476Y-92824300D01*
X133244024Y-92824300D01*
X133315179Y-92810146D01*
X133382205Y-92782383D01*
X133442528Y-92742077D01*
X133493827Y-92690778D01*
X133534133Y-92630455D01*
X133561896Y-92563429D01*
X133576050Y-92492274D01*
X133576050Y-92419726D01*
X133561896Y-92348571D01*
X133534133Y-92281545D01*
X133493827Y-92221222D01*
X133470511Y-92197906D01*
X134851140Y-92197906D01*
X134851140Y-92270454D01*
X134865294Y-92341609D01*
X134893057Y-92408635D01*
X134933363Y-92468958D01*
X134984662Y-92520257D01*
X135044985Y-92560563D01*
X135112011Y-92588326D01*
X135183166Y-92602480D01*
X135250600Y-92602480D01*
X135250600Y-92670994D01*
X135264754Y-92742149D01*
X135292517Y-92809175D01*
X135332823Y-92869498D01*
X135384122Y-92920797D01*
X135444445Y-92961103D01*
X135511471Y-92988866D01*
X135582626Y-93003020D01*
X135655174Y-93003020D01*
X135726329Y-92988866D01*
X135793355Y-92961103D01*
X135853678Y-92920797D01*
X135904977Y-92869498D01*
X135945283Y-92809175D01*
X135973046Y-92742149D01*
X135987200Y-92670994D01*
X135987200Y-92600066D01*
X136050020Y-92600066D01*
X136050020Y-92672614D01*
X136064174Y-92743769D01*
X136091937Y-92810795D01*
X136132243Y-92871118D01*
X136183542Y-92922417D01*
X136243865Y-92962723D01*
X136310891Y-92990486D01*
X136382046Y-93004640D01*
X136454594Y-93004640D01*
X136525749Y-92990486D01*
X136592775Y-92962723D01*
X136653098Y-92922417D01*
X136704397Y-92871118D01*
X136744703Y-92810795D01*
X136772466Y-92743769D01*
X136786620Y-92672614D01*
X136786620Y-92600066D01*
X136786115Y-92597526D01*
X138448460Y-92597526D01*
X138448460Y-92670074D01*
X138462614Y-92741229D01*
X138490377Y-92808255D01*
X138530683Y-92868578D01*
X138581982Y-92919877D01*
X138642305Y-92960183D01*
X138709331Y-92987946D01*
X138780486Y-93002100D01*
X138853034Y-93002100D01*
X138924189Y-92987946D01*
X138991215Y-92960183D01*
X139051538Y-92919877D01*
X139102837Y-92868578D01*
X139143143Y-92808255D01*
X139170906Y-92741229D01*
X139185060Y-92670074D01*
X139185060Y-92598446D01*
X139250600Y-92598446D01*
X139250600Y-92670994D01*
X139264754Y-92742149D01*
X139292517Y-92809175D01*
X139332823Y-92869498D01*
X139384122Y-92920797D01*
X139444445Y-92961103D01*
X139511471Y-92988866D01*
X139582626Y-93003020D01*
X139655174Y-93003020D01*
X139726329Y-92988866D01*
X139793355Y-92961103D01*
X139853678Y-92920797D01*
X139904977Y-92869498D01*
X139945283Y-92809175D01*
X139973046Y-92742149D01*
X139987200Y-92670994D01*
X139987200Y-92598446D01*
X140850600Y-92598446D01*
X140850600Y-92670994D01*
X140864754Y-92742149D01*
X140892517Y-92809175D01*
X140932823Y-92869498D01*
X140984122Y-92920797D01*
X141044445Y-92961103D01*
X141111471Y-92988866D01*
X141182626Y-93003020D01*
X141255174Y-93003020D01*
X141326329Y-92988866D01*
X141393355Y-92961103D01*
X141453678Y-92920797D01*
X141500749Y-92873726D01*
X146971700Y-92873726D01*
X146971700Y-92946274D01*
X146985854Y-93017429D01*
X147013617Y-93084455D01*
X147053923Y-93144778D01*
X147105222Y-93196077D01*
X147165545Y-93236383D01*
X147232571Y-93264146D01*
X147303726Y-93278300D01*
X147376274Y-93278300D01*
X147447429Y-93264146D01*
X147514455Y-93236383D01*
X147574778Y-93196077D01*
X147626077Y-93144778D01*
X147666383Y-93084455D01*
X147694146Y-93017429D01*
X147708300Y-92946274D01*
X147708300Y-92873726D01*
X147694146Y-92802571D01*
X147666383Y-92735545D01*
X147626077Y-92675222D01*
X147574778Y-92623923D01*
X147514455Y-92583617D01*
X147447429Y-92555854D01*
X147376274Y-92541700D01*
X147303726Y-92541700D01*
X147232571Y-92555854D01*
X147165545Y-92583617D01*
X147105222Y-92623923D01*
X147053923Y-92675222D01*
X147013617Y-92735545D01*
X146985854Y-92802571D01*
X146971700Y-92873726D01*
X141500749Y-92873726D01*
X141504977Y-92869498D01*
X141545283Y-92809175D01*
X141573046Y-92742149D01*
X141587200Y-92670994D01*
X141587200Y-92598446D01*
X141573046Y-92527291D01*
X141545283Y-92460265D01*
X141504977Y-92399942D01*
X141453678Y-92348643D01*
X141393355Y-92308337D01*
X141326329Y-92280574D01*
X141255174Y-92266420D01*
X141182626Y-92266420D01*
X141111471Y-92280574D01*
X141044445Y-92308337D01*
X140984122Y-92348643D01*
X140932823Y-92399942D01*
X140892517Y-92460265D01*
X140864754Y-92527291D01*
X140850600Y-92598446D01*
X139987200Y-92598446D01*
X139973046Y-92527291D01*
X139945283Y-92460265D01*
X139904977Y-92399942D01*
X139853678Y-92348643D01*
X139793355Y-92308337D01*
X139726329Y-92280574D01*
X139655174Y-92266420D01*
X139582626Y-92266420D01*
X139511471Y-92280574D01*
X139444445Y-92308337D01*
X139384122Y-92348643D01*
X139332823Y-92399942D01*
X139292517Y-92460265D01*
X139264754Y-92527291D01*
X139250600Y-92598446D01*
X139185060Y-92598446D01*
X139185060Y-92597526D01*
X139170906Y-92526371D01*
X139143143Y-92459345D01*
X139102837Y-92399022D01*
X139051538Y-92347723D01*
X138991215Y-92307417D01*
X138924189Y-92279654D01*
X138853034Y-92265500D01*
X138780486Y-92265500D01*
X138709331Y-92279654D01*
X138642305Y-92307417D01*
X138581982Y-92347723D01*
X138530683Y-92399022D01*
X138490377Y-92459345D01*
X138462614Y-92526371D01*
X138448460Y-92597526D01*
X136786115Y-92597526D01*
X136772466Y-92528911D01*
X136744703Y-92461885D01*
X136704397Y-92401562D01*
X136653098Y-92350263D01*
X136592775Y-92309957D01*
X136525749Y-92282194D01*
X136454594Y-92268040D01*
X136382046Y-92268040D01*
X136310891Y-92282194D01*
X136243865Y-92309957D01*
X136183542Y-92350263D01*
X136132243Y-92401562D01*
X136091937Y-92461885D01*
X136064174Y-92528911D01*
X136050020Y-92600066D01*
X135987200Y-92600066D01*
X135987200Y-92598446D01*
X135973046Y-92527291D01*
X135945283Y-92460265D01*
X135904977Y-92399942D01*
X135853678Y-92348643D01*
X135793355Y-92308337D01*
X135726329Y-92280574D01*
X135655174Y-92266420D01*
X135587740Y-92266420D01*
X135587740Y-92197906D01*
X135573586Y-92126751D01*
X135545823Y-92059725D01*
X135505517Y-91999402D01*
X135454218Y-91948103D01*
X135393895Y-91907797D01*
X135326869Y-91880034D01*
X135255714Y-91865880D01*
X135183166Y-91865880D01*
X135112011Y-91880034D01*
X135044985Y-91907797D01*
X134984662Y-91948103D01*
X134933363Y-91999402D01*
X134893057Y-92059725D01*
X134865294Y-92126751D01*
X134851140Y-92197906D01*
X133470511Y-92197906D01*
X133442528Y-92169923D01*
X133382205Y-92129617D01*
X133315179Y-92101854D01*
X133244024Y-92087700D01*
X133171476Y-92087700D01*
X133100321Y-92101854D01*
X133033295Y-92129617D01*
X132972972Y-92169923D01*
X132921673Y-92221222D01*
X132881367Y-92281545D01*
X132853604Y-92348571D01*
X132839450Y-92419726D01*
X131851710Y-92419726D01*
X131839343Y-92389870D01*
X131799037Y-92329547D01*
X131747738Y-92278248D01*
X131687415Y-92237942D01*
X131620389Y-92210179D01*
X131549234Y-92196025D01*
X131476686Y-92196025D01*
X131405531Y-92210179D01*
X131338505Y-92237942D01*
X131278182Y-92278248D01*
X131226883Y-92329547D01*
X131186577Y-92389870D01*
X131158814Y-92456896D01*
X131144660Y-92528051D01*
X130615500Y-92528051D01*
X130615500Y-91562852D01*
X131144660Y-91562852D01*
X131144660Y-91635400D01*
X131158814Y-91706555D01*
X131186577Y-91773581D01*
X131226883Y-91833904D01*
X131278182Y-91885203D01*
X131338505Y-91925509D01*
X131405531Y-91953272D01*
X131476686Y-91967426D01*
X131549234Y-91967426D01*
X131620389Y-91953272D01*
X131687415Y-91925509D01*
X131747738Y-91885203D01*
X131799037Y-91833904D01*
X131839343Y-91773581D01*
X131867106Y-91706555D01*
X131881260Y-91635400D01*
X131881260Y-91562852D01*
X131867106Y-91491697D01*
X131839343Y-91424671D01*
X131825326Y-91403692D01*
X133210300Y-91403692D01*
X133210300Y-91476240D01*
X133224454Y-91547395D01*
X133252217Y-91614421D01*
X133292523Y-91674744D01*
X133343822Y-91726043D01*
X133404145Y-91766349D01*
X133471171Y-91794112D01*
X133542326Y-91808266D01*
X133614874Y-91808266D01*
X133656599Y-91799966D01*
X136050020Y-91799966D01*
X136050020Y-91872514D01*
X136064174Y-91943669D01*
X136091937Y-92010695D01*
X136132243Y-92071018D01*
X136183542Y-92122317D01*
X136243865Y-92162623D01*
X136310891Y-92190386D01*
X136382046Y-92204540D01*
X136454594Y-92204540D01*
X136525749Y-92190386D01*
X136592775Y-92162623D01*
X136653098Y-92122317D01*
X136704397Y-92071018D01*
X136744703Y-92010695D01*
X136772466Y-91943669D01*
X136786620Y-91872514D01*
X136786620Y-91799966D01*
X136786115Y-91797426D01*
X137650220Y-91797426D01*
X137650220Y-91869974D01*
X137664374Y-91941129D01*
X137692137Y-92008155D01*
X137732443Y-92068478D01*
X137783742Y-92119777D01*
X137844065Y-92160083D01*
X137911091Y-92187846D01*
X137982246Y-92202000D01*
X138054794Y-92202000D01*
X138125949Y-92187846D01*
X138192975Y-92160083D01*
X138253298Y-92119777D01*
X138304597Y-92068478D01*
X138344903Y-92008155D01*
X138372666Y-91941129D01*
X138386820Y-91869974D01*
X138386820Y-91798446D01*
X138450600Y-91798446D01*
X138450600Y-91870994D01*
X138464754Y-91942149D01*
X138492517Y-92009175D01*
X138532823Y-92069498D01*
X138584122Y-92120797D01*
X138644445Y-92161103D01*
X138711471Y-92188866D01*
X138782626Y-92203020D01*
X138855174Y-92203020D01*
X138926329Y-92188866D01*
X138993355Y-92161103D01*
X139053678Y-92120797D01*
X139104977Y-92069498D01*
X139145283Y-92009175D01*
X139173046Y-91942149D01*
X139187200Y-91870994D01*
X139187200Y-91799966D01*
X139247200Y-91799966D01*
X139247200Y-91872514D01*
X139261354Y-91943669D01*
X139289117Y-92010695D01*
X139329423Y-92071018D01*
X139380722Y-92122317D01*
X139441045Y-92162623D01*
X139508071Y-92190386D01*
X139579226Y-92204540D01*
X139651774Y-92204540D01*
X139722929Y-92190386D01*
X139789955Y-92162623D01*
X139803270Y-92153726D01*
X145931700Y-92153726D01*
X145931700Y-92226274D01*
X145945854Y-92297429D01*
X145973617Y-92364455D01*
X146013923Y-92424778D01*
X146065222Y-92476077D01*
X146125545Y-92516383D01*
X146192571Y-92544146D01*
X146263726Y-92558300D01*
X146336274Y-92558300D01*
X146407429Y-92544146D01*
X146474455Y-92516383D01*
X146534778Y-92476077D01*
X146586077Y-92424778D01*
X146626383Y-92364455D01*
X146654146Y-92297429D01*
X146668300Y-92226274D01*
X146668300Y-92153726D01*
X146654146Y-92082571D01*
X146626383Y-92015545D01*
X146586077Y-91955222D01*
X146534778Y-91903923D01*
X146474455Y-91863617D01*
X146407429Y-91835854D01*
X146336274Y-91821700D01*
X146263726Y-91821700D01*
X146192571Y-91835854D01*
X146125545Y-91863617D01*
X146065222Y-91903923D01*
X146013923Y-91955222D01*
X145973617Y-92015545D01*
X145945854Y-92082571D01*
X145931700Y-92153726D01*
X139803270Y-92153726D01*
X139850278Y-92122317D01*
X139901577Y-92071018D01*
X139941883Y-92010695D01*
X139969646Y-91943669D01*
X139983800Y-91872514D01*
X139983800Y-91799966D01*
X139969646Y-91728811D01*
X139941883Y-91661785D01*
X139901577Y-91601462D01*
X139850278Y-91550163D01*
X139789955Y-91509857D01*
X139722929Y-91482094D01*
X139651774Y-91467940D01*
X139579226Y-91467940D01*
X139508071Y-91482094D01*
X139441045Y-91509857D01*
X139380722Y-91550163D01*
X139329423Y-91601462D01*
X139289117Y-91661785D01*
X139261354Y-91728811D01*
X139247200Y-91799966D01*
X139187200Y-91799966D01*
X139187200Y-91798446D01*
X139173046Y-91727291D01*
X139145283Y-91660265D01*
X139104977Y-91599942D01*
X139053678Y-91548643D01*
X138993355Y-91508337D01*
X138926329Y-91480574D01*
X138855174Y-91466420D01*
X138782626Y-91466420D01*
X138711471Y-91480574D01*
X138644445Y-91508337D01*
X138584122Y-91548643D01*
X138532823Y-91599942D01*
X138492517Y-91660265D01*
X138464754Y-91727291D01*
X138450600Y-91798446D01*
X138386820Y-91798446D01*
X138386820Y-91797426D01*
X138372666Y-91726271D01*
X138344903Y-91659245D01*
X138304597Y-91598922D01*
X138253298Y-91547623D01*
X138192975Y-91507317D01*
X138125949Y-91479554D01*
X138054794Y-91465400D01*
X137982246Y-91465400D01*
X137911091Y-91479554D01*
X137844065Y-91507317D01*
X137783742Y-91547623D01*
X137732443Y-91598922D01*
X137692137Y-91659245D01*
X137664374Y-91726271D01*
X137650220Y-91797426D01*
X136786115Y-91797426D01*
X136772466Y-91728811D01*
X136744703Y-91661785D01*
X136704397Y-91601462D01*
X136653098Y-91550163D01*
X136592775Y-91509857D01*
X136525749Y-91482094D01*
X136454594Y-91467940D01*
X136382046Y-91467940D01*
X136310891Y-91482094D01*
X136243865Y-91509857D01*
X136183542Y-91550163D01*
X136132243Y-91601462D01*
X136091937Y-91661785D01*
X136064174Y-91728811D01*
X136050020Y-91799966D01*
X133656599Y-91799966D01*
X133686029Y-91794112D01*
X133753055Y-91766349D01*
X133813378Y-91726043D01*
X133864677Y-91674744D01*
X133904983Y-91614421D01*
X133932746Y-91547395D01*
X133946900Y-91476240D01*
X133946900Y-91403692D01*
X133932746Y-91332537D01*
X133904983Y-91265511D01*
X133864677Y-91205188D01*
X133813378Y-91153889D01*
X133753055Y-91113583D01*
X133686029Y-91085820D01*
X133614874Y-91071666D01*
X133542326Y-91071666D01*
X133471171Y-91085820D01*
X133404145Y-91113583D01*
X133343822Y-91153889D01*
X133292523Y-91205188D01*
X133252217Y-91265511D01*
X133224454Y-91332537D01*
X133210300Y-91403692D01*
X131825326Y-91403692D01*
X131799037Y-91364348D01*
X131747738Y-91313049D01*
X131687415Y-91272743D01*
X131620389Y-91244980D01*
X131549234Y-91230826D01*
X131476686Y-91230826D01*
X131405531Y-91244980D01*
X131338505Y-91272743D01*
X131278182Y-91313049D01*
X131226883Y-91364348D01*
X131186577Y-91424671D01*
X131158814Y-91491697D01*
X131144660Y-91562852D01*
X130615500Y-91562852D01*
X130615500Y-90629026D01*
X133207754Y-90629026D01*
X133207754Y-90701574D01*
X133221908Y-90772729D01*
X133249671Y-90839755D01*
X133289977Y-90900078D01*
X133341276Y-90951377D01*
X133401599Y-90991683D01*
X133468625Y-91019446D01*
X133539780Y-91033600D01*
X133612328Y-91033600D01*
X133683483Y-91019446D01*
X133750509Y-90991683D01*
X133810832Y-90951377D01*
X133862131Y-90900078D01*
X133902437Y-90839755D01*
X133930200Y-90772729D01*
X133944354Y-90701574D01*
X133944354Y-90629026D01*
X133930200Y-90557871D01*
X133902437Y-90490845D01*
X133862131Y-90430522D01*
X133810832Y-90379223D01*
X133750509Y-90338917D01*
X133683483Y-90311154D01*
X133612328Y-90297000D01*
X133539780Y-90297000D01*
X133468625Y-90311154D01*
X133401599Y-90338917D01*
X133341276Y-90379223D01*
X133289977Y-90430522D01*
X133249671Y-90490845D01*
X133221908Y-90557871D01*
X133207754Y-90629026D01*
X130615500Y-90629026D01*
X130615500Y-90383437D01*
X130617283Y-90386105D01*
X130668582Y-90437404D01*
X130728905Y-90477710D01*
X130795931Y-90505473D01*
X130867086Y-90519627D01*
X130939634Y-90519627D01*
X131010789Y-90505473D01*
X131077815Y-90477710D01*
X131138138Y-90437404D01*
X131189437Y-90386105D01*
X131229743Y-90325782D01*
X131257506Y-90258756D01*
X131269502Y-90198446D01*
X134450600Y-90198446D01*
X134450600Y-90270994D01*
X134464754Y-90342149D01*
X134492517Y-90409175D01*
X134532823Y-90469498D01*
X134584122Y-90520797D01*
X134644445Y-90561103D01*
X134711471Y-90588866D01*
X134782626Y-90603020D01*
X134846060Y-90603020D01*
X134846060Y-90671094D01*
X134860214Y-90742249D01*
X134887977Y-90809275D01*
X134928283Y-90869598D01*
X134979582Y-90920897D01*
X135039905Y-90961203D01*
X135106931Y-90988966D01*
X135178086Y-91003120D01*
X135250634Y-91003120D01*
X135266992Y-90999866D01*
X137650220Y-90999866D01*
X137650220Y-91072414D01*
X137664374Y-91143569D01*
X137692137Y-91210595D01*
X137732443Y-91270918D01*
X137783742Y-91322217D01*
X137844065Y-91362523D01*
X137911091Y-91390286D01*
X137982246Y-91404440D01*
X138054794Y-91404440D01*
X138125949Y-91390286D01*
X138192975Y-91362523D01*
X138253298Y-91322217D01*
X138304597Y-91270918D01*
X138344903Y-91210595D01*
X138372666Y-91143569D01*
X138386820Y-91072414D01*
X138386820Y-90999866D01*
X138386315Y-90997326D01*
X139250420Y-90997326D01*
X139250420Y-91069874D01*
X139264574Y-91141029D01*
X139292337Y-91208055D01*
X139332643Y-91268378D01*
X139383942Y-91319677D01*
X139444265Y-91359983D01*
X139511291Y-91387746D01*
X139582446Y-91401900D01*
X139654994Y-91401900D01*
X139726149Y-91387746D01*
X139793175Y-91359983D01*
X139853498Y-91319677D01*
X139904797Y-91268378D01*
X139945103Y-91208055D01*
X139972866Y-91141029D01*
X139987020Y-91069874D01*
X139987020Y-90997326D01*
X139972866Y-90926171D01*
X139945103Y-90859145D01*
X139904797Y-90798822D01*
X139853498Y-90747523D01*
X139793175Y-90707217D01*
X139726149Y-90679454D01*
X139654994Y-90665300D01*
X139582446Y-90665300D01*
X139511291Y-90679454D01*
X139444265Y-90707217D01*
X139383942Y-90747523D01*
X139332643Y-90798822D01*
X139292337Y-90859145D01*
X139264574Y-90926171D01*
X139250420Y-90997326D01*
X138386315Y-90997326D01*
X138372666Y-90928711D01*
X138344903Y-90861685D01*
X138304597Y-90801362D01*
X138253298Y-90750063D01*
X138192975Y-90709757D01*
X138125949Y-90681994D01*
X138054794Y-90667840D01*
X137982246Y-90667840D01*
X137911091Y-90681994D01*
X137844065Y-90709757D01*
X137783742Y-90750063D01*
X137732443Y-90801362D01*
X137692137Y-90861685D01*
X137664374Y-90928711D01*
X137650220Y-90999866D01*
X135266992Y-90999866D01*
X135321789Y-90988966D01*
X135388815Y-90961203D01*
X135449138Y-90920897D01*
X135500437Y-90869598D01*
X135540743Y-90809275D01*
X135568506Y-90742249D01*
X135582660Y-90671094D01*
X135582660Y-90663726D01*
X142161700Y-90663726D01*
X142161700Y-90736274D01*
X142175854Y-90807429D01*
X142203617Y-90874455D01*
X142243923Y-90934778D01*
X142295222Y-90986077D01*
X142355545Y-91026383D01*
X142422571Y-91054146D01*
X142493726Y-91068300D01*
X142566274Y-91068300D01*
X142637429Y-91054146D01*
X142704455Y-91026383D01*
X142764778Y-90986077D01*
X142816077Y-90934778D01*
X142856383Y-90874455D01*
X142884146Y-90807429D01*
X142898300Y-90736274D01*
X142898300Y-90663726D01*
X142884146Y-90592571D01*
X142856383Y-90525545D01*
X142816077Y-90465222D01*
X142813424Y-90462569D01*
X144980657Y-90462569D01*
X144980657Y-90535117D01*
X144994811Y-90606272D01*
X145022574Y-90673298D01*
X145062880Y-90733621D01*
X145114179Y-90784920D01*
X145174502Y-90825226D01*
X145241528Y-90852989D01*
X145312683Y-90867143D01*
X145385231Y-90867143D01*
X145456386Y-90852989D01*
X145523412Y-90825226D01*
X145583735Y-90784920D01*
X145635034Y-90733621D01*
X145675340Y-90673298D01*
X145703103Y-90606272D01*
X145717257Y-90535117D01*
X145717257Y-90462569D01*
X145703103Y-90391414D01*
X145675340Y-90324388D01*
X145635034Y-90264065D01*
X145583735Y-90212766D01*
X145523412Y-90172460D01*
X145456386Y-90144697D01*
X145385231Y-90130543D01*
X145312683Y-90130543D01*
X145241528Y-90144697D01*
X145174502Y-90172460D01*
X145114179Y-90212766D01*
X145062880Y-90264065D01*
X145022574Y-90324388D01*
X144994811Y-90391414D01*
X144980657Y-90462569D01*
X142813424Y-90462569D01*
X142764778Y-90413923D01*
X142704455Y-90373617D01*
X142637429Y-90345854D01*
X142566274Y-90331700D01*
X142493726Y-90331700D01*
X142422571Y-90345854D01*
X142355545Y-90373617D01*
X142295222Y-90413923D01*
X142243923Y-90465222D01*
X142203617Y-90525545D01*
X142175854Y-90592571D01*
X142161700Y-90663726D01*
X135582660Y-90663726D01*
X135582660Y-90598546D01*
X135568506Y-90527391D01*
X135540743Y-90460365D01*
X135500437Y-90400042D01*
X135449138Y-90348743D01*
X135388815Y-90308437D01*
X135321789Y-90280674D01*
X135250634Y-90266520D01*
X135187200Y-90266520D01*
X135187200Y-90198446D01*
X135173046Y-90127291D01*
X135145283Y-90060265D01*
X135134233Y-90043726D01*
X143461702Y-90043726D01*
X143461702Y-90116274D01*
X143475856Y-90187429D01*
X143503619Y-90254455D01*
X143543925Y-90314778D01*
X143595224Y-90366077D01*
X143655547Y-90406383D01*
X143722573Y-90434146D01*
X143793728Y-90448300D01*
X143866276Y-90448300D01*
X143937431Y-90434146D01*
X144004457Y-90406383D01*
X144064780Y-90366077D01*
X144116079Y-90314778D01*
X144156385Y-90254455D01*
X144184148Y-90187429D01*
X144198302Y-90116274D01*
X144198302Y-90043726D01*
X144184148Y-89972571D01*
X144156385Y-89905545D01*
X144116079Y-89845222D01*
X144064780Y-89793923D01*
X144004457Y-89753617D01*
X143937431Y-89725854D01*
X143866276Y-89711700D01*
X143793728Y-89711700D01*
X143722573Y-89725854D01*
X143655547Y-89753617D01*
X143595224Y-89793923D01*
X143543925Y-89845222D01*
X143503619Y-89905545D01*
X143475856Y-89972571D01*
X143461702Y-90043726D01*
X135134233Y-90043726D01*
X135104977Y-89999942D01*
X135053678Y-89948643D01*
X134993355Y-89908337D01*
X134926329Y-89880574D01*
X134855174Y-89866420D01*
X134782626Y-89866420D01*
X134711471Y-89880574D01*
X134644445Y-89908337D01*
X134584122Y-89948643D01*
X134532823Y-89999942D01*
X134492517Y-90060265D01*
X134464754Y-90127291D01*
X134450600Y-90198446D01*
X131269502Y-90198446D01*
X131271660Y-90187601D01*
X131271660Y-90115053D01*
X131257506Y-90043898D01*
X131229743Y-89976872D01*
X131189437Y-89916549D01*
X131138138Y-89865250D01*
X131077815Y-89824944D01*
X131010789Y-89797181D01*
X130939634Y-89783027D01*
X130867086Y-89783027D01*
X130795931Y-89797181D01*
X130728905Y-89824944D01*
X130668582Y-89865250D01*
X130617283Y-89916549D01*
X130615500Y-89919217D01*
X130615500Y-89632454D01*
X131144660Y-89632454D01*
X131144660Y-89705002D01*
X131158814Y-89776157D01*
X131186577Y-89843183D01*
X131226883Y-89903506D01*
X131278182Y-89954805D01*
X131338505Y-89995111D01*
X131405531Y-90022874D01*
X131476686Y-90037028D01*
X131549234Y-90037028D01*
X131620389Y-90022874D01*
X131687415Y-89995111D01*
X131747738Y-89954805D01*
X131799037Y-89903506D01*
X131839343Y-89843183D01*
X131867106Y-89776157D01*
X131881260Y-89705002D01*
X131881260Y-89632454D01*
X131867106Y-89561299D01*
X131839343Y-89494273D01*
X131799037Y-89433950D01*
X131763533Y-89398446D01*
X135250600Y-89398446D01*
X135250600Y-89470994D01*
X135264754Y-89542149D01*
X135292517Y-89609175D01*
X135332823Y-89669498D01*
X135384122Y-89720797D01*
X135444445Y-89761103D01*
X135511471Y-89788866D01*
X135582626Y-89803020D01*
X135655174Y-89803020D01*
X135726329Y-89788866D01*
X135793355Y-89761103D01*
X135853678Y-89720797D01*
X135904977Y-89669498D01*
X135945283Y-89609175D01*
X135973046Y-89542149D01*
X135987200Y-89470994D01*
X135987200Y-89399666D01*
X136850120Y-89399666D01*
X136850120Y-89472214D01*
X136864274Y-89543369D01*
X136892037Y-89610395D01*
X136932343Y-89670718D01*
X136983642Y-89722017D01*
X137043965Y-89762323D01*
X137110991Y-89790086D01*
X137182146Y-89804240D01*
X137254694Y-89804240D01*
X137325849Y-89790086D01*
X137392875Y-89762323D01*
X137453198Y-89722017D01*
X137504497Y-89670718D01*
X137544803Y-89610395D01*
X137572566Y-89543369D01*
X137586720Y-89472214D01*
X137586720Y-89399666D01*
X139250420Y-89399666D01*
X139250420Y-89472214D01*
X139264574Y-89543369D01*
X139292337Y-89610395D01*
X139332643Y-89670718D01*
X139383942Y-89722017D01*
X139444265Y-89762323D01*
X139511291Y-89790086D01*
X139582446Y-89804240D01*
X139654994Y-89804240D01*
X139726149Y-89790086D01*
X139793175Y-89762323D01*
X139853498Y-89722017D01*
X139904797Y-89670718D01*
X139942877Y-89613726D01*
X142781700Y-89613726D01*
X142781700Y-89686274D01*
X142795854Y-89757429D01*
X142823617Y-89824455D01*
X142863923Y-89884778D01*
X142915222Y-89936077D01*
X142975545Y-89976383D01*
X143042571Y-90004146D01*
X143113726Y-90018300D01*
X143186274Y-90018300D01*
X143257429Y-90004146D01*
X143324455Y-89976383D01*
X143384778Y-89936077D01*
X143436077Y-89884778D01*
X143476383Y-89824455D01*
X143504146Y-89757429D01*
X143518300Y-89686274D01*
X143518300Y-89613726D01*
X143504146Y-89542571D01*
X143476383Y-89475545D01*
X143436077Y-89415222D01*
X143384778Y-89363923D01*
X143324455Y-89323617D01*
X143257429Y-89295854D01*
X143186274Y-89281700D01*
X143113726Y-89281700D01*
X143042571Y-89295854D01*
X142975545Y-89323617D01*
X142915222Y-89363923D01*
X142863923Y-89415222D01*
X142823617Y-89475545D01*
X142795854Y-89542571D01*
X142781700Y-89613726D01*
X139942877Y-89613726D01*
X139945103Y-89610395D01*
X139972866Y-89543369D01*
X139987020Y-89472214D01*
X139987020Y-89399666D01*
X139972866Y-89328511D01*
X139945103Y-89261485D01*
X139904797Y-89201162D01*
X139853498Y-89149863D01*
X139793175Y-89109557D01*
X139726149Y-89081794D01*
X139654994Y-89067640D01*
X139582446Y-89067640D01*
X139511291Y-89081794D01*
X139444265Y-89109557D01*
X139383942Y-89149863D01*
X139332643Y-89201162D01*
X139292337Y-89261485D01*
X139264574Y-89328511D01*
X139250420Y-89399666D01*
X137586720Y-89399666D01*
X137572566Y-89328511D01*
X137544803Y-89261485D01*
X137504497Y-89201162D01*
X137453198Y-89149863D01*
X137392875Y-89109557D01*
X137325849Y-89081794D01*
X137254694Y-89067640D01*
X137182146Y-89067640D01*
X137110991Y-89081794D01*
X137043965Y-89109557D01*
X136983642Y-89149863D01*
X136932343Y-89201162D01*
X136892037Y-89261485D01*
X136864274Y-89328511D01*
X136850120Y-89399666D01*
X135987200Y-89399666D01*
X135987200Y-89398446D01*
X135973046Y-89327291D01*
X135945283Y-89260265D01*
X135904977Y-89199942D01*
X135853678Y-89148643D01*
X135793355Y-89108337D01*
X135726329Y-89080574D01*
X135655174Y-89066420D01*
X135582626Y-89066420D01*
X135511471Y-89080574D01*
X135444445Y-89108337D01*
X135384122Y-89148643D01*
X135332823Y-89199942D01*
X135292517Y-89260265D01*
X135264754Y-89327291D01*
X135250600Y-89398446D01*
X131763533Y-89398446D01*
X131747738Y-89382651D01*
X131687415Y-89342345D01*
X131620389Y-89314582D01*
X131549234Y-89300428D01*
X131476686Y-89300428D01*
X131405531Y-89314582D01*
X131338505Y-89342345D01*
X131278182Y-89382651D01*
X131226883Y-89433950D01*
X131186577Y-89494273D01*
X131158814Y-89561299D01*
X131144660Y-89632454D01*
X130615500Y-89632454D01*
X130615500Y-89419115D01*
X130666042Y-89469657D01*
X130726365Y-89509963D01*
X130793391Y-89537726D01*
X130864546Y-89551880D01*
X130937094Y-89551880D01*
X131008249Y-89537726D01*
X131075275Y-89509963D01*
X131135598Y-89469657D01*
X131186897Y-89418358D01*
X131227203Y-89358035D01*
X131254966Y-89291009D01*
X131269120Y-89219854D01*
X131269120Y-89147306D01*
X131254966Y-89076151D01*
X131227203Y-89009125D01*
X131186897Y-88948802D01*
X131135598Y-88897503D01*
X131134735Y-88896926D01*
X132281560Y-88896926D01*
X132281560Y-88969474D01*
X132295714Y-89040629D01*
X132323477Y-89107655D01*
X132363783Y-89167978D01*
X132415082Y-89219277D01*
X132475405Y-89259583D01*
X132542431Y-89287346D01*
X132613586Y-89301500D01*
X132686134Y-89301500D01*
X132757289Y-89287346D01*
X132824315Y-89259583D01*
X132884638Y-89219277D01*
X132935937Y-89167978D01*
X132976243Y-89107655D01*
X133004006Y-89040629D01*
X133018160Y-88969474D01*
X133018160Y-88896926D01*
X133004006Y-88825771D01*
X132976243Y-88758745D01*
X132935937Y-88698422D01*
X132884638Y-88647123D01*
X132824315Y-88606817D01*
X132804106Y-88598446D01*
X137650600Y-88598446D01*
X137650600Y-88670994D01*
X137664754Y-88742149D01*
X137692517Y-88809175D01*
X137732823Y-88869498D01*
X137784122Y-88920797D01*
X137844445Y-88961103D01*
X137911471Y-88988866D01*
X137982626Y-89003020D01*
X138055174Y-89003020D01*
X138126329Y-88988866D01*
X138193355Y-88961103D01*
X138253678Y-88920797D01*
X138304977Y-88869498D01*
X138345283Y-88809175D01*
X138373046Y-88742149D01*
X138387200Y-88670994D01*
X138387200Y-88598446D01*
X138386918Y-88597026D01*
X139250420Y-88597026D01*
X139250420Y-88669574D01*
X139264574Y-88740729D01*
X139292337Y-88807755D01*
X139332643Y-88868078D01*
X139383942Y-88919377D01*
X139444265Y-88959683D01*
X139511291Y-88987446D01*
X139582446Y-89001600D01*
X139654994Y-89001600D01*
X139694578Y-88993726D01*
X140451700Y-88993726D01*
X140451700Y-89066274D01*
X140465854Y-89137429D01*
X140493617Y-89204455D01*
X140533923Y-89264778D01*
X140585222Y-89316077D01*
X140645545Y-89356383D01*
X140712571Y-89384146D01*
X140783726Y-89398300D01*
X140856274Y-89398300D01*
X140927429Y-89384146D01*
X140994455Y-89356383D01*
X141054778Y-89316077D01*
X141106077Y-89264778D01*
X141146383Y-89204455D01*
X141174146Y-89137429D01*
X141188300Y-89066274D01*
X141188300Y-89043726D01*
X144101700Y-89043726D01*
X144101700Y-89116274D01*
X144115854Y-89187429D01*
X144143617Y-89254455D01*
X144183923Y-89314778D01*
X144235222Y-89366077D01*
X144295545Y-89406383D01*
X144362571Y-89434146D01*
X144433726Y-89448300D01*
X144506274Y-89448300D01*
X144577429Y-89434146D01*
X144644455Y-89406383D01*
X144704778Y-89366077D01*
X144708289Y-89362566D01*
X144980660Y-89362566D01*
X144980660Y-89435114D01*
X144994814Y-89506269D01*
X145022577Y-89573295D01*
X145062883Y-89633618D01*
X145114182Y-89684917D01*
X145174505Y-89725223D01*
X145241531Y-89752986D01*
X145312686Y-89767140D01*
X145385234Y-89767140D01*
X145456389Y-89752986D01*
X145523415Y-89725223D01*
X145583738Y-89684917D01*
X145624929Y-89643726D01*
X146691700Y-89643726D01*
X146691700Y-89716274D01*
X146705854Y-89787429D01*
X146733617Y-89854455D01*
X146773923Y-89914778D01*
X146825222Y-89966077D01*
X146885545Y-90006383D01*
X146952571Y-90034146D01*
X147023726Y-90048300D01*
X147096274Y-90048300D01*
X147167429Y-90034146D01*
X147234455Y-90006383D01*
X147294778Y-89966077D01*
X147346077Y-89914778D01*
X147386383Y-89854455D01*
X147414146Y-89787429D01*
X147428300Y-89716274D01*
X147428300Y-89643726D01*
X147414146Y-89572571D01*
X147386383Y-89505545D01*
X147346077Y-89445222D01*
X147294778Y-89393923D01*
X147234455Y-89353617D01*
X147167429Y-89325854D01*
X147096274Y-89311700D01*
X147023726Y-89311700D01*
X146952571Y-89325854D01*
X146885545Y-89353617D01*
X146825222Y-89393923D01*
X146773923Y-89445222D01*
X146733617Y-89505545D01*
X146705854Y-89572571D01*
X146691700Y-89643726D01*
X145624929Y-89643726D01*
X145635037Y-89633618D01*
X145675343Y-89573295D01*
X145703106Y-89506269D01*
X145717260Y-89435114D01*
X145717260Y-89362566D01*
X145703106Y-89291411D01*
X145675343Y-89224385D01*
X145635037Y-89164062D01*
X145583738Y-89112763D01*
X145523415Y-89072457D01*
X145456389Y-89044694D01*
X145385234Y-89030540D01*
X145312686Y-89030540D01*
X145241531Y-89044694D01*
X145174505Y-89072457D01*
X145114182Y-89112763D01*
X145062883Y-89164062D01*
X145022577Y-89224385D01*
X144994814Y-89291411D01*
X144980660Y-89362566D01*
X144708289Y-89362566D01*
X144756077Y-89314778D01*
X144796383Y-89254455D01*
X144824146Y-89187429D01*
X144838300Y-89116274D01*
X144838300Y-89043726D01*
X144824146Y-88972571D01*
X144796383Y-88905545D01*
X144756077Y-88845222D01*
X144704778Y-88793923D01*
X144644455Y-88753617D01*
X144577429Y-88725854D01*
X144506274Y-88711700D01*
X144433726Y-88711700D01*
X144362571Y-88725854D01*
X144295545Y-88753617D01*
X144235222Y-88793923D01*
X144183923Y-88845222D01*
X144143617Y-88905545D01*
X144115854Y-88972571D01*
X144101700Y-89043726D01*
X141188300Y-89043726D01*
X141188300Y-88993726D01*
X141174146Y-88922571D01*
X141146383Y-88855545D01*
X141106077Y-88795222D01*
X141054778Y-88743923D01*
X140994455Y-88703617D01*
X140927429Y-88675854D01*
X140856274Y-88661700D01*
X140783726Y-88661700D01*
X140712571Y-88675854D01*
X140645545Y-88703617D01*
X140585222Y-88743923D01*
X140533923Y-88795222D01*
X140493617Y-88855545D01*
X140465854Y-88922571D01*
X140451700Y-88993726D01*
X139694578Y-88993726D01*
X139726149Y-88987446D01*
X139793175Y-88959683D01*
X139853498Y-88919377D01*
X139904797Y-88868078D01*
X139945103Y-88807755D01*
X139972866Y-88740729D01*
X139987020Y-88669574D01*
X139987020Y-88597026D01*
X139972866Y-88525871D01*
X139945103Y-88458845D01*
X139904797Y-88398522D01*
X139853498Y-88347223D01*
X139793175Y-88306917D01*
X139726149Y-88279154D01*
X139654994Y-88265000D01*
X139582446Y-88265000D01*
X139511291Y-88279154D01*
X139444265Y-88306917D01*
X139383942Y-88347223D01*
X139332643Y-88398522D01*
X139292337Y-88458845D01*
X139264574Y-88525871D01*
X139250420Y-88597026D01*
X138386918Y-88597026D01*
X138373046Y-88527291D01*
X138345283Y-88460265D01*
X138304977Y-88399942D01*
X138253678Y-88348643D01*
X138193355Y-88308337D01*
X138126329Y-88280574D01*
X138055174Y-88266420D01*
X137982626Y-88266420D01*
X137911471Y-88280574D01*
X137844445Y-88308337D01*
X137784122Y-88348643D01*
X137732823Y-88399942D01*
X137692517Y-88460265D01*
X137664754Y-88527291D01*
X137650600Y-88598446D01*
X132804106Y-88598446D01*
X132757289Y-88579054D01*
X132686134Y-88564900D01*
X132613586Y-88564900D01*
X132542431Y-88579054D01*
X132475405Y-88606817D01*
X132415082Y-88647123D01*
X132363783Y-88698422D01*
X132323477Y-88758745D01*
X132295714Y-88825771D01*
X132281560Y-88896926D01*
X131134735Y-88896926D01*
X131075275Y-88857197D01*
X131008249Y-88829434D01*
X130937094Y-88815280D01*
X130864546Y-88815280D01*
X130793391Y-88829434D01*
X130726365Y-88857197D01*
X130666042Y-88897503D01*
X130615500Y-88948045D01*
X130615500Y-87798446D01*
X134450600Y-87798446D01*
X134450600Y-87870994D01*
X134464754Y-87942149D01*
X134492517Y-88009175D01*
X134532823Y-88069498D01*
X134584122Y-88120797D01*
X134644445Y-88161103D01*
X134711471Y-88188866D01*
X134782626Y-88203020D01*
X134855174Y-88203020D01*
X134901896Y-88193726D01*
X140451700Y-88193726D01*
X140451700Y-88266274D01*
X140465854Y-88337429D01*
X140493617Y-88404455D01*
X140533923Y-88464778D01*
X140585222Y-88516077D01*
X140645545Y-88556383D01*
X140712571Y-88584146D01*
X140783726Y-88598300D01*
X140856274Y-88598300D01*
X140927429Y-88584146D01*
X140994455Y-88556383D01*
X141054778Y-88516077D01*
X141106077Y-88464778D01*
X141146383Y-88404455D01*
X141174146Y-88337429D01*
X141188300Y-88266274D01*
X141188300Y-88253726D01*
X145971700Y-88253726D01*
X145971700Y-88326274D01*
X145985854Y-88397429D01*
X146013617Y-88464455D01*
X146053923Y-88524778D01*
X146105222Y-88576077D01*
X146165545Y-88616383D01*
X146232571Y-88644146D01*
X146303726Y-88658300D01*
X146376274Y-88658300D01*
X146447429Y-88644146D01*
X146514455Y-88616383D01*
X146574778Y-88576077D01*
X146626077Y-88524778D01*
X146666383Y-88464455D01*
X146694146Y-88397429D01*
X146708300Y-88326274D01*
X146708300Y-88253726D01*
X146694146Y-88182571D01*
X146666383Y-88115545D01*
X146626077Y-88055222D01*
X146574778Y-88003923D01*
X146514455Y-87963617D01*
X146447429Y-87935854D01*
X146376274Y-87921700D01*
X146303726Y-87921700D01*
X146232571Y-87935854D01*
X146165545Y-87963617D01*
X146105222Y-88003923D01*
X146053923Y-88055222D01*
X146013617Y-88115545D01*
X145985854Y-88182571D01*
X145971700Y-88253726D01*
X141188300Y-88253726D01*
X141188300Y-88193726D01*
X141174146Y-88122571D01*
X141146383Y-88055545D01*
X141106077Y-87995222D01*
X141054778Y-87943923D01*
X140994455Y-87903617D01*
X140927429Y-87875854D01*
X140856274Y-87861700D01*
X140783726Y-87861700D01*
X140712571Y-87875854D01*
X140645545Y-87903617D01*
X140585222Y-87943923D01*
X140533923Y-87995222D01*
X140493617Y-88055545D01*
X140465854Y-88122571D01*
X140451700Y-88193726D01*
X134901896Y-88193726D01*
X134926329Y-88188866D01*
X134993355Y-88161103D01*
X135053678Y-88120797D01*
X135104977Y-88069498D01*
X135145283Y-88009175D01*
X135173046Y-87942149D01*
X135187200Y-87870994D01*
X135187200Y-87798446D01*
X135173046Y-87727291D01*
X135145283Y-87660265D01*
X135104977Y-87599942D01*
X135053678Y-87548643D01*
X134993355Y-87508337D01*
X134926329Y-87480574D01*
X134855174Y-87466420D01*
X134782626Y-87466420D01*
X134711471Y-87480574D01*
X134644445Y-87508337D01*
X134584122Y-87548643D01*
X134532823Y-87599942D01*
X134492517Y-87660265D01*
X134464754Y-87727291D01*
X134450600Y-87798446D01*
X130615500Y-87798446D01*
X130615500Y-86776565D01*
X131079739Y-86776565D01*
X131079739Y-86849113D01*
X131093893Y-86920268D01*
X131121656Y-86987294D01*
X131161962Y-87047617D01*
X131213261Y-87098916D01*
X131273584Y-87139222D01*
X131340610Y-87166985D01*
X131411765Y-87181139D01*
X131484313Y-87181139D01*
X131555468Y-87166985D01*
X131563335Y-87163726D01*
X139471700Y-87163726D01*
X139471700Y-87236274D01*
X139485854Y-87307429D01*
X139513617Y-87374455D01*
X139553923Y-87434778D01*
X139605222Y-87486077D01*
X139665545Y-87526383D01*
X139732571Y-87554146D01*
X139803726Y-87568300D01*
X139876274Y-87568300D01*
X139947429Y-87554146D01*
X140014455Y-87526383D01*
X140074778Y-87486077D01*
X140126077Y-87434778D01*
X140166383Y-87374455D01*
X140194146Y-87307429D01*
X140208300Y-87236274D01*
X140208300Y-87163726D01*
X140194146Y-87092571D01*
X140166383Y-87025545D01*
X140126077Y-86965222D01*
X140084581Y-86923726D01*
X141331700Y-86923726D01*
X141331700Y-86996274D01*
X141345854Y-87067429D01*
X141373617Y-87134455D01*
X141413923Y-87194778D01*
X141465222Y-87246077D01*
X141523475Y-87285000D01*
X141465222Y-87323923D01*
X141413923Y-87375222D01*
X141373617Y-87435545D01*
X141345854Y-87502571D01*
X141331700Y-87573726D01*
X141331700Y-87646274D01*
X141345854Y-87717429D01*
X141373617Y-87784455D01*
X141413923Y-87844778D01*
X141465222Y-87896077D01*
X141525545Y-87936383D01*
X141592571Y-87964146D01*
X141663726Y-87978300D01*
X141736274Y-87978300D01*
X141807429Y-87964146D01*
X141874455Y-87936383D01*
X141934778Y-87896077D01*
X141986077Y-87844778D01*
X142026383Y-87784455D01*
X142054146Y-87717429D01*
X142068300Y-87646274D01*
X142068300Y-87573726D01*
X142054146Y-87502571D01*
X142026383Y-87435545D01*
X141986077Y-87375222D01*
X141934778Y-87323923D01*
X141876525Y-87285000D01*
X141934778Y-87246077D01*
X141986077Y-87194778D01*
X142026383Y-87134455D01*
X142054146Y-87067429D01*
X142068300Y-86996274D01*
X142068300Y-86923726D01*
X142054146Y-86852571D01*
X142026383Y-86785545D01*
X141986077Y-86725222D01*
X141934778Y-86673923D01*
X141874455Y-86633617D01*
X141807429Y-86605854D01*
X141736274Y-86591700D01*
X141663726Y-86591700D01*
X141592571Y-86605854D01*
X141525545Y-86633617D01*
X141465222Y-86673923D01*
X141413923Y-86725222D01*
X141373617Y-86785545D01*
X141345854Y-86852571D01*
X141331700Y-86923726D01*
X140084581Y-86923726D01*
X140074778Y-86913923D01*
X140014455Y-86873617D01*
X139947429Y-86845854D01*
X139876274Y-86831700D01*
X139803726Y-86831700D01*
X139732571Y-86845854D01*
X139665545Y-86873617D01*
X139605222Y-86913923D01*
X139553923Y-86965222D01*
X139513617Y-87025545D01*
X139485854Y-87092571D01*
X139471700Y-87163726D01*
X131563335Y-87163726D01*
X131622494Y-87139222D01*
X131682817Y-87098916D01*
X131734116Y-87047617D01*
X131774422Y-86987294D01*
X131802185Y-86920268D01*
X131816339Y-86849113D01*
X131816339Y-86776565D01*
X131802185Y-86705410D01*
X131798671Y-86696926D01*
X133981560Y-86696926D01*
X133981560Y-86769474D01*
X133995714Y-86840629D01*
X134023477Y-86907655D01*
X134063783Y-86967978D01*
X134115082Y-87019277D01*
X134175405Y-87059583D01*
X134242431Y-87087346D01*
X134313586Y-87101500D01*
X134386134Y-87101500D01*
X134457289Y-87087346D01*
X134524315Y-87059583D01*
X134584638Y-87019277D01*
X134635937Y-86967978D01*
X134676243Y-86907655D01*
X134704006Y-86840629D01*
X134718160Y-86769474D01*
X134718160Y-86696926D01*
X134704006Y-86625771D01*
X134676243Y-86558745D01*
X134635937Y-86498422D01*
X134584638Y-86447123D01*
X134524315Y-86406817D01*
X134457289Y-86379054D01*
X134386134Y-86364900D01*
X134313586Y-86364900D01*
X134242431Y-86379054D01*
X134175405Y-86406817D01*
X134115082Y-86447123D01*
X134063783Y-86498422D01*
X134023477Y-86558745D01*
X133995714Y-86625771D01*
X133981560Y-86696926D01*
X131798671Y-86696926D01*
X131774422Y-86638384D01*
X131734116Y-86578061D01*
X131682817Y-86526762D01*
X131622494Y-86486456D01*
X131555468Y-86458693D01*
X131484313Y-86444539D01*
X131411765Y-86444539D01*
X131340610Y-86458693D01*
X131273584Y-86486456D01*
X131213261Y-86526762D01*
X131161962Y-86578061D01*
X131121656Y-86638384D01*
X131093893Y-86705410D01*
X131079739Y-86776565D01*
X130615500Y-86776565D01*
X130615500Y-86273726D01*
X139791700Y-86273726D01*
X139791700Y-86346274D01*
X139805854Y-86417429D01*
X139833617Y-86484455D01*
X139873923Y-86544778D01*
X139925222Y-86596077D01*
X139985545Y-86636383D01*
X140052571Y-86664146D01*
X140123726Y-86678300D01*
X140196274Y-86678300D01*
X140267429Y-86664146D01*
X140334455Y-86636383D01*
X140394778Y-86596077D01*
X140446077Y-86544778D01*
X140486383Y-86484455D01*
X140514146Y-86417429D01*
X140528300Y-86346274D01*
X140528300Y-86273726D01*
X144921700Y-86273726D01*
X144921700Y-86346274D01*
X144935854Y-86417429D01*
X144963617Y-86484455D01*
X145003923Y-86544778D01*
X145055222Y-86596077D01*
X145113475Y-86635000D01*
X145055222Y-86673923D01*
X145003923Y-86725222D01*
X144963617Y-86785545D01*
X144935854Y-86852571D01*
X144921700Y-86923726D01*
X144921700Y-86996274D01*
X144935854Y-87067429D01*
X144963617Y-87134455D01*
X145003923Y-87194778D01*
X145055222Y-87246077D01*
X145115545Y-87286383D01*
X145182571Y-87314146D01*
X145253726Y-87328300D01*
X145326274Y-87328300D01*
X145397429Y-87314146D01*
X145464455Y-87286383D01*
X145524778Y-87246077D01*
X145576077Y-87194778D01*
X145616383Y-87134455D01*
X145644146Y-87067429D01*
X145658300Y-86996274D01*
X145658300Y-86923726D01*
X145644146Y-86852571D01*
X145616383Y-86785545D01*
X145576077Y-86725222D01*
X145524778Y-86673923D01*
X145466525Y-86635000D01*
X145524778Y-86596077D01*
X145576077Y-86544778D01*
X145616383Y-86484455D01*
X145644146Y-86417429D01*
X145658300Y-86346274D01*
X145658300Y-86273726D01*
X145644146Y-86202571D01*
X145616383Y-86135545D01*
X145576077Y-86075222D01*
X145524778Y-86023923D01*
X145464455Y-85983617D01*
X145397429Y-85955854D01*
X145326274Y-85941700D01*
X145253726Y-85941700D01*
X145182571Y-85955854D01*
X145115545Y-85983617D01*
X145055222Y-86023923D01*
X145003923Y-86075222D01*
X144963617Y-86135545D01*
X144935854Y-86202571D01*
X144921700Y-86273726D01*
X140528300Y-86273726D01*
X140514146Y-86202571D01*
X140486383Y-86135545D01*
X140446077Y-86075222D01*
X140394778Y-86023923D01*
X140334455Y-85983617D01*
X140267429Y-85955854D01*
X140196274Y-85941700D01*
X140123726Y-85941700D01*
X140052571Y-85955854D01*
X139985545Y-85983617D01*
X139925222Y-86023923D01*
X139873923Y-86075222D01*
X139833617Y-86135545D01*
X139805854Y-86202571D01*
X139791700Y-86273726D01*
X130615500Y-86273726D01*
X130615500Y-85487526D01*
X133339160Y-85487526D01*
X133339160Y-85560074D01*
X133353314Y-85631229D01*
X133381077Y-85698255D01*
X133421383Y-85758578D01*
X133472682Y-85809877D01*
X133533005Y-85850183D01*
X133600031Y-85877946D01*
X133671186Y-85892100D01*
X133743734Y-85892100D01*
X133814889Y-85877946D01*
X133881915Y-85850183D01*
X133942238Y-85809877D01*
X133993537Y-85758578D01*
X134033843Y-85698255D01*
X134061606Y-85631229D01*
X134075760Y-85560074D01*
X134075760Y-85487526D01*
X134074750Y-85482446D01*
X135267022Y-85482446D01*
X135267022Y-85554994D01*
X135281176Y-85626149D01*
X135308939Y-85693175D01*
X135349245Y-85753498D01*
X135400544Y-85804797D01*
X135460867Y-85845103D01*
X135527893Y-85872866D01*
X135599048Y-85887020D01*
X135671596Y-85887020D01*
X135742751Y-85872866D01*
X135809777Y-85845103D01*
X135870100Y-85804797D01*
X135921399Y-85753498D01*
X135961705Y-85693175D01*
X135989468Y-85626149D01*
X136003622Y-85554994D01*
X136003622Y-85482446D01*
X138167700Y-85482446D01*
X138167700Y-85554994D01*
X138181854Y-85626149D01*
X138209617Y-85693175D01*
X138249923Y-85753498D01*
X138301222Y-85804797D01*
X138361545Y-85845103D01*
X138428571Y-85872866D01*
X138499726Y-85887020D01*
X138572274Y-85887020D01*
X138643429Y-85872866D01*
X138710455Y-85845103D01*
X138770778Y-85804797D01*
X138822077Y-85753498D01*
X138862383Y-85693175D01*
X138890146Y-85626149D01*
X138904300Y-85554994D01*
X138904300Y-85483726D01*
X139131700Y-85483726D01*
X139131700Y-85556274D01*
X139145854Y-85627429D01*
X139173617Y-85694455D01*
X139213923Y-85754778D01*
X139265222Y-85806077D01*
X139325545Y-85846383D01*
X139392571Y-85874146D01*
X139463726Y-85888300D01*
X139536274Y-85888300D01*
X139607429Y-85874146D01*
X139674455Y-85846383D01*
X139734778Y-85806077D01*
X139757129Y-85783726D01*
X141811700Y-85783726D01*
X141811700Y-85856274D01*
X141825854Y-85927429D01*
X141853617Y-85994455D01*
X141893923Y-86054778D01*
X141945222Y-86106077D01*
X142005545Y-86146383D01*
X142072571Y-86174146D01*
X142143726Y-86188300D01*
X142216274Y-86188300D01*
X142287429Y-86174146D01*
X142354455Y-86146383D01*
X142414778Y-86106077D01*
X142466077Y-86054778D01*
X142506383Y-85994455D01*
X142534146Y-85927429D01*
X142548300Y-85856274D01*
X142548300Y-85783726D01*
X142534146Y-85712571D01*
X142506383Y-85645545D01*
X142466077Y-85585222D01*
X142414778Y-85533923D01*
X142354455Y-85493617D01*
X142287429Y-85465854D01*
X142226460Y-85453726D01*
X142801700Y-85453726D01*
X142801700Y-85526274D01*
X142815854Y-85597429D01*
X142843617Y-85664455D01*
X142883923Y-85724778D01*
X142935222Y-85776077D01*
X142995545Y-85816383D01*
X143062571Y-85844146D01*
X143133726Y-85858300D01*
X143206274Y-85858300D01*
X143277429Y-85844146D01*
X143344455Y-85816383D01*
X143404778Y-85776077D01*
X143456077Y-85724778D01*
X143495000Y-85666525D01*
X143533923Y-85724778D01*
X143585222Y-85776077D01*
X143645545Y-85816383D01*
X143712571Y-85844146D01*
X143783726Y-85858300D01*
X143856274Y-85858300D01*
X143927429Y-85844146D01*
X143994455Y-85816383D01*
X144054778Y-85776077D01*
X144106077Y-85724778D01*
X144146383Y-85664455D01*
X144174146Y-85597429D01*
X144188300Y-85526274D01*
X144188300Y-85453726D01*
X144174146Y-85382571D01*
X144146383Y-85315545D01*
X144106077Y-85255222D01*
X144054778Y-85203923D01*
X143994455Y-85163617D01*
X143927429Y-85135854D01*
X143856274Y-85121700D01*
X143783726Y-85121700D01*
X143712571Y-85135854D01*
X143645545Y-85163617D01*
X143585222Y-85203923D01*
X143533923Y-85255222D01*
X143495000Y-85313475D01*
X143456077Y-85255222D01*
X143404778Y-85203923D01*
X143344455Y-85163617D01*
X143277429Y-85135854D01*
X143206274Y-85121700D01*
X143133726Y-85121700D01*
X143062571Y-85135854D01*
X142995545Y-85163617D01*
X142935222Y-85203923D01*
X142883923Y-85255222D01*
X142843617Y-85315545D01*
X142815854Y-85382571D01*
X142801700Y-85453726D01*
X142226460Y-85453726D01*
X142216274Y-85451700D01*
X142143726Y-85451700D01*
X142072571Y-85465854D01*
X142005545Y-85493617D01*
X141945222Y-85533923D01*
X141893923Y-85585222D01*
X141853617Y-85645545D01*
X141825854Y-85712571D01*
X141811700Y-85783726D01*
X139757129Y-85783726D01*
X139786077Y-85754778D01*
X139826383Y-85694455D01*
X139854146Y-85627429D01*
X139868300Y-85556274D01*
X139868300Y-85483726D01*
X139854146Y-85412571D01*
X139826383Y-85345545D01*
X139786077Y-85285222D01*
X139734778Y-85233923D01*
X139674455Y-85193617D01*
X139607429Y-85165854D01*
X139536274Y-85151700D01*
X139463726Y-85151700D01*
X139392571Y-85165854D01*
X139325545Y-85193617D01*
X139265222Y-85233923D01*
X139213923Y-85285222D01*
X139173617Y-85345545D01*
X139145854Y-85412571D01*
X139131700Y-85483726D01*
X138904300Y-85483726D01*
X138904300Y-85482446D01*
X138890146Y-85411291D01*
X138862383Y-85344265D01*
X138822077Y-85283942D01*
X138770778Y-85232643D01*
X138710455Y-85192337D01*
X138643429Y-85164574D01*
X138572274Y-85150420D01*
X138499726Y-85150420D01*
X138428571Y-85164574D01*
X138361545Y-85192337D01*
X138301222Y-85232643D01*
X138249923Y-85283942D01*
X138209617Y-85344265D01*
X138181854Y-85411291D01*
X138167700Y-85482446D01*
X136003622Y-85482446D01*
X135989468Y-85411291D01*
X135961705Y-85344265D01*
X135921399Y-85283942D01*
X135870100Y-85232643D01*
X135809777Y-85192337D01*
X135742751Y-85164574D01*
X135671596Y-85150420D01*
X135599048Y-85150420D01*
X135527893Y-85164574D01*
X135460867Y-85192337D01*
X135400544Y-85232643D01*
X135349245Y-85283942D01*
X135308939Y-85344265D01*
X135281176Y-85411291D01*
X135267022Y-85482446D01*
X134074750Y-85482446D01*
X134061606Y-85416371D01*
X134033843Y-85349345D01*
X133993537Y-85289022D01*
X133942238Y-85237723D01*
X133881915Y-85197417D01*
X133814889Y-85169654D01*
X133743734Y-85155500D01*
X133671186Y-85155500D01*
X133600031Y-85169654D01*
X133533005Y-85197417D01*
X133472682Y-85237723D01*
X133421383Y-85289022D01*
X133381077Y-85349345D01*
X133353314Y-85416371D01*
X133339160Y-85487526D01*
X130615500Y-85487526D01*
X130615500Y-85043726D01*
X131061700Y-85043726D01*
X131061700Y-85116274D01*
X131075854Y-85187429D01*
X131103617Y-85254455D01*
X131143923Y-85314778D01*
X131195222Y-85366077D01*
X131255545Y-85406383D01*
X131322571Y-85434146D01*
X131393726Y-85448300D01*
X131466274Y-85448300D01*
X131537429Y-85434146D01*
X131604455Y-85406383D01*
X131664778Y-85366077D01*
X131716077Y-85314778D01*
X131756383Y-85254455D01*
X131784146Y-85187429D01*
X131798300Y-85116274D01*
X131798300Y-85043726D01*
X131784146Y-84972571D01*
X131756383Y-84905545D01*
X131716077Y-84845222D01*
X131664778Y-84793923D01*
X131604455Y-84753617D01*
X131537429Y-84725854D01*
X131466274Y-84711700D01*
X131393726Y-84711700D01*
X131322571Y-84725854D01*
X131255545Y-84753617D01*
X131195222Y-84793923D01*
X131143923Y-84845222D01*
X131103617Y-84905545D01*
X131075854Y-84972571D01*
X131061700Y-85043726D01*
X130615500Y-85043726D01*
X130615500Y-84615500D01*
X133964035Y-84615500D01*
X133952746Y-84623043D01*
X133952746Y-84623043D01*
G37*
X133952746Y-84623043D02*
X133901447Y-84674342D01*
X133861141Y-84734665D01*
X133833378Y-84801691D01*
X133819224Y-84872846D01*
X133819224Y-84945394D01*
X133833378Y-85016549D01*
X133861141Y-85083575D01*
X133901447Y-85143898D01*
X133952746Y-85195197D01*
X134013069Y-85235503D01*
X134080095Y-85263266D01*
X134151250Y-85277420D01*
X134223798Y-85277420D01*
X134294953Y-85263266D01*
X134361979Y-85235503D01*
X134422302Y-85195197D01*
X134473601Y-85143898D01*
X134513907Y-85083575D01*
X134541670Y-85016549D01*
X134555824Y-84945394D01*
X134555824Y-84872846D01*
X134541670Y-84801691D01*
X134513907Y-84734665D01*
X134473601Y-84674342D01*
X134422302Y-84623043D01*
X134411013Y-84615500D01*
X135894433Y-84615500D01*
X135883144Y-84623043D01*
X135831845Y-84674342D01*
X135791539Y-84734665D01*
X135763776Y-84801691D01*
X135749622Y-84872846D01*
X135749622Y-84945394D01*
X135763776Y-85016549D01*
X135791539Y-85083575D01*
X135831845Y-85143898D01*
X135883144Y-85195197D01*
X135943467Y-85235503D01*
X136010493Y-85263266D01*
X136081648Y-85277420D01*
X136154196Y-85277420D01*
X136225351Y-85263266D01*
X136292377Y-85235503D01*
X136352700Y-85195197D01*
X136403999Y-85143898D01*
X136444305Y-85083575D01*
X136472068Y-85016549D01*
X136486222Y-84945394D01*
X136486222Y-84872846D01*
X136472068Y-84801691D01*
X136444305Y-84734665D01*
X136403999Y-84674342D01*
X136352700Y-84623043D01*
X136341411Y-84615500D01*
X149784656Y-84615500D01*
X149794345Y-98084500D01*
X140700656Y-98084500D01*
X140701978Y-98083617D01*
X140753277Y-98032318D01*
X140793583Y-97971995D01*
X140821346Y-97904969D01*
X140835500Y-97833814D01*
X140835500Y-97761266D01*
X140821346Y-97690111D01*
X140793583Y-97623085D01*
X140753277Y-97562762D01*
X140701978Y-97511463D01*
X140641655Y-97471157D01*
X140574629Y-97443394D01*
X140503474Y-97429240D01*
X140430926Y-97429240D01*
X140359771Y-97443394D01*
X140292745Y-97471157D01*
X140232422Y-97511463D01*
X140181123Y-97562762D01*
X140140817Y-97623085D01*
X140113054Y-97690111D01*
X140098900Y-97761266D01*
X140098900Y-97833814D01*
X140113054Y-97904969D01*
X140140817Y-97971995D01*
X140181123Y-98032318D01*
X140232422Y-98083617D01*
X140233744Y-98084500D01*
X139748595Y-98084500D01*
X139793157Y-98039938D01*
X139833463Y-97979615D01*
X139861226Y-97912589D01*
X139875380Y-97841434D01*
X139875380Y-97768886D01*
X139861226Y-97697731D01*
X139833463Y-97630705D01*
X139793157Y-97570382D01*
X139741858Y-97519083D01*
X139681535Y-97478777D01*
X139614509Y-97451014D01*
X139543354Y-97436860D01*
X139470806Y-97436860D01*
X139399651Y-97451014D01*
X139332625Y-97478777D01*
X139272302Y-97519083D01*
X139221003Y-97570382D01*
X139180697Y-97630705D01*
X139152934Y-97697731D01*
X139138780Y-97768886D01*
X139138780Y-97841434D01*
X139152934Y-97912589D01*
X139180697Y-97979615D01*
X139221003Y-98039938D01*
X139265565Y-98084500D01*
X130615500Y-98084500D01*
X130615500Y-97356586D01*
X131144660Y-97356586D01*
X131144660Y-97429134D01*
X131158814Y-97500289D01*
X131186577Y-97567315D01*
X131226883Y-97627638D01*
X131278182Y-97678937D01*
X131338505Y-97719243D01*
X131405531Y-97747006D01*
X131476686Y-97761160D01*
X131549234Y-97761160D01*
X131620389Y-97747006D01*
X131687415Y-97719243D01*
X131747738Y-97678937D01*
X131799037Y-97627638D01*
X131839343Y-97567315D01*
X131867106Y-97500289D01*
X131881260Y-97429134D01*
X131881260Y-97403726D01*
X132681700Y-97403726D01*
X132681700Y-97476274D01*
X132695854Y-97547429D01*
X132723617Y-97614455D01*
X132763923Y-97674778D01*
X132815222Y-97726077D01*
X132875545Y-97766383D01*
X132942571Y-97794146D01*
X133013726Y-97808300D01*
X133086274Y-97808300D01*
X133157429Y-97794146D01*
X133224455Y-97766383D01*
X133284778Y-97726077D01*
X133336077Y-97674778D01*
X133376383Y-97614455D01*
X133404146Y-97547429D01*
X133418300Y-97476274D01*
X133418300Y-97403726D01*
X133404146Y-97332571D01*
X133376383Y-97265545D01*
X133336077Y-97205222D01*
X133284778Y-97153923D01*
X133281401Y-97151666D01*
X140581500Y-97151666D01*
X140581500Y-97224214D01*
X140595654Y-97295369D01*
X140623417Y-97362395D01*
X140663723Y-97422718D01*
X140715022Y-97474017D01*
X140775345Y-97514323D01*
X140842371Y-97542086D01*
X140913526Y-97556240D01*
X140986074Y-97556240D01*
X141057229Y-97542086D01*
X141124255Y-97514323D01*
X141184578Y-97474017D01*
X141235877Y-97422718D01*
X141276183Y-97362395D01*
X141303946Y-97295369D01*
X141310240Y-97263726D01*
X148581700Y-97263726D01*
X148581700Y-97336274D01*
X148595854Y-97407429D01*
X148623617Y-97474455D01*
X148663923Y-97534778D01*
X148715222Y-97586077D01*
X148775545Y-97626383D01*
X148842571Y-97654146D01*
X148913726Y-97668300D01*
X148986274Y-97668300D01*
X149057429Y-97654146D01*
X149124455Y-97626383D01*
X149184778Y-97586077D01*
X149236077Y-97534778D01*
X149276383Y-97474455D01*
X149304146Y-97407429D01*
X149318300Y-97336274D01*
X149318300Y-97263726D01*
X149304146Y-97192571D01*
X149276383Y-97125545D01*
X149236077Y-97065222D01*
X149184778Y-97013923D01*
X149124455Y-96973617D01*
X149057429Y-96945854D01*
X148986274Y-96931700D01*
X148913726Y-96931700D01*
X148842571Y-96945854D01*
X148775545Y-96973617D01*
X148715222Y-97013923D01*
X148663923Y-97065222D01*
X148623617Y-97125545D01*
X148595854Y-97192571D01*
X148581700Y-97263726D01*
X141310240Y-97263726D01*
X141318100Y-97224214D01*
X141318100Y-97151666D01*
X141303946Y-97080511D01*
X141276183Y-97013485D01*
X141235877Y-96953162D01*
X141184578Y-96901863D01*
X141124255Y-96861557D01*
X141057229Y-96833794D01*
X140986074Y-96819640D01*
X140913526Y-96819640D01*
X140842371Y-96833794D01*
X140775345Y-96861557D01*
X140715022Y-96901863D01*
X140663723Y-96953162D01*
X140623417Y-97013485D01*
X140595654Y-97080511D01*
X140581500Y-97151666D01*
X133281401Y-97151666D01*
X133224455Y-97113617D01*
X133157429Y-97085854D01*
X133086274Y-97071700D01*
X133013726Y-97071700D01*
X132942571Y-97085854D01*
X132875545Y-97113617D01*
X132815222Y-97153923D01*
X132763923Y-97205222D01*
X132723617Y-97265545D01*
X132695854Y-97332571D01*
X132681700Y-97403726D01*
X131881260Y-97403726D01*
X131881260Y-97356586D01*
X131867106Y-97285431D01*
X131839343Y-97218405D01*
X131799037Y-97158082D01*
X131747738Y-97106783D01*
X131687415Y-97066477D01*
X131620389Y-97038714D01*
X131549234Y-97024560D01*
X131476686Y-97024560D01*
X131405531Y-97038714D01*
X131338505Y-97066477D01*
X131278182Y-97106783D01*
X131226883Y-97158082D01*
X131186577Y-97218405D01*
X131158814Y-97285431D01*
X131144660Y-97356586D01*
X130615500Y-97356586D01*
X130615500Y-97136028D01*
X130619823Y-97142498D01*
X130671122Y-97193797D01*
X130731445Y-97234103D01*
X130798471Y-97261866D01*
X130869626Y-97276020D01*
X130942174Y-97276020D01*
X131013329Y-97261866D01*
X131080355Y-97234103D01*
X131140678Y-97193797D01*
X131191977Y-97142498D01*
X131232283Y-97082175D01*
X131260046Y-97015149D01*
X131274200Y-96943994D01*
X131274200Y-96871446D01*
X131260046Y-96800291D01*
X131232283Y-96733265D01*
X131191977Y-96672942D01*
X131140678Y-96621643D01*
X131080355Y-96581337D01*
X131013329Y-96553574D01*
X130942174Y-96539420D01*
X130869626Y-96539420D01*
X130798471Y-96553574D01*
X130731445Y-96581337D01*
X130671122Y-96621643D01*
X130619823Y-96672942D01*
X130615500Y-96679412D01*
X130615500Y-96223726D01*
X140101700Y-96223726D01*
X140101700Y-96296274D01*
X140115854Y-96367429D01*
X140143617Y-96434455D01*
X140183923Y-96494778D01*
X140235222Y-96546077D01*
X140295545Y-96586383D01*
X140362571Y-96614146D01*
X140433726Y-96628300D01*
X140506274Y-96628300D01*
X140577429Y-96614146D01*
X140644455Y-96586383D01*
X140704778Y-96546077D01*
X140756077Y-96494778D01*
X140796383Y-96434455D01*
X140824146Y-96367429D01*
X140838300Y-96296274D01*
X140838300Y-96223726D01*
X140835957Y-96211946D01*
X141710700Y-96211946D01*
X141710700Y-96284494D01*
X141724854Y-96355649D01*
X141752617Y-96422675D01*
X141792923Y-96482998D01*
X141844222Y-96534297D01*
X141904545Y-96574603D01*
X141971571Y-96602366D01*
X142042726Y-96616520D01*
X142115274Y-96616520D01*
X142186429Y-96602366D01*
X142253455Y-96574603D01*
X142313778Y-96534297D01*
X142365077Y-96482998D01*
X142405383Y-96422675D01*
X142433146Y-96355649D01*
X142447300Y-96284494D01*
X142447300Y-96211946D01*
X142433146Y-96140791D01*
X142405383Y-96073765D01*
X142365077Y-96013442D01*
X142313778Y-95962143D01*
X142253455Y-95921837D01*
X142186429Y-95894074D01*
X142115274Y-95879920D01*
X142042726Y-95879920D01*
X141971571Y-95894074D01*
X141904545Y-95921837D01*
X141844222Y-95962143D01*
X141792923Y-96013442D01*
X141752617Y-96073765D01*
X141724854Y-96140791D01*
X141710700Y-96211946D01*
X140835957Y-96211946D01*
X140824146Y-96152571D01*
X140796383Y-96085545D01*
X140756077Y-96025222D01*
X140704778Y-95973923D01*
X140644455Y-95933617D01*
X140577429Y-95905854D01*
X140506274Y-95891700D01*
X140433726Y-95891700D01*
X140362571Y-95905854D01*
X140295545Y-95933617D01*
X140235222Y-95973923D01*
X140183923Y-96025222D01*
X140143617Y-96085545D01*
X140115854Y-96152571D01*
X140101700Y-96223726D01*
X130615500Y-96223726D01*
X130615500Y-95423648D01*
X131144660Y-95423648D01*
X131144660Y-95496196D01*
X131158814Y-95567351D01*
X131186577Y-95634377D01*
X131226883Y-95694700D01*
X131278182Y-95745999D01*
X131338505Y-95786305D01*
X131405531Y-95814068D01*
X131476686Y-95828222D01*
X131549234Y-95828222D01*
X131620389Y-95814068D01*
X131687415Y-95786305D01*
X131691274Y-95783726D01*
X139211700Y-95783726D01*
X139211700Y-95856274D01*
X139225854Y-95927429D01*
X139253617Y-95994455D01*
X139293923Y-96054778D01*
X139345222Y-96106077D01*
X139405545Y-96146383D01*
X139472571Y-96174146D01*
X139543726Y-96188300D01*
X139616274Y-96188300D01*
X139687429Y-96174146D01*
X139754455Y-96146383D01*
X139814778Y-96106077D01*
X139866077Y-96054778D01*
X139906383Y-95994455D01*
X139934146Y-95927429D01*
X139948300Y-95856274D01*
X139948300Y-95783726D01*
X139934146Y-95712571D01*
X139906383Y-95645545D01*
X139866077Y-95585222D01*
X139814778Y-95533923D01*
X139754455Y-95493617D01*
X139687429Y-95465854D01*
X139616274Y-95451700D01*
X139543726Y-95451700D01*
X139472571Y-95465854D01*
X139405545Y-95493617D01*
X139345222Y-95533923D01*
X139293923Y-95585222D01*
X139253617Y-95645545D01*
X139225854Y-95712571D01*
X139211700Y-95783726D01*
X131691274Y-95783726D01*
X131747738Y-95745999D01*
X131799037Y-95694700D01*
X131839343Y-95634377D01*
X131867106Y-95567351D01*
X131881260Y-95496196D01*
X131881260Y-95423648D01*
X131867106Y-95352493D01*
X131839343Y-95285467D01*
X131799037Y-95225144D01*
X131747738Y-95173845D01*
X131687415Y-95133539D01*
X131620389Y-95105776D01*
X131549234Y-95091622D01*
X131476686Y-95091622D01*
X131405531Y-95105776D01*
X131338505Y-95133539D01*
X131278182Y-95173845D01*
X131226883Y-95225144D01*
X131186577Y-95285467D01*
X131158814Y-95352493D01*
X131144660Y-95423648D01*
X130615500Y-95423648D01*
X130615500Y-95209432D01*
X130617283Y-95212100D01*
X130668582Y-95263399D01*
X130728905Y-95303705D01*
X130795931Y-95331468D01*
X130867086Y-95345622D01*
X130939634Y-95345622D01*
X131010789Y-95331468D01*
X131077815Y-95303705D01*
X131138138Y-95263399D01*
X131189437Y-95212100D01*
X131229743Y-95151777D01*
X131257506Y-95084751D01*
X131271660Y-95013596D01*
X131271660Y-94941048D01*
X131257506Y-94869893D01*
X131229743Y-94802867D01*
X131189437Y-94742544D01*
X131138138Y-94691245D01*
X131077815Y-94650939D01*
X131010789Y-94623176D01*
X130939634Y-94609022D01*
X130867086Y-94609022D01*
X130795931Y-94623176D01*
X130728905Y-94650939D01*
X130668582Y-94691245D01*
X130617283Y-94742544D01*
X130615500Y-94745212D01*
X130615500Y-94198446D01*
X135250600Y-94198446D01*
X135250600Y-94270994D01*
X135264754Y-94342149D01*
X135292517Y-94409175D01*
X135332823Y-94469498D01*
X135384122Y-94520797D01*
X135444445Y-94561103D01*
X135511471Y-94588866D01*
X135582626Y-94603020D01*
X135655174Y-94603020D01*
X135662938Y-94601476D01*
X135661400Y-94609206D01*
X135661400Y-94681754D01*
X135675554Y-94752909D01*
X135703317Y-94819935D01*
X135743623Y-94880258D01*
X135794922Y-94931557D01*
X135855245Y-94971863D01*
X135922271Y-94999626D01*
X135993426Y-95013780D01*
X136065974Y-95013780D01*
X136137129Y-94999626D01*
X136204155Y-94971863D01*
X136264478Y-94931557D01*
X136315777Y-94880258D01*
X136356083Y-94819935D01*
X136383846Y-94752909D01*
X136398000Y-94681754D01*
X136398000Y-94609206D01*
X136383846Y-94538051D01*
X136356083Y-94471025D01*
X136315777Y-94410702D01*
X136264478Y-94359403D01*
X136204155Y-94319097D01*
X136137129Y-94291334D01*
X136065974Y-94277180D01*
X135993426Y-94277180D01*
X135985662Y-94278724D01*
X135987200Y-94270994D01*
X135987200Y-94198446D01*
X136850600Y-94198446D01*
X136850600Y-94270994D01*
X136864754Y-94342149D01*
X136892517Y-94409175D01*
X136932823Y-94469498D01*
X136984122Y-94520797D01*
X137044445Y-94561103D01*
X137111471Y-94588866D01*
X137182626Y-94603020D01*
X137255174Y-94603020D01*
X137256520Y-94602752D01*
X137256520Y-94661434D01*
X137270674Y-94732589D01*
X137298437Y-94799615D01*
X137338743Y-94859938D01*
X137390042Y-94911237D01*
X137450365Y-94951543D01*
X137517391Y-94979306D01*
X137588546Y-94993460D01*
X137661094Y-94993460D01*
X137732249Y-94979306D01*
X137799275Y-94951543D01*
X137859598Y-94911237D01*
X137910897Y-94859938D01*
X137951203Y-94799615D01*
X137978966Y-94732589D01*
X137993120Y-94661434D01*
X137993120Y-94588886D01*
X137978966Y-94517731D01*
X137951203Y-94450705D01*
X137910897Y-94390382D01*
X137859598Y-94339083D01*
X137799275Y-94298777D01*
X137732249Y-94271014D01*
X137661094Y-94256860D01*
X137588546Y-94256860D01*
X137587200Y-94257128D01*
X137587200Y-94198446D01*
X140850600Y-94198446D01*
X140850600Y-94270994D01*
X140864754Y-94342149D01*
X140892517Y-94409175D01*
X140932823Y-94469498D01*
X140984122Y-94520797D01*
X141044445Y-94561103D01*
X141111471Y-94588866D01*
X141182626Y-94603020D01*
X141255174Y-94603020D01*
X141326329Y-94588866D01*
X141393355Y-94561103D01*
X141453678Y-94520797D01*
X141504977Y-94469498D01*
X141545283Y-94409175D01*
X141573046Y-94342149D01*
X141587200Y-94270994D01*
X141587200Y-94198446D01*
X141573046Y-94127291D01*
X141545283Y-94060265D01*
X141504977Y-93999942D01*
X141453678Y-93948643D01*
X141393355Y-93908337D01*
X141326329Y-93880574D01*
X141255174Y-93866420D01*
X141182626Y-93866420D01*
X141111471Y-93880574D01*
X141044445Y-93908337D01*
X140984122Y-93948643D01*
X140932823Y-93999942D01*
X140892517Y-94060265D01*
X140864754Y-94127291D01*
X140850600Y-94198446D01*
X137587200Y-94198446D01*
X137573046Y-94127291D01*
X137545283Y-94060265D01*
X137504977Y-93999942D01*
X137453678Y-93948643D01*
X137393355Y-93908337D01*
X137326329Y-93880574D01*
X137255174Y-93866420D01*
X137182626Y-93866420D01*
X137111471Y-93880574D01*
X137044445Y-93908337D01*
X136984122Y-93948643D01*
X136932823Y-93999942D01*
X136892517Y-94060265D01*
X136864754Y-94127291D01*
X136850600Y-94198446D01*
X135987200Y-94198446D01*
X135973046Y-94127291D01*
X135945283Y-94060265D01*
X135904977Y-93999942D01*
X135853678Y-93948643D01*
X135793355Y-93908337D01*
X135726329Y-93880574D01*
X135655174Y-93866420D01*
X135582626Y-93866420D01*
X135511471Y-93880574D01*
X135444445Y-93908337D01*
X135384122Y-93948643D01*
X135332823Y-93999942D01*
X135292517Y-94060265D01*
X135264754Y-94127291D01*
X135250600Y-94198446D01*
X130615500Y-94198446D01*
X130615500Y-93279034D01*
X130617283Y-93281702D01*
X130668582Y-93333001D01*
X130728905Y-93373307D01*
X130795931Y-93401070D01*
X130867086Y-93415224D01*
X130939634Y-93415224D01*
X131010789Y-93401070D01*
X131017123Y-93398446D01*
X133650600Y-93398446D01*
X133650600Y-93470994D01*
X133664754Y-93542149D01*
X133692517Y-93609175D01*
X133732823Y-93669498D01*
X133784122Y-93720797D01*
X133844445Y-93761103D01*
X133911471Y-93788866D01*
X133982626Y-93803020D01*
X134055174Y-93803020D01*
X134126329Y-93788866D01*
X134193355Y-93761103D01*
X134253678Y-93720797D01*
X134304977Y-93669498D01*
X134345283Y-93609175D01*
X134373046Y-93542149D01*
X134387200Y-93470994D01*
X134387200Y-93398446D01*
X134450600Y-93398446D01*
X134450600Y-93470994D01*
X134464754Y-93542149D01*
X134492517Y-93609175D01*
X134532823Y-93669498D01*
X134584122Y-93720797D01*
X134644445Y-93761103D01*
X134711471Y-93788866D01*
X134782626Y-93803020D01*
X134855174Y-93803020D01*
X134926329Y-93788866D01*
X134993355Y-93761103D01*
X135053678Y-93720797D01*
X135104977Y-93669498D01*
X135145283Y-93609175D01*
X135173046Y-93542149D01*
X135187200Y-93470994D01*
X135187200Y-93398446D01*
X135250600Y-93398446D01*
X135250600Y-93470994D01*
X135264754Y-93542149D01*
X135292517Y-93609175D01*
X135332823Y-93669498D01*
X135384122Y-93720797D01*
X135444445Y-93761103D01*
X135511471Y-93788866D01*
X135582626Y-93803020D01*
X135655174Y-93803020D01*
X135726329Y-93788866D01*
X135793355Y-93761103D01*
X135853678Y-93720797D01*
X135904977Y-93669498D01*
X135945283Y-93609175D01*
X135972392Y-93543726D01*
X143091700Y-93543726D01*
X143091700Y-93616274D01*
X143105854Y-93687429D01*
X143133617Y-93754455D01*
X143173923Y-93814778D01*
X143225222Y-93866077D01*
X143285545Y-93906383D01*
X143352571Y-93934146D01*
X143423726Y-93948300D01*
X143496274Y-93948300D01*
X143567429Y-93934146D01*
X143634455Y-93906383D01*
X143694778Y-93866077D01*
X143746077Y-93814778D01*
X143786383Y-93754455D01*
X143814146Y-93687429D01*
X143828300Y-93616274D01*
X143828300Y-93543726D01*
X143814146Y-93472571D01*
X143786383Y-93405545D01*
X143765537Y-93374346D01*
X148330920Y-93374346D01*
X148330920Y-93446894D01*
X148345074Y-93518049D01*
X148372837Y-93585075D01*
X148413143Y-93645398D01*
X148464442Y-93696697D01*
X148524765Y-93737003D01*
X148591791Y-93764766D01*
X148662946Y-93778920D01*
X148735494Y-93778920D01*
X148806649Y-93764766D01*
X148873675Y-93737003D01*
X148933998Y-93696697D01*
X148985297Y-93645398D01*
X149025603Y-93585075D01*
X149053366Y-93518049D01*
X149067520Y-93446894D01*
X149067520Y-93374346D01*
X149053366Y-93303191D01*
X149025603Y-93236165D01*
X148985297Y-93175842D01*
X148933998Y-93124543D01*
X148873675Y-93084237D01*
X148806649Y-93056474D01*
X148735494Y-93042320D01*
X148662946Y-93042320D01*
X148591791Y-93056474D01*
X148524765Y-93084237D01*
X148464442Y-93124543D01*
X148413143Y-93175842D01*
X148372837Y-93236165D01*
X148345074Y-93303191D01*
X148330920Y-93374346D01*
X143765537Y-93374346D01*
X143746077Y-93345222D01*
X143694778Y-93293923D01*
X143634455Y-93253617D01*
X143567429Y-93225854D01*
X143496274Y-93211700D01*
X143423726Y-93211700D01*
X143352571Y-93225854D01*
X143285545Y-93253617D01*
X143225222Y-93293923D01*
X143173923Y-93345222D01*
X143133617Y-93405545D01*
X143105854Y-93472571D01*
X143091700Y-93543726D01*
X135972392Y-93543726D01*
X135973046Y-93542149D01*
X135987200Y-93470994D01*
X135987200Y-93398446D01*
X135973046Y-93327291D01*
X135945283Y-93260265D01*
X135904977Y-93199942D01*
X135853678Y-93148643D01*
X135793355Y-93108337D01*
X135726329Y-93080574D01*
X135655174Y-93066420D01*
X135582626Y-93066420D01*
X135511471Y-93080574D01*
X135444445Y-93108337D01*
X135384122Y-93148643D01*
X135332823Y-93199942D01*
X135292517Y-93260265D01*
X135264754Y-93327291D01*
X135250600Y-93398446D01*
X135187200Y-93398446D01*
X135173046Y-93327291D01*
X135145283Y-93260265D01*
X135104977Y-93199942D01*
X135053678Y-93148643D01*
X134993355Y-93108337D01*
X134926329Y-93080574D01*
X134855174Y-93066420D01*
X134782626Y-93066420D01*
X134711471Y-93080574D01*
X134644445Y-93108337D01*
X134584122Y-93148643D01*
X134532823Y-93199942D01*
X134492517Y-93260265D01*
X134464754Y-93327291D01*
X134450600Y-93398446D01*
X134387200Y-93398446D01*
X134373046Y-93327291D01*
X134345283Y-93260265D01*
X134304977Y-93199942D01*
X134253678Y-93148643D01*
X134193355Y-93108337D01*
X134126329Y-93080574D01*
X134055174Y-93066420D01*
X133982626Y-93066420D01*
X133911471Y-93080574D01*
X133844445Y-93108337D01*
X133784122Y-93148643D01*
X133732823Y-93199942D01*
X133692517Y-93260265D01*
X133664754Y-93327291D01*
X133650600Y-93398446D01*
X131017123Y-93398446D01*
X131077815Y-93373307D01*
X131138138Y-93333001D01*
X131189437Y-93281702D01*
X131229743Y-93221379D01*
X131257506Y-93154353D01*
X131271660Y-93083198D01*
X131271660Y-93010650D01*
X131257506Y-92939495D01*
X131229743Y-92872469D01*
X131189437Y-92812146D01*
X131138138Y-92760847D01*
X131077815Y-92720541D01*
X131010789Y-92692778D01*
X130939634Y-92678624D01*
X130867086Y-92678624D01*
X130795931Y-92692778D01*
X130728905Y-92720541D01*
X130668582Y-92760847D01*
X130617283Y-92812146D01*
X130615500Y-92814814D01*
X130615500Y-92528051D01*
X131144660Y-92528051D01*
X131144660Y-92600599D01*
X131158814Y-92671754D01*
X131186577Y-92738780D01*
X131226883Y-92799103D01*
X131278182Y-92850402D01*
X131338505Y-92890708D01*
X131405531Y-92918471D01*
X131476686Y-92932625D01*
X131549234Y-92932625D01*
X131620389Y-92918471D01*
X131687415Y-92890708D01*
X131747738Y-92850402D01*
X131799037Y-92799103D01*
X131839343Y-92738780D01*
X131867106Y-92671754D01*
X131881260Y-92600599D01*
X131881260Y-92528051D01*
X131867106Y-92456896D01*
X131851710Y-92419726D01*
X132839450Y-92419726D01*
X132839450Y-92492274D01*
X132853604Y-92563429D01*
X132881367Y-92630455D01*
X132921673Y-92690778D01*
X132972972Y-92742077D01*
X133033295Y-92782383D01*
X133100321Y-92810146D01*
X133171476Y-92824300D01*
X133244024Y-92824300D01*
X133315179Y-92810146D01*
X133382205Y-92782383D01*
X133442528Y-92742077D01*
X133493827Y-92690778D01*
X133534133Y-92630455D01*
X133561896Y-92563429D01*
X133576050Y-92492274D01*
X133576050Y-92419726D01*
X133561896Y-92348571D01*
X133534133Y-92281545D01*
X133493827Y-92221222D01*
X133470511Y-92197906D01*
X134851140Y-92197906D01*
X134851140Y-92270454D01*
X134865294Y-92341609D01*
X134893057Y-92408635D01*
X134933363Y-92468958D01*
X134984662Y-92520257D01*
X135044985Y-92560563D01*
X135112011Y-92588326D01*
X135183166Y-92602480D01*
X135250600Y-92602480D01*
X135250600Y-92670994D01*
X135264754Y-92742149D01*
X135292517Y-92809175D01*
X135332823Y-92869498D01*
X135384122Y-92920797D01*
X135444445Y-92961103D01*
X135511471Y-92988866D01*
X135582626Y-93003020D01*
X135655174Y-93003020D01*
X135726329Y-92988866D01*
X135793355Y-92961103D01*
X135853678Y-92920797D01*
X135904977Y-92869498D01*
X135945283Y-92809175D01*
X135973046Y-92742149D01*
X135987200Y-92670994D01*
X135987200Y-92600066D01*
X136050020Y-92600066D01*
X136050020Y-92672614D01*
X136064174Y-92743769D01*
X136091937Y-92810795D01*
X136132243Y-92871118D01*
X136183542Y-92922417D01*
X136243865Y-92962723D01*
X136310891Y-92990486D01*
X136382046Y-93004640D01*
X136454594Y-93004640D01*
X136525749Y-92990486D01*
X136592775Y-92962723D01*
X136653098Y-92922417D01*
X136704397Y-92871118D01*
X136744703Y-92810795D01*
X136772466Y-92743769D01*
X136786620Y-92672614D01*
X136786620Y-92600066D01*
X136786115Y-92597526D01*
X138448460Y-92597526D01*
X138448460Y-92670074D01*
X138462614Y-92741229D01*
X138490377Y-92808255D01*
X138530683Y-92868578D01*
X138581982Y-92919877D01*
X138642305Y-92960183D01*
X138709331Y-92987946D01*
X138780486Y-93002100D01*
X138853034Y-93002100D01*
X138924189Y-92987946D01*
X138991215Y-92960183D01*
X139051538Y-92919877D01*
X139102837Y-92868578D01*
X139143143Y-92808255D01*
X139170906Y-92741229D01*
X139185060Y-92670074D01*
X139185060Y-92598446D01*
X139250600Y-92598446D01*
X139250600Y-92670994D01*
X139264754Y-92742149D01*
X139292517Y-92809175D01*
X139332823Y-92869498D01*
X139384122Y-92920797D01*
X139444445Y-92961103D01*
X139511471Y-92988866D01*
X139582626Y-93003020D01*
X139655174Y-93003020D01*
X139726329Y-92988866D01*
X139793355Y-92961103D01*
X139853678Y-92920797D01*
X139904977Y-92869498D01*
X139945283Y-92809175D01*
X139973046Y-92742149D01*
X139987200Y-92670994D01*
X139987200Y-92598446D01*
X140850600Y-92598446D01*
X140850600Y-92670994D01*
X140864754Y-92742149D01*
X140892517Y-92809175D01*
X140932823Y-92869498D01*
X140984122Y-92920797D01*
X141044445Y-92961103D01*
X141111471Y-92988866D01*
X141182626Y-93003020D01*
X141255174Y-93003020D01*
X141326329Y-92988866D01*
X141393355Y-92961103D01*
X141453678Y-92920797D01*
X141500749Y-92873726D01*
X146971700Y-92873726D01*
X146971700Y-92946274D01*
X146985854Y-93017429D01*
X147013617Y-93084455D01*
X147053923Y-93144778D01*
X147105222Y-93196077D01*
X147165545Y-93236383D01*
X147232571Y-93264146D01*
X147303726Y-93278300D01*
X147376274Y-93278300D01*
X147447429Y-93264146D01*
X147514455Y-93236383D01*
X147574778Y-93196077D01*
X147626077Y-93144778D01*
X147666383Y-93084455D01*
X147694146Y-93017429D01*
X147708300Y-92946274D01*
X147708300Y-92873726D01*
X147694146Y-92802571D01*
X147666383Y-92735545D01*
X147626077Y-92675222D01*
X147574778Y-92623923D01*
X147514455Y-92583617D01*
X147447429Y-92555854D01*
X147376274Y-92541700D01*
X147303726Y-92541700D01*
X147232571Y-92555854D01*
X147165545Y-92583617D01*
X147105222Y-92623923D01*
X147053923Y-92675222D01*
X147013617Y-92735545D01*
X146985854Y-92802571D01*
X146971700Y-92873726D01*
X141500749Y-92873726D01*
X141504977Y-92869498D01*
X141545283Y-92809175D01*
X141573046Y-92742149D01*
X141587200Y-92670994D01*
X141587200Y-92598446D01*
X141573046Y-92527291D01*
X141545283Y-92460265D01*
X141504977Y-92399942D01*
X141453678Y-92348643D01*
X141393355Y-92308337D01*
X141326329Y-92280574D01*
X141255174Y-92266420D01*
X141182626Y-92266420D01*
X141111471Y-92280574D01*
X141044445Y-92308337D01*
X140984122Y-92348643D01*
X140932823Y-92399942D01*
X140892517Y-92460265D01*
X140864754Y-92527291D01*
X140850600Y-92598446D01*
X139987200Y-92598446D01*
X139973046Y-92527291D01*
X139945283Y-92460265D01*
X139904977Y-92399942D01*
X139853678Y-92348643D01*
X139793355Y-92308337D01*
X139726329Y-92280574D01*
X139655174Y-92266420D01*
X139582626Y-92266420D01*
X139511471Y-92280574D01*
X139444445Y-92308337D01*
X139384122Y-92348643D01*
X139332823Y-92399942D01*
X139292517Y-92460265D01*
X139264754Y-92527291D01*
X139250600Y-92598446D01*
X139185060Y-92598446D01*
X139185060Y-92597526D01*
X139170906Y-92526371D01*
X139143143Y-92459345D01*
X139102837Y-92399022D01*
X139051538Y-92347723D01*
X138991215Y-92307417D01*
X138924189Y-92279654D01*
X138853034Y-92265500D01*
X138780486Y-92265500D01*
X138709331Y-92279654D01*
X138642305Y-92307417D01*
X138581982Y-92347723D01*
X138530683Y-92399022D01*
X138490377Y-92459345D01*
X138462614Y-92526371D01*
X138448460Y-92597526D01*
X136786115Y-92597526D01*
X136772466Y-92528911D01*
X136744703Y-92461885D01*
X136704397Y-92401562D01*
X136653098Y-92350263D01*
X136592775Y-92309957D01*
X136525749Y-92282194D01*
X136454594Y-92268040D01*
X136382046Y-92268040D01*
X136310891Y-92282194D01*
X136243865Y-92309957D01*
X136183542Y-92350263D01*
X136132243Y-92401562D01*
X136091937Y-92461885D01*
X136064174Y-92528911D01*
X136050020Y-92600066D01*
X135987200Y-92600066D01*
X135987200Y-92598446D01*
X135973046Y-92527291D01*
X135945283Y-92460265D01*
X135904977Y-92399942D01*
X135853678Y-92348643D01*
X135793355Y-92308337D01*
X135726329Y-92280574D01*
X135655174Y-92266420D01*
X135587740Y-92266420D01*
X135587740Y-92197906D01*
X135573586Y-92126751D01*
X135545823Y-92059725D01*
X135505517Y-91999402D01*
X135454218Y-91948103D01*
X135393895Y-91907797D01*
X135326869Y-91880034D01*
X135255714Y-91865880D01*
X135183166Y-91865880D01*
X135112011Y-91880034D01*
X135044985Y-91907797D01*
X134984662Y-91948103D01*
X134933363Y-91999402D01*
X134893057Y-92059725D01*
X134865294Y-92126751D01*
X134851140Y-92197906D01*
X133470511Y-92197906D01*
X133442528Y-92169923D01*
X133382205Y-92129617D01*
X133315179Y-92101854D01*
X133244024Y-92087700D01*
X133171476Y-92087700D01*
X133100321Y-92101854D01*
X133033295Y-92129617D01*
X132972972Y-92169923D01*
X132921673Y-92221222D01*
X132881367Y-92281545D01*
X132853604Y-92348571D01*
X132839450Y-92419726D01*
X131851710Y-92419726D01*
X131839343Y-92389870D01*
X131799037Y-92329547D01*
X131747738Y-92278248D01*
X131687415Y-92237942D01*
X131620389Y-92210179D01*
X131549234Y-92196025D01*
X131476686Y-92196025D01*
X131405531Y-92210179D01*
X131338505Y-92237942D01*
X131278182Y-92278248D01*
X131226883Y-92329547D01*
X131186577Y-92389870D01*
X131158814Y-92456896D01*
X131144660Y-92528051D01*
X130615500Y-92528051D01*
X130615500Y-91562852D01*
X131144660Y-91562852D01*
X131144660Y-91635400D01*
X131158814Y-91706555D01*
X131186577Y-91773581D01*
X131226883Y-91833904D01*
X131278182Y-91885203D01*
X131338505Y-91925509D01*
X131405531Y-91953272D01*
X131476686Y-91967426D01*
X131549234Y-91967426D01*
X131620389Y-91953272D01*
X131687415Y-91925509D01*
X131747738Y-91885203D01*
X131799037Y-91833904D01*
X131839343Y-91773581D01*
X131867106Y-91706555D01*
X131881260Y-91635400D01*
X131881260Y-91562852D01*
X131867106Y-91491697D01*
X131839343Y-91424671D01*
X131825326Y-91403692D01*
X133210300Y-91403692D01*
X133210300Y-91476240D01*
X133224454Y-91547395D01*
X133252217Y-91614421D01*
X133292523Y-91674744D01*
X133343822Y-91726043D01*
X133404145Y-91766349D01*
X133471171Y-91794112D01*
X133542326Y-91808266D01*
X133614874Y-91808266D01*
X133656599Y-91799966D01*
X136050020Y-91799966D01*
X136050020Y-91872514D01*
X136064174Y-91943669D01*
X136091937Y-92010695D01*
X136132243Y-92071018D01*
X136183542Y-92122317D01*
X136243865Y-92162623D01*
X136310891Y-92190386D01*
X136382046Y-92204540D01*
X136454594Y-92204540D01*
X136525749Y-92190386D01*
X136592775Y-92162623D01*
X136653098Y-92122317D01*
X136704397Y-92071018D01*
X136744703Y-92010695D01*
X136772466Y-91943669D01*
X136786620Y-91872514D01*
X136786620Y-91799966D01*
X136786115Y-91797426D01*
X137650220Y-91797426D01*
X137650220Y-91869974D01*
X137664374Y-91941129D01*
X137692137Y-92008155D01*
X137732443Y-92068478D01*
X137783742Y-92119777D01*
X137844065Y-92160083D01*
X137911091Y-92187846D01*
X137982246Y-92202000D01*
X138054794Y-92202000D01*
X138125949Y-92187846D01*
X138192975Y-92160083D01*
X138253298Y-92119777D01*
X138304597Y-92068478D01*
X138344903Y-92008155D01*
X138372666Y-91941129D01*
X138386820Y-91869974D01*
X138386820Y-91798446D01*
X138450600Y-91798446D01*
X138450600Y-91870994D01*
X138464754Y-91942149D01*
X138492517Y-92009175D01*
X138532823Y-92069498D01*
X138584122Y-92120797D01*
X138644445Y-92161103D01*
X138711471Y-92188866D01*
X138782626Y-92203020D01*
X138855174Y-92203020D01*
X138926329Y-92188866D01*
X138993355Y-92161103D01*
X139053678Y-92120797D01*
X139104977Y-92069498D01*
X139145283Y-92009175D01*
X139173046Y-91942149D01*
X139187200Y-91870994D01*
X139187200Y-91799966D01*
X139247200Y-91799966D01*
X139247200Y-91872514D01*
X139261354Y-91943669D01*
X139289117Y-92010695D01*
X139329423Y-92071018D01*
X139380722Y-92122317D01*
X139441045Y-92162623D01*
X139508071Y-92190386D01*
X139579226Y-92204540D01*
X139651774Y-92204540D01*
X139722929Y-92190386D01*
X139789955Y-92162623D01*
X139803270Y-92153726D01*
X145931700Y-92153726D01*
X145931700Y-92226274D01*
X145945854Y-92297429D01*
X145973617Y-92364455D01*
X146013923Y-92424778D01*
X146065222Y-92476077D01*
X146125545Y-92516383D01*
X146192571Y-92544146D01*
X146263726Y-92558300D01*
X146336274Y-92558300D01*
X146407429Y-92544146D01*
X146474455Y-92516383D01*
X146534778Y-92476077D01*
X146586077Y-92424778D01*
X146626383Y-92364455D01*
X146654146Y-92297429D01*
X146668300Y-92226274D01*
X146668300Y-92153726D01*
X146654146Y-92082571D01*
X146626383Y-92015545D01*
X146586077Y-91955222D01*
X146534778Y-91903923D01*
X146474455Y-91863617D01*
X146407429Y-91835854D01*
X146336274Y-91821700D01*
X146263726Y-91821700D01*
X146192571Y-91835854D01*
X146125545Y-91863617D01*
X146065222Y-91903923D01*
X146013923Y-91955222D01*
X145973617Y-92015545D01*
X145945854Y-92082571D01*
X145931700Y-92153726D01*
X139803270Y-92153726D01*
X139850278Y-92122317D01*
X139901577Y-92071018D01*
X139941883Y-92010695D01*
X139969646Y-91943669D01*
X139983800Y-91872514D01*
X139983800Y-91799966D01*
X139969646Y-91728811D01*
X139941883Y-91661785D01*
X139901577Y-91601462D01*
X139850278Y-91550163D01*
X139789955Y-91509857D01*
X139722929Y-91482094D01*
X139651774Y-91467940D01*
X139579226Y-91467940D01*
X139508071Y-91482094D01*
X139441045Y-91509857D01*
X139380722Y-91550163D01*
X139329423Y-91601462D01*
X139289117Y-91661785D01*
X139261354Y-91728811D01*
X139247200Y-91799966D01*
X139187200Y-91799966D01*
X139187200Y-91798446D01*
X139173046Y-91727291D01*
X139145283Y-91660265D01*
X139104977Y-91599942D01*
X139053678Y-91548643D01*
X138993355Y-91508337D01*
X138926329Y-91480574D01*
X138855174Y-91466420D01*
X138782626Y-91466420D01*
X138711471Y-91480574D01*
X138644445Y-91508337D01*
X138584122Y-91548643D01*
X138532823Y-91599942D01*
X138492517Y-91660265D01*
X138464754Y-91727291D01*
X138450600Y-91798446D01*
X138386820Y-91798446D01*
X138386820Y-91797426D01*
X138372666Y-91726271D01*
X138344903Y-91659245D01*
X138304597Y-91598922D01*
X138253298Y-91547623D01*
X138192975Y-91507317D01*
X138125949Y-91479554D01*
X138054794Y-91465400D01*
X137982246Y-91465400D01*
X137911091Y-91479554D01*
X137844065Y-91507317D01*
X137783742Y-91547623D01*
X137732443Y-91598922D01*
X137692137Y-91659245D01*
X137664374Y-91726271D01*
X137650220Y-91797426D01*
X136786115Y-91797426D01*
X136772466Y-91728811D01*
X136744703Y-91661785D01*
X136704397Y-91601462D01*
X136653098Y-91550163D01*
X136592775Y-91509857D01*
X136525749Y-91482094D01*
X136454594Y-91467940D01*
X136382046Y-91467940D01*
X136310891Y-91482094D01*
X136243865Y-91509857D01*
X136183542Y-91550163D01*
X136132243Y-91601462D01*
X136091937Y-91661785D01*
X136064174Y-91728811D01*
X136050020Y-91799966D01*
X133656599Y-91799966D01*
X133686029Y-91794112D01*
X133753055Y-91766349D01*
X133813378Y-91726043D01*
X133864677Y-91674744D01*
X133904983Y-91614421D01*
X133932746Y-91547395D01*
X133946900Y-91476240D01*
X133946900Y-91403692D01*
X133932746Y-91332537D01*
X133904983Y-91265511D01*
X133864677Y-91205188D01*
X133813378Y-91153889D01*
X133753055Y-91113583D01*
X133686029Y-91085820D01*
X133614874Y-91071666D01*
X133542326Y-91071666D01*
X133471171Y-91085820D01*
X133404145Y-91113583D01*
X133343822Y-91153889D01*
X133292523Y-91205188D01*
X133252217Y-91265511D01*
X133224454Y-91332537D01*
X133210300Y-91403692D01*
X131825326Y-91403692D01*
X131799037Y-91364348D01*
X131747738Y-91313049D01*
X131687415Y-91272743D01*
X131620389Y-91244980D01*
X131549234Y-91230826D01*
X131476686Y-91230826D01*
X131405531Y-91244980D01*
X131338505Y-91272743D01*
X131278182Y-91313049D01*
X131226883Y-91364348D01*
X131186577Y-91424671D01*
X131158814Y-91491697D01*
X131144660Y-91562852D01*
X130615500Y-91562852D01*
X130615500Y-90629026D01*
X133207754Y-90629026D01*
X133207754Y-90701574D01*
X133221908Y-90772729D01*
X133249671Y-90839755D01*
X133289977Y-90900078D01*
X133341276Y-90951377D01*
X133401599Y-90991683D01*
X133468625Y-91019446D01*
X133539780Y-91033600D01*
X133612328Y-91033600D01*
X133683483Y-91019446D01*
X133750509Y-90991683D01*
X133810832Y-90951377D01*
X133862131Y-90900078D01*
X133902437Y-90839755D01*
X133930200Y-90772729D01*
X133944354Y-90701574D01*
X133944354Y-90629026D01*
X133930200Y-90557871D01*
X133902437Y-90490845D01*
X133862131Y-90430522D01*
X133810832Y-90379223D01*
X133750509Y-90338917D01*
X133683483Y-90311154D01*
X133612328Y-90297000D01*
X133539780Y-90297000D01*
X133468625Y-90311154D01*
X133401599Y-90338917D01*
X133341276Y-90379223D01*
X133289977Y-90430522D01*
X133249671Y-90490845D01*
X133221908Y-90557871D01*
X133207754Y-90629026D01*
X130615500Y-90629026D01*
X130615500Y-90383437D01*
X130617283Y-90386105D01*
X130668582Y-90437404D01*
X130728905Y-90477710D01*
X130795931Y-90505473D01*
X130867086Y-90519627D01*
X130939634Y-90519627D01*
X131010789Y-90505473D01*
X131077815Y-90477710D01*
X131138138Y-90437404D01*
X131189437Y-90386105D01*
X131229743Y-90325782D01*
X131257506Y-90258756D01*
X131269502Y-90198446D01*
X134450600Y-90198446D01*
X134450600Y-90270994D01*
X134464754Y-90342149D01*
X134492517Y-90409175D01*
X134532823Y-90469498D01*
X134584122Y-90520797D01*
X134644445Y-90561103D01*
X134711471Y-90588866D01*
X134782626Y-90603020D01*
X134846060Y-90603020D01*
X134846060Y-90671094D01*
X134860214Y-90742249D01*
X134887977Y-90809275D01*
X134928283Y-90869598D01*
X134979582Y-90920897D01*
X135039905Y-90961203D01*
X135106931Y-90988966D01*
X135178086Y-91003120D01*
X135250634Y-91003120D01*
X135266992Y-90999866D01*
X137650220Y-90999866D01*
X137650220Y-91072414D01*
X137664374Y-91143569D01*
X137692137Y-91210595D01*
X137732443Y-91270918D01*
X137783742Y-91322217D01*
X137844065Y-91362523D01*
X137911091Y-91390286D01*
X137982246Y-91404440D01*
X138054794Y-91404440D01*
X138125949Y-91390286D01*
X138192975Y-91362523D01*
X138253298Y-91322217D01*
X138304597Y-91270918D01*
X138344903Y-91210595D01*
X138372666Y-91143569D01*
X138386820Y-91072414D01*
X138386820Y-90999866D01*
X138386315Y-90997326D01*
X139250420Y-90997326D01*
X139250420Y-91069874D01*
X139264574Y-91141029D01*
X139292337Y-91208055D01*
X139332643Y-91268378D01*
X139383942Y-91319677D01*
X139444265Y-91359983D01*
X139511291Y-91387746D01*
X139582446Y-91401900D01*
X139654994Y-91401900D01*
X139726149Y-91387746D01*
X139793175Y-91359983D01*
X139853498Y-91319677D01*
X139904797Y-91268378D01*
X139945103Y-91208055D01*
X139972866Y-91141029D01*
X139987020Y-91069874D01*
X139987020Y-90997326D01*
X139972866Y-90926171D01*
X139945103Y-90859145D01*
X139904797Y-90798822D01*
X139853498Y-90747523D01*
X139793175Y-90707217D01*
X139726149Y-90679454D01*
X139654994Y-90665300D01*
X139582446Y-90665300D01*
X139511291Y-90679454D01*
X139444265Y-90707217D01*
X139383942Y-90747523D01*
X139332643Y-90798822D01*
X139292337Y-90859145D01*
X139264574Y-90926171D01*
X139250420Y-90997326D01*
X138386315Y-90997326D01*
X138372666Y-90928711D01*
X138344903Y-90861685D01*
X138304597Y-90801362D01*
X138253298Y-90750063D01*
X138192975Y-90709757D01*
X138125949Y-90681994D01*
X138054794Y-90667840D01*
X137982246Y-90667840D01*
X137911091Y-90681994D01*
X137844065Y-90709757D01*
X137783742Y-90750063D01*
X137732443Y-90801362D01*
X137692137Y-90861685D01*
X137664374Y-90928711D01*
X137650220Y-90999866D01*
X135266992Y-90999866D01*
X135321789Y-90988966D01*
X135388815Y-90961203D01*
X135449138Y-90920897D01*
X135500437Y-90869598D01*
X135540743Y-90809275D01*
X135568506Y-90742249D01*
X135582660Y-90671094D01*
X135582660Y-90663726D01*
X142161700Y-90663726D01*
X142161700Y-90736274D01*
X142175854Y-90807429D01*
X142203617Y-90874455D01*
X142243923Y-90934778D01*
X142295222Y-90986077D01*
X142355545Y-91026383D01*
X142422571Y-91054146D01*
X142493726Y-91068300D01*
X142566274Y-91068300D01*
X142637429Y-91054146D01*
X142704455Y-91026383D01*
X142764778Y-90986077D01*
X142816077Y-90934778D01*
X142856383Y-90874455D01*
X142884146Y-90807429D01*
X142898300Y-90736274D01*
X142898300Y-90663726D01*
X142884146Y-90592571D01*
X142856383Y-90525545D01*
X142816077Y-90465222D01*
X142813424Y-90462569D01*
X144980657Y-90462569D01*
X144980657Y-90535117D01*
X144994811Y-90606272D01*
X145022574Y-90673298D01*
X145062880Y-90733621D01*
X145114179Y-90784920D01*
X145174502Y-90825226D01*
X145241528Y-90852989D01*
X145312683Y-90867143D01*
X145385231Y-90867143D01*
X145456386Y-90852989D01*
X145523412Y-90825226D01*
X145583735Y-90784920D01*
X145635034Y-90733621D01*
X145675340Y-90673298D01*
X145703103Y-90606272D01*
X145717257Y-90535117D01*
X145717257Y-90462569D01*
X145703103Y-90391414D01*
X145675340Y-90324388D01*
X145635034Y-90264065D01*
X145583735Y-90212766D01*
X145523412Y-90172460D01*
X145456386Y-90144697D01*
X145385231Y-90130543D01*
X145312683Y-90130543D01*
X145241528Y-90144697D01*
X145174502Y-90172460D01*
X145114179Y-90212766D01*
X145062880Y-90264065D01*
X145022574Y-90324388D01*
X144994811Y-90391414D01*
X144980657Y-90462569D01*
X142813424Y-90462569D01*
X142764778Y-90413923D01*
X142704455Y-90373617D01*
X142637429Y-90345854D01*
X142566274Y-90331700D01*
X142493726Y-90331700D01*
X142422571Y-90345854D01*
X142355545Y-90373617D01*
X142295222Y-90413923D01*
X142243923Y-90465222D01*
X142203617Y-90525545D01*
X142175854Y-90592571D01*
X142161700Y-90663726D01*
X135582660Y-90663726D01*
X135582660Y-90598546D01*
X135568506Y-90527391D01*
X135540743Y-90460365D01*
X135500437Y-90400042D01*
X135449138Y-90348743D01*
X135388815Y-90308437D01*
X135321789Y-90280674D01*
X135250634Y-90266520D01*
X135187200Y-90266520D01*
X135187200Y-90198446D01*
X135173046Y-90127291D01*
X135145283Y-90060265D01*
X135134233Y-90043726D01*
X143461702Y-90043726D01*
X143461702Y-90116274D01*
X143475856Y-90187429D01*
X143503619Y-90254455D01*
X143543925Y-90314778D01*
X143595224Y-90366077D01*
X143655547Y-90406383D01*
X143722573Y-90434146D01*
X143793728Y-90448300D01*
X143866276Y-90448300D01*
X143937431Y-90434146D01*
X144004457Y-90406383D01*
X144064780Y-90366077D01*
X144116079Y-90314778D01*
X144156385Y-90254455D01*
X144184148Y-90187429D01*
X144198302Y-90116274D01*
X144198302Y-90043726D01*
X144184148Y-89972571D01*
X144156385Y-89905545D01*
X144116079Y-89845222D01*
X144064780Y-89793923D01*
X144004457Y-89753617D01*
X143937431Y-89725854D01*
X143866276Y-89711700D01*
X143793728Y-89711700D01*
X143722573Y-89725854D01*
X143655547Y-89753617D01*
X143595224Y-89793923D01*
X143543925Y-89845222D01*
X143503619Y-89905545D01*
X143475856Y-89972571D01*
X143461702Y-90043726D01*
X135134233Y-90043726D01*
X135104977Y-89999942D01*
X135053678Y-89948643D01*
X134993355Y-89908337D01*
X134926329Y-89880574D01*
X134855174Y-89866420D01*
X134782626Y-89866420D01*
X134711471Y-89880574D01*
X134644445Y-89908337D01*
X134584122Y-89948643D01*
X134532823Y-89999942D01*
X134492517Y-90060265D01*
X134464754Y-90127291D01*
X134450600Y-90198446D01*
X131269502Y-90198446D01*
X131271660Y-90187601D01*
X131271660Y-90115053D01*
X131257506Y-90043898D01*
X131229743Y-89976872D01*
X131189437Y-89916549D01*
X131138138Y-89865250D01*
X131077815Y-89824944D01*
X131010789Y-89797181D01*
X130939634Y-89783027D01*
X130867086Y-89783027D01*
X130795931Y-89797181D01*
X130728905Y-89824944D01*
X130668582Y-89865250D01*
X130617283Y-89916549D01*
X130615500Y-89919217D01*
X130615500Y-89632454D01*
X131144660Y-89632454D01*
X131144660Y-89705002D01*
X131158814Y-89776157D01*
X131186577Y-89843183D01*
X131226883Y-89903506D01*
X131278182Y-89954805D01*
X131338505Y-89995111D01*
X131405531Y-90022874D01*
X131476686Y-90037028D01*
X131549234Y-90037028D01*
X131620389Y-90022874D01*
X131687415Y-89995111D01*
X131747738Y-89954805D01*
X131799037Y-89903506D01*
X131839343Y-89843183D01*
X131867106Y-89776157D01*
X131881260Y-89705002D01*
X131881260Y-89632454D01*
X131867106Y-89561299D01*
X131839343Y-89494273D01*
X131799037Y-89433950D01*
X131763533Y-89398446D01*
X135250600Y-89398446D01*
X135250600Y-89470994D01*
X135264754Y-89542149D01*
X135292517Y-89609175D01*
X135332823Y-89669498D01*
X135384122Y-89720797D01*
X135444445Y-89761103D01*
X135511471Y-89788866D01*
X135582626Y-89803020D01*
X135655174Y-89803020D01*
X135726329Y-89788866D01*
X135793355Y-89761103D01*
X135853678Y-89720797D01*
X135904977Y-89669498D01*
X135945283Y-89609175D01*
X135973046Y-89542149D01*
X135987200Y-89470994D01*
X135987200Y-89399666D01*
X136850120Y-89399666D01*
X136850120Y-89472214D01*
X136864274Y-89543369D01*
X136892037Y-89610395D01*
X136932343Y-89670718D01*
X136983642Y-89722017D01*
X137043965Y-89762323D01*
X137110991Y-89790086D01*
X137182146Y-89804240D01*
X137254694Y-89804240D01*
X137325849Y-89790086D01*
X137392875Y-89762323D01*
X137453198Y-89722017D01*
X137504497Y-89670718D01*
X137544803Y-89610395D01*
X137572566Y-89543369D01*
X137586720Y-89472214D01*
X137586720Y-89399666D01*
X139250420Y-89399666D01*
X139250420Y-89472214D01*
X139264574Y-89543369D01*
X139292337Y-89610395D01*
X139332643Y-89670718D01*
X139383942Y-89722017D01*
X139444265Y-89762323D01*
X139511291Y-89790086D01*
X139582446Y-89804240D01*
X139654994Y-89804240D01*
X139726149Y-89790086D01*
X139793175Y-89762323D01*
X139853498Y-89722017D01*
X139904797Y-89670718D01*
X139942877Y-89613726D01*
X142781700Y-89613726D01*
X142781700Y-89686274D01*
X142795854Y-89757429D01*
X142823617Y-89824455D01*
X142863923Y-89884778D01*
X142915222Y-89936077D01*
X142975545Y-89976383D01*
X143042571Y-90004146D01*
X143113726Y-90018300D01*
X143186274Y-90018300D01*
X143257429Y-90004146D01*
X143324455Y-89976383D01*
X143384778Y-89936077D01*
X143436077Y-89884778D01*
X143476383Y-89824455D01*
X143504146Y-89757429D01*
X143518300Y-89686274D01*
X143518300Y-89613726D01*
X143504146Y-89542571D01*
X143476383Y-89475545D01*
X143436077Y-89415222D01*
X143384778Y-89363923D01*
X143324455Y-89323617D01*
X143257429Y-89295854D01*
X143186274Y-89281700D01*
X143113726Y-89281700D01*
X143042571Y-89295854D01*
X142975545Y-89323617D01*
X142915222Y-89363923D01*
X142863923Y-89415222D01*
X142823617Y-89475545D01*
X142795854Y-89542571D01*
X142781700Y-89613726D01*
X139942877Y-89613726D01*
X139945103Y-89610395D01*
X139972866Y-89543369D01*
X139987020Y-89472214D01*
X139987020Y-89399666D01*
X139972866Y-89328511D01*
X139945103Y-89261485D01*
X139904797Y-89201162D01*
X139853498Y-89149863D01*
X139793175Y-89109557D01*
X139726149Y-89081794D01*
X139654994Y-89067640D01*
X139582446Y-89067640D01*
X139511291Y-89081794D01*
X139444265Y-89109557D01*
X139383942Y-89149863D01*
X139332643Y-89201162D01*
X139292337Y-89261485D01*
X139264574Y-89328511D01*
X139250420Y-89399666D01*
X137586720Y-89399666D01*
X137572566Y-89328511D01*
X137544803Y-89261485D01*
X137504497Y-89201162D01*
X137453198Y-89149863D01*
X137392875Y-89109557D01*
X137325849Y-89081794D01*
X137254694Y-89067640D01*
X137182146Y-89067640D01*
X137110991Y-89081794D01*
X137043965Y-89109557D01*
X136983642Y-89149863D01*
X136932343Y-89201162D01*
X136892037Y-89261485D01*
X136864274Y-89328511D01*
X136850120Y-89399666D01*
X135987200Y-89399666D01*
X135987200Y-89398446D01*
X135973046Y-89327291D01*
X135945283Y-89260265D01*
X135904977Y-89199942D01*
X135853678Y-89148643D01*
X135793355Y-89108337D01*
X135726329Y-89080574D01*
X135655174Y-89066420D01*
X135582626Y-89066420D01*
X135511471Y-89080574D01*
X135444445Y-89108337D01*
X135384122Y-89148643D01*
X135332823Y-89199942D01*
X135292517Y-89260265D01*
X135264754Y-89327291D01*
X135250600Y-89398446D01*
X131763533Y-89398446D01*
X131747738Y-89382651D01*
X131687415Y-89342345D01*
X131620389Y-89314582D01*
X131549234Y-89300428D01*
X131476686Y-89300428D01*
X131405531Y-89314582D01*
X131338505Y-89342345D01*
X131278182Y-89382651D01*
X131226883Y-89433950D01*
X131186577Y-89494273D01*
X131158814Y-89561299D01*
X131144660Y-89632454D01*
X130615500Y-89632454D01*
X130615500Y-89419115D01*
X130666042Y-89469657D01*
X130726365Y-89509963D01*
X130793391Y-89537726D01*
X130864546Y-89551880D01*
X130937094Y-89551880D01*
X131008249Y-89537726D01*
X131075275Y-89509963D01*
X131135598Y-89469657D01*
X131186897Y-89418358D01*
X131227203Y-89358035D01*
X131254966Y-89291009D01*
X131269120Y-89219854D01*
X131269120Y-89147306D01*
X131254966Y-89076151D01*
X131227203Y-89009125D01*
X131186897Y-88948802D01*
X131135598Y-88897503D01*
X131134735Y-88896926D01*
X132281560Y-88896926D01*
X132281560Y-88969474D01*
X132295714Y-89040629D01*
X132323477Y-89107655D01*
X132363783Y-89167978D01*
X132415082Y-89219277D01*
X132475405Y-89259583D01*
X132542431Y-89287346D01*
X132613586Y-89301500D01*
X132686134Y-89301500D01*
X132757289Y-89287346D01*
X132824315Y-89259583D01*
X132884638Y-89219277D01*
X132935937Y-89167978D01*
X132976243Y-89107655D01*
X133004006Y-89040629D01*
X133018160Y-88969474D01*
X133018160Y-88896926D01*
X133004006Y-88825771D01*
X132976243Y-88758745D01*
X132935937Y-88698422D01*
X132884638Y-88647123D01*
X132824315Y-88606817D01*
X132804106Y-88598446D01*
X137650600Y-88598446D01*
X137650600Y-88670994D01*
X137664754Y-88742149D01*
X137692517Y-88809175D01*
X137732823Y-88869498D01*
X137784122Y-88920797D01*
X137844445Y-88961103D01*
X137911471Y-88988866D01*
X137982626Y-89003020D01*
X138055174Y-89003020D01*
X138126329Y-88988866D01*
X138193355Y-88961103D01*
X138253678Y-88920797D01*
X138304977Y-88869498D01*
X138345283Y-88809175D01*
X138373046Y-88742149D01*
X138387200Y-88670994D01*
X138387200Y-88598446D01*
X138386918Y-88597026D01*
X139250420Y-88597026D01*
X139250420Y-88669574D01*
X139264574Y-88740729D01*
X139292337Y-88807755D01*
X139332643Y-88868078D01*
X139383942Y-88919377D01*
X139444265Y-88959683D01*
X139511291Y-88987446D01*
X139582446Y-89001600D01*
X139654994Y-89001600D01*
X139694578Y-88993726D01*
X140451700Y-88993726D01*
X140451700Y-89066274D01*
X140465854Y-89137429D01*
X140493617Y-89204455D01*
X140533923Y-89264778D01*
X140585222Y-89316077D01*
X140645545Y-89356383D01*
X140712571Y-89384146D01*
X140783726Y-89398300D01*
X140856274Y-89398300D01*
X140927429Y-89384146D01*
X140994455Y-89356383D01*
X141054778Y-89316077D01*
X141106077Y-89264778D01*
X141146383Y-89204455D01*
X141174146Y-89137429D01*
X141188300Y-89066274D01*
X141188300Y-89043726D01*
X144101700Y-89043726D01*
X144101700Y-89116274D01*
X144115854Y-89187429D01*
X144143617Y-89254455D01*
X144183923Y-89314778D01*
X144235222Y-89366077D01*
X144295545Y-89406383D01*
X144362571Y-89434146D01*
X144433726Y-89448300D01*
X144506274Y-89448300D01*
X144577429Y-89434146D01*
X144644455Y-89406383D01*
X144704778Y-89366077D01*
X144708289Y-89362566D01*
X144980660Y-89362566D01*
X144980660Y-89435114D01*
X144994814Y-89506269D01*
X145022577Y-89573295D01*
X145062883Y-89633618D01*
X145114182Y-89684917D01*
X145174505Y-89725223D01*
X145241531Y-89752986D01*
X145312686Y-89767140D01*
X145385234Y-89767140D01*
X145456389Y-89752986D01*
X145523415Y-89725223D01*
X145583738Y-89684917D01*
X145624929Y-89643726D01*
X146691700Y-89643726D01*
X146691700Y-89716274D01*
X146705854Y-89787429D01*
X146733617Y-89854455D01*
X146773923Y-89914778D01*
X146825222Y-89966077D01*
X146885545Y-90006383D01*
X146952571Y-90034146D01*
X147023726Y-90048300D01*
X147096274Y-90048300D01*
X147167429Y-90034146D01*
X147234455Y-90006383D01*
X147294778Y-89966077D01*
X147346077Y-89914778D01*
X147386383Y-89854455D01*
X147414146Y-89787429D01*
X147428300Y-89716274D01*
X147428300Y-89643726D01*
X147414146Y-89572571D01*
X147386383Y-89505545D01*
X147346077Y-89445222D01*
X147294778Y-89393923D01*
X147234455Y-89353617D01*
X147167429Y-89325854D01*
X147096274Y-89311700D01*
X147023726Y-89311700D01*
X146952571Y-89325854D01*
X146885545Y-89353617D01*
X146825222Y-89393923D01*
X146773923Y-89445222D01*
X146733617Y-89505545D01*
X146705854Y-89572571D01*
X146691700Y-89643726D01*
X145624929Y-89643726D01*
X145635037Y-89633618D01*
X145675343Y-89573295D01*
X145703106Y-89506269D01*
X145717260Y-89435114D01*
X145717260Y-89362566D01*
X145703106Y-89291411D01*
X145675343Y-89224385D01*
X145635037Y-89164062D01*
X145583738Y-89112763D01*
X145523415Y-89072457D01*
X145456389Y-89044694D01*
X145385234Y-89030540D01*
X145312686Y-89030540D01*
X145241531Y-89044694D01*
X145174505Y-89072457D01*
X145114182Y-89112763D01*
X145062883Y-89164062D01*
X145022577Y-89224385D01*
X144994814Y-89291411D01*
X144980660Y-89362566D01*
X144708289Y-89362566D01*
X144756077Y-89314778D01*
X144796383Y-89254455D01*
X144824146Y-89187429D01*
X144838300Y-89116274D01*
X144838300Y-89043726D01*
X144824146Y-88972571D01*
X144796383Y-88905545D01*
X144756077Y-88845222D01*
X144704778Y-88793923D01*
X144644455Y-88753617D01*
X144577429Y-88725854D01*
X144506274Y-88711700D01*
X144433726Y-88711700D01*
X144362571Y-88725854D01*
X144295545Y-88753617D01*
X144235222Y-88793923D01*
X144183923Y-88845222D01*
X144143617Y-88905545D01*
X144115854Y-88972571D01*
X144101700Y-89043726D01*
X141188300Y-89043726D01*
X141188300Y-88993726D01*
X141174146Y-88922571D01*
X141146383Y-88855545D01*
X141106077Y-88795222D01*
X141054778Y-88743923D01*
X140994455Y-88703617D01*
X140927429Y-88675854D01*
X140856274Y-88661700D01*
X140783726Y-88661700D01*
X140712571Y-88675854D01*
X140645545Y-88703617D01*
X140585222Y-88743923D01*
X140533923Y-88795222D01*
X140493617Y-88855545D01*
X140465854Y-88922571D01*
X140451700Y-88993726D01*
X139694578Y-88993726D01*
X139726149Y-88987446D01*
X139793175Y-88959683D01*
X139853498Y-88919377D01*
X139904797Y-88868078D01*
X139945103Y-88807755D01*
X139972866Y-88740729D01*
X139987020Y-88669574D01*
X139987020Y-88597026D01*
X139972866Y-88525871D01*
X139945103Y-88458845D01*
X139904797Y-88398522D01*
X139853498Y-88347223D01*
X139793175Y-88306917D01*
X139726149Y-88279154D01*
X139654994Y-88265000D01*
X139582446Y-88265000D01*
X139511291Y-88279154D01*
X139444265Y-88306917D01*
X139383942Y-88347223D01*
X139332643Y-88398522D01*
X139292337Y-88458845D01*
X139264574Y-88525871D01*
X139250420Y-88597026D01*
X138386918Y-88597026D01*
X138373046Y-88527291D01*
X138345283Y-88460265D01*
X138304977Y-88399942D01*
X138253678Y-88348643D01*
X138193355Y-88308337D01*
X138126329Y-88280574D01*
X138055174Y-88266420D01*
X137982626Y-88266420D01*
X137911471Y-88280574D01*
X137844445Y-88308337D01*
X137784122Y-88348643D01*
X137732823Y-88399942D01*
X137692517Y-88460265D01*
X137664754Y-88527291D01*
X137650600Y-88598446D01*
X132804106Y-88598446D01*
X132757289Y-88579054D01*
X132686134Y-88564900D01*
X132613586Y-88564900D01*
X132542431Y-88579054D01*
X132475405Y-88606817D01*
X132415082Y-88647123D01*
X132363783Y-88698422D01*
X132323477Y-88758745D01*
X132295714Y-88825771D01*
X132281560Y-88896926D01*
X131134735Y-88896926D01*
X131075275Y-88857197D01*
X131008249Y-88829434D01*
X130937094Y-88815280D01*
X130864546Y-88815280D01*
X130793391Y-88829434D01*
X130726365Y-88857197D01*
X130666042Y-88897503D01*
X130615500Y-88948045D01*
X130615500Y-87798446D01*
X134450600Y-87798446D01*
X134450600Y-87870994D01*
X134464754Y-87942149D01*
X134492517Y-88009175D01*
X134532823Y-88069498D01*
X134584122Y-88120797D01*
X134644445Y-88161103D01*
X134711471Y-88188866D01*
X134782626Y-88203020D01*
X134855174Y-88203020D01*
X134901896Y-88193726D01*
X140451700Y-88193726D01*
X140451700Y-88266274D01*
X140465854Y-88337429D01*
X140493617Y-88404455D01*
X140533923Y-88464778D01*
X140585222Y-88516077D01*
X140645545Y-88556383D01*
X140712571Y-88584146D01*
X140783726Y-88598300D01*
X140856274Y-88598300D01*
X140927429Y-88584146D01*
X140994455Y-88556383D01*
X141054778Y-88516077D01*
X141106077Y-88464778D01*
X141146383Y-88404455D01*
X141174146Y-88337429D01*
X141188300Y-88266274D01*
X141188300Y-88253726D01*
X145971700Y-88253726D01*
X145971700Y-88326274D01*
X145985854Y-88397429D01*
X146013617Y-88464455D01*
X146053923Y-88524778D01*
X146105222Y-88576077D01*
X146165545Y-88616383D01*
X146232571Y-88644146D01*
X146303726Y-88658300D01*
X146376274Y-88658300D01*
X146447429Y-88644146D01*
X146514455Y-88616383D01*
X146574778Y-88576077D01*
X146626077Y-88524778D01*
X146666383Y-88464455D01*
X146694146Y-88397429D01*
X146708300Y-88326274D01*
X146708300Y-88253726D01*
X146694146Y-88182571D01*
X146666383Y-88115545D01*
X146626077Y-88055222D01*
X146574778Y-88003923D01*
X146514455Y-87963617D01*
X146447429Y-87935854D01*
X146376274Y-87921700D01*
X146303726Y-87921700D01*
X146232571Y-87935854D01*
X146165545Y-87963617D01*
X146105222Y-88003923D01*
X146053923Y-88055222D01*
X146013617Y-88115545D01*
X145985854Y-88182571D01*
X145971700Y-88253726D01*
X141188300Y-88253726D01*
X141188300Y-88193726D01*
X141174146Y-88122571D01*
X141146383Y-88055545D01*
X141106077Y-87995222D01*
X141054778Y-87943923D01*
X140994455Y-87903617D01*
X140927429Y-87875854D01*
X140856274Y-87861700D01*
X140783726Y-87861700D01*
X140712571Y-87875854D01*
X140645545Y-87903617D01*
X140585222Y-87943923D01*
X140533923Y-87995222D01*
X140493617Y-88055545D01*
X140465854Y-88122571D01*
X140451700Y-88193726D01*
X134901896Y-88193726D01*
X134926329Y-88188866D01*
X134993355Y-88161103D01*
X135053678Y-88120797D01*
X135104977Y-88069498D01*
X135145283Y-88009175D01*
X135173046Y-87942149D01*
X135187200Y-87870994D01*
X135187200Y-87798446D01*
X135173046Y-87727291D01*
X135145283Y-87660265D01*
X135104977Y-87599942D01*
X135053678Y-87548643D01*
X134993355Y-87508337D01*
X134926329Y-87480574D01*
X134855174Y-87466420D01*
X134782626Y-87466420D01*
X134711471Y-87480574D01*
X134644445Y-87508337D01*
X134584122Y-87548643D01*
X134532823Y-87599942D01*
X134492517Y-87660265D01*
X134464754Y-87727291D01*
X134450600Y-87798446D01*
X130615500Y-87798446D01*
X130615500Y-86776565D01*
X131079739Y-86776565D01*
X131079739Y-86849113D01*
X131093893Y-86920268D01*
X131121656Y-86987294D01*
X131161962Y-87047617D01*
X131213261Y-87098916D01*
X131273584Y-87139222D01*
X131340610Y-87166985D01*
X131411765Y-87181139D01*
X131484313Y-87181139D01*
X131555468Y-87166985D01*
X131563335Y-87163726D01*
X139471700Y-87163726D01*
X139471700Y-87236274D01*
X139485854Y-87307429D01*
X139513617Y-87374455D01*
X139553923Y-87434778D01*
X139605222Y-87486077D01*
X139665545Y-87526383D01*
X139732571Y-87554146D01*
X139803726Y-87568300D01*
X139876274Y-87568300D01*
X139947429Y-87554146D01*
X140014455Y-87526383D01*
X140074778Y-87486077D01*
X140126077Y-87434778D01*
X140166383Y-87374455D01*
X140194146Y-87307429D01*
X140208300Y-87236274D01*
X140208300Y-87163726D01*
X140194146Y-87092571D01*
X140166383Y-87025545D01*
X140126077Y-86965222D01*
X140084581Y-86923726D01*
X141331700Y-86923726D01*
X141331700Y-86996274D01*
X141345854Y-87067429D01*
X141373617Y-87134455D01*
X141413923Y-87194778D01*
X141465222Y-87246077D01*
X141523475Y-87285000D01*
X141465222Y-87323923D01*
X141413923Y-87375222D01*
X141373617Y-87435545D01*
X141345854Y-87502571D01*
X141331700Y-87573726D01*
X141331700Y-87646274D01*
X141345854Y-87717429D01*
X141373617Y-87784455D01*
X141413923Y-87844778D01*
X141465222Y-87896077D01*
X141525545Y-87936383D01*
X141592571Y-87964146D01*
X141663726Y-87978300D01*
X141736274Y-87978300D01*
X141807429Y-87964146D01*
X141874455Y-87936383D01*
X141934778Y-87896077D01*
X141986077Y-87844778D01*
X142026383Y-87784455D01*
X142054146Y-87717429D01*
X142068300Y-87646274D01*
X142068300Y-87573726D01*
X142054146Y-87502571D01*
X142026383Y-87435545D01*
X141986077Y-87375222D01*
X141934778Y-87323923D01*
X141876525Y-87285000D01*
X141934778Y-87246077D01*
X141986077Y-87194778D01*
X142026383Y-87134455D01*
X142054146Y-87067429D01*
X142068300Y-86996274D01*
X142068300Y-86923726D01*
X142054146Y-86852571D01*
X142026383Y-86785545D01*
X141986077Y-86725222D01*
X141934778Y-86673923D01*
X141874455Y-86633617D01*
X141807429Y-86605854D01*
X141736274Y-86591700D01*
X141663726Y-86591700D01*
X141592571Y-86605854D01*
X141525545Y-86633617D01*
X141465222Y-86673923D01*
X141413923Y-86725222D01*
X141373617Y-86785545D01*
X141345854Y-86852571D01*
X141331700Y-86923726D01*
X140084581Y-86923726D01*
X140074778Y-86913923D01*
X140014455Y-86873617D01*
X139947429Y-86845854D01*
X139876274Y-86831700D01*
X139803726Y-86831700D01*
X139732571Y-86845854D01*
X139665545Y-86873617D01*
X139605222Y-86913923D01*
X139553923Y-86965222D01*
X139513617Y-87025545D01*
X139485854Y-87092571D01*
X139471700Y-87163726D01*
X131563335Y-87163726D01*
X131622494Y-87139222D01*
X131682817Y-87098916D01*
X131734116Y-87047617D01*
X131774422Y-86987294D01*
X131802185Y-86920268D01*
X131816339Y-86849113D01*
X131816339Y-86776565D01*
X131802185Y-86705410D01*
X131798671Y-86696926D01*
X133981560Y-86696926D01*
X133981560Y-86769474D01*
X133995714Y-86840629D01*
X134023477Y-86907655D01*
X134063783Y-86967978D01*
X134115082Y-87019277D01*
X134175405Y-87059583D01*
X134242431Y-87087346D01*
X134313586Y-87101500D01*
X134386134Y-87101500D01*
X134457289Y-87087346D01*
X134524315Y-87059583D01*
X134584638Y-87019277D01*
X134635937Y-86967978D01*
X134676243Y-86907655D01*
X134704006Y-86840629D01*
X134718160Y-86769474D01*
X134718160Y-86696926D01*
X134704006Y-86625771D01*
X134676243Y-86558745D01*
X134635937Y-86498422D01*
X134584638Y-86447123D01*
X134524315Y-86406817D01*
X134457289Y-86379054D01*
X134386134Y-86364900D01*
X134313586Y-86364900D01*
X134242431Y-86379054D01*
X134175405Y-86406817D01*
X134115082Y-86447123D01*
X134063783Y-86498422D01*
X134023477Y-86558745D01*
X133995714Y-86625771D01*
X133981560Y-86696926D01*
X131798671Y-86696926D01*
X131774422Y-86638384D01*
X131734116Y-86578061D01*
X131682817Y-86526762D01*
X131622494Y-86486456D01*
X131555468Y-86458693D01*
X131484313Y-86444539D01*
X131411765Y-86444539D01*
X131340610Y-86458693D01*
X131273584Y-86486456D01*
X131213261Y-86526762D01*
X131161962Y-86578061D01*
X131121656Y-86638384D01*
X131093893Y-86705410D01*
X131079739Y-86776565D01*
X130615500Y-86776565D01*
X130615500Y-86273726D01*
X139791700Y-86273726D01*
X139791700Y-86346274D01*
X139805854Y-86417429D01*
X139833617Y-86484455D01*
X139873923Y-86544778D01*
X139925222Y-86596077D01*
X139985545Y-86636383D01*
X140052571Y-86664146D01*
X140123726Y-86678300D01*
X140196274Y-86678300D01*
X140267429Y-86664146D01*
X140334455Y-86636383D01*
X140394778Y-86596077D01*
X140446077Y-86544778D01*
X140486383Y-86484455D01*
X140514146Y-86417429D01*
X140528300Y-86346274D01*
X140528300Y-86273726D01*
X144921700Y-86273726D01*
X144921700Y-86346274D01*
X144935854Y-86417429D01*
X144963617Y-86484455D01*
X145003923Y-86544778D01*
X145055222Y-86596077D01*
X145113475Y-86635000D01*
X145055222Y-86673923D01*
X145003923Y-86725222D01*
X144963617Y-86785545D01*
X144935854Y-86852571D01*
X144921700Y-86923726D01*
X144921700Y-86996274D01*
X144935854Y-87067429D01*
X144963617Y-87134455D01*
X145003923Y-87194778D01*
X145055222Y-87246077D01*
X145115545Y-87286383D01*
X145182571Y-87314146D01*
X145253726Y-87328300D01*
X145326274Y-87328300D01*
X145397429Y-87314146D01*
X145464455Y-87286383D01*
X145524778Y-87246077D01*
X145576077Y-87194778D01*
X145616383Y-87134455D01*
X145644146Y-87067429D01*
X145658300Y-86996274D01*
X145658300Y-86923726D01*
X145644146Y-86852571D01*
X145616383Y-86785545D01*
X145576077Y-86725222D01*
X145524778Y-86673923D01*
X145466525Y-86635000D01*
X145524778Y-86596077D01*
X145576077Y-86544778D01*
X145616383Y-86484455D01*
X145644146Y-86417429D01*
X145658300Y-86346274D01*
X145658300Y-86273726D01*
X145644146Y-86202571D01*
X145616383Y-86135545D01*
X145576077Y-86075222D01*
X145524778Y-86023923D01*
X145464455Y-85983617D01*
X145397429Y-85955854D01*
X145326274Y-85941700D01*
X145253726Y-85941700D01*
X145182571Y-85955854D01*
X145115545Y-85983617D01*
X145055222Y-86023923D01*
X145003923Y-86075222D01*
X144963617Y-86135545D01*
X144935854Y-86202571D01*
X144921700Y-86273726D01*
X140528300Y-86273726D01*
X140514146Y-86202571D01*
X140486383Y-86135545D01*
X140446077Y-86075222D01*
X140394778Y-86023923D01*
X140334455Y-85983617D01*
X140267429Y-85955854D01*
X140196274Y-85941700D01*
X140123726Y-85941700D01*
X140052571Y-85955854D01*
X139985545Y-85983617D01*
X139925222Y-86023923D01*
X139873923Y-86075222D01*
X139833617Y-86135545D01*
X139805854Y-86202571D01*
X139791700Y-86273726D01*
X130615500Y-86273726D01*
X130615500Y-85487526D01*
X133339160Y-85487526D01*
X133339160Y-85560074D01*
X133353314Y-85631229D01*
X133381077Y-85698255D01*
X133421383Y-85758578D01*
X133472682Y-85809877D01*
X133533005Y-85850183D01*
X133600031Y-85877946D01*
X133671186Y-85892100D01*
X133743734Y-85892100D01*
X133814889Y-85877946D01*
X133881915Y-85850183D01*
X133942238Y-85809877D01*
X133993537Y-85758578D01*
X134033843Y-85698255D01*
X134061606Y-85631229D01*
X134075760Y-85560074D01*
X134075760Y-85487526D01*
X134074750Y-85482446D01*
X135267022Y-85482446D01*
X135267022Y-85554994D01*
X135281176Y-85626149D01*
X135308939Y-85693175D01*
X135349245Y-85753498D01*
X135400544Y-85804797D01*
X135460867Y-85845103D01*
X135527893Y-85872866D01*
X135599048Y-85887020D01*
X135671596Y-85887020D01*
X135742751Y-85872866D01*
X135809777Y-85845103D01*
X135870100Y-85804797D01*
X135921399Y-85753498D01*
X135961705Y-85693175D01*
X135989468Y-85626149D01*
X136003622Y-85554994D01*
X136003622Y-85482446D01*
X138167700Y-85482446D01*
X138167700Y-85554994D01*
X138181854Y-85626149D01*
X138209617Y-85693175D01*
X138249923Y-85753498D01*
X138301222Y-85804797D01*
X138361545Y-85845103D01*
X138428571Y-85872866D01*
X138499726Y-85887020D01*
X138572274Y-85887020D01*
X138643429Y-85872866D01*
X138710455Y-85845103D01*
X138770778Y-85804797D01*
X138822077Y-85753498D01*
X138862383Y-85693175D01*
X138890146Y-85626149D01*
X138904300Y-85554994D01*
X138904300Y-85483726D01*
X139131700Y-85483726D01*
X139131700Y-85556274D01*
X139145854Y-85627429D01*
X139173617Y-85694455D01*
X139213923Y-85754778D01*
X139265222Y-85806077D01*
X139325545Y-85846383D01*
X139392571Y-85874146D01*
X139463726Y-85888300D01*
X139536274Y-85888300D01*
X139607429Y-85874146D01*
X139674455Y-85846383D01*
X139734778Y-85806077D01*
X139757129Y-85783726D01*
X141811700Y-85783726D01*
X141811700Y-85856274D01*
X141825854Y-85927429D01*
X141853617Y-85994455D01*
X141893923Y-86054778D01*
X141945222Y-86106077D01*
X142005545Y-86146383D01*
X142072571Y-86174146D01*
X142143726Y-86188300D01*
X142216274Y-86188300D01*
X142287429Y-86174146D01*
X142354455Y-86146383D01*
X142414778Y-86106077D01*
X142466077Y-86054778D01*
X142506383Y-85994455D01*
X142534146Y-85927429D01*
X142548300Y-85856274D01*
X142548300Y-85783726D01*
X142534146Y-85712571D01*
X142506383Y-85645545D01*
X142466077Y-85585222D01*
X142414778Y-85533923D01*
X142354455Y-85493617D01*
X142287429Y-85465854D01*
X142226460Y-85453726D01*
X142801700Y-85453726D01*
X142801700Y-85526274D01*
X142815854Y-85597429D01*
X142843617Y-85664455D01*
X142883923Y-85724778D01*
X142935222Y-85776077D01*
X142995545Y-85816383D01*
X143062571Y-85844146D01*
X143133726Y-85858300D01*
X143206274Y-85858300D01*
X143277429Y-85844146D01*
X143344455Y-85816383D01*
X143404778Y-85776077D01*
X143456077Y-85724778D01*
X143495000Y-85666525D01*
X143533923Y-85724778D01*
X143585222Y-85776077D01*
X143645545Y-85816383D01*
X143712571Y-85844146D01*
X143783726Y-85858300D01*
X143856274Y-85858300D01*
X143927429Y-85844146D01*
X143994455Y-85816383D01*
X144054778Y-85776077D01*
X144106077Y-85724778D01*
X144146383Y-85664455D01*
X144174146Y-85597429D01*
X144188300Y-85526274D01*
X144188300Y-85453726D01*
X144174146Y-85382571D01*
X144146383Y-85315545D01*
X144106077Y-85255222D01*
X144054778Y-85203923D01*
X143994455Y-85163617D01*
X143927429Y-85135854D01*
X143856274Y-85121700D01*
X143783726Y-85121700D01*
X143712571Y-85135854D01*
X143645545Y-85163617D01*
X143585222Y-85203923D01*
X143533923Y-85255222D01*
X143495000Y-85313475D01*
X143456077Y-85255222D01*
X143404778Y-85203923D01*
X143344455Y-85163617D01*
X143277429Y-85135854D01*
X143206274Y-85121700D01*
X143133726Y-85121700D01*
X143062571Y-85135854D01*
X142995545Y-85163617D01*
X142935222Y-85203923D01*
X142883923Y-85255222D01*
X142843617Y-85315545D01*
X142815854Y-85382571D01*
X142801700Y-85453726D01*
X142226460Y-85453726D01*
X142216274Y-85451700D01*
X142143726Y-85451700D01*
X142072571Y-85465854D01*
X142005545Y-85493617D01*
X141945222Y-85533923D01*
X141893923Y-85585222D01*
X141853617Y-85645545D01*
X141825854Y-85712571D01*
X141811700Y-85783726D01*
X139757129Y-85783726D01*
X139786077Y-85754778D01*
X139826383Y-85694455D01*
X139854146Y-85627429D01*
X139868300Y-85556274D01*
X139868300Y-85483726D01*
X139854146Y-85412571D01*
X139826383Y-85345545D01*
X139786077Y-85285222D01*
X139734778Y-85233923D01*
X139674455Y-85193617D01*
X139607429Y-85165854D01*
X139536274Y-85151700D01*
X139463726Y-85151700D01*
X139392571Y-85165854D01*
X139325545Y-85193617D01*
X139265222Y-85233923D01*
X139213923Y-85285222D01*
X139173617Y-85345545D01*
X139145854Y-85412571D01*
X139131700Y-85483726D01*
X138904300Y-85483726D01*
X138904300Y-85482446D01*
X138890146Y-85411291D01*
X138862383Y-85344265D01*
X138822077Y-85283942D01*
X138770778Y-85232643D01*
X138710455Y-85192337D01*
X138643429Y-85164574D01*
X138572274Y-85150420D01*
X138499726Y-85150420D01*
X138428571Y-85164574D01*
X138361545Y-85192337D01*
X138301222Y-85232643D01*
X138249923Y-85283942D01*
X138209617Y-85344265D01*
X138181854Y-85411291D01*
X138167700Y-85482446D01*
X136003622Y-85482446D01*
X135989468Y-85411291D01*
X135961705Y-85344265D01*
X135921399Y-85283942D01*
X135870100Y-85232643D01*
X135809777Y-85192337D01*
X135742751Y-85164574D01*
X135671596Y-85150420D01*
X135599048Y-85150420D01*
X135527893Y-85164574D01*
X135460867Y-85192337D01*
X135400544Y-85232643D01*
X135349245Y-85283942D01*
X135308939Y-85344265D01*
X135281176Y-85411291D01*
X135267022Y-85482446D01*
X134074750Y-85482446D01*
X134061606Y-85416371D01*
X134033843Y-85349345D01*
X133993537Y-85289022D01*
X133942238Y-85237723D01*
X133881915Y-85197417D01*
X133814889Y-85169654D01*
X133743734Y-85155500D01*
X133671186Y-85155500D01*
X133600031Y-85169654D01*
X133533005Y-85197417D01*
X133472682Y-85237723D01*
X133421383Y-85289022D01*
X133381077Y-85349345D01*
X133353314Y-85416371D01*
X133339160Y-85487526D01*
X130615500Y-85487526D01*
X130615500Y-85043726D01*
X131061700Y-85043726D01*
X131061700Y-85116274D01*
X131075854Y-85187429D01*
X131103617Y-85254455D01*
X131143923Y-85314778D01*
X131195222Y-85366077D01*
X131255545Y-85406383D01*
X131322571Y-85434146D01*
X131393726Y-85448300D01*
X131466274Y-85448300D01*
X131537429Y-85434146D01*
X131604455Y-85406383D01*
X131664778Y-85366077D01*
X131716077Y-85314778D01*
X131756383Y-85254455D01*
X131784146Y-85187429D01*
X131798300Y-85116274D01*
X131798300Y-85043726D01*
X131784146Y-84972571D01*
X131756383Y-84905545D01*
X131716077Y-84845222D01*
X131664778Y-84793923D01*
X131604455Y-84753617D01*
X131537429Y-84725854D01*
X131466274Y-84711700D01*
X131393726Y-84711700D01*
X131322571Y-84725854D01*
X131255545Y-84753617D01*
X131195222Y-84793923D01*
X131143923Y-84845222D01*
X131103617Y-84905545D01*
X131075854Y-84972571D01*
X131061700Y-85043726D01*
X130615500Y-85043726D01*
X130615500Y-84615500D01*
X133964035Y-84615500D01*
X133952746Y-84623043D01*
M02*
