G04 #@! TF.GenerationSoftware,KiCad,Pcbnew,(5.1.0)-1*
G04 #@! TF.CreationDate,2019-09-18T16:06:36-07:00*
G04 #@! TF.ProjectId,WireFreeV4_Release,57697265-4672-4656-9556-345f52656c65,rev?*
G04 #@! TF.SameCoordinates,Original*
G04 #@! TF.FileFunction,Legend,Bot*
G04 #@! TF.FilePolarity,Positive*
%FSLAX46Y46*%
G04 Gerber Fmt 4.6, Leading zero omitted, Abs format (unit mm)*
G04 Created by KiCad (PCBNEW (5.1.0)-1) date 2019-09-18 16:06:36*
%MOMM*%
%LPD*%
G04 APERTURE LIST*
%ADD10C,0.120000*%
%ADD11C,0.100000*%
%ADD12C,0.150000*%
%ADD13C,0.090000*%
%ADD14C,0.200000*%
%ADD15C,0.050000*%
G04 APERTURE END LIST*
D10*
X122679460Y-100838000D02*
X123162060Y-100838000D01*
D11*
X130138700Y-90430580D02*
X129728700Y-90430580D01*
X130138700Y-89030580D02*
X129728700Y-89030580D01*
D12*
X134263920Y-88974800D02*
X133763920Y-88974800D01*
X133763920Y-91974800D02*
X134263920Y-91974800D01*
X132013060Y-100601600D02*
X132013060Y-98772800D01*
X133511660Y-100601600D02*
X132013060Y-100601600D01*
D11*
X123075380Y-96911380D02*
X123835380Y-96911380D01*
X123835380Y-96911380D02*
X123835380Y-96151380D01*
X120495380Y-96911380D02*
X119735380Y-96911380D01*
X119735380Y-96911380D02*
X119735380Y-96151380D01*
X120495380Y-92811380D02*
X119735380Y-92811380D01*
X119735380Y-92811380D02*
X119735380Y-93571380D01*
X123075380Y-92811380D02*
X123835380Y-92811380D01*
X123835380Y-92811380D02*
X123835380Y-93571380D01*
X128774860Y-90707880D02*
X128774860Y-90977880D01*
X131874860Y-90707880D02*
X128774860Y-90707880D01*
X131874860Y-90977880D02*
X131874860Y-90707880D01*
X128774860Y-93807880D02*
X128774860Y-93537880D01*
X131874860Y-93807880D02*
X128774860Y-93807880D01*
X131874860Y-93537880D02*
X131874860Y-93807880D01*
D12*
X134276620Y-92700980D02*
X133776620Y-92700980D01*
X133776620Y-95700980D02*
X134276620Y-95700980D01*
D11*
X124847580Y-98907920D02*
X124847580Y-99317920D01*
X123447580Y-98907920D02*
X123447580Y-99317920D01*
X131066220Y-95792520D02*
X130656220Y-95792520D01*
X131066220Y-94392520D02*
X130656220Y-94392520D01*
X127961620Y-91062700D02*
X127961620Y-91472700D01*
X126561620Y-91062700D02*
X126561620Y-91472700D01*
D13*
X130269493Y-88110971D02*
X130313302Y-88154780D01*
X130444731Y-88198590D01*
X130532350Y-88198590D01*
X130663779Y-88154780D01*
X130751398Y-88067161D01*
X130795207Y-87979542D01*
X130839017Y-87804304D01*
X130839017Y-87672876D01*
X130795207Y-87497638D01*
X130751398Y-87410019D01*
X130663779Y-87322400D01*
X130532350Y-87278590D01*
X130444731Y-87278590D01*
X130313302Y-87322400D01*
X130269493Y-87366209D01*
X129962826Y-87278590D02*
X129393302Y-87278590D01*
X129699969Y-87629066D01*
X129568540Y-87629066D01*
X129480921Y-87672876D01*
X129437112Y-87716685D01*
X129393302Y-87804304D01*
X129393302Y-88023352D01*
X129437112Y-88110971D01*
X129480921Y-88154780D01*
X129568540Y-88198590D01*
X129831398Y-88198590D01*
X129919017Y-88154780D01*
X129962826Y-88110971D01*
D12*
X137272746Y-91257380D02*
X137748937Y-91257380D01*
X137748937Y-90257380D01*
X136987032Y-90352619D02*
X136939413Y-90305000D01*
X136844175Y-90257380D01*
X136606080Y-90257380D01*
X136510841Y-90305000D01*
X136463222Y-90352619D01*
X136415603Y-90447857D01*
X136415603Y-90543095D01*
X136463222Y-90685952D01*
X137034651Y-91257380D01*
X136415603Y-91257380D01*
D14*
X137451840Y-97391159D02*
X138404221Y-97391159D01*
X136404221Y-96724492D02*
X137451840Y-97391159D01*
X136404221Y-98057825D01*
X138404221Y-99772111D02*
X138404221Y-98629254D01*
X138404221Y-99200682D02*
X136404221Y-99200682D01*
X136689936Y-99010206D01*
X136880412Y-98819730D01*
X136975650Y-98629254D01*
X123555569Y-101228661D02*
X123555569Y-102847709D01*
X123460331Y-103038185D01*
X123365093Y-103133423D01*
X123174617Y-103228661D01*
X122793664Y-103228661D01*
X122603188Y-103133423D01*
X122507950Y-103038185D01*
X122412712Y-102847709D01*
X122412712Y-101228661D01*
X121555569Y-101419138D02*
X121460331Y-101323900D01*
X121269855Y-101228661D01*
X120793664Y-101228661D01*
X120603188Y-101323900D01*
X120507950Y-101419138D01*
X120412712Y-101609614D01*
X120412712Y-101800090D01*
X120507950Y-102085804D01*
X121650807Y-103228661D01*
X120412712Y-103228661D01*
D11*
X131272184Y-87366860D02*
X131272184Y-88176384D01*
X131224565Y-88271622D01*
X131176946Y-88319241D01*
X131081708Y-88366860D01*
X130891232Y-88366860D01*
X130795994Y-88319241D01*
X130748375Y-88271622D01*
X130700756Y-88176384D01*
X130700756Y-87366860D01*
X129700756Y-88366860D02*
X130272184Y-88366860D01*
X129986470Y-88366860D02*
X129986470Y-87366860D01*
X130081708Y-87509718D01*
X130176946Y-87604956D01*
X130272184Y-87652575D01*
D15*
X119765593Y-88295610D02*
X119932260Y-88057515D01*
X120051307Y-88295610D02*
X120051307Y-87795610D01*
X119860831Y-87795610D01*
X119813212Y-87819420D01*
X119789402Y-87843229D01*
X119765593Y-87890848D01*
X119765593Y-87962277D01*
X119789402Y-88009896D01*
X119813212Y-88033705D01*
X119860831Y-88057515D01*
X120051307Y-88057515D01*
X119337021Y-87962277D02*
X119337021Y-88295610D01*
X119456069Y-87771800D02*
X119575117Y-88128943D01*
X119265593Y-88128943D01*
X119837053Y-88399750D02*
X120003720Y-88161655D01*
X120122767Y-88399750D02*
X120122767Y-87899750D01*
X119932291Y-87899750D01*
X119884672Y-87923560D01*
X119860862Y-87947369D01*
X119837053Y-87994988D01*
X119837053Y-88066417D01*
X119860862Y-88114036D01*
X119884672Y-88137845D01*
X119932291Y-88161655D01*
X120122767Y-88161655D01*
X119670386Y-87899750D02*
X119360862Y-87899750D01*
X119527529Y-88090226D01*
X119456100Y-88090226D01*
X119408481Y-88114036D01*
X119384672Y-88137845D01*
X119360862Y-88185464D01*
X119360862Y-88304512D01*
X119384672Y-88352131D01*
X119408481Y-88375940D01*
X119456100Y-88399750D01*
X119598958Y-88399750D01*
X119646577Y-88375940D01*
X119670386Y-88352131D01*
X129250570Y-101328706D02*
X129012475Y-101162040D01*
X129250570Y-101042992D02*
X128750570Y-101042992D01*
X128750570Y-101233468D01*
X128774380Y-101281087D01*
X128798189Y-101304897D01*
X128845808Y-101328706D01*
X128917237Y-101328706D01*
X128964856Y-101304897D01*
X128988665Y-101281087D01*
X129012475Y-101233468D01*
X129012475Y-101042992D01*
X128798189Y-101519182D02*
X128774380Y-101542992D01*
X128750570Y-101590611D01*
X128750570Y-101709659D01*
X128774380Y-101757278D01*
X128798189Y-101781087D01*
X128845808Y-101804897D01*
X128893427Y-101804897D01*
X128964856Y-101781087D01*
X129250570Y-101495373D01*
X129250570Y-101804897D01*
X127965330Y-101292806D02*
X127727235Y-101126140D01*
X127965330Y-101007092D02*
X127465330Y-101007092D01*
X127465330Y-101197568D01*
X127489140Y-101245187D01*
X127512949Y-101268997D01*
X127560568Y-101292806D01*
X127631997Y-101292806D01*
X127679616Y-101268997D01*
X127703425Y-101245187D01*
X127727235Y-101197568D01*
X127727235Y-101007092D01*
X127965330Y-101768997D02*
X127965330Y-101483282D01*
X127965330Y-101626140D02*
X127465330Y-101626140D01*
X127536759Y-101578520D01*
X127584378Y-101530901D01*
X127608187Y-101483282D01*
X130676166Y-100283298D02*
X130923785Y-100283298D01*
X130923785Y-99763298D01*
X130279976Y-99936631D02*
X130279976Y-100283298D01*
X130403785Y-99738536D02*
X130527595Y-100109964D01*
X130205690Y-100109964D01*
X126575646Y-101647278D02*
X126823265Y-101647278D01*
X126823265Y-101127278D01*
X126451837Y-101127278D02*
X126129932Y-101127278D01*
X126303265Y-101325373D01*
X126228980Y-101325373D01*
X126179456Y-101350135D01*
X126154694Y-101374897D01*
X126129932Y-101424420D01*
X126129932Y-101548230D01*
X126154694Y-101597754D01*
X126179456Y-101622516D01*
X126228980Y-101647278D01*
X126377551Y-101647278D01*
X126427075Y-101622516D01*
X126451837Y-101597754D01*
D12*
X136948206Y-96055440D02*
X137424397Y-96055440D01*
X137424397Y-95055440D01*
X136091063Y-96055440D02*
X136662492Y-96055440D01*
X136376778Y-96055440D02*
X136376778Y-95055440D01*
X136472016Y-95198298D01*
X136567254Y-95293536D01*
X136662492Y-95341155D01*
X123725203Y-87275420D02*
X123725203Y-87989706D01*
X123772822Y-88132563D01*
X123868060Y-88227801D01*
X124010918Y-88275420D01*
X124106156Y-88275420D01*
X122725203Y-88275420D02*
X123296632Y-88275420D01*
X123010918Y-88275420D02*
X123010918Y-87275420D01*
X123106156Y-87418278D01*
X123201394Y-87513516D01*
X123296632Y-87561135D01*
X122391870Y-87275420D02*
X121772822Y-87275420D01*
X122106156Y-87656373D01*
X121963299Y-87656373D01*
X121868060Y-87703992D01*
X121820441Y-87751611D01*
X121772822Y-87846849D01*
X121772822Y-88084944D01*
X121820441Y-88180182D01*
X121868060Y-88227801D01*
X121963299Y-88275420D01*
X122249013Y-88275420D01*
X122344251Y-88227801D01*
X122391870Y-88180182D01*
X122147863Y-87115400D02*
X122147863Y-87829686D01*
X122195482Y-87972543D01*
X122290720Y-88067781D01*
X122433578Y-88115400D01*
X122528816Y-88115400D01*
X121147863Y-88115400D02*
X121719292Y-88115400D01*
X121433578Y-88115400D02*
X121433578Y-87115400D01*
X121528816Y-87258258D01*
X121624054Y-87353496D01*
X121719292Y-87401115D01*
X120766911Y-87210639D02*
X120719292Y-87163020D01*
X120624054Y-87115400D01*
X120385959Y-87115400D01*
X120290720Y-87163020D01*
X120243101Y-87210639D01*
X120195482Y-87305877D01*
X120195482Y-87401115D01*
X120243101Y-87543972D01*
X120814530Y-88115400D01*
X120195482Y-88115400D01*
X122051343Y-87130640D02*
X122051343Y-87844926D01*
X122098962Y-87987783D01*
X122194200Y-88083021D01*
X122337058Y-88130640D01*
X122432296Y-88130640D01*
X121051343Y-88130640D02*
X121622772Y-88130640D01*
X121337058Y-88130640D02*
X121337058Y-87130640D01*
X121432296Y-87273498D01*
X121527534Y-87368736D01*
X121622772Y-87416355D01*
X120098962Y-88130640D02*
X120670391Y-88130640D01*
X120384677Y-88130640D02*
X120384677Y-87130640D01*
X120479915Y-87273498D01*
X120575153Y-87368736D01*
X120670391Y-87416355D01*
X123565183Y-87051900D02*
X123565183Y-87766186D01*
X123612802Y-87909043D01*
X123708040Y-88004281D01*
X123850898Y-88051900D01*
X123946136Y-88051900D01*
X122565183Y-88051900D02*
X123136612Y-88051900D01*
X122850898Y-88051900D02*
X122850898Y-87051900D01*
X122946136Y-87194758D01*
X123041374Y-87289996D01*
X123136612Y-87337615D01*
X121946136Y-87051900D02*
X121850898Y-87051900D01*
X121755660Y-87099520D01*
X121708040Y-87147139D01*
X121660421Y-87242377D01*
X121612802Y-87432853D01*
X121612802Y-87670948D01*
X121660421Y-87861424D01*
X121708040Y-87956662D01*
X121755660Y-88004281D01*
X121850898Y-88051900D01*
X121946136Y-88051900D01*
X122041374Y-88004281D01*
X122088993Y-87956662D01*
X122136612Y-87861424D01*
X122184231Y-87670948D01*
X122184231Y-87432853D01*
X122136612Y-87242377D01*
X122088993Y-87147139D01*
X122041374Y-87099520D01*
X121946136Y-87051900D01*
X115746280Y-92823706D02*
X116460566Y-92823706D01*
X116603423Y-92776087D01*
X116698661Y-92680849D01*
X116746280Y-92537992D01*
X116746280Y-92442754D01*
X115746280Y-93204659D02*
X115746280Y-93823706D01*
X116127233Y-93490373D01*
X116127233Y-93633230D01*
X116174852Y-93728468D01*
X116222471Y-93776087D01*
X116317709Y-93823706D01*
X116555804Y-93823706D01*
X116651042Y-93776087D01*
X116698661Y-93728468D01*
X116746280Y-93633230D01*
X116746280Y-93347516D01*
X116698661Y-93252278D01*
X116651042Y-93204659D01*
D13*
X124615851Y-101559331D02*
X124659660Y-101515521D01*
X124703470Y-101384093D01*
X124703470Y-101296474D01*
X124659660Y-101165045D01*
X124572041Y-101077426D01*
X124484422Y-101033617D01*
X124309184Y-100989807D01*
X124177756Y-100989807D01*
X124002518Y-101033617D01*
X123914899Y-101077426D01*
X123827280Y-101165045D01*
X123783470Y-101296474D01*
X123783470Y-101384093D01*
X123827280Y-101515521D01*
X123871089Y-101559331D01*
X123871089Y-101909807D02*
X123827280Y-101953617D01*
X123783470Y-102041236D01*
X123783470Y-102260283D01*
X123827280Y-102347902D01*
X123871089Y-102391712D01*
X123958708Y-102435521D01*
X124046327Y-102435521D01*
X124177756Y-102391712D01*
X124703470Y-101865998D01*
X124703470Y-102435521D01*
X124703470Y-103311712D02*
X124703470Y-102785998D01*
X124703470Y-103048855D02*
X123783470Y-103048855D01*
X123914899Y-102961236D01*
X124002518Y-102873617D01*
X124046327Y-102785998D01*
D15*
X129134371Y-101383391D02*
X129158180Y-101359581D01*
X129181990Y-101288153D01*
X129181990Y-101240534D01*
X129158180Y-101169105D01*
X129110561Y-101121486D01*
X129062942Y-101097677D01*
X128967704Y-101073867D01*
X128896276Y-101073867D01*
X128801038Y-101097677D01*
X128753419Y-101121486D01*
X128705800Y-101169105D01*
X128681990Y-101240534D01*
X128681990Y-101288153D01*
X128705800Y-101359581D01*
X128729609Y-101383391D01*
X128729609Y-101573867D02*
X128705800Y-101597677D01*
X128681990Y-101645296D01*
X128681990Y-101764343D01*
X128705800Y-101811962D01*
X128729609Y-101835772D01*
X128777228Y-101859581D01*
X128824847Y-101859581D01*
X128896276Y-101835772D01*
X129181990Y-101550058D01*
X129181990Y-101859581D01*
X128681990Y-102169105D02*
X128681990Y-102216724D01*
X128705800Y-102264343D01*
X128729609Y-102288153D01*
X128777228Y-102311962D01*
X128872466Y-102335772D01*
X128991514Y-102335772D01*
X129086752Y-102311962D01*
X129134371Y-102288153D01*
X129158180Y-102264343D01*
X129181990Y-102216724D01*
X129181990Y-102169105D01*
X129158180Y-102121486D01*
X129134371Y-102097677D01*
X129086752Y-102073867D01*
X128991514Y-102050058D01*
X128872466Y-102050058D01*
X128777228Y-102073867D01*
X128729609Y-102097677D01*
X128705800Y-102121486D01*
X128681990Y-102169105D01*
X128425711Y-101337671D02*
X128449520Y-101313861D01*
X128473330Y-101242433D01*
X128473330Y-101194814D01*
X128449520Y-101123385D01*
X128401901Y-101075766D01*
X128354282Y-101051957D01*
X128259044Y-101028147D01*
X128187616Y-101028147D01*
X128092378Y-101051957D01*
X128044759Y-101075766D01*
X127997140Y-101123385D01*
X127973330Y-101194814D01*
X127973330Y-101242433D01*
X127997140Y-101313861D01*
X128020949Y-101337671D01*
X128473330Y-101813861D02*
X128473330Y-101528147D01*
X128473330Y-101671004D02*
X127973330Y-101671004D01*
X128044759Y-101623385D01*
X128092378Y-101575766D01*
X128116187Y-101528147D01*
X128473330Y-102051957D02*
X128473330Y-102147195D01*
X128449520Y-102194814D01*
X128425711Y-102218623D01*
X128354282Y-102266242D01*
X128259044Y-102290052D01*
X128068568Y-102290052D01*
X128020949Y-102266242D01*
X127997140Y-102242433D01*
X127973330Y-102194814D01*
X127973330Y-102099576D01*
X127997140Y-102051957D01*
X128020949Y-102028147D01*
X128068568Y-102004338D01*
X128187616Y-102004338D01*
X128235235Y-102028147D01*
X128259044Y-102051957D01*
X128282854Y-102099576D01*
X128282854Y-102194814D01*
X128259044Y-102242433D01*
X128235235Y-102266242D01*
X128187616Y-102290052D01*
X128956508Y-101367091D02*
X128980318Y-101390900D01*
X129051746Y-101414710D01*
X129099365Y-101414710D01*
X129170794Y-101390900D01*
X129218413Y-101343281D01*
X129242222Y-101295662D01*
X129266032Y-101200424D01*
X129266032Y-101128996D01*
X129242222Y-101033758D01*
X129218413Y-100986139D01*
X129170794Y-100938520D01*
X129099365Y-100914710D01*
X129051746Y-100914710D01*
X128980318Y-100938520D01*
X128956508Y-100962329D01*
X128480318Y-101414710D02*
X128766032Y-101414710D01*
X128623175Y-101414710D02*
X128623175Y-100914710D01*
X128670794Y-100986139D01*
X128718413Y-101033758D01*
X128766032Y-101057567D01*
X128194603Y-101128996D02*
X128242222Y-101105186D01*
X128266032Y-101081377D01*
X128289841Y-101033758D01*
X128289841Y-101009948D01*
X128266032Y-100962329D01*
X128242222Y-100938520D01*
X128194603Y-100914710D01*
X128099365Y-100914710D01*
X128051746Y-100938520D01*
X128027937Y-100962329D01*
X128004127Y-101009948D01*
X128004127Y-101033758D01*
X128027937Y-101081377D01*
X128051746Y-101105186D01*
X128099365Y-101128996D01*
X128194603Y-101128996D01*
X128242222Y-101152805D01*
X128266032Y-101176615D01*
X128289841Y-101224234D01*
X128289841Y-101319472D01*
X128266032Y-101367091D01*
X128242222Y-101390900D01*
X128194603Y-101414710D01*
X128099365Y-101414710D01*
X128051746Y-101390900D01*
X128027937Y-101367091D01*
X128004127Y-101319472D01*
X128004127Y-101224234D01*
X128027937Y-101176615D01*
X128051746Y-101152805D01*
X128099365Y-101128996D01*
X128207271Y-92888951D02*
X128231080Y-92865141D01*
X128254890Y-92793713D01*
X128254890Y-92746094D01*
X128231080Y-92674665D01*
X128183461Y-92627046D01*
X128135842Y-92603237D01*
X128040604Y-92579427D01*
X127969176Y-92579427D01*
X127873938Y-92603237D01*
X127826319Y-92627046D01*
X127778700Y-92674665D01*
X127754890Y-92746094D01*
X127754890Y-92793713D01*
X127778700Y-92865141D01*
X127802509Y-92888951D01*
X128254890Y-93365141D02*
X128254890Y-93079427D01*
X128254890Y-93222284D02*
X127754890Y-93222284D01*
X127826319Y-93174665D01*
X127873938Y-93127046D01*
X127897747Y-93079427D01*
X127754890Y-93531808D02*
X127754890Y-93865141D01*
X128254890Y-93650856D01*
X130346568Y-101491551D02*
X130370378Y-101515360D01*
X130441806Y-101539170D01*
X130489425Y-101539170D01*
X130560854Y-101515360D01*
X130608473Y-101467741D01*
X130632282Y-101420122D01*
X130656092Y-101324884D01*
X130656092Y-101253456D01*
X130632282Y-101158218D01*
X130608473Y-101110599D01*
X130560854Y-101062980D01*
X130489425Y-101039170D01*
X130441806Y-101039170D01*
X130370378Y-101062980D01*
X130346568Y-101086789D01*
X129870378Y-101539170D02*
X130156092Y-101539170D01*
X130013235Y-101539170D02*
X130013235Y-101039170D01*
X130060854Y-101110599D01*
X130108473Y-101158218D01*
X130156092Y-101182027D01*
X129441806Y-101039170D02*
X129537044Y-101039170D01*
X129584663Y-101062980D01*
X129608473Y-101086789D01*
X129656092Y-101158218D01*
X129679901Y-101253456D01*
X129679901Y-101443932D01*
X129656092Y-101491551D01*
X129632282Y-101515360D01*
X129584663Y-101539170D01*
X129489425Y-101539170D01*
X129441806Y-101515360D01*
X129417997Y-101491551D01*
X129394187Y-101443932D01*
X129394187Y-101324884D01*
X129417997Y-101277265D01*
X129441806Y-101253456D01*
X129489425Y-101229646D01*
X129584663Y-101229646D01*
X129632282Y-101253456D01*
X129656092Y-101277265D01*
X129679901Y-101324884D01*
X126779791Y-95027631D02*
X126803600Y-95003821D01*
X126827410Y-94932393D01*
X126827410Y-94884774D01*
X126803600Y-94813345D01*
X126755981Y-94765726D01*
X126708362Y-94741917D01*
X126613124Y-94718107D01*
X126541696Y-94718107D01*
X126446458Y-94741917D01*
X126398839Y-94765726D01*
X126351220Y-94813345D01*
X126327410Y-94884774D01*
X126327410Y-94932393D01*
X126351220Y-95003821D01*
X126375029Y-95027631D01*
X126827410Y-95503821D02*
X126827410Y-95218107D01*
X126827410Y-95360964D02*
X126327410Y-95360964D01*
X126398839Y-95313345D01*
X126446458Y-95265726D01*
X126470267Y-95218107D01*
X126327410Y-95956202D02*
X126327410Y-95718107D01*
X126565505Y-95694298D01*
X126541696Y-95718107D01*
X126517886Y-95765726D01*
X126517886Y-95884774D01*
X126541696Y-95932393D01*
X126565505Y-95956202D01*
X126613124Y-95980012D01*
X126732172Y-95980012D01*
X126779791Y-95956202D01*
X126803600Y-95932393D01*
X126827410Y-95884774D01*
X126827410Y-95765726D01*
X126803600Y-95718107D01*
X126779791Y-95694298D01*
X128621291Y-99635871D02*
X128645100Y-99612061D01*
X128668910Y-99540633D01*
X128668910Y-99493014D01*
X128645100Y-99421585D01*
X128597481Y-99373966D01*
X128549862Y-99350157D01*
X128454624Y-99326347D01*
X128383196Y-99326347D01*
X128287958Y-99350157D01*
X128240339Y-99373966D01*
X128192720Y-99421585D01*
X128168910Y-99493014D01*
X128168910Y-99540633D01*
X128192720Y-99612061D01*
X128216529Y-99635871D01*
X128668910Y-100112061D02*
X128668910Y-99826347D01*
X128668910Y-99969204D02*
X128168910Y-99969204D01*
X128240339Y-99921585D01*
X128287958Y-99873966D01*
X128311767Y-99826347D01*
X128335577Y-100540633D02*
X128668910Y-100540633D01*
X128145100Y-100421585D02*
X128502243Y-100302538D01*
X128502243Y-100612061D01*
X127714511Y-101335131D02*
X127738320Y-101311321D01*
X127762130Y-101239893D01*
X127762130Y-101192274D01*
X127738320Y-101120845D01*
X127690701Y-101073226D01*
X127643082Y-101049417D01*
X127547844Y-101025607D01*
X127476416Y-101025607D01*
X127381178Y-101049417D01*
X127333559Y-101073226D01*
X127285940Y-101120845D01*
X127262130Y-101192274D01*
X127262130Y-101239893D01*
X127285940Y-101311321D01*
X127309749Y-101335131D01*
X127762130Y-101811321D02*
X127762130Y-101525607D01*
X127762130Y-101668464D02*
X127262130Y-101668464D01*
X127333559Y-101620845D01*
X127381178Y-101573226D01*
X127404987Y-101525607D01*
X127262130Y-101977988D02*
X127262130Y-102287512D01*
X127452606Y-102120845D01*
X127452606Y-102192274D01*
X127476416Y-102239893D01*
X127500225Y-102263702D01*
X127547844Y-102287512D01*
X127666892Y-102287512D01*
X127714511Y-102263702D01*
X127738320Y-102239893D01*
X127762130Y-102192274D01*
X127762130Y-102049417D01*
X127738320Y-102001798D01*
X127714511Y-101977988D01*
X131199391Y-92845771D02*
X131223200Y-92821961D01*
X131247010Y-92750533D01*
X131247010Y-92702914D01*
X131223200Y-92631485D01*
X131175581Y-92583866D01*
X131127962Y-92560057D01*
X131032724Y-92536247D01*
X130961296Y-92536247D01*
X130866058Y-92560057D01*
X130818439Y-92583866D01*
X130770820Y-92631485D01*
X130747010Y-92702914D01*
X130747010Y-92750533D01*
X130770820Y-92821961D01*
X130794629Y-92845771D01*
X131247010Y-93321961D02*
X131247010Y-93036247D01*
X131247010Y-93179104D02*
X130747010Y-93179104D01*
X130818439Y-93131485D01*
X130866058Y-93083866D01*
X130889867Y-93036247D01*
X130794629Y-93512438D02*
X130770820Y-93536247D01*
X130747010Y-93583866D01*
X130747010Y-93702914D01*
X130770820Y-93750533D01*
X130794629Y-93774342D01*
X130842248Y-93798152D01*
X130889867Y-93798152D01*
X130961296Y-93774342D01*
X131247010Y-93488628D01*
X131247010Y-93798152D01*
X126485768Y-98893131D02*
X126509578Y-98916940D01*
X126581006Y-98940750D01*
X126628625Y-98940750D01*
X126700054Y-98916940D01*
X126747673Y-98869321D01*
X126771482Y-98821702D01*
X126795292Y-98726464D01*
X126795292Y-98655036D01*
X126771482Y-98559798D01*
X126747673Y-98512179D01*
X126700054Y-98464560D01*
X126628625Y-98440750D01*
X126581006Y-98440750D01*
X126509578Y-98464560D01*
X126485768Y-98488369D01*
X126009578Y-98940750D02*
X126295292Y-98940750D01*
X126152435Y-98940750D02*
X126152435Y-98440750D01*
X126200054Y-98512179D01*
X126247673Y-98559798D01*
X126295292Y-98583607D01*
X125533387Y-98940750D02*
X125819101Y-98940750D01*
X125676244Y-98940750D02*
X125676244Y-98440750D01*
X125723863Y-98512179D01*
X125771482Y-98559798D01*
X125819101Y-98583607D01*
X128989591Y-101416411D02*
X129013400Y-101392601D01*
X129037210Y-101321173D01*
X129037210Y-101273554D01*
X129013400Y-101202125D01*
X128965781Y-101154506D01*
X128918162Y-101130697D01*
X128822924Y-101106887D01*
X128751496Y-101106887D01*
X128656258Y-101130697D01*
X128608639Y-101154506D01*
X128561020Y-101202125D01*
X128537210Y-101273554D01*
X128537210Y-101321173D01*
X128561020Y-101392601D01*
X128584829Y-101416411D01*
X129037210Y-101892601D02*
X129037210Y-101606887D01*
X129037210Y-101749744D02*
X128537210Y-101749744D01*
X128608639Y-101702125D01*
X128656258Y-101654506D01*
X128680067Y-101606887D01*
X128537210Y-102202125D02*
X128537210Y-102249744D01*
X128561020Y-102297363D01*
X128584829Y-102321173D01*
X128632448Y-102344982D01*
X128727686Y-102368792D01*
X128846734Y-102368792D01*
X128941972Y-102344982D01*
X128989591Y-102321173D01*
X129013400Y-102297363D01*
X129037210Y-102249744D01*
X129037210Y-102202125D01*
X129013400Y-102154506D01*
X128989591Y-102130697D01*
X128941972Y-102106887D01*
X128846734Y-102083078D01*
X128727686Y-102083078D01*
X128632448Y-102106887D01*
X128584829Y-102130697D01*
X128561020Y-102154506D01*
X128537210Y-102202125D01*
X126572293Y-101720151D02*
X126596102Y-101743960D01*
X126667531Y-101767770D01*
X126715150Y-101767770D01*
X126786579Y-101743960D01*
X126834198Y-101696341D01*
X126858007Y-101648722D01*
X126881817Y-101553484D01*
X126881817Y-101482056D01*
X126858007Y-101386818D01*
X126834198Y-101339199D01*
X126786579Y-101291580D01*
X126715150Y-101267770D01*
X126667531Y-101267770D01*
X126596102Y-101291580D01*
X126572293Y-101315389D01*
X126334198Y-101767770D02*
X126238960Y-101767770D01*
X126191340Y-101743960D01*
X126167531Y-101720151D01*
X126119912Y-101648722D01*
X126096102Y-101553484D01*
X126096102Y-101363008D01*
X126119912Y-101315389D01*
X126143721Y-101291580D01*
X126191340Y-101267770D01*
X126286579Y-101267770D01*
X126334198Y-101291580D01*
X126358007Y-101315389D01*
X126381817Y-101363008D01*
X126381817Y-101482056D01*
X126358007Y-101529675D01*
X126334198Y-101553484D01*
X126286579Y-101577294D01*
X126191340Y-101577294D01*
X126143721Y-101553484D01*
X126119912Y-101529675D01*
X126096102Y-101482056D01*
X124704033Y-101694751D02*
X124727842Y-101718560D01*
X124799271Y-101742370D01*
X124846890Y-101742370D01*
X124918319Y-101718560D01*
X124965938Y-101670941D01*
X124989747Y-101623322D01*
X125013557Y-101528084D01*
X125013557Y-101456656D01*
X124989747Y-101361418D01*
X124965938Y-101313799D01*
X124918319Y-101266180D01*
X124846890Y-101242370D01*
X124799271Y-101242370D01*
X124727842Y-101266180D01*
X124704033Y-101289989D01*
X124275461Y-101242370D02*
X124370700Y-101242370D01*
X124418319Y-101266180D01*
X124442128Y-101289989D01*
X124489747Y-101361418D01*
X124513557Y-101456656D01*
X124513557Y-101647132D01*
X124489747Y-101694751D01*
X124465938Y-101718560D01*
X124418319Y-101742370D01*
X124323080Y-101742370D01*
X124275461Y-101718560D01*
X124251652Y-101694751D01*
X124227842Y-101647132D01*
X124227842Y-101528084D01*
X124251652Y-101480465D01*
X124275461Y-101456656D01*
X124323080Y-101432846D01*
X124418319Y-101432846D01*
X124465938Y-101456656D01*
X124489747Y-101480465D01*
X124513557Y-101528084D01*
X124840513Y-101699831D02*
X124864322Y-101723640D01*
X124935751Y-101747450D01*
X124983370Y-101747450D01*
X125054799Y-101723640D01*
X125102418Y-101676021D01*
X125126227Y-101628402D01*
X125150037Y-101533164D01*
X125150037Y-101461736D01*
X125126227Y-101366498D01*
X125102418Y-101318879D01*
X125054799Y-101271260D01*
X124983370Y-101247450D01*
X124935751Y-101247450D01*
X124864322Y-101271260D01*
X124840513Y-101295069D01*
X124388132Y-101247450D02*
X124626227Y-101247450D01*
X124650037Y-101485545D01*
X124626227Y-101461736D01*
X124578608Y-101437926D01*
X124459560Y-101437926D01*
X124411941Y-101461736D01*
X124388132Y-101485545D01*
X124364322Y-101533164D01*
X124364322Y-101652212D01*
X124388132Y-101699831D01*
X124411941Y-101723640D01*
X124459560Y-101747450D01*
X124578608Y-101747450D01*
X124626227Y-101723640D01*
X124650037Y-101699831D01*
X122329711Y-101181386D02*
X122353520Y-101157577D01*
X122377330Y-101086148D01*
X122377330Y-101038529D01*
X122353520Y-100967100D01*
X122305901Y-100919481D01*
X122258282Y-100895672D01*
X122163044Y-100871862D01*
X122091616Y-100871862D01*
X121996378Y-100895672D01*
X121948759Y-100919481D01*
X121901140Y-100967100D01*
X121877330Y-101038529D01*
X121877330Y-101086148D01*
X121901140Y-101157577D01*
X121924949Y-101181386D01*
X122043997Y-101609958D02*
X122377330Y-101609958D01*
X121853520Y-101490910D02*
X122210663Y-101371862D01*
X122210663Y-101681386D01*
D13*
X130920573Y-102240991D02*
X130964382Y-102284800D01*
X131095811Y-102328610D01*
X131183430Y-102328610D01*
X131314859Y-102284800D01*
X131402478Y-102197181D01*
X131446287Y-102109562D01*
X131490097Y-101934324D01*
X131490097Y-101802896D01*
X131446287Y-101627658D01*
X131402478Y-101540039D01*
X131314859Y-101452420D01*
X131183430Y-101408610D01*
X131095811Y-101408610D01*
X130964382Y-101452420D01*
X130920573Y-101496229D01*
X130570097Y-101496229D02*
X130526287Y-101452420D01*
X130438668Y-101408610D01*
X130219620Y-101408610D01*
X130132001Y-101452420D01*
X130088192Y-101496229D01*
X130044382Y-101583848D01*
X130044382Y-101671467D01*
X130088192Y-101802896D01*
X130613906Y-102328610D01*
X130044382Y-102328610D01*
X127341271Y-94667406D02*
X127385080Y-94623597D01*
X127428890Y-94492168D01*
X127428890Y-94404549D01*
X127385080Y-94273120D01*
X127297461Y-94185501D01*
X127209842Y-94141692D01*
X127034604Y-94097882D01*
X126903176Y-94097882D01*
X126727938Y-94141692D01*
X126640319Y-94185501D01*
X126552700Y-94273120D01*
X126508890Y-94404549D01*
X126508890Y-94492168D01*
X126552700Y-94623597D01*
X126596509Y-94667406D01*
X127428890Y-95543597D02*
X127428890Y-95017882D01*
X127428890Y-95280740D02*
X126508890Y-95280740D01*
X126640319Y-95193120D01*
X126727938Y-95105501D01*
X126771747Y-95017882D01*
M02*
