G04 #@! TF.GenerationSoftware,KiCad,Pcbnew,(5.1.0)-1*
G04 #@! TF.CreationDate,2019-07-29T23:07:26-07:00*
G04 #@! TF.ProjectId,WireFreeV4_Release,57697265-4672-4656-9556-345f52656c65,rev?*
G04 #@! TF.SameCoordinates,Original*
G04 #@! TF.FileFunction,Copper,L1,Top*
G04 #@! TF.FilePolarity,Positive*
%FSLAX46Y46*%
G04 Gerber Fmt 4.6, Leading zero omitted, Abs format (unit mm)*
G04 Created by KiCad (PCBNEW (5.1.0)-1) date 2019-07-29 23:07:26*
%MOMM*%
%LPD*%
G04 APERTURE LIST*
%ADD10C,0.700000*%
%ADD11R,0.340000X0.310000*%
%ADD12C,0.370000*%
%ADD13C,0.508000*%
%ADD14R,0.900000X1.400000*%
%ADD15R,0.700000X1.000000*%
%ADD16R,1.200000X1.450000*%
%ADD17R,1.000000X0.700000*%
%ADD18R,1.200000X1.150000*%
%ADD19C,0.355600*%
%ADD20C,0.508000*%
%ADD21C,0.152400*%
%ADD22C,0.254000*%
G04 APERTURE END LIST*
D10*
X142538579Y-85249261D03*
X140838579Y-85249261D03*
X134717439Y-97448819D03*
X138140000Y-97430000D03*
X136417439Y-97428819D03*
X133050000Y-97440000D03*
X131430000Y-85080000D03*
X131448039Y-86812839D03*
D11*
X143010000Y-86770000D03*
X143010000Y-86220000D03*
D12*
X134018900Y-95034720D03*
X134018900Y-94234720D03*
X134018900Y-93434720D03*
X134018900Y-92634720D03*
X134018900Y-91834720D03*
X134018900Y-91034720D03*
X134018900Y-90234720D03*
X134018900Y-89434720D03*
X134018900Y-88634720D03*
X134018900Y-87834720D03*
X134818900Y-95034720D03*
X134818900Y-94234720D03*
X134818900Y-93434720D03*
X134818900Y-92634720D03*
X134818900Y-91834720D03*
X134818900Y-91034720D03*
X134818900Y-90234720D03*
X134818900Y-89434720D03*
X134818900Y-88634720D03*
X134818900Y-87834720D03*
X135618900Y-95034720D03*
X135618900Y-94234720D03*
X135618900Y-93434720D03*
X135618900Y-92634720D03*
X135618900Y-91834720D03*
X135618900Y-91034720D03*
X135618900Y-90234720D03*
X135618900Y-89434720D03*
X135618900Y-88634720D03*
X135618900Y-87834720D03*
X136418900Y-95034720D03*
X136418900Y-94234720D03*
X136418900Y-93434720D03*
X136418900Y-92634720D03*
X136418900Y-91834720D03*
X136418900Y-91034720D03*
X136418900Y-90234720D03*
X136418900Y-89434720D03*
X136418900Y-88634720D03*
X136418900Y-87834720D03*
X137218900Y-95034720D03*
X137218900Y-94234720D03*
X137218900Y-93434720D03*
X137218900Y-92634720D03*
X137218900Y-91834720D03*
X137218900Y-91034720D03*
X137218900Y-90234720D03*
X137218900Y-89434720D03*
X137218900Y-88634720D03*
X137218900Y-87834720D03*
X138018900Y-95034720D03*
X138018900Y-94234720D03*
X138018900Y-93434720D03*
X138018900Y-92634720D03*
X138018900Y-91834720D03*
X138018900Y-91034720D03*
X138018900Y-90234720D03*
X138018900Y-89434720D03*
X138018900Y-88634720D03*
X138018900Y-87834720D03*
X138818900Y-95034720D03*
X138818900Y-94234720D03*
X138818900Y-93434720D03*
X138818900Y-92634720D03*
X138818900Y-91834720D03*
X138818900Y-91034720D03*
X138818900Y-90234720D03*
X138818900Y-89434720D03*
X138818900Y-88634720D03*
X138818900Y-87834720D03*
X139618900Y-95034720D03*
X139618900Y-94234720D03*
X139618900Y-93434720D03*
X139618900Y-92634720D03*
X139618900Y-91834720D03*
X139618900Y-91034720D03*
X139618900Y-90234720D03*
X139618900Y-89434720D03*
X139618900Y-88634720D03*
X139618900Y-87834720D03*
X140418900Y-95034720D03*
X140418900Y-94234720D03*
X140418900Y-93434720D03*
X140418900Y-92634720D03*
X140418900Y-91834720D03*
X140418900Y-91034720D03*
X140418900Y-90234720D03*
X140418900Y-89434720D03*
X140418900Y-88634720D03*
X140418900Y-87834720D03*
X141218900Y-95034720D03*
X141218900Y-94234720D03*
X141218900Y-93434720D03*
X141218900Y-92634720D03*
X141218900Y-91834720D03*
X141218900Y-91034720D03*
X141218900Y-90234720D03*
X141218900Y-89434720D03*
X141218900Y-88634720D03*
X141218900Y-87834720D03*
D13*
X133222325Y-84909120D03*
X133704924Y-85518720D03*
X134187524Y-84909120D03*
X134670123Y-85518720D03*
X135152723Y-84909120D03*
X135635322Y-85518720D03*
X136117922Y-84909120D03*
X136600521Y-85518720D03*
X137083121Y-84909120D03*
X137565720Y-85518720D03*
X138048320Y-84909120D03*
X138530919Y-85518720D03*
X139013519Y-84909120D03*
X139496118Y-85518720D03*
X130903360Y-97872919D03*
X131512960Y-97390320D03*
X130903360Y-96907720D03*
X131512960Y-96425121D03*
X130903360Y-95942521D03*
X131512960Y-95459922D03*
X130903360Y-94977322D03*
X131512960Y-94494723D03*
X130903360Y-94012123D03*
X131512960Y-93529524D03*
X130903360Y-93046924D03*
X131512960Y-92564325D03*
X130903360Y-92081725D03*
X131512960Y-91599126D03*
X130903360Y-91116526D03*
X131512960Y-90633927D03*
X130903360Y-90151327D03*
X131512960Y-89668728D03*
X130903360Y-89186128D03*
X131512960Y-88703529D03*
D14*
X149138960Y-85548840D03*
D15*
X147988960Y-85348840D03*
D16*
X146838960Y-85573840D03*
D17*
X145348960Y-87198840D03*
X145348960Y-88298840D03*
X145348960Y-93798840D03*
X145348960Y-92698840D03*
X145348960Y-89398840D03*
X145348960Y-90498840D03*
X145348960Y-91598840D03*
X145348960Y-94898840D03*
D18*
X146398960Y-95973840D03*
X148988960Y-95973840D03*
D13*
X141432399Y-97797540D03*
X140949800Y-97187940D03*
X140467200Y-97797540D03*
X139984601Y-97187940D03*
X139502001Y-97797540D03*
D19*
X139500000Y-85520000D03*
X133220000Y-84920000D03*
X130900980Y-97876440D03*
X139618720Y-88633300D03*
X139618720Y-89435940D03*
X139618720Y-90236040D03*
X138818620Y-90236040D03*
X138018520Y-90236040D03*
X137218420Y-89435940D03*
X137218420Y-90236040D03*
X137218420Y-91036140D03*
X138018520Y-91036140D03*
X138018520Y-92636340D03*
X136418320Y-92636340D03*
X136418320Y-91836240D03*
X138018520Y-91833700D03*
X133707460Y-85523800D03*
X138536000Y-85518720D03*
X131512960Y-88703529D03*
X134717439Y-97448819D03*
X132649860Y-86733200D03*
X148699220Y-91770620D03*
X148700000Y-89680000D03*
X143970000Y-86810000D03*
X143970000Y-87760000D03*
X143020000Y-87760000D03*
X141700000Y-88260000D03*
X141630000Y-85550000D03*
X142946120Y-91646580D03*
X145348960Y-92698840D03*
X146838960Y-85573840D03*
X137218420Y-91836240D03*
X145600000Y-97140000D03*
X139984601Y-97187940D03*
X141800000Y-92860000D03*
X140030000Y-88260000D03*
X138818620Y-89435940D03*
X143020000Y-86810000D03*
X139507080Y-97805160D03*
X130900820Y-89183580D03*
X131512960Y-97392860D03*
X130905900Y-96907720D03*
X147060000Y-89680000D03*
X147340000Y-92910000D03*
X139618720Y-91033600D03*
X133050000Y-97440000D03*
X131448039Y-86812839D03*
X148699220Y-93410620D03*
X143170000Y-85490000D03*
X148950000Y-97300000D03*
X146300000Y-92190000D03*
X143150000Y-89650000D03*
X131430000Y-85080000D03*
X142079000Y-96248220D03*
X140160000Y-86310000D03*
X143460000Y-93580000D03*
X145348957Y-90498843D03*
X140820000Y-88230000D03*
X134349860Y-86733200D03*
X132649860Y-88933200D03*
X139840000Y-87200000D03*
X140820000Y-89030000D03*
X138816760Y-92633800D03*
X138818900Y-91834720D03*
X139615500Y-91836240D03*
X139580000Y-95820000D03*
X140949800Y-97187940D03*
X140470000Y-96260000D03*
X140467200Y-97797540D03*
X145290000Y-86960000D03*
X146340000Y-88290000D03*
X141700000Y-86960000D03*
X145348960Y-89398840D03*
X141700000Y-87610000D03*
X145290000Y-86310000D03*
X136029700Y-94645480D03*
X137624820Y-94625160D03*
X131512960Y-95459922D03*
X134818900Y-87834720D03*
X130903360Y-94977322D03*
X135219440Y-92234180D03*
X130903360Y-93046924D03*
X135214360Y-90634820D03*
X134818900Y-93434720D03*
X131512960Y-92564325D03*
X131512960Y-91599126D03*
X133576054Y-90665300D03*
X130903360Y-90151327D03*
X135618900Y-94234720D03*
X133207750Y-92456000D03*
X137218900Y-94234720D03*
X131512960Y-89668728D03*
X133578600Y-91439966D03*
X135618900Y-89434720D03*
X134187524Y-84909120D03*
X134818900Y-90234720D03*
X135635322Y-85518720D03*
X138018900Y-88634720D03*
X136117922Y-84909120D03*
X135618900Y-92634720D03*
X142530000Y-90700000D03*
X141218900Y-94234720D03*
X143830002Y-90080000D03*
X135618900Y-93434720D03*
X144470000Y-89080000D03*
X134018900Y-93434720D03*
X143820000Y-85490000D03*
X141218900Y-92634720D03*
X139618900Y-92634720D03*
X142180000Y-85820000D03*
D20*
X146398960Y-95973840D02*
X148988960Y-95973840D01*
X146398960Y-95973840D02*
X146398960Y-96341040D01*
X146398960Y-96341040D02*
X145600000Y-97140000D01*
X141930739Y-85249261D02*
X141630000Y-85550000D01*
X142538579Y-85249261D02*
X141930739Y-85249261D01*
X141225280Y-93434720D02*
X141800000Y-92860000D01*
X141218900Y-93434720D02*
X141225280Y-93434720D01*
X143010000Y-86800000D02*
X143020000Y-86810000D01*
X143010000Y-86770000D02*
X143010000Y-86800000D01*
X140567840Y-85520000D02*
X140838579Y-85249261D01*
X139500000Y-85520000D02*
X140567840Y-85520000D01*
D21*
X139615060Y-88629640D02*
X139618720Y-88633300D01*
X139367440Y-88629640D02*
X139615060Y-88629640D01*
X145348960Y-90498840D02*
X145348957Y-90498843D01*
D22*
X140250000Y-86220000D02*
X140160000Y-86310000D01*
X143010000Y-86220000D02*
X140250000Y-86220000D01*
D21*
X141218900Y-88634720D02*
X141218900Y-88628900D01*
X141218900Y-88628900D02*
X140820000Y-88230000D01*
X141218900Y-87834720D02*
X140584180Y-87200000D01*
X140091447Y-87200000D02*
X139840000Y-87200000D01*
X140584180Y-87200000D02*
X140091447Y-87200000D01*
X140418900Y-89434720D02*
X140418900Y-89431100D01*
X140418900Y-89431100D02*
X140820000Y-89030000D01*
X141432960Y-97796979D02*
X141432399Y-97797540D01*
X141439340Y-97796979D02*
X141432960Y-97796979D01*
X141432399Y-97797540D02*
X141439340Y-97790599D01*
X141432399Y-97438330D02*
X141432399Y-97797540D01*
X141432399Y-96971999D02*
X141432399Y-97438330D01*
X141140400Y-96680000D02*
X141432399Y-96971999D01*
X137622770Y-93838590D02*
X138236887Y-93838590D01*
X137218900Y-93434720D02*
X137622770Y-93838590D01*
X138236887Y-93838590D02*
X138414659Y-94016362D01*
X138414659Y-94016362D02*
X138414659Y-95294659D01*
X138414659Y-95294659D02*
X139800000Y-96680000D01*
X139800000Y-96680000D02*
X141140400Y-96680000D01*
X139223590Y-93830030D02*
X139223590Y-95406370D01*
X139618900Y-93434720D02*
X139223590Y-93830030D01*
X139223590Y-95406370D02*
X139223590Y-95463590D01*
X139223590Y-95463590D02*
X139580000Y-95820000D01*
X140418900Y-94234720D02*
X140017523Y-94636097D01*
X140017523Y-94636097D02*
X140017523Y-95216957D01*
X140017523Y-95216957D02*
X140017523Y-95807523D01*
X140017523Y-95807523D02*
X140470000Y-96260000D01*
X145348960Y-87018960D02*
X145290000Y-86960000D01*
X145348960Y-87198840D02*
X145348960Y-87018960D01*
X145357800Y-88290000D02*
X145348960Y-88298840D01*
X146340000Y-88290000D02*
X145357800Y-88290000D01*
X145498960Y-93798840D02*
X145348960Y-93798840D01*
X146630201Y-92667599D02*
X145498960Y-93798840D01*
X146630201Y-90655759D02*
X146630201Y-92667599D01*
X145970881Y-89996439D02*
X146630201Y-90655759D01*
X144767741Y-89996439D02*
X145970881Y-89996439D01*
X141731302Y-86960000D02*
X144767741Y-89996439D01*
X141700000Y-86960000D02*
X141731302Y-86960000D01*
X145008840Y-91598840D02*
X145348960Y-91598840D01*
X144410000Y-91000000D02*
X145008840Y-91598840D01*
X144410000Y-90110000D02*
X144410000Y-91000000D01*
X141700000Y-87610000D02*
X141910000Y-87610000D01*
X141910000Y-87610000D02*
X144410000Y-90110000D01*
X146361160Y-94898840D02*
X145348960Y-94898840D01*
X147860000Y-93400000D02*
X146361160Y-94898840D01*
X147860000Y-88357600D02*
X147860000Y-93400000D01*
X145290000Y-86310000D02*
X145812400Y-86310000D01*
X145812400Y-86310000D02*
X147860000Y-88357600D01*
X136029700Y-93823920D02*
X136029700Y-94645480D01*
X136418900Y-93434720D02*
X136029700Y-93823920D01*
X136029700Y-94896927D02*
X136029700Y-94645480D01*
X136417439Y-97428819D02*
X136029700Y-97041080D01*
X136029700Y-97041080D02*
X136029700Y-94896927D01*
X138018900Y-94234720D02*
X138015260Y-94234720D01*
X138015260Y-94234720D02*
X137624820Y-94625160D01*
X137604820Y-96424820D02*
X138120000Y-96940000D01*
X137624820Y-94625160D02*
X137624820Y-96914820D01*
X135219440Y-92234180D02*
X135618900Y-91834720D01*
X132239124Y-93529524D02*
X131512960Y-93529524D01*
X134018900Y-95034720D02*
X133744320Y-95034720D01*
X133744320Y-95034720D02*
X132239124Y-93529524D01*
X136418900Y-91034720D02*
X136019000Y-90634820D01*
X136019000Y-90634820D02*
X135214360Y-90634820D01*
X131733665Y-92081725D02*
X130903360Y-92081725D01*
X132120640Y-92468700D02*
X131733665Y-92081725D01*
X132120640Y-92915740D02*
X132120640Y-92468700D01*
X134018900Y-94234720D02*
X133439620Y-94234720D01*
X133439620Y-94234720D02*
X132120640Y-92915740D01*
X134818900Y-89434720D02*
X134418323Y-89835297D01*
X134418323Y-89835297D02*
X133813988Y-89835297D01*
X133576054Y-90413853D02*
X133576054Y-90665300D01*
X133576054Y-90073231D02*
X133576054Y-90413853D01*
X133813988Y-89835297D02*
X133576054Y-90073231D01*
X134633420Y-94234720D02*
X134233570Y-93834870D01*
X134818900Y-94234720D02*
X134633420Y-94234720D01*
X131262570Y-91116526D02*
X130903360Y-91116526D01*
X134233570Y-93834870D02*
X133540575Y-93834870D01*
X131759066Y-91116526D02*
X131262570Y-91116526D01*
X133540575Y-93834870D02*
X132463540Y-92757835D01*
X132463540Y-92757835D02*
X132463540Y-91821000D01*
X132463540Y-91821000D02*
X131759066Y-91116526D01*
X131784622Y-90633927D02*
X131512960Y-90633927D01*
X132812662Y-91661967D02*
X131784622Y-90633927D01*
X135222291Y-94638111D02*
X135222291Y-93264031D01*
X135618900Y-95034720D02*
X135222291Y-94638111D01*
X135222291Y-93264031D02*
X134996079Y-93037819D01*
X134996079Y-93037819D02*
X133234529Y-93037819D01*
X133234529Y-93037819D02*
X132812662Y-92615952D01*
X132812662Y-92615952D02*
X132812662Y-91661967D01*
X133207750Y-91559383D02*
X133207750Y-92204553D01*
X130903360Y-90151327D02*
X131799694Y-90151327D01*
X133207750Y-92204553D02*
X133207750Y-92456000D01*
X131799694Y-90151327D02*
X133207750Y-91559383D01*
X131807362Y-89668728D02*
X133578600Y-91439966D01*
X131512960Y-89668728D02*
X131807362Y-89668728D01*
X135635322Y-85518720D02*
X135635322Y-85480718D01*
X136600521Y-86853099D02*
X136600521Y-85518720D01*
X135618900Y-87834720D02*
X136600521Y-86853099D01*
X137083121Y-85268330D02*
X137083121Y-84909120D01*
X137083121Y-87285239D02*
X137083121Y-85268330D01*
X136820791Y-87547569D02*
X137083121Y-87285239D01*
X136418900Y-88634720D02*
X136820791Y-88232829D01*
X136820791Y-88232829D02*
X136820791Y-87547569D01*
X137611885Y-85564885D02*
X137565720Y-85518720D01*
X137611885Y-88822745D02*
X137611885Y-85564885D01*
X137403426Y-89031204D02*
X137611885Y-88822745D01*
X134018900Y-89434720D02*
X134422416Y-89031204D01*
X134422416Y-89031204D02*
X137403426Y-89031204D01*
X138048320Y-85268330D02*
X138048320Y-84909120D01*
X135618900Y-91034720D02*
X136014953Y-91430773D01*
X136014953Y-91430773D02*
X138225044Y-91430773D01*
X138225044Y-91430773D02*
X138419140Y-91236677D01*
X138419140Y-91236677D02*
X138419140Y-86191660D01*
X138419140Y-86191660D02*
X138048320Y-85820840D01*
X138048320Y-85820840D02*
X138048320Y-85268330D01*
X139013519Y-85268330D02*
X139013519Y-84909120D01*
X139013519Y-85782739D02*
X139013519Y-85268330D01*
X139213130Y-85982350D02*
X139013519Y-85782739D01*
X138818900Y-88634720D02*
X139213130Y-88240490D01*
X139213130Y-88240490D02*
X139213130Y-85982350D01*
M02*
