G04 #@! TF.GenerationSoftware,KiCad,Pcbnew,(5.1.0)-1*
G04 #@! TF.CreationDate,2019-07-29T23:07:27-07:00*
G04 #@! TF.ProjectId,WireFreeV4_Release,57697265-4672-4656-9556-345f52656c65,rev?*
G04 #@! TF.SameCoordinates,Original*
G04 #@! TF.FileFunction,Paste,Top*
G04 #@! TF.FilePolarity,Positive*
%FSLAX46Y46*%
G04 Gerber Fmt 4.6, Leading zero omitted, Abs format (unit mm)*
G04 Created by KiCad (PCBNEW (5.1.0)-1) date 2019-07-29 23:07:27*
%MOMM*%
%LPD*%
G04 APERTURE LIST*
%ADD10C,0.700000*%
%ADD11R,0.340000X0.310000*%
%ADD12C,0.370000*%
%ADD13C,0.508000*%
%ADD14R,0.900000X1.400000*%
%ADD15R,0.700000X1.000000*%
%ADD16R,1.200000X1.450000*%
%ADD17R,1.000000X0.700000*%
%ADD18R,1.200000X1.150000*%
G04 APERTURE END LIST*
D10*
X142538579Y-85249261D03*
X140838579Y-85249261D03*
X134717439Y-97448819D03*
X138140000Y-97430000D03*
X136417439Y-97428819D03*
X133050000Y-97440000D03*
X131430000Y-85080000D03*
X131448039Y-86812839D03*
D11*
X143010000Y-86770000D03*
X143010000Y-86220000D03*
D12*
X134018900Y-95034720D03*
X134018900Y-94234720D03*
X134018900Y-93434720D03*
X134018900Y-92634720D03*
X134018900Y-91834720D03*
X134018900Y-91034720D03*
X134018900Y-90234720D03*
X134018900Y-89434720D03*
X134018900Y-88634720D03*
X134018900Y-87834720D03*
X134818900Y-95034720D03*
X134818900Y-94234720D03*
X134818900Y-93434720D03*
X134818900Y-92634720D03*
X134818900Y-91834720D03*
X134818900Y-91034720D03*
X134818900Y-90234720D03*
X134818900Y-89434720D03*
X134818900Y-88634720D03*
X134818900Y-87834720D03*
X135618900Y-95034720D03*
X135618900Y-94234720D03*
X135618900Y-93434720D03*
X135618900Y-92634720D03*
X135618900Y-91834720D03*
X135618900Y-91034720D03*
X135618900Y-90234720D03*
X135618900Y-89434720D03*
X135618900Y-88634720D03*
X135618900Y-87834720D03*
X136418900Y-95034720D03*
X136418900Y-94234720D03*
X136418900Y-93434720D03*
X136418900Y-92634720D03*
X136418900Y-91834720D03*
X136418900Y-91034720D03*
X136418900Y-90234720D03*
X136418900Y-89434720D03*
X136418900Y-88634720D03*
X136418900Y-87834720D03*
X137218900Y-95034720D03*
X137218900Y-94234720D03*
X137218900Y-93434720D03*
X137218900Y-92634720D03*
X137218900Y-91834720D03*
X137218900Y-91034720D03*
X137218900Y-90234720D03*
X137218900Y-89434720D03*
X137218900Y-88634720D03*
X137218900Y-87834720D03*
X138018900Y-95034720D03*
X138018900Y-94234720D03*
X138018900Y-93434720D03*
X138018900Y-92634720D03*
X138018900Y-91834720D03*
X138018900Y-91034720D03*
X138018900Y-90234720D03*
X138018900Y-89434720D03*
X138018900Y-88634720D03*
X138018900Y-87834720D03*
X138818900Y-95034720D03*
X138818900Y-94234720D03*
X138818900Y-93434720D03*
X138818900Y-92634720D03*
X138818900Y-91834720D03*
X138818900Y-91034720D03*
X138818900Y-90234720D03*
X138818900Y-89434720D03*
X138818900Y-88634720D03*
X138818900Y-87834720D03*
X139618900Y-95034720D03*
X139618900Y-94234720D03*
X139618900Y-93434720D03*
X139618900Y-92634720D03*
X139618900Y-91834720D03*
X139618900Y-91034720D03*
X139618900Y-90234720D03*
X139618900Y-89434720D03*
X139618900Y-88634720D03*
X139618900Y-87834720D03*
X140418900Y-95034720D03*
X140418900Y-94234720D03*
X140418900Y-93434720D03*
X140418900Y-92634720D03*
X140418900Y-91834720D03*
X140418900Y-91034720D03*
X140418900Y-90234720D03*
X140418900Y-89434720D03*
X140418900Y-88634720D03*
X140418900Y-87834720D03*
X141218900Y-95034720D03*
X141218900Y-94234720D03*
X141218900Y-93434720D03*
X141218900Y-92634720D03*
X141218900Y-91834720D03*
X141218900Y-91034720D03*
X141218900Y-90234720D03*
X141218900Y-89434720D03*
X141218900Y-88634720D03*
X141218900Y-87834720D03*
D13*
X133222325Y-84909120D03*
X133704924Y-85518720D03*
X134187524Y-84909120D03*
X134670123Y-85518720D03*
X135152723Y-84909120D03*
X135635322Y-85518720D03*
X136117922Y-84909120D03*
X136600521Y-85518720D03*
X137083121Y-84909120D03*
X137565720Y-85518720D03*
X138048320Y-84909120D03*
X138530919Y-85518720D03*
X139013519Y-84909120D03*
X139496118Y-85518720D03*
X130903360Y-97872919D03*
X131512960Y-97390320D03*
X130903360Y-96907720D03*
X131512960Y-96425121D03*
X130903360Y-95942521D03*
X131512960Y-95459922D03*
X130903360Y-94977322D03*
X131512960Y-94494723D03*
X130903360Y-94012123D03*
X131512960Y-93529524D03*
X130903360Y-93046924D03*
X131512960Y-92564325D03*
X130903360Y-92081725D03*
X131512960Y-91599126D03*
X130903360Y-91116526D03*
X131512960Y-90633927D03*
X130903360Y-90151327D03*
X131512960Y-89668728D03*
X130903360Y-89186128D03*
X131512960Y-88703529D03*
D14*
X149138960Y-85548840D03*
D15*
X147988960Y-85348840D03*
D16*
X146838960Y-85573840D03*
D17*
X145348960Y-87198840D03*
X145348960Y-88298840D03*
X145348960Y-93798840D03*
X145348960Y-92698840D03*
X145348960Y-89398840D03*
X145348960Y-90498840D03*
X145348960Y-91598840D03*
X145348960Y-94898840D03*
D18*
X146398960Y-95973840D03*
X148988960Y-95973840D03*
D13*
X141432399Y-97797540D03*
X140949800Y-97187940D03*
X140467200Y-97797540D03*
X139984601Y-97187940D03*
X139502001Y-97797540D03*
M02*
