G04 #@! TF.GenerationSoftware,KiCad,Pcbnew,(5.1.0)-1*
G04 #@! TF.CreationDate,2019-09-18T16:06:36-07:00*
G04 #@! TF.ProjectId,WireFreeV4_Release,57697265-4672-4656-9556-345f52656c65,rev?*
G04 #@! TF.SameCoordinates,Original*
G04 #@! TF.FileFunction,Copper,L1,Top*
G04 #@! TF.FilePolarity,Positive*
%FSLAX46Y46*%
G04 Gerber Fmt 4.6, Leading zero omitted, Abs format (unit mm)*
G04 Created by KiCad (PCBNEW (5.1.0)-1) date 2019-09-18 16:06:36*
%MOMM*%
%LPD*%
G04 APERTURE LIST*
%ADD10C,0.370000*%
%ADD11C,0.508000*%
%ADD12R,1.320800X0.812800*%
%ADD13R,0.900000X1.400000*%
%ADD14R,0.700000X1.000000*%
%ADD15R,1.200000X1.450000*%
%ADD16R,1.000000X0.700000*%
%ADD17R,1.200000X1.150000*%
%ADD18R,0.580000X0.630000*%
%ADD19C,0.450000*%
%ADD20C,0.152400*%
%ADD21C,0.101600*%
G04 APERTURE END LIST*
D10*
X124864400Y-91738220D03*
X125664400Y-91738220D03*
X126464400Y-91738220D03*
X127264400Y-91738220D03*
X128064400Y-91738220D03*
X128864400Y-91738220D03*
X129664400Y-91738220D03*
X130464400Y-91738220D03*
X131264400Y-91738220D03*
X132064400Y-91738220D03*
X124864400Y-92538220D03*
X125664400Y-92538220D03*
X126464400Y-92538220D03*
X127264400Y-92538220D03*
X128064400Y-92538220D03*
X128864400Y-92538220D03*
X129664400Y-92538220D03*
X130464400Y-92538220D03*
X131264400Y-92538220D03*
X132064400Y-92538220D03*
X124864400Y-93338220D03*
X125664400Y-93338220D03*
X126464400Y-93338220D03*
X127264400Y-93338220D03*
X128064400Y-93338220D03*
X128864400Y-93338220D03*
X129664400Y-93338220D03*
X130464400Y-93338220D03*
X131264400Y-93338220D03*
X132064400Y-93338220D03*
X124864400Y-94138220D03*
X125664400Y-94138220D03*
X126464400Y-94138220D03*
X127264400Y-94138220D03*
X128064400Y-94138220D03*
X128864400Y-94138220D03*
X129664400Y-94138220D03*
X130464400Y-94138220D03*
X131264400Y-94138220D03*
X132064400Y-94138220D03*
X124864400Y-94938220D03*
X125664400Y-94938220D03*
X126464400Y-94938220D03*
X127264400Y-94938220D03*
X128064400Y-94938220D03*
X128864400Y-94938220D03*
X129664400Y-94938220D03*
X130464400Y-94938220D03*
X131264400Y-94938220D03*
X132064400Y-94938220D03*
X124864400Y-95738220D03*
X125664400Y-95738220D03*
X126464400Y-95738220D03*
X127264400Y-95738220D03*
X128064400Y-95738220D03*
X128864400Y-95738220D03*
X129664400Y-95738220D03*
X130464400Y-95738220D03*
X131264400Y-95738220D03*
X132064400Y-95738220D03*
X124864400Y-96538220D03*
X125664400Y-96538220D03*
X126464400Y-96538220D03*
X127264400Y-96538220D03*
X128064400Y-96538220D03*
X128864400Y-96538220D03*
X129664400Y-96538220D03*
X130464400Y-96538220D03*
X131264400Y-96538220D03*
X132064400Y-96538220D03*
X124864400Y-97338220D03*
X125664400Y-97338220D03*
X126464400Y-97338220D03*
X127264400Y-97338220D03*
X128064400Y-97338220D03*
X128864400Y-97338220D03*
X129664400Y-97338220D03*
X130464400Y-97338220D03*
X131264400Y-97338220D03*
X132064400Y-97338220D03*
X124864400Y-98138220D03*
X125664400Y-98138220D03*
X126464400Y-98138220D03*
X127264400Y-98138220D03*
X128064400Y-98138220D03*
X128864400Y-98138220D03*
X129664400Y-98138220D03*
X130464400Y-98138220D03*
X131264400Y-98138220D03*
X132064400Y-98138220D03*
X124864400Y-98938220D03*
X125664400Y-98938220D03*
X126464400Y-98938220D03*
X127264400Y-98938220D03*
X128064400Y-98938220D03*
X128864400Y-98938220D03*
X129664400Y-98938220D03*
X130464400Y-98938220D03*
X131264400Y-98938220D03*
X132064400Y-98938220D03*
D11*
X134858759Y-89049860D03*
X134376160Y-89659460D03*
X133893550Y-89049860D03*
X133410951Y-89659460D03*
X132928351Y-89049860D03*
X132445752Y-89659460D03*
X131963152Y-89049860D03*
X131480553Y-89659460D03*
X130997953Y-89049860D03*
X130515354Y-89659460D03*
X130032754Y-89049860D03*
X129550155Y-89659460D03*
X129067555Y-89049860D03*
X128584956Y-89659460D03*
X128102356Y-89049860D03*
X127619757Y-89659460D03*
X127137157Y-89049860D03*
X126654558Y-89659460D03*
X126171958Y-89049860D03*
X125689359Y-89659460D03*
X125206759Y-89049860D03*
X124724160Y-89659460D03*
D12*
X134927340Y-98884740D03*
X134927340Y-100027740D03*
D13*
X122725500Y-89496000D03*
D14*
X121575500Y-89296000D03*
D15*
X120425500Y-89521000D03*
D16*
X118935500Y-91146000D03*
X118935500Y-92246000D03*
X118935500Y-97746000D03*
X118935500Y-96646000D03*
X118935500Y-93346000D03*
X118935500Y-94446000D03*
X118935500Y-95546000D03*
X118935500Y-98846000D03*
D17*
X119985500Y-99921000D03*
X122575500Y-99921000D03*
D11*
X135333740Y-92433140D03*
X134724140Y-92915739D03*
X135333740Y-93398339D03*
X134724140Y-93880938D03*
X135333740Y-94363538D03*
D18*
X135214860Y-97487740D03*
X134324860Y-97487740D03*
X135214860Y-96563180D03*
X134324860Y-96563180D03*
D19*
X119829580Y-96649540D03*
X122580400Y-98501200D03*
X125242320Y-99933760D03*
X128292860Y-100162360D03*
X124310140Y-94089220D03*
X120238520Y-92781120D03*
X117891560Y-92504260D03*
X121066560Y-100279200D03*
X121452640Y-99585780D03*
X118518940Y-89171780D03*
X128463040Y-98536760D03*
X132062220Y-99501960D03*
X131660900Y-97750840D03*
X129265680Y-96936560D03*
X129293620Y-97750840D03*
X130063240Y-96124820D03*
X126865380Y-94548341D03*
X126862840Y-92937120D03*
X129265380Y-95353952D03*
X128468120Y-95353952D03*
X125260100Y-95359895D03*
X123063000Y-91948000D03*
X133858000Y-94767400D03*
X130248660Y-90728800D03*
X132036820Y-100208080D03*
X126842520Y-91269820D03*
X122717560Y-97482660D03*
X126039880Y-99402900D03*
X119234540Y-89855720D03*
X128468097Y-96124820D03*
X130863340Y-96945240D03*
X128468120Y-96930420D03*
X127662940Y-93742739D03*
X130867360Y-95353952D03*
X130065780Y-91340940D03*
X130061750Y-93734670D03*
X122084750Y-92276010D03*
X122593100Y-91315540D03*
X135351520Y-95039180D03*
X117894100Y-94896940D03*
X123040140Y-98031300D03*
X123642118Y-96923860D03*
X135063920Y-90474800D03*
X131476805Y-90747319D03*
X134148610Y-95412560D03*
X131658360Y-98553060D03*
X133319520Y-96248220D03*
X133786880Y-98397060D03*
X130063240Y-98536760D03*
X127662940Y-95353952D03*
X130864009Y-98536938D03*
X130060700Y-96939100D03*
X127654260Y-97750840D03*
X128463040Y-94543251D03*
X119895620Y-91147900D03*
X119903240Y-92240100D03*
X123342203Y-96419967D03*
X119987060Y-93345000D03*
X124336722Y-95276717D03*
X119989600Y-98846640D03*
X123918980Y-89910920D03*
X132097780Y-90751660D03*
X127662940Y-92932049D03*
X124104400Y-91734638D03*
X124866398Y-90726260D03*
X129249618Y-94543880D03*
X126062740Y-92128959D03*
X125997750Y-90504767D03*
X127451406Y-91262011D03*
X130063240Y-92116690D03*
X128269350Y-91089712D03*
X125256080Y-92137450D03*
X124454920Y-92928440D03*
X128289260Y-90335100D03*
X128754707Y-90749120D03*
X125265180Y-93748672D03*
X129307240Y-90752580D03*
X125265180Y-94554283D03*
X131790440Y-90251280D03*
X130063240Y-92995970D03*
X130872440Y-93734670D03*
X133920450Y-91417140D03*
X130642360Y-91180920D03*
X133920450Y-90832212D03*
X129261863Y-93737220D03*
X134222000Y-90288996D03*
X131663440Y-96139000D03*
X133920450Y-92046681D03*
X126853977Y-93742730D03*
X125265180Y-98539300D03*
X121460260Y-92252800D03*
X125265180Y-92943061D03*
X120810020Y-97459800D03*
X125992680Y-91310368D03*
X126858235Y-98535215D03*
X126848650Y-97750850D03*
X133920450Y-93050297D03*
X126067820Y-94554283D03*
X126060200Y-97744280D03*
X132615940Y-98397060D03*
X128295400Y-99491800D03*
X126060200Y-98536760D03*
X126870460Y-99380040D03*
X133207760Y-98397060D03*
X131664574Y-96936139D03*
X117899180Y-95547180D03*
X126065280Y-93742309D03*
X120672429Y-91277440D03*
X126065280Y-95338900D03*
X121612660Y-91335860D03*
D20*
X118935500Y-96646000D02*
X119826040Y-96646000D01*
X119826040Y-96646000D02*
X119829580Y-96649540D01*
X119985500Y-99921000D02*
X120737900Y-99921000D01*
X121066560Y-100249660D02*
X121066560Y-100279200D01*
X120737900Y-99921000D02*
X121066560Y-100249660D01*
X122575500Y-99921000D02*
X121787860Y-99921000D01*
X121677639Y-99810779D02*
X121452640Y-99585780D01*
X121787860Y-99921000D02*
X121677639Y-99810779D01*
X120076280Y-89171780D02*
X118518940Y-89171780D01*
X120425500Y-89521000D02*
X120076280Y-89171780D01*
X135214860Y-97487740D02*
X135214860Y-96563180D01*
X133832600Y-99501960D02*
X132062220Y-99501960D01*
X134940040Y-98645980D02*
X134686040Y-98645980D01*
X134688580Y-98645980D02*
X133832600Y-99501960D01*
X129664400Y-97338220D02*
X129664400Y-97335280D01*
X129664020Y-96538220D02*
X129265680Y-96936560D01*
X129664400Y-96538220D02*
X129664020Y-96538220D01*
X129664400Y-97380060D02*
X129293620Y-97750840D01*
X129664400Y-97338220D02*
X129664400Y-97380060D01*
X130464400Y-96538220D02*
X130464400Y-96525980D01*
X130464400Y-96525980D02*
X130063240Y-96124820D01*
X129676640Y-95738220D02*
X130063240Y-96124820D01*
X129664400Y-95738220D02*
X129676640Y-95738220D01*
X125560518Y-99933760D02*
X125242320Y-99933760D01*
X126105166Y-99933760D02*
X125560518Y-99933760D01*
X126464400Y-99574526D02*
X126105166Y-99933760D01*
X126464400Y-98938220D02*
X126464400Y-99574526D01*
X127264400Y-95738220D02*
X126865380Y-95339200D01*
X126865380Y-94866539D02*
X126865380Y-94548341D01*
X126865380Y-95339200D02*
X126865380Y-94866539D01*
X128468120Y-95341940D02*
X128468120Y-95353952D01*
X129265380Y-95339200D02*
X129265380Y-95353952D01*
X128064400Y-94938220D02*
X128468120Y-95341940D01*
X129265380Y-95337240D02*
X129265380Y-95353952D01*
X128864400Y-94938220D02*
X129265380Y-95339200D01*
X129664400Y-94938220D02*
X129265380Y-95337240D01*
X133858000Y-94747078D02*
X133858000Y-94767400D01*
X135214860Y-96563180D02*
X135214860Y-96538180D01*
X134724140Y-93880938D02*
X133858000Y-94747078D01*
X134722818Y-96046138D02*
X133917538Y-96046138D01*
X133633001Y-94992399D02*
X133858000Y-94767400D01*
X135214860Y-96538180D02*
X134722818Y-96046138D01*
X133633001Y-95761601D02*
X133633001Y-94992399D01*
X133917538Y-96046138D02*
X133633001Y-95761601D01*
X130515354Y-90462106D02*
X130515354Y-89659460D01*
X130515354Y-90462106D02*
X130248660Y-90728800D01*
X134927340Y-100027740D02*
X132217160Y-100027740D01*
X132217160Y-100027740D02*
X132036820Y-100208080D01*
X128064400Y-95738220D02*
X128081497Y-95738220D01*
X128081497Y-95738220D02*
X128468097Y-96124820D01*
X128854697Y-95738220D02*
X128468097Y-96124820D01*
X128864400Y-95738220D02*
X128854697Y-95738220D01*
X131264400Y-97338220D02*
X131256320Y-97338220D01*
X131256320Y-97338220D02*
X130863340Y-96945240D01*
X128864400Y-97338220D02*
X128864400Y-97326700D01*
X128864400Y-97326700D02*
X128468120Y-96930420D01*
X127659881Y-93742739D02*
X127662940Y-93742739D01*
X127264400Y-94138220D02*
X127659881Y-93742739D01*
X130867360Y-95341180D02*
X130867360Y-95353952D01*
X130464400Y-94938220D02*
X130867360Y-95341180D01*
X130032754Y-89409070D02*
X130032754Y-89049860D01*
X130032754Y-90129366D02*
X130032754Y-89409070D01*
X129813652Y-90348468D02*
X130032754Y-90129366D01*
X130065780Y-91340940D02*
X129813652Y-91088812D01*
X129813652Y-91088812D02*
X129813652Y-90348468D01*
X118935500Y-94446000D02*
X118345040Y-94446000D01*
X118345040Y-94446000D02*
X117894100Y-94896940D01*
X135063920Y-90347220D02*
X135063920Y-90474800D01*
X134376160Y-89659460D02*
X135063920Y-90347220D01*
X134284718Y-95412560D02*
X134148610Y-95412560D01*
X135333740Y-94363538D02*
X134284718Y-95412560D01*
X131264400Y-98938220D02*
X131273200Y-98938220D01*
X131273200Y-98938220D02*
X131658360Y-98553060D01*
X134324860Y-96563180D02*
X133634480Y-96563180D01*
X133544519Y-96473219D02*
X133319520Y-96248220D01*
X133634480Y-96563180D02*
X133544519Y-96473219D01*
X133786880Y-98025720D02*
X134324860Y-97487740D01*
X133786880Y-98493120D02*
X133786880Y-98397060D01*
X132064400Y-98938220D02*
X133341780Y-98938220D01*
X133341780Y-98938220D02*
X133786880Y-98493120D01*
X133786880Y-98397060D02*
X133786880Y-98025720D01*
X130065860Y-98536760D02*
X130464400Y-98138220D01*
X130063240Y-98536760D02*
X130065860Y-98536760D01*
X127264400Y-96538220D02*
X127662940Y-96139680D01*
X127662940Y-95672150D02*
X127662940Y-95353952D01*
X127662940Y-96139680D02*
X127662940Y-95672150D01*
X128064400Y-94138220D02*
X128064400Y-94144611D01*
X128064400Y-94144611D02*
X128463040Y-94543251D01*
X130464400Y-97338220D02*
X130459820Y-97338220D01*
X130459820Y-97338220D02*
X130060700Y-96939100D01*
X128064400Y-97340700D02*
X127654260Y-97750840D01*
X128064400Y-97338220D02*
X128064400Y-97340700D01*
X128064400Y-96538220D02*
X128064400Y-97338220D01*
X118937400Y-91147900D02*
X118935500Y-91146000D01*
X119895620Y-91147900D02*
X118937400Y-91147900D01*
X118941400Y-92240100D02*
X118935500Y-92246000D01*
X119903240Y-92240100D02*
X118941400Y-92240100D01*
X123024005Y-96419967D02*
X123342203Y-96419967D01*
X119713560Y-97746000D02*
X121039593Y-96419967D01*
X121039593Y-96419967D02*
X123024005Y-96419967D01*
X118935500Y-97746000D02*
X119713560Y-97746000D01*
X118936500Y-93345000D02*
X118935500Y-93346000D01*
X119987060Y-93345000D02*
X118936500Y-93345000D01*
X124111723Y-95501716D02*
X124336722Y-95276717D01*
X124067439Y-95546000D02*
X124111723Y-95501716D01*
X118935500Y-95546000D02*
X124067439Y-95546000D01*
X118936140Y-98846640D02*
X118935500Y-98846000D01*
X119989600Y-98846640D02*
X118936140Y-98846640D01*
X123918980Y-89905840D02*
X123918980Y-89910920D01*
X124170440Y-89659460D02*
X124724160Y-89659460D01*
X123918980Y-89910920D02*
X124170440Y-89659460D01*
X131663032Y-91186408D02*
X132097780Y-90751660D01*
X132064400Y-92538220D02*
X131663032Y-92136852D01*
X131663032Y-92136852D02*
X131663032Y-91186408D01*
X128064400Y-93338220D02*
X128064400Y-93337520D01*
X128064400Y-93337520D02*
X127662940Y-92936060D01*
X127662940Y-92936060D02*
X127662940Y-92932049D01*
X124847549Y-89049860D02*
X125206759Y-89049860D01*
X124128138Y-89049860D02*
X124847549Y-89049860D01*
X123431300Y-89746698D02*
X124128138Y-89049860D01*
X124104400Y-91734638D02*
X123431300Y-91061538D01*
X123431300Y-91061538D02*
X123431300Y-89746698D01*
X124864400Y-91582780D02*
X124864400Y-91738220D01*
X125689359Y-89659460D02*
X125460760Y-89659460D01*
X124955100Y-90165120D02*
X124534840Y-90165120D01*
X124534840Y-90165120D02*
X124243639Y-90456321D01*
X125460760Y-89659460D02*
X124955100Y-90165120D01*
X124243639Y-90456321D02*
X124243639Y-90962019D01*
X124243639Y-90962019D02*
X124864400Y-91582780D01*
X128864400Y-94138220D02*
X128864400Y-94135960D01*
X126171958Y-89765076D02*
X126171958Y-89049860D01*
X128864400Y-94158662D02*
X129249618Y-94543880D01*
X128864400Y-94138220D02*
X128864400Y-94158662D01*
X125153418Y-90439240D02*
X124866398Y-90726260D01*
X125455680Y-90439240D02*
X125153418Y-90439240D01*
X125803659Y-90091261D02*
X125455680Y-90439240D01*
X125896624Y-90091261D02*
X125803659Y-90091261D01*
X126171958Y-89710260D02*
X126171958Y-89815927D01*
X126171958Y-89815927D02*
X125896624Y-90091261D01*
X126062740Y-92136560D02*
X126062740Y-92128959D01*
X126464400Y-92538220D02*
X126062740Y-92136560D01*
X126168461Y-90504767D02*
X125997750Y-90504767D01*
X126654558Y-90018670D02*
X126168461Y-90504767D01*
X126654558Y-89659460D02*
X126654558Y-90018670D01*
D21*
X127137157Y-89409070D02*
X127137157Y-89049860D01*
X125664400Y-91738220D02*
X125542040Y-91615860D01*
X125542040Y-91182709D02*
X125812432Y-90912317D01*
X125812432Y-90912317D02*
X126171698Y-90912317D01*
X125542040Y-91615860D02*
X125542040Y-91182709D01*
X126171698Y-90912317D02*
X127137157Y-89946858D01*
X127137157Y-89946858D02*
X127137157Y-89409070D01*
D20*
X127619757Y-91093660D02*
X127451406Y-91262011D01*
X127619757Y-90218263D02*
X127619757Y-89659460D01*
X127619757Y-91093660D02*
X127619757Y-90218263D01*
X130063240Y-92137060D02*
X130063240Y-92116690D01*
X130464400Y-92538220D02*
X130063240Y-92137060D01*
X125267720Y-92141540D02*
X125267720Y-92128959D01*
X125664400Y-92538220D02*
X125267720Y-92141540D01*
X125263630Y-92137450D02*
X125256080Y-92137450D01*
X125267720Y-92141540D02*
X125263630Y-92137450D01*
X128102356Y-89885524D02*
X128102356Y-89049860D01*
X127886460Y-90101420D02*
X128102356Y-89885524D01*
X128269350Y-91089712D02*
X127886460Y-90706822D01*
X127886460Y-90706822D02*
X127886460Y-90101420D01*
X124864400Y-93338220D02*
X124864400Y-93337920D01*
X124864400Y-93337920D02*
X124454920Y-92928440D01*
X128584956Y-90039404D02*
X128289260Y-90335100D01*
X128584956Y-90039404D02*
X128584956Y-89659460D01*
X125664400Y-93338220D02*
X125664400Y-93348580D01*
X125664400Y-93338220D02*
X125265180Y-93737440D01*
X125265180Y-93737440D02*
X125265180Y-93748672D01*
X129067555Y-89409070D02*
X129067555Y-89049860D01*
X129067555Y-90256365D02*
X129067555Y-89409070D01*
X128754707Y-90749120D02*
X128754707Y-90569213D01*
X128754707Y-90569213D02*
X129067555Y-90256365D01*
X125280463Y-94554283D02*
X125265180Y-94554283D01*
X125664400Y-94938220D02*
X125280463Y-94554283D01*
X129442288Y-89767327D02*
X129550155Y-89659460D01*
X129307240Y-90752580D02*
X129442288Y-90617532D01*
X129442288Y-90617532D02*
X129442288Y-89767327D01*
X130997953Y-90891353D02*
X130997953Y-89049860D01*
X131089297Y-90982697D02*
X130997953Y-90891353D01*
X131089297Y-91345219D02*
X131089297Y-90982697D01*
X130862493Y-91572023D02*
X131089297Y-91345219D01*
X130464400Y-93338220D02*
X130862493Y-92940127D01*
X130862493Y-92940127D02*
X130862493Y-91572023D01*
X131480553Y-89941393D02*
X131790440Y-90251280D01*
X131480553Y-89659460D02*
X131480553Y-89941393D01*
X129664400Y-92538220D02*
X130063240Y-92937060D01*
X130063240Y-92937060D02*
X130063240Y-92995970D01*
X131963152Y-89409070D02*
X131963152Y-89049860D01*
X131963152Y-89816893D02*
X131963152Y-89409070D01*
X131665400Y-95337220D02*
X131665400Y-93152440D01*
X131264400Y-95738220D02*
X131665400Y-95337220D01*
X131665400Y-93152440D02*
X131875519Y-92942321D01*
X132595620Y-90449361D02*
X131963152Y-89816893D01*
X131875519Y-92942321D02*
X132297259Y-92942321D01*
X132297259Y-92942321D02*
X132595620Y-92643960D01*
X132595620Y-92643960D02*
X132595620Y-90449361D01*
X132326029Y-93338220D02*
X132064400Y-93338220D01*
X132948632Y-92715617D02*
X132326029Y-93338220D01*
X132948632Y-90414362D02*
X132948632Y-92715617D01*
X132445752Y-89659460D02*
X132445752Y-89911482D01*
X132445752Y-89911482D02*
X132948632Y-90414362D01*
X131264400Y-94138220D02*
X131264400Y-94137220D01*
X131264400Y-94138220D02*
X130872440Y-93746260D01*
X130872440Y-93746260D02*
X130872440Y-93734670D01*
X133286500Y-90783190D02*
X133695451Y-91192141D01*
X132928351Y-89049860D02*
X132928351Y-90018014D01*
X133286500Y-90376163D02*
X133286500Y-90783190D01*
X132928351Y-90018014D02*
X133286500Y-90376163D01*
X133695451Y-91192141D02*
X133920450Y-91417140D01*
X130642360Y-91298631D02*
X130642360Y-91180920D01*
X130464400Y-91738220D02*
X130464400Y-91476591D01*
X130464400Y-91476591D02*
X130642360Y-91298631D01*
X133639571Y-90247290D02*
X133639571Y-90551333D01*
X133639571Y-90551333D02*
X133695451Y-90607213D01*
X133410951Y-90018670D02*
X133639571Y-90247290D01*
X133410951Y-89659460D02*
X133410951Y-90018670D01*
X133695451Y-90607213D02*
X133920450Y-90832212D01*
X128864400Y-93338220D02*
X128864400Y-93339757D01*
X128864400Y-93339757D02*
X129261863Y-93737220D01*
X133893550Y-89960546D02*
X134222000Y-90288996D01*
X133893550Y-89049860D02*
X133893550Y-89960546D01*
X131264400Y-96538220D02*
X131264400Y-96538040D01*
X131264400Y-96538040D02*
X131663440Y-96139000D01*
X134858759Y-89049860D02*
X135487619Y-89678720D01*
X135487619Y-90797710D02*
X134238648Y-92046681D01*
X134238648Y-92046681D02*
X133920450Y-92046681D01*
X135487619Y-89678720D02*
X135487619Y-90797710D01*
X127264400Y-93338220D02*
X126859890Y-93742730D01*
X126859890Y-93742730D02*
X126853977Y-93742730D01*
X125664400Y-98938220D02*
X125664100Y-98938220D01*
X125664100Y-98938220D02*
X125265180Y-98539300D01*
X125583378Y-92943061D02*
X125265180Y-92943061D01*
X126069241Y-92943061D02*
X125583378Y-92943061D01*
X126464400Y-93338220D02*
X126069241Y-92943061D01*
X126420532Y-91738220D02*
X125992680Y-91310368D01*
X126464400Y-91738220D02*
X126420532Y-91738220D01*
X126861395Y-98535215D02*
X126858235Y-98535215D01*
X127264400Y-98938220D02*
X126861395Y-98535215D01*
X127264400Y-97338220D02*
X126851770Y-97750850D01*
X126851770Y-97750850D02*
X126848650Y-97750850D01*
X126464400Y-94938220D02*
X126464400Y-94935380D01*
X135333740Y-92433140D02*
X134537607Y-92433140D01*
X134145449Y-92825298D02*
X133920450Y-93050297D01*
X134537607Y-92433140D02*
X134145449Y-92825298D01*
X126080463Y-94554283D02*
X126067820Y-94554283D01*
X126464400Y-94938220D02*
X126080463Y-94554283D01*
X126464400Y-97338220D02*
X126464400Y-97340080D01*
X126464400Y-97340080D02*
X126060200Y-97744280D01*
X132615940Y-98078862D02*
X132615940Y-98397060D01*
X132537035Y-97999957D02*
X132615940Y-98078862D01*
X132537035Y-95041152D02*
X132537035Y-97999957D01*
X134724140Y-92915739D02*
X134662448Y-92915739D01*
X134662448Y-92915739D02*
X132537035Y-95041152D01*
X125664400Y-98138220D02*
X125664400Y-98140960D01*
X125664400Y-98140960D02*
X126060200Y-98536760D01*
X132982761Y-98172061D02*
X133207760Y-98397060D01*
X132883414Y-98072714D02*
X132982761Y-98172061D01*
X132883414Y-95078803D02*
X132883414Y-98072714D01*
X135333740Y-93398339D02*
X134563878Y-93398339D01*
X134563878Y-93398339D02*
X132883414Y-95078803D01*
X132064400Y-97338220D02*
X132064400Y-97335965D01*
X132064400Y-97335965D02*
X131664574Y-96936139D01*
X126068489Y-93742309D02*
X126065280Y-93742309D01*
X126464400Y-94138220D02*
X126068489Y-93742309D01*
X125664400Y-95738220D02*
X125665960Y-95738220D01*
X125665960Y-95738220D02*
X126065280Y-95338900D01*
M02*
