M48
; DRILL file {KiCad 8.0.7} date 2025-01-06T01:22:50-0800
; FORMAT={-:-/ absolute / metric / decimal}
; #@! TF.CreationDate,2025-01-06T01:22:50-08:00
; #@! TF.GenerationSoftware,Kicad,Pcbnew,8.0.7
; #@! TF.FileFunction,Plated,1,6,PTH
FMAT,2
METRIC
; #@! TA.AperFunction,Plated,PTH,ViaDrill
T1C0.152
; #@! TA.AperFunction,Plated,PTH,ViaDrill
T2C0.200
; #@! TA.AperFunction,Plated,PTH,ComponentDrill
T3C0.650
%
G90
G05
T1
X101.11Y-65.34
T2
X97.75Y-61.0
X98.93Y-61.02
X99.134Y-65.491
X99.14Y-68.27
X99.37Y-62.12
X99.565Y-61.285
X99.819Y-66.126
X100.238Y-60.868
X100.861Y-61.046
X100.98Y-68.3
X102.2Y-63.59
X102.21Y-61.07
X102.3Y-64.77
X102.3Y-65.99
X102.35Y-62.64
X103.82Y-63.55
X103.9Y-65.41
X104.41Y-63.58
T3
X97.0Y-60.055
X97.0Y-61.325
X97.0Y-62.595
X97.0Y-63.865
X97.0Y-65.135
X97.0Y-66.405
X97.0Y-67.675
X97.0Y-68.945
M30
