G04 #@! TF.GenerationSoftware,KiCad,Pcbnew,(5.1.0)-1*
G04 #@! TF.CreationDate,2019-09-18T17:57:13-07:00*
G04 #@! TF.ProjectId,IR_Receiver Board,49525f52-6563-4656-9976-657220426f61,rev?*
G04 #@! TF.SameCoordinates,Original*
G04 #@! TF.FileFunction,Legend,Top*
G04 #@! TF.FilePolarity,Positive*
%FSLAX46Y46*%
G04 Gerber Fmt 4.6, Leading zero omitted, Abs format (unit mm)*
G04 Created by KiCad (PCBNEW (5.1.0)-1) date 2019-09-18 17:57:13*
%MOMM*%
%LPD*%
G04 APERTURE LIST*
%ADD10C,0.100000*%
%ADD11C,0.150000*%
G04 APERTURE END LIST*
D10*
X138813000Y-100522500D02*
X139008000Y-100522500D01*
X138813000Y-104582500D02*
X138813000Y-100522500D01*
X139008000Y-104582500D02*
X138813000Y-104582500D01*
X142873000Y-100522500D02*
X142678000Y-100522500D01*
X142873000Y-104582500D02*
X142873000Y-100522500D01*
X142678000Y-104582500D02*
X142873000Y-104582500D01*
D11*
X140088026Y-103864160D02*
X140088026Y-104578446D01*
X140040407Y-104721303D01*
X139945169Y-104816541D01*
X139802312Y-104864160D01*
X139707074Y-104864160D01*
X141088026Y-104864160D02*
X140516598Y-104864160D01*
X140802312Y-104864160D02*
X140802312Y-103864160D01*
X140707074Y-104007018D01*
X140611836Y-104102256D01*
X140516598Y-104149875D01*
D10*
X140081095Y-102004880D02*
X140081095Y-102814404D01*
X140128714Y-102909642D01*
X140176333Y-102957261D01*
X140271571Y-103004880D01*
X140462047Y-103004880D01*
X140557285Y-102957261D01*
X140604904Y-102909642D01*
X140652523Y-102814404D01*
X140652523Y-102004880D01*
X141652523Y-103004880D02*
X141081095Y-103004880D01*
X141366809Y-103004880D02*
X141366809Y-102004880D01*
X141271571Y-102147738D01*
X141176333Y-102242976D01*
X141081095Y-102290595D01*
M02*
