%FSLAX45Y45*%
G04 Gerber Fmt 4.5, Leading zero omitted, Abs format (unit mm)*
G04 Created by KiCad (PCBNEW (5.1.0)-1) date 2019-09-18 17:57:16*
%MOMM*%
%LPD*%
G04 APERTURE LIST*
%ADD10C,0.050000*%
%ADD11C,0.200000*%
%ADD12C,0.300000*%
G04 APERTURE END LIST*
D10*
X14142720Y-10711180D02*
G75*
G02X14043660Y-10711180I-49530J49530D01*
G01*
X13836650Y-10515600D02*
X13836650Y-9994900D01*
X14043660Y-10711180D02*
X13836650Y-10515600D01*
X14331950Y-10515600D02*
X14142720Y-10711180D01*
X14331950Y-9994900D02*
X14331950Y-10515600D01*
X13836650Y-9994900D02*
X14331950Y-9994900D01*
D11*
X13998514Y-10484170D02*
X14038514Y-10524170D01*
X14038514Y-10484170D02*
X13998514Y-10524170D01*
X14060490Y-10062022D02*
X14100490Y-10102022D01*
X14100490Y-10062022D02*
X14060490Y-10102022D01*
D12*
X14120578Y-11199910D02*
X14120578Y-10899910D01*
X14192007Y-10899910D01*
X14234864Y-10914196D01*
X14263436Y-10942767D01*
X14277721Y-10971339D01*
X14292007Y-11028482D01*
X14292007Y-11071339D01*
X14277721Y-11128482D01*
X14263436Y-11157053D01*
X14234864Y-11185624D01*
X14192007Y-11199910D01*
X14120578Y-11199910D01*
X14420578Y-11199910D02*
X14420578Y-10999910D01*
X14420578Y-11057053D02*
X14434864Y-11028482D01*
X14449150Y-11014196D01*
X14477721Y-10999910D01*
X14506293Y-10999910D01*
X14606293Y-11199910D02*
X14606293Y-10999910D01*
X14606293Y-10899910D02*
X14592007Y-10914196D01*
X14606293Y-10928482D01*
X14620578Y-10914196D01*
X14606293Y-10899910D01*
X14606293Y-10928482D01*
X14792007Y-11199910D02*
X14763436Y-11185624D01*
X14749150Y-11157053D01*
X14749150Y-10899910D01*
X14949150Y-11199910D02*
X14920578Y-11185624D01*
X14906293Y-11157053D01*
X14906293Y-10899910D01*
X15292007Y-11199910D02*
X15292007Y-10899910D01*
X15392007Y-11114196D01*
X15492007Y-10899910D01*
X15492007Y-11199910D01*
X15763436Y-11199910D02*
X15763436Y-11042767D01*
X15749150Y-11014196D01*
X15720578Y-10999910D01*
X15663436Y-10999910D01*
X15634864Y-11014196D01*
X15763436Y-11185624D02*
X15734864Y-11199910D01*
X15663436Y-11199910D01*
X15634864Y-11185624D01*
X15620578Y-11157053D01*
X15620578Y-11128482D01*
X15634864Y-11099910D01*
X15663436Y-11085625D01*
X15734864Y-11085625D01*
X15763436Y-11071339D01*
X15906293Y-10999910D02*
X15906293Y-11299910D01*
X15906293Y-11014196D02*
X15934864Y-10999910D01*
X15992007Y-10999910D01*
X16020578Y-11014196D01*
X16034864Y-11028482D01*
X16049150Y-11057053D01*
X16049150Y-11142767D01*
X16034864Y-11171339D01*
X16020578Y-11185624D01*
X15992007Y-11199910D01*
X15934864Y-11199910D01*
X15906293Y-11185624D01*
X16177721Y-11171339D02*
X16192007Y-11185624D01*
X16177721Y-11199910D01*
X16163436Y-11185624D01*
X16177721Y-11171339D01*
X16177721Y-11199910D01*
X16177721Y-11014196D02*
X16192007Y-11028482D01*
X16177721Y-11042767D01*
X16163436Y-11028482D01*
X16177721Y-11014196D01*
X16177721Y-11042767D01*
X13794150Y-11674196D02*
X13834150Y-11714196D01*
X13834150Y-11674196D02*
X13794150Y-11714196D01*
X14177721Y-11529910D02*
X14206293Y-11529910D01*
X14234864Y-11544196D01*
X14249150Y-11558482D01*
X14263436Y-11587053D01*
X14277721Y-11644196D01*
X14277721Y-11715624D01*
X14263436Y-11772767D01*
X14249150Y-11801339D01*
X14234864Y-11815624D01*
X14206293Y-11829910D01*
X14177721Y-11829910D01*
X14149150Y-11815624D01*
X14134864Y-11801339D01*
X14120578Y-11772767D01*
X14106293Y-11715624D01*
X14106293Y-11644196D01*
X14120578Y-11587053D01*
X14134864Y-11558482D01*
X14149150Y-11544196D01*
X14177721Y-11529910D01*
X14406293Y-11801339D02*
X14420578Y-11815624D01*
X14406293Y-11829910D01*
X14392007Y-11815624D01*
X14406293Y-11801339D01*
X14406293Y-11829910D01*
X14677721Y-11629910D02*
X14677721Y-11829910D01*
X14606293Y-11515624D02*
X14534864Y-11729910D01*
X14720578Y-11729910D01*
X14892007Y-11529910D02*
X14920578Y-11529910D01*
X14949150Y-11544196D01*
X14963436Y-11558482D01*
X14977721Y-11587053D01*
X14992007Y-11644196D01*
X14992007Y-11715624D01*
X14977721Y-11772767D01*
X14963436Y-11801339D01*
X14949150Y-11815624D01*
X14920578Y-11829910D01*
X14892007Y-11829910D01*
X14863436Y-11815624D01*
X14849150Y-11801339D01*
X14834864Y-11772767D01*
X14820578Y-11715624D01*
X14820578Y-11644196D01*
X14834864Y-11587053D01*
X14849150Y-11558482D01*
X14863436Y-11544196D01*
X14892007Y-11529910D01*
X15120578Y-11829910D02*
X15120578Y-11629910D01*
X15120578Y-11658482D02*
X15134864Y-11644196D01*
X15163436Y-11629910D01*
X15206293Y-11629910D01*
X15234864Y-11644196D01*
X15249150Y-11672767D01*
X15249150Y-11829910D01*
X15249150Y-11672767D02*
X15263436Y-11644196D01*
X15292007Y-11629910D01*
X15334864Y-11629910D01*
X15363436Y-11644196D01*
X15377721Y-11672767D01*
X15377721Y-11829910D01*
X15520578Y-11829910D02*
X15520578Y-11629910D01*
X15520578Y-11658482D02*
X15534864Y-11644196D01*
X15563436Y-11629910D01*
X15606293Y-11629910D01*
X15634864Y-11644196D01*
X15649150Y-11672767D01*
X15649150Y-11829910D01*
X15649150Y-11672767D02*
X15663436Y-11644196D01*
X15692007Y-11629910D01*
X15734864Y-11629910D01*
X15763436Y-11644196D01*
X15777721Y-11672767D01*
X15777721Y-11829910D01*
X16363436Y-11515624D02*
X16106293Y-11901339D01*
X16749150Y-11529910D02*
X16777721Y-11529910D01*
X16806293Y-11544196D01*
X16820578Y-11558482D01*
X16834864Y-11587053D01*
X16849150Y-11644196D01*
X16849150Y-11715624D01*
X16834864Y-11772767D01*
X16820578Y-11801339D01*
X16806293Y-11815624D01*
X16777721Y-11829910D01*
X16749150Y-11829910D01*
X16720578Y-11815624D01*
X16706293Y-11801339D01*
X16692007Y-11772767D01*
X16677721Y-11715624D01*
X16677721Y-11644196D01*
X16692007Y-11587053D01*
X16706293Y-11558482D01*
X16720578Y-11544196D01*
X16749150Y-11529910D01*
X16977721Y-11801339D02*
X16992007Y-11815624D01*
X16977721Y-11829910D01*
X16963436Y-11815624D01*
X16977721Y-11801339D01*
X16977721Y-11829910D01*
X17177721Y-11529910D02*
X17206293Y-11529910D01*
X17234864Y-11544196D01*
X17249150Y-11558482D01*
X17263436Y-11587053D01*
X17277721Y-11644196D01*
X17277721Y-11715624D01*
X17263436Y-11772767D01*
X17249150Y-11801339D01*
X17234864Y-11815624D01*
X17206293Y-11829910D01*
X17177721Y-11829910D01*
X17149150Y-11815624D01*
X17134864Y-11801339D01*
X17120578Y-11772767D01*
X17106293Y-11715624D01*
X17106293Y-11644196D01*
X17120578Y-11587053D01*
X17134864Y-11558482D01*
X17149150Y-11544196D01*
X17177721Y-11529910D01*
X17563436Y-11829910D02*
X17392007Y-11829910D01*
X17477721Y-11829910D02*
X17477721Y-11529910D01*
X17449150Y-11572767D01*
X17420578Y-11601339D01*
X17392007Y-11615624D01*
X17820578Y-11529910D02*
X17763436Y-11529910D01*
X17734864Y-11544196D01*
X17720578Y-11558482D01*
X17692007Y-11601339D01*
X17677721Y-11658482D01*
X17677721Y-11772767D01*
X17692007Y-11801339D01*
X17706293Y-11815624D01*
X17734864Y-11829910D01*
X17792007Y-11829910D01*
X17820578Y-11815624D01*
X17834864Y-11801339D01*
X17849150Y-11772767D01*
X17849150Y-11701339D01*
X17834864Y-11672767D01*
X17820578Y-11658482D01*
X17792007Y-11644196D01*
X17734864Y-11644196D01*
X17706293Y-11658482D01*
X17692007Y-11672767D01*
X17677721Y-11701339D01*
X17963436Y-11529910D02*
X17963436Y-11587053D01*
X18077721Y-11529910D02*
X18077721Y-11587053D01*
X18520578Y-11944196D02*
X18506293Y-11929910D01*
X18477721Y-11887053D01*
X18463436Y-11858482D01*
X18449150Y-11815624D01*
X18434864Y-11744196D01*
X18434864Y-11687053D01*
X18449150Y-11615624D01*
X18463436Y-11572767D01*
X18477721Y-11544196D01*
X18506293Y-11501339D01*
X18520578Y-11487053D01*
X18620578Y-11558482D02*
X18634864Y-11544196D01*
X18663436Y-11529910D01*
X18734864Y-11529910D01*
X18763436Y-11544196D01*
X18777721Y-11558482D01*
X18792007Y-11587053D01*
X18792007Y-11615624D01*
X18777721Y-11658482D01*
X18606293Y-11829910D01*
X18792007Y-11829910D01*
X19149150Y-11829910D02*
X19149150Y-11529910D01*
X19277721Y-11829910D02*
X19277721Y-11672767D01*
X19263436Y-11644196D01*
X19234864Y-11629910D01*
X19192007Y-11629910D01*
X19163436Y-11644196D01*
X19149150Y-11658482D01*
X19463436Y-11829910D02*
X19434864Y-11815624D01*
X19420578Y-11801339D01*
X19406293Y-11772767D01*
X19406293Y-11687053D01*
X19420578Y-11658482D01*
X19434864Y-11644196D01*
X19463436Y-11629910D01*
X19506293Y-11629910D01*
X19534864Y-11644196D01*
X19549150Y-11658482D01*
X19563436Y-11687053D01*
X19563436Y-11772767D01*
X19549150Y-11801339D01*
X19534864Y-11815624D01*
X19506293Y-11829910D01*
X19463436Y-11829910D01*
X19734864Y-11829910D02*
X19706293Y-11815624D01*
X19692007Y-11787053D01*
X19692007Y-11529910D01*
X19963436Y-11815624D02*
X19934864Y-11829910D01*
X19877721Y-11829910D01*
X19849150Y-11815624D01*
X19834864Y-11787053D01*
X19834864Y-11672767D01*
X19849150Y-11644196D01*
X19877721Y-11629910D01*
X19934864Y-11629910D01*
X19963436Y-11644196D01*
X19977721Y-11672767D01*
X19977721Y-11701339D01*
X19834864Y-11729910D01*
X20092007Y-11815624D02*
X20120578Y-11829910D01*
X20177721Y-11829910D01*
X20206293Y-11815624D01*
X20220578Y-11787053D01*
X20220578Y-11772767D01*
X20206293Y-11744196D01*
X20177721Y-11729910D01*
X20134864Y-11729910D01*
X20106293Y-11715624D01*
X20092007Y-11687053D01*
X20092007Y-11672767D01*
X20106293Y-11644196D01*
X20134864Y-11629910D01*
X20177721Y-11629910D01*
X20206293Y-11644196D01*
X20320578Y-11944196D02*
X20334864Y-11929910D01*
X20363436Y-11887053D01*
X20377721Y-11858482D01*
X20392007Y-11815624D01*
X20406293Y-11744196D01*
X20406293Y-11687053D01*
X20392007Y-11615624D01*
X20377721Y-11572767D01*
X20363436Y-11544196D01*
X20334864Y-11501339D01*
X20320578Y-11487053D01*
M02*
