G04 #@! TF.GenerationSoftware,KiCad,Pcbnew,(5.1.0)-1*
G04 #@! TF.CreationDate,2019-04-11T15:43:47-07:00*
G04 #@! TF.ProjectId,MiniScope_V4,4d696e69-5363-46f7-9065-5f56342e6b69,rev?*
G04 #@! TF.SameCoordinates,Original*
G04 #@! TF.FileFunction,Copper,L5,Inr*
G04 #@! TF.FilePolarity,Positive*
%FSLAX46Y46*%
G04 Gerber Fmt 4.6, Leading zero omitted, Abs format (unit mm)*
G04 Created by KiCad (PCBNEW (5.1.0)-1) date 2019-04-11 15:43:47*
%MOMM*%
%LPD*%
G04 APERTURE LIST*
%ADD10O,1.700000X1.700000*%
%ADD11R,1.700000X1.700000*%
%ADD12C,0.450000*%
%ADD13C,0.254000*%
G04 APERTURE END LIST*
D10*
X155041600Y-109753400D03*
X155041600Y-107213400D03*
X155041600Y-104673400D03*
X155041600Y-102133400D03*
X155041600Y-99593400D03*
X155041600Y-97053400D03*
X155041600Y-94513400D03*
D11*
X155041600Y-91973400D03*
D12*
X128498600Y-95707200D03*
X127889000Y-113004600D03*
X137185400Y-120650000D03*
X149271920Y-93211720D03*
X129415600Y-130187640D03*
X141005560Y-91485720D03*
X142722600Y-102819200D03*
X141137640Y-103606600D03*
X134482840Y-95478600D03*
X149693200Y-115142440D03*
X153136600Y-122016520D03*
X148918810Y-121621670D03*
X148595080Y-111963200D03*
X143383000Y-113106200D03*
X149204680Y-98480880D03*
X143408400Y-116814600D03*
X133248400Y-128663474D03*
X138658600Y-129692400D03*
X132664200Y-117805200D03*
X149301200Y-108077000D03*
X129175300Y-103835200D03*
X142965600Y-96581800D03*
X146735802Y-95250000D03*
X148191059Y-102418041D03*
X141935200Y-105232200D03*
X141935200Y-106019600D03*
X145897600Y-107162600D03*
X127889000Y-101015797D03*
X127889000Y-104317800D03*
X134482840Y-126918720D03*
X138170920Y-122367040D03*
X142448280Y-94020640D03*
X138170919Y-118516400D03*
X146613880Y-119959120D03*
X127889000Y-96189802D03*
X128498600Y-112522000D03*
X154279600Y-119928640D03*
X135463280Y-122321320D03*
X135168640Y-116443760D03*
X132684520Y-115529360D03*
X143377920Y-110042960D03*
X148176919Y-101058041D03*
X141122400Y-104419400D03*
X141922500Y-104457500D03*
X138747496Y-102806500D03*
X141579600Y-116306600D03*
X142722600Y-100380800D03*
X139522200Y-106019604D03*
X150241000Y-102781100D03*
X127889000Y-101981000D03*
X128498600Y-104800402D03*
X151333200Y-115092480D03*
X143510000Y-105219500D03*
X147142200Y-107213400D03*
X147235080Y-111961760D03*
X149204680Y-99766120D03*
X148513800Y-110312200D03*
X143550640Y-102001320D03*
X140335000Y-103632000D03*
X142722600Y-104419400D03*
X142951200Y-98221800D03*
X134823200Y-106420920D03*
X134823202Y-113807240D03*
X135976360Y-124338080D03*
X137922000Y-106807000D03*
X136890760Y-114635280D03*
X136885680Y-117053360D03*
X140167360Y-113294160D03*
X140131812Y-109296200D03*
X141030960Y-113314480D03*
X141020800Y-109245406D03*
X137820400Y-123489720D03*
X138734800Y-106019600D03*
X138367601Y-125603000D03*
X145872200Y-107817922D03*
X132472711Y-108180151D03*
X127889000Y-108178600D03*
X131631563Y-100763197D03*
X127889000Y-98120200D03*
X133519970Y-110093760D03*
X133913880Y-101798120D03*
X127889000Y-106248200D03*
X133070600Y-100304600D03*
X142722600Y-107619800D03*
X131089400Y-101498400D03*
D13*
G36*
X156820000Y-132690000D02*
G01*
X127660000Y-132690000D01*
X127660000Y-130102937D01*
X128555600Y-130102937D01*
X128555600Y-130272343D01*
X128588649Y-130438493D01*
X128653478Y-130595003D01*
X128747595Y-130735858D01*
X128867382Y-130855645D01*
X129008237Y-130949762D01*
X129164747Y-131014591D01*
X129330897Y-131047640D01*
X129500303Y-131047640D01*
X129666453Y-131014591D01*
X129822963Y-130949762D01*
X129963818Y-130855645D01*
X130083605Y-130735858D01*
X130177722Y-130595003D01*
X130242551Y-130438493D01*
X130275600Y-130272343D01*
X130275600Y-130102937D01*
X130242551Y-129936787D01*
X130177722Y-129780277D01*
X130083605Y-129639422D01*
X130051880Y-129607697D01*
X137798600Y-129607697D01*
X137798600Y-129777103D01*
X137831649Y-129943253D01*
X137896478Y-130099763D01*
X137990595Y-130240618D01*
X138110382Y-130360405D01*
X138251237Y-130454522D01*
X138407747Y-130519351D01*
X138573897Y-130552400D01*
X138743303Y-130552400D01*
X138909453Y-130519351D01*
X139065963Y-130454522D01*
X139206818Y-130360405D01*
X139326605Y-130240618D01*
X139420722Y-130099763D01*
X139485551Y-129943253D01*
X139518600Y-129777103D01*
X139518600Y-129607697D01*
X139485551Y-129441547D01*
X139420722Y-129285037D01*
X139326605Y-129144182D01*
X139206818Y-129024395D01*
X139065963Y-128930278D01*
X138909453Y-128865449D01*
X138743303Y-128832400D01*
X138573897Y-128832400D01*
X138407747Y-128865449D01*
X138251237Y-128930278D01*
X138110382Y-129024395D01*
X137990595Y-129144182D01*
X137896478Y-129285037D01*
X137831649Y-129441547D01*
X137798600Y-129607697D01*
X130051880Y-129607697D01*
X129963818Y-129519635D01*
X129822963Y-129425518D01*
X129666453Y-129360689D01*
X129500303Y-129327640D01*
X129330897Y-129327640D01*
X129164747Y-129360689D01*
X129008237Y-129425518D01*
X128867382Y-129519635D01*
X128747595Y-129639422D01*
X128653478Y-129780277D01*
X128588649Y-129936787D01*
X128555600Y-130102937D01*
X127660000Y-130102937D01*
X127660000Y-128578771D01*
X132388400Y-128578771D01*
X132388400Y-128748177D01*
X132421449Y-128914327D01*
X132486278Y-129070837D01*
X132580395Y-129211692D01*
X132700182Y-129331479D01*
X132841037Y-129425596D01*
X132997547Y-129490425D01*
X133163697Y-129523474D01*
X133333103Y-129523474D01*
X133499253Y-129490425D01*
X133655763Y-129425596D01*
X133796618Y-129331479D01*
X133916405Y-129211692D01*
X134010522Y-129070837D01*
X134075351Y-128914327D01*
X134108400Y-128748177D01*
X134108400Y-128578771D01*
X134075351Y-128412621D01*
X134010522Y-128256111D01*
X133916405Y-128115256D01*
X133796618Y-127995469D01*
X133655763Y-127901352D01*
X133499253Y-127836523D01*
X133333103Y-127803474D01*
X133163697Y-127803474D01*
X132997547Y-127836523D01*
X132841037Y-127901352D01*
X132700182Y-127995469D01*
X132580395Y-128115256D01*
X132486278Y-128256111D01*
X132421449Y-128412621D01*
X132388400Y-128578771D01*
X127660000Y-128578771D01*
X127660000Y-126834017D01*
X133622840Y-126834017D01*
X133622840Y-127003423D01*
X133655889Y-127169573D01*
X133720718Y-127326083D01*
X133814835Y-127466938D01*
X133934622Y-127586725D01*
X134075477Y-127680842D01*
X134231987Y-127745671D01*
X134398137Y-127778720D01*
X134567543Y-127778720D01*
X134733693Y-127745671D01*
X134890203Y-127680842D01*
X135031058Y-127586725D01*
X135150845Y-127466938D01*
X135244962Y-127326083D01*
X135309791Y-127169573D01*
X135342840Y-127003423D01*
X135342840Y-126834017D01*
X135309791Y-126667867D01*
X135244962Y-126511357D01*
X135150845Y-126370502D01*
X135031058Y-126250715D01*
X134890203Y-126156598D01*
X134733693Y-126091769D01*
X134567543Y-126058720D01*
X134398137Y-126058720D01*
X134231987Y-126091769D01*
X134075477Y-126156598D01*
X133934622Y-126250715D01*
X133814835Y-126370502D01*
X133720718Y-126511357D01*
X133655889Y-126667867D01*
X133622840Y-126834017D01*
X127660000Y-126834017D01*
X127660000Y-125518297D01*
X137507601Y-125518297D01*
X137507601Y-125687703D01*
X137540650Y-125853853D01*
X137605479Y-126010363D01*
X137699596Y-126151218D01*
X137819383Y-126271005D01*
X137960238Y-126365122D01*
X138116748Y-126429951D01*
X138282898Y-126463000D01*
X138452304Y-126463000D01*
X138618454Y-126429951D01*
X138774964Y-126365122D01*
X138915819Y-126271005D01*
X139035606Y-126151218D01*
X139129723Y-126010363D01*
X139194552Y-125853853D01*
X139227601Y-125687703D01*
X139227601Y-125518297D01*
X139194552Y-125352147D01*
X139129723Y-125195637D01*
X139035606Y-125054782D01*
X138915819Y-124934995D01*
X138774964Y-124840878D01*
X138618454Y-124776049D01*
X138452304Y-124743000D01*
X138282898Y-124743000D01*
X138116748Y-124776049D01*
X137960238Y-124840878D01*
X137819383Y-124934995D01*
X137699596Y-125054782D01*
X137605479Y-125195637D01*
X137540650Y-125352147D01*
X137507601Y-125518297D01*
X127660000Y-125518297D01*
X127660000Y-124253377D01*
X135116360Y-124253377D01*
X135116360Y-124422783D01*
X135149409Y-124588933D01*
X135214238Y-124745443D01*
X135308355Y-124886298D01*
X135428142Y-125006085D01*
X135568997Y-125100202D01*
X135725507Y-125165031D01*
X135891657Y-125198080D01*
X136061063Y-125198080D01*
X136227213Y-125165031D01*
X136383723Y-125100202D01*
X136524578Y-125006085D01*
X136644365Y-124886298D01*
X136738482Y-124745443D01*
X136803311Y-124588933D01*
X136836360Y-124422783D01*
X136836360Y-124253377D01*
X136803311Y-124087227D01*
X136738482Y-123930717D01*
X136644365Y-123789862D01*
X136524578Y-123670075D01*
X136383723Y-123575958D01*
X136227213Y-123511129D01*
X136061063Y-123478080D01*
X135891657Y-123478080D01*
X135725507Y-123511129D01*
X135568997Y-123575958D01*
X135428142Y-123670075D01*
X135308355Y-123789862D01*
X135214238Y-123930717D01*
X135149409Y-124087227D01*
X135116360Y-124253377D01*
X127660000Y-124253377D01*
X127660000Y-123405017D01*
X136960400Y-123405017D01*
X136960400Y-123574423D01*
X136993449Y-123740573D01*
X137058278Y-123897083D01*
X137152395Y-124037938D01*
X137272182Y-124157725D01*
X137413037Y-124251842D01*
X137569547Y-124316671D01*
X137735697Y-124349720D01*
X137905103Y-124349720D01*
X138071253Y-124316671D01*
X138227763Y-124251842D01*
X138368618Y-124157725D01*
X138488405Y-124037938D01*
X138582522Y-123897083D01*
X138647351Y-123740573D01*
X138680400Y-123574423D01*
X138680400Y-123405017D01*
X138647351Y-123238867D01*
X138596788Y-123116797D01*
X138719138Y-123035045D01*
X138838925Y-122915258D01*
X138933042Y-122774403D01*
X138997871Y-122617893D01*
X139030920Y-122451743D01*
X139030920Y-122282337D01*
X138997871Y-122116187D01*
X138933042Y-121959677D01*
X138838925Y-121818822D01*
X138719138Y-121699035D01*
X138578283Y-121604918D01*
X138421773Y-121540089D01*
X138406078Y-121536967D01*
X148058810Y-121536967D01*
X148058810Y-121706373D01*
X148091859Y-121872523D01*
X148156688Y-122029033D01*
X148250805Y-122169888D01*
X148370592Y-122289675D01*
X148511447Y-122383792D01*
X148667957Y-122448621D01*
X148834107Y-122481670D01*
X149003513Y-122481670D01*
X149169663Y-122448621D01*
X149326173Y-122383792D01*
X149467028Y-122289675D01*
X149586815Y-122169888D01*
X149680932Y-122029033D01*
X149721200Y-121931817D01*
X152276600Y-121931817D01*
X152276600Y-122101223D01*
X152309649Y-122267373D01*
X152374478Y-122423883D01*
X152468595Y-122564738D01*
X152588382Y-122684525D01*
X152729237Y-122778642D01*
X152885747Y-122843471D01*
X153051897Y-122876520D01*
X153221303Y-122876520D01*
X153387453Y-122843471D01*
X153543963Y-122778642D01*
X153684818Y-122684525D01*
X153804605Y-122564738D01*
X153898722Y-122423883D01*
X153963551Y-122267373D01*
X153996600Y-122101223D01*
X153996600Y-121931817D01*
X153963551Y-121765667D01*
X153898722Y-121609157D01*
X153804605Y-121468302D01*
X153684818Y-121348515D01*
X153543963Y-121254398D01*
X153387453Y-121189569D01*
X153221303Y-121156520D01*
X153051897Y-121156520D01*
X152885747Y-121189569D01*
X152729237Y-121254398D01*
X152588382Y-121348515D01*
X152468595Y-121468302D01*
X152374478Y-121609157D01*
X152309649Y-121765667D01*
X152276600Y-121931817D01*
X149721200Y-121931817D01*
X149745761Y-121872523D01*
X149778810Y-121706373D01*
X149778810Y-121536967D01*
X149745761Y-121370817D01*
X149680932Y-121214307D01*
X149586815Y-121073452D01*
X149467028Y-120953665D01*
X149326173Y-120859548D01*
X149169663Y-120794719D01*
X149003513Y-120761670D01*
X148834107Y-120761670D01*
X148667957Y-120794719D01*
X148511447Y-120859548D01*
X148370592Y-120953665D01*
X148250805Y-121073452D01*
X148156688Y-121214307D01*
X148091859Y-121370817D01*
X148058810Y-121536967D01*
X138406078Y-121536967D01*
X138255623Y-121507040D01*
X138086217Y-121507040D01*
X137920067Y-121540089D01*
X137763557Y-121604918D01*
X137622702Y-121699035D01*
X137502915Y-121818822D01*
X137408798Y-121959677D01*
X137343969Y-122116187D01*
X137310920Y-122282337D01*
X137310920Y-122451743D01*
X137343969Y-122617893D01*
X137394532Y-122739963D01*
X137272182Y-122821715D01*
X137152395Y-122941502D01*
X137058278Y-123082357D01*
X136993449Y-123238867D01*
X136960400Y-123405017D01*
X127660000Y-123405017D01*
X127660000Y-120565297D01*
X136325400Y-120565297D01*
X136325400Y-120734703D01*
X136358449Y-120900853D01*
X136423278Y-121057363D01*
X136517395Y-121198218D01*
X136637182Y-121318005D01*
X136778037Y-121412122D01*
X136934547Y-121476951D01*
X137100697Y-121510000D01*
X137270103Y-121510000D01*
X137436253Y-121476951D01*
X137592763Y-121412122D01*
X137733618Y-121318005D01*
X137853405Y-121198218D01*
X137947522Y-121057363D01*
X138012351Y-120900853D01*
X138045400Y-120734703D01*
X138045400Y-120565297D01*
X138012351Y-120399147D01*
X137947522Y-120242637D01*
X137853405Y-120101782D01*
X137733618Y-119981995D01*
X137592763Y-119887878D01*
X137560266Y-119874417D01*
X145753880Y-119874417D01*
X145753880Y-120043823D01*
X145786929Y-120209973D01*
X145851758Y-120366483D01*
X145945875Y-120507338D01*
X146065662Y-120627125D01*
X146206517Y-120721242D01*
X146363027Y-120786071D01*
X146529177Y-120819120D01*
X146698583Y-120819120D01*
X146864733Y-120786071D01*
X147021243Y-120721242D01*
X147162098Y-120627125D01*
X147281885Y-120507338D01*
X147376002Y-120366483D01*
X147440831Y-120209973D01*
X147473880Y-120043823D01*
X147473880Y-119874417D01*
X147440831Y-119708267D01*
X147376002Y-119551757D01*
X147281885Y-119410902D01*
X147162098Y-119291115D01*
X147021243Y-119196998D01*
X146864733Y-119132169D01*
X146698583Y-119099120D01*
X146529177Y-119099120D01*
X146363027Y-119132169D01*
X146206517Y-119196998D01*
X146065662Y-119291115D01*
X145945875Y-119410902D01*
X145851758Y-119551757D01*
X145786929Y-119708267D01*
X145753880Y-119874417D01*
X137560266Y-119874417D01*
X137436253Y-119823049D01*
X137270103Y-119790000D01*
X137100697Y-119790000D01*
X136934547Y-119823049D01*
X136778037Y-119887878D01*
X136637182Y-119981995D01*
X136517395Y-120101782D01*
X136423278Y-120242637D01*
X136358449Y-120399147D01*
X136325400Y-120565297D01*
X127660000Y-120565297D01*
X127660000Y-117720497D01*
X131804200Y-117720497D01*
X131804200Y-117889903D01*
X131837249Y-118056053D01*
X131902078Y-118212563D01*
X131996195Y-118353418D01*
X132115982Y-118473205D01*
X132256837Y-118567322D01*
X132413347Y-118632151D01*
X132579497Y-118665200D01*
X132748903Y-118665200D01*
X132915053Y-118632151D01*
X133071563Y-118567322D01*
X133212418Y-118473205D01*
X133253926Y-118431697D01*
X137310919Y-118431697D01*
X137310919Y-118601103D01*
X137343968Y-118767253D01*
X137408797Y-118923763D01*
X137502914Y-119064618D01*
X137622701Y-119184405D01*
X137763556Y-119278522D01*
X137920066Y-119343351D01*
X138086216Y-119376400D01*
X138255622Y-119376400D01*
X138421772Y-119343351D01*
X138578282Y-119278522D01*
X138719137Y-119184405D01*
X138838924Y-119064618D01*
X138933041Y-118923763D01*
X138997870Y-118767253D01*
X139030919Y-118601103D01*
X139030919Y-118431697D01*
X138997870Y-118265547D01*
X138933041Y-118109037D01*
X138838924Y-117968182D01*
X138719137Y-117848395D01*
X138578282Y-117754278D01*
X138421772Y-117689449D01*
X138255622Y-117656400D01*
X138086216Y-117656400D01*
X137920066Y-117689449D01*
X137763556Y-117754278D01*
X137622701Y-117848395D01*
X137502914Y-117968182D01*
X137408797Y-118109037D01*
X137343968Y-118265547D01*
X137310919Y-118431697D01*
X133253926Y-118431697D01*
X133332205Y-118353418D01*
X133426322Y-118212563D01*
X133491151Y-118056053D01*
X133524200Y-117889903D01*
X133524200Y-117720497D01*
X133491151Y-117554347D01*
X133426322Y-117397837D01*
X133332205Y-117256982D01*
X133212418Y-117137195D01*
X133071563Y-117043078D01*
X132915053Y-116978249D01*
X132866831Y-116968657D01*
X136025680Y-116968657D01*
X136025680Y-117138063D01*
X136058729Y-117304213D01*
X136123558Y-117460723D01*
X136217675Y-117601578D01*
X136337462Y-117721365D01*
X136478317Y-117815482D01*
X136634827Y-117880311D01*
X136800977Y-117913360D01*
X136970383Y-117913360D01*
X137136533Y-117880311D01*
X137293043Y-117815482D01*
X137433898Y-117721365D01*
X137553685Y-117601578D01*
X137647802Y-117460723D01*
X137712631Y-117304213D01*
X137745680Y-117138063D01*
X137745680Y-116968657D01*
X137712631Y-116802507D01*
X137682555Y-116729897D01*
X142548400Y-116729897D01*
X142548400Y-116899303D01*
X142581449Y-117065453D01*
X142646278Y-117221963D01*
X142740395Y-117362818D01*
X142860182Y-117482605D01*
X143001037Y-117576722D01*
X143157547Y-117641551D01*
X143323697Y-117674600D01*
X143493103Y-117674600D01*
X143659253Y-117641551D01*
X143815763Y-117576722D01*
X143956618Y-117482605D01*
X144076405Y-117362818D01*
X144170522Y-117221963D01*
X144235351Y-117065453D01*
X144268400Y-116899303D01*
X144268400Y-116729897D01*
X144235351Y-116563747D01*
X144170522Y-116407237D01*
X144076405Y-116266382D01*
X143956618Y-116146595D01*
X143815763Y-116052478D01*
X143659253Y-115987649D01*
X143493103Y-115954600D01*
X143323697Y-115954600D01*
X143157547Y-115987649D01*
X143001037Y-116052478D01*
X142860182Y-116146595D01*
X142740395Y-116266382D01*
X142646278Y-116407237D01*
X142581449Y-116563747D01*
X142548400Y-116729897D01*
X137682555Y-116729897D01*
X137647802Y-116645997D01*
X137553685Y-116505142D01*
X137433898Y-116385355D01*
X137293043Y-116291238D01*
X137136533Y-116226409D01*
X136970383Y-116193360D01*
X136800977Y-116193360D01*
X136634827Y-116226409D01*
X136478317Y-116291238D01*
X136337462Y-116385355D01*
X136217675Y-116505142D01*
X136123558Y-116645997D01*
X136058729Y-116802507D01*
X136025680Y-116968657D01*
X132866831Y-116968657D01*
X132748903Y-116945200D01*
X132579497Y-116945200D01*
X132413347Y-116978249D01*
X132256837Y-117043078D01*
X132115982Y-117137195D01*
X131996195Y-117256982D01*
X131902078Y-117397837D01*
X131837249Y-117554347D01*
X131804200Y-117720497D01*
X127660000Y-117720497D01*
X127660000Y-113835898D01*
X127804297Y-113864600D01*
X127973703Y-113864600D01*
X128139853Y-113831551D01*
X128296363Y-113766722D01*
X128362490Y-113722537D01*
X133963202Y-113722537D01*
X133963202Y-113891943D01*
X133996251Y-114058093D01*
X134061080Y-114214603D01*
X134155197Y-114355458D01*
X134274984Y-114475245D01*
X134415839Y-114569362D01*
X134572349Y-114634191D01*
X134738499Y-114667240D01*
X134907905Y-114667240D01*
X135074055Y-114634191D01*
X135230565Y-114569362D01*
X135258678Y-114550577D01*
X136030760Y-114550577D01*
X136030760Y-114719983D01*
X136063809Y-114886133D01*
X136128638Y-115042643D01*
X136222755Y-115183498D01*
X136342542Y-115303285D01*
X136483397Y-115397402D01*
X136639907Y-115462231D01*
X136806057Y-115495280D01*
X136975463Y-115495280D01*
X137141613Y-115462231D01*
X137298123Y-115397402D01*
X137438978Y-115303285D01*
X137558765Y-115183498D01*
X137642796Y-115057737D01*
X148833200Y-115057737D01*
X148833200Y-115227143D01*
X148866249Y-115393293D01*
X148931078Y-115549803D01*
X149025195Y-115690658D01*
X149144982Y-115810445D01*
X149285837Y-115904562D01*
X149442347Y-115969391D01*
X149608497Y-116002440D01*
X149777903Y-116002440D01*
X149944053Y-115969391D01*
X150100563Y-115904562D01*
X150241418Y-115810445D01*
X150361205Y-115690658D01*
X150455322Y-115549803D01*
X150520151Y-115393293D01*
X150522355Y-115382215D01*
X150571078Y-115499843D01*
X150665195Y-115640698D01*
X150784982Y-115760485D01*
X150925837Y-115854602D01*
X151082347Y-115919431D01*
X151248497Y-115952480D01*
X151417903Y-115952480D01*
X151584053Y-115919431D01*
X151740563Y-115854602D01*
X151881418Y-115760485D01*
X152001205Y-115640698D01*
X152095322Y-115499843D01*
X152160151Y-115343333D01*
X152193200Y-115177183D01*
X152193200Y-115007777D01*
X152160151Y-114841627D01*
X152095322Y-114685117D01*
X152001205Y-114544262D01*
X151881418Y-114424475D01*
X151740563Y-114330358D01*
X151584053Y-114265529D01*
X151417903Y-114232480D01*
X151248497Y-114232480D01*
X151082347Y-114265529D01*
X150925837Y-114330358D01*
X150784982Y-114424475D01*
X150665195Y-114544262D01*
X150571078Y-114685117D01*
X150506249Y-114841627D01*
X150504045Y-114852705D01*
X150455322Y-114735077D01*
X150361205Y-114594222D01*
X150241418Y-114474435D01*
X150100563Y-114380318D01*
X149944053Y-114315489D01*
X149777903Y-114282440D01*
X149608497Y-114282440D01*
X149442347Y-114315489D01*
X149285837Y-114380318D01*
X149144982Y-114474435D01*
X149025195Y-114594222D01*
X148931078Y-114735077D01*
X148866249Y-114891587D01*
X148833200Y-115057737D01*
X137642796Y-115057737D01*
X137652882Y-115042643D01*
X137717711Y-114886133D01*
X137750760Y-114719983D01*
X137750760Y-114550577D01*
X137717711Y-114384427D01*
X137652882Y-114227917D01*
X137558765Y-114087062D01*
X137438978Y-113967275D01*
X137298123Y-113873158D01*
X137141613Y-113808329D01*
X136975463Y-113775280D01*
X136806057Y-113775280D01*
X136639907Y-113808329D01*
X136483397Y-113873158D01*
X136342542Y-113967275D01*
X136222755Y-114087062D01*
X136128638Y-114227917D01*
X136063809Y-114384427D01*
X136030760Y-114550577D01*
X135258678Y-114550577D01*
X135371420Y-114475245D01*
X135491207Y-114355458D01*
X135585324Y-114214603D01*
X135650153Y-114058093D01*
X135683202Y-113891943D01*
X135683202Y-113722537D01*
X135650153Y-113556387D01*
X135585324Y-113399877D01*
X135491207Y-113259022D01*
X135441642Y-113209457D01*
X139307360Y-113209457D01*
X139307360Y-113378863D01*
X139340409Y-113545013D01*
X139405238Y-113701523D01*
X139499355Y-113842378D01*
X139619142Y-113962165D01*
X139759997Y-114056282D01*
X139916507Y-114121111D01*
X140082657Y-114154160D01*
X140252063Y-114154160D01*
X140418213Y-114121111D01*
X140574723Y-114056282D01*
X140583955Y-114050114D01*
X140623597Y-114076602D01*
X140780107Y-114141431D01*
X140946257Y-114174480D01*
X141115663Y-114174480D01*
X141281813Y-114141431D01*
X141438323Y-114076602D01*
X141579178Y-113982485D01*
X141698965Y-113862698D01*
X141793082Y-113721843D01*
X141857911Y-113565333D01*
X141890960Y-113399183D01*
X141890960Y-113229777D01*
X141857911Y-113063627D01*
X141840461Y-113021497D01*
X142523000Y-113021497D01*
X142523000Y-113190903D01*
X142556049Y-113357053D01*
X142620878Y-113513563D01*
X142714995Y-113654418D01*
X142834782Y-113774205D01*
X142975637Y-113868322D01*
X143132147Y-113933151D01*
X143298297Y-113966200D01*
X143467703Y-113966200D01*
X143633853Y-113933151D01*
X143790363Y-113868322D01*
X143931218Y-113774205D01*
X144051005Y-113654418D01*
X144145122Y-113513563D01*
X144209951Y-113357053D01*
X144243000Y-113190903D01*
X144243000Y-113021497D01*
X144209951Y-112855347D01*
X144145122Y-112698837D01*
X144051005Y-112557982D01*
X143931218Y-112438195D01*
X143790363Y-112344078D01*
X143633853Y-112279249D01*
X143467703Y-112246200D01*
X143298297Y-112246200D01*
X143132147Y-112279249D01*
X142975637Y-112344078D01*
X142834782Y-112438195D01*
X142714995Y-112557982D01*
X142620878Y-112698837D01*
X142556049Y-112855347D01*
X142523000Y-113021497D01*
X141840461Y-113021497D01*
X141793082Y-112907117D01*
X141698965Y-112766262D01*
X141579178Y-112646475D01*
X141438323Y-112552358D01*
X141281813Y-112487529D01*
X141115663Y-112454480D01*
X140946257Y-112454480D01*
X140780107Y-112487529D01*
X140623597Y-112552358D01*
X140614365Y-112558526D01*
X140574723Y-112532038D01*
X140418213Y-112467209D01*
X140252063Y-112434160D01*
X140082657Y-112434160D01*
X139916507Y-112467209D01*
X139759997Y-112532038D01*
X139619142Y-112626155D01*
X139499355Y-112745942D01*
X139405238Y-112886797D01*
X139340409Y-113043307D01*
X139307360Y-113209457D01*
X135441642Y-113209457D01*
X135371420Y-113139235D01*
X135230565Y-113045118D01*
X135074055Y-112980289D01*
X134907905Y-112947240D01*
X134738499Y-112947240D01*
X134572349Y-112980289D01*
X134415839Y-113045118D01*
X134274984Y-113139235D01*
X134155197Y-113259022D01*
X134061080Y-113399877D01*
X133996251Y-113556387D01*
X133963202Y-113722537D01*
X128362490Y-113722537D01*
X128437218Y-113672605D01*
X128557005Y-113552818D01*
X128651122Y-113411963D01*
X128715951Y-113255453D01*
X128749000Y-113089303D01*
X128749000Y-112919897D01*
X128715951Y-112753747D01*
X128651122Y-112597237D01*
X128557005Y-112456382D01*
X128437218Y-112336595D01*
X128296363Y-112242478D01*
X128139853Y-112177649D01*
X127973703Y-112144600D01*
X127804297Y-112144600D01*
X127660000Y-112173302D01*
X127660000Y-111877057D01*
X146375080Y-111877057D01*
X146375080Y-112046463D01*
X146408129Y-112212613D01*
X146472958Y-112369123D01*
X146567075Y-112509978D01*
X146686862Y-112629765D01*
X146827717Y-112723882D01*
X146984227Y-112788711D01*
X147150377Y-112821760D01*
X147319783Y-112821760D01*
X147485933Y-112788711D01*
X147642443Y-112723882D01*
X147783298Y-112629765D01*
X147903085Y-112509978D01*
X147914599Y-112492746D01*
X147927075Y-112511418D01*
X148046862Y-112631205D01*
X148187717Y-112725322D01*
X148344227Y-112790151D01*
X148510377Y-112823200D01*
X148679783Y-112823200D01*
X148845933Y-112790151D01*
X149002443Y-112725322D01*
X149143298Y-112631205D01*
X149263085Y-112511418D01*
X149357202Y-112370563D01*
X149422031Y-112214053D01*
X149455080Y-112047903D01*
X149455080Y-111878497D01*
X149422031Y-111712347D01*
X149357202Y-111555837D01*
X149263085Y-111414982D01*
X149143298Y-111295195D01*
X149002443Y-111201078D01*
X148845933Y-111136249D01*
X148795755Y-111126268D01*
X148921163Y-111074322D01*
X149062018Y-110980205D01*
X149181805Y-110860418D01*
X149275922Y-110719563D01*
X149340751Y-110563053D01*
X149373800Y-110396903D01*
X149373800Y-110227497D01*
X149340751Y-110061347D01*
X149275922Y-109904837D01*
X149181805Y-109763982D01*
X149062018Y-109644195D01*
X148921163Y-109550078D01*
X148764653Y-109485249D01*
X148598503Y-109452200D01*
X148429097Y-109452200D01*
X148262947Y-109485249D01*
X148106437Y-109550078D01*
X147965582Y-109644195D01*
X147845795Y-109763982D01*
X147751678Y-109904837D01*
X147686849Y-110061347D01*
X147653800Y-110227497D01*
X147653800Y-110396903D01*
X147686849Y-110563053D01*
X147751678Y-110719563D01*
X147845795Y-110860418D01*
X147965582Y-110980205D01*
X148106437Y-111074322D01*
X148262947Y-111139151D01*
X148313125Y-111149132D01*
X148187717Y-111201078D01*
X148046862Y-111295195D01*
X147927075Y-111414982D01*
X147915561Y-111432214D01*
X147903085Y-111413542D01*
X147783298Y-111293755D01*
X147642443Y-111199638D01*
X147485933Y-111134809D01*
X147319783Y-111101760D01*
X147150377Y-111101760D01*
X146984227Y-111134809D01*
X146827717Y-111199638D01*
X146686862Y-111293755D01*
X146567075Y-111413542D01*
X146472958Y-111554397D01*
X146408129Y-111710907D01*
X146375080Y-111877057D01*
X127660000Y-111877057D01*
X127660000Y-110009057D01*
X132659970Y-110009057D01*
X132659970Y-110178463D01*
X132693019Y-110344613D01*
X132757848Y-110501123D01*
X132851965Y-110641978D01*
X132971752Y-110761765D01*
X133112607Y-110855882D01*
X133269117Y-110920711D01*
X133435267Y-110953760D01*
X133604673Y-110953760D01*
X133770823Y-110920711D01*
X133927333Y-110855882D01*
X134068188Y-110761765D01*
X134187975Y-110641978D01*
X134282092Y-110501123D01*
X134346921Y-110344613D01*
X134379970Y-110178463D01*
X134379970Y-110009057D01*
X134346921Y-109842907D01*
X134282092Y-109686397D01*
X134187975Y-109545542D01*
X134068188Y-109425755D01*
X133927333Y-109331638D01*
X133770823Y-109266809D01*
X133604673Y-109233760D01*
X133435267Y-109233760D01*
X133269117Y-109266809D01*
X133112607Y-109331638D01*
X132971752Y-109425755D01*
X132851965Y-109545542D01*
X132757848Y-109686397D01*
X132693019Y-109842907D01*
X132659970Y-110009057D01*
X127660000Y-110009057D01*
X127660000Y-109211497D01*
X139271812Y-109211497D01*
X139271812Y-109380903D01*
X139304861Y-109547053D01*
X139369690Y-109703563D01*
X139463807Y-109844418D01*
X139583594Y-109964205D01*
X139724449Y-110058322D01*
X139880959Y-110123151D01*
X140047109Y-110156200D01*
X140216515Y-110156200D01*
X140382665Y-110123151D01*
X140539175Y-110058322D01*
X140614521Y-110007977D01*
X140769947Y-110072357D01*
X140936097Y-110105406D01*
X141105503Y-110105406D01*
X141271653Y-110072357D01*
X141428163Y-110007528D01*
X141569018Y-109913411D01*
X141688805Y-109793624D01*
X141782922Y-109652769D01*
X141847751Y-109496259D01*
X141880800Y-109330109D01*
X141880800Y-109160703D01*
X141847751Y-108994553D01*
X141782922Y-108838043D01*
X141688805Y-108697188D01*
X141569018Y-108577401D01*
X141428163Y-108483284D01*
X141271653Y-108418455D01*
X141105503Y-108385406D01*
X140936097Y-108385406D01*
X140769947Y-108418455D01*
X140613437Y-108483284D01*
X140538091Y-108533629D01*
X140382665Y-108469249D01*
X140216515Y-108436200D01*
X140047109Y-108436200D01*
X139880959Y-108469249D01*
X139724449Y-108534078D01*
X139583594Y-108628195D01*
X139463807Y-108747982D01*
X139369690Y-108888837D01*
X139304861Y-109045347D01*
X139271812Y-109211497D01*
X127660000Y-109211497D01*
X127660000Y-109009898D01*
X127804297Y-109038600D01*
X127973703Y-109038600D01*
X128139853Y-109005551D01*
X128296363Y-108940722D01*
X128437218Y-108846605D01*
X128557005Y-108726818D01*
X128651122Y-108585963D01*
X128715951Y-108429453D01*
X128749000Y-108263303D01*
X128749000Y-108095448D01*
X131612711Y-108095448D01*
X131612711Y-108264854D01*
X131645760Y-108431004D01*
X131710589Y-108587514D01*
X131804706Y-108728369D01*
X131924493Y-108848156D01*
X132065348Y-108942273D01*
X132221858Y-109007102D01*
X132388008Y-109040151D01*
X132557414Y-109040151D01*
X132723564Y-109007102D01*
X132880074Y-108942273D01*
X133020929Y-108848156D01*
X133140716Y-108728369D01*
X133234833Y-108587514D01*
X133299662Y-108431004D01*
X133332711Y-108264854D01*
X133332711Y-108095448D01*
X133299662Y-107929298D01*
X133234833Y-107772788D01*
X133140716Y-107631933D01*
X133020929Y-107512146D01*
X132880074Y-107418029D01*
X132723564Y-107353200D01*
X132557414Y-107320151D01*
X132388008Y-107320151D01*
X132221858Y-107353200D01*
X132065348Y-107418029D01*
X131924493Y-107512146D01*
X131804706Y-107631933D01*
X131710589Y-107772788D01*
X131645760Y-107929298D01*
X131612711Y-108095448D01*
X128749000Y-108095448D01*
X128749000Y-108093897D01*
X128715951Y-107927747D01*
X128651122Y-107771237D01*
X128557005Y-107630382D01*
X128437218Y-107510595D01*
X128296363Y-107416478D01*
X128139853Y-107351649D01*
X127973703Y-107318600D01*
X127804297Y-107318600D01*
X127660000Y-107347302D01*
X127660000Y-107079498D01*
X127804297Y-107108200D01*
X127973703Y-107108200D01*
X128139853Y-107075151D01*
X128296363Y-107010322D01*
X128437218Y-106916205D01*
X128557005Y-106796418D01*
X128651122Y-106655563D01*
X128715951Y-106499053D01*
X128748340Y-106336217D01*
X133963200Y-106336217D01*
X133963200Y-106505623D01*
X133996249Y-106671773D01*
X134061078Y-106828283D01*
X134155195Y-106969138D01*
X134274982Y-107088925D01*
X134415837Y-107183042D01*
X134572347Y-107247871D01*
X134738497Y-107280920D01*
X134907903Y-107280920D01*
X135074053Y-107247871D01*
X135230563Y-107183042D01*
X135371418Y-107088925D01*
X135491205Y-106969138D01*
X135585322Y-106828283D01*
X135629223Y-106722297D01*
X137062000Y-106722297D01*
X137062000Y-106891703D01*
X137095049Y-107057853D01*
X137159878Y-107214363D01*
X137253995Y-107355218D01*
X137373782Y-107475005D01*
X137514637Y-107569122D01*
X137671147Y-107633951D01*
X137837297Y-107667000D01*
X138006703Y-107667000D01*
X138172853Y-107633951D01*
X138329363Y-107569122D01*
X138380284Y-107535097D01*
X141862600Y-107535097D01*
X141862600Y-107704503D01*
X141895649Y-107870653D01*
X141960478Y-108027163D01*
X142054595Y-108168018D01*
X142174382Y-108287805D01*
X142315237Y-108381922D01*
X142471747Y-108446751D01*
X142637897Y-108479800D01*
X142807303Y-108479800D01*
X142973453Y-108446751D01*
X143129963Y-108381922D01*
X143270818Y-108287805D01*
X143390605Y-108168018D01*
X143484722Y-108027163D01*
X143549551Y-107870653D01*
X143576888Y-107733219D01*
X145012200Y-107733219D01*
X145012200Y-107902625D01*
X145045249Y-108068775D01*
X145110078Y-108225285D01*
X145204195Y-108366140D01*
X145323982Y-108485927D01*
X145464837Y-108580044D01*
X145621347Y-108644873D01*
X145787497Y-108677922D01*
X145956903Y-108677922D01*
X146123053Y-108644873D01*
X146279563Y-108580044D01*
X146420418Y-108485927D01*
X146540205Y-108366140D01*
X146634322Y-108225285D01*
X146699151Y-108068775D01*
X146719710Y-107965415D01*
X146734837Y-107975522D01*
X146891347Y-108040351D01*
X147057497Y-108073400D01*
X147226903Y-108073400D01*
X147393053Y-108040351D01*
X147509064Y-107992297D01*
X148441200Y-107992297D01*
X148441200Y-108161703D01*
X148474249Y-108327853D01*
X148539078Y-108484363D01*
X148633195Y-108625218D01*
X148752982Y-108745005D01*
X148893837Y-108839122D01*
X149050347Y-108903951D01*
X149216497Y-108937000D01*
X149385903Y-108937000D01*
X149552053Y-108903951D01*
X149708563Y-108839122D01*
X149849418Y-108745005D01*
X149969205Y-108625218D01*
X150063322Y-108484363D01*
X150128151Y-108327853D01*
X150161200Y-108161703D01*
X150161200Y-107992297D01*
X150128151Y-107826147D01*
X150063322Y-107669637D01*
X149969205Y-107528782D01*
X149849418Y-107408995D01*
X149708563Y-107314878D01*
X149552053Y-107250049D01*
X149385903Y-107217000D01*
X149216497Y-107217000D01*
X149050347Y-107250049D01*
X148893837Y-107314878D01*
X148752982Y-107408995D01*
X148633195Y-107528782D01*
X148539078Y-107669637D01*
X148474249Y-107826147D01*
X148441200Y-107992297D01*
X147509064Y-107992297D01*
X147549563Y-107975522D01*
X147690418Y-107881405D01*
X147810205Y-107761618D01*
X147904322Y-107620763D01*
X147969151Y-107464253D01*
X148002200Y-107298103D01*
X148002200Y-107128697D01*
X147969151Y-106962547D01*
X147904322Y-106806037D01*
X147810205Y-106665182D01*
X147690418Y-106545395D01*
X147549563Y-106451278D01*
X147393053Y-106386449D01*
X147226903Y-106353400D01*
X147057497Y-106353400D01*
X146891347Y-106386449D01*
X146734837Y-106451278D01*
X146593982Y-106545395D01*
X146545300Y-106594077D01*
X146445818Y-106494595D01*
X146304963Y-106400478D01*
X146148453Y-106335649D01*
X145982303Y-106302600D01*
X145812897Y-106302600D01*
X145646747Y-106335649D01*
X145490237Y-106400478D01*
X145349382Y-106494595D01*
X145229595Y-106614382D01*
X145135478Y-106755237D01*
X145070649Y-106911747D01*
X145037600Y-107077897D01*
X145037600Y-107247303D01*
X145070649Y-107413453D01*
X145089764Y-107459601D01*
X145045249Y-107567069D01*
X145012200Y-107733219D01*
X143576888Y-107733219D01*
X143582600Y-107704503D01*
X143582600Y-107535097D01*
X143549551Y-107368947D01*
X143484722Y-107212437D01*
X143390605Y-107071582D01*
X143270818Y-106951795D01*
X143129963Y-106857678D01*
X142973453Y-106792849D01*
X142807303Y-106759800D01*
X142637897Y-106759800D01*
X142471747Y-106792849D01*
X142315237Y-106857678D01*
X142174382Y-106951795D01*
X142054595Y-107071582D01*
X141960478Y-107212437D01*
X141895649Y-107368947D01*
X141862600Y-107535097D01*
X138380284Y-107535097D01*
X138470218Y-107475005D01*
X138590005Y-107355218D01*
X138684122Y-107214363D01*
X138748951Y-107057853D01*
X138782000Y-106891703D01*
X138782000Y-106879600D01*
X138819503Y-106879600D01*
X138985653Y-106846551D01*
X139142163Y-106781722D01*
X139283018Y-106687605D01*
X139402805Y-106567818D01*
X139496922Y-106426963D01*
X139561751Y-106270453D01*
X139594800Y-106104303D01*
X139594800Y-105934897D01*
X139561751Y-105768747D01*
X139496922Y-105612237D01*
X139402805Y-105471382D01*
X139283018Y-105351595D01*
X139142163Y-105257478D01*
X138985653Y-105192649D01*
X138819503Y-105159600D01*
X138650097Y-105159600D01*
X138483947Y-105192649D01*
X138327437Y-105257478D01*
X138186582Y-105351595D01*
X138066795Y-105471382D01*
X137972678Y-105612237D01*
X137907849Y-105768747D01*
X137874800Y-105934897D01*
X137874800Y-105947000D01*
X137837297Y-105947000D01*
X137671147Y-105980049D01*
X137514637Y-106044878D01*
X137373782Y-106138995D01*
X137253995Y-106258782D01*
X137159878Y-106399637D01*
X137095049Y-106556147D01*
X137062000Y-106722297D01*
X135629223Y-106722297D01*
X135650151Y-106671773D01*
X135683200Y-106505623D01*
X135683200Y-106336217D01*
X135650151Y-106170067D01*
X135585322Y-106013557D01*
X135491205Y-105872702D01*
X135371418Y-105752915D01*
X135230563Y-105658798D01*
X135074053Y-105593969D01*
X134907903Y-105560920D01*
X134738497Y-105560920D01*
X134572347Y-105593969D01*
X134415837Y-105658798D01*
X134274982Y-105752915D01*
X134155195Y-105872702D01*
X134061078Y-106013557D01*
X133996249Y-106170067D01*
X133963200Y-106336217D01*
X128748340Y-106336217D01*
X128749000Y-106332903D01*
X128749000Y-106163497D01*
X128715951Y-105997347D01*
X128651122Y-105840837D01*
X128557005Y-105699982D01*
X128517425Y-105660402D01*
X128583303Y-105660402D01*
X128749453Y-105627353D01*
X128905963Y-105562524D01*
X129046818Y-105468407D01*
X129166605Y-105348620D01*
X129260722Y-105207765D01*
X129285685Y-105147497D01*
X141075200Y-105147497D01*
X141075200Y-105316903D01*
X141108249Y-105483053D01*
X141167419Y-105625900D01*
X141108249Y-105768747D01*
X141075200Y-105934897D01*
X141075200Y-106104303D01*
X141108249Y-106270453D01*
X141173078Y-106426963D01*
X141267195Y-106567818D01*
X141386982Y-106687605D01*
X141527837Y-106781722D01*
X141684347Y-106846551D01*
X141850497Y-106879600D01*
X142019903Y-106879600D01*
X142186053Y-106846551D01*
X142342563Y-106781722D01*
X142483418Y-106687605D01*
X142603205Y-106567818D01*
X142697322Y-106426963D01*
X142762151Y-106270453D01*
X142795200Y-106104303D01*
X142795200Y-105934897D01*
X142762151Y-105768747D01*
X142702981Y-105625900D01*
X142725230Y-105572187D01*
X142747878Y-105626863D01*
X142841995Y-105767718D01*
X142961782Y-105887505D01*
X143102637Y-105981622D01*
X143259147Y-106046451D01*
X143425297Y-106079500D01*
X143594703Y-106079500D01*
X143760853Y-106046451D01*
X143917363Y-105981622D01*
X144058218Y-105887505D01*
X144178005Y-105767718D01*
X144272122Y-105626863D01*
X144336951Y-105470353D01*
X144370000Y-105304203D01*
X144370000Y-105134797D01*
X144336951Y-104968647D01*
X144272122Y-104812137D01*
X144178005Y-104671282D01*
X144058218Y-104551495D01*
X143917363Y-104457378D01*
X143760853Y-104392549D01*
X143594703Y-104359500D01*
X143582600Y-104359500D01*
X143582600Y-104334697D01*
X143549551Y-104168547D01*
X143484722Y-104012037D01*
X143390605Y-103871182D01*
X143270818Y-103751395D01*
X143129963Y-103657278D01*
X143038277Y-103619300D01*
X143129963Y-103581322D01*
X143270818Y-103487205D01*
X143390605Y-103367418D01*
X143484722Y-103226563D01*
X143549551Y-103070053D01*
X143582600Y-102903903D01*
X143582600Y-102861320D01*
X143635343Y-102861320D01*
X143801493Y-102828271D01*
X143958003Y-102763442D01*
X144098858Y-102669325D01*
X144218645Y-102549538D01*
X144312762Y-102408683D01*
X144343971Y-102333338D01*
X147331059Y-102333338D01*
X147331059Y-102502744D01*
X147364108Y-102668894D01*
X147428937Y-102825404D01*
X147523054Y-102966259D01*
X147642841Y-103086046D01*
X147783696Y-103180163D01*
X147940206Y-103244992D01*
X148106356Y-103278041D01*
X148275762Y-103278041D01*
X148441912Y-103244992D01*
X148598422Y-103180163D01*
X148739277Y-103086046D01*
X148859064Y-102966259D01*
X148953181Y-102825404D01*
X149018010Y-102668894D01*
X149051059Y-102502744D01*
X149051059Y-102333338D01*
X149018010Y-102167188D01*
X148953181Y-102010678D01*
X148859064Y-101869823D01*
X148739277Y-101750036D01*
X148598422Y-101655919D01*
X148441912Y-101591090D01*
X148275762Y-101558041D01*
X148106356Y-101558041D01*
X147940206Y-101591090D01*
X147783696Y-101655919D01*
X147642841Y-101750036D01*
X147523054Y-101869823D01*
X147428937Y-102010678D01*
X147364108Y-102167188D01*
X147331059Y-102333338D01*
X144343971Y-102333338D01*
X144377591Y-102252173D01*
X144410640Y-102086023D01*
X144410640Y-101916617D01*
X144377591Y-101750467D01*
X144312762Y-101593957D01*
X144218645Y-101453102D01*
X144098858Y-101333315D01*
X143958003Y-101239198D01*
X143801493Y-101174369D01*
X143635343Y-101141320D01*
X143465937Y-101141320D01*
X143299787Y-101174369D01*
X143143277Y-101239198D01*
X143002422Y-101333315D01*
X142882635Y-101453102D01*
X142788518Y-101593957D01*
X142723689Y-101750467D01*
X142690640Y-101916617D01*
X142690640Y-101959200D01*
X142637897Y-101959200D01*
X142471747Y-101992249D01*
X142315237Y-102057078D01*
X142174382Y-102151195D01*
X142054595Y-102270982D01*
X141960478Y-102411837D01*
X141895649Y-102568347D01*
X141862600Y-102734497D01*
X141862600Y-102903903D01*
X141895649Y-103070053D01*
X141960478Y-103226563D01*
X142054595Y-103367418D01*
X142174382Y-103487205D01*
X142315237Y-103581322D01*
X142406923Y-103619300D01*
X142315237Y-103657278D01*
X142174382Y-103751395D01*
X142054595Y-103871182D01*
X141960478Y-104012037D01*
X141895649Y-104168547D01*
X141862600Y-104334697D01*
X141862600Y-104372200D01*
X141850497Y-104372200D01*
X141684347Y-104405249D01*
X141527837Y-104470078D01*
X141386982Y-104564195D01*
X141267195Y-104683982D01*
X141173078Y-104824837D01*
X141108249Y-104981347D01*
X141075200Y-105147497D01*
X129285685Y-105147497D01*
X129325551Y-105051255D01*
X129358600Y-104885105D01*
X129358600Y-104715699D01*
X129350925Y-104677115D01*
X129426153Y-104662151D01*
X129582663Y-104597322D01*
X129723518Y-104503205D01*
X129843305Y-104383418D01*
X129937422Y-104242563D01*
X130002251Y-104086053D01*
X130035300Y-103919903D01*
X130035300Y-103750497D01*
X130002251Y-103584347D01*
X129986905Y-103547297D01*
X139475000Y-103547297D01*
X139475000Y-103716703D01*
X139508049Y-103882853D01*
X139572878Y-104039363D01*
X139666995Y-104180218D01*
X139786782Y-104300005D01*
X139927637Y-104394122D01*
X140084147Y-104458951D01*
X140250297Y-104492000D01*
X140419703Y-104492000D01*
X140585853Y-104458951D01*
X140742363Y-104394122D01*
X140761204Y-104381533D01*
X140886787Y-104433551D01*
X141052937Y-104466600D01*
X141222343Y-104466600D01*
X141388493Y-104433551D01*
X141545003Y-104368722D01*
X141685858Y-104274605D01*
X141805645Y-104154818D01*
X141899762Y-104013963D01*
X141964591Y-103857453D01*
X141997640Y-103691303D01*
X141997640Y-103521897D01*
X141964591Y-103355747D01*
X141899762Y-103199237D01*
X141805645Y-103058382D01*
X141685858Y-102938595D01*
X141545003Y-102844478D01*
X141388493Y-102779649D01*
X141222343Y-102746600D01*
X141052937Y-102746600D01*
X140886787Y-102779649D01*
X140730277Y-102844478D01*
X140711436Y-102857067D01*
X140585853Y-102805049D01*
X140419703Y-102772000D01*
X140250297Y-102772000D01*
X140084147Y-102805049D01*
X139927637Y-102869878D01*
X139786782Y-102963995D01*
X139666995Y-103083782D01*
X139572878Y-103224637D01*
X139508049Y-103381147D01*
X139475000Y-103547297D01*
X129986905Y-103547297D01*
X129937422Y-103427837D01*
X129843305Y-103286982D01*
X129723518Y-103167195D01*
X129582663Y-103073078D01*
X129426153Y-103008249D01*
X129260003Y-102975200D01*
X129090597Y-102975200D01*
X128924447Y-103008249D01*
X128767937Y-103073078D01*
X128627082Y-103167195D01*
X128507295Y-103286982D01*
X128413178Y-103427837D01*
X128348349Y-103584347D01*
X128347284Y-103589702D01*
X128296363Y-103555678D01*
X128139853Y-103490849D01*
X127973703Y-103457800D01*
X127804297Y-103457800D01*
X127660000Y-103486502D01*
X127660000Y-102812298D01*
X127804297Y-102841000D01*
X127973703Y-102841000D01*
X128139853Y-102807951D01*
X128296363Y-102743122D01*
X128437218Y-102649005D01*
X128557005Y-102529218D01*
X128651122Y-102388363D01*
X128715951Y-102231853D01*
X128749000Y-102065703D01*
X128749000Y-101896297D01*
X128715951Y-101730147D01*
X128651122Y-101573637D01*
X128600849Y-101498399D01*
X128651122Y-101423160D01*
X128655041Y-101413697D01*
X130229400Y-101413697D01*
X130229400Y-101583103D01*
X130262449Y-101749253D01*
X130327278Y-101905763D01*
X130421395Y-102046618D01*
X130541182Y-102166405D01*
X130682037Y-102260522D01*
X130838547Y-102325351D01*
X131004697Y-102358400D01*
X131174103Y-102358400D01*
X131340253Y-102325351D01*
X131496763Y-102260522D01*
X131637618Y-102166405D01*
X131757405Y-102046618D01*
X131851522Y-101905763D01*
X131916351Y-101749253D01*
X131949400Y-101583103D01*
X131949400Y-101562402D01*
X132038926Y-101525319D01*
X132179781Y-101431202D01*
X132299568Y-101311415D01*
X132393685Y-101170560D01*
X132458514Y-101014050D01*
X132475986Y-100926209D01*
X132522382Y-100972605D01*
X132663237Y-101066722D01*
X132819747Y-101131551D01*
X132985897Y-101164600D01*
X133155303Y-101164600D01*
X133321453Y-101131551D01*
X133432112Y-101085714D01*
X133365662Y-101130115D01*
X133245875Y-101249902D01*
X133151758Y-101390757D01*
X133086929Y-101547267D01*
X133053880Y-101713417D01*
X133053880Y-101882823D01*
X133086929Y-102048973D01*
X133151758Y-102205483D01*
X133245875Y-102346338D01*
X133365662Y-102466125D01*
X133506517Y-102560242D01*
X133663027Y-102625071D01*
X133829177Y-102658120D01*
X133998583Y-102658120D01*
X134164733Y-102625071D01*
X134321243Y-102560242D01*
X134462098Y-102466125D01*
X134581885Y-102346338D01*
X134676002Y-102205483D01*
X134740831Y-102048973D01*
X134773880Y-101882823D01*
X134773880Y-101713417D01*
X134740831Y-101547267D01*
X134676002Y-101390757D01*
X134581885Y-101249902D01*
X134462098Y-101130115D01*
X134321243Y-101035998D01*
X134164733Y-100971169D01*
X133998583Y-100938120D01*
X133829177Y-100938120D01*
X133663027Y-100971169D01*
X133552368Y-101017006D01*
X133618818Y-100972605D01*
X133738605Y-100852818D01*
X133832722Y-100711963D01*
X133897551Y-100555453D01*
X133930600Y-100389303D01*
X133930600Y-100219897D01*
X133897551Y-100053747D01*
X133832722Y-99897237D01*
X133738605Y-99756382D01*
X133618818Y-99636595D01*
X133477963Y-99542478D01*
X133321453Y-99477649D01*
X133155303Y-99444600D01*
X132985897Y-99444600D01*
X132819747Y-99477649D01*
X132663237Y-99542478D01*
X132522382Y-99636595D01*
X132402595Y-99756382D01*
X132308478Y-99897237D01*
X132243649Y-100053747D01*
X132226177Y-100141588D01*
X132179781Y-100095192D01*
X132038926Y-100001075D01*
X131882416Y-99936246D01*
X131716266Y-99903197D01*
X131546860Y-99903197D01*
X131380710Y-99936246D01*
X131224200Y-100001075D01*
X131083345Y-100095192D01*
X130963558Y-100214979D01*
X130869441Y-100355834D01*
X130804612Y-100512344D01*
X130771563Y-100678494D01*
X130771563Y-100699195D01*
X130682037Y-100736278D01*
X130541182Y-100830395D01*
X130421395Y-100950182D01*
X130327278Y-101091037D01*
X130262449Y-101247547D01*
X130229400Y-101413697D01*
X128655041Y-101413697D01*
X128715951Y-101266650D01*
X128749000Y-101100500D01*
X128749000Y-100931094D01*
X128715951Y-100764944D01*
X128651122Y-100608434D01*
X128557005Y-100467579D01*
X128437218Y-100347792D01*
X128296363Y-100253675D01*
X128139853Y-100188846D01*
X127973703Y-100155797D01*
X127804297Y-100155797D01*
X127660000Y-100184499D01*
X127660000Y-98951498D01*
X127804297Y-98980200D01*
X127973703Y-98980200D01*
X128139853Y-98947151D01*
X128296363Y-98882322D01*
X128437218Y-98788205D01*
X128557005Y-98668418D01*
X128651122Y-98527563D01*
X128715951Y-98371053D01*
X128749000Y-98204903D01*
X128749000Y-98137097D01*
X142091200Y-98137097D01*
X142091200Y-98306503D01*
X142124249Y-98472653D01*
X142189078Y-98629163D01*
X142283195Y-98770018D01*
X142402982Y-98889805D01*
X142543837Y-98983922D01*
X142700347Y-99048751D01*
X142866497Y-99081800D01*
X143035903Y-99081800D01*
X143202053Y-99048751D01*
X143358563Y-98983922D01*
X143499418Y-98889805D01*
X143619205Y-98770018D01*
X143713322Y-98629163D01*
X143778151Y-98472653D01*
X143793362Y-98396177D01*
X148344680Y-98396177D01*
X148344680Y-98565583D01*
X148377729Y-98731733D01*
X148442558Y-98888243D01*
X148536675Y-99029098D01*
X148631077Y-99123500D01*
X148536675Y-99217902D01*
X148442558Y-99358757D01*
X148377729Y-99515267D01*
X148344680Y-99681417D01*
X148344680Y-99850823D01*
X148377729Y-100016973D01*
X148442558Y-100173483D01*
X148536675Y-100314338D01*
X148656462Y-100434125D01*
X148797317Y-100528242D01*
X148953827Y-100593071D01*
X149119977Y-100626120D01*
X149289383Y-100626120D01*
X149455533Y-100593071D01*
X149612043Y-100528242D01*
X149752898Y-100434125D01*
X149872685Y-100314338D01*
X149966802Y-100173483D01*
X150031631Y-100016973D01*
X150064680Y-99850823D01*
X150064680Y-99681417D01*
X150031631Y-99515267D01*
X149966802Y-99358757D01*
X149872685Y-99217902D01*
X149778283Y-99123500D01*
X149872685Y-99029098D01*
X149966802Y-98888243D01*
X150031631Y-98731733D01*
X150064680Y-98565583D01*
X150064680Y-98396177D01*
X150031631Y-98230027D01*
X149966802Y-98073517D01*
X149872685Y-97932662D01*
X149752898Y-97812875D01*
X149612043Y-97718758D01*
X149455533Y-97653929D01*
X149289383Y-97620880D01*
X149119977Y-97620880D01*
X148953827Y-97653929D01*
X148797317Y-97718758D01*
X148656462Y-97812875D01*
X148536675Y-97932662D01*
X148442558Y-98073517D01*
X148377729Y-98230027D01*
X148344680Y-98396177D01*
X143793362Y-98396177D01*
X143811200Y-98306503D01*
X143811200Y-98137097D01*
X143778151Y-97970947D01*
X143713322Y-97814437D01*
X143619205Y-97673582D01*
X143499418Y-97553795D01*
X143358563Y-97459678D01*
X143226034Y-97404782D01*
X143372963Y-97343922D01*
X143513818Y-97249805D01*
X143633605Y-97130018D01*
X143727722Y-96989163D01*
X143792551Y-96832653D01*
X143825600Y-96666503D01*
X143825600Y-96497097D01*
X143792551Y-96330947D01*
X143727722Y-96174437D01*
X143633605Y-96033582D01*
X143513818Y-95913795D01*
X143372963Y-95819678D01*
X143216453Y-95754849D01*
X143050303Y-95721800D01*
X142880897Y-95721800D01*
X142714747Y-95754849D01*
X142558237Y-95819678D01*
X142417382Y-95913795D01*
X142297595Y-96033582D01*
X142203478Y-96174437D01*
X142138649Y-96330947D01*
X142105600Y-96497097D01*
X142105600Y-96666503D01*
X142138649Y-96832653D01*
X142203478Y-96989163D01*
X142297595Y-97130018D01*
X142417382Y-97249805D01*
X142558237Y-97343922D01*
X142690766Y-97398818D01*
X142543837Y-97459678D01*
X142402982Y-97553795D01*
X142283195Y-97673582D01*
X142189078Y-97814437D01*
X142124249Y-97970947D01*
X142091200Y-98137097D01*
X128749000Y-98137097D01*
X128749000Y-98035497D01*
X128715951Y-97869347D01*
X128651122Y-97712837D01*
X128557005Y-97571982D01*
X128437218Y-97452195D01*
X128296363Y-97358078D01*
X128139853Y-97293249D01*
X127973703Y-97260200D01*
X127804297Y-97260200D01*
X127660000Y-97288902D01*
X127660000Y-95899489D01*
X127671649Y-95958053D01*
X127736478Y-96114563D01*
X127830595Y-96255418D01*
X127950382Y-96375205D01*
X128091237Y-96469322D01*
X128247747Y-96534151D01*
X128413897Y-96567200D01*
X128583303Y-96567200D01*
X128749453Y-96534151D01*
X128905963Y-96469322D01*
X129046818Y-96375205D01*
X129166605Y-96255418D01*
X129260722Y-96114563D01*
X129325551Y-95958053D01*
X129358600Y-95791903D01*
X129358600Y-95622497D01*
X129325551Y-95456347D01*
X129299684Y-95393897D01*
X133622840Y-95393897D01*
X133622840Y-95563303D01*
X133655889Y-95729453D01*
X133720718Y-95885963D01*
X133814835Y-96026818D01*
X133934622Y-96146605D01*
X134075477Y-96240722D01*
X134231987Y-96305551D01*
X134398137Y-96338600D01*
X134567543Y-96338600D01*
X134733693Y-96305551D01*
X134890203Y-96240722D01*
X135031058Y-96146605D01*
X135150845Y-96026818D01*
X135244962Y-95885963D01*
X135309791Y-95729453D01*
X135342840Y-95563303D01*
X135342840Y-95393897D01*
X135309791Y-95227747D01*
X135283924Y-95165297D01*
X145875802Y-95165297D01*
X145875802Y-95334703D01*
X145908851Y-95500853D01*
X145973680Y-95657363D01*
X146067797Y-95798218D01*
X146187584Y-95918005D01*
X146328439Y-96012122D01*
X146484949Y-96076951D01*
X146651099Y-96110000D01*
X146820505Y-96110000D01*
X146986655Y-96076951D01*
X147143165Y-96012122D01*
X147284020Y-95918005D01*
X147403807Y-95798218D01*
X147497924Y-95657363D01*
X147562753Y-95500853D01*
X147595802Y-95334703D01*
X147595802Y-95165297D01*
X147562753Y-94999147D01*
X147497924Y-94842637D01*
X147403807Y-94701782D01*
X147284020Y-94581995D01*
X147181362Y-94513400D01*
X153549415Y-94513400D01*
X153578087Y-94804511D01*
X153663001Y-95084434D01*
X153800894Y-95342414D01*
X153986466Y-95568534D01*
X154212586Y-95754106D01*
X154267391Y-95783400D01*
X154212586Y-95812694D01*
X153986466Y-95998266D01*
X153800894Y-96224386D01*
X153663001Y-96482366D01*
X153578087Y-96762289D01*
X153549415Y-97053400D01*
X153578087Y-97344511D01*
X153663001Y-97624434D01*
X153800894Y-97882414D01*
X153986466Y-98108534D01*
X154212586Y-98294106D01*
X154267391Y-98323400D01*
X154212586Y-98352694D01*
X153986466Y-98538266D01*
X153800894Y-98764386D01*
X153663001Y-99022366D01*
X153578087Y-99302289D01*
X153549415Y-99593400D01*
X153578087Y-99884511D01*
X153663001Y-100164434D01*
X153800894Y-100422414D01*
X153986466Y-100648534D01*
X154212586Y-100834106D01*
X154267391Y-100863400D01*
X154212586Y-100892694D01*
X153986466Y-101078266D01*
X153800894Y-101304386D01*
X153663001Y-101562366D01*
X153578087Y-101842289D01*
X153549415Y-102133400D01*
X153578087Y-102424511D01*
X153663001Y-102704434D01*
X153800894Y-102962414D01*
X153986466Y-103188534D01*
X154212586Y-103374106D01*
X154267391Y-103403400D01*
X154212586Y-103432694D01*
X153986466Y-103618266D01*
X153800894Y-103844386D01*
X153663001Y-104102366D01*
X153578087Y-104382289D01*
X153549415Y-104673400D01*
X153578087Y-104964511D01*
X153663001Y-105244434D01*
X153800894Y-105502414D01*
X153986466Y-105728534D01*
X154212586Y-105914106D01*
X154267391Y-105943400D01*
X154212586Y-105972694D01*
X153986466Y-106158266D01*
X153800894Y-106384386D01*
X153663001Y-106642366D01*
X153578087Y-106922289D01*
X153549415Y-107213400D01*
X153578087Y-107504511D01*
X153663001Y-107784434D01*
X153800894Y-108042414D01*
X153986466Y-108268534D01*
X154212586Y-108454106D01*
X154267391Y-108483400D01*
X154212586Y-108512694D01*
X153986466Y-108698266D01*
X153800894Y-108924386D01*
X153663001Y-109182366D01*
X153578087Y-109462289D01*
X153549415Y-109753400D01*
X153578087Y-110044511D01*
X153663001Y-110324434D01*
X153800894Y-110582414D01*
X153986466Y-110808534D01*
X154212586Y-110994106D01*
X154470566Y-111131999D01*
X154750489Y-111216913D01*
X154968650Y-111238400D01*
X155114550Y-111238400D01*
X155332711Y-111216913D01*
X155612634Y-111131999D01*
X155870614Y-110994106D01*
X156096734Y-110808534D01*
X156282306Y-110582414D01*
X156420199Y-110324434D01*
X156505113Y-110044511D01*
X156533785Y-109753400D01*
X156505113Y-109462289D01*
X156420199Y-109182366D01*
X156282306Y-108924386D01*
X156096734Y-108698266D01*
X155870614Y-108512694D01*
X155815809Y-108483400D01*
X155870614Y-108454106D01*
X156096734Y-108268534D01*
X156282306Y-108042414D01*
X156420199Y-107784434D01*
X156505113Y-107504511D01*
X156533785Y-107213400D01*
X156505113Y-106922289D01*
X156420199Y-106642366D01*
X156282306Y-106384386D01*
X156096734Y-106158266D01*
X155870614Y-105972694D01*
X155815809Y-105943400D01*
X155870614Y-105914106D01*
X156096734Y-105728534D01*
X156282306Y-105502414D01*
X156420199Y-105244434D01*
X156505113Y-104964511D01*
X156533785Y-104673400D01*
X156505113Y-104382289D01*
X156420199Y-104102366D01*
X156282306Y-103844386D01*
X156096734Y-103618266D01*
X155870614Y-103432694D01*
X155815809Y-103403400D01*
X155870614Y-103374106D01*
X156096734Y-103188534D01*
X156282306Y-102962414D01*
X156420199Y-102704434D01*
X156505113Y-102424511D01*
X156533785Y-102133400D01*
X156505113Y-101842289D01*
X156420199Y-101562366D01*
X156282306Y-101304386D01*
X156096734Y-101078266D01*
X155870614Y-100892694D01*
X155815809Y-100863400D01*
X155870614Y-100834106D01*
X156096734Y-100648534D01*
X156282306Y-100422414D01*
X156420199Y-100164434D01*
X156505113Y-99884511D01*
X156533785Y-99593400D01*
X156505113Y-99302289D01*
X156420199Y-99022366D01*
X156282306Y-98764386D01*
X156096734Y-98538266D01*
X155870614Y-98352694D01*
X155815809Y-98323400D01*
X155870614Y-98294106D01*
X156096734Y-98108534D01*
X156282306Y-97882414D01*
X156420199Y-97624434D01*
X156505113Y-97344511D01*
X156533785Y-97053400D01*
X156505113Y-96762289D01*
X156420199Y-96482366D01*
X156282306Y-96224386D01*
X156096734Y-95998266D01*
X155870614Y-95812694D01*
X155815809Y-95783400D01*
X155870614Y-95754106D01*
X156096734Y-95568534D01*
X156282306Y-95342414D01*
X156420199Y-95084434D01*
X156505113Y-94804511D01*
X156533785Y-94513400D01*
X156505113Y-94222289D01*
X156420199Y-93942366D01*
X156282306Y-93684386D01*
X156096734Y-93458266D01*
X156066913Y-93433793D01*
X156135780Y-93412902D01*
X156246094Y-93353937D01*
X156342785Y-93274585D01*
X156422137Y-93177894D01*
X156481102Y-93067580D01*
X156517412Y-92947882D01*
X156529672Y-92823400D01*
X156529672Y-91123400D01*
X156517412Y-90998918D01*
X156481102Y-90879220D01*
X156422137Y-90768906D01*
X156342785Y-90672215D01*
X156246094Y-90592863D01*
X156135780Y-90533898D01*
X156016082Y-90497588D01*
X155891600Y-90485328D01*
X154191600Y-90485328D01*
X154067118Y-90497588D01*
X153947420Y-90533898D01*
X153837106Y-90592863D01*
X153740415Y-90672215D01*
X153661063Y-90768906D01*
X153602098Y-90879220D01*
X153565788Y-90998918D01*
X153553528Y-91123400D01*
X153553528Y-92823400D01*
X153565788Y-92947882D01*
X153602098Y-93067580D01*
X153661063Y-93177894D01*
X153740415Y-93274585D01*
X153837106Y-93353937D01*
X153947420Y-93412902D01*
X154016287Y-93433793D01*
X153986466Y-93458266D01*
X153800894Y-93684386D01*
X153663001Y-93942366D01*
X153578087Y-94222289D01*
X153549415Y-94513400D01*
X147181362Y-94513400D01*
X147143165Y-94487878D01*
X146986655Y-94423049D01*
X146820505Y-94390000D01*
X146651099Y-94390000D01*
X146484949Y-94423049D01*
X146328439Y-94487878D01*
X146187584Y-94581995D01*
X146067797Y-94701782D01*
X145973680Y-94842637D01*
X145908851Y-94999147D01*
X145875802Y-95165297D01*
X135283924Y-95165297D01*
X135244962Y-95071237D01*
X135150845Y-94930382D01*
X135031058Y-94810595D01*
X134890203Y-94716478D01*
X134733693Y-94651649D01*
X134567543Y-94618600D01*
X134398137Y-94618600D01*
X134231987Y-94651649D01*
X134075477Y-94716478D01*
X133934622Y-94810595D01*
X133814835Y-94930382D01*
X133720718Y-95071237D01*
X133655889Y-95227747D01*
X133622840Y-95393897D01*
X129299684Y-95393897D01*
X129260722Y-95299837D01*
X129166605Y-95158982D01*
X129046818Y-95039195D01*
X128905963Y-94945078D01*
X128749453Y-94880249D01*
X128583303Y-94847200D01*
X128413897Y-94847200D01*
X128247747Y-94880249D01*
X128091237Y-94945078D01*
X127950382Y-95039195D01*
X127830595Y-95158982D01*
X127736478Y-95299837D01*
X127671649Y-95456347D01*
X127660000Y-95514911D01*
X127660000Y-93935937D01*
X141588280Y-93935937D01*
X141588280Y-94105343D01*
X141621329Y-94271493D01*
X141686158Y-94428003D01*
X141780275Y-94568858D01*
X141900062Y-94688645D01*
X142040917Y-94782762D01*
X142197427Y-94847591D01*
X142363577Y-94880640D01*
X142532983Y-94880640D01*
X142699133Y-94847591D01*
X142855643Y-94782762D01*
X142996498Y-94688645D01*
X143116285Y-94568858D01*
X143210402Y-94428003D01*
X143275231Y-94271493D01*
X143308280Y-94105343D01*
X143308280Y-93935937D01*
X143275231Y-93769787D01*
X143210402Y-93613277D01*
X143116285Y-93472422D01*
X142996498Y-93352635D01*
X142855643Y-93258518D01*
X142699133Y-93193689D01*
X142532983Y-93160640D01*
X142363577Y-93160640D01*
X142197427Y-93193689D01*
X142040917Y-93258518D01*
X141900062Y-93352635D01*
X141780275Y-93472422D01*
X141686158Y-93613277D01*
X141621329Y-93769787D01*
X141588280Y-93935937D01*
X127660000Y-93935937D01*
X127660000Y-93127017D01*
X148411920Y-93127017D01*
X148411920Y-93296423D01*
X148444969Y-93462573D01*
X148509798Y-93619083D01*
X148603915Y-93759938D01*
X148723702Y-93879725D01*
X148864557Y-93973842D01*
X149021067Y-94038671D01*
X149187217Y-94071720D01*
X149356623Y-94071720D01*
X149522773Y-94038671D01*
X149679283Y-93973842D01*
X149820138Y-93879725D01*
X149939925Y-93759938D01*
X150034042Y-93619083D01*
X150098871Y-93462573D01*
X150131920Y-93296423D01*
X150131920Y-93127017D01*
X150098871Y-92960867D01*
X150034042Y-92804357D01*
X149939925Y-92663502D01*
X149820138Y-92543715D01*
X149679283Y-92449598D01*
X149522773Y-92384769D01*
X149356623Y-92351720D01*
X149187217Y-92351720D01*
X149021067Y-92384769D01*
X148864557Y-92449598D01*
X148723702Y-92543715D01*
X148603915Y-92663502D01*
X148509798Y-92804357D01*
X148444969Y-92960867D01*
X148411920Y-93127017D01*
X127660000Y-93127017D01*
X127660000Y-91401017D01*
X140145560Y-91401017D01*
X140145560Y-91570423D01*
X140178609Y-91736573D01*
X140243438Y-91893083D01*
X140337555Y-92033938D01*
X140457342Y-92153725D01*
X140598197Y-92247842D01*
X140754707Y-92312671D01*
X140920857Y-92345720D01*
X141090263Y-92345720D01*
X141256413Y-92312671D01*
X141412923Y-92247842D01*
X141553778Y-92153725D01*
X141673565Y-92033938D01*
X141767682Y-91893083D01*
X141832511Y-91736573D01*
X141865560Y-91570423D01*
X141865560Y-91401017D01*
X141832511Y-91234867D01*
X141767682Y-91078357D01*
X141673565Y-90937502D01*
X141553778Y-90817715D01*
X141412923Y-90723598D01*
X141256413Y-90658769D01*
X141090263Y-90625720D01*
X140920857Y-90625720D01*
X140754707Y-90658769D01*
X140598197Y-90723598D01*
X140457342Y-90817715D01*
X140337555Y-90937502D01*
X140243438Y-91078357D01*
X140178609Y-91234867D01*
X140145560Y-91401017D01*
X127660000Y-91401017D01*
X127660000Y-90195000D01*
X156820001Y-90195000D01*
X156820000Y-132690000D01*
X156820000Y-132690000D01*
G37*
X156820000Y-132690000D02*
X127660000Y-132690000D01*
X127660000Y-130102937D01*
X128555600Y-130102937D01*
X128555600Y-130272343D01*
X128588649Y-130438493D01*
X128653478Y-130595003D01*
X128747595Y-130735858D01*
X128867382Y-130855645D01*
X129008237Y-130949762D01*
X129164747Y-131014591D01*
X129330897Y-131047640D01*
X129500303Y-131047640D01*
X129666453Y-131014591D01*
X129822963Y-130949762D01*
X129963818Y-130855645D01*
X130083605Y-130735858D01*
X130177722Y-130595003D01*
X130242551Y-130438493D01*
X130275600Y-130272343D01*
X130275600Y-130102937D01*
X130242551Y-129936787D01*
X130177722Y-129780277D01*
X130083605Y-129639422D01*
X130051880Y-129607697D01*
X137798600Y-129607697D01*
X137798600Y-129777103D01*
X137831649Y-129943253D01*
X137896478Y-130099763D01*
X137990595Y-130240618D01*
X138110382Y-130360405D01*
X138251237Y-130454522D01*
X138407747Y-130519351D01*
X138573897Y-130552400D01*
X138743303Y-130552400D01*
X138909453Y-130519351D01*
X139065963Y-130454522D01*
X139206818Y-130360405D01*
X139326605Y-130240618D01*
X139420722Y-130099763D01*
X139485551Y-129943253D01*
X139518600Y-129777103D01*
X139518600Y-129607697D01*
X139485551Y-129441547D01*
X139420722Y-129285037D01*
X139326605Y-129144182D01*
X139206818Y-129024395D01*
X139065963Y-128930278D01*
X138909453Y-128865449D01*
X138743303Y-128832400D01*
X138573897Y-128832400D01*
X138407747Y-128865449D01*
X138251237Y-128930278D01*
X138110382Y-129024395D01*
X137990595Y-129144182D01*
X137896478Y-129285037D01*
X137831649Y-129441547D01*
X137798600Y-129607697D01*
X130051880Y-129607697D01*
X129963818Y-129519635D01*
X129822963Y-129425518D01*
X129666453Y-129360689D01*
X129500303Y-129327640D01*
X129330897Y-129327640D01*
X129164747Y-129360689D01*
X129008237Y-129425518D01*
X128867382Y-129519635D01*
X128747595Y-129639422D01*
X128653478Y-129780277D01*
X128588649Y-129936787D01*
X128555600Y-130102937D01*
X127660000Y-130102937D01*
X127660000Y-128578771D01*
X132388400Y-128578771D01*
X132388400Y-128748177D01*
X132421449Y-128914327D01*
X132486278Y-129070837D01*
X132580395Y-129211692D01*
X132700182Y-129331479D01*
X132841037Y-129425596D01*
X132997547Y-129490425D01*
X133163697Y-129523474D01*
X133333103Y-129523474D01*
X133499253Y-129490425D01*
X133655763Y-129425596D01*
X133796618Y-129331479D01*
X133916405Y-129211692D01*
X134010522Y-129070837D01*
X134075351Y-128914327D01*
X134108400Y-128748177D01*
X134108400Y-128578771D01*
X134075351Y-128412621D01*
X134010522Y-128256111D01*
X133916405Y-128115256D01*
X133796618Y-127995469D01*
X133655763Y-127901352D01*
X133499253Y-127836523D01*
X133333103Y-127803474D01*
X133163697Y-127803474D01*
X132997547Y-127836523D01*
X132841037Y-127901352D01*
X132700182Y-127995469D01*
X132580395Y-128115256D01*
X132486278Y-128256111D01*
X132421449Y-128412621D01*
X132388400Y-128578771D01*
X127660000Y-128578771D01*
X127660000Y-126834017D01*
X133622840Y-126834017D01*
X133622840Y-127003423D01*
X133655889Y-127169573D01*
X133720718Y-127326083D01*
X133814835Y-127466938D01*
X133934622Y-127586725D01*
X134075477Y-127680842D01*
X134231987Y-127745671D01*
X134398137Y-127778720D01*
X134567543Y-127778720D01*
X134733693Y-127745671D01*
X134890203Y-127680842D01*
X135031058Y-127586725D01*
X135150845Y-127466938D01*
X135244962Y-127326083D01*
X135309791Y-127169573D01*
X135342840Y-127003423D01*
X135342840Y-126834017D01*
X135309791Y-126667867D01*
X135244962Y-126511357D01*
X135150845Y-126370502D01*
X135031058Y-126250715D01*
X134890203Y-126156598D01*
X134733693Y-126091769D01*
X134567543Y-126058720D01*
X134398137Y-126058720D01*
X134231987Y-126091769D01*
X134075477Y-126156598D01*
X133934622Y-126250715D01*
X133814835Y-126370502D01*
X133720718Y-126511357D01*
X133655889Y-126667867D01*
X133622840Y-126834017D01*
X127660000Y-126834017D01*
X127660000Y-125518297D01*
X137507601Y-125518297D01*
X137507601Y-125687703D01*
X137540650Y-125853853D01*
X137605479Y-126010363D01*
X137699596Y-126151218D01*
X137819383Y-126271005D01*
X137960238Y-126365122D01*
X138116748Y-126429951D01*
X138282898Y-126463000D01*
X138452304Y-126463000D01*
X138618454Y-126429951D01*
X138774964Y-126365122D01*
X138915819Y-126271005D01*
X139035606Y-126151218D01*
X139129723Y-126010363D01*
X139194552Y-125853853D01*
X139227601Y-125687703D01*
X139227601Y-125518297D01*
X139194552Y-125352147D01*
X139129723Y-125195637D01*
X139035606Y-125054782D01*
X138915819Y-124934995D01*
X138774964Y-124840878D01*
X138618454Y-124776049D01*
X138452304Y-124743000D01*
X138282898Y-124743000D01*
X138116748Y-124776049D01*
X137960238Y-124840878D01*
X137819383Y-124934995D01*
X137699596Y-125054782D01*
X137605479Y-125195637D01*
X137540650Y-125352147D01*
X137507601Y-125518297D01*
X127660000Y-125518297D01*
X127660000Y-124253377D01*
X135116360Y-124253377D01*
X135116360Y-124422783D01*
X135149409Y-124588933D01*
X135214238Y-124745443D01*
X135308355Y-124886298D01*
X135428142Y-125006085D01*
X135568997Y-125100202D01*
X135725507Y-125165031D01*
X135891657Y-125198080D01*
X136061063Y-125198080D01*
X136227213Y-125165031D01*
X136383723Y-125100202D01*
X136524578Y-125006085D01*
X136644365Y-124886298D01*
X136738482Y-124745443D01*
X136803311Y-124588933D01*
X136836360Y-124422783D01*
X136836360Y-124253377D01*
X136803311Y-124087227D01*
X136738482Y-123930717D01*
X136644365Y-123789862D01*
X136524578Y-123670075D01*
X136383723Y-123575958D01*
X136227213Y-123511129D01*
X136061063Y-123478080D01*
X135891657Y-123478080D01*
X135725507Y-123511129D01*
X135568997Y-123575958D01*
X135428142Y-123670075D01*
X135308355Y-123789862D01*
X135214238Y-123930717D01*
X135149409Y-124087227D01*
X135116360Y-124253377D01*
X127660000Y-124253377D01*
X127660000Y-123405017D01*
X136960400Y-123405017D01*
X136960400Y-123574423D01*
X136993449Y-123740573D01*
X137058278Y-123897083D01*
X137152395Y-124037938D01*
X137272182Y-124157725D01*
X137413037Y-124251842D01*
X137569547Y-124316671D01*
X137735697Y-124349720D01*
X137905103Y-124349720D01*
X138071253Y-124316671D01*
X138227763Y-124251842D01*
X138368618Y-124157725D01*
X138488405Y-124037938D01*
X138582522Y-123897083D01*
X138647351Y-123740573D01*
X138680400Y-123574423D01*
X138680400Y-123405017D01*
X138647351Y-123238867D01*
X138596788Y-123116797D01*
X138719138Y-123035045D01*
X138838925Y-122915258D01*
X138933042Y-122774403D01*
X138997871Y-122617893D01*
X139030920Y-122451743D01*
X139030920Y-122282337D01*
X138997871Y-122116187D01*
X138933042Y-121959677D01*
X138838925Y-121818822D01*
X138719138Y-121699035D01*
X138578283Y-121604918D01*
X138421773Y-121540089D01*
X138406078Y-121536967D01*
X148058810Y-121536967D01*
X148058810Y-121706373D01*
X148091859Y-121872523D01*
X148156688Y-122029033D01*
X148250805Y-122169888D01*
X148370592Y-122289675D01*
X148511447Y-122383792D01*
X148667957Y-122448621D01*
X148834107Y-122481670D01*
X149003513Y-122481670D01*
X149169663Y-122448621D01*
X149326173Y-122383792D01*
X149467028Y-122289675D01*
X149586815Y-122169888D01*
X149680932Y-122029033D01*
X149721200Y-121931817D01*
X152276600Y-121931817D01*
X152276600Y-122101223D01*
X152309649Y-122267373D01*
X152374478Y-122423883D01*
X152468595Y-122564738D01*
X152588382Y-122684525D01*
X152729237Y-122778642D01*
X152885747Y-122843471D01*
X153051897Y-122876520D01*
X153221303Y-122876520D01*
X153387453Y-122843471D01*
X153543963Y-122778642D01*
X153684818Y-122684525D01*
X153804605Y-122564738D01*
X153898722Y-122423883D01*
X153963551Y-122267373D01*
X153996600Y-122101223D01*
X153996600Y-121931817D01*
X153963551Y-121765667D01*
X153898722Y-121609157D01*
X153804605Y-121468302D01*
X153684818Y-121348515D01*
X153543963Y-121254398D01*
X153387453Y-121189569D01*
X153221303Y-121156520D01*
X153051897Y-121156520D01*
X152885747Y-121189569D01*
X152729237Y-121254398D01*
X152588382Y-121348515D01*
X152468595Y-121468302D01*
X152374478Y-121609157D01*
X152309649Y-121765667D01*
X152276600Y-121931817D01*
X149721200Y-121931817D01*
X149745761Y-121872523D01*
X149778810Y-121706373D01*
X149778810Y-121536967D01*
X149745761Y-121370817D01*
X149680932Y-121214307D01*
X149586815Y-121073452D01*
X149467028Y-120953665D01*
X149326173Y-120859548D01*
X149169663Y-120794719D01*
X149003513Y-120761670D01*
X148834107Y-120761670D01*
X148667957Y-120794719D01*
X148511447Y-120859548D01*
X148370592Y-120953665D01*
X148250805Y-121073452D01*
X148156688Y-121214307D01*
X148091859Y-121370817D01*
X148058810Y-121536967D01*
X138406078Y-121536967D01*
X138255623Y-121507040D01*
X138086217Y-121507040D01*
X137920067Y-121540089D01*
X137763557Y-121604918D01*
X137622702Y-121699035D01*
X137502915Y-121818822D01*
X137408798Y-121959677D01*
X137343969Y-122116187D01*
X137310920Y-122282337D01*
X137310920Y-122451743D01*
X137343969Y-122617893D01*
X137394532Y-122739963D01*
X137272182Y-122821715D01*
X137152395Y-122941502D01*
X137058278Y-123082357D01*
X136993449Y-123238867D01*
X136960400Y-123405017D01*
X127660000Y-123405017D01*
X127660000Y-120565297D01*
X136325400Y-120565297D01*
X136325400Y-120734703D01*
X136358449Y-120900853D01*
X136423278Y-121057363D01*
X136517395Y-121198218D01*
X136637182Y-121318005D01*
X136778037Y-121412122D01*
X136934547Y-121476951D01*
X137100697Y-121510000D01*
X137270103Y-121510000D01*
X137436253Y-121476951D01*
X137592763Y-121412122D01*
X137733618Y-121318005D01*
X137853405Y-121198218D01*
X137947522Y-121057363D01*
X138012351Y-120900853D01*
X138045400Y-120734703D01*
X138045400Y-120565297D01*
X138012351Y-120399147D01*
X137947522Y-120242637D01*
X137853405Y-120101782D01*
X137733618Y-119981995D01*
X137592763Y-119887878D01*
X137560266Y-119874417D01*
X145753880Y-119874417D01*
X145753880Y-120043823D01*
X145786929Y-120209973D01*
X145851758Y-120366483D01*
X145945875Y-120507338D01*
X146065662Y-120627125D01*
X146206517Y-120721242D01*
X146363027Y-120786071D01*
X146529177Y-120819120D01*
X146698583Y-120819120D01*
X146864733Y-120786071D01*
X147021243Y-120721242D01*
X147162098Y-120627125D01*
X147281885Y-120507338D01*
X147376002Y-120366483D01*
X147440831Y-120209973D01*
X147473880Y-120043823D01*
X147473880Y-119874417D01*
X147440831Y-119708267D01*
X147376002Y-119551757D01*
X147281885Y-119410902D01*
X147162098Y-119291115D01*
X147021243Y-119196998D01*
X146864733Y-119132169D01*
X146698583Y-119099120D01*
X146529177Y-119099120D01*
X146363027Y-119132169D01*
X146206517Y-119196998D01*
X146065662Y-119291115D01*
X145945875Y-119410902D01*
X145851758Y-119551757D01*
X145786929Y-119708267D01*
X145753880Y-119874417D01*
X137560266Y-119874417D01*
X137436253Y-119823049D01*
X137270103Y-119790000D01*
X137100697Y-119790000D01*
X136934547Y-119823049D01*
X136778037Y-119887878D01*
X136637182Y-119981995D01*
X136517395Y-120101782D01*
X136423278Y-120242637D01*
X136358449Y-120399147D01*
X136325400Y-120565297D01*
X127660000Y-120565297D01*
X127660000Y-117720497D01*
X131804200Y-117720497D01*
X131804200Y-117889903D01*
X131837249Y-118056053D01*
X131902078Y-118212563D01*
X131996195Y-118353418D01*
X132115982Y-118473205D01*
X132256837Y-118567322D01*
X132413347Y-118632151D01*
X132579497Y-118665200D01*
X132748903Y-118665200D01*
X132915053Y-118632151D01*
X133071563Y-118567322D01*
X133212418Y-118473205D01*
X133253926Y-118431697D01*
X137310919Y-118431697D01*
X137310919Y-118601103D01*
X137343968Y-118767253D01*
X137408797Y-118923763D01*
X137502914Y-119064618D01*
X137622701Y-119184405D01*
X137763556Y-119278522D01*
X137920066Y-119343351D01*
X138086216Y-119376400D01*
X138255622Y-119376400D01*
X138421772Y-119343351D01*
X138578282Y-119278522D01*
X138719137Y-119184405D01*
X138838924Y-119064618D01*
X138933041Y-118923763D01*
X138997870Y-118767253D01*
X139030919Y-118601103D01*
X139030919Y-118431697D01*
X138997870Y-118265547D01*
X138933041Y-118109037D01*
X138838924Y-117968182D01*
X138719137Y-117848395D01*
X138578282Y-117754278D01*
X138421772Y-117689449D01*
X138255622Y-117656400D01*
X138086216Y-117656400D01*
X137920066Y-117689449D01*
X137763556Y-117754278D01*
X137622701Y-117848395D01*
X137502914Y-117968182D01*
X137408797Y-118109037D01*
X137343968Y-118265547D01*
X137310919Y-118431697D01*
X133253926Y-118431697D01*
X133332205Y-118353418D01*
X133426322Y-118212563D01*
X133491151Y-118056053D01*
X133524200Y-117889903D01*
X133524200Y-117720497D01*
X133491151Y-117554347D01*
X133426322Y-117397837D01*
X133332205Y-117256982D01*
X133212418Y-117137195D01*
X133071563Y-117043078D01*
X132915053Y-116978249D01*
X132866831Y-116968657D01*
X136025680Y-116968657D01*
X136025680Y-117138063D01*
X136058729Y-117304213D01*
X136123558Y-117460723D01*
X136217675Y-117601578D01*
X136337462Y-117721365D01*
X136478317Y-117815482D01*
X136634827Y-117880311D01*
X136800977Y-117913360D01*
X136970383Y-117913360D01*
X137136533Y-117880311D01*
X137293043Y-117815482D01*
X137433898Y-117721365D01*
X137553685Y-117601578D01*
X137647802Y-117460723D01*
X137712631Y-117304213D01*
X137745680Y-117138063D01*
X137745680Y-116968657D01*
X137712631Y-116802507D01*
X137682555Y-116729897D01*
X142548400Y-116729897D01*
X142548400Y-116899303D01*
X142581449Y-117065453D01*
X142646278Y-117221963D01*
X142740395Y-117362818D01*
X142860182Y-117482605D01*
X143001037Y-117576722D01*
X143157547Y-117641551D01*
X143323697Y-117674600D01*
X143493103Y-117674600D01*
X143659253Y-117641551D01*
X143815763Y-117576722D01*
X143956618Y-117482605D01*
X144076405Y-117362818D01*
X144170522Y-117221963D01*
X144235351Y-117065453D01*
X144268400Y-116899303D01*
X144268400Y-116729897D01*
X144235351Y-116563747D01*
X144170522Y-116407237D01*
X144076405Y-116266382D01*
X143956618Y-116146595D01*
X143815763Y-116052478D01*
X143659253Y-115987649D01*
X143493103Y-115954600D01*
X143323697Y-115954600D01*
X143157547Y-115987649D01*
X143001037Y-116052478D01*
X142860182Y-116146595D01*
X142740395Y-116266382D01*
X142646278Y-116407237D01*
X142581449Y-116563747D01*
X142548400Y-116729897D01*
X137682555Y-116729897D01*
X137647802Y-116645997D01*
X137553685Y-116505142D01*
X137433898Y-116385355D01*
X137293043Y-116291238D01*
X137136533Y-116226409D01*
X136970383Y-116193360D01*
X136800977Y-116193360D01*
X136634827Y-116226409D01*
X136478317Y-116291238D01*
X136337462Y-116385355D01*
X136217675Y-116505142D01*
X136123558Y-116645997D01*
X136058729Y-116802507D01*
X136025680Y-116968657D01*
X132866831Y-116968657D01*
X132748903Y-116945200D01*
X132579497Y-116945200D01*
X132413347Y-116978249D01*
X132256837Y-117043078D01*
X132115982Y-117137195D01*
X131996195Y-117256982D01*
X131902078Y-117397837D01*
X131837249Y-117554347D01*
X131804200Y-117720497D01*
X127660000Y-117720497D01*
X127660000Y-113835898D01*
X127804297Y-113864600D01*
X127973703Y-113864600D01*
X128139853Y-113831551D01*
X128296363Y-113766722D01*
X128362490Y-113722537D01*
X133963202Y-113722537D01*
X133963202Y-113891943D01*
X133996251Y-114058093D01*
X134061080Y-114214603D01*
X134155197Y-114355458D01*
X134274984Y-114475245D01*
X134415839Y-114569362D01*
X134572349Y-114634191D01*
X134738499Y-114667240D01*
X134907905Y-114667240D01*
X135074055Y-114634191D01*
X135230565Y-114569362D01*
X135258678Y-114550577D01*
X136030760Y-114550577D01*
X136030760Y-114719983D01*
X136063809Y-114886133D01*
X136128638Y-115042643D01*
X136222755Y-115183498D01*
X136342542Y-115303285D01*
X136483397Y-115397402D01*
X136639907Y-115462231D01*
X136806057Y-115495280D01*
X136975463Y-115495280D01*
X137141613Y-115462231D01*
X137298123Y-115397402D01*
X137438978Y-115303285D01*
X137558765Y-115183498D01*
X137642796Y-115057737D01*
X148833200Y-115057737D01*
X148833200Y-115227143D01*
X148866249Y-115393293D01*
X148931078Y-115549803D01*
X149025195Y-115690658D01*
X149144982Y-115810445D01*
X149285837Y-115904562D01*
X149442347Y-115969391D01*
X149608497Y-116002440D01*
X149777903Y-116002440D01*
X149944053Y-115969391D01*
X150100563Y-115904562D01*
X150241418Y-115810445D01*
X150361205Y-115690658D01*
X150455322Y-115549803D01*
X150520151Y-115393293D01*
X150522355Y-115382215D01*
X150571078Y-115499843D01*
X150665195Y-115640698D01*
X150784982Y-115760485D01*
X150925837Y-115854602D01*
X151082347Y-115919431D01*
X151248497Y-115952480D01*
X151417903Y-115952480D01*
X151584053Y-115919431D01*
X151740563Y-115854602D01*
X151881418Y-115760485D01*
X152001205Y-115640698D01*
X152095322Y-115499843D01*
X152160151Y-115343333D01*
X152193200Y-115177183D01*
X152193200Y-115007777D01*
X152160151Y-114841627D01*
X152095322Y-114685117D01*
X152001205Y-114544262D01*
X151881418Y-114424475D01*
X151740563Y-114330358D01*
X151584053Y-114265529D01*
X151417903Y-114232480D01*
X151248497Y-114232480D01*
X151082347Y-114265529D01*
X150925837Y-114330358D01*
X150784982Y-114424475D01*
X150665195Y-114544262D01*
X150571078Y-114685117D01*
X150506249Y-114841627D01*
X150504045Y-114852705D01*
X150455322Y-114735077D01*
X150361205Y-114594222D01*
X150241418Y-114474435D01*
X150100563Y-114380318D01*
X149944053Y-114315489D01*
X149777903Y-114282440D01*
X149608497Y-114282440D01*
X149442347Y-114315489D01*
X149285837Y-114380318D01*
X149144982Y-114474435D01*
X149025195Y-114594222D01*
X148931078Y-114735077D01*
X148866249Y-114891587D01*
X148833200Y-115057737D01*
X137642796Y-115057737D01*
X137652882Y-115042643D01*
X137717711Y-114886133D01*
X137750760Y-114719983D01*
X137750760Y-114550577D01*
X137717711Y-114384427D01*
X137652882Y-114227917D01*
X137558765Y-114087062D01*
X137438978Y-113967275D01*
X137298123Y-113873158D01*
X137141613Y-113808329D01*
X136975463Y-113775280D01*
X136806057Y-113775280D01*
X136639907Y-113808329D01*
X136483397Y-113873158D01*
X136342542Y-113967275D01*
X136222755Y-114087062D01*
X136128638Y-114227917D01*
X136063809Y-114384427D01*
X136030760Y-114550577D01*
X135258678Y-114550577D01*
X135371420Y-114475245D01*
X135491207Y-114355458D01*
X135585324Y-114214603D01*
X135650153Y-114058093D01*
X135683202Y-113891943D01*
X135683202Y-113722537D01*
X135650153Y-113556387D01*
X135585324Y-113399877D01*
X135491207Y-113259022D01*
X135441642Y-113209457D01*
X139307360Y-113209457D01*
X139307360Y-113378863D01*
X139340409Y-113545013D01*
X139405238Y-113701523D01*
X139499355Y-113842378D01*
X139619142Y-113962165D01*
X139759997Y-114056282D01*
X139916507Y-114121111D01*
X140082657Y-114154160D01*
X140252063Y-114154160D01*
X140418213Y-114121111D01*
X140574723Y-114056282D01*
X140583955Y-114050114D01*
X140623597Y-114076602D01*
X140780107Y-114141431D01*
X140946257Y-114174480D01*
X141115663Y-114174480D01*
X141281813Y-114141431D01*
X141438323Y-114076602D01*
X141579178Y-113982485D01*
X141698965Y-113862698D01*
X141793082Y-113721843D01*
X141857911Y-113565333D01*
X141890960Y-113399183D01*
X141890960Y-113229777D01*
X141857911Y-113063627D01*
X141840461Y-113021497D01*
X142523000Y-113021497D01*
X142523000Y-113190903D01*
X142556049Y-113357053D01*
X142620878Y-113513563D01*
X142714995Y-113654418D01*
X142834782Y-113774205D01*
X142975637Y-113868322D01*
X143132147Y-113933151D01*
X143298297Y-113966200D01*
X143467703Y-113966200D01*
X143633853Y-113933151D01*
X143790363Y-113868322D01*
X143931218Y-113774205D01*
X144051005Y-113654418D01*
X144145122Y-113513563D01*
X144209951Y-113357053D01*
X144243000Y-113190903D01*
X144243000Y-113021497D01*
X144209951Y-112855347D01*
X144145122Y-112698837D01*
X144051005Y-112557982D01*
X143931218Y-112438195D01*
X143790363Y-112344078D01*
X143633853Y-112279249D01*
X143467703Y-112246200D01*
X143298297Y-112246200D01*
X143132147Y-112279249D01*
X142975637Y-112344078D01*
X142834782Y-112438195D01*
X142714995Y-112557982D01*
X142620878Y-112698837D01*
X142556049Y-112855347D01*
X142523000Y-113021497D01*
X141840461Y-113021497D01*
X141793082Y-112907117D01*
X141698965Y-112766262D01*
X141579178Y-112646475D01*
X141438323Y-112552358D01*
X141281813Y-112487529D01*
X141115663Y-112454480D01*
X140946257Y-112454480D01*
X140780107Y-112487529D01*
X140623597Y-112552358D01*
X140614365Y-112558526D01*
X140574723Y-112532038D01*
X140418213Y-112467209D01*
X140252063Y-112434160D01*
X140082657Y-112434160D01*
X139916507Y-112467209D01*
X139759997Y-112532038D01*
X139619142Y-112626155D01*
X139499355Y-112745942D01*
X139405238Y-112886797D01*
X139340409Y-113043307D01*
X139307360Y-113209457D01*
X135441642Y-113209457D01*
X135371420Y-113139235D01*
X135230565Y-113045118D01*
X135074055Y-112980289D01*
X134907905Y-112947240D01*
X134738499Y-112947240D01*
X134572349Y-112980289D01*
X134415839Y-113045118D01*
X134274984Y-113139235D01*
X134155197Y-113259022D01*
X134061080Y-113399877D01*
X133996251Y-113556387D01*
X133963202Y-113722537D01*
X128362490Y-113722537D01*
X128437218Y-113672605D01*
X128557005Y-113552818D01*
X128651122Y-113411963D01*
X128715951Y-113255453D01*
X128749000Y-113089303D01*
X128749000Y-112919897D01*
X128715951Y-112753747D01*
X128651122Y-112597237D01*
X128557005Y-112456382D01*
X128437218Y-112336595D01*
X128296363Y-112242478D01*
X128139853Y-112177649D01*
X127973703Y-112144600D01*
X127804297Y-112144600D01*
X127660000Y-112173302D01*
X127660000Y-111877057D01*
X146375080Y-111877057D01*
X146375080Y-112046463D01*
X146408129Y-112212613D01*
X146472958Y-112369123D01*
X146567075Y-112509978D01*
X146686862Y-112629765D01*
X146827717Y-112723882D01*
X146984227Y-112788711D01*
X147150377Y-112821760D01*
X147319783Y-112821760D01*
X147485933Y-112788711D01*
X147642443Y-112723882D01*
X147783298Y-112629765D01*
X147903085Y-112509978D01*
X147914599Y-112492746D01*
X147927075Y-112511418D01*
X148046862Y-112631205D01*
X148187717Y-112725322D01*
X148344227Y-112790151D01*
X148510377Y-112823200D01*
X148679783Y-112823200D01*
X148845933Y-112790151D01*
X149002443Y-112725322D01*
X149143298Y-112631205D01*
X149263085Y-112511418D01*
X149357202Y-112370563D01*
X149422031Y-112214053D01*
X149455080Y-112047903D01*
X149455080Y-111878497D01*
X149422031Y-111712347D01*
X149357202Y-111555837D01*
X149263085Y-111414982D01*
X149143298Y-111295195D01*
X149002443Y-111201078D01*
X148845933Y-111136249D01*
X148795755Y-111126268D01*
X148921163Y-111074322D01*
X149062018Y-110980205D01*
X149181805Y-110860418D01*
X149275922Y-110719563D01*
X149340751Y-110563053D01*
X149373800Y-110396903D01*
X149373800Y-110227497D01*
X149340751Y-110061347D01*
X149275922Y-109904837D01*
X149181805Y-109763982D01*
X149062018Y-109644195D01*
X148921163Y-109550078D01*
X148764653Y-109485249D01*
X148598503Y-109452200D01*
X148429097Y-109452200D01*
X148262947Y-109485249D01*
X148106437Y-109550078D01*
X147965582Y-109644195D01*
X147845795Y-109763982D01*
X147751678Y-109904837D01*
X147686849Y-110061347D01*
X147653800Y-110227497D01*
X147653800Y-110396903D01*
X147686849Y-110563053D01*
X147751678Y-110719563D01*
X147845795Y-110860418D01*
X147965582Y-110980205D01*
X148106437Y-111074322D01*
X148262947Y-111139151D01*
X148313125Y-111149132D01*
X148187717Y-111201078D01*
X148046862Y-111295195D01*
X147927075Y-111414982D01*
X147915561Y-111432214D01*
X147903085Y-111413542D01*
X147783298Y-111293755D01*
X147642443Y-111199638D01*
X147485933Y-111134809D01*
X147319783Y-111101760D01*
X147150377Y-111101760D01*
X146984227Y-111134809D01*
X146827717Y-111199638D01*
X146686862Y-111293755D01*
X146567075Y-111413542D01*
X146472958Y-111554397D01*
X146408129Y-111710907D01*
X146375080Y-111877057D01*
X127660000Y-111877057D01*
X127660000Y-110009057D01*
X132659970Y-110009057D01*
X132659970Y-110178463D01*
X132693019Y-110344613D01*
X132757848Y-110501123D01*
X132851965Y-110641978D01*
X132971752Y-110761765D01*
X133112607Y-110855882D01*
X133269117Y-110920711D01*
X133435267Y-110953760D01*
X133604673Y-110953760D01*
X133770823Y-110920711D01*
X133927333Y-110855882D01*
X134068188Y-110761765D01*
X134187975Y-110641978D01*
X134282092Y-110501123D01*
X134346921Y-110344613D01*
X134379970Y-110178463D01*
X134379970Y-110009057D01*
X134346921Y-109842907D01*
X134282092Y-109686397D01*
X134187975Y-109545542D01*
X134068188Y-109425755D01*
X133927333Y-109331638D01*
X133770823Y-109266809D01*
X133604673Y-109233760D01*
X133435267Y-109233760D01*
X133269117Y-109266809D01*
X133112607Y-109331638D01*
X132971752Y-109425755D01*
X132851965Y-109545542D01*
X132757848Y-109686397D01*
X132693019Y-109842907D01*
X132659970Y-110009057D01*
X127660000Y-110009057D01*
X127660000Y-109211497D01*
X139271812Y-109211497D01*
X139271812Y-109380903D01*
X139304861Y-109547053D01*
X139369690Y-109703563D01*
X139463807Y-109844418D01*
X139583594Y-109964205D01*
X139724449Y-110058322D01*
X139880959Y-110123151D01*
X140047109Y-110156200D01*
X140216515Y-110156200D01*
X140382665Y-110123151D01*
X140539175Y-110058322D01*
X140614521Y-110007977D01*
X140769947Y-110072357D01*
X140936097Y-110105406D01*
X141105503Y-110105406D01*
X141271653Y-110072357D01*
X141428163Y-110007528D01*
X141569018Y-109913411D01*
X141688805Y-109793624D01*
X141782922Y-109652769D01*
X141847751Y-109496259D01*
X141880800Y-109330109D01*
X141880800Y-109160703D01*
X141847751Y-108994553D01*
X141782922Y-108838043D01*
X141688805Y-108697188D01*
X141569018Y-108577401D01*
X141428163Y-108483284D01*
X141271653Y-108418455D01*
X141105503Y-108385406D01*
X140936097Y-108385406D01*
X140769947Y-108418455D01*
X140613437Y-108483284D01*
X140538091Y-108533629D01*
X140382665Y-108469249D01*
X140216515Y-108436200D01*
X140047109Y-108436200D01*
X139880959Y-108469249D01*
X139724449Y-108534078D01*
X139583594Y-108628195D01*
X139463807Y-108747982D01*
X139369690Y-108888837D01*
X139304861Y-109045347D01*
X139271812Y-109211497D01*
X127660000Y-109211497D01*
X127660000Y-109009898D01*
X127804297Y-109038600D01*
X127973703Y-109038600D01*
X128139853Y-109005551D01*
X128296363Y-108940722D01*
X128437218Y-108846605D01*
X128557005Y-108726818D01*
X128651122Y-108585963D01*
X128715951Y-108429453D01*
X128749000Y-108263303D01*
X128749000Y-108095448D01*
X131612711Y-108095448D01*
X131612711Y-108264854D01*
X131645760Y-108431004D01*
X131710589Y-108587514D01*
X131804706Y-108728369D01*
X131924493Y-108848156D01*
X132065348Y-108942273D01*
X132221858Y-109007102D01*
X132388008Y-109040151D01*
X132557414Y-109040151D01*
X132723564Y-109007102D01*
X132880074Y-108942273D01*
X133020929Y-108848156D01*
X133140716Y-108728369D01*
X133234833Y-108587514D01*
X133299662Y-108431004D01*
X133332711Y-108264854D01*
X133332711Y-108095448D01*
X133299662Y-107929298D01*
X133234833Y-107772788D01*
X133140716Y-107631933D01*
X133020929Y-107512146D01*
X132880074Y-107418029D01*
X132723564Y-107353200D01*
X132557414Y-107320151D01*
X132388008Y-107320151D01*
X132221858Y-107353200D01*
X132065348Y-107418029D01*
X131924493Y-107512146D01*
X131804706Y-107631933D01*
X131710589Y-107772788D01*
X131645760Y-107929298D01*
X131612711Y-108095448D01*
X128749000Y-108095448D01*
X128749000Y-108093897D01*
X128715951Y-107927747D01*
X128651122Y-107771237D01*
X128557005Y-107630382D01*
X128437218Y-107510595D01*
X128296363Y-107416478D01*
X128139853Y-107351649D01*
X127973703Y-107318600D01*
X127804297Y-107318600D01*
X127660000Y-107347302D01*
X127660000Y-107079498D01*
X127804297Y-107108200D01*
X127973703Y-107108200D01*
X128139853Y-107075151D01*
X128296363Y-107010322D01*
X128437218Y-106916205D01*
X128557005Y-106796418D01*
X128651122Y-106655563D01*
X128715951Y-106499053D01*
X128748340Y-106336217D01*
X133963200Y-106336217D01*
X133963200Y-106505623D01*
X133996249Y-106671773D01*
X134061078Y-106828283D01*
X134155195Y-106969138D01*
X134274982Y-107088925D01*
X134415837Y-107183042D01*
X134572347Y-107247871D01*
X134738497Y-107280920D01*
X134907903Y-107280920D01*
X135074053Y-107247871D01*
X135230563Y-107183042D01*
X135371418Y-107088925D01*
X135491205Y-106969138D01*
X135585322Y-106828283D01*
X135629223Y-106722297D01*
X137062000Y-106722297D01*
X137062000Y-106891703D01*
X137095049Y-107057853D01*
X137159878Y-107214363D01*
X137253995Y-107355218D01*
X137373782Y-107475005D01*
X137514637Y-107569122D01*
X137671147Y-107633951D01*
X137837297Y-107667000D01*
X138006703Y-107667000D01*
X138172853Y-107633951D01*
X138329363Y-107569122D01*
X138380284Y-107535097D01*
X141862600Y-107535097D01*
X141862600Y-107704503D01*
X141895649Y-107870653D01*
X141960478Y-108027163D01*
X142054595Y-108168018D01*
X142174382Y-108287805D01*
X142315237Y-108381922D01*
X142471747Y-108446751D01*
X142637897Y-108479800D01*
X142807303Y-108479800D01*
X142973453Y-108446751D01*
X143129963Y-108381922D01*
X143270818Y-108287805D01*
X143390605Y-108168018D01*
X143484722Y-108027163D01*
X143549551Y-107870653D01*
X143576888Y-107733219D01*
X145012200Y-107733219D01*
X145012200Y-107902625D01*
X145045249Y-108068775D01*
X145110078Y-108225285D01*
X145204195Y-108366140D01*
X145323982Y-108485927D01*
X145464837Y-108580044D01*
X145621347Y-108644873D01*
X145787497Y-108677922D01*
X145956903Y-108677922D01*
X146123053Y-108644873D01*
X146279563Y-108580044D01*
X146420418Y-108485927D01*
X146540205Y-108366140D01*
X146634322Y-108225285D01*
X146699151Y-108068775D01*
X146719710Y-107965415D01*
X146734837Y-107975522D01*
X146891347Y-108040351D01*
X147057497Y-108073400D01*
X147226903Y-108073400D01*
X147393053Y-108040351D01*
X147509064Y-107992297D01*
X148441200Y-107992297D01*
X148441200Y-108161703D01*
X148474249Y-108327853D01*
X148539078Y-108484363D01*
X148633195Y-108625218D01*
X148752982Y-108745005D01*
X148893837Y-108839122D01*
X149050347Y-108903951D01*
X149216497Y-108937000D01*
X149385903Y-108937000D01*
X149552053Y-108903951D01*
X149708563Y-108839122D01*
X149849418Y-108745005D01*
X149969205Y-108625218D01*
X150063322Y-108484363D01*
X150128151Y-108327853D01*
X150161200Y-108161703D01*
X150161200Y-107992297D01*
X150128151Y-107826147D01*
X150063322Y-107669637D01*
X149969205Y-107528782D01*
X149849418Y-107408995D01*
X149708563Y-107314878D01*
X149552053Y-107250049D01*
X149385903Y-107217000D01*
X149216497Y-107217000D01*
X149050347Y-107250049D01*
X148893837Y-107314878D01*
X148752982Y-107408995D01*
X148633195Y-107528782D01*
X148539078Y-107669637D01*
X148474249Y-107826147D01*
X148441200Y-107992297D01*
X147509064Y-107992297D01*
X147549563Y-107975522D01*
X147690418Y-107881405D01*
X147810205Y-107761618D01*
X147904322Y-107620763D01*
X147969151Y-107464253D01*
X148002200Y-107298103D01*
X148002200Y-107128697D01*
X147969151Y-106962547D01*
X147904322Y-106806037D01*
X147810205Y-106665182D01*
X147690418Y-106545395D01*
X147549563Y-106451278D01*
X147393053Y-106386449D01*
X147226903Y-106353400D01*
X147057497Y-106353400D01*
X146891347Y-106386449D01*
X146734837Y-106451278D01*
X146593982Y-106545395D01*
X146545300Y-106594077D01*
X146445818Y-106494595D01*
X146304963Y-106400478D01*
X146148453Y-106335649D01*
X145982303Y-106302600D01*
X145812897Y-106302600D01*
X145646747Y-106335649D01*
X145490237Y-106400478D01*
X145349382Y-106494595D01*
X145229595Y-106614382D01*
X145135478Y-106755237D01*
X145070649Y-106911747D01*
X145037600Y-107077897D01*
X145037600Y-107247303D01*
X145070649Y-107413453D01*
X145089764Y-107459601D01*
X145045249Y-107567069D01*
X145012200Y-107733219D01*
X143576888Y-107733219D01*
X143582600Y-107704503D01*
X143582600Y-107535097D01*
X143549551Y-107368947D01*
X143484722Y-107212437D01*
X143390605Y-107071582D01*
X143270818Y-106951795D01*
X143129963Y-106857678D01*
X142973453Y-106792849D01*
X142807303Y-106759800D01*
X142637897Y-106759800D01*
X142471747Y-106792849D01*
X142315237Y-106857678D01*
X142174382Y-106951795D01*
X142054595Y-107071582D01*
X141960478Y-107212437D01*
X141895649Y-107368947D01*
X141862600Y-107535097D01*
X138380284Y-107535097D01*
X138470218Y-107475005D01*
X138590005Y-107355218D01*
X138684122Y-107214363D01*
X138748951Y-107057853D01*
X138782000Y-106891703D01*
X138782000Y-106879600D01*
X138819503Y-106879600D01*
X138985653Y-106846551D01*
X139142163Y-106781722D01*
X139283018Y-106687605D01*
X139402805Y-106567818D01*
X139496922Y-106426963D01*
X139561751Y-106270453D01*
X139594800Y-106104303D01*
X139594800Y-105934897D01*
X139561751Y-105768747D01*
X139496922Y-105612237D01*
X139402805Y-105471382D01*
X139283018Y-105351595D01*
X139142163Y-105257478D01*
X138985653Y-105192649D01*
X138819503Y-105159600D01*
X138650097Y-105159600D01*
X138483947Y-105192649D01*
X138327437Y-105257478D01*
X138186582Y-105351595D01*
X138066795Y-105471382D01*
X137972678Y-105612237D01*
X137907849Y-105768747D01*
X137874800Y-105934897D01*
X137874800Y-105947000D01*
X137837297Y-105947000D01*
X137671147Y-105980049D01*
X137514637Y-106044878D01*
X137373782Y-106138995D01*
X137253995Y-106258782D01*
X137159878Y-106399637D01*
X137095049Y-106556147D01*
X137062000Y-106722297D01*
X135629223Y-106722297D01*
X135650151Y-106671773D01*
X135683200Y-106505623D01*
X135683200Y-106336217D01*
X135650151Y-106170067D01*
X135585322Y-106013557D01*
X135491205Y-105872702D01*
X135371418Y-105752915D01*
X135230563Y-105658798D01*
X135074053Y-105593969D01*
X134907903Y-105560920D01*
X134738497Y-105560920D01*
X134572347Y-105593969D01*
X134415837Y-105658798D01*
X134274982Y-105752915D01*
X134155195Y-105872702D01*
X134061078Y-106013557D01*
X133996249Y-106170067D01*
X133963200Y-106336217D01*
X128748340Y-106336217D01*
X128749000Y-106332903D01*
X128749000Y-106163497D01*
X128715951Y-105997347D01*
X128651122Y-105840837D01*
X128557005Y-105699982D01*
X128517425Y-105660402D01*
X128583303Y-105660402D01*
X128749453Y-105627353D01*
X128905963Y-105562524D01*
X129046818Y-105468407D01*
X129166605Y-105348620D01*
X129260722Y-105207765D01*
X129285685Y-105147497D01*
X141075200Y-105147497D01*
X141075200Y-105316903D01*
X141108249Y-105483053D01*
X141167419Y-105625900D01*
X141108249Y-105768747D01*
X141075200Y-105934897D01*
X141075200Y-106104303D01*
X141108249Y-106270453D01*
X141173078Y-106426963D01*
X141267195Y-106567818D01*
X141386982Y-106687605D01*
X141527837Y-106781722D01*
X141684347Y-106846551D01*
X141850497Y-106879600D01*
X142019903Y-106879600D01*
X142186053Y-106846551D01*
X142342563Y-106781722D01*
X142483418Y-106687605D01*
X142603205Y-106567818D01*
X142697322Y-106426963D01*
X142762151Y-106270453D01*
X142795200Y-106104303D01*
X142795200Y-105934897D01*
X142762151Y-105768747D01*
X142702981Y-105625900D01*
X142725230Y-105572187D01*
X142747878Y-105626863D01*
X142841995Y-105767718D01*
X142961782Y-105887505D01*
X143102637Y-105981622D01*
X143259147Y-106046451D01*
X143425297Y-106079500D01*
X143594703Y-106079500D01*
X143760853Y-106046451D01*
X143917363Y-105981622D01*
X144058218Y-105887505D01*
X144178005Y-105767718D01*
X144272122Y-105626863D01*
X144336951Y-105470353D01*
X144370000Y-105304203D01*
X144370000Y-105134797D01*
X144336951Y-104968647D01*
X144272122Y-104812137D01*
X144178005Y-104671282D01*
X144058218Y-104551495D01*
X143917363Y-104457378D01*
X143760853Y-104392549D01*
X143594703Y-104359500D01*
X143582600Y-104359500D01*
X143582600Y-104334697D01*
X143549551Y-104168547D01*
X143484722Y-104012037D01*
X143390605Y-103871182D01*
X143270818Y-103751395D01*
X143129963Y-103657278D01*
X143038277Y-103619300D01*
X143129963Y-103581322D01*
X143270818Y-103487205D01*
X143390605Y-103367418D01*
X143484722Y-103226563D01*
X143549551Y-103070053D01*
X143582600Y-102903903D01*
X143582600Y-102861320D01*
X143635343Y-102861320D01*
X143801493Y-102828271D01*
X143958003Y-102763442D01*
X144098858Y-102669325D01*
X144218645Y-102549538D01*
X144312762Y-102408683D01*
X144343971Y-102333338D01*
X147331059Y-102333338D01*
X147331059Y-102502744D01*
X147364108Y-102668894D01*
X147428937Y-102825404D01*
X147523054Y-102966259D01*
X147642841Y-103086046D01*
X147783696Y-103180163D01*
X147940206Y-103244992D01*
X148106356Y-103278041D01*
X148275762Y-103278041D01*
X148441912Y-103244992D01*
X148598422Y-103180163D01*
X148739277Y-103086046D01*
X148859064Y-102966259D01*
X148953181Y-102825404D01*
X149018010Y-102668894D01*
X149051059Y-102502744D01*
X149051059Y-102333338D01*
X149018010Y-102167188D01*
X148953181Y-102010678D01*
X148859064Y-101869823D01*
X148739277Y-101750036D01*
X148598422Y-101655919D01*
X148441912Y-101591090D01*
X148275762Y-101558041D01*
X148106356Y-101558041D01*
X147940206Y-101591090D01*
X147783696Y-101655919D01*
X147642841Y-101750036D01*
X147523054Y-101869823D01*
X147428937Y-102010678D01*
X147364108Y-102167188D01*
X147331059Y-102333338D01*
X144343971Y-102333338D01*
X144377591Y-102252173D01*
X144410640Y-102086023D01*
X144410640Y-101916617D01*
X144377591Y-101750467D01*
X144312762Y-101593957D01*
X144218645Y-101453102D01*
X144098858Y-101333315D01*
X143958003Y-101239198D01*
X143801493Y-101174369D01*
X143635343Y-101141320D01*
X143465937Y-101141320D01*
X143299787Y-101174369D01*
X143143277Y-101239198D01*
X143002422Y-101333315D01*
X142882635Y-101453102D01*
X142788518Y-101593957D01*
X142723689Y-101750467D01*
X142690640Y-101916617D01*
X142690640Y-101959200D01*
X142637897Y-101959200D01*
X142471747Y-101992249D01*
X142315237Y-102057078D01*
X142174382Y-102151195D01*
X142054595Y-102270982D01*
X141960478Y-102411837D01*
X141895649Y-102568347D01*
X141862600Y-102734497D01*
X141862600Y-102903903D01*
X141895649Y-103070053D01*
X141960478Y-103226563D01*
X142054595Y-103367418D01*
X142174382Y-103487205D01*
X142315237Y-103581322D01*
X142406923Y-103619300D01*
X142315237Y-103657278D01*
X142174382Y-103751395D01*
X142054595Y-103871182D01*
X141960478Y-104012037D01*
X141895649Y-104168547D01*
X141862600Y-104334697D01*
X141862600Y-104372200D01*
X141850497Y-104372200D01*
X141684347Y-104405249D01*
X141527837Y-104470078D01*
X141386982Y-104564195D01*
X141267195Y-104683982D01*
X141173078Y-104824837D01*
X141108249Y-104981347D01*
X141075200Y-105147497D01*
X129285685Y-105147497D01*
X129325551Y-105051255D01*
X129358600Y-104885105D01*
X129358600Y-104715699D01*
X129350925Y-104677115D01*
X129426153Y-104662151D01*
X129582663Y-104597322D01*
X129723518Y-104503205D01*
X129843305Y-104383418D01*
X129937422Y-104242563D01*
X130002251Y-104086053D01*
X130035300Y-103919903D01*
X130035300Y-103750497D01*
X130002251Y-103584347D01*
X129986905Y-103547297D01*
X139475000Y-103547297D01*
X139475000Y-103716703D01*
X139508049Y-103882853D01*
X139572878Y-104039363D01*
X139666995Y-104180218D01*
X139786782Y-104300005D01*
X139927637Y-104394122D01*
X140084147Y-104458951D01*
X140250297Y-104492000D01*
X140419703Y-104492000D01*
X140585853Y-104458951D01*
X140742363Y-104394122D01*
X140761204Y-104381533D01*
X140886787Y-104433551D01*
X141052937Y-104466600D01*
X141222343Y-104466600D01*
X141388493Y-104433551D01*
X141545003Y-104368722D01*
X141685858Y-104274605D01*
X141805645Y-104154818D01*
X141899762Y-104013963D01*
X141964591Y-103857453D01*
X141997640Y-103691303D01*
X141997640Y-103521897D01*
X141964591Y-103355747D01*
X141899762Y-103199237D01*
X141805645Y-103058382D01*
X141685858Y-102938595D01*
X141545003Y-102844478D01*
X141388493Y-102779649D01*
X141222343Y-102746600D01*
X141052937Y-102746600D01*
X140886787Y-102779649D01*
X140730277Y-102844478D01*
X140711436Y-102857067D01*
X140585853Y-102805049D01*
X140419703Y-102772000D01*
X140250297Y-102772000D01*
X140084147Y-102805049D01*
X139927637Y-102869878D01*
X139786782Y-102963995D01*
X139666995Y-103083782D01*
X139572878Y-103224637D01*
X139508049Y-103381147D01*
X139475000Y-103547297D01*
X129986905Y-103547297D01*
X129937422Y-103427837D01*
X129843305Y-103286982D01*
X129723518Y-103167195D01*
X129582663Y-103073078D01*
X129426153Y-103008249D01*
X129260003Y-102975200D01*
X129090597Y-102975200D01*
X128924447Y-103008249D01*
X128767937Y-103073078D01*
X128627082Y-103167195D01*
X128507295Y-103286982D01*
X128413178Y-103427837D01*
X128348349Y-103584347D01*
X128347284Y-103589702D01*
X128296363Y-103555678D01*
X128139853Y-103490849D01*
X127973703Y-103457800D01*
X127804297Y-103457800D01*
X127660000Y-103486502D01*
X127660000Y-102812298D01*
X127804297Y-102841000D01*
X127973703Y-102841000D01*
X128139853Y-102807951D01*
X128296363Y-102743122D01*
X128437218Y-102649005D01*
X128557005Y-102529218D01*
X128651122Y-102388363D01*
X128715951Y-102231853D01*
X128749000Y-102065703D01*
X128749000Y-101896297D01*
X128715951Y-101730147D01*
X128651122Y-101573637D01*
X128600849Y-101498399D01*
X128651122Y-101423160D01*
X128655041Y-101413697D01*
X130229400Y-101413697D01*
X130229400Y-101583103D01*
X130262449Y-101749253D01*
X130327278Y-101905763D01*
X130421395Y-102046618D01*
X130541182Y-102166405D01*
X130682037Y-102260522D01*
X130838547Y-102325351D01*
X131004697Y-102358400D01*
X131174103Y-102358400D01*
X131340253Y-102325351D01*
X131496763Y-102260522D01*
X131637618Y-102166405D01*
X131757405Y-102046618D01*
X131851522Y-101905763D01*
X131916351Y-101749253D01*
X131949400Y-101583103D01*
X131949400Y-101562402D01*
X132038926Y-101525319D01*
X132179781Y-101431202D01*
X132299568Y-101311415D01*
X132393685Y-101170560D01*
X132458514Y-101014050D01*
X132475986Y-100926209D01*
X132522382Y-100972605D01*
X132663237Y-101066722D01*
X132819747Y-101131551D01*
X132985897Y-101164600D01*
X133155303Y-101164600D01*
X133321453Y-101131551D01*
X133432112Y-101085714D01*
X133365662Y-101130115D01*
X133245875Y-101249902D01*
X133151758Y-101390757D01*
X133086929Y-101547267D01*
X133053880Y-101713417D01*
X133053880Y-101882823D01*
X133086929Y-102048973D01*
X133151758Y-102205483D01*
X133245875Y-102346338D01*
X133365662Y-102466125D01*
X133506517Y-102560242D01*
X133663027Y-102625071D01*
X133829177Y-102658120D01*
X133998583Y-102658120D01*
X134164733Y-102625071D01*
X134321243Y-102560242D01*
X134462098Y-102466125D01*
X134581885Y-102346338D01*
X134676002Y-102205483D01*
X134740831Y-102048973D01*
X134773880Y-101882823D01*
X134773880Y-101713417D01*
X134740831Y-101547267D01*
X134676002Y-101390757D01*
X134581885Y-101249902D01*
X134462098Y-101130115D01*
X134321243Y-101035998D01*
X134164733Y-100971169D01*
X133998583Y-100938120D01*
X133829177Y-100938120D01*
X133663027Y-100971169D01*
X133552368Y-101017006D01*
X133618818Y-100972605D01*
X133738605Y-100852818D01*
X133832722Y-100711963D01*
X133897551Y-100555453D01*
X133930600Y-100389303D01*
X133930600Y-100219897D01*
X133897551Y-100053747D01*
X133832722Y-99897237D01*
X133738605Y-99756382D01*
X133618818Y-99636595D01*
X133477963Y-99542478D01*
X133321453Y-99477649D01*
X133155303Y-99444600D01*
X132985897Y-99444600D01*
X132819747Y-99477649D01*
X132663237Y-99542478D01*
X132522382Y-99636595D01*
X132402595Y-99756382D01*
X132308478Y-99897237D01*
X132243649Y-100053747D01*
X132226177Y-100141588D01*
X132179781Y-100095192D01*
X132038926Y-100001075D01*
X131882416Y-99936246D01*
X131716266Y-99903197D01*
X131546860Y-99903197D01*
X131380710Y-99936246D01*
X131224200Y-100001075D01*
X131083345Y-100095192D01*
X130963558Y-100214979D01*
X130869441Y-100355834D01*
X130804612Y-100512344D01*
X130771563Y-100678494D01*
X130771563Y-100699195D01*
X130682037Y-100736278D01*
X130541182Y-100830395D01*
X130421395Y-100950182D01*
X130327278Y-101091037D01*
X130262449Y-101247547D01*
X130229400Y-101413697D01*
X128655041Y-101413697D01*
X128715951Y-101266650D01*
X128749000Y-101100500D01*
X128749000Y-100931094D01*
X128715951Y-100764944D01*
X128651122Y-100608434D01*
X128557005Y-100467579D01*
X128437218Y-100347792D01*
X128296363Y-100253675D01*
X128139853Y-100188846D01*
X127973703Y-100155797D01*
X127804297Y-100155797D01*
X127660000Y-100184499D01*
X127660000Y-98951498D01*
X127804297Y-98980200D01*
X127973703Y-98980200D01*
X128139853Y-98947151D01*
X128296363Y-98882322D01*
X128437218Y-98788205D01*
X128557005Y-98668418D01*
X128651122Y-98527563D01*
X128715951Y-98371053D01*
X128749000Y-98204903D01*
X128749000Y-98137097D01*
X142091200Y-98137097D01*
X142091200Y-98306503D01*
X142124249Y-98472653D01*
X142189078Y-98629163D01*
X142283195Y-98770018D01*
X142402982Y-98889805D01*
X142543837Y-98983922D01*
X142700347Y-99048751D01*
X142866497Y-99081800D01*
X143035903Y-99081800D01*
X143202053Y-99048751D01*
X143358563Y-98983922D01*
X143499418Y-98889805D01*
X143619205Y-98770018D01*
X143713322Y-98629163D01*
X143778151Y-98472653D01*
X143793362Y-98396177D01*
X148344680Y-98396177D01*
X148344680Y-98565583D01*
X148377729Y-98731733D01*
X148442558Y-98888243D01*
X148536675Y-99029098D01*
X148631077Y-99123500D01*
X148536675Y-99217902D01*
X148442558Y-99358757D01*
X148377729Y-99515267D01*
X148344680Y-99681417D01*
X148344680Y-99850823D01*
X148377729Y-100016973D01*
X148442558Y-100173483D01*
X148536675Y-100314338D01*
X148656462Y-100434125D01*
X148797317Y-100528242D01*
X148953827Y-100593071D01*
X149119977Y-100626120D01*
X149289383Y-100626120D01*
X149455533Y-100593071D01*
X149612043Y-100528242D01*
X149752898Y-100434125D01*
X149872685Y-100314338D01*
X149966802Y-100173483D01*
X150031631Y-100016973D01*
X150064680Y-99850823D01*
X150064680Y-99681417D01*
X150031631Y-99515267D01*
X149966802Y-99358757D01*
X149872685Y-99217902D01*
X149778283Y-99123500D01*
X149872685Y-99029098D01*
X149966802Y-98888243D01*
X150031631Y-98731733D01*
X150064680Y-98565583D01*
X150064680Y-98396177D01*
X150031631Y-98230027D01*
X149966802Y-98073517D01*
X149872685Y-97932662D01*
X149752898Y-97812875D01*
X149612043Y-97718758D01*
X149455533Y-97653929D01*
X149289383Y-97620880D01*
X149119977Y-97620880D01*
X148953827Y-97653929D01*
X148797317Y-97718758D01*
X148656462Y-97812875D01*
X148536675Y-97932662D01*
X148442558Y-98073517D01*
X148377729Y-98230027D01*
X148344680Y-98396177D01*
X143793362Y-98396177D01*
X143811200Y-98306503D01*
X143811200Y-98137097D01*
X143778151Y-97970947D01*
X143713322Y-97814437D01*
X143619205Y-97673582D01*
X143499418Y-97553795D01*
X143358563Y-97459678D01*
X143226034Y-97404782D01*
X143372963Y-97343922D01*
X143513818Y-97249805D01*
X143633605Y-97130018D01*
X143727722Y-96989163D01*
X143792551Y-96832653D01*
X143825600Y-96666503D01*
X143825600Y-96497097D01*
X143792551Y-96330947D01*
X143727722Y-96174437D01*
X143633605Y-96033582D01*
X143513818Y-95913795D01*
X143372963Y-95819678D01*
X143216453Y-95754849D01*
X143050303Y-95721800D01*
X142880897Y-95721800D01*
X142714747Y-95754849D01*
X142558237Y-95819678D01*
X142417382Y-95913795D01*
X142297595Y-96033582D01*
X142203478Y-96174437D01*
X142138649Y-96330947D01*
X142105600Y-96497097D01*
X142105600Y-96666503D01*
X142138649Y-96832653D01*
X142203478Y-96989163D01*
X142297595Y-97130018D01*
X142417382Y-97249805D01*
X142558237Y-97343922D01*
X142690766Y-97398818D01*
X142543837Y-97459678D01*
X142402982Y-97553795D01*
X142283195Y-97673582D01*
X142189078Y-97814437D01*
X142124249Y-97970947D01*
X142091200Y-98137097D01*
X128749000Y-98137097D01*
X128749000Y-98035497D01*
X128715951Y-97869347D01*
X128651122Y-97712837D01*
X128557005Y-97571982D01*
X128437218Y-97452195D01*
X128296363Y-97358078D01*
X128139853Y-97293249D01*
X127973703Y-97260200D01*
X127804297Y-97260200D01*
X127660000Y-97288902D01*
X127660000Y-95899489D01*
X127671649Y-95958053D01*
X127736478Y-96114563D01*
X127830595Y-96255418D01*
X127950382Y-96375205D01*
X128091237Y-96469322D01*
X128247747Y-96534151D01*
X128413897Y-96567200D01*
X128583303Y-96567200D01*
X128749453Y-96534151D01*
X128905963Y-96469322D01*
X129046818Y-96375205D01*
X129166605Y-96255418D01*
X129260722Y-96114563D01*
X129325551Y-95958053D01*
X129358600Y-95791903D01*
X129358600Y-95622497D01*
X129325551Y-95456347D01*
X129299684Y-95393897D01*
X133622840Y-95393897D01*
X133622840Y-95563303D01*
X133655889Y-95729453D01*
X133720718Y-95885963D01*
X133814835Y-96026818D01*
X133934622Y-96146605D01*
X134075477Y-96240722D01*
X134231987Y-96305551D01*
X134398137Y-96338600D01*
X134567543Y-96338600D01*
X134733693Y-96305551D01*
X134890203Y-96240722D01*
X135031058Y-96146605D01*
X135150845Y-96026818D01*
X135244962Y-95885963D01*
X135309791Y-95729453D01*
X135342840Y-95563303D01*
X135342840Y-95393897D01*
X135309791Y-95227747D01*
X135283924Y-95165297D01*
X145875802Y-95165297D01*
X145875802Y-95334703D01*
X145908851Y-95500853D01*
X145973680Y-95657363D01*
X146067797Y-95798218D01*
X146187584Y-95918005D01*
X146328439Y-96012122D01*
X146484949Y-96076951D01*
X146651099Y-96110000D01*
X146820505Y-96110000D01*
X146986655Y-96076951D01*
X147143165Y-96012122D01*
X147284020Y-95918005D01*
X147403807Y-95798218D01*
X147497924Y-95657363D01*
X147562753Y-95500853D01*
X147595802Y-95334703D01*
X147595802Y-95165297D01*
X147562753Y-94999147D01*
X147497924Y-94842637D01*
X147403807Y-94701782D01*
X147284020Y-94581995D01*
X147181362Y-94513400D01*
X153549415Y-94513400D01*
X153578087Y-94804511D01*
X153663001Y-95084434D01*
X153800894Y-95342414D01*
X153986466Y-95568534D01*
X154212586Y-95754106D01*
X154267391Y-95783400D01*
X154212586Y-95812694D01*
X153986466Y-95998266D01*
X153800894Y-96224386D01*
X153663001Y-96482366D01*
X153578087Y-96762289D01*
X153549415Y-97053400D01*
X153578087Y-97344511D01*
X153663001Y-97624434D01*
X153800894Y-97882414D01*
X153986466Y-98108534D01*
X154212586Y-98294106D01*
X154267391Y-98323400D01*
X154212586Y-98352694D01*
X153986466Y-98538266D01*
X153800894Y-98764386D01*
X153663001Y-99022366D01*
X153578087Y-99302289D01*
X153549415Y-99593400D01*
X153578087Y-99884511D01*
X153663001Y-100164434D01*
X153800894Y-100422414D01*
X153986466Y-100648534D01*
X154212586Y-100834106D01*
X154267391Y-100863400D01*
X154212586Y-100892694D01*
X153986466Y-101078266D01*
X153800894Y-101304386D01*
X153663001Y-101562366D01*
X153578087Y-101842289D01*
X153549415Y-102133400D01*
X153578087Y-102424511D01*
X153663001Y-102704434D01*
X153800894Y-102962414D01*
X153986466Y-103188534D01*
X154212586Y-103374106D01*
X154267391Y-103403400D01*
X154212586Y-103432694D01*
X153986466Y-103618266D01*
X153800894Y-103844386D01*
X153663001Y-104102366D01*
X153578087Y-104382289D01*
X153549415Y-104673400D01*
X153578087Y-104964511D01*
X153663001Y-105244434D01*
X153800894Y-105502414D01*
X153986466Y-105728534D01*
X154212586Y-105914106D01*
X154267391Y-105943400D01*
X154212586Y-105972694D01*
X153986466Y-106158266D01*
X153800894Y-106384386D01*
X153663001Y-106642366D01*
X153578087Y-106922289D01*
X153549415Y-107213400D01*
X153578087Y-107504511D01*
X153663001Y-107784434D01*
X153800894Y-108042414D01*
X153986466Y-108268534D01*
X154212586Y-108454106D01*
X154267391Y-108483400D01*
X154212586Y-108512694D01*
X153986466Y-108698266D01*
X153800894Y-108924386D01*
X153663001Y-109182366D01*
X153578087Y-109462289D01*
X153549415Y-109753400D01*
X153578087Y-110044511D01*
X153663001Y-110324434D01*
X153800894Y-110582414D01*
X153986466Y-110808534D01*
X154212586Y-110994106D01*
X154470566Y-111131999D01*
X154750489Y-111216913D01*
X154968650Y-111238400D01*
X155114550Y-111238400D01*
X155332711Y-111216913D01*
X155612634Y-111131999D01*
X155870614Y-110994106D01*
X156096734Y-110808534D01*
X156282306Y-110582414D01*
X156420199Y-110324434D01*
X156505113Y-110044511D01*
X156533785Y-109753400D01*
X156505113Y-109462289D01*
X156420199Y-109182366D01*
X156282306Y-108924386D01*
X156096734Y-108698266D01*
X155870614Y-108512694D01*
X155815809Y-108483400D01*
X155870614Y-108454106D01*
X156096734Y-108268534D01*
X156282306Y-108042414D01*
X156420199Y-107784434D01*
X156505113Y-107504511D01*
X156533785Y-107213400D01*
X156505113Y-106922289D01*
X156420199Y-106642366D01*
X156282306Y-106384386D01*
X156096734Y-106158266D01*
X155870614Y-105972694D01*
X155815809Y-105943400D01*
X155870614Y-105914106D01*
X156096734Y-105728534D01*
X156282306Y-105502414D01*
X156420199Y-105244434D01*
X156505113Y-104964511D01*
X156533785Y-104673400D01*
X156505113Y-104382289D01*
X156420199Y-104102366D01*
X156282306Y-103844386D01*
X156096734Y-103618266D01*
X155870614Y-103432694D01*
X155815809Y-103403400D01*
X155870614Y-103374106D01*
X156096734Y-103188534D01*
X156282306Y-102962414D01*
X156420199Y-102704434D01*
X156505113Y-102424511D01*
X156533785Y-102133400D01*
X156505113Y-101842289D01*
X156420199Y-101562366D01*
X156282306Y-101304386D01*
X156096734Y-101078266D01*
X155870614Y-100892694D01*
X155815809Y-100863400D01*
X155870614Y-100834106D01*
X156096734Y-100648534D01*
X156282306Y-100422414D01*
X156420199Y-100164434D01*
X156505113Y-99884511D01*
X156533785Y-99593400D01*
X156505113Y-99302289D01*
X156420199Y-99022366D01*
X156282306Y-98764386D01*
X156096734Y-98538266D01*
X155870614Y-98352694D01*
X155815809Y-98323400D01*
X155870614Y-98294106D01*
X156096734Y-98108534D01*
X156282306Y-97882414D01*
X156420199Y-97624434D01*
X156505113Y-97344511D01*
X156533785Y-97053400D01*
X156505113Y-96762289D01*
X156420199Y-96482366D01*
X156282306Y-96224386D01*
X156096734Y-95998266D01*
X155870614Y-95812694D01*
X155815809Y-95783400D01*
X155870614Y-95754106D01*
X156096734Y-95568534D01*
X156282306Y-95342414D01*
X156420199Y-95084434D01*
X156505113Y-94804511D01*
X156533785Y-94513400D01*
X156505113Y-94222289D01*
X156420199Y-93942366D01*
X156282306Y-93684386D01*
X156096734Y-93458266D01*
X156066913Y-93433793D01*
X156135780Y-93412902D01*
X156246094Y-93353937D01*
X156342785Y-93274585D01*
X156422137Y-93177894D01*
X156481102Y-93067580D01*
X156517412Y-92947882D01*
X156529672Y-92823400D01*
X156529672Y-91123400D01*
X156517412Y-90998918D01*
X156481102Y-90879220D01*
X156422137Y-90768906D01*
X156342785Y-90672215D01*
X156246094Y-90592863D01*
X156135780Y-90533898D01*
X156016082Y-90497588D01*
X155891600Y-90485328D01*
X154191600Y-90485328D01*
X154067118Y-90497588D01*
X153947420Y-90533898D01*
X153837106Y-90592863D01*
X153740415Y-90672215D01*
X153661063Y-90768906D01*
X153602098Y-90879220D01*
X153565788Y-90998918D01*
X153553528Y-91123400D01*
X153553528Y-92823400D01*
X153565788Y-92947882D01*
X153602098Y-93067580D01*
X153661063Y-93177894D01*
X153740415Y-93274585D01*
X153837106Y-93353937D01*
X153947420Y-93412902D01*
X154016287Y-93433793D01*
X153986466Y-93458266D01*
X153800894Y-93684386D01*
X153663001Y-93942366D01*
X153578087Y-94222289D01*
X153549415Y-94513400D01*
X147181362Y-94513400D01*
X147143165Y-94487878D01*
X146986655Y-94423049D01*
X146820505Y-94390000D01*
X146651099Y-94390000D01*
X146484949Y-94423049D01*
X146328439Y-94487878D01*
X146187584Y-94581995D01*
X146067797Y-94701782D01*
X145973680Y-94842637D01*
X145908851Y-94999147D01*
X145875802Y-95165297D01*
X135283924Y-95165297D01*
X135244962Y-95071237D01*
X135150845Y-94930382D01*
X135031058Y-94810595D01*
X134890203Y-94716478D01*
X134733693Y-94651649D01*
X134567543Y-94618600D01*
X134398137Y-94618600D01*
X134231987Y-94651649D01*
X134075477Y-94716478D01*
X133934622Y-94810595D01*
X133814835Y-94930382D01*
X133720718Y-95071237D01*
X133655889Y-95227747D01*
X133622840Y-95393897D01*
X129299684Y-95393897D01*
X129260722Y-95299837D01*
X129166605Y-95158982D01*
X129046818Y-95039195D01*
X128905963Y-94945078D01*
X128749453Y-94880249D01*
X128583303Y-94847200D01*
X128413897Y-94847200D01*
X128247747Y-94880249D01*
X128091237Y-94945078D01*
X127950382Y-95039195D01*
X127830595Y-95158982D01*
X127736478Y-95299837D01*
X127671649Y-95456347D01*
X127660000Y-95514911D01*
X127660000Y-93935937D01*
X141588280Y-93935937D01*
X141588280Y-94105343D01*
X141621329Y-94271493D01*
X141686158Y-94428003D01*
X141780275Y-94568858D01*
X141900062Y-94688645D01*
X142040917Y-94782762D01*
X142197427Y-94847591D01*
X142363577Y-94880640D01*
X142532983Y-94880640D01*
X142699133Y-94847591D01*
X142855643Y-94782762D01*
X142996498Y-94688645D01*
X143116285Y-94568858D01*
X143210402Y-94428003D01*
X143275231Y-94271493D01*
X143308280Y-94105343D01*
X143308280Y-93935937D01*
X143275231Y-93769787D01*
X143210402Y-93613277D01*
X143116285Y-93472422D01*
X142996498Y-93352635D01*
X142855643Y-93258518D01*
X142699133Y-93193689D01*
X142532983Y-93160640D01*
X142363577Y-93160640D01*
X142197427Y-93193689D01*
X142040917Y-93258518D01*
X141900062Y-93352635D01*
X141780275Y-93472422D01*
X141686158Y-93613277D01*
X141621329Y-93769787D01*
X141588280Y-93935937D01*
X127660000Y-93935937D01*
X127660000Y-93127017D01*
X148411920Y-93127017D01*
X148411920Y-93296423D01*
X148444969Y-93462573D01*
X148509798Y-93619083D01*
X148603915Y-93759938D01*
X148723702Y-93879725D01*
X148864557Y-93973842D01*
X149021067Y-94038671D01*
X149187217Y-94071720D01*
X149356623Y-94071720D01*
X149522773Y-94038671D01*
X149679283Y-93973842D01*
X149820138Y-93879725D01*
X149939925Y-93759938D01*
X150034042Y-93619083D01*
X150098871Y-93462573D01*
X150131920Y-93296423D01*
X150131920Y-93127017D01*
X150098871Y-92960867D01*
X150034042Y-92804357D01*
X149939925Y-92663502D01*
X149820138Y-92543715D01*
X149679283Y-92449598D01*
X149522773Y-92384769D01*
X149356623Y-92351720D01*
X149187217Y-92351720D01*
X149021067Y-92384769D01*
X148864557Y-92449598D01*
X148723702Y-92543715D01*
X148603915Y-92663502D01*
X148509798Y-92804357D01*
X148444969Y-92960867D01*
X148411920Y-93127017D01*
X127660000Y-93127017D01*
X127660000Y-91401017D01*
X140145560Y-91401017D01*
X140145560Y-91570423D01*
X140178609Y-91736573D01*
X140243438Y-91893083D01*
X140337555Y-92033938D01*
X140457342Y-92153725D01*
X140598197Y-92247842D01*
X140754707Y-92312671D01*
X140920857Y-92345720D01*
X141090263Y-92345720D01*
X141256413Y-92312671D01*
X141412923Y-92247842D01*
X141553778Y-92153725D01*
X141673565Y-92033938D01*
X141767682Y-91893083D01*
X141832511Y-91736573D01*
X141865560Y-91570423D01*
X141865560Y-91401017D01*
X141832511Y-91234867D01*
X141767682Y-91078357D01*
X141673565Y-90937502D01*
X141553778Y-90817715D01*
X141412923Y-90723598D01*
X141256413Y-90658769D01*
X141090263Y-90625720D01*
X140920857Y-90625720D01*
X140754707Y-90658769D01*
X140598197Y-90723598D01*
X140457342Y-90817715D01*
X140337555Y-90937502D01*
X140243438Y-91078357D01*
X140178609Y-91234867D01*
X140145560Y-91401017D01*
X127660000Y-91401017D01*
X127660000Y-90195000D01*
X156820001Y-90195000D01*
X156820000Y-132690000D01*
M02*
