G04 #@! TF.GenerationSoftware,KiCad,Pcbnew,(5.1.0)-1*
G04 #@! TF.CreationDate,2019-09-18T15:22:59-07:00*
G04 #@! TF.ProjectId,FlexPC,466c6578-5043-42e6-9b69-6361645f7063,rev?*
G04 #@! TF.SameCoordinates,Original*
G04 #@! TF.FileFunction,Soldermask,Bot*
G04 #@! TF.FilePolarity,Negative*
%FSLAX46Y46*%
G04 Gerber Fmt 4.6, Leading zero omitted, Abs format (unit mm)*
G04 Created by KiCad (PCBNEW (5.1.0)-1) date 2019-09-18 15:22:59*
%MOMM*%
%LPD*%
G04 APERTURE LIST*
%ADD10C,0.100000*%
G04 APERTURE END LIST*
D10*
G36*
X35367804Y-28100380D02*
G01*
X35423310Y-28123371D01*
X35423312Y-28123372D01*
X35448459Y-28140175D01*
X35473265Y-28156750D01*
X35515750Y-28199235D01*
X35549129Y-28249190D01*
X35572120Y-28304696D01*
X35583840Y-28363618D01*
X35583840Y-28423702D01*
X35572120Y-28482624D01*
X35555005Y-28523944D01*
X35549128Y-28538132D01*
X35545951Y-28542886D01*
X35515844Y-28587945D01*
X35515749Y-28588086D01*
X35473266Y-28630569D01*
X35423312Y-28663948D01*
X35423311Y-28663949D01*
X35423310Y-28663949D01*
X35367804Y-28686940D01*
X35308882Y-28698660D01*
X35248798Y-28698660D01*
X35189878Y-28686941D01*
X35136405Y-28664792D01*
X35112956Y-28657680D01*
X35088570Y-28655278D01*
X35064184Y-28657680D01*
X35040735Y-28664794D01*
X35019124Y-28676345D01*
X35000182Y-28691890D01*
X34984637Y-28710832D01*
X34973086Y-28732443D01*
X34965974Y-28755892D01*
X34963572Y-28780278D01*
X34965974Y-28804663D01*
X34974240Y-28846218D01*
X34974240Y-28906300D01*
X34965974Y-28947857D01*
X34963572Y-28972244D01*
X34965974Y-28996630D01*
X34973087Y-29020079D01*
X34984638Y-29041689D01*
X35000184Y-29060631D01*
X35019126Y-29076176D01*
X35040737Y-29087727D01*
X35064185Y-29094840D01*
X35088572Y-29097242D01*
X35112958Y-29094840D01*
X35136406Y-29087727D01*
X35189876Y-29065579D01*
X35248798Y-29053859D01*
X35308882Y-29053859D01*
X35367804Y-29065579D01*
X35423310Y-29088570D01*
X35423312Y-29088571D01*
X35432694Y-29094840D01*
X35473265Y-29121949D01*
X35515750Y-29164434D01*
X35549129Y-29214389D01*
X35572120Y-29269895D01*
X35583840Y-29328817D01*
X35583840Y-29388901D01*
X35572120Y-29447823D01*
X35549129Y-29503329D01*
X35519162Y-29548178D01*
X35515749Y-29553285D01*
X35473266Y-29595768D01*
X35423312Y-29629147D01*
X35423311Y-29629148D01*
X35423310Y-29629148D01*
X35367804Y-29652139D01*
X35308882Y-29663859D01*
X35248798Y-29663859D01*
X35189878Y-29652140D01*
X35136405Y-29629991D01*
X35112956Y-29622879D01*
X35088570Y-29620477D01*
X35064184Y-29622879D01*
X35040735Y-29629993D01*
X35019124Y-29641544D01*
X35000182Y-29657089D01*
X34984637Y-29676031D01*
X34973086Y-29697642D01*
X34965974Y-29721091D01*
X34963572Y-29745477D01*
X34965974Y-29769862D01*
X34974240Y-29811417D01*
X34974240Y-29871499D01*
X34965974Y-29913056D01*
X34963572Y-29937443D01*
X34965974Y-29961829D01*
X34973087Y-29985278D01*
X34984638Y-30006888D01*
X35000184Y-30025830D01*
X35019126Y-30041375D01*
X35040737Y-30052926D01*
X35064185Y-30060039D01*
X35088572Y-30062441D01*
X35112958Y-30060039D01*
X35136406Y-30052926D01*
X35189876Y-30030778D01*
X35248798Y-30019058D01*
X35308882Y-30019058D01*
X35367804Y-30030778D01*
X35423310Y-30053769D01*
X35423312Y-30053770D01*
X35432694Y-30060039D01*
X35473265Y-30087148D01*
X35515750Y-30129633D01*
X35549129Y-30179588D01*
X35572120Y-30235094D01*
X35583840Y-30294016D01*
X35583840Y-30354100D01*
X35572120Y-30413022D01*
X35549129Y-30468528D01*
X35519162Y-30513377D01*
X35515749Y-30518484D01*
X35473266Y-30560967D01*
X35423312Y-30594346D01*
X35423311Y-30594347D01*
X35423310Y-30594347D01*
X35367804Y-30617338D01*
X35308882Y-30629058D01*
X35248798Y-30629058D01*
X35189878Y-30617339D01*
X35136405Y-30595190D01*
X35112956Y-30588078D01*
X35088570Y-30585676D01*
X35064184Y-30588078D01*
X35040735Y-30595192D01*
X35019124Y-30606743D01*
X35000182Y-30622288D01*
X34984637Y-30641230D01*
X34973086Y-30662841D01*
X34965974Y-30686290D01*
X34963572Y-30710676D01*
X34965974Y-30735061D01*
X34974240Y-30776616D01*
X34974240Y-30836698D01*
X34965974Y-30878255D01*
X34963572Y-30902642D01*
X34965974Y-30927028D01*
X34973087Y-30950477D01*
X34984638Y-30972087D01*
X35000184Y-30991029D01*
X35019126Y-31006574D01*
X35040737Y-31018125D01*
X35064185Y-31025238D01*
X35088572Y-31027640D01*
X35112958Y-31025238D01*
X35136406Y-31018125D01*
X35189876Y-30995977D01*
X35248798Y-30984257D01*
X35308882Y-30984257D01*
X35367804Y-30995977D01*
X35423310Y-31018968D01*
X35423312Y-31018969D01*
X35432694Y-31025238D01*
X35473265Y-31052347D01*
X35515750Y-31094832D01*
X35549129Y-31144787D01*
X35572120Y-31200293D01*
X35583840Y-31259215D01*
X35583840Y-31319299D01*
X35572120Y-31378221D01*
X35549129Y-31433727D01*
X35519162Y-31478576D01*
X35515749Y-31483683D01*
X35473266Y-31526166D01*
X35423312Y-31559545D01*
X35423311Y-31559546D01*
X35423310Y-31559546D01*
X35367804Y-31582537D01*
X35308882Y-31594257D01*
X35248798Y-31594257D01*
X35189878Y-31582538D01*
X35136405Y-31560389D01*
X35112956Y-31553277D01*
X35088570Y-31550875D01*
X35064184Y-31553277D01*
X35040735Y-31560391D01*
X35019124Y-31571942D01*
X35000182Y-31587487D01*
X34984637Y-31606429D01*
X34973086Y-31628040D01*
X34965974Y-31651489D01*
X34963572Y-31675875D01*
X34965974Y-31700260D01*
X34974240Y-31741815D01*
X34974240Y-31801897D01*
X34965974Y-31843454D01*
X34963572Y-31867841D01*
X34965974Y-31892227D01*
X34973087Y-31915676D01*
X34984638Y-31937286D01*
X35000184Y-31956228D01*
X35019126Y-31971773D01*
X35040737Y-31983324D01*
X35064185Y-31990437D01*
X35088572Y-31992839D01*
X35112958Y-31990437D01*
X35136406Y-31983324D01*
X35189876Y-31961176D01*
X35248798Y-31949456D01*
X35308882Y-31949456D01*
X35367804Y-31961176D01*
X35423310Y-31984167D01*
X35423312Y-31984168D01*
X35432694Y-31990437D01*
X35473265Y-32017546D01*
X35515750Y-32060031D01*
X35549129Y-32109986D01*
X35572120Y-32165492D01*
X35583840Y-32224414D01*
X35583840Y-32284498D01*
X35572120Y-32343420D01*
X35549129Y-32398926D01*
X35519162Y-32443775D01*
X35515749Y-32448882D01*
X35473266Y-32491365D01*
X35423312Y-32524744D01*
X35423311Y-32524745D01*
X35423310Y-32524745D01*
X35367804Y-32547736D01*
X35308882Y-32559456D01*
X35248798Y-32559456D01*
X35189878Y-32547737D01*
X35136405Y-32525588D01*
X35112956Y-32518476D01*
X35088570Y-32516074D01*
X35064184Y-32518476D01*
X35040735Y-32525590D01*
X35019124Y-32537141D01*
X35000182Y-32552686D01*
X34984637Y-32571628D01*
X34973086Y-32593239D01*
X34965974Y-32616688D01*
X34963572Y-32641074D01*
X34965974Y-32665459D01*
X34974240Y-32707014D01*
X34974240Y-32767096D01*
X34965974Y-32808653D01*
X34963572Y-32833040D01*
X34965974Y-32857426D01*
X34973087Y-32880875D01*
X34984638Y-32902485D01*
X35000184Y-32921427D01*
X35019126Y-32936972D01*
X35040737Y-32948523D01*
X35064185Y-32955636D01*
X35088572Y-32958038D01*
X35112958Y-32955636D01*
X35136406Y-32948523D01*
X35189876Y-32926375D01*
X35248798Y-32914655D01*
X35308882Y-32914655D01*
X35367804Y-32926375D01*
X35423310Y-32949366D01*
X35423312Y-32949367D01*
X35432694Y-32955636D01*
X35473265Y-32982745D01*
X35515750Y-33025230D01*
X35549129Y-33075185D01*
X35572120Y-33130691D01*
X35583840Y-33189613D01*
X35583840Y-33249697D01*
X35572120Y-33308619D01*
X35549129Y-33364125D01*
X35519162Y-33408974D01*
X35515749Y-33414081D01*
X35473266Y-33456564D01*
X35423312Y-33489943D01*
X35423311Y-33489944D01*
X35423310Y-33489944D01*
X35367804Y-33512935D01*
X35308882Y-33524655D01*
X35248798Y-33524655D01*
X35189878Y-33512936D01*
X35136405Y-33490787D01*
X35112956Y-33483675D01*
X35088570Y-33481273D01*
X35064184Y-33483675D01*
X35040735Y-33490789D01*
X35019124Y-33502340D01*
X35000182Y-33517885D01*
X34984637Y-33536827D01*
X34973086Y-33558438D01*
X34965974Y-33581887D01*
X34963572Y-33606273D01*
X34965974Y-33630658D01*
X34974240Y-33672213D01*
X34974240Y-33732295D01*
X34965974Y-33773852D01*
X34963572Y-33798239D01*
X34965974Y-33822625D01*
X34973087Y-33846074D01*
X34984638Y-33867684D01*
X35000184Y-33886626D01*
X35019126Y-33902171D01*
X35040737Y-33913722D01*
X35064185Y-33920835D01*
X35088572Y-33923237D01*
X35112958Y-33920835D01*
X35136406Y-33913722D01*
X35189876Y-33891574D01*
X35248798Y-33879854D01*
X35308882Y-33879854D01*
X35367804Y-33891574D01*
X35423310Y-33914565D01*
X35423312Y-33914566D01*
X35432694Y-33920835D01*
X35473265Y-33947944D01*
X35515750Y-33990429D01*
X35549129Y-34040384D01*
X35572120Y-34095890D01*
X35583840Y-34154812D01*
X35583840Y-34214896D01*
X35572120Y-34273818D01*
X35549129Y-34329324D01*
X35519162Y-34374173D01*
X35515749Y-34379280D01*
X35473266Y-34421763D01*
X35423312Y-34455142D01*
X35423311Y-34455143D01*
X35423310Y-34455143D01*
X35367804Y-34478134D01*
X35308882Y-34489854D01*
X35248798Y-34489854D01*
X35189878Y-34478135D01*
X35136405Y-34455986D01*
X35112956Y-34448874D01*
X35088570Y-34446472D01*
X35064184Y-34448874D01*
X35040735Y-34455988D01*
X35019124Y-34467539D01*
X35000182Y-34483084D01*
X34984637Y-34502026D01*
X34973086Y-34523637D01*
X34965974Y-34547086D01*
X34963572Y-34571472D01*
X34965974Y-34595857D01*
X34974240Y-34637412D01*
X34974240Y-34697494D01*
X34965974Y-34739051D01*
X34963572Y-34763438D01*
X34965974Y-34787824D01*
X34973087Y-34811273D01*
X34984638Y-34832883D01*
X35000184Y-34851825D01*
X35019126Y-34867370D01*
X35040737Y-34878921D01*
X35064185Y-34886034D01*
X35088572Y-34888436D01*
X35112958Y-34886034D01*
X35136406Y-34878921D01*
X35189876Y-34856773D01*
X35248798Y-34845053D01*
X35308882Y-34845053D01*
X35367804Y-34856773D01*
X35423310Y-34879764D01*
X35423312Y-34879765D01*
X35432694Y-34886034D01*
X35473265Y-34913143D01*
X35515750Y-34955628D01*
X35549129Y-35005583D01*
X35572120Y-35061089D01*
X35583840Y-35120011D01*
X35583840Y-35180095D01*
X35572120Y-35239017D01*
X35549129Y-35294523D01*
X35519162Y-35339372D01*
X35515749Y-35344479D01*
X35473266Y-35386962D01*
X35423312Y-35420341D01*
X35423311Y-35420342D01*
X35423310Y-35420342D01*
X35367804Y-35443333D01*
X35308882Y-35455053D01*
X35248798Y-35455053D01*
X35189878Y-35443334D01*
X35136405Y-35421185D01*
X35112956Y-35414073D01*
X35088570Y-35411671D01*
X35064184Y-35414073D01*
X35040735Y-35421187D01*
X35019124Y-35432738D01*
X35000182Y-35448283D01*
X34984637Y-35467225D01*
X34973086Y-35488836D01*
X34965974Y-35512285D01*
X34963572Y-35536671D01*
X34965974Y-35561056D01*
X34974240Y-35602611D01*
X34974240Y-35662693D01*
X34965974Y-35704250D01*
X34963572Y-35728637D01*
X34965974Y-35753023D01*
X34973087Y-35776472D01*
X34984638Y-35798082D01*
X35000184Y-35817024D01*
X35019126Y-35832569D01*
X35040737Y-35844120D01*
X35064185Y-35851233D01*
X35088572Y-35853635D01*
X35112958Y-35851233D01*
X35136406Y-35844120D01*
X35189876Y-35821972D01*
X35248798Y-35810252D01*
X35308882Y-35810252D01*
X35367804Y-35821972D01*
X35423310Y-35844963D01*
X35423312Y-35844964D01*
X35432694Y-35851233D01*
X35473265Y-35878342D01*
X35515750Y-35920827D01*
X35549129Y-35970782D01*
X35572120Y-36026288D01*
X35583840Y-36085210D01*
X35583840Y-36145294D01*
X35572120Y-36204216D01*
X35549129Y-36259722D01*
X35519162Y-36304571D01*
X35515749Y-36309678D01*
X35473266Y-36352161D01*
X35423312Y-36385540D01*
X35423311Y-36385541D01*
X35423310Y-36385541D01*
X35367804Y-36408532D01*
X35308882Y-36420252D01*
X35248798Y-36420252D01*
X35189878Y-36408533D01*
X35136405Y-36386384D01*
X35112956Y-36379272D01*
X35088570Y-36376870D01*
X35064184Y-36379272D01*
X35040735Y-36386386D01*
X35019124Y-36397937D01*
X35000182Y-36413482D01*
X34984637Y-36432424D01*
X34973086Y-36454035D01*
X34965974Y-36477484D01*
X34963572Y-36501870D01*
X34965974Y-36526255D01*
X34974240Y-36567810D01*
X34974240Y-36627892D01*
X34965974Y-36669449D01*
X34963572Y-36693836D01*
X34965974Y-36718222D01*
X34973087Y-36741671D01*
X34984638Y-36763281D01*
X35000184Y-36782223D01*
X35019126Y-36797768D01*
X35040737Y-36809319D01*
X35064185Y-36816432D01*
X35088572Y-36818834D01*
X35112958Y-36816432D01*
X35136406Y-36809319D01*
X35189876Y-36787171D01*
X35248798Y-36775451D01*
X35308882Y-36775451D01*
X35367804Y-36787171D01*
X35423310Y-36810162D01*
X35423312Y-36810163D01*
X35432694Y-36816432D01*
X35473265Y-36843541D01*
X35515750Y-36886026D01*
X35549129Y-36935981D01*
X35572120Y-36991487D01*
X35583840Y-37050409D01*
X35583840Y-37110493D01*
X35572120Y-37169415D01*
X35549129Y-37224921D01*
X35519162Y-37269770D01*
X35515749Y-37274877D01*
X35473266Y-37317360D01*
X35423312Y-37350739D01*
X35423311Y-37350740D01*
X35423310Y-37350740D01*
X35367804Y-37373731D01*
X35308882Y-37385451D01*
X35248798Y-37385451D01*
X35189878Y-37373732D01*
X35136405Y-37351583D01*
X35112956Y-37344471D01*
X35088570Y-37342069D01*
X35064184Y-37344471D01*
X35040735Y-37351585D01*
X35019124Y-37363136D01*
X35000182Y-37378681D01*
X34984637Y-37397623D01*
X34973086Y-37419234D01*
X34965974Y-37442683D01*
X34963572Y-37467069D01*
X34965974Y-37491454D01*
X34974240Y-37533009D01*
X34974240Y-37593092D01*
X34962520Y-37652014D01*
X34939529Y-37707520D01*
X34939528Y-37707522D01*
X34906149Y-37757476D01*
X34863666Y-37799959D01*
X34813712Y-37833338D01*
X34813711Y-37833339D01*
X34813710Y-37833339D01*
X34758204Y-37856330D01*
X34699282Y-37868050D01*
X34639198Y-37868050D01*
X34580276Y-37856330D01*
X34524770Y-37833339D01*
X34524769Y-37833339D01*
X34524768Y-37833338D01*
X34474814Y-37799959D01*
X34432331Y-37757476D01*
X34398952Y-37707522D01*
X34398951Y-37707520D01*
X34375960Y-37652014D01*
X34364240Y-37593092D01*
X34364240Y-37533008D01*
X34375960Y-37474086D01*
X34398951Y-37418580D01*
X34432330Y-37368625D01*
X34474815Y-37326140D01*
X34515388Y-37299030D01*
X34524768Y-37292762D01*
X34524770Y-37292761D01*
X34580276Y-37269770D01*
X34639198Y-37258050D01*
X34699282Y-37258050D01*
X34758202Y-37269769D01*
X34811675Y-37291918D01*
X34835124Y-37299030D01*
X34859510Y-37301432D01*
X34883896Y-37299030D01*
X34907345Y-37291916D01*
X34928956Y-37280365D01*
X34947898Y-37264820D01*
X34963443Y-37245878D01*
X34974994Y-37224267D01*
X34982106Y-37200818D01*
X34984508Y-37176432D01*
X34982106Y-37152047D01*
X34973840Y-37110492D01*
X34973840Y-37050410D01*
X34982106Y-37008853D01*
X34984508Y-36984466D01*
X34982106Y-36960080D01*
X34974993Y-36936631D01*
X34963442Y-36915021D01*
X34947896Y-36896079D01*
X34928954Y-36880534D01*
X34907343Y-36868983D01*
X34883895Y-36861870D01*
X34859508Y-36859468D01*
X34835122Y-36861870D01*
X34811674Y-36868983D01*
X34758204Y-36891131D01*
X34699282Y-36902851D01*
X34639198Y-36902851D01*
X34580276Y-36891131D01*
X34524770Y-36868140D01*
X34524769Y-36868140D01*
X34524768Y-36868139D01*
X34474814Y-36834760D01*
X34432331Y-36792277D01*
X34398952Y-36742323D01*
X34388969Y-36718222D01*
X34375960Y-36686815D01*
X34364240Y-36627893D01*
X34364240Y-36567809D01*
X34375960Y-36508887D01*
X34398951Y-36453381D01*
X34432330Y-36403426D01*
X34474815Y-36360941D01*
X34515388Y-36333831D01*
X34524768Y-36327563D01*
X34524770Y-36327562D01*
X34580276Y-36304571D01*
X34639198Y-36292851D01*
X34699282Y-36292851D01*
X34758202Y-36304570D01*
X34811675Y-36326719D01*
X34835124Y-36333831D01*
X34859510Y-36336233D01*
X34883896Y-36333831D01*
X34907345Y-36326717D01*
X34928956Y-36315166D01*
X34947898Y-36299621D01*
X34963443Y-36280679D01*
X34974994Y-36259068D01*
X34982106Y-36235619D01*
X34984508Y-36211233D01*
X34982106Y-36186848D01*
X34973840Y-36145293D01*
X34973840Y-36085211D01*
X34982106Y-36043654D01*
X34984508Y-36019267D01*
X34982106Y-35994881D01*
X34974993Y-35971432D01*
X34963442Y-35949822D01*
X34947896Y-35930880D01*
X34928954Y-35915335D01*
X34907343Y-35903784D01*
X34883895Y-35896671D01*
X34859508Y-35894269D01*
X34835122Y-35896671D01*
X34811674Y-35903784D01*
X34758204Y-35925932D01*
X34699282Y-35937652D01*
X34639198Y-35937652D01*
X34580276Y-35925932D01*
X34524770Y-35902941D01*
X34524769Y-35902941D01*
X34524768Y-35902940D01*
X34474814Y-35869561D01*
X34432331Y-35827078D01*
X34398952Y-35777124D01*
X34388969Y-35753023D01*
X34375960Y-35721616D01*
X34364240Y-35662694D01*
X34364240Y-35602610D01*
X34375960Y-35543688D01*
X34398951Y-35488182D01*
X34432330Y-35438227D01*
X34474815Y-35395742D01*
X34515388Y-35368632D01*
X34524768Y-35362364D01*
X34524770Y-35362363D01*
X34580276Y-35339372D01*
X34639198Y-35327652D01*
X34699282Y-35327652D01*
X34758202Y-35339371D01*
X34811675Y-35361520D01*
X34835124Y-35368632D01*
X34859510Y-35371034D01*
X34883896Y-35368632D01*
X34907345Y-35361518D01*
X34928956Y-35349967D01*
X34947898Y-35334422D01*
X34963443Y-35315480D01*
X34974994Y-35293869D01*
X34982106Y-35270420D01*
X34984508Y-35246034D01*
X34982106Y-35221649D01*
X34973840Y-35180094D01*
X34973840Y-35120012D01*
X34982106Y-35078455D01*
X34984508Y-35054068D01*
X34982106Y-35029682D01*
X34974993Y-35006233D01*
X34963442Y-34984623D01*
X34947896Y-34965681D01*
X34928954Y-34950136D01*
X34907343Y-34938585D01*
X34883895Y-34931472D01*
X34859508Y-34929070D01*
X34835122Y-34931472D01*
X34811674Y-34938585D01*
X34758204Y-34960733D01*
X34699282Y-34972453D01*
X34639198Y-34972453D01*
X34580276Y-34960733D01*
X34524770Y-34937742D01*
X34524769Y-34937742D01*
X34524768Y-34937741D01*
X34474814Y-34904362D01*
X34432331Y-34861879D01*
X34398952Y-34811925D01*
X34388969Y-34787824D01*
X34375960Y-34756417D01*
X34364240Y-34697495D01*
X34364240Y-34637411D01*
X34375960Y-34578489D01*
X34398951Y-34522983D01*
X34432330Y-34473028D01*
X34474815Y-34430543D01*
X34515388Y-34403433D01*
X34524768Y-34397165D01*
X34524770Y-34397164D01*
X34580276Y-34374173D01*
X34639198Y-34362453D01*
X34699282Y-34362453D01*
X34758202Y-34374172D01*
X34811675Y-34396321D01*
X34835124Y-34403433D01*
X34859510Y-34405835D01*
X34883896Y-34403433D01*
X34907345Y-34396319D01*
X34928956Y-34384768D01*
X34947898Y-34369223D01*
X34963443Y-34350281D01*
X34974994Y-34328670D01*
X34982106Y-34305221D01*
X34984508Y-34280835D01*
X34982106Y-34256450D01*
X34973840Y-34214895D01*
X34973840Y-34154813D01*
X34982106Y-34113256D01*
X34984508Y-34088869D01*
X34982106Y-34064483D01*
X34974993Y-34041034D01*
X34963442Y-34019424D01*
X34947896Y-34000482D01*
X34928954Y-33984937D01*
X34907343Y-33973386D01*
X34883895Y-33966273D01*
X34859508Y-33963871D01*
X34835122Y-33966273D01*
X34811674Y-33973386D01*
X34758204Y-33995534D01*
X34699282Y-34007254D01*
X34639198Y-34007254D01*
X34580276Y-33995534D01*
X34524770Y-33972543D01*
X34524769Y-33972543D01*
X34524768Y-33972542D01*
X34474814Y-33939163D01*
X34432331Y-33896680D01*
X34398952Y-33846726D01*
X34388969Y-33822625D01*
X34375960Y-33791218D01*
X34364240Y-33732296D01*
X34364240Y-33672212D01*
X34375960Y-33613290D01*
X34398951Y-33557784D01*
X34432330Y-33507829D01*
X34474815Y-33465344D01*
X34515388Y-33438234D01*
X34524768Y-33431966D01*
X34524770Y-33431965D01*
X34580276Y-33408974D01*
X34639198Y-33397254D01*
X34699282Y-33397254D01*
X34758202Y-33408973D01*
X34811675Y-33431122D01*
X34835124Y-33438234D01*
X34859510Y-33440636D01*
X34883896Y-33438234D01*
X34907345Y-33431120D01*
X34928956Y-33419569D01*
X34947898Y-33404024D01*
X34963443Y-33385082D01*
X34974994Y-33363471D01*
X34982106Y-33340022D01*
X34984508Y-33315636D01*
X34982106Y-33291251D01*
X34973840Y-33249696D01*
X34973840Y-33189614D01*
X34982106Y-33148057D01*
X34984508Y-33123670D01*
X34982106Y-33099284D01*
X34974993Y-33075835D01*
X34963442Y-33054225D01*
X34947896Y-33035283D01*
X34928954Y-33019738D01*
X34907343Y-33008187D01*
X34883895Y-33001074D01*
X34859508Y-32998672D01*
X34835122Y-33001074D01*
X34811674Y-33008187D01*
X34758204Y-33030335D01*
X34699282Y-33042055D01*
X34639198Y-33042055D01*
X34580276Y-33030335D01*
X34524770Y-33007344D01*
X34524769Y-33007344D01*
X34524768Y-33007343D01*
X34474814Y-32973964D01*
X34432331Y-32931481D01*
X34398952Y-32881527D01*
X34388969Y-32857426D01*
X34375960Y-32826019D01*
X34364240Y-32767097D01*
X34364240Y-32707013D01*
X34375960Y-32648091D01*
X34398951Y-32592585D01*
X34432330Y-32542630D01*
X34474815Y-32500145D01*
X34515388Y-32473035D01*
X34524768Y-32466767D01*
X34524770Y-32466766D01*
X34580276Y-32443775D01*
X34639198Y-32432055D01*
X34699282Y-32432055D01*
X34758202Y-32443774D01*
X34811675Y-32465923D01*
X34835124Y-32473035D01*
X34859510Y-32475437D01*
X34883896Y-32473035D01*
X34907345Y-32465921D01*
X34928956Y-32454370D01*
X34947898Y-32438825D01*
X34963443Y-32419883D01*
X34974994Y-32398272D01*
X34982106Y-32374823D01*
X34984508Y-32350437D01*
X34982106Y-32326052D01*
X34973840Y-32284497D01*
X34973840Y-32224415D01*
X34982106Y-32182858D01*
X34984508Y-32158471D01*
X34982106Y-32134085D01*
X34974993Y-32110636D01*
X34963442Y-32089026D01*
X34947896Y-32070084D01*
X34928954Y-32054539D01*
X34907343Y-32042988D01*
X34883895Y-32035875D01*
X34859508Y-32033473D01*
X34835122Y-32035875D01*
X34811674Y-32042988D01*
X34758204Y-32065136D01*
X34699282Y-32076856D01*
X34639198Y-32076856D01*
X34580276Y-32065136D01*
X34524770Y-32042145D01*
X34524769Y-32042145D01*
X34524768Y-32042144D01*
X34474814Y-32008765D01*
X34432331Y-31966282D01*
X34398952Y-31916328D01*
X34388969Y-31892227D01*
X34375960Y-31860820D01*
X34364240Y-31801898D01*
X34364240Y-31741814D01*
X34375960Y-31682892D01*
X34398951Y-31627386D01*
X34432330Y-31577431D01*
X34474815Y-31534946D01*
X34515388Y-31507836D01*
X34524768Y-31501568D01*
X34524770Y-31501567D01*
X34580276Y-31478576D01*
X34639198Y-31466856D01*
X34699282Y-31466856D01*
X34758202Y-31478575D01*
X34811675Y-31500724D01*
X34835124Y-31507836D01*
X34859510Y-31510238D01*
X34883896Y-31507836D01*
X34907345Y-31500722D01*
X34928956Y-31489171D01*
X34947898Y-31473626D01*
X34963443Y-31454684D01*
X34974994Y-31433073D01*
X34982106Y-31409624D01*
X34984508Y-31385238D01*
X34982106Y-31360853D01*
X34973840Y-31319298D01*
X34973840Y-31259216D01*
X34982106Y-31217659D01*
X34984508Y-31193272D01*
X34982106Y-31168886D01*
X34974993Y-31145437D01*
X34963442Y-31123827D01*
X34947896Y-31104885D01*
X34928954Y-31089340D01*
X34907343Y-31077789D01*
X34883895Y-31070676D01*
X34859508Y-31068274D01*
X34835122Y-31070676D01*
X34811674Y-31077789D01*
X34758204Y-31099937D01*
X34699282Y-31111657D01*
X34639198Y-31111657D01*
X34580276Y-31099937D01*
X34524770Y-31076946D01*
X34524769Y-31076946D01*
X34524768Y-31076945D01*
X34474814Y-31043566D01*
X34432331Y-31001083D01*
X34398952Y-30951129D01*
X34388969Y-30927028D01*
X34375960Y-30895621D01*
X34364240Y-30836699D01*
X34364240Y-30776615D01*
X34375960Y-30717693D01*
X34398951Y-30662187D01*
X34432330Y-30612232D01*
X34474815Y-30569747D01*
X34515388Y-30542637D01*
X34524768Y-30536369D01*
X34524770Y-30536368D01*
X34580276Y-30513377D01*
X34639198Y-30501657D01*
X34699282Y-30501657D01*
X34758202Y-30513376D01*
X34811675Y-30535525D01*
X34835124Y-30542637D01*
X34859510Y-30545039D01*
X34883896Y-30542637D01*
X34907345Y-30535523D01*
X34928956Y-30523972D01*
X34947898Y-30508427D01*
X34963443Y-30489485D01*
X34974994Y-30467874D01*
X34982106Y-30444425D01*
X34984508Y-30420039D01*
X34982106Y-30395654D01*
X34973840Y-30354099D01*
X34973840Y-30294017D01*
X34982106Y-30252460D01*
X34984508Y-30228073D01*
X34982106Y-30203687D01*
X34974993Y-30180238D01*
X34963442Y-30158628D01*
X34947896Y-30139686D01*
X34928954Y-30124141D01*
X34907343Y-30112590D01*
X34883895Y-30105477D01*
X34859508Y-30103075D01*
X34835122Y-30105477D01*
X34811674Y-30112590D01*
X34758204Y-30134738D01*
X34699282Y-30146458D01*
X34639198Y-30146458D01*
X34580276Y-30134738D01*
X34524770Y-30111747D01*
X34524769Y-30111747D01*
X34524768Y-30111746D01*
X34474814Y-30078367D01*
X34432331Y-30035884D01*
X34398952Y-29985930D01*
X34388969Y-29961829D01*
X34375960Y-29930422D01*
X34364240Y-29871500D01*
X34364240Y-29811416D01*
X34375960Y-29752494D01*
X34398951Y-29696988D01*
X34432330Y-29647033D01*
X34474815Y-29604548D01*
X34515388Y-29577438D01*
X34524768Y-29571170D01*
X34524770Y-29571169D01*
X34580276Y-29548178D01*
X34639198Y-29536458D01*
X34699282Y-29536458D01*
X34758202Y-29548177D01*
X34811675Y-29570326D01*
X34835124Y-29577438D01*
X34859510Y-29579840D01*
X34883896Y-29577438D01*
X34907345Y-29570324D01*
X34928956Y-29558773D01*
X34947898Y-29543228D01*
X34963443Y-29524286D01*
X34974994Y-29502675D01*
X34982106Y-29479226D01*
X34984508Y-29454840D01*
X34982106Y-29430455D01*
X34973840Y-29388900D01*
X34973840Y-29328818D01*
X34982106Y-29287261D01*
X34984508Y-29262874D01*
X34982106Y-29238488D01*
X34974993Y-29215039D01*
X34963442Y-29193429D01*
X34947896Y-29174487D01*
X34928954Y-29158942D01*
X34907343Y-29147391D01*
X34883895Y-29140278D01*
X34859508Y-29137876D01*
X34835122Y-29140278D01*
X34811674Y-29147391D01*
X34758204Y-29169539D01*
X34699282Y-29181259D01*
X34639198Y-29181259D01*
X34580276Y-29169539D01*
X34524770Y-29146548D01*
X34524769Y-29146548D01*
X34524768Y-29146547D01*
X34474814Y-29113168D01*
X34432331Y-29070685D01*
X34398952Y-29020731D01*
X34388969Y-28996630D01*
X34375960Y-28965223D01*
X34364240Y-28906301D01*
X34364240Y-28846217D01*
X34375960Y-28787295D01*
X34398951Y-28731789D01*
X34432330Y-28681834D01*
X34474815Y-28639349D01*
X34511793Y-28614641D01*
X34524768Y-28605971D01*
X34524770Y-28605970D01*
X34580276Y-28582979D01*
X34639198Y-28571259D01*
X34699282Y-28571259D01*
X34758202Y-28582978D01*
X34811675Y-28605127D01*
X34835124Y-28612239D01*
X34859510Y-28614641D01*
X34883896Y-28612239D01*
X34907345Y-28605125D01*
X34928956Y-28593574D01*
X34947898Y-28578029D01*
X34963443Y-28559087D01*
X34974994Y-28537476D01*
X34982106Y-28514027D01*
X34984508Y-28489641D01*
X34982106Y-28465256D01*
X34973840Y-28423701D01*
X34973840Y-28363618D01*
X34985560Y-28304696D01*
X35008551Y-28249190D01*
X35041930Y-28199235D01*
X35084415Y-28156750D01*
X35109221Y-28140175D01*
X35134368Y-28123372D01*
X35134370Y-28123371D01*
X35189876Y-28100380D01*
X35248798Y-28088660D01*
X35308882Y-28088660D01*
X35367804Y-28100380D01*
X35367804Y-28100380D01*
G37*
G36*
X27369344Y-27899720D02*
G01*
X27424850Y-27922711D01*
X27424852Y-27922712D01*
X27449999Y-27939515D01*
X27474805Y-27956090D01*
X27517290Y-27998575D01*
X27550669Y-28048530D01*
X27573660Y-28104036D01*
X27585380Y-28162958D01*
X27585380Y-28223042D01*
X27573661Y-28281962D01*
X27551512Y-28335435D01*
X27544400Y-28358884D01*
X27541998Y-28383270D01*
X27544400Y-28407656D01*
X27551514Y-28431105D01*
X27563065Y-28452716D01*
X27578610Y-28471658D01*
X27597552Y-28487203D01*
X27619163Y-28498754D01*
X27642612Y-28505866D01*
X27666998Y-28508268D01*
X27691383Y-28505866D01*
X27732938Y-28497600D01*
X27793020Y-28497600D01*
X27834577Y-28505866D01*
X27858964Y-28508268D01*
X27883350Y-28505866D01*
X27906799Y-28498753D01*
X27928409Y-28487202D01*
X27947351Y-28471656D01*
X27962896Y-28452714D01*
X27974447Y-28431103D01*
X27981560Y-28407655D01*
X27983962Y-28383268D01*
X27981560Y-28358882D01*
X27974447Y-28335434D01*
X27952299Y-28281964D01*
X27940579Y-28223042D01*
X27940579Y-28162958D01*
X27952299Y-28104036D01*
X27975290Y-28048530D01*
X28008669Y-27998575D01*
X28051154Y-27956090D01*
X28075960Y-27939515D01*
X28101107Y-27922712D01*
X28101109Y-27922711D01*
X28156615Y-27899720D01*
X28215537Y-27888000D01*
X28275621Y-27888000D01*
X28334543Y-27899720D01*
X28390049Y-27922711D01*
X28390051Y-27922712D01*
X28415198Y-27939515D01*
X28440004Y-27956090D01*
X28482489Y-27998575D01*
X28515868Y-28048530D01*
X28538859Y-28104036D01*
X28550579Y-28162958D01*
X28550579Y-28223042D01*
X28538860Y-28281962D01*
X28516711Y-28335435D01*
X28509599Y-28358884D01*
X28507197Y-28383270D01*
X28509599Y-28407656D01*
X28516713Y-28431105D01*
X28528264Y-28452716D01*
X28543809Y-28471658D01*
X28562751Y-28487203D01*
X28584362Y-28498754D01*
X28607811Y-28505866D01*
X28632197Y-28508268D01*
X28656582Y-28505866D01*
X28698137Y-28497600D01*
X28758219Y-28497600D01*
X28799776Y-28505866D01*
X28824163Y-28508268D01*
X28848549Y-28505866D01*
X28871998Y-28498753D01*
X28893608Y-28487202D01*
X28912550Y-28471656D01*
X28928095Y-28452714D01*
X28939646Y-28431103D01*
X28946759Y-28407655D01*
X28949161Y-28383268D01*
X28946759Y-28358882D01*
X28939646Y-28335434D01*
X28917498Y-28281964D01*
X28905778Y-28223042D01*
X28905778Y-28162958D01*
X28917498Y-28104036D01*
X28940489Y-28048530D01*
X28973868Y-27998575D01*
X29016353Y-27956090D01*
X29041159Y-27939515D01*
X29066306Y-27922712D01*
X29066308Y-27922711D01*
X29121814Y-27899720D01*
X29180736Y-27888000D01*
X29240820Y-27888000D01*
X29299742Y-27899720D01*
X29355248Y-27922711D01*
X29355250Y-27922712D01*
X29380397Y-27939515D01*
X29405203Y-27956090D01*
X29447688Y-27998575D01*
X29481067Y-28048530D01*
X29504058Y-28104036D01*
X29515778Y-28162958D01*
X29515778Y-28223042D01*
X29504059Y-28281962D01*
X29481910Y-28335435D01*
X29474798Y-28358884D01*
X29472396Y-28383270D01*
X29474798Y-28407656D01*
X29481912Y-28431105D01*
X29493463Y-28452716D01*
X29509008Y-28471658D01*
X29527950Y-28487203D01*
X29549561Y-28498754D01*
X29573010Y-28505866D01*
X29597396Y-28508268D01*
X29621781Y-28505866D01*
X29663336Y-28497600D01*
X29723418Y-28497600D01*
X29764975Y-28505866D01*
X29789362Y-28508268D01*
X29813748Y-28505866D01*
X29837197Y-28498753D01*
X29858807Y-28487202D01*
X29877749Y-28471656D01*
X29893294Y-28452714D01*
X29904845Y-28431103D01*
X29911958Y-28407655D01*
X29914360Y-28383268D01*
X29911958Y-28358882D01*
X29904845Y-28335434D01*
X29882697Y-28281964D01*
X29870977Y-28223042D01*
X29870977Y-28162958D01*
X29882697Y-28104036D01*
X29905688Y-28048530D01*
X29939067Y-27998575D01*
X29981552Y-27956090D01*
X30006358Y-27939515D01*
X30031505Y-27922712D01*
X30031507Y-27922711D01*
X30087013Y-27899720D01*
X30145935Y-27888000D01*
X30206019Y-27888000D01*
X30264941Y-27899720D01*
X30320447Y-27922711D01*
X30320449Y-27922712D01*
X30345596Y-27939515D01*
X30370402Y-27956090D01*
X30412887Y-27998575D01*
X30446266Y-28048530D01*
X30469257Y-28104036D01*
X30480977Y-28162958D01*
X30480977Y-28223042D01*
X30469258Y-28281962D01*
X30447109Y-28335435D01*
X30439997Y-28358884D01*
X30437595Y-28383270D01*
X30439997Y-28407656D01*
X30447111Y-28431105D01*
X30458662Y-28452716D01*
X30474207Y-28471658D01*
X30493149Y-28487203D01*
X30514760Y-28498754D01*
X30538209Y-28505866D01*
X30562595Y-28508268D01*
X30586980Y-28505866D01*
X30628535Y-28497600D01*
X30688617Y-28497600D01*
X30730174Y-28505866D01*
X30754561Y-28508268D01*
X30778947Y-28505866D01*
X30802396Y-28498753D01*
X30824006Y-28487202D01*
X30842948Y-28471656D01*
X30858493Y-28452714D01*
X30870044Y-28431103D01*
X30877157Y-28407655D01*
X30879559Y-28383268D01*
X30877157Y-28358882D01*
X30870044Y-28335434D01*
X30847896Y-28281964D01*
X30836176Y-28223042D01*
X30836176Y-28162958D01*
X30847896Y-28104036D01*
X30870887Y-28048530D01*
X30904266Y-27998575D01*
X30946751Y-27956090D01*
X30971557Y-27939515D01*
X30996704Y-27922712D01*
X30996706Y-27922711D01*
X31052212Y-27899720D01*
X31111134Y-27888000D01*
X31171218Y-27888000D01*
X31230140Y-27899720D01*
X31285646Y-27922711D01*
X31285648Y-27922712D01*
X31310795Y-27939515D01*
X31335601Y-27956090D01*
X31378086Y-27998575D01*
X31411465Y-28048530D01*
X31434456Y-28104036D01*
X31446176Y-28162958D01*
X31446176Y-28223042D01*
X31434457Y-28281962D01*
X31412308Y-28335435D01*
X31405196Y-28358884D01*
X31402794Y-28383270D01*
X31405196Y-28407656D01*
X31412310Y-28431105D01*
X31423861Y-28452716D01*
X31439406Y-28471658D01*
X31458348Y-28487203D01*
X31479959Y-28498754D01*
X31503408Y-28505866D01*
X31527794Y-28508268D01*
X31552179Y-28505866D01*
X31593734Y-28497600D01*
X31653816Y-28497600D01*
X31695373Y-28505866D01*
X31719760Y-28508268D01*
X31744146Y-28505866D01*
X31767595Y-28498753D01*
X31789205Y-28487202D01*
X31808147Y-28471656D01*
X31823692Y-28452714D01*
X31835243Y-28431103D01*
X31842356Y-28407655D01*
X31844758Y-28383268D01*
X31842356Y-28358882D01*
X31835243Y-28335434D01*
X31813095Y-28281964D01*
X31801375Y-28223042D01*
X31801375Y-28162958D01*
X31813095Y-28104036D01*
X31836086Y-28048530D01*
X31869465Y-27998575D01*
X31911950Y-27956090D01*
X31936756Y-27939515D01*
X31961903Y-27922712D01*
X31961905Y-27922711D01*
X32017411Y-27899720D01*
X32076333Y-27888000D01*
X32136417Y-27888000D01*
X32195339Y-27899720D01*
X32250845Y-27922711D01*
X32250847Y-27922712D01*
X32275994Y-27939515D01*
X32300800Y-27956090D01*
X32343285Y-27998575D01*
X32376664Y-28048530D01*
X32399655Y-28104036D01*
X32411375Y-28162958D01*
X32411375Y-28223042D01*
X32399656Y-28281962D01*
X32377507Y-28335435D01*
X32370395Y-28358884D01*
X32367993Y-28383270D01*
X32370395Y-28407656D01*
X32377509Y-28431105D01*
X32389060Y-28452716D01*
X32404605Y-28471658D01*
X32423547Y-28487203D01*
X32445158Y-28498754D01*
X32468607Y-28505866D01*
X32492993Y-28508268D01*
X32517378Y-28505866D01*
X32558933Y-28497600D01*
X32619015Y-28497600D01*
X32660572Y-28505866D01*
X32684959Y-28508268D01*
X32709345Y-28505866D01*
X32732794Y-28498753D01*
X32754404Y-28487202D01*
X32773346Y-28471656D01*
X32788891Y-28452714D01*
X32800442Y-28431103D01*
X32807555Y-28407655D01*
X32809957Y-28383268D01*
X32807555Y-28358882D01*
X32800442Y-28335434D01*
X32778294Y-28281964D01*
X32766574Y-28223042D01*
X32766574Y-28162958D01*
X32778294Y-28104036D01*
X32801285Y-28048530D01*
X32834664Y-27998575D01*
X32877149Y-27956090D01*
X32901955Y-27939515D01*
X32927102Y-27922712D01*
X32927104Y-27922711D01*
X32982610Y-27899720D01*
X33041532Y-27888000D01*
X33101616Y-27888000D01*
X33160538Y-27899720D01*
X33216044Y-27922711D01*
X33216046Y-27922712D01*
X33241193Y-27939515D01*
X33265999Y-27956090D01*
X33308484Y-27998575D01*
X33341863Y-28048530D01*
X33364854Y-28104036D01*
X33376574Y-28162958D01*
X33376574Y-28223042D01*
X33364855Y-28281962D01*
X33342706Y-28335435D01*
X33335594Y-28358884D01*
X33333192Y-28383270D01*
X33335594Y-28407656D01*
X33342708Y-28431105D01*
X33354259Y-28452716D01*
X33369804Y-28471658D01*
X33388746Y-28487203D01*
X33410357Y-28498754D01*
X33433806Y-28505866D01*
X33458192Y-28508268D01*
X33482577Y-28505866D01*
X33524132Y-28497600D01*
X33584215Y-28497600D01*
X33643137Y-28509320D01*
X33698643Y-28532311D01*
X33698645Y-28532312D01*
X33706373Y-28537476D01*
X33748598Y-28565690D01*
X33791083Y-28608175D01*
X33795403Y-28614641D01*
X33824162Y-28657680D01*
X33824462Y-28658130D01*
X33847453Y-28713636D01*
X33859173Y-28772558D01*
X33859173Y-28832642D01*
X33847453Y-28891564D01*
X33824462Y-28947070D01*
X33791083Y-28997025D01*
X33748598Y-29039510D01*
X33727123Y-29053859D01*
X33698645Y-29072888D01*
X33698644Y-29072889D01*
X33698643Y-29072889D01*
X33643137Y-29095880D01*
X33584215Y-29107600D01*
X33524131Y-29107600D01*
X33465209Y-29095880D01*
X33409703Y-29072889D01*
X33409702Y-29072889D01*
X33409701Y-29072888D01*
X33381223Y-29053859D01*
X33359748Y-29039510D01*
X33317263Y-28997025D01*
X33283884Y-28947070D01*
X33260893Y-28891564D01*
X33249173Y-28832642D01*
X33249173Y-28772558D01*
X33260892Y-28713638D01*
X33283041Y-28660165D01*
X33290153Y-28636716D01*
X33292555Y-28612330D01*
X33290153Y-28587944D01*
X33283039Y-28564495D01*
X33271488Y-28542884D01*
X33255943Y-28523942D01*
X33237001Y-28508397D01*
X33215390Y-28496846D01*
X33191941Y-28489734D01*
X33167555Y-28487332D01*
X33143170Y-28489734D01*
X33101615Y-28498000D01*
X33041533Y-28498000D01*
X32999976Y-28489734D01*
X32975589Y-28487332D01*
X32951203Y-28489734D01*
X32927754Y-28496847D01*
X32906144Y-28508398D01*
X32887202Y-28523944D01*
X32871657Y-28542886D01*
X32860106Y-28564497D01*
X32852993Y-28587945D01*
X32850591Y-28612332D01*
X32852993Y-28636718D01*
X32860106Y-28660166D01*
X32882254Y-28713636D01*
X32893974Y-28772558D01*
X32893974Y-28832642D01*
X32882254Y-28891564D01*
X32859263Y-28947070D01*
X32825884Y-28997025D01*
X32783399Y-29039510D01*
X32761924Y-29053859D01*
X32733446Y-29072888D01*
X32733445Y-29072889D01*
X32733444Y-29072889D01*
X32677938Y-29095880D01*
X32619016Y-29107600D01*
X32558932Y-29107600D01*
X32500010Y-29095880D01*
X32444504Y-29072889D01*
X32444503Y-29072889D01*
X32444502Y-29072888D01*
X32416024Y-29053859D01*
X32394549Y-29039510D01*
X32352064Y-28997025D01*
X32318685Y-28947070D01*
X32295694Y-28891564D01*
X32283974Y-28832642D01*
X32283974Y-28772558D01*
X32295693Y-28713638D01*
X32317842Y-28660165D01*
X32324954Y-28636716D01*
X32327356Y-28612330D01*
X32324954Y-28587944D01*
X32317840Y-28564495D01*
X32306289Y-28542884D01*
X32290744Y-28523942D01*
X32271802Y-28508397D01*
X32250191Y-28496846D01*
X32226742Y-28489734D01*
X32202356Y-28487332D01*
X32177971Y-28489734D01*
X32136416Y-28498000D01*
X32076334Y-28498000D01*
X32034777Y-28489734D01*
X32010390Y-28487332D01*
X31986004Y-28489734D01*
X31962555Y-28496847D01*
X31940945Y-28508398D01*
X31922003Y-28523944D01*
X31906458Y-28542886D01*
X31894907Y-28564497D01*
X31887794Y-28587945D01*
X31885392Y-28612332D01*
X31887794Y-28636718D01*
X31894907Y-28660166D01*
X31917055Y-28713636D01*
X31928775Y-28772558D01*
X31928775Y-28832642D01*
X31917055Y-28891564D01*
X31894064Y-28947070D01*
X31860685Y-28997025D01*
X31818200Y-29039510D01*
X31796725Y-29053859D01*
X31768247Y-29072888D01*
X31768246Y-29072889D01*
X31768245Y-29072889D01*
X31712739Y-29095880D01*
X31653817Y-29107600D01*
X31593733Y-29107600D01*
X31534811Y-29095880D01*
X31479305Y-29072889D01*
X31479304Y-29072889D01*
X31479303Y-29072888D01*
X31450825Y-29053859D01*
X31429350Y-29039510D01*
X31386865Y-28997025D01*
X31353486Y-28947070D01*
X31330495Y-28891564D01*
X31318775Y-28832642D01*
X31318775Y-28772558D01*
X31330494Y-28713638D01*
X31352643Y-28660165D01*
X31359755Y-28636716D01*
X31362157Y-28612330D01*
X31359755Y-28587944D01*
X31352641Y-28564495D01*
X31341090Y-28542884D01*
X31325545Y-28523942D01*
X31306603Y-28508397D01*
X31284992Y-28496846D01*
X31261543Y-28489734D01*
X31237157Y-28487332D01*
X31212772Y-28489734D01*
X31171217Y-28498000D01*
X31111135Y-28498000D01*
X31069578Y-28489734D01*
X31045191Y-28487332D01*
X31020805Y-28489734D01*
X30997356Y-28496847D01*
X30975746Y-28508398D01*
X30956804Y-28523944D01*
X30941259Y-28542886D01*
X30929708Y-28564497D01*
X30922595Y-28587945D01*
X30920193Y-28612332D01*
X30922595Y-28636718D01*
X30929708Y-28660166D01*
X30951856Y-28713636D01*
X30963576Y-28772558D01*
X30963576Y-28832642D01*
X30951856Y-28891564D01*
X30928865Y-28947070D01*
X30895486Y-28997025D01*
X30853001Y-29039510D01*
X30831526Y-29053859D01*
X30803048Y-29072888D01*
X30803047Y-29072889D01*
X30803046Y-29072889D01*
X30747540Y-29095880D01*
X30688618Y-29107600D01*
X30628534Y-29107600D01*
X30569612Y-29095880D01*
X30514106Y-29072889D01*
X30514105Y-29072889D01*
X30514104Y-29072888D01*
X30485626Y-29053859D01*
X30464151Y-29039510D01*
X30421666Y-28997025D01*
X30388287Y-28947070D01*
X30365296Y-28891564D01*
X30353576Y-28832642D01*
X30353576Y-28772558D01*
X30365295Y-28713638D01*
X30387444Y-28660165D01*
X30394556Y-28636716D01*
X30396958Y-28612330D01*
X30394556Y-28587944D01*
X30387442Y-28564495D01*
X30375891Y-28542884D01*
X30360346Y-28523942D01*
X30341404Y-28508397D01*
X30319793Y-28496846D01*
X30296344Y-28489734D01*
X30271958Y-28487332D01*
X30247573Y-28489734D01*
X30206018Y-28498000D01*
X30145936Y-28498000D01*
X30104379Y-28489734D01*
X30079992Y-28487332D01*
X30055606Y-28489734D01*
X30032157Y-28496847D01*
X30010547Y-28508398D01*
X29991605Y-28523944D01*
X29976060Y-28542886D01*
X29964509Y-28564497D01*
X29957396Y-28587945D01*
X29954994Y-28612332D01*
X29957396Y-28636718D01*
X29964509Y-28660166D01*
X29986657Y-28713636D01*
X29998377Y-28772558D01*
X29998377Y-28832642D01*
X29986657Y-28891564D01*
X29963666Y-28947070D01*
X29930287Y-28997025D01*
X29887802Y-29039510D01*
X29866327Y-29053859D01*
X29837849Y-29072888D01*
X29837848Y-29072889D01*
X29837847Y-29072889D01*
X29782341Y-29095880D01*
X29723419Y-29107600D01*
X29663335Y-29107600D01*
X29604413Y-29095880D01*
X29548907Y-29072889D01*
X29548906Y-29072889D01*
X29548905Y-29072888D01*
X29520427Y-29053859D01*
X29498952Y-29039510D01*
X29456467Y-28997025D01*
X29423088Y-28947070D01*
X29400097Y-28891564D01*
X29388377Y-28832642D01*
X29388377Y-28772558D01*
X29400096Y-28713638D01*
X29422245Y-28660165D01*
X29429357Y-28636716D01*
X29431759Y-28612330D01*
X29429357Y-28587944D01*
X29422243Y-28564495D01*
X29410692Y-28542884D01*
X29395147Y-28523942D01*
X29376205Y-28508397D01*
X29354594Y-28496846D01*
X29331145Y-28489734D01*
X29306759Y-28487332D01*
X29282374Y-28489734D01*
X29240819Y-28498000D01*
X29180737Y-28498000D01*
X29139180Y-28489734D01*
X29114793Y-28487332D01*
X29090407Y-28489734D01*
X29066958Y-28496847D01*
X29045348Y-28508398D01*
X29026406Y-28523944D01*
X29010861Y-28542886D01*
X28999310Y-28564497D01*
X28992197Y-28587945D01*
X28989795Y-28612332D01*
X28992197Y-28636718D01*
X28999310Y-28660166D01*
X29021458Y-28713636D01*
X29033178Y-28772558D01*
X29033178Y-28832642D01*
X29021458Y-28891564D01*
X28998467Y-28947070D01*
X28965088Y-28997025D01*
X28922603Y-29039510D01*
X28901128Y-29053859D01*
X28872650Y-29072888D01*
X28872649Y-29072889D01*
X28872648Y-29072889D01*
X28817142Y-29095880D01*
X28758220Y-29107600D01*
X28698136Y-29107600D01*
X28639214Y-29095880D01*
X28583708Y-29072889D01*
X28583707Y-29072889D01*
X28583706Y-29072888D01*
X28555228Y-29053859D01*
X28533753Y-29039510D01*
X28491268Y-28997025D01*
X28457889Y-28947070D01*
X28434898Y-28891564D01*
X28423178Y-28832642D01*
X28423178Y-28772558D01*
X28434897Y-28713638D01*
X28457046Y-28660165D01*
X28464158Y-28636716D01*
X28466560Y-28612330D01*
X28464158Y-28587944D01*
X28457044Y-28564495D01*
X28445493Y-28542884D01*
X28429948Y-28523942D01*
X28411006Y-28508397D01*
X28389395Y-28496846D01*
X28365946Y-28489734D01*
X28341560Y-28487332D01*
X28317175Y-28489734D01*
X28275620Y-28498000D01*
X28215538Y-28498000D01*
X28173981Y-28489734D01*
X28149594Y-28487332D01*
X28125208Y-28489734D01*
X28101759Y-28496847D01*
X28080149Y-28508398D01*
X28061207Y-28523944D01*
X28045662Y-28542886D01*
X28034111Y-28564497D01*
X28026998Y-28587945D01*
X28024596Y-28612332D01*
X28026998Y-28636718D01*
X28034111Y-28660166D01*
X28056259Y-28713636D01*
X28067979Y-28772558D01*
X28067979Y-28832642D01*
X28056259Y-28891564D01*
X28033268Y-28947070D01*
X27999889Y-28997025D01*
X27957404Y-29039510D01*
X27935929Y-29053859D01*
X27907451Y-29072888D01*
X27907450Y-29072889D01*
X27907449Y-29072889D01*
X27851943Y-29095880D01*
X27793021Y-29107600D01*
X27732937Y-29107600D01*
X27674015Y-29095880D01*
X27618509Y-29072889D01*
X27618508Y-29072889D01*
X27618507Y-29072888D01*
X27590029Y-29053859D01*
X27568554Y-29039510D01*
X27526069Y-28997025D01*
X27492690Y-28947070D01*
X27469699Y-28891564D01*
X27457979Y-28832642D01*
X27457979Y-28772558D01*
X27469698Y-28713638D01*
X27491847Y-28660165D01*
X27498959Y-28636716D01*
X27501361Y-28612330D01*
X27498959Y-28587944D01*
X27491845Y-28564495D01*
X27480294Y-28542884D01*
X27464749Y-28523942D01*
X27445807Y-28508397D01*
X27424196Y-28496846D01*
X27400747Y-28489734D01*
X27376361Y-28487332D01*
X27351976Y-28489734D01*
X27310421Y-28498000D01*
X27250338Y-28498000D01*
X27191416Y-28486280D01*
X27135910Y-28463289D01*
X27135909Y-28463289D01*
X27135908Y-28463288D01*
X27110761Y-28446485D01*
X27085955Y-28429910D01*
X27043470Y-28387425D01*
X27010091Y-28337470D01*
X26987100Y-28281964D01*
X26975380Y-28223042D01*
X26975380Y-28162958D01*
X26987100Y-28104036D01*
X27010091Y-28048530D01*
X27043470Y-27998575D01*
X27085955Y-27956090D01*
X27110761Y-27939515D01*
X27135908Y-27922712D01*
X27135910Y-27922711D01*
X27191416Y-27899720D01*
X27250338Y-27888000D01*
X27310422Y-27888000D01*
X27369344Y-27899720D01*
X27369344Y-27899720D01*
G37*
G36*
X28333763Y-21899720D02*
G01*
X28389269Y-21922711D01*
X28389271Y-21922712D01*
X28414418Y-21939515D01*
X28439224Y-21956090D01*
X28481709Y-21998575D01*
X28515088Y-22048530D01*
X28538079Y-22104036D01*
X28549799Y-22162958D01*
X28549799Y-22223042D01*
X28538079Y-22281964D01*
X28515931Y-22335435D01*
X28508818Y-22358884D01*
X28506416Y-22383270D01*
X28508818Y-22407657D01*
X28515931Y-22431105D01*
X28527482Y-22452716D01*
X28543028Y-22471658D01*
X28561970Y-22487203D01*
X28583580Y-22498754D01*
X28607029Y-22505867D01*
X28631415Y-22508269D01*
X28655801Y-22505867D01*
X28697362Y-22497600D01*
X28757444Y-22497600D01*
X28798999Y-22505866D01*
X28823385Y-22508268D01*
X28847771Y-22505866D01*
X28871220Y-22498753D01*
X28892830Y-22487202D01*
X28911772Y-22471657D01*
X28927318Y-22452715D01*
X28938869Y-22431104D01*
X28945982Y-22407655D01*
X28948384Y-22383269D01*
X28945982Y-22358883D01*
X28938870Y-22335435D01*
X28916721Y-22281962D01*
X28905002Y-22223042D01*
X28905002Y-22162958D01*
X28916722Y-22104036D01*
X28939713Y-22048530D01*
X28973092Y-21998575D01*
X29015577Y-21956090D01*
X29040383Y-21939515D01*
X29065530Y-21922712D01*
X29065532Y-21922711D01*
X29121038Y-21899720D01*
X29179960Y-21888000D01*
X29240044Y-21888000D01*
X29298966Y-21899720D01*
X29354472Y-21922711D01*
X29354474Y-21922712D01*
X29379621Y-21939515D01*
X29404427Y-21956090D01*
X29446912Y-21998575D01*
X29480291Y-22048530D01*
X29503282Y-22104036D01*
X29515002Y-22162958D01*
X29515002Y-22223042D01*
X29503282Y-22281964D01*
X29481134Y-22335434D01*
X29474021Y-22358883D01*
X29471619Y-22383269D01*
X29474021Y-22407655D01*
X29481134Y-22431104D01*
X29492685Y-22452715D01*
X29508230Y-22471656D01*
X29527172Y-22487202D01*
X29548783Y-22498753D01*
X29572232Y-22505866D01*
X29596618Y-22508268D01*
X29621004Y-22505866D01*
X29662561Y-22497600D01*
X29722643Y-22497600D01*
X29764198Y-22505866D01*
X29788584Y-22508268D01*
X29812970Y-22505866D01*
X29836419Y-22498753D01*
X29858029Y-22487202D01*
X29876971Y-22471657D01*
X29892517Y-22452715D01*
X29904068Y-22431104D01*
X29911181Y-22407655D01*
X29913583Y-22383269D01*
X29911181Y-22358883D01*
X29904069Y-22335435D01*
X29881920Y-22281962D01*
X29870201Y-22223042D01*
X29870201Y-22162958D01*
X29881921Y-22104036D01*
X29904912Y-22048530D01*
X29938291Y-21998575D01*
X29980776Y-21956090D01*
X30005582Y-21939515D01*
X30030729Y-21922712D01*
X30030731Y-21922711D01*
X30086237Y-21899720D01*
X30145159Y-21888000D01*
X30205243Y-21888000D01*
X30264165Y-21899720D01*
X30319671Y-21922711D01*
X30319673Y-21922712D01*
X30344820Y-21939515D01*
X30369626Y-21956090D01*
X30412111Y-21998575D01*
X30445490Y-22048530D01*
X30468481Y-22104036D01*
X30480201Y-22162958D01*
X30480201Y-22223042D01*
X30468481Y-22281964D01*
X30446333Y-22335434D01*
X30439220Y-22358883D01*
X30436818Y-22383269D01*
X30439220Y-22407655D01*
X30446333Y-22431104D01*
X30457884Y-22452715D01*
X30473429Y-22471656D01*
X30492371Y-22487202D01*
X30513982Y-22498753D01*
X30537431Y-22505866D01*
X30561817Y-22508268D01*
X30586203Y-22505866D01*
X30627760Y-22497600D01*
X30687842Y-22497600D01*
X30729397Y-22505866D01*
X30753783Y-22508268D01*
X30778169Y-22505866D01*
X30801618Y-22498753D01*
X30823228Y-22487202D01*
X30842170Y-22471657D01*
X30857716Y-22452715D01*
X30869267Y-22431104D01*
X30876380Y-22407655D01*
X30878782Y-22383269D01*
X30876380Y-22358883D01*
X30869268Y-22335435D01*
X30847119Y-22281962D01*
X30835400Y-22223042D01*
X30835400Y-22162958D01*
X30847120Y-22104036D01*
X30870111Y-22048530D01*
X30903490Y-21998575D01*
X30945975Y-21956090D01*
X30970781Y-21939515D01*
X30995928Y-21922712D01*
X30995930Y-21922711D01*
X31051436Y-21899720D01*
X31110358Y-21888000D01*
X31170442Y-21888000D01*
X31229364Y-21899720D01*
X31284870Y-21922711D01*
X31284872Y-21922712D01*
X31310019Y-21939515D01*
X31334825Y-21956090D01*
X31377310Y-21998575D01*
X31410689Y-22048530D01*
X31433680Y-22104036D01*
X31445400Y-22162958D01*
X31445400Y-22223042D01*
X31433680Y-22281964D01*
X31411532Y-22335434D01*
X31404419Y-22358883D01*
X31402017Y-22383269D01*
X31404419Y-22407655D01*
X31411532Y-22431104D01*
X31423083Y-22452715D01*
X31438628Y-22471656D01*
X31457570Y-22487202D01*
X31479181Y-22498753D01*
X31502630Y-22505866D01*
X31527016Y-22508268D01*
X31551402Y-22505866D01*
X31592959Y-22497600D01*
X31653041Y-22497600D01*
X31694596Y-22505866D01*
X31718982Y-22508268D01*
X31743368Y-22505866D01*
X31766817Y-22498753D01*
X31788427Y-22487202D01*
X31807369Y-22471657D01*
X31822915Y-22452715D01*
X31834466Y-22431104D01*
X31841579Y-22407655D01*
X31843981Y-22383269D01*
X31841579Y-22358883D01*
X31834467Y-22335435D01*
X31812318Y-22281962D01*
X31800599Y-22223042D01*
X31800599Y-22162958D01*
X31812319Y-22104036D01*
X31835310Y-22048530D01*
X31868689Y-21998575D01*
X31911174Y-21956090D01*
X31935980Y-21939515D01*
X31961127Y-21922712D01*
X31961129Y-21922711D01*
X32016635Y-21899720D01*
X32075557Y-21888000D01*
X32135641Y-21888000D01*
X32194563Y-21899720D01*
X32250069Y-21922711D01*
X32250071Y-21922712D01*
X32275218Y-21939515D01*
X32300024Y-21956090D01*
X32342509Y-21998575D01*
X32375888Y-22048530D01*
X32398879Y-22104036D01*
X32410599Y-22162958D01*
X32410599Y-22223042D01*
X32398879Y-22281964D01*
X32376731Y-22335434D01*
X32369618Y-22358883D01*
X32367216Y-22383269D01*
X32369618Y-22407655D01*
X32376731Y-22431104D01*
X32388282Y-22452715D01*
X32403827Y-22471656D01*
X32422769Y-22487202D01*
X32444380Y-22498753D01*
X32467829Y-22505866D01*
X32492215Y-22508268D01*
X32516601Y-22505866D01*
X32558158Y-22497600D01*
X32618240Y-22497600D01*
X32659795Y-22505866D01*
X32684181Y-22508268D01*
X32708567Y-22505866D01*
X32732016Y-22498753D01*
X32753626Y-22487202D01*
X32772568Y-22471657D01*
X32788114Y-22452715D01*
X32799665Y-22431104D01*
X32806778Y-22407655D01*
X32809180Y-22383269D01*
X32806778Y-22358883D01*
X32799666Y-22335435D01*
X32777517Y-22281962D01*
X32765798Y-22223042D01*
X32765798Y-22162958D01*
X32777518Y-22104036D01*
X32800509Y-22048530D01*
X32833888Y-21998575D01*
X32876373Y-21956090D01*
X32901179Y-21939515D01*
X32926326Y-21922712D01*
X32926328Y-21922711D01*
X32981834Y-21899720D01*
X33040756Y-21888000D01*
X33100840Y-21888000D01*
X33159762Y-21899720D01*
X33215268Y-21922711D01*
X33215270Y-21922712D01*
X33240417Y-21939515D01*
X33265223Y-21956090D01*
X33307708Y-21998575D01*
X33341087Y-22048530D01*
X33364078Y-22104036D01*
X33375798Y-22162958D01*
X33375798Y-22223042D01*
X33364078Y-22281964D01*
X33341930Y-22335434D01*
X33334817Y-22358883D01*
X33332415Y-22383269D01*
X33334817Y-22407655D01*
X33341930Y-22431104D01*
X33353481Y-22452715D01*
X33369026Y-22471656D01*
X33387968Y-22487202D01*
X33409579Y-22498753D01*
X33433028Y-22505866D01*
X33457414Y-22508268D01*
X33481800Y-22505866D01*
X33523357Y-22497600D01*
X33583439Y-22497600D01*
X33624994Y-22505866D01*
X33649380Y-22508268D01*
X33673766Y-22505866D01*
X33697215Y-22498753D01*
X33718825Y-22487202D01*
X33737767Y-22471657D01*
X33753313Y-22452715D01*
X33764864Y-22431104D01*
X33771977Y-22407655D01*
X33774379Y-22383269D01*
X33771977Y-22358883D01*
X33764865Y-22335435D01*
X33742716Y-22281962D01*
X33730997Y-22223042D01*
X33730997Y-22162958D01*
X33742717Y-22104036D01*
X33765708Y-22048530D01*
X33799087Y-21998575D01*
X33841572Y-21956090D01*
X33866378Y-21939515D01*
X33891525Y-21922712D01*
X33891527Y-21922711D01*
X33947033Y-21899720D01*
X34005955Y-21888000D01*
X34066039Y-21888000D01*
X34124961Y-21899720D01*
X34180467Y-21922711D01*
X34180469Y-21922712D01*
X34205616Y-21939515D01*
X34230422Y-21956090D01*
X34272907Y-21998575D01*
X34306286Y-22048530D01*
X34329277Y-22104036D01*
X34340997Y-22162958D01*
X34340997Y-22223042D01*
X34329277Y-22281964D01*
X34307129Y-22335434D01*
X34300016Y-22358883D01*
X34297614Y-22383269D01*
X34300016Y-22407655D01*
X34307129Y-22431104D01*
X34318680Y-22452715D01*
X34334225Y-22471656D01*
X34353167Y-22487202D01*
X34374778Y-22498753D01*
X34398227Y-22505866D01*
X34422613Y-22508268D01*
X34446999Y-22505866D01*
X34488556Y-22497600D01*
X34548638Y-22497600D01*
X34590193Y-22505866D01*
X34614579Y-22508268D01*
X34638965Y-22505866D01*
X34662414Y-22498753D01*
X34684024Y-22487202D01*
X34702966Y-22471657D01*
X34718512Y-22452715D01*
X34730063Y-22431104D01*
X34737176Y-22407655D01*
X34739578Y-22383269D01*
X34737176Y-22358883D01*
X34730064Y-22335435D01*
X34707915Y-22281962D01*
X34696196Y-22223042D01*
X34696196Y-22162958D01*
X34707916Y-22104036D01*
X34730907Y-22048530D01*
X34764286Y-21998575D01*
X34806771Y-21956090D01*
X34831577Y-21939515D01*
X34856724Y-21922712D01*
X34856726Y-21922711D01*
X34912232Y-21899720D01*
X34971154Y-21888000D01*
X35031238Y-21888000D01*
X35090160Y-21899720D01*
X35145666Y-21922711D01*
X35145668Y-21922712D01*
X35170815Y-21939515D01*
X35195621Y-21956090D01*
X35238106Y-21998575D01*
X35271485Y-22048530D01*
X35294476Y-22104036D01*
X35306196Y-22162958D01*
X35306196Y-22223042D01*
X35294476Y-22281964D01*
X35272328Y-22335434D01*
X35265215Y-22358883D01*
X35262813Y-22383269D01*
X35265215Y-22407655D01*
X35272328Y-22431104D01*
X35283879Y-22452715D01*
X35299424Y-22471656D01*
X35318366Y-22487202D01*
X35339977Y-22498753D01*
X35363426Y-22505866D01*
X35387812Y-22508268D01*
X35412198Y-22505866D01*
X35453755Y-22497600D01*
X35513837Y-22497600D01*
X35555392Y-22505866D01*
X35579778Y-22508268D01*
X35604164Y-22505866D01*
X35627613Y-22498753D01*
X35649223Y-22487202D01*
X35668165Y-22471657D01*
X35683711Y-22452715D01*
X35695262Y-22431104D01*
X35702375Y-22407655D01*
X35704777Y-22383269D01*
X35702375Y-22358883D01*
X35695263Y-22335435D01*
X35673114Y-22281962D01*
X35661395Y-22223042D01*
X35661395Y-22162958D01*
X35673115Y-22104036D01*
X35696106Y-22048530D01*
X35729485Y-21998575D01*
X35771970Y-21956090D01*
X35796776Y-21939515D01*
X35821923Y-21922712D01*
X35821925Y-21922711D01*
X35877431Y-21899720D01*
X35936353Y-21888000D01*
X35996437Y-21888000D01*
X36055359Y-21899720D01*
X36110865Y-21922711D01*
X36110867Y-21922712D01*
X36136014Y-21939515D01*
X36160820Y-21956090D01*
X36203305Y-21998575D01*
X36236684Y-22048530D01*
X36259675Y-22104036D01*
X36271395Y-22162958D01*
X36271395Y-22223042D01*
X36259675Y-22281964D01*
X36237527Y-22335434D01*
X36230414Y-22358883D01*
X36228012Y-22383269D01*
X36230414Y-22407655D01*
X36237527Y-22431104D01*
X36249078Y-22452715D01*
X36264623Y-22471656D01*
X36283565Y-22487202D01*
X36305176Y-22498753D01*
X36328625Y-22505866D01*
X36353011Y-22508268D01*
X36377397Y-22505866D01*
X36418954Y-22497600D01*
X36479036Y-22497600D01*
X36520591Y-22505866D01*
X36544977Y-22508268D01*
X36569363Y-22505866D01*
X36592812Y-22498753D01*
X36614422Y-22487202D01*
X36633364Y-22471657D01*
X36648910Y-22452715D01*
X36660461Y-22431104D01*
X36667574Y-22407655D01*
X36669976Y-22383269D01*
X36667574Y-22358883D01*
X36660462Y-22335435D01*
X36638313Y-22281962D01*
X36626594Y-22223042D01*
X36626594Y-22162958D01*
X36638314Y-22104036D01*
X36661305Y-22048530D01*
X36694684Y-21998575D01*
X36737169Y-21956090D01*
X36761975Y-21939515D01*
X36787122Y-21922712D01*
X36787124Y-21922711D01*
X36842630Y-21899720D01*
X36901552Y-21888000D01*
X36961636Y-21888000D01*
X37020558Y-21899720D01*
X37076064Y-21922711D01*
X37076066Y-21922712D01*
X37101213Y-21939515D01*
X37126019Y-21956090D01*
X37168504Y-21998575D01*
X37201883Y-22048530D01*
X37224874Y-22104036D01*
X37236594Y-22162958D01*
X37236594Y-22223042D01*
X37224874Y-22281964D01*
X37202726Y-22335434D01*
X37195613Y-22358883D01*
X37193211Y-22383269D01*
X37195613Y-22407655D01*
X37202726Y-22431104D01*
X37214277Y-22452715D01*
X37229822Y-22471656D01*
X37248764Y-22487202D01*
X37270375Y-22498753D01*
X37293824Y-22505866D01*
X37318210Y-22508268D01*
X37342596Y-22505866D01*
X37384153Y-22497600D01*
X37444235Y-22497600D01*
X37485790Y-22505866D01*
X37510176Y-22508268D01*
X37534562Y-22505866D01*
X37558011Y-22498753D01*
X37579621Y-22487202D01*
X37598563Y-22471657D01*
X37614109Y-22452715D01*
X37625660Y-22431104D01*
X37632773Y-22407655D01*
X37635175Y-22383269D01*
X37632773Y-22358883D01*
X37625661Y-22335435D01*
X37603512Y-22281962D01*
X37591793Y-22223042D01*
X37591793Y-22162958D01*
X37603513Y-22104036D01*
X37626504Y-22048530D01*
X37659883Y-21998575D01*
X37702368Y-21956090D01*
X37727174Y-21939515D01*
X37752321Y-21922712D01*
X37752323Y-21922711D01*
X37807829Y-21899720D01*
X37866751Y-21888000D01*
X37926835Y-21888000D01*
X37985757Y-21899720D01*
X38041263Y-21922711D01*
X38041265Y-21922712D01*
X38066412Y-21939515D01*
X38091218Y-21956090D01*
X38133703Y-21998575D01*
X38167082Y-22048530D01*
X38190073Y-22104036D01*
X38201793Y-22162958D01*
X38201793Y-22223042D01*
X38190073Y-22281964D01*
X38167082Y-22337470D01*
X38133703Y-22387425D01*
X38091218Y-22429910D01*
X38066412Y-22446485D01*
X38041265Y-22463288D01*
X38041264Y-22463289D01*
X38041263Y-22463289D01*
X37985757Y-22486280D01*
X37926835Y-22498000D01*
X37866752Y-22498000D01*
X37825197Y-22489734D01*
X37800811Y-22487332D01*
X37776425Y-22489734D01*
X37752976Y-22496847D01*
X37731366Y-22508398D01*
X37712424Y-22523943D01*
X37696878Y-22542885D01*
X37685327Y-22564496D01*
X37678214Y-22587945D01*
X37675812Y-22612331D01*
X37678214Y-22636717D01*
X37685326Y-22660165D01*
X37707475Y-22713638D01*
X37719194Y-22772558D01*
X37719194Y-22832642D01*
X37707474Y-22891564D01*
X37684483Y-22947070D01*
X37684482Y-22947072D01*
X37651103Y-22997026D01*
X37608620Y-23039509D01*
X37558666Y-23072888D01*
X37558665Y-23072889D01*
X37558664Y-23072889D01*
X37503158Y-23095880D01*
X37444236Y-23107600D01*
X37384152Y-23107600D01*
X37325230Y-23095880D01*
X37269724Y-23072889D01*
X37269723Y-23072889D01*
X37269722Y-23072888D01*
X37219768Y-23039509D01*
X37177285Y-22997026D01*
X37143906Y-22947072D01*
X37143905Y-22947070D01*
X37120914Y-22891564D01*
X37109194Y-22832642D01*
X37109194Y-22772558D01*
X37120914Y-22713636D01*
X37143062Y-22660166D01*
X37150175Y-22636717D01*
X37152577Y-22612331D01*
X37150175Y-22587945D01*
X37143062Y-22564496D01*
X37131511Y-22542885D01*
X37115966Y-22523944D01*
X37097024Y-22508398D01*
X37075413Y-22496847D01*
X37051964Y-22489734D01*
X37027578Y-22487332D01*
X37003192Y-22489734D01*
X36961635Y-22498000D01*
X36901553Y-22498000D01*
X36859998Y-22489734D01*
X36835612Y-22487332D01*
X36811226Y-22489734D01*
X36787777Y-22496847D01*
X36766167Y-22508398D01*
X36747225Y-22523943D01*
X36731679Y-22542885D01*
X36720128Y-22564496D01*
X36713015Y-22587945D01*
X36710613Y-22612331D01*
X36713015Y-22636717D01*
X36720127Y-22660165D01*
X36742276Y-22713638D01*
X36753995Y-22772558D01*
X36753995Y-22832642D01*
X36742275Y-22891564D01*
X36719284Y-22947070D01*
X36719283Y-22947072D01*
X36685904Y-22997026D01*
X36643421Y-23039509D01*
X36593467Y-23072888D01*
X36593466Y-23072889D01*
X36593465Y-23072889D01*
X36537959Y-23095880D01*
X36479037Y-23107600D01*
X36418953Y-23107600D01*
X36360031Y-23095880D01*
X36304525Y-23072889D01*
X36304524Y-23072889D01*
X36304523Y-23072888D01*
X36254569Y-23039509D01*
X36212086Y-22997026D01*
X36178707Y-22947072D01*
X36178706Y-22947070D01*
X36155715Y-22891564D01*
X36143995Y-22832642D01*
X36143995Y-22772558D01*
X36155715Y-22713636D01*
X36177863Y-22660166D01*
X36184976Y-22636717D01*
X36187378Y-22612331D01*
X36184976Y-22587945D01*
X36177863Y-22564496D01*
X36166312Y-22542885D01*
X36150767Y-22523944D01*
X36131825Y-22508398D01*
X36110214Y-22496847D01*
X36086765Y-22489734D01*
X36062379Y-22487332D01*
X36037993Y-22489734D01*
X35996436Y-22498000D01*
X35936354Y-22498000D01*
X35894799Y-22489734D01*
X35870413Y-22487332D01*
X35846027Y-22489734D01*
X35822578Y-22496847D01*
X35800968Y-22508398D01*
X35782026Y-22523943D01*
X35766480Y-22542885D01*
X35754929Y-22564496D01*
X35747816Y-22587945D01*
X35745414Y-22612331D01*
X35747816Y-22636717D01*
X35754928Y-22660165D01*
X35777077Y-22713638D01*
X35788796Y-22772558D01*
X35788796Y-22832642D01*
X35777076Y-22891564D01*
X35754085Y-22947070D01*
X35754084Y-22947072D01*
X35720705Y-22997026D01*
X35678222Y-23039509D01*
X35628268Y-23072888D01*
X35628267Y-23072889D01*
X35628266Y-23072889D01*
X35572760Y-23095880D01*
X35513838Y-23107600D01*
X35453754Y-23107600D01*
X35394832Y-23095880D01*
X35339326Y-23072889D01*
X35339325Y-23072889D01*
X35339324Y-23072888D01*
X35289370Y-23039509D01*
X35246887Y-22997026D01*
X35213508Y-22947072D01*
X35213507Y-22947070D01*
X35190516Y-22891564D01*
X35178796Y-22832642D01*
X35178796Y-22772558D01*
X35190516Y-22713636D01*
X35212664Y-22660166D01*
X35219777Y-22636717D01*
X35222179Y-22612331D01*
X35219777Y-22587945D01*
X35212664Y-22564496D01*
X35201113Y-22542885D01*
X35185568Y-22523944D01*
X35166626Y-22508398D01*
X35145015Y-22496847D01*
X35121566Y-22489734D01*
X35097180Y-22487332D01*
X35072794Y-22489734D01*
X35031237Y-22498000D01*
X34971155Y-22498000D01*
X34929600Y-22489734D01*
X34905214Y-22487332D01*
X34880828Y-22489734D01*
X34857379Y-22496847D01*
X34835769Y-22508398D01*
X34816827Y-22523943D01*
X34801281Y-22542885D01*
X34789730Y-22564496D01*
X34782617Y-22587945D01*
X34780215Y-22612331D01*
X34782617Y-22636717D01*
X34789729Y-22660165D01*
X34811878Y-22713638D01*
X34823597Y-22772558D01*
X34823597Y-22832642D01*
X34811877Y-22891564D01*
X34788886Y-22947070D01*
X34788885Y-22947072D01*
X34755506Y-22997026D01*
X34713023Y-23039509D01*
X34663069Y-23072888D01*
X34663068Y-23072889D01*
X34663067Y-23072889D01*
X34607561Y-23095880D01*
X34548639Y-23107600D01*
X34488555Y-23107600D01*
X34429633Y-23095880D01*
X34374127Y-23072889D01*
X34374126Y-23072889D01*
X34374125Y-23072888D01*
X34324171Y-23039509D01*
X34281688Y-22997026D01*
X34248309Y-22947072D01*
X34248308Y-22947070D01*
X34225317Y-22891564D01*
X34213597Y-22832642D01*
X34213597Y-22772558D01*
X34225317Y-22713636D01*
X34247465Y-22660166D01*
X34254578Y-22636717D01*
X34256980Y-22612331D01*
X34254578Y-22587945D01*
X34247465Y-22564496D01*
X34235914Y-22542885D01*
X34220369Y-22523944D01*
X34201427Y-22508398D01*
X34179816Y-22496847D01*
X34156367Y-22489734D01*
X34131981Y-22487332D01*
X34107595Y-22489734D01*
X34066038Y-22498000D01*
X34005956Y-22498000D01*
X33964401Y-22489734D01*
X33940015Y-22487332D01*
X33915629Y-22489734D01*
X33892180Y-22496847D01*
X33870570Y-22508398D01*
X33851628Y-22523943D01*
X33836082Y-22542885D01*
X33824531Y-22564496D01*
X33817418Y-22587945D01*
X33815016Y-22612331D01*
X33817418Y-22636717D01*
X33824530Y-22660165D01*
X33846679Y-22713638D01*
X33858398Y-22772558D01*
X33858398Y-22832642D01*
X33846678Y-22891564D01*
X33823687Y-22947070D01*
X33823686Y-22947072D01*
X33790307Y-22997026D01*
X33747824Y-23039509D01*
X33697870Y-23072888D01*
X33697869Y-23072889D01*
X33697868Y-23072889D01*
X33642362Y-23095880D01*
X33583440Y-23107600D01*
X33523356Y-23107600D01*
X33464434Y-23095880D01*
X33408928Y-23072889D01*
X33408927Y-23072889D01*
X33408926Y-23072888D01*
X33358972Y-23039509D01*
X33316489Y-22997026D01*
X33283110Y-22947072D01*
X33283109Y-22947070D01*
X33260118Y-22891564D01*
X33248398Y-22832642D01*
X33248398Y-22772558D01*
X33260118Y-22713636D01*
X33282266Y-22660166D01*
X33289379Y-22636717D01*
X33291781Y-22612331D01*
X33289379Y-22587945D01*
X33282266Y-22564496D01*
X33270715Y-22542885D01*
X33255170Y-22523944D01*
X33236228Y-22508398D01*
X33214617Y-22496847D01*
X33191168Y-22489734D01*
X33166782Y-22487332D01*
X33142396Y-22489734D01*
X33100839Y-22498000D01*
X33040757Y-22498000D01*
X32999202Y-22489734D01*
X32974816Y-22487332D01*
X32950430Y-22489734D01*
X32926981Y-22496847D01*
X32905371Y-22508398D01*
X32886429Y-22523943D01*
X32870883Y-22542885D01*
X32859332Y-22564496D01*
X32852219Y-22587945D01*
X32849817Y-22612331D01*
X32852219Y-22636717D01*
X32859331Y-22660165D01*
X32881480Y-22713638D01*
X32893199Y-22772558D01*
X32893199Y-22832642D01*
X32881479Y-22891564D01*
X32858488Y-22947070D01*
X32858487Y-22947072D01*
X32825108Y-22997026D01*
X32782625Y-23039509D01*
X32732671Y-23072888D01*
X32732670Y-23072889D01*
X32732669Y-23072889D01*
X32677163Y-23095880D01*
X32618241Y-23107600D01*
X32558157Y-23107600D01*
X32499235Y-23095880D01*
X32443729Y-23072889D01*
X32443728Y-23072889D01*
X32443727Y-23072888D01*
X32393773Y-23039509D01*
X32351290Y-22997026D01*
X32317911Y-22947072D01*
X32317910Y-22947070D01*
X32294919Y-22891564D01*
X32283199Y-22832642D01*
X32283199Y-22772558D01*
X32294919Y-22713636D01*
X32317067Y-22660166D01*
X32324180Y-22636717D01*
X32326582Y-22612331D01*
X32324180Y-22587945D01*
X32317067Y-22564496D01*
X32305516Y-22542885D01*
X32289971Y-22523944D01*
X32271029Y-22508398D01*
X32249418Y-22496847D01*
X32225969Y-22489734D01*
X32201583Y-22487332D01*
X32177197Y-22489734D01*
X32135640Y-22498000D01*
X32075558Y-22498000D01*
X32034003Y-22489734D01*
X32009617Y-22487332D01*
X31985231Y-22489734D01*
X31961782Y-22496847D01*
X31940172Y-22508398D01*
X31921230Y-22523943D01*
X31905684Y-22542885D01*
X31894133Y-22564496D01*
X31887020Y-22587945D01*
X31884618Y-22612331D01*
X31887020Y-22636717D01*
X31894132Y-22660165D01*
X31916281Y-22713638D01*
X31928000Y-22772558D01*
X31928000Y-22832642D01*
X31916280Y-22891564D01*
X31893289Y-22947070D01*
X31893288Y-22947072D01*
X31859909Y-22997026D01*
X31817426Y-23039509D01*
X31767472Y-23072888D01*
X31767471Y-23072889D01*
X31767470Y-23072889D01*
X31711964Y-23095880D01*
X31653042Y-23107600D01*
X31592958Y-23107600D01*
X31534036Y-23095880D01*
X31478530Y-23072889D01*
X31478529Y-23072889D01*
X31478528Y-23072888D01*
X31428574Y-23039509D01*
X31386091Y-22997026D01*
X31352712Y-22947072D01*
X31352711Y-22947070D01*
X31329720Y-22891564D01*
X31318000Y-22832642D01*
X31318000Y-22772558D01*
X31329720Y-22713636D01*
X31351868Y-22660166D01*
X31358981Y-22636717D01*
X31361383Y-22612331D01*
X31358981Y-22587945D01*
X31351868Y-22564496D01*
X31340317Y-22542885D01*
X31324772Y-22523944D01*
X31305830Y-22508398D01*
X31284219Y-22496847D01*
X31260770Y-22489734D01*
X31236384Y-22487332D01*
X31211998Y-22489734D01*
X31170441Y-22498000D01*
X31110359Y-22498000D01*
X31068804Y-22489734D01*
X31044418Y-22487332D01*
X31020032Y-22489734D01*
X30996583Y-22496847D01*
X30974973Y-22508398D01*
X30956031Y-22523943D01*
X30940485Y-22542885D01*
X30928934Y-22564496D01*
X30921821Y-22587945D01*
X30919419Y-22612331D01*
X30921821Y-22636717D01*
X30928933Y-22660165D01*
X30951082Y-22713638D01*
X30962801Y-22772558D01*
X30962801Y-22832642D01*
X30951081Y-22891564D01*
X30928090Y-22947070D01*
X30928089Y-22947072D01*
X30894710Y-22997026D01*
X30852227Y-23039509D01*
X30802273Y-23072888D01*
X30802272Y-23072889D01*
X30802271Y-23072889D01*
X30746765Y-23095880D01*
X30687843Y-23107600D01*
X30627759Y-23107600D01*
X30568837Y-23095880D01*
X30513331Y-23072889D01*
X30513330Y-23072889D01*
X30513329Y-23072888D01*
X30463375Y-23039509D01*
X30420892Y-22997026D01*
X30387513Y-22947072D01*
X30387512Y-22947070D01*
X30364521Y-22891564D01*
X30352801Y-22832642D01*
X30352801Y-22772558D01*
X30364521Y-22713636D01*
X30386669Y-22660166D01*
X30393782Y-22636717D01*
X30396184Y-22612331D01*
X30393782Y-22587945D01*
X30386669Y-22564496D01*
X30375118Y-22542885D01*
X30359573Y-22523944D01*
X30340631Y-22508398D01*
X30319020Y-22496847D01*
X30295571Y-22489734D01*
X30271185Y-22487332D01*
X30246799Y-22489734D01*
X30205242Y-22498000D01*
X30145160Y-22498000D01*
X30103605Y-22489734D01*
X30079219Y-22487332D01*
X30054833Y-22489734D01*
X30031384Y-22496847D01*
X30009774Y-22508398D01*
X29990832Y-22523943D01*
X29975286Y-22542885D01*
X29963735Y-22564496D01*
X29956622Y-22587945D01*
X29954220Y-22612331D01*
X29956622Y-22636717D01*
X29963734Y-22660165D01*
X29985883Y-22713638D01*
X29997602Y-22772558D01*
X29997602Y-22832642D01*
X29985882Y-22891564D01*
X29962891Y-22947070D01*
X29962890Y-22947072D01*
X29929511Y-22997026D01*
X29887028Y-23039509D01*
X29837074Y-23072888D01*
X29837073Y-23072889D01*
X29837072Y-23072889D01*
X29781566Y-23095880D01*
X29722644Y-23107600D01*
X29662560Y-23107600D01*
X29603638Y-23095880D01*
X29548132Y-23072889D01*
X29548131Y-23072889D01*
X29548130Y-23072888D01*
X29498176Y-23039509D01*
X29455693Y-22997026D01*
X29422314Y-22947072D01*
X29422313Y-22947070D01*
X29399322Y-22891564D01*
X29387602Y-22832642D01*
X29387602Y-22772558D01*
X29399322Y-22713636D01*
X29421470Y-22660166D01*
X29428583Y-22636717D01*
X29430985Y-22612331D01*
X29428583Y-22587945D01*
X29421470Y-22564496D01*
X29409919Y-22542885D01*
X29394374Y-22523944D01*
X29375432Y-22508398D01*
X29353821Y-22496847D01*
X29330372Y-22489734D01*
X29305986Y-22487332D01*
X29281600Y-22489734D01*
X29240043Y-22498000D01*
X29179961Y-22498000D01*
X29138406Y-22489734D01*
X29114020Y-22487332D01*
X29089634Y-22489734D01*
X29066185Y-22496847D01*
X29044575Y-22508398D01*
X29025633Y-22523943D01*
X29010087Y-22542885D01*
X28998536Y-22564496D01*
X28991423Y-22587945D01*
X28989021Y-22612331D01*
X28991423Y-22636717D01*
X28998535Y-22660165D01*
X29020684Y-22713638D01*
X29032403Y-22772558D01*
X29032403Y-22832642D01*
X29020683Y-22891564D01*
X28997692Y-22947070D01*
X28997691Y-22947072D01*
X28964312Y-22997026D01*
X28921829Y-23039509D01*
X28871875Y-23072888D01*
X28871874Y-23072889D01*
X28871873Y-23072889D01*
X28816367Y-23095880D01*
X28757445Y-23107600D01*
X28697361Y-23107600D01*
X28638439Y-23095880D01*
X28582933Y-23072889D01*
X28582932Y-23072889D01*
X28582931Y-23072888D01*
X28532977Y-23039509D01*
X28490494Y-22997026D01*
X28457115Y-22947072D01*
X28457114Y-22947070D01*
X28434123Y-22891564D01*
X28422403Y-22832642D01*
X28422403Y-22772558D01*
X28434123Y-22713636D01*
X28456271Y-22660165D01*
X28463384Y-22636716D01*
X28465786Y-22612330D01*
X28463384Y-22587943D01*
X28456271Y-22564495D01*
X28444720Y-22542884D01*
X28429174Y-22523942D01*
X28410232Y-22508397D01*
X28388622Y-22496846D01*
X28365173Y-22489733D01*
X28340787Y-22487331D01*
X28316401Y-22489733D01*
X28274840Y-22498000D01*
X28214758Y-22498000D01*
X28173203Y-22489734D01*
X28148817Y-22487332D01*
X28124431Y-22489734D01*
X28100982Y-22496847D01*
X28079372Y-22508398D01*
X28060430Y-22523943D01*
X28044884Y-22542885D01*
X28033333Y-22564496D01*
X28026220Y-22587945D01*
X28023818Y-22612331D01*
X28026220Y-22636717D01*
X28033332Y-22660165D01*
X28055481Y-22713638D01*
X28067200Y-22772558D01*
X28067200Y-22832642D01*
X28055480Y-22891564D01*
X28032489Y-22947070D01*
X28032488Y-22947072D01*
X27999109Y-22997026D01*
X27956626Y-23039509D01*
X27906672Y-23072888D01*
X27906671Y-23072889D01*
X27906670Y-23072889D01*
X27851164Y-23095880D01*
X27792242Y-23107600D01*
X27732158Y-23107600D01*
X27673236Y-23095880D01*
X27617730Y-23072889D01*
X27617729Y-23072889D01*
X27617728Y-23072888D01*
X27567774Y-23039509D01*
X27525291Y-22997026D01*
X27491912Y-22947072D01*
X27491911Y-22947070D01*
X27468920Y-22891564D01*
X27457200Y-22832642D01*
X27457200Y-22772558D01*
X27468920Y-22713636D01*
X27491911Y-22658130D01*
X27525290Y-22608175D01*
X27567775Y-22565690D01*
X27601906Y-22542884D01*
X27617728Y-22532312D01*
X27617730Y-22532311D01*
X27673236Y-22509320D01*
X27732158Y-22497600D01*
X27792241Y-22497600D01*
X27833796Y-22505866D01*
X27858182Y-22508268D01*
X27882568Y-22505866D01*
X27906017Y-22498753D01*
X27927627Y-22487202D01*
X27946569Y-22471657D01*
X27962115Y-22452715D01*
X27973666Y-22431104D01*
X27980779Y-22407655D01*
X27983181Y-22383269D01*
X27980779Y-22358883D01*
X27973667Y-22335435D01*
X27951518Y-22281962D01*
X27939799Y-22223042D01*
X27939799Y-22162958D01*
X27951519Y-22104036D01*
X27974510Y-22048530D01*
X28007889Y-21998575D01*
X28050374Y-21956090D01*
X28075180Y-21939515D01*
X28100327Y-21922712D01*
X28100329Y-21922711D01*
X28155835Y-21899720D01*
X28214757Y-21888000D01*
X28274841Y-21888000D01*
X28333763Y-21899720D01*
X28333763Y-21899720D01*
G37*
M02*
