G04 #@! TF.GenerationSoftware,KiCad,Pcbnew,(5.1.5)-3*
G04 #@! TF.CreationDate,2020-10-07T12:04:30+09:00*
G04 #@! TF.ProjectId,WXB-USB,5758422d-5553-4422-9e6b-696361645f70,rev?*
G04 #@! TF.SameCoordinates,Original*
G04 #@! TF.FileFunction,Legend,Top*
G04 #@! TF.FilePolarity,Positive*
%FSLAX46Y46*%
G04 Gerber Fmt 4.6, Leading zero omitted, Abs format (unit mm)*
G04 Created by KiCad (PCBNEW (5.1.5)-3) date 2020-10-07 12:04:30*
%MOMM*%
%LPD*%
G04 APERTURE LIST*
%ADD10C,0.100000*%
%ADD11C,0.152400*%
%ADD12C,0.150000*%
%ADD13C,0.050000*%
G04 APERTURE END LIST*
D10*
X150495620Y-99595060D02*
X150095620Y-99595060D01*
X150495620Y-99195060D02*
X150495620Y-99595060D01*
X150495620Y-94395060D02*
X150495620Y-94795060D01*
X150495620Y-94395060D02*
X150095620Y-94395060D01*
X145295620Y-99595060D02*
X145295620Y-99195060D01*
X145695620Y-99595060D02*
X145295620Y-99595060D01*
X145295620Y-94995060D02*
X145095620Y-94995060D01*
X145295620Y-94795060D02*
X145295620Y-94995060D01*
X145695620Y-94395060D02*
X145295620Y-94795060D01*
X145895620Y-94395060D02*
X145695620Y-94395060D01*
D11*
X148324111Y-100893880D02*
X147844969Y-100893880D01*
X147386040Y-101833921D02*
X147386040Y-102112839D01*
X147844969Y-103052880D02*
X148324111Y-103052880D01*
X147857318Y-103256038D02*
G75*
G03X148084540Y-103357680I227222J203158D01*
G01*
D12*
X147653715Y-92187440D02*
X147653715Y-92996964D01*
X147701334Y-93092202D01*
X147748953Y-93139821D01*
X147844191Y-93187440D01*
X148034667Y-93187440D01*
X148129905Y-93139821D01*
X148177524Y-93092202D01*
X148225143Y-92996964D01*
X148225143Y-92187440D01*
X149225143Y-93187440D02*
X148653715Y-93187440D01*
X148939429Y-93187440D02*
X148939429Y-92187440D01*
X148844191Y-92330298D01*
X148748953Y-92425536D01*
X148653715Y-92473155D01*
D13*
X150391666Y-93603571D02*
X150367857Y-93627380D01*
X150296428Y-93651190D01*
X150248809Y-93651190D01*
X150177380Y-93627380D01*
X150129761Y-93579761D01*
X150105952Y-93532142D01*
X150082142Y-93436904D01*
X150082142Y-93365476D01*
X150105952Y-93270238D01*
X150129761Y-93222619D01*
X150177380Y-93175000D01*
X150248809Y-93151190D01*
X150296428Y-93151190D01*
X150367857Y-93175000D01*
X150391666Y-93198809D01*
X150844047Y-93151190D02*
X150605952Y-93151190D01*
X150582142Y-93389285D01*
X150605952Y-93365476D01*
X150653571Y-93341666D01*
X150772619Y-93341666D01*
X150820238Y-93365476D01*
X150844047Y-93389285D01*
X150867857Y-93436904D01*
X150867857Y-93555952D01*
X150844047Y-93603571D01*
X150820238Y-93627380D01*
X150772619Y-93651190D01*
X150653571Y-93651190D01*
X150605952Y-93627380D01*
X150582142Y-93603571D01*
X150903571Y-101058333D02*
X150927380Y-101082142D01*
X150951190Y-101153571D01*
X150951190Y-101201190D01*
X150927380Y-101272619D01*
X150879761Y-101320238D01*
X150832142Y-101344047D01*
X150736904Y-101367857D01*
X150665476Y-101367857D01*
X150570238Y-101344047D01*
X150522619Y-101320238D01*
X150475000Y-101272619D01*
X150451190Y-101201190D01*
X150451190Y-101153571D01*
X150475000Y-101082142D01*
X150498809Y-101058333D01*
X150617857Y-100629761D02*
X150951190Y-100629761D01*
X150427380Y-100748809D02*
X150784523Y-100867857D01*
X150784523Y-100558333D01*
X145366666Y-103653571D02*
X145342857Y-103677380D01*
X145271428Y-103701190D01*
X145223809Y-103701190D01*
X145152380Y-103677380D01*
X145104761Y-103629761D01*
X145080952Y-103582142D01*
X145057142Y-103486904D01*
X145057142Y-103415476D01*
X145080952Y-103320238D01*
X145104761Y-103272619D01*
X145152380Y-103225000D01*
X145223809Y-103201190D01*
X145271428Y-103201190D01*
X145342857Y-103225000D01*
X145366666Y-103248809D01*
X145533333Y-103201190D02*
X145842857Y-103201190D01*
X145676190Y-103391666D01*
X145747619Y-103391666D01*
X145795238Y-103415476D01*
X145819047Y-103439285D01*
X145842857Y-103486904D01*
X145842857Y-103605952D01*
X145819047Y-103653571D01*
X145795238Y-103677380D01*
X145747619Y-103701190D01*
X145604761Y-103701190D01*
X145557142Y-103677380D01*
X145533333Y-103653571D01*
D12*
X147322635Y-101425760D02*
X147322635Y-102235284D01*
X147370254Y-102330522D01*
X147417873Y-102378141D01*
X147513111Y-102425760D01*
X147703587Y-102425760D01*
X147798825Y-102378141D01*
X147846444Y-102330522D01*
X147894063Y-102235284D01*
X147894063Y-101425760D01*
X148322635Y-101520999D02*
X148370254Y-101473380D01*
X148465492Y-101425760D01*
X148703587Y-101425760D01*
X148798825Y-101473380D01*
X148846444Y-101520999D01*
X148894063Y-101616237D01*
X148894063Y-101711475D01*
X148846444Y-101854332D01*
X148275016Y-102425760D01*
X148894063Y-102425760D01*
X149379940Y-103574360D02*
X149379940Y-103812456D01*
X149141844Y-103717218D02*
X149379940Y-103812456D01*
X149618035Y-103717218D01*
X149237082Y-104002932D02*
X149379940Y-103812456D01*
X149522797Y-104002932D01*
X149379940Y-103574360D02*
X149379940Y-103812456D01*
X149141844Y-103717218D02*
X149379940Y-103812456D01*
X149618035Y-103717218D01*
X149237082Y-104002932D02*
X149379940Y-103812456D01*
X149522797Y-104002932D01*
X147568326Y-104686740D02*
X147568326Y-105401026D01*
X147520707Y-105543883D01*
X147425469Y-105639121D01*
X147282612Y-105686740D01*
X147187374Y-105686740D01*
X147996898Y-104781979D02*
X148044517Y-104734360D01*
X148139755Y-104686740D01*
X148377850Y-104686740D01*
X148473088Y-104734360D01*
X148520707Y-104781979D01*
X148568326Y-104877217D01*
X148568326Y-104972455D01*
X148520707Y-105115312D01*
X147949279Y-105686740D01*
X148568326Y-105686740D01*
X147553086Y-91197560D02*
X147553086Y-91911846D01*
X147505467Y-92054703D01*
X147410229Y-92149941D01*
X147267372Y-92197560D01*
X147172134Y-92197560D01*
X148553086Y-92197560D02*
X147981658Y-92197560D01*
X148267372Y-92197560D02*
X148267372Y-91197560D01*
X148172134Y-91340418D01*
X148076896Y-91435656D01*
X147981658Y-91483275D01*
D13*
X145756131Y-102427553D02*
X145779940Y-102451362D01*
X145803750Y-102522791D01*
X145803750Y-102570410D01*
X145779940Y-102641839D01*
X145732321Y-102689458D01*
X145684702Y-102713267D01*
X145589464Y-102737077D01*
X145518036Y-102737077D01*
X145422798Y-102713267D01*
X145375179Y-102689458D01*
X145327560Y-102641839D01*
X145303750Y-102570410D01*
X145303750Y-102522791D01*
X145327560Y-102451362D01*
X145351369Y-102427553D01*
X145351369Y-102237077D02*
X145327560Y-102213267D01*
X145303750Y-102165648D01*
X145303750Y-102046600D01*
X145327560Y-101998981D01*
X145351369Y-101975172D01*
X145398988Y-101951362D01*
X145446607Y-101951362D01*
X145518036Y-101975172D01*
X145803750Y-102260886D01*
X145803750Y-101951362D01*
X145751051Y-101134693D02*
X145774860Y-101158502D01*
X145798670Y-101229931D01*
X145798670Y-101277550D01*
X145774860Y-101348979D01*
X145727241Y-101396598D01*
X145679622Y-101420407D01*
X145584384Y-101444217D01*
X145512956Y-101444217D01*
X145417718Y-101420407D01*
X145370099Y-101396598D01*
X145322480Y-101348979D01*
X145298670Y-101277550D01*
X145298670Y-101229931D01*
X145322480Y-101158502D01*
X145346289Y-101134693D01*
X145798670Y-100658502D02*
X145798670Y-100944217D01*
X145798670Y-100801360D02*
X145298670Y-100801360D01*
X145370099Y-100848979D01*
X145417718Y-100896598D01*
X145441527Y-100944217D01*
M02*
