G04 #@! TF.GenerationSoftware,KiCad,Pcbnew,(5.1.5)-3*
G04 #@! TF.CreationDate,2020-10-07T12:04:30+09:00*
G04 #@! TF.ProjectId,WXB-USB,5758422d-5553-4422-9e6b-696361645f70,rev?*
G04 #@! TF.SameCoordinates,Original*
G04 #@! TF.FileFunction,Legend,Bot*
G04 #@! TF.FilePolarity,Positive*
%FSLAX46Y46*%
G04 Gerber Fmt 4.6, Leading zero omitted, Abs format (unit mm)*
G04 Created by KiCad (PCBNEW (5.1.5)-3) date 2020-10-07 12:04:30*
%MOMM*%
%LPD*%
G04 APERTURE LIST*
%ADD10C,0.100000*%
G04 APERTURE END LIST*
D10*
X149470000Y-96815000D02*
X149470000Y-97205000D01*
X148570000Y-96815000D02*
X148570000Y-97205000D01*
X147240000Y-96815000D02*
X147240000Y-97205000D01*
X146340000Y-96815000D02*
X146340000Y-97205000D01*
X149472380Y-96271904D02*
X148472380Y-96271904D01*
X148472380Y-96510000D01*
X148520000Y-96652857D01*
X148615238Y-96748095D01*
X148710476Y-96795714D01*
X148900952Y-96843333D01*
X149043809Y-96843333D01*
X149234285Y-96795714D01*
X149329523Y-96748095D01*
X149424761Y-96652857D01*
X149472380Y-96510000D01*
X149472380Y-96271904D01*
X148567619Y-97224285D02*
X148520000Y-97271904D01*
X148472380Y-97367142D01*
X148472380Y-97605238D01*
X148520000Y-97700476D01*
X148567619Y-97748095D01*
X148662857Y-97795714D01*
X148758095Y-97795714D01*
X148900952Y-97748095D01*
X149472380Y-97176666D01*
X149472380Y-97795714D01*
X147242380Y-96271904D02*
X146242380Y-96271904D01*
X146242380Y-96510000D01*
X146290000Y-96652857D01*
X146385238Y-96748095D01*
X146480476Y-96795714D01*
X146670952Y-96843333D01*
X146813809Y-96843333D01*
X147004285Y-96795714D01*
X147099523Y-96748095D01*
X147194761Y-96652857D01*
X147242380Y-96510000D01*
X147242380Y-96271904D01*
X147242380Y-97795714D02*
X147242380Y-97224285D01*
X147242380Y-97510000D02*
X146242380Y-97510000D01*
X146385238Y-97414761D01*
X146480476Y-97319523D01*
X146528095Y-97224285D01*
M02*
