%TF.GenerationSoftware,KiCad,Pcbnew,(5.1.6)-1*%
%TF.CreationDate,2021-06-04T12:20:07-07:00*%
%TF.ProjectId,Miniscope-v4-Wire-Free,4d696e69-7363-46f7-9065-2d76342d5769,rev?*%
%TF.SameCoordinates,Original*%
%TF.FileFunction,Paste,Top*%
%TF.FilePolarity,Positive*%
%FSLAX46Y46*%
G04 Gerber Fmt 4.6, Leading zero omitted, Abs format (unit mm)*
G04 Created by KiCad (PCBNEW (5.1.6)-1) date 2021-06-04 12:20:07*
%MOMM*%
%LPD*%
G01*
G04 APERTURE LIST*
%ADD10R,0.370000X0.810000*%
%ADD11R,0.800000X0.400000*%
%ADD12R,0.800000X0.300000*%
%ADD13R,0.770000X0.710000*%
G04 APERTURE END LIST*
%TO.C,R8*%
G36*
G01*
X100105800Y-62578700D02*
X100105800Y-62763700D01*
G75*
G02*
X100028300Y-62841200I-77500J0D01*
G01*
X99873300Y-62841200D01*
G75*
G02*
X99795800Y-62763700I0J77500D01*
G01*
X99795800Y-62578700D01*
G75*
G02*
X99873300Y-62501200I77500J0D01*
G01*
X100028300Y-62501200D01*
G75*
G02*
X100105800Y-62578700I0J-77500D01*
G01*
G37*
G36*
G01*
X100655800Y-62578700D02*
X100655800Y-62763700D01*
G75*
G02*
X100578300Y-62841200I-77500J0D01*
G01*
X100423300Y-62841200D01*
G75*
G02*
X100345800Y-62763700I0J77500D01*
G01*
X100345800Y-62578700D01*
G75*
G02*
X100423300Y-62501200I77500J0D01*
G01*
X100578300Y-62501200D01*
G75*
G02*
X100655800Y-62578700I0J-77500D01*
G01*
G37*
%TD*%
D10*
%TO.C,U5*%
X101548000Y-64797000D03*
X98548000Y-64797000D03*
X98548000Y-68267000D03*
X101548000Y-68267000D03*
%TD*%
%TO.C,R15*%
G36*
G01*
X101539600Y-64008300D02*
X101539600Y-63823300D01*
G75*
G02*
X101617100Y-63745800I77500J0D01*
G01*
X101772100Y-63745800D01*
G75*
G02*
X101849600Y-63823300I0J-77500D01*
G01*
X101849600Y-64008300D01*
G75*
G02*
X101772100Y-64085800I-77500J0D01*
G01*
X101617100Y-64085800D01*
G75*
G02*
X101539600Y-64008300I0J77500D01*
G01*
G37*
G36*
G01*
X100989600Y-64008300D02*
X100989600Y-63823300D01*
G75*
G02*
X101067100Y-63745800I77500J0D01*
G01*
X101222100Y-63745800D01*
G75*
G02*
X101299600Y-63823300I0J-77500D01*
G01*
X101299600Y-64008300D01*
G75*
G02*
X101222100Y-64085800I-77500J0D01*
G01*
X101067100Y-64085800D01*
G75*
G02*
X100989600Y-64008300I0J77500D01*
G01*
G37*
%TD*%
%TO.C,R7*%
G36*
G01*
X101304000Y-62578700D02*
X101304000Y-62763700D01*
G75*
G02*
X101226500Y-62841200I-77500J0D01*
G01*
X101071500Y-62841200D01*
G75*
G02*
X100994000Y-62763700I0J77500D01*
G01*
X100994000Y-62578700D01*
G75*
G02*
X101071500Y-62501200I77500J0D01*
G01*
X101226500Y-62501200D01*
G75*
G02*
X101304000Y-62578700I0J-77500D01*
G01*
G37*
G36*
G01*
X101854000Y-62578700D02*
X101854000Y-62763700D01*
G75*
G02*
X101776500Y-62841200I-77500J0D01*
G01*
X101621500Y-62841200D01*
G75*
G02*
X101544000Y-62763700I0J77500D01*
G01*
X101544000Y-62578700D01*
G75*
G02*
X101621500Y-62501200I77500J0D01*
G01*
X101776500Y-62501200D01*
G75*
G02*
X101854000Y-62578700I0J-77500D01*
G01*
G37*
%TD*%
%TO.C,C12*%
G36*
G01*
X99202800Y-62763700D02*
X99202800Y-62578700D01*
G75*
G02*
X99280300Y-62501200I77500J0D01*
G01*
X99435300Y-62501200D01*
G75*
G02*
X99512800Y-62578700I0J-77500D01*
G01*
X99512800Y-62763700D01*
G75*
G02*
X99435300Y-62841200I-77500J0D01*
G01*
X99280300Y-62841200D01*
G75*
G02*
X99202800Y-62763700I0J77500D01*
G01*
G37*
G36*
G01*
X98652800Y-62763700D02*
X98652800Y-62578700D01*
G75*
G02*
X98730300Y-62501200I77500J0D01*
G01*
X98885300Y-62501200D01*
G75*
G02*
X98962800Y-62578700I0J-77500D01*
G01*
X98962800Y-62763700D01*
G75*
G02*
X98885300Y-62841200I-77500J0D01*
G01*
X98730300Y-62841200D01*
G75*
G02*
X98652800Y-62763700I0J77500D01*
G01*
G37*
%TD*%
D11*
%TO.C,J3*%
X105500000Y-62750000D03*
X105500000Y-66250000D03*
D12*
X103000000Y-63750000D03*
X103000000Y-64250000D03*
X103000000Y-64750000D03*
X103000000Y-65250000D03*
%TD*%
%TO.C,R18*%
G36*
G01*
X101299600Y-63207500D02*
X101299600Y-63392500D01*
G75*
G02*
X101222100Y-63470000I-77500J0D01*
G01*
X101067100Y-63470000D01*
G75*
G02*
X100989600Y-63392500I0J77500D01*
G01*
X100989600Y-63207500D01*
G75*
G02*
X101067100Y-63130000I77500J0D01*
G01*
X101222100Y-63130000D01*
G75*
G02*
X101299600Y-63207500I0J-77500D01*
G01*
G37*
G36*
G01*
X101849600Y-63207500D02*
X101849600Y-63392500D01*
G75*
G02*
X101772100Y-63470000I-77500J0D01*
G01*
X101617100Y-63470000D01*
G75*
G02*
X101539600Y-63392500I0J77500D01*
G01*
X101539600Y-63207500D01*
G75*
G02*
X101617100Y-63130000I77500J0D01*
G01*
X101772100Y-63130000D01*
G75*
G02*
X101849600Y-63207500I0J-77500D01*
G01*
G37*
%TD*%
D13*
%TO.C,D3*%
X100270000Y-63560200D03*
X98810000Y-63560200D03*
%TD*%
%TO.C,SW1*%
G36*
G01*
X98571000Y-60509300D02*
X98571000Y-61734300D01*
G75*
G02*
X98433500Y-61871800I-137500J0D01*
G01*
X98158500Y-61871800D01*
G75*
G02*
X98021000Y-61734300I0J137500D01*
G01*
X98021000Y-60509300D01*
G75*
G02*
X98158500Y-60371800I137500J0D01*
G01*
X98433500Y-60371800D01*
G75*
G02*
X98571000Y-60509300I0J-137500D01*
G01*
G37*
G36*
G01*
X101821000Y-60509300D02*
X101821000Y-61734300D01*
G75*
G02*
X101683500Y-61871800I-137500J0D01*
G01*
X101408500Y-61871800D01*
G75*
G02*
X101271000Y-61734300I0J137500D01*
G01*
X101271000Y-60509300D01*
G75*
G02*
X101408500Y-60371800I137500J0D01*
G01*
X101683500Y-60371800D01*
G75*
G02*
X101821000Y-60509300I0J-137500D01*
G01*
G37*
%TD*%
M02*
