%TF.GenerationSoftware,KiCad,Pcbnew,(5.1.6)-1*%
%TF.CreationDate,2021-06-02T20:30:23-07:00*%
%TF.ProjectId,Miniscope-v4-Wire-Free,4d696e69-7363-46f7-9065-2d76342d5769,rev?*%
%TF.SameCoordinates,Original*%
%TF.FileFunction,Paste,Bot*%
%TF.FilePolarity,Positive*%
%FSLAX46Y46*%
G04 Gerber Fmt 4.6, Leading zero omitted, Abs format (unit mm)*
G04 Created by KiCad (PCBNEW (5.1.6)-1) date 2021-06-02 20:30:23*
%MOMM*%
%LPD*%
G01*
G04 APERTURE LIST*
%ADD10R,1.500000X0.450000*%
%ADD11R,1.200000X0.900000*%
G04 APERTURE END LIST*
D10*
%TO.C,D1*%
X103800000Y-64150000D03*
X103800000Y-64850000D03*
%TD*%
D11*
%TO.C,U2*%
X98780400Y-63509400D03*
X98780400Y-62239400D03*
X100350400Y-63509400D03*
X100350400Y-62239400D03*
G36*
G01*
X98185400Y-64359400D02*
X98345400Y-64359400D01*
G75*
G02*
X98425400Y-64439400I0J-80000D01*
G01*
X98425400Y-64979400D01*
G75*
G02*
X98345400Y-65059400I-80000J0D01*
G01*
X98185400Y-65059400D01*
G75*
G02*
X98105400Y-64979400I0J80000D01*
G01*
X98105400Y-64439400D01*
G75*
G02*
X98185400Y-64359400I80000J0D01*
G01*
G37*
G36*
G01*
X98835400Y-64359400D02*
X98995400Y-64359400D01*
G75*
G02*
X99075400Y-64439400I0J-80000D01*
G01*
X99075400Y-64979400D01*
G75*
G02*
X98995400Y-65059400I-80000J0D01*
G01*
X98835400Y-65059400D01*
G75*
G02*
X98755400Y-64979400I0J80000D01*
G01*
X98755400Y-64439400D01*
G75*
G02*
X98835400Y-64359400I80000J0D01*
G01*
G37*
G36*
G01*
X99485400Y-64359400D02*
X99645400Y-64359400D01*
G75*
G02*
X99725400Y-64439400I0J-80000D01*
G01*
X99725400Y-64979400D01*
G75*
G02*
X99645400Y-65059400I-80000J0D01*
G01*
X99485400Y-65059400D01*
G75*
G02*
X99405400Y-64979400I0J80000D01*
G01*
X99405400Y-64439400D01*
G75*
G02*
X99485400Y-64359400I80000J0D01*
G01*
G37*
G36*
G01*
X100135400Y-64359400D02*
X100295400Y-64359400D01*
G75*
G02*
X100375400Y-64439400I0J-80000D01*
G01*
X100375400Y-64979400D01*
G75*
G02*
X100295400Y-65059400I-80000J0D01*
G01*
X100135400Y-65059400D01*
G75*
G02*
X100055400Y-64979400I0J80000D01*
G01*
X100055400Y-64439400D01*
G75*
G02*
X100135400Y-64359400I80000J0D01*
G01*
G37*
G36*
G01*
X100785400Y-64359400D02*
X100945400Y-64359400D01*
G75*
G02*
X101025400Y-64439400I0J-80000D01*
G01*
X101025400Y-64979400D01*
G75*
G02*
X100945400Y-65059400I-80000J0D01*
G01*
X100785400Y-65059400D01*
G75*
G02*
X100705400Y-64979400I0J80000D01*
G01*
X100705400Y-64439400D01*
G75*
G02*
X100785400Y-64359400I80000J0D01*
G01*
G37*
G36*
G01*
X100785400Y-60689400D02*
X100945400Y-60689400D01*
G75*
G02*
X101025400Y-60769400I0J-80000D01*
G01*
X101025400Y-61309400D01*
G75*
G02*
X100945400Y-61389400I-80000J0D01*
G01*
X100785400Y-61389400D01*
G75*
G02*
X100705400Y-61309400I0J80000D01*
G01*
X100705400Y-60769400D01*
G75*
G02*
X100785400Y-60689400I80000J0D01*
G01*
G37*
G36*
G01*
X100135400Y-60689400D02*
X100295400Y-60689400D01*
G75*
G02*
X100375400Y-60769400I0J-80000D01*
G01*
X100375400Y-61309400D01*
G75*
G02*
X100295400Y-61389400I-80000J0D01*
G01*
X100135400Y-61389400D01*
G75*
G02*
X100055400Y-61309400I0J80000D01*
G01*
X100055400Y-60769400D01*
G75*
G02*
X100135400Y-60689400I80000J0D01*
G01*
G37*
G36*
G01*
X99485400Y-60689400D02*
X99645400Y-60689400D01*
G75*
G02*
X99725400Y-60769400I0J-80000D01*
G01*
X99725400Y-61309400D01*
G75*
G02*
X99645400Y-61389400I-80000J0D01*
G01*
X99485400Y-61389400D01*
G75*
G02*
X99405400Y-61309400I0J80000D01*
G01*
X99405400Y-60769400D01*
G75*
G02*
X99485400Y-60689400I80000J0D01*
G01*
G37*
G36*
G01*
X98835400Y-60689400D02*
X98995400Y-60689400D01*
G75*
G02*
X99075400Y-60769400I0J-80000D01*
G01*
X99075400Y-61309400D01*
G75*
G02*
X98995400Y-61389400I-80000J0D01*
G01*
X98835400Y-61389400D01*
G75*
G02*
X98755400Y-61309400I0J80000D01*
G01*
X98755400Y-60769400D01*
G75*
G02*
X98835400Y-60689400I80000J0D01*
G01*
G37*
G36*
G01*
X98185400Y-60689400D02*
X98345400Y-60689400D01*
G75*
G02*
X98425400Y-60769400I0J-80000D01*
G01*
X98425400Y-61309400D01*
G75*
G02*
X98345400Y-61389400I-80000J0D01*
G01*
X98185400Y-61389400D01*
G75*
G02*
X98105400Y-61309400I0J80000D01*
G01*
X98105400Y-60769400D01*
G75*
G02*
X98185400Y-60689400I80000J0D01*
G01*
G37*
%TD*%
%TO.C,C16*%
G36*
G01*
X99434000Y-66332700D02*
X99434000Y-65867700D01*
G75*
G02*
X99636500Y-65665200I202500J0D01*
G01*
X100041500Y-65665200D01*
G75*
G02*
X100244000Y-65867700I0J-202500D01*
G01*
X100244000Y-66332700D01*
G75*
G02*
X100041500Y-66535200I-202500J0D01*
G01*
X99636500Y-66535200D01*
G75*
G02*
X99434000Y-66332700I0J202500D01*
G01*
G37*
G36*
G01*
X98074000Y-66332700D02*
X98074000Y-65867700D01*
G75*
G02*
X98276500Y-65665200I202500J0D01*
G01*
X98681500Y-65665200D01*
G75*
G02*
X98884000Y-65867700I0J-202500D01*
G01*
X98884000Y-66332700D01*
G75*
G02*
X98681500Y-66535200I-202500J0D01*
G01*
X98276500Y-66535200D01*
G75*
G02*
X98074000Y-66332700I0J202500D01*
G01*
G37*
%TD*%
M02*
