G04 #@! TF.GenerationSoftware,KiCad,Pcbnew,(5.1.0)-1*
G04 #@! TF.CreationDate,2019-09-18T16:06:36-07:00*
G04 #@! TF.ProjectId,WireFreeV4_Release,57697265-4672-4656-9556-345f52656c65,rev?*
G04 #@! TF.SameCoordinates,Original*
G04 #@! TF.FileFunction,Copper,L5,Inr*
G04 #@! TF.FilePolarity,Positive*
%FSLAX46Y46*%
G04 Gerber Fmt 4.6, Leading zero omitted, Abs format (unit mm)*
G04 Created by KiCad (PCBNEW (5.1.0)-1) date 2019-09-18 16:06:36*
%MOMM*%
%LPD*%
G04 APERTURE LIST*
%ADD10C,0.450000*%
%ADD11C,0.254000*%
G04 APERTURE END LIST*
D10*
X119829580Y-96649540D03*
X122580400Y-98501200D03*
X125242320Y-99933760D03*
X128292860Y-100162360D03*
X124310140Y-94089220D03*
X120238520Y-92781120D03*
X117891560Y-92504260D03*
X121066560Y-100279200D03*
X121452640Y-99585780D03*
X118518940Y-89171780D03*
X128463040Y-98536760D03*
X132062220Y-99501960D03*
X131660900Y-97750840D03*
X129265680Y-96936560D03*
X129293620Y-97750840D03*
X130063240Y-96124820D03*
X126865380Y-94548341D03*
X126862840Y-92937120D03*
X129265380Y-95353952D03*
X128468120Y-95353952D03*
X125260100Y-95359895D03*
X123063000Y-91948000D03*
X133858000Y-94767400D03*
X130248660Y-90728800D03*
X132036820Y-100208080D03*
X126842520Y-91269820D03*
X122717560Y-97482660D03*
X126039880Y-99402900D03*
X119234540Y-89855720D03*
X128468097Y-96124820D03*
X130863340Y-96945240D03*
X128468120Y-96930420D03*
X127662940Y-93742739D03*
X130867360Y-95353952D03*
X130065780Y-91340940D03*
X130061750Y-93734670D03*
X122084750Y-92276010D03*
X122593100Y-91315540D03*
X135351520Y-95039180D03*
X117894100Y-94896940D03*
X123040140Y-98031300D03*
X123642118Y-96923860D03*
X135063920Y-90474800D03*
X131476805Y-90747319D03*
X134148610Y-95412560D03*
X131658360Y-98553060D03*
X133319520Y-96248220D03*
X133786880Y-98397060D03*
X130063240Y-98536760D03*
X127662940Y-95353952D03*
X130864009Y-98536938D03*
X130060700Y-96939100D03*
X127654260Y-97750840D03*
X128463040Y-94543251D03*
X119895620Y-91147900D03*
X119903240Y-92240100D03*
X123342203Y-96419967D03*
X119987060Y-93345000D03*
X124336722Y-95276717D03*
X119989600Y-98846640D03*
X123918980Y-89910920D03*
X132097780Y-90751660D03*
X127662940Y-92932049D03*
X124104400Y-91734638D03*
X124866398Y-90726260D03*
X129249618Y-94543880D03*
X126062740Y-92128959D03*
X125997750Y-90504767D03*
X127451406Y-91262011D03*
X130063240Y-92116690D03*
X128269350Y-91089712D03*
X125256080Y-92137450D03*
X124454920Y-92928440D03*
X128289260Y-90335100D03*
X128754707Y-90749120D03*
X125265180Y-93748672D03*
X129307240Y-90752580D03*
X125265180Y-94554283D03*
X131790440Y-90251280D03*
X130063240Y-92995970D03*
X130872440Y-93734670D03*
X133920450Y-91417140D03*
X130642360Y-91180920D03*
X133920450Y-90832212D03*
X129261863Y-93737220D03*
X134222000Y-90288996D03*
X131663440Y-96139000D03*
X133920450Y-92046681D03*
X126853977Y-93742730D03*
X125265180Y-98539300D03*
X121460260Y-92252800D03*
X125265180Y-92943061D03*
X120810020Y-97459800D03*
X125992680Y-91310368D03*
X126858235Y-98535215D03*
X126848650Y-97750850D03*
X133920450Y-93050297D03*
X126067820Y-94554283D03*
X126060200Y-97744280D03*
X132615940Y-98397060D03*
X128295400Y-99491800D03*
X126060200Y-98536760D03*
X126870460Y-99380040D03*
X133207760Y-98397060D03*
X131664574Y-96936139D03*
X117899180Y-95547180D03*
X126065280Y-93742309D03*
X120672429Y-91277440D03*
X126065280Y-95338900D03*
X121612660Y-91335860D03*
D11*
G36*
X118213595Y-88799716D02*
G01*
X118146876Y-88866435D01*
X118094455Y-88944888D01*
X118058347Y-89032061D01*
X118039940Y-89124603D01*
X118039940Y-89218957D01*
X118058347Y-89311499D01*
X118094455Y-89398672D01*
X118146876Y-89477125D01*
X118213595Y-89543844D01*
X118292048Y-89596265D01*
X118379221Y-89632373D01*
X118471763Y-89650780D01*
X118566117Y-89650780D01*
X118658659Y-89632373D01*
X118745832Y-89596265D01*
X118824285Y-89543844D01*
X118891004Y-89477125D01*
X118943425Y-89398672D01*
X118979533Y-89311499D01*
X118997940Y-89218957D01*
X118997940Y-89124603D01*
X118979533Y-89032061D01*
X118943425Y-88944888D01*
X118891004Y-88866435D01*
X118824285Y-88799716D01*
X118760297Y-88756960D01*
X135626641Y-88756960D01*
X135626640Y-100534000D01*
X132388309Y-100534000D01*
X132408884Y-100513425D01*
X132461305Y-100434972D01*
X132497413Y-100347799D01*
X132515820Y-100255257D01*
X132515820Y-100160903D01*
X132497413Y-100068361D01*
X132461305Y-99981188D01*
X132408884Y-99902735D01*
X132373869Y-99867720D01*
X132434284Y-99807305D01*
X132486705Y-99728852D01*
X132522813Y-99641679D01*
X132541220Y-99549137D01*
X132541220Y-99454783D01*
X132522813Y-99362241D01*
X132486705Y-99275068D01*
X132434284Y-99196615D01*
X132367565Y-99129896D01*
X132289112Y-99077475D01*
X132201939Y-99041367D01*
X132109397Y-99022960D01*
X132015043Y-99022960D01*
X131922501Y-99041367D01*
X131835328Y-99077475D01*
X131756875Y-99129896D01*
X131690156Y-99196615D01*
X131637735Y-99275068D01*
X131601627Y-99362241D01*
X131583220Y-99454783D01*
X131583220Y-99549137D01*
X131601627Y-99641679D01*
X131637735Y-99728852D01*
X131690156Y-99807305D01*
X131725171Y-99842320D01*
X131664756Y-99902735D01*
X131612335Y-99981188D01*
X131576227Y-100068361D01*
X131557820Y-100160903D01*
X131557820Y-100255257D01*
X131576227Y-100347799D01*
X131612335Y-100434972D01*
X131664756Y-100513425D01*
X131685331Y-100534000D01*
X128598629Y-100534000D01*
X128664924Y-100467705D01*
X128717345Y-100389252D01*
X128753453Y-100302079D01*
X128771860Y-100209537D01*
X128771860Y-100115183D01*
X128753453Y-100022641D01*
X128717345Y-99935468D01*
X128664924Y-99857015D01*
X128636259Y-99828350D01*
X128667464Y-99797145D01*
X128719885Y-99718692D01*
X128755993Y-99631519D01*
X128774400Y-99538977D01*
X128774400Y-99444623D01*
X128755993Y-99352081D01*
X128719885Y-99264908D01*
X128667464Y-99186455D01*
X128600745Y-99119736D01*
X128522292Y-99067315D01*
X128435119Y-99031207D01*
X128342577Y-99012800D01*
X128248223Y-99012800D01*
X128155681Y-99031207D01*
X128068508Y-99067315D01*
X127990055Y-99119736D01*
X127923336Y-99186455D01*
X127870915Y-99264908D01*
X127834807Y-99352081D01*
X127816400Y-99444623D01*
X127816400Y-99538977D01*
X127834807Y-99631519D01*
X127870915Y-99718692D01*
X127923336Y-99797145D01*
X127952001Y-99825810D01*
X127920796Y-99857015D01*
X127868375Y-99935468D01*
X127832267Y-100022641D01*
X127813860Y-100115183D01*
X127813860Y-100209537D01*
X127832267Y-100302079D01*
X127868375Y-100389252D01*
X127920796Y-100467705D01*
X127987091Y-100534000D01*
X121472397Y-100534000D01*
X121491045Y-100506092D01*
X121527153Y-100418919D01*
X121545560Y-100326377D01*
X121545560Y-100232023D01*
X121527153Y-100139481D01*
X121496211Y-100064780D01*
X121499817Y-100064780D01*
X121592359Y-100046373D01*
X121679532Y-100010265D01*
X121757985Y-99957844D01*
X121824704Y-99891125D01*
X121827738Y-99886583D01*
X124763320Y-99886583D01*
X124763320Y-99980937D01*
X124781727Y-100073479D01*
X124817835Y-100160652D01*
X124870256Y-100239105D01*
X124936975Y-100305824D01*
X125015428Y-100358245D01*
X125102601Y-100394353D01*
X125195143Y-100412760D01*
X125289497Y-100412760D01*
X125382039Y-100394353D01*
X125469212Y-100358245D01*
X125547665Y-100305824D01*
X125614384Y-100239105D01*
X125666805Y-100160652D01*
X125702913Y-100073479D01*
X125721320Y-99980937D01*
X125721320Y-99886583D01*
X125702913Y-99794041D01*
X125666805Y-99706868D01*
X125614384Y-99628415D01*
X125547665Y-99561696D01*
X125469212Y-99509275D01*
X125382039Y-99473167D01*
X125289497Y-99454760D01*
X125195143Y-99454760D01*
X125102601Y-99473167D01*
X125015428Y-99509275D01*
X124936975Y-99561696D01*
X124870256Y-99628415D01*
X124817835Y-99706868D01*
X124781727Y-99794041D01*
X124763320Y-99886583D01*
X121827738Y-99886583D01*
X121877125Y-99812672D01*
X121913233Y-99725499D01*
X121931640Y-99632957D01*
X121931640Y-99538603D01*
X121913233Y-99446061D01*
X121877125Y-99358888D01*
X121824704Y-99280435D01*
X121757985Y-99213716D01*
X121679532Y-99161295D01*
X121592359Y-99125187D01*
X121499817Y-99106780D01*
X121405463Y-99106780D01*
X121312921Y-99125187D01*
X121225748Y-99161295D01*
X121147295Y-99213716D01*
X121080576Y-99280435D01*
X121028155Y-99358888D01*
X120992047Y-99446061D01*
X120973640Y-99538603D01*
X120973640Y-99632957D01*
X120992047Y-99725499D01*
X121022989Y-99800200D01*
X121019383Y-99800200D01*
X120926841Y-99818607D01*
X120839668Y-99854715D01*
X120761215Y-99907136D01*
X120694496Y-99973855D01*
X120642075Y-100052308D01*
X120605967Y-100139481D01*
X120587560Y-100232023D01*
X120587560Y-100326377D01*
X120605967Y-100418919D01*
X120642075Y-100506092D01*
X120660723Y-100534000D01*
X117626600Y-100534000D01*
X117626600Y-98799463D01*
X119510600Y-98799463D01*
X119510600Y-98893817D01*
X119529007Y-98986359D01*
X119565115Y-99073532D01*
X119617536Y-99151985D01*
X119684255Y-99218704D01*
X119762708Y-99271125D01*
X119849881Y-99307233D01*
X119942423Y-99325640D01*
X120036777Y-99325640D01*
X120129319Y-99307233D01*
X120216492Y-99271125D01*
X120294945Y-99218704D01*
X120361664Y-99151985D01*
X120414085Y-99073532D01*
X120450193Y-98986359D01*
X120468600Y-98893817D01*
X120468600Y-98799463D01*
X120450193Y-98706921D01*
X120414085Y-98619748D01*
X120361664Y-98541295D01*
X120294945Y-98474576D01*
X120264186Y-98454023D01*
X122101400Y-98454023D01*
X122101400Y-98548377D01*
X122119807Y-98640919D01*
X122155915Y-98728092D01*
X122208336Y-98806545D01*
X122275055Y-98873264D01*
X122353508Y-98925685D01*
X122440681Y-98961793D01*
X122533223Y-98980200D01*
X122627577Y-98980200D01*
X122720119Y-98961793D01*
X122807292Y-98925685D01*
X122885745Y-98873264D01*
X122952464Y-98806545D01*
X123004885Y-98728092D01*
X123040993Y-98640919D01*
X123059400Y-98548377D01*
X123059400Y-98510300D01*
X123087317Y-98510300D01*
X123178702Y-98492123D01*
X124786180Y-98492123D01*
X124786180Y-98586477D01*
X124804587Y-98679019D01*
X124840695Y-98766192D01*
X124893116Y-98844645D01*
X124959835Y-98911364D01*
X125038288Y-98963785D01*
X125125461Y-98999893D01*
X125218003Y-99018300D01*
X125312357Y-99018300D01*
X125404899Y-98999893D01*
X125492072Y-98963785D01*
X125570525Y-98911364D01*
X125637244Y-98844645D01*
X125663539Y-98805293D01*
X125688136Y-98842105D01*
X125754855Y-98908824D01*
X125833308Y-98961245D01*
X125920481Y-98997353D01*
X126013023Y-99015760D01*
X126107377Y-99015760D01*
X126199919Y-98997353D01*
X126287092Y-98961245D01*
X126365545Y-98908824D01*
X126432264Y-98842105D01*
X126459734Y-98800994D01*
X126486171Y-98840560D01*
X126552890Y-98907279D01*
X126631343Y-98959700D01*
X126635060Y-98961240D01*
X126565115Y-99007976D01*
X126498396Y-99074695D01*
X126445975Y-99153148D01*
X126409867Y-99240321D01*
X126391460Y-99332863D01*
X126391460Y-99427217D01*
X126409867Y-99519759D01*
X126445975Y-99606932D01*
X126498396Y-99685385D01*
X126565115Y-99752104D01*
X126643568Y-99804525D01*
X126730741Y-99840633D01*
X126823283Y-99859040D01*
X126917637Y-99859040D01*
X127010179Y-99840633D01*
X127097352Y-99804525D01*
X127175805Y-99752104D01*
X127242524Y-99685385D01*
X127294945Y-99606932D01*
X127331053Y-99519759D01*
X127349460Y-99427217D01*
X127349460Y-99332863D01*
X127331053Y-99240321D01*
X127294945Y-99153148D01*
X127242524Y-99074695D01*
X127175805Y-99007976D01*
X127097352Y-98955555D01*
X127093635Y-98954015D01*
X127163580Y-98907279D01*
X127230299Y-98840560D01*
X127282720Y-98762107D01*
X127318828Y-98674934D01*
X127337235Y-98582392D01*
X127337235Y-98489583D01*
X127984040Y-98489583D01*
X127984040Y-98583937D01*
X128002447Y-98676479D01*
X128038555Y-98763652D01*
X128090976Y-98842105D01*
X128157695Y-98908824D01*
X128236148Y-98961245D01*
X128323321Y-98997353D01*
X128415863Y-99015760D01*
X128510217Y-99015760D01*
X128602759Y-98997353D01*
X128689932Y-98961245D01*
X128768385Y-98908824D01*
X128835104Y-98842105D01*
X128887525Y-98763652D01*
X128923633Y-98676479D01*
X128942040Y-98583937D01*
X128942040Y-98489583D01*
X129584240Y-98489583D01*
X129584240Y-98583937D01*
X129602647Y-98676479D01*
X129638755Y-98763652D01*
X129691176Y-98842105D01*
X129757895Y-98908824D01*
X129836348Y-98961245D01*
X129923521Y-98997353D01*
X130016063Y-99015760D01*
X130110417Y-99015760D01*
X130202959Y-98997353D01*
X130290132Y-98961245D01*
X130368585Y-98908824D01*
X130435304Y-98842105D01*
X130463565Y-98799810D01*
X130491945Y-98842283D01*
X130558664Y-98909002D01*
X130637117Y-98961423D01*
X130724290Y-98997531D01*
X130816832Y-99015938D01*
X130911186Y-99015938D01*
X131003728Y-98997531D01*
X131090901Y-98961423D01*
X131169354Y-98909002D01*
X131236073Y-98842283D01*
X131255798Y-98812762D01*
X131286296Y-98858405D01*
X131353015Y-98925124D01*
X131431468Y-98977545D01*
X131518641Y-99013653D01*
X131611183Y-99032060D01*
X131705537Y-99032060D01*
X131798079Y-99013653D01*
X131885252Y-98977545D01*
X131963705Y-98925124D01*
X132030424Y-98858405D01*
X132082845Y-98779952D01*
X132118953Y-98692779D01*
X132137360Y-98600237D01*
X132137360Y-98505883D01*
X132118953Y-98413341D01*
X132092669Y-98349883D01*
X132136940Y-98349883D01*
X132136940Y-98444237D01*
X132155347Y-98536779D01*
X132191455Y-98623952D01*
X132243876Y-98702405D01*
X132310595Y-98769124D01*
X132389048Y-98821545D01*
X132476221Y-98857653D01*
X132568763Y-98876060D01*
X132663117Y-98876060D01*
X132755659Y-98857653D01*
X132842832Y-98821545D01*
X132911850Y-98775428D01*
X132980868Y-98821545D01*
X133068041Y-98857653D01*
X133160583Y-98876060D01*
X133254937Y-98876060D01*
X133347479Y-98857653D01*
X133434652Y-98821545D01*
X133497320Y-98779671D01*
X133559988Y-98821545D01*
X133647161Y-98857653D01*
X133739703Y-98876060D01*
X133834057Y-98876060D01*
X133926599Y-98857653D01*
X134013772Y-98821545D01*
X134092225Y-98769124D01*
X134158944Y-98702405D01*
X134211365Y-98623952D01*
X134247473Y-98536779D01*
X134265880Y-98444237D01*
X134265880Y-98349883D01*
X134247473Y-98257341D01*
X134211365Y-98170168D01*
X134158944Y-98091715D01*
X134092225Y-98024996D01*
X134013772Y-97972575D01*
X133926599Y-97936467D01*
X133834057Y-97918060D01*
X133739703Y-97918060D01*
X133647161Y-97936467D01*
X133559988Y-97972575D01*
X133497320Y-98014449D01*
X133434652Y-97972575D01*
X133347479Y-97936467D01*
X133254937Y-97918060D01*
X133160583Y-97918060D01*
X133068041Y-97936467D01*
X132980868Y-97972575D01*
X132911850Y-98018692D01*
X132842832Y-97972575D01*
X132755659Y-97936467D01*
X132663117Y-97918060D01*
X132568763Y-97918060D01*
X132476221Y-97936467D01*
X132389048Y-97972575D01*
X132310595Y-98024996D01*
X132243876Y-98091715D01*
X132191455Y-98170168D01*
X132155347Y-98257341D01*
X132136940Y-98349883D01*
X132092669Y-98349883D01*
X132082845Y-98326168D01*
X132030424Y-98247715D01*
X131963705Y-98180996D01*
X131921505Y-98152799D01*
X131966245Y-98122904D01*
X132032964Y-98056185D01*
X132085385Y-97977732D01*
X132121493Y-97890559D01*
X132139900Y-97798017D01*
X132139900Y-97703663D01*
X132121493Y-97611121D01*
X132085385Y-97523948D01*
X132032964Y-97445495D01*
X131966245Y-97378776D01*
X131915272Y-97344717D01*
X131969919Y-97308203D01*
X132036638Y-97241484D01*
X132089059Y-97163031D01*
X132125167Y-97075858D01*
X132143574Y-96983316D01*
X132143574Y-96888962D01*
X132125167Y-96796420D01*
X132089059Y-96709247D01*
X132036638Y-96630794D01*
X131969919Y-96564075D01*
X131929684Y-96537191D01*
X131968785Y-96511064D01*
X132035504Y-96444345D01*
X132087925Y-96365892D01*
X132124033Y-96278719D01*
X132139483Y-96201043D01*
X132840520Y-96201043D01*
X132840520Y-96295397D01*
X132858927Y-96387939D01*
X132895035Y-96475112D01*
X132947456Y-96553565D01*
X133014175Y-96620284D01*
X133092628Y-96672705D01*
X133179801Y-96708813D01*
X133272343Y-96727220D01*
X133366697Y-96727220D01*
X133459239Y-96708813D01*
X133546412Y-96672705D01*
X133624865Y-96620284D01*
X133691584Y-96553565D01*
X133744005Y-96475112D01*
X133780113Y-96387939D01*
X133798520Y-96295397D01*
X133798520Y-96201043D01*
X133780113Y-96108501D01*
X133744005Y-96021328D01*
X133691584Y-95942875D01*
X133624865Y-95876156D01*
X133546412Y-95823735D01*
X133459239Y-95787627D01*
X133366697Y-95769220D01*
X133272343Y-95769220D01*
X133179801Y-95787627D01*
X133092628Y-95823735D01*
X133014175Y-95876156D01*
X132947456Y-95942875D01*
X132895035Y-96021328D01*
X132858927Y-96108501D01*
X132840520Y-96201043D01*
X132139483Y-96201043D01*
X132142440Y-96186177D01*
X132142440Y-96091823D01*
X132124033Y-95999281D01*
X132087925Y-95912108D01*
X132035504Y-95833655D01*
X131968785Y-95766936D01*
X131890332Y-95714515D01*
X131803159Y-95678407D01*
X131710617Y-95660000D01*
X131616263Y-95660000D01*
X131523721Y-95678407D01*
X131436548Y-95714515D01*
X131358095Y-95766936D01*
X131291376Y-95833655D01*
X131238955Y-95912108D01*
X131202847Y-95999281D01*
X131184440Y-96091823D01*
X131184440Y-96186177D01*
X131202847Y-96278719D01*
X131238955Y-96365892D01*
X131291376Y-96444345D01*
X131358095Y-96511064D01*
X131398330Y-96537948D01*
X131359229Y-96564075D01*
X131292510Y-96630794D01*
X131240089Y-96709247D01*
X131203981Y-96796420D01*
X131185574Y-96888962D01*
X131185574Y-96983316D01*
X131203981Y-97075858D01*
X131240089Y-97163031D01*
X131292510Y-97241484D01*
X131359229Y-97308203D01*
X131410202Y-97342262D01*
X131355555Y-97378776D01*
X131288836Y-97445495D01*
X131236415Y-97523948D01*
X131200307Y-97611121D01*
X131181900Y-97703663D01*
X131181900Y-97798017D01*
X131200307Y-97890559D01*
X131236415Y-97977732D01*
X131288836Y-98056185D01*
X131355555Y-98122904D01*
X131397755Y-98151101D01*
X131353015Y-98180996D01*
X131286296Y-98247715D01*
X131266571Y-98277236D01*
X131236073Y-98231593D01*
X131169354Y-98164874D01*
X131090901Y-98112453D01*
X131003728Y-98076345D01*
X130911186Y-98057938D01*
X130816832Y-98057938D01*
X130724290Y-98076345D01*
X130637117Y-98112453D01*
X130558664Y-98164874D01*
X130491945Y-98231593D01*
X130463684Y-98273888D01*
X130435304Y-98231415D01*
X130368585Y-98164696D01*
X130290132Y-98112275D01*
X130202959Y-98076167D01*
X130110417Y-98057760D01*
X130016063Y-98057760D01*
X129923521Y-98076167D01*
X129836348Y-98112275D01*
X129757895Y-98164696D01*
X129691176Y-98231415D01*
X129638755Y-98309868D01*
X129602647Y-98397041D01*
X129584240Y-98489583D01*
X128942040Y-98489583D01*
X128923633Y-98397041D01*
X128887525Y-98309868D01*
X128835104Y-98231415D01*
X128768385Y-98164696D01*
X128689932Y-98112275D01*
X128602759Y-98076167D01*
X128510217Y-98057760D01*
X128415863Y-98057760D01*
X128323321Y-98076167D01*
X128236148Y-98112275D01*
X128157695Y-98164696D01*
X128090976Y-98231415D01*
X128038555Y-98309868D01*
X128002447Y-98397041D01*
X127984040Y-98489583D01*
X127337235Y-98489583D01*
X127337235Y-98488038D01*
X127318828Y-98395496D01*
X127282720Y-98308323D01*
X127230299Y-98229870D01*
X127163580Y-98163151D01*
X127128678Y-98139830D01*
X127153995Y-98122914D01*
X127220714Y-98056195D01*
X127251458Y-98010183D01*
X127282196Y-98056185D01*
X127348915Y-98122904D01*
X127427368Y-98175325D01*
X127514541Y-98211433D01*
X127607083Y-98229840D01*
X127701437Y-98229840D01*
X127793979Y-98211433D01*
X127881152Y-98175325D01*
X127959605Y-98122904D01*
X128026324Y-98056185D01*
X128078745Y-97977732D01*
X128114853Y-97890559D01*
X128133260Y-97798017D01*
X128133260Y-97703663D01*
X128114853Y-97611121D01*
X128078745Y-97523948D01*
X128026324Y-97445495D01*
X127959605Y-97378776D01*
X127881152Y-97326355D01*
X127793979Y-97290247D01*
X127701437Y-97271840D01*
X127607083Y-97271840D01*
X127514541Y-97290247D01*
X127427368Y-97326355D01*
X127348915Y-97378776D01*
X127282196Y-97445495D01*
X127251452Y-97491507D01*
X127220714Y-97445505D01*
X127153995Y-97378786D01*
X127075542Y-97326365D01*
X126988369Y-97290257D01*
X126895827Y-97271850D01*
X126801473Y-97271850D01*
X126708931Y-97290257D01*
X126621758Y-97326365D01*
X126543305Y-97378786D01*
X126476586Y-97445505D01*
X126456620Y-97475386D01*
X126432264Y-97438935D01*
X126365545Y-97372216D01*
X126287092Y-97319795D01*
X126199919Y-97283687D01*
X126107377Y-97265280D01*
X126013023Y-97265280D01*
X125920481Y-97283687D01*
X125833308Y-97319795D01*
X125754855Y-97372216D01*
X125688136Y-97438935D01*
X125635715Y-97517388D01*
X125599607Y-97604561D01*
X125581200Y-97697103D01*
X125581200Y-97791457D01*
X125599607Y-97883999D01*
X125635715Y-97971172D01*
X125688136Y-98049625D01*
X125754855Y-98116344D01*
X125791037Y-98140520D01*
X125754855Y-98164696D01*
X125688136Y-98231415D01*
X125661841Y-98270767D01*
X125637244Y-98233955D01*
X125570525Y-98167236D01*
X125492072Y-98114815D01*
X125404899Y-98078707D01*
X125312357Y-98060300D01*
X125218003Y-98060300D01*
X125125461Y-98078707D01*
X125038288Y-98114815D01*
X124959835Y-98167236D01*
X124893116Y-98233955D01*
X124840695Y-98312408D01*
X124804587Y-98399581D01*
X124786180Y-98492123D01*
X123178702Y-98492123D01*
X123179859Y-98491893D01*
X123267032Y-98455785D01*
X123345485Y-98403364D01*
X123412204Y-98336645D01*
X123464625Y-98258192D01*
X123500733Y-98171019D01*
X123519140Y-98078477D01*
X123519140Y-97984123D01*
X123500733Y-97891581D01*
X123464625Y-97804408D01*
X123412204Y-97725955D01*
X123345485Y-97659236D01*
X123267032Y-97606815D01*
X123179859Y-97570707D01*
X123087317Y-97552300D01*
X122992963Y-97552300D01*
X122900421Y-97570707D01*
X122813248Y-97606815D01*
X122734795Y-97659236D01*
X122668076Y-97725955D01*
X122615655Y-97804408D01*
X122579547Y-97891581D01*
X122561140Y-97984123D01*
X122561140Y-98022200D01*
X122533223Y-98022200D01*
X122440681Y-98040607D01*
X122353508Y-98076715D01*
X122275055Y-98129136D01*
X122208336Y-98195855D01*
X122155915Y-98274308D01*
X122119807Y-98361481D01*
X122101400Y-98454023D01*
X120264186Y-98454023D01*
X120216492Y-98422155D01*
X120129319Y-98386047D01*
X120036777Y-98367640D01*
X119942423Y-98367640D01*
X119849881Y-98386047D01*
X119762708Y-98422155D01*
X119684255Y-98474576D01*
X119617536Y-98541295D01*
X119565115Y-98619748D01*
X119529007Y-98706921D01*
X119510600Y-98799463D01*
X117626600Y-98799463D01*
X117626600Y-97412623D01*
X120331020Y-97412623D01*
X120331020Y-97506977D01*
X120349427Y-97599519D01*
X120385535Y-97686692D01*
X120437956Y-97765145D01*
X120504675Y-97831864D01*
X120583128Y-97884285D01*
X120670301Y-97920393D01*
X120762843Y-97938800D01*
X120857197Y-97938800D01*
X120949739Y-97920393D01*
X121036912Y-97884285D01*
X121115365Y-97831864D01*
X121182084Y-97765145D01*
X121234505Y-97686692D01*
X121270613Y-97599519D01*
X121289020Y-97506977D01*
X121289020Y-97412623D01*
X121270613Y-97320081D01*
X121234505Y-97232908D01*
X121182084Y-97154455D01*
X121115365Y-97087736D01*
X121036912Y-97035315D01*
X120949739Y-96999207D01*
X120857197Y-96980800D01*
X120762843Y-96980800D01*
X120670301Y-96999207D01*
X120583128Y-97035315D01*
X120504675Y-97087736D01*
X120437956Y-97154455D01*
X120385535Y-97232908D01*
X120349427Y-97320081D01*
X120331020Y-97412623D01*
X117626600Y-97412623D01*
X117626600Y-96602363D01*
X119350580Y-96602363D01*
X119350580Y-96696717D01*
X119368987Y-96789259D01*
X119405095Y-96876432D01*
X119457516Y-96954885D01*
X119524235Y-97021604D01*
X119602688Y-97074025D01*
X119689861Y-97110133D01*
X119782403Y-97128540D01*
X119876757Y-97128540D01*
X119969299Y-97110133D01*
X120056472Y-97074025D01*
X120134925Y-97021604D01*
X120201644Y-96954885D01*
X120254065Y-96876432D01*
X120290173Y-96789259D01*
X120308580Y-96696717D01*
X120308580Y-96602363D01*
X120290173Y-96509821D01*
X120254065Y-96422648D01*
X120220751Y-96372790D01*
X122863203Y-96372790D01*
X122863203Y-96467144D01*
X122881610Y-96559686D01*
X122917718Y-96646859D01*
X122970139Y-96725312D01*
X123036858Y-96792031D01*
X123115311Y-96844452D01*
X123165402Y-96865200D01*
X123163118Y-96876683D01*
X123163118Y-96971037D01*
X123181525Y-97063579D01*
X123217633Y-97150752D01*
X123270054Y-97229205D01*
X123336773Y-97295924D01*
X123415226Y-97348345D01*
X123502399Y-97384453D01*
X123594941Y-97402860D01*
X123689295Y-97402860D01*
X123781837Y-97384453D01*
X123869010Y-97348345D01*
X123947463Y-97295924D01*
X124014182Y-97229205D01*
X124066603Y-97150752D01*
X124102711Y-97063579D01*
X124121118Y-96971037D01*
X124121118Y-96889383D01*
X128786680Y-96889383D01*
X128786680Y-96983737D01*
X128805087Y-97076279D01*
X128841195Y-97163452D01*
X128893616Y-97241905D01*
X128960335Y-97308624D01*
X129026800Y-97353035D01*
X128988275Y-97378776D01*
X128921556Y-97445495D01*
X128869135Y-97523948D01*
X128833027Y-97611121D01*
X128814620Y-97703663D01*
X128814620Y-97798017D01*
X128833027Y-97890559D01*
X128869135Y-97977732D01*
X128921556Y-98056185D01*
X128988275Y-98122904D01*
X129066728Y-98175325D01*
X129153901Y-98211433D01*
X129246443Y-98229840D01*
X129340797Y-98229840D01*
X129433339Y-98211433D01*
X129520512Y-98175325D01*
X129598965Y-98122904D01*
X129665684Y-98056185D01*
X129718105Y-97977732D01*
X129754213Y-97890559D01*
X129772620Y-97798017D01*
X129772620Y-97703663D01*
X129754213Y-97611121D01*
X129718105Y-97523948D01*
X129665684Y-97445495D01*
X129598965Y-97378776D01*
X129532500Y-97334365D01*
X129571025Y-97308624D01*
X129637744Y-97241905D01*
X129662341Y-97205093D01*
X129688636Y-97244445D01*
X129755355Y-97311164D01*
X129833808Y-97363585D01*
X129920981Y-97399693D01*
X130013523Y-97418100D01*
X130107877Y-97418100D01*
X130200419Y-97399693D01*
X130287592Y-97363585D01*
X130366045Y-97311164D01*
X130432764Y-97244445D01*
X130485185Y-97165992D01*
X130521293Y-97078819D01*
X130539700Y-96986277D01*
X130539700Y-96891923D01*
X130521293Y-96799381D01*
X130485185Y-96712208D01*
X130432764Y-96633755D01*
X130366045Y-96567036D01*
X130314820Y-96532809D01*
X130368585Y-96496884D01*
X130435304Y-96430165D01*
X130487725Y-96351712D01*
X130523833Y-96264539D01*
X130542240Y-96171997D01*
X130542240Y-96077643D01*
X130523833Y-95985101D01*
X130487725Y-95897928D01*
X130435304Y-95819475D01*
X130368585Y-95752756D01*
X130290132Y-95700335D01*
X130202959Y-95664227D01*
X130110417Y-95645820D01*
X130016063Y-95645820D01*
X129923521Y-95664227D01*
X129836348Y-95700335D01*
X129757895Y-95752756D01*
X129691176Y-95819475D01*
X129638755Y-95897928D01*
X129602647Y-95985101D01*
X129584240Y-96077643D01*
X129584240Y-96171997D01*
X129602647Y-96264539D01*
X129638755Y-96351712D01*
X129691176Y-96430165D01*
X129757895Y-96496884D01*
X129809120Y-96531111D01*
X129755355Y-96567036D01*
X129688636Y-96633755D01*
X129664039Y-96670567D01*
X129637744Y-96631215D01*
X129571025Y-96564496D01*
X129492572Y-96512075D01*
X129405399Y-96475967D01*
X129312857Y-96457560D01*
X129218503Y-96457560D01*
X129125961Y-96475967D01*
X129038788Y-96512075D01*
X128960335Y-96564496D01*
X128893616Y-96631215D01*
X128841195Y-96709668D01*
X128805087Y-96796841D01*
X128786680Y-96889383D01*
X124121118Y-96889383D01*
X124121118Y-96876683D01*
X124102711Y-96784141D01*
X124066603Y-96696968D01*
X124014182Y-96618515D01*
X123947463Y-96551796D01*
X123869010Y-96499375D01*
X123818919Y-96478627D01*
X123821203Y-96467144D01*
X123821203Y-96372790D01*
X123802796Y-96280248D01*
X123766688Y-96193075D01*
X123714267Y-96114622D01*
X123647548Y-96047903D01*
X123569095Y-95995482D01*
X123481922Y-95959374D01*
X123389380Y-95940967D01*
X123295026Y-95940967D01*
X123202484Y-95959374D01*
X123115311Y-95995482D01*
X123036858Y-96047903D01*
X122970139Y-96114622D01*
X122917718Y-96193075D01*
X122881610Y-96280248D01*
X122863203Y-96372790D01*
X120220751Y-96372790D01*
X120201644Y-96344195D01*
X120134925Y-96277476D01*
X120056472Y-96225055D01*
X119969299Y-96188947D01*
X119876757Y-96170540D01*
X119782403Y-96170540D01*
X119689861Y-96188947D01*
X119602688Y-96225055D01*
X119524235Y-96277476D01*
X119457516Y-96344195D01*
X119405095Y-96422648D01*
X119368987Y-96509821D01*
X119350580Y-96602363D01*
X117626600Y-96602363D01*
X117626600Y-95941137D01*
X117672288Y-95971665D01*
X117759461Y-96007773D01*
X117852003Y-96026180D01*
X117946357Y-96026180D01*
X118038899Y-96007773D01*
X118126072Y-95971665D01*
X118204525Y-95919244D01*
X118271244Y-95852525D01*
X118323665Y-95774072D01*
X118359773Y-95686899D01*
X118378180Y-95594357D01*
X118378180Y-95500003D01*
X118359773Y-95407461D01*
X118323665Y-95320288D01*
X118271244Y-95241835D01*
X118258949Y-95229540D01*
X123857722Y-95229540D01*
X123857722Y-95323894D01*
X123876129Y-95416436D01*
X123912237Y-95503609D01*
X123964658Y-95582062D01*
X124031377Y-95648781D01*
X124109830Y-95701202D01*
X124197003Y-95737310D01*
X124289545Y-95755717D01*
X124383899Y-95755717D01*
X124476441Y-95737310D01*
X124563614Y-95701202D01*
X124642067Y-95648781D01*
X124708786Y-95582062D01*
X124761207Y-95503609D01*
X124787619Y-95439845D01*
X124799507Y-95499614D01*
X124835615Y-95586787D01*
X124888036Y-95665240D01*
X124954755Y-95731959D01*
X125033208Y-95784380D01*
X125120381Y-95820488D01*
X125212923Y-95838895D01*
X125307277Y-95838895D01*
X125399819Y-95820488D01*
X125486992Y-95784380D01*
X125565445Y-95731959D01*
X125632164Y-95665240D01*
X125669704Y-95609057D01*
X125693216Y-95644245D01*
X125759935Y-95710964D01*
X125838388Y-95763385D01*
X125925561Y-95799493D01*
X126018103Y-95817900D01*
X126112457Y-95817900D01*
X126204999Y-95799493D01*
X126292172Y-95763385D01*
X126370625Y-95710964D01*
X126437344Y-95644245D01*
X126489765Y-95565792D01*
X126525873Y-95478619D01*
X126544280Y-95386077D01*
X126544280Y-95306775D01*
X127183940Y-95306775D01*
X127183940Y-95401129D01*
X127202347Y-95493671D01*
X127238455Y-95580844D01*
X127290876Y-95659297D01*
X127357595Y-95726016D01*
X127436048Y-95778437D01*
X127523221Y-95814545D01*
X127615763Y-95832952D01*
X127710117Y-95832952D01*
X127802659Y-95814545D01*
X127889832Y-95778437D01*
X127968285Y-95726016D01*
X128035004Y-95659297D01*
X128065530Y-95613612D01*
X128096056Y-95659297D01*
X128162775Y-95726016D01*
X128241228Y-95778437D01*
X128328401Y-95814545D01*
X128420943Y-95832952D01*
X128515297Y-95832952D01*
X128607839Y-95814545D01*
X128695012Y-95778437D01*
X128773465Y-95726016D01*
X128840184Y-95659297D01*
X128866750Y-95619538D01*
X128893316Y-95659297D01*
X128960035Y-95726016D01*
X129038488Y-95778437D01*
X129125661Y-95814545D01*
X129218203Y-95832952D01*
X129312557Y-95832952D01*
X129405099Y-95814545D01*
X129492272Y-95778437D01*
X129570725Y-95726016D01*
X129637444Y-95659297D01*
X129689865Y-95580844D01*
X129725973Y-95493671D01*
X129744380Y-95401129D01*
X129744380Y-95306775D01*
X129725973Y-95214233D01*
X129689865Y-95127060D01*
X129637444Y-95048607D01*
X129570725Y-94981888D01*
X129513498Y-94943650D01*
X129554963Y-94915944D01*
X129621682Y-94849225D01*
X129674103Y-94770772D01*
X129695040Y-94720223D01*
X133379000Y-94720223D01*
X133379000Y-94814577D01*
X133397407Y-94907119D01*
X133433515Y-94994292D01*
X133485936Y-95072745D01*
X133552655Y-95139464D01*
X133631108Y-95191885D01*
X133708305Y-95223861D01*
X133688017Y-95272841D01*
X133669610Y-95365383D01*
X133669610Y-95459737D01*
X133688017Y-95552279D01*
X133724125Y-95639452D01*
X133776546Y-95717905D01*
X133843265Y-95784624D01*
X133921718Y-95837045D01*
X134008891Y-95873153D01*
X134101433Y-95891560D01*
X134195787Y-95891560D01*
X134288329Y-95873153D01*
X134375502Y-95837045D01*
X134453955Y-95784624D01*
X134520674Y-95717905D01*
X134573095Y-95639452D01*
X134609203Y-95552279D01*
X134627610Y-95459737D01*
X134627610Y-95365383D01*
X134609203Y-95272841D01*
X134573095Y-95185668D01*
X134520674Y-95107215D01*
X134453955Y-95040496D01*
X134375502Y-94988075D01*
X134298305Y-94956099D01*
X134318593Y-94907119D01*
X134337000Y-94814577D01*
X134337000Y-94720223D01*
X134318593Y-94627681D01*
X134282485Y-94540508D01*
X134230064Y-94462055D01*
X134163345Y-94395336D01*
X134084892Y-94342915D01*
X133997719Y-94306807D01*
X133905177Y-94288400D01*
X133810823Y-94288400D01*
X133718281Y-94306807D01*
X133631108Y-94342915D01*
X133552655Y-94395336D01*
X133485936Y-94462055D01*
X133433515Y-94540508D01*
X133397407Y-94627681D01*
X133379000Y-94720223D01*
X129695040Y-94720223D01*
X129710211Y-94683599D01*
X129728618Y-94591057D01*
X129728618Y-94496703D01*
X129710211Y-94404161D01*
X129674103Y-94316988D01*
X129621682Y-94238535D01*
X129554963Y-94171816D01*
X129514293Y-94144641D01*
X129567208Y-94109284D01*
X129633927Y-94042565D01*
X129686348Y-93964112D01*
X129722456Y-93876939D01*
X129740863Y-93784397D01*
X129740863Y-93690043D01*
X129740356Y-93687493D01*
X130393440Y-93687493D01*
X130393440Y-93781847D01*
X130411847Y-93874389D01*
X130447955Y-93961562D01*
X130500376Y-94040015D01*
X130567095Y-94106734D01*
X130645548Y-94159155D01*
X130732721Y-94195263D01*
X130825263Y-94213670D01*
X130919617Y-94213670D01*
X131012159Y-94195263D01*
X131099332Y-94159155D01*
X131177785Y-94106734D01*
X131244504Y-94040015D01*
X131296925Y-93961562D01*
X131333033Y-93874389D01*
X131351440Y-93781847D01*
X131351440Y-93687493D01*
X131333033Y-93594951D01*
X131296925Y-93507778D01*
X131244504Y-93429325D01*
X131177785Y-93362606D01*
X131099332Y-93310185D01*
X131012159Y-93274077D01*
X130919617Y-93255670D01*
X130825263Y-93255670D01*
X130732721Y-93274077D01*
X130645548Y-93310185D01*
X130567095Y-93362606D01*
X130500376Y-93429325D01*
X130447955Y-93507778D01*
X130411847Y-93594951D01*
X130393440Y-93687493D01*
X129740356Y-93687493D01*
X129722456Y-93597501D01*
X129686348Y-93510328D01*
X129633927Y-93431875D01*
X129567208Y-93365156D01*
X129488755Y-93312735D01*
X129401582Y-93276627D01*
X129309040Y-93258220D01*
X129214686Y-93258220D01*
X129122144Y-93276627D01*
X129034971Y-93312735D01*
X128956518Y-93365156D01*
X128889799Y-93431875D01*
X128837378Y-93510328D01*
X128801270Y-93597501D01*
X128782863Y-93690043D01*
X128782863Y-93784397D01*
X128801270Y-93876939D01*
X128837378Y-93964112D01*
X128889799Y-94042565D01*
X128956518Y-94109284D01*
X128997188Y-94136459D01*
X128944273Y-94171816D01*
X128877554Y-94238535D01*
X128856539Y-94269986D01*
X128835104Y-94237906D01*
X128768385Y-94171187D01*
X128689932Y-94118766D01*
X128602759Y-94082658D01*
X128510217Y-94064251D01*
X128415863Y-94064251D01*
X128323321Y-94082658D01*
X128236148Y-94118766D01*
X128157695Y-94171187D01*
X128090976Y-94237906D01*
X128038555Y-94316359D01*
X128002447Y-94403532D01*
X127984040Y-94496074D01*
X127984040Y-94590428D01*
X128002447Y-94682970D01*
X128038555Y-94770143D01*
X128090976Y-94848596D01*
X128157695Y-94915315D01*
X128210051Y-94950299D01*
X128162775Y-94981888D01*
X128096056Y-95048607D01*
X128065530Y-95094292D01*
X128035004Y-95048607D01*
X127968285Y-94981888D01*
X127889832Y-94929467D01*
X127802659Y-94893359D01*
X127710117Y-94874952D01*
X127615763Y-94874952D01*
X127523221Y-94893359D01*
X127436048Y-94929467D01*
X127357595Y-94981888D01*
X127290876Y-95048607D01*
X127238455Y-95127060D01*
X127202347Y-95214233D01*
X127183940Y-95306775D01*
X126544280Y-95306775D01*
X126544280Y-95291723D01*
X126525873Y-95199181D01*
X126489765Y-95112008D01*
X126437344Y-95033555D01*
X126370625Y-94966836D01*
X126341597Y-94947440D01*
X126373165Y-94926347D01*
X126439884Y-94859628D01*
X126468585Y-94816674D01*
X126493316Y-94853686D01*
X126560035Y-94920405D01*
X126638488Y-94972826D01*
X126725661Y-95008934D01*
X126818203Y-95027341D01*
X126912557Y-95027341D01*
X127005099Y-95008934D01*
X127092272Y-94972826D01*
X127170725Y-94920405D01*
X127237444Y-94853686D01*
X127289865Y-94775233D01*
X127325973Y-94688060D01*
X127344380Y-94595518D01*
X127344380Y-94501164D01*
X127325973Y-94408622D01*
X127289865Y-94321449D01*
X127237444Y-94242996D01*
X127170725Y-94176277D01*
X127119016Y-94141726D01*
X127159322Y-94114794D01*
X127226041Y-94048075D01*
X127278462Y-93969622D01*
X127314570Y-93882449D01*
X127332977Y-93789907D01*
X127332977Y-93695553D01*
X127314570Y-93603011D01*
X127278462Y-93515838D01*
X127226041Y-93437385D01*
X127159322Y-93370666D01*
X127117747Y-93342886D01*
X127168185Y-93309184D01*
X127234904Y-93242465D01*
X127264584Y-93198046D01*
X127290876Y-93237394D01*
X127357595Y-93304113D01*
X127436048Y-93356534D01*
X127523221Y-93392642D01*
X127615763Y-93411049D01*
X127710117Y-93411049D01*
X127802659Y-93392642D01*
X127889832Y-93356534D01*
X127968285Y-93304113D01*
X128035004Y-93237394D01*
X128087425Y-93158941D01*
X128123533Y-93071768D01*
X128141940Y-92979226D01*
X128141940Y-92884872D01*
X128123533Y-92792330D01*
X128087425Y-92705157D01*
X128035004Y-92626704D01*
X127968285Y-92559985D01*
X127889832Y-92507564D01*
X127802659Y-92471456D01*
X127710117Y-92453049D01*
X127615763Y-92453049D01*
X127523221Y-92471456D01*
X127436048Y-92507564D01*
X127357595Y-92559985D01*
X127290876Y-92626704D01*
X127261196Y-92671123D01*
X127234904Y-92631775D01*
X127168185Y-92565056D01*
X127089732Y-92512635D01*
X127002559Y-92476527D01*
X126910017Y-92458120D01*
X126815663Y-92458120D01*
X126723121Y-92476527D01*
X126635948Y-92512635D01*
X126557495Y-92565056D01*
X126490776Y-92631775D01*
X126438355Y-92710228D01*
X126402247Y-92797401D01*
X126383840Y-92889943D01*
X126383840Y-92984297D01*
X126402247Y-93076839D01*
X126438355Y-93164012D01*
X126490776Y-93242465D01*
X126557495Y-93309184D01*
X126599070Y-93336964D01*
X126548632Y-93370666D01*
X126481913Y-93437385D01*
X126459769Y-93470525D01*
X126437344Y-93436964D01*
X126370625Y-93370245D01*
X126292172Y-93317824D01*
X126204999Y-93281716D01*
X126112457Y-93263309D01*
X126018103Y-93263309D01*
X125925561Y-93281716D01*
X125838388Y-93317824D01*
X125759935Y-93370245D01*
X125693216Y-93436964D01*
X125663104Y-93482029D01*
X125637244Y-93443327D01*
X125570525Y-93376608D01*
X125524517Y-93345866D01*
X125570525Y-93315125D01*
X125637244Y-93248406D01*
X125689665Y-93169953D01*
X125725773Y-93082780D01*
X125744180Y-92990238D01*
X125744180Y-92895884D01*
X125725773Y-92803342D01*
X125689665Y-92716169D01*
X125637244Y-92637716D01*
X125570525Y-92570997D01*
X125519967Y-92537215D01*
X125561425Y-92509514D01*
X125628144Y-92442795D01*
X125662247Y-92391757D01*
X125690676Y-92434304D01*
X125757395Y-92501023D01*
X125835848Y-92553444D01*
X125923021Y-92589552D01*
X126015563Y-92607959D01*
X126109917Y-92607959D01*
X126202459Y-92589552D01*
X126289632Y-92553444D01*
X126368085Y-92501023D01*
X126434804Y-92434304D01*
X126487225Y-92355851D01*
X126523333Y-92268678D01*
X126541740Y-92176136D01*
X126541740Y-92081782D01*
X126539300Y-92069513D01*
X129584240Y-92069513D01*
X129584240Y-92163867D01*
X129602647Y-92256409D01*
X129638755Y-92343582D01*
X129691176Y-92422035D01*
X129757895Y-92488754D01*
X129836348Y-92541175D01*
X129872936Y-92556330D01*
X129836348Y-92571485D01*
X129757895Y-92623906D01*
X129691176Y-92690625D01*
X129638755Y-92769078D01*
X129602647Y-92856251D01*
X129584240Y-92948793D01*
X129584240Y-93043147D01*
X129602647Y-93135689D01*
X129638755Y-93222862D01*
X129691176Y-93301315D01*
X129757895Y-93368034D01*
X129836348Y-93420455D01*
X129923521Y-93456563D01*
X130016063Y-93474970D01*
X130110417Y-93474970D01*
X130202959Y-93456563D01*
X130290132Y-93420455D01*
X130368585Y-93368034D01*
X130435304Y-93301315D01*
X130487725Y-93222862D01*
X130523833Y-93135689D01*
X130542240Y-93043147D01*
X130542240Y-93003120D01*
X133441450Y-93003120D01*
X133441450Y-93097474D01*
X133459857Y-93190016D01*
X133495965Y-93277189D01*
X133548386Y-93355642D01*
X133615105Y-93422361D01*
X133693558Y-93474782D01*
X133780731Y-93510890D01*
X133873273Y-93529297D01*
X133967627Y-93529297D01*
X134060169Y-93510890D01*
X134147342Y-93474782D01*
X134225795Y-93422361D01*
X134292514Y-93355642D01*
X134344935Y-93277189D01*
X134381043Y-93190016D01*
X134399450Y-93097474D01*
X134399450Y-93003120D01*
X134381043Y-92910578D01*
X134344935Y-92823405D01*
X134292514Y-92744952D01*
X134225795Y-92678233D01*
X134147342Y-92625812D01*
X134060169Y-92589704D01*
X133967627Y-92571297D01*
X133873273Y-92571297D01*
X133780731Y-92589704D01*
X133693558Y-92625812D01*
X133615105Y-92678233D01*
X133548386Y-92744952D01*
X133495965Y-92823405D01*
X133459857Y-92910578D01*
X133441450Y-93003120D01*
X130542240Y-93003120D01*
X130542240Y-92948793D01*
X130523833Y-92856251D01*
X130487725Y-92769078D01*
X130435304Y-92690625D01*
X130368585Y-92623906D01*
X130290132Y-92571485D01*
X130253544Y-92556330D01*
X130290132Y-92541175D01*
X130368585Y-92488754D01*
X130435304Y-92422035D01*
X130487725Y-92343582D01*
X130523833Y-92256409D01*
X130542240Y-92163867D01*
X130542240Y-92069513D01*
X130523833Y-91976971D01*
X130487725Y-91889798D01*
X130435304Y-91811345D01*
X130368585Y-91744626D01*
X130290132Y-91692205D01*
X130202959Y-91656097D01*
X130110417Y-91637690D01*
X130016063Y-91637690D01*
X129923521Y-91656097D01*
X129836348Y-91692205D01*
X129757895Y-91744626D01*
X129691176Y-91811345D01*
X129638755Y-91889798D01*
X129602647Y-91976971D01*
X129584240Y-92069513D01*
X126539300Y-92069513D01*
X126523333Y-91989240D01*
X126487225Y-91902067D01*
X126434804Y-91823614D01*
X126368085Y-91756895D01*
X126289632Y-91704474D01*
X126274449Y-91698185D01*
X126298025Y-91682432D01*
X126364744Y-91615713D01*
X126417165Y-91537260D01*
X126427866Y-91511425D01*
X126470456Y-91575165D01*
X126537175Y-91641884D01*
X126615628Y-91694305D01*
X126702801Y-91730413D01*
X126795343Y-91748820D01*
X126889697Y-91748820D01*
X126982239Y-91730413D01*
X127069412Y-91694305D01*
X127147865Y-91641884D01*
X127151824Y-91637925D01*
X127224514Y-91686496D01*
X127311687Y-91722604D01*
X127404229Y-91741011D01*
X127498583Y-91741011D01*
X127591125Y-91722604D01*
X127678298Y-91686496D01*
X127756751Y-91634075D01*
X127823470Y-91567356D01*
X127875891Y-91488903D01*
X127909644Y-91407415D01*
X127964005Y-91461776D01*
X128042458Y-91514197D01*
X128129631Y-91550305D01*
X128222173Y-91568712D01*
X128316527Y-91568712D01*
X128409069Y-91550305D01*
X128496242Y-91514197D01*
X128574695Y-91461776D01*
X128641414Y-91395057D01*
X128693835Y-91316604D01*
X128729943Y-91229431D01*
X128730204Y-91228120D01*
X128801884Y-91228120D01*
X128894426Y-91209713D01*
X128981599Y-91173605D01*
X129028384Y-91142344D01*
X129080348Y-91177065D01*
X129167521Y-91213173D01*
X129260063Y-91231580D01*
X129354417Y-91231580D01*
X129446959Y-91213173D01*
X129534132Y-91177065D01*
X129612585Y-91124644D01*
X129679304Y-91057925D01*
X129731725Y-90979472D01*
X129767833Y-90892299D01*
X129780315Y-90829545D01*
X129788067Y-90868519D01*
X129824175Y-90955692D01*
X129876596Y-91034145D01*
X129943315Y-91100864D01*
X130021768Y-91153285D01*
X130108941Y-91189393D01*
X130163360Y-91200217D01*
X130163360Y-91228097D01*
X130181767Y-91320639D01*
X130217875Y-91407812D01*
X130270296Y-91486265D01*
X130337015Y-91552984D01*
X130415468Y-91605405D01*
X130502641Y-91641513D01*
X130595183Y-91659920D01*
X130689537Y-91659920D01*
X130782079Y-91641513D01*
X130869252Y-91605405D01*
X130947705Y-91552984D01*
X131014424Y-91486265D01*
X131066845Y-91407812D01*
X131102953Y-91320639D01*
X131121360Y-91228097D01*
X131121360Y-91133743D01*
X131105355Y-91053278D01*
X131171460Y-91119383D01*
X131249913Y-91171804D01*
X131337086Y-91207912D01*
X131429628Y-91226319D01*
X131523982Y-91226319D01*
X131616524Y-91207912D01*
X131703697Y-91171804D01*
X131782150Y-91119383D01*
X131785122Y-91116411D01*
X131792435Y-91123724D01*
X131870888Y-91176145D01*
X131958061Y-91212253D01*
X132050603Y-91230660D01*
X132144957Y-91230660D01*
X132237499Y-91212253D01*
X132324672Y-91176145D01*
X132403125Y-91123724D01*
X132469844Y-91057005D01*
X132522265Y-90978552D01*
X132558373Y-90891379D01*
X132576780Y-90798837D01*
X132576780Y-90785035D01*
X133441450Y-90785035D01*
X133441450Y-90879389D01*
X133459857Y-90971931D01*
X133495965Y-91059104D01*
X133539779Y-91124676D01*
X133495965Y-91190248D01*
X133459857Y-91277421D01*
X133441450Y-91369963D01*
X133441450Y-91464317D01*
X133459857Y-91556859D01*
X133495965Y-91644032D01*
X133548386Y-91722485D01*
X133557812Y-91731911D01*
X133548386Y-91741336D01*
X133495965Y-91819789D01*
X133459857Y-91906962D01*
X133441450Y-91999504D01*
X133441450Y-92093858D01*
X133459857Y-92186400D01*
X133495965Y-92273573D01*
X133548386Y-92352026D01*
X133615105Y-92418745D01*
X133693558Y-92471166D01*
X133780731Y-92507274D01*
X133873273Y-92525681D01*
X133967627Y-92525681D01*
X134060169Y-92507274D01*
X134147342Y-92471166D01*
X134225795Y-92418745D01*
X134292514Y-92352026D01*
X134344935Y-92273573D01*
X134381043Y-92186400D01*
X134399450Y-92093858D01*
X134399450Y-91999504D01*
X134381043Y-91906962D01*
X134344935Y-91819789D01*
X134292514Y-91741336D01*
X134283089Y-91731911D01*
X134292514Y-91722485D01*
X134344935Y-91644032D01*
X134381043Y-91556859D01*
X134399450Y-91464317D01*
X134399450Y-91369963D01*
X134381043Y-91277421D01*
X134344935Y-91190248D01*
X134301121Y-91124676D01*
X134344935Y-91059104D01*
X134381043Y-90971931D01*
X134399450Y-90879389D01*
X134399450Y-90785035D01*
X134390064Y-90737848D01*
X134448892Y-90713481D01*
X134527345Y-90661060D01*
X134594064Y-90594341D01*
X134598109Y-90588287D01*
X134603327Y-90614519D01*
X134639435Y-90701692D01*
X134691856Y-90780145D01*
X134758575Y-90846864D01*
X134837028Y-90899285D01*
X134924201Y-90935393D01*
X135016743Y-90953800D01*
X135111097Y-90953800D01*
X135203639Y-90935393D01*
X135290812Y-90899285D01*
X135369265Y-90846864D01*
X135435984Y-90780145D01*
X135488405Y-90701692D01*
X135524513Y-90614519D01*
X135542920Y-90521977D01*
X135542920Y-90427623D01*
X135524513Y-90335081D01*
X135488405Y-90247908D01*
X135435984Y-90169455D01*
X135369265Y-90102736D01*
X135290812Y-90050315D01*
X135203639Y-90014207D01*
X135111097Y-89995800D01*
X135016743Y-89995800D01*
X134924201Y-90014207D01*
X134837028Y-90050315D01*
X134758575Y-90102736D01*
X134691856Y-90169455D01*
X134687811Y-90175509D01*
X134682593Y-90149277D01*
X134646485Y-90062104D01*
X134594064Y-89983651D01*
X134527345Y-89916932D01*
X134448892Y-89864511D01*
X134361719Y-89828403D01*
X134269177Y-89809996D01*
X134174823Y-89809996D01*
X134082281Y-89828403D01*
X133995108Y-89864511D01*
X133916655Y-89916932D01*
X133849936Y-89983651D01*
X133797515Y-90062104D01*
X133761407Y-90149277D01*
X133743000Y-90241819D01*
X133743000Y-90336173D01*
X133752386Y-90383360D01*
X133693558Y-90407727D01*
X133615105Y-90460148D01*
X133548386Y-90526867D01*
X133495965Y-90605320D01*
X133459857Y-90692493D01*
X133441450Y-90785035D01*
X132576780Y-90785035D01*
X132576780Y-90704483D01*
X132558373Y-90611941D01*
X132522265Y-90524768D01*
X132469844Y-90446315D01*
X132403125Y-90379596D01*
X132324672Y-90327175D01*
X132268367Y-90303853D01*
X132269440Y-90298457D01*
X132269440Y-90204103D01*
X132251033Y-90111561D01*
X132214925Y-90024388D01*
X132162504Y-89945935D01*
X132095785Y-89879216D01*
X132017332Y-89826795D01*
X131930159Y-89790687D01*
X131837617Y-89772280D01*
X131743263Y-89772280D01*
X131650721Y-89790687D01*
X131563548Y-89826795D01*
X131485095Y-89879216D01*
X131418376Y-89945935D01*
X131365955Y-90024388D01*
X131329847Y-90111561D01*
X131311440Y-90204103D01*
X131311440Y-90297349D01*
X131249913Y-90322834D01*
X131171460Y-90375255D01*
X131104741Y-90441974D01*
X131052320Y-90520427D01*
X131016212Y-90607600D01*
X130997805Y-90700142D01*
X130997805Y-90794496D01*
X131013810Y-90874961D01*
X130947705Y-90808856D01*
X130869252Y-90756435D01*
X130782079Y-90720327D01*
X130727660Y-90709503D01*
X130727660Y-90681623D01*
X130709253Y-90589081D01*
X130673145Y-90501908D01*
X130620724Y-90423455D01*
X130554005Y-90356736D01*
X130475552Y-90304315D01*
X130388379Y-90268207D01*
X130295837Y-90249800D01*
X130201483Y-90249800D01*
X130108941Y-90268207D01*
X130021768Y-90304315D01*
X129943315Y-90356736D01*
X129876596Y-90423455D01*
X129824175Y-90501908D01*
X129788067Y-90589081D01*
X129775585Y-90651835D01*
X129767833Y-90612861D01*
X129731725Y-90525688D01*
X129679304Y-90447235D01*
X129612585Y-90380516D01*
X129534132Y-90328095D01*
X129446959Y-90291987D01*
X129354417Y-90273580D01*
X129260063Y-90273580D01*
X129167521Y-90291987D01*
X129080348Y-90328095D01*
X129033563Y-90359356D01*
X128981599Y-90324635D01*
X128894426Y-90288527D01*
X128801884Y-90270120D01*
X128764719Y-90270120D01*
X128749853Y-90195381D01*
X128713745Y-90108208D01*
X128661324Y-90029755D01*
X128594605Y-89963036D01*
X128516152Y-89910615D01*
X128428979Y-89874507D01*
X128336437Y-89856100D01*
X128242083Y-89856100D01*
X128149541Y-89874507D01*
X128062368Y-89910615D01*
X127983915Y-89963036D01*
X127917196Y-90029755D01*
X127864775Y-90108208D01*
X127828667Y-90195381D01*
X127810260Y-90287923D01*
X127810260Y-90382277D01*
X127828667Y-90474819D01*
X127864775Y-90561992D01*
X127917196Y-90640445D01*
X127982225Y-90705474D01*
X127964005Y-90717648D01*
X127897286Y-90784367D01*
X127844865Y-90862820D01*
X127811112Y-90944308D01*
X127756751Y-90889947D01*
X127678298Y-90837526D01*
X127591125Y-90801418D01*
X127498583Y-90783011D01*
X127404229Y-90783011D01*
X127311687Y-90801418D01*
X127224514Y-90837526D01*
X127146061Y-90889947D01*
X127142102Y-90893906D01*
X127069412Y-90845335D01*
X126982239Y-90809227D01*
X126889697Y-90790820D01*
X126795343Y-90790820D01*
X126702801Y-90809227D01*
X126615628Y-90845335D01*
X126537175Y-90897756D01*
X126470456Y-90964475D01*
X126418035Y-91042928D01*
X126407334Y-91068763D01*
X126364744Y-91005023D01*
X126298025Y-90938304D01*
X126254560Y-90909261D01*
X126303095Y-90876831D01*
X126369814Y-90810112D01*
X126422235Y-90731659D01*
X126458343Y-90644486D01*
X126476750Y-90551944D01*
X126476750Y-90457590D01*
X126458343Y-90365048D01*
X126422235Y-90277875D01*
X126369814Y-90199422D01*
X126303095Y-90132703D01*
X126224642Y-90080282D01*
X126137469Y-90044174D01*
X126044927Y-90025767D01*
X125950573Y-90025767D01*
X125858031Y-90044174D01*
X125770858Y-90080282D01*
X125692405Y-90132703D01*
X125625686Y-90199422D01*
X125573265Y-90277875D01*
X125537157Y-90365048D01*
X125518750Y-90457590D01*
X125518750Y-90551944D01*
X125537157Y-90644486D01*
X125573265Y-90731659D01*
X125625686Y-90810112D01*
X125692405Y-90876831D01*
X125735870Y-90905874D01*
X125687335Y-90938304D01*
X125620616Y-91005023D01*
X125568195Y-91083476D01*
X125532087Y-91170649D01*
X125513680Y-91263191D01*
X125513680Y-91357545D01*
X125532087Y-91450087D01*
X125568195Y-91537260D01*
X125620616Y-91615713D01*
X125687335Y-91682432D01*
X125765788Y-91734853D01*
X125780971Y-91741142D01*
X125757395Y-91756895D01*
X125690676Y-91823614D01*
X125656573Y-91874652D01*
X125628144Y-91832105D01*
X125561425Y-91765386D01*
X125482972Y-91712965D01*
X125395799Y-91676857D01*
X125303257Y-91658450D01*
X125208903Y-91658450D01*
X125116361Y-91676857D01*
X125029188Y-91712965D01*
X124950735Y-91765386D01*
X124884016Y-91832105D01*
X124831595Y-91910558D01*
X124795487Y-91997731D01*
X124777080Y-92090273D01*
X124777080Y-92184627D01*
X124795487Y-92277169D01*
X124831595Y-92364342D01*
X124884016Y-92442795D01*
X124950735Y-92509514D01*
X125001293Y-92543296D01*
X124959835Y-92570997D01*
X124893116Y-92637716D01*
X124864935Y-92679892D01*
X124826984Y-92623095D01*
X124760265Y-92556376D01*
X124681812Y-92503955D01*
X124594639Y-92467847D01*
X124502097Y-92449440D01*
X124407743Y-92449440D01*
X124315201Y-92467847D01*
X124228028Y-92503955D01*
X124149575Y-92556376D01*
X124082856Y-92623095D01*
X124030435Y-92701548D01*
X123994327Y-92788721D01*
X123975920Y-92881263D01*
X123975920Y-92975617D01*
X123994327Y-93068159D01*
X124030435Y-93155332D01*
X124082856Y-93233785D01*
X124149575Y-93300504D01*
X124228028Y-93352925D01*
X124315201Y-93389033D01*
X124407743Y-93407440D01*
X124502097Y-93407440D01*
X124594639Y-93389033D01*
X124681812Y-93352925D01*
X124760265Y-93300504D01*
X124826984Y-93233785D01*
X124855165Y-93191609D01*
X124893116Y-93248406D01*
X124959835Y-93315125D01*
X125005843Y-93345866D01*
X124959835Y-93376608D01*
X124893116Y-93443327D01*
X124840695Y-93521780D01*
X124804587Y-93608953D01*
X124786180Y-93701495D01*
X124786180Y-93795849D01*
X124804587Y-93888391D01*
X124840695Y-93975564D01*
X124893116Y-94054017D01*
X124959835Y-94120736D01*
X125005843Y-94151478D01*
X124959835Y-94182219D01*
X124893116Y-94248938D01*
X124840695Y-94327391D01*
X124804587Y-94414564D01*
X124786180Y-94507106D01*
X124786180Y-94601460D01*
X124804587Y-94694002D01*
X124840695Y-94781175D01*
X124893116Y-94859628D01*
X124959835Y-94926347D01*
X125003303Y-94955392D01*
X124954755Y-94987831D01*
X124888036Y-95054550D01*
X124835615Y-95133003D01*
X124809203Y-95196767D01*
X124797315Y-95136998D01*
X124761207Y-95049825D01*
X124708786Y-94971372D01*
X124642067Y-94904653D01*
X124563614Y-94852232D01*
X124476441Y-94816124D01*
X124383899Y-94797717D01*
X124289545Y-94797717D01*
X124197003Y-94816124D01*
X124109830Y-94852232D01*
X124031377Y-94904653D01*
X123964658Y-94971372D01*
X123912237Y-95049825D01*
X123876129Y-95136998D01*
X123857722Y-95229540D01*
X118258949Y-95229540D01*
X118248929Y-95219520D01*
X118266164Y-95202285D01*
X118318585Y-95123832D01*
X118354693Y-95036659D01*
X118373100Y-94944117D01*
X118373100Y-94849763D01*
X118354693Y-94757221D01*
X118318585Y-94670048D01*
X118266164Y-94591595D01*
X118199445Y-94524876D01*
X118120992Y-94472455D01*
X118033819Y-94436347D01*
X117941277Y-94417940D01*
X117846923Y-94417940D01*
X117754381Y-94436347D01*
X117667208Y-94472455D01*
X117626600Y-94499589D01*
X117626600Y-94042043D01*
X123831140Y-94042043D01*
X123831140Y-94136397D01*
X123849547Y-94228939D01*
X123885655Y-94316112D01*
X123938076Y-94394565D01*
X124004795Y-94461284D01*
X124083248Y-94513705D01*
X124170421Y-94549813D01*
X124262963Y-94568220D01*
X124357317Y-94568220D01*
X124449859Y-94549813D01*
X124537032Y-94513705D01*
X124615485Y-94461284D01*
X124682204Y-94394565D01*
X124734625Y-94316112D01*
X124770733Y-94228939D01*
X124789140Y-94136397D01*
X124789140Y-94042043D01*
X124770733Y-93949501D01*
X124734625Y-93862328D01*
X124682204Y-93783875D01*
X124615485Y-93717156D01*
X124537032Y-93664735D01*
X124449859Y-93628627D01*
X124357317Y-93610220D01*
X124262963Y-93610220D01*
X124170421Y-93628627D01*
X124083248Y-93664735D01*
X124004795Y-93717156D01*
X123938076Y-93783875D01*
X123885655Y-93862328D01*
X123849547Y-93949501D01*
X123831140Y-94042043D01*
X117626600Y-94042043D01*
X117626600Y-92903309D01*
X117664668Y-92928745D01*
X117751841Y-92964853D01*
X117844383Y-92983260D01*
X117938737Y-92983260D01*
X118031279Y-92964853D01*
X118118452Y-92928745D01*
X118196905Y-92876324D01*
X118263624Y-92809605D01*
X118316045Y-92731152D01*
X118352153Y-92643979D01*
X118370560Y-92551437D01*
X118370560Y-92457083D01*
X118352153Y-92364541D01*
X118316045Y-92277368D01*
X118263624Y-92198915D01*
X118257632Y-92192923D01*
X119424240Y-92192923D01*
X119424240Y-92287277D01*
X119442647Y-92379819D01*
X119478755Y-92466992D01*
X119531176Y-92545445D01*
X119597895Y-92612164D01*
X119676348Y-92664585D01*
X119763521Y-92700693D01*
X119766034Y-92701193D01*
X119759520Y-92733943D01*
X119759520Y-92828297D01*
X119776516Y-92913744D01*
X119760168Y-92920515D01*
X119681715Y-92972936D01*
X119614996Y-93039655D01*
X119562575Y-93118108D01*
X119526467Y-93205281D01*
X119508060Y-93297823D01*
X119508060Y-93392177D01*
X119526467Y-93484719D01*
X119562575Y-93571892D01*
X119614996Y-93650345D01*
X119681715Y-93717064D01*
X119760168Y-93769485D01*
X119847341Y-93805593D01*
X119939883Y-93824000D01*
X120034237Y-93824000D01*
X120126779Y-93805593D01*
X120213952Y-93769485D01*
X120292405Y-93717064D01*
X120359124Y-93650345D01*
X120411545Y-93571892D01*
X120447653Y-93484719D01*
X120466060Y-93392177D01*
X120466060Y-93297823D01*
X120449064Y-93212376D01*
X120465412Y-93205605D01*
X120543865Y-93153184D01*
X120610584Y-93086465D01*
X120663005Y-93008012D01*
X120699113Y-92920839D01*
X120717520Y-92828297D01*
X120717520Y-92733943D01*
X120699113Y-92641401D01*
X120663005Y-92554228D01*
X120610584Y-92475775D01*
X120543865Y-92409056D01*
X120465412Y-92356635D01*
X120378239Y-92320527D01*
X120375726Y-92320027D01*
X120382240Y-92287277D01*
X120382240Y-92192923D01*
X120363833Y-92100381D01*
X120327725Y-92013208D01*
X120275304Y-91934755D01*
X120208585Y-91868036D01*
X120130132Y-91815615D01*
X120042959Y-91779507D01*
X119950417Y-91761100D01*
X119856063Y-91761100D01*
X119763521Y-91779507D01*
X119676348Y-91815615D01*
X119597895Y-91868036D01*
X119531176Y-91934755D01*
X119478755Y-92013208D01*
X119442647Y-92100381D01*
X119424240Y-92192923D01*
X118257632Y-92192923D01*
X118196905Y-92132196D01*
X118118452Y-92079775D01*
X118031279Y-92043667D01*
X117938737Y-92025260D01*
X117844383Y-92025260D01*
X117751841Y-92043667D01*
X117664668Y-92079775D01*
X117626600Y-92105211D01*
X117626600Y-91100723D01*
X119416620Y-91100723D01*
X119416620Y-91195077D01*
X119435027Y-91287619D01*
X119471135Y-91374792D01*
X119523556Y-91453245D01*
X119590275Y-91519964D01*
X119668728Y-91572385D01*
X119755901Y-91608493D01*
X119848443Y-91626900D01*
X119942797Y-91626900D01*
X120035339Y-91608493D01*
X120122512Y-91572385D01*
X120200965Y-91519964D01*
X120238763Y-91482166D01*
X120247944Y-91504332D01*
X120300365Y-91582785D01*
X120367084Y-91649504D01*
X120445537Y-91701925D01*
X120532710Y-91738033D01*
X120625252Y-91756440D01*
X120719606Y-91756440D01*
X120812148Y-91738033D01*
X120899321Y-91701925D01*
X120977774Y-91649504D01*
X121044493Y-91582785D01*
X121096914Y-91504332D01*
X121133022Y-91417159D01*
X121136735Y-91398494D01*
X121152067Y-91475579D01*
X121188175Y-91562752D01*
X121240596Y-91641205D01*
X121307315Y-91707924D01*
X121385768Y-91760345D01*
X121418251Y-91773800D01*
X121413083Y-91773800D01*
X121320541Y-91792207D01*
X121233368Y-91828315D01*
X121154915Y-91880736D01*
X121088196Y-91947455D01*
X121035775Y-92025908D01*
X120999667Y-92113081D01*
X120981260Y-92205623D01*
X120981260Y-92299977D01*
X120999667Y-92392519D01*
X121035775Y-92479692D01*
X121088196Y-92558145D01*
X121154915Y-92624864D01*
X121233368Y-92677285D01*
X121320541Y-92713393D01*
X121413083Y-92731800D01*
X121507437Y-92731800D01*
X121599979Y-92713393D01*
X121687152Y-92677285D01*
X121765605Y-92624864D01*
X121832324Y-92558145D01*
X121884745Y-92479692D01*
X121920853Y-92392519D01*
X121939260Y-92299977D01*
X121939260Y-92205623D01*
X121920853Y-92113081D01*
X121884745Y-92025908D01*
X121832324Y-91947455D01*
X121785692Y-91900823D01*
X122584000Y-91900823D01*
X122584000Y-91995177D01*
X122602407Y-92087719D01*
X122638515Y-92174892D01*
X122690936Y-92253345D01*
X122757655Y-92320064D01*
X122836108Y-92372485D01*
X122923281Y-92408593D01*
X123015823Y-92427000D01*
X123110177Y-92427000D01*
X123202719Y-92408593D01*
X123289892Y-92372485D01*
X123368345Y-92320064D01*
X123435064Y-92253345D01*
X123487485Y-92174892D01*
X123523593Y-92087719D01*
X123542000Y-91995177D01*
X123542000Y-91900823D01*
X123523593Y-91808281D01*
X123487485Y-91721108D01*
X123465003Y-91687461D01*
X123625400Y-91687461D01*
X123625400Y-91781815D01*
X123643807Y-91874357D01*
X123679915Y-91961530D01*
X123732336Y-92039983D01*
X123799055Y-92106702D01*
X123877508Y-92159123D01*
X123964681Y-92195231D01*
X124057223Y-92213638D01*
X124151577Y-92213638D01*
X124244119Y-92195231D01*
X124331292Y-92159123D01*
X124409745Y-92106702D01*
X124476464Y-92039983D01*
X124528885Y-91961530D01*
X124564993Y-91874357D01*
X124583400Y-91781815D01*
X124583400Y-91687461D01*
X124564993Y-91594919D01*
X124528885Y-91507746D01*
X124476464Y-91429293D01*
X124409745Y-91362574D01*
X124331292Y-91310153D01*
X124244119Y-91274045D01*
X124151577Y-91255638D01*
X124057223Y-91255638D01*
X123964681Y-91274045D01*
X123877508Y-91310153D01*
X123799055Y-91362574D01*
X123732336Y-91429293D01*
X123679915Y-91507746D01*
X123643807Y-91594919D01*
X123625400Y-91687461D01*
X123465003Y-91687461D01*
X123435064Y-91642655D01*
X123368345Y-91575936D01*
X123289892Y-91523515D01*
X123202719Y-91487407D01*
X123110177Y-91469000D01*
X123015823Y-91469000D01*
X122923281Y-91487407D01*
X122836108Y-91523515D01*
X122757655Y-91575936D01*
X122690936Y-91642655D01*
X122638515Y-91721108D01*
X122602407Y-91808281D01*
X122584000Y-91900823D01*
X121785692Y-91900823D01*
X121765605Y-91880736D01*
X121687152Y-91828315D01*
X121654669Y-91814860D01*
X121659837Y-91814860D01*
X121752379Y-91796453D01*
X121839552Y-91760345D01*
X121918005Y-91707924D01*
X121984724Y-91641205D01*
X122037145Y-91562752D01*
X122073253Y-91475579D01*
X122091660Y-91383037D01*
X122091660Y-91288683D01*
X122073253Y-91196141D01*
X122037145Y-91108968D01*
X121984724Y-91030515D01*
X121918005Y-90963796D01*
X121839552Y-90911375D01*
X121752379Y-90875267D01*
X121659837Y-90856860D01*
X121565483Y-90856860D01*
X121472941Y-90875267D01*
X121385768Y-90911375D01*
X121307315Y-90963796D01*
X121240596Y-91030515D01*
X121188175Y-91108968D01*
X121152067Y-91196141D01*
X121148354Y-91214806D01*
X121133022Y-91137721D01*
X121096914Y-91050548D01*
X121044493Y-90972095D01*
X120977774Y-90905376D01*
X120899321Y-90852955D01*
X120812148Y-90816847D01*
X120719606Y-90798440D01*
X120625252Y-90798440D01*
X120532710Y-90816847D01*
X120445537Y-90852955D01*
X120367084Y-90905376D01*
X120329286Y-90943174D01*
X120320105Y-90921008D01*
X120267684Y-90842555D01*
X120200965Y-90775836D01*
X120122512Y-90723415D01*
X120035339Y-90687307D01*
X119993993Y-90679083D01*
X124387398Y-90679083D01*
X124387398Y-90773437D01*
X124405805Y-90865979D01*
X124441913Y-90953152D01*
X124494334Y-91031605D01*
X124561053Y-91098324D01*
X124639506Y-91150745D01*
X124726679Y-91186853D01*
X124819221Y-91205260D01*
X124913575Y-91205260D01*
X125006117Y-91186853D01*
X125093290Y-91150745D01*
X125171743Y-91098324D01*
X125238462Y-91031605D01*
X125290883Y-90953152D01*
X125326991Y-90865979D01*
X125345398Y-90773437D01*
X125345398Y-90679083D01*
X125326991Y-90586541D01*
X125290883Y-90499368D01*
X125238462Y-90420915D01*
X125171743Y-90354196D01*
X125093290Y-90301775D01*
X125006117Y-90265667D01*
X124913575Y-90247260D01*
X124819221Y-90247260D01*
X124726679Y-90265667D01*
X124639506Y-90301775D01*
X124561053Y-90354196D01*
X124494334Y-90420915D01*
X124441913Y-90499368D01*
X124405805Y-90586541D01*
X124387398Y-90679083D01*
X119993993Y-90679083D01*
X119942797Y-90668900D01*
X119848443Y-90668900D01*
X119755901Y-90687307D01*
X119668728Y-90723415D01*
X119590275Y-90775836D01*
X119523556Y-90842555D01*
X119471135Y-90921008D01*
X119435027Y-91008181D01*
X119416620Y-91100723D01*
X117626600Y-91100723D01*
X117626600Y-89863743D01*
X123439980Y-89863743D01*
X123439980Y-89958097D01*
X123458387Y-90050639D01*
X123494495Y-90137812D01*
X123546916Y-90216265D01*
X123613635Y-90282984D01*
X123692088Y-90335405D01*
X123779261Y-90371513D01*
X123871803Y-90389920D01*
X123966157Y-90389920D01*
X124058699Y-90371513D01*
X124145872Y-90335405D01*
X124224325Y-90282984D01*
X124291044Y-90216265D01*
X124343465Y-90137812D01*
X124379573Y-90050639D01*
X124397980Y-89958097D01*
X124397980Y-89863743D01*
X124379573Y-89771201D01*
X124343465Y-89684028D01*
X124291044Y-89605575D01*
X124224325Y-89538856D01*
X124145872Y-89486435D01*
X124058699Y-89450327D01*
X123966157Y-89431920D01*
X123871803Y-89431920D01*
X123779261Y-89450327D01*
X123692088Y-89486435D01*
X123613635Y-89538856D01*
X123546916Y-89605575D01*
X123494495Y-89684028D01*
X123458387Y-89771201D01*
X123439980Y-89863743D01*
X117626600Y-89863743D01*
X117626600Y-88756960D01*
X118277583Y-88756960D01*
X118213595Y-88799716D01*
X118213595Y-88799716D01*
G37*
X118213595Y-88799716D02*
X118146876Y-88866435D01*
X118094455Y-88944888D01*
X118058347Y-89032061D01*
X118039940Y-89124603D01*
X118039940Y-89218957D01*
X118058347Y-89311499D01*
X118094455Y-89398672D01*
X118146876Y-89477125D01*
X118213595Y-89543844D01*
X118292048Y-89596265D01*
X118379221Y-89632373D01*
X118471763Y-89650780D01*
X118566117Y-89650780D01*
X118658659Y-89632373D01*
X118745832Y-89596265D01*
X118824285Y-89543844D01*
X118891004Y-89477125D01*
X118943425Y-89398672D01*
X118979533Y-89311499D01*
X118997940Y-89218957D01*
X118997940Y-89124603D01*
X118979533Y-89032061D01*
X118943425Y-88944888D01*
X118891004Y-88866435D01*
X118824285Y-88799716D01*
X118760297Y-88756960D01*
X135626641Y-88756960D01*
X135626640Y-100534000D01*
X132388309Y-100534000D01*
X132408884Y-100513425D01*
X132461305Y-100434972D01*
X132497413Y-100347799D01*
X132515820Y-100255257D01*
X132515820Y-100160903D01*
X132497413Y-100068361D01*
X132461305Y-99981188D01*
X132408884Y-99902735D01*
X132373869Y-99867720D01*
X132434284Y-99807305D01*
X132486705Y-99728852D01*
X132522813Y-99641679D01*
X132541220Y-99549137D01*
X132541220Y-99454783D01*
X132522813Y-99362241D01*
X132486705Y-99275068D01*
X132434284Y-99196615D01*
X132367565Y-99129896D01*
X132289112Y-99077475D01*
X132201939Y-99041367D01*
X132109397Y-99022960D01*
X132015043Y-99022960D01*
X131922501Y-99041367D01*
X131835328Y-99077475D01*
X131756875Y-99129896D01*
X131690156Y-99196615D01*
X131637735Y-99275068D01*
X131601627Y-99362241D01*
X131583220Y-99454783D01*
X131583220Y-99549137D01*
X131601627Y-99641679D01*
X131637735Y-99728852D01*
X131690156Y-99807305D01*
X131725171Y-99842320D01*
X131664756Y-99902735D01*
X131612335Y-99981188D01*
X131576227Y-100068361D01*
X131557820Y-100160903D01*
X131557820Y-100255257D01*
X131576227Y-100347799D01*
X131612335Y-100434972D01*
X131664756Y-100513425D01*
X131685331Y-100534000D01*
X128598629Y-100534000D01*
X128664924Y-100467705D01*
X128717345Y-100389252D01*
X128753453Y-100302079D01*
X128771860Y-100209537D01*
X128771860Y-100115183D01*
X128753453Y-100022641D01*
X128717345Y-99935468D01*
X128664924Y-99857015D01*
X128636259Y-99828350D01*
X128667464Y-99797145D01*
X128719885Y-99718692D01*
X128755993Y-99631519D01*
X128774400Y-99538977D01*
X128774400Y-99444623D01*
X128755993Y-99352081D01*
X128719885Y-99264908D01*
X128667464Y-99186455D01*
X128600745Y-99119736D01*
X128522292Y-99067315D01*
X128435119Y-99031207D01*
X128342577Y-99012800D01*
X128248223Y-99012800D01*
X128155681Y-99031207D01*
X128068508Y-99067315D01*
X127990055Y-99119736D01*
X127923336Y-99186455D01*
X127870915Y-99264908D01*
X127834807Y-99352081D01*
X127816400Y-99444623D01*
X127816400Y-99538977D01*
X127834807Y-99631519D01*
X127870915Y-99718692D01*
X127923336Y-99797145D01*
X127952001Y-99825810D01*
X127920796Y-99857015D01*
X127868375Y-99935468D01*
X127832267Y-100022641D01*
X127813860Y-100115183D01*
X127813860Y-100209537D01*
X127832267Y-100302079D01*
X127868375Y-100389252D01*
X127920796Y-100467705D01*
X127987091Y-100534000D01*
X121472397Y-100534000D01*
X121491045Y-100506092D01*
X121527153Y-100418919D01*
X121545560Y-100326377D01*
X121545560Y-100232023D01*
X121527153Y-100139481D01*
X121496211Y-100064780D01*
X121499817Y-100064780D01*
X121592359Y-100046373D01*
X121679532Y-100010265D01*
X121757985Y-99957844D01*
X121824704Y-99891125D01*
X121827738Y-99886583D01*
X124763320Y-99886583D01*
X124763320Y-99980937D01*
X124781727Y-100073479D01*
X124817835Y-100160652D01*
X124870256Y-100239105D01*
X124936975Y-100305824D01*
X125015428Y-100358245D01*
X125102601Y-100394353D01*
X125195143Y-100412760D01*
X125289497Y-100412760D01*
X125382039Y-100394353D01*
X125469212Y-100358245D01*
X125547665Y-100305824D01*
X125614384Y-100239105D01*
X125666805Y-100160652D01*
X125702913Y-100073479D01*
X125721320Y-99980937D01*
X125721320Y-99886583D01*
X125702913Y-99794041D01*
X125666805Y-99706868D01*
X125614384Y-99628415D01*
X125547665Y-99561696D01*
X125469212Y-99509275D01*
X125382039Y-99473167D01*
X125289497Y-99454760D01*
X125195143Y-99454760D01*
X125102601Y-99473167D01*
X125015428Y-99509275D01*
X124936975Y-99561696D01*
X124870256Y-99628415D01*
X124817835Y-99706868D01*
X124781727Y-99794041D01*
X124763320Y-99886583D01*
X121827738Y-99886583D01*
X121877125Y-99812672D01*
X121913233Y-99725499D01*
X121931640Y-99632957D01*
X121931640Y-99538603D01*
X121913233Y-99446061D01*
X121877125Y-99358888D01*
X121824704Y-99280435D01*
X121757985Y-99213716D01*
X121679532Y-99161295D01*
X121592359Y-99125187D01*
X121499817Y-99106780D01*
X121405463Y-99106780D01*
X121312921Y-99125187D01*
X121225748Y-99161295D01*
X121147295Y-99213716D01*
X121080576Y-99280435D01*
X121028155Y-99358888D01*
X120992047Y-99446061D01*
X120973640Y-99538603D01*
X120973640Y-99632957D01*
X120992047Y-99725499D01*
X121022989Y-99800200D01*
X121019383Y-99800200D01*
X120926841Y-99818607D01*
X120839668Y-99854715D01*
X120761215Y-99907136D01*
X120694496Y-99973855D01*
X120642075Y-100052308D01*
X120605967Y-100139481D01*
X120587560Y-100232023D01*
X120587560Y-100326377D01*
X120605967Y-100418919D01*
X120642075Y-100506092D01*
X120660723Y-100534000D01*
X117626600Y-100534000D01*
X117626600Y-98799463D01*
X119510600Y-98799463D01*
X119510600Y-98893817D01*
X119529007Y-98986359D01*
X119565115Y-99073532D01*
X119617536Y-99151985D01*
X119684255Y-99218704D01*
X119762708Y-99271125D01*
X119849881Y-99307233D01*
X119942423Y-99325640D01*
X120036777Y-99325640D01*
X120129319Y-99307233D01*
X120216492Y-99271125D01*
X120294945Y-99218704D01*
X120361664Y-99151985D01*
X120414085Y-99073532D01*
X120450193Y-98986359D01*
X120468600Y-98893817D01*
X120468600Y-98799463D01*
X120450193Y-98706921D01*
X120414085Y-98619748D01*
X120361664Y-98541295D01*
X120294945Y-98474576D01*
X120264186Y-98454023D01*
X122101400Y-98454023D01*
X122101400Y-98548377D01*
X122119807Y-98640919D01*
X122155915Y-98728092D01*
X122208336Y-98806545D01*
X122275055Y-98873264D01*
X122353508Y-98925685D01*
X122440681Y-98961793D01*
X122533223Y-98980200D01*
X122627577Y-98980200D01*
X122720119Y-98961793D01*
X122807292Y-98925685D01*
X122885745Y-98873264D01*
X122952464Y-98806545D01*
X123004885Y-98728092D01*
X123040993Y-98640919D01*
X123059400Y-98548377D01*
X123059400Y-98510300D01*
X123087317Y-98510300D01*
X123178702Y-98492123D01*
X124786180Y-98492123D01*
X124786180Y-98586477D01*
X124804587Y-98679019D01*
X124840695Y-98766192D01*
X124893116Y-98844645D01*
X124959835Y-98911364D01*
X125038288Y-98963785D01*
X125125461Y-98999893D01*
X125218003Y-99018300D01*
X125312357Y-99018300D01*
X125404899Y-98999893D01*
X125492072Y-98963785D01*
X125570525Y-98911364D01*
X125637244Y-98844645D01*
X125663539Y-98805293D01*
X125688136Y-98842105D01*
X125754855Y-98908824D01*
X125833308Y-98961245D01*
X125920481Y-98997353D01*
X126013023Y-99015760D01*
X126107377Y-99015760D01*
X126199919Y-98997353D01*
X126287092Y-98961245D01*
X126365545Y-98908824D01*
X126432264Y-98842105D01*
X126459734Y-98800994D01*
X126486171Y-98840560D01*
X126552890Y-98907279D01*
X126631343Y-98959700D01*
X126635060Y-98961240D01*
X126565115Y-99007976D01*
X126498396Y-99074695D01*
X126445975Y-99153148D01*
X126409867Y-99240321D01*
X126391460Y-99332863D01*
X126391460Y-99427217D01*
X126409867Y-99519759D01*
X126445975Y-99606932D01*
X126498396Y-99685385D01*
X126565115Y-99752104D01*
X126643568Y-99804525D01*
X126730741Y-99840633D01*
X126823283Y-99859040D01*
X126917637Y-99859040D01*
X127010179Y-99840633D01*
X127097352Y-99804525D01*
X127175805Y-99752104D01*
X127242524Y-99685385D01*
X127294945Y-99606932D01*
X127331053Y-99519759D01*
X127349460Y-99427217D01*
X127349460Y-99332863D01*
X127331053Y-99240321D01*
X127294945Y-99153148D01*
X127242524Y-99074695D01*
X127175805Y-99007976D01*
X127097352Y-98955555D01*
X127093635Y-98954015D01*
X127163580Y-98907279D01*
X127230299Y-98840560D01*
X127282720Y-98762107D01*
X127318828Y-98674934D01*
X127337235Y-98582392D01*
X127337235Y-98489583D01*
X127984040Y-98489583D01*
X127984040Y-98583937D01*
X128002447Y-98676479D01*
X128038555Y-98763652D01*
X128090976Y-98842105D01*
X128157695Y-98908824D01*
X128236148Y-98961245D01*
X128323321Y-98997353D01*
X128415863Y-99015760D01*
X128510217Y-99015760D01*
X128602759Y-98997353D01*
X128689932Y-98961245D01*
X128768385Y-98908824D01*
X128835104Y-98842105D01*
X128887525Y-98763652D01*
X128923633Y-98676479D01*
X128942040Y-98583937D01*
X128942040Y-98489583D01*
X129584240Y-98489583D01*
X129584240Y-98583937D01*
X129602647Y-98676479D01*
X129638755Y-98763652D01*
X129691176Y-98842105D01*
X129757895Y-98908824D01*
X129836348Y-98961245D01*
X129923521Y-98997353D01*
X130016063Y-99015760D01*
X130110417Y-99015760D01*
X130202959Y-98997353D01*
X130290132Y-98961245D01*
X130368585Y-98908824D01*
X130435304Y-98842105D01*
X130463565Y-98799810D01*
X130491945Y-98842283D01*
X130558664Y-98909002D01*
X130637117Y-98961423D01*
X130724290Y-98997531D01*
X130816832Y-99015938D01*
X130911186Y-99015938D01*
X131003728Y-98997531D01*
X131090901Y-98961423D01*
X131169354Y-98909002D01*
X131236073Y-98842283D01*
X131255798Y-98812762D01*
X131286296Y-98858405D01*
X131353015Y-98925124D01*
X131431468Y-98977545D01*
X131518641Y-99013653D01*
X131611183Y-99032060D01*
X131705537Y-99032060D01*
X131798079Y-99013653D01*
X131885252Y-98977545D01*
X131963705Y-98925124D01*
X132030424Y-98858405D01*
X132082845Y-98779952D01*
X132118953Y-98692779D01*
X132137360Y-98600237D01*
X132137360Y-98505883D01*
X132118953Y-98413341D01*
X132092669Y-98349883D01*
X132136940Y-98349883D01*
X132136940Y-98444237D01*
X132155347Y-98536779D01*
X132191455Y-98623952D01*
X132243876Y-98702405D01*
X132310595Y-98769124D01*
X132389048Y-98821545D01*
X132476221Y-98857653D01*
X132568763Y-98876060D01*
X132663117Y-98876060D01*
X132755659Y-98857653D01*
X132842832Y-98821545D01*
X132911850Y-98775428D01*
X132980868Y-98821545D01*
X133068041Y-98857653D01*
X133160583Y-98876060D01*
X133254937Y-98876060D01*
X133347479Y-98857653D01*
X133434652Y-98821545D01*
X133497320Y-98779671D01*
X133559988Y-98821545D01*
X133647161Y-98857653D01*
X133739703Y-98876060D01*
X133834057Y-98876060D01*
X133926599Y-98857653D01*
X134013772Y-98821545D01*
X134092225Y-98769124D01*
X134158944Y-98702405D01*
X134211365Y-98623952D01*
X134247473Y-98536779D01*
X134265880Y-98444237D01*
X134265880Y-98349883D01*
X134247473Y-98257341D01*
X134211365Y-98170168D01*
X134158944Y-98091715D01*
X134092225Y-98024996D01*
X134013772Y-97972575D01*
X133926599Y-97936467D01*
X133834057Y-97918060D01*
X133739703Y-97918060D01*
X133647161Y-97936467D01*
X133559988Y-97972575D01*
X133497320Y-98014449D01*
X133434652Y-97972575D01*
X133347479Y-97936467D01*
X133254937Y-97918060D01*
X133160583Y-97918060D01*
X133068041Y-97936467D01*
X132980868Y-97972575D01*
X132911850Y-98018692D01*
X132842832Y-97972575D01*
X132755659Y-97936467D01*
X132663117Y-97918060D01*
X132568763Y-97918060D01*
X132476221Y-97936467D01*
X132389048Y-97972575D01*
X132310595Y-98024996D01*
X132243876Y-98091715D01*
X132191455Y-98170168D01*
X132155347Y-98257341D01*
X132136940Y-98349883D01*
X132092669Y-98349883D01*
X132082845Y-98326168D01*
X132030424Y-98247715D01*
X131963705Y-98180996D01*
X131921505Y-98152799D01*
X131966245Y-98122904D01*
X132032964Y-98056185D01*
X132085385Y-97977732D01*
X132121493Y-97890559D01*
X132139900Y-97798017D01*
X132139900Y-97703663D01*
X132121493Y-97611121D01*
X132085385Y-97523948D01*
X132032964Y-97445495D01*
X131966245Y-97378776D01*
X131915272Y-97344717D01*
X131969919Y-97308203D01*
X132036638Y-97241484D01*
X132089059Y-97163031D01*
X132125167Y-97075858D01*
X132143574Y-96983316D01*
X132143574Y-96888962D01*
X132125167Y-96796420D01*
X132089059Y-96709247D01*
X132036638Y-96630794D01*
X131969919Y-96564075D01*
X131929684Y-96537191D01*
X131968785Y-96511064D01*
X132035504Y-96444345D01*
X132087925Y-96365892D01*
X132124033Y-96278719D01*
X132139483Y-96201043D01*
X132840520Y-96201043D01*
X132840520Y-96295397D01*
X132858927Y-96387939D01*
X132895035Y-96475112D01*
X132947456Y-96553565D01*
X133014175Y-96620284D01*
X133092628Y-96672705D01*
X133179801Y-96708813D01*
X133272343Y-96727220D01*
X133366697Y-96727220D01*
X133459239Y-96708813D01*
X133546412Y-96672705D01*
X133624865Y-96620284D01*
X133691584Y-96553565D01*
X133744005Y-96475112D01*
X133780113Y-96387939D01*
X133798520Y-96295397D01*
X133798520Y-96201043D01*
X133780113Y-96108501D01*
X133744005Y-96021328D01*
X133691584Y-95942875D01*
X133624865Y-95876156D01*
X133546412Y-95823735D01*
X133459239Y-95787627D01*
X133366697Y-95769220D01*
X133272343Y-95769220D01*
X133179801Y-95787627D01*
X133092628Y-95823735D01*
X133014175Y-95876156D01*
X132947456Y-95942875D01*
X132895035Y-96021328D01*
X132858927Y-96108501D01*
X132840520Y-96201043D01*
X132139483Y-96201043D01*
X132142440Y-96186177D01*
X132142440Y-96091823D01*
X132124033Y-95999281D01*
X132087925Y-95912108D01*
X132035504Y-95833655D01*
X131968785Y-95766936D01*
X131890332Y-95714515D01*
X131803159Y-95678407D01*
X131710617Y-95660000D01*
X131616263Y-95660000D01*
X131523721Y-95678407D01*
X131436548Y-95714515D01*
X131358095Y-95766936D01*
X131291376Y-95833655D01*
X131238955Y-95912108D01*
X131202847Y-95999281D01*
X131184440Y-96091823D01*
X131184440Y-96186177D01*
X131202847Y-96278719D01*
X131238955Y-96365892D01*
X131291376Y-96444345D01*
X131358095Y-96511064D01*
X131398330Y-96537948D01*
X131359229Y-96564075D01*
X131292510Y-96630794D01*
X131240089Y-96709247D01*
X131203981Y-96796420D01*
X131185574Y-96888962D01*
X131185574Y-96983316D01*
X131203981Y-97075858D01*
X131240089Y-97163031D01*
X131292510Y-97241484D01*
X131359229Y-97308203D01*
X131410202Y-97342262D01*
X131355555Y-97378776D01*
X131288836Y-97445495D01*
X131236415Y-97523948D01*
X131200307Y-97611121D01*
X131181900Y-97703663D01*
X131181900Y-97798017D01*
X131200307Y-97890559D01*
X131236415Y-97977732D01*
X131288836Y-98056185D01*
X131355555Y-98122904D01*
X131397755Y-98151101D01*
X131353015Y-98180996D01*
X131286296Y-98247715D01*
X131266571Y-98277236D01*
X131236073Y-98231593D01*
X131169354Y-98164874D01*
X131090901Y-98112453D01*
X131003728Y-98076345D01*
X130911186Y-98057938D01*
X130816832Y-98057938D01*
X130724290Y-98076345D01*
X130637117Y-98112453D01*
X130558664Y-98164874D01*
X130491945Y-98231593D01*
X130463684Y-98273888D01*
X130435304Y-98231415D01*
X130368585Y-98164696D01*
X130290132Y-98112275D01*
X130202959Y-98076167D01*
X130110417Y-98057760D01*
X130016063Y-98057760D01*
X129923521Y-98076167D01*
X129836348Y-98112275D01*
X129757895Y-98164696D01*
X129691176Y-98231415D01*
X129638755Y-98309868D01*
X129602647Y-98397041D01*
X129584240Y-98489583D01*
X128942040Y-98489583D01*
X128923633Y-98397041D01*
X128887525Y-98309868D01*
X128835104Y-98231415D01*
X128768385Y-98164696D01*
X128689932Y-98112275D01*
X128602759Y-98076167D01*
X128510217Y-98057760D01*
X128415863Y-98057760D01*
X128323321Y-98076167D01*
X128236148Y-98112275D01*
X128157695Y-98164696D01*
X128090976Y-98231415D01*
X128038555Y-98309868D01*
X128002447Y-98397041D01*
X127984040Y-98489583D01*
X127337235Y-98489583D01*
X127337235Y-98488038D01*
X127318828Y-98395496D01*
X127282720Y-98308323D01*
X127230299Y-98229870D01*
X127163580Y-98163151D01*
X127128678Y-98139830D01*
X127153995Y-98122914D01*
X127220714Y-98056195D01*
X127251458Y-98010183D01*
X127282196Y-98056185D01*
X127348915Y-98122904D01*
X127427368Y-98175325D01*
X127514541Y-98211433D01*
X127607083Y-98229840D01*
X127701437Y-98229840D01*
X127793979Y-98211433D01*
X127881152Y-98175325D01*
X127959605Y-98122904D01*
X128026324Y-98056185D01*
X128078745Y-97977732D01*
X128114853Y-97890559D01*
X128133260Y-97798017D01*
X128133260Y-97703663D01*
X128114853Y-97611121D01*
X128078745Y-97523948D01*
X128026324Y-97445495D01*
X127959605Y-97378776D01*
X127881152Y-97326355D01*
X127793979Y-97290247D01*
X127701437Y-97271840D01*
X127607083Y-97271840D01*
X127514541Y-97290247D01*
X127427368Y-97326355D01*
X127348915Y-97378776D01*
X127282196Y-97445495D01*
X127251452Y-97491507D01*
X127220714Y-97445505D01*
X127153995Y-97378786D01*
X127075542Y-97326365D01*
X126988369Y-97290257D01*
X126895827Y-97271850D01*
X126801473Y-97271850D01*
X126708931Y-97290257D01*
X126621758Y-97326365D01*
X126543305Y-97378786D01*
X126476586Y-97445505D01*
X126456620Y-97475386D01*
X126432264Y-97438935D01*
X126365545Y-97372216D01*
X126287092Y-97319795D01*
X126199919Y-97283687D01*
X126107377Y-97265280D01*
X126013023Y-97265280D01*
X125920481Y-97283687D01*
X125833308Y-97319795D01*
X125754855Y-97372216D01*
X125688136Y-97438935D01*
X125635715Y-97517388D01*
X125599607Y-97604561D01*
X125581200Y-97697103D01*
X125581200Y-97791457D01*
X125599607Y-97883999D01*
X125635715Y-97971172D01*
X125688136Y-98049625D01*
X125754855Y-98116344D01*
X125791037Y-98140520D01*
X125754855Y-98164696D01*
X125688136Y-98231415D01*
X125661841Y-98270767D01*
X125637244Y-98233955D01*
X125570525Y-98167236D01*
X125492072Y-98114815D01*
X125404899Y-98078707D01*
X125312357Y-98060300D01*
X125218003Y-98060300D01*
X125125461Y-98078707D01*
X125038288Y-98114815D01*
X124959835Y-98167236D01*
X124893116Y-98233955D01*
X124840695Y-98312408D01*
X124804587Y-98399581D01*
X124786180Y-98492123D01*
X123178702Y-98492123D01*
X123179859Y-98491893D01*
X123267032Y-98455785D01*
X123345485Y-98403364D01*
X123412204Y-98336645D01*
X123464625Y-98258192D01*
X123500733Y-98171019D01*
X123519140Y-98078477D01*
X123519140Y-97984123D01*
X123500733Y-97891581D01*
X123464625Y-97804408D01*
X123412204Y-97725955D01*
X123345485Y-97659236D01*
X123267032Y-97606815D01*
X123179859Y-97570707D01*
X123087317Y-97552300D01*
X122992963Y-97552300D01*
X122900421Y-97570707D01*
X122813248Y-97606815D01*
X122734795Y-97659236D01*
X122668076Y-97725955D01*
X122615655Y-97804408D01*
X122579547Y-97891581D01*
X122561140Y-97984123D01*
X122561140Y-98022200D01*
X122533223Y-98022200D01*
X122440681Y-98040607D01*
X122353508Y-98076715D01*
X122275055Y-98129136D01*
X122208336Y-98195855D01*
X122155915Y-98274308D01*
X122119807Y-98361481D01*
X122101400Y-98454023D01*
X120264186Y-98454023D01*
X120216492Y-98422155D01*
X120129319Y-98386047D01*
X120036777Y-98367640D01*
X119942423Y-98367640D01*
X119849881Y-98386047D01*
X119762708Y-98422155D01*
X119684255Y-98474576D01*
X119617536Y-98541295D01*
X119565115Y-98619748D01*
X119529007Y-98706921D01*
X119510600Y-98799463D01*
X117626600Y-98799463D01*
X117626600Y-97412623D01*
X120331020Y-97412623D01*
X120331020Y-97506977D01*
X120349427Y-97599519D01*
X120385535Y-97686692D01*
X120437956Y-97765145D01*
X120504675Y-97831864D01*
X120583128Y-97884285D01*
X120670301Y-97920393D01*
X120762843Y-97938800D01*
X120857197Y-97938800D01*
X120949739Y-97920393D01*
X121036912Y-97884285D01*
X121115365Y-97831864D01*
X121182084Y-97765145D01*
X121234505Y-97686692D01*
X121270613Y-97599519D01*
X121289020Y-97506977D01*
X121289020Y-97412623D01*
X121270613Y-97320081D01*
X121234505Y-97232908D01*
X121182084Y-97154455D01*
X121115365Y-97087736D01*
X121036912Y-97035315D01*
X120949739Y-96999207D01*
X120857197Y-96980800D01*
X120762843Y-96980800D01*
X120670301Y-96999207D01*
X120583128Y-97035315D01*
X120504675Y-97087736D01*
X120437956Y-97154455D01*
X120385535Y-97232908D01*
X120349427Y-97320081D01*
X120331020Y-97412623D01*
X117626600Y-97412623D01*
X117626600Y-96602363D01*
X119350580Y-96602363D01*
X119350580Y-96696717D01*
X119368987Y-96789259D01*
X119405095Y-96876432D01*
X119457516Y-96954885D01*
X119524235Y-97021604D01*
X119602688Y-97074025D01*
X119689861Y-97110133D01*
X119782403Y-97128540D01*
X119876757Y-97128540D01*
X119969299Y-97110133D01*
X120056472Y-97074025D01*
X120134925Y-97021604D01*
X120201644Y-96954885D01*
X120254065Y-96876432D01*
X120290173Y-96789259D01*
X120308580Y-96696717D01*
X120308580Y-96602363D01*
X120290173Y-96509821D01*
X120254065Y-96422648D01*
X120220751Y-96372790D01*
X122863203Y-96372790D01*
X122863203Y-96467144D01*
X122881610Y-96559686D01*
X122917718Y-96646859D01*
X122970139Y-96725312D01*
X123036858Y-96792031D01*
X123115311Y-96844452D01*
X123165402Y-96865200D01*
X123163118Y-96876683D01*
X123163118Y-96971037D01*
X123181525Y-97063579D01*
X123217633Y-97150752D01*
X123270054Y-97229205D01*
X123336773Y-97295924D01*
X123415226Y-97348345D01*
X123502399Y-97384453D01*
X123594941Y-97402860D01*
X123689295Y-97402860D01*
X123781837Y-97384453D01*
X123869010Y-97348345D01*
X123947463Y-97295924D01*
X124014182Y-97229205D01*
X124066603Y-97150752D01*
X124102711Y-97063579D01*
X124121118Y-96971037D01*
X124121118Y-96889383D01*
X128786680Y-96889383D01*
X128786680Y-96983737D01*
X128805087Y-97076279D01*
X128841195Y-97163452D01*
X128893616Y-97241905D01*
X128960335Y-97308624D01*
X129026800Y-97353035D01*
X128988275Y-97378776D01*
X128921556Y-97445495D01*
X128869135Y-97523948D01*
X128833027Y-97611121D01*
X128814620Y-97703663D01*
X128814620Y-97798017D01*
X128833027Y-97890559D01*
X128869135Y-97977732D01*
X128921556Y-98056185D01*
X128988275Y-98122904D01*
X129066728Y-98175325D01*
X129153901Y-98211433D01*
X129246443Y-98229840D01*
X129340797Y-98229840D01*
X129433339Y-98211433D01*
X129520512Y-98175325D01*
X129598965Y-98122904D01*
X129665684Y-98056185D01*
X129718105Y-97977732D01*
X129754213Y-97890559D01*
X129772620Y-97798017D01*
X129772620Y-97703663D01*
X129754213Y-97611121D01*
X129718105Y-97523948D01*
X129665684Y-97445495D01*
X129598965Y-97378776D01*
X129532500Y-97334365D01*
X129571025Y-97308624D01*
X129637744Y-97241905D01*
X129662341Y-97205093D01*
X129688636Y-97244445D01*
X129755355Y-97311164D01*
X129833808Y-97363585D01*
X129920981Y-97399693D01*
X130013523Y-97418100D01*
X130107877Y-97418100D01*
X130200419Y-97399693D01*
X130287592Y-97363585D01*
X130366045Y-97311164D01*
X130432764Y-97244445D01*
X130485185Y-97165992D01*
X130521293Y-97078819D01*
X130539700Y-96986277D01*
X130539700Y-96891923D01*
X130521293Y-96799381D01*
X130485185Y-96712208D01*
X130432764Y-96633755D01*
X130366045Y-96567036D01*
X130314820Y-96532809D01*
X130368585Y-96496884D01*
X130435304Y-96430165D01*
X130487725Y-96351712D01*
X130523833Y-96264539D01*
X130542240Y-96171997D01*
X130542240Y-96077643D01*
X130523833Y-95985101D01*
X130487725Y-95897928D01*
X130435304Y-95819475D01*
X130368585Y-95752756D01*
X130290132Y-95700335D01*
X130202959Y-95664227D01*
X130110417Y-95645820D01*
X130016063Y-95645820D01*
X129923521Y-95664227D01*
X129836348Y-95700335D01*
X129757895Y-95752756D01*
X129691176Y-95819475D01*
X129638755Y-95897928D01*
X129602647Y-95985101D01*
X129584240Y-96077643D01*
X129584240Y-96171997D01*
X129602647Y-96264539D01*
X129638755Y-96351712D01*
X129691176Y-96430165D01*
X129757895Y-96496884D01*
X129809120Y-96531111D01*
X129755355Y-96567036D01*
X129688636Y-96633755D01*
X129664039Y-96670567D01*
X129637744Y-96631215D01*
X129571025Y-96564496D01*
X129492572Y-96512075D01*
X129405399Y-96475967D01*
X129312857Y-96457560D01*
X129218503Y-96457560D01*
X129125961Y-96475967D01*
X129038788Y-96512075D01*
X128960335Y-96564496D01*
X128893616Y-96631215D01*
X128841195Y-96709668D01*
X128805087Y-96796841D01*
X128786680Y-96889383D01*
X124121118Y-96889383D01*
X124121118Y-96876683D01*
X124102711Y-96784141D01*
X124066603Y-96696968D01*
X124014182Y-96618515D01*
X123947463Y-96551796D01*
X123869010Y-96499375D01*
X123818919Y-96478627D01*
X123821203Y-96467144D01*
X123821203Y-96372790D01*
X123802796Y-96280248D01*
X123766688Y-96193075D01*
X123714267Y-96114622D01*
X123647548Y-96047903D01*
X123569095Y-95995482D01*
X123481922Y-95959374D01*
X123389380Y-95940967D01*
X123295026Y-95940967D01*
X123202484Y-95959374D01*
X123115311Y-95995482D01*
X123036858Y-96047903D01*
X122970139Y-96114622D01*
X122917718Y-96193075D01*
X122881610Y-96280248D01*
X122863203Y-96372790D01*
X120220751Y-96372790D01*
X120201644Y-96344195D01*
X120134925Y-96277476D01*
X120056472Y-96225055D01*
X119969299Y-96188947D01*
X119876757Y-96170540D01*
X119782403Y-96170540D01*
X119689861Y-96188947D01*
X119602688Y-96225055D01*
X119524235Y-96277476D01*
X119457516Y-96344195D01*
X119405095Y-96422648D01*
X119368987Y-96509821D01*
X119350580Y-96602363D01*
X117626600Y-96602363D01*
X117626600Y-95941137D01*
X117672288Y-95971665D01*
X117759461Y-96007773D01*
X117852003Y-96026180D01*
X117946357Y-96026180D01*
X118038899Y-96007773D01*
X118126072Y-95971665D01*
X118204525Y-95919244D01*
X118271244Y-95852525D01*
X118323665Y-95774072D01*
X118359773Y-95686899D01*
X118378180Y-95594357D01*
X118378180Y-95500003D01*
X118359773Y-95407461D01*
X118323665Y-95320288D01*
X118271244Y-95241835D01*
X118258949Y-95229540D01*
X123857722Y-95229540D01*
X123857722Y-95323894D01*
X123876129Y-95416436D01*
X123912237Y-95503609D01*
X123964658Y-95582062D01*
X124031377Y-95648781D01*
X124109830Y-95701202D01*
X124197003Y-95737310D01*
X124289545Y-95755717D01*
X124383899Y-95755717D01*
X124476441Y-95737310D01*
X124563614Y-95701202D01*
X124642067Y-95648781D01*
X124708786Y-95582062D01*
X124761207Y-95503609D01*
X124787619Y-95439845D01*
X124799507Y-95499614D01*
X124835615Y-95586787D01*
X124888036Y-95665240D01*
X124954755Y-95731959D01*
X125033208Y-95784380D01*
X125120381Y-95820488D01*
X125212923Y-95838895D01*
X125307277Y-95838895D01*
X125399819Y-95820488D01*
X125486992Y-95784380D01*
X125565445Y-95731959D01*
X125632164Y-95665240D01*
X125669704Y-95609057D01*
X125693216Y-95644245D01*
X125759935Y-95710964D01*
X125838388Y-95763385D01*
X125925561Y-95799493D01*
X126018103Y-95817900D01*
X126112457Y-95817900D01*
X126204999Y-95799493D01*
X126292172Y-95763385D01*
X126370625Y-95710964D01*
X126437344Y-95644245D01*
X126489765Y-95565792D01*
X126525873Y-95478619D01*
X126544280Y-95386077D01*
X126544280Y-95306775D01*
X127183940Y-95306775D01*
X127183940Y-95401129D01*
X127202347Y-95493671D01*
X127238455Y-95580844D01*
X127290876Y-95659297D01*
X127357595Y-95726016D01*
X127436048Y-95778437D01*
X127523221Y-95814545D01*
X127615763Y-95832952D01*
X127710117Y-95832952D01*
X127802659Y-95814545D01*
X127889832Y-95778437D01*
X127968285Y-95726016D01*
X128035004Y-95659297D01*
X128065530Y-95613612D01*
X128096056Y-95659297D01*
X128162775Y-95726016D01*
X128241228Y-95778437D01*
X128328401Y-95814545D01*
X128420943Y-95832952D01*
X128515297Y-95832952D01*
X128607839Y-95814545D01*
X128695012Y-95778437D01*
X128773465Y-95726016D01*
X128840184Y-95659297D01*
X128866750Y-95619538D01*
X128893316Y-95659297D01*
X128960035Y-95726016D01*
X129038488Y-95778437D01*
X129125661Y-95814545D01*
X129218203Y-95832952D01*
X129312557Y-95832952D01*
X129405099Y-95814545D01*
X129492272Y-95778437D01*
X129570725Y-95726016D01*
X129637444Y-95659297D01*
X129689865Y-95580844D01*
X129725973Y-95493671D01*
X129744380Y-95401129D01*
X129744380Y-95306775D01*
X129725973Y-95214233D01*
X129689865Y-95127060D01*
X129637444Y-95048607D01*
X129570725Y-94981888D01*
X129513498Y-94943650D01*
X129554963Y-94915944D01*
X129621682Y-94849225D01*
X129674103Y-94770772D01*
X129695040Y-94720223D01*
X133379000Y-94720223D01*
X133379000Y-94814577D01*
X133397407Y-94907119D01*
X133433515Y-94994292D01*
X133485936Y-95072745D01*
X133552655Y-95139464D01*
X133631108Y-95191885D01*
X133708305Y-95223861D01*
X133688017Y-95272841D01*
X133669610Y-95365383D01*
X133669610Y-95459737D01*
X133688017Y-95552279D01*
X133724125Y-95639452D01*
X133776546Y-95717905D01*
X133843265Y-95784624D01*
X133921718Y-95837045D01*
X134008891Y-95873153D01*
X134101433Y-95891560D01*
X134195787Y-95891560D01*
X134288329Y-95873153D01*
X134375502Y-95837045D01*
X134453955Y-95784624D01*
X134520674Y-95717905D01*
X134573095Y-95639452D01*
X134609203Y-95552279D01*
X134627610Y-95459737D01*
X134627610Y-95365383D01*
X134609203Y-95272841D01*
X134573095Y-95185668D01*
X134520674Y-95107215D01*
X134453955Y-95040496D01*
X134375502Y-94988075D01*
X134298305Y-94956099D01*
X134318593Y-94907119D01*
X134337000Y-94814577D01*
X134337000Y-94720223D01*
X134318593Y-94627681D01*
X134282485Y-94540508D01*
X134230064Y-94462055D01*
X134163345Y-94395336D01*
X134084892Y-94342915D01*
X133997719Y-94306807D01*
X133905177Y-94288400D01*
X133810823Y-94288400D01*
X133718281Y-94306807D01*
X133631108Y-94342915D01*
X133552655Y-94395336D01*
X133485936Y-94462055D01*
X133433515Y-94540508D01*
X133397407Y-94627681D01*
X133379000Y-94720223D01*
X129695040Y-94720223D01*
X129710211Y-94683599D01*
X129728618Y-94591057D01*
X129728618Y-94496703D01*
X129710211Y-94404161D01*
X129674103Y-94316988D01*
X129621682Y-94238535D01*
X129554963Y-94171816D01*
X129514293Y-94144641D01*
X129567208Y-94109284D01*
X129633927Y-94042565D01*
X129686348Y-93964112D01*
X129722456Y-93876939D01*
X129740863Y-93784397D01*
X129740863Y-93690043D01*
X129740356Y-93687493D01*
X130393440Y-93687493D01*
X130393440Y-93781847D01*
X130411847Y-93874389D01*
X130447955Y-93961562D01*
X130500376Y-94040015D01*
X130567095Y-94106734D01*
X130645548Y-94159155D01*
X130732721Y-94195263D01*
X130825263Y-94213670D01*
X130919617Y-94213670D01*
X131012159Y-94195263D01*
X131099332Y-94159155D01*
X131177785Y-94106734D01*
X131244504Y-94040015D01*
X131296925Y-93961562D01*
X131333033Y-93874389D01*
X131351440Y-93781847D01*
X131351440Y-93687493D01*
X131333033Y-93594951D01*
X131296925Y-93507778D01*
X131244504Y-93429325D01*
X131177785Y-93362606D01*
X131099332Y-93310185D01*
X131012159Y-93274077D01*
X130919617Y-93255670D01*
X130825263Y-93255670D01*
X130732721Y-93274077D01*
X130645548Y-93310185D01*
X130567095Y-93362606D01*
X130500376Y-93429325D01*
X130447955Y-93507778D01*
X130411847Y-93594951D01*
X130393440Y-93687493D01*
X129740356Y-93687493D01*
X129722456Y-93597501D01*
X129686348Y-93510328D01*
X129633927Y-93431875D01*
X129567208Y-93365156D01*
X129488755Y-93312735D01*
X129401582Y-93276627D01*
X129309040Y-93258220D01*
X129214686Y-93258220D01*
X129122144Y-93276627D01*
X129034971Y-93312735D01*
X128956518Y-93365156D01*
X128889799Y-93431875D01*
X128837378Y-93510328D01*
X128801270Y-93597501D01*
X128782863Y-93690043D01*
X128782863Y-93784397D01*
X128801270Y-93876939D01*
X128837378Y-93964112D01*
X128889799Y-94042565D01*
X128956518Y-94109284D01*
X128997188Y-94136459D01*
X128944273Y-94171816D01*
X128877554Y-94238535D01*
X128856539Y-94269986D01*
X128835104Y-94237906D01*
X128768385Y-94171187D01*
X128689932Y-94118766D01*
X128602759Y-94082658D01*
X128510217Y-94064251D01*
X128415863Y-94064251D01*
X128323321Y-94082658D01*
X128236148Y-94118766D01*
X128157695Y-94171187D01*
X128090976Y-94237906D01*
X128038555Y-94316359D01*
X128002447Y-94403532D01*
X127984040Y-94496074D01*
X127984040Y-94590428D01*
X128002447Y-94682970D01*
X128038555Y-94770143D01*
X128090976Y-94848596D01*
X128157695Y-94915315D01*
X128210051Y-94950299D01*
X128162775Y-94981888D01*
X128096056Y-95048607D01*
X128065530Y-95094292D01*
X128035004Y-95048607D01*
X127968285Y-94981888D01*
X127889832Y-94929467D01*
X127802659Y-94893359D01*
X127710117Y-94874952D01*
X127615763Y-94874952D01*
X127523221Y-94893359D01*
X127436048Y-94929467D01*
X127357595Y-94981888D01*
X127290876Y-95048607D01*
X127238455Y-95127060D01*
X127202347Y-95214233D01*
X127183940Y-95306775D01*
X126544280Y-95306775D01*
X126544280Y-95291723D01*
X126525873Y-95199181D01*
X126489765Y-95112008D01*
X126437344Y-95033555D01*
X126370625Y-94966836D01*
X126341597Y-94947440D01*
X126373165Y-94926347D01*
X126439884Y-94859628D01*
X126468585Y-94816674D01*
X126493316Y-94853686D01*
X126560035Y-94920405D01*
X126638488Y-94972826D01*
X126725661Y-95008934D01*
X126818203Y-95027341D01*
X126912557Y-95027341D01*
X127005099Y-95008934D01*
X127092272Y-94972826D01*
X127170725Y-94920405D01*
X127237444Y-94853686D01*
X127289865Y-94775233D01*
X127325973Y-94688060D01*
X127344380Y-94595518D01*
X127344380Y-94501164D01*
X127325973Y-94408622D01*
X127289865Y-94321449D01*
X127237444Y-94242996D01*
X127170725Y-94176277D01*
X127119016Y-94141726D01*
X127159322Y-94114794D01*
X127226041Y-94048075D01*
X127278462Y-93969622D01*
X127314570Y-93882449D01*
X127332977Y-93789907D01*
X127332977Y-93695553D01*
X127314570Y-93603011D01*
X127278462Y-93515838D01*
X127226041Y-93437385D01*
X127159322Y-93370666D01*
X127117747Y-93342886D01*
X127168185Y-93309184D01*
X127234904Y-93242465D01*
X127264584Y-93198046D01*
X127290876Y-93237394D01*
X127357595Y-93304113D01*
X127436048Y-93356534D01*
X127523221Y-93392642D01*
X127615763Y-93411049D01*
X127710117Y-93411049D01*
X127802659Y-93392642D01*
X127889832Y-93356534D01*
X127968285Y-93304113D01*
X128035004Y-93237394D01*
X128087425Y-93158941D01*
X128123533Y-93071768D01*
X128141940Y-92979226D01*
X128141940Y-92884872D01*
X128123533Y-92792330D01*
X128087425Y-92705157D01*
X128035004Y-92626704D01*
X127968285Y-92559985D01*
X127889832Y-92507564D01*
X127802659Y-92471456D01*
X127710117Y-92453049D01*
X127615763Y-92453049D01*
X127523221Y-92471456D01*
X127436048Y-92507564D01*
X127357595Y-92559985D01*
X127290876Y-92626704D01*
X127261196Y-92671123D01*
X127234904Y-92631775D01*
X127168185Y-92565056D01*
X127089732Y-92512635D01*
X127002559Y-92476527D01*
X126910017Y-92458120D01*
X126815663Y-92458120D01*
X126723121Y-92476527D01*
X126635948Y-92512635D01*
X126557495Y-92565056D01*
X126490776Y-92631775D01*
X126438355Y-92710228D01*
X126402247Y-92797401D01*
X126383840Y-92889943D01*
X126383840Y-92984297D01*
X126402247Y-93076839D01*
X126438355Y-93164012D01*
X126490776Y-93242465D01*
X126557495Y-93309184D01*
X126599070Y-93336964D01*
X126548632Y-93370666D01*
X126481913Y-93437385D01*
X126459769Y-93470525D01*
X126437344Y-93436964D01*
X126370625Y-93370245D01*
X126292172Y-93317824D01*
X126204999Y-93281716D01*
X126112457Y-93263309D01*
X126018103Y-93263309D01*
X125925561Y-93281716D01*
X125838388Y-93317824D01*
X125759935Y-93370245D01*
X125693216Y-93436964D01*
X125663104Y-93482029D01*
X125637244Y-93443327D01*
X125570525Y-93376608D01*
X125524517Y-93345866D01*
X125570525Y-93315125D01*
X125637244Y-93248406D01*
X125689665Y-93169953D01*
X125725773Y-93082780D01*
X125744180Y-92990238D01*
X125744180Y-92895884D01*
X125725773Y-92803342D01*
X125689665Y-92716169D01*
X125637244Y-92637716D01*
X125570525Y-92570997D01*
X125519967Y-92537215D01*
X125561425Y-92509514D01*
X125628144Y-92442795D01*
X125662247Y-92391757D01*
X125690676Y-92434304D01*
X125757395Y-92501023D01*
X125835848Y-92553444D01*
X125923021Y-92589552D01*
X126015563Y-92607959D01*
X126109917Y-92607959D01*
X126202459Y-92589552D01*
X126289632Y-92553444D01*
X126368085Y-92501023D01*
X126434804Y-92434304D01*
X126487225Y-92355851D01*
X126523333Y-92268678D01*
X126541740Y-92176136D01*
X126541740Y-92081782D01*
X126539300Y-92069513D01*
X129584240Y-92069513D01*
X129584240Y-92163867D01*
X129602647Y-92256409D01*
X129638755Y-92343582D01*
X129691176Y-92422035D01*
X129757895Y-92488754D01*
X129836348Y-92541175D01*
X129872936Y-92556330D01*
X129836348Y-92571485D01*
X129757895Y-92623906D01*
X129691176Y-92690625D01*
X129638755Y-92769078D01*
X129602647Y-92856251D01*
X129584240Y-92948793D01*
X129584240Y-93043147D01*
X129602647Y-93135689D01*
X129638755Y-93222862D01*
X129691176Y-93301315D01*
X129757895Y-93368034D01*
X129836348Y-93420455D01*
X129923521Y-93456563D01*
X130016063Y-93474970D01*
X130110417Y-93474970D01*
X130202959Y-93456563D01*
X130290132Y-93420455D01*
X130368585Y-93368034D01*
X130435304Y-93301315D01*
X130487725Y-93222862D01*
X130523833Y-93135689D01*
X130542240Y-93043147D01*
X130542240Y-93003120D01*
X133441450Y-93003120D01*
X133441450Y-93097474D01*
X133459857Y-93190016D01*
X133495965Y-93277189D01*
X133548386Y-93355642D01*
X133615105Y-93422361D01*
X133693558Y-93474782D01*
X133780731Y-93510890D01*
X133873273Y-93529297D01*
X133967627Y-93529297D01*
X134060169Y-93510890D01*
X134147342Y-93474782D01*
X134225795Y-93422361D01*
X134292514Y-93355642D01*
X134344935Y-93277189D01*
X134381043Y-93190016D01*
X134399450Y-93097474D01*
X134399450Y-93003120D01*
X134381043Y-92910578D01*
X134344935Y-92823405D01*
X134292514Y-92744952D01*
X134225795Y-92678233D01*
X134147342Y-92625812D01*
X134060169Y-92589704D01*
X133967627Y-92571297D01*
X133873273Y-92571297D01*
X133780731Y-92589704D01*
X133693558Y-92625812D01*
X133615105Y-92678233D01*
X133548386Y-92744952D01*
X133495965Y-92823405D01*
X133459857Y-92910578D01*
X133441450Y-93003120D01*
X130542240Y-93003120D01*
X130542240Y-92948793D01*
X130523833Y-92856251D01*
X130487725Y-92769078D01*
X130435304Y-92690625D01*
X130368585Y-92623906D01*
X130290132Y-92571485D01*
X130253544Y-92556330D01*
X130290132Y-92541175D01*
X130368585Y-92488754D01*
X130435304Y-92422035D01*
X130487725Y-92343582D01*
X130523833Y-92256409D01*
X130542240Y-92163867D01*
X130542240Y-92069513D01*
X130523833Y-91976971D01*
X130487725Y-91889798D01*
X130435304Y-91811345D01*
X130368585Y-91744626D01*
X130290132Y-91692205D01*
X130202959Y-91656097D01*
X130110417Y-91637690D01*
X130016063Y-91637690D01*
X129923521Y-91656097D01*
X129836348Y-91692205D01*
X129757895Y-91744626D01*
X129691176Y-91811345D01*
X129638755Y-91889798D01*
X129602647Y-91976971D01*
X129584240Y-92069513D01*
X126539300Y-92069513D01*
X126523333Y-91989240D01*
X126487225Y-91902067D01*
X126434804Y-91823614D01*
X126368085Y-91756895D01*
X126289632Y-91704474D01*
X126274449Y-91698185D01*
X126298025Y-91682432D01*
X126364744Y-91615713D01*
X126417165Y-91537260D01*
X126427866Y-91511425D01*
X126470456Y-91575165D01*
X126537175Y-91641884D01*
X126615628Y-91694305D01*
X126702801Y-91730413D01*
X126795343Y-91748820D01*
X126889697Y-91748820D01*
X126982239Y-91730413D01*
X127069412Y-91694305D01*
X127147865Y-91641884D01*
X127151824Y-91637925D01*
X127224514Y-91686496D01*
X127311687Y-91722604D01*
X127404229Y-91741011D01*
X127498583Y-91741011D01*
X127591125Y-91722604D01*
X127678298Y-91686496D01*
X127756751Y-91634075D01*
X127823470Y-91567356D01*
X127875891Y-91488903D01*
X127909644Y-91407415D01*
X127964005Y-91461776D01*
X128042458Y-91514197D01*
X128129631Y-91550305D01*
X128222173Y-91568712D01*
X128316527Y-91568712D01*
X128409069Y-91550305D01*
X128496242Y-91514197D01*
X128574695Y-91461776D01*
X128641414Y-91395057D01*
X128693835Y-91316604D01*
X128729943Y-91229431D01*
X128730204Y-91228120D01*
X128801884Y-91228120D01*
X128894426Y-91209713D01*
X128981599Y-91173605D01*
X129028384Y-91142344D01*
X129080348Y-91177065D01*
X129167521Y-91213173D01*
X129260063Y-91231580D01*
X129354417Y-91231580D01*
X129446959Y-91213173D01*
X129534132Y-91177065D01*
X129612585Y-91124644D01*
X129679304Y-91057925D01*
X129731725Y-90979472D01*
X129767833Y-90892299D01*
X129780315Y-90829545D01*
X129788067Y-90868519D01*
X129824175Y-90955692D01*
X129876596Y-91034145D01*
X129943315Y-91100864D01*
X130021768Y-91153285D01*
X130108941Y-91189393D01*
X130163360Y-91200217D01*
X130163360Y-91228097D01*
X130181767Y-91320639D01*
X130217875Y-91407812D01*
X130270296Y-91486265D01*
X130337015Y-91552984D01*
X130415468Y-91605405D01*
X130502641Y-91641513D01*
X130595183Y-91659920D01*
X130689537Y-91659920D01*
X130782079Y-91641513D01*
X130869252Y-91605405D01*
X130947705Y-91552984D01*
X131014424Y-91486265D01*
X131066845Y-91407812D01*
X131102953Y-91320639D01*
X131121360Y-91228097D01*
X131121360Y-91133743D01*
X131105355Y-91053278D01*
X131171460Y-91119383D01*
X131249913Y-91171804D01*
X131337086Y-91207912D01*
X131429628Y-91226319D01*
X131523982Y-91226319D01*
X131616524Y-91207912D01*
X131703697Y-91171804D01*
X131782150Y-91119383D01*
X131785122Y-91116411D01*
X131792435Y-91123724D01*
X131870888Y-91176145D01*
X131958061Y-91212253D01*
X132050603Y-91230660D01*
X132144957Y-91230660D01*
X132237499Y-91212253D01*
X132324672Y-91176145D01*
X132403125Y-91123724D01*
X132469844Y-91057005D01*
X132522265Y-90978552D01*
X132558373Y-90891379D01*
X132576780Y-90798837D01*
X132576780Y-90785035D01*
X133441450Y-90785035D01*
X133441450Y-90879389D01*
X133459857Y-90971931D01*
X133495965Y-91059104D01*
X133539779Y-91124676D01*
X133495965Y-91190248D01*
X133459857Y-91277421D01*
X133441450Y-91369963D01*
X133441450Y-91464317D01*
X133459857Y-91556859D01*
X133495965Y-91644032D01*
X133548386Y-91722485D01*
X133557812Y-91731911D01*
X133548386Y-91741336D01*
X133495965Y-91819789D01*
X133459857Y-91906962D01*
X133441450Y-91999504D01*
X133441450Y-92093858D01*
X133459857Y-92186400D01*
X133495965Y-92273573D01*
X133548386Y-92352026D01*
X133615105Y-92418745D01*
X133693558Y-92471166D01*
X133780731Y-92507274D01*
X133873273Y-92525681D01*
X133967627Y-92525681D01*
X134060169Y-92507274D01*
X134147342Y-92471166D01*
X134225795Y-92418745D01*
X134292514Y-92352026D01*
X134344935Y-92273573D01*
X134381043Y-92186400D01*
X134399450Y-92093858D01*
X134399450Y-91999504D01*
X134381043Y-91906962D01*
X134344935Y-91819789D01*
X134292514Y-91741336D01*
X134283089Y-91731911D01*
X134292514Y-91722485D01*
X134344935Y-91644032D01*
X134381043Y-91556859D01*
X134399450Y-91464317D01*
X134399450Y-91369963D01*
X134381043Y-91277421D01*
X134344935Y-91190248D01*
X134301121Y-91124676D01*
X134344935Y-91059104D01*
X134381043Y-90971931D01*
X134399450Y-90879389D01*
X134399450Y-90785035D01*
X134390064Y-90737848D01*
X134448892Y-90713481D01*
X134527345Y-90661060D01*
X134594064Y-90594341D01*
X134598109Y-90588287D01*
X134603327Y-90614519D01*
X134639435Y-90701692D01*
X134691856Y-90780145D01*
X134758575Y-90846864D01*
X134837028Y-90899285D01*
X134924201Y-90935393D01*
X135016743Y-90953800D01*
X135111097Y-90953800D01*
X135203639Y-90935393D01*
X135290812Y-90899285D01*
X135369265Y-90846864D01*
X135435984Y-90780145D01*
X135488405Y-90701692D01*
X135524513Y-90614519D01*
X135542920Y-90521977D01*
X135542920Y-90427623D01*
X135524513Y-90335081D01*
X135488405Y-90247908D01*
X135435984Y-90169455D01*
X135369265Y-90102736D01*
X135290812Y-90050315D01*
X135203639Y-90014207D01*
X135111097Y-89995800D01*
X135016743Y-89995800D01*
X134924201Y-90014207D01*
X134837028Y-90050315D01*
X134758575Y-90102736D01*
X134691856Y-90169455D01*
X134687811Y-90175509D01*
X134682593Y-90149277D01*
X134646485Y-90062104D01*
X134594064Y-89983651D01*
X134527345Y-89916932D01*
X134448892Y-89864511D01*
X134361719Y-89828403D01*
X134269177Y-89809996D01*
X134174823Y-89809996D01*
X134082281Y-89828403D01*
X133995108Y-89864511D01*
X133916655Y-89916932D01*
X133849936Y-89983651D01*
X133797515Y-90062104D01*
X133761407Y-90149277D01*
X133743000Y-90241819D01*
X133743000Y-90336173D01*
X133752386Y-90383360D01*
X133693558Y-90407727D01*
X133615105Y-90460148D01*
X133548386Y-90526867D01*
X133495965Y-90605320D01*
X133459857Y-90692493D01*
X133441450Y-90785035D01*
X132576780Y-90785035D01*
X132576780Y-90704483D01*
X132558373Y-90611941D01*
X132522265Y-90524768D01*
X132469844Y-90446315D01*
X132403125Y-90379596D01*
X132324672Y-90327175D01*
X132268367Y-90303853D01*
X132269440Y-90298457D01*
X132269440Y-90204103D01*
X132251033Y-90111561D01*
X132214925Y-90024388D01*
X132162504Y-89945935D01*
X132095785Y-89879216D01*
X132017332Y-89826795D01*
X131930159Y-89790687D01*
X131837617Y-89772280D01*
X131743263Y-89772280D01*
X131650721Y-89790687D01*
X131563548Y-89826795D01*
X131485095Y-89879216D01*
X131418376Y-89945935D01*
X131365955Y-90024388D01*
X131329847Y-90111561D01*
X131311440Y-90204103D01*
X131311440Y-90297349D01*
X131249913Y-90322834D01*
X131171460Y-90375255D01*
X131104741Y-90441974D01*
X131052320Y-90520427D01*
X131016212Y-90607600D01*
X130997805Y-90700142D01*
X130997805Y-90794496D01*
X131013810Y-90874961D01*
X130947705Y-90808856D01*
X130869252Y-90756435D01*
X130782079Y-90720327D01*
X130727660Y-90709503D01*
X130727660Y-90681623D01*
X130709253Y-90589081D01*
X130673145Y-90501908D01*
X130620724Y-90423455D01*
X130554005Y-90356736D01*
X130475552Y-90304315D01*
X130388379Y-90268207D01*
X130295837Y-90249800D01*
X130201483Y-90249800D01*
X130108941Y-90268207D01*
X130021768Y-90304315D01*
X129943315Y-90356736D01*
X129876596Y-90423455D01*
X129824175Y-90501908D01*
X129788067Y-90589081D01*
X129775585Y-90651835D01*
X129767833Y-90612861D01*
X129731725Y-90525688D01*
X129679304Y-90447235D01*
X129612585Y-90380516D01*
X129534132Y-90328095D01*
X129446959Y-90291987D01*
X129354417Y-90273580D01*
X129260063Y-90273580D01*
X129167521Y-90291987D01*
X129080348Y-90328095D01*
X129033563Y-90359356D01*
X128981599Y-90324635D01*
X128894426Y-90288527D01*
X128801884Y-90270120D01*
X128764719Y-90270120D01*
X128749853Y-90195381D01*
X128713745Y-90108208D01*
X128661324Y-90029755D01*
X128594605Y-89963036D01*
X128516152Y-89910615D01*
X128428979Y-89874507D01*
X128336437Y-89856100D01*
X128242083Y-89856100D01*
X128149541Y-89874507D01*
X128062368Y-89910615D01*
X127983915Y-89963036D01*
X127917196Y-90029755D01*
X127864775Y-90108208D01*
X127828667Y-90195381D01*
X127810260Y-90287923D01*
X127810260Y-90382277D01*
X127828667Y-90474819D01*
X127864775Y-90561992D01*
X127917196Y-90640445D01*
X127982225Y-90705474D01*
X127964005Y-90717648D01*
X127897286Y-90784367D01*
X127844865Y-90862820D01*
X127811112Y-90944308D01*
X127756751Y-90889947D01*
X127678298Y-90837526D01*
X127591125Y-90801418D01*
X127498583Y-90783011D01*
X127404229Y-90783011D01*
X127311687Y-90801418D01*
X127224514Y-90837526D01*
X127146061Y-90889947D01*
X127142102Y-90893906D01*
X127069412Y-90845335D01*
X126982239Y-90809227D01*
X126889697Y-90790820D01*
X126795343Y-90790820D01*
X126702801Y-90809227D01*
X126615628Y-90845335D01*
X126537175Y-90897756D01*
X126470456Y-90964475D01*
X126418035Y-91042928D01*
X126407334Y-91068763D01*
X126364744Y-91005023D01*
X126298025Y-90938304D01*
X126254560Y-90909261D01*
X126303095Y-90876831D01*
X126369814Y-90810112D01*
X126422235Y-90731659D01*
X126458343Y-90644486D01*
X126476750Y-90551944D01*
X126476750Y-90457590D01*
X126458343Y-90365048D01*
X126422235Y-90277875D01*
X126369814Y-90199422D01*
X126303095Y-90132703D01*
X126224642Y-90080282D01*
X126137469Y-90044174D01*
X126044927Y-90025767D01*
X125950573Y-90025767D01*
X125858031Y-90044174D01*
X125770858Y-90080282D01*
X125692405Y-90132703D01*
X125625686Y-90199422D01*
X125573265Y-90277875D01*
X125537157Y-90365048D01*
X125518750Y-90457590D01*
X125518750Y-90551944D01*
X125537157Y-90644486D01*
X125573265Y-90731659D01*
X125625686Y-90810112D01*
X125692405Y-90876831D01*
X125735870Y-90905874D01*
X125687335Y-90938304D01*
X125620616Y-91005023D01*
X125568195Y-91083476D01*
X125532087Y-91170649D01*
X125513680Y-91263191D01*
X125513680Y-91357545D01*
X125532087Y-91450087D01*
X125568195Y-91537260D01*
X125620616Y-91615713D01*
X125687335Y-91682432D01*
X125765788Y-91734853D01*
X125780971Y-91741142D01*
X125757395Y-91756895D01*
X125690676Y-91823614D01*
X125656573Y-91874652D01*
X125628144Y-91832105D01*
X125561425Y-91765386D01*
X125482972Y-91712965D01*
X125395799Y-91676857D01*
X125303257Y-91658450D01*
X125208903Y-91658450D01*
X125116361Y-91676857D01*
X125029188Y-91712965D01*
X124950735Y-91765386D01*
X124884016Y-91832105D01*
X124831595Y-91910558D01*
X124795487Y-91997731D01*
X124777080Y-92090273D01*
X124777080Y-92184627D01*
X124795487Y-92277169D01*
X124831595Y-92364342D01*
X124884016Y-92442795D01*
X124950735Y-92509514D01*
X125001293Y-92543296D01*
X124959835Y-92570997D01*
X124893116Y-92637716D01*
X124864935Y-92679892D01*
X124826984Y-92623095D01*
X124760265Y-92556376D01*
X124681812Y-92503955D01*
X124594639Y-92467847D01*
X124502097Y-92449440D01*
X124407743Y-92449440D01*
X124315201Y-92467847D01*
X124228028Y-92503955D01*
X124149575Y-92556376D01*
X124082856Y-92623095D01*
X124030435Y-92701548D01*
X123994327Y-92788721D01*
X123975920Y-92881263D01*
X123975920Y-92975617D01*
X123994327Y-93068159D01*
X124030435Y-93155332D01*
X124082856Y-93233785D01*
X124149575Y-93300504D01*
X124228028Y-93352925D01*
X124315201Y-93389033D01*
X124407743Y-93407440D01*
X124502097Y-93407440D01*
X124594639Y-93389033D01*
X124681812Y-93352925D01*
X124760265Y-93300504D01*
X124826984Y-93233785D01*
X124855165Y-93191609D01*
X124893116Y-93248406D01*
X124959835Y-93315125D01*
X125005843Y-93345866D01*
X124959835Y-93376608D01*
X124893116Y-93443327D01*
X124840695Y-93521780D01*
X124804587Y-93608953D01*
X124786180Y-93701495D01*
X124786180Y-93795849D01*
X124804587Y-93888391D01*
X124840695Y-93975564D01*
X124893116Y-94054017D01*
X124959835Y-94120736D01*
X125005843Y-94151478D01*
X124959835Y-94182219D01*
X124893116Y-94248938D01*
X124840695Y-94327391D01*
X124804587Y-94414564D01*
X124786180Y-94507106D01*
X124786180Y-94601460D01*
X124804587Y-94694002D01*
X124840695Y-94781175D01*
X124893116Y-94859628D01*
X124959835Y-94926347D01*
X125003303Y-94955392D01*
X124954755Y-94987831D01*
X124888036Y-95054550D01*
X124835615Y-95133003D01*
X124809203Y-95196767D01*
X124797315Y-95136998D01*
X124761207Y-95049825D01*
X124708786Y-94971372D01*
X124642067Y-94904653D01*
X124563614Y-94852232D01*
X124476441Y-94816124D01*
X124383899Y-94797717D01*
X124289545Y-94797717D01*
X124197003Y-94816124D01*
X124109830Y-94852232D01*
X124031377Y-94904653D01*
X123964658Y-94971372D01*
X123912237Y-95049825D01*
X123876129Y-95136998D01*
X123857722Y-95229540D01*
X118258949Y-95229540D01*
X118248929Y-95219520D01*
X118266164Y-95202285D01*
X118318585Y-95123832D01*
X118354693Y-95036659D01*
X118373100Y-94944117D01*
X118373100Y-94849763D01*
X118354693Y-94757221D01*
X118318585Y-94670048D01*
X118266164Y-94591595D01*
X118199445Y-94524876D01*
X118120992Y-94472455D01*
X118033819Y-94436347D01*
X117941277Y-94417940D01*
X117846923Y-94417940D01*
X117754381Y-94436347D01*
X117667208Y-94472455D01*
X117626600Y-94499589D01*
X117626600Y-94042043D01*
X123831140Y-94042043D01*
X123831140Y-94136397D01*
X123849547Y-94228939D01*
X123885655Y-94316112D01*
X123938076Y-94394565D01*
X124004795Y-94461284D01*
X124083248Y-94513705D01*
X124170421Y-94549813D01*
X124262963Y-94568220D01*
X124357317Y-94568220D01*
X124449859Y-94549813D01*
X124537032Y-94513705D01*
X124615485Y-94461284D01*
X124682204Y-94394565D01*
X124734625Y-94316112D01*
X124770733Y-94228939D01*
X124789140Y-94136397D01*
X124789140Y-94042043D01*
X124770733Y-93949501D01*
X124734625Y-93862328D01*
X124682204Y-93783875D01*
X124615485Y-93717156D01*
X124537032Y-93664735D01*
X124449859Y-93628627D01*
X124357317Y-93610220D01*
X124262963Y-93610220D01*
X124170421Y-93628627D01*
X124083248Y-93664735D01*
X124004795Y-93717156D01*
X123938076Y-93783875D01*
X123885655Y-93862328D01*
X123849547Y-93949501D01*
X123831140Y-94042043D01*
X117626600Y-94042043D01*
X117626600Y-92903309D01*
X117664668Y-92928745D01*
X117751841Y-92964853D01*
X117844383Y-92983260D01*
X117938737Y-92983260D01*
X118031279Y-92964853D01*
X118118452Y-92928745D01*
X118196905Y-92876324D01*
X118263624Y-92809605D01*
X118316045Y-92731152D01*
X118352153Y-92643979D01*
X118370560Y-92551437D01*
X118370560Y-92457083D01*
X118352153Y-92364541D01*
X118316045Y-92277368D01*
X118263624Y-92198915D01*
X118257632Y-92192923D01*
X119424240Y-92192923D01*
X119424240Y-92287277D01*
X119442647Y-92379819D01*
X119478755Y-92466992D01*
X119531176Y-92545445D01*
X119597895Y-92612164D01*
X119676348Y-92664585D01*
X119763521Y-92700693D01*
X119766034Y-92701193D01*
X119759520Y-92733943D01*
X119759520Y-92828297D01*
X119776516Y-92913744D01*
X119760168Y-92920515D01*
X119681715Y-92972936D01*
X119614996Y-93039655D01*
X119562575Y-93118108D01*
X119526467Y-93205281D01*
X119508060Y-93297823D01*
X119508060Y-93392177D01*
X119526467Y-93484719D01*
X119562575Y-93571892D01*
X119614996Y-93650345D01*
X119681715Y-93717064D01*
X119760168Y-93769485D01*
X119847341Y-93805593D01*
X119939883Y-93824000D01*
X120034237Y-93824000D01*
X120126779Y-93805593D01*
X120213952Y-93769485D01*
X120292405Y-93717064D01*
X120359124Y-93650345D01*
X120411545Y-93571892D01*
X120447653Y-93484719D01*
X120466060Y-93392177D01*
X120466060Y-93297823D01*
X120449064Y-93212376D01*
X120465412Y-93205605D01*
X120543865Y-93153184D01*
X120610584Y-93086465D01*
X120663005Y-93008012D01*
X120699113Y-92920839D01*
X120717520Y-92828297D01*
X120717520Y-92733943D01*
X120699113Y-92641401D01*
X120663005Y-92554228D01*
X120610584Y-92475775D01*
X120543865Y-92409056D01*
X120465412Y-92356635D01*
X120378239Y-92320527D01*
X120375726Y-92320027D01*
X120382240Y-92287277D01*
X120382240Y-92192923D01*
X120363833Y-92100381D01*
X120327725Y-92013208D01*
X120275304Y-91934755D01*
X120208585Y-91868036D01*
X120130132Y-91815615D01*
X120042959Y-91779507D01*
X119950417Y-91761100D01*
X119856063Y-91761100D01*
X119763521Y-91779507D01*
X119676348Y-91815615D01*
X119597895Y-91868036D01*
X119531176Y-91934755D01*
X119478755Y-92013208D01*
X119442647Y-92100381D01*
X119424240Y-92192923D01*
X118257632Y-92192923D01*
X118196905Y-92132196D01*
X118118452Y-92079775D01*
X118031279Y-92043667D01*
X117938737Y-92025260D01*
X117844383Y-92025260D01*
X117751841Y-92043667D01*
X117664668Y-92079775D01*
X117626600Y-92105211D01*
X117626600Y-91100723D01*
X119416620Y-91100723D01*
X119416620Y-91195077D01*
X119435027Y-91287619D01*
X119471135Y-91374792D01*
X119523556Y-91453245D01*
X119590275Y-91519964D01*
X119668728Y-91572385D01*
X119755901Y-91608493D01*
X119848443Y-91626900D01*
X119942797Y-91626900D01*
X120035339Y-91608493D01*
X120122512Y-91572385D01*
X120200965Y-91519964D01*
X120238763Y-91482166D01*
X120247944Y-91504332D01*
X120300365Y-91582785D01*
X120367084Y-91649504D01*
X120445537Y-91701925D01*
X120532710Y-91738033D01*
X120625252Y-91756440D01*
X120719606Y-91756440D01*
X120812148Y-91738033D01*
X120899321Y-91701925D01*
X120977774Y-91649504D01*
X121044493Y-91582785D01*
X121096914Y-91504332D01*
X121133022Y-91417159D01*
X121136735Y-91398494D01*
X121152067Y-91475579D01*
X121188175Y-91562752D01*
X121240596Y-91641205D01*
X121307315Y-91707924D01*
X121385768Y-91760345D01*
X121418251Y-91773800D01*
X121413083Y-91773800D01*
X121320541Y-91792207D01*
X121233368Y-91828315D01*
X121154915Y-91880736D01*
X121088196Y-91947455D01*
X121035775Y-92025908D01*
X120999667Y-92113081D01*
X120981260Y-92205623D01*
X120981260Y-92299977D01*
X120999667Y-92392519D01*
X121035775Y-92479692D01*
X121088196Y-92558145D01*
X121154915Y-92624864D01*
X121233368Y-92677285D01*
X121320541Y-92713393D01*
X121413083Y-92731800D01*
X121507437Y-92731800D01*
X121599979Y-92713393D01*
X121687152Y-92677285D01*
X121765605Y-92624864D01*
X121832324Y-92558145D01*
X121884745Y-92479692D01*
X121920853Y-92392519D01*
X121939260Y-92299977D01*
X121939260Y-92205623D01*
X121920853Y-92113081D01*
X121884745Y-92025908D01*
X121832324Y-91947455D01*
X121785692Y-91900823D01*
X122584000Y-91900823D01*
X122584000Y-91995177D01*
X122602407Y-92087719D01*
X122638515Y-92174892D01*
X122690936Y-92253345D01*
X122757655Y-92320064D01*
X122836108Y-92372485D01*
X122923281Y-92408593D01*
X123015823Y-92427000D01*
X123110177Y-92427000D01*
X123202719Y-92408593D01*
X123289892Y-92372485D01*
X123368345Y-92320064D01*
X123435064Y-92253345D01*
X123487485Y-92174892D01*
X123523593Y-92087719D01*
X123542000Y-91995177D01*
X123542000Y-91900823D01*
X123523593Y-91808281D01*
X123487485Y-91721108D01*
X123465003Y-91687461D01*
X123625400Y-91687461D01*
X123625400Y-91781815D01*
X123643807Y-91874357D01*
X123679915Y-91961530D01*
X123732336Y-92039983D01*
X123799055Y-92106702D01*
X123877508Y-92159123D01*
X123964681Y-92195231D01*
X124057223Y-92213638D01*
X124151577Y-92213638D01*
X124244119Y-92195231D01*
X124331292Y-92159123D01*
X124409745Y-92106702D01*
X124476464Y-92039983D01*
X124528885Y-91961530D01*
X124564993Y-91874357D01*
X124583400Y-91781815D01*
X124583400Y-91687461D01*
X124564993Y-91594919D01*
X124528885Y-91507746D01*
X124476464Y-91429293D01*
X124409745Y-91362574D01*
X124331292Y-91310153D01*
X124244119Y-91274045D01*
X124151577Y-91255638D01*
X124057223Y-91255638D01*
X123964681Y-91274045D01*
X123877508Y-91310153D01*
X123799055Y-91362574D01*
X123732336Y-91429293D01*
X123679915Y-91507746D01*
X123643807Y-91594919D01*
X123625400Y-91687461D01*
X123465003Y-91687461D01*
X123435064Y-91642655D01*
X123368345Y-91575936D01*
X123289892Y-91523515D01*
X123202719Y-91487407D01*
X123110177Y-91469000D01*
X123015823Y-91469000D01*
X122923281Y-91487407D01*
X122836108Y-91523515D01*
X122757655Y-91575936D01*
X122690936Y-91642655D01*
X122638515Y-91721108D01*
X122602407Y-91808281D01*
X122584000Y-91900823D01*
X121785692Y-91900823D01*
X121765605Y-91880736D01*
X121687152Y-91828315D01*
X121654669Y-91814860D01*
X121659837Y-91814860D01*
X121752379Y-91796453D01*
X121839552Y-91760345D01*
X121918005Y-91707924D01*
X121984724Y-91641205D01*
X122037145Y-91562752D01*
X122073253Y-91475579D01*
X122091660Y-91383037D01*
X122091660Y-91288683D01*
X122073253Y-91196141D01*
X122037145Y-91108968D01*
X121984724Y-91030515D01*
X121918005Y-90963796D01*
X121839552Y-90911375D01*
X121752379Y-90875267D01*
X121659837Y-90856860D01*
X121565483Y-90856860D01*
X121472941Y-90875267D01*
X121385768Y-90911375D01*
X121307315Y-90963796D01*
X121240596Y-91030515D01*
X121188175Y-91108968D01*
X121152067Y-91196141D01*
X121148354Y-91214806D01*
X121133022Y-91137721D01*
X121096914Y-91050548D01*
X121044493Y-90972095D01*
X120977774Y-90905376D01*
X120899321Y-90852955D01*
X120812148Y-90816847D01*
X120719606Y-90798440D01*
X120625252Y-90798440D01*
X120532710Y-90816847D01*
X120445537Y-90852955D01*
X120367084Y-90905376D01*
X120329286Y-90943174D01*
X120320105Y-90921008D01*
X120267684Y-90842555D01*
X120200965Y-90775836D01*
X120122512Y-90723415D01*
X120035339Y-90687307D01*
X119993993Y-90679083D01*
X124387398Y-90679083D01*
X124387398Y-90773437D01*
X124405805Y-90865979D01*
X124441913Y-90953152D01*
X124494334Y-91031605D01*
X124561053Y-91098324D01*
X124639506Y-91150745D01*
X124726679Y-91186853D01*
X124819221Y-91205260D01*
X124913575Y-91205260D01*
X125006117Y-91186853D01*
X125093290Y-91150745D01*
X125171743Y-91098324D01*
X125238462Y-91031605D01*
X125290883Y-90953152D01*
X125326991Y-90865979D01*
X125345398Y-90773437D01*
X125345398Y-90679083D01*
X125326991Y-90586541D01*
X125290883Y-90499368D01*
X125238462Y-90420915D01*
X125171743Y-90354196D01*
X125093290Y-90301775D01*
X125006117Y-90265667D01*
X124913575Y-90247260D01*
X124819221Y-90247260D01*
X124726679Y-90265667D01*
X124639506Y-90301775D01*
X124561053Y-90354196D01*
X124494334Y-90420915D01*
X124441913Y-90499368D01*
X124405805Y-90586541D01*
X124387398Y-90679083D01*
X119993993Y-90679083D01*
X119942797Y-90668900D01*
X119848443Y-90668900D01*
X119755901Y-90687307D01*
X119668728Y-90723415D01*
X119590275Y-90775836D01*
X119523556Y-90842555D01*
X119471135Y-90921008D01*
X119435027Y-91008181D01*
X119416620Y-91100723D01*
X117626600Y-91100723D01*
X117626600Y-89863743D01*
X123439980Y-89863743D01*
X123439980Y-89958097D01*
X123458387Y-90050639D01*
X123494495Y-90137812D01*
X123546916Y-90216265D01*
X123613635Y-90282984D01*
X123692088Y-90335405D01*
X123779261Y-90371513D01*
X123871803Y-90389920D01*
X123966157Y-90389920D01*
X124058699Y-90371513D01*
X124145872Y-90335405D01*
X124224325Y-90282984D01*
X124291044Y-90216265D01*
X124343465Y-90137812D01*
X124379573Y-90050639D01*
X124397980Y-89958097D01*
X124397980Y-89863743D01*
X124379573Y-89771201D01*
X124343465Y-89684028D01*
X124291044Y-89605575D01*
X124224325Y-89538856D01*
X124145872Y-89486435D01*
X124058699Y-89450327D01*
X123966157Y-89431920D01*
X123871803Y-89431920D01*
X123779261Y-89450327D01*
X123692088Y-89486435D01*
X123613635Y-89538856D01*
X123546916Y-89605575D01*
X123494495Y-89684028D01*
X123458387Y-89771201D01*
X123439980Y-89863743D01*
X117626600Y-89863743D01*
X117626600Y-88756960D01*
X118277583Y-88756960D01*
X118213595Y-88799716D01*
M02*
