G04 #@! TF.GenerationSoftware,KiCad,Pcbnew,(5.1.0)-1*
G04 #@! TF.CreationDate,2019-09-19T19:12:12-07:00*
G04 #@! TF.ProjectId,WireFreeV4_Release,57697265-4672-4656-9556-345f52656c65,rev?*
G04 #@! TF.SameCoordinates,Original*
G04 #@! TF.FileFunction,Soldermask,Bot*
G04 #@! TF.FilePolarity,Negative*
%FSLAX46Y46*%
G04 Gerber Fmt 4.6, Leading zero omitted, Abs format (unit mm)*
G04 Created by KiCad (PCBNEW (5.1.0)-1) date 2019-09-19 19:12:12*
%MOMM*%
%LPD*%
G04 APERTURE LIST*
%ADD10C,0.100000*%
G04 APERTURE END LIST*
D10*
G36*
X131724900Y-100533460D02*
G01*
X130784100Y-100533460D01*
X130784100Y-99562660D01*
X131724900Y-99562660D01*
X131724900Y-100533460D01*
X131724900Y-100533460D01*
G37*
G36*
X130394900Y-100533460D02*
G01*
X129454100Y-100533460D01*
X129454100Y-99562660D01*
X130394900Y-99562660D01*
X130394900Y-100533460D01*
X130394900Y-100533460D01*
G37*
G36*
X129233260Y-100531820D02*
G01*
X128622460Y-100531820D01*
X128622460Y-99991020D01*
X129233260Y-99991020D01*
X129233260Y-100531820D01*
X129233260Y-100531820D01*
G37*
G36*
X127963260Y-100526740D02*
G01*
X127352460Y-100526740D01*
X127352460Y-99985940D01*
X127963260Y-99985940D01*
X127963260Y-100526740D01*
X127963260Y-100526740D01*
G37*
G36*
X124832980Y-100423320D02*
G01*
X123462180Y-100423320D01*
X123462180Y-99442520D01*
X124832980Y-99442520D01*
X124832980Y-100423320D01*
X124832980Y-100423320D01*
G37*
G36*
X127117280Y-100418940D02*
G01*
X126486480Y-100418940D01*
X126486480Y-99738140D01*
X127117280Y-99738140D01*
X127117280Y-100418940D01*
X127117280Y-100418940D01*
G37*
G36*
X126227280Y-100418940D02*
G01*
X125596480Y-100418940D01*
X125596480Y-99738140D01*
X126227280Y-99738140D01*
X126227280Y-100418940D01*
X126227280Y-100418940D01*
G37*
G36*
X135317260Y-100217200D02*
G01*
X134066460Y-100217200D01*
X134066460Y-98766400D01*
X135317260Y-98766400D01*
X135317260Y-100217200D01*
X135317260Y-100217200D01*
G37*
G36*
X133617260Y-100217200D02*
G01*
X132366460Y-100217200D01*
X132366460Y-98766400D01*
X133617260Y-98766400D01*
X133617260Y-100217200D01*
X133617260Y-100217200D01*
G37*
G36*
X129233260Y-99621820D02*
G01*
X128622460Y-99621820D01*
X128622460Y-99081020D01*
X129233260Y-99081020D01*
X129233260Y-99621820D01*
X129233260Y-99621820D01*
G37*
G36*
X127963260Y-99616740D02*
G01*
X127352460Y-99616740D01*
X127352460Y-99075940D01*
X127963260Y-99075940D01*
X127963260Y-99616740D01*
X127963260Y-99616740D01*
G37*
G36*
X129163460Y-98828680D02*
G01*
X128802660Y-98828680D01*
X128802660Y-98437880D01*
X129163460Y-98437880D01*
X129163460Y-98828680D01*
X129163460Y-98828680D01*
G37*
G36*
X129713460Y-98828680D02*
G01*
X129352660Y-98828680D01*
X129352660Y-98437880D01*
X129713460Y-98437880D01*
X129713460Y-98828680D01*
X129713460Y-98828680D01*
G37*
G36*
X124832980Y-98783320D02*
G01*
X123462180Y-98783320D01*
X123462180Y-97802520D01*
X124832980Y-97802520D01*
X124832980Y-98783320D01*
X124832980Y-98783320D01*
G37*
G36*
X130505940Y-98239400D02*
G01*
X130145140Y-98239400D01*
X130145140Y-97848600D01*
X130505940Y-97848600D01*
X130505940Y-98239400D01*
X130505940Y-98239400D01*
G37*
G36*
X129955940Y-98239400D02*
G01*
X129595140Y-98239400D01*
X129595140Y-97848600D01*
X129955940Y-97848600D01*
X129955940Y-98239400D01*
X129955940Y-98239400D01*
G37*
G36*
X122305900Y-98212380D02*
G01*
X121915100Y-98212380D01*
X121915100Y-97851580D01*
X122305900Y-97851580D01*
X122305900Y-98212380D01*
X122305900Y-98212380D01*
G37*
G36*
X131297500Y-98193920D02*
G01*
X130906700Y-98193920D01*
X130906700Y-97833120D01*
X131297500Y-97833120D01*
X131297500Y-98193920D01*
X131297500Y-98193920D01*
G37*
G36*
X128343480Y-98192060D02*
G01*
X127952680Y-98192060D01*
X127952680Y-97831260D01*
X128343480Y-97831260D01*
X128343480Y-98192060D01*
X128343480Y-98192060D01*
G37*
G36*
X128978480Y-98192060D02*
G01*
X128587680Y-98192060D01*
X128587680Y-97831260D01*
X128978480Y-97831260D01*
X128978480Y-98192060D01*
X128978480Y-98192060D01*
G37*
G36*
X135317260Y-98017200D02*
G01*
X134066460Y-98017200D01*
X134066460Y-96566400D01*
X135317260Y-96566400D01*
X135317260Y-98017200D01*
X135317260Y-98017200D01*
G37*
G36*
X133617260Y-98017200D02*
G01*
X132366460Y-98017200D01*
X132366460Y-96566400D01*
X133617260Y-96566400D01*
X133617260Y-98017200D01*
X133617260Y-98017200D01*
G37*
G36*
X122305900Y-97662380D02*
G01*
X121915100Y-97662380D01*
X121915100Y-97301580D01*
X122305900Y-97301580D01*
X122305900Y-97662380D01*
X122305900Y-97662380D01*
G37*
G36*
X131297500Y-97643920D02*
G01*
X130906700Y-97643920D01*
X130906700Y-97283120D01*
X131297500Y-97283120D01*
X131297500Y-97643920D01*
X131297500Y-97643920D01*
G37*
G36*
X128978480Y-97642060D02*
G01*
X128587680Y-97642060D01*
X128587680Y-97281260D01*
X128978480Y-97281260D01*
X128978480Y-97642060D01*
X128978480Y-97642060D01*
G37*
G36*
X128343480Y-97642060D02*
G01*
X127952680Y-97642060D01*
X127952680Y-97281260D01*
X128343480Y-97281260D01*
X128343480Y-97642060D01*
X128343480Y-97642060D01*
G37*
G36*
X130511700Y-97624720D02*
G01*
X130150900Y-97624720D01*
X130150900Y-97233920D01*
X130511700Y-97233920D01*
X130511700Y-97624720D01*
X130511700Y-97624720D01*
G37*
G36*
X129961700Y-97624720D02*
G01*
X129600900Y-97624720D01*
X129600900Y-97233920D01*
X129961700Y-97233920D01*
X129961700Y-97624720D01*
X129961700Y-97624720D01*
G37*
G36*
X126345180Y-97066360D02*
G01*
X125404380Y-97066360D01*
X125404380Y-96095560D01*
X126345180Y-96095560D01*
X126345180Y-97066360D01*
X126345180Y-97066360D01*
G37*
G36*
X127675180Y-97066360D02*
G01*
X126734380Y-97066360D01*
X126734380Y-96095560D01*
X127675180Y-96095560D01*
X127675180Y-97066360D01*
X127675180Y-97066360D01*
G37*
G36*
X122945780Y-97051780D02*
G01*
X122574980Y-97051780D01*
X122574980Y-96260980D01*
X122945780Y-96260980D01*
X122945780Y-97051780D01*
X122945780Y-97051780D01*
G37*
G36*
X122295780Y-97051780D02*
G01*
X121924980Y-97051780D01*
X121924980Y-96260980D01*
X122295780Y-96260980D01*
X122295780Y-97051780D01*
X122295780Y-97051780D01*
G37*
G36*
X121645780Y-97051780D02*
G01*
X121274980Y-97051780D01*
X121274980Y-96260980D01*
X121645780Y-96260980D01*
X121645780Y-97051780D01*
X121645780Y-97051780D01*
G37*
G36*
X120995780Y-97051780D02*
G01*
X120624980Y-97051780D01*
X120624980Y-96260980D01*
X120995780Y-96260980D01*
X120995780Y-97051780D01*
X120995780Y-97051780D01*
G37*
G36*
X125138920Y-96662060D02*
G01*
X124778120Y-96662060D01*
X124778120Y-96271260D01*
X125138920Y-96271260D01*
X125138920Y-96662060D01*
X125138920Y-96662060D01*
G37*
G36*
X124588920Y-96662060D02*
G01*
X124228120Y-96662060D01*
X124228120Y-96271260D01*
X124588920Y-96271260D01*
X124588920Y-96662060D01*
X124588920Y-96662060D01*
G37*
G36*
X129135960Y-96605240D02*
G01*
X128745160Y-96605240D01*
X128745160Y-96244440D01*
X129135960Y-96244440D01*
X129135960Y-96605240D01*
X129135960Y-96605240D01*
G37*
G36*
X129135960Y-96055240D02*
G01*
X128745160Y-96055240D01*
X128745160Y-95694440D01*
X129135960Y-95694440D01*
X129135960Y-96055240D01*
X129135960Y-96055240D01*
G37*
G36*
X124587060Y-96032140D02*
G01*
X124226260Y-96032140D01*
X124226260Y-95641340D01*
X124587060Y-95641340D01*
X124587060Y-96032140D01*
X124587060Y-96032140D01*
G37*
G36*
X125137060Y-96032140D02*
G01*
X124776260Y-96032140D01*
X124776260Y-95641340D01*
X125137060Y-95641340D01*
X125137060Y-96032140D01*
X125137060Y-96032140D01*
G37*
G36*
X123975780Y-96021780D02*
G01*
X123184980Y-96021780D01*
X123184980Y-95650980D01*
X123975780Y-95650980D01*
X123975780Y-96021780D01*
X123975780Y-96021780D01*
G37*
G36*
X120385780Y-96021780D02*
G01*
X119594980Y-96021780D01*
X119594980Y-95650980D01*
X120385780Y-95650980D01*
X120385780Y-96021780D01*
X120385780Y-96021780D01*
G37*
G36*
X135602020Y-95926380D02*
G01*
X134551220Y-95926380D01*
X134551220Y-92475580D01*
X135602020Y-92475580D01*
X135602020Y-95926380D01*
X135602020Y-95926380D01*
G37*
G36*
X133502020Y-95926380D02*
G01*
X132451220Y-95926380D01*
X132451220Y-92475580D01*
X133502020Y-92475580D01*
X133502020Y-95926380D01*
X133502020Y-95926380D01*
G37*
G36*
X122810780Y-95886780D02*
G01*
X120759980Y-95886780D01*
X120759980Y-93835980D01*
X122810780Y-93835980D01*
X122810780Y-95886780D01*
X122810780Y-95886780D01*
G37*
G36*
X126796620Y-95804460D02*
G01*
X126405820Y-95804460D01*
X126405820Y-95443660D01*
X126796620Y-95443660D01*
X126796620Y-95804460D01*
X126796620Y-95804460D01*
G37*
G36*
X132171620Y-95777920D02*
G01*
X131190820Y-95777920D01*
X131190820Y-94407120D01*
X132171620Y-94407120D01*
X132171620Y-95777920D01*
X132171620Y-95777920D01*
G37*
G36*
X130531620Y-95777920D02*
G01*
X129550820Y-95777920D01*
X129550820Y-94407120D01*
X130531620Y-94407120D01*
X130531620Y-95777920D01*
X130531620Y-95777920D01*
G37*
G36*
X123975780Y-95371780D02*
G01*
X123184980Y-95371780D01*
X123184980Y-95000980D01*
X123975780Y-95000980D01*
X123975780Y-95371780D01*
X123975780Y-95371780D01*
G37*
G36*
X120385780Y-95371780D02*
G01*
X119594980Y-95371780D01*
X119594980Y-95000980D01*
X120385780Y-95000980D01*
X120385780Y-95371780D01*
X120385780Y-95371780D01*
G37*
G36*
X126796620Y-95254460D02*
G01*
X126405820Y-95254460D01*
X126405820Y-94893660D01*
X126796620Y-94893660D01*
X126796620Y-95254460D01*
X126796620Y-95254460D01*
G37*
G36*
X127551000Y-95006900D02*
G01*
X127160200Y-95006900D01*
X127160200Y-94646100D01*
X127551000Y-94646100D01*
X127551000Y-95006900D01*
X127551000Y-95006900D01*
G37*
G36*
X128168220Y-95006900D02*
G01*
X127777420Y-95006900D01*
X127777420Y-94646100D01*
X128168220Y-94646100D01*
X128168220Y-95006900D01*
X128168220Y-95006900D01*
G37*
G36*
X120385780Y-94721780D02*
G01*
X119594980Y-94721780D01*
X119594980Y-94350980D01*
X120385780Y-94350980D01*
X120385780Y-94721780D01*
X120385780Y-94721780D01*
G37*
G36*
X123975780Y-94721780D02*
G01*
X123184980Y-94721780D01*
X123184980Y-94350980D01*
X123975780Y-94350980D01*
X123975780Y-94721780D01*
X123975780Y-94721780D01*
G37*
G36*
X127551000Y-94456900D02*
G01*
X127160200Y-94456900D01*
X127160200Y-94096100D01*
X127551000Y-94096100D01*
X127551000Y-94456900D01*
X127551000Y-94456900D01*
G37*
G36*
X128168220Y-94456900D02*
G01*
X127777420Y-94456900D01*
X127777420Y-94096100D01*
X128168220Y-94096100D01*
X128168220Y-94456900D01*
X128168220Y-94456900D01*
G37*
G36*
X117975599Y-93878976D02*
G01*
X118026446Y-93900037D01*
X118072209Y-93930615D01*
X118111124Y-93969530D01*
X118141702Y-94015293D01*
X118162763Y-94066140D01*
X118173500Y-94120120D01*
X118173500Y-94175158D01*
X118162763Y-94229138D01*
X118141702Y-94279985D01*
X118111124Y-94325748D01*
X118072209Y-94364663D01*
X118026446Y-94395241D01*
X117975599Y-94416302D01*
X117921619Y-94427039D01*
X117866581Y-94427039D01*
X117812601Y-94416302D01*
X117761754Y-94395241D01*
X117715991Y-94364663D01*
X117677076Y-94325748D01*
X117646498Y-94279985D01*
X117625437Y-94229138D01*
X117614700Y-94175158D01*
X117614700Y-94120120D01*
X117625437Y-94066140D01*
X117646498Y-94015293D01*
X117677076Y-93969530D01*
X117715991Y-93930615D01*
X117761754Y-93900037D01*
X117812601Y-93878976D01*
X117866581Y-93868239D01*
X117921619Y-93868239D01*
X117975599Y-93878976D01*
X117975599Y-93878976D01*
G37*
G36*
X120385780Y-94071780D02*
G01*
X119594980Y-94071780D01*
X119594980Y-93700980D01*
X120385780Y-93700980D01*
X120385780Y-94071780D01*
X120385780Y-94071780D01*
G37*
G36*
X123975780Y-94071780D02*
G01*
X123184980Y-94071780D01*
X123184980Y-93700980D01*
X123975780Y-93700980D01*
X123975780Y-94071780D01*
X123975780Y-94071780D01*
G37*
G36*
X118585199Y-93396376D02*
G01*
X118636046Y-93417437D01*
X118681809Y-93448015D01*
X118720724Y-93486930D01*
X118751302Y-93532693D01*
X118772363Y-93583540D01*
X118783100Y-93637520D01*
X118783100Y-93692558D01*
X118772363Y-93746538D01*
X118751302Y-93797385D01*
X118720724Y-93843148D01*
X118681809Y-93882063D01*
X118636046Y-93912641D01*
X118585199Y-93933702D01*
X118531219Y-93944439D01*
X118476181Y-93944439D01*
X118422201Y-93933702D01*
X118371354Y-93912641D01*
X118325591Y-93882063D01*
X118286676Y-93843148D01*
X118256098Y-93797385D01*
X118235037Y-93746538D01*
X118224300Y-93692558D01*
X118224300Y-93637520D01*
X118235037Y-93583540D01*
X118256098Y-93532693D01*
X118286676Y-93486930D01*
X118325591Y-93448015D01*
X118371354Y-93417437D01*
X118422201Y-93396376D01*
X118476181Y-93385639D01*
X118531219Y-93385639D01*
X118585199Y-93396376D01*
X118585199Y-93396376D01*
G37*
G36*
X128409520Y-93856960D02*
G01*
X128018720Y-93856960D01*
X128018720Y-93496160D01*
X128409520Y-93496160D01*
X128409520Y-93856960D01*
X128409520Y-93856960D01*
G37*
G36*
X117975599Y-92913777D02*
G01*
X118026446Y-92934838D01*
X118072209Y-92965416D01*
X118111124Y-93004331D01*
X118141702Y-93050094D01*
X118162763Y-93100941D01*
X118173500Y-93154921D01*
X118173500Y-93209959D01*
X118162763Y-93263939D01*
X118141702Y-93314786D01*
X118111124Y-93360549D01*
X118072209Y-93399464D01*
X118026446Y-93430042D01*
X117975599Y-93451103D01*
X117921619Y-93461840D01*
X117866581Y-93461840D01*
X117812601Y-93451103D01*
X117761754Y-93430042D01*
X117715991Y-93399464D01*
X117677076Y-93360549D01*
X117646498Y-93314786D01*
X117625437Y-93263939D01*
X117614700Y-93209959D01*
X117614700Y-93154921D01*
X117625437Y-93100941D01*
X117646498Y-93050094D01*
X117677076Y-93004331D01*
X117715991Y-92965416D01*
X117761754Y-92934838D01*
X117812601Y-92913777D01*
X117866581Y-92903040D01*
X117921619Y-92903040D01*
X117975599Y-92913777D01*
X117975599Y-92913777D01*
G37*
G36*
X121645780Y-93461780D02*
G01*
X121274980Y-93461780D01*
X121274980Y-92670980D01*
X121645780Y-92670980D01*
X121645780Y-93461780D01*
X121645780Y-93461780D01*
G37*
G36*
X120995780Y-93461780D02*
G01*
X120624980Y-93461780D01*
X120624980Y-92670980D01*
X120995780Y-92670980D01*
X120995780Y-93461780D01*
X120995780Y-93461780D01*
G37*
G36*
X122295780Y-93461780D02*
G01*
X121924980Y-93461780D01*
X121924980Y-92670980D01*
X122295780Y-92670980D01*
X122295780Y-93461780D01*
X122295780Y-93461780D01*
G37*
G36*
X122945780Y-93461780D02*
G01*
X122574980Y-93461780D01*
X122574980Y-92670980D01*
X122945780Y-92670980D01*
X122945780Y-93461780D01*
X122945780Y-93461780D01*
G37*
G36*
X129345260Y-93413280D02*
G01*
X128634460Y-93413280D01*
X128634460Y-93102480D01*
X129345260Y-93102480D01*
X129345260Y-93413280D01*
X129345260Y-93413280D01*
G37*
G36*
X132015260Y-93413280D02*
G01*
X131304460Y-93413280D01*
X131304460Y-93102480D01*
X132015260Y-93102480D01*
X132015260Y-93413280D01*
X132015260Y-93413280D01*
G37*
G36*
X128409520Y-93306960D02*
G01*
X128018720Y-93306960D01*
X128018720Y-92946160D01*
X128409520Y-92946160D01*
X128409520Y-93306960D01*
X128409520Y-93306960D01*
G37*
G36*
X132015260Y-92913280D02*
G01*
X131304460Y-92913280D01*
X131304460Y-92602480D01*
X132015260Y-92602480D01*
X132015260Y-92913280D01*
X132015260Y-92913280D01*
G37*
G36*
X129345260Y-92913280D02*
G01*
X128634460Y-92913280D01*
X128634460Y-92602480D01*
X129345260Y-92602480D01*
X129345260Y-92913280D01*
X129345260Y-92913280D01*
G37*
G36*
X127947020Y-92578100D02*
G01*
X126576220Y-92578100D01*
X126576220Y-91597300D01*
X127947020Y-91597300D01*
X127947020Y-92578100D01*
X127947020Y-92578100D01*
G37*
G36*
X132015260Y-92413280D02*
G01*
X131304460Y-92413280D01*
X131304460Y-92102480D01*
X132015260Y-92102480D01*
X132015260Y-92413280D01*
X132015260Y-92413280D01*
G37*
G36*
X129345260Y-92413280D02*
G01*
X128634460Y-92413280D01*
X128634460Y-92102480D01*
X129345260Y-92102480D01*
X129345260Y-92413280D01*
X129345260Y-92413280D01*
G37*
G36*
X133489320Y-92200200D02*
G01*
X132438520Y-92200200D01*
X132438520Y-88749400D01*
X133489320Y-88749400D01*
X133489320Y-92200200D01*
X133489320Y-92200200D01*
G37*
G36*
X135589320Y-92200200D02*
G01*
X134538520Y-92200200D01*
X134538520Y-88749400D01*
X135589320Y-88749400D01*
X135589320Y-92200200D01*
X135589320Y-92200200D01*
G37*
G36*
X129345260Y-91913280D02*
G01*
X128634460Y-91913280D01*
X128634460Y-91602480D01*
X129345260Y-91602480D01*
X129345260Y-91913280D01*
X129345260Y-91913280D01*
G37*
G36*
X132015260Y-91913280D02*
G01*
X131304460Y-91913280D01*
X131304460Y-91602480D01*
X132015260Y-91602480D01*
X132015260Y-91913280D01*
X132015260Y-91913280D01*
G37*
G36*
X129345260Y-91413280D02*
G01*
X128634460Y-91413280D01*
X128634460Y-91102480D01*
X129345260Y-91102480D01*
X129345260Y-91413280D01*
X129345260Y-91413280D01*
G37*
G36*
X132015260Y-91413280D02*
G01*
X131304460Y-91413280D01*
X131304460Y-91102480D01*
X132015260Y-91102480D01*
X132015260Y-91413280D01*
X132015260Y-91413280D01*
G37*
G36*
X127947020Y-90938100D02*
G01*
X126576220Y-90938100D01*
X126576220Y-89957300D01*
X127947020Y-89957300D01*
X127947020Y-90938100D01*
X127947020Y-90938100D01*
G37*
G36*
X121282649Y-90134689D02*
G01*
X121331002Y-90144307D01*
X121399319Y-90172605D01*
X121460805Y-90213689D01*
X121513091Y-90265975D01*
X121554175Y-90327461D01*
X121582473Y-90395778D01*
X121596900Y-90468307D01*
X121596900Y-90542253D01*
X121582473Y-90614782D01*
X121554175Y-90683099D01*
X121513091Y-90744585D01*
X121460805Y-90796871D01*
X121399319Y-90837955D01*
X121331002Y-90866253D01*
X121282649Y-90875871D01*
X121258474Y-90880680D01*
X121184526Y-90880680D01*
X121160351Y-90875871D01*
X121111998Y-90866253D01*
X121043681Y-90837955D01*
X120982195Y-90796871D01*
X120929909Y-90744585D01*
X120888825Y-90683099D01*
X120860527Y-90614782D01*
X120846100Y-90542253D01*
X120846100Y-90468307D01*
X120860527Y-90395778D01*
X120888825Y-90327461D01*
X120929909Y-90265975D01*
X120982195Y-90213689D01*
X121043681Y-90172605D01*
X121111998Y-90144307D01*
X121160351Y-90134689D01*
X121184526Y-90129880D01*
X121258474Y-90129880D01*
X121282649Y-90134689D01*
X121282649Y-90134689D01*
G37*
G36*
X122806649Y-90134689D02*
G01*
X122855002Y-90144307D01*
X122923319Y-90172605D01*
X122984805Y-90213689D01*
X123037091Y-90265975D01*
X123078175Y-90327461D01*
X123106473Y-90395778D01*
X123120900Y-90468307D01*
X123120900Y-90542253D01*
X123106473Y-90614782D01*
X123078175Y-90683099D01*
X123037091Y-90744585D01*
X122984805Y-90796871D01*
X122923319Y-90837955D01*
X122855002Y-90866253D01*
X122806649Y-90875871D01*
X122782474Y-90880680D01*
X122708526Y-90880680D01*
X122684351Y-90875871D01*
X122635998Y-90866253D01*
X122567681Y-90837955D01*
X122506195Y-90796871D01*
X122453909Y-90744585D01*
X122412825Y-90683099D01*
X122384527Y-90614782D01*
X122370100Y-90542253D01*
X122370100Y-90468307D01*
X122384527Y-90395778D01*
X122412825Y-90327461D01*
X122453909Y-90265975D01*
X122506195Y-90213689D01*
X122567681Y-90172605D01*
X122635998Y-90144307D01*
X122684351Y-90134689D01*
X122708526Y-90129880D01*
X122782474Y-90129880D01*
X122806649Y-90134689D01*
X122806649Y-90134689D01*
G37*
G36*
X119504940Y-90818300D02*
G01*
X118964140Y-90818300D01*
X118964140Y-90207500D01*
X119504940Y-90207500D01*
X119504940Y-90818300D01*
X119504940Y-90818300D01*
G37*
G36*
X120414940Y-90818300D02*
G01*
X119874140Y-90818300D01*
X119874140Y-90207500D01*
X120414940Y-90207500D01*
X120414940Y-90818300D01*
X120414940Y-90818300D01*
G37*
G36*
X131244100Y-90415980D02*
G01*
X130263300Y-90415980D01*
X130263300Y-89045180D01*
X131244100Y-89045180D01*
X131244100Y-90415980D01*
X131244100Y-90415980D01*
G37*
G36*
X129604100Y-90415980D02*
G01*
X128623300Y-90415980D01*
X128623300Y-89045180D01*
X129604100Y-89045180D01*
X129604100Y-90415980D01*
X129604100Y-90415980D01*
G37*
G36*
X121282649Y-88864689D02*
G01*
X121331002Y-88874307D01*
X121399319Y-88902605D01*
X121460805Y-88943689D01*
X121513091Y-88995975D01*
X121554175Y-89057461D01*
X121582473Y-89125778D01*
X121596900Y-89198307D01*
X121596900Y-89272253D01*
X121582473Y-89344782D01*
X121554175Y-89413099D01*
X121513091Y-89474585D01*
X121460805Y-89526871D01*
X121399319Y-89567955D01*
X121331002Y-89596253D01*
X121282649Y-89605871D01*
X121258474Y-89610680D01*
X121184526Y-89610680D01*
X121160351Y-89605871D01*
X121111998Y-89596253D01*
X121043681Y-89567955D01*
X120982195Y-89526871D01*
X120929909Y-89474585D01*
X120888825Y-89413099D01*
X120860527Y-89344782D01*
X120846100Y-89272253D01*
X120846100Y-89198307D01*
X120860527Y-89125778D01*
X120888825Y-89057461D01*
X120929909Y-88995975D01*
X120982195Y-88943689D01*
X121043681Y-88902605D01*
X121111998Y-88874307D01*
X121160351Y-88864689D01*
X121184526Y-88859880D01*
X121258474Y-88859880D01*
X121282649Y-88864689D01*
X121282649Y-88864689D01*
G37*
G36*
X122806649Y-88864689D02*
G01*
X122855002Y-88874307D01*
X122923319Y-88902605D01*
X122984805Y-88943689D01*
X123037091Y-88995975D01*
X123078175Y-89057461D01*
X123106473Y-89125778D01*
X123120900Y-89198307D01*
X123120900Y-89272253D01*
X123106473Y-89344782D01*
X123078175Y-89413099D01*
X123037091Y-89474585D01*
X122984805Y-89526871D01*
X122923319Y-89567955D01*
X122855002Y-89596253D01*
X122806649Y-89605871D01*
X122782474Y-89610680D01*
X122708526Y-89610680D01*
X122684351Y-89605871D01*
X122635998Y-89596253D01*
X122567681Y-89567955D01*
X122506195Y-89526871D01*
X122453909Y-89474585D01*
X122412825Y-89413099D01*
X122384527Y-89344782D01*
X122370100Y-89272253D01*
X122370100Y-89198307D01*
X122384527Y-89125778D01*
X122412825Y-89057461D01*
X122453909Y-88995975D01*
X122506195Y-88943689D01*
X122567681Y-88902605D01*
X122635998Y-88874307D01*
X122684351Y-88864689D01*
X122708526Y-88859880D01*
X122782474Y-88859880D01*
X122806649Y-88864689D01*
X122806649Y-88864689D01*
G37*
G36*
X119505620Y-89497500D02*
G01*
X118964820Y-89497500D01*
X118964820Y-88886700D01*
X119505620Y-88886700D01*
X119505620Y-89497500D01*
X119505620Y-89497500D01*
G37*
G36*
X120415620Y-89497500D02*
G01*
X119874820Y-89497500D01*
X119874820Y-88886700D01*
X120415620Y-88886700D01*
X120415620Y-89497500D01*
X120415620Y-89497500D01*
G37*
M02*
