G04 #@! TF.GenerationSoftware,KiCad,Pcbnew,(5.1.0)-1*
G04 #@! TF.CreationDate,2019-09-19T19:12:12-07:00*
G04 #@! TF.ProjectId,WireFreeV4_Release,57697265-4672-4656-9556-345f52656c65,rev?*
G04 #@! TF.SameCoordinates,Original*
G04 #@! TF.FileFunction,Paste,Top*
G04 #@! TF.FilePolarity,Positive*
%FSLAX46Y46*%
G04 Gerber Fmt 4.6, Leading zero omitted, Abs format (unit mm)*
G04 Created by KiCad (PCBNEW (5.1.0)-1) date 2019-09-19 19:12:12*
%MOMM*%
%LPD*%
G04 APERTURE LIST*
%ADD10C,0.370000*%
%ADD11C,0.508000*%
%ADD12R,1.320800X0.812800*%
%ADD13R,0.900000X1.400000*%
%ADD14R,0.700000X1.000000*%
%ADD15R,1.200000X1.450000*%
%ADD16R,1.000000X0.700000*%
%ADD17R,1.200000X1.150000*%
%ADD18R,0.580000X0.630000*%
G04 APERTURE END LIST*
D10*
X124864400Y-91738220D03*
X125664400Y-91738220D03*
X126464400Y-91738220D03*
X127264400Y-91738220D03*
X128064400Y-91738220D03*
X128864400Y-91738220D03*
X129664400Y-91738220D03*
X130464400Y-91738220D03*
X131264400Y-91738220D03*
X132064400Y-91738220D03*
X124864400Y-92538220D03*
X125664400Y-92538220D03*
X126464400Y-92538220D03*
X127264400Y-92538220D03*
X128064400Y-92538220D03*
X128864400Y-92538220D03*
X129664400Y-92538220D03*
X130464400Y-92538220D03*
X131264400Y-92538220D03*
X132064400Y-92538220D03*
X124864400Y-93338220D03*
X125664400Y-93338220D03*
X126464400Y-93338220D03*
X127264400Y-93338220D03*
X128064400Y-93338220D03*
X128864400Y-93338220D03*
X129664400Y-93338220D03*
X130464400Y-93338220D03*
X131264400Y-93338220D03*
X132064400Y-93338220D03*
X124864400Y-94138220D03*
X125664400Y-94138220D03*
X126464400Y-94138220D03*
X127264400Y-94138220D03*
X128064400Y-94138220D03*
X128864400Y-94138220D03*
X129664400Y-94138220D03*
X130464400Y-94138220D03*
X131264400Y-94138220D03*
X132064400Y-94138220D03*
X124864400Y-94938220D03*
X125664400Y-94938220D03*
X126464400Y-94938220D03*
X127264400Y-94938220D03*
X128064400Y-94938220D03*
X128864400Y-94938220D03*
X129664400Y-94938220D03*
X130464400Y-94938220D03*
X131264400Y-94938220D03*
X132064400Y-94938220D03*
X124864400Y-95738220D03*
X125664400Y-95738220D03*
X126464400Y-95738220D03*
X127264400Y-95738220D03*
X128064400Y-95738220D03*
X128864400Y-95738220D03*
X129664400Y-95738220D03*
X130464400Y-95738220D03*
X131264400Y-95738220D03*
X132064400Y-95738220D03*
X124864400Y-96538220D03*
X125664400Y-96538220D03*
X126464400Y-96538220D03*
X127264400Y-96538220D03*
X128064400Y-96538220D03*
X128864400Y-96538220D03*
X129664400Y-96538220D03*
X130464400Y-96538220D03*
X131264400Y-96538220D03*
X132064400Y-96538220D03*
X124864400Y-97338220D03*
X125664400Y-97338220D03*
X126464400Y-97338220D03*
X127264400Y-97338220D03*
X128064400Y-97338220D03*
X128864400Y-97338220D03*
X129664400Y-97338220D03*
X130464400Y-97338220D03*
X131264400Y-97338220D03*
X132064400Y-97338220D03*
X124864400Y-98138220D03*
X125664400Y-98138220D03*
X126464400Y-98138220D03*
X127264400Y-98138220D03*
X128064400Y-98138220D03*
X128864400Y-98138220D03*
X129664400Y-98138220D03*
X130464400Y-98138220D03*
X131264400Y-98138220D03*
X132064400Y-98138220D03*
X124864400Y-98938220D03*
X125664400Y-98938220D03*
X126464400Y-98938220D03*
X127264400Y-98938220D03*
X128064400Y-98938220D03*
X128864400Y-98938220D03*
X129664400Y-98938220D03*
X130464400Y-98938220D03*
X131264400Y-98938220D03*
X132064400Y-98938220D03*
D11*
X134858759Y-89049860D03*
X134376160Y-89659460D03*
X133893550Y-89049860D03*
X133410951Y-89659460D03*
X132928351Y-89049860D03*
X132445752Y-89659460D03*
X131963152Y-89049860D03*
X131480553Y-89659460D03*
X130997953Y-89049860D03*
X130515354Y-89659460D03*
X130032754Y-89049860D03*
X129550155Y-89659460D03*
X129067555Y-89049860D03*
X128584956Y-89659460D03*
X128102356Y-89049860D03*
X127619757Y-89659460D03*
X127137157Y-89049860D03*
X126654558Y-89659460D03*
X126171958Y-89049860D03*
X125689359Y-89659460D03*
X125206759Y-89049860D03*
X124724160Y-89659460D03*
D12*
X134927340Y-98884740D03*
X134927340Y-100027740D03*
D13*
X122725500Y-89496000D03*
D14*
X121575500Y-89296000D03*
D15*
X120425500Y-89521000D03*
D16*
X118935500Y-91146000D03*
X118935500Y-92246000D03*
X118935500Y-97746000D03*
X118935500Y-96646000D03*
X118935500Y-93346000D03*
X118935500Y-94446000D03*
X118935500Y-95546000D03*
X118935500Y-98846000D03*
D17*
X119985500Y-99921000D03*
X122575500Y-99921000D03*
D11*
X135333740Y-92433140D03*
X134724140Y-92915739D03*
X135333740Y-93398339D03*
X134724140Y-93880938D03*
X135333740Y-94363538D03*
D18*
X135214860Y-97487740D03*
X134324860Y-97487740D03*
X135214860Y-96563180D03*
X134324860Y-96563180D03*
M02*
