G04 #@! TF.GenerationSoftware,KiCad,Pcbnew,(5.1.5)-3*
G04 #@! TF.CreationDate,2020-09-24T19:31:20+09:00*
G04 #@! TF.ProjectId,WF_Board,57465f42-6f61-4726-942e-6b696361645f,rev?*
G04 #@! TF.SameCoordinates,Original*
G04 #@! TF.FileFunction,Profile,NP*
%FSLAX46Y46*%
G04 Gerber Fmt 4.6, Leading zero omitted, Abs format (unit mm)*
G04 Created by KiCad (PCBNEW (5.1.5)-3) date 2020-09-24 19:31:20*
%MOMM*%
%LPD*%
G04 APERTURE LIST*
%ADD10C,0.050000*%
G04 APERTURE END LIST*
D10*
X100000000Y-127000000D02*
X100000000Y-67000000D01*
X177000000Y-127000000D02*
X100000000Y-127000000D01*
X177000000Y-67000000D02*
X177000000Y-127000000D01*
X100000000Y-67000000D02*
X177000000Y-67000000D01*
X161000000Y-87460340D02*
X161000000Y-94460340D01*
X146000000Y-85460340D02*
X146000000Y-96460340D01*
X161000000Y-94460340D02*
G75*
G02X160000000Y-95460340I-1000000J0D01*
G01*
X146000000Y-85460340D02*
G75*
G02X147000000Y-84460340I1000000J0D01*
G01*
X147000000Y-97460340D02*
G75*
G02X146000000Y-96460340I0J1000000D01*
G01*
X160000000Y-86460340D02*
G75*
G02X161000000Y-87460340I0J-1000000D01*
G01*
X157800000Y-95460340D02*
X160000000Y-95460340D01*
X157800000Y-86460340D02*
X160000000Y-86460340D01*
X151050000Y-84460340D02*
X147000000Y-84460340D01*
X151050000Y-97460340D02*
X147000000Y-97460340D01*
X152050000Y-96460340D02*
G75*
G02X151050000Y-97460340I-1000000J0D01*
G01*
X152050000Y-96460340D02*
G75*
G02X153050000Y-95460340I1000000J0D01*
G01*
X151050000Y-84460340D02*
G75*
G02X152050000Y-85460340I0J-1000000D01*
G01*
X153050000Y-86460340D02*
G75*
G02X152050000Y-85460340I0J1000000D01*
G01*
X121863200Y-117000000D02*
X143179880Y-117000000D01*
X143179880Y-100000000D02*
X121863200Y-100000000D01*
X144179880Y-116000000D02*
G75*
G02X143179880Y-117000000I-1000000J0D01*
G01*
X120863200Y-101000000D02*
G75*
G02X121863200Y-100000000I1000000J0D01*
G01*
X121863200Y-117000000D02*
G75*
G02X120863200Y-116000000I0J1000000D01*
G01*
X143179880Y-100000000D02*
G75*
G02X144179880Y-101000000I0J-1000000D01*
G01*
X144179880Y-111375000D02*
X144179880Y-116000000D01*
X120863200Y-111225000D02*
X120863200Y-116000000D01*
X120863200Y-105725000D02*
X120863200Y-101000000D01*
X144179880Y-105850000D02*
X144179880Y-101000000D01*
X144000000Y-84962380D02*
X144000000Y-98462380D01*
X143000000Y-83962380D02*
G75*
G02X144000000Y-84962380I0J-1000000D01*
G01*
X138050000Y-83962380D02*
X143000000Y-83962380D01*
X144000000Y-98462380D02*
G75*
G02X143000000Y-99462380I-1000000J0D01*
G01*
X137525000Y-99462380D02*
X143000000Y-99462380D01*
X126000000Y-98462380D02*
X126000000Y-84962380D01*
X127000000Y-99462380D02*
G75*
G02X126000000Y-98462380I0J1000000D01*
G01*
X132025000Y-99462380D02*
X127000000Y-99462380D01*
X132475000Y-83962380D02*
X127000000Y-83962380D01*
X126000000Y-84962380D02*
G75*
G02X127000000Y-83962380I1000000J0D01*
G01*
X152315940Y-93460340D02*
X153050000Y-93460340D01*
X152315940Y-88460340D02*
X153050000Y-88460340D01*
X142179880Y-101960420D02*
X142179880Y-105850000D01*
X122863200Y-101960420D02*
X122863200Y-105725000D01*
X132025000Y-97462380D02*
X128113920Y-97462380D01*
X153050000Y-93460340D02*
G75*
G02X153050000Y-95460340I0J-1000000D01*
G01*
X157800000Y-88460340D02*
G75*
G02X157800000Y-86460340I0J1000000D01*
G01*
X138050000Y-85962380D02*
G75*
G02X138050000Y-83962380I0J1000000D01*
G01*
X132025000Y-97462380D02*
G75*
G02X132025000Y-99462380I0J-1000000D01*
G01*
X142179880Y-111375000D02*
G75*
G02X144179880Y-111375000I1000000J0D01*
G01*
X122863200Y-105725000D02*
G75*
G02X120863200Y-105725000I-1000000J0D01*
G01*
X157800000Y-95460340D02*
G75*
G02X157800000Y-93460340I0J1000000D01*
G01*
X153050000Y-86460340D02*
G75*
G02X153050000Y-88460340I0J-1000000D01*
G01*
X132475000Y-83962380D02*
G75*
G02X132475000Y-85962380I0J-1000000D01*
G01*
X137525000Y-99462380D02*
G75*
G02X137525000Y-97462380I0J1000000D01*
G01*
X144179880Y-105850000D02*
G75*
G02X142179880Y-105850000I-1000000J0D01*
G01*
X120863200Y-111225000D02*
G75*
G02X122863200Y-111225000I1000000J0D01*
G01*
X158315940Y-88460340D02*
X158315940Y-93460340D01*
X141613920Y-92989400D02*
X141613920Y-93962380D01*
X141613920Y-88930480D02*
X141613920Y-87962380D01*
X142384780Y-89702640D02*
X141613920Y-88930480D01*
X142384780Y-92222320D02*
X141613920Y-92989400D01*
X142384780Y-89702640D02*
X142384780Y-92222320D01*
X147815940Y-88460340D02*
X147815940Y-93460340D01*
X141613920Y-97462380D02*
X137525000Y-97462380D01*
X142179880Y-101960420D02*
X122863200Y-101960420D01*
X141868880Y-114434360D02*
X140368880Y-114434360D01*
X142179880Y-114434360D02*
X141868880Y-114434360D01*
X149315940Y-87460340D02*
G75*
G02X148315940Y-88460340I-1000000J0D01*
G01*
X152315940Y-88460340D02*
G75*
G02X151315940Y-87460340I0J1000000D01*
G01*
X151315940Y-94460340D02*
G75*
G02X152315940Y-93460340I1000000J0D01*
G01*
X148315940Y-93460340D02*
G75*
G02X149315940Y-94460340I0J-1000000D01*
G01*
X138050000Y-85962380D02*
X141613920Y-85962380D01*
X128114920Y-85962380D02*
X128113920Y-97462380D01*
X142179880Y-111375000D02*
X142179880Y-114434360D01*
X122863200Y-114434360D02*
X140368880Y-114434360D01*
X122863200Y-111225000D02*
X122863200Y-114434360D01*
X141613920Y-97462380D02*
X141613920Y-93962380D01*
X128114920Y-85962380D02*
X132475000Y-85962380D01*
X141613920Y-87962380D02*
X141613920Y-85962380D01*
X148315940Y-88460340D02*
X147815940Y-88460340D01*
X149315940Y-87460340D02*
G75*
G02X151315940Y-87460340I1000000J0D01*
G01*
X148315940Y-93460340D02*
X147815940Y-93460340D01*
X151315940Y-94460340D02*
G75*
G02X149315940Y-94460340I-1000000J0D01*
G01*
X157800000Y-88460340D02*
X158315940Y-88460340D01*
X158315940Y-93460340D02*
X157800000Y-93460340D01*
M02*
