G04 #@! TF.GenerationSoftware,KiCad,Pcbnew,(5.1.5)-3*
G04 #@! TF.CreationDate,2020-09-26T11:14:37+09:00*
G04 #@! TF.ProjectId,WF_Board,57465f42-6f61-4726-942e-6b696361645f,rev?*
G04 #@! TF.SameCoordinates,Original*
G04 #@! TF.FileFunction,Profile,NP*
%FSLAX46Y46*%
G04 Gerber Fmt 4.6, Leading zero omitted, Abs format (unit mm)*
G04 Created by KiCad (PCBNEW (5.1.5)-3) date 2020-09-26 11:14:37*
%MOMM*%
%LPD*%
G04 APERTURE LIST*
%ADD10C,0.050000*%
G04 APERTURE END LIST*
D10*
X143986080Y-98563980D02*
X143986080Y-97300000D01*
X141613920Y-97300000D02*
G75*
G02X143986080Y-97300000I1186080J0D01*
G01*
X143986080Y-93040000D02*
G75*
G02X141613920Y-93040000I-1186080J0D01*
G01*
X126113920Y-97100000D02*
X126110000Y-98563980D01*
X126113920Y-97100000D02*
G75*
G02X128113920Y-97100000I1000000J0D01*
G01*
X128113920Y-97563980D02*
X128113920Y-97100000D01*
X128114920Y-91600000D02*
G75*
G02X126114920Y-91600000I-1000000J0D01*
G01*
X126110000Y-84962380D02*
G75*
G02X127110000Y-83962380I1000000J0D01*
G01*
X108000000Y-120000000D02*
X108000000Y-70000000D01*
X169000000Y-120000000D02*
X108000000Y-120000000D01*
X169000000Y-70000000D02*
X169000000Y-120000000D01*
X108000000Y-70000000D02*
X169000000Y-70000000D01*
X161000000Y-87460340D02*
X161000000Y-94460340D01*
X146000000Y-85460340D02*
X146000000Y-96460340D01*
X161000000Y-94460340D02*
G75*
G02X160000000Y-95460340I-1000000J0D01*
G01*
X146000000Y-85460340D02*
G75*
G02X147000000Y-84460340I1000000J0D01*
G01*
X147000000Y-97460340D02*
G75*
G02X146000000Y-96460340I0J1000000D01*
G01*
X160000000Y-86460340D02*
G75*
G02X161000000Y-87460340I0J-1000000D01*
G01*
X157800000Y-95460340D02*
X160000000Y-95460340D01*
X157800000Y-86460340D02*
X160000000Y-86460340D01*
X151050000Y-84460340D02*
X147000000Y-84460340D01*
X151050000Y-97460340D02*
X147000000Y-97460340D01*
X152050000Y-96460340D02*
G75*
G02X151050000Y-97460340I-1000000J0D01*
G01*
X152050000Y-96460340D02*
G75*
G02X153050000Y-95460340I1000000J0D01*
G01*
X151050000Y-84460340D02*
G75*
G02X152050000Y-85460340I0J-1000000D01*
G01*
X153050000Y-86460340D02*
G75*
G02X152050000Y-85460340I0J1000000D01*
G01*
X121863200Y-117000000D02*
X143179880Y-117000000D01*
X143179880Y-100000000D02*
X121863200Y-100000000D01*
X144179880Y-116000000D02*
G75*
G02X143179880Y-117000000I-1000000J0D01*
G01*
X120863200Y-101000000D02*
G75*
G02X121863200Y-100000000I1000000J0D01*
G01*
X121863200Y-117000000D02*
G75*
G02X120863200Y-116000000I0J1000000D01*
G01*
X143179880Y-100000000D02*
G75*
G02X144179880Y-101000000I0J-1000000D01*
G01*
X144179880Y-111375000D02*
X144179880Y-116000000D01*
X120863200Y-111225000D02*
X120863200Y-116000000D01*
X120863200Y-105725000D02*
X120863200Y-101000000D01*
X144179880Y-105850000D02*
X144179880Y-101000000D01*
X143986080Y-84962380D02*
X143986080Y-93040000D01*
X142986080Y-83962380D02*
G75*
G02X143986080Y-84962380I0J-1000000D01*
G01*
X138050000Y-83962380D02*
X142986080Y-83962380D01*
X143986080Y-98563980D02*
G75*
G02X142986080Y-99563980I-1000000J0D01*
G01*
X127110000Y-99563980D02*
X142986080Y-99563980D01*
X126114920Y-91600000D02*
X126110000Y-84962380D01*
X127110000Y-99563980D02*
G75*
G02X126110000Y-98563980I0J1000000D01*
G01*
X138050000Y-83962380D02*
X127110000Y-83962380D01*
X152315940Y-93460340D02*
X153050000Y-93460340D01*
X152315940Y-88460340D02*
X153050000Y-88460340D01*
X142179880Y-101960420D02*
X142179880Y-105850000D01*
X122863200Y-101960420D02*
X122863200Y-105725000D01*
X153050000Y-93460340D02*
G75*
G02X153050000Y-95460340I0J-1000000D01*
G01*
X157800000Y-88460340D02*
G75*
G02X157800000Y-86460340I0J1000000D01*
G01*
X142179880Y-111375000D02*
G75*
G02X144179880Y-111375000I1000000J0D01*
G01*
X122863200Y-105725000D02*
G75*
G02X120863200Y-105725000I-1000000J0D01*
G01*
X157800000Y-95460340D02*
G75*
G02X157800000Y-93460340I0J1000000D01*
G01*
X153050000Y-86460340D02*
G75*
G02X153050000Y-88460340I0J-1000000D01*
G01*
X144179880Y-105850000D02*
G75*
G02X142179880Y-105850000I-1000000J0D01*
G01*
X120863200Y-111225000D02*
G75*
G02X122863200Y-111225000I1000000J0D01*
G01*
X158442940Y-88460340D02*
X158442940Y-93460340D01*
X141613920Y-92989400D02*
X141613920Y-93040000D01*
X141613920Y-88930480D02*
X141613920Y-87962380D01*
X142511780Y-89702640D02*
X141613920Y-88930480D01*
X142511780Y-92222320D02*
X141613920Y-92989400D01*
X142511780Y-89702640D02*
X142511780Y-92222320D01*
X147688940Y-88460340D02*
X147688940Y-93460340D01*
X141613920Y-97563980D02*
X128113920Y-97563980D01*
X142179880Y-101960420D02*
X122863200Y-101960420D01*
X141868880Y-114434360D02*
X140368880Y-114434360D01*
X142179880Y-114434360D02*
X141868880Y-114434360D01*
X149315940Y-87460340D02*
G75*
G02X148315940Y-88460340I-1000000J0D01*
G01*
X152315940Y-88460340D02*
G75*
G02X151315940Y-87460340I0J1000000D01*
G01*
X151315940Y-94460340D02*
G75*
G02X152315940Y-93460340I1000000J0D01*
G01*
X148315940Y-93460340D02*
G75*
G02X149315940Y-94460340I0J-1000000D01*
G01*
X138050000Y-85860780D02*
X141613920Y-85860780D01*
X128114920Y-85860780D02*
X128114920Y-91600000D01*
X142179880Y-111375000D02*
X142179880Y-114434360D01*
X122863200Y-114434360D02*
X140368880Y-114434360D01*
X122863200Y-111225000D02*
X122863200Y-114434360D01*
X141613920Y-97563980D02*
X141613920Y-97300000D01*
X128114920Y-85860780D02*
X138050000Y-85860780D01*
X141613920Y-87962380D02*
X141613920Y-85860780D01*
X148315940Y-88460340D02*
X147688940Y-88460340D01*
X149315940Y-87460340D02*
G75*
G02X151315940Y-87460340I1000000J0D01*
G01*
X148315940Y-93460340D02*
X147688940Y-93460340D01*
X151315940Y-94460340D02*
G75*
G02X149315940Y-94460340I-1000000J0D01*
G01*
X157800000Y-88460340D02*
X158442940Y-88460340D01*
X158442940Y-93460340D02*
X157800000Y-93460340D01*
M02*
