G04 #@! TF.GenerationSoftware,KiCad,Pcbnew,(5.1.5)-3*
G04 #@! TF.CreationDate,2020-09-29T09:43:07+09:00*
G04 #@! TF.ProjectId,WF_Board,57465f42-6f61-4726-942e-6b696361645f,rev?*
G04 #@! TF.SameCoordinates,Original*
G04 #@! TF.FileFunction,Paste,Top*
G04 #@! TF.FilePolarity,Positive*
%FSLAX46Y46*%
G04 Gerber Fmt 4.6, Leading zero omitted, Abs format (unit mm)*
G04 Created by KiCad (PCBNEW (5.1.5)-3) date 2020-09-29 09:43:07*
%MOMM*%
%LPD*%
G04 APERTURE LIST*
%ADD10R,0.900000X1.200000*%
%ADD11C,0.100000*%
%ADD12R,0.900000X1.400000*%
%ADD13R,0.700000X1.000000*%
%ADD14R,1.200000X1.450000*%
%ADD15R,1.000000X0.700000*%
%ADD16R,1.200000X1.150000*%
%ADD17R,0.200000X1.000000*%
%ADD18R,1.000000X0.200000*%
%ADD19R,0.640000X2.390000*%
%ADD20R,0.640000X0.270000*%
%ADD21R,0.220000X0.610000*%
%ADD22R,0.610000X0.220000*%
%ADD23C,0.370000*%
%ADD24R,0.810000X0.370000*%
%ADD25R,0.340000X0.990000*%
%ADD26R,0.830000X0.880000*%
%ADD27R,0.170000X0.280000*%
%ADD28R,0.520000X0.280000*%
G04 APERTURE END LIST*
D10*
X154994940Y-90180540D03*
X153724940Y-90180540D03*
X154994940Y-91750540D03*
X153724940Y-91750540D03*
D11*
G36*
X156472781Y-89505925D02*
G01*
X156480547Y-89507077D01*
X156488163Y-89508985D01*
X156495555Y-89511630D01*
X156502652Y-89514986D01*
X156509386Y-89519022D01*
X156515691Y-89523699D01*
X156521509Y-89528971D01*
X156526781Y-89534789D01*
X156531458Y-89541094D01*
X156535494Y-89547828D01*
X156538850Y-89554925D01*
X156541495Y-89562317D01*
X156543403Y-89569933D01*
X156544555Y-89577699D01*
X156544940Y-89585540D01*
X156544940Y-89745540D01*
X156544555Y-89753381D01*
X156543403Y-89761147D01*
X156541495Y-89768763D01*
X156538850Y-89776155D01*
X156535494Y-89783252D01*
X156531458Y-89789986D01*
X156526781Y-89796291D01*
X156521509Y-89802109D01*
X156515691Y-89807381D01*
X156509386Y-89812058D01*
X156502652Y-89816094D01*
X156495555Y-89819450D01*
X156488163Y-89822095D01*
X156480547Y-89824003D01*
X156472781Y-89825155D01*
X156464940Y-89825540D01*
X155924940Y-89825540D01*
X155917099Y-89825155D01*
X155909333Y-89824003D01*
X155901717Y-89822095D01*
X155894325Y-89819450D01*
X155887228Y-89816094D01*
X155880494Y-89812058D01*
X155874189Y-89807381D01*
X155868371Y-89802109D01*
X155863099Y-89796291D01*
X155858422Y-89789986D01*
X155854386Y-89783252D01*
X155851030Y-89776155D01*
X155848385Y-89768763D01*
X155846477Y-89761147D01*
X155845325Y-89753381D01*
X155844940Y-89745540D01*
X155844940Y-89585540D01*
X155845325Y-89577699D01*
X155846477Y-89569933D01*
X155848385Y-89562317D01*
X155851030Y-89554925D01*
X155854386Y-89547828D01*
X155858422Y-89541094D01*
X155863099Y-89534789D01*
X155868371Y-89528971D01*
X155874189Y-89523699D01*
X155880494Y-89519022D01*
X155887228Y-89514986D01*
X155894325Y-89511630D01*
X155901717Y-89508985D01*
X155909333Y-89507077D01*
X155917099Y-89505925D01*
X155924940Y-89505540D01*
X156464940Y-89505540D01*
X156472781Y-89505925D01*
G37*
G36*
X156472781Y-90155925D02*
G01*
X156480547Y-90157077D01*
X156488163Y-90158985D01*
X156495555Y-90161630D01*
X156502652Y-90164986D01*
X156509386Y-90169022D01*
X156515691Y-90173699D01*
X156521509Y-90178971D01*
X156526781Y-90184789D01*
X156531458Y-90191094D01*
X156535494Y-90197828D01*
X156538850Y-90204925D01*
X156541495Y-90212317D01*
X156543403Y-90219933D01*
X156544555Y-90227699D01*
X156544940Y-90235540D01*
X156544940Y-90395540D01*
X156544555Y-90403381D01*
X156543403Y-90411147D01*
X156541495Y-90418763D01*
X156538850Y-90426155D01*
X156535494Y-90433252D01*
X156531458Y-90439986D01*
X156526781Y-90446291D01*
X156521509Y-90452109D01*
X156515691Y-90457381D01*
X156509386Y-90462058D01*
X156502652Y-90466094D01*
X156495555Y-90469450D01*
X156488163Y-90472095D01*
X156480547Y-90474003D01*
X156472781Y-90475155D01*
X156464940Y-90475540D01*
X155924940Y-90475540D01*
X155917099Y-90475155D01*
X155909333Y-90474003D01*
X155901717Y-90472095D01*
X155894325Y-90469450D01*
X155887228Y-90466094D01*
X155880494Y-90462058D01*
X155874189Y-90457381D01*
X155868371Y-90452109D01*
X155863099Y-90446291D01*
X155858422Y-90439986D01*
X155854386Y-90433252D01*
X155851030Y-90426155D01*
X155848385Y-90418763D01*
X155846477Y-90411147D01*
X155845325Y-90403381D01*
X155844940Y-90395540D01*
X155844940Y-90235540D01*
X155845325Y-90227699D01*
X155846477Y-90219933D01*
X155848385Y-90212317D01*
X155851030Y-90204925D01*
X155854386Y-90197828D01*
X155858422Y-90191094D01*
X155863099Y-90184789D01*
X155868371Y-90178971D01*
X155874189Y-90173699D01*
X155880494Y-90169022D01*
X155887228Y-90164986D01*
X155894325Y-90161630D01*
X155901717Y-90158985D01*
X155909333Y-90157077D01*
X155917099Y-90155925D01*
X155924940Y-90155540D01*
X156464940Y-90155540D01*
X156472781Y-90155925D01*
G37*
G36*
X156472781Y-90805925D02*
G01*
X156480547Y-90807077D01*
X156488163Y-90808985D01*
X156495555Y-90811630D01*
X156502652Y-90814986D01*
X156509386Y-90819022D01*
X156515691Y-90823699D01*
X156521509Y-90828971D01*
X156526781Y-90834789D01*
X156531458Y-90841094D01*
X156535494Y-90847828D01*
X156538850Y-90854925D01*
X156541495Y-90862317D01*
X156543403Y-90869933D01*
X156544555Y-90877699D01*
X156544940Y-90885540D01*
X156544940Y-91045540D01*
X156544555Y-91053381D01*
X156543403Y-91061147D01*
X156541495Y-91068763D01*
X156538850Y-91076155D01*
X156535494Y-91083252D01*
X156531458Y-91089986D01*
X156526781Y-91096291D01*
X156521509Y-91102109D01*
X156515691Y-91107381D01*
X156509386Y-91112058D01*
X156502652Y-91116094D01*
X156495555Y-91119450D01*
X156488163Y-91122095D01*
X156480547Y-91124003D01*
X156472781Y-91125155D01*
X156464940Y-91125540D01*
X155924940Y-91125540D01*
X155917099Y-91125155D01*
X155909333Y-91124003D01*
X155901717Y-91122095D01*
X155894325Y-91119450D01*
X155887228Y-91116094D01*
X155880494Y-91112058D01*
X155874189Y-91107381D01*
X155868371Y-91102109D01*
X155863099Y-91096291D01*
X155858422Y-91089986D01*
X155854386Y-91083252D01*
X155851030Y-91076155D01*
X155848385Y-91068763D01*
X155846477Y-91061147D01*
X155845325Y-91053381D01*
X155844940Y-91045540D01*
X155844940Y-90885540D01*
X155845325Y-90877699D01*
X155846477Y-90869933D01*
X155848385Y-90862317D01*
X155851030Y-90854925D01*
X155854386Y-90847828D01*
X155858422Y-90841094D01*
X155863099Y-90834789D01*
X155868371Y-90828971D01*
X155874189Y-90823699D01*
X155880494Y-90819022D01*
X155887228Y-90814986D01*
X155894325Y-90811630D01*
X155901717Y-90808985D01*
X155909333Y-90807077D01*
X155917099Y-90805925D01*
X155924940Y-90805540D01*
X156464940Y-90805540D01*
X156472781Y-90805925D01*
G37*
G36*
X156472781Y-91455925D02*
G01*
X156480547Y-91457077D01*
X156488163Y-91458985D01*
X156495555Y-91461630D01*
X156502652Y-91464986D01*
X156509386Y-91469022D01*
X156515691Y-91473699D01*
X156521509Y-91478971D01*
X156526781Y-91484789D01*
X156531458Y-91491094D01*
X156535494Y-91497828D01*
X156538850Y-91504925D01*
X156541495Y-91512317D01*
X156543403Y-91519933D01*
X156544555Y-91527699D01*
X156544940Y-91535540D01*
X156544940Y-91695540D01*
X156544555Y-91703381D01*
X156543403Y-91711147D01*
X156541495Y-91718763D01*
X156538850Y-91726155D01*
X156535494Y-91733252D01*
X156531458Y-91739986D01*
X156526781Y-91746291D01*
X156521509Y-91752109D01*
X156515691Y-91757381D01*
X156509386Y-91762058D01*
X156502652Y-91766094D01*
X156495555Y-91769450D01*
X156488163Y-91772095D01*
X156480547Y-91774003D01*
X156472781Y-91775155D01*
X156464940Y-91775540D01*
X155924940Y-91775540D01*
X155917099Y-91775155D01*
X155909333Y-91774003D01*
X155901717Y-91772095D01*
X155894325Y-91769450D01*
X155887228Y-91766094D01*
X155880494Y-91762058D01*
X155874189Y-91757381D01*
X155868371Y-91752109D01*
X155863099Y-91746291D01*
X155858422Y-91739986D01*
X155854386Y-91733252D01*
X155851030Y-91726155D01*
X155848385Y-91718763D01*
X155846477Y-91711147D01*
X155845325Y-91703381D01*
X155844940Y-91695540D01*
X155844940Y-91535540D01*
X155845325Y-91527699D01*
X155846477Y-91519933D01*
X155848385Y-91512317D01*
X155851030Y-91504925D01*
X155854386Y-91497828D01*
X155858422Y-91491094D01*
X155863099Y-91484789D01*
X155868371Y-91478971D01*
X155874189Y-91473699D01*
X155880494Y-91469022D01*
X155887228Y-91464986D01*
X155894325Y-91461630D01*
X155901717Y-91458985D01*
X155909333Y-91457077D01*
X155917099Y-91455925D01*
X155924940Y-91455540D01*
X156464940Y-91455540D01*
X156472781Y-91455925D01*
G37*
G36*
X156472781Y-92105925D02*
G01*
X156480547Y-92107077D01*
X156488163Y-92108985D01*
X156495555Y-92111630D01*
X156502652Y-92114986D01*
X156509386Y-92119022D01*
X156515691Y-92123699D01*
X156521509Y-92128971D01*
X156526781Y-92134789D01*
X156531458Y-92141094D01*
X156535494Y-92147828D01*
X156538850Y-92154925D01*
X156541495Y-92162317D01*
X156543403Y-92169933D01*
X156544555Y-92177699D01*
X156544940Y-92185540D01*
X156544940Y-92345540D01*
X156544555Y-92353381D01*
X156543403Y-92361147D01*
X156541495Y-92368763D01*
X156538850Y-92376155D01*
X156535494Y-92383252D01*
X156531458Y-92389986D01*
X156526781Y-92396291D01*
X156521509Y-92402109D01*
X156515691Y-92407381D01*
X156509386Y-92412058D01*
X156502652Y-92416094D01*
X156495555Y-92419450D01*
X156488163Y-92422095D01*
X156480547Y-92424003D01*
X156472781Y-92425155D01*
X156464940Y-92425540D01*
X155924940Y-92425540D01*
X155917099Y-92425155D01*
X155909333Y-92424003D01*
X155901717Y-92422095D01*
X155894325Y-92419450D01*
X155887228Y-92416094D01*
X155880494Y-92412058D01*
X155874189Y-92407381D01*
X155868371Y-92402109D01*
X155863099Y-92396291D01*
X155858422Y-92389986D01*
X155854386Y-92383252D01*
X155851030Y-92376155D01*
X155848385Y-92368763D01*
X155846477Y-92361147D01*
X155845325Y-92353381D01*
X155844940Y-92345540D01*
X155844940Y-92185540D01*
X155845325Y-92177699D01*
X155846477Y-92169933D01*
X155848385Y-92162317D01*
X155851030Y-92154925D01*
X155854386Y-92147828D01*
X155858422Y-92141094D01*
X155863099Y-92134789D01*
X155868371Y-92128971D01*
X155874189Y-92123699D01*
X155880494Y-92119022D01*
X155887228Y-92114986D01*
X155894325Y-92111630D01*
X155901717Y-92108985D01*
X155909333Y-92107077D01*
X155917099Y-92105925D01*
X155924940Y-92105540D01*
X156464940Y-92105540D01*
X156472781Y-92105925D01*
G37*
G36*
X152802781Y-92105925D02*
G01*
X152810547Y-92107077D01*
X152818163Y-92108985D01*
X152825555Y-92111630D01*
X152832652Y-92114986D01*
X152839386Y-92119022D01*
X152845691Y-92123699D01*
X152851509Y-92128971D01*
X152856781Y-92134789D01*
X152861458Y-92141094D01*
X152865494Y-92147828D01*
X152868850Y-92154925D01*
X152871495Y-92162317D01*
X152873403Y-92169933D01*
X152874555Y-92177699D01*
X152874940Y-92185540D01*
X152874940Y-92345540D01*
X152874555Y-92353381D01*
X152873403Y-92361147D01*
X152871495Y-92368763D01*
X152868850Y-92376155D01*
X152865494Y-92383252D01*
X152861458Y-92389986D01*
X152856781Y-92396291D01*
X152851509Y-92402109D01*
X152845691Y-92407381D01*
X152839386Y-92412058D01*
X152832652Y-92416094D01*
X152825555Y-92419450D01*
X152818163Y-92422095D01*
X152810547Y-92424003D01*
X152802781Y-92425155D01*
X152794940Y-92425540D01*
X152254940Y-92425540D01*
X152247099Y-92425155D01*
X152239333Y-92424003D01*
X152231717Y-92422095D01*
X152224325Y-92419450D01*
X152217228Y-92416094D01*
X152210494Y-92412058D01*
X152204189Y-92407381D01*
X152198371Y-92402109D01*
X152193099Y-92396291D01*
X152188422Y-92389986D01*
X152184386Y-92383252D01*
X152181030Y-92376155D01*
X152178385Y-92368763D01*
X152176477Y-92361147D01*
X152175325Y-92353381D01*
X152174940Y-92345540D01*
X152174940Y-92185540D01*
X152175325Y-92177699D01*
X152176477Y-92169933D01*
X152178385Y-92162317D01*
X152181030Y-92154925D01*
X152184386Y-92147828D01*
X152188422Y-92141094D01*
X152193099Y-92134789D01*
X152198371Y-92128971D01*
X152204189Y-92123699D01*
X152210494Y-92119022D01*
X152217228Y-92114986D01*
X152224325Y-92111630D01*
X152231717Y-92108985D01*
X152239333Y-92107077D01*
X152247099Y-92105925D01*
X152254940Y-92105540D01*
X152794940Y-92105540D01*
X152802781Y-92105925D01*
G37*
G36*
X152802781Y-91455925D02*
G01*
X152810547Y-91457077D01*
X152818163Y-91458985D01*
X152825555Y-91461630D01*
X152832652Y-91464986D01*
X152839386Y-91469022D01*
X152845691Y-91473699D01*
X152851509Y-91478971D01*
X152856781Y-91484789D01*
X152861458Y-91491094D01*
X152865494Y-91497828D01*
X152868850Y-91504925D01*
X152871495Y-91512317D01*
X152873403Y-91519933D01*
X152874555Y-91527699D01*
X152874940Y-91535540D01*
X152874940Y-91695540D01*
X152874555Y-91703381D01*
X152873403Y-91711147D01*
X152871495Y-91718763D01*
X152868850Y-91726155D01*
X152865494Y-91733252D01*
X152861458Y-91739986D01*
X152856781Y-91746291D01*
X152851509Y-91752109D01*
X152845691Y-91757381D01*
X152839386Y-91762058D01*
X152832652Y-91766094D01*
X152825555Y-91769450D01*
X152818163Y-91772095D01*
X152810547Y-91774003D01*
X152802781Y-91775155D01*
X152794940Y-91775540D01*
X152254940Y-91775540D01*
X152247099Y-91775155D01*
X152239333Y-91774003D01*
X152231717Y-91772095D01*
X152224325Y-91769450D01*
X152217228Y-91766094D01*
X152210494Y-91762058D01*
X152204189Y-91757381D01*
X152198371Y-91752109D01*
X152193099Y-91746291D01*
X152188422Y-91739986D01*
X152184386Y-91733252D01*
X152181030Y-91726155D01*
X152178385Y-91718763D01*
X152176477Y-91711147D01*
X152175325Y-91703381D01*
X152174940Y-91695540D01*
X152174940Y-91535540D01*
X152175325Y-91527699D01*
X152176477Y-91519933D01*
X152178385Y-91512317D01*
X152181030Y-91504925D01*
X152184386Y-91497828D01*
X152188422Y-91491094D01*
X152193099Y-91484789D01*
X152198371Y-91478971D01*
X152204189Y-91473699D01*
X152210494Y-91469022D01*
X152217228Y-91464986D01*
X152224325Y-91461630D01*
X152231717Y-91458985D01*
X152239333Y-91457077D01*
X152247099Y-91455925D01*
X152254940Y-91455540D01*
X152794940Y-91455540D01*
X152802781Y-91455925D01*
G37*
G36*
X152802781Y-90805925D02*
G01*
X152810547Y-90807077D01*
X152818163Y-90808985D01*
X152825555Y-90811630D01*
X152832652Y-90814986D01*
X152839386Y-90819022D01*
X152845691Y-90823699D01*
X152851509Y-90828971D01*
X152856781Y-90834789D01*
X152861458Y-90841094D01*
X152865494Y-90847828D01*
X152868850Y-90854925D01*
X152871495Y-90862317D01*
X152873403Y-90869933D01*
X152874555Y-90877699D01*
X152874940Y-90885540D01*
X152874940Y-91045540D01*
X152874555Y-91053381D01*
X152873403Y-91061147D01*
X152871495Y-91068763D01*
X152868850Y-91076155D01*
X152865494Y-91083252D01*
X152861458Y-91089986D01*
X152856781Y-91096291D01*
X152851509Y-91102109D01*
X152845691Y-91107381D01*
X152839386Y-91112058D01*
X152832652Y-91116094D01*
X152825555Y-91119450D01*
X152818163Y-91122095D01*
X152810547Y-91124003D01*
X152802781Y-91125155D01*
X152794940Y-91125540D01*
X152254940Y-91125540D01*
X152247099Y-91125155D01*
X152239333Y-91124003D01*
X152231717Y-91122095D01*
X152224325Y-91119450D01*
X152217228Y-91116094D01*
X152210494Y-91112058D01*
X152204189Y-91107381D01*
X152198371Y-91102109D01*
X152193099Y-91096291D01*
X152188422Y-91089986D01*
X152184386Y-91083252D01*
X152181030Y-91076155D01*
X152178385Y-91068763D01*
X152176477Y-91061147D01*
X152175325Y-91053381D01*
X152174940Y-91045540D01*
X152174940Y-90885540D01*
X152175325Y-90877699D01*
X152176477Y-90869933D01*
X152178385Y-90862317D01*
X152181030Y-90854925D01*
X152184386Y-90847828D01*
X152188422Y-90841094D01*
X152193099Y-90834789D01*
X152198371Y-90828971D01*
X152204189Y-90823699D01*
X152210494Y-90819022D01*
X152217228Y-90814986D01*
X152224325Y-90811630D01*
X152231717Y-90808985D01*
X152239333Y-90807077D01*
X152247099Y-90805925D01*
X152254940Y-90805540D01*
X152794940Y-90805540D01*
X152802781Y-90805925D01*
G37*
G36*
X152802781Y-90155925D02*
G01*
X152810547Y-90157077D01*
X152818163Y-90158985D01*
X152825555Y-90161630D01*
X152832652Y-90164986D01*
X152839386Y-90169022D01*
X152845691Y-90173699D01*
X152851509Y-90178971D01*
X152856781Y-90184789D01*
X152861458Y-90191094D01*
X152865494Y-90197828D01*
X152868850Y-90204925D01*
X152871495Y-90212317D01*
X152873403Y-90219933D01*
X152874555Y-90227699D01*
X152874940Y-90235540D01*
X152874940Y-90395540D01*
X152874555Y-90403381D01*
X152873403Y-90411147D01*
X152871495Y-90418763D01*
X152868850Y-90426155D01*
X152865494Y-90433252D01*
X152861458Y-90439986D01*
X152856781Y-90446291D01*
X152851509Y-90452109D01*
X152845691Y-90457381D01*
X152839386Y-90462058D01*
X152832652Y-90466094D01*
X152825555Y-90469450D01*
X152818163Y-90472095D01*
X152810547Y-90474003D01*
X152802781Y-90475155D01*
X152794940Y-90475540D01*
X152254940Y-90475540D01*
X152247099Y-90475155D01*
X152239333Y-90474003D01*
X152231717Y-90472095D01*
X152224325Y-90469450D01*
X152217228Y-90466094D01*
X152210494Y-90462058D01*
X152204189Y-90457381D01*
X152198371Y-90452109D01*
X152193099Y-90446291D01*
X152188422Y-90439986D01*
X152184386Y-90433252D01*
X152181030Y-90426155D01*
X152178385Y-90418763D01*
X152176477Y-90411147D01*
X152175325Y-90403381D01*
X152174940Y-90395540D01*
X152174940Y-90235540D01*
X152175325Y-90227699D01*
X152176477Y-90219933D01*
X152178385Y-90212317D01*
X152181030Y-90204925D01*
X152184386Y-90197828D01*
X152188422Y-90191094D01*
X152193099Y-90184789D01*
X152198371Y-90178971D01*
X152204189Y-90173699D01*
X152210494Y-90169022D01*
X152217228Y-90164986D01*
X152224325Y-90161630D01*
X152231717Y-90158985D01*
X152239333Y-90157077D01*
X152247099Y-90155925D01*
X152254940Y-90155540D01*
X152794940Y-90155540D01*
X152802781Y-90155925D01*
G37*
G36*
X152802781Y-89505925D02*
G01*
X152810547Y-89507077D01*
X152818163Y-89508985D01*
X152825555Y-89511630D01*
X152832652Y-89514986D01*
X152839386Y-89519022D01*
X152845691Y-89523699D01*
X152851509Y-89528971D01*
X152856781Y-89534789D01*
X152861458Y-89541094D01*
X152865494Y-89547828D01*
X152868850Y-89554925D01*
X152871495Y-89562317D01*
X152873403Y-89569933D01*
X152874555Y-89577699D01*
X152874940Y-89585540D01*
X152874940Y-89745540D01*
X152874555Y-89753381D01*
X152873403Y-89761147D01*
X152871495Y-89768763D01*
X152868850Y-89776155D01*
X152865494Y-89783252D01*
X152861458Y-89789986D01*
X152856781Y-89796291D01*
X152851509Y-89802109D01*
X152845691Y-89807381D01*
X152839386Y-89812058D01*
X152832652Y-89816094D01*
X152825555Y-89819450D01*
X152818163Y-89822095D01*
X152810547Y-89824003D01*
X152802781Y-89825155D01*
X152794940Y-89825540D01*
X152254940Y-89825540D01*
X152247099Y-89825155D01*
X152239333Y-89824003D01*
X152231717Y-89822095D01*
X152224325Y-89819450D01*
X152217228Y-89816094D01*
X152210494Y-89812058D01*
X152204189Y-89807381D01*
X152198371Y-89802109D01*
X152193099Y-89796291D01*
X152188422Y-89789986D01*
X152184386Y-89783252D01*
X152181030Y-89776155D01*
X152178385Y-89768763D01*
X152176477Y-89761147D01*
X152175325Y-89753381D01*
X152174940Y-89745540D01*
X152174940Y-89585540D01*
X152175325Y-89577699D01*
X152176477Y-89569933D01*
X152178385Y-89562317D01*
X152181030Y-89554925D01*
X152184386Y-89547828D01*
X152188422Y-89541094D01*
X152193099Y-89534789D01*
X152198371Y-89528971D01*
X152204189Y-89523699D01*
X152210494Y-89519022D01*
X152217228Y-89514986D01*
X152224325Y-89511630D01*
X152231717Y-89508985D01*
X152239333Y-89507077D01*
X152247099Y-89505925D01*
X152254940Y-89505540D01*
X152794940Y-89505540D01*
X152802781Y-89505925D01*
G37*
G36*
X138548016Y-92811153D02*
G01*
X138555539Y-92812269D01*
X138562917Y-92814117D01*
X138570078Y-92816679D01*
X138576953Y-92819931D01*
X138583477Y-92823841D01*
X138589585Y-92828372D01*
X138595221Y-92833479D01*
X138600328Y-92839115D01*
X138604859Y-92845223D01*
X138608769Y-92851747D01*
X138612021Y-92858622D01*
X138614583Y-92865783D01*
X138616431Y-92873161D01*
X138617547Y-92880684D01*
X138617920Y-92888280D01*
X138617920Y-93073280D01*
X138617547Y-93080876D01*
X138616431Y-93088399D01*
X138614583Y-93095777D01*
X138612021Y-93102938D01*
X138608769Y-93109813D01*
X138604859Y-93116337D01*
X138600328Y-93122445D01*
X138595221Y-93128081D01*
X138589585Y-93133188D01*
X138583477Y-93137719D01*
X138576953Y-93141629D01*
X138570078Y-93144881D01*
X138562917Y-93147443D01*
X138555539Y-93149291D01*
X138548016Y-93150407D01*
X138540420Y-93150780D01*
X138385420Y-93150780D01*
X138377824Y-93150407D01*
X138370301Y-93149291D01*
X138362923Y-93147443D01*
X138355762Y-93144881D01*
X138348887Y-93141629D01*
X138342363Y-93137719D01*
X138336255Y-93133188D01*
X138330619Y-93128081D01*
X138325512Y-93122445D01*
X138320981Y-93116337D01*
X138317071Y-93109813D01*
X138313819Y-93102938D01*
X138311257Y-93095777D01*
X138309409Y-93088399D01*
X138308293Y-93080876D01*
X138307920Y-93073280D01*
X138307920Y-92888280D01*
X138308293Y-92880684D01*
X138309409Y-92873161D01*
X138311257Y-92865783D01*
X138313819Y-92858622D01*
X138317071Y-92851747D01*
X138320981Y-92845223D01*
X138325512Y-92839115D01*
X138330619Y-92833479D01*
X138336255Y-92828372D01*
X138342363Y-92823841D01*
X138348887Y-92819931D01*
X138355762Y-92816679D01*
X138362923Y-92814117D01*
X138370301Y-92812269D01*
X138377824Y-92811153D01*
X138385420Y-92810780D01*
X138540420Y-92810780D01*
X138548016Y-92811153D01*
G37*
G36*
X137998016Y-92811153D02*
G01*
X138005539Y-92812269D01*
X138012917Y-92814117D01*
X138020078Y-92816679D01*
X138026953Y-92819931D01*
X138033477Y-92823841D01*
X138039585Y-92828372D01*
X138045221Y-92833479D01*
X138050328Y-92839115D01*
X138054859Y-92845223D01*
X138058769Y-92851747D01*
X138062021Y-92858622D01*
X138064583Y-92865783D01*
X138066431Y-92873161D01*
X138067547Y-92880684D01*
X138067920Y-92888280D01*
X138067920Y-93073280D01*
X138067547Y-93080876D01*
X138066431Y-93088399D01*
X138064583Y-93095777D01*
X138062021Y-93102938D01*
X138058769Y-93109813D01*
X138054859Y-93116337D01*
X138050328Y-93122445D01*
X138045221Y-93128081D01*
X138039585Y-93133188D01*
X138033477Y-93137719D01*
X138026953Y-93141629D01*
X138020078Y-93144881D01*
X138012917Y-93147443D01*
X138005539Y-93149291D01*
X137998016Y-93150407D01*
X137990420Y-93150780D01*
X137835420Y-93150780D01*
X137827824Y-93150407D01*
X137820301Y-93149291D01*
X137812923Y-93147443D01*
X137805762Y-93144881D01*
X137798887Y-93141629D01*
X137792363Y-93137719D01*
X137786255Y-93133188D01*
X137780619Y-93128081D01*
X137775512Y-93122445D01*
X137770981Y-93116337D01*
X137767071Y-93109813D01*
X137763819Y-93102938D01*
X137761257Y-93095777D01*
X137759409Y-93088399D01*
X137758293Y-93080876D01*
X137757920Y-93073280D01*
X137757920Y-92888280D01*
X137758293Y-92880684D01*
X137759409Y-92873161D01*
X137761257Y-92865783D01*
X137763819Y-92858622D01*
X137767071Y-92851747D01*
X137770981Y-92845223D01*
X137775512Y-92839115D01*
X137780619Y-92833479D01*
X137786255Y-92828372D01*
X137792363Y-92823841D01*
X137798887Y-92819931D01*
X137805762Y-92816679D01*
X137812923Y-92814117D01*
X137820301Y-92812269D01*
X137827824Y-92811153D01*
X137835420Y-92810780D01*
X137990420Y-92810780D01*
X137998016Y-92811153D01*
G37*
G36*
X138390692Y-93957398D02*
G01*
X138404768Y-93959486D01*
X138418571Y-93962944D01*
X138431969Y-93967737D01*
X138444833Y-93973821D01*
X138457038Y-93981137D01*
X138468467Y-93989613D01*
X138479010Y-93999170D01*
X138488567Y-94009713D01*
X138497043Y-94021142D01*
X138504359Y-94033347D01*
X138510443Y-94046211D01*
X138515236Y-94059609D01*
X138518694Y-94073412D01*
X138520782Y-94087488D01*
X138521480Y-94101700D01*
X138521480Y-94391700D01*
X138520782Y-94405912D01*
X138518694Y-94419988D01*
X138515236Y-94433791D01*
X138510443Y-94447189D01*
X138504359Y-94460053D01*
X138497043Y-94472258D01*
X138488567Y-94483687D01*
X138479010Y-94494230D01*
X138468467Y-94503787D01*
X138457038Y-94512263D01*
X138444833Y-94519579D01*
X138431969Y-94525663D01*
X138418571Y-94530456D01*
X138404768Y-94533914D01*
X138390692Y-94536002D01*
X138376480Y-94536700D01*
X138036480Y-94536700D01*
X138022268Y-94536002D01*
X138008192Y-94533914D01*
X137994389Y-94530456D01*
X137980991Y-94525663D01*
X137968127Y-94519579D01*
X137955922Y-94512263D01*
X137944493Y-94503787D01*
X137933950Y-94494230D01*
X137924393Y-94483687D01*
X137915917Y-94472258D01*
X137908601Y-94460053D01*
X137902517Y-94447189D01*
X137897724Y-94433791D01*
X137894266Y-94419988D01*
X137892178Y-94405912D01*
X137891480Y-94391700D01*
X137891480Y-94101700D01*
X137892178Y-94087488D01*
X137894266Y-94073412D01*
X137897724Y-94059609D01*
X137902517Y-94046211D01*
X137908601Y-94033347D01*
X137915917Y-94021142D01*
X137924393Y-94009713D01*
X137933950Y-93999170D01*
X137944493Y-93989613D01*
X137955922Y-93981137D01*
X137968127Y-93973821D01*
X137980991Y-93967737D01*
X137994389Y-93962944D01*
X138008192Y-93959486D01*
X138022268Y-93957398D01*
X138036480Y-93956700D01*
X138376480Y-93956700D01*
X138390692Y-93957398D01*
G37*
G36*
X138390692Y-94847398D02*
G01*
X138404768Y-94849486D01*
X138418571Y-94852944D01*
X138431969Y-94857737D01*
X138444833Y-94863821D01*
X138457038Y-94871137D01*
X138468467Y-94879613D01*
X138479010Y-94889170D01*
X138488567Y-94899713D01*
X138497043Y-94911142D01*
X138504359Y-94923347D01*
X138510443Y-94936211D01*
X138515236Y-94949609D01*
X138518694Y-94963412D01*
X138520782Y-94977488D01*
X138521480Y-94991700D01*
X138521480Y-95281700D01*
X138520782Y-95295912D01*
X138518694Y-95309988D01*
X138515236Y-95323791D01*
X138510443Y-95337189D01*
X138504359Y-95350053D01*
X138497043Y-95362258D01*
X138488567Y-95373687D01*
X138479010Y-95384230D01*
X138468467Y-95393787D01*
X138457038Y-95402263D01*
X138444833Y-95409579D01*
X138431969Y-95415663D01*
X138418571Y-95420456D01*
X138404768Y-95423914D01*
X138390692Y-95426002D01*
X138376480Y-95426700D01*
X138036480Y-95426700D01*
X138022268Y-95426002D01*
X138008192Y-95423914D01*
X137994389Y-95420456D01*
X137980991Y-95415663D01*
X137968127Y-95409579D01*
X137955922Y-95402263D01*
X137944493Y-95393787D01*
X137933950Y-95384230D01*
X137924393Y-95373687D01*
X137915917Y-95362258D01*
X137908601Y-95350053D01*
X137902517Y-95337189D01*
X137897724Y-95323791D01*
X137894266Y-95309988D01*
X137892178Y-95295912D01*
X137891480Y-95281700D01*
X137891480Y-94991700D01*
X137892178Y-94977488D01*
X137894266Y-94963412D01*
X137897724Y-94949609D01*
X137902517Y-94936211D01*
X137908601Y-94923347D01*
X137915917Y-94911142D01*
X137924393Y-94899713D01*
X137933950Y-94889170D01*
X137944493Y-94879613D01*
X137955922Y-94871137D01*
X137968127Y-94863821D01*
X137980991Y-94857737D01*
X137994389Y-94852944D01*
X138008192Y-94849486D01*
X138022268Y-94847398D01*
X138036480Y-94846700D01*
X138376480Y-94846700D01*
X138390692Y-94847398D01*
G37*
G36*
X135525416Y-90779153D02*
G01*
X135532939Y-90780269D01*
X135540317Y-90782117D01*
X135547478Y-90784679D01*
X135554353Y-90787931D01*
X135560877Y-90791841D01*
X135566985Y-90796372D01*
X135572621Y-90801479D01*
X135577728Y-90807115D01*
X135582259Y-90813223D01*
X135586169Y-90819747D01*
X135589421Y-90826622D01*
X135591983Y-90833783D01*
X135593831Y-90841161D01*
X135594947Y-90848684D01*
X135595320Y-90856280D01*
X135595320Y-91041280D01*
X135594947Y-91048876D01*
X135593831Y-91056399D01*
X135591983Y-91063777D01*
X135589421Y-91070938D01*
X135586169Y-91077813D01*
X135582259Y-91084337D01*
X135577728Y-91090445D01*
X135572621Y-91096081D01*
X135566985Y-91101188D01*
X135560877Y-91105719D01*
X135554353Y-91109629D01*
X135547478Y-91112881D01*
X135540317Y-91115443D01*
X135532939Y-91117291D01*
X135525416Y-91118407D01*
X135517820Y-91118780D01*
X135362820Y-91118780D01*
X135355224Y-91118407D01*
X135347701Y-91117291D01*
X135340323Y-91115443D01*
X135333162Y-91112881D01*
X135326287Y-91109629D01*
X135319763Y-91105719D01*
X135313655Y-91101188D01*
X135308019Y-91096081D01*
X135302912Y-91090445D01*
X135298381Y-91084337D01*
X135294471Y-91077813D01*
X135291219Y-91070938D01*
X135288657Y-91063777D01*
X135286809Y-91056399D01*
X135285693Y-91048876D01*
X135285320Y-91041280D01*
X135285320Y-90856280D01*
X135285693Y-90848684D01*
X135286809Y-90841161D01*
X135288657Y-90833783D01*
X135291219Y-90826622D01*
X135294471Y-90819747D01*
X135298381Y-90813223D01*
X135302912Y-90807115D01*
X135308019Y-90801479D01*
X135313655Y-90796372D01*
X135319763Y-90791841D01*
X135326287Y-90787931D01*
X135333162Y-90784679D01*
X135340323Y-90782117D01*
X135347701Y-90780269D01*
X135355224Y-90779153D01*
X135362820Y-90778780D01*
X135517820Y-90778780D01*
X135525416Y-90779153D01*
G37*
G36*
X134975416Y-90779153D02*
G01*
X134982939Y-90780269D01*
X134990317Y-90782117D01*
X134997478Y-90784679D01*
X135004353Y-90787931D01*
X135010877Y-90791841D01*
X135016985Y-90796372D01*
X135022621Y-90801479D01*
X135027728Y-90807115D01*
X135032259Y-90813223D01*
X135036169Y-90819747D01*
X135039421Y-90826622D01*
X135041983Y-90833783D01*
X135043831Y-90841161D01*
X135044947Y-90848684D01*
X135045320Y-90856280D01*
X135045320Y-91041280D01*
X135044947Y-91048876D01*
X135043831Y-91056399D01*
X135041983Y-91063777D01*
X135039421Y-91070938D01*
X135036169Y-91077813D01*
X135032259Y-91084337D01*
X135027728Y-91090445D01*
X135022621Y-91096081D01*
X135016985Y-91101188D01*
X135010877Y-91105719D01*
X135004353Y-91109629D01*
X134997478Y-91112881D01*
X134990317Y-91115443D01*
X134982939Y-91117291D01*
X134975416Y-91118407D01*
X134967820Y-91118780D01*
X134812820Y-91118780D01*
X134805224Y-91118407D01*
X134797701Y-91117291D01*
X134790323Y-91115443D01*
X134783162Y-91112881D01*
X134776287Y-91109629D01*
X134769763Y-91105719D01*
X134763655Y-91101188D01*
X134758019Y-91096081D01*
X134752912Y-91090445D01*
X134748381Y-91084337D01*
X134744471Y-91077813D01*
X134741219Y-91070938D01*
X134738657Y-91063777D01*
X134736809Y-91056399D01*
X134735693Y-91048876D01*
X134735320Y-91041280D01*
X134735320Y-90856280D01*
X134735693Y-90848684D01*
X134736809Y-90841161D01*
X134738657Y-90833783D01*
X134741219Y-90826622D01*
X134744471Y-90819747D01*
X134748381Y-90813223D01*
X134752912Y-90807115D01*
X134758019Y-90801479D01*
X134763655Y-90796372D01*
X134769763Y-90791841D01*
X134776287Y-90787931D01*
X134783162Y-90784679D01*
X134790323Y-90782117D01*
X134797701Y-90780269D01*
X134805224Y-90779153D01*
X134812820Y-90778780D01*
X134967820Y-90778780D01*
X134975416Y-90779153D01*
G37*
G36*
X136424732Y-94842318D02*
G01*
X136438808Y-94844406D01*
X136452611Y-94847864D01*
X136466009Y-94852657D01*
X136478873Y-94858741D01*
X136491078Y-94866057D01*
X136502507Y-94874533D01*
X136513050Y-94884090D01*
X136522607Y-94894633D01*
X136531083Y-94906062D01*
X136538399Y-94918267D01*
X136544483Y-94931131D01*
X136549276Y-94944529D01*
X136552734Y-94958332D01*
X136554822Y-94972408D01*
X136555520Y-94986620D01*
X136555520Y-95276620D01*
X136554822Y-95290832D01*
X136552734Y-95304908D01*
X136549276Y-95318711D01*
X136544483Y-95332109D01*
X136538399Y-95344973D01*
X136531083Y-95357178D01*
X136522607Y-95368607D01*
X136513050Y-95379150D01*
X136502507Y-95388707D01*
X136491078Y-95397183D01*
X136478873Y-95404499D01*
X136466009Y-95410583D01*
X136452611Y-95415376D01*
X136438808Y-95418834D01*
X136424732Y-95420922D01*
X136410520Y-95421620D01*
X136070520Y-95421620D01*
X136056308Y-95420922D01*
X136042232Y-95418834D01*
X136028429Y-95415376D01*
X136015031Y-95410583D01*
X136002167Y-95404499D01*
X135989962Y-95397183D01*
X135978533Y-95388707D01*
X135967990Y-95379150D01*
X135958433Y-95368607D01*
X135949957Y-95357178D01*
X135942641Y-95344973D01*
X135936557Y-95332109D01*
X135931764Y-95318711D01*
X135928306Y-95304908D01*
X135926218Y-95290832D01*
X135925520Y-95276620D01*
X135925520Y-94986620D01*
X135926218Y-94972408D01*
X135928306Y-94958332D01*
X135931764Y-94944529D01*
X135936557Y-94931131D01*
X135942641Y-94918267D01*
X135949957Y-94906062D01*
X135958433Y-94894633D01*
X135967990Y-94884090D01*
X135978533Y-94874533D01*
X135989962Y-94866057D01*
X136002167Y-94858741D01*
X136015031Y-94852657D01*
X136028429Y-94847864D01*
X136042232Y-94844406D01*
X136056308Y-94842318D01*
X136070520Y-94841620D01*
X136410520Y-94841620D01*
X136424732Y-94842318D01*
G37*
G36*
X136424732Y-93952318D02*
G01*
X136438808Y-93954406D01*
X136452611Y-93957864D01*
X136466009Y-93962657D01*
X136478873Y-93968741D01*
X136491078Y-93976057D01*
X136502507Y-93984533D01*
X136513050Y-93994090D01*
X136522607Y-94004633D01*
X136531083Y-94016062D01*
X136538399Y-94028267D01*
X136544483Y-94041131D01*
X136549276Y-94054529D01*
X136552734Y-94068332D01*
X136554822Y-94082408D01*
X136555520Y-94096620D01*
X136555520Y-94386620D01*
X136554822Y-94400832D01*
X136552734Y-94414908D01*
X136549276Y-94428711D01*
X136544483Y-94442109D01*
X136538399Y-94454973D01*
X136531083Y-94467178D01*
X136522607Y-94478607D01*
X136513050Y-94489150D01*
X136502507Y-94498707D01*
X136491078Y-94507183D01*
X136478873Y-94514499D01*
X136466009Y-94520583D01*
X136452611Y-94525376D01*
X136438808Y-94528834D01*
X136424732Y-94530922D01*
X136410520Y-94531620D01*
X136070520Y-94531620D01*
X136056308Y-94530922D01*
X136042232Y-94528834D01*
X136028429Y-94525376D01*
X136015031Y-94520583D01*
X136002167Y-94514499D01*
X135989962Y-94507183D01*
X135978533Y-94498707D01*
X135967990Y-94489150D01*
X135958433Y-94478607D01*
X135949957Y-94467178D01*
X135942641Y-94454973D01*
X135936557Y-94442109D01*
X135931764Y-94428711D01*
X135928306Y-94414908D01*
X135926218Y-94400832D01*
X135925520Y-94386620D01*
X135925520Y-94096620D01*
X135926218Y-94082408D01*
X135928306Y-94068332D01*
X135931764Y-94054529D01*
X135936557Y-94041131D01*
X135942641Y-94028267D01*
X135949957Y-94016062D01*
X135958433Y-94004633D01*
X135967990Y-93994090D01*
X135978533Y-93984533D01*
X135989962Y-93976057D01*
X136002167Y-93968741D01*
X136015031Y-93962657D01*
X136028429Y-93957864D01*
X136042232Y-93954406D01*
X136056308Y-93952318D01*
X136070520Y-93951620D01*
X136410520Y-93951620D01*
X136424732Y-93952318D01*
G37*
G36*
X135036816Y-88766553D02*
G01*
X135044339Y-88767669D01*
X135051717Y-88769517D01*
X135058878Y-88772079D01*
X135065753Y-88775331D01*
X135072277Y-88779241D01*
X135078385Y-88783772D01*
X135084021Y-88788879D01*
X135089128Y-88794515D01*
X135093659Y-88800623D01*
X135097569Y-88807147D01*
X135100821Y-88814022D01*
X135103383Y-88821183D01*
X135105231Y-88828561D01*
X135106347Y-88836084D01*
X135106720Y-88843680D01*
X135106720Y-88998680D01*
X135106347Y-89006276D01*
X135105231Y-89013799D01*
X135103383Y-89021177D01*
X135100821Y-89028338D01*
X135097569Y-89035213D01*
X135093659Y-89041737D01*
X135089128Y-89047845D01*
X135084021Y-89053481D01*
X135078385Y-89058588D01*
X135072277Y-89063119D01*
X135065753Y-89067029D01*
X135058878Y-89070281D01*
X135051717Y-89072843D01*
X135044339Y-89074691D01*
X135036816Y-89075807D01*
X135029220Y-89076180D01*
X134844220Y-89076180D01*
X134836624Y-89075807D01*
X134829101Y-89074691D01*
X134821723Y-89072843D01*
X134814562Y-89070281D01*
X134807687Y-89067029D01*
X134801163Y-89063119D01*
X134795055Y-89058588D01*
X134789419Y-89053481D01*
X134784312Y-89047845D01*
X134779781Y-89041737D01*
X134775871Y-89035213D01*
X134772619Y-89028338D01*
X134770057Y-89021177D01*
X134768209Y-89013799D01*
X134767093Y-89006276D01*
X134766720Y-88998680D01*
X134766720Y-88843680D01*
X134767093Y-88836084D01*
X134768209Y-88828561D01*
X134770057Y-88821183D01*
X134772619Y-88814022D01*
X134775871Y-88807147D01*
X134779781Y-88800623D01*
X134784312Y-88794515D01*
X134789419Y-88788879D01*
X134795055Y-88783772D01*
X134801163Y-88779241D01*
X134807687Y-88775331D01*
X134814562Y-88772079D01*
X134821723Y-88769517D01*
X134829101Y-88767669D01*
X134836624Y-88766553D01*
X134844220Y-88766180D01*
X135029220Y-88766180D01*
X135036816Y-88766553D01*
G37*
G36*
X135036816Y-89316553D02*
G01*
X135044339Y-89317669D01*
X135051717Y-89319517D01*
X135058878Y-89322079D01*
X135065753Y-89325331D01*
X135072277Y-89329241D01*
X135078385Y-89333772D01*
X135084021Y-89338879D01*
X135089128Y-89344515D01*
X135093659Y-89350623D01*
X135097569Y-89357147D01*
X135100821Y-89364022D01*
X135103383Y-89371183D01*
X135105231Y-89378561D01*
X135106347Y-89386084D01*
X135106720Y-89393680D01*
X135106720Y-89548680D01*
X135106347Y-89556276D01*
X135105231Y-89563799D01*
X135103383Y-89571177D01*
X135100821Y-89578338D01*
X135097569Y-89585213D01*
X135093659Y-89591737D01*
X135089128Y-89597845D01*
X135084021Y-89603481D01*
X135078385Y-89608588D01*
X135072277Y-89613119D01*
X135065753Y-89617029D01*
X135058878Y-89620281D01*
X135051717Y-89622843D01*
X135044339Y-89624691D01*
X135036816Y-89625807D01*
X135029220Y-89626180D01*
X134844220Y-89626180D01*
X134836624Y-89625807D01*
X134829101Y-89624691D01*
X134821723Y-89622843D01*
X134814562Y-89620281D01*
X134807687Y-89617029D01*
X134801163Y-89613119D01*
X134795055Y-89608588D01*
X134789419Y-89603481D01*
X134784312Y-89597845D01*
X134779781Y-89591737D01*
X134775871Y-89585213D01*
X134772619Y-89578338D01*
X134770057Y-89571177D01*
X134768209Y-89563799D01*
X134767093Y-89556276D01*
X134766720Y-89548680D01*
X134766720Y-89393680D01*
X134767093Y-89386084D01*
X134768209Y-89378561D01*
X134770057Y-89371183D01*
X134772619Y-89364022D01*
X134775871Y-89357147D01*
X134779781Y-89350623D01*
X134784312Y-89344515D01*
X134789419Y-89338879D01*
X134795055Y-89333772D01*
X134801163Y-89329241D01*
X134807687Y-89325331D01*
X134814562Y-89322079D01*
X134821723Y-89319517D01*
X134829101Y-89317669D01*
X134836624Y-89316553D01*
X134844220Y-89316180D01*
X135029220Y-89316180D01*
X135036816Y-89316553D01*
G37*
G36*
X138542016Y-90722353D02*
G01*
X138549539Y-90723469D01*
X138556917Y-90725317D01*
X138564078Y-90727879D01*
X138570953Y-90731131D01*
X138577477Y-90735041D01*
X138583585Y-90739572D01*
X138589221Y-90744679D01*
X138594328Y-90750315D01*
X138598859Y-90756423D01*
X138602769Y-90762947D01*
X138606021Y-90769822D01*
X138608583Y-90776983D01*
X138610431Y-90784361D01*
X138611547Y-90791884D01*
X138611920Y-90799480D01*
X138611920Y-90954480D01*
X138611547Y-90962076D01*
X138610431Y-90969599D01*
X138608583Y-90976977D01*
X138606021Y-90984138D01*
X138602769Y-90991013D01*
X138598859Y-90997537D01*
X138594328Y-91003645D01*
X138589221Y-91009281D01*
X138583585Y-91014388D01*
X138577477Y-91018919D01*
X138570953Y-91022829D01*
X138564078Y-91026081D01*
X138556917Y-91028643D01*
X138549539Y-91030491D01*
X138542016Y-91031607D01*
X138534420Y-91031980D01*
X138349420Y-91031980D01*
X138341824Y-91031607D01*
X138334301Y-91030491D01*
X138326923Y-91028643D01*
X138319762Y-91026081D01*
X138312887Y-91022829D01*
X138306363Y-91018919D01*
X138300255Y-91014388D01*
X138294619Y-91009281D01*
X138289512Y-91003645D01*
X138284981Y-90997537D01*
X138281071Y-90991013D01*
X138277819Y-90984138D01*
X138275257Y-90976977D01*
X138273409Y-90969599D01*
X138272293Y-90962076D01*
X138271920Y-90954480D01*
X138271920Y-90799480D01*
X138272293Y-90791884D01*
X138273409Y-90784361D01*
X138275257Y-90776983D01*
X138277819Y-90769822D01*
X138281071Y-90762947D01*
X138284981Y-90756423D01*
X138289512Y-90750315D01*
X138294619Y-90744679D01*
X138300255Y-90739572D01*
X138306363Y-90735041D01*
X138312887Y-90731131D01*
X138319762Y-90727879D01*
X138326923Y-90725317D01*
X138334301Y-90723469D01*
X138341824Y-90722353D01*
X138349420Y-90721980D01*
X138534420Y-90721980D01*
X138542016Y-90722353D01*
G37*
G36*
X138542016Y-91272353D02*
G01*
X138549539Y-91273469D01*
X138556917Y-91275317D01*
X138564078Y-91277879D01*
X138570953Y-91281131D01*
X138577477Y-91285041D01*
X138583585Y-91289572D01*
X138589221Y-91294679D01*
X138594328Y-91300315D01*
X138598859Y-91306423D01*
X138602769Y-91312947D01*
X138606021Y-91319822D01*
X138608583Y-91326983D01*
X138610431Y-91334361D01*
X138611547Y-91341884D01*
X138611920Y-91349480D01*
X138611920Y-91504480D01*
X138611547Y-91512076D01*
X138610431Y-91519599D01*
X138608583Y-91526977D01*
X138606021Y-91534138D01*
X138602769Y-91541013D01*
X138598859Y-91547537D01*
X138594328Y-91553645D01*
X138589221Y-91559281D01*
X138583585Y-91564388D01*
X138577477Y-91568919D01*
X138570953Y-91572829D01*
X138564078Y-91576081D01*
X138556917Y-91578643D01*
X138549539Y-91580491D01*
X138542016Y-91581607D01*
X138534420Y-91581980D01*
X138349420Y-91581980D01*
X138341824Y-91581607D01*
X138334301Y-91580491D01*
X138326923Y-91578643D01*
X138319762Y-91576081D01*
X138312887Y-91572829D01*
X138306363Y-91568919D01*
X138300255Y-91564388D01*
X138294619Y-91559281D01*
X138289512Y-91553645D01*
X138284981Y-91547537D01*
X138281071Y-91541013D01*
X138277819Y-91534138D01*
X138275257Y-91526977D01*
X138273409Y-91519599D01*
X138272293Y-91512076D01*
X138271920Y-91504480D01*
X138271920Y-91349480D01*
X138272293Y-91341884D01*
X138273409Y-91334361D01*
X138275257Y-91326983D01*
X138277819Y-91319822D01*
X138281071Y-91312947D01*
X138284981Y-91306423D01*
X138289512Y-91300315D01*
X138294619Y-91294679D01*
X138300255Y-91289572D01*
X138306363Y-91285041D01*
X138312887Y-91281131D01*
X138319762Y-91277879D01*
X138326923Y-91275317D01*
X138334301Y-91273469D01*
X138341824Y-91272353D01*
X138349420Y-91271980D01*
X138534420Y-91271980D01*
X138542016Y-91272353D01*
G37*
G36*
X139608668Y-93688555D02*
G01*
X139628326Y-93691471D01*
X139647603Y-93696300D01*
X139666313Y-93702994D01*
X139684278Y-93711491D01*
X139701323Y-93721707D01*
X139717285Y-93733545D01*
X139732009Y-93746891D01*
X139745355Y-93761615D01*
X139757193Y-93777577D01*
X139767409Y-93794622D01*
X139775906Y-93812587D01*
X139782600Y-93831297D01*
X139787429Y-93850574D01*
X139790345Y-93870232D01*
X139791320Y-93890080D01*
X139791320Y-94295080D01*
X139790345Y-94314928D01*
X139787429Y-94334586D01*
X139782600Y-94353863D01*
X139775906Y-94372573D01*
X139767409Y-94390538D01*
X139757193Y-94407583D01*
X139745355Y-94423545D01*
X139732009Y-94438269D01*
X139717285Y-94451615D01*
X139701323Y-94463453D01*
X139684278Y-94473669D01*
X139666313Y-94482166D01*
X139647603Y-94488860D01*
X139628326Y-94493689D01*
X139608668Y-94496605D01*
X139588820Y-94497580D01*
X139123820Y-94497580D01*
X139103972Y-94496605D01*
X139084314Y-94493689D01*
X139065037Y-94488860D01*
X139046327Y-94482166D01*
X139028362Y-94473669D01*
X139011317Y-94463453D01*
X138995355Y-94451615D01*
X138980631Y-94438269D01*
X138967285Y-94423545D01*
X138955447Y-94407583D01*
X138945231Y-94390538D01*
X138936734Y-94372573D01*
X138930040Y-94353863D01*
X138925211Y-94334586D01*
X138922295Y-94314928D01*
X138921320Y-94295080D01*
X138921320Y-93890080D01*
X138922295Y-93870232D01*
X138925211Y-93850574D01*
X138930040Y-93831297D01*
X138936734Y-93812587D01*
X138945231Y-93794622D01*
X138955447Y-93777577D01*
X138967285Y-93761615D01*
X138980631Y-93746891D01*
X138995355Y-93733545D01*
X139011317Y-93721707D01*
X139028362Y-93711491D01*
X139046327Y-93702994D01*
X139065037Y-93696300D01*
X139084314Y-93691471D01*
X139103972Y-93688555D01*
X139123820Y-93687580D01*
X139588820Y-93687580D01*
X139608668Y-93688555D01*
G37*
G36*
X139608668Y-92328555D02*
G01*
X139628326Y-92331471D01*
X139647603Y-92336300D01*
X139666313Y-92342994D01*
X139684278Y-92351491D01*
X139701323Y-92361707D01*
X139717285Y-92373545D01*
X139732009Y-92386891D01*
X139745355Y-92401615D01*
X139757193Y-92417577D01*
X139767409Y-92434622D01*
X139775906Y-92452587D01*
X139782600Y-92471297D01*
X139787429Y-92490574D01*
X139790345Y-92510232D01*
X139791320Y-92530080D01*
X139791320Y-92935080D01*
X139790345Y-92954928D01*
X139787429Y-92974586D01*
X139782600Y-92993863D01*
X139775906Y-93012573D01*
X139767409Y-93030538D01*
X139757193Y-93047583D01*
X139745355Y-93063545D01*
X139732009Y-93078269D01*
X139717285Y-93091615D01*
X139701323Y-93103453D01*
X139684278Y-93113669D01*
X139666313Y-93122166D01*
X139647603Y-93128860D01*
X139628326Y-93133689D01*
X139608668Y-93136605D01*
X139588820Y-93137580D01*
X139123820Y-93137580D01*
X139103972Y-93136605D01*
X139084314Y-93133689D01*
X139065037Y-93128860D01*
X139046327Y-93122166D01*
X139028362Y-93113669D01*
X139011317Y-93103453D01*
X138995355Y-93091615D01*
X138980631Y-93078269D01*
X138967285Y-93063545D01*
X138955447Y-93047583D01*
X138945231Y-93030538D01*
X138936734Y-93012573D01*
X138930040Y-92993863D01*
X138925211Y-92974586D01*
X138922295Y-92954928D01*
X138921320Y-92935080D01*
X138921320Y-92530080D01*
X138922295Y-92510232D01*
X138925211Y-92490574D01*
X138930040Y-92471297D01*
X138936734Y-92452587D01*
X138945231Y-92434622D01*
X138955447Y-92417577D01*
X138967285Y-92401615D01*
X138980631Y-92386891D01*
X138995355Y-92373545D01*
X139011317Y-92361707D01*
X139028362Y-92351491D01*
X139046327Y-92342994D01*
X139065037Y-92336300D01*
X139084314Y-92331471D01*
X139103972Y-92328555D01*
X139123820Y-92327580D01*
X139588820Y-92327580D01*
X139608668Y-92328555D01*
G37*
G36*
X138592816Y-87394953D02*
G01*
X138600339Y-87396069D01*
X138607717Y-87397917D01*
X138614878Y-87400479D01*
X138621753Y-87403731D01*
X138628277Y-87407641D01*
X138634385Y-87412172D01*
X138640021Y-87417279D01*
X138645128Y-87422915D01*
X138649659Y-87429023D01*
X138653569Y-87435547D01*
X138656821Y-87442422D01*
X138659383Y-87449583D01*
X138661231Y-87456961D01*
X138662347Y-87464484D01*
X138662720Y-87472080D01*
X138662720Y-87627080D01*
X138662347Y-87634676D01*
X138661231Y-87642199D01*
X138659383Y-87649577D01*
X138656821Y-87656738D01*
X138653569Y-87663613D01*
X138649659Y-87670137D01*
X138645128Y-87676245D01*
X138640021Y-87681881D01*
X138634385Y-87686988D01*
X138628277Y-87691519D01*
X138621753Y-87695429D01*
X138614878Y-87698681D01*
X138607717Y-87701243D01*
X138600339Y-87703091D01*
X138592816Y-87704207D01*
X138585220Y-87704580D01*
X138400220Y-87704580D01*
X138392624Y-87704207D01*
X138385101Y-87703091D01*
X138377723Y-87701243D01*
X138370562Y-87698681D01*
X138363687Y-87695429D01*
X138357163Y-87691519D01*
X138351055Y-87686988D01*
X138345419Y-87681881D01*
X138340312Y-87676245D01*
X138335781Y-87670137D01*
X138331871Y-87663613D01*
X138328619Y-87656738D01*
X138326057Y-87649577D01*
X138324209Y-87642199D01*
X138323093Y-87634676D01*
X138322720Y-87627080D01*
X138322720Y-87472080D01*
X138323093Y-87464484D01*
X138324209Y-87456961D01*
X138326057Y-87449583D01*
X138328619Y-87442422D01*
X138331871Y-87435547D01*
X138335781Y-87429023D01*
X138340312Y-87422915D01*
X138345419Y-87417279D01*
X138351055Y-87412172D01*
X138357163Y-87407641D01*
X138363687Y-87403731D01*
X138370562Y-87400479D01*
X138377723Y-87397917D01*
X138385101Y-87396069D01*
X138392624Y-87394953D01*
X138400220Y-87394580D01*
X138585220Y-87394580D01*
X138592816Y-87394953D01*
G37*
G36*
X138592816Y-87944953D02*
G01*
X138600339Y-87946069D01*
X138607717Y-87947917D01*
X138614878Y-87950479D01*
X138621753Y-87953731D01*
X138628277Y-87957641D01*
X138634385Y-87962172D01*
X138640021Y-87967279D01*
X138645128Y-87972915D01*
X138649659Y-87979023D01*
X138653569Y-87985547D01*
X138656821Y-87992422D01*
X138659383Y-87999583D01*
X138661231Y-88006961D01*
X138662347Y-88014484D01*
X138662720Y-88022080D01*
X138662720Y-88177080D01*
X138662347Y-88184676D01*
X138661231Y-88192199D01*
X138659383Y-88199577D01*
X138656821Y-88206738D01*
X138653569Y-88213613D01*
X138649659Y-88220137D01*
X138645128Y-88226245D01*
X138640021Y-88231881D01*
X138634385Y-88236988D01*
X138628277Y-88241519D01*
X138621753Y-88245429D01*
X138614878Y-88248681D01*
X138607717Y-88251243D01*
X138600339Y-88253091D01*
X138592816Y-88254207D01*
X138585220Y-88254580D01*
X138400220Y-88254580D01*
X138392624Y-88254207D01*
X138385101Y-88253091D01*
X138377723Y-88251243D01*
X138370562Y-88248681D01*
X138363687Y-88245429D01*
X138357163Y-88241519D01*
X138351055Y-88236988D01*
X138345419Y-88231881D01*
X138340312Y-88226245D01*
X138335781Y-88220137D01*
X138331871Y-88213613D01*
X138328619Y-88206738D01*
X138326057Y-88199577D01*
X138324209Y-88192199D01*
X138323093Y-88184676D01*
X138322720Y-88177080D01*
X138322720Y-88022080D01*
X138323093Y-88014484D01*
X138324209Y-88006961D01*
X138326057Y-87999583D01*
X138328619Y-87992422D01*
X138331871Y-87985547D01*
X138335781Y-87979023D01*
X138340312Y-87972915D01*
X138345419Y-87967279D01*
X138351055Y-87962172D01*
X138357163Y-87957641D01*
X138363687Y-87953731D01*
X138370562Y-87950479D01*
X138377723Y-87947917D01*
X138385101Y-87946069D01*
X138392624Y-87944953D01*
X138400220Y-87944580D01*
X138585220Y-87944580D01*
X138592816Y-87944953D01*
G37*
D12*
X128454780Y-103119441D03*
D13*
X127304780Y-102919441D03*
D14*
X126154780Y-103144441D03*
D15*
X124664780Y-104769441D03*
X124664780Y-105869441D03*
X124664780Y-111369441D03*
X124664780Y-110269441D03*
X124664780Y-106969441D03*
X124664780Y-108069441D03*
X124664780Y-109169441D03*
X124664780Y-112469441D03*
D16*
X125714780Y-113544441D03*
X128304780Y-113544441D03*
D17*
X140494000Y-102901880D03*
X140094000Y-102901880D03*
X139694000Y-102901880D03*
X138894000Y-102901880D03*
X138094000Y-102901880D03*
X139294000Y-102901880D03*
X137694000Y-102901880D03*
X137294000Y-102901880D03*
X136894000Y-102901880D03*
X136494000Y-102901880D03*
X136094000Y-102901880D03*
X135694000Y-102901880D03*
X138494000Y-102901880D03*
X130094000Y-102901880D03*
X130494000Y-102901880D03*
X130894000Y-102901880D03*
X131294000Y-102901880D03*
X131694000Y-102901880D03*
X132094000Y-102901880D03*
X132494000Y-102901880D03*
X132894000Y-102901880D03*
X133294000Y-102901880D03*
X133694000Y-102901880D03*
X134094000Y-102901880D03*
X134494000Y-102901880D03*
X134894000Y-102901880D03*
X135294000Y-102901880D03*
X140494000Y-96774000D03*
X140094000Y-96774000D03*
X139694000Y-96774000D03*
X138894000Y-96774000D03*
X138094000Y-96774000D03*
X139294000Y-96774000D03*
X137694000Y-96774000D03*
X137294000Y-96774000D03*
X136894000Y-96774000D03*
X136494000Y-96774000D03*
X136094000Y-96774000D03*
X135694000Y-96774000D03*
X138494000Y-96774000D03*
X130094000Y-96774000D03*
X130494000Y-96774000D03*
X130894000Y-96774000D03*
X131294000Y-96774000D03*
X131694000Y-96774000D03*
X132094000Y-96774000D03*
X132494000Y-96774000D03*
X132894000Y-96774000D03*
X133294000Y-96774000D03*
X133694000Y-96774000D03*
X134094000Y-96774000D03*
X134494000Y-96774000D03*
X134894000Y-96774000D03*
X135294000Y-96774000D03*
D18*
X141719300Y-91972080D03*
X141719300Y-91572080D03*
X141719300Y-91172080D03*
X141719300Y-90772080D03*
X141719300Y-90372080D03*
X141719300Y-89972080D03*
X148460460Y-91973400D03*
X148460460Y-91573400D03*
X148460460Y-91173400D03*
X148460460Y-90773400D03*
X148460460Y-90373400D03*
X148460460Y-89973400D03*
D11*
G36*
X139615629Y-89814451D02*
G01*
X139637228Y-89817655D01*
X139658408Y-89822961D01*
X139678967Y-89830317D01*
X139698706Y-89839653D01*
X139717434Y-89850878D01*
X139734973Y-89863885D01*
X139751151Y-89878549D01*
X139765815Y-89894727D01*
X139778822Y-89912266D01*
X139790047Y-89930994D01*
X139799383Y-89950733D01*
X139806739Y-89971292D01*
X139812045Y-89992472D01*
X139815249Y-90014071D01*
X139816320Y-90035880D01*
X139816320Y-90480880D01*
X139815249Y-90502689D01*
X139812045Y-90524288D01*
X139806739Y-90545468D01*
X139799383Y-90566027D01*
X139790047Y-90585766D01*
X139778822Y-90604494D01*
X139765815Y-90622033D01*
X139751151Y-90638211D01*
X139734973Y-90652875D01*
X139717434Y-90665882D01*
X139698706Y-90677107D01*
X139678967Y-90686443D01*
X139658408Y-90693799D01*
X139637228Y-90699105D01*
X139615629Y-90702309D01*
X139593820Y-90703380D01*
X139118820Y-90703380D01*
X139097011Y-90702309D01*
X139075412Y-90699105D01*
X139054232Y-90693799D01*
X139033673Y-90686443D01*
X139013934Y-90677107D01*
X138995206Y-90665882D01*
X138977667Y-90652875D01*
X138961489Y-90638211D01*
X138946825Y-90622033D01*
X138933818Y-90604494D01*
X138922593Y-90585766D01*
X138913257Y-90566027D01*
X138905901Y-90545468D01*
X138900595Y-90524288D01*
X138897391Y-90502689D01*
X138896320Y-90480880D01*
X138896320Y-90035880D01*
X138897391Y-90014071D01*
X138900595Y-89992472D01*
X138905901Y-89971292D01*
X138913257Y-89950733D01*
X138922593Y-89930994D01*
X138933818Y-89912266D01*
X138946825Y-89894727D01*
X138961489Y-89878549D01*
X138977667Y-89863885D01*
X138995206Y-89850878D01*
X139013934Y-89839653D01*
X139033673Y-89830317D01*
X139054232Y-89822961D01*
X139075412Y-89817655D01*
X139097011Y-89814451D01*
X139118820Y-89813380D01*
X139593820Y-89813380D01*
X139615629Y-89814451D01*
G37*
G36*
X139615629Y-91144451D02*
G01*
X139637228Y-91147655D01*
X139658408Y-91152961D01*
X139678967Y-91160317D01*
X139698706Y-91169653D01*
X139717434Y-91180878D01*
X139734973Y-91193885D01*
X139751151Y-91208549D01*
X139765815Y-91224727D01*
X139778822Y-91242266D01*
X139790047Y-91260994D01*
X139799383Y-91280733D01*
X139806739Y-91301292D01*
X139812045Y-91322472D01*
X139815249Y-91344071D01*
X139816320Y-91365880D01*
X139816320Y-91810880D01*
X139815249Y-91832689D01*
X139812045Y-91854288D01*
X139806739Y-91875468D01*
X139799383Y-91896027D01*
X139790047Y-91915766D01*
X139778822Y-91934494D01*
X139765815Y-91952033D01*
X139751151Y-91968211D01*
X139734973Y-91982875D01*
X139717434Y-91995882D01*
X139698706Y-92007107D01*
X139678967Y-92016443D01*
X139658408Y-92023799D01*
X139637228Y-92029105D01*
X139615629Y-92032309D01*
X139593820Y-92033380D01*
X139118820Y-92033380D01*
X139097011Y-92032309D01*
X139075412Y-92029105D01*
X139054232Y-92023799D01*
X139033673Y-92016443D01*
X139013934Y-92007107D01*
X138995206Y-91995882D01*
X138977667Y-91982875D01*
X138961489Y-91968211D01*
X138946825Y-91952033D01*
X138933818Y-91934494D01*
X138922593Y-91915766D01*
X138913257Y-91896027D01*
X138905901Y-91875468D01*
X138900595Y-91854288D01*
X138897391Y-91832689D01*
X138896320Y-91810880D01*
X138896320Y-91365880D01*
X138897391Y-91344071D01*
X138900595Y-91322472D01*
X138905901Y-91301292D01*
X138913257Y-91280733D01*
X138922593Y-91260994D01*
X138933818Y-91242266D01*
X138946825Y-91224727D01*
X138961489Y-91208549D01*
X138977667Y-91193885D01*
X138995206Y-91180878D01*
X139013934Y-91169653D01*
X139033673Y-91160317D01*
X139054232Y-91152961D01*
X139075412Y-91147655D01*
X139097011Y-91144451D01*
X139118820Y-91143380D01*
X139593820Y-91143380D01*
X139615629Y-91144451D01*
G37*
D19*
X150522560Y-91236800D03*
D20*
X149682560Y-92236800D03*
X149682560Y-91736800D03*
X149682560Y-91236800D03*
X149682560Y-90736800D03*
X149682560Y-90236800D03*
X151362560Y-90236800D03*
X151362560Y-90736800D03*
X151362560Y-91236800D03*
X151362560Y-91736800D03*
X151362560Y-92236800D03*
D21*
X130880140Y-90266340D03*
X130480140Y-90266340D03*
D22*
X129835140Y-90221340D03*
X129835140Y-89821340D03*
X129835140Y-89421340D03*
X129835140Y-89021340D03*
X129835140Y-88621340D03*
D21*
X130480140Y-88576340D03*
X130880140Y-88576340D03*
D22*
X131525140Y-88621340D03*
X131525140Y-89021340D03*
X131525140Y-89421340D03*
X131525140Y-89821340D03*
X131525140Y-90221340D03*
D23*
X131374780Y-105444440D03*
X132174780Y-105444440D03*
X132974780Y-105444440D03*
X133774780Y-105444440D03*
X134574780Y-105444440D03*
X135374780Y-105444440D03*
X136174780Y-105444440D03*
X136974780Y-105444440D03*
X137774780Y-105444440D03*
X138574780Y-105444440D03*
X131374780Y-106244440D03*
X132174780Y-106244440D03*
X132974780Y-106244440D03*
X133774780Y-106244440D03*
X134574780Y-106244440D03*
X135374780Y-106244440D03*
X136174780Y-106244440D03*
X136974780Y-106244440D03*
X137774780Y-106244440D03*
X138574780Y-106244440D03*
X131374780Y-107044440D03*
X132174780Y-107044440D03*
X132974780Y-107044440D03*
X133774780Y-107044440D03*
X134574780Y-107044440D03*
X135374780Y-107044440D03*
X136174780Y-107044440D03*
X136974780Y-107044440D03*
X137774780Y-107044440D03*
X138574780Y-107044440D03*
X131374780Y-107844440D03*
X132174780Y-107844440D03*
X132974780Y-107844440D03*
X133774780Y-107844440D03*
X134574780Y-107844440D03*
X135374780Y-107844440D03*
X136174780Y-107844440D03*
X136974780Y-107844440D03*
X137774780Y-107844440D03*
X138574780Y-107844440D03*
X131374780Y-108644440D03*
X132174780Y-108644440D03*
X132974780Y-108644440D03*
X133774780Y-108644440D03*
X134574780Y-108644440D03*
X135374780Y-108644440D03*
X136174780Y-108644440D03*
X136974780Y-108644440D03*
X137774780Y-108644440D03*
X138574780Y-108644440D03*
X131374780Y-109444440D03*
X132174780Y-109444440D03*
X132974780Y-109444440D03*
X133774780Y-109444440D03*
X134574780Y-109444440D03*
X135374780Y-109444440D03*
X136174780Y-109444440D03*
X136974780Y-109444440D03*
X137774780Y-109444440D03*
X138574780Y-109444440D03*
X131374780Y-110244440D03*
X132174780Y-110244440D03*
X132974780Y-110244440D03*
X133774780Y-110244440D03*
X134574780Y-110244440D03*
X135374780Y-110244440D03*
X136174780Y-110244440D03*
X136974780Y-110244440D03*
X137774780Y-110244440D03*
X138574780Y-110244440D03*
X131374780Y-111044440D03*
X132174780Y-111044440D03*
X132974780Y-111044440D03*
X133774780Y-111044440D03*
X134574780Y-111044440D03*
X135374780Y-111044440D03*
X136174780Y-111044440D03*
X136974780Y-111044440D03*
X137774780Y-111044440D03*
X138574780Y-111044440D03*
X131374780Y-111844440D03*
X132174780Y-111844440D03*
X132974780Y-111844440D03*
X133774780Y-111844440D03*
X134574780Y-111844440D03*
X135374780Y-111844440D03*
X136174780Y-111844440D03*
X136974780Y-111844440D03*
X137774780Y-111844440D03*
X138574780Y-111844440D03*
X131374780Y-112644440D03*
X132174780Y-112644440D03*
X132974780Y-112644440D03*
X133774780Y-112644440D03*
X134574780Y-112644440D03*
X135374780Y-112644440D03*
X136174780Y-112644440D03*
X136974780Y-112644440D03*
X137774780Y-112644440D03*
X138574780Y-112644440D03*
D24*
X129054800Y-95135840D03*
X129054800Y-92135840D03*
X132524800Y-92135840D03*
X132524800Y-95135840D03*
D25*
X139163520Y-86711380D03*
X140463520Y-86711380D03*
X140463520Y-88531380D03*
X139813520Y-88531380D03*
X139163520Y-88531380D03*
D26*
X136223320Y-86701780D03*
X136223320Y-88591780D03*
X137663320Y-88591780D03*
X137663320Y-86701780D03*
D11*
G36*
X131025636Y-90921513D02*
G01*
X131033159Y-90922629D01*
X131040537Y-90924477D01*
X131047698Y-90927039D01*
X131054573Y-90930291D01*
X131061097Y-90934201D01*
X131067205Y-90938732D01*
X131072841Y-90943839D01*
X131077948Y-90949475D01*
X131082479Y-90955583D01*
X131086389Y-90962107D01*
X131089641Y-90968982D01*
X131092203Y-90976143D01*
X131094051Y-90983521D01*
X131095167Y-90991044D01*
X131095540Y-90998640D01*
X131095540Y-91183640D01*
X131095167Y-91191236D01*
X131094051Y-91198759D01*
X131092203Y-91206137D01*
X131089641Y-91213298D01*
X131086389Y-91220173D01*
X131082479Y-91226697D01*
X131077948Y-91232805D01*
X131072841Y-91238441D01*
X131067205Y-91243548D01*
X131061097Y-91248079D01*
X131054573Y-91251989D01*
X131047698Y-91255241D01*
X131040537Y-91257803D01*
X131033159Y-91259651D01*
X131025636Y-91260767D01*
X131018040Y-91261140D01*
X130863040Y-91261140D01*
X130855444Y-91260767D01*
X130847921Y-91259651D01*
X130840543Y-91257803D01*
X130833382Y-91255241D01*
X130826507Y-91251989D01*
X130819983Y-91248079D01*
X130813875Y-91243548D01*
X130808239Y-91238441D01*
X130803132Y-91232805D01*
X130798601Y-91226697D01*
X130794691Y-91220173D01*
X130791439Y-91213298D01*
X130788877Y-91206137D01*
X130787029Y-91198759D01*
X130785913Y-91191236D01*
X130785540Y-91183640D01*
X130785540Y-90998640D01*
X130785913Y-90991044D01*
X130787029Y-90983521D01*
X130788877Y-90976143D01*
X130791439Y-90968982D01*
X130794691Y-90962107D01*
X130798601Y-90955583D01*
X130803132Y-90949475D01*
X130808239Y-90943839D01*
X130813875Y-90938732D01*
X130819983Y-90934201D01*
X130826507Y-90930291D01*
X130833382Y-90927039D01*
X130840543Y-90924477D01*
X130847921Y-90922629D01*
X130855444Y-90921513D01*
X130863040Y-90921140D01*
X131018040Y-90921140D01*
X131025636Y-90921513D01*
G37*
G36*
X130475636Y-90921513D02*
G01*
X130483159Y-90922629D01*
X130490537Y-90924477D01*
X130497698Y-90927039D01*
X130504573Y-90930291D01*
X130511097Y-90934201D01*
X130517205Y-90938732D01*
X130522841Y-90943839D01*
X130527948Y-90949475D01*
X130532479Y-90955583D01*
X130536389Y-90962107D01*
X130539641Y-90968982D01*
X130542203Y-90976143D01*
X130544051Y-90983521D01*
X130545167Y-90991044D01*
X130545540Y-90998640D01*
X130545540Y-91183640D01*
X130545167Y-91191236D01*
X130544051Y-91198759D01*
X130542203Y-91206137D01*
X130539641Y-91213298D01*
X130536389Y-91220173D01*
X130532479Y-91226697D01*
X130527948Y-91232805D01*
X130522841Y-91238441D01*
X130517205Y-91243548D01*
X130511097Y-91248079D01*
X130504573Y-91251989D01*
X130497698Y-91255241D01*
X130490537Y-91257803D01*
X130483159Y-91259651D01*
X130475636Y-91260767D01*
X130468040Y-91261140D01*
X130313040Y-91261140D01*
X130305444Y-91260767D01*
X130297921Y-91259651D01*
X130290543Y-91257803D01*
X130283382Y-91255241D01*
X130276507Y-91251989D01*
X130269983Y-91248079D01*
X130263875Y-91243548D01*
X130258239Y-91238441D01*
X130253132Y-91232805D01*
X130248601Y-91226697D01*
X130244691Y-91220173D01*
X130241439Y-91213298D01*
X130238877Y-91206137D01*
X130237029Y-91198759D01*
X130235913Y-91191236D01*
X130235540Y-91183640D01*
X130235540Y-90998640D01*
X130235913Y-90991044D01*
X130237029Y-90983521D01*
X130238877Y-90976143D01*
X130241439Y-90968982D01*
X130244691Y-90962107D01*
X130248601Y-90955583D01*
X130253132Y-90949475D01*
X130258239Y-90943839D01*
X130263875Y-90938732D01*
X130269983Y-90934201D01*
X130276507Y-90930291D01*
X130283382Y-90927039D01*
X130290543Y-90924477D01*
X130297921Y-90922629D01*
X130305444Y-90921513D01*
X130313040Y-90921140D01*
X130468040Y-90921140D01*
X130475636Y-90921513D01*
G37*
G36*
X135519416Y-92779753D02*
G01*
X135526939Y-92780869D01*
X135534317Y-92782717D01*
X135541478Y-92785279D01*
X135548353Y-92788531D01*
X135554877Y-92792441D01*
X135560985Y-92796972D01*
X135566621Y-92802079D01*
X135571728Y-92807715D01*
X135576259Y-92813823D01*
X135580169Y-92820347D01*
X135583421Y-92827222D01*
X135585983Y-92834383D01*
X135587831Y-92841761D01*
X135588947Y-92849284D01*
X135589320Y-92856880D01*
X135589320Y-93011880D01*
X135588947Y-93019476D01*
X135587831Y-93026999D01*
X135585983Y-93034377D01*
X135583421Y-93041538D01*
X135580169Y-93048413D01*
X135576259Y-93054937D01*
X135571728Y-93061045D01*
X135566621Y-93066681D01*
X135560985Y-93071788D01*
X135554877Y-93076319D01*
X135548353Y-93080229D01*
X135541478Y-93083481D01*
X135534317Y-93086043D01*
X135526939Y-93087891D01*
X135519416Y-93089007D01*
X135511820Y-93089380D01*
X135326820Y-93089380D01*
X135319224Y-93089007D01*
X135311701Y-93087891D01*
X135304323Y-93086043D01*
X135297162Y-93083481D01*
X135290287Y-93080229D01*
X135283763Y-93076319D01*
X135277655Y-93071788D01*
X135272019Y-93066681D01*
X135266912Y-93061045D01*
X135262381Y-93054937D01*
X135258471Y-93048413D01*
X135255219Y-93041538D01*
X135252657Y-93034377D01*
X135250809Y-93026999D01*
X135249693Y-93019476D01*
X135249320Y-93011880D01*
X135249320Y-92856880D01*
X135249693Y-92849284D01*
X135250809Y-92841761D01*
X135252657Y-92834383D01*
X135255219Y-92827222D01*
X135258471Y-92820347D01*
X135262381Y-92813823D01*
X135266912Y-92807715D01*
X135272019Y-92802079D01*
X135277655Y-92796972D01*
X135283763Y-92792441D01*
X135290287Y-92788531D01*
X135297162Y-92785279D01*
X135304323Y-92782717D01*
X135311701Y-92780869D01*
X135319224Y-92779753D01*
X135326820Y-92779380D01*
X135511820Y-92779380D01*
X135519416Y-92779753D01*
G37*
G36*
X135519416Y-93329753D02*
G01*
X135526939Y-93330869D01*
X135534317Y-93332717D01*
X135541478Y-93335279D01*
X135548353Y-93338531D01*
X135554877Y-93342441D01*
X135560985Y-93346972D01*
X135566621Y-93352079D01*
X135571728Y-93357715D01*
X135576259Y-93363823D01*
X135580169Y-93370347D01*
X135583421Y-93377222D01*
X135585983Y-93384383D01*
X135587831Y-93391761D01*
X135588947Y-93399284D01*
X135589320Y-93406880D01*
X135589320Y-93561880D01*
X135588947Y-93569476D01*
X135587831Y-93576999D01*
X135585983Y-93584377D01*
X135583421Y-93591538D01*
X135580169Y-93598413D01*
X135576259Y-93604937D01*
X135571728Y-93611045D01*
X135566621Y-93616681D01*
X135560985Y-93621788D01*
X135554877Y-93626319D01*
X135548353Y-93630229D01*
X135541478Y-93633481D01*
X135534317Y-93636043D01*
X135526939Y-93637891D01*
X135519416Y-93639007D01*
X135511820Y-93639380D01*
X135326820Y-93639380D01*
X135319224Y-93639007D01*
X135311701Y-93637891D01*
X135304323Y-93636043D01*
X135297162Y-93633481D01*
X135290287Y-93630229D01*
X135283763Y-93626319D01*
X135277655Y-93621788D01*
X135272019Y-93616681D01*
X135266912Y-93611045D01*
X135262381Y-93604937D01*
X135258471Y-93598413D01*
X135255219Y-93591538D01*
X135252657Y-93584377D01*
X135250809Y-93576999D01*
X135249693Y-93569476D01*
X135249320Y-93561880D01*
X135249320Y-93406880D01*
X135249693Y-93399284D01*
X135250809Y-93391761D01*
X135252657Y-93384383D01*
X135255219Y-93377222D01*
X135258471Y-93370347D01*
X135262381Y-93363823D01*
X135266912Y-93357715D01*
X135272019Y-93352079D01*
X135277655Y-93346972D01*
X135283763Y-93342441D01*
X135290287Y-93338531D01*
X135297162Y-93335279D01*
X135304323Y-93332717D01*
X135311701Y-93330869D01*
X135319224Y-93329753D01*
X135326820Y-93329380D01*
X135511820Y-93329380D01*
X135519416Y-93329753D01*
G37*
G36*
X137532016Y-93268353D02*
G01*
X137539539Y-93269469D01*
X137546917Y-93271317D01*
X137554078Y-93273879D01*
X137560953Y-93277131D01*
X137567477Y-93281041D01*
X137573585Y-93285572D01*
X137579221Y-93290679D01*
X137584328Y-93296315D01*
X137588859Y-93302423D01*
X137592769Y-93308947D01*
X137596021Y-93315822D01*
X137598583Y-93322983D01*
X137600431Y-93330361D01*
X137601547Y-93337884D01*
X137601920Y-93345480D01*
X137601920Y-93530480D01*
X137601547Y-93538076D01*
X137600431Y-93545599D01*
X137598583Y-93552977D01*
X137596021Y-93560138D01*
X137592769Y-93567013D01*
X137588859Y-93573537D01*
X137584328Y-93579645D01*
X137579221Y-93585281D01*
X137573585Y-93590388D01*
X137567477Y-93594919D01*
X137560953Y-93598829D01*
X137554078Y-93602081D01*
X137546917Y-93604643D01*
X137539539Y-93606491D01*
X137532016Y-93607607D01*
X137524420Y-93607980D01*
X137369420Y-93607980D01*
X137361824Y-93607607D01*
X137354301Y-93606491D01*
X137346923Y-93604643D01*
X137339762Y-93602081D01*
X137332887Y-93598829D01*
X137326363Y-93594919D01*
X137320255Y-93590388D01*
X137314619Y-93585281D01*
X137309512Y-93579645D01*
X137304981Y-93573537D01*
X137301071Y-93567013D01*
X137297819Y-93560138D01*
X137295257Y-93552977D01*
X137293409Y-93545599D01*
X137292293Y-93538076D01*
X137291920Y-93530480D01*
X137291920Y-93345480D01*
X137292293Y-93337884D01*
X137293409Y-93330361D01*
X137295257Y-93322983D01*
X137297819Y-93315822D01*
X137301071Y-93308947D01*
X137304981Y-93302423D01*
X137309512Y-93296315D01*
X137314619Y-93290679D01*
X137320255Y-93285572D01*
X137326363Y-93281041D01*
X137332887Y-93277131D01*
X137339762Y-93273879D01*
X137346923Y-93271317D01*
X137354301Y-93269469D01*
X137361824Y-93268353D01*
X137369420Y-93267980D01*
X137524420Y-93267980D01*
X137532016Y-93268353D01*
G37*
G36*
X136982016Y-93268353D02*
G01*
X136989539Y-93269469D01*
X136996917Y-93271317D01*
X137004078Y-93273879D01*
X137010953Y-93277131D01*
X137017477Y-93281041D01*
X137023585Y-93285572D01*
X137029221Y-93290679D01*
X137034328Y-93296315D01*
X137038859Y-93302423D01*
X137042769Y-93308947D01*
X137046021Y-93315822D01*
X137048583Y-93322983D01*
X137050431Y-93330361D01*
X137051547Y-93337884D01*
X137051920Y-93345480D01*
X137051920Y-93530480D01*
X137051547Y-93538076D01*
X137050431Y-93545599D01*
X137048583Y-93552977D01*
X137046021Y-93560138D01*
X137042769Y-93567013D01*
X137038859Y-93573537D01*
X137034328Y-93579645D01*
X137029221Y-93585281D01*
X137023585Y-93590388D01*
X137017477Y-93594919D01*
X137010953Y-93598829D01*
X137004078Y-93602081D01*
X136996917Y-93604643D01*
X136989539Y-93606491D01*
X136982016Y-93607607D01*
X136974420Y-93607980D01*
X136819420Y-93607980D01*
X136811824Y-93607607D01*
X136804301Y-93606491D01*
X136796923Y-93604643D01*
X136789762Y-93602081D01*
X136782887Y-93598829D01*
X136776363Y-93594919D01*
X136770255Y-93590388D01*
X136764619Y-93585281D01*
X136759512Y-93579645D01*
X136754981Y-93573537D01*
X136751071Y-93567013D01*
X136747819Y-93560138D01*
X136745257Y-93552977D01*
X136743409Y-93545599D01*
X136742293Y-93538076D01*
X136741920Y-93530480D01*
X136741920Y-93345480D01*
X136742293Y-93337884D01*
X136743409Y-93330361D01*
X136745257Y-93322983D01*
X136747819Y-93315822D01*
X136751071Y-93308947D01*
X136754981Y-93302423D01*
X136759512Y-93296315D01*
X136764619Y-93290679D01*
X136770255Y-93285572D01*
X136776363Y-93281041D01*
X136782887Y-93277131D01*
X136789762Y-93273879D01*
X136796923Y-93271317D01*
X136804301Y-93269469D01*
X136811824Y-93268353D01*
X136819420Y-93267980D01*
X136974420Y-93267980D01*
X136982016Y-93268353D01*
G37*
G36*
X134478016Y-88233153D02*
G01*
X134485539Y-88234269D01*
X134492917Y-88236117D01*
X134500078Y-88238679D01*
X134506953Y-88241931D01*
X134513477Y-88245841D01*
X134519585Y-88250372D01*
X134525221Y-88255479D01*
X134530328Y-88261115D01*
X134534859Y-88267223D01*
X134538769Y-88273747D01*
X134542021Y-88280622D01*
X134544583Y-88287783D01*
X134546431Y-88295161D01*
X134547547Y-88302684D01*
X134547920Y-88310280D01*
X134547920Y-88465280D01*
X134547547Y-88472876D01*
X134546431Y-88480399D01*
X134544583Y-88487777D01*
X134542021Y-88494938D01*
X134538769Y-88501813D01*
X134534859Y-88508337D01*
X134530328Y-88514445D01*
X134525221Y-88520081D01*
X134519585Y-88525188D01*
X134513477Y-88529719D01*
X134506953Y-88533629D01*
X134500078Y-88536881D01*
X134492917Y-88539443D01*
X134485539Y-88541291D01*
X134478016Y-88542407D01*
X134470420Y-88542780D01*
X134285420Y-88542780D01*
X134277824Y-88542407D01*
X134270301Y-88541291D01*
X134262923Y-88539443D01*
X134255762Y-88536881D01*
X134248887Y-88533629D01*
X134242363Y-88529719D01*
X134236255Y-88525188D01*
X134230619Y-88520081D01*
X134225512Y-88514445D01*
X134220981Y-88508337D01*
X134217071Y-88501813D01*
X134213819Y-88494938D01*
X134211257Y-88487777D01*
X134209409Y-88480399D01*
X134208293Y-88472876D01*
X134207920Y-88465280D01*
X134207920Y-88310280D01*
X134208293Y-88302684D01*
X134209409Y-88295161D01*
X134211257Y-88287783D01*
X134213819Y-88280622D01*
X134217071Y-88273747D01*
X134220981Y-88267223D01*
X134225512Y-88261115D01*
X134230619Y-88255479D01*
X134236255Y-88250372D01*
X134242363Y-88245841D01*
X134248887Y-88241931D01*
X134255762Y-88238679D01*
X134262923Y-88236117D01*
X134270301Y-88234269D01*
X134277824Y-88233153D01*
X134285420Y-88232780D01*
X134470420Y-88232780D01*
X134478016Y-88233153D01*
G37*
G36*
X134478016Y-88783153D02*
G01*
X134485539Y-88784269D01*
X134492917Y-88786117D01*
X134500078Y-88788679D01*
X134506953Y-88791931D01*
X134513477Y-88795841D01*
X134519585Y-88800372D01*
X134525221Y-88805479D01*
X134530328Y-88811115D01*
X134534859Y-88817223D01*
X134538769Y-88823747D01*
X134542021Y-88830622D01*
X134544583Y-88837783D01*
X134546431Y-88845161D01*
X134547547Y-88852684D01*
X134547920Y-88860280D01*
X134547920Y-89015280D01*
X134547547Y-89022876D01*
X134546431Y-89030399D01*
X134544583Y-89037777D01*
X134542021Y-89044938D01*
X134538769Y-89051813D01*
X134534859Y-89058337D01*
X134530328Y-89064445D01*
X134525221Y-89070081D01*
X134519585Y-89075188D01*
X134513477Y-89079719D01*
X134506953Y-89083629D01*
X134500078Y-89086881D01*
X134492917Y-89089443D01*
X134485539Y-89091291D01*
X134478016Y-89092407D01*
X134470420Y-89092780D01*
X134285420Y-89092780D01*
X134277824Y-89092407D01*
X134270301Y-89091291D01*
X134262923Y-89089443D01*
X134255762Y-89086881D01*
X134248887Y-89083629D01*
X134242363Y-89079719D01*
X134236255Y-89075188D01*
X134230619Y-89070081D01*
X134225512Y-89064445D01*
X134220981Y-89058337D01*
X134217071Y-89051813D01*
X134213819Y-89044938D01*
X134211257Y-89037777D01*
X134209409Y-89030399D01*
X134208293Y-89022876D01*
X134207920Y-89015280D01*
X134207920Y-88860280D01*
X134208293Y-88852684D01*
X134209409Y-88845161D01*
X134211257Y-88837783D01*
X134213819Y-88830622D01*
X134217071Y-88823747D01*
X134220981Y-88817223D01*
X134225512Y-88811115D01*
X134230619Y-88805479D01*
X134236255Y-88800372D01*
X134242363Y-88795841D01*
X134248887Y-88791931D01*
X134255762Y-88788679D01*
X134262923Y-88786117D01*
X134270301Y-88784269D01*
X134277824Y-88783153D01*
X134285420Y-88782780D01*
X134470420Y-88782780D01*
X134478016Y-88783153D01*
G37*
G36*
X137049416Y-89280553D02*
G01*
X137056939Y-89281669D01*
X137064317Y-89283517D01*
X137071478Y-89286079D01*
X137078353Y-89289331D01*
X137084877Y-89293241D01*
X137090985Y-89297772D01*
X137096621Y-89302879D01*
X137101728Y-89308515D01*
X137106259Y-89314623D01*
X137110169Y-89321147D01*
X137113421Y-89328022D01*
X137115983Y-89335183D01*
X137117831Y-89342561D01*
X137118947Y-89350084D01*
X137119320Y-89357680D01*
X137119320Y-89542680D01*
X137118947Y-89550276D01*
X137117831Y-89557799D01*
X137115983Y-89565177D01*
X137113421Y-89572338D01*
X137110169Y-89579213D01*
X137106259Y-89585737D01*
X137101728Y-89591845D01*
X137096621Y-89597481D01*
X137090985Y-89602588D01*
X137084877Y-89607119D01*
X137078353Y-89611029D01*
X137071478Y-89614281D01*
X137064317Y-89616843D01*
X137056939Y-89618691D01*
X137049416Y-89619807D01*
X137041820Y-89620180D01*
X136886820Y-89620180D01*
X136879224Y-89619807D01*
X136871701Y-89618691D01*
X136864323Y-89616843D01*
X136857162Y-89614281D01*
X136850287Y-89611029D01*
X136843763Y-89607119D01*
X136837655Y-89602588D01*
X136832019Y-89597481D01*
X136826912Y-89591845D01*
X136822381Y-89585737D01*
X136818471Y-89579213D01*
X136815219Y-89572338D01*
X136812657Y-89565177D01*
X136810809Y-89557799D01*
X136809693Y-89550276D01*
X136809320Y-89542680D01*
X136809320Y-89357680D01*
X136809693Y-89350084D01*
X136810809Y-89342561D01*
X136812657Y-89335183D01*
X136815219Y-89328022D01*
X136818471Y-89321147D01*
X136822381Y-89314623D01*
X136826912Y-89308515D01*
X136832019Y-89302879D01*
X136837655Y-89297772D01*
X136843763Y-89293241D01*
X136850287Y-89289331D01*
X136857162Y-89286079D01*
X136864323Y-89283517D01*
X136871701Y-89281669D01*
X136879224Y-89280553D01*
X136886820Y-89280180D01*
X137041820Y-89280180D01*
X137049416Y-89280553D01*
G37*
G36*
X136499416Y-89280553D02*
G01*
X136506939Y-89281669D01*
X136514317Y-89283517D01*
X136521478Y-89286079D01*
X136528353Y-89289331D01*
X136534877Y-89293241D01*
X136540985Y-89297772D01*
X136546621Y-89302879D01*
X136551728Y-89308515D01*
X136556259Y-89314623D01*
X136560169Y-89321147D01*
X136563421Y-89328022D01*
X136565983Y-89335183D01*
X136567831Y-89342561D01*
X136568947Y-89350084D01*
X136569320Y-89357680D01*
X136569320Y-89542680D01*
X136568947Y-89550276D01*
X136567831Y-89557799D01*
X136565983Y-89565177D01*
X136563421Y-89572338D01*
X136560169Y-89579213D01*
X136556259Y-89585737D01*
X136551728Y-89591845D01*
X136546621Y-89597481D01*
X136540985Y-89602588D01*
X136534877Y-89607119D01*
X136528353Y-89611029D01*
X136521478Y-89614281D01*
X136514317Y-89616843D01*
X136506939Y-89618691D01*
X136499416Y-89619807D01*
X136491820Y-89620180D01*
X136336820Y-89620180D01*
X136329224Y-89619807D01*
X136321701Y-89618691D01*
X136314323Y-89616843D01*
X136307162Y-89614281D01*
X136300287Y-89611029D01*
X136293763Y-89607119D01*
X136287655Y-89602588D01*
X136282019Y-89597481D01*
X136276912Y-89591845D01*
X136272381Y-89585737D01*
X136268471Y-89579213D01*
X136265219Y-89572338D01*
X136262657Y-89565177D01*
X136260809Y-89557799D01*
X136259693Y-89550276D01*
X136259320Y-89542680D01*
X136259320Y-89357680D01*
X136259693Y-89350084D01*
X136260809Y-89342561D01*
X136262657Y-89335183D01*
X136265219Y-89328022D01*
X136268471Y-89321147D01*
X136272381Y-89314623D01*
X136276912Y-89308515D01*
X136282019Y-89302879D01*
X136287655Y-89297772D01*
X136293763Y-89293241D01*
X136300287Y-89289331D01*
X136307162Y-89286079D01*
X136314323Y-89283517D01*
X136321701Y-89281669D01*
X136329224Y-89280553D01*
X136336820Y-89280180D01*
X136491820Y-89280180D01*
X136499416Y-89280553D01*
G37*
G36*
X138548016Y-93293753D02*
G01*
X138555539Y-93294869D01*
X138562917Y-93296717D01*
X138570078Y-93299279D01*
X138576953Y-93302531D01*
X138583477Y-93306441D01*
X138589585Y-93310972D01*
X138595221Y-93316079D01*
X138600328Y-93321715D01*
X138604859Y-93327823D01*
X138608769Y-93334347D01*
X138612021Y-93341222D01*
X138614583Y-93348383D01*
X138616431Y-93355761D01*
X138617547Y-93363284D01*
X138617920Y-93370880D01*
X138617920Y-93555880D01*
X138617547Y-93563476D01*
X138616431Y-93570999D01*
X138614583Y-93578377D01*
X138612021Y-93585538D01*
X138608769Y-93592413D01*
X138604859Y-93598937D01*
X138600328Y-93605045D01*
X138595221Y-93610681D01*
X138589585Y-93615788D01*
X138583477Y-93620319D01*
X138576953Y-93624229D01*
X138570078Y-93627481D01*
X138562917Y-93630043D01*
X138555539Y-93631891D01*
X138548016Y-93633007D01*
X138540420Y-93633380D01*
X138385420Y-93633380D01*
X138377824Y-93633007D01*
X138370301Y-93631891D01*
X138362923Y-93630043D01*
X138355762Y-93627481D01*
X138348887Y-93624229D01*
X138342363Y-93620319D01*
X138336255Y-93615788D01*
X138330619Y-93610681D01*
X138325512Y-93605045D01*
X138320981Y-93598937D01*
X138317071Y-93592413D01*
X138313819Y-93585538D01*
X138311257Y-93578377D01*
X138309409Y-93570999D01*
X138308293Y-93563476D01*
X138307920Y-93555880D01*
X138307920Y-93370880D01*
X138308293Y-93363284D01*
X138309409Y-93355761D01*
X138311257Y-93348383D01*
X138313819Y-93341222D01*
X138317071Y-93334347D01*
X138320981Y-93327823D01*
X138325512Y-93321715D01*
X138330619Y-93316079D01*
X138336255Y-93310972D01*
X138342363Y-93306441D01*
X138348887Y-93302531D01*
X138355762Y-93299279D01*
X138362923Y-93296717D01*
X138370301Y-93294869D01*
X138377824Y-93293753D01*
X138385420Y-93293380D01*
X138540420Y-93293380D01*
X138548016Y-93293753D01*
G37*
G36*
X137998016Y-93293753D02*
G01*
X138005539Y-93294869D01*
X138012917Y-93296717D01*
X138020078Y-93299279D01*
X138026953Y-93302531D01*
X138033477Y-93306441D01*
X138039585Y-93310972D01*
X138045221Y-93316079D01*
X138050328Y-93321715D01*
X138054859Y-93327823D01*
X138058769Y-93334347D01*
X138062021Y-93341222D01*
X138064583Y-93348383D01*
X138066431Y-93355761D01*
X138067547Y-93363284D01*
X138067920Y-93370880D01*
X138067920Y-93555880D01*
X138067547Y-93563476D01*
X138066431Y-93570999D01*
X138064583Y-93578377D01*
X138062021Y-93585538D01*
X138058769Y-93592413D01*
X138054859Y-93598937D01*
X138050328Y-93605045D01*
X138045221Y-93610681D01*
X138039585Y-93615788D01*
X138033477Y-93620319D01*
X138026953Y-93624229D01*
X138020078Y-93627481D01*
X138012917Y-93630043D01*
X138005539Y-93631891D01*
X137998016Y-93633007D01*
X137990420Y-93633380D01*
X137835420Y-93633380D01*
X137827824Y-93633007D01*
X137820301Y-93631891D01*
X137812923Y-93630043D01*
X137805762Y-93627481D01*
X137798887Y-93624229D01*
X137792363Y-93620319D01*
X137786255Y-93615788D01*
X137780619Y-93610681D01*
X137775512Y-93605045D01*
X137770981Y-93598937D01*
X137767071Y-93592413D01*
X137763819Y-93585538D01*
X137761257Y-93578377D01*
X137759409Y-93570999D01*
X137758293Y-93563476D01*
X137757920Y-93555880D01*
X137757920Y-93370880D01*
X137758293Y-93363284D01*
X137759409Y-93355761D01*
X137761257Y-93348383D01*
X137763819Y-93341222D01*
X137767071Y-93334347D01*
X137770981Y-93327823D01*
X137775512Y-93321715D01*
X137780619Y-93316079D01*
X137786255Y-93310972D01*
X137792363Y-93306441D01*
X137798887Y-93302531D01*
X137805762Y-93299279D01*
X137812923Y-93296717D01*
X137820301Y-93294869D01*
X137827824Y-93293753D01*
X137835420Y-93293380D01*
X137990420Y-93293380D01*
X137998016Y-93293753D01*
G37*
G36*
X140157016Y-89280553D02*
G01*
X140164539Y-89281669D01*
X140171917Y-89283517D01*
X140179078Y-89286079D01*
X140185953Y-89289331D01*
X140192477Y-89293241D01*
X140198585Y-89297772D01*
X140204221Y-89302879D01*
X140209328Y-89308515D01*
X140213859Y-89314623D01*
X140217769Y-89321147D01*
X140221021Y-89328022D01*
X140223583Y-89335183D01*
X140225431Y-89342561D01*
X140226547Y-89350084D01*
X140226920Y-89357680D01*
X140226920Y-89542680D01*
X140226547Y-89550276D01*
X140225431Y-89557799D01*
X140223583Y-89565177D01*
X140221021Y-89572338D01*
X140217769Y-89579213D01*
X140213859Y-89585737D01*
X140209328Y-89591845D01*
X140204221Y-89597481D01*
X140198585Y-89602588D01*
X140192477Y-89607119D01*
X140185953Y-89611029D01*
X140179078Y-89614281D01*
X140171917Y-89616843D01*
X140164539Y-89618691D01*
X140157016Y-89619807D01*
X140149420Y-89620180D01*
X139994420Y-89620180D01*
X139986824Y-89619807D01*
X139979301Y-89618691D01*
X139971923Y-89616843D01*
X139964762Y-89614281D01*
X139957887Y-89611029D01*
X139951363Y-89607119D01*
X139945255Y-89602588D01*
X139939619Y-89597481D01*
X139934512Y-89591845D01*
X139929981Y-89585737D01*
X139926071Y-89579213D01*
X139922819Y-89572338D01*
X139920257Y-89565177D01*
X139918409Y-89557799D01*
X139917293Y-89550276D01*
X139916920Y-89542680D01*
X139916920Y-89357680D01*
X139917293Y-89350084D01*
X139918409Y-89342561D01*
X139920257Y-89335183D01*
X139922819Y-89328022D01*
X139926071Y-89321147D01*
X139929981Y-89314623D01*
X139934512Y-89308515D01*
X139939619Y-89302879D01*
X139945255Y-89297772D01*
X139951363Y-89293241D01*
X139957887Y-89289331D01*
X139964762Y-89286079D01*
X139971923Y-89283517D01*
X139979301Y-89281669D01*
X139986824Y-89280553D01*
X139994420Y-89280180D01*
X140149420Y-89280180D01*
X140157016Y-89280553D01*
G37*
G36*
X140707016Y-89280553D02*
G01*
X140714539Y-89281669D01*
X140721917Y-89283517D01*
X140729078Y-89286079D01*
X140735953Y-89289331D01*
X140742477Y-89293241D01*
X140748585Y-89297772D01*
X140754221Y-89302879D01*
X140759328Y-89308515D01*
X140763859Y-89314623D01*
X140767769Y-89321147D01*
X140771021Y-89328022D01*
X140773583Y-89335183D01*
X140775431Y-89342561D01*
X140776547Y-89350084D01*
X140776920Y-89357680D01*
X140776920Y-89542680D01*
X140776547Y-89550276D01*
X140775431Y-89557799D01*
X140773583Y-89565177D01*
X140771021Y-89572338D01*
X140767769Y-89579213D01*
X140763859Y-89585737D01*
X140759328Y-89591845D01*
X140754221Y-89597481D01*
X140748585Y-89602588D01*
X140742477Y-89607119D01*
X140735953Y-89611029D01*
X140729078Y-89614281D01*
X140721917Y-89616843D01*
X140714539Y-89618691D01*
X140707016Y-89619807D01*
X140699420Y-89620180D01*
X140544420Y-89620180D01*
X140536824Y-89619807D01*
X140529301Y-89618691D01*
X140521923Y-89616843D01*
X140514762Y-89614281D01*
X140507887Y-89611029D01*
X140501363Y-89607119D01*
X140495255Y-89602588D01*
X140489619Y-89597481D01*
X140484512Y-89591845D01*
X140479981Y-89585737D01*
X140476071Y-89579213D01*
X140472819Y-89572338D01*
X140470257Y-89565177D01*
X140468409Y-89557799D01*
X140467293Y-89550276D01*
X140466920Y-89542680D01*
X140466920Y-89357680D01*
X140467293Y-89350084D01*
X140468409Y-89342561D01*
X140470257Y-89335183D01*
X140472819Y-89328022D01*
X140476071Y-89321147D01*
X140479981Y-89314623D01*
X140484512Y-89308515D01*
X140489619Y-89302879D01*
X140495255Y-89297772D01*
X140501363Y-89293241D01*
X140507887Y-89289331D01*
X140514762Y-89286079D01*
X140521923Y-89283517D01*
X140529301Y-89281669D01*
X140536824Y-89280553D01*
X140544420Y-89280180D01*
X140699420Y-89280180D01*
X140707016Y-89280553D01*
G37*
G36*
X137972616Y-89280553D02*
G01*
X137980139Y-89281669D01*
X137987517Y-89283517D01*
X137994678Y-89286079D01*
X138001553Y-89289331D01*
X138008077Y-89293241D01*
X138014185Y-89297772D01*
X138019821Y-89302879D01*
X138024928Y-89308515D01*
X138029459Y-89314623D01*
X138033369Y-89321147D01*
X138036621Y-89328022D01*
X138039183Y-89335183D01*
X138041031Y-89342561D01*
X138042147Y-89350084D01*
X138042520Y-89357680D01*
X138042520Y-89542680D01*
X138042147Y-89550276D01*
X138041031Y-89557799D01*
X138039183Y-89565177D01*
X138036621Y-89572338D01*
X138033369Y-89579213D01*
X138029459Y-89585737D01*
X138024928Y-89591845D01*
X138019821Y-89597481D01*
X138014185Y-89602588D01*
X138008077Y-89607119D01*
X138001553Y-89611029D01*
X137994678Y-89614281D01*
X137987517Y-89616843D01*
X137980139Y-89618691D01*
X137972616Y-89619807D01*
X137965020Y-89620180D01*
X137810020Y-89620180D01*
X137802424Y-89619807D01*
X137794901Y-89618691D01*
X137787523Y-89616843D01*
X137780362Y-89614281D01*
X137773487Y-89611029D01*
X137766963Y-89607119D01*
X137760855Y-89602588D01*
X137755219Y-89597481D01*
X137750112Y-89591845D01*
X137745581Y-89585737D01*
X137741671Y-89579213D01*
X137738419Y-89572338D01*
X137735857Y-89565177D01*
X137734009Y-89557799D01*
X137732893Y-89550276D01*
X137732520Y-89542680D01*
X137732520Y-89357680D01*
X137732893Y-89350084D01*
X137734009Y-89342561D01*
X137735857Y-89335183D01*
X137738419Y-89328022D01*
X137741671Y-89321147D01*
X137745581Y-89314623D01*
X137750112Y-89308515D01*
X137755219Y-89302879D01*
X137760855Y-89297772D01*
X137766963Y-89293241D01*
X137773487Y-89289331D01*
X137780362Y-89286079D01*
X137787523Y-89283517D01*
X137794901Y-89281669D01*
X137802424Y-89280553D01*
X137810020Y-89280180D01*
X137965020Y-89280180D01*
X137972616Y-89280553D01*
G37*
G36*
X138522616Y-89280553D02*
G01*
X138530139Y-89281669D01*
X138537517Y-89283517D01*
X138544678Y-89286079D01*
X138551553Y-89289331D01*
X138558077Y-89293241D01*
X138564185Y-89297772D01*
X138569821Y-89302879D01*
X138574928Y-89308515D01*
X138579459Y-89314623D01*
X138583369Y-89321147D01*
X138586621Y-89328022D01*
X138589183Y-89335183D01*
X138591031Y-89342561D01*
X138592147Y-89350084D01*
X138592520Y-89357680D01*
X138592520Y-89542680D01*
X138592147Y-89550276D01*
X138591031Y-89557799D01*
X138589183Y-89565177D01*
X138586621Y-89572338D01*
X138583369Y-89579213D01*
X138579459Y-89585737D01*
X138574928Y-89591845D01*
X138569821Y-89597481D01*
X138564185Y-89602588D01*
X138558077Y-89607119D01*
X138551553Y-89611029D01*
X138544678Y-89614281D01*
X138537517Y-89616843D01*
X138530139Y-89618691D01*
X138522616Y-89619807D01*
X138515020Y-89620180D01*
X138360020Y-89620180D01*
X138352424Y-89619807D01*
X138344901Y-89618691D01*
X138337523Y-89616843D01*
X138330362Y-89614281D01*
X138323487Y-89611029D01*
X138316963Y-89607119D01*
X138310855Y-89602588D01*
X138305219Y-89597481D01*
X138300112Y-89591845D01*
X138295581Y-89585737D01*
X138291671Y-89579213D01*
X138288419Y-89572338D01*
X138285857Y-89565177D01*
X138284009Y-89557799D01*
X138282893Y-89550276D01*
X138282520Y-89542680D01*
X138282520Y-89357680D01*
X138282893Y-89350084D01*
X138284009Y-89342561D01*
X138285857Y-89335183D01*
X138288419Y-89328022D01*
X138291671Y-89321147D01*
X138295581Y-89314623D01*
X138300112Y-89308515D01*
X138305219Y-89302879D01*
X138310855Y-89297772D01*
X138316963Y-89293241D01*
X138323487Y-89289331D01*
X138330362Y-89286079D01*
X138337523Y-89283517D01*
X138344901Y-89281669D01*
X138352424Y-89280553D01*
X138360020Y-89280180D01*
X138515020Y-89280180D01*
X138522616Y-89280553D01*
G37*
G36*
X139064816Y-89280553D02*
G01*
X139072339Y-89281669D01*
X139079717Y-89283517D01*
X139086878Y-89286079D01*
X139093753Y-89289331D01*
X139100277Y-89293241D01*
X139106385Y-89297772D01*
X139112021Y-89302879D01*
X139117128Y-89308515D01*
X139121659Y-89314623D01*
X139125569Y-89321147D01*
X139128821Y-89328022D01*
X139131383Y-89335183D01*
X139133231Y-89342561D01*
X139134347Y-89350084D01*
X139134720Y-89357680D01*
X139134720Y-89542680D01*
X139134347Y-89550276D01*
X139133231Y-89557799D01*
X139131383Y-89565177D01*
X139128821Y-89572338D01*
X139125569Y-89579213D01*
X139121659Y-89585737D01*
X139117128Y-89591845D01*
X139112021Y-89597481D01*
X139106385Y-89602588D01*
X139100277Y-89607119D01*
X139093753Y-89611029D01*
X139086878Y-89614281D01*
X139079717Y-89616843D01*
X139072339Y-89618691D01*
X139064816Y-89619807D01*
X139057220Y-89620180D01*
X138902220Y-89620180D01*
X138894624Y-89619807D01*
X138887101Y-89618691D01*
X138879723Y-89616843D01*
X138872562Y-89614281D01*
X138865687Y-89611029D01*
X138859163Y-89607119D01*
X138853055Y-89602588D01*
X138847419Y-89597481D01*
X138842312Y-89591845D01*
X138837781Y-89585737D01*
X138833871Y-89579213D01*
X138830619Y-89572338D01*
X138828057Y-89565177D01*
X138826209Y-89557799D01*
X138825093Y-89550276D01*
X138824720Y-89542680D01*
X138824720Y-89357680D01*
X138825093Y-89350084D01*
X138826209Y-89342561D01*
X138828057Y-89335183D01*
X138830619Y-89328022D01*
X138833871Y-89321147D01*
X138837781Y-89314623D01*
X138842312Y-89308515D01*
X138847419Y-89302879D01*
X138853055Y-89297772D01*
X138859163Y-89293241D01*
X138865687Y-89289331D01*
X138872562Y-89286079D01*
X138879723Y-89283517D01*
X138887101Y-89281669D01*
X138894624Y-89280553D01*
X138902220Y-89280180D01*
X139057220Y-89280180D01*
X139064816Y-89280553D01*
G37*
G36*
X139614816Y-89280553D02*
G01*
X139622339Y-89281669D01*
X139629717Y-89283517D01*
X139636878Y-89286079D01*
X139643753Y-89289331D01*
X139650277Y-89293241D01*
X139656385Y-89297772D01*
X139662021Y-89302879D01*
X139667128Y-89308515D01*
X139671659Y-89314623D01*
X139675569Y-89321147D01*
X139678821Y-89328022D01*
X139681383Y-89335183D01*
X139683231Y-89342561D01*
X139684347Y-89350084D01*
X139684720Y-89357680D01*
X139684720Y-89542680D01*
X139684347Y-89550276D01*
X139683231Y-89557799D01*
X139681383Y-89565177D01*
X139678821Y-89572338D01*
X139675569Y-89579213D01*
X139671659Y-89585737D01*
X139667128Y-89591845D01*
X139662021Y-89597481D01*
X139656385Y-89602588D01*
X139650277Y-89607119D01*
X139643753Y-89611029D01*
X139636878Y-89614281D01*
X139629717Y-89616843D01*
X139622339Y-89618691D01*
X139614816Y-89619807D01*
X139607220Y-89620180D01*
X139452220Y-89620180D01*
X139444624Y-89619807D01*
X139437101Y-89618691D01*
X139429723Y-89616843D01*
X139422562Y-89614281D01*
X139415687Y-89611029D01*
X139409163Y-89607119D01*
X139403055Y-89602588D01*
X139397419Y-89597481D01*
X139392312Y-89591845D01*
X139387781Y-89585737D01*
X139383871Y-89579213D01*
X139380619Y-89572338D01*
X139378057Y-89565177D01*
X139376209Y-89557799D01*
X139375093Y-89550276D01*
X139374720Y-89542680D01*
X139374720Y-89357680D01*
X139375093Y-89350084D01*
X139376209Y-89342561D01*
X139378057Y-89335183D01*
X139380619Y-89328022D01*
X139383871Y-89321147D01*
X139387781Y-89314623D01*
X139392312Y-89308515D01*
X139397419Y-89302879D01*
X139403055Y-89297772D01*
X139409163Y-89293241D01*
X139415687Y-89289331D01*
X139422562Y-89286079D01*
X139429723Y-89283517D01*
X139437101Y-89281669D01*
X139444624Y-89280553D01*
X139452220Y-89280180D01*
X139607220Y-89280180D01*
X139614816Y-89280553D01*
G37*
G36*
X135011416Y-92779753D02*
G01*
X135018939Y-92780869D01*
X135026317Y-92782717D01*
X135033478Y-92785279D01*
X135040353Y-92788531D01*
X135046877Y-92792441D01*
X135052985Y-92796972D01*
X135058621Y-92802079D01*
X135063728Y-92807715D01*
X135068259Y-92813823D01*
X135072169Y-92820347D01*
X135075421Y-92827222D01*
X135077983Y-92834383D01*
X135079831Y-92841761D01*
X135080947Y-92849284D01*
X135081320Y-92856880D01*
X135081320Y-93011880D01*
X135080947Y-93019476D01*
X135079831Y-93026999D01*
X135077983Y-93034377D01*
X135075421Y-93041538D01*
X135072169Y-93048413D01*
X135068259Y-93054937D01*
X135063728Y-93061045D01*
X135058621Y-93066681D01*
X135052985Y-93071788D01*
X135046877Y-93076319D01*
X135040353Y-93080229D01*
X135033478Y-93083481D01*
X135026317Y-93086043D01*
X135018939Y-93087891D01*
X135011416Y-93089007D01*
X135003820Y-93089380D01*
X134818820Y-93089380D01*
X134811224Y-93089007D01*
X134803701Y-93087891D01*
X134796323Y-93086043D01*
X134789162Y-93083481D01*
X134782287Y-93080229D01*
X134775763Y-93076319D01*
X134769655Y-93071788D01*
X134764019Y-93066681D01*
X134758912Y-93061045D01*
X134754381Y-93054937D01*
X134750471Y-93048413D01*
X134747219Y-93041538D01*
X134744657Y-93034377D01*
X134742809Y-93026999D01*
X134741693Y-93019476D01*
X134741320Y-93011880D01*
X134741320Y-92856880D01*
X134741693Y-92849284D01*
X134742809Y-92841761D01*
X134744657Y-92834383D01*
X134747219Y-92827222D01*
X134750471Y-92820347D01*
X134754381Y-92813823D01*
X134758912Y-92807715D01*
X134764019Y-92802079D01*
X134769655Y-92796972D01*
X134775763Y-92792441D01*
X134782287Y-92788531D01*
X134789162Y-92785279D01*
X134796323Y-92782717D01*
X134803701Y-92780869D01*
X134811224Y-92779753D01*
X134818820Y-92779380D01*
X135003820Y-92779380D01*
X135011416Y-92779753D01*
G37*
G36*
X135011416Y-93329753D02*
G01*
X135018939Y-93330869D01*
X135026317Y-93332717D01*
X135033478Y-93335279D01*
X135040353Y-93338531D01*
X135046877Y-93342441D01*
X135052985Y-93346972D01*
X135058621Y-93352079D01*
X135063728Y-93357715D01*
X135068259Y-93363823D01*
X135072169Y-93370347D01*
X135075421Y-93377222D01*
X135077983Y-93384383D01*
X135079831Y-93391761D01*
X135080947Y-93399284D01*
X135081320Y-93406880D01*
X135081320Y-93561880D01*
X135080947Y-93569476D01*
X135079831Y-93576999D01*
X135077983Y-93584377D01*
X135075421Y-93591538D01*
X135072169Y-93598413D01*
X135068259Y-93604937D01*
X135063728Y-93611045D01*
X135058621Y-93616681D01*
X135052985Y-93621788D01*
X135046877Y-93626319D01*
X135040353Y-93630229D01*
X135033478Y-93633481D01*
X135026317Y-93636043D01*
X135018939Y-93637891D01*
X135011416Y-93639007D01*
X135003820Y-93639380D01*
X134818820Y-93639380D01*
X134811224Y-93639007D01*
X134803701Y-93637891D01*
X134796323Y-93636043D01*
X134789162Y-93633481D01*
X134782287Y-93630229D01*
X134775763Y-93626319D01*
X134769655Y-93621788D01*
X134764019Y-93616681D01*
X134758912Y-93611045D01*
X134754381Y-93604937D01*
X134750471Y-93598413D01*
X134747219Y-93591538D01*
X134744657Y-93584377D01*
X134742809Y-93576999D01*
X134741693Y-93569476D01*
X134741320Y-93561880D01*
X134741320Y-93406880D01*
X134741693Y-93399284D01*
X134742809Y-93391761D01*
X134744657Y-93384383D01*
X134747219Y-93377222D01*
X134750471Y-93370347D01*
X134754381Y-93363823D01*
X134758912Y-93357715D01*
X134764019Y-93352079D01*
X134769655Y-93346972D01*
X134775763Y-93342441D01*
X134782287Y-93338531D01*
X134789162Y-93335279D01*
X134796323Y-93332717D01*
X134803701Y-93330869D01*
X134811224Y-93329753D01*
X134818820Y-93329380D01*
X135003820Y-93329380D01*
X135011416Y-93329753D01*
G37*
G36*
X138542016Y-92339153D02*
G01*
X138549539Y-92340269D01*
X138556917Y-92342117D01*
X138564078Y-92344679D01*
X138570953Y-92347931D01*
X138577477Y-92351841D01*
X138583585Y-92356372D01*
X138589221Y-92361479D01*
X138594328Y-92367115D01*
X138598859Y-92373223D01*
X138602769Y-92379747D01*
X138606021Y-92386622D01*
X138608583Y-92393783D01*
X138610431Y-92401161D01*
X138611547Y-92408684D01*
X138611920Y-92416280D01*
X138611920Y-92571280D01*
X138611547Y-92578876D01*
X138610431Y-92586399D01*
X138608583Y-92593777D01*
X138606021Y-92600938D01*
X138602769Y-92607813D01*
X138598859Y-92614337D01*
X138594328Y-92620445D01*
X138589221Y-92626081D01*
X138583585Y-92631188D01*
X138577477Y-92635719D01*
X138570953Y-92639629D01*
X138564078Y-92642881D01*
X138556917Y-92645443D01*
X138549539Y-92647291D01*
X138542016Y-92648407D01*
X138534420Y-92648780D01*
X138349420Y-92648780D01*
X138341824Y-92648407D01*
X138334301Y-92647291D01*
X138326923Y-92645443D01*
X138319762Y-92642881D01*
X138312887Y-92639629D01*
X138306363Y-92635719D01*
X138300255Y-92631188D01*
X138294619Y-92626081D01*
X138289512Y-92620445D01*
X138284981Y-92614337D01*
X138281071Y-92607813D01*
X138277819Y-92600938D01*
X138275257Y-92593777D01*
X138273409Y-92586399D01*
X138272293Y-92578876D01*
X138271920Y-92571280D01*
X138271920Y-92416280D01*
X138272293Y-92408684D01*
X138273409Y-92401161D01*
X138275257Y-92393783D01*
X138277819Y-92386622D01*
X138281071Y-92379747D01*
X138284981Y-92373223D01*
X138289512Y-92367115D01*
X138294619Y-92361479D01*
X138300255Y-92356372D01*
X138306363Y-92351841D01*
X138312887Y-92347931D01*
X138319762Y-92344679D01*
X138326923Y-92342117D01*
X138334301Y-92340269D01*
X138341824Y-92339153D01*
X138349420Y-92338780D01*
X138534420Y-92338780D01*
X138542016Y-92339153D01*
G37*
G36*
X138542016Y-91789153D02*
G01*
X138549539Y-91790269D01*
X138556917Y-91792117D01*
X138564078Y-91794679D01*
X138570953Y-91797931D01*
X138577477Y-91801841D01*
X138583585Y-91806372D01*
X138589221Y-91811479D01*
X138594328Y-91817115D01*
X138598859Y-91823223D01*
X138602769Y-91829747D01*
X138606021Y-91836622D01*
X138608583Y-91843783D01*
X138610431Y-91851161D01*
X138611547Y-91858684D01*
X138611920Y-91866280D01*
X138611920Y-92021280D01*
X138611547Y-92028876D01*
X138610431Y-92036399D01*
X138608583Y-92043777D01*
X138606021Y-92050938D01*
X138602769Y-92057813D01*
X138598859Y-92064337D01*
X138594328Y-92070445D01*
X138589221Y-92076081D01*
X138583585Y-92081188D01*
X138577477Y-92085719D01*
X138570953Y-92089629D01*
X138564078Y-92092881D01*
X138556917Y-92095443D01*
X138549539Y-92097291D01*
X138542016Y-92098407D01*
X138534420Y-92098780D01*
X138349420Y-92098780D01*
X138341824Y-92098407D01*
X138334301Y-92097291D01*
X138326923Y-92095443D01*
X138319762Y-92092881D01*
X138312887Y-92089629D01*
X138306363Y-92085719D01*
X138300255Y-92081188D01*
X138294619Y-92076081D01*
X138289512Y-92070445D01*
X138284981Y-92064337D01*
X138281071Y-92057813D01*
X138277819Y-92050938D01*
X138275257Y-92043777D01*
X138273409Y-92036399D01*
X138272293Y-92028876D01*
X138271920Y-92021280D01*
X138271920Y-91866280D01*
X138272293Y-91858684D01*
X138273409Y-91851161D01*
X138275257Y-91843783D01*
X138277819Y-91836622D01*
X138281071Y-91829747D01*
X138284981Y-91823223D01*
X138289512Y-91817115D01*
X138294619Y-91811479D01*
X138300255Y-91806372D01*
X138306363Y-91801841D01*
X138312887Y-91797931D01*
X138319762Y-91794679D01*
X138326923Y-91792117D01*
X138334301Y-91790269D01*
X138341824Y-91789153D01*
X138349420Y-91788780D01*
X138534420Y-91788780D01*
X138542016Y-91789153D01*
G37*
G36*
X135544816Y-88279553D02*
G01*
X135552339Y-88280669D01*
X135559717Y-88282517D01*
X135566878Y-88285079D01*
X135573753Y-88288331D01*
X135580277Y-88292241D01*
X135586385Y-88296772D01*
X135592021Y-88301879D01*
X135597128Y-88307515D01*
X135601659Y-88313623D01*
X135605569Y-88320147D01*
X135608821Y-88327022D01*
X135611383Y-88334183D01*
X135613231Y-88341561D01*
X135614347Y-88349084D01*
X135614720Y-88356680D01*
X135614720Y-88511680D01*
X135614347Y-88519276D01*
X135613231Y-88526799D01*
X135611383Y-88534177D01*
X135608821Y-88541338D01*
X135605569Y-88548213D01*
X135601659Y-88554737D01*
X135597128Y-88560845D01*
X135592021Y-88566481D01*
X135586385Y-88571588D01*
X135580277Y-88576119D01*
X135573753Y-88580029D01*
X135566878Y-88583281D01*
X135559717Y-88585843D01*
X135552339Y-88587691D01*
X135544816Y-88588807D01*
X135537220Y-88589180D01*
X135352220Y-88589180D01*
X135344624Y-88588807D01*
X135337101Y-88587691D01*
X135329723Y-88585843D01*
X135322562Y-88583281D01*
X135315687Y-88580029D01*
X135309163Y-88576119D01*
X135303055Y-88571588D01*
X135297419Y-88566481D01*
X135292312Y-88560845D01*
X135287781Y-88554737D01*
X135283871Y-88548213D01*
X135280619Y-88541338D01*
X135278057Y-88534177D01*
X135276209Y-88526799D01*
X135275093Y-88519276D01*
X135274720Y-88511680D01*
X135274720Y-88356680D01*
X135275093Y-88349084D01*
X135276209Y-88341561D01*
X135278057Y-88334183D01*
X135280619Y-88327022D01*
X135283871Y-88320147D01*
X135287781Y-88313623D01*
X135292312Y-88307515D01*
X135297419Y-88301879D01*
X135303055Y-88296772D01*
X135309163Y-88292241D01*
X135315687Y-88288331D01*
X135322562Y-88285079D01*
X135329723Y-88282517D01*
X135337101Y-88280669D01*
X135344624Y-88279553D01*
X135352220Y-88279180D01*
X135537220Y-88279180D01*
X135544816Y-88279553D01*
G37*
G36*
X135544816Y-88829553D02*
G01*
X135552339Y-88830669D01*
X135559717Y-88832517D01*
X135566878Y-88835079D01*
X135573753Y-88838331D01*
X135580277Y-88842241D01*
X135586385Y-88846772D01*
X135592021Y-88851879D01*
X135597128Y-88857515D01*
X135601659Y-88863623D01*
X135605569Y-88870147D01*
X135608821Y-88877022D01*
X135611383Y-88884183D01*
X135613231Y-88891561D01*
X135614347Y-88899084D01*
X135614720Y-88906680D01*
X135614720Y-89061680D01*
X135614347Y-89069276D01*
X135613231Y-89076799D01*
X135611383Y-89084177D01*
X135608821Y-89091338D01*
X135605569Y-89098213D01*
X135601659Y-89104737D01*
X135597128Y-89110845D01*
X135592021Y-89116481D01*
X135586385Y-89121588D01*
X135580277Y-89126119D01*
X135573753Y-89130029D01*
X135566878Y-89133281D01*
X135559717Y-89135843D01*
X135552339Y-89137691D01*
X135544816Y-89138807D01*
X135537220Y-89139180D01*
X135352220Y-89139180D01*
X135344624Y-89138807D01*
X135337101Y-89137691D01*
X135329723Y-89135843D01*
X135322562Y-89133281D01*
X135315687Y-89130029D01*
X135309163Y-89126119D01*
X135303055Y-89121588D01*
X135297419Y-89116481D01*
X135292312Y-89110845D01*
X135287781Y-89104737D01*
X135283871Y-89098213D01*
X135280619Y-89091338D01*
X135278057Y-89084177D01*
X135276209Y-89076799D01*
X135275093Y-89069276D01*
X135274720Y-89061680D01*
X135274720Y-88906680D01*
X135275093Y-88899084D01*
X135276209Y-88891561D01*
X135278057Y-88884183D01*
X135280619Y-88877022D01*
X135283871Y-88870147D01*
X135287781Y-88863623D01*
X135292312Y-88857515D01*
X135297419Y-88851879D01*
X135303055Y-88846772D01*
X135309163Y-88842241D01*
X135315687Y-88838331D01*
X135322562Y-88835079D01*
X135329723Y-88832517D01*
X135337101Y-88830669D01*
X135344624Y-88829553D01*
X135352220Y-88829180D01*
X135537220Y-88829180D01*
X135544816Y-88829553D01*
G37*
G36*
X140574016Y-93821153D02*
G01*
X140581539Y-93822269D01*
X140588917Y-93824117D01*
X140596078Y-93826679D01*
X140602953Y-93829931D01*
X140609477Y-93833841D01*
X140615585Y-93838372D01*
X140621221Y-93843479D01*
X140626328Y-93849115D01*
X140630859Y-93855223D01*
X140634769Y-93861747D01*
X140638021Y-93868622D01*
X140640583Y-93875783D01*
X140642431Y-93883161D01*
X140643547Y-93890684D01*
X140643920Y-93898280D01*
X140643920Y-94053280D01*
X140643547Y-94060876D01*
X140642431Y-94068399D01*
X140640583Y-94075777D01*
X140638021Y-94082938D01*
X140634769Y-94089813D01*
X140630859Y-94096337D01*
X140626328Y-94102445D01*
X140621221Y-94108081D01*
X140615585Y-94113188D01*
X140609477Y-94117719D01*
X140602953Y-94121629D01*
X140596078Y-94124881D01*
X140588917Y-94127443D01*
X140581539Y-94129291D01*
X140574016Y-94130407D01*
X140566420Y-94130780D01*
X140381420Y-94130780D01*
X140373824Y-94130407D01*
X140366301Y-94129291D01*
X140358923Y-94127443D01*
X140351762Y-94124881D01*
X140344887Y-94121629D01*
X140338363Y-94117719D01*
X140332255Y-94113188D01*
X140326619Y-94108081D01*
X140321512Y-94102445D01*
X140316981Y-94096337D01*
X140313071Y-94089813D01*
X140309819Y-94082938D01*
X140307257Y-94075777D01*
X140305409Y-94068399D01*
X140304293Y-94060876D01*
X140303920Y-94053280D01*
X140303920Y-93898280D01*
X140304293Y-93890684D01*
X140305409Y-93883161D01*
X140307257Y-93875783D01*
X140309819Y-93868622D01*
X140313071Y-93861747D01*
X140316981Y-93855223D01*
X140321512Y-93849115D01*
X140326619Y-93843479D01*
X140332255Y-93838372D01*
X140338363Y-93833841D01*
X140344887Y-93829931D01*
X140351762Y-93826679D01*
X140358923Y-93824117D01*
X140366301Y-93822269D01*
X140373824Y-93821153D01*
X140381420Y-93820780D01*
X140566420Y-93820780D01*
X140574016Y-93821153D01*
G37*
G36*
X140574016Y-94371153D02*
G01*
X140581539Y-94372269D01*
X140588917Y-94374117D01*
X140596078Y-94376679D01*
X140602953Y-94379931D01*
X140609477Y-94383841D01*
X140615585Y-94388372D01*
X140621221Y-94393479D01*
X140626328Y-94399115D01*
X140630859Y-94405223D01*
X140634769Y-94411747D01*
X140638021Y-94418622D01*
X140640583Y-94425783D01*
X140642431Y-94433161D01*
X140643547Y-94440684D01*
X140643920Y-94448280D01*
X140643920Y-94603280D01*
X140643547Y-94610876D01*
X140642431Y-94618399D01*
X140640583Y-94625777D01*
X140638021Y-94632938D01*
X140634769Y-94639813D01*
X140630859Y-94646337D01*
X140626328Y-94652445D01*
X140621221Y-94658081D01*
X140615585Y-94663188D01*
X140609477Y-94667719D01*
X140602953Y-94671629D01*
X140596078Y-94674881D01*
X140588917Y-94677443D01*
X140581539Y-94679291D01*
X140574016Y-94680407D01*
X140566420Y-94680780D01*
X140381420Y-94680780D01*
X140373824Y-94680407D01*
X140366301Y-94679291D01*
X140358923Y-94677443D01*
X140351762Y-94674881D01*
X140344887Y-94671629D01*
X140338363Y-94667719D01*
X140332255Y-94663188D01*
X140326619Y-94658081D01*
X140321512Y-94652445D01*
X140316981Y-94646337D01*
X140313071Y-94639813D01*
X140309819Y-94632938D01*
X140307257Y-94625777D01*
X140305409Y-94618399D01*
X140304293Y-94610876D01*
X140303920Y-94603280D01*
X140303920Y-94448280D01*
X140304293Y-94440684D01*
X140305409Y-94433161D01*
X140307257Y-94425783D01*
X140309819Y-94418622D01*
X140313071Y-94411747D01*
X140316981Y-94405223D01*
X140321512Y-94399115D01*
X140326619Y-94393479D01*
X140332255Y-94388372D01*
X140338363Y-94383841D01*
X140344887Y-94379931D01*
X140351762Y-94376679D01*
X140358923Y-94374117D01*
X140366301Y-94372269D01*
X140373824Y-94371153D01*
X140381420Y-94370780D01*
X140566420Y-94370780D01*
X140574016Y-94371153D01*
G37*
G36*
X138592816Y-86827353D02*
G01*
X138600339Y-86828469D01*
X138607717Y-86830317D01*
X138614878Y-86832879D01*
X138621753Y-86836131D01*
X138628277Y-86840041D01*
X138634385Y-86844572D01*
X138640021Y-86849679D01*
X138645128Y-86855315D01*
X138649659Y-86861423D01*
X138653569Y-86867947D01*
X138656821Y-86874822D01*
X138659383Y-86881983D01*
X138661231Y-86889361D01*
X138662347Y-86896884D01*
X138662720Y-86904480D01*
X138662720Y-87059480D01*
X138662347Y-87067076D01*
X138661231Y-87074599D01*
X138659383Y-87081977D01*
X138656821Y-87089138D01*
X138653569Y-87096013D01*
X138649659Y-87102537D01*
X138645128Y-87108645D01*
X138640021Y-87114281D01*
X138634385Y-87119388D01*
X138628277Y-87123919D01*
X138621753Y-87127829D01*
X138614878Y-87131081D01*
X138607717Y-87133643D01*
X138600339Y-87135491D01*
X138592816Y-87136607D01*
X138585220Y-87136980D01*
X138400220Y-87136980D01*
X138392624Y-87136607D01*
X138385101Y-87135491D01*
X138377723Y-87133643D01*
X138370562Y-87131081D01*
X138363687Y-87127829D01*
X138357163Y-87123919D01*
X138351055Y-87119388D01*
X138345419Y-87114281D01*
X138340312Y-87108645D01*
X138335781Y-87102537D01*
X138331871Y-87096013D01*
X138328619Y-87089138D01*
X138326057Y-87081977D01*
X138324209Y-87074599D01*
X138323093Y-87067076D01*
X138322720Y-87059480D01*
X138322720Y-86904480D01*
X138323093Y-86896884D01*
X138324209Y-86889361D01*
X138326057Y-86881983D01*
X138328619Y-86874822D01*
X138331871Y-86867947D01*
X138335781Y-86861423D01*
X138340312Y-86855315D01*
X138345419Y-86849679D01*
X138351055Y-86844572D01*
X138357163Y-86840041D01*
X138363687Y-86836131D01*
X138370562Y-86832879D01*
X138377723Y-86830317D01*
X138385101Y-86828469D01*
X138392624Y-86827353D01*
X138400220Y-86826980D01*
X138585220Y-86826980D01*
X138592816Y-86827353D01*
G37*
G36*
X138592816Y-86277353D02*
G01*
X138600339Y-86278469D01*
X138607717Y-86280317D01*
X138614878Y-86282879D01*
X138621753Y-86286131D01*
X138628277Y-86290041D01*
X138634385Y-86294572D01*
X138640021Y-86299679D01*
X138645128Y-86305315D01*
X138649659Y-86311423D01*
X138653569Y-86317947D01*
X138656821Y-86324822D01*
X138659383Y-86331983D01*
X138661231Y-86339361D01*
X138662347Y-86346884D01*
X138662720Y-86354480D01*
X138662720Y-86509480D01*
X138662347Y-86517076D01*
X138661231Y-86524599D01*
X138659383Y-86531977D01*
X138656821Y-86539138D01*
X138653569Y-86546013D01*
X138649659Y-86552537D01*
X138645128Y-86558645D01*
X138640021Y-86564281D01*
X138634385Y-86569388D01*
X138628277Y-86573919D01*
X138621753Y-86577829D01*
X138614878Y-86581081D01*
X138607717Y-86583643D01*
X138600339Y-86585491D01*
X138592816Y-86586607D01*
X138585220Y-86586980D01*
X138400220Y-86586980D01*
X138392624Y-86586607D01*
X138385101Y-86585491D01*
X138377723Y-86583643D01*
X138370562Y-86581081D01*
X138363687Y-86577829D01*
X138357163Y-86573919D01*
X138351055Y-86569388D01*
X138345419Y-86564281D01*
X138340312Y-86558645D01*
X138335781Y-86552537D01*
X138331871Y-86546013D01*
X138328619Y-86539138D01*
X138326057Y-86531977D01*
X138324209Y-86524599D01*
X138323093Y-86517076D01*
X138322720Y-86509480D01*
X138322720Y-86354480D01*
X138323093Y-86346884D01*
X138324209Y-86339361D01*
X138326057Y-86331983D01*
X138328619Y-86324822D01*
X138331871Y-86317947D01*
X138335781Y-86311423D01*
X138340312Y-86305315D01*
X138345419Y-86299679D01*
X138351055Y-86294572D01*
X138357163Y-86290041D01*
X138363687Y-86286131D01*
X138370562Y-86282879D01*
X138377723Y-86280317D01*
X138385101Y-86278469D01*
X138392624Y-86277353D01*
X138400220Y-86276980D01*
X138585220Y-86276980D01*
X138592816Y-86277353D01*
G37*
G36*
X135417069Y-94476111D02*
G01*
X135438668Y-94479315D01*
X135459848Y-94484621D01*
X135480407Y-94491977D01*
X135500146Y-94501313D01*
X135518874Y-94512538D01*
X135536413Y-94525545D01*
X135552591Y-94540209D01*
X135567255Y-94556387D01*
X135580262Y-94573926D01*
X135591487Y-94592654D01*
X135600823Y-94612393D01*
X135608179Y-94632952D01*
X135613485Y-94654132D01*
X135616689Y-94675731D01*
X135617760Y-94697540D01*
X135617760Y-95172540D01*
X135616689Y-95194349D01*
X135613485Y-95215948D01*
X135608179Y-95237128D01*
X135600823Y-95257687D01*
X135591487Y-95277426D01*
X135580262Y-95296154D01*
X135567255Y-95313693D01*
X135552591Y-95329871D01*
X135536413Y-95344535D01*
X135518874Y-95357542D01*
X135500146Y-95368767D01*
X135480407Y-95378103D01*
X135459848Y-95385459D01*
X135438668Y-95390765D01*
X135417069Y-95393969D01*
X135395260Y-95395040D01*
X134950260Y-95395040D01*
X134928451Y-95393969D01*
X134906852Y-95390765D01*
X134885672Y-95385459D01*
X134865113Y-95378103D01*
X134845374Y-95368767D01*
X134826646Y-95357542D01*
X134809107Y-95344535D01*
X134792929Y-95329871D01*
X134778265Y-95313693D01*
X134765258Y-95296154D01*
X134754033Y-95277426D01*
X134744697Y-95257687D01*
X134737341Y-95237128D01*
X134732035Y-95215948D01*
X134728831Y-95194349D01*
X134727760Y-95172540D01*
X134727760Y-94697540D01*
X134728831Y-94675731D01*
X134732035Y-94654132D01*
X134737341Y-94632952D01*
X134744697Y-94612393D01*
X134754033Y-94592654D01*
X134765258Y-94573926D01*
X134778265Y-94556387D01*
X134792929Y-94540209D01*
X134809107Y-94525545D01*
X134826646Y-94512538D01*
X134845374Y-94501313D01*
X134865113Y-94491977D01*
X134885672Y-94484621D01*
X134906852Y-94479315D01*
X134928451Y-94476111D01*
X134950260Y-94475040D01*
X135395260Y-94475040D01*
X135417069Y-94476111D01*
G37*
G36*
X134087069Y-94476111D02*
G01*
X134108668Y-94479315D01*
X134129848Y-94484621D01*
X134150407Y-94491977D01*
X134170146Y-94501313D01*
X134188874Y-94512538D01*
X134206413Y-94525545D01*
X134222591Y-94540209D01*
X134237255Y-94556387D01*
X134250262Y-94573926D01*
X134261487Y-94592654D01*
X134270823Y-94612393D01*
X134278179Y-94632952D01*
X134283485Y-94654132D01*
X134286689Y-94675731D01*
X134287760Y-94697540D01*
X134287760Y-95172540D01*
X134286689Y-95194349D01*
X134283485Y-95215948D01*
X134278179Y-95237128D01*
X134270823Y-95257687D01*
X134261487Y-95277426D01*
X134250262Y-95296154D01*
X134237255Y-95313693D01*
X134222591Y-95329871D01*
X134206413Y-95344535D01*
X134188874Y-95357542D01*
X134170146Y-95368767D01*
X134150407Y-95378103D01*
X134129848Y-95385459D01*
X134108668Y-95390765D01*
X134087069Y-95393969D01*
X134065260Y-95395040D01*
X133620260Y-95395040D01*
X133598451Y-95393969D01*
X133576852Y-95390765D01*
X133555672Y-95385459D01*
X133535113Y-95378103D01*
X133515374Y-95368767D01*
X133496646Y-95357542D01*
X133479107Y-95344535D01*
X133462929Y-95329871D01*
X133448265Y-95313693D01*
X133435258Y-95296154D01*
X133424033Y-95277426D01*
X133414697Y-95257687D01*
X133407341Y-95237128D01*
X133402035Y-95215948D01*
X133398831Y-95194349D01*
X133397760Y-95172540D01*
X133397760Y-94697540D01*
X133398831Y-94675731D01*
X133402035Y-94654132D01*
X133407341Y-94632952D01*
X133414697Y-94612393D01*
X133424033Y-94592654D01*
X133435258Y-94573926D01*
X133448265Y-94556387D01*
X133462929Y-94540209D01*
X133479107Y-94525545D01*
X133496646Y-94512538D01*
X133515374Y-94501313D01*
X133535113Y-94491977D01*
X133555672Y-94484621D01*
X133576852Y-94479315D01*
X133598451Y-94476111D01*
X133620260Y-94475040D01*
X134065260Y-94475040D01*
X134087069Y-94476111D01*
G37*
G36*
X137402632Y-93942158D02*
G01*
X137416708Y-93944246D01*
X137430511Y-93947704D01*
X137443909Y-93952497D01*
X137456773Y-93958581D01*
X137468978Y-93965897D01*
X137480407Y-93974373D01*
X137490950Y-93983930D01*
X137500507Y-93994473D01*
X137508983Y-94005902D01*
X137516299Y-94018107D01*
X137522383Y-94030971D01*
X137527176Y-94044369D01*
X137530634Y-94058172D01*
X137532722Y-94072248D01*
X137533420Y-94086460D01*
X137533420Y-94376460D01*
X137532722Y-94390672D01*
X137530634Y-94404748D01*
X137527176Y-94418551D01*
X137522383Y-94431949D01*
X137516299Y-94444813D01*
X137508983Y-94457018D01*
X137500507Y-94468447D01*
X137490950Y-94478990D01*
X137480407Y-94488547D01*
X137468978Y-94497023D01*
X137456773Y-94504339D01*
X137443909Y-94510423D01*
X137430511Y-94515216D01*
X137416708Y-94518674D01*
X137402632Y-94520762D01*
X137388420Y-94521460D01*
X137048420Y-94521460D01*
X137034208Y-94520762D01*
X137020132Y-94518674D01*
X137006329Y-94515216D01*
X136992931Y-94510423D01*
X136980067Y-94504339D01*
X136967862Y-94497023D01*
X136956433Y-94488547D01*
X136945890Y-94478990D01*
X136936333Y-94468447D01*
X136927857Y-94457018D01*
X136920541Y-94444813D01*
X136914457Y-94431949D01*
X136909664Y-94418551D01*
X136906206Y-94404748D01*
X136904118Y-94390672D01*
X136903420Y-94376460D01*
X136903420Y-94086460D01*
X136904118Y-94072248D01*
X136906206Y-94058172D01*
X136909664Y-94044369D01*
X136914457Y-94030971D01*
X136920541Y-94018107D01*
X136927857Y-94005902D01*
X136936333Y-93994473D01*
X136945890Y-93983930D01*
X136956433Y-93974373D01*
X136967862Y-93965897D01*
X136980067Y-93958581D01*
X136992931Y-93952497D01*
X137006329Y-93947704D01*
X137020132Y-93944246D01*
X137034208Y-93942158D01*
X137048420Y-93941460D01*
X137388420Y-93941460D01*
X137402632Y-93942158D01*
G37*
G36*
X137402632Y-94832158D02*
G01*
X137416708Y-94834246D01*
X137430511Y-94837704D01*
X137443909Y-94842497D01*
X137456773Y-94848581D01*
X137468978Y-94855897D01*
X137480407Y-94864373D01*
X137490950Y-94873930D01*
X137500507Y-94884473D01*
X137508983Y-94895902D01*
X137516299Y-94908107D01*
X137522383Y-94920971D01*
X137527176Y-94934369D01*
X137530634Y-94948172D01*
X137532722Y-94962248D01*
X137533420Y-94976460D01*
X137533420Y-95266460D01*
X137532722Y-95280672D01*
X137530634Y-95294748D01*
X137527176Y-95308551D01*
X137522383Y-95321949D01*
X137516299Y-95334813D01*
X137508983Y-95347018D01*
X137500507Y-95358447D01*
X137490950Y-95368990D01*
X137480407Y-95378547D01*
X137468978Y-95387023D01*
X137456773Y-95394339D01*
X137443909Y-95400423D01*
X137430511Y-95405216D01*
X137416708Y-95408674D01*
X137402632Y-95410762D01*
X137388420Y-95411460D01*
X137048420Y-95411460D01*
X137034208Y-95410762D01*
X137020132Y-95408674D01*
X137006329Y-95405216D01*
X136992931Y-95400423D01*
X136980067Y-95394339D01*
X136967862Y-95387023D01*
X136956433Y-95378547D01*
X136945890Y-95368990D01*
X136936333Y-95358447D01*
X136927857Y-95347018D01*
X136920541Y-95334813D01*
X136914457Y-95321949D01*
X136909664Y-95308551D01*
X136906206Y-95294748D01*
X136904118Y-95280672D01*
X136903420Y-95266460D01*
X136903420Y-94976460D01*
X136904118Y-94962248D01*
X136906206Y-94948172D01*
X136909664Y-94934369D01*
X136914457Y-94920971D01*
X136920541Y-94908107D01*
X136927857Y-94895902D01*
X136936333Y-94884473D01*
X136945890Y-94873930D01*
X136956433Y-94864373D01*
X136967862Y-94855897D01*
X136980067Y-94848581D01*
X136992931Y-94842497D01*
X137006329Y-94837704D01*
X137020132Y-94834246D01*
X137034208Y-94832158D01*
X137048420Y-94831460D01*
X137388420Y-94831460D01*
X137402632Y-94832158D01*
G37*
G36*
X135519416Y-86810753D02*
G01*
X135526939Y-86811869D01*
X135534317Y-86813717D01*
X135541478Y-86816279D01*
X135548353Y-86819531D01*
X135554877Y-86823441D01*
X135560985Y-86827972D01*
X135566621Y-86833079D01*
X135571728Y-86838715D01*
X135576259Y-86844823D01*
X135580169Y-86851347D01*
X135583421Y-86858222D01*
X135585983Y-86865383D01*
X135587831Y-86872761D01*
X135588947Y-86880284D01*
X135589320Y-86887880D01*
X135589320Y-87042880D01*
X135588947Y-87050476D01*
X135587831Y-87057999D01*
X135585983Y-87065377D01*
X135583421Y-87072538D01*
X135580169Y-87079413D01*
X135576259Y-87085937D01*
X135571728Y-87092045D01*
X135566621Y-87097681D01*
X135560985Y-87102788D01*
X135554877Y-87107319D01*
X135548353Y-87111229D01*
X135541478Y-87114481D01*
X135534317Y-87117043D01*
X135526939Y-87118891D01*
X135519416Y-87120007D01*
X135511820Y-87120380D01*
X135326820Y-87120380D01*
X135319224Y-87120007D01*
X135311701Y-87118891D01*
X135304323Y-87117043D01*
X135297162Y-87114481D01*
X135290287Y-87111229D01*
X135283763Y-87107319D01*
X135277655Y-87102788D01*
X135272019Y-87097681D01*
X135266912Y-87092045D01*
X135262381Y-87085937D01*
X135258471Y-87079413D01*
X135255219Y-87072538D01*
X135252657Y-87065377D01*
X135250809Y-87057999D01*
X135249693Y-87050476D01*
X135249320Y-87042880D01*
X135249320Y-86887880D01*
X135249693Y-86880284D01*
X135250809Y-86872761D01*
X135252657Y-86865383D01*
X135255219Y-86858222D01*
X135258471Y-86851347D01*
X135262381Y-86844823D01*
X135266912Y-86838715D01*
X135272019Y-86833079D01*
X135277655Y-86827972D01*
X135283763Y-86823441D01*
X135290287Y-86819531D01*
X135297162Y-86816279D01*
X135304323Y-86813717D01*
X135311701Y-86811869D01*
X135319224Y-86810753D01*
X135326820Y-86810380D01*
X135511820Y-86810380D01*
X135519416Y-86810753D01*
G37*
G36*
X135519416Y-87360753D02*
G01*
X135526939Y-87361869D01*
X135534317Y-87363717D01*
X135541478Y-87366279D01*
X135548353Y-87369531D01*
X135554877Y-87373441D01*
X135560985Y-87377972D01*
X135566621Y-87383079D01*
X135571728Y-87388715D01*
X135576259Y-87394823D01*
X135580169Y-87401347D01*
X135583421Y-87408222D01*
X135585983Y-87415383D01*
X135587831Y-87422761D01*
X135588947Y-87430284D01*
X135589320Y-87437880D01*
X135589320Y-87592880D01*
X135588947Y-87600476D01*
X135587831Y-87607999D01*
X135585983Y-87615377D01*
X135583421Y-87622538D01*
X135580169Y-87629413D01*
X135576259Y-87635937D01*
X135571728Y-87642045D01*
X135566621Y-87647681D01*
X135560985Y-87652788D01*
X135554877Y-87657319D01*
X135548353Y-87661229D01*
X135541478Y-87664481D01*
X135534317Y-87667043D01*
X135526939Y-87668891D01*
X135519416Y-87670007D01*
X135511820Y-87670380D01*
X135326820Y-87670380D01*
X135319224Y-87670007D01*
X135311701Y-87668891D01*
X135304323Y-87667043D01*
X135297162Y-87664481D01*
X135290287Y-87661229D01*
X135283763Y-87657319D01*
X135277655Y-87652788D01*
X135272019Y-87647681D01*
X135266912Y-87642045D01*
X135262381Y-87635937D01*
X135258471Y-87629413D01*
X135255219Y-87622538D01*
X135252657Y-87615377D01*
X135250809Y-87607999D01*
X135249693Y-87600476D01*
X135249320Y-87592880D01*
X135249320Y-87437880D01*
X135249693Y-87430284D01*
X135250809Y-87422761D01*
X135252657Y-87415383D01*
X135255219Y-87408222D01*
X135258471Y-87401347D01*
X135262381Y-87394823D01*
X135266912Y-87388715D01*
X135272019Y-87383079D01*
X135277655Y-87377972D01*
X135283763Y-87373441D01*
X135290287Y-87369531D01*
X135297162Y-87366279D01*
X135304323Y-87363717D01*
X135311701Y-87361869D01*
X135319224Y-87360753D01*
X135326820Y-87360380D01*
X135511820Y-87360380D01*
X135519416Y-87360753D01*
G37*
D27*
X140171920Y-92873980D03*
X140521920Y-92873980D03*
D28*
X140346920Y-92223980D03*
D11*
G36*
X140697078Y-91190290D02*
G01*
X140711396Y-91192414D01*
X140725437Y-91195931D01*
X140739066Y-91200808D01*
X140752151Y-91206997D01*
X140764567Y-91214438D01*
X140776193Y-91223061D01*
X140786918Y-91232782D01*
X140796639Y-91243507D01*
X140805262Y-91255133D01*
X140812703Y-91267549D01*
X140818892Y-91280634D01*
X140823769Y-91294263D01*
X140827286Y-91308304D01*
X140829410Y-91322622D01*
X140830120Y-91337080D01*
X140830120Y-91632080D01*
X140829410Y-91646538D01*
X140827286Y-91660856D01*
X140823769Y-91674897D01*
X140818892Y-91688526D01*
X140812703Y-91701611D01*
X140805262Y-91714027D01*
X140796639Y-91725653D01*
X140786918Y-91736378D01*
X140776193Y-91746099D01*
X140764567Y-91754722D01*
X140752151Y-91762163D01*
X140739066Y-91768352D01*
X140725437Y-91773229D01*
X140711396Y-91776746D01*
X140697078Y-91778870D01*
X140682620Y-91779580D01*
X140337620Y-91779580D01*
X140323162Y-91778870D01*
X140308844Y-91776746D01*
X140294803Y-91773229D01*
X140281174Y-91768352D01*
X140268089Y-91762163D01*
X140255673Y-91754722D01*
X140244047Y-91746099D01*
X140233322Y-91736378D01*
X140223601Y-91725653D01*
X140214978Y-91714027D01*
X140207537Y-91701611D01*
X140201348Y-91688526D01*
X140196471Y-91674897D01*
X140192954Y-91660856D01*
X140190830Y-91646538D01*
X140190120Y-91632080D01*
X140190120Y-91337080D01*
X140190830Y-91322622D01*
X140192954Y-91308304D01*
X140196471Y-91294263D01*
X140201348Y-91280634D01*
X140207537Y-91267549D01*
X140214978Y-91255133D01*
X140223601Y-91243507D01*
X140233322Y-91232782D01*
X140244047Y-91223061D01*
X140255673Y-91214438D01*
X140268089Y-91206997D01*
X140281174Y-91200808D01*
X140294803Y-91195931D01*
X140308844Y-91192414D01*
X140323162Y-91190290D01*
X140337620Y-91189580D01*
X140682620Y-91189580D01*
X140697078Y-91190290D01*
G37*
G36*
X140697078Y-90220290D02*
G01*
X140711396Y-90222414D01*
X140725437Y-90225931D01*
X140739066Y-90230808D01*
X140752151Y-90236997D01*
X140764567Y-90244438D01*
X140776193Y-90253061D01*
X140786918Y-90262782D01*
X140796639Y-90273507D01*
X140805262Y-90285133D01*
X140812703Y-90297549D01*
X140818892Y-90310634D01*
X140823769Y-90324263D01*
X140827286Y-90338304D01*
X140829410Y-90352622D01*
X140830120Y-90367080D01*
X140830120Y-90662080D01*
X140829410Y-90676538D01*
X140827286Y-90690856D01*
X140823769Y-90704897D01*
X140818892Y-90718526D01*
X140812703Y-90731611D01*
X140805262Y-90744027D01*
X140796639Y-90755653D01*
X140786918Y-90766378D01*
X140776193Y-90776099D01*
X140764567Y-90784722D01*
X140752151Y-90792163D01*
X140739066Y-90798352D01*
X140725437Y-90803229D01*
X140711396Y-90806746D01*
X140697078Y-90808870D01*
X140682620Y-90809580D01*
X140337620Y-90809580D01*
X140323162Y-90808870D01*
X140308844Y-90806746D01*
X140294803Y-90803229D01*
X140281174Y-90798352D01*
X140268089Y-90792163D01*
X140255673Y-90784722D01*
X140244047Y-90776099D01*
X140233322Y-90766378D01*
X140223601Y-90755653D01*
X140214978Y-90744027D01*
X140207537Y-90731611D01*
X140201348Y-90718526D01*
X140196471Y-90704897D01*
X140192954Y-90690856D01*
X140190830Y-90676538D01*
X140190120Y-90662080D01*
X140190120Y-90367080D01*
X140190830Y-90352622D01*
X140192954Y-90338304D01*
X140196471Y-90324263D01*
X140201348Y-90310634D01*
X140207537Y-90297549D01*
X140214978Y-90285133D01*
X140223601Y-90273507D01*
X140233322Y-90262782D01*
X140244047Y-90253061D01*
X140255673Y-90244438D01*
X140268089Y-90236997D01*
X140281174Y-90230808D01*
X140294803Y-90225931D01*
X140308844Y-90222414D01*
X140323162Y-90220290D01*
X140337620Y-90219580D01*
X140682620Y-90219580D01*
X140697078Y-90220290D01*
G37*
G36*
X131051036Y-87594113D02*
G01*
X131058559Y-87595229D01*
X131065937Y-87597077D01*
X131073098Y-87599639D01*
X131079973Y-87602891D01*
X131086497Y-87606801D01*
X131092605Y-87611332D01*
X131098241Y-87616439D01*
X131103348Y-87622075D01*
X131107879Y-87628183D01*
X131111789Y-87634707D01*
X131115041Y-87641582D01*
X131117603Y-87648743D01*
X131119451Y-87656121D01*
X131120567Y-87663644D01*
X131120940Y-87671240D01*
X131120940Y-87856240D01*
X131120567Y-87863836D01*
X131119451Y-87871359D01*
X131117603Y-87878737D01*
X131115041Y-87885898D01*
X131111789Y-87892773D01*
X131107879Y-87899297D01*
X131103348Y-87905405D01*
X131098241Y-87911041D01*
X131092605Y-87916148D01*
X131086497Y-87920679D01*
X131079973Y-87924589D01*
X131073098Y-87927841D01*
X131065937Y-87930403D01*
X131058559Y-87932251D01*
X131051036Y-87933367D01*
X131043440Y-87933740D01*
X130888440Y-87933740D01*
X130880844Y-87933367D01*
X130873321Y-87932251D01*
X130865943Y-87930403D01*
X130858782Y-87927841D01*
X130851907Y-87924589D01*
X130845383Y-87920679D01*
X130839275Y-87916148D01*
X130833639Y-87911041D01*
X130828532Y-87905405D01*
X130824001Y-87899297D01*
X130820091Y-87892773D01*
X130816839Y-87885898D01*
X130814277Y-87878737D01*
X130812429Y-87871359D01*
X130811313Y-87863836D01*
X130810940Y-87856240D01*
X130810940Y-87671240D01*
X130811313Y-87663644D01*
X130812429Y-87656121D01*
X130814277Y-87648743D01*
X130816839Y-87641582D01*
X130820091Y-87634707D01*
X130824001Y-87628183D01*
X130828532Y-87622075D01*
X130833639Y-87616439D01*
X130839275Y-87611332D01*
X130845383Y-87606801D01*
X130851907Y-87602891D01*
X130858782Y-87599639D01*
X130865943Y-87597077D01*
X130873321Y-87595229D01*
X130880844Y-87594113D01*
X130888440Y-87593740D01*
X131043440Y-87593740D01*
X131051036Y-87594113D01*
G37*
G36*
X130501036Y-87594113D02*
G01*
X130508559Y-87595229D01*
X130515937Y-87597077D01*
X130523098Y-87599639D01*
X130529973Y-87602891D01*
X130536497Y-87606801D01*
X130542605Y-87611332D01*
X130548241Y-87616439D01*
X130553348Y-87622075D01*
X130557879Y-87628183D01*
X130561789Y-87634707D01*
X130565041Y-87641582D01*
X130567603Y-87648743D01*
X130569451Y-87656121D01*
X130570567Y-87663644D01*
X130570940Y-87671240D01*
X130570940Y-87856240D01*
X130570567Y-87863836D01*
X130569451Y-87871359D01*
X130567603Y-87878737D01*
X130565041Y-87885898D01*
X130561789Y-87892773D01*
X130557879Y-87899297D01*
X130553348Y-87905405D01*
X130548241Y-87911041D01*
X130542605Y-87916148D01*
X130536497Y-87920679D01*
X130529973Y-87924589D01*
X130523098Y-87927841D01*
X130515937Y-87930403D01*
X130508559Y-87932251D01*
X130501036Y-87933367D01*
X130493440Y-87933740D01*
X130338440Y-87933740D01*
X130330844Y-87933367D01*
X130323321Y-87932251D01*
X130315943Y-87930403D01*
X130308782Y-87927841D01*
X130301907Y-87924589D01*
X130295383Y-87920679D01*
X130289275Y-87916148D01*
X130283639Y-87911041D01*
X130278532Y-87905405D01*
X130274001Y-87899297D01*
X130270091Y-87892773D01*
X130266839Y-87885898D01*
X130264277Y-87878737D01*
X130262429Y-87871359D01*
X130261313Y-87863836D01*
X130260940Y-87856240D01*
X130260940Y-87671240D01*
X130261313Y-87663644D01*
X130262429Y-87656121D01*
X130264277Y-87648743D01*
X130266839Y-87641582D01*
X130270091Y-87634707D01*
X130274001Y-87628183D01*
X130278532Y-87622075D01*
X130283639Y-87616439D01*
X130289275Y-87611332D01*
X130295383Y-87606801D01*
X130301907Y-87602891D01*
X130308782Y-87599639D01*
X130315943Y-87597077D01*
X130323321Y-87595229D01*
X130330844Y-87594113D01*
X130338440Y-87593740D01*
X130493440Y-87593740D01*
X130501036Y-87594113D01*
G37*
G36*
X149609236Y-92645033D02*
G01*
X149616759Y-92646149D01*
X149624137Y-92647997D01*
X149631298Y-92650559D01*
X149638173Y-92653811D01*
X149644697Y-92657721D01*
X149650805Y-92662252D01*
X149656441Y-92667359D01*
X149661548Y-92672995D01*
X149666079Y-92679103D01*
X149669989Y-92685627D01*
X149673241Y-92692502D01*
X149675803Y-92699663D01*
X149677651Y-92707041D01*
X149678767Y-92714564D01*
X149679140Y-92722160D01*
X149679140Y-92907160D01*
X149678767Y-92914756D01*
X149677651Y-92922279D01*
X149675803Y-92929657D01*
X149673241Y-92936818D01*
X149669989Y-92943693D01*
X149666079Y-92950217D01*
X149661548Y-92956325D01*
X149656441Y-92961961D01*
X149650805Y-92967068D01*
X149644697Y-92971599D01*
X149638173Y-92975509D01*
X149631298Y-92978761D01*
X149624137Y-92981323D01*
X149616759Y-92983171D01*
X149609236Y-92984287D01*
X149601640Y-92984660D01*
X149446640Y-92984660D01*
X149439044Y-92984287D01*
X149431521Y-92983171D01*
X149424143Y-92981323D01*
X149416982Y-92978761D01*
X149410107Y-92975509D01*
X149403583Y-92971599D01*
X149397475Y-92967068D01*
X149391839Y-92961961D01*
X149386732Y-92956325D01*
X149382201Y-92950217D01*
X149378291Y-92943693D01*
X149375039Y-92936818D01*
X149372477Y-92929657D01*
X149370629Y-92922279D01*
X149369513Y-92914756D01*
X149369140Y-92907160D01*
X149369140Y-92722160D01*
X149369513Y-92714564D01*
X149370629Y-92707041D01*
X149372477Y-92699663D01*
X149375039Y-92692502D01*
X149378291Y-92685627D01*
X149382201Y-92679103D01*
X149386732Y-92672995D01*
X149391839Y-92667359D01*
X149397475Y-92662252D01*
X149403583Y-92657721D01*
X149410107Y-92653811D01*
X149416982Y-92650559D01*
X149424143Y-92647997D01*
X149431521Y-92646149D01*
X149439044Y-92645033D01*
X149446640Y-92644660D01*
X149601640Y-92644660D01*
X149609236Y-92645033D01*
G37*
G36*
X150159236Y-92645033D02*
G01*
X150166759Y-92646149D01*
X150174137Y-92647997D01*
X150181298Y-92650559D01*
X150188173Y-92653811D01*
X150194697Y-92657721D01*
X150200805Y-92662252D01*
X150206441Y-92667359D01*
X150211548Y-92672995D01*
X150216079Y-92679103D01*
X150219989Y-92685627D01*
X150223241Y-92692502D01*
X150225803Y-92699663D01*
X150227651Y-92707041D01*
X150228767Y-92714564D01*
X150229140Y-92722160D01*
X150229140Y-92907160D01*
X150228767Y-92914756D01*
X150227651Y-92922279D01*
X150225803Y-92929657D01*
X150223241Y-92936818D01*
X150219989Y-92943693D01*
X150216079Y-92950217D01*
X150211548Y-92956325D01*
X150206441Y-92961961D01*
X150200805Y-92967068D01*
X150194697Y-92971599D01*
X150188173Y-92975509D01*
X150181298Y-92978761D01*
X150174137Y-92981323D01*
X150166759Y-92983171D01*
X150159236Y-92984287D01*
X150151640Y-92984660D01*
X149996640Y-92984660D01*
X149989044Y-92984287D01*
X149981521Y-92983171D01*
X149974143Y-92981323D01*
X149966982Y-92978761D01*
X149960107Y-92975509D01*
X149953583Y-92971599D01*
X149947475Y-92967068D01*
X149941839Y-92961961D01*
X149936732Y-92956325D01*
X149932201Y-92950217D01*
X149928291Y-92943693D01*
X149925039Y-92936818D01*
X149922477Y-92929657D01*
X149920629Y-92922279D01*
X149919513Y-92914756D01*
X149919140Y-92907160D01*
X149919140Y-92722160D01*
X149919513Y-92714564D01*
X149920629Y-92707041D01*
X149922477Y-92699663D01*
X149925039Y-92692502D01*
X149928291Y-92685627D01*
X149932201Y-92679103D01*
X149936732Y-92672995D01*
X149941839Y-92667359D01*
X149947475Y-92662252D01*
X149953583Y-92657721D01*
X149960107Y-92653811D01*
X149966982Y-92650559D01*
X149974143Y-92647997D01*
X149981521Y-92646149D01*
X149989044Y-92645033D01*
X149996640Y-92644660D01*
X150151640Y-92644660D01*
X150159236Y-92645033D01*
G37*
G36*
X151057036Y-92645033D02*
G01*
X151064559Y-92646149D01*
X151071937Y-92647997D01*
X151079098Y-92650559D01*
X151085973Y-92653811D01*
X151092497Y-92657721D01*
X151098605Y-92662252D01*
X151104241Y-92667359D01*
X151109348Y-92672995D01*
X151113879Y-92679103D01*
X151117789Y-92685627D01*
X151121041Y-92692502D01*
X151123603Y-92699663D01*
X151125451Y-92707041D01*
X151126567Y-92714564D01*
X151126940Y-92722160D01*
X151126940Y-92907160D01*
X151126567Y-92914756D01*
X151125451Y-92922279D01*
X151123603Y-92929657D01*
X151121041Y-92936818D01*
X151117789Y-92943693D01*
X151113879Y-92950217D01*
X151109348Y-92956325D01*
X151104241Y-92961961D01*
X151098605Y-92967068D01*
X151092497Y-92971599D01*
X151085973Y-92975509D01*
X151079098Y-92978761D01*
X151071937Y-92981323D01*
X151064559Y-92983171D01*
X151057036Y-92984287D01*
X151049440Y-92984660D01*
X150894440Y-92984660D01*
X150886844Y-92984287D01*
X150879321Y-92983171D01*
X150871943Y-92981323D01*
X150864782Y-92978761D01*
X150857907Y-92975509D01*
X150851383Y-92971599D01*
X150845275Y-92967068D01*
X150839639Y-92961961D01*
X150834532Y-92956325D01*
X150830001Y-92950217D01*
X150826091Y-92943693D01*
X150822839Y-92936818D01*
X150820277Y-92929657D01*
X150818429Y-92922279D01*
X150817313Y-92914756D01*
X150816940Y-92907160D01*
X150816940Y-92722160D01*
X150817313Y-92714564D01*
X150818429Y-92707041D01*
X150820277Y-92699663D01*
X150822839Y-92692502D01*
X150826091Y-92685627D01*
X150830001Y-92679103D01*
X150834532Y-92672995D01*
X150839639Y-92667359D01*
X150845275Y-92662252D01*
X150851383Y-92657721D01*
X150857907Y-92653811D01*
X150864782Y-92650559D01*
X150871943Y-92647997D01*
X150879321Y-92646149D01*
X150886844Y-92645033D01*
X150894440Y-92644660D01*
X151049440Y-92644660D01*
X151057036Y-92645033D01*
G37*
G36*
X151607036Y-92645033D02*
G01*
X151614559Y-92646149D01*
X151621937Y-92647997D01*
X151629098Y-92650559D01*
X151635973Y-92653811D01*
X151642497Y-92657721D01*
X151648605Y-92662252D01*
X151654241Y-92667359D01*
X151659348Y-92672995D01*
X151663879Y-92679103D01*
X151667789Y-92685627D01*
X151671041Y-92692502D01*
X151673603Y-92699663D01*
X151675451Y-92707041D01*
X151676567Y-92714564D01*
X151676940Y-92722160D01*
X151676940Y-92907160D01*
X151676567Y-92914756D01*
X151675451Y-92922279D01*
X151673603Y-92929657D01*
X151671041Y-92936818D01*
X151667789Y-92943693D01*
X151663879Y-92950217D01*
X151659348Y-92956325D01*
X151654241Y-92961961D01*
X151648605Y-92967068D01*
X151642497Y-92971599D01*
X151635973Y-92975509D01*
X151629098Y-92978761D01*
X151621937Y-92981323D01*
X151614559Y-92983171D01*
X151607036Y-92984287D01*
X151599440Y-92984660D01*
X151444440Y-92984660D01*
X151436844Y-92984287D01*
X151429321Y-92983171D01*
X151421943Y-92981323D01*
X151414782Y-92978761D01*
X151407907Y-92975509D01*
X151401383Y-92971599D01*
X151395275Y-92967068D01*
X151389639Y-92961961D01*
X151384532Y-92956325D01*
X151380001Y-92950217D01*
X151376091Y-92943693D01*
X151372839Y-92936818D01*
X151370277Y-92929657D01*
X151368429Y-92922279D01*
X151367313Y-92914756D01*
X151366940Y-92907160D01*
X151366940Y-92722160D01*
X151367313Y-92714564D01*
X151368429Y-92707041D01*
X151370277Y-92699663D01*
X151372839Y-92692502D01*
X151376091Y-92685627D01*
X151380001Y-92679103D01*
X151384532Y-92672995D01*
X151389639Y-92667359D01*
X151395275Y-92662252D01*
X151401383Y-92657721D01*
X151407907Y-92653811D01*
X151414782Y-92650559D01*
X151421943Y-92647997D01*
X151429321Y-92646149D01*
X151436844Y-92645033D01*
X151444440Y-92644660D01*
X151599440Y-92644660D01*
X151607036Y-92645033D01*
G37*
M02*
