G04 #@! TF.GenerationSoftware,KiCad,Pcbnew,(5.1.5)-3*
G04 #@! TF.CreationDate,2020-09-30T13:24:10+09:00*
G04 #@! TF.ProjectId,WF_Board,57465f42-6f61-4726-942e-6b696361645f,rev?*
G04 #@! TF.SameCoordinates,Original*
G04 #@! TF.FileFunction,Copper,L1,Top*
G04 #@! TF.FilePolarity,Positive*
%FSLAX46Y46*%
G04 Gerber Fmt 4.6, Leading zero omitted, Abs format (unit mm)*
G04 Created by KiCad (PCBNEW (5.1.5)-3) date 2020-09-30 13:24:10*
%MOMM*%
%LPD*%
G04 APERTURE LIST*
%ADD10O,1.000000X1.000000*%
%ADD11R,1.000000X1.000000*%
%ADD12R,2.550000X3.150000*%
%ADD13C,0.100000*%
%ADD14R,0.900000X1.400000*%
%ADD15R,0.700000X1.000000*%
%ADD16R,1.200000X1.450000*%
%ADD17R,1.000000X0.700000*%
%ADD18R,1.200000X1.150000*%
%ADD19R,0.200000X1.000000*%
%ADD20R,1.000000X0.200000*%
%ADD21R,0.640000X2.390000*%
%ADD22R,0.640000X0.270000*%
%ADD23R,0.220000X0.610000*%
%ADD24R,0.610000X0.220000*%
%ADD25C,0.370000*%
%ADD26R,0.810000X0.370000*%
%ADD27R,0.340000X0.990000*%
%ADD28R,0.830000X0.880000*%
%ADD29C,1.000000*%
%ADD30C,0.700000*%
%ADD31R,0.170000X0.280000*%
%ADD32R,0.520000X0.280000*%
%ADD33C,0.350000*%
%ADD34C,0.300000*%
%ADD35C,0.254000*%
%ADD36C,0.152400*%
%ADD37C,0.304800*%
%ADD38C,0.203200*%
G04 APERTURE END LIST*
D10*
X140970000Y-106031160D03*
D11*
X140970000Y-107301160D03*
D12*
X154359940Y-90965540D03*
G04 #@! TA.AperFunction,SMDPad,CuDef*
D13*
G36*
X156472781Y-89505925D02*
G01*
X156480547Y-89507077D01*
X156488163Y-89508985D01*
X156495555Y-89511630D01*
X156502652Y-89514986D01*
X156509386Y-89519022D01*
X156515691Y-89523699D01*
X156521509Y-89528971D01*
X156526781Y-89534789D01*
X156531458Y-89541094D01*
X156535494Y-89547828D01*
X156538850Y-89554925D01*
X156541495Y-89562317D01*
X156543403Y-89569933D01*
X156544555Y-89577699D01*
X156544940Y-89585540D01*
X156544940Y-89745540D01*
X156544555Y-89753381D01*
X156543403Y-89761147D01*
X156541495Y-89768763D01*
X156538850Y-89776155D01*
X156535494Y-89783252D01*
X156531458Y-89789986D01*
X156526781Y-89796291D01*
X156521509Y-89802109D01*
X156515691Y-89807381D01*
X156509386Y-89812058D01*
X156502652Y-89816094D01*
X156495555Y-89819450D01*
X156488163Y-89822095D01*
X156480547Y-89824003D01*
X156472781Y-89825155D01*
X156464940Y-89825540D01*
X155924940Y-89825540D01*
X155917099Y-89825155D01*
X155909333Y-89824003D01*
X155901717Y-89822095D01*
X155894325Y-89819450D01*
X155887228Y-89816094D01*
X155880494Y-89812058D01*
X155874189Y-89807381D01*
X155868371Y-89802109D01*
X155863099Y-89796291D01*
X155858422Y-89789986D01*
X155854386Y-89783252D01*
X155851030Y-89776155D01*
X155848385Y-89768763D01*
X155846477Y-89761147D01*
X155845325Y-89753381D01*
X155844940Y-89745540D01*
X155844940Y-89585540D01*
X155845325Y-89577699D01*
X155846477Y-89569933D01*
X155848385Y-89562317D01*
X155851030Y-89554925D01*
X155854386Y-89547828D01*
X155858422Y-89541094D01*
X155863099Y-89534789D01*
X155868371Y-89528971D01*
X155874189Y-89523699D01*
X155880494Y-89519022D01*
X155887228Y-89514986D01*
X155894325Y-89511630D01*
X155901717Y-89508985D01*
X155909333Y-89507077D01*
X155917099Y-89505925D01*
X155924940Y-89505540D01*
X156464940Y-89505540D01*
X156472781Y-89505925D01*
G37*
G04 #@! TD.AperFunction*
G04 #@! TA.AperFunction,SMDPad,CuDef*
G36*
X156472781Y-90155925D02*
G01*
X156480547Y-90157077D01*
X156488163Y-90158985D01*
X156495555Y-90161630D01*
X156502652Y-90164986D01*
X156509386Y-90169022D01*
X156515691Y-90173699D01*
X156521509Y-90178971D01*
X156526781Y-90184789D01*
X156531458Y-90191094D01*
X156535494Y-90197828D01*
X156538850Y-90204925D01*
X156541495Y-90212317D01*
X156543403Y-90219933D01*
X156544555Y-90227699D01*
X156544940Y-90235540D01*
X156544940Y-90395540D01*
X156544555Y-90403381D01*
X156543403Y-90411147D01*
X156541495Y-90418763D01*
X156538850Y-90426155D01*
X156535494Y-90433252D01*
X156531458Y-90439986D01*
X156526781Y-90446291D01*
X156521509Y-90452109D01*
X156515691Y-90457381D01*
X156509386Y-90462058D01*
X156502652Y-90466094D01*
X156495555Y-90469450D01*
X156488163Y-90472095D01*
X156480547Y-90474003D01*
X156472781Y-90475155D01*
X156464940Y-90475540D01*
X155924940Y-90475540D01*
X155917099Y-90475155D01*
X155909333Y-90474003D01*
X155901717Y-90472095D01*
X155894325Y-90469450D01*
X155887228Y-90466094D01*
X155880494Y-90462058D01*
X155874189Y-90457381D01*
X155868371Y-90452109D01*
X155863099Y-90446291D01*
X155858422Y-90439986D01*
X155854386Y-90433252D01*
X155851030Y-90426155D01*
X155848385Y-90418763D01*
X155846477Y-90411147D01*
X155845325Y-90403381D01*
X155844940Y-90395540D01*
X155844940Y-90235540D01*
X155845325Y-90227699D01*
X155846477Y-90219933D01*
X155848385Y-90212317D01*
X155851030Y-90204925D01*
X155854386Y-90197828D01*
X155858422Y-90191094D01*
X155863099Y-90184789D01*
X155868371Y-90178971D01*
X155874189Y-90173699D01*
X155880494Y-90169022D01*
X155887228Y-90164986D01*
X155894325Y-90161630D01*
X155901717Y-90158985D01*
X155909333Y-90157077D01*
X155917099Y-90155925D01*
X155924940Y-90155540D01*
X156464940Y-90155540D01*
X156472781Y-90155925D01*
G37*
G04 #@! TD.AperFunction*
G04 #@! TA.AperFunction,SMDPad,CuDef*
G36*
X156472781Y-90805925D02*
G01*
X156480547Y-90807077D01*
X156488163Y-90808985D01*
X156495555Y-90811630D01*
X156502652Y-90814986D01*
X156509386Y-90819022D01*
X156515691Y-90823699D01*
X156521509Y-90828971D01*
X156526781Y-90834789D01*
X156531458Y-90841094D01*
X156535494Y-90847828D01*
X156538850Y-90854925D01*
X156541495Y-90862317D01*
X156543403Y-90869933D01*
X156544555Y-90877699D01*
X156544940Y-90885540D01*
X156544940Y-91045540D01*
X156544555Y-91053381D01*
X156543403Y-91061147D01*
X156541495Y-91068763D01*
X156538850Y-91076155D01*
X156535494Y-91083252D01*
X156531458Y-91089986D01*
X156526781Y-91096291D01*
X156521509Y-91102109D01*
X156515691Y-91107381D01*
X156509386Y-91112058D01*
X156502652Y-91116094D01*
X156495555Y-91119450D01*
X156488163Y-91122095D01*
X156480547Y-91124003D01*
X156472781Y-91125155D01*
X156464940Y-91125540D01*
X155924940Y-91125540D01*
X155917099Y-91125155D01*
X155909333Y-91124003D01*
X155901717Y-91122095D01*
X155894325Y-91119450D01*
X155887228Y-91116094D01*
X155880494Y-91112058D01*
X155874189Y-91107381D01*
X155868371Y-91102109D01*
X155863099Y-91096291D01*
X155858422Y-91089986D01*
X155854386Y-91083252D01*
X155851030Y-91076155D01*
X155848385Y-91068763D01*
X155846477Y-91061147D01*
X155845325Y-91053381D01*
X155844940Y-91045540D01*
X155844940Y-90885540D01*
X155845325Y-90877699D01*
X155846477Y-90869933D01*
X155848385Y-90862317D01*
X155851030Y-90854925D01*
X155854386Y-90847828D01*
X155858422Y-90841094D01*
X155863099Y-90834789D01*
X155868371Y-90828971D01*
X155874189Y-90823699D01*
X155880494Y-90819022D01*
X155887228Y-90814986D01*
X155894325Y-90811630D01*
X155901717Y-90808985D01*
X155909333Y-90807077D01*
X155917099Y-90805925D01*
X155924940Y-90805540D01*
X156464940Y-90805540D01*
X156472781Y-90805925D01*
G37*
G04 #@! TD.AperFunction*
G04 #@! TA.AperFunction,SMDPad,CuDef*
G36*
X156472781Y-91455925D02*
G01*
X156480547Y-91457077D01*
X156488163Y-91458985D01*
X156495555Y-91461630D01*
X156502652Y-91464986D01*
X156509386Y-91469022D01*
X156515691Y-91473699D01*
X156521509Y-91478971D01*
X156526781Y-91484789D01*
X156531458Y-91491094D01*
X156535494Y-91497828D01*
X156538850Y-91504925D01*
X156541495Y-91512317D01*
X156543403Y-91519933D01*
X156544555Y-91527699D01*
X156544940Y-91535540D01*
X156544940Y-91695540D01*
X156544555Y-91703381D01*
X156543403Y-91711147D01*
X156541495Y-91718763D01*
X156538850Y-91726155D01*
X156535494Y-91733252D01*
X156531458Y-91739986D01*
X156526781Y-91746291D01*
X156521509Y-91752109D01*
X156515691Y-91757381D01*
X156509386Y-91762058D01*
X156502652Y-91766094D01*
X156495555Y-91769450D01*
X156488163Y-91772095D01*
X156480547Y-91774003D01*
X156472781Y-91775155D01*
X156464940Y-91775540D01*
X155924940Y-91775540D01*
X155917099Y-91775155D01*
X155909333Y-91774003D01*
X155901717Y-91772095D01*
X155894325Y-91769450D01*
X155887228Y-91766094D01*
X155880494Y-91762058D01*
X155874189Y-91757381D01*
X155868371Y-91752109D01*
X155863099Y-91746291D01*
X155858422Y-91739986D01*
X155854386Y-91733252D01*
X155851030Y-91726155D01*
X155848385Y-91718763D01*
X155846477Y-91711147D01*
X155845325Y-91703381D01*
X155844940Y-91695540D01*
X155844940Y-91535540D01*
X155845325Y-91527699D01*
X155846477Y-91519933D01*
X155848385Y-91512317D01*
X155851030Y-91504925D01*
X155854386Y-91497828D01*
X155858422Y-91491094D01*
X155863099Y-91484789D01*
X155868371Y-91478971D01*
X155874189Y-91473699D01*
X155880494Y-91469022D01*
X155887228Y-91464986D01*
X155894325Y-91461630D01*
X155901717Y-91458985D01*
X155909333Y-91457077D01*
X155917099Y-91455925D01*
X155924940Y-91455540D01*
X156464940Y-91455540D01*
X156472781Y-91455925D01*
G37*
G04 #@! TD.AperFunction*
G04 #@! TA.AperFunction,SMDPad,CuDef*
G36*
X156472781Y-92105925D02*
G01*
X156480547Y-92107077D01*
X156488163Y-92108985D01*
X156495555Y-92111630D01*
X156502652Y-92114986D01*
X156509386Y-92119022D01*
X156515691Y-92123699D01*
X156521509Y-92128971D01*
X156526781Y-92134789D01*
X156531458Y-92141094D01*
X156535494Y-92147828D01*
X156538850Y-92154925D01*
X156541495Y-92162317D01*
X156543403Y-92169933D01*
X156544555Y-92177699D01*
X156544940Y-92185540D01*
X156544940Y-92345540D01*
X156544555Y-92353381D01*
X156543403Y-92361147D01*
X156541495Y-92368763D01*
X156538850Y-92376155D01*
X156535494Y-92383252D01*
X156531458Y-92389986D01*
X156526781Y-92396291D01*
X156521509Y-92402109D01*
X156515691Y-92407381D01*
X156509386Y-92412058D01*
X156502652Y-92416094D01*
X156495555Y-92419450D01*
X156488163Y-92422095D01*
X156480547Y-92424003D01*
X156472781Y-92425155D01*
X156464940Y-92425540D01*
X155924940Y-92425540D01*
X155917099Y-92425155D01*
X155909333Y-92424003D01*
X155901717Y-92422095D01*
X155894325Y-92419450D01*
X155887228Y-92416094D01*
X155880494Y-92412058D01*
X155874189Y-92407381D01*
X155868371Y-92402109D01*
X155863099Y-92396291D01*
X155858422Y-92389986D01*
X155854386Y-92383252D01*
X155851030Y-92376155D01*
X155848385Y-92368763D01*
X155846477Y-92361147D01*
X155845325Y-92353381D01*
X155844940Y-92345540D01*
X155844940Y-92185540D01*
X155845325Y-92177699D01*
X155846477Y-92169933D01*
X155848385Y-92162317D01*
X155851030Y-92154925D01*
X155854386Y-92147828D01*
X155858422Y-92141094D01*
X155863099Y-92134789D01*
X155868371Y-92128971D01*
X155874189Y-92123699D01*
X155880494Y-92119022D01*
X155887228Y-92114986D01*
X155894325Y-92111630D01*
X155901717Y-92108985D01*
X155909333Y-92107077D01*
X155917099Y-92105925D01*
X155924940Y-92105540D01*
X156464940Y-92105540D01*
X156472781Y-92105925D01*
G37*
G04 #@! TD.AperFunction*
G04 #@! TA.AperFunction,SMDPad,CuDef*
G36*
X152802781Y-92105925D02*
G01*
X152810547Y-92107077D01*
X152818163Y-92108985D01*
X152825555Y-92111630D01*
X152832652Y-92114986D01*
X152839386Y-92119022D01*
X152845691Y-92123699D01*
X152851509Y-92128971D01*
X152856781Y-92134789D01*
X152861458Y-92141094D01*
X152865494Y-92147828D01*
X152868850Y-92154925D01*
X152871495Y-92162317D01*
X152873403Y-92169933D01*
X152874555Y-92177699D01*
X152874940Y-92185540D01*
X152874940Y-92345540D01*
X152874555Y-92353381D01*
X152873403Y-92361147D01*
X152871495Y-92368763D01*
X152868850Y-92376155D01*
X152865494Y-92383252D01*
X152861458Y-92389986D01*
X152856781Y-92396291D01*
X152851509Y-92402109D01*
X152845691Y-92407381D01*
X152839386Y-92412058D01*
X152832652Y-92416094D01*
X152825555Y-92419450D01*
X152818163Y-92422095D01*
X152810547Y-92424003D01*
X152802781Y-92425155D01*
X152794940Y-92425540D01*
X152254940Y-92425540D01*
X152247099Y-92425155D01*
X152239333Y-92424003D01*
X152231717Y-92422095D01*
X152224325Y-92419450D01*
X152217228Y-92416094D01*
X152210494Y-92412058D01*
X152204189Y-92407381D01*
X152198371Y-92402109D01*
X152193099Y-92396291D01*
X152188422Y-92389986D01*
X152184386Y-92383252D01*
X152181030Y-92376155D01*
X152178385Y-92368763D01*
X152176477Y-92361147D01*
X152175325Y-92353381D01*
X152174940Y-92345540D01*
X152174940Y-92185540D01*
X152175325Y-92177699D01*
X152176477Y-92169933D01*
X152178385Y-92162317D01*
X152181030Y-92154925D01*
X152184386Y-92147828D01*
X152188422Y-92141094D01*
X152193099Y-92134789D01*
X152198371Y-92128971D01*
X152204189Y-92123699D01*
X152210494Y-92119022D01*
X152217228Y-92114986D01*
X152224325Y-92111630D01*
X152231717Y-92108985D01*
X152239333Y-92107077D01*
X152247099Y-92105925D01*
X152254940Y-92105540D01*
X152794940Y-92105540D01*
X152802781Y-92105925D01*
G37*
G04 #@! TD.AperFunction*
G04 #@! TA.AperFunction,SMDPad,CuDef*
G36*
X152802781Y-91455925D02*
G01*
X152810547Y-91457077D01*
X152818163Y-91458985D01*
X152825555Y-91461630D01*
X152832652Y-91464986D01*
X152839386Y-91469022D01*
X152845691Y-91473699D01*
X152851509Y-91478971D01*
X152856781Y-91484789D01*
X152861458Y-91491094D01*
X152865494Y-91497828D01*
X152868850Y-91504925D01*
X152871495Y-91512317D01*
X152873403Y-91519933D01*
X152874555Y-91527699D01*
X152874940Y-91535540D01*
X152874940Y-91695540D01*
X152874555Y-91703381D01*
X152873403Y-91711147D01*
X152871495Y-91718763D01*
X152868850Y-91726155D01*
X152865494Y-91733252D01*
X152861458Y-91739986D01*
X152856781Y-91746291D01*
X152851509Y-91752109D01*
X152845691Y-91757381D01*
X152839386Y-91762058D01*
X152832652Y-91766094D01*
X152825555Y-91769450D01*
X152818163Y-91772095D01*
X152810547Y-91774003D01*
X152802781Y-91775155D01*
X152794940Y-91775540D01*
X152254940Y-91775540D01*
X152247099Y-91775155D01*
X152239333Y-91774003D01*
X152231717Y-91772095D01*
X152224325Y-91769450D01*
X152217228Y-91766094D01*
X152210494Y-91762058D01*
X152204189Y-91757381D01*
X152198371Y-91752109D01*
X152193099Y-91746291D01*
X152188422Y-91739986D01*
X152184386Y-91733252D01*
X152181030Y-91726155D01*
X152178385Y-91718763D01*
X152176477Y-91711147D01*
X152175325Y-91703381D01*
X152174940Y-91695540D01*
X152174940Y-91535540D01*
X152175325Y-91527699D01*
X152176477Y-91519933D01*
X152178385Y-91512317D01*
X152181030Y-91504925D01*
X152184386Y-91497828D01*
X152188422Y-91491094D01*
X152193099Y-91484789D01*
X152198371Y-91478971D01*
X152204189Y-91473699D01*
X152210494Y-91469022D01*
X152217228Y-91464986D01*
X152224325Y-91461630D01*
X152231717Y-91458985D01*
X152239333Y-91457077D01*
X152247099Y-91455925D01*
X152254940Y-91455540D01*
X152794940Y-91455540D01*
X152802781Y-91455925D01*
G37*
G04 #@! TD.AperFunction*
G04 #@! TA.AperFunction,SMDPad,CuDef*
G36*
X152802781Y-90805925D02*
G01*
X152810547Y-90807077D01*
X152818163Y-90808985D01*
X152825555Y-90811630D01*
X152832652Y-90814986D01*
X152839386Y-90819022D01*
X152845691Y-90823699D01*
X152851509Y-90828971D01*
X152856781Y-90834789D01*
X152861458Y-90841094D01*
X152865494Y-90847828D01*
X152868850Y-90854925D01*
X152871495Y-90862317D01*
X152873403Y-90869933D01*
X152874555Y-90877699D01*
X152874940Y-90885540D01*
X152874940Y-91045540D01*
X152874555Y-91053381D01*
X152873403Y-91061147D01*
X152871495Y-91068763D01*
X152868850Y-91076155D01*
X152865494Y-91083252D01*
X152861458Y-91089986D01*
X152856781Y-91096291D01*
X152851509Y-91102109D01*
X152845691Y-91107381D01*
X152839386Y-91112058D01*
X152832652Y-91116094D01*
X152825555Y-91119450D01*
X152818163Y-91122095D01*
X152810547Y-91124003D01*
X152802781Y-91125155D01*
X152794940Y-91125540D01*
X152254940Y-91125540D01*
X152247099Y-91125155D01*
X152239333Y-91124003D01*
X152231717Y-91122095D01*
X152224325Y-91119450D01*
X152217228Y-91116094D01*
X152210494Y-91112058D01*
X152204189Y-91107381D01*
X152198371Y-91102109D01*
X152193099Y-91096291D01*
X152188422Y-91089986D01*
X152184386Y-91083252D01*
X152181030Y-91076155D01*
X152178385Y-91068763D01*
X152176477Y-91061147D01*
X152175325Y-91053381D01*
X152174940Y-91045540D01*
X152174940Y-90885540D01*
X152175325Y-90877699D01*
X152176477Y-90869933D01*
X152178385Y-90862317D01*
X152181030Y-90854925D01*
X152184386Y-90847828D01*
X152188422Y-90841094D01*
X152193099Y-90834789D01*
X152198371Y-90828971D01*
X152204189Y-90823699D01*
X152210494Y-90819022D01*
X152217228Y-90814986D01*
X152224325Y-90811630D01*
X152231717Y-90808985D01*
X152239333Y-90807077D01*
X152247099Y-90805925D01*
X152254940Y-90805540D01*
X152794940Y-90805540D01*
X152802781Y-90805925D01*
G37*
G04 #@! TD.AperFunction*
G04 #@! TA.AperFunction,SMDPad,CuDef*
G36*
X152802781Y-90155925D02*
G01*
X152810547Y-90157077D01*
X152818163Y-90158985D01*
X152825555Y-90161630D01*
X152832652Y-90164986D01*
X152839386Y-90169022D01*
X152845691Y-90173699D01*
X152851509Y-90178971D01*
X152856781Y-90184789D01*
X152861458Y-90191094D01*
X152865494Y-90197828D01*
X152868850Y-90204925D01*
X152871495Y-90212317D01*
X152873403Y-90219933D01*
X152874555Y-90227699D01*
X152874940Y-90235540D01*
X152874940Y-90395540D01*
X152874555Y-90403381D01*
X152873403Y-90411147D01*
X152871495Y-90418763D01*
X152868850Y-90426155D01*
X152865494Y-90433252D01*
X152861458Y-90439986D01*
X152856781Y-90446291D01*
X152851509Y-90452109D01*
X152845691Y-90457381D01*
X152839386Y-90462058D01*
X152832652Y-90466094D01*
X152825555Y-90469450D01*
X152818163Y-90472095D01*
X152810547Y-90474003D01*
X152802781Y-90475155D01*
X152794940Y-90475540D01*
X152254940Y-90475540D01*
X152247099Y-90475155D01*
X152239333Y-90474003D01*
X152231717Y-90472095D01*
X152224325Y-90469450D01*
X152217228Y-90466094D01*
X152210494Y-90462058D01*
X152204189Y-90457381D01*
X152198371Y-90452109D01*
X152193099Y-90446291D01*
X152188422Y-90439986D01*
X152184386Y-90433252D01*
X152181030Y-90426155D01*
X152178385Y-90418763D01*
X152176477Y-90411147D01*
X152175325Y-90403381D01*
X152174940Y-90395540D01*
X152174940Y-90235540D01*
X152175325Y-90227699D01*
X152176477Y-90219933D01*
X152178385Y-90212317D01*
X152181030Y-90204925D01*
X152184386Y-90197828D01*
X152188422Y-90191094D01*
X152193099Y-90184789D01*
X152198371Y-90178971D01*
X152204189Y-90173699D01*
X152210494Y-90169022D01*
X152217228Y-90164986D01*
X152224325Y-90161630D01*
X152231717Y-90158985D01*
X152239333Y-90157077D01*
X152247099Y-90155925D01*
X152254940Y-90155540D01*
X152794940Y-90155540D01*
X152802781Y-90155925D01*
G37*
G04 #@! TD.AperFunction*
G04 #@! TA.AperFunction,SMDPad,CuDef*
G36*
X152802781Y-89505925D02*
G01*
X152810547Y-89507077D01*
X152818163Y-89508985D01*
X152825555Y-89511630D01*
X152832652Y-89514986D01*
X152839386Y-89519022D01*
X152845691Y-89523699D01*
X152851509Y-89528971D01*
X152856781Y-89534789D01*
X152861458Y-89541094D01*
X152865494Y-89547828D01*
X152868850Y-89554925D01*
X152871495Y-89562317D01*
X152873403Y-89569933D01*
X152874555Y-89577699D01*
X152874940Y-89585540D01*
X152874940Y-89745540D01*
X152874555Y-89753381D01*
X152873403Y-89761147D01*
X152871495Y-89768763D01*
X152868850Y-89776155D01*
X152865494Y-89783252D01*
X152861458Y-89789986D01*
X152856781Y-89796291D01*
X152851509Y-89802109D01*
X152845691Y-89807381D01*
X152839386Y-89812058D01*
X152832652Y-89816094D01*
X152825555Y-89819450D01*
X152818163Y-89822095D01*
X152810547Y-89824003D01*
X152802781Y-89825155D01*
X152794940Y-89825540D01*
X152254940Y-89825540D01*
X152247099Y-89825155D01*
X152239333Y-89824003D01*
X152231717Y-89822095D01*
X152224325Y-89819450D01*
X152217228Y-89816094D01*
X152210494Y-89812058D01*
X152204189Y-89807381D01*
X152198371Y-89802109D01*
X152193099Y-89796291D01*
X152188422Y-89789986D01*
X152184386Y-89783252D01*
X152181030Y-89776155D01*
X152178385Y-89768763D01*
X152176477Y-89761147D01*
X152175325Y-89753381D01*
X152174940Y-89745540D01*
X152174940Y-89585540D01*
X152175325Y-89577699D01*
X152176477Y-89569933D01*
X152178385Y-89562317D01*
X152181030Y-89554925D01*
X152184386Y-89547828D01*
X152188422Y-89541094D01*
X152193099Y-89534789D01*
X152198371Y-89528971D01*
X152204189Y-89523699D01*
X152210494Y-89519022D01*
X152217228Y-89514986D01*
X152224325Y-89511630D01*
X152231717Y-89508985D01*
X152239333Y-89507077D01*
X152247099Y-89505925D01*
X152254940Y-89505540D01*
X152794940Y-89505540D01*
X152802781Y-89505925D01*
G37*
G04 #@! TD.AperFunction*
G04 #@! TA.AperFunction,SMDPad,CuDef*
G36*
X138548016Y-92811153D02*
G01*
X138555539Y-92812269D01*
X138562917Y-92814117D01*
X138570078Y-92816679D01*
X138576953Y-92819931D01*
X138583477Y-92823841D01*
X138589585Y-92828372D01*
X138595221Y-92833479D01*
X138600328Y-92839115D01*
X138604859Y-92845223D01*
X138608769Y-92851747D01*
X138612021Y-92858622D01*
X138614583Y-92865783D01*
X138616431Y-92873161D01*
X138617547Y-92880684D01*
X138617920Y-92888280D01*
X138617920Y-93073280D01*
X138617547Y-93080876D01*
X138616431Y-93088399D01*
X138614583Y-93095777D01*
X138612021Y-93102938D01*
X138608769Y-93109813D01*
X138604859Y-93116337D01*
X138600328Y-93122445D01*
X138595221Y-93128081D01*
X138589585Y-93133188D01*
X138583477Y-93137719D01*
X138576953Y-93141629D01*
X138570078Y-93144881D01*
X138562917Y-93147443D01*
X138555539Y-93149291D01*
X138548016Y-93150407D01*
X138540420Y-93150780D01*
X138385420Y-93150780D01*
X138377824Y-93150407D01*
X138370301Y-93149291D01*
X138362923Y-93147443D01*
X138355762Y-93144881D01*
X138348887Y-93141629D01*
X138342363Y-93137719D01*
X138336255Y-93133188D01*
X138330619Y-93128081D01*
X138325512Y-93122445D01*
X138320981Y-93116337D01*
X138317071Y-93109813D01*
X138313819Y-93102938D01*
X138311257Y-93095777D01*
X138309409Y-93088399D01*
X138308293Y-93080876D01*
X138307920Y-93073280D01*
X138307920Y-92888280D01*
X138308293Y-92880684D01*
X138309409Y-92873161D01*
X138311257Y-92865783D01*
X138313819Y-92858622D01*
X138317071Y-92851747D01*
X138320981Y-92845223D01*
X138325512Y-92839115D01*
X138330619Y-92833479D01*
X138336255Y-92828372D01*
X138342363Y-92823841D01*
X138348887Y-92819931D01*
X138355762Y-92816679D01*
X138362923Y-92814117D01*
X138370301Y-92812269D01*
X138377824Y-92811153D01*
X138385420Y-92810780D01*
X138540420Y-92810780D01*
X138548016Y-92811153D01*
G37*
G04 #@! TD.AperFunction*
G04 #@! TA.AperFunction,SMDPad,CuDef*
G36*
X137998016Y-92811153D02*
G01*
X138005539Y-92812269D01*
X138012917Y-92814117D01*
X138020078Y-92816679D01*
X138026953Y-92819931D01*
X138033477Y-92823841D01*
X138039585Y-92828372D01*
X138045221Y-92833479D01*
X138050328Y-92839115D01*
X138054859Y-92845223D01*
X138058769Y-92851747D01*
X138062021Y-92858622D01*
X138064583Y-92865783D01*
X138066431Y-92873161D01*
X138067547Y-92880684D01*
X138067920Y-92888280D01*
X138067920Y-93073280D01*
X138067547Y-93080876D01*
X138066431Y-93088399D01*
X138064583Y-93095777D01*
X138062021Y-93102938D01*
X138058769Y-93109813D01*
X138054859Y-93116337D01*
X138050328Y-93122445D01*
X138045221Y-93128081D01*
X138039585Y-93133188D01*
X138033477Y-93137719D01*
X138026953Y-93141629D01*
X138020078Y-93144881D01*
X138012917Y-93147443D01*
X138005539Y-93149291D01*
X137998016Y-93150407D01*
X137990420Y-93150780D01*
X137835420Y-93150780D01*
X137827824Y-93150407D01*
X137820301Y-93149291D01*
X137812923Y-93147443D01*
X137805762Y-93144881D01*
X137798887Y-93141629D01*
X137792363Y-93137719D01*
X137786255Y-93133188D01*
X137780619Y-93128081D01*
X137775512Y-93122445D01*
X137770981Y-93116337D01*
X137767071Y-93109813D01*
X137763819Y-93102938D01*
X137761257Y-93095777D01*
X137759409Y-93088399D01*
X137758293Y-93080876D01*
X137757920Y-93073280D01*
X137757920Y-92888280D01*
X137758293Y-92880684D01*
X137759409Y-92873161D01*
X137761257Y-92865783D01*
X137763819Y-92858622D01*
X137767071Y-92851747D01*
X137770981Y-92845223D01*
X137775512Y-92839115D01*
X137780619Y-92833479D01*
X137786255Y-92828372D01*
X137792363Y-92823841D01*
X137798887Y-92819931D01*
X137805762Y-92816679D01*
X137812923Y-92814117D01*
X137820301Y-92812269D01*
X137827824Y-92811153D01*
X137835420Y-92810780D01*
X137990420Y-92810780D01*
X137998016Y-92811153D01*
G37*
G04 #@! TD.AperFunction*
G04 #@! TA.AperFunction,SMDPad,CuDef*
G36*
X138390692Y-93957398D02*
G01*
X138404768Y-93959486D01*
X138418571Y-93962944D01*
X138431969Y-93967737D01*
X138444833Y-93973821D01*
X138457038Y-93981137D01*
X138468467Y-93989613D01*
X138479010Y-93999170D01*
X138488567Y-94009713D01*
X138497043Y-94021142D01*
X138504359Y-94033347D01*
X138510443Y-94046211D01*
X138515236Y-94059609D01*
X138518694Y-94073412D01*
X138520782Y-94087488D01*
X138521480Y-94101700D01*
X138521480Y-94391700D01*
X138520782Y-94405912D01*
X138518694Y-94419988D01*
X138515236Y-94433791D01*
X138510443Y-94447189D01*
X138504359Y-94460053D01*
X138497043Y-94472258D01*
X138488567Y-94483687D01*
X138479010Y-94494230D01*
X138468467Y-94503787D01*
X138457038Y-94512263D01*
X138444833Y-94519579D01*
X138431969Y-94525663D01*
X138418571Y-94530456D01*
X138404768Y-94533914D01*
X138390692Y-94536002D01*
X138376480Y-94536700D01*
X138036480Y-94536700D01*
X138022268Y-94536002D01*
X138008192Y-94533914D01*
X137994389Y-94530456D01*
X137980991Y-94525663D01*
X137968127Y-94519579D01*
X137955922Y-94512263D01*
X137944493Y-94503787D01*
X137933950Y-94494230D01*
X137924393Y-94483687D01*
X137915917Y-94472258D01*
X137908601Y-94460053D01*
X137902517Y-94447189D01*
X137897724Y-94433791D01*
X137894266Y-94419988D01*
X137892178Y-94405912D01*
X137891480Y-94391700D01*
X137891480Y-94101700D01*
X137892178Y-94087488D01*
X137894266Y-94073412D01*
X137897724Y-94059609D01*
X137902517Y-94046211D01*
X137908601Y-94033347D01*
X137915917Y-94021142D01*
X137924393Y-94009713D01*
X137933950Y-93999170D01*
X137944493Y-93989613D01*
X137955922Y-93981137D01*
X137968127Y-93973821D01*
X137980991Y-93967737D01*
X137994389Y-93962944D01*
X138008192Y-93959486D01*
X138022268Y-93957398D01*
X138036480Y-93956700D01*
X138376480Y-93956700D01*
X138390692Y-93957398D01*
G37*
G04 #@! TD.AperFunction*
G04 #@! TA.AperFunction,SMDPad,CuDef*
G36*
X138390692Y-94847398D02*
G01*
X138404768Y-94849486D01*
X138418571Y-94852944D01*
X138431969Y-94857737D01*
X138444833Y-94863821D01*
X138457038Y-94871137D01*
X138468467Y-94879613D01*
X138479010Y-94889170D01*
X138488567Y-94899713D01*
X138497043Y-94911142D01*
X138504359Y-94923347D01*
X138510443Y-94936211D01*
X138515236Y-94949609D01*
X138518694Y-94963412D01*
X138520782Y-94977488D01*
X138521480Y-94991700D01*
X138521480Y-95281700D01*
X138520782Y-95295912D01*
X138518694Y-95309988D01*
X138515236Y-95323791D01*
X138510443Y-95337189D01*
X138504359Y-95350053D01*
X138497043Y-95362258D01*
X138488567Y-95373687D01*
X138479010Y-95384230D01*
X138468467Y-95393787D01*
X138457038Y-95402263D01*
X138444833Y-95409579D01*
X138431969Y-95415663D01*
X138418571Y-95420456D01*
X138404768Y-95423914D01*
X138390692Y-95426002D01*
X138376480Y-95426700D01*
X138036480Y-95426700D01*
X138022268Y-95426002D01*
X138008192Y-95423914D01*
X137994389Y-95420456D01*
X137980991Y-95415663D01*
X137968127Y-95409579D01*
X137955922Y-95402263D01*
X137944493Y-95393787D01*
X137933950Y-95384230D01*
X137924393Y-95373687D01*
X137915917Y-95362258D01*
X137908601Y-95350053D01*
X137902517Y-95337189D01*
X137897724Y-95323791D01*
X137894266Y-95309988D01*
X137892178Y-95295912D01*
X137891480Y-95281700D01*
X137891480Y-94991700D01*
X137892178Y-94977488D01*
X137894266Y-94963412D01*
X137897724Y-94949609D01*
X137902517Y-94936211D01*
X137908601Y-94923347D01*
X137915917Y-94911142D01*
X137924393Y-94899713D01*
X137933950Y-94889170D01*
X137944493Y-94879613D01*
X137955922Y-94871137D01*
X137968127Y-94863821D01*
X137980991Y-94857737D01*
X137994389Y-94852944D01*
X138008192Y-94849486D01*
X138022268Y-94847398D01*
X138036480Y-94846700D01*
X138376480Y-94846700D01*
X138390692Y-94847398D01*
G37*
G04 #@! TD.AperFunction*
G04 #@! TA.AperFunction,SMDPad,CuDef*
G36*
X135525416Y-90779153D02*
G01*
X135532939Y-90780269D01*
X135540317Y-90782117D01*
X135547478Y-90784679D01*
X135554353Y-90787931D01*
X135560877Y-90791841D01*
X135566985Y-90796372D01*
X135572621Y-90801479D01*
X135577728Y-90807115D01*
X135582259Y-90813223D01*
X135586169Y-90819747D01*
X135589421Y-90826622D01*
X135591983Y-90833783D01*
X135593831Y-90841161D01*
X135594947Y-90848684D01*
X135595320Y-90856280D01*
X135595320Y-91041280D01*
X135594947Y-91048876D01*
X135593831Y-91056399D01*
X135591983Y-91063777D01*
X135589421Y-91070938D01*
X135586169Y-91077813D01*
X135582259Y-91084337D01*
X135577728Y-91090445D01*
X135572621Y-91096081D01*
X135566985Y-91101188D01*
X135560877Y-91105719D01*
X135554353Y-91109629D01*
X135547478Y-91112881D01*
X135540317Y-91115443D01*
X135532939Y-91117291D01*
X135525416Y-91118407D01*
X135517820Y-91118780D01*
X135362820Y-91118780D01*
X135355224Y-91118407D01*
X135347701Y-91117291D01*
X135340323Y-91115443D01*
X135333162Y-91112881D01*
X135326287Y-91109629D01*
X135319763Y-91105719D01*
X135313655Y-91101188D01*
X135308019Y-91096081D01*
X135302912Y-91090445D01*
X135298381Y-91084337D01*
X135294471Y-91077813D01*
X135291219Y-91070938D01*
X135288657Y-91063777D01*
X135286809Y-91056399D01*
X135285693Y-91048876D01*
X135285320Y-91041280D01*
X135285320Y-90856280D01*
X135285693Y-90848684D01*
X135286809Y-90841161D01*
X135288657Y-90833783D01*
X135291219Y-90826622D01*
X135294471Y-90819747D01*
X135298381Y-90813223D01*
X135302912Y-90807115D01*
X135308019Y-90801479D01*
X135313655Y-90796372D01*
X135319763Y-90791841D01*
X135326287Y-90787931D01*
X135333162Y-90784679D01*
X135340323Y-90782117D01*
X135347701Y-90780269D01*
X135355224Y-90779153D01*
X135362820Y-90778780D01*
X135517820Y-90778780D01*
X135525416Y-90779153D01*
G37*
G04 #@! TD.AperFunction*
G04 #@! TA.AperFunction,SMDPad,CuDef*
G36*
X134975416Y-90779153D02*
G01*
X134982939Y-90780269D01*
X134990317Y-90782117D01*
X134997478Y-90784679D01*
X135004353Y-90787931D01*
X135010877Y-90791841D01*
X135016985Y-90796372D01*
X135022621Y-90801479D01*
X135027728Y-90807115D01*
X135032259Y-90813223D01*
X135036169Y-90819747D01*
X135039421Y-90826622D01*
X135041983Y-90833783D01*
X135043831Y-90841161D01*
X135044947Y-90848684D01*
X135045320Y-90856280D01*
X135045320Y-91041280D01*
X135044947Y-91048876D01*
X135043831Y-91056399D01*
X135041983Y-91063777D01*
X135039421Y-91070938D01*
X135036169Y-91077813D01*
X135032259Y-91084337D01*
X135027728Y-91090445D01*
X135022621Y-91096081D01*
X135016985Y-91101188D01*
X135010877Y-91105719D01*
X135004353Y-91109629D01*
X134997478Y-91112881D01*
X134990317Y-91115443D01*
X134982939Y-91117291D01*
X134975416Y-91118407D01*
X134967820Y-91118780D01*
X134812820Y-91118780D01*
X134805224Y-91118407D01*
X134797701Y-91117291D01*
X134790323Y-91115443D01*
X134783162Y-91112881D01*
X134776287Y-91109629D01*
X134769763Y-91105719D01*
X134763655Y-91101188D01*
X134758019Y-91096081D01*
X134752912Y-91090445D01*
X134748381Y-91084337D01*
X134744471Y-91077813D01*
X134741219Y-91070938D01*
X134738657Y-91063777D01*
X134736809Y-91056399D01*
X134735693Y-91048876D01*
X134735320Y-91041280D01*
X134735320Y-90856280D01*
X134735693Y-90848684D01*
X134736809Y-90841161D01*
X134738657Y-90833783D01*
X134741219Y-90826622D01*
X134744471Y-90819747D01*
X134748381Y-90813223D01*
X134752912Y-90807115D01*
X134758019Y-90801479D01*
X134763655Y-90796372D01*
X134769763Y-90791841D01*
X134776287Y-90787931D01*
X134783162Y-90784679D01*
X134790323Y-90782117D01*
X134797701Y-90780269D01*
X134805224Y-90779153D01*
X134812820Y-90778780D01*
X134967820Y-90778780D01*
X134975416Y-90779153D01*
G37*
G04 #@! TD.AperFunction*
G04 #@! TA.AperFunction,SMDPad,CuDef*
G36*
X136424732Y-94842318D02*
G01*
X136438808Y-94844406D01*
X136452611Y-94847864D01*
X136466009Y-94852657D01*
X136478873Y-94858741D01*
X136491078Y-94866057D01*
X136502507Y-94874533D01*
X136513050Y-94884090D01*
X136522607Y-94894633D01*
X136531083Y-94906062D01*
X136538399Y-94918267D01*
X136544483Y-94931131D01*
X136549276Y-94944529D01*
X136552734Y-94958332D01*
X136554822Y-94972408D01*
X136555520Y-94986620D01*
X136555520Y-95276620D01*
X136554822Y-95290832D01*
X136552734Y-95304908D01*
X136549276Y-95318711D01*
X136544483Y-95332109D01*
X136538399Y-95344973D01*
X136531083Y-95357178D01*
X136522607Y-95368607D01*
X136513050Y-95379150D01*
X136502507Y-95388707D01*
X136491078Y-95397183D01*
X136478873Y-95404499D01*
X136466009Y-95410583D01*
X136452611Y-95415376D01*
X136438808Y-95418834D01*
X136424732Y-95420922D01*
X136410520Y-95421620D01*
X136070520Y-95421620D01*
X136056308Y-95420922D01*
X136042232Y-95418834D01*
X136028429Y-95415376D01*
X136015031Y-95410583D01*
X136002167Y-95404499D01*
X135989962Y-95397183D01*
X135978533Y-95388707D01*
X135967990Y-95379150D01*
X135958433Y-95368607D01*
X135949957Y-95357178D01*
X135942641Y-95344973D01*
X135936557Y-95332109D01*
X135931764Y-95318711D01*
X135928306Y-95304908D01*
X135926218Y-95290832D01*
X135925520Y-95276620D01*
X135925520Y-94986620D01*
X135926218Y-94972408D01*
X135928306Y-94958332D01*
X135931764Y-94944529D01*
X135936557Y-94931131D01*
X135942641Y-94918267D01*
X135949957Y-94906062D01*
X135958433Y-94894633D01*
X135967990Y-94884090D01*
X135978533Y-94874533D01*
X135989962Y-94866057D01*
X136002167Y-94858741D01*
X136015031Y-94852657D01*
X136028429Y-94847864D01*
X136042232Y-94844406D01*
X136056308Y-94842318D01*
X136070520Y-94841620D01*
X136410520Y-94841620D01*
X136424732Y-94842318D01*
G37*
G04 #@! TD.AperFunction*
G04 #@! TA.AperFunction,SMDPad,CuDef*
G36*
X136424732Y-93952318D02*
G01*
X136438808Y-93954406D01*
X136452611Y-93957864D01*
X136466009Y-93962657D01*
X136478873Y-93968741D01*
X136491078Y-93976057D01*
X136502507Y-93984533D01*
X136513050Y-93994090D01*
X136522607Y-94004633D01*
X136531083Y-94016062D01*
X136538399Y-94028267D01*
X136544483Y-94041131D01*
X136549276Y-94054529D01*
X136552734Y-94068332D01*
X136554822Y-94082408D01*
X136555520Y-94096620D01*
X136555520Y-94386620D01*
X136554822Y-94400832D01*
X136552734Y-94414908D01*
X136549276Y-94428711D01*
X136544483Y-94442109D01*
X136538399Y-94454973D01*
X136531083Y-94467178D01*
X136522607Y-94478607D01*
X136513050Y-94489150D01*
X136502507Y-94498707D01*
X136491078Y-94507183D01*
X136478873Y-94514499D01*
X136466009Y-94520583D01*
X136452611Y-94525376D01*
X136438808Y-94528834D01*
X136424732Y-94530922D01*
X136410520Y-94531620D01*
X136070520Y-94531620D01*
X136056308Y-94530922D01*
X136042232Y-94528834D01*
X136028429Y-94525376D01*
X136015031Y-94520583D01*
X136002167Y-94514499D01*
X135989962Y-94507183D01*
X135978533Y-94498707D01*
X135967990Y-94489150D01*
X135958433Y-94478607D01*
X135949957Y-94467178D01*
X135942641Y-94454973D01*
X135936557Y-94442109D01*
X135931764Y-94428711D01*
X135928306Y-94414908D01*
X135926218Y-94400832D01*
X135925520Y-94386620D01*
X135925520Y-94096620D01*
X135926218Y-94082408D01*
X135928306Y-94068332D01*
X135931764Y-94054529D01*
X135936557Y-94041131D01*
X135942641Y-94028267D01*
X135949957Y-94016062D01*
X135958433Y-94004633D01*
X135967990Y-93994090D01*
X135978533Y-93984533D01*
X135989962Y-93976057D01*
X136002167Y-93968741D01*
X136015031Y-93962657D01*
X136028429Y-93957864D01*
X136042232Y-93954406D01*
X136056308Y-93952318D01*
X136070520Y-93951620D01*
X136410520Y-93951620D01*
X136424732Y-93952318D01*
G37*
G04 #@! TD.AperFunction*
G04 #@! TA.AperFunction,SMDPad,CuDef*
G36*
X135036816Y-88766553D02*
G01*
X135044339Y-88767669D01*
X135051717Y-88769517D01*
X135058878Y-88772079D01*
X135065753Y-88775331D01*
X135072277Y-88779241D01*
X135078385Y-88783772D01*
X135084021Y-88788879D01*
X135089128Y-88794515D01*
X135093659Y-88800623D01*
X135097569Y-88807147D01*
X135100821Y-88814022D01*
X135103383Y-88821183D01*
X135105231Y-88828561D01*
X135106347Y-88836084D01*
X135106720Y-88843680D01*
X135106720Y-88998680D01*
X135106347Y-89006276D01*
X135105231Y-89013799D01*
X135103383Y-89021177D01*
X135100821Y-89028338D01*
X135097569Y-89035213D01*
X135093659Y-89041737D01*
X135089128Y-89047845D01*
X135084021Y-89053481D01*
X135078385Y-89058588D01*
X135072277Y-89063119D01*
X135065753Y-89067029D01*
X135058878Y-89070281D01*
X135051717Y-89072843D01*
X135044339Y-89074691D01*
X135036816Y-89075807D01*
X135029220Y-89076180D01*
X134844220Y-89076180D01*
X134836624Y-89075807D01*
X134829101Y-89074691D01*
X134821723Y-89072843D01*
X134814562Y-89070281D01*
X134807687Y-89067029D01*
X134801163Y-89063119D01*
X134795055Y-89058588D01*
X134789419Y-89053481D01*
X134784312Y-89047845D01*
X134779781Y-89041737D01*
X134775871Y-89035213D01*
X134772619Y-89028338D01*
X134770057Y-89021177D01*
X134768209Y-89013799D01*
X134767093Y-89006276D01*
X134766720Y-88998680D01*
X134766720Y-88843680D01*
X134767093Y-88836084D01*
X134768209Y-88828561D01*
X134770057Y-88821183D01*
X134772619Y-88814022D01*
X134775871Y-88807147D01*
X134779781Y-88800623D01*
X134784312Y-88794515D01*
X134789419Y-88788879D01*
X134795055Y-88783772D01*
X134801163Y-88779241D01*
X134807687Y-88775331D01*
X134814562Y-88772079D01*
X134821723Y-88769517D01*
X134829101Y-88767669D01*
X134836624Y-88766553D01*
X134844220Y-88766180D01*
X135029220Y-88766180D01*
X135036816Y-88766553D01*
G37*
G04 #@! TD.AperFunction*
G04 #@! TA.AperFunction,SMDPad,CuDef*
G36*
X135036816Y-89316553D02*
G01*
X135044339Y-89317669D01*
X135051717Y-89319517D01*
X135058878Y-89322079D01*
X135065753Y-89325331D01*
X135072277Y-89329241D01*
X135078385Y-89333772D01*
X135084021Y-89338879D01*
X135089128Y-89344515D01*
X135093659Y-89350623D01*
X135097569Y-89357147D01*
X135100821Y-89364022D01*
X135103383Y-89371183D01*
X135105231Y-89378561D01*
X135106347Y-89386084D01*
X135106720Y-89393680D01*
X135106720Y-89548680D01*
X135106347Y-89556276D01*
X135105231Y-89563799D01*
X135103383Y-89571177D01*
X135100821Y-89578338D01*
X135097569Y-89585213D01*
X135093659Y-89591737D01*
X135089128Y-89597845D01*
X135084021Y-89603481D01*
X135078385Y-89608588D01*
X135072277Y-89613119D01*
X135065753Y-89617029D01*
X135058878Y-89620281D01*
X135051717Y-89622843D01*
X135044339Y-89624691D01*
X135036816Y-89625807D01*
X135029220Y-89626180D01*
X134844220Y-89626180D01*
X134836624Y-89625807D01*
X134829101Y-89624691D01*
X134821723Y-89622843D01*
X134814562Y-89620281D01*
X134807687Y-89617029D01*
X134801163Y-89613119D01*
X134795055Y-89608588D01*
X134789419Y-89603481D01*
X134784312Y-89597845D01*
X134779781Y-89591737D01*
X134775871Y-89585213D01*
X134772619Y-89578338D01*
X134770057Y-89571177D01*
X134768209Y-89563799D01*
X134767093Y-89556276D01*
X134766720Y-89548680D01*
X134766720Y-89393680D01*
X134767093Y-89386084D01*
X134768209Y-89378561D01*
X134770057Y-89371183D01*
X134772619Y-89364022D01*
X134775871Y-89357147D01*
X134779781Y-89350623D01*
X134784312Y-89344515D01*
X134789419Y-89338879D01*
X134795055Y-89333772D01*
X134801163Y-89329241D01*
X134807687Y-89325331D01*
X134814562Y-89322079D01*
X134821723Y-89319517D01*
X134829101Y-89317669D01*
X134836624Y-89316553D01*
X134844220Y-89316180D01*
X135029220Y-89316180D01*
X135036816Y-89316553D01*
G37*
G04 #@! TD.AperFunction*
G04 #@! TA.AperFunction,SMDPad,CuDef*
G36*
X138542016Y-90722353D02*
G01*
X138549539Y-90723469D01*
X138556917Y-90725317D01*
X138564078Y-90727879D01*
X138570953Y-90731131D01*
X138577477Y-90735041D01*
X138583585Y-90739572D01*
X138589221Y-90744679D01*
X138594328Y-90750315D01*
X138598859Y-90756423D01*
X138602769Y-90762947D01*
X138606021Y-90769822D01*
X138608583Y-90776983D01*
X138610431Y-90784361D01*
X138611547Y-90791884D01*
X138611920Y-90799480D01*
X138611920Y-90954480D01*
X138611547Y-90962076D01*
X138610431Y-90969599D01*
X138608583Y-90976977D01*
X138606021Y-90984138D01*
X138602769Y-90991013D01*
X138598859Y-90997537D01*
X138594328Y-91003645D01*
X138589221Y-91009281D01*
X138583585Y-91014388D01*
X138577477Y-91018919D01*
X138570953Y-91022829D01*
X138564078Y-91026081D01*
X138556917Y-91028643D01*
X138549539Y-91030491D01*
X138542016Y-91031607D01*
X138534420Y-91031980D01*
X138349420Y-91031980D01*
X138341824Y-91031607D01*
X138334301Y-91030491D01*
X138326923Y-91028643D01*
X138319762Y-91026081D01*
X138312887Y-91022829D01*
X138306363Y-91018919D01*
X138300255Y-91014388D01*
X138294619Y-91009281D01*
X138289512Y-91003645D01*
X138284981Y-90997537D01*
X138281071Y-90991013D01*
X138277819Y-90984138D01*
X138275257Y-90976977D01*
X138273409Y-90969599D01*
X138272293Y-90962076D01*
X138271920Y-90954480D01*
X138271920Y-90799480D01*
X138272293Y-90791884D01*
X138273409Y-90784361D01*
X138275257Y-90776983D01*
X138277819Y-90769822D01*
X138281071Y-90762947D01*
X138284981Y-90756423D01*
X138289512Y-90750315D01*
X138294619Y-90744679D01*
X138300255Y-90739572D01*
X138306363Y-90735041D01*
X138312887Y-90731131D01*
X138319762Y-90727879D01*
X138326923Y-90725317D01*
X138334301Y-90723469D01*
X138341824Y-90722353D01*
X138349420Y-90721980D01*
X138534420Y-90721980D01*
X138542016Y-90722353D01*
G37*
G04 #@! TD.AperFunction*
G04 #@! TA.AperFunction,SMDPad,CuDef*
G36*
X138542016Y-91272353D02*
G01*
X138549539Y-91273469D01*
X138556917Y-91275317D01*
X138564078Y-91277879D01*
X138570953Y-91281131D01*
X138577477Y-91285041D01*
X138583585Y-91289572D01*
X138589221Y-91294679D01*
X138594328Y-91300315D01*
X138598859Y-91306423D01*
X138602769Y-91312947D01*
X138606021Y-91319822D01*
X138608583Y-91326983D01*
X138610431Y-91334361D01*
X138611547Y-91341884D01*
X138611920Y-91349480D01*
X138611920Y-91504480D01*
X138611547Y-91512076D01*
X138610431Y-91519599D01*
X138608583Y-91526977D01*
X138606021Y-91534138D01*
X138602769Y-91541013D01*
X138598859Y-91547537D01*
X138594328Y-91553645D01*
X138589221Y-91559281D01*
X138583585Y-91564388D01*
X138577477Y-91568919D01*
X138570953Y-91572829D01*
X138564078Y-91576081D01*
X138556917Y-91578643D01*
X138549539Y-91580491D01*
X138542016Y-91581607D01*
X138534420Y-91581980D01*
X138349420Y-91581980D01*
X138341824Y-91581607D01*
X138334301Y-91580491D01*
X138326923Y-91578643D01*
X138319762Y-91576081D01*
X138312887Y-91572829D01*
X138306363Y-91568919D01*
X138300255Y-91564388D01*
X138294619Y-91559281D01*
X138289512Y-91553645D01*
X138284981Y-91547537D01*
X138281071Y-91541013D01*
X138277819Y-91534138D01*
X138275257Y-91526977D01*
X138273409Y-91519599D01*
X138272293Y-91512076D01*
X138271920Y-91504480D01*
X138271920Y-91349480D01*
X138272293Y-91341884D01*
X138273409Y-91334361D01*
X138275257Y-91326983D01*
X138277819Y-91319822D01*
X138281071Y-91312947D01*
X138284981Y-91306423D01*
X138289512Y-91300315D01*
X138294619Y-91294679D01*
X138300255Y-91289572D01*
X138306363Y-91285041D01*
X138312887Y-91281131D01*
X138319762Y-91277879D01*
X138326923Y-91275317D01*
X138334301Y-91273469D01*
X138341824Y-91272353D01*
X138349420Y-91271980D01*
X138534420Y-91271980D01*
X138542016Y-91272353D01*
G37*
G04 #@! TD.AperFunction*
G04 #@! TA.AperFunction,SMDPad,CuDef*
G36*
X139608668Y-93688555D02*
G01*
X139628326Y-93691471D01*
X139647603Y-93696300D01*
X139666313Y-93702994D01*
X139684278Y-93711491D01*
X139701323Y-93721707D01*
X139717285Y-93733545D01*
X139732009Y-93746891D01*
X139745355Y-93761615D01*
X139757193Y-93777577D01*
X139767409Y-93794622D01*
X139775906Y-93812587D01*
X139782600Y-93831297D01*
X139787429Y-93850574D01*
X139790345Y-93870232D01*
X139791320Y-93890080D01*
X139791320Y-94295080D01*
X139790345Y-94314928D01*
X139787429Y-94334586D01*
X139782600Y-94353863D01*
X139775906Y-94372573D01*
X139767409Y-94390538D01*
X139757193Y-94407583D01*
X139745355Y-94423545D01*
X139732009Y-94438269D01*
X139717285Y-94451615D01*
X139701323Y-94463453D01*
X139684278Y-94473669D01*
X139666313Y-94482166D01*
X139647603Y-94488860D01*
X139628326Y-94493689D01*
X139608668Y-94496605D01*
X139588820Y-94497580D01*
X139123820Y-94497580D01*
X139103972Y-94496605D01*
X139084314Y-94493689D01*
X139065037Y-94488860D01*
X139046327Y-94482166D01*
X139028362Y-94473669D01*
X139011317Y-94463453D01*
X138995355Y-94451615D01*
X138980631Y-94438269D01*
X138967285Y-94423545D01*
X138955447Y-94407583D01*
X138945231Y-94390538D01*
X138936734Y-94372573D01*
X138930040Y-94353863D01*
X138925211Y-94334586D01*
X138922295Y-94314928D01*
X138921320Y-94295080D01*
X138921320Y-93890080D01*
X138922295Y-93870232D01*
X138925211Y-93850574D01*
X138930040Y-93831297D01*
X138936734Y-93812587D01*
X138945231Y-93794622D01*
X138955447Y-93777577D01*
X138967285Y-93761615D01*
X138980631Y-93746891D01*
X138995355Y-93733545D01*
X139011317Y-93721707D01*
X139028362Y-93711491D01*
X139046327Y-93702994D01*
X139065037Y-93696300D01*
X139084314Y-93691471D01*
X139103972Y-93688555D01*
X139123820Y-93687580D01*
X139588820Y-93687580D01*
X139608668Y-93688555D01*
G37*
G04 #@! TD.AperFunction*
G04 #@! TA.AperFunction,SMDPad,CuDef*
G36*
X139608668Y-92328555D02*
G01*
X139628326Y-92331471D01*
X139647603Y-92336300D01*
X139666313Y-92342994D01*
X139684278Y-92351491D01*
X139701323Y-92361707D01*
X139717285Y-92373545D01*
X139732009Y-92386891D01*
X139745355Y-92401615D01*
X139757193Y-92417577D01*
X139767409Y-92434622D01*
X139775906Y-92452587D01*
X139782600Y-92471297D01*
X139787429Y-92490574D01*
X139790345Y-92510232D01*
X139791320Y-92530080D01*
X139791320Y-92935080D01*
X139790345Y-92954928D01*
X139787429Y-92974586D01*
X139782600Y-92993863D01*
X139775906Y-93012573D01*
X139767409Y-93030538D01*
X139757193Y-93047583D01*
X139745355Y-93063545D01*
X139732009Y-93078269D01*
X139717285Y-93091615D01*
X139701323Y-93103453D01*
X139684278Y-93113669D01*
X139666313Y-93122166D01*
X139647603Y-93128860D01*
X139628326Y-93133689D01*
X139608668Y-93136605D01*
X139588820Y-93137580D01*
X139123820Y-93137580D01*
X139103972Y-93136605D01*
X139084314Y-93133689D01*
X139065037Y-93128860D01*
X139046327Y-93122166D01*
X139028362Y-93113669D01*
X139011317Y-93103453D01*
X138995355Y-93091615D01*
X138980631Y-93078269D01*
X138967285Y-93063545D01*
X138955447Y-93047583D01*
X138945231Y-93030538D01*
X138936734Y-93012573D01*
X138930040Y-92993863D01*
X138925211Y-92974586D01*
X138922295Y-92954928D01*
X138921320Y-92935080D01*
X138921320Y-92530080D01*
X138922295Y-92510232D01*
X138925211Y-92490574D01*
X138930040Y-92471297D01*
X138936734Y-92452587D01*
X138945231Y-92434622D01*
X138955447Y-92417577D01*
X138967285Y-92401615D01*
X138980631Y-92386891D01*
X138995355Y-92373545D01*
X139011317Y-92361707D01*
X139028362Y-92351491D01*
X139046327Y-92342994D01*
X139065037Y-92336300D01*
X139084314Y-92331471D01*
X139103972Y-92328555D01*
X139123820Y-92327580D01*
X139588820Y-92327580D01*
X139608668Y-92328555D01*
G37*
G04 #@! TD.AperFunction*
G04 #@! TA.AperFunction,SMDPad,CuDef*
G36*
X138592816Y-87394953D02*
G01*
X138600339Y-87396069D01*
X138607717Y-87397917D01*
X138614878Y-87400479D01*
X138621753Y-87403731D01*
X138628277Y-87407641D01*
X138634385Y-87412172D01*
X138640021Y-87417279D01*
X138645128Y-87422915D01*
X138649659Y-87429023D01*
X138653569Y-87435547D01*
X138656821Y-87442422D01*
X138659383Y-87449583D01*
X138661231Y-87456961D01*
X138662347Y-87464484D01*
X138662720Y-87472080D01*
X138662720Y-87627080D01*
X138662347Y-87634676D01*
X138661231Y-87642199D01*
X138659383Y-87649577D01*
X138656821Y-87656738D01*
X138653569Y-87663613D01*
X138649659Y-87670137D01*
X138645128Y-87676245D01*
X138640021Y-87681881D01*
X138634385Y-87686988D01*
X138628277Y-87691519D01*
X138621753Y-87695429D01*
X138614878Y-87698681D01*
X138607717Y-87701243D01*
X138600339Y-87703091D01*
X138592816Y-87704207D01*
X138585220Y-87704580D01*
X138400220Y-87704580D01*
X138392624Y-87704207D01*
X138385101Y-87703091D01*
X138377723Y-87701243D01*
X138370562Y-87698681D01*
X138363687Y-87695429D01*
X138357163Y-87691519D01*
X138351055Y-87686988D01*
X138345419Y-87681881D01*
X138340312Y-87676245D01*
X138335781Y-87670137D01*
X138331871Y-87663613D01*
X138328619Y-87656738D01*
X138326057Y-87649577D01*
X138324209Y-87642199D01*
X138323093Y-87634676D01*
X138322720Y-87627080D01*
X138322720Y-87472080D01*
X138323093Y-87464484D01*
X138324209Y-87456961D01*
X138326057Y-87449583D01*
X138328619Y-87442422D01*
X138331871Y-87435547D01*
X138335781Y-87429023D01*
X138340312Y-87422915D01*
X138345419Y-87417279D01*
X138351055Y-87412172D01*
X138357163Y-87407641D01*
X138363687Y-87403731D01*
X138370562Y-87400479D01*
X138377723Y-87397917D01*
X138385101Y-87396069D01*
X138392624Y-87394953D01*
X138400220Y-87394580D01*
X138585220Y-87394580D01*
X138592816Y-87394953D01*
G37*
G04 #@! TD.AperFunction*
G04 #@! TA.AperFunction,SMDPad,CuDef*
G36*
X138592816Y-87944953D02*
G01*
X138600339Y-87946069D01*
X138607717Y-87947917D01*
X138614878Y-87950479D01*
X138621753Y-87953731D01*
X138628277Y-87957641D01*
X138634385Y-87962172D01*
X138640021Y-87967279D01*
X138645128Y-87972915D01*
X138649659Y-87979023D01*
X138653569Y-87985547D01*
X138656821Y-87992422D01*
X138659383Y-87999583D01*
X138661231Y-88006961D01*
X138662347Y-88014484D01*
X138662720Y-88022080D01*
X138662720Y-88177080D01*
X138662347Y-88184676D01*
X138661231Y-88192199D01*
X138659383Y-88199577D01*
X138656821Y-88206738D01*
X138653569Y-88213613D01*
X138649659Y-88220137D01*
X138645128Y-88226245D01*
X138640021Y-88231881D01*
X138634385Y-88236988D01*
X138628277Y-88241519D01*
X138621753Y-88245429D01*
X138614878Y-88248681D01*
X138607717Y-88251243D01*
X138600339Y-88253091D01*
X138592816Y-88254207D01*
X138585220Y-88254580D01*
X138400220Y-88254580D01*
X138392624Y-88254207D01*
X138385101Y-88253091D01*
X138377723Y-88251243D01*
X138370562Y-88248681D01*
X138363687Y-88245429D01*
X138357163Y-88241519D01*
X138351055Y-88236988D01*
X138345419Y-88231881D01*
X138340312Y-88226245D01*
X138335781Y-88220137D01*
X138331871Y-88213613D01*
X138328619Y-88206738D01*
X138326057Y-88199577D01*
X138324209Y-88192199D01*
X138323093Y-88184676D01*
X138322720Y-88177080D01*
X138322720Y-88022080D01*
X138323093Y-88014484D01*
X138324209Y-88006961D01*
X138326057Y-87999583D01*
X138328619Y-87992422D01*
X138331871Y-87985547D01*
X138335781Y-87979023D01*
X138340312Y-87972915D01*
X138345419Y-87967279D01*
X138351055Y-87962172D01*
X138357163Y-87957641D01*
X138363687Y-87953731D01*
X138370562Y-87950479D01*
X138377723Y-87947917D01*
X138385101Y-87946069D01*
X138392624Y-87944953D01*
X138400220Y-87944580D01*
X138585220Y-87944580D01*
X138592816Y-87944953D01*
G37*
G04 #@! TD.AperFunction*
D14*
X128454780Y-103119441D03*
D15*
X127304780Y-102919441D03*
D16*
X126154780Y-103144441D03*
D17*
X124664780Y-104769441D03*
X124664780Y-105869441D03*
X124664780Y-111369441D03*
X124664780Y-110269441D03*
X124664780Y-106969441D03*
X124664780Y-108069441D03*
X124664780Y-109169441D03*
X124664780Y-112469441D03*
D18*
X125714780Y-113544441D03*
X128304780Y-113544441D03*
D19*
X140494000Y-102901880D03*
X140094000Y-102901880D03*
X139694000Y-102901880D03*
X138894000Y-102901880D03*
X138094000Y-102901880D03*
X139294000Y-102901880D03*
X137694000Y-102901880D03*
X137294000Y-102901880D03*
X136894000Y-102901880D03*
X136494000Y-102901880D03*
X136094000Y-102901880D03*
X135694000Y-102901880D03*
X138494000Y-102901880D03*
X130094000Y-102901880D03*
X130494000Y-102901880D03*
X130894000Y-102901880D03*
X131294000Y-102901880D03*
X131694000Y-102901880D03*
X132094000Y-102901880D03*
X132494000Y-102901880D03*
X132894000Y-102901880D03*
X133294000Y-102901880D03*
X133694000Y-102901880D03*
X134094000Y-102901880D03*
X134494000Y-102901880D03*
X134894000Y-102901880D03*
X135294000Y-102901880D03*
X140494000Y-96774000D03*
X140094000Y-96774000D03*
X139694000Y-96774000D03*
X138894000Y-96774000D03*
X138094000Y-96774000D03*
X139294000Y-96774000D03*
X137694000Y-96774000D03*
X137294000Y-96774000D03*
X136894000Y-96774000D03*
X136494000Y-96774000D03*
X136094000Y-96774000D03*
X135694000Y-96774000D03*
X138494000Y-96774000D03*
X130094000Y-96774000D03*
X130494000Y-96774000D03*
X130894000Y-96774000D03*
X131294000Y-96774000D03*
X131694000Y-96774000D03*
X132094000Y-96774000D03*
X132494000Y-96774000D03*
X132894000Y-96774000D03*
X133294000Y-96774000D03*
X133694000Y-96774000D03*
X134094000Y-96774000D03*
X134494000Y-96774000D03*
X134894000Y-96774000D03*
X135294000Y-96774000D03*
D20*
X141719300Y-91972080D03*
X141719300Y-91572080D03*
X141719300Y-91172080D03*
X141719300Y-90772080D03*
X141719300Y-90372080D03*
X141719300Y-89972080D03*
X148460460Y-91973400D03*
X148460460Y-91573400D03*
X148460460Y-91173400D03*
X148460460Y-90773400D03*
X148460460Y-90373400D03*
X148460460Y-89973400D03*
G04 #@! TA.AperFunction,SMDPad,CuDef*
D13*
G36*
X139615629Y-89814451D02*
G01*
X139637228Y-89817655D01*
X139658408Y-89822961D01*
X139678967Y-89830317D01*
X139698706Y-89839653D01*
X139717434Y-89850878D01*
X139734973Y-89863885D01*
X139751151Y-89878549D01*
X139765815Y-89894727D01*
X139778822Y-89912266D01*
X139790047Y-89930994D01*
X139799383Y-89950733D01*
X139806739Y-89971292D01*
X139812045Y-89992472D01*
X139815249Y-90014071D01*
X139816320Y-90035880D01*
X139816320Y-90480880D01*
X139815249Y-90502689D01*
X139812045Y-90524288D01*
X139806739Y-90545468D01*
X139799383Y-90566027D01*
X139790047Y-90585766D01*
X139778822Y-90604494D01*
X139765815Y-90622033D01*
X139751151Y-90638211D01*
X139734973Y-90652875D01*
X139717434Y-90665882D01*
X139698706Y-90677107D01*
X139678967Y-90686443D01*
X139658408Y-90693799D01*
X139637228Y-90699105D01*
X139615629Y-90702309D01*
X139593820Y-90703380D01*
X139118820Y-90703380D01*
X139097011Y-90702309D01*
X139075412Y-90699105D01*
X139054232Y-90693799D01*
X139033673Y-90686443D01*
X139013934Y-90677107D01*
X138995206Y-90665882D01*
X138977667Y-90652875D01*
X138961489Y-90638211D01*
X138946825Y-90622033D01*
X138933818Y-90604494D01*
X138922593Y-90585766D01*
X138913257Y-90566027D01*
X138905901Y-90545468D01*
X138900595Y-90524288D01*
X138897391Y-90502689D01*
X138896320Y-90480880D01*
X138896320Y-90035880D01*
X138897391Y-90014071D01*
X138900595Y-89992472D01*
X138905901Y-89971292D01*
X138913257Y-89950733D01*
X138922593Y-89930994D01*
X138933818Y-89912266D01*
X138946825Y-89894727D01*
X138961489Y-89878549D01*
X138977667Y-89863885D01*
X138995206Y-89850878D01*
X139013934Y-89839653D01*
X139033673Y-89830317D01*
X139054232Y-89822961D01*
X139075412Y-89817655D01*
X139097011Y-89814451D01*
X139118820Y-89813380D01*
X139593820Y-89813380D01*
X139615629Y-89814451D01*
G37*
G04 #@! TD.AperFunction*
G04 #@! TA.AperFunction,SMDPad,CuDef*
G36*
X139615629Y-91144451D02*
G01*
X139637228Y-91147655D01*
X139658408Y-91152961D01*
X139678967Y-91160317D01*
X139698706Y-91169653D01*
X139717434Y-91180878D01*
X139734973Y-91193885D01*
X139751151Y-91208549D01*
X139765815Y-91224727D01*
X139778822Y-91242266D01*
X139790047Y-91260994D01*
X139799383Y-91280733D01*
X139806739Y-91301292D01*
X139812045Y-91322472D01*
X139815249Y-91344071D01*
X139816320Y-91365880D01*
X139816320Y-91810880D01*
X139815249Y-91832689D01*
X139812045Y-91854288D01*
X139806739Y-91875468D01*
X139799383Y-91896027D01*
X139790047Y-91915766D01*
X139778822Y-91934494D01*
X139765815Y-91952033D01*
X139751151Y-91968211D01*
X139734973Y-91982875D01*
X139717434Y-91995882D01*
X139698706Y-92007107D01*
X139678967Y-92016443D01*
X139658408Y-92023799D01*
X139637228Y-92029105D01*
X139615629Y-92032309D01*
X139593820Y-92033380D01*
X139118820Y-92033380D01*
X139097011Y-92032309D01*
X139075412Y-92029105D01*
X139054232Y-92023799D01*
X139033673Y-92016443D01*
X139013934Y-92007107D01*
X138995206Y-91995882D01*
X138977667Y-91982875D01*
X138961489Y-91968211D01*
X138946825Y-91952033D01*
X138933818Y-91934494D01*
X138922593Y-91915766D01*
X138913257Y-91896027D01*
X138905901Y-91875468D01*
X138900595Y-91854288D01*
X138897391Y-91832689D01*
X138896320Y-91810880D01*
X138896320Y-91365880D01*
X138897391Y-91344071D01*
X138900595Y-91322472D01*
X138905901Y-91301292D01*
X138913257Y-91280733D01*
X138922593Y-91260994D01*
X138933818Y-91242266D01*
X138946825Y-91224727D01*
X138961489Y-91208549D01*
X138977667Y-91193885D01*
X138995206Y-91180878D01*
X139013934Y-91169653D01*
X139033673Y-91160317D01*
X139054232Y-91152961D01*
X139075412Y-91147655D01*
X139097011Y-91144451D01*
X139118820Y-91143380D01*
X139593820Y-91143380D01*
X139615629Y-91144451D01*
G37*
G04 #@! TD.AperFunction*
D21*
X150522560Y-90736800D03*
D22*
X149682560Y-91736800D03*
X149682560Y-91236800D03*
X149682560Y-90736800D03*
X149682560Y-90236800D03*
X149682560Y-89736800D03*
X151362560Y-89736800D03*
X151362560Y-90236800D03*
X151362560Y-90736800D03*
X151362560Y-91236800D03*
X151362560Y-91736800D03*
D23*
X130880140Y-90266340D03*
X130480140Y-90266340D03*
D24*
X129835140Y-90221340D03*
X129835140Y-89821340D03*
X129835140Y-89421340D03*
X129835140Y-89021340D03*
X129835140Y-88621340D03*
D23*
X130480140Y-88576340D03*
X130880140Y-88576340D03*
D24*
X131525140Y-88621340D03*
X131525140Y-89021340D03*
X131525140Y-89421340D03*
X131525140Y-89821340D03*
X131525140Y-90221340D03*
D25*
X131374780Y-105444440D03*
X132174780Y-105444440D03*
X132974780Y-105444440D03*
X133774780Y-105444440D03*
X134574780Y-105444440D03*
X135374780Y-105444440D03*
X136174780Y-105444440D03*
X136974780Y-105444440D03*
X137774780Y-105444440D03*
X138574780Y-105444440D03*
X131374780Y-106244440D03*
X132174780Y-106244440D03*
X132974780Y-106244440D03*
X133774780Y-106244440D03*
X134574780Y-106244440D03*
X135374780Y-106244440D03*
X136174780Y-106244440D03*
X136974780Y-106244440D03*
X137774780Y-106244440D03*
X138574780Y-106244440D03*
X131374780Y-107044440D03*
X132174780Y-107044440D03*
X132974780Y-107044440D03*
X133774780Y-107044440D03*
X134574780Y-107044440D03*
X135374780Y-107044440D03*
X136174780Y-107044440D03*
X136974780Y-107044440D03*
X137774780Y-107044440D03*
X138574780Y-107044440D03*
X131374780Y-107844440D03*
X132174780Y-107844440D03*
X132974780Y-107844440D03*
X133774780Y-107844440D03*
X134574780Y-107844440D03*
X135374780Y-107844440D03*
X136174780Y-107844440D03*
X136974780Y-107844440D03*
X137774780Y-107844440D03*
X138574780Y-107844440D03*
X131374780Y-108644440D03*
X132174780Y-108644440D03*
X132974780Y-108644440D03*
X133774780Y-108644440D03*
X134574780Y-108644440D03*
X135374780Y-108644440D03*
X136174780Y-108644440D03*
X136974780Y-108644440D03*
X137774780Y-108644440D03*
X138574780Y-108644440D03*
X131374780Y-109444440D03*
X132174780Y-109444440D03*
X132974780Y-109444440D03*
X133774780Y-109444440D03*
X134574780Y-109444440D03*
X135374780Y-109444440D03*
X136174780Y-109444440D03*
X136974780Y-109444440D03*
X137774780Y-109444440D03*
X138574780Y-109444440D03*
X131374780Y-110244440D03*
X132174780Y-110244440D03*
X132974780Y-110244440D03*
X133774780Y-110244440D03*
X134574780Y-110244440D03*
X135374780Y-110244440D03*
X136174780Y-110244440D03*
X136974780Y-110244440D03*
X137774780Y-110244440D03*
X138574780Y-110244440D03*
X131374780Y-111044440D03*
X132174780Y-111044440D03*
X132974780Y-111044440D03*
X133774780Y-111044440D03*
X134574780Y-111044440D03*
X135374780Y-111044440D03*
X136174780Y-111044440D03*
X136974780Y-111044440D03*
X137774780Y-111044440D03*
X138574780Y-111044440D03*
X131374780Y-111844440D03*
X132174780Y-111844440D03*
X132974780Y-111844440D03*
X133774780Y-111844440D03*
X134574780Y-111844440D03*
X135374780Y-111844440D03*
X136174780Y-111844440D03*
X136974780Y-111844440D03*
X137774780Y-111844440D03*
X138574780Y-111844440D03*
X131374780Y-112644440D03*
X132174780Y-112644440D03*
X132974780Y-112644440D03*
X133774780Y-112644440D03*
X134574780Y-112644440D03*
X135374780Y-112644440D03*
X136174780Y-112644440D03*
X136974780Y-112644440D03*
X137774780Y-112644440D03*
X138574780Y-112644440D03*
D26*
X129054800Y-95135840D03*
X129054800Y-92135840D03*
X132524800Y-92135840D03*
X132524800Y-95135840D03*
D27*
X139163520Y-86711380D03*
X140463520Y-86711380D03*
X140463520Y-88531380D03*
X139813520Y-88531380D03*
X139163520Y-88531380D03*
D28*
X136223320Y-86701780D03*
X136223320Y-88591780D03*
X137663320Y-88591780D03*
X137663320Y-86701780D03*
D29*
X112000000Y-116000000D03*
X164000000Y-116000000D03*
X164000000Y-74000000D03*
X112000000Y-74000000D03*
G04 #@! TA.AperFunction,SMDPad,CuDef*
D13*
G36*
X131025636Y-90921513D02*
G01*
X131033159Y-90922629D01*
X131040537Y-90924477D01*
X131047698Y-90927039D01*
X131054573Y-90930291D01*
X131061097Y-90934201D01*
X131067205Y-90938732D01*
X131072841Y-90943839D01*
X131077948Y-90949475D01*
X131082479Y-90955583D01*
X131086389Y-90962107D01*
X131089641Y-90968982D01*
X131092203Y-90976143D01*
X131094051Y-90983521D01*
X131095167Y-90991044D01*
X131095540Y-90998640D01*
X131095540Y-91183640D01*
X131095167Y-91191236D01*
X131094051Y-91198759D01*
X131092203Y-91206137D01*
X131089641Y-91213298D01*
X131086389Y-91220173D01*
X131082479Y-91226697D01*
X131077948Y-91232805D01*
X131072841Y-91238441D01*
X131067205Y-91243548D01*
X131061097Y-91248079D01*
X131054573Y-91251989D01*
X131047698Y-91255241D01*
X131040537Y-91257803D01*
X131033159Y-91259651D01*
X131025636Y-91260767D01*
X131018040Y-91261140D01*
X130863040Y-91261140D01*
X130855444Y-91260767D01*
X130847921Y-91259651D01*
X130840543Y-91257803D01*
X130833382Y-91255241D01*
X130826507Y-91251989D01*
X130819983Y-91248079D01*
X130813875Y-91243548D01*
X130808239Y-91238441D01*
X130803132Y-91232805D01*
X130798601Y-91226697D01*
X130794691Y-91220173D01*
X130791439Y-91213298D01*
X130788877Y-91206137D01*
X130787029Y-91198759D01*
X130785913Y-91191236D01*
X130785540Y-91183640D01*
X130785540Y-90998640D01*
X130785913Y-90991044D01*
X130787029Y-90983521D01*
X130788877Y-90976143D01*
X130791439Y-90968982D01*
X130794691Y-90962107D01*
X130798601Y-90955583D01*
X130803132Y-90949475D01*
X130808239Y-90943839D01*
X130813875Y-90938732D01*
X130819983Y-90934201D01*
X130826507Y-90930291D01*
X130833382Y-90927039D01*
X130840543Y-90924477D01*
X130847921Y-90922629D01*
X130855444Y-90921513D01*
X130863040Y-90921140D01*
X131018040Y-90921140D01*
X131025636Y-90921513D01*
G37*
G04 #@! TD.AperFunction*
G04 #@! TA.AperFunction,SMDPad,CuDef*
G36*
X130475636Y-90921513D02*
G01*
X130483159Y-90922629D01*
X130490537Y-90924477D01*
X130497698Y-90927039D01*
X130504573Y-90930291D01*
X130511097Y-90934201D01*
X130517205Y-90938732D01*
X130522841Y-90943839D01*
X130527948Y-90949475D01*
X130532479Y-90955583D01*
X130536389Y-90962107D01*
X130539641Y-90968982D01*
X130542203Y-90976143D01*
X130544051Y-90983521D01*
X130545167Y-90991044D01*
X130545540Y-90998640D01*
X130545540Y-91183640D01*
X130545167Y-91191236D01*
X130544051Y-91198759D01*
X130542203Y-91206137D01*
X130539641Y-91213298D01*
X130536389Y-91220173D01*
X130532479Y-91226697D01*
X130527948Y-91232805D01*
X130522841Y-91238441D01*
X130517205Y-91243548D01*
X130511097Y-91248079D01*
X130504573Y-91251989D01*
X130497698Y-91255241D01*
X130490537Y-91257803D01*
X130483159Y-91259651D01*
X130475636Y-91260767D01*
X130468040Y-91261140D01*
X130313040Y-91261140D01*
X130305444Y-91260767D01*
X130297921Y-91259651D01*
X130290543Y-91257803D01*
X130283382Y-91255241D01*
X130276507Y-91251989D01*
X130269983Y-91248079D01*
X130263875Y-91243548D01*
X130258239Y-91238441D01*
X130253132Y-91232805D01*
X130248601Y-91226697D01*
X130244691Y-91220173D01*
X130241439Y-91213298D01*
X130238877Y-91206137D01*
X130237029Y-91198759D01*
X130235913Y-91191236D01*
X130235540Y-91183640D01*
X130235540Y-90998640D01*
X130235913Y-90991044D01*
X130237029Y-90983521D01*
X130238877Y-90976143D01*
X130241439Y-90968982D01*
X130244691Y-90962107D01*
X130248601Y-90955583D01*
X130253132Y-90949475D01*
X130258239Y-90943839D01*
X130263875Y-90938732D01*
X130269983Y-90934201D01*
X130276507Y-90930291D01*
X130283382Y-90927039D01*
X130290543Y-90924477D01*
X130297921Y-90922629D01*
X130305444Y-90921513D01*
X130313040Y-90921140D01*
X130468040Y-90921140D01*
X130475636Y-90921513D01*
G37*
G04 #@! TD.AperFunction*
D30*
X141077300Y-112032060D03*
X141077300Y-113302060D03*
X141077300Y-110762060D03*
X141077300Y-109492060D03*
G04 #@! TA.AperFunction,SMDPad,CuDef*
D13*
G36*
X135519416Y-92779753D02*
G01*
X135526939Y-92780869D01*
X135534317Y-92782717D01*
X135541478Y-92785279D01*
X135548353Y-92788531D01*
X135554877Y-92792441D01*
X135560985Y-92796972D01*
X135566621Y-92802079D01*
X135571728Y-92807715D01*
X135576259Y-92813823D01*
X135580169Y-92820347D01*
X135583421Y-92827222D01*
X135585983Y-92834383D01*
X135587831Y-92841761D01*
X135588947Y-92849284D01*
X135589320Y-92856880D01*
X135589320Y-93011880D01*
X135588947Y-93019476D01*
X135587831Y-93026999D01*
X135585983Y-93034377D01*
X135583421Y-93041538D01*
X135580169Y-93048413D01*
X135576259Y-93054937D01*
X135571728Y-93061045D01*
X135566621Y-93066681D01*
X135560985Y-93071788D01*
X135554877Y-93076319D01*
X135548353Y-93080229D01*
X135541478Y-93083481D01*
X135534317Y-93086043D01*
X135526939Y-93087891D01*
X135519416Y-93089007D01*
X135511820Y-93089380D01*
X135326820Y-93089380D01*
X135319224Y-93089007D01*
X135311701Y-93087891D01*
X135304323Y-93086043D01*
X135297162Y-93083481D01*
X135290287Y-93080229D01*
X135283763Y-93076319D01*
X135277655Y-93071788D01*
X135272019Y-93066681D01*
X135266912Y-93061045D01*
X135262381Y-93054937D01*
X135258471Y-93048413D01*
X135255219Y-93041538D01*
X135252657Y-93034377D01*
X135250809Y-93026999D01*
X135249693Y-93019476D01*
X135249320Y-93011880D01*
X135249320Y-92856880D01*
X135249693Y-92849284D01*
X135250809Y-92841761D01*
X135252657Y-92834383D01*
X135255219Y-92827222D01*
X135258471Y-92820347D01*
X135262381Y-92813823D01*
X135266912Y-92807715D01*
X135272019Y-92802079D01*
X135277655Y-92796972D01*
X135283763Y-92792441D01*
X135290287Y-92788531D01*
X135297162Y-92785279D01*
X135304323Y-92782717D01*
X135311701Y-92780869D01*
X135319224Y-92779753D01*
X135326820Y-92779380D01*
X135511820Y-92779380D01*
X135519416Y-92779753D01*
G37*
G04 #@! TD.AperFunction*
G04 #@! TA.AperFunction,SMDPad,CuDef*
G36*
X135519416Y-93329753D02*
G01*
X135526939Y-93330869D01*
X135534317Y-93332717D01*
X135541478Y-93335279D01*
X135548353Y-93338531D01*
X135554877Y-93342441D01*
X135560985Y-93346972D01*
X135566621Y-93352079D01*
X135571728Y-93357715D01*
X135576259Y-93363823D01*
X135580169Y-93370347D01*
X135583421Y-93377222D01*
X135585983Y-93384383D01*
X135587831Y-93391761D01*
X135588947Y-93399284D01*
X135589320Y-93406880D01*
X135589320Y-93561880D01*
X135588947Y-93569476D01*
X135587831Y-93576999D01*
X135585983Y-93584377D01*
X135583421Y-93591538D01*
X135580169Y-93598413D01*
X135576259Y-93604937D01*
X135571728Y-93611045D01*
X135566621Y-93616681D01*
X135560985Y-93621788D01*
X135554877Y-93626319D01*
X135548353Y-93630229D01*
X135541478Y-93633481D01*
X135534317Y-93636043D01*
X135526939Y-93637891D01*
X135519416Y-93639007D01*
X135511820Y-93639380D01*
X135326820Y-93639380D01*
X135319224Y-93639007D01*
X135311701Y-93637891D01*
X135304323Y-93636043D01*
X135297162Y-93633481D01*
X135290287Y-93630229D01*
X135283763Y-93626319D01*
X135277655Y-93621788D01*
X135272019Y-93616681D01*
X135266912Y-93611045D01*
X135262381Y-93604937D01*
X135258471Y-93598413D01*
X135255219Y-93591538D01*
X135252657Y-93584377D01*
X135250809Y-93576999D01*
X135249693Y-93569476D01*
X135249320Y-93561880D01*
X135249320Y-93406880D01*
X135249693Y-93399284D01*
X135250809Y-93391761D01*
X135252657Y-93384383D01*
X135255219Y-93377222D01*
X135258471Y-93370347D01*
X135262381Y-93363823D01*
X135266912Y-93357715D01*
X135272019Y-93352079D01*
X135277655Y-93346972D01*
X135283763Y-93342441D01*
X135290287Y-93338531D01*
X135297162Y-93335279D01*
X135304323Y-93332717D01*
X135311701Y-93330869D01*
X135319224Y-93329753D01*
X135326820Y-93329380D01*
X135511820Y-93329380D01*
X135519416Y-93329753D01*
G37*
G04 #@! TD.AperFunction*
G04 #@! TA.AperFunction,SMDPad,CuDef*
G36*
X137532016Y-93268353D02*
G01*
X137539539Y-93269469D01*
X137546917Y-93271317D01*
X137554078Y-93273879D01*
X137560953Y-93277131D01*
X137567477Y-93281041D01*
X137573585Y-93285572D01*
X137579221Y-93290679D01*
X137584328Y-93296315D01*
X137588859Y-93302423D01*
X137592769Y-93308947D01*
X137596021Y-93315822D01*
X137598583Y-93322983D01*
X137600431Y-93330361D01*
X137601547Y-93337884D01*
X137601920Y-93345480D01*
X137601920Y-93530480D01*
X137601547Y-93538076D01*
X137600431Y-93545599D01*
X137598583Y-93552977D01*
X137596021Y-93560138D01*
X137592769Y-93567013D01*
X137588859Y-93573537D01*
X137584328Y-93579645D01*
X137579221Y-93585281D01*
X137573585Y-93590388D01*
X137567477Y-93594919D01*
X137560953Y-93598829D01*
X137554078Y-93602081D01*
X137546917Y-93604643D01*
X137539539Y-93606491D01*
X137532016Y-93607607D01*
X137524420Y-93607980D01*
X137369420Y-93607980D01*
X137361824Y-93607607D01*
X137354301Y-93606491D01*
X137346923Y-93604643D01*
X137339762Y-93602081D01*
X137332887Y-93598829D01*
X137326363Y-93594919D01*
X137320255Y-93590388D01*
X137314619Y-93585281D01*
X137309512Y-93579645D01*
X137304981Y-93573537D01*
X137301071Y-93567013D01*
X137297819Y-93560138D01*
X137295257Y-93552977D01*
X137293409Y-93545599D01*
X137292293Y-93538076D01*
X137291920Y-93530480D01*
X137291920Y-93345480D01*
X137292293Y-93337884D01*
X137293409Y-93330361D01*
X137295257Y-93322983D01*
X137297819Y-93315822D01*
X137301071Y-93308947D01*
X137304981Y-93302423D01*
X137309512Y-93296315D01*
X137314619Y-93290679D01*
X137320255Y-93285572D01*
X137326363Y-93281041D01*
X137332887Y-93277131D01*
X137339762Y-93273879D01*
X137346923Y-93271317D01*
X137354301Y-93269469D01*
X137361824Y-93268353D01*
X137369420Y-93267980D01*
X137524420Y-93267980D01*
X137532016Y-93268353D01*
G37*
G04 #@! TD.AperFunction*
G04 #@! TA.AperFunction,SMDPad,CuDef*
G36*
X136982016Y-93268353D02*
G01*
X136989539Y-93269469D01*
X136996917Y-93271317D01*
X137004078Y-93273879D01*
X137010953Y-93277131D01*
X137017477Y-93281041D01*
X137023585Y-93285572D01*
X137029221Y-93290679D01*
X137034328Y-93296315D01*
X137038859Y-93302423D01*
X137042769Y-93308947D01*
X137046021Y-93315822D01*
X137048583Y-93322983D01*
X137050431Y-93330361D01*
X137051547Y-93337884D01*
X137051920Y-93345480D01*
X137051920Y-93530480D01*
X137051547Y-93538076D01*
X137050431Y-93545599D01*
X137048583Y-93552977D01*
X137046021Y-93560138D01*
X137042769Y-93567013D01*
X137038859Y-93573537D01*
X137034328Y-93579645D01*
X137029221Y-93585281D01*
X137023585Y-93590388D01*
X137017477Y-93594919D01*
X137010953Y-93598829D01*
X137004078Y-93602081D01*
X136996917Y-93604643D01*
X136989539Y-93606491D01*
X136982016Y-93607607D01*
X136974420Y-93607980D01*
X136819420Y-93607980D01*
X136811824Y-93607607D01*
X136804301Y-93606491D01*
X136796923Y-93604643D01*
X136789762Y-93602081D01*
X136782887Y-93598829D01*
X136776363Y-93594919D01*
X136770255Y-93590388D01*
X136764619Y-93585281D01*
X136759512Y-93579645D01*
X136754981Y-93573537D01*
X136751071Y-93567013D01*
X136747819Y-93560138D01*
X136745257Y-93552977D01*
X136743409Y-93545599D01*
X136742293Y-93538076D01*
X136741920Y-93530480D01*
X136741920Y-93345480D01*
X136742293Y-93337884D01*
X136743409Y-93330361D01*
X136745257Y-93322983D01*
X136747819Y-93315822D01*
X136751071Y-93308947D01*
X136754981Y-93302423D01*
X136759512Y-93296315D01*
X136764619Y-93290679D01*
X136770255Y-93285572D01*
X136776363Y-93281041D01*
X136782887Y-93277131D01*
X136789762Y-93273879D01*
X136796923Y-93271317D01*
X136804301Y-93269469D01*
X136811824Y-93268353D01*
X136819420Y-93267980D01*
X136974420Y-93267980D01*
X136982016Y-93268353D01*
G37*
G04 #@! TD.AperFunction*
G04 #@! TA.AperFunction,SMDPad,CuDef*
G36*
X134478016Y-88233153D02*
G01*
X134485539Y-88234269D01*
X134492917Y-88236117D01*
X134500078Y-88238679D01*
X134506953Y-88241931D01*
X134513477Y-88245841D01*
X134519585Y-88250372D01*
X134525221Y-88255479D01*
X134530328Y-88261115D01*
X134534859Y-88267223D01*
X134538769Y-88273747D01*
X134542021Y-88280622D01*
X134544583Y-88287783D01*
X134546431Y-88295161D01*
X134547547Y-88302684D01*
X134547920Y-88310280D01*
X134547920Y-88465280D01*
X134547547Y-88472876D01*
X134546431Y-88480399D01*
X134544583Y-88487777D01*
X134542021Y-88494938D01*
X134538769Y-88501813D01*
X134534859Y-88508337D01*
X134530328Y-88514445D01*
X134525221Y-88520081D01*
X134519585Y-88525188D01*
X134513477Y-88529719D01*
X134506953Y-88533629D01*
X134500078Y-88536881D01*
X134492917Y-88539443D01*
X134485539Y-88541291D01*
X134478016Y-88542407D01*
X134470420Y-88542780D01*
X134285420Y-88542780D01*
X134277824Y-88542407D01*
X134270301Y-88541291D01*
X134262923Y-88539443D01*
X134255762Y-88536881D01*
X134248887Y-88533629D01*
X134242363Y-88529719D01*
X134236255Y-88525188D01*
X134230619Y-88520081D01*
X134225512Y-88514445D01*
X134220981Y-88508337D01*
X134217071Y-88501813D01*
X134213819Y-88494938D01*
X134211257Y-88487777D01*
X134209409Y-88480399D01*
X134208293Y-88472876D01*
X134207920Y-88465280D01*
X134207920Y-88310280D01*
X134208293Y-88302684D01*
X134209409Y-88295161D01*
X134211257Y-88287783D01*
X134213819Y-88280622D01*
X134217071Y-88273747D01*
X134220981Y-88267223D01*
X134225512Y-88261115D01*
X134230619Y-88255479D01*
X134236255Y-88250372D01*
X134242363Y-88245841D01*
X134248887Y-88241931D01*
X134255762Y-88238679D01*
X134262923Y-88236117D01*
X134270301Y-88234269D01*
X134277824Y-88233153D01*
X134285420Y-88232780D01*
X134470420Y-88232780D01*
X134478016Y-88233153D01*
G37*
G04 #@! TD.AperFunction*
G04 #@! TA.AperFunction,SMDPad,CuDef*
G36*
X134478016Y-88783153D02*
G01*
X134485539Y-88784269D01*
X134492917Y-88786117D01*
X134500078Y-88788679D01*
X134506953Y-88791931D01*
X134513477Y-88795841D01*
X134519585Y-88800372D01*
X134525221Y-88805479D01*
X134530328Y-88811115D01*
X134534859Y-88817223D01*
X134538769Y-88823747D01*
X134542021Y-88830622D01*
X134544583Y-88837783D01*
X134546431Y-88845161D01*
X134547547Y-88852684D01*
X134547920Y-88860280D01*
X134547920Y-89015280D01*
X134547547Y-89022876D01*
X134546431Y-89030399D01*
X134544583Y-89037777D01*
X134542021Y-89044938D01*
X134538769Y-89051813D01*
X134534859Y-89058337D01*
X134530328Y-89064445D01*
X134525221Y-89070081D01*
X134519585Y-89075188D01*
X134513477Y-89079719D01*
X134506953Y-89083629D01*
X134500078Y-89086881D01*
X134492917Y-89089443D01*
X134485539Y-89091291D01*
X134478016Y-89092407D01*
X134470420Y-89092780D01*
X134285420Y-89092780D01*
X134277824Y-89092407D01*
X134270301Y-89091291D01*
X134262923Y-89089443D01*
X134255762Y-89086881D01*
X134248887Y-89083629D01*
X134242363Y-89079719D01*
X134236255Y-89075188D01*
X134230619Y-89070081D01*
X134225512Y-89064445D01*
X134220981Y-89058337D01*
X134217071Y-89051813D01*
X134213819Y-89044938D01*
X134211257Y-89037777D01*
X134209409Y-89030399D01*
X134208293Y-89022876D01*
X134207920Y-89015280D01*
X134207920Y-88860280D01*
X134208293Y-88852684D01*
X134209409Y-88845161D01*
X134211257Y-88837783D01*
X134213819Y-88830622D01*
X134217071Y-88823747D01*
X134220981Y-88817223D01*
X134225512Y-88811115D01*
X134230619Y-88805479D01*
X134236255Y-88800372D01*
X134242363Y-88795841D01*
X134248887Y-88791931D01*
X134255762Y-88788679D01*
X134262923Y-88786117D01*
X134270301Y-88784269D01*
X134277824Y-88783153D01*
X134285420Y-88782780D01*
X134470420Y-88782780D01*
X134478016Y-88783153D01*
G37*
G04 #@! TD.AperFunction*
G04 #@! TA.AperFunction,SMDPad,CuDef*
G36*
X137049416Y-89280553D02*
G01*
X137056939Y-89281669D01*
X137064317Y-89283517D01*
X137071478Y-89286079D01*
X137078353Y-89289331D01*
X137084877Y-89293241D01*
X137090985Y-89297772D01*
X137096621Y-89302879D01*
X137101728Y-89308515D01*
X137106259Y-89314623D01*
X137110169Y-89321147D01*
X137113421Y-89328022D01*
X137115983Y-89335183D01*
X137117831Y-89342561D01*
X137118947Y-89350084D01*
X137119320Y-89357680D01*
X137119320Y-89542680D01*
X137118947Y-89550276D01*
X137117831Y-89557799D01*
X137115983Y-89565177D01*
X137113421Y-89572338D01*
X137110169Y-89579213D01*
X137106259Y-89585737D01*
X137101728Y-89591845D01*
X137096621Y-89597481D01*
X137090985Y-89602588D01*
X137084877Y-89607119D01*
X137078353Y-89611029D01*
X137071478Y-89614281D01*
X137064317Y-89616843D01*
X137056939Y-89618691D01*
X137049416Y-89619807D01*
X137041820Y-89620180D01*
X136886820Y-89620180D01*
X136879224Y-89619807D01*
X136871701Y-89618691D01*
X136864323Y-89616843D01*
X136857162Y-89614281D01*
X136850287Y-89611029D01*
X136843763Y-89607119D01*
X136837655Y-89602588D01*
X136832019Y-89597481D01*
X136826912Y-89591845D01*
X136822381Y-89585737D01*
X136818471Y-89579213D01*
X136815219Y-89572338D01*
X136812657Y-89565177D01*
X136810809Y-89557799D01*
X136809693Y-89550276D01*
X136809320Y-89542680D01*
X136809320Y-89357680D01*
X136809693Y-89350084D01*
X136810809Y-89342561D01*
X136812657Y-89335183D01*
X136815219Y-89328022D01*
X136818471Y-89321147D01*
X136822381Y-89314623D01*
X136826912Y-89308515D01*
X136832019Y-89302879D01*
X136837655Y-89297772D01*
X136843763Y-89293241D01*
X136850287Y-89289331D01*
X136857162Y-89286079D01*
X136864323Y-89283517D01*
X136871701Y-89281669D01*
X136879224Y-89280553D01*
X136886820Y-89280180D01*
X137041820Y-89280180D01*
X137049416Y-89280553D01*
G37*
G04 #@! TD.AperFunction*
G04 #@! TA.AperFunction,SMDPad,CuDef*
G36*
X136499416Y-89280553D02*
G01*
X136506939Y-89281669D01*
X136514317Y-89283517D01*
X136521478Y-89286079D01*
X136528353Y-89289331D01*
X136534877Y-89293241D01*
X136540985Y-89297772D01*
X136546621Y-89302879D01*
X136551728Y-89308515D01*
X136556259Y-89314623D01*
X136560169Y-89321147D01*
X136563421Y-89328022D01*
X136565983Y-89335183D01*
X136567831Y-89342561D01*
X136568947Y-89350084D01*
X136569320Y-89357680D01*
X136569320Y-89542680D01*
X136568947Y-89550276D01*
X136567831Y-89557799D01*
X136565983Y-89565177D01*
X136563421Y-89572338D01*
X136560169Y-89579213D01*
X136556259Y-89585737D01*
X136551728Y-89591845D01*
X136546621Y-89597481D01*
X136540985Y-89602588D01*
X136534877Y-89607119D01*
X136528353Y-89611029D01*
X136521478Y-89614281D01*
X136514317Y-89616843D01*
X136506939Y-89618691D01*
X136499416Y-89619807D01*
X136491820Y-89620180D01*
X136336820Y-89620180D01*
X136329224Y-89619807D01*
X136321701Y-89618691D01*
X136314323Y-89616843D01*
X136307162Y-89614281D01*
X136300287Y-89611029D01*
X136293763Y-89607119D01*
X136287655Y-89602588D01*
X136282019Y-89597481D01*
X136276912Y-89591845D01*
X136272381Y-89585737D01*
X136268471Y-89579213D01*
X136265219Y-89572338D01*
X136262657Y-89565177D01*
X136260809Y-89557799D01*
X136259693Y-89550276D01*
X136259320Y-89542680D01*
X136259320Y-89357680D01*
X136259693Y-89350084D01*
X136260809Y-89342561D01*
X136262657Y-89335183D01*
X136265219Y-89328022D01*
X136268471Y-89321147D01*
X136272381Y-89314623D01*
X136276912Y-89308515D01*
X136282019Y-89302879D01*
X136287655Y-89297772D01*
X136293763Y-89293241D01*
X136300287Y-89289331D01*
X136307162Y-89286079D01*
X136314323Y-89283517D01*
X136321701Y-89281669D01*
X136329224Y-89280553D01*
X136336820Y-89280180D01*
X136491820Y-89280180D01*
X136499416Y-89280553D01*
G37*
G04 #@! TD.AperFunction*
G04 #@! TA.AperFunction,SMDPad,CuDef*
G36*
X138548016Y-93293753D02*
G01*
X138555539Y-93294869D01*
X138562917Y-93296717D01*
X138570078Y-93299279D01*
X138576953Y-93302531D01*
X138583477Y-93306441D01*
X138589585Y-93310972D01*
X138595221Y-93316079D01*
X138600328Y-93321715D01*
X138604859Y-93327823D01*
X138608769Y-93334347D01*
X138612021Y-93341222D01*
X138614583Y-93348383D01*
X138616431Y-93355761D01*
X138617547Y-93363284D01*
X138617920Y-93370880D01*
X138617920Y-93555880D01*
X138617547Y-93563476D01*
X138616431Y-93570999D01*
X138614583Y-93578377D01*
X138612021Y-93585538D01*
X138608769Y-93592413D01*
X138604859Y-93598937D01*
X138600328Y-93605045D01*
X138595221Y-93610681D01*
X138589585Y-93615788D01*
X138583477Y-93620319D01*
X138576953Y-93624229D01*
X138570078Y-93627481D01*
X138562917Y-93630043D01*
X138555539Y-93631891D01*
X138548016Y-93633007D01*
X138540420Y-93633380D01*
X138385420Y-93633380D01*
X138377824Y-93633007D01*
X138370301Y-93631891D01*
X138362923Y-93630043D01*
X138355762Y-93627481D01*
X138348887Y-93624229D01*
X138342363Y-93620319D01*
X138336255Y-93615788D01*
X138330619Y-93610681D01*
X138325512Y-93605045D01*
X138320981Y-93598937D01*
X138317071Y-93592413D01*
X138313819Y-93585538D01*
X138311257Y-93578377D01*
X138309409Y-93570999D01*
X138308293Y-93563476D01*
X138307920Y-93555880D01*
X138307920Y-93370880D01*
X138308293Y-93363284D01*
X138309409Y-93355761D01*
X138311257Y-93348383D01*
X138313819Y-93341222D01*
X138317071Y-93334347D01*
X138320981Y-93327823D01*
X138325512Y-93321715D01*
X138330619Y-93316079D01*
X138336255Y-93310972D01*
X138342363Y-93306441D01*
X138348887Y-93302531D01*
X138355762Y-93299279D01*
X138362923Y-93296717D01*
X138370301Y-93294869D01*
X138377824Y-93293753D01*
X138385420Y-93293380D01*
X138540420Y-93293380D01*
X138548016Y-93293753D01*
G37*
G04 #@! TD.AperFunction*
G04 #@! TA.AperFunction,SMDPad,CuDef*
G36*
X137998016Y-93293753D02*
G01*
X138005539Y-93294869D01*
X138012917Y-93296717D01*
X138020078Y-93299279D01*
X138026953Y-93302531D01*
X138033477Y-93306441D01*
X138039585Y-93310972D01*
X138045221Y-93316079D01*
X138050328Y-93321715D01*
X138054859Y-93327823D01*
X138058769Y-93334347D01*
X138062021Y-93341222D01*
X138064583Y-93348383D01*
X138066431Y-93355761D01*
X138067547Y-93363284D01*
X138067920Y-93370880D01*
X138067920Y-93555880D01*
X138067547Y-93563476D01*
X138066431Y-93570999D01*
X138064583Y-93578377D01*
X138062021Y-93585538D01*
X138058769Y-93592413D01*
X138054859Y-93598937D01*
X138050328Y-93605045D01*
X138045221Y-93610681D01*
X138039585Y-93615788D01*
X138033477Y-93620319D01*
X138026953Y-93624229D01*
X138020078Y-93627481D01*
X138012917Y-93630043D01*
X138005539Y-93631891D01*
X137998016Y-93633007D01*
X137990420Y-93633380D01*
X137835420Y-93633380D01*
X137827824Y-93633007D01*
X137820301Y-93631891D01*
X137812923Y-93630043D01*
X137805762Y-93627481D01*
X137798887Y-93624229D01*
X137792363Y-93620319D01*
X137786255Y-93615788D01*
X137780619Y-93610681D01*
X137775512Y-93605045D01*
X137770981Y-93598937D01*
X137767071Y-93592413D01*
X137763819Y-93585538D01*
X137761257Y-93578377D01*
X137759409Y-93570999D01*
X137758293Y-93563476D01*
X137757920Y-93555880D01*
X137757920Y-93370880D01*
X137758293Y-93363284D01*
X137759409Y-93355761D01*
X137761257Y-93348383D01*
X137763819Y-93341222D01*
X137767071Y-93334347D01*
X137770981Y-93327823D01*
X137775512Y-93321715D01*
X137780619Y-93316079D01*
X137786255Y-93310972D01*
X137792363Y-93306441D01*
X137798887Y-93302531D01*
X137805762Y-93299279D01*
X137812923Y-93296717D01*
X137820301Y-93294869D01*
X137827824Y-93293753D01*
X137835420Y-93293380D01*
X137990420Y-93293380D01*
X137998016Y-93293753D01*
G37*
G04 #@! TD.AperFunction*
G04 #@! TA.AperFunction,SMDPad,CuDef*
G36*
X140157016Y-89280553D02*
G01*
X140164539Y-89281669D01*
X140171917Y-89283517D01*
X140179078Y-89286079D01*
X140185953Y-89289331D01*
X140192477Y-89293241D01*
X140198585Y-89297772D01*
X140204221Y-89302879D01*
X140209328Y-89308515D01*
X140213859Y-89314623D01*
X140217769Y-89321147D01*
X140221021Y-89328022D01*
X140223583Y-89335183D01*
X140225431Y-89342561D01*
X140226547Y-89350084D01*
X140226920Y-89357680D01*
X140226920Y-89542680D01*
X140226547Y-89550276D01*
X140225431Y-89557799D01*
X140223583Y-89565177D01*
X140221021Y-89572338D01*
X140217769Y-89579213D01*
X140213859Y-89585737D01*
X140209328Y-89591845D01*
X140204221Y-89597481D01*
X140198585Y-89602588D01*
X140192477Y-89607119D01*
X140185953Y-89611029D01*
X140179078Y-89614281D01*
X140171917Y-89616843D01*
X140164539Y-89618691D01*
X140157016Y-89619807D01*
X140149420Y-89620180D01*
X139994420Y-89620180D01*
X139986824Y-89619807D01*
X139979301Y-89618691D01*
X139971923Y-89616843D01*
X139964762Y-89614281D01*
X139957887Y-89611029D01*
X139951363Y-89607119D01*
X139945255Y-89602588D01*
X139939619Y-89597481D01*
X139934512Y-89591845D01*
X139929981Y-89585737D01*
X139926071Y-89579213D01*
X139922819Y-89572338D01*
X139920257Y-89565177D01*
X139918409Y-89557799D01*
X139917293Y-89550276D01*
X139916920Y-89542680D01*
X139916920Y-89357680D01*
X139917293Y-89350084D01*
X139918409Y-89342561D01*
X139920257Y-89335183D01*
X139922819Y-89328022D01*
X139926071Y-89321147D01*
X139929981Y-89314623D01*
X139934512Y-89308515D01*
X139939619Y-89302879D01*
X139945255Y-89297772D01*
X139951363Y-89293241D01*
X139957887Y-89289331D01*
X139964762Y-89286079D01*
X139971923Y-89283517D01*
X139979301Y-89281669D01*
X139986824Y-89280553D01*
X139994420Y-89280180D01*
X140149420Y-89280180D01*
X140157016Y-89280553D01*
G37*
G04 #@! TD.AperFunction*
G04 #@! TA.AperFunction,SMDPad,CuDef*
G36*
X140707016Y-89280553D02*
G01*
X140714539Y-89281669D01*
X140721917Y-89283517D01*
X140729078Y-89286079D01*
X140735953Y-89289331D01*
X140742477Y-89293241D01*
X140748585Y-89297772D01*
X140754221Y-89302879D01*
X140759328Y-89308515D01*
X140763859Y-89314623D01*
X140767769Y-89321147D01*
X140771021Y-89328022D01*
X140773583Y-89335183D01*
X140775431Y-89342561D01*
X140776547Y-89350084D01*
X140776920Y-89357680D01*
X140776920Y-89542680D01*
X140776547Y-89550276D01*
X140775431Y-89557799D01*
X140773583Y-89565177D01*
X140771021Y-89572338D01*
X140767769Y-89579213D01*
X140763859Y-89585737D01*
X140759328Y-89591845D01*
X140754221Y-89597481D01*
X140748585Y-89602588D01*
X140742477Y-89607119D01*
X140735953Y-89611029D01*
X140729078Y-89614281D01*
X140721917Y-89616843D01*
X140714539Y-89618691D01*
X140707016Y-89619807D01*
X140699420Y-89620180D01*
X140544420Y-89620180D01*
X140536824Y-89619807D01*
X140529301Y-89618691D01*
X140521923Y-89616843D01*
X140514762Y-89614281D01*
X140507887Y-89611029D01*
X140501363Y-89607119D01*
X140495255Y-89602588D01*
X140489619Y-89597481D01*
X140484512Y-89591845D01*
X140479981Y-89585737D01*
X140476071Y-89579213D01*
X140472819Y-89572338D01*
X140470257Y-89565177D01*
X140468409Y-89557799D01*
X140467293Y-89550276D01*
X140466920Y-89542680D01*
X140466920Y-89357680D01*
X140467293Y-89350084D01*
X140468409Y-89342561D01*
X140470257Y-89335183D01*
X140472819Y-89328022D01*
X140476071Y-89321147D01*
X140479981Y-89314623D01*
X140484512Y-89308515D01*
X140489619Y-89302879D01*
X140495255Y-89297772D01*
X140501363Y-89293241D01*
X140507887Y-89289331D01*
X140514762Y-89286079D01*
X140521923Y-89283517D01*
X140529301Y-89281669D01*
X140536824Y-89280553D01*
X140544420Y-89280180D01*
X140699420Y-89280180D01*
X140707016Y-89280553D01*
G37*
G04 #@! TD.AperFunction*
G04 #@! TA.AperFunction,SMDPad,CuDef*
G36*
X137972616Y-89280553D02*
G01*
X137980139Y-89281669D01*
X137987517Y-89283517D01*
X137994678Y-89286079D01*
X138001553Y-89289331D01*
X138008077Y-89293241D01*
X138014185Y-89297772D01*
X138019821Y-89302879D01*
X138024928Y-89308515D01*
X138029459Y-89314623D01*
X138033369Y-89321147D01*
X138036621Y-89328022D01*
X138039183Y-89335183D01*
X138041031Y-89342561D01*
X138042147Y-89350084D01*
X138042520Y-89357680D01*
X138042520Y-89542680D01*
X138042147Y-89550276D01*
X138041031Y-89557799D01*
X138039183Y-89565177D01*
X138036621Y-89572338D01*
X138033369Y-89579213D01*
X138029459Y-89585737D01*
X138024928Y-89591845D01*
X138019821Y-89597481D01*
X138014185Y-89602588D01*
X138008077Y-89607119D01*
X138001553Y-89611029D01*
X137994678Y-89614281D01*
X137987517Y-89616843D01*
X137980139Y-89618691D01*
X137972616Y-89619807D01*
X137965020Y-89620180D01*
X137810020Y-89620180D01*
X137802424Y-89619807D01*
X137794901Y-89618691D01*
X137787523Y-89616843D01*
X137780362Y-89614281D01*
X137773487Y-89611029D01*
X137766963Y-89607119D01*
X137760855Y-89602588D01*
X137755219Y-89597481D01*
X137750112Y-89591845D01*
X137745581Y-89585737D01*
X137741671Y-89579213D01*
X137738419Y-89572338D01*
X137735857Y-89565177D01*
X137734009Y-89557799D01*
X137732893Y-89550276D01*
X137732520Y-89542680D01*
X137732520Y-89357680D01*
X137732893Y-89350084D01*
X137734009Y-89342561D01*
X137735857Y-89335183D01*
X137738419Y-89328022D01*
X137741671Y-89321147D01*
X137745581Y-89314623D01*
X137750112Y-89308515D01*
X137755219Y-89302879D01*
X137760855Y-89297772D01*
X137766963Y-89293241D01*
X137773487Y-89289331D01*
X137780362Y-89286079D01*
X137787523Y-89283517D01*
X137794901Y-89281669D01*
X137802424Y-89280553D01*
X137810020Y-89280180D01*
X137965020Y-89280180D01*
X137972616Y-89280553D01*
G37*
G04 #@! TD.AperFunction*
G04 #@! TA.AperFunction,SMDPad,CuDef*
G36*
X138522616Y-89280553D02*
G01*
X138530139Y-89281669D01*
X138537517Y-89283517D01*
X138544678Y-89286079D01*
X138551553Y-89289331D01*
X138558077Y-89293241D01*
X138564185Y-89297772D01*
X138569821Y-89302879D01*
X138574928Y-89308515D01*
X138579459Y-89314623D01*
X138583369Y-89321147D01*
X138586621Y-89328022D01*
X138589183Y-89335183D01*
X138591031Y-89342561D01*
X138592147Y-89350084D01*
X138592520Y-89357680D01*
X138592520Y-89542680D01*
X138592147Y-89550276D01*
X138591031Y-89557799D01*
X138589183Y-89565177D01*
X138586621Y-89572338D01*
X138583369Y-89579213D01*
X138579459Y-89585737D01*
X138574928Y-89591845D01*
X138569821Y-89597481D01*
X138564185Y-89602588D01*
X138558077Y-89607119D01*
X138551553Y-89611029D01*
X138544678Y-89614281D01*
X138537517Y-89616843D01*
X138530139Y-89618691D01*
X138522616Y-89619807D01*
X138515020Y-89620180D01*
X138360020Y-89620180D01*
X138352424Y-89619807D01*
X138344901Y-89618691D01*
X138337523Y-89616843D01*
X138330362Y-89614281D01*
X138323487Y-89611029D01*
X138316963Y-89607119D01*
X138310855Y-89602588D01*
X138305219Y-89597481D01*
X138300112Y-89591845D01*
X138295581Y-89585737D01*
X138291671Y-89579213D01*
X138288419Y-89572338D01*
X138285857Y-89565177D01*
X138284009Y-89557799D01*
X138282893Y-89550276D01*
X138282520Y-89542680D01*
X138282520Y-89357680D01*
X138282893Y-89350084D01*
X138284009Y-89342561D01*
X138285857Y-89335183D01*
X138288419Y-89328022D01*
X138291671Y-89321147D01*
X138295581Y-89314623D01*
X138300112Y-89308515D01*
X138305219Y-89302879D01*
X138310855Y-89297772D01*
X138316963Y-89293241D01*
X138323487Y-89289331D01*
X138330362Y-89286079D01*
X138337523Y-89283517D01*
X138344901Y-89281669D01*
X138352424Y-89280553D01*
X138360020Y-89280180D01*
X138515020Y-89280180D01*
X138522616Y-89280553D01*
G37*
G04 #@! TD.AperFunction*
G04 #@! TA.AperFunction,SMDPad,CuDef*
G36*
X139064816Y-89280553D02*
G01*
X139072339Y-89281669D01*
X139079717Y-89283517D01*
X139086878Y-89286079D01*
X139093753Y-89289331D01*
X139100277Y-89293241D01*
X139106385Y-89297772D01*
X139112021Y-89302879D01*
X139117128Y-89308515D01*
X139121659Y-89314623D01*
X139125569Y-89321147D01*
X139128821Y-89328022D01*
X139131383Y-89335183D01*
X139133231Y-89342561D01*
X139134347Y-89350084D01*
X139134720Y-89357680D01*
X139134720Y-89542680D01*
X139134347Y-89550276D01*
X139133231Y-89557799D01*
X139131383Y-89565177D01*
X139128821Y-89572338D01*
X139125569Y-89579213D01*
X139121659Y-89585737D01*
X139117128Y-89591845D01*
X139112021Y-89597481D01*
X139106385Y-89602588D01*
X139100277Y-89607119D01*
X139093753Y-89611029D01*
X139086878Y-89614281D01*
X139079717Y-89616843D01*
X139072339Y-89618691D01*
X139064816Y-89619807D01*
X139057220Y-89620180D01*
X138902220Y-89620180D01*
X138894624Y-89619807D01*
X138887101Y-89618691D01*
X138879723Y-89616843D01*
X138872562Y-89614281D01*
X138865687Y-89611029D01*
X138859163Y-89607119D01*
X138853055Y-89602588D01*
X138847419Y-89597481D01*
X138842312Y-89591845D01*
X138837781Y-89585737D01*
X138833871Y-89579213D01*
X138830619Y-89572338D01*
X138828057Y-89565177D01*
X138826209Y-89557799D01*
X138825093Y-89550276D01*
X138824720Y-89542680D01*
X138824720Y-89357680D01*
X138825093Y-89350084D01*
X138826209Y-89342561D01*
X138828057Y-89335183D01*
X138830619Y-89328022D01*
X138833871Y-89321147D01*
X138837781Y-89314623D01*
X138842312Y-89308515D01*
X138847419Y-89302879D01*
X138853055Y-89297772D01*
X138859163Y-89293241D01*
X138865687Y-89289331D01*
X138872562Y-89286079D01*
X138879723Y-89283517D01*
X138887101Y-89281669D01*
X138894624Y-89280553D01*
X138902220Y-89280180D01*
X139057220Y-89280180D01*
X139064816Y-89280553D01*
G37*
G04 #@! TD.AperFunction*
G04 #@! TA.AperFunction,SMDPad,CuDef*
G36*
X139614816Y-89280553D02*
G01*
X139622339Y-89281669D01*
X139629717Y-89283517D01*
X139636878Y-89286079D01*
X139643753Y-89289331D01*
X139650277Y-89293241D01*
X139656385Y-89297772D01*
X139662021Y-89302879D01*
X139667128Y-89308515D01*
X139671659Y-89314623D01*
X139675569Y-89321147D01*
X139678821Y-89328022D01*
X139681383Y-89335183D01*
X139683231Y-89342561D01*
X139684347Y-89350084D01*
X139684720Y-89357680D01*
X139684720Y-89542680D01*
X139684347Y-89550276D01*
X139683231Y-89557799D01*
X139681383Y-89565177D01*
X139678821Y-89572338D01*
X139675569Y-89579213D01*
X139671659Y-89585737D01*
X139667128Y-89591845D01*
X139662021Y-89597481D01*
X139656385Y-89602588D01*
X139650277Y-89607119D01*
X139643753Y-89611029D01*
X139636878Y-89614281D01*
X139629717Y-89616843D01*
X139622339Y-89618691D01*
X139614816Y-89619807D01*
X139607220Y-89620180D01*
X139452220Y-89620180D01*
X139444624Y-89619807D01*
X139437101Y-89618691D01*
X139429723Y-89616843D01*
X139422562Y-89614281D01*
X139415687Y-89611029D01*
X139409163Y-89607119D01*
X139403055Y-89602588D01*
X139397419Y-89597481D01*
X139392312Y-89591845D01*
X139387781Y-89585737D01*
X139383871Y-89579213D01*
X139380619Y-89572338D01*
X139378057Y-89565177D01*
X139376209Y-89557799D01*
X139375093Y-89550276D01*
X139374720Y-89542680D01*
X139374720Y-89357680D01*
X139375093Y-89350084D01*
X139376209Y-89342561D01*
X139378057Y-89335183D01*
X139380619Y-89328022D01*
X139383871Y-89321147D01*
X139387781Y-89314623D01*
X139392312Y-89308515D01*
X139397419Y-89302879D01*
X139403055Y-89297772D01*
X139409163Y-89293241D01*
X139415687Y-89289331D01*
X139422562Y-89286079D01*
X139429723Y-89283517D01*
X139437101Y-89281669D01*
X139444624Y-89280553D01*
X139452220Y-89280180D01*
X139607220Y-89280180D01*
X139614816Y-89280553D01*
G37*
G04 #@! TD.AperFunction*
G04 #@! TA.AperFunction,SMDPad,CuDef*
G36*
X135011416Y-92779753D02*
G01*
X135018939Y-92780869D01*
X135026317Y-92782717D01*
X135033478Y-92785279D01*
X135040353Y-92788531D01*
X135046877Y-92792441D01*
X135052985Y-92796972D01*
X135058621Y-92802079D01*
X135063728Y-92807715D01*
X135068259Y-92813823D01*
X135072169Y-92820347D01*
X135075421Y-92827222D01*
X135077983Y-92834383D01*
X135079831Y-92841761D01*
X135080947Y-92849284D01*
X135081320Y-92856880D01*
X135081320Y-93011880D01*
X135080947Y-93019476D01*
X135079831Y-93026999D01*
X135077983Y-93034377D01*
X135075421Y-93041538D01*
X135072169Y-93048413D01*
X135068259Y-93054937D01*
X135063728Y-93061045D01*
X135058621Y-93066681D01*
X135052985Y-93071788D01*
X135046877Y-93076319D01*
X135040353Y-93080229D01*
X135033478Y-93083481D01*
X135026317Y-93086043D01*
X135018939Y-93087891D01*
X135011416Y-93089007D01*
X135003820Y-93089380D01*
X134818820Y-93089380D01*
X134811224Y-93089007D01*
X134803701Y-93087891D01*
X134796323Y-93086043D01*
X134789162Y-93083481D01*
X134782287Y-93080229D01*
X134775763Y-93076319D01*
X134769655Y-93071788D01*
X134764019Y-93066681D01*
X134758912Y-93061045D01*
X134754381Y-93054937D01*
X134750471Y-93048413D01*
X134747219Y-93041538D01*
X134744657Y-93034377D01*
X134742809Y-93026999D01*
X134741693Y-93019476D01*
X134741320Y-93011880D01*
X134741320Y-92856880D01*
X134741693Y-92849284D01*
X134742809Y-92841761D01*
X134744657Y-92834383D01*
X134747219Y-92827222D01*
X134750471Y-92820347D01*
X134754381Y-92813823D01*
X134758912Y-92807715D01*
X134764019Y-92802079D01*
X134769655Y-92796972D01*
X134775763Y-92792441D01*
X134782287Y-92788531D01*
X134789162Y-92785279D01*
X134796323Y-92782717D01*
X134803701Y-92780869D01*
X134811224Y-92779753D01*
X134818820Y-92779380D01*
X135003820Y-92779380D01*
X135011416Y-92779753D01*
G37*
G04 #@! TD.AperFunction*
G04 #@! TA.AperFunction,SMDPad,CuDef*
G36*
X135011416Y-93329753D02*
G01*
X135018939Y-93330869D01*
X135026317Y-93332717D01*
X135033478Y-93335279D01*
X135040353Y-93338531D01*
X135046877Y-93342441D01*
X135052985Y-93346972D01*
X135058621Y-93352079D01*
X135063728Y-93357715D01*
X135068259Y-93363823D01*
X135072169Y-93370347D01*
X135075421Y-93377222D01*
X135077983Y-93384383D01*
X135079831Y-93391761D01*
X135080947Y-93399284D01*
X135081320Y-93406880D01*
X135081320Y-93561880D01*
X135080947Y-93569476D01*
X135079831Y-93576999D01*
X135077983Y-93584377D01*
X135075421Y-93591538D01*
X135072169Y-93598413D01*
X135068259Y-93604937D01*
X135063728Y-93611045D01*
X135058621Y-93616681D01*
X135052985Y-93621788D01*
X135046877Y-93626319D01*
X135040353Y-93630229D01*
X135033478Y-93633481D01*
X135026317Y-93636043D01*
X135018939Y-93637891D01*
X135011416Y-93639007D01*
X135003820Y-93639380D01*
X134818820Y-93639380D01*
X134811224Y-93639007D01*
X134803701Y-93637891D01*
X134796323Y-93636043D01*
X134789162Y-93633481D01*
X134782287Y-93630229D01*
X134775763Y-93626319D01*
X134769655Y-93621788D01*
X134764019Y-93616681D01*
X134758912Y-93611045D01*
X134754381Y-93604937D01*
X134750471Y-93598413D01*
X134747219Y-93591538D01*
X134744657Y-93584377D01*
X134742809Y-93576999D01*
X134741693Y-93569476D01*
X134741320Y-93561880D01*
X134741320Y-93406880D01*
X134741693Y-93399284D01*
X134742809Y-93391761D01*
X134744657Y-93384383D01*
X134747219Y-93377222D01*
X134750471Y-93370347D01*
X134754381Y-93363823D01*
X134758912Y-93357715D01*
X134764019Y-93352079D01*
X134769655Y-93346972D01*
X134775763Y-93342441D01*
X134782287Y-93338531D01*
X134789162Y-93335279D01*
X134796323Y-93332717D01*
X134803701Y-93330869D01*
X134811224Y-93329753D01*
X134818820Y-93329380D01*
X135003820Y-93329380D01*
X135011416Y-93329753D01*
G37*
G04 #@! TD.AperFunction*
G04 #@! TA.AperFunction,SMDPad,CuDef*
G36*
X138542016Y-92339153D02*
G01*
X138549539Y-92340269D01*
X138556917Y-92342117D01*
X138564078Y-92344679D01*
X138570953Y-92347931D01*
X138577477Y-92351841D01*
X138583585Y-92356372D01*
X138589221Y-92361479D01*
X138594328Y-92367115D01*
X138598859Y-92373223D01*
X138602769Y-92379747D01*
X138606021Y-92386622D01*
X138608583Y-92393783D01*
X138610431Y-92401161D01*
X138611547Y-92408684D01*
X138611920Y-92416280D01*
X138611920Y-92571280D01*
X138611547Y-92578876D01*
X138610431Y-92586399D01*
X138608583Y-92593777D01*
X138606021Y-92600938D01*
X138602769Y-92607813D01*
X138598859Y-92614337D01*
X138594328Y-92620445D01*
X138589221Y-92626081D01*
X138583585Y-92631188D01*
X138577477Y-92635719D01*
X138570953Y-92639629D01*
X138564078Y-92642881D01*
X138556917Y-92645443D01*
X138549539Y-92647291D01*
X138542016Y-92648407D01*
X138534420Y-92648780D01*
X138349420Y-92648780D01*
X138341824Y-92648407D01*
X138334301Y-92647291D01*
X138326923Y-92645443D01*
X138319762Y-92642881D01*
X138312887Y-92639629D01*
X138306363Y-92635719D01*
X138300255Y-92631188D01*
X138294619Y-92626081D01*
X138289512Y-92620445D01*
X138284981Y-92614337D01*
X138281071Y-92607813D01*
X138277819Y-92600938D01*
X138275257Y-92593777D01*
X138273409Y-92586399D01*
X138272293Y-92578876D01*
X138271920Y-92571280D01*
X138271920Y-92416280D01*
X138272293Y-92408684D01*
X138273409Y-92401161D01*
X138275257Y-92393783D01*
X138277819Y-92386622D01*
X138281071Y-92379747D01*
X138284981Y-92373223D01*
X138289512Y-92367115D01*
X138294619Y-92361479D01*
X138300255Y-92356372D01*
X138306363Y-92351841D01*
X138312887Y-92347931D01*
X138319762Y-92344679D01*
X138326923Y-92342117D01*
X138334301Y-92340269D01*
X138341824Y-92339153D01*
X138349420Y-92338780D01*
X138534420Y-92338780D01*
X138542016Y-92339153D01*
G37*
G04 #@! TD.AperFunction*
G04 #@! TA.AperFunction,SMDPad,CuDef*
G36*
X138542016Y-91789153D02*
G01*
X138549539Y-91790269D01*
X138556917Y-91792117D01*
X138564078Y-91794679D01*
X138570953Y-91797931D01*
X138577477Y-91801841D01*
X138583585Y-91806372D01*
X138589221Y-91811479D01*
X138594328Y-91817115D01*
X138598859Y-91823223D01*
X138602769Y-91829747D01*
X138606021Y-91836622D01*
X138608583Y-91843783D01*
X138610431Y-91851161D01*
X138611547Y-91858684D01*
X138611920Y-91866280D01*
X138611920Y-92021280D01*
X138611547Y-92028876D01*
X138610431Y-92036399D01*
X138608583Y-92043777D01*
X138606021Y-92050938D01*
X138602769Y-92057813D01*
X138598859Y-92064337D01*
X138594328Y-92070445D01*
X138589221Y-92076081D01*
X138583585Y-92081188D01*
X138577477Y-92085719D01*
X138570953Y-92089629D01*
X138564078Y-92092881D01*
X138556917Y-92095443D01*
X138549539Y-92097291D01*
X138542016Y-92098407D01*
X138534420Y-92098780D01*
X138349420Y-92098780D01*
X138341824Y-92098407D01*
X138334301Y-92097291D01*
X138326923Y-92095443D01*
X138319762Y-92092881D01*
X138312887Y-92089629D01*
X138306363Y-92085719D01*
X138300255Y-92081188D01*
X138294619Y-92076081D01*
X138289512Y-92070445D01*
X138284981Y-92064337D01*
X138281071Y-92057813D01*
X138277819Y-92050938D01*
X138275257Y-92043777D01*
X138273409Y-92036399D01*
X138272293Y-92028876D01*
X138271920Y-92021280D01*
X138271920Y-91866280D01*
X138272293Y-91858684D01*
X138273409Y-91851161D01*
X138275257Y-91843783D01*
X138277819Y-91836622D01*
X138281071Y-91829747D01*
X138284981Y-91823223D01*
X138289512Y-91817115D01*
X138294619Y-91811479D01*
X138300255Y-91806372D01*
X138306363Y-91801841D01*
X138312887Y-91797931D01*
X138319762Y-91794679D01*
X138326923Y-91792117D01*
X138334301Y-91790269D01*
X138341824Y-91789153D01*
X138349420Y-91788780D01*
X138534420Y-91788780D01*
X138542016Y-91789153D01*
G37*
G04 #@! TD.AperFunction*
G04 #@! TA.AperFunction,SMDPad,CuDef*
G36*
X135544816Y-88279553D02*
G01*
X135552339Y-88280669D01*
X135559717Y-88282517D01*
X135566878Y-88285079D01*
X135573753Y-88288331D01*
X135580277Y-88292241D01*
X135586385Y-88296772D01*
X135592021Y-88301879D01*
X135597128Y-88307515D01*
X135601659Y-88313623D01*
X135605569Y-88320147D01*
X135608821Y-88327022D01*
X135611383Y-88334183D01*
X135613231Y-88341561D01*
X135614347Y-88349084D01*
X135614720Y-88356680D01*
X135614720Y-88511680D01*
X135614347Y-88519276D01*
X135613231Y-88526799D01*
X135611383Y-88534177D01*
X135608821Y-88541338D01*
X135605569Y-88548213D01*
X135601659Y-88554737D01*
X135597128Y-88560845D01*
X135592021Y-88566481D01*
X135586385Y-88571588D01*
X135580277Y-88576119D01*
X135573753Y-88580029D01*
X135566878Y-88583281D01*
X135559717Y-88585843D01*
X135552339Y-88587691D01*
X135544816Y-88588807D01*
X135537220Y-88589180D01*
X135352220Y-88589180D01*
X135344624Y-88588807D01*
X135337101Y-88587691D01*
X135329723Y-88585843D01*
X135322562Y-88583281D01*
X135315687Y-88580029D01*
X135309163Y-88576119D01*
X135303055Y-88571588D01*
X135297419Y-88566481D01*
X135292312Y-88560845D01*
X135287781Y-88554737D01*
X135283871Y-88548213D01*
X135280619Y-88541338D01*
X135278057Y-88534177D01*
X135276209Y-88526799D01*
X135275093Y-88519276D01*
X135274720Y-88511680D01*
X135274720Y-88356680D01*
X135275093Y-88349084D01*
X135276209Y-88341561D01*
X135278057Y-88334183D01*
X135280619Y-88327022D01*
X135283871Y-88320147D01*
X135287781Y-88313623D01*
X135292312Y-88307515D01*
X135297419Y-88301879D01*
X135303055Y-88296772D01*
X135309163Y-88292241D01*
X135315687Y-88288331D01*
X135322562Y-88285079D01*
X135329723Y-88282517D01*
X135337101Y-88280669D01*
X135344624Y-88279553D01*
X135352220Y-88279180D01*
X135537220Y-88279180D01*
X135544816Y-88279553D01*
G37*
G04 #@! TD.AperFunction*
G04 #@! TA.AperFunction,SMDPad,CuDef*
G36*
X135544816Y-88829553D02*
G01*
X135552339Y-88830669D01*
X135559717Y-88832517D01*
X135566878Y-88835079D01*
X135573753Y-88838331D01*
X135580277Y-88842241D01*
X135586385Y-88846772D01*
X135592021Y-88851879D01*
X135597128Y-88857515D01*
X135601659Y-88863623D01*
X135605569Y-88870147D01*
X135608821Y-88877022D01*
X135611383Y-88884183D01*
X135613231Y-88891561D01*
X135614347Y-88899084D01*
X135614720Y-88906680D01*
X135614720Y-89061680D01*
X135614347Y-89069276D01*
X135613231Y-89076799D01*
X135611383Y-89084177D01*
X135608821Y-89091338D01*
X135605569Y-89098213D01*
X135601659Y-89104737D01*
X135597128Y-89110845D01*
X135592021Y-89116481D01*
X135586385Y-89121588D01*
X135580277Y-89126119D01*
X135573753Y-89130029D01*
X135566878Y-89133281D01*
X135559717Y-89135843D01*
X135552339Y-89137691D01*
X135544816Y-89138807D01*
X135537220Y-89139180D01*
X135352220Y-89139180D01*
X135344624Y-89138807D01*
X135337101Y-89137691D01*
X135329723Y-89135843D01*
X135322562Y-89133281D01*
X135315687Y-89130029D01*
X135309163Y-89126119D01*
X135303055Y-89121588D01*
X135297419Y-89116481D01*
X135292312Y-89110845D01*
X135287781Y-89104737D01*
X135283871Y-89098213D01*
X135280619Y-89091338D01*
X135278057Y-89084177D01*
X135276209Y-89076799D01*
X135275093Y-89069276D01*
X135274720Y-89061680D01*
X135274720Y-88906680D01*
X135275093Y-88899084D01*
X135276209Y-88891561D01*
X135278057Y-88884183D01*
X135280619Y-88877022D01*
X135283871Y-88870147D01*
X135287781Y-88863623D01*
X135292312Y-88857515D01*
X135297419Y-88851879D01*
X135303055Y-88846772D01*
X135309163Y-88842241D01*
X135315687Y-88838331D01*
X135322562Y-88835079D01*
X135329723Y-88832517D01*
X135337101Y-88830669D01*
X135344624Y-88829553D01*
X135352220Y-88829180D01*
X135537220Y-88829180D01*
X135544816Y-88829553D01*
G37*
G04 #@! TD.AperFunction*
G04 #@! TA.AperFunction,SMDPad,CuDef*
G36*
X140574016Y-93821153D02*
G01*
X140581539Y-93822269D01*
X140588917Y-93824117D01*
X140596078Y-93826679D01*
X140602953Y-93829931D01*
X140609477Y-93833841D01*
X140615585Y-93838372D01*
X140621221Y-93843479D01*
X140626328Y-93849115D01*
X140630859Y-93855223D01*
X140634769Y-93861747D01*
X140638021Y-93868622D01*
X140640583Y-93875783D01*
X140642431Y-93883161D01*
X140643547Y-93890684D01*
X140643920Y-93898280D01*
X140643920Y-94053280D01*
X140643547Y-94060876D01*
X140642431Y-94068399D01*
X140640583Y-94075777D01*
X140638021Y-94082938D01*
X140634769Y-94089813D01*
X140630859Y-94096337D01*
X140626328Y-94102445D01*
X140621221Y-94108081D01*
X140615585Y-94113188D01*
X140609477Y-94117719D01*
X140602953Y-94121629D01*
X140596078Y-94124881D01*
X140588917Y-94127443D01*
X140581539Y-94129291D01*
X140574016Y-94130407D01*
X140566420Y-94130780D01*
X140381420Y-94130780D01*
X140373824Y-94130407D01*
X140366301Y-94129291D01*
X140358923Y-94127443D01*
X140351762Y-94124881D01*
X140344887Y-94121629D01*
X140338363Y-94117719D01*
X140332255Y-94113188D01*
X140326619Y-94108081D01*
X140321512Y-94102445D01*
X140316981Y-94096337D01*
X140313071Y-94089813D01*
X140309819Y-94082938D01*
X140307257Y-94075777D01*
X140305409Y-94068399D01*
X140304293Y-94060876D01*
X140303920Y-94053280D01*
X140303920Y-93898280D01*
X140304293Y-93890684D01*
X140305409Y-93883161D01*
X140307257Y-93875783D01*
X140309819Y-93868622D01*
X140313071Y-93861747D01*
X140316981Y-93855223D01*
X140321512Y-93849115D01*
X140326619Y-93843479D01*
X140332255Y-93838372D01*
X140338363Y-93833841D01*
X140344887Y-93829931D01*
X140351762Y-93826679D01*
X140358923Y-93824117D01*
X140366301Y-93822269D01*
X140373824Y-93821153D01*
X140381420Y-93820780D01*
X140566420Y-93820780D01*
X140574016Y-93821153D01*
G37*
G04 #@! TD.AperFunction*
G04 #@! TA.AperFunction,SMDPad,CuDef*
G36*
X140574016Y-94371153D02*
G01*
X140581539Y-94372269D01*
X140588917Y-94374117D01*
X140596078Y-94376679D01*
X140602953Y-94379931D01*
X140609477Y-94383841D01*
X140615585Y-94388372D01*
X140621221Y-94393479D01*
X140626328Y-94399115D01*
X140630859Y-94405223D01*
X140634769Y-94411747D01*
X140638021Y-94418622D01*
X140640583Y-94425783D01*
X140642431Y-94433161D01*
X140643547Y-94440684D01*
X140643920Y-94448280D01*
X140643920Y-94603280D01*
X140643547Y-94610876D01*
X140642431Y-94618399D01*
X140640583Y-94625777D01*
X140638021Y-94632938D01*
X140634769Y-94639813D01*
X140630859Y-94646337D01*
X140626328Y-94652445D01*
X140621221Y-94658081D01*
X140615585Y-94663188D01*
X140609477Y-94667719D01*
X140602953Y-94671629D01*
X140596078Y-94674881D01*
X140588917Y-94677443D01*
X140581539Y-94679291D01*
X140574016Y-94680407D01*
X140566420Y-94680780D01*
X140381420Y-94680780D01*
X140373824Y-94680407D01*
X140366301Y-94679291D01*
X140358923Y-94677443D01*
X140351762Y-94674881D01*
X140344887Y-94671629D01*
X140338363Y-94667719D01*
X140332255Y-94663188D01*
X140326619Y-94658081D01*
X140321512Y-94652445D01*
X140316981Y-94646337D01*
X140313071Y-94639813D01*
X140309819Y-94632938D01*
X140307257Y-94625777D01*
X140305409Y-94618399D01*
X140304293Y-94610876D01*
X140303920Y-94603280D01*
X140303920Y-94448280D01*
X140304293Y-94440684D01*
X140305409Y-94433161D01*
X140307257Y-94425783D01*
X140309819Y-94418622D01*
X140313071Y-94411747D01*
X140316981Y-94405223D01*
X140321512Y-94399115D01*
X140326619Y-94393479D01*
X140332255Y-94388372D01*
X140338363Y-94383841D01*
X140344887Y-94379931D01*
X140351762Y-94376679D01*
X140358923Y-94374117D01*
X140366301Y-94372269D01*
X140373824Y-94371153D01*
X140381420Y-94370780D01*
X140566420Y-94370780D01*
X140574016Y-94371153D01*
G37*
G04 #@! TD.AperFunction*
G04 #@! TA.AperFunction,SMDPad,CuDef*
G36*
X138592816Y-86827353D02*
G01*
X138600339Y-86828469D01*
X138607717Y-86830317D01*
X138614878Y-86832879D01*
X138621753Y-86836131D01*
X138628277Y-86840041D01*
X138634385Y-86844572D01*
X138640021Y-86849679D01*
X138645128Y-86855315D01*
X138649659Y-86861423D01*
X138653569Y-86867947D01*
X138656821Y-86874822D01*
X138659383Y-86881983D01*
X138661231Y-86889361D01*
X138662347Y-86896884D01*
X138662720Y-86904480D01*
X138662720Y-87059480D01*
X138662347Y-87067076D01*
X138661231Y-87074599D01*
X138659383Y-87081977D01*
X138656821Y-87089138D01*
X138653569Y-87096013D01*
X138649659Y-87102537D01*
X138645128Y-87108645D01*
X138640021Y-87114281D01*
X138634385Y-87119388D01*
X138628277Y-87123919D01*
X138621753Y-87127829D01*
X138614878Y-87131081D01*
X138607717Y-87133643D01*
X138600339Y-87135491D01*
X138592816Y-87136607D01*
X138585220Y-87136980D01*
X138400220Y-87136980D01*
X138392624Y-87136607D01*
X138385101Y-87135491D01*
X138377723Y-87133643D01*
X138370562Y-87131081D01*
X138363687Y-87127829D01*
X138357163Y-87123919D01*
X138351055Y-87119388D01*
X138345419Y-87114281D01*
X138340312Y-87108645D01*
X138335781Y-87102537D01*
X138331871Y-87096013D01*
X138328619Y-87089138D01*
X138326057Y-87081977D01*
X138324209Y-87074599D01*
X138323093Y-87067076D01*
X138322720Y-87059480D01*
X138322720Y-86904480D01*
X138323093Y-86896884D01*
X138324209Y-86889361D01*
X138326057Y-86881983D01*
X138328619Y-86874822D01*
X138331871Y-86867947D01*
X138335781Y-86861423D01*
X138340312Y-86855315D01*
X138345419Y-86849679D01*
X138351055Y-86844572D01*
X138357163Y-86840041D01*
X138363687Y-86836131D01*
X138370562Y-86832879D01*
X138377723Y-86830317D01*
X138385101Y-86828469D01*
X138392624Y-86827353D01*
X138400220Y-86826980D01*
X138585220Y-86826980D01*
X138592816Y-86827353D01*
G37*
G04 #@! TD.AperFunction*
G04 #@! TA.AperFunction,SMDPad,CuDef*
G36*
X138592816Y-86277353D02*
G01*
X138600339Y-86278469D01*
X138607717Y-86280317D01*
X138614878Y-86282879D01*
X138621753Y-86286131D01*
X138628277Y-86290041D01*
X138634385Y-86294572D01*
X138640021Y-86299679D01*
X138645128Y-86305315D01*
X138649659Y-86311423D01*
X138653569Y-86317947D01*
X138656821Y-86324822D01*
X138659383Y-86331983D01*
X138661231Y-86339361D01*
X138662347Y-86346884D01*
X138662720Y-86354480D01*
X138662720Y-86509480D01*
X138662347Y-86517076D01*
X138661231Y-86524599D01*
X138659383Y-86531977D01*
X138656821Y-86539138D01*
X138653569Y-86546013D01*
X138649659Y-86552537D01*
X138645128Y-86558645D01*
X138640021Y-86564281D01*
X138634385Y-86569388D01*
X138628277Y-86573919D01*
X138621753Y-86577829D01*
X138614878Y-86581081D01*
X138607717Y-86583643D01*
X138600339Y-86585491D01*
X138592816Y-86586607D01*
X138585220Y-86586980D01*
X138400220Y-86586980D01*
X138392624Y-86586607D01*
X138385101Y-86585491D01*
X138377723Y-86583643D01*
X138370562Y-86581081D01*
X138363687Y-86577829D01*
X138357163Y-86573919D01*
X138351055Y-86569388D01*
X138345419Y-86564281D01*
X138340312Y-86558645D01*
X138335781Y-86552537D01*
X138331871Y-86546013D01*
X138328619Y-86539138D01*
X138326057Y-86531977D01*
X138324209Y-86524599D01*
X138323093Y-86517076D01*
X138322720Y-86509480D01*
X138322720Y-86354480D01*
X138323093Y-86346884D01*
X138324209Y-86339361D01*
X138326057Y-86331983D01*
X138328619Y-86324822D01*
X138331871Y-86317947D01*
X138335781Y-86311423D01*
X138340312Y-86305315D01*
X138345419Y-86299679D01*
X138351055Y-86294572D01*
X138357163Y-86290041D01*
X138363687Y-86286131D01*
X138370562Y-86282879D01*
X138377723Y-86280317D01*
X138385101Y-86278469D01*
X138392624Y-86277353D01*
X138400220Y-86276980D01*
X138585220Y-86276980D01*
X138592816Y-86277353D01*
G37*
G04 #@! TD.AperFunction*
G04 #@! TA.AperFunction,SMDPad,CuDef*
G36*
X135417069Y-94476111D02*
G01*
X135438668Y-94479315D01*
X135459848Y-94484621D01*
X135480407Y-94491977D01*
X135500146Y-94501313D01*
X135518874Y-94512538D01*
X135536413Y-94525545D01*
X135552591Y-94540209D01*
X135567255Y-94556387D01*
X135580262Y-94573926D01*
X135591487Y-94592654D01*
X135600823Y-94612393D01*
X135608179Y-94632952D01*
X135613485Y-94654132D01*
X135616689Y-94675731D01*
X135617760Y-94697540D01*
X135617760Y-95172540D01*
X135616689Y-95194349D01*
X135613485Y-95215948D01*
X135608179Y-95237128D01*
X135600823Y-95257687D01*
X135591487Y-95277426D01*
X135580262Y-95296154D01*
X135567255Y-95313693D01*
X135552591Y-95329871D01*
X135536413Y-95344535D01*
X135518874Y-95357542D01*
X135500146Y-95368767D01*
X135480407Y-95378103D01*
X135459848Y-95385459D01*
X135438668Y-95390765D01*
X135417069Y-95393969D01*
X135395260Y-95395040D01*
X134950260Y-95395040D01*
X134928451Y-95393969D01*
X134906852Y-95390765D01*
X134885672Y-95385459D01*
X134865113Y-95378103D01*
X134845374Y-95368767D01*
X134826646Y-95357542D01*
X134809107Y-95344535D01*
X134792929Y-95329871D01*
X134778265Y-95313693D01*
X134765258Y-95296154D01*
X134754033Y-95277426D01*
X134744697Y-95257687D01*
X134737341Y-95237128D01*
X134732035Y-95215948D01*
X134728831Y-95194349D01*
X134727760Y-95172540D01*
X134727760Y-94697540D01*
X134728831Y-94675731D01*
X134732035Y-94654132D01*
X134737341Y-94632952D01*
X134744697Y-94612393D01*
X134754033Y-94592654D01*
X134765258Y-94573926D01*
X134778265Y-94556387D01*
X134792929Y-94540209D01*
X134809107Y-94525545D01*
X134826646Y-94512538D01*
X134845374Y-94501313D01*
X134865113Y-94491977D01*
X134885672Y-94484621D01*
X134906852Y-94479315D01*
X134928451Y-94476111D01*
X134950260Y-94475040D01*
X135395260Y-94475040D01*
X135417069Y-94476111D01*
G37*
G04 #@! TD.AperFunction*
G04 #@! TA.AperFunction,SMDPad,CuDef*
G36*
X134087069Y-94476111D02*
G01*
X134108668Y-94479315D01*
X134129848Y-94484621D01*
X134150407Y-94491977D01*
X134170146Y-94501313D01*
X134188874Y-94512538D01*
X134206413Y-94525545D01*
X134222591Y-94540209D01*
X134237255Y-94556387D01*
X134250262Y-94573926D01*
X134261487Y-94592654D01*
X134270823Y-94612393D01*
X134278179Y-94632952D01*
X134283485Y-94654132D01*
X134286689Y-94675731D01*
X134287760Y-94697540D01*
X134287760Y-95172540D01*
X134286689Y-95194349D01*
X134283485Y-95215948D01*
X134278179Y-95237128D01*
X134270823Y-95257687D01*
X134261487Y-95277426D01*
X134250262Y-95296154D01*
X134237255Y-95313693D01*
X134222591Y-95329871D01*
X134206413Y-95344535D01*
X134188874Y-95357542D01*
X134170146Y-95368767D01*
X134150407Y-95378103D01*
X134129848Y-95385459D01*
X134108668Y-95390765D01*
X134087069Y-95393969D01*
X134065260Y-95395040D01*
X133620260Y-95395040D01*
X133598451Y-95393969D01*
X133576852Y-95390765D01*
X133555672Y-95385459D01*
X133535113Y-95378103D01*
X133515374Y-95368767D01*
X133496646Y-95357542D01*
X133479107Y-95344535D01*
X133462929Y-95329871D01*
X133448265Y-95313693D01*
X133435258Y-95296154D01*
X133424033Y-95277426D01*
X133414697Y-95257687D01*
X133407341Y-95237128D01*
X133402035Y-95215948D01*
X133398831Y-95194349D01*
X133397760Y-95172540D01*
X133397760Y-94697540D01*
X133398831Y-94675731D01*
X133402035Y-94654132D01*
X133407341Y-94632952D01*
X133414697Y-94612393D01*
X133424033Y-94592654D01*
X133435258Y-94573926D01*
X133448265Y-94556387D01*
X133462929Y-94540209D01*
X133479107Y-94525545D01*
X133496646Y-94512538D01*
X133515374Y-94501313D01*
X133535113Y-94491977D01*
X133555672Y-94484621D01*
X133576852Y-94479315D01*
X133598451Y-94476111D01*
X133620260Y-94475040D01*
X134065260Y-94475040D01*
X134087069Y-94476111D01*
G37*
G04 #@! TD.AperFunction*
G04 #@! TA.AperFunction,SMDPad,CuDef*
G36*
X137402632Y-93942158D02*
G01*
X137416708Y-93944246D01*
X137430511Y-93947704D01*
X137443909Y-93952497D01*
X137456773Y-93958581D01*
X137468978Y-93965897D01*
X137480407Y-93974373D01*
X137490950Y-93983930D01*
X137500507Y-93994473D01*
X137508983Y-94005902D01*
X137516299Y-94018107D01*
X137522383Y-94030971D01*
X137527176Y-94044369D01*
X137530634Y-94058172D01*
X137532722Y-94072248D01*
X137533420Y-94086460D01*
X137533420Y-94376460D01*
X137532722Y-94390672D01*
X137530634Y-94404748D01*
X137527176Y-94418551D01*
X137522383Y-94431949D01*
X137516299Y-94444813D01*
X137508983Y-94457018D01*
X137500507Y-94468447D01*
X137490950Y-94478990D01*
X137480407Y-94488547D01*
X137468978Y-94497023D01*
X137456773Y-94504339D01*
X137443909Y-94510423D01*
X137430511Y-94515216D01*
X137416708Y-94518674D01*
X137402632Y-94520762D01*
X137388420Y-94521460D01*
X137048420Y-94521460D01*
X137034208Y-94520762D01*
X137020132Y-94518674D01*
X137006329Y-94515216D01*
X136992931Y-94510423D01*
X136980067Y-94504339D01*
X136967862Y-94497023D01*
X136956433Y-94488547D01*
X136945890Y-94478990D01*
X136936333Y-94468447D01*
X136927857Y-94457018D01*
X136920541Y-94444813D01*
X136914457Y-94431949D01*
X136909664Y-94418551D01*
X136906206Y-94404748D01*
X136904118Y-94390672D01*
X136903420Y-94376460D01*
X136903420Y-94086460D01*
X136904118Y-94072248D01*
X136906206Y-94058172D01*
X136909664Y-94044369D01*
X136914457Y-94030971D01*
X136920541Y-94018107D01*
X136927857Y-94005902D01*
X136936333Y-93994473D01*
X136945890Y-93983930D01*
X136956433Y-93974373D01*
X136967862Y-93965897D01*
X136980067Y-93958581D01*
X136992931Y-93952497D01*
X137006329Y-93947704D01*
X137020132Y-93944246D01*
X137034208Y-93942158D01*
X137048420Y-93941460D01*
X137388420Y-93941460D01*
X137402632Y-93942158D01*
G37*
G04 #@! TD.AperFunction*
G04 #@! TA.AperFunction,SMDPad,CuDef*
G36*
X137402632Y-94832158D02*
G01*
X137416708Y-94834246D01*
X137430511Y-94837704D01*
X137443909Y-94842497D01*
X137456773Y-94848581D01*
X137468978Y-94855897D01*
X137480407Y-94864373D01*
X137490950Y-94873930D01*
X137500507Y-94884473D01*
X137508983Y-94895902D01*
X137516299Y-94908107D01*
X137522383Y-94920971D01*
X137527176Y-94934369D01*
X137530634Y-94948172D01*
X137532722Y-94962248D01*
X137533420Y-94976460D01*
X137533420Y-95266460D01*
X137532722Y-95280672D01*
X137530634Y-95294748D01*
X137527176Y-95308551D01*
X137522383Y-95321949D01*
X137516299Y-95334813D01*
X137508983Y-95347018D01*
X137500507Y-95358447D01*
X137490950Y-95368990D01*
X137480407Y-95378547D01*
X137468978Y-95387023D01*
X137456773Y-95394339D01*
X137443909Y-95400423D01*
X137430511Y-95405216D01*
X137416708Y-95408674D01*
X137402632Y-95410762D01*
X137388420Y-95411460D01*
X137048420Y-95411460D01*
X137034208Y-95410762D01*
X137020132Y-95408674D01*
X137006329Y-95405216D01*
X136992931Y-95400423D01*
X136980067Y-95394339D01*
X136967862Y-95387023D01*
X136956433Y-95378547D01*
X136945890Y-95368990D01*
X136936333Y-95358447D01*
X136927857Y-95347018D01*
X136920541Y-95334813D01*
X136914457Y-95321949D01*
X136909664Y-95308551D01*
X136906206Y-95294748D01*
X136904118Y-95280672D01*
X136903420Y-95266460D01*
X136903420Y-94976460D01*
X136904118Y-94962248D01*
X136906206Y-94948172D01*
X136909664Y-94934369D01*
X136914457Y-94920971D01*
X136920541Y-94908107D01*
X136927857Y-94895902D01*
X136936333Y-94884473D01*
X136945890Y-94873930D01*
X136956433Y-94864373D01*
X136967862Y-94855897D01*
X136980067Y-94848581D01*
X136992931Y-94842497D01*
X137006329Y-94837704D01*
X137020132Y-94834246D01*
X137034208Y-94832158D01*
X137048420Y-94831460D01*
X137388420Y-94831460D01*
X137402632Y-94832158D01*
G37*
G04 #@! TD.AperFunction*
G04 #@! TA.AperFunction,SMDPad,CuDef*
G36*
X135519416Y-86810753D02*
G01*
X135526939Y-86811869D01*
X135534317Y-86813717D01*
X135541478Y-86816279D01*
X135548353Y-86819531D01*
X135554877Y-86823441D01*
X135560985Y-86827972D01*
X135566621Y-86833079D01*
X135571728Y-86838715D01*
X135576259Y-86844823D01*
X135580169Y-86851347D01*
X135583421Y-86858222D01*
X135585983Y-86865383D01*
X135587831Y-86872761D01*
X135588947Y-86880284D01*
X135589320Y-86887880D01*
X135589320Y-87042880D01*
X135588947Y-87050476D01*
X135587831Y-87057999D01*
X135585983Y-87065377D01*
X135583421Y-87072538D01*
X135580169Y-87079413D01*
X135576259Y-87085937D01*
X135571728Y-87092045D01*
X135566621Y-87097681D01*
X135560985Y-87102788D01*
X135554877Y-87107319D01*
X135548353Y-87111229D01*
X135541478Y-87114481D01*
X135534317Y-87117043D01*
X135526939Y-87118891D01*
X135519416Y-87120007D01*
X135511820Y-87120380D01*
X135326820Y-87120380D01*
X135319224Y-87120007D01*
X135311701Y-87118891D01*
X135304323Y-87117043D01*
X135297162Y-87114481D01*
X135290287Y-87111229D01*
X135283763Y-87107319D01*
X135277655Y-87102788D01*
X135272019Y-87097681D01*
X135266912Y-87092045D01*
X135262381Y-87085937D01*
X135258471Y-87079413D01*
X135255219Y-87072538D01*
X135252657Y-87065377D01*
X135250809Y-87057999D01*
X135249693Y-87050476D01*
X135249320Y-87042880D01*
X135249320Y-86887880D01*
X135249693Y-86880284D01*
X135250809Y-86872761D01*
X135252657Y-86865383D01*
X135255219Y-86858222D01*
X135258471Y-86851347D01*
X135262381Y-86844823D01*
X135266912Y-86838715D01*
X135272019Y-86833079D01*
X135277655Y-86827972D01*
X135283763Y-86823441D01*
X135290287Y-86819531D01*
X135297162Y-86816279D01*
X135304323Y-86813717D01*
X135311701Y-86811869D01*
X135319224Y-86810753D01*
X135326820Y-86810380D01*
X135511820Y-86810380D01*
X135519416Y-86810753D01*
G37*
G04 #@! TD.AperFunction*
G04 #@! TA.AperFunction,SMDPad,CuDef*
G36*
X135519416Y-87360753D02*
G01*
X135526939Y-87361869D01*
X135534317Y-87363717D01*
X135541478Y-87366279D01*
X135548353Y-87369531D01*
X135554877Y-87373441D01*
X135560985Y-87377972D01*
X135566621Y-87383079D01*
X135571728Y-87388715D01*
X135576259Y-87394823D01*
X135580169Y-87401347D01*
X135583421Y-87408222D01*
X135585983Y-87415383D01*
X135587831Y-87422761D01*
X135588947Y-87430284D01*
X135589320Y-87437880D01*
X135589320Y-87592880D01*
X135588947Y-87600476D01*
X135587831Y-87607999D01*
X135585983Y-87615377D01*
X135583421Y-87622538D01*
X135580169Y-87629413D01*
X135576259Y-87635937D01*
X135571728Y-87642045D01*
X135566621Y-87647681D01*
X135560985Y-87652788D01*
X135554877Y-87657319D01*
X135548353Y-87661229D01*
X135541478Y-87664481D01*
X135534317Y-87667043D01*
X135526939Y-87668891D01*
X135519416Y-87670007D01*
X135511820Y-87670380D01*
X135326820Y-87670380D01*
X135319224Y-87670007D01*
X135311701Y-87668891D01*
X135304323Y-87667043D01*
X135297162Y-87664481D01*
X135290287Y-87661229D01*
X135283763Y-87657319D01*
X135277655Y-87652788D01*
X135272019Y-87647681D01*
X135266912Y-87642045D01*
X135262381Y-87635937D01*
X135258471Y-87629413D01*
X135255219Y-87622538D01*
X135252657Y-87615377D01*
X135250809Y-87607999D01*
X135249693Y-87600476D01*
X135249320Y-87592880D01*
X135249320Y-87437880D01*
X135249693Y-87430284D01*
X135250809Y-87422761D01*
X135252657Y-87415383D01*
X135255219Y-87408222D01*
X135258471Y-87401347D01*
X135262381Y-87394823D01*
X135266912Y-87388715D01*
X135272019Y-87383079D01*
X135277655Y-87377972D01*
X135283763Y-87373441D01*
X135290287Y-87369531D01*
X135297162Y-87366279D01*
X135304323Y-87363717D01*
X135311701Y-87361869D01*
X135319224Y-87360753D01*
X135326820Y-87360380D01*
X135511820Y-87360380D01*
X135519416Y-87360753D01*
G37*
G04 #@! TD.AperFunction*
D31*
X140171920Y-92873980D03*
X140521920Y-92873980D03*
D32*
X140346920Y-92223980D03*
G04 #@! TA.AperFunction,SMDPad,CuDef*
D13*
G36*
X140697078Y-91190290D02*
G01*
X140711396Y-91192414D01*
X140725437Y-91195931D01*
X140739066Y-91200808D01*
X140752151Y-91206997D01*
X140764567Y-91214438D01*
X140776193Y-91223061D01*
X140786918Y-91232782D01*
X140796639Y-91243507D01*
X140805262Y-91255133D01*
X140812703Y-91267549D01*
X140818892Y-91280634D01*
X140823769Y-91294263D01*
X140827286Y-91308304D01*
X140829410Y-91322622D01*
X140830120Y-91337080D01*
X140830120Y-91632080D01*
X140829410Y-91646538D01*
X140827286Y-91660856D01*
X140823769Y-91674897D01*
X140818892Y-91688526D01*
X140812703Y-91701611D01*
X140805262Y-91714027D01*
X140796639Y-91725653D01*
X140786918Y-91736378D01*
X140776193Y-91746099D01*
X140764567Y-91754722D01*
X140752151Y-91762163D01*
X140739066Y-91768352D01*
X140725437Y-91773229D01*
X140711396Y-91776746D01*
X140697078Y-91778870D01*
X140682620Y-91779580D01*
X140337620Y-91779580D01*
X140323162Y-91778870D01*
X140308844Y-91776746D01*
X140294803Y-91773229D01*
X140281174Y-91768352D01*
X140268089Y-91762163D01*
X140255673Y-91754722D01*
X140244047Y-91746099D01*
X140233322Y-91736378D01*
X140223601Y-91725653D01*
X140214978Y-91714027D01*
X140207537Y-91701611D01*
X140201348Y-91688526D01*
X140196471Y-91674897D01*
X140192954Y-91660856D01*
X140190830Y-91646538D01*
X140190120Y-91632080D01*
X140190120Y-91337080D01*
X140190830Y-91322622D01*
X140192954Y-91308304D01*
X140196471Y-91294263D01*
X140201348Y-91280634D01*
X140207537Y-91267549D01*
X140214978Y-91255133D01*
X140223601Y-91243507D01*
X140233322Y-91232782D01*
X140244047Y-91223061D01*
X140255673Y-91214438D01*
X140268089Y-91206997D01*
X140281174Y-91200808D01*
X140294803Y-91195931D01*
X140308844Y-91192414D01*
X140323162Y-91190290D01*
X140337620Y-91189580D01*
X140682620Y-91189580D01*
X140697078Y-91190290D01*
G37*
G04 #@! TD.AperFunction*
G04 #@! TA.AperFunction,SMDPad,CuDef*
G36*
X140697078Y-90220290D02*
G01*
X140711396Y-90222414D01*
X140725437Y-90225931D01*
X140739066Y-90230808D01*
X140752151Y-90236997D01*
X140764567Y-90244438D01*
X140776193Y-90253061D01*
X140786918Y-90262782D01*
X140796639Y-90273507D01*
X140805262Y-90285133D01*
X140812703Y-90297549D01*
X140818892Y-90310634D01*
X140823769Y-90324263D01*
X140827286Y-90338304D01*
X140829410Y-90352622D01*
X140830120Y-90367080D01*
X140830120Y-90662080D01*
X140829410Y-90676538D01*
X140827286Y-90690856D01*
X140823769Y-90704897D01*
X140818892Y-90718526D01*
X140812703Y-90731611D01*
X140805262Y-90744027D01*
X140796639Y-90755653D01*
X140786918Y-90766378D01*
X140776193Y-90776099D01*
X140764567Y-90784722D01*
X140752151Y-90792163D01*
X140739066Y-90798352D01*
X140725437Y-90803229D01*
X140711396Y-90806746D01*
X140697078Y-90808870D01*
X140682620Y-90809580D01*
X140337620Y-90809580D01*
X140323162Y-90808870D01*
X140308844Y-90806746D01*
X140294803Y-90803229D01*
X140281174Y-90798352D01*
X140268089Y-90792163D01*
X140255673Y-90784722D01*
X140244047Y-90776099D01*
X140233322Y-90766378D01*
X140223601Y-90755653D01*
X140214978Y-90744027D01*
X140207537Y-90731611D01*
X140201348Y-90718526D01*
X140196471Y-90704897D01*
X140192954Y-90690856D01*
X140190830Y-90676538D01*
X140190120Y-90662080D01*
X140190120Y-90367080D01*
X140190830Y-90352622D01*
X140192954Y-90338304D01*
X140196471Y-90324263D01*
X140201348Y-90310634D01*
X140207537Y-90297549D01*
X140214978Y-90285133D01*
X140223601Y-90273507D01*
X140233322Y-90262782D01*
X140244047Y-90253061D01*
X140255673Y-90244438D01*
X140268089Y-90236997D01*
X140281174Y-90230808D01*
X140294803Y-90225931D01*
X140308844Y-90222414D01*
X140323162Y-90220290D01*
X140337620Y-90219580D01*
X140682620Y-90219580D01*
X140697078Y-90220290D01*
G37*
G04 #@! TD.AperFunction*
G04 #@! TA.AperFunction,SMDPad,CuDef*
G36*
X131051036Y-87594113D02*
G01*
X131058559Y-87595229D01*
X131065937Y-87597077D01*
X131073098Y-87599639D01*
X131079973Y-87602891D01*
X131086497Y-87606801D01*
X131092605Y-87611332D01*
X131098241Y-87616439D01*
X131103348Y-87622075D01*
X131107879Y-87628183D01*
X131111789Y-87634707D01*
X131115041Y-87641582D01*
X131117603Y-87648743D01*
X131119451Y-87656121D01*
X131120567Y-87663644D01*
X131120940Y-87671240D01*
X131120940Y-87856240D01*
X131120567Y-87863836D01*
X131119451Y-87871359D01*
X131117603Y-87878737D01*
X131115041Y-87885898D01*
X131111789Y-87892773D01*
X131107879Y-87899297D01*
X131103348Y-87905405D01*
X131098241Y-87911041D01*
X131092605Y-87916148D01*
X131086497Y-87920679D01*
X131079973Y-87924589D01*
X131073098Y-87927841D01*
X131065937Y-87930403D01*
X131058559Y-87932251D01*
X131051036Y-87933367D01*
X131043440Y-87933740D01*
X130888440Y-87933740D01*
X130880844Y-87933367D01*
X130873321Y-87932251D01*
X130865943Y-87930403D01*
X130858782Y-87927841D01*
X130851907Y-87924589D01*
X130845383Y-87920679D01*
X130839275Y-87916148D01*
X130833639Y-87911041D01*
X130828532Y-87905405D01*
X130824001Y-87899297D01*
X130820091Y-87892773D01*
X130816839Y-87885898D01*
X130814277Y-87878737D01*
X130812429Y-87871359D01*
X130811313Y-87863836D01*
X130810940Y-87856240D01*
X130810940Y-87671240D01*
X130811313Y-87663644D01*
X130812429Y-87656121D01*
X130814277Y-87648743D01*
X130816839Y-87641582D01*
X130820091Y-87634707D01*
X130824001Y-87628183D01*
X130828532Y-87622075D01*
X130833639Y-87616439D01*
X130839275Y-87611332D01*
X130845383Y-87606801D01*
X130851907Y-87602891D01*
X130858782Y-87599639D01*
X130865943Y-87597077D01*
X130873321Y-87595229D01*
X130880844Y-87594113D01*
X130888440Y-87593740D01*
X131043440Y-87593740D01*
X131051036Y-87594113D01*
G37*
G04 #@! TD.AperFunction*
G04 #@! TA.AperFunction,SMDPad,CuDef*
G36*
X130501036Y-87594113D02*
G01*
X130508559Y-87595229D01*
X130515937Y-87597077D01*
X130523098Y-87599639D01*
X130529973Y-87602891D01*
X130536497Y-87606801D01*
X130542605Y-87611332D01*
X130548241Y-87616439D01*
X130553348Y-87622075D01*
X130557879Y-87628183D01*
X130561789Y-87634707D01*
X130565041Y-87641582D01*
X130567603Y-87648743D01*
X130569451Y-87656121D01*
X130570567Y-87663644D01*
X130570940Y-87671240D01*
X130570940Y-87856240D01*
X130570567Y-87863836D01*
X130569451Y-87871359D01*
X130567603Y-87878737D01*
X130565041Y-87885898D01*
X130561789Y-87892773D01*
X130557879Y-87899297D01*
X130553348Y-87905405D01*
X130548241Y-87911041D01*
X130542605Y-87916148D01*
X130536497Y-87920679D01*
X130529973Y-87924589D01*
X130523098Y-87927841D01*
X130515937Y-87930403D01*
X130508559Y-87932251D01*
X130501036Y-87933367D01*
X130493440Y-87933740D01*
X130338440Y-87933740D01*
X130330844Y-87933367D01*
X130323321Y-87932251D01*
X130315943Y-87930403D01*
X130308782Y-87927841D01*
X130301907Y-87924589D01*
X130295383Y-87920679D01*
X130289275Y-87916148D01*
X130283639Y-87911041D01*
X130278532Y-87905405D01*
X130274001Y-87899297D01*
X130270091Y-87892773D01*
X130266839Y-87885898D01*
X130264277Y-87878737D01*
X130262429Y-87871359D01*
X130261313Y-87863836D01*
X130260940Y-87856240D01*
X130260940Y-87671240D01*
X130261313Y-87663644D01*
X130262429Y-87656121D01*
X130264277Y-87648743D01*
X130266839Y-87641582D01*
X130270091Y-87634707D01*
X130274001Y-87628183D01*
X130278532Y-87622075D01*
X130283639Y-87616439D01*
X130289275Y-87611332D01*
X130295383Y-87606801D01*
X130301907Y-87602891D01*
X130308782Y-87599639D01*
X130315943Y-87597077D01*
X130323321Y-87595229D01*
X130330844Y-87594113D01*
X130338440Y-87593740D01*
X130493440Y-87593740D01*
X130501036Y-87594113D01*
G37*
G04 #@! TD.AperFunction*
G04 #@! TA.AperFunction,SMDPad,CuDef*
G36*
X149609236Y-92645033D02*
G01*
X149616759Y-92646149D01*
X149624137Y-92647997D01*
X149631298Y-92650559D01*
X149638173Y-92653811D01*
X149644697Y-92657721D01*
X149650805Y-92662252D01*
X149656441Y-92667359D01*
X149661548Y-92672995D01*
X149666079Y-92679103D01*
X149669989Y-92685627D01*
X149673241Y-92692502D01*
X149675803Y-92699663D01*
X149677651Y-92707041D01*
X149678767Y-92714564D01*
X149679140Y-92722160D01*
X149679140Y-92907160D01*
X149678767Y-92914756D01*
X149677651Y-92922279D01*
X149675803Y-92929657D01*
X149673241Y-92936818D01*
X149669989Y-92943693D01*
X149666079Y-92950217D01*
X149661548Y-92956325D01*
X149656441Y-92961961D01*
X149650805Y-92967068D01*
X149644697Y-92971599D01*
X149638173Y-92975509D01*
X149631298Y-92978761D01*
X149624137Y-92981323D01*
X149616759Y-92983171D01*
X149609236Y-92984287D01*
X149601640Y-92984660D01*
X149446640Y-92984660D01*
X149439044Y-92984287D01*
X149431521Y-92983171D01*
X149424143Y-92981323D01*
X149416982Y-92978761D01*
X149410107Y-92975509D01*
X149403583Y-92971599D01*
X149397475Y-92967068D01*
X149391839Y-92961961D01*
X149386732Y-92956325D01*
X149382201Y-92950217D01*
X149378291Y-92943693D01*
X149375039Y-92936818D01*
X149372477Y-92929657D01*
X149370629Y-92922279D01*
X149369513Y-92914756D01*
X149369140Y-92907160D01*
X149369140Y-92722160D01*
X149369513Y-92714564D01*
X149370629Y-92707041D01*
X149372477Y-92699663D01*
X149375039Y-92692502D01*
X149378291Y-92685627D01*
X149382201Y-92679103D01*
X149386732Y-92672995D01*
X149391839Y-92667359D01*
X149397475Y-92662252D01*
X149403583Y-92657721D01*
X149410107Y-92653811D01*
X149416982Y-92650559D01*
X149424143Y-92647997D01*
X149431521Y-92646149D01*
X149439044Y-92645033D01*
X149446640Y-92644660D01*
X149601640Y-92644660D01*
X149609236Y-92645033D01*
G37*
G04 #@! TD.AperFunction*
G04 #@! TA.AperFunction,SMDPad,CuDef*
G36*
X150159236Y-92645033D02*
G01*
X150166759Y-92646149D01*
X150174137Y-92647997D01*
X150181298Y-92650559D01*
X150188173Y-92653811D01*
X150194697Y-92657721D01*
X150200805Y-92662252D01*
X150206441Y-92667359D01*
X150211548Y-92672995D01*
X150216079Y-92679103D01*
X150219989Y-92685627D01*
X150223241Y-92692502D01*
X150225803Y-92699663D01*
X150227651Y-92707041D01*
X150228767Y-92714564D01*
X150229140Y-92722160D01*
X150229140Y-92907160D01*
X150228767Y-92914756D01*
X150227651Y-92922279D01*
X150225803Y-92929657D01*
X150223241Y-92936818D01*
X150219989Y-92943693D01*
X150216079Y-92950217D01*
X150211548Y-92956325D01*
X150206441Y-92961961D01*
X150200805Y-92967068D01*
X150194697Y-92971599D01*
X150188173Y-92975509D01*
X150181298Y-92978761D01*
X150174137Y-92981323D01*
X150166759Y-92983171D01*
X150159236Y-92984287D01*
X150151640Y-92984660D01*
X149996640Y-92984660D01*
X149989044Y-92984287D01*
X149981521Y-92983171D01*
X149974143Y-92981323D01*
X149966982Y-92978761D01*
X149960107Y-92975509D01*
X149953583Y-92971599D01*
X149947475Y-92967068D01*
X149941839Y-92961961D01*
X149936732Y-92956325D01*
X149932201Y-92950217D01*
X149928291Y-92943693D01*
X149925039Y-92936818D01*
X149922477Y-92929657D01*
X149920629Y-92922279D01*
X149919513Y-92914756D01*
X149919140Y-92907160D01*
X149919140Y-92722160D01*
X149919513Y-92714564D01*
X149920629Y-92707041D01*
X149922477Y-92699663D01*
X149925039Y-92692502D01*
X149928291Y-92685627D01*
X149932201Y-92679103D01*
X149936732Y-92672995D01*
X149941839Y-92667359D01*
X149947475Y-92662252D01*
X149953583Y-92657721D01*
X149960107Y-92653811D01*
X149966982Y-92650559D01*
X149974143Y-92647997D01*
X149981521Y-92646149D01*
X149989044Y-92645033D01*
X149996640Y-92644660D01*
X150151640Y-92644660D01*
X150159236Y-92645033D01*
G37*
G04 #@! TD.AperFunction*
G04 #@! TA.AperFunction,SMDPad,CuDef*
G36*
X157943172Y-91153657D02*
G01*
X157961665Y-91156400D01*
X157979799Y-91160943D01*
X157997401Y-91167241D01*
X158014301Y-91175234D01*
X158030336Y-91184845D01*
X158045352Y-91195982D01*
X158059204Y-91208536D01*
X158071758Y-91222388D01*
X158082895Y-91237404D01*
X158092506Y-91253439D01*
X158100499Y-91270339D01*
X158106797Y-91287941D01*
X158111340Y-91306075D01*
X158114083Y-91324568D01*
X158115000Y-91343240D01*
X158115000Y-91724240D01*
X158114083Y-91742912D01*
X158111340Y-91761405D01*
X158106797Y-91779539D01*
X158100499Y-91797141D01*
X158092506Y-91814041D01*
X158082895Y-91830076D01*
X158071758Y-91845092D01*
X158059204Y-91858944D01*
X158045352Y-91871498D01*
X158030336Y-91882635D01*
X158014301Y-91892246D01*
X157997401Y-91900239D01*
X157979799Y-91906537D01*
X157961665Y-91911080D01*
X157943172Y-91913823D01*
X157924500Y-91914740D01*
X157035500Y-91914740D01*
X157016828Y-91913823D01*
X156998335Y-91911080D01*
X156980201Y-91906537D01*
X156962599Y-91900239D01*
X156945699Y-91892246D01*
X156929664Y-91882635D01*
X156914648Y-91871498D01*
X156900796Y-91858944D01*
X156888242Y-91845092D01*
X156877105Y-91830076D01*
X156867494Y-91814041D01*
X156859501Y-91797141D01*
X156853203Y-91779539D01*
X156848660Y-91761405D01*
X156845917Y-91742912D01*
X156845000Y-91724240D01*
X156845000Y-91343240D01*
X156845917Y-91324568D01*
X156848660Y-91306075D01*
X156853203Y-91287941D01*
X156859501Y-91270339D01*
X156867494Y-91253439D01*
X156877105Y-91237404D01*
X156888242Y-91222388D01*
X156900796Y-91208536D01*
X156914648Y-91195982D01*
X156929664Y-91184845D01*
X156945699Y-91175234D01*
X156962599Y-91167241D01*
X156980201Y-91160943D01*
X156998335Y-91156400D01*
X157016828Y-91153657D01*
X157035500Y-91152740D01*
X157924500Y-91152740D01*
X157943172Y-91153657D01*
G37*
G04 #@! TD.AperFunction*
G04 #@! TA.AperFunction,SMDPad,CuDef*
G36*
X151057036Y-92645033D02*
G01*
X151064559Y-92646149D01*
X151071937Y-92647997D01*
X151079098Y-92650559D01*
X151085973Y-92653811D01*
X151092497Y-92657721D01*
X151098605Y-92662252D01*
X151104241Y-92667359D01*
X151109348Y-92672995D01*
X151113879Y-92679103D01*
X151117789Y-92685627D01*
X151121041Y-92692502D01*
X151123603Y-92699663D01*
X151125451Y-92707041D01*
X151126567Y-92714564D01*
X151126940Y-92722160D01*
X151126940Y-92907160D01*
X151126567Y-92914756D01*
X151125451Y-92922279D01*
X151123603Y-92929657D01*
X151121041Y-92936818D01*
X151117789Y-92943693D01*
X151113879Y-92950217D01*
X151109348Y-92956325D01*
X151104241Y-92961961D01*
X151098605Y-92967068D01*
X151092497Y-92971599D01*
X151085973Y-92975509D01*
X151079098Y-92978761D01*
X151071937Y-92981323D01*
X151064559Y-92983171D01*
X151057036Y-92984287D01*
X151049440Y-92984660D01*
X150894440Y-92984660D01*
X150886844Y-92984287D01*
X150879321Y-92983171D01*
X150871943Y-92981323D01*
X150864782Y-92978761D01*
X150857907Y-92975509D01*
X150851383Y-92971599D01*
X150845275Y-92967068D01*
X150839639Y-92961961D01*
X150834532Y-92956325D01*
X150830001Y-92950217D01*
X150826091Y-92943693D01*
X150822839Y-92936818D01*
X150820277Y-92929657D01*
X150818429Y-92922279D01*
X150817313Y-92914756D01*
X150816940Y-92907160D01*
X150816940Y-92722160D01*
X150817313Y-92714564D01*
X150818429Y-92707041D01*
X150820277Y-92699663D01*
X150822839Y-92692502D01*
X150826091Y-92685627D01*
X150830001Y-92679103D01*
X150834532Y-92672995D01*
X150839639Y-92667359D01*
X150845275Y-92662252D01*
X150851383Y-92657721D01*
X150857907Y-92653811D01*
X150864782Y-92650559D01*
X150871943Y-92647997D01*
X150879321Y-92646149D01*
X150886844Y-92645033D01*
X150894440Y-92644660D01*
X151049440Y-92644660D01*
X151057036Y-92645033D01*
G37*
G04 #@! TD.AperFunction*
G04 #@! TA.AperFunction,SMDPad,CuDef*
G36*
X151607036Y-92645033D02*
G01*
X151614559Y-92646149D01*
X151621937Y-92647997D01*
X151629098Y-92650559D01*
X151635973Y-92653811D01*
X151642497Y-92657721D01*
X151648605Y-92662252D01*
X151654241Y-92667359D01*
X151659348Y-92672995D01*
X151663879Y-92679103D01*
X151667789Y-92685627D01*
X151671041Y-92692502D01*
X151673603Y-92699663D01*
X151675451Y-92707041D01*
X151676567Y-92714564D01*
X151676940Y-92722160D01*
X151676940Y-92907160D01*
X151676567Y-92914756D01*
X151675451Y-92922279D01*
X151673603Y-92929657D01*
X151671041Y-92936818D01*
X151667789Y-92943693D01*
X151663879Y-92950217D01*
X151659348Y-92956325D01*
X151654241Y-92961961D01*
X151648605Y-92967068D01*
X151642497Y-92971599D01*
X151635973Y-92975509D01*
X151629098Y-92978761D01*
X151621937Y-92981323D01*
X151614559Y-92983171D01*
X151607036Y-92984287D01*
X151599440Y-92984660D01*
X151444440Y-92984660D01*
X151436844Y-92984287D01*
X151429321Y-92983171D01*
X151421943Y-92981323D01*
X151414782Y-92978761D01*
X151407907Y-92975509D01*
X151401383Y-92971599D01*
X151395275Y-92967068D01*
X151389639Y-92961961D01*
X151384532Y-92956325D01*
X151380001Y-92950217D01*
X151376091Y-92943693D01*
X151372839Y-92936818D01*
X151370277Y-92929657D01*
X151368429Y-92922279D01*
X151367313Y-92914756D01*
X151366940Y-92907160D01*
X151366940Y-92722160D01*
X151367313Y-92714564D01*
X151368429Y-92707041D01*
X151370277Y-92699663D01*
X151372839Y-92692502D01*
X151376091Y-92685627D01*
X151380001Y-92679103D01*
X151384532Y-92672995D01*
X151389639Y-92667359D01*
X151395275Y-92662252D01*
X151401383Y-92657721D01*
X151407907Y-92653811D01*
X151414782Y-92650559D01*
X151421943Y-92647997D01*
X151429321Y-92646149D01*
X151436844Y-92645033D01*
X151444440Y-92644660D01*
X151599440Y-92644660D01*
X151607036Y-92645033D01*
G37*
G04 #@! TD.AperFunction*
G04 #@! TA.AperFunction,SMDPad,CuDef*
G36*
X157943172Y-90153657D02*
G01*
X157961665Y-90156400D01*
X157979799Y-90160943D01*
X157997401Y-90167241D01*
X158014301Y-90175234D01*
X158030336Y-90184845D01*
X158045352Y-90195982D01*
X158059204Y-90208536D01*
X158071758Y-90222388D01*
X158082895Y-90237404D01*
X158092506Y-90253439D01*
X158100499Y-90270339D01*
X158106797Y-90287941D01*
X158111340Y-90306075D01*
X158114083Y-90324568D01*
X158115000Y-90343240D01*
X158115000Y-90724240D01*
X158114083Y-90742912D01*
X158111340Y-90761405D01*
X158106797Y-90779539D01*
X158100499Y-90797141D01*
X158092506Y-90814041D01*
X158082895Y-90830076D01*
X158071758Y-90845092D01*
X158059204Y-90858944D01*
X158045352Y-90871498D01*
X158030336Y-90882635D01*
X158014301Y-90892246D01*
X157997401Y-90900239D01*
X157979799Y-90906537D01*
X157961665Y-90911080D01*
X157943172Y-90913823D01*
X157924500Y-90914740D01*
X157035500Y-90914740D01*
X157016828Y-90913823D01*
X156998335Y-90911080D01*
X156980201Y-90906537D01*
X156962599Y-90900239D01*
X156945699Y-90892246D01*
X156929664Y-90882635D01*
X156914648Y-90871498D01*
X156900796Y-90858944D01*
X156888242Y-90845092D01*
X156877105Y-90830076D01*
X156867494Y-90814041D01*
X156859501Y-90797141D01*
X156853203Y-90779539D01*
X156848660Y-90761405D01*
X156845917Y-90742912D01*
X156845000Y-90724240D01*
X156845000Y-90343240D01*
X156845917Y-90324568D01*
X156848660Y-90306075D01*
X156853203Y-90287941D01*
X156859501Y-90270339D01*
X156867494Y-90253439D01*
X156877105Y-90237404D01*
X156888242Y-90222388D01*
X156900796Y-90208536D01*
X156914648Y-90195982D01*
X156929664Y-90184845D01*
X156945699Y-90175234D01*
X156962599Y-90167241D01*
X156980201Y-90160943D01*
X156998335Y-90156400D01*
X157016828Y-90153657D01*
X157035500Y-90152740D01*
X157924500Y-90152740D01*
X157943172Y-90153657D01*
G37*
G04 #@! TD.AperFunction*
D33*
X136175340Y-110243360D03*
X136175340Y-108645700D03*
X135375240Y-108645700D03*
X139586560Y-108993680D03*
X128604020Y-113351900D03*
X127153260Y-112031520D03*
X127153260Y-111081560D03*
X128103220Y-111081560D03*
X128103220Y-112031520D03*
X137933120Y-93446780D03*
X135433120Y-88946780D03*
X134933120Y-89446780D03*
X134399657Y-90939485D03*
X134933120Y-93446780D03*
X138492720Y-86986380D03*
X134355320Y-88941980D03*
X138433120Y-91946780D03*
X135933120Y-88946780D03*
D34*
X138433120Y-91446780D03*
D33*
X139813520Y-88535780D03*
X154462765Y-92794515D03*
X156065940Y-92960340D03*
X125708000Y-113220231D03*
X132974940Y-112643660D03*
X129057396Y-94053660D03*
X124665480Y-110272960D03*
X150074140Y-92814686D03*
X139372080Y-111395640D03*
X129837199Y-87478720D03*
X132189220Y-89197180D03*
X129835140Y-90221340D03*
X141076680Y-112030640D03*
X136731178Y-113086042D03*
X135101246Y-113386750D03*
D34*
X127866140Y-107143680D03*
D33*
X130307080Y-105195500D03*
D34*
X128663700Y-107545000D03*
X129064920Y-107544900D03*
D33*
X129509520Y-108543220D03*
X130296920Y-107887900D03*
X126154780Y-103144441D03*
X127076200Y-103938200D03*
X125483620Y-108647360D03*
D34*
X123992640Y-102825680D03*
D33*
X140596620Y-93426280D03*
X133774780Y-109444440D03*
X134574780Y-108645340D03*
X155710000Y-89020000D03*
X130300000Y-104040000D03*
X129690000Y-95860000D03*
X139590000Y-94100000D03*
X128620000Y-105380000D03*
X135733380Y-111449860D03*
X129834200Y-92501020D03*
X150565940Y-90510340D03*
X152524947Y-89665547D03*
X135375240Y-111043460D03*
X134575140Y-109443260D03*
X135375240Y-109443260D03*
X136975440Y-108645700D03*
X133775040Y-107845600D03*
X125835000Y-111881660D03*
X129424020Y-111881660D03*
X137775540Y-111043460D03*
X134914120Y-87335382D03*
X134933120Y-92946780D03*
X134933120Y-88946780D03*
X139153120Y-88535780D03*
X138433120Y-92446780D03*
X129933700Y-91902280D03*
X130985120Y-93101020D03*
X141076680Y-109490640D03*
X131693920Y-104098220D03*
D34*
X128264920Y-106744900D03*
D33*
X129585720Y-106744900D03*
X137182127Y-94267757D03*
X131220000Y-95510000D03*
X134575140Y-111043460D03*
X134575140Y-110243360D03*
X134575140Y-107845600D03*
X138171780Y-110504980D03*
X132042760Y-113479311D03*
X131782420Y-111437040D03*
X139153120Y-87011780D03*
X129890000Y-103730000D03*
X129260000Y-96590000D03*
X126652880Y-113352320D03*
X137933120Y-89446780D03*
X135433120Y-88446780D03*
X138433120Y-92946780D03*
X137868520Y-86928980D03*
X152524940Y-92265540D03*
X131033520Y-92501720D03*
X149524140Y-92814670D03*
X130880140Y-90266340D03*
X134086600Y-104225220D03*
D34*
X129064920Y-106344900D03*
D33*
X124664780Y-108069409D03*
D34*
X129064920Y-105944900D03*
D33*
X130307080Y-106085500D03*
X137434545Y-93445355D03*
X132524800Y-92135840D03*
X140648200Y-89450180D03*
X134090000Y-96770000D03*
X151970000Y-90630000D03*
X136933120Y-88446780D03*
D34*
X128264920Y-106343580D03*
D33*
X128150620Y-104781200D03*
X127894080Y-105386000D03*
D34*
X127064920Y-107544900D03*
X128663700Y-106744900D03*
D33*
X129527980Y-104954200D03*
X150971944Y-92814656D03*
X152524943Y-90315537D03*
X148434389Y-89205085D03*
X149539338Y-91240000D03*
X152091100Y-92799400D03*
X156214775Y-89662158D03*
X134377920Y-88387780D03*
X135433120Y-90946780D03*
X135433120Y-92946780D03*
X138433120Y-90946780D03*
X127303120Y-109760760D03*
X127953360Y-109760760D03*
X127303120Y-113352320D03*
X128603600Y-109760760D03*
X124910440Y-109290860D03*
X124384669Y-112463320D03*
X152525440Y-91615760D03*
X130934460Y-91902280D03*
X129834640Y-89019097D03*
X148460460Y-91173400D03*
X139981940Y-90954860D03*
X149219998Y-89330000D03*
X132080000Y-87177880D03*
X141719300Y-90772080D03*
X130434200Y-91902160D03*
X129834640Y-89420700D03*
X140406214Y-89868693D03*
X152524953Y-90965553D03*
X148460000Y-90370000D03*
X140459320Y-86522580D03*
X139687537Y-90455515D03*
X137933120Y-92446780D03*
X132700000Y-93820000D03*
X135775300Y-112242220D03*
X133775040Y-110243360D03*
X138575640Y-112643660D03*
X137770460Y-112643660D03*
D34*
X128663700Y-106343580D03*
D33*
X128978660Y-104954200D03*
X148846540Y-92585540D03*
X151930000Y-89119999D03*
X132854700Y-91211400D03*
X135433120Y-90446780D03*
X140510000Y-95740000D03*
X140315633Y-95267431D03*
X137933120Y-89946780D03*
X139330000Y-95660000D03*
X137933120Y-90446780D03*
X138290000Y-95840000D03*
X136174480Y-105444420D03*
X139301220Y-103872160D03*
X136471520Y-87868780D03*
X137774680Y-107844720D03*
X137683240Y-103884860D03*
X137780002Y-95820000D03*
X135933120Y-91446780D03*
X132974080Y-106244520D03*
X137294620Y-104390320D03*
X137280000Y-95870000D03*
X135933120Y-89446780D03*
X138574780Y-107044620D03*
X136885680Y-103879780D03*
X136746636Y-95670000D03*
X135933120Y-91946780D03*
X136489440Y-104372540D03*
X132575300Y-105025320D03*
X136370002Y-95980000D03*
X135933120Y-89946780D03*
X137375900Y-107445940D03*
X136093200Y-103887400D03*
X135879840Y-95724980D03*
X135433120Y-91946780D03*
X135691880Y-104390320D03*
X132173980Y-105444420D03*
X135400000Y-95860000D03*
X135433120Y-89946780D03*
X138770000Y-95650000D03*
X130434080Y-93101160D03*
D34*
X127866140Y-107545000D03*
D33*
X129057404Y-109424600D03*
X134482320Y-91475572D03*
X135374780Y-107844440D03*
X131287520Y-104517320D03*
X135433120Y-91446780D03*
X132092700Y-95897700D03*
D34*
X128264920Y-107143680D03*
D33*
X131721860Y-93858080D03*
X133814820Y-90947240D03*
X133111240Y-95948500D03*
X134081520Y-92638880D03*
X133697980Y-103783260D03*
X131775200Y-106643300D03*
X135433120Y-92446780D03*
X134493000Y-103783260D03*
X132173980Y-108644820D03*
X134050000Y-95810000D03*
X136974580Y-107044620D03*
X134886700Y-104225220D03*
X134491641Y-94402999D03*
X135915510Y-92446780D03*
X135293100Y-103778180D03*
X131373880Y-107044620D03*
X134880000Y-95750000D03*
X125059440Y-103425120D03*
X130683000Y-111601380D03*
X131772660Y-109041060D03*
X132572760Y-109041060D03*
X141077300Y-110762060D03*
X132973820Y-105444420D03*
X125834020Y-110581900D03*
D34*
X127464920Y-106744900D03*
D33*
X132974780Y-107044456D03*
X129422900Y-110582840D03*
X133773920Y-107044620D03*
X129424020Y-112531900D03*
X133775040Y-111043460D03*
X125835000Y-112531900D03*
X132173580Y-112643540D03*
X133775040Y-112643660D03*
X125835000Y-111231420D03*
D35*
X114815000Y-95735000D02*
X124815000Y-95735000D01*
X114815000Y-94060000D02*
X124815000Y-94060000D01*
X114815000Y-92410000D02*
X124815000Y-92410000D01*
X114815000Y-90785000D02*
X124815000Y-90785000D01*
X114815000Y-89135000D02*
X124815000Y-89135000D01*
X114815000Y-87385000D02*
X124815000Y-87385000D01*
X154400000Y-72000000D02*
X154400000Y-82700000D01*
X156100000Y-72000000D02*
X156100000Y-82700000D01*
X157700000Y-72000000D02*
X157700000Y-82700000D01*
X159300000Y-72000000D02*
X159300000Y-82700000D01*
X152800000Y-72000000D02*
X152800000Y-82700000D01*
X151100000Y-72000000D02*
X151100000Y-82700000D01*
X149500000Y-72000000D02*
X149500000Y-82700000D01*
X147800000Y-72000000D02*
X147800000Y-82700000D01*
X146100000Y-72000000D02*
X146100000Y-82700000D01*
X144500000Y-72000000D02*
X144500000Y-82700000D01*
X142800000Y-72000000D02*
X142800000Y-82700000D01*
X141200000Y-72000000D02*
X141200000Y-82700000D01*
X139600000Y-72000000D02*
X139600000Y-82700000D01*
X137900000Y-72000000D02*
X137900000Y-82700000D01*
X136200000Y-72000000D02*
X136200000Y-82700000D01*
X134600000Y-72000000D02*
X134600000Y-82700000D01*
X132900000Y-72000000D02*
X132900000Y-82700000D01*
X131300000Y-72000000D02*
X131300000Y-82700000D01*
X124700000Y-72000000D02*
X124700000Y-82700000D01*
X123100000Y-72000000D02*
X123100000Y-82700000D01*
X121400000Y-72000000D02*
X121400000Y-82700000D01*
X119700000Y-72000000D02*
X119700000Y-82700000D01*
X118100000Y-72000000D02*
X118100000Y-82700000D01*
X116500000Y-72000000D02*
X116500000Y-82700000D01*
X126300000Y-72000000D02*
X126300000Y-82700000D01*
X128100000Y-72000000D02*
X128100000Y-82700000D01*
X129700000Y-72000000D02*
X129700000Y-82700000D01*
D36*
X136174780Y-110244440D02*
X136174780Y-110243920D01*
X136174780Y-110243920D02*
X136175340Y-110243360D01*
X136174780Y-108644440D02*
X136174780Y-108645140D01*
X136174780Y-108645140D02*
X136175340Y-108645700D01*
X135374780Y-108644440D02*
X135374780Y-108645240D01*
X135374780Y-108645240D02*
X135375240Y-108645700D01*
X134574780Y-108645340D02*
X134575140Y-108645700D01*
X125714780Y-113544441D02*
X125703839Y-113544441D01*
X126500480Y-103490141D02*
X126154780Y-103144441D01*
X134911320Y-93484380D02*
X135419320Y-93484380D01*
X134890320Y-89489580D02*
X134933120Y-89446780D01*
X134936720Y-89471180D02*
X134911320Y-89471180D01*
X139813520Y-89047980D02*
X139534120Y-89327380D01*
X138437520Y-88154780D02*
X138492720Y-88099580D01*
X138825120Y-87767180D02*
X139374320Y-87767180D01*
X139534120Y-89445780D02*
X139529720Y-89450180D01*
X138437520Y-89450180D02*
X138437520Y-88154780D01*
X134890320Y-90948780D02*
X134408952Y-90948780D01*
X138492720Y-88099580D02*
X138825120Y-87767180D01*
X136414320Y-89450180D02*
X136414320Y-88782780D01*
X139374320Y-87767180D02*
X139813520Y-88206380D01*
X137933120Y-93446780D02*
X137933120Y-93000980D01*
X137933120Y-93000980D02*
X137912920Y-92980780D01*
X136414320Y-88782780D02*
X136223320Y-88591780D01*
X134408952Y-90948780D02*
X134399657Y-90939485D01*
X139813520Y-88206380D02*
X139813520Y-88531380D01*
X139813520Y-88535780D02*
X139813520Y-89047980D01*
X139534120Y-89327380D02*
X139534120Y-89445780D01*
X154698270Y-91425070D02*
X154994010Y-91425070D01*
X154488340Y-91215140D02*
X154698270Y-91425070D01*
X154994010Y-92263270D02*
X154637764Y-92619516D01*
X154637764Y-92619516D02*
X154462765Y-92794515D01*
X154994010Y-91425070D02*
X154994010Y-92263270D01*
X150725140Y-90992460D02*
X150725140Y-90592460D01*
X156065940Y-92712853D02*
X156065940Y-92960340D01*
X156065940Y-92374740D02*
X156065940Y-92712853D01*
D37*
X129054800Y-94056256D02*
X129057396Y-94053660D01*
X129054800Y-95135840D02*
X129054800Y-94056256D01*
D35*
X136175340Y-109445000D02*
X136174780Y-109444440D01*
X124664780Y-110269441D02*
X124664780Y-110272260D01*
X124664780Y-110272260D02*
X124665480Y-110272960D01*
X136174780Y-108646260D02*
X136175340Y-108645700D01*
X136174780Y-109444440D02*
X136174780Y-108646260D01*
D36*
X150518840Y-92524960D02*
X150518840Y-91959769D01*
X150518840Y-91959769D02*
X150518840Y-91712282D01*
X150074140Y-92814660D02*
X150229140Y-92814660D01*
X150229140Y-92814660D02*
X150518840Y-92524960D01*
D38*
X129835140Y-87480779D02*
X129837199Y-87478720D01*
X129835140Y-88621340D02*
X129835140Y-87480779D01*
D35*
X129835140Y-88621340D02*
X130435140Y-88621340D01*
X130435140Y-88621340D02*
X130480140Y-88576340D01*
X132189220Y-88858938D02*
X132189220Y-89197180D01*
X132189220Y-89197180D02*
X132189220Y-89540080D01*
X131525140Y-88621340D02*
X131951622Y-88621340D01*
X131951622Y-88621340D02*
X132189220Y-88858938D01*
X132189220Y-89540080D02*
X131907960Y-89821340D01*
X131907960Y-89821340D02*
X131525140Y-89821340D01*
X130435140Y-90221340D02*
X130480140Y-90266340D01*
X130480140Y-90266340D02*
X130480140Y-91001540D01*
X130480140Y-91001540D02*
X130390540Y-91091140D01*
X129835140Y-90221340D02*
X130435140Y-90221340D01*
X129835140Y-89821340D02*
X129835140Y-90221340D01*
D36*
X141077300Y-112032060D02*
X141077300Y-112031260D01*
X141077300Y-112031260D02*
X141076680Y-112030640D01*
X140521920Y-92873980D02*
X140521920Y-93351580D01*
X140521920Y-93351580D02*
X140596620Y-93426280D01*
X137208260Y-95131620D02*
X137218420Y-95121460D01*
X136240520Y-95131620D02*
X137208260Y-95131620D01*
X138191240Y-95121460D02*
X138206480Y-95136700D01*
X137218420Y-95121460D02*
X138191240Y-95121460D01*
X139356320Y-94301860D02*
X139356320Y-94092580D01*
X138521480Y-95136700D02*
X139356320Y-94301860D01*
X138206480Y-95136700D02*
X138521480Y-95136700D01*
X140572340Y-92873980D02*
X140521920Y-92873980D01*
X140809980Y-92636340D02*
X140572340Y-92873980D01*
X140809980Y-92008960D02*
X140809980Y-92636340D01*
X141719300Y-91572080D02*
X141246860Y-91572080D01*
X141246860Y-91572080D02*
X140809980Y-92008960D01*
D37*
X134574780Y-108644440D02*
X134574780Y-108645340D01*
D36*
X130494000Y-103846000D02*
X130300000Y-104040000D01*
X130494000Y-102901880D02*
X130494000Y-103846000D01*
X130494000Y-96294000D02*
X130494000Y-96774000D01*
X129054800Y-95135840D02*
X129335840Y-95135840D01*
X129937487Y-95860000D02*
X129690000Y-95860000D01*
X130054322Y-95860000D02*
X129937487Y-95860000D01*
X130494000Y-96299678D02*
X130054322Y-95860000D01*
X130494000Y-96774000D02*
X130494000Y-96299678D01*
D38*
X139356320Y-94092580D02*
X139582580Y-94092580D01*
X139582580Y-94092580D02*
X139590000Y-94100000D01*
X136138800Y-111044440D02*
X135733380Y-111449860D01*
X136174780Y-111044440D02*
X136138800Y-111044440D01*
X137337134Y-92980780D02*
X137757920Y-92980780D01*
X136896920Y-93420994D02*
X137337134Y-92980780D01*
X137757920Y-92980780D02*
X137912920Y-92980780D01*
X136896920Y-93437980D02*
X136896920Y-93420994D01*
X129054800Y-92135840D02*
X129469020Y-92135840D01*
X129469020Y-92135840D02*
X129834200Y-92501020D01*
D36*
X149373200Y-90736800D02*
X149682560Y-90736800D01*
X149160000Y-90950000D02*
X149373200Y-90736800D01*
X149160000Y-91350000D02*
X149160000Y-90950000D01*
X148460460Y-91573400D02*
X148936600Y-91573400D01*
X148936600Y-91573400D02*
X149160000Y-91350000D01*
X149682560Y-90736800D02*
X149682560Y-90236800D01*
X150522560Y-90736800D02*
X149682560Y-90736800D01*
D37*
X152524940Y-89665540D02*
X152524947Y-89665547D01*
D36*
X134574780Y-109444440D02*
X134574780Y-109443620D01*
X134574780Y-109443620D02*
X134575140Y-109443260D01*
X135374780Y-109444440D02*
X135374780Y-109443720D01*
X135374780Y-109443720D02*
X135375240Y-109443260D01*
X136974780Y-108644440D02*
X136974780Y-108645040D01*
X136974780Y-108645040D02*
X136975440Y-108645700D01*
X133774780Y-107844440D02*
X133774780Y-107845340D01*
X133774780Y-107845340D02*
X133775040Y-107845600D01*
X137774780Y-111044440D02*
X137774780Y-111044220D01*
X137774780Y-111044220D02*
X137775540Y-111043460D01*
D37*
X134914120Y-88927780D02*
X134933120Y-88946780D01*
D36*
X138979720Y-89242580D02*
X138979720Y-89450180D01*
X139153120Y-89069180D02*
X138979720Y-89242580D01*
X139153120Y-88535780D02*
X139153120Y-89069180D01*
X134936720Y-88921180D02*
X134936720Y-87357982D01*
D37*
X134936720Y-87357982D02*
X134914120Y-87335382D01*
D36*
X141077300Y-109492060D02*
X141077300Y-109491260D01*
X141077300Y-109491260D02*
X141076680Y-109490640D01*
X131694000Y-102901880D02*
X131694000Y-104098140D01*
X131694000Y-104098140D02*
X131693920Y-104098220D01*
X131694000Y-96774000D02*
X131694000Y-95984000D01*
X131694000Y-95984000D02*
X131220000Y-95510000D01*
X134574780Y-111044440D02*
X134574780Y-111043820D01*
X134574780Y-111043820D02*
X134575140Y-111043460D01*
X134574780Y-110244440D02*
X134574780Y-110243720D01*
X134574780Y-110243720D02*
X134575140Y-110243360D01*
X134574780Y-107844440D02*
X134574780Y-107845240D01*
X134574780Y-107845240D02*
X134575140Y-107845600D01*
X138034620Y-110642140D02*
X138171780Y-110504980D01*
X136974780Y-111044440D02*
X137377080Y-110642140D01*
X137377080Y-110642140D02*
X138034620Y-110642140D01*
X138492720Y-86431980D02*
X138884120Y-86431980D01*
X138884120Y-86431980D02*
X139163520Y-86711380D01*
X130094000Y-102901880D02*
X130094000Y-103554280D01*
X130094000Y-103554280D02*
X129918280Y-103730000D01*
X129918280Y-103730000D02*
X129890000Y-103730000D01*
X129444000Y-96774000D02*
X129434999Y-96764999D01*
X129434999Y-96764999D02*
X129260000Y-96590000D01*
X130094000Y-96774000D02*
X129444000Y-96774000D01*
X135419320Y-88408780D02*
X135444720Y-88434180D01*
X138433120Y-93433580D02*
X138462920Y-93463380D01*
X138433120Y-92946780D02*
X138433120Y-93433580D01*
X137663320Y-86995180D02*
X137663320Y-86701780D01*
X138492720Y-87549580D02*
X138217720Y-87549580D01*
X138217720Y-87549580D02*
X137663320Y-86995180D01*
X135419320Y-87515380D02*
X135419320Y-88408780D01*
X124969699Y-108069441D02*
X124970140Y-108069000D01*
X124664780Y-108069441D02*
X124969699Y-108069441D01*
X149678840Y-92237300D02*
X149678840Y-92659970D01*
X149678840Y-92659970D02*
X149524140Y-92814670D01*
D35*
X130880140Y-90266340D02*
X131480140Y-90266340D01*
X130940540Y-91091140D02*
X130940540Y-90326740D01*
X131480140Y-90266340D02*
X131525140Y-90221340D01*
X130940540Y-90326740D02*
X130880140Y-90266340D01*
D36*
X134094000Y-104217820D02*
X134086600Y-104225220D01*
X134094000Y-102901880D02*
X134094000Y-104217820D01*
X124664780Y-108069441D02*
X124664780Y-108069409D01*
X138206480Y-93719820D02*
X138462920Y-93463380D01*
X138206480Y-94246700D02*
X138206480Y-93719820D01*
X132524620Y-92135840D02*
X132524800Y-92135840D01*
X140626320Y-89454580D02*
X140621920Y-89450180D01*
X141143820Y-89972080D02*
X140621920Y-89450180D01*
X141719300Y-89972080D02*
X141143820Y-89972080D01*
D38*
X140621920Y-89450180D02*
X140648200Y-89450180D01*
D36*
X134094000Y-96774000D02*
X134090000Y-96770000D01*
X151863200Y-90736800D02*
X151970000Y-90630000D01*
X151362560Y-90736800D02*
X151863200Y-90736800D01*
X140473920Y-93925880D02*
X140473920Y-93975780D01*
X140171920Y-92873980D02*
X140171920Y-93623880D01*
X140171920Y-93623880D02*
X140473920Y-93925880D01*
X136964320Y-89450180D02*
X136964320Y-88477980D01*
X136964320Y-88477980D02*
X136933120Y-88446780D01*
X138574780Y-111044440D02*
X138574780Y-111044320D01*
X138574780Y-111044320D02*
X138575640Y-111043460D01*
X149678840Y-91737300D02*
X149678808Y-91737300D01*
X149682560Y-92233580D02*
X149682560Y-91736800D01*
X149678840Y-92237300D02*
X149682560Y-92233580D01*
X148460460Y-89973400D02*
X148460460Y-89231156D01*
X148460460Y-89231156D02*
X148434389Y-89205085D01*
X149682560Y-91236800D02*
X149542538Y-91236800D01*
X149542538Y-91236800D02*
X149539338Y-91240000D01*
X151362560Y-92655280D02*
X151521940Y-92814660D01*
X151362560Y-91736800D02*
X151362560Y-92655280D01*
X151940000Y-91560000D02*
X151616800Y-91236800D01*
X152091100Y-92799400D02*
X151940000Y-92648300D01*
X151616800Y-91236800D02*
X151362560Y-91236800D01*
X151940000Y-92648300D02*
X151940000Y-91560000D01*
X133952491Y-88660609D02*
X134225320Y-88387780D01*
X134225320Y-88387780D02*
X134377920Y-88387780D01*
X135433120Y-90946780D02*
X135087310Y-90600970D01*
X135087310Y-90600970D02*
X135087310Y-90577224D01*
X135087310Y-90577224D02*
X133952491Y-89442405D01*
X133952491Y-89442405D02*
X133952491Y-88660609D01*
X135172760Y-94393060D02*
X135172760Y-94935040D01*
X135433120Y-90946780D02*
X135423386Y-90946780D01*
X134490320Y-93710620D02*
X135172760Y-94393060D01*
X134490320Y-92796380D02*
X134490320Y-93710620D01*
X134922120Y-91448046D02*
X134922120Y-92364580D01*
X135423386Y-90946780D02*
X134922120Y-91448046D01*
X134922120Y-92364580D02*
X134490320Y-92796380D01*
D38*
X135547100Y-94935040D02*
X136240520Y-94241620D01*
X135172760Y-94935040D02*
X135547100Y-94935040D01*
X135609896Y-92946780D02*
X135433120Y-92946780D01*
X136240520Y-93577404D02*
X135609896Y-92946780D01*
X136240520Y-94241620D02*
X136240520Y-93577404D01*
D37*
X139356320Y-92732580D02*
X139356320Y-91588380D01*
X138714720Y-90946780D02*
X139356320Y-91588380D01*
X138433120Y-90946780D02*
X138714720Y-90946780D01*
D36*
X140372320Y-92198580D02*
X140346920Y-92223980D01*
X140372320Y-91484580D02*
X140372320Y-92198580D01*
X140012420Y-90016880D02*
X140510120Y-90514580D01*
X140071920Y-89450180D02*
X140012420Y-89509680D01*
X140012420Y-89509680D02*
X140012420Y-90016880D01*
X125317180Y-104769441D02*
X124664780Y-104769441D01*
X125379457Y-104831718D02*
X125317180Y-104769441D01*
X125379457Y-107837097D02*
X125379457Y-104831718D01*
X127303120Y-109760760D02*
X125379457Y-107837097D01*
X124034319Y-104129580D02*
X123889360Y-104274539D01*
X124012380Y-105869441D02*
X124664780Y-105869441D01*
X125154142Y-104129580D02*
X124034319Y-104129580D01*
X123889360Y-104274539D02*
X123889360Y-105746421D01*
X125633468Y-104608906D02*
X125154142Y-104129580D01*
X123889360Y-105746421D02*
X124012380Y-105869441D01*
X125633468Y-107440868D02*
X125633468Y-104608906D01*
X127953360Y-109760760D02*
X125633468Y-107440868D01*
X127128121Y-113177321D02*
X127303120Y-113352320D01*
X126396340Y-112445540D02*
X127128121Y-113177321D01*
X124904499Y-111369441D02*
X125380340Y-110893600D01*
X126396340Y-110512600D02*
X126396340Y-112445540D01*
X125662280Y-110167160D02*
X126050900Y-110167160D01*
X124664780Y-111369441D02*
X124904499Y-111369441D01*
X125380340Y-110893600D02*
X125380340Y-110449100D01*
X126050900Y-110167160D02*
X126396340Y-110512600D01*
X125380340Y-110449100D02*
X125662280Y-110167160D01*
X125877318Y-104493532D02*
X125259355Y-103875569D01*
X123635349Y-106592410D02*
X124012380Y-106969441D01*
X125259355Y-103875569D02*
X123929106Y-103875569D01*
X128603600Y-109760760D02*
X125877318Y-107034478D01*
X123635349Y-104169326D02*
X123635349Y-106592410D01*
X125877318Y-107034478D02*
X125877318Y-104493532D01*
X124012380Y-106969441D02*
X124664780Y-106969441D01*
X123929106Y-103875569D02*
X123635349Y-104169326D01*
X124658659Y-112463320D02*
X124632156Y-112463320D01*
X124632156Y-112463320D02*
X124384669Y-112463320D01*
X124664780Y-112469441D02*
X124658659Y-112463320D01*
D37*
X152524940Y-91615540D02*
X152525220Y-91615540D01*
X152525220Y-91615540D02*
X152525440Y-91615760D01*
D38*
X129835140Y-89021340D02*
X129835140Y-89019597D01*
X129835140Y-89019597D02*
X129834640Y-89019097D01*
D36*
X141066900Y-91172080D02*
X141719300Y-91172080D01*
X140890320Y-90995500D02*
X141066900Y-91172080D01*
X139981940Y-90954860D02*
X140022580Y-90995500D01*
X140022580Y-90995500D02*
X140890320Y-90995500D01*
D38*
X130965940Y-87763740D02*
X131494140Y-87763740D01*
X131494140Y-87763740D02*
X132080000Y-87177880D01*
D36*
X149170000Y-90580000D02*
X149170000Y-89950000D01*
X148460460Y-90773400D02*
X148976600Y-90773400D01*
X149383200Y-89736800D02*
X149682560Y-89736800D01*
X149170000Y-89950000D02*
X149383200Y-89736800D01*
X148976600Y-90773400D02*
X149170000Y-90580000D01*
X151123160Y-89210000D02*
X151362560Y-89449400D01*
X151362560Y-89449400D02*
X151362560Y-89736800D01*
X149921960Y-89210000D02*
X151123160Y-89210000D01*
X149682560Y-89736800D02*
X149682560Y-89449400D01*
X149682560Y-89449400D02*
X149921960Y-89210000D01*
D38*
X129835140Y-89421340D02*
X129835140Y-89421200D01*
X129835140Y-89421200D02*
X129834640Y-89420700D01*
D36*
X141184596Y-90372080D02*
X141719300Y-90372080D01*
X140681209Y-89868693D02*
X141184596Y-90372080D01*
X140406214Y-89868693D02*
X140681209Y-89868693D01*
D37*
X152524940Y-90965540D02*
X152524953Y-90965553D01*
D36*
X148460460Y-90373400D02*
X148460460Y-90370460D01*
X148460460Y-90370460D02*
X148460000Y-90370000D01*
X156520340Y-90965540D02*
X157206140Y-90279740D01*
X156194940Y-90965540D02*
X156520340Y-90965540D01*
X157510940Y-91600540D02*
X157282340Y-91600540D01*
X157144940Y-91615540D02*
X157206140Y-91676740D01*
X156194940Y-91615540D02*
X157144940Y-91615540D01*
X140463520Y-86711380D02*
X140463520Y-88211180D01*
X140463520Y-86711380D02*
X140463520Y-86526780D01*
X140463520Y-86526780D02*
X140459320Y-86522580D01*
D38*
X130415940Y-87780726D02*
X130415940Y-87763740D01*
X130880140Y-88244926D02*
X130415940Y-87780726D01*
X130880140Y-88576340D02*
X130880140Y-88244926D01*
D36*
X135419320Y-86965380D02*
X135959720Y-86965380D01*
X135959720Y-86965380D02*
X136223320Y-86701780D01*
X137663320Y-88591780D02*
X137554710Y-88700390D01*
X137554710Y-92068370D02*
X137933120Y-92446780D01*
X137554710Y-88700390D02*
X137554710Y-92068370D01*
D35*
X131525140Y-89021340D02*
X131525140Y-89421340D01*
D38*
X133815040Y-94935040D02*
X132700000Y-93820000D01*
X133842760Y-94935040D02*
X133815040Y-94935040D01*
D36*
X135777960Y-112244880D02*
X135775300Y-112242220D01*
X136358760Y-112244880D02*
X135777960Y-112244880D01*
X136974780Y-111844440D02*
X136759200Y-111844440D01*
X136759200Y-111844440D02*
X136358760Y-112244880D01*
X133774780Y-110244440D02*
X133774780Y-110243620D01*
X133774780Y-110243620D02*
X133775040Y-110243360D01*
X138574780Y-112644440D02*
X138574860Y-112644440D01*
X138574860Y-112644440D02*
X138575640Y-112643660D01*
X137774780Y-112644440D02*
X137771240Y-112644440D01*
X137771240Y-112644440D02*
X137770460Y-112643660D01*
X140494000Y-103967660D02*
X140494000Y-102901880D01*
X140494000Y-104978080D02*
X140494000Y-103967660D01*
X139311380Y-106160700D02*
X140494000Y-104978080D01*
X138574780Y-108644440D02*
X139311380Y-107907840D01*
X139311380Y-107907840D02*
X139311380Y-106160700D01*
X148460460Y-91973400D02*
X148460460Y-92199460D01*
X148460460Y-92199460D02*
X148846540Y-92585540D01*
X151930000Y-89367486D02*
X151930000Y-89119999D01*
X151930000Y-89990000D02*
X151930000Y-89367486D01*
X151362560Y-90236800D02*
X151683200Y-90236800D01*
X151683200Y-90236800D02*
X151930000Y-89990000D01*
X140094000Y-103554280D02*
X140094000Y-102901880D01*
X140094000Y-104821390D02*
X140094000Y-103554280D01*
X138670950Y-106244440D02*
X140094000Y-104821390D01*
X138574780Y-106244440D02*
X138670950Y-106244440D01*
X140335001Y-95914999D02*
X140510000Y-95740000D01*
X140094000Y-96774000D02*
X140094000Y-96156000D01*
X140094000Y-96156000D02*
X140335001Y-95914999D01*
X139694000Y-103554280D02*
X139694000Y-102901880D01*
X139694000Y-104862166D02*
X139694000Y-103554280D01*
X138748925Y-105807241D02*
X139694000Y-104862166D01*
X138412619Y-105807241D02*
X138748925Y-105807241D01*
X136974780Y-106244440D02*
X137378720Y-106648380D01*
X137982184Y-106648380D02*
X138170920Y-106459644D01*
X138170920Y-106459644D02*
X138170920Y-106048940D01*
X137378720Y-106648380D02*
X137982184Y-106648380D01*
X138170920Y-106048940D02*
X138412619Y-105807241D01*
X139694920Y-96773080D02*
X139694000Y-96774000D01*
X140140634Y-95442430D02*
X140315633Y-95267431D01*
X139694000Y-96196775D02*
X140140634Y-95750141D01*
X139694000Y-96774000D02*
X139694000Y-96196775D01*
X140140634Y-95750141D02*
X140140634Y-95442430D01*
X138894000Y-103554280D02*
X138894000Y-102901880D01*
X138894000Y-104558780D02*
X138894000Y-103554280D01*
X137381160Y-105850820D02*
X137952480Y-105850820D01*
X136974780Y-105444440D02*
X137381160Y-105850820D01*
X138168380Y-105634920D02*
X138168380Y-105284400D01*
X137952480Y-105850820D02*
X138168380Y-105634920D01*
X138168380Y-105284400D02*
X138894000Y-104558780D01*
X139330000Y-95739225D02*
X139330000Y-95660000D01*
X138894000Y-96774000D02*
X138894000Y-96175225D01*
X138894000Y-96175225D02*
X139330000Y-95739225D01*
X138094000Y-104594240D02*
X138089640Y-104598600D01*
X138094000Y-102901880D02*
X138094000Y-104594240D01*
X137945119Y-104743121D02*
X138094000Y-104594240D01*
X136339153Y-104743121D02*
X137945119Y-104743121D01*
X135811979Y-106607241D02*
X135811979Y-105270295D01*
X135811979Y-105270295D02*
X136339153Y-104743121D01*
X135374780Y-107044440D02*
X135811979Y-106607241D01*
X138094000Y-96036000D02*
X138290000Y-95840000D01*
X138094000Y-96774000D02*
X138094000Y-96036000D01*
X136174780Y-105444440D02*
X136174500Y-105444440D01*
X136174500Y-105444440D02*
X136174480Y-105444420D01*
X139294000Y-103864940D02*
X139301220Y-103872160D01*
X139294000Y-102901880D02*
X139294000Y-103864940D01*
X139294000Y-96237550D02*
X139294000Y-96774000D01*
X139820000Y-95711550D02*
X139294000Y-96237550D01*
X140473920Y-94525780D02*
X140303920Y-94525780D01*
X139820000Y-95009700D02*
X139820000Y-95711550D01*
X140303920Y-94525780D02*
X139820000Y-95009700D01*
X137774780Y-107844440D02*
X137774780Y-107844620D01*
X137774780Y-107844620D02*
X137774680Y-107844720D01*
X137694000Y-102901880D02*
X137694000Y-103874100D01*
X137694000Y-103874100D02*
X137683240Y-103884860D01*
X137694000Y-96774000D02*
X137694000Y-95906002D01*
X137694000Y-95906002D02*
X137780002Y-95820000D01*
X132974780Y-106244440D02*
X132974160Y-106244440D01*
X132974160Y-106244440D02*
X132974080Y-106244520D01*
X137294000Y-102901880D02*
X137294000Y-104389700D01*
X137294000Y-104389700D02*
X137294620Y-104390320D01*
X137294000Y-96774000D02*
X137294000Y-95884000D01*
X137294000Y-95884000D02*
X137280000Y-95870000D01*
X138574780Y-107044440D02*
X138574780Y-107044620D01*
X136894000Y-102901880D02*
X136894000Y-103871460D01*
X136894000Y-103871460D02*
X136885680Y-103879780D01*
X136894000Y-96774000D02*
X136894000Y-95817364D01*
X136894000Y-95817364D02*
X136746636Y-95670000D01*
X136494000Y-102901880D02*
X136494000Y-104367980D01*
X136494000Y-104367980D02*
X136489440Y-104372540D01*
X132174780Y-106244440D02*
X132575300Y-105843920D01*
X132575300Y-105843920D02*
X132575300Y-105025320D01*
X136494000Y-96774000D02*
X136494000Y-96103998D01*
X136494000Y-96103998D02*
X136370002Y-95980000D01*
X137774780Y-109444440D02*
X137375900Y-109045560D01*
X137375900Y-109045560D02*
X137375900Y-107445940D01*
X136094000Y-102901880D02*
X136094000Y-103886600D01*
X136094000Y-103886600D02*
X136093200Y-103887400D01*
X136094000Y-96266148D02*
X135879840Y-96051988D01*
X135879840Y-96051988D02*
X135879840Y-95724980D01*
X136094000Y-96774000D02*
X136094000Y-96266148D01*
X135694000Y-102901880D02*
X135694000Y-104388200D01*
X135694000Y-104388200D02*
X135691880Y-104390320D01*
X132174780Y-105444440D02*
X132174000Y-105444440D01*
X132174000Y-105444440D02*
X132173980Y-105444420D01*
X135574999Y-96654999D02*
X135574999Y-96034999D01*
X135574999Y-96034999D02*
X135400000Y-95860000D01*
X135694000Y-96774000D02*
X135574999Y-96654999D01*
X138494000Y-103945320D02*
X138488420Y-103950900D01*
X138494000Y-102901880D02*
X138494000Y-103945320D01*
X138488420Y-104198387D02*
X138488420Y-103950900D01*
X138488420Y-104559044D02*
X138488420Y-104198387D01*
X136903709Y-104997131D02*
X138050334Y-104997130D01*
X136611979Y-105288861D02*
X136903709Y-104997131D01*
X136611979Y-105807241D02*
X136611979Y-105288861D01*
X138050334Y-104997130D02*
X138488420Y-104559044D01*
X136174780Y-106244440D02*
X136611979Y-105807241D01*
X138770000Y-95940000D02*
X138770000Y-95650000D01*
X138494000Y-96216000D02*
X138770000Y-95940000D01*
X138494000Y-96774000D02*
X138494000Y-96216000D01*
X129057404Y-110806364D02*
X129057404Y-109672087D01*
X130532679Y-112281639D02*
X129057404Y-110806364D01*
X132174780Y-111844440D02*
X131737581Y-112281639D01*
X131737581Y-112281639D02*
X130532679Y-112281639D01*
X129057404Y-109672087D02*
X129057404Y-109424600D01*
X130894000Y-103554280D02*
X130894000Y-102901880D01*
X130894000Y-104060556D02*
X130894000Y-103554280D01*
X130534556Y-104420000D02*
X130894000Y-104060556D01*
X127654008Y-107545000D02*
X126990000Y-106880992D01*
X127866140Y-107545000D02*
X127654008Y-107545000D01*
X126990000Y-106880992D02*
X126990000Y-105291860D01*
X126990000Y-105291860D02*
X127861860Y-104420000D01*
X127861860Y-104420000D02*
X130534556Y-104420000D01*
X130894000Y-96244000D02*
X130894000Y-96774000D01*
X130434080Y-93101160D02*
X130434080Y-95784080D01*
X130434080Y-95784080D02*
X130894000Y-96244000D01*
X131294000Y-104510840D02*
X131287520Y-104517320D01*
X131294000Y-102901880D02*
X131294000Y-104510840D01*
X131294000Y-96158554D02*
X131294000Y-96774000D01*
X130770000Y-94096200D02*
X130770000Y-95634554D01*
X131653280Y-92097318D02*
X131653280Y-93212920D01*
X130770000Y-95634554D02*
X131294000Y-96158554D01*
X134307321Y-91650571D02*
X132100027Y-91650571D01*
X131653280Y-93212920D02*
X130770000Y-94096200D01*
X134482320Y-91475572D02*
X134307321Y-91650571D01*
X132100027Y-91650571D02*
X131653280Y-92097318D01*
X132094000Y-104725220D02*
X132094000Y-102901880D01*
X131374780Y-105444440D02*
X132094000Y-104725220D01*
X132092700Y-96772700D02*
X132094000Y-96774000D01*
X132092700Y-95897700D02*
X132092700Y-96772700D01*
X128264920Y-107783766D02*
X128264920Y-107355812D01*
X128264920Y-107355812D02*
X128264920Y-107143680D01*
X131162793Y-110681639D02*
X128264920Y-107783766D01*
X132611979Y-110681639D02*
X131162793Y-110681639D01*
X132974780Y-111044440D02*
X132611979Y-110681639D01*
X133383020Y-105241212D02*
X132494000Y-104352192D01*
X132494000Y-104352192D02*
X132494000Y-103554280D01*
X128264920Y-107143680D02*
X130093720Y-107143680D01*
X130393440Y-107443400D02*
X133200140Y-107443400D01*
X133383020Y-107260520D02*
X133383020Y-105241212D01*
X132494000Y-103554280D02*
X132494000Y-102901880D01*
X130093720Y-107143680D02*
X130393440Y-107443400D01*
X133200140Y-107443400D02*
X133383020Y-107260520D01*
X131721860Y-94105567D02*
X131721860Y-93858080D01*
X132044440Y-95529400D02*
X131721860Y-95206820D01*
X132313680Y-95529400D02*
X132044440Y-95529400D01*
X131721860Y-95206820D02*
X131721860Y-94105567D01*
X132494000Y-95709720D02*
X132313680Y-95529400D01*
X132494000Y-96774000D02*
X132494000Y-95709720D01*
X132894000Y-103554280D02*
X132894000Y-102901880D01*
X132894000Y-104335640D02*
X132894000Y-103554280D01*
X133520180Y-104961820D02*
X132894000Y-104335640D01*
X134574780Y-105444440D02*
X134092160Y-104961820D01*
X134092160Y-104961820D02*
X133520180Y-104961820D01*
X132758438Y-95369478D02*
X132758438Y-96117846D01*
X132758438Y-96117846D02*
X132894000Y-96253408D01*
X132894000Y-96253408D02*
X132894000Y-96774000D01*
X132524800Y-95135840D02*
X132758438Y-95369478D01*
X133294000Y-103554280D02*
X133294000Y-102901880D01*
X133294000Y-104334320D02*
X133294000Y-103554280D01*
X134973060Y-106646160D02*
X134973060Y-105243760D01*
X134574780Y-107044440D02*
X134973060Y-106646160D01*
X133593840Y-104634160D02*
X133294000Y-104334320D01*
X134973060Y-105243760D02*
X134363460Y-104634160D01*
X134363460Y-104634160D02*
X133593840Y-104634160D01*
X133294000Y-96121600D02*
X133120900Y-95948500D01*
X133120900Y-95948500D02*
X133111240Y-95948500D01*
X133294000Y-96774000D02*
X133294000Y-96121600D01*
X133694000Y-102901880D02*
X133694000Y-103779280D01*
X133694000Y-103779280D02*
X133697980Y-103783260D01*
X132174780Y-107044440D02*
X132174780Y-107042880D01*
X132174780Y-107042880D02*
X131775200Y-106643300D01*
X133150000Y-95514556D02*
X133694000Y-96058556D01*
X132240000Y-93360000D02*
X132240000Y-93986718D01*
X133694000Y-96121600D02*
X133694000Y-96774000D01*
X132961120Y-92638880D02*
X132240000Y-93360000D01*
X133694000Y-96058556D02*
X133694000Y-96121600D01*
X134081520Y-92638880D02*
X132961120Y-92638880D01*
X132240000Y-93986718D02*
X133150000Y-94896718D01*
X133150000Y-94896718D02*
X133150000Y-95514556D01*
X134494000Y-102901880D02*
X134494000Y-103782260D01*
X134494000Y-103782260D02*
X134493000Y-103783260D01*
X132174780Y-108644440D02*
X132174360Y-108644440D01*
X132174360Y-108644440D02*
X132173980Y-108644820D01*
X134494000Y-96774000D02*
X134494000Y-96254000D01*
X134494000Y-96254000D02*
X134224999Y-95984999D01*
X134224999Y-95984999D02*
X134050000Y-95810000D01*
X136974780Y-107044440D02*
X136974760Y-107044440D01*
X136974760Y-107044440D02*
X136974580Y-107044620D01*
X134894000Y-102901880D02*
X134894000Y-104217920D01*
X134894000Y-104217920D02*
X134886700Y-104225220D01*
X134491641Y-94402999D02*
X134491641Y-95896195D01*
X134894000Y-96298554D02*
X134894000Y-96774000D01*
X134491641Y-95896195D02*
X134894000Y-96298554D01*
X135294000Y-103777280D02*
X135293100Y-103778180D01*
X135294000Y-102901880D02*
X135294000Y-103777280D01*
X131374780Y-107044440D02*
X131374060Y-107044440D01*
X131374060Y-107044440D02*
X131373880Y-107044620D01*
X135294000Y-96774000D02*
X135294000Y-96268348D01*
X135294000Y-96268348D02*
X134880000Y-95854348D01*
X134880000Y-95854348D02*
X134880000Y-95750000D01*
X131374780Y-111844440D02*
X130926060Y-111844440D01*
X130926060Y-111844440D02*
X130683000Y-111601380D01*
X131772660Y-108246560D02*
X132174780Y-107844440D01*
X131772660Y-109041060D02*
X131772660Y-108246560D01*
X132974780Y-107844440D02*
X132974780Y-107840680D01*
X132974780Y-107840680D02*
X132974940Y-107840520D01*
X132974780Y-107844440D02*
X132974100Y-107844440D01*
X132974780Y-107844440D02*
X132572760Y-108246460D01*
X132572760Y-108246460D02*
X132572760Y-109041060D01*
X132174780Y-109444440D02*
X132119900Y-109444440D01*
X140727301Y-112952061D02*
X141077300Y-113302060D01*
X132576580Y-109846240D02*
X138856720Y-109846240D01*
X132174780Y-109444440D02*
X132576580Y-109846240D01*
X138856720Y-109846240D02*
X140347700Y-111337220D01*
X140347700Y-111337220D02*
X140347700Y-112572460D01*
X140347700Y-112572460D02*
X140727301Y-112952061D01*
X141066900Y-96453500D02*
X141066900Y-92224480D01*
X140746400Y-96774000D02*
X141066900Y-96453500D01*
X140494000Y-96774000D02*
X140746400Y-96774000D01*
X141066900Y-92224480D02*
X141319300Y-91972080D01*
X141319300Y-91972080D02*
X141719300Y-91972080D01*
X130660340Y-105530000D02*
X131189781Y-106059441D01*
X127464920Y-106696026D02*
X128290946Y-105870000D01*
X127464920Y-106744900D02*
X127464920Y-106696026D01*
X131189781Y-106059441D02*
X131374780Y-106244440D01*
X128690000Y-105870000D02*
X129030000Y-105530000D01*
X128290946Y-105870000D02*
X128690000Y-105870000D01*
X129030000Y-105530000D02*
X130660340Y-105530000D01*
X132974780Y-107044440D02*
X132974780Y-107044456D01*
X133774780Y-111044440D02*
X133774780Y-111043720D01*
X133774780Y-111043720D02*
X133775040Y-111043460D01*
M02*
