G04 #@! TF.GenerationSoftware,KiCad,Pcbnew,(5.1.0)-1*
G04 #@! TF.CreationDate,2019-08-27T14:04:21-07:00*
G04 #@! TF.ProjectId,SDCard-PCB,53444361-7264-42d5-9043-422e6b696361,rev?*
G04 #@! TF.SameCoordinates,Original*
G04 #@! TF.FileFunction,Copper,L2,Inr*
G04 #@! TF.FilePolarity,Positive*
%FSLAX46Y46*%
G04 Gerber Fmt 4.6, Leading zero omitted, Abs format (unit mm)*
G04 Created by KiCad (PCBNEW (5.1.0)-1) date 2019-08-27 14:04:21*
%MOMM*%
%LPD*%
G04 APERTURE LIST*
%ADD10R,1.000000X1.000000*%
%ADD11R,1.700000X1.700000*%
%ADD12O,1.000000X1.000000*%
%ADD13C,0.450000*%
%ADD14C,0.508000*%
%ADD15C,0.203200*%
G04 APERTURE END LIST*
D10*
X132753100Y-70205600D03*
X128282700Y-70205600D03*
X125082300Y-84518500D03*
X121856500Y-84518500D03*
X118940580Y-84521040D03*
X111582200Y-68122800D03*
X115455700Y-84543900D03*
X112928400Y-84556600D03*
X106934000Y-54584600D03*
D11*
X103238300Y-83563100D03*
X103238300Y-79413100D03*
D12*
X134955280Y-55298340D03*
X133685280Y-55298340D03*
X132415280Y-55298340D03*
X131145280Y-55298340D03*
D10*
X129875280Y-55298340D03*
D11*
X103093100Y-57513900D03*
X103035100Y-67823900D03*
X103043100Y-71973900D03*
X103093100Y-61713900D03*
D13*
X117205760Y-51635660D03*
X110909100Y-56822340D03*
X110970060Y-62565280D03*
X130558540Y-72006460D03*
X127492760Y-73784460D03*
X131977180Y-74692460D03*
X132405120Y-80307180D03*
X130479800Y-62217300D03*
X131457700Y-65275460D03*
X128991360Y-58930540D03*
X126682500Y-62638940D03*
X118498620Y-59291220D03*
X120903800Y-60883600D03*
X127368300Y-57658000D03*
X116340000Y-77890000D03*
X118284600Y-78755600D03*
X121557300Y-71249900D03*
X121640600Y-75311000D03*
X121043700Y-76936600D03*
X121640600Y-73431400D03*
X109664500Y-75184000D03*
X109639100Y-77558900D03*
X111175800Y-79375000D03*
X120980200Y-67144900D03*
X116497100Y-64058800D03*
X120103850Y-59283650D03*
X114206020Y-62567820D03*
X130959860Y-73855580D03*
X122501660Y-60888880D03*
X120098820Y-61681360D03*
X123780000Y-57550000D03*
X121043700Y-77711300D03*
X111620300Y-77558900D03*
X111569500Y-74396600D03*
X111582200Y-76403200D03*
X121081800Y-74409300D03*
X111988600Y-71920100D03*
X107111800Y-71996300D03*
X106095800Y-68592700D03*
X117703600Y-57683400D03*
X122504200Y-58483500D03*
X119319040Y-60065920D03*
X119689880Y-69949060D03*
X130317240Y-73855580D03*
X115735100Y-78625700D03*
X115277900Y-79565500D03*
X117710000Y-60880000D03*
X118290000Y-63780000D03*
X114239040Y-56822340D03*
X125036580Y-62661800D03*
X118506240Y-60883800D03*
X121701560Y-61681360D03*
X119300000Y-58480110D03*
X117319900Y-66268600D03*
X124307600Y-66268600D03*
X106908600Y-58089800D03*
X116903500Y-57683400D03*
X116903504Y-60883800D03*
X105270300Y-60858400D03*
X122500000Y-56890000D03*
X116900002Y-78880000D03*
X116900000Y-62470000D03*
X117710000Y-79490000D03*
X117710000Y-61690000D03*
X120110000Y-56890000D03*
X120510000Y-80750000D03*
X118740000Y-81510000D03*
X119310000Y-57689890D03*
X125745240Y-76527660D03*
X127502920Y-74676000D03*
X130561080Y-76560680D03*
X131966200Y-75752460D03*
X123840000Y-67570000D03*
X123840000Y-59290000D03*
X120904000Y-57683400D03*
X122110500Y-79984600D03*
X115006120Y-54823360D03*
X115026440Y-57691020D03*
X121592340Y-51765200D03*
X122699780Y-51798220D03*
X120500000Y-54300000D03*
X110230000Y-54950000D03*
X110230000Y-56100000D03*
X119310000Y-56090000D03*
X113020000Y-65760000D03*
X116100000Y-56880000D03*
X114220000Y-58710000D03*
X116900000Y-58480000D03*
X117310000Y-64720000D03*
X117700000Y-60080000D03*
X115520000Y-67640000D03*
X114750000Y-59680000D03*
X116611400Y-53632100D03*
X118506240Y-54670960D03*
X120497600Y-51694080D03*
D14*
X125745240Y-76433680D02*
X127502920Y-74676000D01*
X125745240Y-76527660D02*
X125745240Y-76433680D01*
X128676400Y-74676000D02*
X130561080Y-76560680D01*
X127502920Y-74676000D02*
X128676400Y-74676000D01*
X131157980Y-76560680D02*
X131966200Y-75752460D01*
X130561080Y-76560680D02*
X131157980Y-76560680D01*
D15*
G36*
X122618515Y-47398949D02*
G01*
X122780606Y-47447887D01*
X122930107Y-47527378D01*
X123061323Y-47634394D01*
X123169254Y-47764860D01*
X123249785Y-47913802D01*
X123299855Y-48075550D01*
X123319400Y-48261506D01*
X123319401Y-52981297D01*
X123317559Y-53000000D01*
X123324907Y-53074611D01*
X123346671Y-53146354D01*
X123382012Y-53212473D01*
X123429573Y-53270427D01*
X123487527Y-53317988D01*
X123553646Y-53353329D01*
X123625389Y-53375093D01*
X123681307Y-53380600D01*
X123700000Y-53382441D01*
X123718693Y-53380600D01*
X137119400Y-53380600D01*
X137119401Y-86619400D01*
X100380600Y-86619400D01*
X100380600Y-82713100D01*
X102030980Y-82713100D01*
X102030980Y-84413100D01*
X102037846Y-84482810D01*
X102058179Y-84549840D01*
X102091199Y-84611616D01*
X102135637Y-84665763D01*
X102189784Y-84710201D01*
X102251560Y-84743221D01*
X102318590Y-84763554D01*
X102388300Y-84770420D01*
X104088300Y-84770420D01*
X104158010Y-84763554D01*
X104225040Y-84743221D01*
X104286816Y-84710201D01*
X104340963Y-84665763D01*
X104385401Y-84611616D01*
X104418421Y-84549840D01*
X104438754Y-84482810D01*
X104445620Y-84413100D01*
X104445620Y-84056600D01*
X112071080Y-84056600D01*
X112071080Y-85056600D01*
X112077946Y-85126310D01*
X112098279Y-85193340D01*
X112131299Y-85255116D01*
X112175737Y-85309263D01*
X112229884Y-85353701D01*
X112291660Y-85386721D01*
X112358690Y-85407054D01*
X112428400Y-85413920D01*
X113428400Y-85413920D01*
X113498110Y-85407054D01*
X113565140Y-85386721D01*
X113626916Y-85353701D01*
X113681063Y-85309263D01*
X113725501Y-85255116D01*
X113758521Y-85193340D01*
X113778854Y-85126310D01*
X113785720Y-85056600D01*
X113785720Y-84056600D01*
X113784470Y-84043900D01*
X114598380Y-84043900D01*
X114598380Y-85043900D01*
X114605246Y-85113610D01*
X114625579Y-85180640D01*
X114658599Y-85242416D01*
X114703037Y-85296563D01*
X114757184Y-85341001D01*
X114818960Y-85374021D01*
X114885990Y-85394354D01*
X114955700Y-85401220D01*
X115955700Y-85401220D01*
X116025410Y-85394354D01*
X116092440Y-85374021D01*
X116154216Y-85341001D01*
X116208363Y-85296563D01*
X116252801Y-85242416D01*
X116285821Y-85180640D01*
X116306154Y-85113610D01*
X116313020Y-85043900D01*
X116313020Y-84043900D01*
X116310769Y-84021040D01*
X118083260Y-84021040D01*
X118083260Y-85021040D01*
X118090126Y-85090750D01*
X118110459Y-85157780D01*
X118143479Y-85219556D01*
X118187917Y-85273703D01*
X118242064Y-85318141D01*
X118303840Y-85351161D01*
X118370870Y-85371494D01*
X118440580Y-85378360D01*
X119440580Y-85378360D01*
X119510290Y-85371494D01*
X119577320Y-85351161D01*
X119639096Y-85318141D01*
X119693243Y-85273703D01*
X119737681Y-85219556D01*
X119770701Y-85157780D01*
X119791034Y-85090750D01*
X119797900Y-85021040D01*
X119797900Y-84021040D01*
X119797650Y-84018500D01*
X120999180Y-84018500D01*
X120999180Y-85018500D01*
X121006046Y-85088210D01*
X121026379Y-85155240D01*
X121059399Y-85217016D01*
X121103837Y-85271163D01*
X121157984Y-85315601D01*
X121219760Y-85348621D01*
X121286790Y-85368954D01*
X121356500Y-85375820D01*
X122356500Y-85375820D01*
X122426210Y-85368954D01*
X122493240Y-85348621D01*
X122555016Y-85315601D01*
X122609163Y-85271163D01*
X122653601Y-85217016D01*
X122686621Y-85155240D01*
X122706954Y-85088210D01*
X122713820Y-85018500D01*
X122713820Y-84018500D01*
X124224980Y-84018500D01*
X124224980Y-85018500D01*
X124231846Y-85088210D01*
X124252179Y-85155240D01*
X124285199Y-85217016D01*
X124329637Y-85271163D01*
X124383784Y-85315601D01*
X124445560Y-85348621D01*
X124512590Y-85368954D01*
X124582300Y-85375820D01*
X125582300Y-85375820D01*
X125652010Y-85368954D01*
X125719040Y-85348621D01*
X125780816Y-85315601D01*
X125834963Y-85271163D01*
X125879401Y-85217016D01*
X125912421Y-85155240D01*
X125932754Y-85088210D01*
X125939620Y-85018500D01*
X125939620Y-84018500D01*
X125932754Y-83948790D01*
X125912421Y-83881760D01*
X125879401Y-83819984D01*
X125834963Y-83765837D01*
X125780816Y-83721399D01*
X125719040Y-83688379D01*
X125652010Y-83668046D01*
X125582300Y-83661180D01*
X124582300Y-83661180D01*
X124512590Y-83668046D01*
X124445560Y-83688379D01*
X124383784Y-83721399D01*
X124329637Y-83765837D01*
X124285199Y-83819984D01*
X124252179Y-83881760D01*
X124231846Y-83948790D01*
X124224980Y-84018500D01*
X122713820Y-84018500D01*
X122706954Y-83948790D01*
X122686621Y-83881760D01*
X122653601Y-83819984D01*
X122609163Y-83765837D01*
X122555016Y-83721399D01*
X122493240Y-83688379D01*
X122426210Y-83668046D01*
X122356500Y-83661180D01*
X121356500Y-83661180D01*
X121286790Y-83668046D01*
X121219760Y-83688379D01*
X121157984Y-83721399D01*
X121103837Y-83765837D01*
X121059399Y-83819984D01*
X121026379Y-83881760D01*
X121006046Y-83948790D01*
X120999180Y-84018500D01*
X119797650Y-84018500D01*
X119791034Y-83951330D01*
X119770701Y-83884300D01*
X119737681Y-83822524D01*
X119693243Y-83768377D01*
X119639096Y-83723939D01*
X119577320Y-83690919D01*
X119510290Y-83670586D01*
X119440580Y-83663720D01*
X118440580Y-83663720D01*
X118370870Y-83670586D01*
X118303840Y-83690919D01*
X118242064Y-83723939D01*
X118187917Y-83768377D01*
X118143479Y-83822524D01*
X118110459Y-83884300D01*
X118090126Y-83951330D01*
X118083260Y-84021040D01*
X116310769Y-84021040D01*
X116306154Y-83974190D01*
X116285821Y-83907160D01*
X116252801Y-83845384D01*
X116208363Y-83791237D01*
X116154216Y-83746799D01*
X116092440Y-83713779D01*
X116025410Y-83693446D01*
X115955700Y-83686580D01*
X114955700Y-83686580D01*
X114885990Y-83693446D01*
X114818960Y-83713779D01*
X114757184Y-83746799D01*
X114703037Y-83791237D01*
X114658599Y-83845384D01*
X114625579Y-83907160D01*
X114605246Y-83974190D01*
X114598380Y-84043900D01*
X113784470Y-84043900D01*
X113778854Y-83986890D01*
X113758521Y-83919860D01*
X113725501Y-83858084D01*
X113681063Y-83803937D01*
X113626916Y-83759499D01*
X113565140Y-83726479D01*
X113498110Y-83706146D01*
X113428400Y-83699280D01*
X112428400Y-83699280D01*
X112358690Y-83706146D01*
X112291660Y-83726479D01*
X112229884Y-83759499D01*
X112175737Y-83803937D01*
X112131299Y-83858084D01*
X112098279Y-83919860D01*
X112077946Y-83986890D01*
X112071080Y-84056600D01*
X104445620Y-84056600D01*
X104445620Y-82713100D01*
X104438754Y-82643390D01*
X104418421Y-82576360D01*
X104385401Y-82514584D01*
X104340963Y-82460437D01*
X104286816Y-82415999D01*
X104225040Y-82382979D01*
X104158010Y-82362646D01*
X104088300Y-82355780D01*
X102388300Y-82355780D01*
X102318590Y-82362646D01*
X102251560Y-82382979D01*
X102189784Y-82415999D01*
X102135637Y-82460437D01*
X102091199Y-82514584D01*
X102058179Y-82576360D01*
X102037846Y-82643390D01*
X102030980Y-82713100D01*
X100380600Y-82713100D01*
X100380600Y-81452816D01*
X118159400Y-81452816D01*
X118159400Y-81567184D01*
X118181712Y-81679355D01*
X118225479Y-81785017D01*
X118289019Y-81880111D01*
X118369889Y-81960981D01*
X118464983Y-82024521D01*
X118570645Y-82068288D01*
X118682816Y-82090600D01*
X118797184Y-82090600D01*
X118909355Y-82068288D01*
X119015017Y-82024521D01*
X119110111Y-81960981D01*
X119190981Y-81880111D01*
X119254521Y-81785017D01*
X119298288Y-81679355D01*
X119320600Y-81567184D01*
X119320600Y-81452816D01*
X119298288Y-81340645D01*
X119254521Y-81234983D01*
X119190981Y-81139889D01*
X119110111Y-81059019D01*
X119015017Y-80995479D01*
X118909355Y-80951712D01*
X118797184Y-80929400D01*
X118682816Y-80929400D01*
X118570645Y-80951712D01*
X118464983Y-80995479D01*
X118369889Y-81059019D01*
X118289019Y-81139889D01*
X118225479Y-81234983D01*
X118181712Y-81340645D01*
X118159400Y-81452816D01*
X100380600Y-81452816D01*
X100380600Y-80692816D01*
X119929400Y-80692816D01*
X119929400Y-80807184D01*
X119951712Y-80919355D01*
X119995479Y-81025017D01*
X120059019Y-81120111D01*
X120139889Y-81200981D01*
X120234983Y-81264521D01*
X120340645Y-81308288D01*
X120452816Y-81330600D01*
X120567184Y-81330600D01*
X120679355Y-81308288D01*
X120785017Y-81264521D01*
X120880111Y-81200981D01*
X120960981Y-81120111D01*
X121024521Y-81025017D01*
X121068288Y-80919355D01*
X121090600Y-80807184D01*
X121090600Y-80692816D01*
X121068288Y-80580645D01*
X121024521Y-80474983D01*
X120960981Y-80379889D01*
X120880111Y-80299019D01*
X120785017Y-80235479D01*
X120679355Y-80191712D01*
X120567184Y-80169400D01*
X120452816Y-80169400D01*
X120340645Y-80191712D01*
X120234983Y-80235479D01*
X120139889Y-80299019D01*
X120059019Y-80379889D01*
X119995479Y-80474983D01*
X119951712Y-80580645D01*
X119929400Y-80692816D01*
X100380600Y-80692816D01*
X100380600Y-78563100D01*
X102030980Y-78563100D01*
X102030980Y-80263100D01*
X102037846Y-80332810D01*
X102058179Y-80399840D01*
X102091199Y-80461616D01*
X102135637Y-80515763D01*
X102189784Y-80560201D01*
X102251560Y-80593221D01*
X102318590Y-80613554D01*
X102388300Y-80620420D01*
X104088300Y-80620420D01*
X104158010Y-80613554D01*
X104225040Y-80593221D01*
X104286816Y-80560201D01*
X104340963Y-80515763D01*
X104385401Y-80461616D01*
X104418421Y-80399840D01*
X104438754Y-80332810D01*
X104445620Y-80263100D01*
X104445620Y-79508316D01*
X114697300Y-79508316D01*
X114697300Y-79622684D01*
X114719612Y-79734855D01*
X114763379Y-79840517D01*
X114826919Y-79935611D01*
X114907789Y-80016481D01*
X115002883Y-80080021D01*
X115108545Y-80123788D01*
X115220716Y-80146100D01*
X115335084Y-80146100D01*
X115447255Y-80123788D01*
X115552917Y-80080021D01*
X115648011Y-80016481D01*
X115728881Y-79935611D01*
X115792421Y-79840517D01*
X115836188Y-79734855D01*
X115858500Y-79622684D01*
X115858500Y-79508316D01*
X115836188Y-79396145D01*
X115792421Y-79290483D01*
X115736172Y-79206300D01*
X115792284Y-79206300D01*
X115904455Y-79183988D01*
X116010117Y-79140221D01*
X116105211Y-79076681D01*
X116186081Y-78995811D01*
X116249621Y-78900717D01*
X116281888Y-78822816D01*
X116319402Y-78822816D01*
X116319402Y-78937184D01*
X116341714Y-79049355D01*
X116385481Y-79155017D01*
X116449021Y-79250111D01*
X116529891Y-79330981D01*
X116624985Y-79394521D01*
X116730647Y-79438288D01*
X116842818Y-79460600D01*
X116957186Y-79460600D01*
X117069357Y-79438288D01*
X117133605Y-79411675D01*
X117129400Y-79432816D01*
X117129400Y-79547184D01*
X117151712Y-79659355D01*
X117195479Y-79765017D01*
X117259019Y-79860111D01*
X117339889Y-79940981D01*
X117434983Y-80004521D01*
X117540645Y-80048288D01*
X117652816Y-80070600D01*
X117767184Y-80070600D01*
X117879355Y-80048288D01*
X117985017Y-80004521D01*
X118080111Y-79940981D01*
X118093676Y-79927416D01*
X121529900Y-79927416D01*
X121529900Y-80041784D01*
X121552212Y-80153955D01*
X121595979Y-80259617D01*
X121659519Y-80354711D01*
X121740389Y-80435581D01*
X121835483Y-80499121D01*
X121941145Y-80542888D01*
X122053316Y-80565200D01*
X122167684Y-80565200D01*
X122279855Y-80542888D01*
X122385517Y-80499121D01*
X122480611Y-80435581D01*
X122561481Y-80354711D01*
X122625021Y-80259617D01*
X122668788Y-80153955D01*
X122691100Y-80041784D01*
X122691100Y-79927416D01*
X122668788Y-79815245D01*
X122625021Y-79709583D01*
X122561481Y-79614489D01*
X122480611Y-79533619D01*
X122385517Y-79470079D01*
X122279855Y-79426312D01*
X122167684Y-79404000D01*
X122053316Y-79404000D01*
X121941145Y-79426312D01*
X121835483Y-79470079D01*
X121740389Y-79533619D01*
X121659519Y-79614489D01*
X121595979Y-79709583D01*
X121552212Y-79815245D01*
X121529900Y-79927416D01*
X118093676Y-79927416D01*
X118160981Y-79860111D01*
X118224521Y-79765017D01*
X118268288Y-79659355D01*
X118290600Y-79547184D01*
X118290600Y-79432816D01*
X118268288Y-79320645D01*
X118224521Y-79214983D01*
X118160981Y-79119889D01*
X118080111Y-79039019D01*
X117985017Y-78975479D01*
X117879355Y-78931712D01*
X117767184Y-78909400D01*
X117652816Y-78909400D01*
X117540645Y-78931712D01*
X117476397Y-78958325D01*
X117480602Y-78937184D01*
X117480602Y-78822816D01*
X117458290Y-78710645D01*
X117414523Y-78604983D01*
X117350983Y-78509889D01*
X117270113Y-78429019D01*
X117175019Y-78365479D01*
X117069357Y-78321712D01*
X116957186Y-78299400D01*
X116842818Y-78299400D01*
X116730647Y-78321712D01*
X116624985Y-78365479D01*
X116529891Y-78429019D01*
X116449021Y-78509889D01*
X116385481Y-78604983D01*
X116341714Y-78710645D01*
X116319402Y-78822816D01*
X116281888Y-78822816D01*
X116293388Y-78795055D01*
X116315700Y-78682884D01*
X116315700Y-78568516D01*
X116293388Y-78456345D01*
X116249621Y-78350683D01*
X116186081Y-78255589D01*
X116105211Y-78174719D01*
X116010117Y-78111179D01*
X115904455Y-78067412D01*
X115792284Y-78045100D01*
X115677916Y-78045100D01*
X115565745Y-78067412D01*
X115460083Y-78111179D01*
X115364989Y-78174719D01*
X115284119Y-78255589D01*
X115220579Y-78350683D01*
X115176812Y-78456345D01*
X115154500Y-78568516D01*
X115154500Y-78682884D01*
X115176812Y-78795055D01*
X115220579Y-78900717D01*
X115276828Y-78984900D01*
X115220716Y-78984900D01*
X115108545Y-79007212D01*
X115002883Y-79050979D01*
X114907789Y-79114519D01*
X114826919Y-79195389D01*
X114763379Y-79290483D01*
X114719612Y-79396145D01*
X114697300Y-79508316D01*
X104445620Y-79508316D01*
X104445620Y-78563100D01*
X104438754Y-78493390D01*
X104418421Y-78426360D01*
X104385401Y-78364584D01*
X104340963Y-78310437D01*
X104286816Y-78265999D01*
X104225040Y-78232979D01*
X104158010Y-78212646D01*
X104088300Y-78205780D01*
X102388300Y-78205780D01*
X102318590Y-78212646D01*
X102251560Y-78232979D01*
X102189784Y-78265999D01*
X102135637Y-78310437D01*
X102091199Y-78364584D01*
X102058179Y-78426360D01*
X102037846Y-78493390D01*
X102030980Y-78563100D01*
X100380600Y-78563100D01*
X100380600Y-76346016D01*
X111001600Y-76346016D01*
X111001600Y-76460384D01*
X111023912Y-76572555D01*
X111067679Y-76678217D01*
X111131219Y-76773311D01*
X111212089Y-76854181D01*
X111307183Y-76917721D01*
X111412845Y-76961488D01*
X111525016Y-76983800D01*
X111535465Y-76983800D01*
X111450945Y-77000612D01*
X111345283Y-77044379D01*
X111250189Y-77107919D01*
X111169319Y-77188789D01*
X111105779Y-77283883D01*
X111062012Y-77389545D01*
X111039700Y-77501716D01*
X111039700Y-77616084D01*
X111062012Y-77728255D01*
X111105779Y-77833917D01*
X111169319Y-77929011D01*
X111250189Y-78009881D01*
X111345283Y-78073421D01*
X111450945Y-78117188D01*
X111563116Y-78139500D01*
X111677484Y-78139500D01*
X111789655Y-78117188D01*
X111895317Y-78073421D01*
X111990411Y-78009881D01*
X112071281Y-77929011D01*
X112134821Y-77833917D01*
X112178588Y-77728255D01*
X112193335Y-77654116D01*
X120463100Y-77654116D01*
X120463100Y-77768484D01*
X120485412Y-77880655D01*
X120529179Y-77986317D01*
X120592719Y-78081411D01*
X120673589Y-78162281D01*
X120768683Y-78225821D01*
X120874345Y-78269588D01*
X120986516Y-78291900D01*
X121100884Y-78291900D01*
X121213055Y-78269588D01*
X121318717Y-78225821D01*
X121413811Y-78162281D01*
X121494681Y-78081411D01*
X121558221Y-77986317D01*
X121601988Y-77880655D01*
X121624300Y-77768484D01*
X121624300Y-77654116D01*
X121601988Y-77541945D01*
X121558221Y-77436283D01*
X121494681Y-77341189D01*
X121413811Y-77260319D01*
X121318717Y-77196779D01*
X121213055Y-77153012D01*
X121100884Y-77130700D01*
X120986516Y-77130700D01*
X120874345Y-77153012D01*
X120768683Y-77196779D01*
X120673589Y-77260319D01*
X120592719Y-77341189D01*
X120529179Y-77436283D01*
X120485412Y-77541945D01*
X120463100Y-77654116D01*
X112193335Y-77654116D01*
X112200900Y-77616084D01*
X112200900Y-77501716D01*
X112178588Y-77389545D01*
X112134821Y-77283883D01*
X112071281Y-77188789D01*
X111990411Y-77107919D01*
X111895317Y-77044379D01*
X111789655Y-77000612D01*
X111677484Y-76978300D01*
X111667035Y-76978300D01*
X111751555Y-76961488D01*
X111857217Y-76917721D01*
X111952311Y-76854181D01*
X112033181Y-76773311D01*
X112096721Y-76678217D01*
X112140488Y-76572555D01*
X112162800Y-76460384D01*
X112162800Y-76433680D01*
X125132691Y-76433680D01*
X125135640Y-76463621D01*
X125135640Y-76557600D01*
X125144461Y-76647161D01*
X125179319Y-76762071D01*
X125235924Y-76867973D01*
X125312102Y-76960798D01*
X125404926Y-77036976D01*
X125510828Y-77093581D01*
X125625738Y-77128439D01*
X125745240Y-77140209D01*
X125864741Y-77128439D01*
X125979651Y-77093581D01*
X126085553Y-77036976D01*
X126178378Y-76960798D01*
X126254556Y-76867974D01*
X126311161Y-76762072D01*
X126325187Y-76715837D01*
X127755424Y-75285600D01*
X128423897Y-75285600D01*
X130108849Y-76970553D01*
X130127942Y-76993818D01*
X130220766Y-77069996D01*
X130326668Y-77126601D01*
X130375058Y-77141280D01*
X130441577Y-77161459D01*
X130561079Y-77173229D01*
X130591021Y-77170280D01*
X131128039Y-77170280D01*
X131157980Y-77173229D01*
X131187921Y-77170280D01*
X131277482Y-77161459D01*
X131392392Y-77126601D01*
X131498294Y-77069996D01*
X131591118Y-76993818D01*
X131610215Y-76970548D01*
X132418424Y-76162341D01*
X132475515Y-76092775D01*
X132532121Y-75986873D01*
X132566979Y-75871963D01*
X132578749Y-75752460D01*
X132566979Y-75632958D01*
X132532121Y-75518048D01*
X132475515Y-75412146D01*
X132399337Y-75319323D01*
X132306514Y-75243145D01*
X132200612Y-75186539D01*
X132085702Y-75151681D01*
X131966200Y-75139911D01*
X131846697Y-75151681D01*
X131731787Y-75186539D01*
X131625885Y-75243145D01*
X131556319Y-75300236D01*
X130905477Y-75951080D01*
X130813584Y-75951080D01*
X129128635Y-74266132D01*
X129109538Y-74242862D01*
X129016714Y-74166684D01*
X128910812Y-74110079D01*
X128795902Y-74075221D01*
X128706341Y-74066400D01*
X128676400Y-74063451D01*
X128646459Y-74066400D01*
X127532861Y-74066400D01*
X127502920Y-74063451D01*
X127383417Y-74075221D01*
X127348559Y-74085795D01*
X127268508Y-74110079D01*
X127162606Y-74166684D01*
X127069782Y-74242862D01*
X127050689Y-74266127D01*
X125335367Y-75981450D01*
X125312103Y-76000542D01*
X125235924Y-76093366D01*
X125179319Y-76199268D01*
X125144461Y-76314178D01*
X125132691Y-76433680D01*
X112162800Y-76433680D01*
X112162800Y-76346016D01*
X112140488Y-76233845D01*
X112096721Y-76128183D01*
X112033181Y-76033089D01*
X111952311Y-75952219D01*
X111857217Y-75888679D01*
X111751555Y-75844912D01*
X111639384Y-75822600D01*
X111525016Y-75822600D01*
X111412845Y-75844912D01*
X111307183Y-75888679D01*
X111212089Y-75952219D01*
X111131219Y-76033089D01*
X111067679Y-76128183D01*
X111023912Y-76233845D01*
X111001600Y-76346016D01*
X100380600Y-76346016D01*
X100380600Y-74339416D01*
X110988900Y-74339416D01*
X110988900Y-74453784D01*
X111011212Y-74565955D01*
X111054979Y-74671617D01*
X111118519Y-74766711D01*
X111199389Y-74847581D01*
X111294483Y-74911121D01*
X111400145Y-74954888D01*
X111512316Y-74977200D01*
X111626684Y-74977200D01*
X111738855Y-74954888D01*
X111844517Y-74911121D01*
X111939611Y-74847581D01*
X112020481Y-74766711D01*
X112084021Y-74671617D01*
X112127788Y-74565955D01*
X112150100Y-74453784D01*
X112150100Y-74352116D01*
X120501200Y-74352116D01*
X120501200Y-74466484D01*
X120523512Y-74578655D01*
X120567279Y-74684317D01*
X120630819Y-74779411D01*
X120711689Y-74860281D01*
X120806783Y-74923821D01*
X120912445Y-74967588D01*
X121024616Y-74989900D01*
X121138984Y-74989900D01*
X121251155Y-74967588D01*
X121356817Y-74923821D01*
X121451911Y-74860281D01*
X121532781Y-74779411D01*
X121596321Y-74684317D01*
X121640088Y-74578655D01*
X121662400Y-74466484D01*
X121662400Y-74352116D01*
X121640088Y-74239945D01*
X121596321Y-74134283D01*
X121532781Y-74039189D01*
X121451911Y-73958319D01*
X121356817Y-73894779D01*
X121251155Y-73851012D01*
X121138984Y-73828700D01*
X121024616Y-73828700D01*
X120912445Y-73851012D01*
X120806783Y-73894779D01*
X120711689Y-73958319D01*
X120630819Y-74039189D01*
X120567279Y-74134283D01*
X120523512Y-74239945D01*
X120501200Y-74352116D01*
X112150100Y-74352116D01*
X112150100Y-74339416D01*
X112127788Y-74227245D01*
X112084021Y-74121583D01*
X112020481Y-74026489D01*
X111939611Y-73945619D01*
X111844517Y-73882079D01*
X111738855Y-73838312D01*
X111626684Y-73816000D01*
X111512316Y-73816000D01*
X111400145Y-73838312D01*
X111294483Y-73882079D01*
X111199389Y-73945619D01*
X111118519Y-74026489D01*
X111054979Y-74121583D01*
X111011212Y-74227245D01*
X110988900Y-74339416D01*
X100380600Y-74339416D01*
X100380600Y-73798396D01*
X129736640Y-73798396D01*
X129736640Y-73912764D01*
X129758952Y-74024935D01*
X129802719Y-74130597D01*
X129866259Y-74225691D01*
X129947129Y-74306561D01*
X130042223Y-74370101D01*
X130147885Y-74413868D01*
X130260056Y-74436180D01*
X130374424Y-74436180D01*
X130486595Y-74413868D01*
X130592257Y-74370101D01*
X130638550Y-74339169D01*
X130684843Y-74370101D01*
X130790505Y-74413868D01*
X130902676Y-74436180D01*
X131017044Y-74436180D01*
X131129215Y-74413868D01*
X131234877Y-74370101D01*
X131329971Y-74306561D01*
X131410841Y-74225691D01*
X131474381Y-74130597D01*
X131518148Y-74024935D01*
X131540460Y-73912764D01*
X131540460Y-73798396D01*
X131518148Y-73686225D01*
X131474381Y-73580563D01*
X131410841Y-73485469D01*
X131329971Y-73404599D01*
X131234877Y-73341059D01*
X131129215Y-73297292D01*
X131017044Y-73274980D01*
X130902676Y-73274980D01*
X130790505Y-73297292D01*
X130684843Y-73341059D01*
X130638550Y-73371991D01*
X130592257Y-73341059D01*
X130486595Y-73297292D01*
X130374424Y-73274980D01*
X130260056Y-73274980D01*
X130147885Y-73297292D01*
X130042223Y-73341059D01*
X129947129Y-73404599D01*
X129866259Y-73485469D01*
X129802719Y-73580563D01*
X129758952Y-73686225D01*
X129736640Y-73798396D01*
X100380600Y-73798396D01*
X100380600Y-71123900D01*
X101835780Y-71123900D01*
X101835780Y-72823900D01*
X101842646Y-72893610D01*
X101862979Y-72960640D01*
X101895999Y-73022416D01*
X101940437Y-73076563D01*
X101994584Y-73121001D01*
X102056360Y-73154021D01*
X102123390Y-73174354D01*
X102193100Y-73181220D01*
X103893100Y-73181220D01*
X103962810Y-73174354D01*
X104029840Y-73154021D01*
X104091616Y-73121001D01*
X104145763Y-73076563D01*
X104190201Y-73022416D01*
X104223221Y-72960640D01*
X104243554Y-72893610D01*
X104250420Y-72823900D01*
X104250420Y-71939116D01*
X106531200Y-71939116D01*
X106531200Y-72053484D01*
X106553512Y-72165655D01*
X106597279Y-72271317D01*
X106660819Y-72366411D01*
X106741689Y-72447281D01*
X106836783Y-72510821D01*
X106942445Y-72554588D01*
X107054616Y-72576900D01*
X107168984Y-72576900D01*
X107281155Y-72554588D01*
X107386817Y-72510821D01*
X107481911Y-72447281D01*
X107562781Y-72366411D01*
X107626321Y-72271317D01*
X107670088Y-72165655D01*
X107692400Y-72053484D01*
X107692400Y-71939116D01*
X107677244Y-71862916D01*
X111408000Y-71862916D01*
X111408000Y-71977284D01*
X111430312Y-72089455D01*
X111474079Y-72195117D01*
X111537619Y-72290211D01*
X111618489Y-72371081D01*
X111713583Y-72434621D01*
X111819245Y-72478388D01*
X111931416Y-72500700D01*
X112045784Y-72500700D01*
X112157955Y-72478388D01*
X112263617Y-72434621D01*
X112358711Y-72371081D01*
X112439581Y-72290211D01*
X112503121Y-72195117D01*
X112546888Y-72089455D01*
X112569200Y-71977284D01*
X112569200Y-71862916D01*
X112546888Y-71750745D01*
X112503121Y-71645083D01*
X112439581Y-71549989D01*
X112358711Y-71469119D01*
X112263617Y-71405579D01*
X112157955Y-71361812D01*
X112045784Y-71339500D01*
X111931416Y-71339500D01*
X111819245Y-71361812D01*
X111713583Y-71405579D01*
X111618489Y-71469119D01*
X111537619Y-71549989D01*
X111474079Y-71645083D01*
X111430312Y-71750745D01*
X111408000Y-71862916D01*
X107677244Y-71862916D01*
X107670088Y-71826945D01*
X107626321Y-71721283D01*
X107562781Y-71626189D01*
X107481911Y-71545319D01*
X107386817Y-71481779D01*
X107281155Y-71438012D01*
X107168984Y-71415700D01*
X107054616Y-71415700D01*
X106942445Y-71438012D01*
X106836783Y-71481779D01*
X106741689Y-71545319D01*
X106660819Y-71626189D01*
X106597279Y-71721283D01*
X106553512Y-71826945D01*
X106531200Y-71939116D01*
X104250420Y-71939116D01*
X104250420Y-71123900D01*
X104243554Y-71054190D01*
X104223221Y-70987160D01*
X104190201Y-70925384D01*
X104145763Y-70871237D01*
X104091616Y-70826799D01*
X104029840Y-70793779D01*
X103962810Y-70773446D01*
X103893100Y-70766580D01*
X102193100Y-70766580D01*
X102123390Y-70773446D01*
X102056360Y-70793779D01*
X101994584Y-70826799D01*
X101940437Y-70871237D01*
X101895999Y-70925384D01*
X101862979Y-70987160D01*
X101842646Y-71054190D01*
X101835780Y-71123900D01*
X100380600Y-71123900D01*
X100380600Y-69891876D01*
X119109280Y-69891876D01*
X119109280Y-70006244D01*
X119131592Y-70118415D01*
X119175359Y-70224077D01*
X119238899Y-70319171D01*
X119319769Y-70400041D01*
X119414863Y-70463581D01*
X119520525Y-70507348D01*
X119632696Y-70529660D01*
X119747064Y-70529660D01*
X119859235Y-70507348D01*
X119964897Y-70463581D01*
X120059991Y-70400041D01*
X120140861Y-70319171D01*
X120204401Y-70224077D01*
X120248168Y-70118415D01*
X120270480Y-70006244D01*
X120270480Y-69891876D01*
X120248168Y-69779705D01*
X120217473Y-69705600D01*
X127425380Y-69705600D01*
X127425380Y-70705600D01*
X127432246Y-70775310D01*
X127452579Y-70842340D01*
X127485599Y-70904116D01*
X127530037Y-70958263D01*
X127584184Y-71002701D01*
X127645960Y-71035721D01*
X127712990Y-71056054D01*
X127782700Y-71062920D01*
X128782700Y-71062920D01*
X128852410Y-71056054D01*
X128919440Y-71035721D01*
X128981216Y-71002701D01*
X129035363Y-70958263D01*
X129079801Y-70904116D01*
X129112821Y-70842340D01*
X129133154Y-70775310D01*
X129140020Y-70705600D01*
X129140020Y-69705600D01*
X131895780Y-69705600D01*
X131895780Y-70705600D01*
X131902646Y-70775310D01*
X131922979Y-70842340D01*
X131955999Y-70904116D01*
X132000437Y-70958263D01*
X132054584Y-71002701D01*
X132116360Y-71035721D01*
X132183390Y-71056054D01*
X132253100Y-71062920D01*
X133253100Y-71062920D01*
X133322810Y-71056054D01*
X133389840Y-71035721D01*
X133451616Y-71002701D01*
X133505763Y-70958263D01*
X133550201Y-70904116D01*
X133583221Y-70842340D01*
X133603554Y-70775310D01*
X133610420Y-70705600D01*
X133610420Y-69705600D01*
X133603554Y-69635890D01*
X133583221Y-69568860D01*
X133550201Y-69507084D01*
X133505763Y-69452937D01*
X133451616Y-69408499D01*
X133389840Y-69375479D01*
X133322810Y-69355146D01*
X133253100Y-69348280D01*
X132253100Y-69348280D01*
X132183390Y-69355146D01*
X132116360Y-69375479D01*
X132054584Y-69408499D01*
X132000437Y-69452937D01*
X131955999Y-69507084D01*
X131922979Y-69568860D01*
X131902646Y-69635890D01*
X131895780Y-69705600D01*
X129140020Y-69705600D01*
X129133154Y-69635890D01*
X129112821Y-69568860D01*
X129079801Y-69507084D01*
X129035363Y-69452937D01*
X128981216Y-69408499D01*
X128919440Y-69375479D01*
X128852410Y-69355146D01*
X128782700Y-69348280D01*
X127782700Y-69348280D01*
X127712990Y-69355146D01*
X127645960Y-69375479D01*
X127584184Y-69408499D01*
X127530037Y-69452937D01*
X127485599Y-69507084D01*
X127452579Y-69568860D01*
X127432246Y-69635890D01*
X127425380Y-69705600D01*
X120217473Y-69705600D01*
X120204401Y-69674043D01*
X120140861Y-69578949D01*
X120059991Y-69498079D01*
X119964897Y-69434539D01*
X119859235Y-69390772D01*
X119747064Y-69368460D01*
X119632696Y-69368460D01*
X119520525Y-69390772D01*
X119414863Y-69434539D01*
X119319769Y-69498079D01*
X119238899Y-69578949D01*
X119175359Y-69674043D01*
X119131592Y-69779705D01*
X119109280Y-69891876D01*
X100380600Y-69891876D01*
X100380600Y-66973900D01*
X101827780Y-66973900D01*
X101827780Y-68673900D01*
X101834646Y-68743610D01*
X101854979Y-68810640D01*
X101887999Y-68872416D01*
X101932437Y-68926563D01*
X101986584Y-68971001D01*
X102048360Y-69004021D01*
X102115390Y-69024354D01*
X102185100Y-69031220D01*
X103885100Y-69031220D01*
X103954810Y-69024354D01*
X104021840Y-69004021D01*
X104083616Y-68971001D01*
X104137763Y-68926563D01*
X104182201Y-68872416D01*
X104215221Y-68810640D01*
X104235554Y-68743610D01*
X104242420Y-68673900D01*
X104242420Y-68535516D01*
X105515200Y-68535516D01*
X105515200Y-68649884D01*
X105537512Y-68762055D01*
X105581279Y-68867717D01*
X105644819Y-68962811D01*
X105725689Y-69043681D01*
X105820783Y-69107221D01*
X105926445Y-69150988D01*
X106038616Y-69173300D01*
X106152984Y-69173300D01*
X106265155Y-69150988D01*
X106370817Y-69107221D01*
X106465911Y-69043681D01*
X106546781Y-68962811D01*
X106610321Y-68867717D01*
X106654088Y-68762055D01*
X106676400Y-68649884D01*
X106676400Y-68535516D01*
X106654088Y-68423345D01*
X106610321Y-68317683D01*
X106546781Y-68222589D01*
X106465911Y-68141719D01*
X106370817Y-68078179D01*
X106265155Y-68034412D01*
X106152984Y-68012100D01*
X106038616Y-68012100D01*
X105926445Y-68034412D01*
X105820783Y-68078179D01*
X105725689Y-68141719D01*
X105644819Y-68222589D01*
X105581279Y-68317683D01*
X105537512Y-68423345D01*
X105515200Y-68535516D01*
X104242420Y-68535516D01*
X104242420Y-67622800D01*
X110724880Y-67622800D01*
X110724880Y-68622800D01*
X110731746Y-68692510D01*
X110752079Y-68759540D01*
X110785099Y-68821316D01*
X110829537Y-68875463D01*
X110883684Y-68919901D01*
X110945460Y-68952921D01*
X111012490Y-68973254D01*
X111082200Y-68980120D01*
X112082200Y-68980120D01*
X112151910Y-68973254D01*
X112218940Y-68952921D01*
X112280716Y-68919901D01*
X112334863Y-68875463D01*
X112379301Y-68821316D01*
X112412321Y-68759540D01*
X112432654Y-68692510D01*
X112439520Y-68622800D01*
X112439520Y-67622800D01*
X112435582Y-67582816D01*
X114939400Y-67582816D01*
X114939400Y-67697184D01*
X114961712Y-67809355D01*
X115005479Y-67915017D01*
X115069019Y-68010111D01*
X115149889Y-68090981D01*
X115244983Y-68154521D01*
X115350645Y-68198288D01*
X115462816Y-68220600D01*
X115577184Y-68220600D01*
X115689355Y-68198288D01*
X115795017Y-68154521D01*
X115890111Y-68090981D01*
X115970981Y-68010111D01*
X116034521Y-67915017D01*
X116078288Y-67809355D01*
X116100600Y-67697184D01*
X116100600Y-67582816D01*
X116086677Y-67512816D01*
X123259400Y-67512816D01*
X123259400Y-67627184D01*
X123281712Y-67739355D01*
X123325479Y-67845017D01*
X123389019Y-67940111D01*
X123469889Y-68020981D01*
X123564983Y-68084521D01*
X123670645Y-68128288D01*
X123782816Y-68150600D01*
X123897184Y-68150600D01*
X124009355Y-68128288D01*
X124115017Y-68084521D01*
X124210111Y-68020981D01*
X124290981Y-67940111D01*
X124354521Y-67845017D01*
X124398288Y-67739355D01*
X124420600Y-67627184D01*
X124420600Y-67512816D01*
X124398288Y-67400645D01*
X124354521Y-67294983D01*
X124290981Y-67199889D01*
X124210111Y-67119019D01*
X124115017Y-67055479D01*
X124009355Y-67011712D01*
X123897184Y-66989400D01*
X123782816Y-66989400D01*
X123670645Y-67011712D01*
X123564983Y-67055479D01*
X123469889Y-67119019D01*
X123389019Y-67199889D01*
X123325479Y-67294983D01*
X123281712Y-67400645D01*
X123259400Y-67512816D01*
X116086677Y-67512816D01*
X116078288Y-67470645D01*
X116034521Y-67364983D01*
X115970981Y-67269889D01*
X115890111Y-67189019D01*
X115795017Y-67125479D01*
X115689355Y-67081712D01*
X115577184Y-67059400D01*
X115462816Y-67059400D01*
X115350645Y-67081712D01*
X115244983Y-67125479D01*
X115149889Y-67189019D01*
X115069019Y-67269889D01*
X115005479Y-67364983D01*
X114961712Y-67470645D01*
X114939400Y-67582816D01*
X112435582Y-67582816D01*
X112432654Y-67553090D01*
X112412321Y-67486060D01*
X112379301Y-67424284D01*
X112334863Y-67370137D01*
X112280716Y-67325699D01*
X112218940Y-67292679D01*
X112151910Y-67272346D01*
X112082200Y-67265480D01*
X111082200Y-67265480D01*
X111012490Y-67272346D01*
X110945460Y-67292679D01*
X110883684Y-67325699D01*
X110829537Y-67370137D01*
X110785099Y-67424284D01*
X110752079Y-67486060D01*
X110731746Y-67553090D01*
X110724880Y-67622800D01*
X104242420Y-67622800D01*
X104242420Y-66973900D01*
X104235554Y-66904190D01*
X104215221Y-66837160D01*
X104182201Y-66775384D01*
X104137763Y-66721237D01*
X104083616Y-66676799D01*
X104021840Y-66643779D01*
X103954810Y-66623446D01*
X103885100Y-66616580D01*
X102185100Y-66616580D01*
X102115390Y-66623446D01*
X102048360Y-66643779D01*
X101986584Y-66676799D01*
X101932437Y-66721237D01*
X101887999Y-66775384D01*
X101854979Y-66837160D01*
X101834646Y-66904190D01*
X101827780Y-66973900D01*
X100380600Y-66973900D01*
X100380600Y-65702816D01*
X112439400Y-65702816D01*
X112439400Y-65817184D01*
X112461712Y-65929355D01*
X112505479Y-66035017D01*
X112569019Y-66130111D01*
X112649889Y-66210981D01*
X112744983Y-66274521D01*
X112850645Y-66318288D01*
X112962816Y-66340600D01*
X113077184Y-66340600D01*
X113189355Y-66318288D01*
X113295017Y-66274521D01*
X113389459Y-66211416D01*
X116739300Y-66211416D01*
X116739300Y-66325784D01*
X116761612Y-66437955D01*
X116805379Y-66543617D01*
X116868919Y-66638711D01*
X116949789Y-66719581D01*
X117044883Y-66783121D01*
X117150545Y-66826888D01*
X117262716Y-66849200D01*
X117377084Y-66849200D01*
X117489255Y-66826888D01*
X117594917Y-66783121D01*
X117690011Y-66719581D01*
X117770881Y-66638711D01*
X117834421Y-66543617D01*
X117878188Y-66437955D01*
X117900500Y-66325784D01*
X117900500Y-66211416D01*
X123727000Y-66211416D01*
X123727000Y-66325784D01*
X123749312Y-66437955D01*
X123793079Y-66543617D01*
X123856619Y-66638711D01*
X123937489Y-66719581D01*
X124032583Y-66783121D01*
X124138245Y-66826888D01*
X124250416Y-66849200D01*
X124364784Y-66849200D01*
X124476955Y-66826888D01*
X124582617Y-66783121D01*
X124677711Y-66719581D01*
X124758581Y-66638711D01*
X124822121Y-66543617D01*
X124865888Y-66437955D01*
X124888200Y-66325784D01*
X124888200Y-66211416D01*
X124865888Y-66099245D01*
X124822121Y-65993583D01*
X124758581Y-65898489D01*
X124677711Y-65817619D01*
X124582617Y-65754079D01*
X124476955Y-65710312D01*
X124364784Y-65688000D01*
X124250416Y-65688000D01*
X124138245Y-65710312D01*
X124032583Y-65754079D01*
X123937489Y-65817619D01*
X123856619Y-65898489D01*
X123793079Y-65993583D01*
X123749312Y-66099245D01*
X123727000Y-66211416D01*
X117900500Y-66211416D01*
X117878188Y-66099245D01*
X117834421Y-65993583D01*
X117770881Y-65898489D01*
X117690011Y-65817619D01*
X117594917Y-65754079D01*
X117489255Y-65710312D01*
X117377084Y-65688000D01*
X117262716Y-65688000D01*
X117150545Y-65710312D01*
X117044883Y-65754079D01*
X116949789Y-65817619D01*
X116868919Y-65898489D01*
X116805379Y-65993583D01*
X116761612Y-66099245D01*
X116739300Y-66211416D01*
X113389459Y-66211416D01*
X113390111Y-66210981D01*
X113470981Y-66130111D01*
X113534521Y-66035017D01*
X113578288Y-65929355D01*
X113600600Y-65817184D01*
X113600600Y-65702816D01*
X113578288Y-65590645D01*
X113534521Y-65484983D01*
X113470981Y-65389889D01*
X113390111Y-65309019D01*
X113295017Y-65245479D01*
X113189355Y-65201712D01*
X113077184Y-65179400D01*
X112962816Y-65179400D01*
X112850645Y-65201712D01*
X112744983Y-65245479D01*
X112649889Y-65309019D01*
X112569019Y-65389889D01*
X112505479Y-65484983D01*
X112461712Y-65590645D01*
X112439400Y-65702816D01*
X100380600Y-65702816D01*
X100380600Y-64662816D01*
X116729400Y-64662816D01*
X116729400Y-64777184D01*
X116751712Y-64889355D01*
X116795479Y-64995017D01*
X116859019Y-65090111D01*
X116939889Y-65170981D01*
X117034983Y-65234521D01*
X117140645Y-65278288D01*
X117252816Y-65300600D01*
X117367184Y-65300600D01*
X117479355Y-65278288D01*
X117585017Y-65234521D01*
X117680111Y-65170981D01*
X117760981Y-65090111D01*
X117824521Y-64995017D01*
X117868288Y-64889355D01*
X117890600Y-64777184D01*
X117890600Y-64662816D01*
X117868288Y-64550645D01*
X117824521Y-64444983D01*
X117760981Y-64349889D01*
X117680111Y-64269019D01*
X117585017Y-64205479D01*
X117479355Y-64161712D01*
X117367184Y-64139400D01*
X117252816Y-64139400D01*
X117140645Y-64161712D01*
X117034983Y-64205479D01*
X116939889Y-64269019D01*
X116859019Y-64349889D01*
X116795479Y-64444983D01*
X116751712Y-64550645D01*
X116729400Y-64662816D01*
X100380600Y-64662816D01*
X100380600Y-63722816D01*
X117709400Y-63722816D01*
X117709400Y-63837184D01*
X117731712Y-63949355D01*
X117775479Y-64055017D01*
X117839019Y-64150111D01*
X117919889Y-64230981D01*
X118014983Y-64294521D01*
X118120645Y-64338288D01*
X118232816Y-64360600D01*
X118347184Y-64360600D01*
X118459355Y-64338288D01*
X118565017Y-64294521D01*
X118660111Y-64230981D01*
X118740981Y-64150111D01*
X118804521Y-64055017D01*
X118848288Y-63949355D01*
X118870600Y-63837184D01*
X118870600Y-63722816D01*
X118848288Y-63610645D01*
X118804521Y-63504983D01*
X118740981Y-63409889D01*
X118660111Y-63329019D01*
X118565017Y-63265479D01*
X118459355Y-63221712D01*
X118347184Y-63199400D01*
X118232816Y-63199400D01*
X118120645Y-63221712D01*
X118014983Y-63265479D01*
X117919889Y-63329019D01*
X117839019Y-63409889D01*
X117775479Y-63504983D01*
X117731712Y-63610645D01*
X117709400Y-63722816D01*
X100380600Y-63722816D01*
X100380600Y-60863900D01*
X101885780Y-60863900D01*
X101885780Y-62563900D01*
X101892646Y-62633610D01*
X101912979Y-62700640D01*
X101945999Y-62762416D01*
X101990437Y-62816563D01*
X102044584Y-62861001D01*
X102106360Y-62894021D01*
X102173390Y-62914354D01*
X102243100Y-62921220D01*
X103943100Y-62921220D01*
X104012810Y-62914354D01*
X104079840Y-62894021D01*
X104141616Y-62861001D01*
X104195763Y-62816563D01*
X104240201Y-62762416D01*
X104273221Y-62700640D01*
X104293554Y-62633610D01*
X104300420Y-62563900D01*
X104300420Y-62510636D01*
X113625420Y-62510636D01*
X113625420Y-62625004D01*
X113647732Y-62737175D01*
X113691499Y-62842837D01*
X113755039Y-62937931D01*
X113835909Y-63018801D01*
X113931003Y-63082341D01*
X114036665Y-63126108D01*
X114148836Y-63148420D01*
X114263204Y-63148420D01*
X114375375Y-63126108D01*
X114481037Y-63082341D01*
X114576131Y-63018801D01*
X114657001Y-62937931D01*
X114720541Y-62842837D01*
X114764308Y-62737175D01*
X114786620Y-62625004D01*
X114786620Y-62510636D01*
X114767163Y-62412816D01*
X116319400Y-62412816D01*
X116319400Y-62527184D01*
X116341712Y-62639355D01*
X116385479Y-62745017D01*
X116449019Y-62840111D01*
X116529889Y-62920981D01*
X116624983Y-62984521D01*
X116730645Y-63028288D01*
X116842816Y-63050600D01*
X116957184Y-63050600D01*
X117069355Y-63028288D01*
X117175017Y-62984521D01*
X117270111Y-62920981D01*
X117350981Y-62840111D01*
X117414521Y-62745017D01*
X117458288Y-62639355D01*
X117465197Y-62604616D01*
X124455980Y-62604616D01*
X124455980Y-62718984D01*
X124478292Y-62831155D01*
X124522059Y-62936817D01*
X124585599Y-63031911D01*
X124666469Y-63112781D01*
X124761563Y-63176321D01*
X124867225Y-63220088D01*
X124979396Y-63242400D01*
X125093764Y-63242400D01*
X125205935Y-63220088D01*
X125311597Y-63176321D01*
X125406691Y-63112781D01*
X125487561Y-63031911D01*
X125551101Y-62936817D01*
X125594868Y-62831155D01*
X125617180Y-62718984D01*
X125617180Y-62604616D01*
X125594868Y-62492445D01*
X125551101Y-62386783D01*
X125487561Y-62291689D01*
X125406691Y-62210819D01*
X125311597Y-62147279D01*
X125205935Y-62103512D01*
X125093764Y-62081200D01*
X124979396Y-62081200D01*
X124867225Y-62103512D01*
X124761563Y-62147279D01*
X124666469Y-62210819D01*
X124585599Y-62291689D01*
X124522059Y-62386783D01*
X124478292Y-62492445D01*
X124455980Y-62604616D01*
X117465197Y-62604616D01*
X117480600Y-62527184D01*
X117480600Y-62412816D01*
X117458288Y-62300645D01*
X117414521Y-62194983D01*
X117409530Y-62187514D01*
X117434983Y-62204521D01*
X117540645Y-62248288D01*
X117652816Y-62270600D01*
X117767184Y-62270600D01*
X117879355Y-62248288D01*
X117985017Y-62204521D01*
X118080111Y-62140981D01*
X118160981Y-62060111D01*
X118224521Y-61965017D01*
X118268288Y-61859355D01*
X118290600Y-61747184D01*
X118290600Y-61632816D01*
X118288882Y-61624176D01*
X119518220Y-61624176D01*
X119518220Y-61738544D01*
X119540532Y-61850715D01*
X119584299Y-61956377D01*
X119647839Y-62051471D01*
X119728709Y-62132341D01*
X119823803Y-62195881D01*
X119929465Y-62239648D01*
X120041636Y-62261960D01*
X120156004Y-62261960D01*
X120268175Y-62239648D01*
X120373837Y-62195881D01*
X120468931Y-62132341D01*
X120549801Y-62051471D01*
X120613341Y-61956377D01*
X120657108Y-61850715D01*
X120679420Y-61738544D01*
X120679420Y-61624176D01*
X121120960Y-61624176D01*
X121120960Y-61738544D01*
X121143272Y-61850715D01*
X121187039Y-61956377D01*
X121250579Y-62051471D01*
X121331449Y-62132341D01*
X121426543Y-62195881D01*
X121532205Y-62239648D01*
X121644376Y-62261960D01*
X121758744Y-62261960D01*
X121870915Y-62239648D01*
X121976577Y-62195881D01*
X122071671Y-62132341D01*
X122152541Y-62051471D01*
X122216081Y-61956377D01*
X122259848Y-61850715D01*
X122282160Y-61738544D01*
X122282160Y-61624176D01*
X122259848Y-61512005D01*
X122216081Y-61406343D01*
X122204011Y-61388278D01*
X122226643Y-61403401D01*
X122332305Y-61447168D01*
X122444476Y-61469480D01*
X122558844Y-61469480D01*
X122671015Y-61447168D01*
X122776677Y-61403401D01*
X122871771Y-61339861D01*
X122952641Y-61258991D01*
X123016181Y-61163897D01*
X123059948Y-61058235D01*
X123082260Y-60946064D01*
X123082260Y-60831696D01*
X123059948Y-60719525D01*
X123016181Y-60613863D01*
X122952641Y-60518769D01*
X122871771Y-60437899D01*
X122776677Y-60374359D01*
X122671015Y-60330592D01*
X122558844Y-60308280D01*
X122444476Y-60308280D01*
X122332305Y-60330592D01*
X122226643Y-60374359D01*
X122131549Y-60437899D01*
X122050679Y-60518769D01*
X121987139Y-60613863D01*
X121943372Y-60719525D01*
X121921060Y-60831696D01*
X121921060Y-60946064D01*
X121943372Y-61058235D01*
X121987139Y-61163897D01*
X121999209Y-61181962D01*
X121976577Y-61166839D01*
X121870915Y-61123072D01*
X121758744Y-61100760D01*
X121644376Y-61100760D01*
X121532205Y-61123072D01*
X121426543Y-61166839D01*
X121331449Y-61230379D01*
X121250579Y-61311249D01*
X121187039Y-61406343D01*
X121143272Y-61512005D01*
X121120960Y-61624176D01*
X120679420Y-61624176D01*
X120657108Y-61512005D01*
X120613341Y-61406343D01*
X120549801Y-61311249D01*
X120468931Y-61230379D01*
X120373837Y-61166839D01*
X120268175Y-61123072D01*
X120156004Y-61100760D01*
X120041636Y-61100760D01*
X119929465Y-61123072D01*
X119823803Y-61166839D01*
X119728709Y-61230379D01*
X119647839Y-61311249D01*
X119584299Y-61406343D01*
X119540532Y-61512005D01*
X119518220Y-61624176D01*
X118288882Y-61624176D01*
X118268288Y-61520645D01*
X118224521Y-61414983D01*
X118199002Y-61376792D01*
X118231223Y-61398321D01*
X118336885Y-61442088D01*
X118449056Y-61464400D01*
X118563424Y-61464400D01*
X118675595Y-61442088D01*
X118781257Y-61398321D01*
X118876351Y-61334781D01*
X118957221Y-61253911D01*
X119020761Y-61158817D01*
X119064528Y-61053155D01*
X119086840Y-60940984D01*
X119086840Y-60826616D01*
X119064528Y-60714445D01*
X119020761Y-60608783D01*
X118967786Y-60529501D01*
X119044023Y-60580441D01*
X119149685Y-60624208D01*
X119261856Y-60646520D01*
X119376224Y-60646520D01*
X119488395Y-60624208D01*
X119594057Y-60580441D01*
X119689151Y-60516901D01*
X119770021Y-60436031D01*
X119833561Y-60340937D01*
X119877328Y-60235275D01*
X119899640Y-60123104D01*
X119899640Y-60008736D01*
X119877328Y-59896565D01*
X119833561Y-59790903D01*
X119770021Y-59695809D01*
X119689151Y-59614939D01*
X119594057Y-59551399D01*
X119488395Y-59507632D01*
X119376224Y-59485320D01*
X119261856Y-59485320D01*
X119149685Y-59507632D01*
X119044023Y-59551399D01*
X118948929Y-59614939D01*
X118868059Y-59695809D01*
X118804519Y-59790903D01*
X118760752Y-59896565D01*
X118738440Y-60008736D01*
X118738440Y-60123104D01*
X118760752Y-60235275D01*
X118804519Y-60340937D01*
X118857494Y-60420219D01*
X118781257Y-60369279D01*
X118675595Y-60325512D01*
X118563424Y-60303200D01*
X118449056Y-60303200D01*
X118336885Y-60325512D01*
X118231223Y-60369279D01*
X118183834Y-60400944D01*
X118214521Y-60355017D01*
X118258288Y-60249355D01*
X118280600Y-60137184D01*
X118280600Y-60022816D01*
X118258288Y-59910645D01*
X118214521Y-59804983D01*
X118150981Y-59709889D01*
X118070111Y-59629019D01*
X117975017Y-59565479D01*
X117869355Y-59521712D01*
X117757184Y-59499400D01*
X117642816Y-59499400D01*
X117530645Y-59521712D01*
X117424983Y-59565479D01*
X117329889Y-59629019D01*
X117249019Y-59709889D01*
X117185479Y-59804983D01*
X117141712Y-59910645D01*
X117119400Y-60022816D01*
X117119400Y-60137184D01*
X117141712Y-60249355D01*
X117185479Y-60355017D01*
X117208307Y-60389181D01*
X117178521Y-60369279D01*
X117072859Y-60325512D01*
X116960688Y-60303200D01*
X116846320Y-60303200D01*
X116734149Y-60325512D01*
X116628487Y-60369279D01*
X116533393Y-60432819D01*
X116452523Y-60513689D01*
X116388983Y-60608783D01*
X116345216Y-60714445D01*
X116322904Y-60826616D01*
X116322904Y-60940984D01*
X116345216Y-61053155D01*
X116388983Y-61158817D01*
X116452523Y-61253911D01*
X116533393Y-61334781D01*
X116628487Y-61398321D01*
X116734149Y-61442088D01*
X116846320Y-61464400D01*
X116960688Y-61464400D01*
X117072859Y-61442088D01*
X117178521Y-61398321D01*
X117229270Y-61364412D01*
X117195479Y-61414983D01*
X117151712Y-61520645D01*
X117129400Y-61632816D01*
X117129400Y-61747184D01*
X117151712Y-61859355D01*
X117195479Y-61965017D01*
X117200470Y-61972486D01*
X117175017Y-61955479D01*
X117069355Y-61911712D01*
X116957184Y-61889400D01*
X116842816Y-61889400D01*
X116730645Y-61911712D01*
X116624983Y-61955479D01*
X116529889Y-62019019D01*
X116449019Y-62099889D01*
X116385479Y-62194983D01*
X116341712Y-62300645D01*
X116319400Y-62412816D01*
X114767163Y-62412816D01*
X114764308Y-62398465D01*
X114720541Y-62292803D01*
X114657001Y-62197709D01*
X114576131Y-62116839D01*
X114481037Y-62053299D01*
X114375375Y-62009532D01*
X114263204Y-61987220D01*
X114148836Y-61987220D01*
X114036665Y-62009532D01*
X113931003Y-62053299D01*
X113835909Y-62116839D01*
X113755039Y-62197709D01*
X113691499Y-62292803D01*
X113647732Y-62398465D01*
X113625420Y-62510636D01*
X104300420Y-62510636D01*
X104300420Y-60863900D01*
X104294247Y-60801216D01*
X104689700Y-60801216D01*
X104689700Y-60915584D01*
X104712012Y-61027755D01*
X104755779Y-61133417D01*
X104819319Y-61228511D01*
X104900189Y-61309381D01*
X104995283Y-61372921D01*
X105100945Y-61416688D01*
X105213116Y-61439000D01*
X105327484Y-61439000D01*
X105439655Y-61416688D01*
X105545317Y-61372921D01*
X105640411Y-61309381D01*
X105721281Y-61228511D01*
X105784821Y-61133417D01*
X105828588Y-61027755D01*
X105850900Y-60915584D01*
X105850900Y-60801216D01*
X105828588Y-60689045D01*
X105784821Y-60583383D01*
X105721281Y-60488289D01*
X105640411Y-60407419D01*
X105545317Y-60343879D01*
X105439655Y-60300112D01*
X105327484Y-60277800D01*
X105213116Y-60277800D01*
X105100945Y-60300112D01*
X104995283Y-60343879D01*
X104900189Y-60407419D01*
X104819319Y-60488289D01*
X104755779Y-60583383D01*
X104712012Y-60689045D01*
X104689700Y-60801216D01*
X104294247Y-60801216D01*
X104293554Y-60794190D01*
X104273221Y-60727160D01*
X104240201Y-60665384D01*
X104195763Y-60611237D01*
X104141616Y-60566799D01*
X104079840Y-60533779D01*
X104012810Y-60513446D01*
X103943100Y-60506580D01*
X102243100Y-60506580D01*
X102173390Y-60513446D01*
X102106360Y-60533779D01*
X102044584Y-60566799D01*
X101990437Y-60611237D01*
X101945999Y-60665384D01*
X101912979Y-60727160D01*
X101892646Y-60794190D01*
X101885780Y-60863900D01*
X100380600Y-60863900D01*
X100380600Y-58363900D01*
X101885779Y-58363900D01*
X101892645Y-58433610D01*
X101912978Y-58500641D01*
X101945998Y-58562417D01*
X101990436Y-58616564D01*
X102044583Y-58661002D01*
X102106359Y-58694022D01*
X102173390Y-58714355D01*
X102243100Y-58721221D01*
X102978800Y-58719500D01*
X103067700Y-58630600D01*
X103067700Y-57539300D01*
X103118500Y-57539300D01*
X103118500Y-58630600D01*
X103207400Y-58719500D01*
X103943100Y-58721221D01*
X104012810Y-58714355D01*
X104079841Y-58694022D01*
X104141617Y-58661002D01*
X104195764Y-58616564D01*
X104240202Y-58562417D01*
X104273222Y-58500641D01*
X104293555Y-58433610D01*
X104300421Y-58363900D01*
X104299647Y-58032616D01*
X106328000Y-58032616D01*
X106328000Y-58146984D01*
X106350312Y-58259155D01*
X106394079Y-58364817D01*
X106457619Y-58459911D01*
X106538489Y-58540781D01*
X106633583Y-58604321D01*
X106739245Y-58648088D01*
X106851416Y-58670400D01*
X106965784Y-58670400D01*
X107054185Y-58652816D01*
X113639400Y-58652816D01*
X113639400Y-58767184D01*
X113661712Y-58879355D01*
X113705479Y-58985017D01*
X113769019Y-59080111D01*
X113849889Y-59160981D01*
X113944983Y-59224521D01*
X114050645Y-59268288D01*
X114162816Y-59290600D01*
X114277184Y-59290600D01*
X114328519Y-59280389D01*
X114299019Y-59309889D01*
X114235479Y-59404983D01*
X114191712Y-59510645D01*
X114169400Y-59622816D01*
X114169400Y-59737184D01*
X114191712Y-59849355D01*
X114235479Y-59955017D01*
X114299019Y-60050111D01*
X114379889Y-60130981D01*
X114474983Y-60194521D01*
X114580645Y-60238288D01*
X114692816Y-60260600D01*
X114807184Y-60260600D01*
X114919355Y-60238288D01*
X115025017Y-60194521D01*
X115120111Y-60130981D01*
X115200981Y-60050111D01*
X115264521Y-59955017D01*
X115308288Y-59849355D01*
X115330600Y-59737184D01*
X115330600Y-59622816D01*
X115308288Y-59510645D01*
X115264521Y-59404983D01*
X115200981Y-59309889D01*
X115123908Y-59232816D01*
X123259400Y-59232816D01*
X123259400Y-59347184D01*
X123281712Y-59459355D01*
X123325479Y-59565017D01*
X123389019Y-59660111D01*
X123469889Y-59740981D01*
X123564983Y-59804521D01*
X123670645Y-59848288D01*
X123782816Y-59870600D01*
X123897184Y-59870600D01*
X124009355Y-59848288D01*
X124115017Y-59804521D01*
X124210111Y-59740981D01*
X124290981Y-59660111D01*
X124354521Y-59565017D01*
X124398288Y-59459355D01*
X124420600Y-59347184D01*
X124420600Y-59232816D01*
X124398288Y-59120645D01*
X124354521Y-59014983D01*
X124290981Y-58919889D01*
X124210111Y-58839019D01*
X124115017Y-58775479D01*
X124009355Y-58731712D01*
X123897184Y-58709400D01*
X123782816Y-58709400D01*
X123670645Y-58731712D01*
X123564983Y-58775479D01*
X123469889Y-58839019D01*
X123389019Y-58919889D01*
X123325479Y-59014983D01*
X123281712Y-59120645D01*
X123259400Y-59232816D01*
X115123908Y-59232816D01*
X115120111Y-59229019D01*
X115025017Y-59165479D01*
X114919355Y-59121712D01*
X114807184Y-59099400D01*
X114692816Y-59099400D01*
X114641481Y-59109611D01*
X114670981Y-59080111D01*
X114734521Y-58985017D01*
X114778288Y-58879355D01*
X114800600Y-58767184D01*
X114800600Y-58652816D01*
X114778288Y-58540645D01*
X114734521Y-58434983D01*
X114670981Y-58339889D01*
X114590111Y-58259019D01*
X114495017Y-58195479D01*
X114389355Y-58151712D01*
X114277184Y-58129400D01*
X114162816Y-58129400D01*
X114050645Y-58151712D01*
X113944983Y-58195479D01*
X113849889Y-58259019D01*
X113769019Y-58339889D01*
X113705479Y-58434983D01*
X113661712Y-58540645D01*
X113639400Y-58652816D01*
X107054185Y-58652816D01*
X107077955Y-58648088D01*
X107183617Y-58604321D01*
X107278711Y-58540781D01*
X107359581Y-58459911D01*
X107423121Y-58364817D01*
X107466888Y-58259155D01*
X107489200Y-58146984D01*
X107489200Y-58032616D01*
X107466888Y-57920445D01*
X107423121Y-57814783D01*
X107359581Y-57719689D01*
X107278711Y-57638819D01*
X107271254Y-57633836D01*
X114445840Y-57633836D01*
X114445840Y-57748204D01*
X114468152Y-57860375D01*
X114511919Y-57966037D01*
X114575459Y-58061131D01*
X114656329Y-58142001D01*
X114751423Y-58205541D01*
X114857085Y-58249308D01*
X114969256Y-58271620D01*
X115083624Y-58271620D01*
X115195795Y-58249308D01*
X115301457Y-58205541D01*
X115396551Y-58142001D01*
X115477421Y-58061131D01*
X115540961Y-57966037D01*
X115584728Y-57860375D01*
X115607040Y-57748204D01*
X115607040Y-57633836D01*
X115584728Y-57521665D01*
X115540961Y-57416003D01*
X115477421Y-57320909D01*
X115396551Y-57240039D01*
X115301457Y-57176499D01*
X115195795Y-57132732D01*
X115083624Y-57110420D01*
X114969256Y-57110420D01*
X114857085Y-57132732D01*
X114751423Y-57176499D01*
X114656329Y-57240039D01*
X114575459Y-57320909D01*
X114511919Y-57416003D01*
X114468152Y-57521665D01*
X114445840Y-57633836D01*
X107271254Y-57633836D01*
X107183617Y-57575279D01*
X107077955Y-57531512D01*
X106965784Y-57509200D01*
X106851416Y-57509200D01*
X106739245Y-57531512D01*
X106633583Y-57575279D01*
X106538489Y-57638819D01*
X106457619Y-57719689D01*
X106394079Y-57814783D01*
X106350312Y-57920445D01*
X106328000Y-58032616D01*
X104299647Y-58032616D01*
X104298700Y-57628200D01*
X104209800Y-57539300D01*
X103118500Y-57539300D01*
X103067700Y-57539300D01*
X101976400Y-57539300D01*
X101887500Y-57628200D01*
X101885779Y-58363900D01*
X100380600Y-58363900D01*
X100380600Y-56663900D01*
X101885779Y-56663900D01*
X101887500Y-57399600D01*
X101976400Y-57488500D01*
X103067700Y-57488500D01*
X103067700Y-56397200D01*
X103118500Y-56397200D01*
X103118500Y-57488500D01*
X104209800Y-57488500D01*
X104298700Y-57399600D01*
X104300184Y-56765156D01*
X113658440Y-56765156D01*
X113658440Y-56879524D01*
X113680752Y-56991695D01*
X113724519Y-57097357D01*
X113788059Y-57192451D01*
X113868929Y-57273321D01*
X113964023Y-57336861D01*
X114069685Y-57380628D01*
X114181856Y-57402940D01*
X114296224Y-57402940D01*
X114408395Y-57380628D01*
X114514057Y-57336861D01*
X114609151Y-57273321D01*
X114690021Y-57192451D01*
X114753561Y-57097357D01*
X114797328Y-56991695D01*
X114819640Y-56879524D01*
X114819640Y-56822816D01*
X115519400Y-56822816D01*
X115519400Y-56937184D01*
X115541712Y-57049355D01*
X115585479Y-57155017D01*
X115649019Y-57250111D01*
X115729889Y-57330981D01*
X115824983Y-57394521D01*
X115930645Y-57438288D01*
X116042816Y-57460600D01*
X116157184Y-57460600D01*
X116269355Y-57438288D01*
X116375017Y-57394521D01*
X116416973Y-57366487D01*
X116388979Y-57408383D01*
X116345212Y-57514045D01*
X116322900Y-57626216D01*
X116322900Y-57740584D01*
X116345212Y-57852755D01*
X116388979Y-57958417D01*
X116452519Y-58053511D01*
X116478958Y-58079950D01*
X116449019Y-58109889D01*
X116385479Y-58204983D01*
X116341712Y-58310645D01*
X116319400Y-58422816D01*
X116319400Y-58537184D01*
X116341712Y-58649355D01*
X116385479Y-58755017D01*
X116449019Y-58850111D01*
X116529889Y-58930981D01*
X116624983Y-58994521D01*
X116730645Y-59038288D01*
X116842816Y-59060600D01*
X116957184Y-59060600D01*
X117069355Y-59038288D01*
X117175017Y-58994521D01*
X117270111Y-58930981D01*
X117350981Y-58850111D01*
X117414521Y-58755017D01*
X117458288Y-58649355D01*
X117480600Y-58537184D01*
X117480600Y-58422926D01*
X118719400Y-58422926D01*
X118719400Y-58537294D01*
X118741712Y-58649465D01*
X118785479Y-58755127D01*
X118849019Y-58850221D01*
X118929889Y-58931091D01*
X119024983Y-58994631D01*
X119130645Y-59038398D01*
X119242816Y-59060710D01*
X119357184Y-59060710D01*
X119469355Y-59038398D01*
X119575017Y-58994631D01*
X119670111Y-58931091D01*
X119750981Y-58850221D01*
X119814521Y-58755127D01*
X119858288Y-58649465D01*
X119880600Y-58537294D01*
X119880600Y-58426316D01*
X121923600Y-58426316D01*
X121923600Y-58540684D01*
X121945912Y-58652855D01*
X121989679Y-58758517D01*
X122053219Y-58853611D01*
X122134089Y-58934481D01*
X122229183Y-58998021D01*
X122334845Y-59041788D01*
X122447016Y-59064100D01*
X122561384Y-59064100D01*
X122673555Y-59041788D01*
X122779217Y-58998021D01*
X122874311Y-58934481D01*
X122955181Y-58853611D01*
X123018721Y-58758517D01*
X123062488Y-58652855D01*
X123084800Y-58540684D01*
X123084800Y-58426316D01*
X123062488Y-58314145D01*
X123018721Y-58208483D01*
X122955181Y-58113389D01*
X122874311Y-58032519D01*
X122779217Y-57968979D01*
X122673555Y-57925212D01*
X122561384Y-57902900D01*
X122447016Y-57902900D01*
X122334845Y-57925212D01*
X122229183Y-57968979D01*
X122134089Y-58032519D01*
X122053219Y-58113389D01*
X121989679Y-58208483D01*
X121945912Y-58314145D01*
X121923600Y-58426316D01*
X119880600Y-58426316D01*
X119880600Y-58422926D01*
X119858288Y-58310755D01*
X119814521Y-58205093D01*
X119750981Y-58109999D01*
X119730982Y-58090000D01*
X119760981Y-58060001D01*
X119824521Y-57964907D01*
X119868288Y-57859245D01*
X119890600Y-57747074D01*
X119890600Y-57632706D01*
X119868288Y-57520535D01*
X119824521Y-57414873D01*
X119803587Y-57383542D01*
X119834983Y-57404521D01*
X119940645Y-57448288D01*
X120052816Y-57470600D01*
X120167184Y-57470600D01*
X120279355Y-57448288D01*
X120385017Y-57404521D01*
X120397740Y-57396020D01*
X120389479Y-57408383D01*
X120345712Y-57514045D01*
X120323400Y-57626216D01*
X120323400Y-57740584D01*
X120345712Y-57852755D01*
X120389479Y-57958417D01*
X120453019Y-58053511D01*
X120533889Y-58134381D01*
X120628983Y-58197921D01*
X120734645Y-58241688D01*
X120846816Y-58264000D01*
X120961184Y-58264000D01*
X121073355Y-58241688D01*
X121179017Y-58197921D01*
X121274111Y-58134381D01*
X121354981Y-58053511D01*
X121418521Y-57958417D01*
X121462288Y-57852755D01*
X121484600Y-57740584D01*
X121484600Y-57626216D01*
X121462288Y-57514045D01*
X121453495Y-57492816D01*
X123199400Y-57492816D01*
X123199400Y-57607184D01*
X123221712Y-57719355D01*
X123265479Y-57825017D01*
X123329019Y-57920111D01*
X123409889Y-58000981D01*
X123504983Y-58064521D01*
X123610645Y-58108288D01*
X123722816Y-58130600D01*
X123837184Y-58130600D01*
X123949355Y-58108288D01*
X124055017Y-58064521D01*
X124150111Y-58000981D01*
X124230981Y-57920111D01*
X124294521Y-57825017D01*
X124338288Y-57719355D01*
X124360600Y-57607184D01*
X124360600Y-57492816D01*
X124338288Y-57380645D01*
X124294521Y-57274983D01*
X124230981Y-57179889D01*
X124150111Y-57099019D01*
X124055017Y-57035479D01*
X123949355Y-56991712D01*
X123837184Y-56969400D01*
X123722816Y-56969400D01*
X123610645Y-56991712D01*
X123504983Y-57035479D01*
X123409889Y-57099019D01*
X123329019Y-57179889D01*
X123265479Y-57274983D01*
X123221712Y-57380645D01*
X123199400Y-57492816D01*
X121453495Y-57492816D01*
X121418521Y-57408383D01*
X121354981Y-57313289D01*
X121274111Y-57232419D01*
X121179017Y-57168879D01*
X121073355Y-57125112D01*
X120961184Y-57102800D01*
X120846816Y-57102800D01*
X120734645Y-57125112D01*
X120628983Y-57168879D01*
X120616260Y-57177380D01*
X120624521Y-57165017D01*
X120668288Y-57059355D01*
X120690600Y-56947184D01*
X120690600Y-56832816D01*
X121919400Y-56832816D01*
X121919400Y-56947184D01*
X121941712Y-57059355D01*
X121985479Y-57165017D01*
X122049019Y-57260111D01*
X122129889Y-57340981D01*
X122224983Y-57404521D01*
X122330645Y-57448288D01*
X122442816Y-57470600D01*
X122557184Y-57470600D01*
X122669355Y-57448288D01*
X122775017Y-57404521D01*
X122870111Y-57340981D01*
X122950981Y-57260111D01*
X123014521Y-57165017D01*
X123058288Y-57059355D01*
X123080600Y-56947184D01*
X123080600Y-56832816D01*
X123058288Y-56720645D01*
X123014521Y-56614983D01*
X122950981Y-56519889D01*
X122870111Y-56439019D01*
X122775017Y-56375479D01*
X122669355Y-56331712D01*
X122557184Y-56309400D01*
X122442816Y-56309400D01*
X122330645Y-56331712D01*
X122224983Y-56375479D01*
X122129889Y-56439019D01*
X122049019Y-56519889D01*
X121985479Y-56614983D01*
X121941712Y-56720645D01*
X121919400Y-56832816D01*
X120690600Y-56832816D01*
X120668288Y-56720645D01*
X120624521Y-56614983D01*
X120560981Y-56519889D01*
X120480111Y-56439019D01*
X120385017Y-56375479D01*
X120279355Y-56331712D01*
X120167184Y-56309400D01*
X120052816Y-56309400D01*
X119940645Y-56331712D01*
X119834983Y-56375479D01*
X119803454Y-56396546D01*
X119824521Y-56365017D01*
X119868288Y-56259355D01*
X119890600Y-56147184D01*
X119890600Y-56032816D01*
X119868288Y-55920645D01*
X119824521Y-55814983D01*
X119760981Y-55719889D01*
X119680111Y-55639019D01*
X119585017Y-55575479D01*
X119479355Y-55531712D01*
X119367184Y-55509400D01*
X119252816Y-55509400D01*
X119140645Y-55531712D01*
X119034983Y-55575479D01*
X118939889Y-55639019D01*
X118859019Y-55719889D01*
X118795479Y-55814983D01*
X118751712Y-55920645D01*
X118729400Y-56032816D01*
X118729400Y-56147184D01*
X118751712Y-56259355D01*
X118795479Y-56365017D01*
X118859019Y-56460111D01*
X118939889Y-56540981D01*
X119034983Y-56604521D01*
X119140645Y-56648288D01*
X119252816Y-56670600D01*
X119367184Y-56670600D01*
X119479355Y-56648288D01*
X119585017Y-56604521D01*
X119616546Y-56583454D01*
X119595479Y-56614983D01*
X119551712Y-56720645D01*
X119529400Y-56832816D01*
X119529400Y-56947184D01*
X119551712Y-57059355D01*
X119595479Y-57165017D01*
X119616413Y-57196348D01*
X119585017Y-57175369D01*
X119479355Y-57131602D01*
X119367184Y-57109290D01*
X119252816Y-57109290D01*
X119140645Y-57131602D01*
X119034983Y-57175369D01*
X118939889Y-57238909D01*
X118859019Y-57319779D01*
X118795479Y-57414873D01*
X118751712Y-57520535D01*
X118729400Y-57632706D01*
X118729400Y-57747074D01*
X118751712Y-57859245D01*
X118795479Y-57964907D01*
X118859019Y-58060001D01*
X118879018Y-58080000D01*
X118849019Y-58109999D01*
X118785479Y-58205093D01*
X118741712Y-58310755D01*
X118719400Y-58422926D01*
X117480600Y-58422926D01*
X117480600Y-58422816D01*
X117458288Y-58310645D01*
X117414521Y-58204983D01*
X117394654Y-58175250D01*
X117428583Y-58197921D01*
X117534245Y-58241688D01*
X117646416Y-58264000D01*
X117760784Y-58264000D01*
X117872955Y-58241688D01*
X117978617Y-58197921D01*
X118073711Y-58134381D01*
X118154581Y-58053511D01*
X118218121Y-57958417D01*
X118261888Y-57852755D01*
X118284200Y-57740584D01*
X118284200Y-57626216D01*
X118261888Y-57514045D01*
X118218121Y-57408383D01*
X118154581Y-57313289D01*
X118073711Y-57232419D01*
X117978617Y-57168879D01*
X117872955Y-57125112D01*
X117760784Y-57102800D01*
X117646416Y-57102800D01*
X117534245Y-57125112D01*
X117428583Y-57168879D01*
X117333489Y-57232419D01*
X117303550Y-57262358D01*
X117273611Y-57232419D01*
X117178517Y-57168879D01*
X117072855Y-57125112D01*
X116960684Y-57102800D01*
X116846316Y-57102800D01*
X116734145Y-57125112D01*
X116628483Y-57168879D01*
X116586527Y-57196913D01*
X116614521Y-57155017D01*
X116658288Y-57049355D01*
X116680600Y-56937184D01*
X116680600Y-56822816D01*
X116658288Y-56710645D01*
X116614521Y-56604983D01*
X116550981Y-56509889D01*
X116470111Y-56429019D01*
X116375017Y-56365479D01*
X116269355Y-56321712D01*
X116157184Y-56299400D01*
X116042816Y-56299400D01*
X115930645Y-56321712D01*
X115824983Y-56365479D01*
X115729889Y-56429019D01*
X115649019Y-56509889D01*
X115585479Y-56604983D01*
X115541712Y-56710645D01*
X115519400Y-56822816D01*
X114819640Y-56822816D01*
X114819640Y-56765156D01*
X114797328Y-56652985D01*
X114753561Y-56547323D01*
X114690021Y-56452229D01*
X114609151Y-56371359D01*
X114514057Y-56307819D01*
X114408395Y-56264052D01*
X114296224Y-56241740D01*
X114181856Y-56241740D01*
X114069685Y-56264052D01*
X113964023Y-56307819D01*
X113868929Y-56371359D01*
X113788059Y-56452229D01*
X113724519Y-56547323D01*
X113680752Y-56652985D01*
X113658440Y-56765156D01*
X104300184Y-56765156D01*
X104300421Y-56663900D01*
X104293555Y-56594190D01*
X104273222Y-56527159D01*
X104240202Y-56465383D01*
X104195764Y-56411236D01*
X104141617Y-56366798D01*
X104079841Y-56333778D01*
X104012810Y-56313445D01*
X103943100Y-56306579D01*
X103207400Y-56308300D01*
X103118500Y-56397200D01*
X103067700Y-56397200D01*
X102978800Y-56308300D01*
X102243100Y-56306579D01*
X102173390Y-56313445D01*
X102106359Y-56333778D01*
X102044583Y-56366798D01*
X101990436Y-56411236D01*
X101945998Y-56465383D01*
X101912978Y-56527159D01*
X101892645Y-56594190D01*
X101885779Y-56663900D01*
X100380600Y-56663900D01*
X100380600Y-54084600D01*
X106076680Y-54084600D01*
X106076680Y-55084600D01*
X106083546Y-55154310D01*
X106103879Y-55221340D01*
X106136899Y-55283116D01*
X106181337Y-55337263D01*
X106235484Y-55381701D01*
X106297260Y-55414721D01*
X106364290Y-55435054D01*
X106434000Y-55441920D01*
X107434000Y-55441920D01*
X107503710Y-55435054D01*
X107570740Y-55414721D01*
X107632516Y-55381701D01*
X107686663Y-55337263D01*
X107731101Y-55283116D01*
X107764121Y-55221340D01*
X107784454Y-55154310D01*
X107791320Y-55084600D01*
X107791320Y-54892816D01*
X109649400Y-54892816D01*
X109649400Y-55007184D01*
X109671712Y-55119355D01*
X109715479Y-55225017D01*
X109779019Y-55320111D01*
X109859889Y-55400981D01*
X109954983Y-55464521D01*
X110060645Y-55508288D01*
X110144663Y-55525000D01*
X110060645Y-55541712D01*
X109954983Y-55585479D01*
X109859889Y-55649019D01*
X109779019Y-55729889D01*
X109715479Y-55824983D01*
X109671712Y-55930645D01*
X109649400Y-56042816D01*
X109649400Y-56157184D01*
X109671712Y-56269355D01*
X109715479Y-56375017D01*
X109779019Y-56470111D01*
X109859889Y-56550981D01*
X109954983Y-56614521D01*
X110060645Y-56658288D01*
X110172816Y-56680600D01*
X110287184Y-56680600D01*
X110399355Y-56658288D01*
X110505017Y-56614521D01*
X110600111Y-56550981D01*
X110680981Y-56470111D01*
X110744521Y-56375017D01*
X110788288Y-56269355D01*
X110810600Y-56157184D01*
X110810600Y-56042816D01*
X110788288Y-55930645D01*
X110744521Y-55824983D01*
X110680981Y-55729889D01*
X110600111Y-55649019D01*
X110505017Y-55585479D01*
X110399355Y-55541712D01*
X110315337Y-55525000D01*
X110399355Y-55508288D01*
X110505017Y-55464521D01*
X110600111Y-55400981D01*
X110680981Y-55320111D01*
X110744521Y-55225017D01*
X110788288Y-55119355D01*
X110810600Y-55007184D01*
X110810600Y-54892816D01*
X110788288Y-54780645D01*
X110782295Y-54766176D01*
X114425520Y-54766176D01*
X114425520Y-54880544D01*
X114447832Y-54992715D01*
X114491599Y-55098377D01*
X114555139Y-55193471D01*
X114636009Y-55274341D01*
X114731103Y-55337881D01*
X114836765Y-55381648D01*
X114948936Y-55403960D01*
X115063304Y-55403960D01*
X115175475Y-55381648D01*
X115281137Y-55337881D01*
X115376231Y-55274341D01*
X115457101Y-55193471D01*
X115520641Y-55098377D01*
X115564408Y-54992715D01*
X115586720Y-54880544D01*
X115586720Y-54766176D01*
X115564408Y-54654005D01*
X115547745Y-54613776D01*
X117925640Y-54613776D01*
X117925640Y-54728144D01*
X117947952Y-54840315D01*
X117991719Y-54945977D01*
X118055259Y-55041071D01*
X118136129Y-55121941D01*
X118231223Y-55185481D01*
X118336885Y-55229248D01*
X118449056Y-55251560D01*
X118563424Y-55251560D01*
X118675595Y-55229248D01*
X118781257Y-55185481D01*
X118876351Y-55121941D01*
X118957221Y-55041071D01*
X119020761Y-54945977D01*
X119064528Y-54840315D01*
X119086840Y-54728144D01*
X119086840Y-54613776D01*
X119064528Y-54501605D01*
X119020761Y-54395943D01*
X118957221Y-54300849D01*
X118899188Y-54242816D01*
X119919400Y-54242816D01*
X119919400Y-54357184D01*
X119941712Y-54469355D01*
X119985479Y-54575017D01*
X120049019Y-54670111D01*
X120129889Y-54750981D01*
X120224983Y-54814521D01*
X120330645Y-54858288D01*
X120442816Y-54880600D01*
X120557184Y-54880600D01*
X120669355Y-54858288D01*
X120775017Y-54814521D01*
X120799233Y-54798340D01*
X129017960Y-54798340D01*
X129017960Y-55798340D01*
X129024826Y-55868050D01*
X129045159Y-55935080D01*
X129078179Y-55996856D01*
X129122617Y-56051003D01*
X129176764Y-56095441D01*
X129238540Y-56128461D01*
X129305570Y-56148794D01*
X129375280Y-56155660D01*
X130375280Y-56155660D01*
X130444990Y-56148794D01*
X130512020Y-56128461D01*
X130573796Y-56095441D01*
X130627943Y-56051003D01*
X130662462Y-56008942D01*
X130667635Y-56013187D01*
X130816272Y-56092635D01*
X130977553Y-56141559D01*
X131103257Y-56153940D01*
X131187303Y-56153940D01*
X131313007Y-56141559D01*
X131474288Y-56092635D01*
X131622925Y-56013187D01*
X131753207Y-55906267D01*
X131780280Y-55873279D01*
X131807353Y-55906267D01*
X131937635Y-56013187D01*
X132086272Y-56092635D01*
X132247553Y-56141559D01*
X132373257Y-56153940D01*
X132457303Y-56153940D01*
X132583007Y-56141559D01*
X132744288Y-56092635D01*
X132892925Y-56013187D01*
X133023207Y-55906267D01*
X133050280Y-55873279D01*
X133077353Y-55906267D01*
X133207635Y-56013187D01*
X133356272Y-56092635D01*
X133517553Y-56141559D01*
X133643257Y-56153940D01*
X133727303Y-56153940D01*
X133853007Y-56141559D01*
X134014288Y-56092635D01*
X134162925Y-56013187D01*
X134293207Y-55906267D01*
X134320280Y-55873279D01*
X134347353Y-55906267D01*
X134477635Y-56013187D01*
X134626272Y-56092635D01*
X134787553Y-56141559D01*
X134913257Y-56153940D01*
X134997303Y-56153940D01*
X135123007Y-56141559D01*
X135284288Y-56092635D01*
X135432925Y-56013187D01*
X135563207Y-55906267D01*
X135670127Y-55775985D01*
X135749575Y-55627348D01*
X135798499Y-55466067D01*
X135815019Y-55298340D01*
X135798499Y-55130613D01*
X135749575Y-54969332D01*
X135670127Y-54820695D01*
X135563207Y-54690413D01*
X135432925Y-54583493D01*
X135284288Y-54504045D01*
X135123007Y-54455121D01*
X134997303Y-54442740D01*
X134913257Y-54442740D01*
X134787553Y-54455121D01*
X134626272Y-54504045D01*
X134477635Y-54583493D01*
X134347353Y-54690413D01*
X134320280Y-54723401D01*
X134293207Y-54690413D01*
X134162925Y-54583493D01*
X134014288Y-54504045D01*
X133853007Y-54455121D01*
X133727303Y-54442740D01*
X133643257Y-54442740D01*
X133517553Y-54455121D01*
X133356272Y-54504045D01*
X133207635Y-54583493D01*
X133077353Y-54690413D01*
X133050280Y-54723401D01*
X133023207Y-54690413D01*
X132892925Y-54583493D01*
X132744288Y-54504045D01*
X132583007Y-54455121D01*
X132457303Y-54442740D01*
X132373257Y-54442740D01*
X132247553Y-54455121D01*
X132086272Y-54504045D01*
X131937635Y-54583493D01*
X131807353Y-54690413D01*
X131780280Y-54723401D01*
X131753207Y-54690413D01*
X131622925Y-54583493D01*
X131474288Y-54504045D01*
X131313007Y-54455121D01*
X131187303Y-54442740D01*
X131103257Y-54442740D01*
X130977553Y-54455121D01*
X130816272Y-54504045D01*
X130667635Y-54583493D01*
X130662462Y-54587738D01*
X130627943Y-54545677D01*
X130573796Y-54501239D01*
X130512020Y-54468219D01*
X130444990Y-54447886D01*
X130375280Y-54441020D01*
X129375280Y-54441020D01*
X129305570Y-54447886D01*
X129238540Y-54468219D01*
X129176764Y-54501239D01*
X129122617Y-54545677D01*
X129078179Y-54599824D01*
X129045159Y-54661600D01*
X129024826Y-54728630D01*
X129017960Y-54798340D01*
X120799233Y-54798340D01*
X120870111Y-54750981D01*
X120950981Y-54670111D01*
X121014521Y-54575017D01*
X121058288Y-54469355D01*
X121080600Y-54357184D01*
X121080600Y-54242816D01*
X121058288Y-54130645D01*
X121014521Y-54024983D01*
X120950981Y-53929889D01*
X120870111Y-53849019D01*
X120775017Y-53785479D01*
X120669355Y-53741712D01*
X120557184Y-53719400D01*
X120442816Y-53719400D01*
X120330645Y-53741712D01*
X120224983Y-53785479D01*
X120129889Y-53849019D01*
X120049019Y-53929889D01*
X119985479Y-54024983D01*
X119941712Y-54130645D01*
X119919400Y-54242816D01*
X118899188Y-54242816D01*
X118876351Y-54219979D01*
X118781257Y-54156439D01*
X118675595Y-54112672D01*
X118563424Y-54090360D01*
X118449056Y-54090360D01*
X118336885Y-54112672D01*
X118231223Y-54156439D01*
X118136129Y-54219979D01*
X118055259Y-54300849D01*
X117991719Y-54395943D01*
X117947952Y-54501605D01*
X117925640Y-54613776D01*
X115547745Y-54613776D01*
X115520641Y-54548343D01*
X115457101Y-54453249D01*
X115376231Y-54372379D01*
X115281137Y-54308839D01*
X115175475Y-54265072D01*
X115063304Y-54242760D01*
X114948936Y-54242760D01*
X114836765Y-54265072D01*
X114731103Y-54308839D01*
X114636009Y-54372379D01*
X114555139Y-54453249D01*
X114491599Y-54548343D01*
X114447832Y-54654005D01*
X114425520Y-54766176D01*
X110782295Y-54766176D01*
X110744521Y-54674983D01*
X110680981Y-54579889D01*
X110600111Y-54499019D01*
X110505017Y-54435479D01*
X110399355Y-54391712D01*
X110287184Y-54369400D01*
X110172816Y-54369400D01*
X110060645Y-54391712D01*
X109954983Y-54435479D01*
X109859889Y-54499019D01*
X109779019Y-54579889D01*
X109715479Y-54674983D01*
X109671712Y-54780645D01*
X109649400Y-54892816D01*
X107791320Y-54892816D01*
X107791320Y-54084600D01*
X107784454Y-54014890D01*
X107764121Y-53947860D01*
X107731101Y-53886084D01*
X107686663Y-53831937D01*
X107632516Y-53787499D01*
X107570740Y-53754479D01*
X107503710Y-53734146D01*
X107434000Y-53727280D01*
X106434000Y-53727280D01*
X106364290Y-53734146D01*
X106297260Y-53754479D01*
X106235484Y-53787499D01*
X106181337Y-53831937D01*
X106136899Y-53886084D01*
X106103879Y-53947860D01*
X106083546Y-54014890D01*
X106076680Y-54084600D01*
X100380600Y-54084600D01*
X100380600Y-53574916D01*
X116030800Y-53574916D01*
X116030800Y-53689284D01*
X116053112Y-53801455D01*
X116096879Y-53907117D01*
X116160419Y-54002211D01*
X116241289Y-54083081D01*
X116336383Y-54146621D01*
X116442045Y-54190388D01*
X116554216Y-54212700D01*
X116668584Y-54212700D01*
X116780755Y-54190388D01*
X116886417Y-54146621D01*
X116981511Y-54083081D01*
X117062381Y-54002211D01*
X117125921Y-53907117D01*
X117169688Y-53801455D01*
X117192000Y-53689284D01*
X117192000Y-53574916D01*
X117169688Y-53462745D01*
X117125921Y-53357083D01*
X117062381Y-53261989D01*
X116981511Y-53181119D01*
X116886417Y-53117579D01*
X116780755Y-53073812D01*
X116668584Y-53051500D01*
X116554216Y-53051500D01*
X116442045Y-53073812D01*
X116336383Y-53117579D01*
X116241289Y-53181119D01*
X116160419Y-53261989D01*
X116096879Y-53357083D01*
X116053112Y-53462745D01*
X116030800Y-53574916D01*
X100380600Y-53574916D01*
X100380600Y-53380600D01*
X113981307Y-53380600D01*
X114000000Y-53382441D01*
X114018693Y-53380600D01*
X114074611Y-53375093D01*
X114146354Y-53353329D01*
X114212473Y-53317988D01*
X114270427Y-53270427D01*
X114317988Y-53212473D01*
X114353329Y-53146354D01*
X114375093Y-53074611D01*
X114382441Y-53000000D01*
X114380600Y-52981307D01*
X114380600Y-51636896D01*
X119917000Y-51636896D01*
X119917000Y-51751264D01*
X119939312Y-51863435D01*
X119983079Y-51969097D01*
X120046619Y-52064191D01*
X120127489Y-52145061D01*
X120222583Y-52208601D01*
X120328245Y-52252368D01*
X120440416Y-52274680D01*
X120554784Y-52274680D01*
X120666955Y-52252368D01*
X120772617Y-52208601D01*
X120867711Y-52145061D01*
X120948581Y-52064191D01*
X121012121Y-51969097D01*
X121031579Y-51922122D01*
X121034052Y-51934555D01*
X121077819Y-52040217D01*
X121141359Y-52135311D01*
X121222229Y-52216181D01*
X121317323Y-52279721D01*
X121422985Y-52323488D01*
X121535156Y-52345800D01*
X121649524Y-52345800D01*
X121761695Y-52323488D01*
X121867357Y-52279721D01*
X121962451Y-52216181D01*
X122043321Y-52135311D01*
X122106861Y-52040217D01*
X122140019Y-51960168D01*
X122141492Y-51967575D01*
X122185259Y-52073237D01*
X122248799Y-52168331D01*
X122329669Y-52249201D01*
X122424763Y-52312741D01*
X122530425Y-52356508D01*
X122642596Y-52378820D01*
X122756964Y-52378820D01*
X122869135Y-52356508D01*
X122974797Y-52312741D01*
X123069891Y-52249201D01*
X123150761Y-52168331D01*
X123214301Y-52073237D01*
X123258068Y-51967575D01*
X123280380Y-51855404D01*
X123280380Y-51741036D01*
X123258068Y-51628865D01*
X123214301Y-51523203D01*
X123150761Y-51428109D01*
X123069891Y-51347239D01*
X122974797Y-51283699D01*
X122869135Y-51239932D01*
X122756964Y-51217620D01*
X122642596Y-51217620D01*
X122530425Y-51239932D01*
X122424763Y-51283699D01*
X122329669Y-51347239D01*
X122248799Y-51428109D01*
X122185259Y-51523203D01*
X122152101Y-51603252D01*
X122150628Y-51595845D01*
X122106861Y-51490183D01*
X122043321Y-51395089D01*
X121962451Y-51314219D01*
X121867357Y-51250679D01*
X121761695Y-51206912D01*
X121649524Y-51184600D01*
X121535156Y-51184600D01*
X121422985Y-51206912D01*
X121317323Y-51250679D01*
X121222229Y-51314219D01*
X121141359Y-51395089D01*
X121077819Y-51490183D01*
X121058361Y-51537158D01*
X121055888Y-51524725D01*
X121012121Y-51419063D01*
X120948581Y-51323969D01*
X120867711Y-51243099D01*
X120772617Y-51179559D01*
X120666955Y-51135792D01*
X120554784Y-51113480D01*
X120440416Y-51113480D01*
X120328245Y-51135792D01*
X120222583Y-51179559D01*
X120127489Y-51243099D01*
X120046619Y-51323969D01*
X119983079Y-51419063D01*
X119939312Y-51524725D01*
X119917000Y-51636896D01*
X114380600Y-51636896D01*
X114380600Y-48268619D01*
X114398949Y-48081485D01*
X114447887Y-47919394D01*
X114527378Y-47769893D01*
X114634394Y-47638677D01*
X114764860Y-47530746D01*
X114913802Y-47450215D01*
X115075550Y-47400145D01*
X115261505Y-47380600D01*
X122431381Y-47380600D01*
X122618515Y-47398949D01*
X122618515Y-47398949D01*
G37*
X122618515Y-47398949D02*
X122780606Y-47447887D01*
X122930107Y-47527378D01*
X123061323Y-47634394D01*
X123169254Y-47764860D01*
X123249785Y-47913802D01*
X123299855Y-48075550D01*
X123319400Y-48261506D01*
X123319401Y-52981297D01*
X123317559Y-53000000D01*
X123324907Y-53074611D01*
X123346671Y-53146354D01*
X123382012Y-53212473D01*
X123429573Y-53270427D01*
X123487527Y-53317988D01*
X123553646Y-53353329D01*
X123625389Y-53375093D01*
X123681307Y-53380600D01*
X123700000Y-53382441D01*
X123718693Y-53380600D01*
X137119400Y-53380600D01*
X137119401Y-86619400D01*
X100380600Y-86619400D01*
X100380600Y-82713100D01*
X102030980Y-82713100D01*
X102030980Y-84413100D01*
X102037846Y-84482810D01*
X102058179Y-84549840D01*
X102091199Y-84611616D01*
X102135637Y-84665763D01*
X102189784Y-84710201D01*
X102251560Y-84743221D01*
X102318590Y-84763554D01*
X102388300Y-84770420D01*
X104088300Y-84770420D01*
X104158010Y-84763554D01*
X104225040Y-84743221D01*
X104286816Y-84710201D01*
X104340963Y-84665763D01*
X104385401Y-84611616D01*
X104418421Y-84549840D01*
X104438754Y-84482810D01*
X104445620Y-84413100D01*
X104445620Y-84056600D01*
X112071080Y-84056600D01*
X112071080Y-85056600D01*
X112077946Y-85126310D01*
X112098279Y-85193340D01*
X112131299Y-85255116D01*
X112175737Y-85309263D01*
X112229884Y-85353701D01*
X112291660Y-85386721D01*
X112358690Y-85407054D01*
X112428400Y-85413920D01*
X113428400Y-85413920D01*
X113498110Y-85407054D01*
X113565140Y-85386721D01*
X113626916Y-85353701D01*
X113681063Y-85309263D01*
X113725501Y-85255116D01*
X113758521Y-85193340D01*
X113778854Y-85126310D01*
X113785720Y-85056600D01*
X113785720Y-84056600D01*
X113784470Y-84043900D01*
X114598380Y-84043900D01*
X114598380Y-85043900D01*
X114605246Y-85113610D01*
X114625579Y-85180640D01*
X114658599Y-85242416D01*
X114703037Y-85296563D01*
X114757184Y-85341001D01*
X114818960Y-85374021D01*
X114885990Y-85394354D01*
X114955700Y-85401220D01*
X115955700Y-85401220D01*
X116025410Y-85394354D01*
X116092440Y-85374021D01*
X116154216Y-85341001D01*
X116208363Y-85296563D01*
X116252801Y-85242416D01*
X116285821Y-85180640D01*
X116306154Y-85113610D01*
X116313020Y-85043900D01*
X116313020Y-84043900D01*
X116310769Y-84021040D01*
X118083260Y-84021040D01*
X118083260Y-85021040D01*
X118090126Y-85090750D01*
X118110459Y-85157780D01*
X118143479Y-85219556D01*
X118187917Y-85273703D01*
X118242064Y-85318141D01*
X118303840Y-85351161D01*
X118370870Y-85371494D01*
X118440580Y-85378360D01*
X119440580Y-85378360D01*
X119510290Y-85371494D01*
X119577320Y-85351161D01*
X119639096Y-85318141D01*
X119693243Y-85273703D01*
X119737681Y-85219556D01*
X119770701Y-85157780D01*
X119791034Y-85090750D01*
X119797900Y-85021040D01*
X119797900Y-84021040D01*
X119797650Y-84018500D01*
X120999180Y-84018500D01*
X120999180Y-85018500D01*
X121006046Y-85088210D01*
X121026379Y-85155240D01*
X121059399Y-85217016D01*
X121103837Y-85271163D01*
X121157984Y-85315601D01*
X121219760Y-85348621D01*
X121286790Y-85368954D01*
X121356500Y-85375820D01*
X122356500Y-85375820D01*
X122426210Y-85368954D01*
X122493240Y-85348621D01*
X122555016Y-85315601D01*
X122609163Y-85271163D01*
X122653601Y-85217016D01*
X122686621Y-85155240D01*
X122706954Y-85088210D01*
X122713820Y-85018500D01*
X122713820Y-84018500D01*
X124224980Y-84018500D01*
X124224980Y-85018500D01*
X124231846Y-85088210D01*
X124252179Y-85155240D01*
X124285199Y-85217016D01*
X124329637Y-85271163D01*
X124383784Y-85315601D01*
X124445560Y-85348621D01*
X124512590Y-85368954D01*
X124582300Y-85375820D01*
X125582300Y-85375820D01*
X125652010Y-85368954D01*
X125719040Y-85348621D01*
X125780816Y-85315601D01*
X125834963Y-85271163D01*
X125879401Y-85217016D01*
X125912421Y-85155240D01*
X125932754Y-85088210D01*
X125939620Y-85018500D01*
X125939620Y-84018500D01*
X125932754Y-83948790D01*
X125912421Y-83881760D01*
X125879401Y-83819984D01*
X125834963Y-83765837D01*
X125780816Y-83721399D01*
X125719040Y-83688379D01*
X125652010Y-83668046D01*
X125582300Y-83661180D01*
X124582300Y-83661180D01*
X124512590Y-83668046D01*
X124445560Y-83688379D01*
X124383784Y-83721399D01*
X124329637Y-83765837D01*
X124285199Y-83819984D01*
X124252179Y-83881760D01*
X124231846Y-83948790D01*
X124224980Y-84018500D01*
X122713820Y-84018500D01*
X122706954Y-83948790D01*
X122686621Y-83881760D01*
X122653601Y-83819984D01*
X122609163Y-83765837D01*
X122555016Y-83721399D01*
X122493240Y-83688379D01*
X122426210Y-83668046D01*
X122356500Y-83661180D01*
X121356500Y-83661180D01*
X121286790Y-83668046D01*
X121219760Y-83688379D01*
X121157984Y-83721399D01*
X121103837Y-83765837D01*
X121059399Y-83819984D01*
X121026379Y-83881760D01*
X121006046Y-83948790D01*
X120999180Y-84018500D01*
X119797650Y-84018500D01*
X119791034Y-83951330D01*
X119770701Y-83884300D01*
X119737681Y-83822524D01*
X119693243Y-83768377D01*
X119639096Y-83723939D01*
X119577320Y-83690919D01*
X119510290Y-83670586D01*
X119440580Y-83663720D01*
X118440580Y-83663720D01*
X118370870Y-83670586D01*
X118303840Y-83690919D01*
X118242064Y-83723939D01*
X118187917Y-83768377D01*
X118143479Y-83822524D01*
X118110459Y-83884300D01*
X118090126Y-83951330D01*
X118083260Y-84021040D01*
X116310769Y-84021040D01*
X116306154Y-83974190D01*
X116285821Y-83907160D01*
X116252801Y-83845384D01*
X116208363Y-83791237D01*
X116154216Y-83746799D01*
X116092440Y-83713779D01*
X116025410Y-83693446D01*
X115955700Y-83686580D01*
X114955700Y-83686580D01*
X114885990Y-83693446D01*
X114818960Y-83713779D01*
X114757184Y-83746799D01*
X114703037Y-83791237D01*
X114658599Y-83845384D01*
X114625579Y-83907160D01*
X114605246Y-83974190D01*
X114598380Y-84043900D01*
X113784470Y-84043900D01*
X113778854Y-83986890D01*
X113758521Y-83919860D01*
X113725501Y-83858084D01*
X113681063Y-83803937D01*
X113626916Y-83759499D01*
X113565140Y-83726479D01*
X113498110Y-83706146D01*
X113428400Y-83699280D01*
X112428400Y-83699280D01*
X112358690Y-83706146D01*
X112291660Y-83726479D01*
X112229884Y-83759499D01*
X112175737Y-83803937D01*
X112131299Y-83858084D01*
X112098279Y-83919860D01*
X112077946Y-83986890D01*
X112071080Y-84056600D01*
X104445620Y-84056600D01*
X104445620Y-82713100D01*
X104438754Y-82643390D01*
X104418421Y-82576360D01*
X104385401Y-82514584D01*
X104340963Y-82460437D01*
X104286816Y-82415999D01*
X104225040Y-82382979D01*
X104158010Y-82362646D01*
X104088300Y-82355780D01*
X102388300Y-82355780D01*
X102318590Y-82362646D01*
X102251560Y-82382979D01*
X102189784Y-82415999D01*
X102135637Y-82460437D01*
X102091199Y-82514584D01*
X102058179Y-82576360D01*
X102037846Y-82643390D01*
X102030980Y-82713100D01*
X100380600Y-82713100D01*
X100380600Y-81452816D01*
X118159400Y-81452816D01*
X118159400Y-81567184D01*
X118181712Y-81679355D01*
X118225479Y-81785017D01*
X118289019Y-81880111D01*
X118369889Y-81960981D01*
X118464983Y-82024521D01*
X118570645Y-82068288D01*
X118682816Y-82090600D01*
X118797184Y-82090600D01*
X118909355Y-82068288D01*
X119015017Y-82024521D01*
X119110111Y-81960981D01*
X119190981Y-81880111D01*
X119254521Y-81785017D01*
X119298288Y-81679355D01*
X119320600Y-81567184D01*
X119320600Y-81452816D01*
X119298288Y-81340645D01*
X119254521Y-81234983D01*
X119190981Y-81139889D01*
X119110111Y-81059019D01*
X119015017Y-80995479D01*
X118909355Y-80951712D01*
X118797184Y-80929400D01*
X118682816Y-80929400D01*
X118570645Y-80951712D01*
X118464983Y-80995479D01*
X118369889Y-81059019D01*
X118289019Y-81139889D01*
X118225479Y-81234983D01*
X118181712Y-81340645D01*
X118159400Y-81452816D01*
X100380600Y-81452816D01*
X100380600Y-80692816D01*
X119929400Y-80692816D01*
X119929400Y-80807184D01*
X119951712Y-80919355D01*
X119995479Y-81025017D01*
X120059019Y-81120111D01*
X120139889Y-81200981D01*
X120234983Y-81264521D01*
X120340645Y-81308288D01*
X120452816Y-81330600D01*
X120567184Y-81330600D01*
X120679355Y-81308288D01*
X120785017Y-81264521D01*
X120880111Y-81200981D01*
X120960981Y-81120111D01*
X121024521Y-81025017D01*
X121068288Y-80919355D01*
X121090600Y-80807184D01*
X121090600Y-80692816D01*
X121068288Y-80580645D01*
X121024521Y-80474983D01*
X120960981Y-80379889D01*
X120880111Y-80299019D01*
X120785017Y-80235479D01*
X120679355Y-80191712D01*
X120567184Y-80169400D01*
X120452816Y-80169400D01*
X120340645Y-80191712D01*
X120234983Y-80235479D01*
X120139889Y-80299019D01*
X120059019Y-80379889D01*
X119995479Y-80474983D01*
X119951712Y-80580645D01*
X119929400Y-80692816D01*
X100380600Y-80692816D01*
X100380600Y-78563100D01*
X102030980Y-78563100D01*
X102030980Y-80263100D01*
X102037846Y-80332810D01*
X102058179Y-80399840D01*
X102091199Y-80461616D01*
X102135637Y-80515763D01*
X102189784Y-80560201D01*
X102251560Y-80593221D01*
X102318590Y-80613554D01*
X102388300Y-80620420D01*
X104088300Y-80620420D01*
X104158010Y-80613554D01*
X104225040Y-80593221D01*
X104286816Y-80560201D01*
X104340963Y-80515763D01*
X104385401Y-80461616D01*
X104418421Y-80399840D01*
X104438754Y-80332810D01*
X104445620Y-80263100D01*
X104445620Y-79508316D01*
X114697300Y-79508316D01*
X114697300Y-79622684D01*
X114719612Y-79734855D01*
X114763379Y-79840517D01*
X114826919Y-79935611D01*
X114907789Y-80016481D01*
X115002883Y-80080021D01*
X115108545Y-80123788D01*
X115220716Y-80146100D01*
X115335084Y-80146100D01*
X115447255Y-80123788D01*
X115552917Y-80080021D01*
X115648011Y-80016481D01*
X115728881Y-79935611D01*
X115792421Y-79840517D01*
X115836188Y-79734855D01*
X115858500Y-79622684D01*
X115858500Y-79508316D01*
X115836188Y-79396145D01*
X115792421Y-79290483D01*
X115736172Y-79206300D01*
X115792284Y-79206300D01*
X115904455Y-79183988D01*
X116010117Y-79140221D01*
X116105211Y-79076681D01*
X116186081Y-78995811D01*
X116249621Y-78900717D01*
X116281888Y-78822816D01*
X116319402Y-78822816D01*
X116319402Y-78937184D01*
X116341714Y-79049355D01*
X116385481Y-79155017D01*
X116449021Y-79250111D01*
X116529891Y-79330981D01*
X116624985Y-79394521D01*
X116730647Y-79438288D01*
X116842818Y-79460600D01*
X116957186Y-79460600D01*
X117069357Y-79438288D01*
X117133605Y-79411675D01*
X117129400Y-79432816D01*
X117129400Y-79547184D01*
X117151712Y-79659355D01*
X117195479Y-79765017D01*
X117259019Y-79860111D01*
X117339889Y-79940981D01*
X117434983Y-80004521D01*
X117540645Y-80048288D01*
X117652816Y-80070600D01*
X117767184Y-80070600D01*
X117879355Y-80048288D01*
X117985017Y-80004521D01*
X118080111Y-79940981D01*
X118093676Y-79927416D01*
X121529900Y-79927416D01*
X121529900Y-80041784D01*
X121552212Y-80153955D01*
X121595979Y-80259617D01*
X121659519Y-80354711D01*
X121740389Y-80435581D01*
X121835483Y-80499121D01*
X121941145Y-80542888D01*
X122053316Y-80565200D01*
X122167684Y-80565200D01*
X122279855Y-80542888D01*
X122385517Y-80499121D01*
X122480611Y-80435581D01*
X122561481Y-80354711D01*
X122625021Y-80259617D01*
X122668788Y-80153955D01*
X122691100Y-80041784D01*
X122691100Y-79927416D01*
X122668788Y-79815245D01*
X122625021Y-79709583D01*
X122561481Y-79614489D01*
X122480611Y-79533619D01*
X122385517Y-79470079D01*
X122279855Y-79426312D01*
X122167684Y-79404000D01*
X122053316Y-79404000D01*
X121941145Y-79426312D01*
X121835483Y-79470079D01*
X121740389Y-79533619D01*
X121659519Y-79614489D01*
X121595979Y-79709583D01*
X121552212Y-79815245D01*
X121529900Y-79927416D01*
X118093676Y-79927416D01*
X118160981Y-79860111D01*
X118224521Y-79765017D01*
X118268288Y-79659355D01*
X118290600Y-79547184D01*
X118290600Y-79432816D01*
X118268288Y-79320645D01*
X118224521Y-79214983D01*
X118160981Y-79119889D01*
X118080111Y-79039019D01*
X117985017Y-78975479D01*
X117879355Y-78931712D01*
X117767184Y-78909400D01*
X117652816Y-78909400D01*
X117540645Y-78931712D01*
X117476397Y-78958325D01*
X117480602Y-78937184D01*
X117480602Y-78822816D01*
X117458290Y-78710645D01*
X117414523Y-78604983D01*
X117350983Y-78509889D01*
X117270113Y-78429019D01*
X117175019Y-78365479D01*
X117069357Y-78321712D01*
X116957186Y-78299400D01*
X116842818Y-78299400D01*
X116730647Y-78321712D01*
X116624985Y-78365479D01*
X116529891Y-78429019D01*
X116449021Y-78509889D01*
X116385481Y-78604983D01*
X116341714Y-78710645D01*
X116319402Y-78822816D01*
X116281888Y-78822816D01*
X116293388Y-78795055D01*
X116315700Y-78682884D01*
X116315700Y-78568516D01*
X116293388Y-78456345D01*
X116249621Y-78350683D01*
X116186081Y-78255589D01*
X116105211Y-78174719D01*
X116010117Y-78111179D01*
X115904455Y-78067412D01*
X115792284Y-78045100D01*
X115677916Y-78045100D01*
X115565745Y-78067412D01*
X115460083Y-78111179D01*
X115364989Y-78174719D01*
X115284119Y-78255589D01*
X115220579Y-78350683D01*
X115176812Y-78456345D01*
X115154500Y-78568516D01*
X115154500Y-78682884D01*
X115176812Y-78795055D01*
X115220579Y-78900717D01*
X115276828Y-78984900D01*
X115220716Y-78984900D01*
X115108545Y-79007212D01*
X115002883Y-79050979D01*
X114907789Y-79114519D01*
X114826919Y-79195389D01*
X114763379Y-79290483D01*
X114719612Y-79396145D01*
X114697300Y-79508316D01*
X104445620Y-79508316D01*
X104445620Y-78563100D01*
X104438754Y-78493390D01*
X104418421Y-78426360D01*
X104385401Y-78364584D01*
X104340963Y-78310437D01*
X104286816Y-78265999D01*
X104225040Y-78232979D01*
X104158010Y-78212646D01*
X104088300Y-78205780D01*
X102388300Y-78205780D01*
X102318590Y-78212646D01*
X102251560Y-78232979D01*
X102189784Y-78265999D01*
X102135637Y-78310437D01*
X102091199Y-78364584D01*
X102058179Y-78426360D01*
X102037846Y-78493390D01*
X102030980Y-78563100D01*
X100380600Y-78563100D01*
X100380600Y-76346016D01*
X111001600Y-76346016D01*
X111001600Y-76460384D01*
X111023912Y-76572555D01*
X111067679Y-76678217D01*
X111131219Y-76773311D01*
X111212089Y-76854181D01*
X111307183Y-76917721D01*
X111412845Y-76961488D01*
X111525016Y-76983800D01*
X111535465Y-76983800D01*
X111450945Y-77000612D01*
X111345283Y-77044379D01*
X111250189Y-77107919D01*
X111169319Y-77188789D01*
X111105779Y-77283883D01*
X111062012Y-77389545D01*
X111039700Y-77501716D01*
X111039700Y-77616084D01*
X111062012Y-77728255D01*
X111105779Y-77833917D01*
X111169319Y-77929011D01*
X111250189Y-78009881D01*
X111345283Y-78073421D01*
X111450945Y-78117188D01*
X111563116Y-78139500D01*
X111677484Y-78139500D01*
X111789655Y-78117188D01*
X111895317Y-78073421D01*
X111990411Y-78009881D01*
X112071281Y-77929011D01*
X112134821Y-77833917D01*
X112178588Y-77728255D01*
X112193335Y-77654116D01*
X120463100Y-77654116D01*
X120463100Y-77768484D01*
X120485412Y-77880655D01*
X120529179Y-77986317D01*
X120592719Y-78081411D01*
X120673589Y-78162281D01*
X120768683Y-78225821D01*
X120874345Y-78269588D01*
X120986516Y-78291900D01*
X121100884Y-78291900D01*
X121213055Y-78269588D01*
X121318717Y-78225821D01*
X121413811Y-78162281D01*
X121494681Y-78081411D01*
X121558221Y-77986317D01*
X121601988Y-77880655D01*
X121624300Y-77768484D01*
X121624300Y-77654116D01*
X121601988Y-77541945D01*
X121558221Y-77436283D01*
X121494681Y-77341189D01*
X121413811Y-77260319D01*
X121318717Y-77196779D01*
X121213055Y-77153012D01*
X121100884Y-77130700D01*
X120986516Y-77130700D01*
X120874345Y-77153012D01*
X120768683Y-77196779D01*
X120673589Y-77260319D01*
X120592719Y-77341189D01*
X120529179Y-77436283D01*
X120485412Y-77541945D01*
X120463100Y-77654116D01*
X112193335Y-77654116D01*
X112200900Y-77616084D01*
X112200900Y-77501716D01*
X112178588Y-77389545D01*
X112134821Y-77283883D01*
X112071281Y-77188789D01*
X111990411Y-77107919D01*
X111895317Y-77044379D01*
X111789655Y-77000612D01*
X111677484Y-76978300D01*
X111667035Y-76978300D01*
X111751555Y-76961488D01*
X111857217Y-76917721D01*
X111952311Y-76854181D01*
X112033181Y-76773311D01*
X112096721Y-76678217D01*
X112140488Y-76572555D01*
X112162800Y-76460384D01*
X112162800Y-76433680D01*
X125132691Y-76433680D01*
X125135640Y-76463621D01*
X125135640Y-76557600D01*
X125144461Y-76647161D01*
X125179319Y-76762071D01*
X125235924Y-76867973D01*
X125312102Y-76960798D01*
X125404926Y-77036976D01*
X125510828Y-77093581D01*
X125625738Y-77128439D01*
X125745240Y-77140209D01*
X125864741Y-77128439D01*
X125979651Y-77093581D01*
X126085553Y-77036976D01*
X126178378Y-76960798D01*
X126254556Y-76867974D01*
X126311161Y-76762072D01*
X126325187Y-76715837D01*
X127755424Y-75285600D01*
X128423897Y-75285600D01*
X130108849Y-76970553D01*
X130127942Y-76993818D01*
X130220766Y-77069996D01*
X130326668Y-77126601D01*
X130375058Y-77141280D01*
X130441577Y-77161459D01*
X130561079Y-77173229D01*
X130591021Y-77170280D01*
X131128039Y-77170280D01*
X131157980Y-77173229D01*
X131187921Y-77170280D01*
X131277482Y-77161459D01*
X131392392Y-77126601D01*
X131498294Y-77069996D01*
X131591118Y-76993818D01*
X131610215Y-76970548D01*
X132418424Y-76162341D01*
X132475515Y-76092775D01*
X132532121Y-75986873D01*
X132566979Y-75871963D01*
X132578749Y-75752460D01*
X132566979Y-75632958D01*
X132532121Y-75518048D01*
X132475515Y-75412146D01*
X132399337Y-75319323D01*
X132306514Y-75243145D01*
X132200612Y-75186539D01*
X132085702Y-75151681D01*
X131966200Y-75139911D01*
X131846697Y-75151681D01*
X131731787Y-75186539D01*
X131625885Y-75243145D01*
X131556319Y-75300236D01*
X130905477Y-75951080D01*
X130813584Y-75951080D01*
X129128635Y-74266132D01*
X129109538Y-74242862D01*
X129016714Y-74166684D01*
X128910812Y-74110079D01*
X128795902Y-74075221D01*
X128706341Y-74066400D01*
X128676400Y-74063451D01*
X128646459Y-74066400D01*
X127532861Y-74066400D01*
X127502920Y-74063451D01*
X127383417Y-74075221D01*
X127348559Y-74085795D01*
X127268508Y-74110079D01*
X127162606Y-74166684D01*
X127069782Y-74242862D01*
X127050689Y-74266127D01*
X125335367Y-75981450D01*
X125312103Y-76000542D01*
X125235924Y-76093366D01*
X125179319Y-76199268D01*
X125144461Y-76314178D01*
X125132691Y-76433680D01*
X112162800Y-76433680D01*
X112162800Y-76346016D01*
X112140488Y-76233845D01*
X112096721Y-76128183D01*
X112033181Y-76033089D01*
X111952311Y-75952219D01*
X111857217Y-75888679D01*
X111751555Y-75844912D01*
X111639384Y-75822600D01*
X111525016Y-75822600D01*
X111412845Y-75844912D01*
X111307183Y-75888679D01*
X111212089Y-75952219D01*
X111131219Y-76033089D01*
X111067679Y-76128183D01*
X111023912Y-76233845D01*
X111001600Y-76346016D01*
X100380600Y-76346016D01*
X100380600Y-74339416D01*
X110988900Y-74339416D01*
X110988900Y-74453784D01*
X111011212Y-74565955D01*
X111054979Y-74671617D01*
X111118519Y-74766711D01*
X111199389Y-74847581D01*
X111294483Y-74911121D01*
X111400145Y-74954888D01*
X111512316Y-74977200D01*
X111626684Y-74977200D01*
X111738855Y-74954888D01*
X111844517Y-74911121D01*
X111939611Y-74847581D01*
X112020481Y-74766711D01*
X112084021Y-74671617D01*
X112127788Y-74565955D01*
X112150100Y-74453784D01*
X112150100Y-74352116D01*
X120501200Y-74352116D01*
X120501200Y-74466484D01*
X120523512Y-74578655D01*
X120567279Y-74684317D01*
X120630819Y-74779411D01*
X120711689Y-74860281D01*
X120806783Y-74923821D01*
X120912445Y-74967588D01*
X121024616Y-74989900D01*
X121138984Y-74989900D01*
X121251155Y-74967588D01*
X121356817Y-74923821D01*
X121451911Y-74860281D01*
X121532781Y-74779411D01*
X121596321Y-74684317D01*
X121640088Y-74578655D01*
X121662400Y-74466484D01*
X121662400Y-74352116D01*
X121640088Y-74239945D01*
X121596321Y-74134283D01*
X121532781Y-74039189D01*
X121451911Y-73958319D01*
X121356817Y-73894779D01*
X121251155Y-73851012D01*
X121138984Y-73828700D01*
X121024616Y-73828700D01*
X120912445Y-73851012D01*
X120806783Y-73894779D01*
X120711689Y-73958319D01*
X120630819Y-74039189D01*
X120567279Y-74134283D01*
X120523512Y-74239945D01*
X120501200Y-74352116D01*
X112150100Y-74352116D01*
X112150100Y-74339416D01*
X112127788Y-74227245D01*
X112084021Y-74121583D01*
X112020481Y-74026489D01*
X111939611Y-73945619D01*
X111844517Y-73882079D01*
X111738855Y-73838312D01*
X111626684Y-73816000D01*
X111512316Y-73816000D01*
X111400145Y-73838312D01*
X111294483Y-73882079D01*
X111199389Y-73945619D01*
X111118519Y-74026489D01*
X111054979Y-74121583D01*
X111011212Y-74227245D01*
X110988900Y-74339416D01*
X100380600Y-74339416D01*
X100380600Y-73798396D01*
X129736640Y-73798396D01*
X129736640Y-73912764D01*
X129758952Y-74024935D01*
X129802719Y-74130597D01*
X129866259Y-74225691D01*
X129947129Y-74306561D01*
X130042223Y-74370101D01*
X130147885Y-74413868D01*
X130260056Y-74436180D01*
X130374424Y-74436180D01*
X130486595Y-74413868D01*
X130592257Y-74370101D01*
X130638550Y-74339169D01*
X130684843Y-74370101D01*
X130790505Y-74413868D01*
X130902676Y-74436180D01*
X131017044Y-74436180D01*
X131129215Y-74413868D01*
X131234877Y-74370101D01*
X131329971Y-74306561D01*
X131410841Y-74225691D01*
X131474381Y-74130597D01*
X131518148Y-74024935D01*
X131540460Y-73912764D01*
X131540460Y-73798396D01*
X131518148Y-73686225D01*
X131474381Y-73580563D01*
X131410841Y-73485469D01*
X131329971Y-73404599D01*
X131234877Y-73341059D01*
X131129215Y-73297292D01*
X131017044Y-73274980D01*
X130902676Y-73274980D01*
X130790505Y-73297292D01*
X130684843Y-73341059D01*
X130638550Y-73371991D01*
X130592257Y-73341059D01*
X130486595Y-73297292D01*
X130374424Y-73274980D01*
X130260056Y-73274980D01*
X130147885Y-73297292D01*
X130042223Y-73341059D01*
X129947129Y-73404599D01*
X129866259Y-73485469D01*
X129802719Y-73580563D01*
X129758952Y-73686225D01*
X129736640Y-73798396D01*
X100380600Y-73798396D01*
X100380600Y-71123900D01*
X101835780Y-71123900D01*
X101835780Y-72823900D01*
X101842646Y-72893610D01*
X101862979Y-72960640D01*
X101895999Y-73022416D01*
X101940437Y-73076563D01*
X101994584Y-73121001D01*
X102056360Y-73154021D01*
X102123390Y-73174354D01*
X102193100Y-73181220D01*
X103893100Y-73181220D01*
X103962810Y-73174354D01*
X104029840Y-73154021D01*
X104091616Y-73121001D01*
X104145763Y-73076563D01*
X104190201Y-73022416D01*
X104223221Y-72960640D01*
X104243554Y-72893610D01*
X104250420Y-72823900D01*
X104250420Y-71939116D01*
X106531200Y-71939116D01*
X106531200Y-72053484D01*
X106553512Y-72165655D01*
X106597279Y-72271317D01*
X106660819Y-72366411D01*
X106741689Y-72447281D01*
X106836783Y-72510821D01*
X106942445Y-72554588D01*
X107054616Y-72576900D01*
X107168984Y-72576900D01*
X107281155Y-72554588D01*
X107386817Y-72510821D01*
X107481911Y-72447281D01*
X107562781Y-72366411D01*
X107626321Y-72271317D01*
X107670088Y-72165655D01*
X107692400Y-72053484D01*
X107692400Y-71939116D01*
X107677244Y-71862916D01*
X111408000Y-71862916D01*
X111408000Y-71977284D01*
X111430312Y-72089455D01*
X111474079Y-72195117D01*
X111537619Y-72290211D01*
X111618489Y-72371081D01*
X111713583Y-72434621D01*
X111819245Y-72478388D01*
X111931416Y-72500700D01*
X112045784Y-72500700D01*
X112157955Y-72478388D01*
X112263617Y-72434621D01*
X112358711Y-72371081D01*
X112439581Y-72290211D01*
X112503121Y-72195117D01*
X112546888Y-72089455D01*
X112569200Y-71977284D01*
X112569200Y-71862916D01*
X112546888Y-71750745D01*
X112503121Y-71645083D01*
X112439581Y-71549989D01*
X112358711Y-71469119D01*
X112263617Y-71405579D01*
X112157955Y-71361812D01*
X112045784Y-71339500D01*
X111931416Y-71339500D01*
X111819245Y-71361812D01*
X111713583Y-71405579D01*
X111618489Y-71469119D01*
X111537619Y-71549989D01*
X111474079Y-71645083D01*
X111430312Y-71750745D01*
X111408000Y-71862916D01*
X107677244Y-71862916D01*
X107670088Y-71826945D01*
X107626321Y-71721283D01*
X107562781Y-71626189D01*
X107481911Y-71545319D01*
X107386817Y-71481779D01*
X107281155Y-71438012D01*
X107168984Y-71415700D01*
X107054616Y-71415700D01*
X106942445Y-71438012D01*
X106836783Y-71481779D01*
X106741689Y-71545319D01*
X106660819Y-71626189D01*
X106597279Y-71721283D01*
X106553512Y-71826945D01*
X106531200Y-71939116D01*
X104250420Y-71939116D01*
X104250420Y-71123900D01*
X104243554Y-71054190D01*
X104223221Y-70987160D01*
X104190201Y-70925384D01*
X104145763Y-70871237D01*
X104091616Y-70826799D01*
X104029840Y-70793779D01*
X103962810Y-70773446D01*
X103893100Y-70766580D01*
X102193100Y-70766580D01*
X102123390Y-70773446D01*
X102056360Y-70793779D01*
X101994584Y-70826799D01*
X101940437Y-70871237D01*
X101895999Y-70925384D01*
X101862979Y-70987160D01*
X101842646Y-71054190D01*
X101835780Y-71123900D01*
X100380600Y-71123900D01*
X100380600Y-69891876D01*
X119109280Y-69891876D01*
X119109280Y-70006244D01*
X119131592Y-70118415D01*
X119175359Y-70224077D01*
X119238899Y-70319171D01*
X119319769Y-70400041D01*
X119414863Y-70463581D01*
X119520525Y-70507348D01*
X119632696Y-70529660D01*
X119747064Y-70529660D01*
X119859235Y-70507348D01*
X119964897Y-70463581D01*
X120059991Y-70400041D01*
X120140861Y-70319171D01*
X120204401Y-70224077D01*
X120248168Y-70118415D01*
X120270480Y-70006244D01*
X120270480Y-69891876D01*
X120248168Y-69779705D01*
X120217473Y-69705600D01*
X127425380Y-69705600D01*
X127425380Y-70705600D01*
X127432246Y-70775310D01*
X127452579Y-70842340D01*
X127485599Y-70904116D01*
X127530037Y-70958263D01*
X127584184Y-71002701D01*
X127645960Y-71035721D01*
X127712990Y-71056054D01*
X127782700Y-71062920D01*
X128782700Y-71062920D01*
X128852410Y-71056054D01*
X128919440Y-71035721D01*
X128981216Y-71002701D01*
X129035363Y-70958263D01*
X129079801Y-70904116D01*
X129112821Y-70842340D01*
X129133154Y-70775310D01*
X129140020Y-70705600D01*
X129140020Y-69705600D01*
X131895780Y-69705600D01*
X131895780Y-70705600D01*
X131902646Y-70775310D01*
X131922979Y-70842340D01*
X131955999Y-70904116D01*
X132000437Y-70958263D01*
X132054584Y-71002701D01*
X132116360Y-71035721D01*
X132183390Y-71056054D01*
X132253100Y-71062920D01*
X133253100Y-71062920D01*
X133322810Y-71056054D01*
X133389840Y-71035721D01*
X133451616Y-71002701D01*
X133505763Y-70958263D01*
X133550201Y-70904116D01*
X133583221Y-70842340D01*
X133603554Y-70775310D01*
X133610420Y-70705600D01*
X133610420Y-69705600D01*
X133603554Y-69635890D01*
X133583221Y-69568860D01*
X133550201Y-69507084D01*
X133505763Y-69452937D01*
X133451616Y-69408499D01*
X133389840Y-69375479D01*
X133322810Y-69355146D01*
X133253100Y-69348280D01*
X132253100Y-69348280D01*
X132183390Y-69355146D01*
X132116360Y-69375479D01*
X132054584Y-69408499D01*
X132000437Y-69452937D01*
X131955999Y-69507084D01*
X131922979Y-69568860D01*
X131902646Y-69635890D01*
X131895780Y-69705600D01*
X129140020Y-69705600D01*
X129133154Y-69635890D01*
X129112821Y-69568860D01*
X129079801Y-69507084D01*
X129035363Y-69452937D01*
X128981216Y-69408499D01*
X128919440Y-69375479D01*
X128852410Y-69355146D01*
X128782700Y-69348280D01*
X127782700Y-69348280D01*
X127712990Y-69355146D01*
X127645960Y-69375479D01*
X127584184Y-69408499D01*
X127530037Y-69452937D01*
X127485599Y-69507084D01*
X127452579Y-69568860D01*
X127432246Y-69635890D01*
X127425380Y-69705600D01*
X120217473Y-69705600D01*
X120204401Y-69674043D01*
X120140861Y-69578949D01*
X120059991Y-69498079D01*
X119964897Y-69434539D01*
X119859235Y-69390772D01*
X119747064Y-69368460D01*
X119632696Y-69368460D01*
X119520525Y-69390772D01*
X119414863Y-69434539D01*
X119319769Y-69498079D01*
X119238899Y-69578949D01*
X119175359Y-69674043D01*
X119131592Y-69779705D01*
X119109280Y-69891876D01*
X100380600Y-69891876D01*
X100380600Y-66973900D01*
X101827780Y-66973900D01*
X101827780Y-68673900D01*
X101834646Y-68743610D01*
X101854979Y-68810640D01*
X101887999Y-68872416D01*
X101932437Y-68926563D01*
X101986584Y-68971001D01*
X102048360Y-69004021D01*
X102115390Y-69024354D01*
X102185100Y-69031220D01*
X103885100Y-69031220D01*
X103954810Y-69024354D01*
X104021840Y-69004021D01*
X104083616Y-68971001D01*
X104137763Y-68926563D01*
X104182201Y-68872416D01*
X104215221Y-68810640D01*
X104235554Y-68743610D01*
X104242420Y-68673900D01*
X104242420Y-68535516D01*
X105515200Y-68535516D01*
X105515200Y-68649884D01*
X105537512Y-68762055D01*
X105581279Y-68867717D01*
X105644819Y-68962811D01*
X105725689Y-69043681D01*
X105820783Y-69107221D01*
X105926445Y-69150988D01*
X106038616Y-69173300D01*
X106152984Y-69173300D01*
X106265155Y-69150988D01*
X106370817Y-69107221D01*
X106465911Y-69043681D01*
X106546781Y-68962811D01*
X106610321Y-68867717D01*
X106654088Y-68762055D01*
X106676400Y-68649884D01*
X106676400Y-68535516D01*
X106654088Y-68423345D01*
X106610321Y-68317683D01*
X106546781Y-68222589D01*
X106465911Y-68141719D01*
X106370817Y-68078179D01*
X106265155Y-68034412D01*
X106152984Y-68012100D01*
X106038616Y-68012100D01*
X105926445Y-68034412D01*
X105820783Y-68078179D01*
X105725689Y-68141719D01*
X105644819Y-68222589D01*
X105581279Y-68317683D01*
X105537512Y-68423345D01*
X105515200Y-68535516D01*
X104242420Y-68535516D01*
X104242420Y-67622800D01*
X110724880Y-67622800D01*
X110724880Y-68622800D01*
X110731746Y-68692510D01*
X110752079Y-68759540D01*
X110785099Y-68821316D01*
X110829537Y-68875463D01*
X110883684Y-68919901D01*
X110945460Y-68952921D01*
X111012490Y-68973254D01*
X111082200Y-68980120D01*
X112082200Y-68980120D01*
X112151910Y-68973254D01*
X112218940Y-68952921D01*
X112280716Y-68919901D01*
X112334863Y-68875463D01*
X112379301Y-68821316D01*
X112412321Y-68759540D01*
X112432654Y-68692510D01*
X112439520Y-68622800D01*
X112439520Y-67622800D01*
X112435582Y-67582816D01*
X114939400Y-67582816D01*
X114939400Y-67697184D01*
X114961712Y-67809355D01*
X115005479Y-67915017D01*
X115069019Y-68010111D01*
X115149889Y-68090981D01*
X115244983Y-68154521D01*
X115350645Y-68198288D01*
X115462816Y-68220600D01*
X115577184Y-68220600D01*
X115689355Y-68198288D01*
X115795017Y-68154521D01*
X115890111Y-68090981D01*
X115970981Y-68010111D01*
X116034521Y-67915017D01*
X116078288Y-67809355D01*
X116100600Y-67697184D01*
X116100600Y-67582816D01*
X116086677Y-67512816D01*
X123259400Y-67512816D01*
X123259400Y-67627184D01*
X123281712Y-67739355D01*
X123325479Y-67845017D01*
X123389019Y-67940111D01*
X123469889Y-68020981D01*
X123564983Y-68084521D01*
X123670645Y-68128288D01*
X123782816Y-68150600D01*
X123897184Y-68150600D01*
X124009355Y-68128288D01*
X124115017Y-68084521D01*
X124210111Y-68020981D01*
X124290981Y-67940111D01*
X124354521Y-67845017D01*
X124398288Y-67739355D01*
X124420600Y-67627184D01*
X124420600Y-67512816D01*
X124398288Y-67400645D01*
X124354521Y-67294983D01*
X124290981Y-67199889D01*
X124210111Y-67119019D01*
X124115017Y-67055479D01*
X124009355Y-67011712D01*
X123897184Y-66989400D01*
X123782816Y-66989400D01*
X123670645Y-67011712D01*
X123564983Y-67055479D01*
X123469889Y-67119019D01*
X123389019Y-67199889D01*
X123325479Y-67294983D01*
X123281712Y-67400645D01*
X123259400Y-67512816D01*
X116086677Y-67512816D01*
X116078288Y-67470645D01*
X116034521Y-67364983D01*
X115970981Y-67269889D01*
X115890111Y-67189019D01*
X115795017Y-67125479D01*
X115689355Y-67081712D01*
X115577184Y-67059400D01*
X115462816Y-67059400D01*
X115350645Y-67081712D01*
X115244983Y-67125479D01*
X115149889Y-67189019D01*
X115069019Y-67269889D01*
X115005479Y-67364983D01*
X114961712Y-67470645D01*
X114939400Y-67582816D01*
X112435582Y-67582816D01*
X112432654Y-67553090D01*
X112412321Y-67486060D01*
X112379301Y-67424284D01*
X112334863Y-67370137D01*
X112280716Y-67325699D01*
X112218940Y-67292679D01*
X112151910Y-67272346D01*
X112082200Y-67265480D01*
X111082200Y-67265480D01*
X111012490Y-67272346D01*
X110945460Y-67292679D01*
X110883684Y-67325699D01*
X110829537Y-67370137D01*
X110785099Y-67424284D01*
X110752079Y-67486060D01*
X110731746Y-67553090D01*
X110724880Y-67622800D01*
X104242420Y-67622800D01*
X104242420Y-66973900D01*
X104235554Y-66904190D01*
X104215221Y-66837160D01*
X104182201Y-66775384D01*
X104137763Y-66721237D01*
X104083616Y-66676799D01*
X104021840Y-66643779D01*
X103954810Y-66623446D01*
X103885100Y-66616580D01*
X102185100Y-66616580D01*
X102115390Y-66623446D01*
X102048360Y-66643779D01*
X101986584Y-66676799D01*
X101932437Y-66721237D01*
X101887999Y-66775384D01*
X101854979Y-66837160D01*
X101834646Y-66904190D01*
X101827780Y-66973900D01*
X100380600Y-66973900D01*
X100380600Y-65702816D01*
X112439400Y-65702816D01*
X112439400Y-65817184D01*
X112461712Y-65929355D01*
X112505479Y-66035017D01*
X112569019Y-66130111D01*
X112649889Y-66210981D01*
X112744983Y-66274521D01*
X112850645Y-66318288D01*
X112962816Y-66340600D01*
X113077184Y-66340600D01*
X113189355Y-66318288D01*
X113295017Y-66274521D01*
X113389459Y-66211416D01*
X116739300Y-66211416D01*
X116739300Y-66325784D01*
X116761612Y-66437955D01*
X116805379Y-66543617D01*
X116868919Y-66638711D01*
X116949789Y-66719581D01*
X117044883Y-66783121D01*
X117150545Y-66826888D01*
X117262716Y-66849200D01*
X117377084Y-66849200D01*
X117489255Y-66826888D01*
X117594917Y-66783121D01*
X117690011Y-66719581D01*
X117770881Y-66638711D01*
X117834421Y-66543617D01*
X117878188Y-66437955D01*
X117900500Y-66325784D01*
X117900500Y-66211416D01*
X123727000Y-66211416D01*
X123727000Y-66325784D01*
X123749312Y-66437955D01*
X123793079Y-66543617D01*
X123856619Y-66638711D01*
X123937489Y-66719581D01*
X124032583Y-66783121D01*
X124138245Y-66826888D01*
X124250416Y-66849200D01*
X124364784Y-66849200D01*
X124476955Y-66826888D01*
X124582617Y-66783121D01*
X124677711Y-66719581D01*
X124758581Y-66638711D01*
X124822121Y-66543617D01*
X124865888Y-66437955D01*
X124888200Y-66325784D01*
X124888200Y-66211416D01*
X124865888Y-66099245D01*
X124822121Y-65993583D01*
X124758581Y-65898489D01*
X124677711Y-65817619D01*
X124582617Y-65754079D01*
X124476955Y-65710312D01*
X124364784Y-65688000D01*
X124250416Y-65688000D01*
X124138245Y-65710312D01*
X124032583Y-65754079D01*
X123937489Y-65817619D01*
X123856619Y-65898489D01*
X123793079Y-65993583D01*
X123749312Y-66099245D01*
X123727000Y-66211416D01*
X117900500Y-66211416D01*
X117878188Y-66099245D01*
X117834421Y-65993583D01*
X117770881Y-65898489D01*
X117690011Y-65817619D01*
X117594917Y-65754079D01*
X117489255Y-65710312D01*
X117377084Y-65688000D01*
X117262716Y-65688000D01*
X117150545Y-65710312D01*
X117044883Y-65754079D01*
X116949789Y-65817619D01*
X116868919Y-65898489D01*
X116805379Y-65993583D01*
X116761612Y-66099245D01*
X116739300Y-66211416D01*
X113389459Y-66211416D01*
X113390111Y-66210981D01*
X113470981Y-66130111D01*
X113534521Y-66035017D01*
X113578288Y-65929355D01*
X113600600Y-65817184D01*
X113600600Y-65702816D01*
X113578288Y-65590645D01*
X113534521Y-65484983D01*
X113470981Y-65389889D01*
X113390111Y-65309019D01*
X113295017Y-65245479D01*
X113189355Y-65201712D01*
X113077184Y-65179400D01*
X112962816Y-65179400D01*
X112850645Y-65201712D01*
X112744983Y-65245479D01*
X112649889Y-65309019D01*
X112569019Y-65389889D01*
X112505479Y-65484983D01*
X112461712Y-65590645D01*
X112439400Y-65702816D01*
X100380600Y-65702816D01*
X100380600Y-64662816D01*
X116729400Y-64662816D01*
X116729400Y-64777184D01*
X116751712Y-64889355D01*
X116795479Y-64995017D01*
X116859019Y-65090111D01*
X116939889Y-65170981D01*
X117034983Y-65234521D01*
X117140645Y-65278288D01*
X117252816Y-65300600D01*
X117367184Y-65300600D01*
X117479355Y-65278288D01*
X117585017Y-65234521D01*
X117680111Y-65170981D01*
X117760981Y-65090111D01*
X117824521Y-64995017D01*
X117868288Y-64889355D01*
X117890600Y-64777184D01*
X117890600Y-64662816D01*
X117868288Y-64550645D01*
X117824521Y-64444983D01*
X117760981Y-64349889D01*
X117680111Y-64269019D01*
X117585017Y-64205479D01*
X117479355Y-64161712D01*
X117367184Y-64139400D01*
X117252816Y-64139400D01*
X117140645Y-64161712D01*
X117034983Y-64205479D01*
X116939889Y-64269019D01*
X116859019Y-64349889D01*
X116795479Y-64444983D01*
X116751712Y-64550645D01*
X116729400Y-64662816D01*
X100380600Y-64662816D01*
X100380600Y-63722816D01*
X117709400Y-63722816D01*
X117709400Y-63837184D01*
X117731712Y-63949355D01*
X117775479Y-64055017D01*
X117839019Y-64150111D01*
X117919889Y-64230981D01*
X118014983Y-64294521D01*
X118120645Y-64338288D01*
X118232816Y-64360600D01*
X118347184Y-64360600D01*
X118459355Y-64338288D01*
X118565017Y-64294521D01*
X118660111Y-64230981D01*
X118740981Y-64150111D01*
X118804521Y-64055017D01*
X118848288Y-63949355D01*
X118870600Y-63837184D01*
X118870600Y-63722816D01*
X118848288Y-63610645D01*
X118804521Y-63504983D01*
X118740981Y-63409889D01*
X118660111Y-63329019D01*
X118565017Y-63265479D01*
X118459355Y-63221712D01*
X118347184Y-63199400D01*
X118232816Y-63199400D01*
X118120645Y-63221712D01*
X118014983Y-63265479D01*
X117919889Y-63329019D01*
X117839019Y-63409889D01*
X117775479Y-63504983D01*
X117731712Y-63610645D01*
X117709400Y-63722816D01*
X100380600Y-63722816D01*
X100380600Y-60863900D01*
X101885780Y-60863900D01*
X101885780Y-62563900D01*
X101892646Y-62633610D01*
X101912979Y-62700640D01*
X101945999Y-62762416D01*
X101990437Y-62816563D01*
X102044584Y-62861001D01*
X102106360Y-62894021D01*
X102173390Y-62914354D01*
X102243100Y-62921220D01*
X103943100Y-62921220D01*
X104012810Y-62914354D01*
X104079840Y-62894021D01*
X104141616Y-62861001D01*
X104195763Y-62816563D01*
X104240201Y-62762416D01*
X104273221Y-62700640D01*
X104293554Y-62633610D01*
X104300420Y-62563900D01*
X104300420Y-62510636D01*
X113625420Y-62510636D01*
X113625420Y-62625004D01*
X113647732Y-62737175D01*
X113691499Y-62842837D01*
X113755039Y-62937931D01*
X113835909Y-63018801D01*
X113931003Y-63082341D01*
X114036665Y-63126108D01*
X114148836Y-63148420D01*
X114263204Y-63148420D01*
X114375375Y-63126108D01*
X114481037Y-63082341D01*
X114576131Y-63018801D01*
X114657001Y-62937931D01*
X114720541Y-62842837D01*
X114764308Y-62737175D01*
X114786620Y-62625004D01*
X114786620Y-62510636D01*
X114767163Y-62412816D01*
X116319400Y-62412816D01*
X116319400Y-62527184D01*
X116341712Y-62639355D01*
X116385479Y-62745017D01*
X116449019Y-62840111D01*
X116529889Y-62920981D01*
X116624983Y-62984521D01*
X116730645Y-63028288D01*
X116842816Y-63050600D01*
X116957184Y-63050600D01*
X117069355Y-63028288D01*
X117175017Y-62984521D01*
X117270111Y-62920981D01*
X117350981Y-62840111D01*
X117414521Y-62745017D01*
X117458288Y-62639355D01*
X117465197Y-62604616D01*
X124455980Y-62604616D01*
X124455980Y-62718984D01*
X124478292Y-62831155D01*
X124522059Y-62936817D01*
X124585599Y-63031911D01*
X124666469Y-63112781D01*
X124761563Y-63176321D01*
X124867225Y-63220088D01*
X124979396Y-63242400D01*
X125093764Y-63242400D01*
X125205935Y-63220088D01*
X125311597Y-63176321D01*
X125406691Y-63112781D01*
X125487561Y-63031911D01*
X125551101Y-62936817D01*
X125594868Y-62831155D01*
X125617180Y-62718984D01*
X125617180Y-62604616D01*
X125594868Y-62492445D01*
X125551101Y-62386783D01*
X125487561Y-62291689D01*
X125406691Y-62210819D01*
X125311597Y-62147279D01*
X125205935Y-62103512D01*
X125093764Y-62081200D01*
X124979396Y-62081200D01*
X124867225Y-62103512D01*
X124761563Y-62147279D01*
X124666469Y-62210819D01*
X124585599Y-62291689D01*
X124522059Y-62386783D01*
X124478292Y-62492445D01*
X124455980Y-62604616D01*
X117465197Y-62604616D01*
X117480600Y-62527184D01*
X117480600Y-62412816D01*
X117458288Y-62300645D01*
X117414521Y-62194983D01*
X117409530Y-62187514D01*
X117434983Y-62204521D01*
X117540645Y-62248288D01*
X117652816Y-62270600D01*
X117767184Y-62270600D01*
X117879355Y-62248288D01*
X117985017Y-62204521D01*
X118080111Y-62140981D01*
X118160981Y-62060111D01*
X118224521Y-61965017D01*
X118268288Y-61859355D01*
X118290600Y-61747184D01*
X118290600Y-61632816D01*
X118288882Y-61624176D01*
X119518220Y-61624176D01*
X119518220Y-61738544D01*
X119540532Y-61850715D01*
X119584299Y-61956377D01*
X119647839Y-62051471D01*
X119728709Y-62132341D01*
X119823803Y-62195881D01*
X119929465Y-62239648D01*
X120041636Y-62261960D01*
X120156004Y-62261960D01*
X120268175Y-62239648D01*
X120373837Y-62195881D01*
X120468931Y-62132341D01*
X120549801Y-62051471D01*
X120613341Y-61956377D01*
X120657108Y-61850715D01*
X120679420Y-61738544D01*
X120679420Y-61624176D01*
X121120960Y-61624176D01*
X121120960Y-61738544D01*
X121143272Y-61850715D01*
X121187039Y-61956377D01*
X121250579Y-62051471D01*
X121331449Y-62132341D01*
X121426543Y-62195881D01*
X121532205Y-62239648D01*
X121644376Y-62261960D01*
X121758744Y-62261960D01*
X121870915Y-62239648D01*
X121976577Y-62195881D01*
X122071671Y-62132341D01*
X122152541Y-62051471D01*
X122216081Y-61956377D01*
X122259848Y-61850715D01*
X122282160Y-61738544D01*
X122282160Y-61624176D01*
X122259848Y-61512005D01*
X122216081Y-61406343D01*
X122204011Y-61388278D01*
X122226643Y-61403401D01*
X122332305Y-61447168D01*
X122444476Y-61469480D01*
X122558844Y-61469480D01*
X122671015Y-61447168D01*
X122776677Y-61403401D01*
X122871771Y-61339861D01*
X122952641Y-61258991D01*
X123016181Y-61163897D01*
X123059948Y-61058235D01*
X123082260Y-60946064D01*
X123082260Y-60831696D01*
X123059948Y-60719525D01*
X123016181Y-60613863D01*
X122952641Y-60518769D01*
X122871771Y-60437899D01*
X122776677Y-60374359D01*
X122671015Y-60330592D01*
X122558844Y-60308280D01*
X122444476Y-60308280D01*
X122332305Y-60330592D01*
X122226643Y-60374359D01*
X122131549Y-60437899D01*
X122050679Y-60518769D01*
X121987139Y-60613863D01*
X121943372Y-60719525D01*
X121921060Y-60831696D01*
X121921060Y-60946064D01*
X121943372Y-61058235D01*
X121987139Y-61163897D01*
X121999209Y-61181962D01*
X121976577Y-61166839D01*
X121870915Y-61123072D01*
X121758744Y-61100760D01*
X121644376Y-61100760D01*
X121532205Y-61123072D01*
X121426543Y-61166839D01*
X121331449Y-61230379D01*
X121250579Y-61311249D01*
X121187039Y-61406343D01*
X121143272Y-61512005D01*
X121120960Y-61624176D01*
X120679420Y-61624176D01*
X120657108Y-61512005D01*
X120613341Y-61406343D01*
X120549801Y-61311249D01*
X120468931Y-61230379D01*
X120373837Y-61166839D01*
X120268175Y-61123072D01*
X120156004Y-61100760D01*
X120041636Y-61100760D01*
X119929465Y-61123072D01*
X119823803Y-61166839D01*
X119728709Y-61230379D01*
X119647839Y-61311249D01*
X119584299Y-61406343D01*
X119540532Y-61512005D01*
X119518220Y-61624176D01*
X118288882Y-61624176D01*
X118268288Y-61520645D01*
X118224521Y-61414983D01*
X118199002Y-61376792D01*
X118231223Y-61398321D01*
X118336885Y-61442088D01*
X118449056Y-61464400D01*
X118563424Y-61464400D01*
X118675595Y-61442088D01*
X118781257Y-61398321D01*
X118876351Y-61334781D01*
X118957221Y-61253911D01*
X119020761Y-61158817D01*
X119064528Y-61053155D01*
X119086840Y-60940984D01*
X119086840Y-60826616D01*
X119064528Y-60714445D01*
X119020761Y-60608783D01*
X118967786Y-60529501D01*
X119044023Y-60580441D01*
X119149685Y-60624208D01*
X119261856Y-60646520D01*
X119376224Y-60646520D01*
X119488395Y-60624208D01*
X119594057Y-60580441D01*
X119689151Y-60516901D01*
X119770021Y-60436031D01*
X119833561Y-60340937D01*
X119877328Y-60235275D01*
X119899640Y-60123104D01*
X119899640Y-60008736D01*
X119877328Y-59896565D01*
X119833561Y-59790903D01*
X119770021Y-59695809D01*
X119689151Y-59614939D01*
X119594057Y-59551399D01*
X119488395Y-59507632D01*
X119376224Y-59485320D01*
X119261856Y-59485320D01*
X119149685Y-59507632D01*
X119044023Y-59551399D01*
X118948929Y-59614939D01*
X118868059Y-59695809D01*
X118804519Y-59790903D01*
X118760752Y-59896565D01*
X118738440Y-60008736D01*
X118738440Y-60123104D01*
X118760752Y-60235275D01*
X118804519Y-60340937D01*
X118857494Y-60420219D01*
X118781257Y-60369279D01*
X118675595Y-60325512D01*
X118563424Y-60303200D01*
X118449056Y-60303200D01*
X118336885Y-60325512D01*
X118231223Y-60369279D01*
X118183834Y-60400944D01*
X118214521Y-60355017D01*
X118258288Y-60249355D01*
X118280600Y-60137184D01*
X118280600Y-60022816D01*
X118258288Y-59910645D01*
X118214521Y-59804983D01*
X118150981Y-59709889D01*
X118070111Y-59629019D01*
X117975017Y-59565479D01*
X117869355Y-59521712D01*
X117757184Y-59499400D01*
X117642816Y-59499400D01*
X117530645Y-59521712D01*
X117424983Y-59565479D01*
X117329889Y-59629019D01*
X117249019Y-59709889D01*
X117185479Y-59804983D01*
X117141712Y-59910645D01*
X117119400Y-60022816D01*
X117119400Y-60137184D01*
X117141712Y-60249355D01*
X117185479Y-60355017D01*
X117208307Y-60389181D01*
X117178521Y-60369279D01*
X117072859Y-60325512D01*
X116960688Y-60303200D01*
X116846320Y-60303200D01*
X116734149Y-60325512D01*
X116628487Y-60369279D01*
X116533393Y-60432819D01*
X116452523Y-60513689D01*
X116388983Y-60608783D01*
X116345216Y-60714445D01*
X116322904Y-60826616D01*
X116322904Y-60940984D01*
X116345216Y-61053155D01*
X116388983Y-61158817D01*
X116452523Y-61253911D01*
X116533393Y-61334781D01*
X116628487Y-61398321D01*
X116734149Y-61442088D01*
X116846320Y-61464400D01*
X116960688Y-61464400D01*
X117072859Y-61442088D01*
X117178521Y-61398321D01*
X117229270Y-61364412D01*
X117195479Y-61414983D01*
X117151712Y-61520645D01*
X117129400Y-61632816D01*
X117129400Y-61747184D01*
X117151712Y-61859355D01*
X117195479Y-61965017D01*
X117200470Y-61972486D01*
X117175017Y-61955479D01*
X117069355Y-61911712D01*
X116957184Y-61889400D01*
X116842816Y-61889400D01*
X116730645Y-61911712D01*
X116624983Y-61955479D01*
X116529889Y-62019019D01*
X116449019Y-62099889D01*
X116385479Y-62194983D01*
X116341712Y-62300645D01*
X116319400Y-62412816D01*
X114767163Y-62412816D01*
X114764308Y-62398465D01*
X114720541Y-62292803D01*
X114657001Y-62197709D01*
X114576131Y-62116839D01*
X114481037Y-62053299D01*
X114375375Y-62009532D01*
X114263204Y-61987220D01*
X114148836Y-61987220D01*
X114036665Y-62009532D01*
X113931003Y-62053299D01*
X113835909Y-62116839D01*
X113755039Y-62197709D01*
X113691499Y-62292803D01*
X113647732Y-62398465D01*
X113625420Y-62510636D01*
X104300420Y-62510636D01*
X104300420Y-60863900D01*
X104294247Y-60801216D01*
X104689700Y-60801216D01*
X104689700Y-60915584D01*
X104712012Y-61027755D01*
X104755779Y-61133417D01*
X104819319Y-61228511D01*
X104900189Y-61309381D01*
X104995283Y-61372921D01*
X105100945Y-61416688D01*
X105213116Y-61439000D01*
X105327484Y-61439000D01*
X105439655Y-61416688D01*
X105545317Y-61372921D01*
X105640411Y-61309381D01*
X105721281Y-61228511D01*
X105784821Y-61133417D01*
X105828588Y-61027755D01*
X105850900Y-60915584D01*
X105850900Y-60801216D01*
X105828588Y-60689045D01*
X105784821Y-60583383D01*
X105721281Y-60488289D01*
X105640411Y-60407419D01*
X105545317Y-60343879D01*
X105439655Y-60300112D01*
X105327484Y-60277800D01*
X105213116Y-60277800D01*
X105100945Y-60300112D01*
X104995283Y-60343879D01*
X104900189Y-60407419D01*
X104819319Y-60488289D01*
X104755779Y-60583383D01*
X104712012Y-60689045D01*
X104689700Y-60801216D01*
X104294247Y-60801216D01*
X104293554Y-60794190D01*
X104273221Y-60727160D01*
X104240201Y-60665384D01*
X104195763Y-60611237D01*
X104141616Y-60566799D01*
X104079840Y-60533779D01*
X104012810Y-60513446D01*
X103943100Y-60506580D01*
X102243100Y-60506580D01*
X102173390Y-60513446D01*
X102106360Y-60533779D01*
X102044584Y-60566799D01*
X101990437Y-60611237D01*
X101945999Y-60665384D01*
X101912979Y-60727160D01*
X101892646Y-60794190D01*
X101885780Y-60863900D01*
X100380600Y-60863900D01*
X100380600Y-58363900D01*
X101885779Y-58363900D01*
X101892645Y-58433610D01*
X101912978Y-58500641D01*
X101945998Y-58562417D01*
X101990436Y-58616564D01*
X102044583Y-58661002D01*
X102106359Y-58694022D01*
X102173390Y-58714355D01*
X102243100Y-58721221D01*
X102978800Y-58719500D01*
X103067700Y-58630600D01*
X103067700Y-57539300D01*
X103118500Y-57539300D01*
X103118500Y-58630600D01*
X103207400Y-58719500D01*
X103943100Y-58721221D01*
X104012810Y-58714355D01*
X104079841Y-58694022D01*
X104141617Y-58661002D01*
X104195764Y-58616564D01*
X104240202Y-58562417D01*
X104273222Y-58500641D01*
X104293555Y-58433610D01*
X104300421Y-58363900D01*
X104299647Y-58032616D01*
X106328000Y-58032616D01*
X106328000Y-58146984D01*
X106350312Y-58259155D01*
X106394079Y-58364817D01*
X106457619Y-58459911D01*
X106538489Y-58540781D01*
X106633583Y-58604321D01*
X106739245Y-58648088D01*
X106851416Y-58670400D01*
X106965784Y-58670400D01*
X107054185Y-58652816D01*
X113639400Y-58652816D01*
X113639400Y-58767184D01*
X113661712Y-58879355D01*
X113705479Y-58985017D01*
X113769019Y-59080111D01*
X113849889Y-59160981D01*
X113944983Y-59224521D01*
X114050645Y-59268288D01*
X114162816Y-59290600D01*
X114277184Y-59290600D01*
X114328519Y-59280389D01*
X114299019Y-59309889D01*
X114235479Y-59404983D01*
X114191712Y-59510645D01*
X114169400Y-59622816D01*
X114169400Y-59737184D01*
X114191712Y-59849355D01*
X114235479Y-59955017D01*
X114299019Y-60050111D01*
X114379889Y-60130981D01*
X114474983Y-60194521D01*
X114580645Y-60238288D01*
X114692816Y-60260600D01*
X114807184Y-60260600D01*
X114919355Y-60238288D01*
X115025017Y-60194521D01*
X115120111Y-60130981D01*
X115200981Y-60050111D01*
X115264521Y-59955017D01*
X115308288Y-59849355D01*
X115330600Y-59737184D01*
X115330600Y-59622816D01*
X115308288Y-59510645D01*
X115264521Y-59404983D01*
X115200981Y-59309889D01*
X115123908Y-59232816D01*
X123259400Y-59232816D01*
X123259400Y-59347184D01*
X123281712Y-59459355D01*
X123325479Y-59565017D01*
X123389019Y-59660111D01*
X123469889Y-59740981D01*
X123564983Y-59804521D01*
X123670645Y-59848288D01*
X123782816Y-59870600D01*
X123897184Y-59870600D01*
X124009355Y-59848288D01*
X124115017Y-59804521D01*
X124210111Y-59740981D01*
X124290981Y-59660111D01*
X124354521Y-59565017D01*
X124398288Y-59459355D01*
X124420600Y-59347184D01*
X124420600Y-59232816D01*
X124398288Y-59120645D01*
X124354521Y-59014983D01*
X124290981Y-58919889D01*
X124210111Y-58839019D01*
X124115017Y-58775479D01*
X124009355Y-58731712D01*
X123897184Y-58709400D01*
X123782816Y-58709400D01*
X123670645Y-58731712D01*
X123564983Y-58775479D01*
X123469889Y-58839019D01*
X123389019Y-58919889D01*
X123325479Y-59014983D01*
X123281712Y-59120645D01*
X123259400Y-59232816D01*
X115123908Y-59232816D01*
X115120111Y-59229019D01*
X115025017Y-59165479D01*
X114919355Y-59121712D01*
X114807184Y-59099400D01*
X114692816Y-59099400D01*
X114641481Y-59109611D01*
X114670981Y-59080111D01*
X114734521Y-58985017D01*
X114778288Y-58879355D01*
X114800600Y-58767184D01*
X114800600Y-58652816D01*
X114778288Y-58540645D01*
X114734521Y-58434983D01*
X114670981Y-58339889D01*
X114590111Y-58259019D01*
X114495017Y-58195479D01*
X114389355Y-58151712D01*
X114277184Y-58129400D01*
X114162816Y-58129400D01*
X114050645Y-58151712D01*
X113944983Y-58195479D01*
X113849889Y-58259019D01*
X113769019Y-58339889D01*
X113705479Y-58434983D01*
X113661712Y-58540645D01*
X113639400Y-58652816D01*
X107054185Y-58652816D01*
X107077955Y-58648088D01*
X107183617Y-58604321D01*
X107278711Y-58540781D01*
X107359581Y-58459911D01*
X107423121Y-58364817D01*
X107466888Y-58259155D01*
X107489200Y-58146984D01*
X107489200Y-58032616D01*
X107466888Y-57920445D01*
X107423121Y-57814783D01*
X107359581Y-57719689D01*
X107278711Y-57638819D01*
X107271254Y-57633836D01*
X114445840Y-57633836D01*
X114445840Y-57748204D01*
X114468152Y-57860375D01*
X114511919Y-57966037D01*
X114575459Y-58061131D01*
X114656329Y-58142001D01*
X114751423Y-58205541D01*
X114857085Y-58249308D01*
X114969256Y-58271620D01*
X115083624Y-58271620D01*
X115195795Y-58249308D01*
X115301457Y-58205541D01*
X115396551Y-58142001D01*
X115477421Y-58061131D01*
X115540961Y-57966037D01*
X115584728Y-57860375D01*
X115607040Y-57748204D01*
X115607040Y-57633836D01*
X115584728Y-57521665D01*
X115540961Y-57416003D01*
X115477421Y-57320909D01*
X115396551Y-57240039D01*
X115301457Y-57176499D01*
X115195795Y-57132732D01*
X115083624Y-57110420D01*
X114969256Y-57110420D01*
X114857085Y-57132732D01*
X114751423Y-57176499D01*
X114656329Y-57240039D01*
X114575459Y-57320909D01*
X114511919Y-57416003D01*
X114468152Y-57521665D01*
X114445840Y-57633836D01*
X107271254Y-57633836D01*
X107183617Y-57575279D01*
X107077955Y-57531512D01*
X106965784Y-57509200D01*
X106851416Y-57509200D01*
X106739245Y-57531512D01*
X106633583Y-57575279D01*
X106538489Y-57638819D01*
X106457619Y-57719689D01*
X106394079Y-57814783D01*
X106350312Y-57920445D01*
X106328000Y-58032616D01*
X104299647Y-58032616D01*
X104298700Y-57628200D01*
X104209800Y-57539300D01*
X103118500Y-57539300D01*
X103067700Y-57539300D01*
X101976400Y-57539300D01*
X101887500Y-57628200D01*
X101885779Y-58363900D01*
X100380600Y-58363900D01*
X100380600Y-56663900D01*
X101885779Y-56663900D01*
X101887500Y-57399600D01*
X101976400Y-57488500D01*
X103067700Y-57488500D01*
X103067700Y-56397200D01*
X103118500Y-56397200D01*
X103118500Y-57488500D01*
X104209800Y-57488500D01*
X104298700Y-57399600D01*
X104300184Y-56765156D01*
X113658440Y-56765156D01*
X113658440Y-56879524D01*
X113680752Y-56991695D01*
X113724519Y-57097357D01*
X113788059Y-57192451D01*
X113868929Y-57273321D01*
X113964023Y-57336861D01*
X114069685Y-57380628D01*
X114181856Y-57402940D01*
X114296224Y-57402940D01*
X114408395Y-57380628D01*
X114514057Y-57336861D01*
X114609151Y-57273321D01*
X114690021Y-57192451D01*
X114753561Y-57097357D01*
X114797328Y-56991695D01*
X114819640Y-56879524D01*
X114819640Y-56822816D01*
X115519400Y-56822816D01*
X115519400Y-56937184D01*
X115541712Y-57049355D01*
X115585479Y-57155017D01*
X115649019Y-57250111D01*
X115729889Y-57330981D01*
X115824983Y-57394521D01*
X115930645Y-57438288D01*
X116042816Y-57460600D01*
X116157184Y-57460600D01*
X116269355Y-57438288D01*
X116375017Y-57394521D01*
X116416973Y-57366487D01*
X116388979Y-57408383D01*
X116345212Y-57514045D01*
X116322900Y-57626216D01*
X116322900Y-57740584D01*
X116345212Y-57852755D01*
X116388979Y-57958417D01*
X116452519Y-58053511D01*
X116478958Y-58079950D01*
X116449019Y-58109889D01*
X116385479Y-58204983D01*
X116341712Y-58310645D01*
X116319400Y-58422816D01*
X116319400Y-58537184D01*
X116341712Y-58649355D01*
X116385479Y-58755017D01*
X116449019Y-58850111D01*
X116529889Y-58930981D01*
X116624983Y-58994521D01*
X116730645Y-59038288D01*
X116842816Y-59060600D01*
X116957184Y-59060600D01*
X117069355Y-59038288D01*
X117175017Y-58994521D01*
X117270111Y-58930981D01*
X117350981Y-58850111D01*
X117414521Y-58755017D01*
X117458288Y-58649355D01*
X117480600Y-58537184D01*
X117480600Y-58422926D01*
X118719400Y-58422926D01*
X118719400Y-58537294D01*
X118741712Y-58649465D01*
X118785479Y-58755127D01*
X118849019Y-58850221D01*
X118929889Y-58931091D01*
X119024983Y-58994631D01*
X119130645Y-59038398D01*
X119242816Y-59060710D01*
X119357184Y-59060710D01*
X119469355Y-59038398D01*
X119575017Y-58994631D01*
X119670111Y-58931091D01*
X119750981Y-58850221D01*
X119814521Y-58755127D01*
X119858288Y-58649465D01*
X119880600Y-58537294D01*
X119880600Y-58426316D01*
X121923600Y-58426316D01*
X121923600Y-58540684D01*
X121945912Y-58652855D01*
X121989679Y-58758517D01*
X122053219Y-58853611D01*
X122134089Y-58934481D01*
X122229183Y-58998021D01*
X122334845Y-59041788D01*
X122447016Y-59064100D01*
X122561384Y-59064100D01*
X122673555Y-59041788D01*
X122779217Y-58998021D01*
X122874311Y-58934481D01*
X122955181Y-58853611D01*
X123018721Y-58758517D01*
X123062488Y-58652855D01*
X123084800Y-58540684D01*
X123084800Y-58426316D01*
X123062488Y-58314145D01*
X123018721Y-58208483D01*
X122955181Y-58113389D01*
X122874311Y-58032519D01*
X122779217Y-57968979D01*
X122673555Y-57925212D01*
X122561384Y-57902900D01*
X122447016Y-57902900D01*
X122334845Y-57925212D01*
X122229183Y-57968979D01*
X122134089Y-58032519D01*
X122053219Y-58113389D01*
X121989679Y-58208483D01*
X121945912Y-58314145D01*
X121923600Y-58426316D01*
X119880600Y-58426316D01*
X119880600Y-58422926D01*
X119858288Y-58310755D01*
X119814521Y-58205093D01*
X119750981Y-58109999D01*
X119730982Y-58090000D01*
X119760981Y-58060001D01*
X119824521Y-57964907D01*
X119868288Y-57859245D01*
X119890600Y-57747074D01*
X119890600Y-57632706D01*
X119868288Y-57520535D01*
X119824521Y-57414873D01*
X119803587Y-57383542D01*
X119834983Y-57404521D01*
X119940645Y-57448288D01*
X120052816Y-57470600D01*
X120167184Y-57470600D01*
X120279355Y-57448288D01*
X120385017Y-57404521D01*
X120397740Y-57396020D01*
X120389479Y-57408383D01*
X120345712Y-57514045D01*
X120323400Y-57626216D01*
X120323400Y-57740584D01*
X120345712Y-57852755D01*
X120389479Y-57958417D01*
X120453019Y-58053511D01*
X120533889Y-58134381D01*
X120628983Y-58197921D01*
X120734645Y-58241688D01*
X120846816Y-58264000D01*
X120961184Y-58264000D01*
X121073355Y-58241688D01*
X121179017Y-58197921D01*
X121274111Y-58134381D01*
X121354981Y-58053511D01*
X121418521Y-57958417D01*
X121462288Y-57852755D01*
X121484600Y-57740584D01*
X121484600Y-57626216D01*
X121462288Y-57514045D01*
X121453495Y-57492816D01*
X123199400Y-57492816D01*
X123199400Y-57607184D01*
X123221712Y-57719355D01*
X123265479Y-57825017D01*
X123329019Y-57920111D01*
X123409889Y-58000981D01*
X123504983Y-58064521D01*
X123610645Y-58108288D01*
X123722816Y-58130600D01*
X123837184Y-58130600D01*
X123949355Y-58108288D01*
X124055017Y-58064521D01*
X124150111Y-58000981D01*
X124230981Y-57920111D01*
X124294521Y-57825017D01*
X124338288Y-57719355D01*
X124360600Y-57607184D01*
X124360600Y-57492816D01*
X124338288Y-57380645D01*
X124294521Y-57274983D01*
X124230981Y-57179889D01*
X124150111Y-57099019D01*
X124055017Y-57035479D01*
X123949355Y-56991712D01*
X123837184Y-56969400D01*
X123722816Y-56969400D01*
X123610645Y-56991712D01*
X123504983Y-57035479D01*
X123409889Y-57099019D01*
X123329019Y-57179889D01*
X123265479Y-57274983D01*
X123221712Y-57380645D01*
X123199400Y-57492816D01*
X121453495Y-57492816D01*
X121418521Y-57408383D01*
X121354981Y-57313289D01*
X121274111Y-57232419D01*
X121179017Y-57168879D01*
X121073355Y-57125112D01*
X120961184Y-57102800D01*
X120846816Y-57102800D01*
X120734645Y-57125112D01*
X120628983Y-57168879D01*
X120616260Y-57177380D01*
X120624521Y-57165017D01*
X120668288Y-57059355D01*
X120690600Y-56947184D01*
X120690600Y-56832816D01*
X121919400Y-56832816D01*
X121919400Y-56947184D01*
X121941712Y-57059355D01*
X121985479Y-57165017D01*
X122049019Y-57260111D01*
X122129889Y-57340981D01*
X122224983Y-57404521D01*
X122330645Y-57448288D01*
X122442816Y-57470600D01*
X122557184Y-57470600D01*
X122669355Y-57448288D01*
X122775017Y-57404521D01*
X122870111Y-57340981D01*
X122950981Y-57260111D01*
X123014521Y-57165017D01*
X123058288Y-57059355D01*
X123080600Y-56947184D01*
X123080600Y-56832816D01*
X123058288Y-56720645D01*
X123014521Y-56614983D01*
X122950981Y-56519889D01*
X122870111Y-56439019D01*
X122775017Y-56375479D01*
X122669355Y-56331712D01*
X122557184Y-56309400D01*
X122442816Y-56309400D01*
X122330645Y-56331712D01*
X122224983Y-56375479D01*
X122129889Y-56439019D01*
X122049019Y-56519889D01*
X121985479Y-56614983D01*
X121941712Y-56720645D01*
X121919400Y-56832816D01*
X120690600Y-56832816D01*
X120668288Y-56720645D01*
X120624521Y-56614983D01*
X120560981Y-56519889D01*
X120480111Y-56439019D01*
X120385017Y-56375479D01*
X120279355Y-56331712D01*
X120167184Y-56309400D01*
X120052816Y-56309400D01*
X119940645Y-56331712D01*
X119834983Y-56375479D01*
X119803454Y-56396546D01*
X119824521Y-56365017D01*
X119868288Y-56259355D01*
X119890600Y-56147184D01*
X119890600Y-56032816D01*
X119868288Y-55920645D01*
X119824521Y-55814983D01*
X119760981Y-55719889D01*
X119680111Y-55639019D01*
X119585017Y-55575479D01*
X119479355Y-55531712D01*
X119367184Y-55509400D01*
X119252816Y-55509400D01*
X119140645Y-55531712D01*
X119034983Y-55575479D01*
X118939889Y-55639019D01*
X118859019Y-55719889D01*
X118795479Y-55814983D01*
X118751712Y-55920645D01*
X118729400Y-56032816D01*
X118729400Y-56147184D01*
X118751712Y-56259355D01*
X118795479Y-56365017D01*
X118859019Y-56460111D01*
X118939889Y-56540981D01*
X119034983Y-56604521D01*
X119140645Y-56648288D01*
X119252816Y-56670600D01*
X119367184Y-56670600D01*
X119479355Y-56648288D01*
X119585017Y-56604521D01*
X119616546Y-56583454D01*
X119595479Y-56614983D01*
X119551712Y-56720645D01*
X119529400Y-56832816D01*
X119529400Y-56947184D01*
X119551712Y-57059355D01*
X119595479Y-57165017D01*
X119616413Y-57196348D01*
X119585017Y-57175369D01*
X119479355Y-57131602D01*
X119367184Y-57109290D01*
X119252816Y-57109290D01*
X119140645Y-57131602D01*
X119034983Y-57175369D01*
X118939889Y-57238909D01*
X118859019Y-57319779D01*
X118795479Y-57414873D01*
X118751712Y-57520535D01*
X118729400Y-57632706D01*
X118729400Y-57747074D01*
X118751712Y-57859245D01*
X118795479Y-57964907D01*
X118859019Y-58060001D01*
X118879018Y-58080000D01*
X118849019Y-58109999D01*
X118785479Y-58205093D01*
X118741712Y-58310755D01*
X118719400Y-58422926D01*
X117480600Y-58422926D01*
X117480600Y-58422816D01*
X117458288Y-58310645D01*
X117414521Y-58204983D01*
X117394654Y-58175250D01*
X117428583Y-58197921D01*
X117534245Y-58241688D01*
X117646416Y-58264000D01*
X117760784Y-58264000D01*
X117872955Y-58241688D01*
X117978617Y-58197921D01*
X118073711Y-58134381D01*
X118154581Y-58053511D01*
X118218121Y-57958417D01*
X118261888Y-57852755D01*
X118284200Y-57740584D01*
X118284200Y-57626216D01*
X118261888Y-57514045D01*
X118218121Y-57408383D01*
X118154581Y-57313289D01*
X118073711Y-57232419D01*
X117978617Y-57168879D01*
X117872955Y-57125112D01*
X117760784Y-57102800D01*
X117646416Y-57102800D01*
X117534245Y-57125112D01*
X117428583Y-57168879D01*
X117333489Y-57232419D01*
X117303550Y-57262358D01*
X117273611Y-57232419D01*
X117178517Y-57168879D01*
X117072855Y-57125112D01*
X116960684Y-57102800D01*
X116846316Y-57102800D01*
X116734145Y-57125112D01*
X116628483Y-57168879D01*
X116586527Y-57196913D01*
X116614521Y-57155017D01*
X116658288Y-57049355D01*
X116680600Y-56937184D01*
X116680600Y-56822816D01*
X116658288Y-56710645D01*
X116614521Y-56604983D01*
X116550981Y-56509889D01*
X116470111Y-56429019D01*
X116375017Y-56365479D01*
X116269355Y-56321712D01*
X116157184Y-56299400D01*
X116042816Y-56299400D01*
X115930645Y-56321712D01*
X115824983Y-56365479D01*
X115729889Y-56429019D01*
X115649019Y-56509889D01*
X115585479Y-56604983D01*
X115541712Y-56710645D01*
X115519400Y-56822816D01*
X114819640Y-56822816D01*
X114819640Y-56765156D01*
X114797328Y-56652985D01*
X114753561Y-56547323D01*
X114690021Y-56452229D01*
X114609151Y-56371359D01*
X114514057Y-56307819D01*
X114408395Y-56264052D01*
X114296224Y-56241740D01*
X114181856Y-56241740D01*
X114069685Y-56264052D01*
X113964023Y-56307819D01*
X113868929Y-56371359D01*
X113788059Y-56452229D01*
X113724519Y-56547323D01*
X113680752Y-56652985D01*
X113658440Y-56765156D01*
X104300184Y-56765156D01*
X104300421Y-56663900D01*
X104293555Y-56594190D01*
X104273222Y-56527159D01*
X104240202Y-56465383D01*
X104195764Y-56411236D01*
X104141617Y-56366798D01*
X104079841Y-56333778D01*
X104012810Y-56313445D01*
X103943100Y-56306579D01*
X103207400Y-56308300D01*
X103118500Y-56397200D01*
X103067700Y-56397200D01*
X102978800Y-56308300D01*
X102243100Y-56306579D01*
X102173390Y-56313445D01*
X102106359Y-56333778D01*
X102044583Y-56366798D01*
X101990436Y-56411236D01*
X101945998Y-56465383D01*
X101912978Y-56527159D01*
X101892645Y-56594190D01*
X101885779Y-56663900D01*
X100380600Y-56663900D01*
X100380600Y-54084600D01*
X106076680Y-54084600D01*
X106076680Y-55084600D01*
X106083546Y-55154310D01*
X106103879Y-55221340D01*
X106136899Y-55283116D01*
X106181337Y-55337263D01*
X106235484Y-55381701D01*
X106297260Y-55414721D01*
X106364290Y-55435054D01*
X106434000Y-55441920D01*
X107434000Y-55441920D01*
X107503710Y-55435054D01*
X107570740Y-55414721D01*
X107632516Y-55381701D01*
X107686663Y-55337263D01*
X107731101Y-55283116D01*
X107764121Y-55221340D01*
X107784454Y-55154310D01*
X107791320Y-55084600D01*
X107791320Y-54892816D01*
X109649400Y-54892816D01*
X109649400Y-55007184D01*
X109671712Y-55119355D01*
X109715479Y-55225017D01*
X109779019Y-55320111D01*
X109859889Y-55400981D01*
X109954983Y-55464521D01*
X110060645Y-55508288D01*
X110144663Y-55525000D01*
X110060645Y-55541712D01*
X109954983Y-55585479D01*
X109859889Y-55649019D01*
X109779019Y-55729889D01*
X109715479Y-55824983D01*
X109671712Y-55930645D01*
X109649400Y-56042816D01*
X109649400Y-56157184D01*
X109671712Y-56269355D01*
X109715479Y-56375017D01*
X109779019Y-56470111D01*
X109859889Y-56550981D01*
X109954983Y-56614521D01*
X110060645Y-56658288D01*
X110172816Y-56680600D01*
X110287184Y-56680600D01*
X110399355Y-56658288D01*
X110505017Y-56614521D01*
X110600111Y-56550981D01*
X110680981Y-56470111D01*
X110744521Y-56375017D01*
X110788288Y-56269355D01*
X110810600Y-56157184D01*
X110810600Y-56042816D01*
X110788288Y-55930645D01*
X110744521Y-55824983D01*
X110680981Y-55729889D01*
X110600111Y-55649019D01*
X110505017Y-55585479D01*
X110399355Y-55541712D01*
X110315337Y-55525000D01*
X110399355Y-55508288D01*
X110505017Y-55464521D01*
X110600111Y-55400981D01*
X110680981Y-55320111D01*
X110744521Y-55225017D01*
X110788288Y-55119355D01*
X110810600Y-55007184D01*
X110810600Y-54892816D01*
X110788288Y-54780645D01*
X110782295Y-54766176D01*
X114425520Y-54766176D01*
X114425520Y-54880544D01*
X114447832Y-54992715D01*
X114491599Y-55098377D01*
X114555139Y-55193471D01*
X114636009Y-55274341D01*
X114731103Y-55337881D01*
X114836765Y-55381648D01*
X114948936Y-55403960D01*
X115063304Y-55403960D01*
X115175475Y-55381648D01*
X115281137Y-55337881D01*
X115376231Y-55274341D01*
X115457101Y-55193471D01*
X115520641Y-55098377D01*
X115564408Y-54992715D01*
X115586720Y-54880544D01*
X115586720Y-54766176D01*
X115564408Y-54654005D01*
X115547745Y-54613776D01*
X117925640Y-54613776D01*
X117925640Y-54728144D01*
X117947952Y-54840315D01*
X117991719Y-54945977D01*
X118055259Y-55041071D01*
X118136129Y-55121941D01*
X118231223Y-55185481D01*
X118336885Y-55229248D01*
X118449056Y-55251560D01*
X118563424Y-55251560D01*
X118675595Y-55229248D01*
X118781257Y-55185481D01*
X118876351Y-55121941D01*
X118957221Y-55041071D01*
X119020761Y-54945977D01*
X119064528Y-54840315D01*
X119086840Y-54728144D01*
X119086840Y-54613776D01*
X119064528Y-54501605D01*
X119020761Y-54395943D01*
X118957221Y-54300849D01*
X118899188Y-54242816D01*
X119919400Y-54242816D01*
X119919400Y-54357184D01*
X119941712Y-54469355D01*
X119985479Y-54575017D01*
X120049019Y-54670111D01*
X120129889Y-54750981D01*
X120224983Y-54814521D01*
X120330645Y-54858288D01*
X120442816Y-54880600D01*
X120557184Y-54880600D01*
X120669355Y-54858288D01*
X120775017Y-54814521D01*
X120799233Y-54798340D01*
X129017960Y-54798340D01*
X129017960Y-55798340D01*
X129024826Y-55868050D01*
X129045159Y-55935080D01*
X129078179Y-55996856D01*
X129122617Y-56051003D01*
X129176764Y-56095441D01*
X129238540Y-56128461D01*
X129305570Y-56148794D01*
X129375280Y-56155660D01*
X130375280Y-56155660D01*
X130444990Y-56148794D01*
X130512020Y-56128461D01*
X130573796Y-56095441D01*
X130627943Y-56051003D01*
X130662462Y-56008942D01*
X130667635Y-56013187D01*
X130816272Y-56092635D01*
X130977553Y-56141559D01*
X131103257Y-56153940D01*
X131187303Y-56153940D01*
X131313007Y-56141559D01*
X131474288Y-56092635D01*
X131622925Y-56013187D01*
X131753207Y-55906267D01*
X131780280Y-55873279D01*
X131807353Y-55906267D01*
X131937635Y-56013187D01*
X132086272Y-56092635D01*
X132247553Y-56141559D01*
X132373257Y-56153940D01*
X132457303Y-56153940D01*
X132583007Y-56141559D01*
X132744288Y-56092635D01*
X132892925Y-56013187D01*
X133023207Y-55906267D01*
X133050280Y-55873279D01*
X133077353Y-55906267D01*
X133207635Y-56013187D01*
X133356272Y-56092635D01*
X133517553Y-56141559D01*
X133643257Y-56153940D01*
X133727303Y-56153940D01*
X133853007Y-56141559D01*
X134014288Y-56092635D01*
X134162925Y-56013187D01*
X134293207Y-55906267D01*
X134320280Y-55873279D01*
X134347353Y-55906267D01*
X134477635Y-56013187D01*
X134626272Y-56092635D01*
X134787553Y-56141559D01*
X134913257Y-56153940D01*
X134997303Y-56153940D01*
X135123007Y-56141559D01*
X135284288Y-56092635D01*
X135432925Y-56013187D01*
X135563207Y-55906267D01*
X135670127Y-55775985D01*
X135749575Y-55627348D01*
X135798499Y-55466067D01*
X135815019Y-55298340D01*
X135798499Y-55130613D01*
X135749575Y-54969332D01*
X135670127Y-54820695D01*
X135563207Y-54690413D01*
X135432925Y-54583493D01*
X135284288Y-54504045D01*
X135123007Y-54455121D01*
X134997303Y-54442740D01*
X134913257Y-54442740D01*
X134787553Y-54455121D01*
X134626272Y-54504045D01*
X134477635Y-54583493D01*
X134347353Y-54690413D01*
X134320280Y-54723401D01*
X134293207Y-54690413D01*
X134162925Y-54583493D01*
X134014288Y-54504045D01*
X133853007Y-54455121D01*
X133727303Y-54442740D01*
X133643257Y-54442740D01*
X133517553Y-54455121D01*
X133356272Y-54504045D01*
X133207635Y-54583493D01*
X133077353Y-54690413D01*
X133050280Y-54723401D01*
X133023207Y-54690413D01*
X132892925Y-54583493D01*
X132744288Y-54504045D01*
X132583007Y-54455121D01*
X132457303Y-54442740D01*
X132373257Y-54442740D01*
X132247553Y-54455121D01*
X132086272Y-54504045D01*
X131937635Y-54583493D01*
X131807353Y-54690413D01*
X131780280Y-54723401D01*
X131753207Y-54690413D01*
X131622925Y-54583493D01*
X131474288Y-54504045D01*
X131313007Y-54455121D01*
X131187303Y-54442740D01*
X131103257Y-54442740D01*
X130977553Y-54455121D01*
X130816272Y-54504045D01*
X130667635Y-54583493D01*
X130662462Y-54587738D01*
X130627943Y-54545677D01*
X130573796Y-54501239D01*
X130512020Y-54468219D01*
X130444990Y-54447886D01*
X130375280Y-54441020D01*
X129375280Y-54441020D01*
X129305570Y-54447886D01*
X129238540Y-54468219D01*
X129176764Y-54501239D01*
X129122617Y-54545677D01*
X129078179Y-54599824D01*
X129045159Y-54661600D01*
X129024826Y-54728630D01*
X129017960Y-54798340D01*
X120799233Y-54798340D01*
X120870111Y-54750981D01*
X120950981Y-54670111D01*
X121014521Y-54575017D01*
X121058288Y-54469355D01*
X121080600Y-54357184D01*
X121080600Y-54242816D01*
X121058288Y-54130645D01*
X121014521Y-54024983D01*
X120950981Y-53929889D01*
X120870111Y-53849019D01*
X120775017Y-53785479D01*
X120669355Y-53741712D01*
X120557184Y-53719400D01*
X120442816Y-53719400D01*
X120330645Y-53741712D01*
X120224983Y-53785479D01*
X120129889Y-53849019D01*
X120049019Y-53929889D01*
X119985479Y-54024983D01*
X119941712Y-54130645D01*
X119919400Y-54242816D01*
X118899188Y-54242816D01*
X118876351Y-54219979D01*
X118781257Y-54156439D01*
X118675595Y-54112672D01*
X118563424Y-54090360D01*
X118449056Y-54090360D01*
X118336885Y-54112672D01*
X118231223Y-54156439D01*
X118136129Y-54219979D01*
X118055259Y-54300849D01*
X117991719Y-54395943D01*
X117947952Y-54501605D01*
X117925640Y-54613776D01*
X115547745Y-54613776D01*
X115520641Y-54548343D01*
X115457101Y-54453249D01*
X115376231Y-54372379D01*
X115281137Y-54308839D01*
X115175475Y-54265072D01*
X115063304Y-54242760D01*
X114948936Y-54242760D01*
X114836765Y-54265072D01*
X114731103Y-54308839D01*
X114636009Y-54372379D01*
X114555139Y-54453249D01*
X114491599Y-54548343D01*
X114447832Y-54654005D01*
X114425520Y-54766176D01*
X110782295Y-54766176D01*
X110744521Y-54674983D01*
X110680981Y-54579889D01*
X110600111Y-54499019D01*
X110505017Y-54435479D01*
X110399355Y-54391712D01*
X110287184Y-54369400D01*
X110172816Y-54369400D01*
X110060645Y-54391712D01*
X109954983Y-54435479D01*
X109859889Y-54499019D01*
X109779019Y-54579889D01*
X109715479Y-54674983D01*
X109671712Y-54780645D01*
X109649400Y-54892816D01*
X107791320Y-54892816D01*
X107791320Y-54084600D01*
X107784454Y-54014890D01*
X107764121Y-53947860D01*
X107731101Y-53886084D01*
X107686663Y-53831937D01*
X107632516Y-53787499D01*
X107570740Y-53754479D01*
X107503710Y-53734146D01*
X107434000Y-53727280D01*
X106434000Y-53727280D01*
X106364290Y-53734146D01*
X106297260Y-53754479D01*
X106235484Y-53787499D01*
X106181337Y-53831937D01*
X106136899Y-53886084D01*
X106103879Y-53947860D01*
X106083546Y-54014890D01*
X106076680Y-54084600D01*
X100380600Y-54084600D01*
X100380600Y-53574916D01*
X116030800Y-53574916D01*
X116030800Y-53689284D01*
X116053112Y-53801455D01*
X116096879Y-53907117D01*
X116160419Y-54002211D01*
X116241289Y-54083081D01*
X116336383Y-54146621D01*
X116442045Y-54190388D01*
X116554216Y-54212700D01*
X116668584Y-54212700D01*
X116780755Y-54190388D01*
X116886417Y-54146621D01*
X116981511Y-54083081D01*
X117062381Y-54002211D01*
X117125921Y-53907117D01*
X117169688Y-53801455D01*
X117192000Y-53689284D01*
X117192000Y-53574916D01*
X117169688Y-53462745D01*
X117125921Y-53357083D01*
X117062381Y-53261989D01*
X116981511Y-53181119D01*
X116886417Y-53117579D01*
X116780755Y-53073812D01*
X116668584Y-53051500D01*
X116554216Y-53051500D01*
X116442045Y-53073812D01*
X116336383Y-53117579D01*
X116241289Y-53181119D01*
X116160419Y-53261989D01*
X116096879Y-53357083D01*
X116053112Y-53462745D01*
X116030800Y-53574916D01*
X100380600Y-53574916D01*
X100380600Y-53380600D01*
X113981307Y-53380600D01*
X114000000Y-53382441D01*
X114018693Y-53380600D01*
X114074611Y-53375093D01*
X114146354Y-53353329D01*
X114212473Y-53317988D01*
X114270427Y-53270427D01*
X114317988Y-53212473D01*
X114353329Y-53146354D01*
X114375093Y-53074611D01*
X114382441Y-53000000D01*
X114380600Y-52981307D01*
X114380600Y-51636896D01*
X119917000Y-51636896D01*
X119917000Y-51751264D01*
X119939312Y-51863435D01*
X119983079Y-51969097D01*
X120046619Y-52064191D01*
X120127489Y-52145061D01*
X120222583Y-52208601D01*
X120328245Y-52252368D01*
X120440416Y-52274680D01*
X120554784Y-52274680D01*
X120666955Y-52252368D01*
X120772617Y-52208601D01*
X120867711Y-52145061D01*
X120948581Y-52064191D01*
X121012121Y-51969097D01*
X121031579Y-51922122D01*
X121034052Y-51934555D01*
X121077819Y-52040217D01*
X121141359Y-52135311D01*
X121222229Y-52216181D01*
X121317323Y-52279721D01*
X121422985Y-52323488D01*
X121535156Y-52345800D01*
X121649524Y-52345800D01*
X121761695Y-52323488D01*
X121867357Y-52279721D01*
X121962451Y-52216181D01*
X122043321Y-52135311D01*
X122106861Y-52040217D01*
X122140019Y-51960168D01*
X122141492Y-51967575D01*
X122185259Y-52073237D01*
X122248799Y-52168331D01*
X122329669Y-52249201D01*
X122424763Y-52312741D01*
X122530425Y-52356508D01*
X122642596Y-52378820D01*
X122756964Y-52378820D01*
X122869135Y-52356508D01*
X122974797Y-52312741D01*
X123069891Y-52249201D01*
X123150761Y-52168331D01*
X123214301Y-52073237D01*
X123258068Y-51967575D01*
X123280380Y-51855404D01*
X123280380Y-51741036D01*
X123258068Y-51628865D01*
X123214301Y-51523203D01*
X123150761Y-51428109D01*
X123069891Y-51347239D01*
X122974797Y-51283699D01*
X122869135Y-51239932D01*
X122756964Y-51217620D01*
X122642596Y-51217620D01*
X122530425Y-51239932D01*
X122424763Y-51283699D01*
X122329669Y-51347239D01*
X122248799Y-51428109D01*
X122185259Y-51523203D01*
X122152101Y-51603252D01*
X122150628Y-51595845D01*
X122106861Y-51490183D01*
X122043321Y-51395089D01*
X121962451Y-51314219D01*
X121867357Y-51250679D01*
X121761695Y-51206912D01*
X121649524Y-51184600D01*
X121535156Y-51184600D01*
X121422985Y-51206912D01*
X121317323Y-51250679D01*
X121222229Y-51314219D01*
X121141359Y-51395089D01*
X121077819Y-51490183D01*
X121058361Y-51537158D01*
X121055888Y-51524725D01*
X121012121Y-51419063D01*
X120948581Y-51323969D01*
X120867711Y-51243099D01*
X120772617Y-51179559D01*
X120666955Y-51135792D01*
X120554784Y-51113480D01*
X120440416Y-51113480D01*
X120328245Y-51135792D01*
X120222583Y-51179559D01*
X120127489Y-51243099D01*
X120046619Y-51323969D01*
X119983079Y-51419063D01*
X119939312Y-51524725D01*
X119917000Y-51636896D01*
X114380600Y-51636896D01*
X114380600Y-48268619D01*
X114398949Y-48081485D01*
X114447887Y-47919394D01*
X114527378Y-47769893D01*
X114634394Y-47638677D01*
X114764860Y-47530746D01*
X114913802Y-47450215D01*
X115075550Y-47400145D01*
X115261505Y-47380600D01*
X122431381Y-47380600D01*
X122618515Y-47398949D01*
M02*
