M48
; DRILL file {KiCad (5.1.0)-1} date 8/27/2019 5:01:07 PM
; FORMAT={-:-/ absolute / inch / decimal}
; #@! TF.CreationDate,2019-08-27T17:01:07-07:00
; #@! TF.GenerationSoftware,Kicad,Pcbnew,(5.1.0)-1
; #@! TF.FileFunction,Plated,1,4,PTH
FMAT,2
INCH
T1C0.0079
T2C0.0394
%
G90
G05
T1
X4.1445Y-2.396
X4.177Y-2.7005
X4.209Y-2.287
X4.217Y-2.8345
X4.3165Y-3.0535
X4.3175Y-2.96
X4.3398Y-2.1634
X4.3398Y-2.2087
X4.3665Y-2.2371
X4.3689Y-2.4632
X4.377Y-3.125
X4.3925Y-2.929
X4.3927Y-2.9755
X4.393Y-3.008
X4.3945Y-3.0535
X4.409Y-2.8315
X4.4496Y-2.589
X4.4963Y-2.4633
X4.4969Y-2.3114
X4.4976Y-2.2371
X4.5177Y-2.3496
X4.5278Y-2.1584
X4.5286Y-2.2713
X4.5385Y-3.1325
X4.548Y-2.663
X4.5565Y-3.0955
X4.5709Y-2.2394
X4.5803Y-3.0665
X4.5865Y-2.522
X4.591Y-2.1115
X4.6024Y-2.3024
X4.6024Y-2.4594
X4.6024Y-3.1055
X4.6025Y-2.271
X4.6025Y-2.397
X4.6144Y-2.0329
X4.6185Y-2.548
X4.6189Y-2.609
X4.6339Y-2.3654
X4.634Y-2.271
X4.6343Y-2.3969
X4.6343Y-2.4287
X4.6343Y-3.1295
X4.6569Y-3.1006
X4.6571Y-2.511
X4.6653Y-2.3343
X4.6655Y-2.2709
X4.6656Y-2.1524
X4.6656Y-2.397
X4.6656Y-2.3024
X4.6748Y-3.2091
X4.6972Y-2.2083
X4.6976Y-2.3648
X4.7022Y-3.0779
X4.7105Y-2.7617
X4.7283Y-2.4284
X4.7285Y-2.334
X4.7287Y-2.2398
X4.744Y-2.0352
X4.7441Y-2.1378
X4.7445Y-3.1791
X4.76Y-2.397
X4.76Y-2.271
X4.763Y-2.6435
X4.7655Y-3.029
X4.7655Y-3.0595
X4.767Y-2.9295
X4.7857Y-2.8051
X4.7871Y-2.038
X4.789Y-2.891
X4.789Y-2.965
X4.7914Y-2.4284
X4.8075Y-3.149
X4.8229Y-2.3972
X4.823Y-2.3025
X4.8307Y-2.0393
X4.8394Y-2.1355
X4.8756Y-2.3343
X4.8756Y-2.6602
X4.8884Y-2.2705
X4.894Y-2.609
X4.9034Y-2.8083
X4.9034Y-2.9245
X4.9227Y-2.467
X4.9875Y-2.4661
X5.0057Y-2.8661
X5.0145Y-2.27
X5.0646Y-3.1961
X5.0716Y-3.0233
X5.0784Y-2.3201
X5.0964Y-3.2514
X5.137Y-2.4495
X5.1382Y-3.2519
X5.1388Y-3.0757
X5.1711Y-3.1865
X5.1711Y-3.2118
X5.1739Y-3.0753
X5.1755Y-2.5699
X5.2439Y-3.196
T2
X4.0645Y-3.2899
X4.21Y-2.149
X4.0568Y-2.8336
X4.6757Y-3.3289
X4.0588Y-2.2643
X5.327Y-2.1729
X5.327Y-2.2729
X5.327Y-2.3729
X5.327Y-2.4729
X5.327Y-2.5729
X4.8303Y-3.3289
X4.0645Y-3.1265
X4.0565Y-2.6702
X4.3606Y-3.3295
X4.0588Y-2.4297
X5.3148Y-3.1064
X4.5193Y-3.3301
X4.393Y-2.682
X4.9843Y-3.3295
X5.3148Y-3.2824
T0
M30
