%FSLAX45Y45*%
G04 Gerber Fmt 4.5, Leading zero omitted, Abs format (unit mm)*
G04 Created by KiCad (PCBNEW (5.1.0)-1) date 2019-08-27 14:04:16*
%MOMM*%
%LPD*%
G04 APERTURE LIST*
%ADD10C,0.050000*%
%ADD11C,0.200000*%
%ADD12C,0.300000*%
G04 APERTURE END LIST*
D10*
X12245000Y-4700000D02*
G75*
G02X12370000Y-4825000I0J-125000D01*
G01*
X11400000Y-4825000D02*
G75*
G02X11525000Y-4700000I125000J0D01*
G01*
X10000000Y-5300000D02*
X11400000Y-5300000D01*
X10000000Y-8700000D02*
X10000000Y-5300000D01*
X13750000Y-8700000D02*
X10000000Y-8700000D01*
X13750000Y-5300000D02*
X13750000Y-8700000D01*
X12370000Y-5300000D02*
X13750000Y-5300000D01*
X12370000Y-4825000D02*
X12370000Y-5300000D01*
X11525000Y-4700000D02*
X12245000Y-4700000D01*
X11400000Y-5300000D02*
X11400000Y-4825000D01*
D11*
D12*
X10283928Y-9168214D02*
X10283928Y-8868214D01*
X10355357Y-8868214D01*
X10398214Y-8882500D01*
X10426786Y-8911072D01*
X10441071Y-8939643D01*
X10455357Y-8996786D01*
X10455357Y-9039643D01*
X10441071Y-9096786D01*
X10426786Y-9125357D01*
X10398214Y-9153929D01*
X10355357Y-9168214D01*
X10283928Y-9168214D01*
X10583928Y-9168214D02*
X10583928Y-8968214D01*
X10583928Y-9025357D02*
X10598214Y-8996786D01*
X10612500Y-8982500D01*
X10641071Y-8968214D01*
X10669643Y-8968214D01*
X10769643Y-9168214D02*
X10769643Y-8968214D01*
X10769643Y-8868214D02*
X10755357Y-8882500D01*
X10769643Y-8896786D01*
X10783928Y-8882500D01*
X10769643Y-8868214D01*
X10769643Y-8896786D01*
X10955357Y-9168214D02*
X10926786Y-9153929D01*
X10912500Y-9125357D01*
X10912500Y-8868214D01*
X11112500Y-9168214D02*
X11083928Y-9153929D01*
X11069643Y-9125357D01*
X11069643Y-8868214D01*
X11455357Y-9168214D02*
X11455357Y-8868214D01*
X11555357Y-9082500D01*
X11655357Y-8868214D01*
X11655357Y-9168214D01*
X11926786Y-9168214D02*
X11926786Y-9011072D01*
X11912500Y-8982500D01*
X11883928Y-8968214D01*
X11826786Y-8968214D01*
X11798214Y-8982500D01*
X11926786Y-9153929D02*
X11898214Y-9168214D01*
X11826786Y-9168214D01*
X11798214Y-9153929D01*
X11783928Y-9125357D01*
X11783928Y-9096786D01*
X11798214Y-9068214D01*
X11826786Y-9053929D01*
X11898214Y-9053929D01*
X11926786Y-9039643D01*
X12069643Y-8968214D02*
X12069643Y-9268214D01*
X12069643Y-8982500D02*
X12098214Y-8968214D01*
X12155357Y-8968214D01*
X12183928Y-8982500D01*
X12198214Y-8996786D01*
X12212500Y-9025357D01*
X12212500Y-9111072D01*
X12198214Y-9139643D01*
X12183928Y-9153929D01*
X12155357Y-9168214D01*
X12098214Y-9168214D01*
X12069643Y-9153929D01*
X12341071Y-9139643D02*
X12355357Y-9153929D01*
X12341071Y-9168214D01*
X12326786Y-9153929D01*
X12341071Y-9139643D01*
X12341071Y-9168214D01*
X12341071Y-8982500D02*
X12355357Y-8996786D01*
X12341071Y-9011072D01*
X12326786Y-8996786D01*
X12341071Y-8982500D01*
X12341071Y-9011072D01*
M02*
