G04 #@! TF.GenerationSoftware,KiCad,Pcbnew,(5.1.0)-1*
G04 #@! TF.CreationDate,2019-08-27T14:04:21-07:00*
G04 #@! TF.ProjectId,SDCard-PCB,53444361-7264-42d5-9043-422e6b696361,rev?*
G04 #@! TF.SameCoordinates,Original*
G04 #@! TF.FileFunction,Copper,L1,Top*
G04 #@! TF.FilePolarity,Positive*
%FSLAX46Y46*%
G04 Gerber Fmt 4.6, Leading zero omitted, Abs format (unit mm)*
G04 Created by KiCad (PCBNEW (5.1.0)-1) date 2019-08-27 14:04:21*
%MOMM*%
%LPD*%
G04 APERTURE LIST*
%ADD10R,1.000000X1.000000*%
%ADD11C,0.700000*%
%ADD12R,1.700000X1.700000*%
%ADD13R,0.920000X0.890000*%
%ADD14R,0.870000X0.810000*%
%ADD15R,0.340000X0.310000*%
%ADD16R,0.310000X0.340000*%
%ADD17C,0.100000*%
%ADD18C,0.590000*%
%ADD19R,0.260000X0.680000*%
%ADD20R,0.680000X0.260000*%
%ADD21R,3.100000X3.100000*%
%ADD22R,0.630000X0.580000*%
%ADD23R,1.200000X1.400000*%
%ADD24C,0.370000*%
%ADD25R,0.270000X0.740000*%
%ADD26R,0.270000X0.820000*%
%ADD27R,0.490000X0.560000*%
%ADD28R,2.620000X0.870000*%
%ADD29R,1.050000X2.200000*%
%ADD30R,1.000000X2.000000*%
%ADD31R,0.770000X0.710000*%
%ADD32R,0.810000X0.870000*%
%ADD33R,0.930000X1.320000*%
%ADD34R,0.580000X0.630000*%
%ADD35O,1.000000X1.000000*%
%ADD36C,0.450000*%
%ADD37C,0.152400*%
G04 APERTURE END LIST*
D10*
X132753100Y-70205600D03*
X128282700Y-70205600D03*
X125082300Y-84518500D03*
X121856500Y-84518500D03*
X118940580Y-84521040D03*
X111582200Y-68122800D03*
X115455700Y-84543900D03*
X112928400Y-84556600D03*
X106934000Y-54584600D03*
D11*
X131071620Y-78287880D03*
D12*
X103238300Y-83563100D03*
X103238300Y-79413100D03*
D13*
X122897900Y-66268600D03*
X122897900Y-64938600D03*
D14*
X121597420Y-66267880D03*
X121597420Y-64907880D03*
D15*
X114515900Y-78952000D03*
X114515900Y-79502000D03*
D16*
X120345200Y-73444100D03*
X120895200Y-73444100D03*
D17*
G36*
X118474258Y-70545610D02*
G01*
X118488576Y-70547734D01*
X118502617Y-70551251D01*
X118516246Y-70556128D01*
X118529331Y-70562317D01*
X118541747Y-70569758D01*
X118553373Y-70578381D01*
X118564098Y-70588102D01*
X118573819Y-70598827D01*
X118582442Y-70610453D01*
X118589883Y-70622869D01*
X118596072Y-70635954D01*
X118600949Y-70649583D01*
X118604466Y-70663624D01*
X118606590Y-70677942D01*
X118607300Y-70692400D01*
X118607300Y-70987400D01*
X118606590Y-71001858D01*
X118604466Y-71016176D01*
X118600949Y-71030217D01*
X118596072Y-71043846D01*
X118589883Y-71056931D01*
X118582442Y-71069347D01*
X118573819Y-71080973D01*
X118564098Y-71091698D01*
X118553373Y-71101419D01*
X118541747Y-71110042D01*
X118529331Y-71117483D01*
X118516246Y-71123672D01*
X118502617Y-71128549D01*
X118488576Y-71132066D01*
X118474258Y-71134190D01*
X118459800Y-71134900D01*
X118114800Y-71134900D01*
X118100342Y-71134190D01*
X118086024Y-71132066D01*
X118071983Y-71128549D01*
X118058354Y-71123672D01*
X118045269Y-71117483D01*
X118032853Y-71110042D01*
X118021227Y-71101419D01*
X118010502Y-71091698D01*
X118000781Y-71080973D01*
X117992158Y-71069347D01*
X117984717Y-71056931D01*
X117978528Y-71043846D01*
X117973651Y-71030217D01*
X117970134Y-71016176D01*
X117968010Y-71001858D01*
X117967300Y-70987400D01*
X117967300Y-70692400D01*
X117968010Y-70677942D01*
X117970134Y-70663624D01*
X117973651Y-70649583D01*
X117978528Y-70635954D01*
X117984717Y-70622869D01*
X117992158Y-70610453D01*
X118000781Y-70598827D01*
X118010502Y-70588102D01*
X118021227Y-70578381D01*
X118032853Y-70569758D01*
X118045269Y-70562317D01*
X118058354Y-70556128D01*
X118071983Y-70551251D01*
X118086024Y-70547734D01*
X118100342Y-70545610D01*
X118114800Y-70544900D01*
X118459800Y-70544900D01*
X118474258Y-70545610D01*
X118474258Y-70545610D01*
G37*
D18*
X118287300Y-70839900D03*
D17*
G36*
X118474258Y-71515610D02*
G01*
X118488576Y-71517734D01*
X118502617Y-71521251D01*
X118516246Y-71526128D01*
X118529331Y-71532317D01*
X118541747Y-71539758D01*
X118553373Y-71548381D01*
X118564098Y-71558102D01*
X118573819Y-71568827D01*
X118582442Y-71580453D01*
X118589883Y-71592869D01*
X118596072Y-71605954D01*
X118600949Y-71619583D01*
X118604466Y-71633624D01*
X118606590Y-71647942D01*
X118607300Y-71662400D01*
X118607300Y-71957400D01*
X118606590Y-71971858D01*
X118604466Y-71986176D01*
X118600949Y-72000217D01*
X118596072Y-72013846D01*
X118589883Y-72026931D01*
X118582442Y-72039347D01*
X118573819Y-72050973D01*
X118564098Y-72061698D01*
X118553373Y-72071419D01*
X118541747Y-72080042D01*
X118529331Y-72087483D01*
X118516246Y-72093672D01*
X118502617Y-72098549D01*
X118488576Y-72102066D01*
X118474258Y-72104190D01*
X118459800Y-72104900D01*
X118114800Y-72104900D01*
X118100342Y-72104190D01*
X118086024Y-72102066D01*
X118071983Y-72098549D01*
X118058354Y-72093672D01*
X118045269Y-72087483D01*
X118032853Y-72080042D01*
X118021227Y-72071419D01*
X118010502Y-72061698D01*
X118000781Y-72050973D01*
X117992158Y-72039347D01*
X117984717Y-72026931D01*
X117978528Y-72013846D01*
X117973651Y-72000217D01*
X117970134Y-71986176D01*
X117968010Y-71971858D01*
X117967300Y-71957400D01*
X117967300Y-71662400D01*
X117968010Y-71647942D01*
X117970134Y-71633624D01*
X117973651Y-71619583D01*
X117978528Y-71605954D01*
X117984717Y-71592869D01*
X117992158Y-71580453D01*
X118000781Y-71568827D01*
X118010502Y-71558102D01*
X118021227Y-71548381D01*
X118032853Y-71539758D01*
X118045269Y-71532317D01*
X118058354Y-71526128D01*
X118071983Y-71521251D01*
X118086024Y-71517734D01*
X118100342Y-71515610D01*
X118114800Y-71514900D01*
X118459800Y-71514900D01*
X118474258Y-71515610D01*
X118474258Y-71515610D01*
G37*
D18*
X118287300Y-71809900D03*
D15*
X115023900Y-77779200D03*
X115023900Y-78329200D03*
X119291100Y-76674300D03*
X119291100Y-77224300D03*
D16*
X118024600Y-77325600D03*
X118574600Y-77325600D03*
X110346400Y-77558900D03*
X110896400Y-77558900D03*
D19*
X113020000Y-76965000D03*
X113520000Y-76965000D03*
X114020000Y-76965000D03*
X114520000Y-76965000D03*
X115020000Y-76965000D03*
X115520000Y-76965000D03*
X116020000Y-76965000D03*
X116520000Y-76965000D03*
D20*
X117105000Y-76380000D03*
X117105000Y-75880000D03*
X117105000Y-75380000D03*
X117105000Y-74880000D03*
X117105000Y-74380000D03*
X117105000Y-73880000D03*
X117105000Y-73380000D03*
X117105000Y-72880000D03*
D19*
X116520000Y-72295000D03*
X116020000Y-72295000D03*
X115520000Y-72295000D03*
X115020000Y-72295000D03*
X114520000Y-72295000D03*
X114020000Y-72295000D03*
X113520000Y-72295000D03*
X113020000Y-72295000D03*
D20*
X112435000Y-72880000D03*
X112435000Y-73380000D03*
X112435000Y-73880000D03*
X112435000Y-74380000D03*
X112435000Y-74880000D03*
X112435000Y-75380000D03*
X112435000Y-75880000D03*
X112435000Y-76380000D03*
D21*
X114770000Y-74630000D03*
D16*
X118579600Y-78015600D03*
X118029600Y-78015600D03*
D17*
G36*
X118476958Y-74615710D02*
G01*
X118491276Y-74617834D01*
X118505317Y-74621351D01*
X118518946Y-74626228D01*
X118532031Y-74632417D01*
X118544447Y-74639858D01*
X118556073Y-74648481D01*
X118566798Y-74658202D01*
X118576519Y-74668927D01*
X118585142Y-74680553D01*
X118592583Y-74692969D01*
X118598772Y-74706054D01*
X118603649Y-74719683D01*
X118607166Y-74733724D01*
X118609290Y-74748042D01*
X118610000Y-74762500D01*
X118610000Y-75057500D01*
X118609290Y-75071958D01*
X118607166Y-75086276D01*
X118603649Y-75100317D01*
X118598772Y-75113946D01*
X118592583Y-75127031D01*
X118585142Y-75139447D01*
X118576519Y-75151073D01*
X118566798Y-75161798D01*
X118556073Y-75171519D01*
X118544447Y-75180142D01*
X118532031Y-75187583D01*
X118518946Y-75193772D01*
X118505317Y-75198649D01*
X118491276Y-75202166D01*
X118476958Y-75204290D01*
X118462500Y-75205000D01*
X118117500Y-75205000D01*
X118103042Y-75204290D01*
X118088724Y-75202166D01*
X118074683Y-75198649D01*
X118061054Y-75193772D01*
X118047969Y-75187583D01*
X118035553Y-75180142D01*
X118023927Y-75171519D01*
X118013202Y-75161798D01*
X118003481Y-75151073D01*
X117994858Y-75139447D01*
X117987417Y-75127031D01*
X117981228Y-75113946D01*
X117976351Y-75100317D01*
X117972834Y-75086276D01*
X117970710Y-75071958D01*
X117970000Y-75057500D01*
X117970000Y-74762500D01*
X117970710Y-74748042D01*
X117972834Y-74733724D01*
X117976351Y-74719683D01*
X117981228Y-74706054D01*
X117987417Y-74692969D01*
X117994858Y-74680553D01*
X118003481Y-74668927D01*
X118013202Y-74658202D01*
X118023927Y-74648481D01*
X118035553Y-74639858D01*
X118047969Y-74632417D01*
X118061054Y-74626228D01*
X118074683Y-74621351D01*
X118088724Y-74617834D01*
X118103042Y-74615710D01*
X118117500Y-74615000D01*
X118462500Y-74615000D01*
X118476958Y-74615710D01*
X118476958Y-74615710D01*
G37*
D18*
X118290000Y-74910000D03*
D17*
G36*
X118476958Y-75585710D02*
G01*
X118491276Y-75587834D01*
X118505317Y-75591351D01*
X118518946Y-75596228D01*
X118532031Y-75602417D01*
X118544447Y-75609858D01*
X118556073Y-75618481D01*
X118566798Y-75628202D01*
X118576519Y-75638927D01*
X118585142Y-75650553D01*
X118592583Y-75662969D01*
X118598772Y-75676054D01*
X118603649Y-75689683D01*
X118607166Y-75703724D01*
X118609290Y-75718042D01*
X118610000Y-75732500D01*
X118610000Y-76027500D01*
X118609290Y-76041958D01*
X118607166Y-76056276D01*
X118603649Y-76070317D01*
X118598772Y-76083946D01*
X118592583Y-76097031D01*
X118585142Y-76109447D01*
X118576519Y-76121073D01*
X118566798Y-76131798D01*
X118556073Y-76141519D01*
X118544447Y-76150142D01*
X118532031Y-76157583D01*
X118518946Y-76163772D01*
X118505317Y-76168649D01*
X118491276Y-76172166D01*
X118476958Y-76174290D01*
X118462500Y-76175000D01*
X118117500Y-76175000D01*
X118103042Y-76174290D01*
X118088724Y-76172166D01*
X118074683Y-76168649D01*
X118061054Y-76163772D01*
X118047969Y-76157583D01*
X118035553Y-76150142D01*
X118023927Y-76141519D01*
X118013202Y-76131798D01*
X118003481Y-76121073D01*
X117994858Y-76109447D01*
X117987417Y-76097031D01*
X117981228Y-76083946D01*
X117976351Y-76070317D01*
X117972834Y-76056276D01*
X117970710Y-76041958D01*
X117970000Y-76027500D01*
X117970000Y-75732500D01*
X117970710Y-75718042D01*
X117972834Y-75703724D01*
X117976351Y-75689683D01*
X117981228Y-75676054D01*
X117987417Y-75662969D01*
X117994858Y-75650553D01*
X118003481Y-75638927D01*
X118013202Y-75628202D01*
X118023927Y-75618481D01*
X118035553Y-75609858D01*
X118047969Y-75602417D01*
X118061054Y-75596228D01*
X118074683Y-75591351D01*
X118088724Y-75587834D01*
X118103042Y-75585710D01*
X118117500Y-75585000D01*
X118462500Y-75585000D01*
X118476958Y-75585710D01*
X118476958Y-75585710D01*
G37*
D18*
X118290000Y-75880000D03*
D16*
X110342000Y-74409300D03*
X110892000Y-74409300D03*
D15*
X120107300Y-71254900D03*
X120107300Y-71804900D03*
D16*
X110342000Y-75184000D03*
X110892000Y-75184000D03*
X110354700Y-78359000D03*
X110904700Y-78359000D03*
D15*
X120904000Y-75319800D03*
X120904000Y-75869800D03*
D16*
X110342000Y-76758800D03*
X110892000Y-76758800D03*
X110342000Y-75971400D03*
X110892000Y-75971400D03*
D15*
X120917300Y-71254900D03*
X120917300Y-71804900D03*
X120103900Y-75315400D03*
X120103900Y-75865400D03*
D22*
X119287300Y-70919900D03*
X119287300Y-71809900D03*
X119310000Y-74985000D03*
X119310000Y-75875000D03*
X112077500Y-79375500D03*
X112077500Y-78485500D03*
D15*
X120103900Y-77219900D03*
X120103900Y-76669900D03*
D16*
X119016100Y-73444100D03*
X119566100Y-73444100D03*
X119016100Y-72809100D03*
X119566100Y-72809100D03*
D23*
X130481440Y-64167840D03*
X130481440Y-66367840D03*
X128781440Y-66367840D03*
X128781440Y-64167840D03*
D24*
X115703800Y-55683600D03*
X116503800Y-55683600D03*
X117303800Y-55683600D03*
X118103800Y-55683600D03*
X118903800Y-55683600D03*
X119703800Y-55683600D03*
X120503800Y-55683600D03*
X121303800Y-55683600D03*
X122103800Y-55683600D03*
X122903800Y-55683600D03*
X115703800Y-56483600D03*
X116503800Y-56483600D03*
X117303800Y-56483600D03*
X118103800Y-56483600D03*
X118903800Y-56483600D03*
X119703800Y-56483600D03*
X120503800Y-56483600D03*
X121303800Y-56483600D03*
X122103800Y-56483600D03*
X122903800Y-56483600D03*
X115703800Y-57283600D03*
X116503800Y-57283600D03*
X117303800Y-57283600D03*
X118103800Y-57283600D03*
X118903800Y-57283600D03*
X119703800Y-57283600D03*
X120503800Y-57283600D03*
X121303800Y-57283600D03*
X122103800Y-57283600D03*
X122903800Y-57283600D03*
X115703800Y-58083600D03*
X116503800Y-58083600D03*
X117303800Y-58083600D03*
X118103800Y-58083600D03*
X118903800Y-58083600D03*
X119703800Y-58083600D03*
X120503800Y-58083600D03*
X121303800Y-58083600D03*
X122103800Y-58083600D03*
X122903800Y-58083600D03*
X115703800Y-58883600D03*
X116503800Y-58883600D03*
X117303800Y-58883600D03*
X118103800Y-58883600D03*
X118903800Y-58883600D03*
X119703800Y-58883600D03*
X120503800Y-58883600D03*
X121303800Y-58883600D03*
X122103800Y-58883600D03*
X122903800Y-58883600D03*
X115703800Y-59683600D03*
X116503800Y-59683600D03*
X117303800Y-59683600D03*
X118103800Y-59683600D03*
X118903800Y-59683600D03*
X119703800Y-59683600D03*
X120503800Y-59683600D03*
X121303800Y-59683600D03*
X122103800Y-59683600D03*
X122903800Y-59683600D03*
X115703800Y-60483600D03*
X116503800Y-60483600D03*
X117303800Y-60483600D03*
X118103800Y-60483600D03*
X118903800Y-60483600D03*
X119703800Y-60483600D03*
X120503800Y-60483600D03*
X121303800Y-60483600D03*
X122103800Y-60483600D03*
X122903800Y-60483600D03*
X115703800Y-61283600D03*
X116503800Y-61283600D03*
X117303800Y-61283600D03*
X118103800Y-61283600D03*
X118903800Y-61283600D03*
X119703800Y-61283600D03*
X120503800Y-61283600D03*
X121303800Y-61283600D03*
X122103800Y-61283600D03*
X122903800Y-61283600D03*
X115703800Y-62083600D03*
X116503800Y-62083600D03*
X117303800Y-62083600D03*
X118103800Y-62083600D03*
X118903800Y-62083600D03*
X119703800Y-62083600D03*
X120503800Y-62083600D03*
X121303800Y-62083600D03*
X122103800Y-62083600D03*
X122903800Y-62083600D03*
X115703800Y-62883600D03*
X116503800Y-62883600D03*
X117303800Y-62883600D03*
X118103800Y-62883600D03*
X118903800Y-62883600D03*
X119703800Y-62883600D03*
X120503800Y-62883600D03*
X121303800Y-62883600D03*
X122103800Y-62883600D03*
X122903800Y-62883600D03*
D25*
X130317200Y-74692460D03*
X130817200Y-74692460D03*
X131317200Y-74692460D03*
X131317200Y-75752460D03*
X130817200Y-75752460D03*
D26*
X130317200Y-75712460D03*
D27*
X105338200Y-71988680D03*
X106248200Y-71988680D03*
X105272500Y-67830700D03*
X106182500Y-67830700D03*
X129732700Y-58930540D03*
X130642700Y-58930540D03*
D15*
X125120400Y-77070040D03*
X125120400Y-76520040D03*
D13*
X118846600Y-64938600D03*
X118846600Y-66268600D03*
D28*
X127533400Y-76521580D03*
X127533400Y-79571580D03*
D17*
G36*
X127707658Y-81224610D02*
G01*
X127721976Y-81226734D01*
X127736017Y-81230251D01*
X127749646Y-81235128D01*
X127762731Y-81241317D01*
X127775147Y-81248758D01*
X127786773Y-81257381D01*
X127797498Y-81267102D01*
X127807219Y-81277827D01*
X127815842Y-81289453D01*
X127823283Y-81301869D01*
X127829472Y-81314954D01*
X127834349Y-81328583D01*
X127837866Y-81342624D01*
X127839990Y-81356942D01*
X127840700Y-81371400D01*
X127840700Y-81666400D01*
X127839990Y-81680858D01*
X127837866Y-81695176D01*
X127834349Y-81709217D01*
X127829472Y-81722846D01*
X127823283Y-81735931D01*
X127815842Y-81748347D01*
X127807219Y-81759973D01*
X127797498Y-81770698D01*
X127786773Y-81780419D01*
X127775147Y-81789042D01*
X127762731Y-81796483D01*
X127749646Y-81802672D01*
X127736017Y-81807549D01*
X127721976Y-81811066D01*
X127707658Y-81813190D01*
X127693200Y-81813900D01*
X127348200Y-81813900D01*
X127333742Y-81813190D01*
X127319424Y-81811066D01*
X127305383Y-81807549D01*
X127291754Y-81802672D01*
X127278669Y-81796483D01*
X127266253Y-81789042D01*
X127254627Y-81780419D01*
X127243902Y-81770698D01*
X127234181Y-81759973D01*
X127225558Y-81748347D01*
X127218117Y-81735931D01*
X127211928Y-81722846D01*
X127207051Y-81709217D01*
X127203534Y-81695176D01*
X127201410Y-81680858D01*
X127200700Y-81666400D01*
X127200700Y-81371400D01*
X127201410Y-81356942D01*
X127203534Y-81342624D01*
X127207051Y-81328583D01*
X127211928Y-81314954D01*
X127218117Y-81301869D01*
X127225558Y-81289453D01*
X127234181Y-81277827D01*
X127243902Y-81267102D01*
X127254627Y-81257381D01*
X127266253Y-81248758D01*
X127278669Y-81241317D01*
X127291754Y-81235128D01*
X127305383Y-81230251D01*
X127319424Y-81226734D01*
X127333742Y-81224610D01*
X127348200Y-81223900D01*
X127693200Y-81223900D01*
X127707658Y-81224610D01*
X127707658Y-81224610D01*
G37*
D18*
X127520700Y-81518900D03*
D17*
G36*
X127707658Y-82194610D02*
G01*
X127721976Y-82196734D01*
X127736017Y-82200251D01*
X127749646Y-82205128D01*
X127762731Y-82211317D01*
X127775147Y-82218758D01*
X127786773Y-82227381D01*
X127797498Y-82237102D01*
X127807219Y-82247827D01*
X127815842Y-82259453D01*
X127823283Y-82271869D01*
X127829472Y-82284954D01*
X127834349Y-82298583D01*
X127837866Y-82312624D01*
X127839990Y-82326942D01*
X127840700Y-82341400D01*
X127840700Y-82636400D01*
X127839990Y-82650858D01*
X127837866Y-82665176D01*
X127834349Y-82679217D01*
X127829472Y-82692846D01*
X127823283Y-82705931D01*
X127815842Y-82718347D01*
X127807219Y-82729973D01*
X127797498Y-82740698D01*
X127786773Y-82750419D01*
X127775147Y-82759042D01*
X127762731Y-82766483D01*
X127749646Y-82772672D01*
X127736017Y-82777549D01*
X127721976Y-82781066D01*
X127707658Y-82783190D01*
X127693200Y-82783900D01*
X127348200Y-82783900D01*
X127333742Y-82783190D01*
X127319424Y-82781066D01*
X127305383Y-82777549D01*
X127291754Y-82772672D01*
X127278669Y-82766483D01*
X127266253Y-82759042D01*
X127254627Y-82750419D01*
X127243902Y-82740698D01*
X127234181Y-82729973D01*
X127225558Y-82718347D01*
X127218117Y-82705931D01*
X127211928Y-82692846D01*
X127207051Y-82679217D01*
X127203534Y-82665176D01*
X127201410Y-82650858D01*
X127200700Y-82636400D01*
X127200700Y-82341400D01*
X127201410Y-82326942D01*
X127203534Y-82312624D01*
X127207051Y-82298583D01*
X127211928Y-82284954D01*
X127218117Y-82271869D01*
X127225558Y-82259453D01*
X127234181Y-82247827D01*
X127243902Y-82237102D01*
X127254627Y-82227381D01*
X127266253Y-82218758D01*
X127278669Y-82211317D01*
X127291754Y-82205128D01*
X127305383Y-82200251D01*
X127319424Y-82196734D01*
X127333742Y-82194610D01*
X127348200Y-82193900D01*
X127693200Y-82193900D01*
X127707658Y-82194610D01*
X127707658Y-82194610D01*
G37*
D18*
X127520700Y-82488900D03*
D11*
X109194600Y-55118000D03*
D29*
X129591600Y-82493600D03*
X132541600Y-82493600D03*
D30*
X131066600Y-80993600D03*
D31*
X130935460Y-60142880D03*
X129475460Y-60142880D03*
D32*
X111971540Y-64427100D03*
X113331540Y-64427100D03*
X111967180Y-58582560D03*
X113327180Y-58582560D03*
D33*
X126682080Y-61495940D03*
X125042080Y-61495940D03*
D32*
X111972260Y-56822340D03*
X113332260Y-56822340D03*
X111981700Y-55102760D03*
X113341700Y-55102760D03*
D14*
X120142000Y-66268600D03*
X120142000Y-64908600D03*
D32*
X126366820Y-55971440D03*
X125006820Y-55971440D03*
X111974080Y-60683140D03*
X113334080Y-60683140D03*
X126366820Y-57670700D03*
X125006820Y-57670700D03*
X111971540Y-62567820D03*
X113331540Y-62567820D03*
D34*
X126131820Y-59151520D03*
X125241820Y-59151520D03*
X129484620Y-62227460D03*
X128594620Y-62227460D03*
D22*
X132290820Y-65464960D03*
X132290820Y-66354960D03*
D15*
X130276600Y-72661100D03*
X130276600Y-73211100D03*
X130937000Y-72665500D03*
X130937000Y-73215500D03*
X132539740Y-74957260D03*
X132539740Y-75507260D03*
D22*
X126646940Y-73788540D03*
X126646940Y-74678540D03*
X128391920Y-73786000D03*
X128391920Y-74676000D03*
D35*
X134955280Y-55298340D03*
X133685280Y-55298340D03*
X132415280Y-55298340D03*
X131145280Y-55298340D03*
D10*
X129875280Y-55298340D03*
D12*
X103093100Y-57513900D03*
X103035100Y-67823900D03*
X103043100Y-71973900D03*
X103093100Y-61713900D03*
D36*
X117205760Y-51635660D03*
X110909100Y-56822340D03*
X110970060Y-62565280D03*
X130558540Y-72006460D03*
X127492760Y-73784460D03*
X131977180Y-74692460D03*
X132405120Y-80307180D03*
X130479800Y-62217300D03*
X131457700Y-65275460D03*
X128991360Y-58930540D03*
X126682500Y-62638940D03*
X118498620Y-59291220D03*
X120903800Y-60883600D03*
X127368300Y-57658000D03*
X116340000Y-77890000D03*
X118284600Y-78755600D03*
X121557300Y-71249900D03*
X121640600Y-75311000D03*
X121043700Y-76936600D03*
X121640600Y-73431400D03*
X109664500Y-75184000D03*
X109639100Y-77558900D03*
X111175800Y-79375000D03*
X120980200Y-67144900D03*
X116497100Y-64058800D03*
X120103850Y-59283650D03*
X114206020Y-62567820D03*
X130959860Y-73855580D03*
X122501660Y-60888880D03*
X120098820Y-61681360D03*
X123780000Y-57550000D03*
X121043700Y-77711300D03*
X111620300Y-77558900D03*
X111569500Y-74396600D03*
X111582200Y-76403200D03*
X121081800Y-74409300D03*
X111988600Y-71920100D03*
X107111800Y-71996300D03*
X106095800Y-68592700D03*
X117703600Y-57683400D03*
X122504200Y-58483500D03*
X119319040Y-60065920D03*
X119689880Y-69949060D03*
X130317240Y-73855580D03*
X115735100Y-78625700D03*
X115277900Y-79565500D03*
X117710000Y-60880000D03*
X118290000Y-63780000D03*
X114239040Y-56822340D03*
X125036580Y-62661800D03*
X118506240Y-60883800D03*
X121701560Y-61681360D03*
X119300000Y-58480110D03*
X117319900Y-66268600D03*
X124307600Y-66268600D03*
X106908600Y-58089800D03*
X116903500Y-57683400D03*
X116903504Y-60883800D03*
X105270300Y-60858400D03*
X122500000Y-56890000D03*
X116900002Y-78880000D03*
X116900000Y-62470000D03*
X117710000Y-79490000D03*
X117710000Y-61690000D03*
X120110000Y-56890000D03*
X120510000Y-80750000D03*
X118740000Y-81510000D03*
X119310000Y-57689890D03*
X125745240Y-76527660D03*
X127502920Y-74676000D03*
X130561080Y-76560680D03*
X131966200Y-75752460D03*
X123840000Y-67570000D03*
X123840000Y-59290000D03*
X120904000Y-57683400D03*
X122110500Y-79984600D03*
X115006120Y-54823360D03*
X115026440Y-57691020D03*
X121592340Y-51765200D03*
X122699780Y-51798220D03*
X120500000Y-54300000D03*
X110230000Y-54950000D03*
X110230000Y-56100000D03*
X119310000Y-56090000D03*
X113020000Y-65760000D03*
X116100000Y-56880000D03*
X114220000Y-58710000D03*
X116900000Y-58480000D03*
X117310000Y-64720000D03*
X117700000Y-60080000D03*
X115520000Y-67640000D03*
X114750000Y-59680000D03*
X116611400Y-53632100D03*
X118506240Y-54670960D03*
X120497600Y-51694080D03*
D37*
X111972260Y-56822340D02*
X110909100Y-56822340D01*
X110909100Y-57524480D02*
X110909100Y-56822340D01*
X111967180Y-58582560D02*
X110909100Y-57524480D01*
X110909100Y-56504142D02*
X110909100Y-56822340D01*
X111981700Y-55102760D02*
X110909100Y-56175360D01*
X110909100Y-56175360D02*
X110909100Y-56504142D01*
X111971540Y-62567820D02*
X110972600Y-62567820D01*
X110972600Y-62567820D02*
X110970060Y-62565280D01*
X110970060Y-63425620D02*
X110970060Y-62565280D01*
X111971540Y-64427100D02*
X110970060Y-63425620D01*
X110970060Y-61687160D02*
X111974080Y-60683140D01*
X110970060Y-62565280D02*
X110970060Y-61687160D01*
X130276600Y-72661100D02*
X130276600Y-72288400D01*
X130276600Y-72288400D02*
X130558540Y-72006460D01*
X130937000Y-72384920D02*
X130558540Y-72006460D01*
X130937000Y-72665500D02*
X130937000Y-72384920D01*
X131071620Y-80988580D02*
X131066600Y-80993600D01*
X131071620Y-78287880D02*
X131071620Y-80988580D01*
X126646940Y-73788540D02*
X127488680Y-73788540D01*
X127488680Y-73788540D02*
X127492760Y-73784460D01*
X127494300Y-73786000D02*
X127492760Y-73784460D01*
X128391920Y-73786000D02*
X127494300Y-73786000D01*
X132274940Y-74692460D02*
X132539740Y-74957260D01*
X131317200Y-74692460D02*
X131977180Y-74692460D01*
X131977180Y-74692460D02*
X132274940Y-74692460D01*
X132405120Y-80307480D02*
X132405120Y-80307180D01*
X131066600Y-80993600D02*
X131719000Y-80993600D01*
X131719000Y-80993600D02*
X132405120Y-80307480D01*
X129484620Y-62227460D02*
X130469640Y-62227460D01*
X130469640Y-62227460D02*
X130479800Y-62217300D01*
X130479800Y-64166200D02*
X130481440Y-64167840D01*
X130479800Y-62217300D02*
X130479800Y-64166200D01*
X129773820Y-65275460D02*
X131457700Y-65275460D01*
X128781440Y-66367840D02*
X128781440Y-66267840D01*
X128781440Y-66267840D02*
X129773820Y-65275460D01*
X132101320Y-65275460D02*
X131457700Y-65275460D01*
X132290820Y-65464960D02*
X132101320Y-65275460D01*
X129732700Y-58930540D02*
X128991360Y-58930540D01*
X126682080Y-61495940D02*
X126682080Y-62638520D01*
X126682080Y-62638520D02*
X126682500Y-62638940D01*
X120503800Y-58883600D02*
X120503800Y-58883700D01*
X118103800Y-59683600D02*
X118106240Y-59683600D01*
X118106240Y-59683600D02*
X118498620Y-59291220D01*
X118903800Y-58886040D02*
X118498620Y-59291220D01*
X118903800Y-58883600D02*
X118903800Y-58886040D01*
X120503800Y-60483600D02*
X120903800Y-60883600D01*
X120503800Y-61283600D02*
X120903800Y-60883600D01*
X120903800Y-60883600D02*
X121303800Y-60483600D01*
X126366820Y-57670700D02*
X127207900Y-57670700D01*
X127207900Y-57670700D02*
X127365900Y-57512700D01*
X127365900Y-57830898D02*
X127365900Y-57512700D01*
X127365900Y-58172700D02*
X127365900Y-57830898D01*
X126131820Y-59151520D02*
X126387080Y-59151520D01*
X126387080Y-59151520D02*
X127365900Y-58172700D01*
X127365900Y-57194502D02*
X127365900Y-57512700D01*
X126366820Y-55971440D02*
X127365900Y-56970520D01*
X127365900Y-56970520D02*
X127365900Y-57194502D01*
X115520000Y-76965000D02*
X116020000Y-76965000D01*
X116340000Y-77880000D02*
X116340000Y-77890000D01*
X116020000Y-76965000D02*
X116020000Y-77560000D01*
X116020000Y-77560000D02*
X116340000Y-77880000D01*
X118579600Y-78015600D02*
X118579600Y-78460600D01*
X118579600Y-78460600D02*
X118284600Y-78755600D01*
X120917300Y-71254900D02*
X121552300Y-71254900D01*
X121552300Y-71254900D02*
X121557300Y-71249900D01*
X120107300Y-71254900D02*
X120917300Y-71254900D01*
X119622300Y-71254900D02*
X120107300Y-71254900D01*
X119287300Y-70919900D02*
X119622300Y-71254900D01*
X120899600Y-75315400D02*
X120904000Y-75319800D01*
X120103900Y-75315400D02*
X120899600Y-75315400D01*
X119640400Y-75315400D02*
X120103900Y-75315400D01*
X119310000Y-74985000D02*
X119640400Y-75315400D01*
X120904000Y-75319800D02*
X121631800Y-75319800D01*
X121631800Y-75319800D02*
X121640600Y-75311000D01*
X120103900Y-77219900D02*
X120760400Y-77219900D01*
X120760400Y-77219900D02*
X121043700Y-76936600D01*
X120895200Y-73444100D02*
X121627900Y-73444100D01*
X121627900Y-73444100D02*
X121640600Y-73431400D01*
X110342000Y-75184000D02*
X109664500Y-75184000D01*
X110346400Y-77558900D02*
X109639100Y-77558900D01*
X109664500Y-74853800D02*
X109664500Y-75184000D01*
X110342000Y-74409300D02*
X110109000Y-74409300D01*
X110109000Y-74409300D02*
X109664500Y-74853800D01*
X109664500Y-75514200D02*
X109664500Y-75184000D01*
X110342000Y-75971400D02*
X110121700Y-75971400D01*
X110121700Y-75971400D02*
X109664500Y-75514200D01*
X110096300Y-76758800D02*
X110342000Y-76758800D01*
X109639100Y-77558900D02*
X109639100Y-77216000D01*
X109639100Y-77216000D02*
X110096300Y-76758800D01*
X109639100Y-77901800D02*
X109639100Y-77558900D01*
X110354700Y-78359000D02*
X110096300Y-78359000D01*
X110096300Y-78359000D02*
X109639100Y-77901800D01*
X112077500Y-79375500D02*
X111176300Y-79375500D01*
X111176300Y-79375500D02*
X111175800Y-79375000D01*
X115520000Y-75380000D02*
X115520000Y-76965000D01*
X114770000Y-74630000D02*
X115520000Y-75380000D01*
X120675400Y-67144900D02*
X120980200Y-67144900D01*
X120142000Y-66268600D02*
X120142000Y-66611500D01*
X120142000Y-66611500D02*
X120675400Y-67144900D01*
X121335800Y-67144900D02*
X120980200Y-67144900D01*
X121597420Y-66267880D02*
X121597420Y-66883280D01*
X121597420Y-66883280D02*
X121335800Y-67144900D01*
X117303800Y-62883600D02*
X117303800Y-63252100D01*
X117303800Y-63252100D02*
X116497100Y-64058800D01*
X120103850Y-59283650D02*
X120503800Y-59683600D01*
X119703800Y-58883600D02*
X120103850Y-59283650D01*
X120503800Y-58883700D02*
X120103850Y-59283650D01*
X120345200Y-73444100D02*
X119566100Y-73444100D01*
X113331540Y-62567820D02*
X114206020Y-62567820D01*
X114206020Y-63552620D02*
X114206020Y-62567820D01*
X113331540Y-64427100D02*
X114206020Y-63552620D01*
X114206020Y-61555080D02*
X113334080Y-60683140D01*
X114206020Y-62567820D02*
X114206020Y-61555080D01*
X130817200Y-74692460D02*
X130817200Y-73998240D01*
X130817200Y-73998240D02*
X130959860Y-73855580D01*
X130959860Y-73238360D02*
X130937000Y-73215500D01*
X130959860Y-73855580D02*
X130959860Y-73238360D01*
X122103800Y-61283600D02*
X122106940Y-61283600D01*
X122106940Y-61283600D02*
X122501660Y-60888880D01*
X119703800Y-61283600D02*
X119703800Y-61286340D01*
X119703800Y-61286340D02*
X120098820Y-61681360D01*
X123888000Y-57658000D02*
X123780000Y-57550000D01*
X124790920Y-57658000D02*
X123888000Y-57658000D01*
X123780000Y-57231802D02*
X123780000Y-57550000D01*
X123780000Y-56969660D02*
X123780000Y-57231802D01*
X125241820Y-59151520D02*
X124974720Y-59151520D01*
X118675900Y-77224300D02*
X119291100Y-77224300D01*
X118574600Y-77325600D02*
X118675900Y-77224300D01*
X119793100Y-77711300D02*
X121043700Y-77711300D01*
X119291100Y-77224300D02*
X119306100Y-77224300D01*
X119306100Y-77224300D02*
X119793100Y-77711300D01*
X110896400Y-77558900D02*
X111620300Y-77558900D01*
X112077500Y-78016100D02*
X111620300Y-77558900D01*
X112077500Y-78485500D02*
X112077500Y-78016100D01*
X111620300Y-77643400D02*
X111620300Y-77558900D01*
X110904700Y-78359000D02*
X111620300Y-77643400D01*
X111620300Y-77487100D02*
X111620300Y-77558900D01*
X110892000Y-74409300D02*
X111556800Y-74409300D01*
X111556800Y-74409300D02*
X111569500Y-74396600D01*
X111586100Y-74380000D02*
X111569500Y-74396600D01*
X112435000Y-74380000D02*
X111586100Y-74380000D01*
X111569500Y-74764900D02*
X111569500Y-74396600D01*
X110892000Y-75184000D02*
X111150400Y-75184000D01*
X111150400Y-75184000D02*
X111569500Y-74764900D01*
X111582200Y-76225400D02*
X111582200Y-76403200D01*
X110892000Y-75971400D02*
X111328200Y-75971400D01*
X111328200Y-75971400D02*
X111582200Y-76225400D01*
X111582200Y-76479400D02*
X111582200Y-76403200D01*
X110892000Y-76758800D02*
X111302800Y-76758800D01*
X111302800Y-76758800D02*
X111582200Y-76479400D01*
X117820000Y-75380000D02*
X117105000Y-75380000D01*
X118290000Y-74910000D02*
X117820000Y-75380000D01*
X121069100Y-74396600D02*
X121081800Y-74409300D01*
X118290000Y-74910000D02*
X118803400Y-74396600D01*
X118803400Y-74396600D02*
X121069100Y-74396600D01*
X112435000Y-72880000D02*
X112435000Y-72366500D01*
X112435000Y-72366500D02*
X111988600Y-71920100D01*
X118103800Y-58083600D02*
X117703600Y-57683400D01*
X107104180Y-71988680D02*
X107111800Y-71996300D01*
X106248200Y-71988680D02*
X107104180Y-71988680D01*
X106182500Y-68506000D02*
X106095800Y-68592700D01*
X106182500Y-67830700D02*
X106182500Y-68506000D01*
X123780000Y-58160000D02*
X123780000Y-57550000D01*
X125241820Y-59151520D02*
X124771520Y-59151520D01*
X124771520Y-59151520D02*
X123780000Y-58160000D01*
X123900700Y-57670700D02*
X123780000Y-57550000D01*
X125006820Y-57670700D02*
X123900700Y-57670700D01*
X124778220Y-55971440D02*
X124467980Y-56281680D01*
X125006820Y-55971440D02*
X124778220Y-55971440D01*
X124790920Y-55958740D02*
X124467980Y-56281680D01*
X124467980Y-56281680D02*
X123780000Y-56969660D01*
X121303800Y-58883600D02*
X121703900Y-58483500D01*
X121703900Y-58483500D02*
X122504200Y-58483500D01*
X118903800Y-59683600D02*
X118936720Y-59683600D01*
X118936720Y-59683600D02*
X119319040Y-60065920D01*
X119701360Y-59683600D02*
X119319040Y-60065920D01*
X119703800Y-59683600D02*
X119701360Y-59683600D01*
X118892320Y-69949060D02*
X119689880Y-69949060D01*
X118287300Y-70839900D02*
X118287300Y-70554080D01*
X118287300Y-70554080D02*
X118892320Y-69949060D01*
X130317200Y-74692460D02*
X130317200Y-73855620D01*
X130317200Y-73855620D02*
X130317240Y-73855580D01*
X130317240Y-73251740D02*
X130276600Y-73211100D01*
X130317240Y-73855580D02*
X130317240Y-73251740D01*
X115023900Y-78329200D02*
X115438600Y-78329200D01*
X115438600Y-78329200D02*
X115735100Y-78625700D01*
X114515900Y-79502000D02*
X115214400Y-79502000D01*
X115214400Y-79502000D02*
X115277900Y-79565500D01*
X130481440Y-66467840D02*
X130481440Y-66367840D01*
X129405600Y-67543680D02*
X130481440Y-66467840D01*
X122103800Y-62883600D02*
X126763880Y-67543680D01*
X126763880Y-67543680D02*
X129405600Y-67543680D01*
X132277940Y-66367840D02*
X132290820Y-66354960D01*
X130481440Y-66367840D02*
X132277940Y-66367840D01*
X128781440Y-64067840D02*
X128781440Y-64167840D01*
X128681440Y-64167840D02*
X128781440Y-64067840D01*
X122903800Y-62883600D02*
X124188040Y-64167840D01*
X124188040Y-64167840D02*
X128681440Y-64167840D01*
X128781440Y-62414280D02*
X128594620Y-62227460D01*
X128781440Y-64167840D02*
X128781440Y-62414280D01*
X122796060Y-64907880D02*
X122806460Y-64897480D01*
X121597420Y-64907880D02*
X122796060Y-64907880D01*
X121697900Y-64807400D02*
X121597420Y-64907880D01*
X121303800Y-62083600D02*
X121697900Y-62477700D01*
X121697900Y-62477700D02*
X121697900Y-64807400D01*
X118103800Y-60483600D02*
X118103800Y-60486200D01*
X118103800Y-60486200D02*
X117710000Y-60880000D01*
X120157000Y-64862400D02*
X120157240Y-64862160D01*
X118290000Y-64382000D02*
X118846600Y-64938600D01*
X118290000Y-63780000D02*
X118290000Y-64382000D01*
X120112000Y-64938600D02*
X120142000Y-64908600D01*
X118846600Y-64938600D02*
X120112000Y-64938600D01*
X113332260Y-56822340D02*
X114239040Y-56822340D01*
X114239040Y-57670700D02*
X114239040Y-56822340D01*
X113327180Y-58582560D02*
X114239040Y-57670700D01*
X114239040Y-56504142D02*
X114239040Y-56822340D01*
X113341700Y-55102760D02*
X114239040Y-56000100D01*
X114239040Y-56000100D02*
X114239040Y-56504142D01*
X113341700Y-55072760D02*
X113341700Y-55102760D01*
X112370940Y-54102000D02*
X113341700Y-55072760D01*
X109194600Y-55118000D02*
X110210600Y-54102000D01*
X110210600Y-54102000D02*
X112370940Y-54102000D01*
X125042080Y-61495940D02*
X125042080Y-62656300D01*
X125042080Y-62656300D02*
X125036580Y-62661800D01*
X118903800Y-60483600D02*
X118903800Y-60486240D01*
X118903800Y-60486240D02*
X118506240Y-60883800D01*
X118903800Y-61281360D02*
X118506240Y-60883800D01*
X118903800Y-61283600D02*
X118903800Y-61281360D01*
X121303800Y-61283600D02*
X121701560Y-61681360D01*
X118903800Y-58083600D02*
X119300000Y-58479800D01*
X119300000Y-58479800D02*
X119300000Y-58480110D01*
X118846600Y-66268600D02*
X117319900Y-66268600D01*
X122897900Y-66268600D02*
X124307600Y-66268600D01*
X130935460Y-59223300D02*
X130642700Y-58930540D01*
X130935460Y-60142880D02*
X130935460Y-59223300D01*
X129415053Y-60082473D02*
X129475460Y-60142880D01*
X122103800Y-60483600D02*
X122504927Y-60082473D01*
X122504927Y-60082473D02*
X129415053Y-60082473D01*
X103057880Y-71988680D02*
X103043100Y-71973900D01*
X105170900Y-71988680D02*
X105170900Y-71953680D01*
X116903600Y-57683400D02*
X117303800Y-58083600D01*
X116903500Y-57683400D02*
X116903600Y-57683400D01*
X104940800Y-71988680D02*
X104729280Y-71988680D01*
X105338200Y-71988680D02*
X104940800Y-71988680D01*
X105170900Y-71988680D02*
X104729280Y-71988680D01*
X104729280Y-71988680D02*
X103057880Y-71988680D01*
X106908600Y-70383280D02*
X106908600Y-70116700D01*
X105338200Y-71953680D02*
X106908600Y-70383280D01*
X105338200Y-71988680D02*
X105338200Y-71953680D01*
X106908600Y-70215980D02*
X106908600Y-70116700D01*
X106908600Y-70116700D02*
X106908600Y-58089800D01*
X103041900Y-67830700D02*
X103035100Y-67823900D01*
X105193760Y-67830700D02*
X105193760Y-67865700D01*
X104875100Y-67830700D02*
X104038400Y-67830700D01*
X105272500Y-67830700D02*
X104875100Y-67830700D01*
X105193760Y-67830700D02*
X104038400Y-67830700D01*
X104038400Y-67830700D02*
X103041900Y-67830700D01*
X116903504Y-60565602D02*
X116903504Y-60883800D01*
X116903504Y-60083304D02*
X116903504Y-60565602D01*
X116503800Y-59683600D02*
X116903504Y-60083304D01*
X105270300Y-61176598D02*
X105270300Y-60858400D01*
X105272500Y-67830700D02*
X105270300Y-67828500D01*
X105270300Y-67828500D02*
X105270300Y-61176598D01*
X122103800Y-57283600D02*
X122106400Y-57283600D01*
X122106400Y-57283600D02*
X122500000Y-56890000D01*
X133185281Y-55798339D02*
X133685280Y-55298340D01*
X132563620Y-56420000D02*
X133185281Y-55798339D01*
X123600000Y-56587400D02*
X123600000Y-55780000D01*
X123600000Y-55780000D02*
X124370000Y-55010000D01*
X122903800Y-57283600D02*
X123600000Y-56587400D01*
X124370000Y-55010000D02*
X127840000Y-55010000D01*
X127840000Y-55010000D02*
X129250000Y-56420000D01*
X129250000Y-56420000D02*
X132563620Y-56420000D01*
X131915281Y-54798341D02*
X132415280Y-55298340D01*
X121303800Y-57021971D02*
X120905085Y-56623256D01*
X121303800Y-57283600D02*
X121303800Y-57021971D01*
X120905085Y-56623256D02*
X120905085Y-55334915D01*
X120905085Y-55334915D02*
X122801310Y-53438690D01*
X122801310Y-53438690D02*
X130555630Y-53438690D01*
X130555630Y-53438690D02*
X131915281Y-54798341D01*
X131145280Y-54985280D02*
X131145280Y-55298340D01*
X130130000Y-53970000D02*
X131145280Y-54985280D01*
X121303800Y-55683600D02*
X123017400Y-53970000D01*
X123017400Y-53970000D02*
X130130000Y-53970000D01*
X129875280Y-54755280D02*
X129875280Y-55298340D01*
X129590000Y-54470000D02*
X129875280Y-54755280D01*
X123350000Y-54470000D02*
X129590000Y-54470000D01*
X122903800Y-55683600D02*
X122903800Y-54916200D01*
X122903800Y-54916200D02*
X123350000Y-54470000D01*
X115020000Y-76965000D02*
X115020000Y-77390000D01*
X116890200Y-62470000D02*
X116503800Y-62083600D01*
X116900000Y-62470000D02*
X116890200Y-62470000D01*
X115023900Y-76968900D02*
X115020000Y-76965000D01*
X115023900Y-77779200D02*
X115023900Y-76968900D01*
X116899702Y-78879700D02*
X116900002Y-78880000D01*
X116598700Y-78879700D02*
X116899702Y-78879700D01*
X115023900Y-77779200D02*
X115498200Y-77779200D01*
X115498200Y-77779200D02*
X116598700Y-78879700D01*
X114520000Y-78299600D02*
X114520000Y-76965000D01*
X114528600Y-78858700D02*
X114520000Y-78850100D01*
X114515900Y-78727300D02*
X114520000Y-78723200D01*
X114515900Y-78952000D02*
X114515900Y-78727300D01*
X114520000Y-78850100D02*
X114520000Y-78723200D01*
X114520000Y-78723200D02*
X114520000Y-78299600D01*
X117710000Y-61690000D02*
X117710000Y-61689800D01*
X117710000Y-61689800D02*
X117303800Y-61283600D01*
X117391802Y-79490000D02*
X117710000Y-79490000D01*
X115989800Y-79490000D02*
X117391802Y-79490000D01*
X114515900Y-78952000D02*
X115451800Y-78952000D01*
X115451800Y-78952000D02*
X115989800Y-79490000D01*
X120110000Y-56877400D02*
X120503800Y-56483600D01*
X120110000Y-56890000D02*
X120110000Y-56877400D01*
X120191802Y-80750000D02*
X120510000Y-80750000D01*
X114087500Y-80750000D02*
X120191802Y-80750000D01*
X113520000Y-76965000D02*
X113520000Y-80182500D01*
X113520000Y-80182500D02*
X114087500Y-80750000D01*
X119703800Y-57283600D02*
X119310000Y-57677400D01*
X119310000Y-57677400D02*
X119310000Y-57689890D01*
X114060100Y-81510000D02*
X118740000Y-81510000D01*
X113020000Y-76965000D02*
X113020000Y-80469900D01*
X113020000Y-80469900D02*
X114060100Y-81510000D01*
X119016100Y-72824100D02*
X119016100Y-72809100D01*
X117460200Y-74380000D02*
X119016100Y-72824100D01*
X117105000Y-74380000D02*
X117460200Y-74380000D01*
X129586900Y-82488900D02*
X129591600Y-82493600D01*
X127520700Y-82488900D02*
X129586900Y-82488900D01*
X129591600Y-82493600D02*
X132541600Y-82493600D01*
X124345700Y-80073500D02*
X126761100Y-82488900D01*
X124345700Y-74498200D02*
X124345700Y-80073500D01*
X119566100Y-72809100D02*
X122656600Y-72809100D01*
X122656600Y-72809100D02*
X124345700Y-74498200D01*
X126761100Y-82488900D02*
X127520700Y-82488900D01*
X119016100Y-73459100D02*
X119016100Y-73444100D01*
X118831600Y-73459100D02*
X119016100Y-73459100D01*
X117105000Y-74880000D02*
X117410700Y-74880000D01*
X117410700Y-74880000D02*
X118831600Y-73459100D01*
X119286700Y-76669900D02*
X119291100Y-76674300D01*
X117399300Y-76674300D02*
X119291100Y-76674300D01*
X117105000Y-76380000D02*
X117399300Y-76674300D01*
X120099500Y-76674300D02*
X120103900Y-76669900D01*
X119291100Y-76674300D02*
X120099500Y-76674300D01*
X117105000Y-75880000D02*
X118290000Y-75880000D01*
X119305000Y-75880000D02*
X119310000Y-75875000D01*
X118290000Y-75880000D02*
X119305000Y-75880000D01*
X120094300Y-75875000D02*
X120103900Y-75865400D01*
X119310000Y-75875000D02*
X120094300Y-75875000D01*
X120899600Y-75865400D02*
X120904000Y-75869800D01*
X120103900Y-75865400D02*
X120899600Y-75865400D01*
X120912300Y-71809900D02*
X120917300Y-71804900D01*
X118287300Y-72204900D02*
X118287300Y-71809900D01*
X118287300Y-72964882D02*
X118287300Y-72204900D01*
X117372182Y-73880000D02*
X118287300Y-72964882D01*
X117105000Y-73880000D02*
X117372182Y-73880000D01*
X119287300Y-71809900D02*
X118287300Y-71809900D01*
X119292300Y-71804900D02*
X119287300Y-71809900D01*
X120107300Y-71804900D02*
X119292300Y-71804900D01*
X120917300Y-71804900D02*
X120107300Y-71804900D01*
X125120400Y-76520040D02*
X125737620Y-76520040D01*
X125737620Y-76520040D02*
X125745240Y-76527660D01*
X127527320Y-76527660D02*
X127533400Y-76521580D01*
X125745240Y-76527660D02*
X127527320Y-76527660D01*
X126646940Y-74678540D02*
X127500380Y-74678540D01*
X127500380Y-74678540D02*
X127502920Y-74676000D01*
X128391920Y-74676000D02*
X127502920Y-74676000D01*
X130317200Y-75712460D02*
X130317200Y-76316800D01*
X130317200Y-76316800D02*
X130561080Y-76560680D01*
X130817200Y-76304560D02*
X130561080Y-76560680D01*
X130817200Y-75752460D02*
X130817200Y-76304560D01*
X132294540Y-75752460D02*
X132539740Y-75507260D01*
X131317200Y-75752460D02*
X131966200Y-75752460D01*
X131966200Y-75752460D02*
X132294540Y-75752460D01*
X127520700Y-79584280D02*
X127533400Y-79571580D01*
X127520700Y-81518900D02*
X127520700Y-79584280D01*
X127533400Y-79483040D02*
X125120400Y-77070040D01*
X127533400Y-79571580D02*
X127533400Y-79483040D01*
X118019600Y-77320600D02*
X118024600Y-77325600D01*
X118029600Y-77330600D02*
X118024600Y-77325600D01*
X118029600Y-78015600D02*
X118029600Y-77330600D01*
X116880600Y-77325600D02*
X118024600Y-77325600D01*
X116520000Y-76965000D02*
X116880600Y-77325600D01*
X123840000Y-59019800D02*
X122903800Y-58083600D01*
X123840000Y-59290000D02*
X123840000Y-59019800D01*
X117964300Y-67570000D02*
X123840000Y-67570000D01*
X116020000Y-72295000D02*
X116020000Y-69514300D01*
X116020000Y-69514300D02*
X117964300Y-67570000D01*
X120503800Y-58083600D02*
X120904000Y-57683400D01*
X121792302Y-79984600D02*
X122110500Y-79984600D01*
X114020000Y-76965000D02*
X114020000Y-79793500D01*
X114211100Y-79984600D02*
X121792302Y-79984600D01*
X114020000Y-79793500D02*
X114211100Y-79984600D01*
X115703800Y-57283600D02*
X115006120Y-56585920D01*
X115006120Y-56585920D02*
X115006120Y-54823360D01*
X115026440Y-57995873D02*
X115026440Y-57691020D01*
X115518249Y-58487682D02*
X115026440Y-57995873D01*
X116503800Y-58883600D02*
X116107882Y-58487682D01*
X116107882Y-58487682D02*
X115518249Y-58487682D01*
X121152920Y-52204620D02*
X121592340Y-51765200D01*
X119494300Y-52204620D02*
X121152920Y-52204620D01*
X116898023Y-54800897D02*
X119494300Y-52204620D01*
X116503800Y-56483600D02*
X116898023Y-56089377D01*
X116898023Y-56089377D02*
X116898023Y-54800897D01*
X121759980Y-52738020D02*
X122699780Y-51798220D01*
X116900571Y-56886829D02*
X117518519Y-56886829D01*
X116503800Y-57283600D02*
X116900571Y-56886829D01*
X117703075Y-56702273D02*
X117703075Y-54762925D01*
X117703075Y-54762925D02*
X119727980Y-52738020D01*
X117518519Y-56886829D02*
X117703075Y-56702273D01*
X119727980Y-52738020D02*
X121759980Y-52738020D01*
X120503800Y-55683600D02*
X120503800Y-54303800D01*
X120503800Y-54303800D02*
X120500000Y-54300000D01*
X111780000Y-73880000D02*
X112435000Y-73880000D01*
X109540000Y-71640000D02*
X111780000Y-73880000D01*
X110230000Y-54950000D02*
X109540000Y-55640000D01*
X109540000Y-55640000D02*
X109540000Y-71640000D01*
X119310000Y-56089800D02*
X118903800Y-55683600D01*
X119310000Y-56090000D02*
X119310000Y-56089800D01*
X110230000Y-71640000D02*
X110230000Y-56100000D01*
X112435000Y-73380000D02*
X111970000Y-73380000D01*
X111970000Y-73380000D02*
X110230000Y-71640000D01*
X113020000Y-72295000D02*
X113020000Y-65760000D01*
X116100000Y-56879800D02*
X115703800Y-56483600D01*
X116100000Y-56880000D02*
X116100000Y-56879800D01*
X116900000Y-58479800D02*
X116503800Y-58083600D01*
X116900000Y-58480000D02*
X116900000Y-58479800D01*
X114220000Y-60240000D02*
X114220000Y-58710000D01*
X114780000Y-60800000D02*
X114220000Y-60240000D01*
X114780000Y-64420000D02*
X114780000Y-60800000D01*
X113520000Y-72295000D02*
X113520000Y-65680000D01*
X113520000Y-65680000D02*
X114780000Y-64420000D01*
X115518801Y-62268599D02*
X115703800Y-62083600D01*
X115279018Y-62508382D02*
X115518801Y-62268599D01*
X115279018Y-64900982D02*
X115279018Y-62508382D01*
X114020000Y-72295000D02*
X114020000Y-66160000D01*
X114020000Y-66160000D02*
X115279018Y-64900982D01*
X115888799Y-59068599D02*
X115703800Y-58883600D01*
X116101061Y-59280861D02*
X115888799Y-59068599D01*
X116101061Y-65028939D02*
X116101061Y-59280861D01*
X114520000Y-72295000D02*
X114520000Y-66610000D01*
X114520000Y-66610000D02*
X116101061Y-65028939D01*
X115020000Y-72295000D02*
X115020000Y-67010000D01*
X115020000Y-67010000D02*
X116898287Y-65131713D01*
X116898287Y-65131713D02*
X117310000Y-64720000D01*
X117700000Y-60079800D02*
X117303800Y-59683600D01*
X117700000Y-60080000D02*
X117700000Y-60079800D01*
X115520000Y-72295000D02*
X115520000Y-67640000D01*
X115700200Y-59680000D02*
X115703800Y-59683600D01*
X114750000Y-59680000D02*
X115700200Y-59680000D01*
X107886500Y-53632100D02*
X106934000Y-54584600D01*
X116611400Y-53632100D02*
X107886500Y-53632100D01*
X118506240Y-56886040D02*
X118506240Y-54989158D01*
X118903800Y-57283600D02*
X118506240Y-56886040D01*
X118506240Y-54989158D02*
X118506240Y-54670960D01*
X119301260Y-51694080D02*
X120497600Y-51694080D01*
X116503800Y-55683600D02*
X116503800Y-54491540D01*
X116503800Y-54491540D02*
X119301260Y-51694080D01*
M02*
