G04 #@! TF.GenerationSoftware,KiCad,Pcbnew,(5.1.0)-1*
G04 #@! TF.CreationDate,2019-08-27T14:04:22-07:00*
G04 #@! TF.ProjectId,SDCard-PCB,53444361-7264-42d5-9043-422e6b696361,rev?*
G04 #@! TF.SameCoordinates,Original*
G04 #@! TF.FileFunction,Soldermask,Top*
G04 #@! TF.FilePolarity,Negative*
%FSLAX46Y46*%
G04 Gerber Fmt 4.6, Leading zero omitted, Abs format (unit mm)*
G04 Created by KiCad (PCBNEW (5.1.0)-1) date 2019-08-27 14:04:22*
%MOMM*%
%LPD*%
G04 APERTURE LIST*
%ADD10C,0.100000*%
G04 APERTURE END LIST*
D10*
G36*
X113453800Y-85082000D02*
G01*
X112403000Y-85082000D01*
X112403000Y-84031200D01*
X113453800Y-84031200D01*
X113453800Y-85082000D01*
X113453800Y-85082000D01*
G37*
G36*
X115981100Y-85069300D02*
G01*
X114930300Y-85069300D01*
X114930300Y-84018500D01*
X115981100Y-84018500D01*
X115981100Y-85069300D01*
X115981100Y-85069300D01*
G37*
G36*
X119465980Y-85046440D02*
G01*
X118415180Y-85046440D01*
X118415180Y-83995640D01*
X119465980Y-83995640D01*
X119465980Y-85046440D01*
X119465980Y-85046440D01*
G37*
G36*
X125607700Y-85043900D02*
G01*
X124556900Y-85043900D01*
X124556900Y-83993100D01*
X125607700Y-83993100D01*
X125607700Y-85043900D01*
X125607700Y-85043900D01*
G37*
G36*
X122381900Y-85043900D02*
G01*
X121331100Y-85043900D01*
X121331100Y-83993100D01*
X122381900Y-83993100D01*
X122381900Y-85043900D01*
X122381900Y-85043900D01*
G37*
G36*
X104113700Y-84438500D02*
G01*
X102362900Y-84438500D01*
X102362900Y-82687700D01*
X104113700Y-82687700D01*
X104113700Y-84438500D01*
X104113700Y-84438500D01*
G37*
G36*
X130142000Y-83619000D02*
G01*
X129041200Y-83619000D01*
X129041200Y-81368200D01*
X130142000Y-81368200D01*
X130142000Y-83619000D01*
X130142000Y-83619000D01*
G37*
G36*
X133092000Y-83619000D02*
G01*
X131991200Y-83619000D01*
X131991200Y-81368200D01*
X133092000Y-81368200D01*
X133092000Y-83619000D01*
X133092000Y-83619000D01*
G37*
G36*
X127787338Y-82170970D02*
G01*
X127805558Y-82176497D01*
X127822344Y-82185469D01*
X127837057Y-82197543D01*
X127849131Y-82212256D01*
X127858103Y-82229042D01*
X127863630Y-82247262D01*
X127866100Y-82272340D01*
X127866100Y-82705460D01*
X127863630Y-82730538D01*
X127858103Y-82748758D01*
X127849131Y-82765544D01*
X127837057Y-82780257D01*
X127822344Y-82792331D01*
X127805558Y-82801303D01*
X127787338Y-82806830D01*
X127762260Y-82809300D01*
X127279140Y-82809300D01*
X127254062Y-82806830D01*
X127235842Y-82801303D01*
X127219056Y-82792331D01*
X127204343Y-82780257D01*
X127192269Y-82765544D01*
X127183297Y-82748758D01*
X127177770Y-82730538D01*
X127175300Y-82705460D01*
X127175300Y-82272340D01*
X127177770Y-82247262D01*
X127183297Y-82229042D01*
X127192269Y-82212256D01*
X127204343Y-82197543D01*
X127219056Y-82185469D01*
X127235842Y-82176497D01*
X127254062Y-82170970D01*
X127279140Y-82168500D01*
X127762260Y-82168500D01*
X127787338Y-82170970D01*
X127787338Y-82170970D01*
G37*
G36*
X131592000Y-82019000D02*
G01*
X130541200Y-82019000D01*
X130541200Y-79968200D01*
X131592000Y-79968200D01*
X131592000Y-82019000D01*
X131592000Y-82019000D01*
G37*
G36*
X127787338Y-81200970D02*
G01*
X127805558Y-81206497D01*
X127822344Y-81215469D01*
X127837057Y-81227543D01*
X127849131Y-81242256D01*
X127858103Y-81259042D01*
X127863630Y-81277262D01*
X127866100Y-81302340D01*
X127866100Y-81735460D01*
X127863630Y-81760538D01*
X127858103Y-81778758D01*
X127849131Y-81795544D01*
X127837057Y-81810257D01*
X127822344Y-81822331D01*
X127805558Y-81831303D01*
X127787338Y-81836830D01*
X127762260Y-81839300D01*
X127279140Y-81839300D01*
X127254062Y-81836830D01*
X127235842Y-81831303D01*
X127219056Y-81822331D01*
X127204343Y-81810257D01*
X127192269Y-81795544D01*
X127183297Y-81778758D01*
X127177770Y-81760538D01*
X127175300Y-81735460D01*
X127175300Y-81302340D01*
X127177770Y-81277262D01*
X127183297Y-81259042D01*
X127192269Y-81242256D01*
X127204343Y-81227543D01*
X127219056Y-81215469D01*
X127235842Y-81206497D01*
X127254062Y-81200970D01*
X127279140Y-81198500D01*
X127762260Y-81198500D01*
X127787338Y-81200970D01*
X127787338Y-81200970D01*
G37*
G36*
X104113700Y-80288500D02*
G01*
X102362900Y-80288500D01*
X102362900Y-78537700D01*
X104113700Y-78537700D01*
X104113700Y-80288500D01*
X104113700Y-80288500D01*
G37*
G36*
X128868800Y-80031980D02*
G01*
X126198000Y-80031980D01*
X126198000Y-79111180D01*
X128868800Y-79111180D01*
X128868800Y-80031980D01*
X128868800Y-80031980D01*
G37*
G36*
X112417900Y-79690900D02*
G01*
X111737100Y-79690900D01*
X111737100Y-79060100D01*
X112417900Y-79060100D01*
X112417900Y-79690900D01*
X112417900Y-79690900D01*
G37*
G36*
X114711300Y-79682400D02*
G01*
X114320500Y-79682400D01*
X114320500Y-78771600D01*
X114711300Y-78771600D01*
X114711300Y-79682400D01*
X114711300Y-79682400D01*
G37*
G36*
X112417900Y-78800900D02*
G01*
X111737100Y-78800900D01*
X111737100Y-78170100D01*
X112417900Y-78170100D01*
X112417900Y-78800900D01*
X112417900Y-78800900D01*
G37*
G36*
X131181120Y-77926906D02*
G01*
X131249437Y-77955204D01*
X131310922Y-77996287D01*
X131363213Y-78048578D01*
X131404296Y-78110063D01*
X131432594Y-78178380D01*
X131447020Y-78250905D01*
X131447020Y-78324855D01*
X131432594Y-78397380D01*
X131404296Y-78465697D01*
X131363213Y-78527182D01*
X131310922Y-78579473D01*
X131249437Y-78620556D01*
X131181120Y-78648854D01*
X131108595Y-78663280D01*
X131034645Y-78663280D01*
X130962120Y-78648854D01*
X130893803Y-78620556D01*
X130832318Y-78579473D01*
X130780027Y-78527182D01*
X130738944Y-78465697D01*
X130710646Y-78397380D01*
X130696220Y-78324855D01*
X130696220Y-78250905D01*
X130710646Y-78178380D01*
X130738944Y-78110063D01*
X130780027Y-78048578D01*
X130832318Y-77996287D01*
X130893803Y-77955204D01*
X130962120Y-77926906D01*
X131034645Y-77912480D01*
X131108595Y-77912480D01*
X131181120Y-77926906D01*
X131181120Y-77926906D01*
G37*
G36*
X111085100Y-78554400D02*
G01*
X110174300Y-78554400D01*
X110174300Y-78163600D01*
X111085100Y-78163600D01*
X111085100Y-78554400D01*
X111085100Y-78554400D01*
G37*
G36*
X115219300Y-78509600D02*
G01*
X114828500Y-78509600D01*
X114828500Y-77598800D01*
X115219300Y-77598800D01*
X115219300Y-78509600D01*
X115219300Y-78509600D01*
G37*
G36*
X118760000Y-78211000D02*
G01*
X117849200Y-78211000D01*
X117849200Y-77820200D01*
X118760000Y-77820200D01*
X118760000Y-78211000D01*
X118760000Y-78211000D01*
G37*
G36*
X111076800Y-77754300D02*
G01*
X110166000Y-77754300D01*
X110166000Y-77363500D01*
X111076800Y-77363500D01*
X111076800Y-77754300D01*
X111076800Y-77754300D01*
G37*
G36*
X118755000Y-77521000D02*
G01*
X117844200Y-77521000D01*
X117844200Y-77130200D01*
X118755000Y-77130200D01*
X118755000Y-77521000D01*
X118755000Y-77521000D01*
G37*
G36*
X119486500Y-77404700D02*
G01*
X119095700Y-77404700D01*
X119095700Y-76493900D01*
X119486500Y-76493900D01*
X119486500Y-77404700D01*
X119486500Y-77404700D01*
G37*
G36*
X120299300Y-77400300D02*
G01*
X119908500Y-77400300D01*
X119908500Y-76489500D01*
X120299300Y-76489500D01*
X120299300Y-77400300D01*
X120299300Y-77400300D01*
G37*
G36*
X116675400Y-72599601D02*
G01*
X116677802Y-72623987D01*
X116684915Y-72647436D01*
X116696466Y-72669047D01*
X116712011Y-72687989D01*
X116730953Y-72703534D01*
X116752564Y-72715085D01*
X116776013Y-72722198D01*
X116800399Y-72724600D01*
X117470400Y-72724600D01*
X117470400Y-76535400D01*
X116800399Y-76535400D01*
X116776013Y-76537802D01*
X116752564Y-76544915D01*
X116730953Y-76556466D01*
X116712011Y-76572011D01*
X116696466Y-76590953D01*
X116684915Y-76612564D01*
X116677802Y-76636013D01*
X116675400Y-76660399D01*
X116675400Y-77330400D01*
X112864600Y-77330400D01*
X112864600Y-76660399D01*
X112862198Y-76636013D01*
X112855085Y-76612564D01*
X112843534Y-76590953D01*
X112827989Y-76572011D01*
X112809047Y-76556466D01*
X112787436Y-76544915D01*
X112763987Y-76537802D01*
X112739601Y-76535400D01*
X112069600Y-76535400D01*
X112069600Y-72785399D01*
X112800400Y-72785399D01*
X112800400Y-76474601D01*
X112802802Y-76498987D01*
X112809915Y-76522436D01*
X112821466Y-76544047D01*
X112837011Y-76562989D01*
X112855953Y-76578534D01*
X112877564Y-76590085D01*
X112901013Y-76597198D01*
X112925399Y-76599600D01*
X116614601Y-76599600D01*
X116638987Y-76597198D01*
X116662436Y-76590085D01*
X116684047Y-76578534D01*
X116702989Y-76562989D01*
X116718534Y-76544047D01*
X116730085Y-76522436D01*
X116737198Y-76498987D01*
X116739600Y-76474601D01*
X116739600Y-72785399D01*
X116737198Y-72761013D01*
X116730085Y-72737564D01*
X116718534Y-72715953D01*
X116702989Y-72697011D01*
X116684047Y-72681466D01*
X116662436Y-72669915D01*
X116638987Y-72662802D01*
X116614601Y-72660400D01*
X112925399Y-72660400D01*
X112901013Y-72662802D01*
X112877564Y-72669915D01*
X112855953Y-72681466D01*
X112837011Y-72697011D01*
X112821466Y-72715953D01*
X112809915Y-72737564D01*
X112802802Y-72761013D01*
X112800400Y-72785399D01*
X112069600Y-72785399D01*
X112069600Y-72724600D01*
X112739601Y-72724600D01*
X112763987Y-72722198D01*
X112787436Y-72715085D01*
X112809047Y-72703534D01*
X112827989Y-72687989D01*
X112843534Y-72669047D01*
X112855085Y-72647436D01*
X112862198Y-72623987D01*
X112864600Y-72599601D01*
X112864600Y-71929600D01*
X116675400Y-71929600D01*
X116675400Y-72599601D01*
X116675400Y-72599601D01*
G37*
G36*
X116345400Y-76205400D02*
G01*
X113194600Y-76205400D01*
X113194600Y-73054600D01*
X116345400Y-73054600D01*
X116345400Y-76205400D01*
X116345400Y-76205400D01*
G37*
G36*
X125315800Y-77250440D02*
G01*
X124925000Y-77250440D01*
X124925000Y-76339640D01*
X125315800Y-76339640D01*
X125315800Y-77250440D01*
X125315800Y-77250440D01*
G37*
G36*
X128868800Y-76981980D02*
G01*
X126198000Y-76981980D01*
X126198000Y-76061180D01*
X128868800Y-76061180D01*
X128868800Y-76981980D01*
X128868800Y-76981980D01*
G37*
G36*
X111072400Y-76954200D02*
G01*
X110161600Y-76954200D01*
X110161600Y-76563400D01*
X111072400Y-76563400D01*
X111072400Y-76954200D01*
X111072400Y-76954200D01*
G37*
G36*
X118556638Y-75562070D02*
G01*
X118574858Y-75567597D01*
X118591644Y-75576569D01*
X118606357Y-75588643D01*
X118618431Y-75603356D01*
X118627403Y-75620142D01*
X118632930Y-75638362D01*
X118635400Y-75663440D01*
X118635400Y-76096560D01*
X118632930Y-76121638D01*
X118627403Y-76139858D01*
X118618431Y-76156644D01*
X118606357Y-76171357D01*
X118591644Y-76183431D01*
X118574858Y-76192403D01*
X118556638Y-76197930D01*
X118531560Y-76200400D01*
X118048440Y-76200400D01*
X118023362Y-76197930D01*
X118005142Y-76192403D01*
X117988356Y-76183431D01*
X117973643Y-76171357D01*
X117961569Y-76156644D01*
X117952597Y-76139858D01*
X117947070Y-76121638D01*
X117944600Y-76096560D01*
X117944600Y-75663440D01*
X117947070Y-75638362D01*
X117952597Y-75620142D01*
X117961569Y-75603356D01*
X117973643Y-75588643D01*
X117988356Y-75576569D01*
X118005142Y-75567597D01*
X118023362Y-75562070D01*
X118048440Y-75559600D01*
X118531560Y-75559600D01*
X118556638Y-75562070D01*
X118556638Y-75562070D01*
G37*
G36*
X119650400Y-76190400D02*
G01*
X118969600Y-76190400D01*
X118969600Y-75559600D01*
X119650400Y-75559600D01*
X119650400Y-76190400D01*
X119650400Y-76190400D01*
G37*
G36*
X111072400Y-76166800D02*
G01*
X110161600Y-76166800D01*
X110161600Y-75776000D01*
X111072400Y-75776000D01*
X111072400Y-76166800D01*
X111072400Y-76166800D01*
G37*
G36*
X131477600Y-75087860D02*
G01*
X130602599Y-75087860D01*
X130578213Y-75090262D01*
X130554764Y-75097375D01*
X130533153Y-75108926D01*
X130514211Y-75124471D01*
X130498666Y-75143413D01*
X130487115Y-75165024D01*
X130480002Y-75188473D01*
X130477600Y-75212859D01*
X130477600Y-75232061D01*
X130480002Y-75256447D01*
X130487115Y-75279896D01*
X130498666Y-75301507D01*
X130514211Y-75320449D01*
X130533153Y-75335994D01*
X130554764Y-75347545D01*
X130578213Y-75354658D01*
X130602599Y-75357060D01*
X131477600Y-75357060D01*
X131477600Y-76147860D01*
X130156800Y-76147860D01*
X130156800Y-74297060D01*
X131477600Y-74297060D01*
X131477600Y-75087860D01*
X131477600Y-75087860D01*
G37*
G36*
X121099400Y-76050200D02*
G01*
X120708600Y-76050200D01*
X120708600Y-75139400D01*
X121099400Y-75139400D01*
X121099400Y-76050200D01*
X121099400Y-76050200D01*
G37*
G36*
X120299300Y-76045800D02*
G01*
X119908500Y-76045800D01*
X119908500Y-75135000D01*
X120299300Y-75135000D01*
X120299300Y-76045800D01*
X120299300Y-76045800D01*
G37*
G36*
X132735140Y-75687660D02*
G01*
X132344340Y-75687660D01*
X132344340Y-74776860D01*
X132735140Y-74776860D01*
X132735140Y-75687660D01*
X132735140Y-75687660D01*
G37*
G36*
X111072400Y-75379400D02*
G01*
X110161600Y-75379400D01*
X110161600Y-74988600D01*
X111072400Y-74988600D01*
X111072400Y-75379400D01*
X111072400Y-75379400D01*
G37*
G36*
X119650400Y-75300400D02*
G01*
X118969600Y-75300400D01*
X118969600Y-74669600D01*
X119650400Y-74669600D01*
X119650400Y-75300400D01*
X119650400Y-75300400D01*
G37*
G36*
X118556638Y-74592070D02*
G01*
X118574858Y-74597597D01*
X118591644Y-74606569D01*
X118606357Y-74618643D01*
X118618431Y-74633356D01*
X118627403Y-74650142D01*
X118632930Y-74668362D01*
X118635400Y-74693440D01*
X118635400Y-75126560D01*
X118632930Y-75151638D01*
X118627403Y-75169858D01*
X118618431Y-75186644D01*
X118606357Y-75201357D01*
X118591644Y-75213431D01*
X118574858Y-75222403D01*
X118556638Y-75227930D01*
X118531560Y-75230400D01*
X118048440Y-75230400D01*
X118023362Y-75227930D01*
X118005142Y-75222403D01*
X117988356Y-75213431D01*
X117973643Y-75201357D01*
X117961569Y-75186644D01*
X117952597Y-75169858D01*
X117947070Y-75151638D01*
X117944600Y-75126560D01*
X117944600Y-74693440D01*
X117947070Y-74668362D01*
X117952597Y-74650142D01*
X117961569Y-74633356D01*
X117973643Y-74618643D01*
X117988356Y-74606569D01*
X118005142Y-74597597D01*
X118023362Y-74592070D01*
X118048440Y-74589600D01*
X118531560Y-74589600D01*
X118556638Y-74592070D01*
X118556638Y-74592070D01*
G37*
G36*
X126987340Y-74993940D02*
G01*
X126306540Y-74993940D01*
X126306540Y-74363140D01*
X126987340Y-74363140D01*
X126987340Y-74993940D01*
X126987340Y-74993940D01*
G37*
G36*
X128732320Y-74991400D02*
G01*
X128051520Y-74991400D01*
X128051520Y-74360600D01*
X128732320Y-74360600D01*
X128732320Y-74991400D01*
X128732320Y-74991400D01*
G37*
G36*
X111072400Y-74604700D02*
G01*
X110161600Y-74604700D01*
X110161600Y-74213900D01*
X111072400Y-74213900D01*
X111072400Y-74604700D01*
X111072400Y-74604700D01*
G37*
G36*
X126987340Y-74103940D02*
G01*
X126306540Y-74103940D01*
X126306540Y-73473140D01*
X126987340Y-73473140D01*
X126987340Y-74103940D01*
X126987340Y-74103940D01*
G37*
G36*
X128732320Y-74101400D02*
G01*
X128051520Y-74101400D01*
X128051520Y-73470600D01*
X128732320Y-73470600D01*
X128732320Y-74101400D01*
X128732320Y-74101400D01*
G37*
G36*
X119746500Y-73639500D02*
G01*
X118835700Y-73639500D01*
X118835700Y-72613700D01*
X119746500Y-72613700D01*
X119746500Y-73639500D01*
X119746500Y-73639500D01*
G37*
G36*
X121075600Y-73639500D02*
G01*
X120164800Y-73639500D01*
X120164800Y-73248700D01*
X121075600Y-73248700D01*
X121075600Y-73639500D01*
X121075600Y-73639500D01*
G37*
G36*
X131132400Y-73395900D02*
G01*
X130741600Y-73395900D01*
X130741600Y-72485100D01*
X131132400Y-72485100D01*
X131132400Y-73395900D01*
X131132400Y-73395900D01*
G37*
G36*
X130472000Y-73391500D02*
G01*
X130081200Y-73391500D01*
X130081200Y-72480700D01*
X130472000Y-72480700D01*
X130472000Y-73391500D01*
X130472000Y-73391500D01*
G37*
G36*
X103918500Y-72849300D02*
G01*
X102167700Y-72849300D01*
X102167700Y-71098500D01*
X103918500Y-71098500D01*
X103918500Y-72849300D01*
X103918500Y-72849300D01*
G37*
G36*
X105608600Y-72294080D02*
G01*
X105067800Y-72294080D01*
X105067800Y-71683280D01*
X105608600Y-71683280D01*
X105608600Y-72294080D01*
X105608600Y-72294080D01*
G37*
G36*
X106518600Y-72294080D02*
G01*
X105977800Y-72294080D01*
X105977800Y-71683280D01*
X106518600Y-71683280D01*
X106518600Y-72294080D01*
X106518600Y-72294080D01*
G37*
G36*
X118553938Y-71491970D02*
G01*
X118572158Y-71497497D01*
X118588944Y-71506469D01*
X118603657Y-71518543D01*
X118615731Y-71533256D01*
X118624703Y-71550042D01*
X118630230Y-71568262D01*
X118632700Y-71593340D01*
X118632700Y-72026460D01*
X118630230Y-72051538D01*
X118624703Y-72069758D01*
X118615731Y-72086544D01*
X118603657Y-72101257D01*
X118588944Y-72113331D01*
X118572158Y-72122303D01*
X118553938Y-72127830D01*
X118528860Y-72130300D01*
X118045740Y-72130300D01*
X118020662Y-72127830D01*
X118002442Y-72122303D01*
X117985656Y-72113331D01*
X117970943Y-72101257D01*
X117958869Y-72086544D01*
X117949897Y-72069758D01*
X117944370Y-72051538D01*
X117941900Y-72026460D01*
X117941900Y-71593340D01*
X117944370Y-71568262D01*
X117949897Y-71550042D01*
X117958869Y-71533256D01*
X117970943Y-71518543D01*
X117985656Y-71506469D01*
X118002442Y-71497497D01*
X118020662Y-71491970D01*
X118045740Y-71489500D01*
X118528860Y-71489500D01*
X118553938Y-71491970D01*
X118553938Y-71491970D01*
G37*
G36*
X119627700Y-72125300D02*
G01*
X118946900Y-72125300D01*
X118946900Y-71494500D01*
X119627700Y-71494500D01*
X119627700Y-72125300D01*
X119627700Y-72125300D01*
G37*
G36*
X120302700Y-71985300D02*
G01*
X119911900Y-71985300D01*
X119911900Y-71074500D01*
X120302700Y-71074500D01*
X120302700Y-71985300D01*
X120302700Y-71985300D01*
G37*
G36*
X121112700Y-71985300D02*
G01*
X120721900Y-71985300D01*
X120721900Y-71074500D01*
X121112700Y-71074500D01*
X121112700Y-71985300D01*
X121112700Y-71985300D01*
G37*
G36*
X119627700Y-71235300D02*
G01*
X118946900Y-71235300D01*
X118946900Y-70604500D01*
X119627700Y-70604500D01*
X119627700Y-71235300D01*
X119627700Y-71235300D01*
G37*
G36*
X118553938Y-70521970D02*
G01*
X118572158Y-70527497D01*
X118588944Y-70536469D01*
X118603657Y-70548543D01*
X118615731Y-70563256D01*
X118624703Y-70580042D01*
X118630230Y-70598262D01*
X118632700Y-70623340D01*
X118632700Y-71056460D01*
X118630230Y-71081538D01*
X118624703Y-71099758D01*
X118615731Y-71116544D01*
X118603657Y-71131257D01*
X118588944Y-71143331D01*
X118572158Y-71152303D01*
X118553938Y-71157830D01*
X118528860Y-71160300D01*
X118045740Y-71160300D01*
X118020662Y-71157830D01*
X118002442Y-71152303D01*
X117985656Y-71143331D01*
X117970943Y-71131257D01*
X117958869Y-71116544D01*
X117949897Y-71099758D01*
X117944370Y-71081538D01*
X117941900Y-71056460D01*
X117941900Y-70623340D01*
X117944370Y-70598262D01*
X117949897Y-70580042D01*
X117958869Y-70563256D01*
X117970943Y-70548543D01*
X117985656Y-70536469D01*
X118002442Y-70527497D01*
X118020662Y-70521970D01*
X118045740Y-70519500D01*
X118528860Y-70519500D01*
X118553938Y-70521970D01*
X118553938Y-70521970D01*
G37*
G36*
X128808100Y-70731000D02*
G01*
X127757300Y-70731000D01*
X127757300Y-69680200D01*
X128808100Y-69680200D01*
X128808100Y-70731000D01*
X128808100Y-70731000D01*
G37*
G36*
X133278500Y-70731000D02*
G01*
X132227700Y-70731000D01*
X132227700Y-69680200D01*
X133278500Y-69680200D01*
X133278500Y-70731000D01*
X133278500Y-70731000D01*
G37*
G36*
X103910500Y-68699300D02*
G01*
X102159700Y-68699300D01*
X102159700Y-66948500D01*
X103910500Y-66948500D01*
X103910500Y-68699300D01*
X103910500Y-68699300D01*
G37*
G36*
X112107600Y-68648200D02*
G01*
X111056800Y-68648200D01*
X111056800Y-67597400D01*
X112107600Y-67597400D01*
X112107600Y-68648200D01*
X112107600Y-68648200D01*
G37*
G36*
X105542900Y-68136100D02*
G01*
X105002100Y-68136100D01*
X105002100Y-67525300D01*
X105542900Y-67525300D01*
X105542900Y-68136100D01*
X105542900Y-68136100D01*
G37*
G36*
X106452900Y-68136100D02*
G01*
X105912100Y-68136100D01*
X105912100Y-67525300D01*
X106452900Y-67525300D01*
X106452900Y-68136100D01*
X106452900Y-68136100D01*
G37*
G36*
X129406840Y-67093240D02*
G01*
X128156040Y-67093240D01*
X128156040Y-65642440D01*
X129406840Y-65642440D01*
X129406840Y-67093240D01*
X129406840Y-67093240D01*
G37*
G36*
X131106840Y-67093240D02*
G01*
X129856040Y-67093240D01*
X129856040Y-65642440D01*
X131106840Y-65642440D01*
X131106840Y-67093240D01*
X131106840Y-67093240D01*
G37*
G36*
X119332000Y-66739000D02*
G01*
X118361200Y-66739000D01*
X118361200Y-65798200D01*
X119332000Y-65798200D01*
X119332000Y-66739000D01*
X119332000Y-66739000D01*
G37*
G36*
X123383300Y-66739000D02*
G01*
X122412500Y-66739000D01*
X122412500Y-65798200D01*
X123383300Y-65798200D01*
X123383300Y-66739000D01*
X123383300Y-66739000D01*
G37*
G36*
X120602400Y-66699000D02*
G01*
X119681600Y-66699000D01*
X119681600Y-65838200D01*
X120602400Y-65838200D01*
X120602400Y-66699000D01*
X120602400Y-66699000D01*
G37*
G36*
X122057820Y-66698280D02*
G01*
X121137020Y-66698280D01*
X121137020Y-65837480D01*
X122057820Y-65837480D01*
X122057820Y-66698280D01*
X122057820Y-66698280D01*
G37*
G36*
X132631220Y-66670360D02*
G01*
X131950420Y-66670360D01*
X131950420Y-66039560D01*
X132631220Y-66039560D01*
X132631220Y-66670360D01*
X132631220Y-66670360D01*
G37*
G36*
X132631220Y-65780360D02*
G01*
X131950420Y-65780360D01*
X131950420Y-65149560D01*
X132631220Y-65149560D01*
X132631220Y-65780360D01*
X132631220Y-65780360D01*
G37*
G36*
X119332000Y-65409000D02*
G01*
X118361200Y-65409000D01*
X118361200Y-64468200D01*
X119332000Y-64468200D01*
X119332000Y-65409000D01*
X119332000Y-65409000D01*
G37*
G36*
X123383300Y-65409000D02*
G01*
X122412500Y-65409000D01*
X122412500Y-64468200D01*
X123383300Y-64468200D01*
X123383300Y-65409000D01*
X123383300Y-65409000D01*
G37*
G36*
X120602400Y-65339000D02*
G01*
X119681600Y-65339000D01*
X119681600Y-64478200D01*
X120602400Y-64478200D01*
X120602400Y-65339000D01*
X120602400Y-65339000D01*
G37*
G36*
X122057820Y-65338280D02*
G01*
X121137020Y-65338280D01*
X121137020Y-64477480D01*
X122057820Y-64477480D01*
X122057820Y-65338280D01*
X122057820Y-65338280D01*
G37*
G36*
X129406840Y-64893240D02*
G01*
X128156040Y-64893240D01*
X128156040Y-63442440D01*
X129406840Y-63442440D01*
X129406840Y-64893240D01*
X129406840Y-64893240D01*
G37*
G36*
X131106840Y-64893240D02*
G01*
X129856040Y-64893240D01*
X129856040Y-63442440D01*
X131106840Y-63442440D01*
X131106840Y-64893240D01*
X131106840Y-64893240D01*
G37*
G36*
X112401940Y-64887500D02*
G01*
X111541140Y-64887500D01*
X111541140Y-63966700D01*
X112401940Y-63966700D01*
X112401940Y-64887500D01*
X112401940Y-64887500D01*
G37*
G36*
X113761940Y-64887500D02*
G01*
X112901140Y-64887500D01*
X112901140Y-63966700D01*
X113761940Y-63966700D01*
X113761940Y-64887500D01*
X113761940Y-64887500D01*
G37*
G36*
X122965171Y-62681285D02*
G01*
X123003461Y-62697145D01*
X123037921Y-62720171D01*
X123067229Y-62749479D01*
X123090255Y-62783939D01*
X123106115Y-62822229D01*
X123114200Y-62862876D01*
X123114200Y-62904324D01*
X123106115Y-62944971D01*
X123090255Y-62983261D01*
X123067229Y-63017721D01*
X123037921Y-63047029D01*
X123003461Y-63070055D01*
X122965171Y-63085915D01*
X122924524Y-63094000D01*
X122883076Y-63094000D01*
X122842429Y-63085915D01*
X122804139Y-63070055D01*
X122769679Y-63047029D01*
X122740371Y-63017721D01*
X122717345Y-62983261D01*
X122701485Y-62944971D01*
X122693400Y-62904324D01*
X122693400Y-62862876D01*
X122701485Y-62822229D01*
X122717345Y-62783939D01*
X122740371Y-62749479D01*
X122769679Y-62720171D01*
X122804139Y-62697145D01*
X122842429Y-62681285D01*
X122883076Y-62673200D01*
X122924524Y-62673200D01*
X122965171Y-62681285D01*
X122965171Y-62681285D01*
G37*
G36*
X122165171Y-62681285D02*
G01*
X122203461Y-62697145D01*
X122237921Y-62720171D01*
X122267229Y-62749479D01*
X122290255Y-62783939D01*
X122306115Y-62822229D01*
X122314200Y-62862876D01*
X122314200Y-62904324D01*
X122306115Y-62944971D01*
X122290255Y-62983261D01*
X122267229Y-63017721D01*
X122237921Y-63047029D01*
X122203461Y-63070055D01*
X122165171Y-63085915D01*
X122124524Y-63094000D01*
X122083076Y-63094000D01*
X122042429Y-63085915D01*
X122004139Y-63070055D01*
X121969679Y-63047029D01*
X121940371Y-63017721D01*
X121917345Y-62983261D01*
X121901485Y-62944971D01*
X121893400Y-62904324D01*
X121893400Y-62862876D01*
X121901485Y-62822229D01*
X121917345Y-62783939D01*
X121940371Y-62749479D01*
X121969679Y-62720171D01*
X122004139Y-62697145D01*
X122042429Y-62681285D01*
X122083076Y-62673200D01*
X122124524Y-62673200D01*
X122165171Y-62681285D01*
X122165171Y-62681285D01*
G37*
G36*
X116565171Y-62681285D02*
G01*
X116603461Y-62697145D01*
X116637921Y-62720171D01*
X116667229Y-62749479D01*
X116690255Y-62783939D01*
X116706115Y-62822229D01*
X116714200Y-62862876D01*
X116714200Y-62904324D01*
X116706115Y-62944971D01*
X116690255Y-62983261D01*
X116667229Y-63017721D01*
X116637921Y-63047029D01*
X116603461Y-63070055D01*
X116565171Y-63085915D01*
X116524524Y-63094000D01*
X116483076Y-63094000D01*
X116442429Y-63085915D01*
X116404139Y-63070055D01*
X116369679Y-63047029D01*
X116340371Y-63017721D01*
X116317345Y-62983261D01*
X116301485Y-62944971D01*
X116293400Y-62904324D01*
X116293400Y-62862876D01*
X116301485Y-62822229D01*
X116317345Y-62783939D01*
X116340371Y-62749479D01*
X116369679Y-62720171D01*
X116404139Y-62697145D01*
X116442429Y-62681285D01*
X116483076Y-62673200D01*
X116524524Y-62673200D01*
X116565171Y-62681285D01*
X116565171Y-62681285D01*
G37*
G36*
X119765171Y-62681285D02*
G01*
X119803461Y-62697145D01*
X119837921Y-62720171D01*
X119867229Y-62749479D01*
X119890255Y-62783939D01*
X119906115Y-62822229D01*
X119914200Y-62862876D01*
X119914200Y-62904324D01*
X119906115Y-62944971D01*
X119890255Y-62983261D01*
X119867229Y-63017721D01*
X119837921Y-63047029D01*
X119803461Y-63070055D01*
X119765171Y-63085915D01*
X119724524Y-63094000D01*
X119683076Y-63094000D01*
X119642429Y-63085915D01*
X119604139Y-63070055D01*
X119569679Y-63047029D01*
X119540371Y-63017721D01*
X119517345Y-62983261D01*
X119501485Y-62944971D01*
X119493400Y-62904324D01*
X119493400Y-62862876D01*
X119501485Y-62822229D01*
X119517345Y-62783939D01*
X119540371Y-62749479D01*
X119569679Y-62720171D01*
X119604139Y-62697145D01*
X119642429Y-62681285D01*
X119683076Y-62673200D01*
X119724524Y-62673200D01*
X119765171Y-62681285D01*
X119765171Y-62681285D01*
G37*
G36*
X115765171Y-62681285D02*
G01*
X115803461Y-62697145D01*
X115837921Y-62720171D01*
X115867229Y-62749479D01*
X115890255Y-62783939D01*
X115906115Y-62822229D01*
X115914200Y-62862876D01*
X115914200Y-62904324D01*
X115906115Y-62944971D01*
X115890255Y-62983261D01*
X115867229Y-63017721D01*
X115837921Y-63047029D01*
X115803461Y-63070055D01*
X115765171Y-63085915D01*
X115724524Y-63094000D01*
X115683076Y-63094000D01*
X115642429Y-63085915D01*
X115604139Y-63070055D01*
X115569679Y-63047029D01*
X115540371Y-63017721D01*
X115517345Y-62983261D01*
X115501485Y-62944971D01*
X115493400Y-62904324D01*
X115493400Y-62862876D01*
X115501485Y-62822229D01*
X115517345Y-62783939D01*
X115540371Y-62749479D01*
X115569679Y-62720171D01*
X115604139Y-62697145D01*
X115642429Y-62681285D01*
X115683076Y-62673200D01*
X115724524Y-62673200D01*
X115765171Y-62681285D01*
X115765171Y-62681285D01*
G37*
G36*
X120565171Y-62681285D02*
G01*
X120603461Y-62697145D01*
X120637921Y-62720171D01*
X120667229Y-62749479D01*
X120690255Y-62783939D01*
X120706115Y-62822229D01*
X120714200Y-62862876D01*
X120714200Y-62904324D01*
X120706115Y-62944971D01*
X120690255Y-62983261D01*
X120667229Y-63017721D01*
X120637921Y-63047029D01*
X120603461Y-63070055D01*
X120565171Y-63085915D01*
X120524524Y-63094000D01*
X120483076Y-63094000D01*
X120442429Y-63085915D01*
X120404139Y-63070055D01*
X120369679Y-63047029D01*
X120340371Y-63017721D01*
X120317345Y-62983261D01*
X120301485Y-62944971D01*
X120293400Y-62904324D01*
X120293400Y-62862876D01*
X120301485Y-62822229D01*
X120317345Y-62783939D01*
X120340371Y-62749479D01*
X120369679Y-62720171D01*
X120404139Y-62697145D01*
X120442429Y-62681285D01*
X120483076Y-62673200D01*
X120524524Y-62673200D01*
X120565171Y-62681285D01*
X120565171Y-62681285D01*
G37*
G36*
X121365171Y-62681285D02*
G01*
X121403461Y-62697145D01*
X121437921Y-62720171D01*
X121467229Y-62749479D01*
X121490255Y-62783939D01*
X121506115Y-62822229D01*
X121514200Y-62862876D01*
X121514200Y-62904324D01*
X121506115Y-62944971D01*
X121490255Y-62983261D01*
X121467229Y-63017721D01*
X121437921Y-63047029D01*
X121403461Y-63070055D01*
X121365171Y-63085915D01*
X121324524Y-63094000D01*
X121283076Y-63094000D01*
X121242429Y-63085915D01*
X121204139Y-63070055D01*
X121169679Y-63047029D01*
X121140371Y-63017721D01*
X121117345Y-62983261D01*
X121101485Y-62944971D01*
X121093400Y-62904324D01*
X121093400Y-62862876D01*
X121101485Y-62822229D01*
X121117345Y-62783939D01*
X121140371Y-62749479D01*
X121169679Y-62720171D01*
X121204139Y-62697145D01*
X121242429Y-62681285D01*
X121283076Y-62673200D01*
X121324524Y-62673200D01*
X121365171Y-62681285D01*
X121365171Y-62681285D01*
G37*
G36*
X118965171Y-62681285D02*
G01*
X119003461Y-62697145D01*
X119037921Y-62720171D01*
X119067229Y-62749479D01*
X119090255Y-62783939D01*
X119106115Y-62822229D01*
X119114200Y-62862876D01*
X119114200Y-62904324D01*
X119106115Y-62944971D01*
X119090255Y-62983261D01*
X119067229Y-63017721D01*
X119037921Y-63047029D01*
X119003461Y-63070055D01*
X118965171Y-63085915D01*
X118924524Y-63094000D01*
X118883076Y-63094000D01*
X118842429Y-63085915D01*
X118804139Y-63070055D01*
X118769679Y-63047029D01*
X118740371Y-63017721D01*
X118717345Y-62983261D01*
X118701485Y-62944971D01*
X118693400Y-62904324D01*
X118693400Y-62862876D01*
X118701485Y-62822229D01*
X118717345Y-62783939D01*
X118740371Y-62749479D01*
X118769679Y-62720171D01*
X118804139Y-62697145D01*
X118842429Y-62681285D01*
X118883076Y-62673200D01*
X118924524Y-62673200D01*
X118965171Y-62681285D01*
X118965171Y-62681285D01*
G37*
G36*
X118165171Y-62681285D02*
G01*
X118203461Y-62697145D01*
X118237921Y-62720171D01*
X118267229Y-62749479D01*
X118290255Y-62783939D01*
X118306115Y-62822229D01*
X118314200Y-62862876D01*
X118314200Y-62904324D01*
X118306115Y-62944971D01*
X118290255Y-62983261D01*
X118267229Y-63017721D01*
X118237921Y-63047029D01*
X118203461Y-63070055D01*
X118165171Y-63085915D01*
X118124524Y-63094000D01*
X118083076Y-63094000D01*
X118042429Y-63085915D01*
X118004139Y-63070055D01*
X117969679Y-63047029D01*
X117940371Y-63017721D01*
X117917345Y-62983261D01*
X117901485Y-62944971D01*
X117893400Y-62904324D01*
X117893400Y-62862876D01*
X117901485Y-62822229D01*
X117917345Y-62783939D01*
X117940371Y-62749479D01*
X117969679Y-62720171D01*
X118004139Y-62697145D01*
X118042429Y-62681285D01*
X118083076Y-62673200D01*
X118124524Y-62673200D01*
X118165171Y-62681285D01*
X118165171Y-62681285D01*
G37*
G36*
X117365171Y-62681285D02*
G01*
X117403461Y-62697145D01*
X117437921Y-62720171D01*
X117467229Y-62749479D01*
X117490255Y-62783939D01*
X117506115Y-62822229D01*
X117514200Y-62862876D01*
X117514200Y-62904324D01*
X117506115Y-62944971D01*
X117490255Y-62983261D01*
X117467229Y-63017721D01*
X117437921Y-63047029D01*
X117403461Y-63070055D01*
X117365171Y-63085915D01*
X117324524Y-63094000D01*
X117283076Y-63094000D01*
X117242429Y-63085915D01*
X117204139Y-63070055D01*
X117169679Y-63047029D01*
X117140371Y-63017721D01*
X117117345Y-62983261D01*
X117101485Y-62944971D01*
X117093400Y-62904324D01*
X117093400Y-62862876D01*
X117101485Y-62822229D01*
X117117345Y-62783939D01*
X117140371Y-62749479D01*
X117169679Y-62720171D01*
X117204139Y-62697145D01*
X117242429Y-62681285D01*
X117283076Y-62673200D01*
X117324524Y-62673200D01*
X117365171Y-62681285D01*
X117365171Y-62681285D01*
G37*
G36*
X113761940Y-63028220D02*
G01*
X112901140Y-63028220D01*
X112901140Y-62107420D01*
X113761940Y-62107420D01*
X113761940Y-63028220D01*
X113761940Y-63028220D01*
G37*
G36*
X112401940Y-63028220D02*
G01*
X111541140Y-63028220D01*
X111541140Y-62107420D01*
X112401940Y-62107420D01*
X112401940Y-63028220D01*
X112401940Y-63028220D01*
G37*
G36*
X103968500Y-62589300D02*
G01*
X102217700Y-62589300D01*
X102217700Y-60838500D01*
X103968500Y-60838500D01*
X103968500Y-62589300D01*
X103968500Y-62589300D01*
G37*
G36*
X129800020Y-62567860D02*
G01*
X129169220Y-62567860D01*
X129169220Y-61887060D01*
X129800020Y-61887060D01*
X129800020Y-62567860D01*
X129800020Y-62567860D01*
G37*
G36*
X128910020Y-62567860D02*
G01*
X128279220Y-62567860D01*
X128279220Y-61887060D01*
X128910020Y-61887060D01*
X128910020Y-62567860D01*
X128910020Y-62567860D01*
G37*
G36*
X120565171Y-61881285D02*
G01*
X120603461Y-61897145D01*
X120637921Y-61920171D01*
X120667229Y-61949479D01*
X120690255Y-61983939D01*
X120706115Y-62022229D01*
X120714200Y-62062876D01*
X120714200Y-62104324D01*
X120706115Y-62144971D01*
X120690255Y-62183261D01*
X120667229Y-62217721D01*
X120637921Y-62247029D01*
X120603461Y-62270055D01*
X120565171Y-62285915D01*
X120524524Y-62294000D01*
X120483076Y-62294000D01*
X120442429Y-62285915D01*
X120404139Y-62270055D01*
X120369679Y-62247029D01*
X120340371Y-62217721D01*
X120317345Y-62183261D01*
X120301485Y-62144971D01*
X120293400Y-62104324D01*
X120293400Y-62062876D01*
X120301485Y-62022229D01*
X120317345Y-61983939D01*
X120340371Y-61949479D01*
X120369679Y-61920171D01*
X120404139Y-61897145D01*
X120442429Y-61881285D01*
X120483076Y-61873200D01*
X120524524Y-61873200D01*
X120565171Y-61881285D01*
X120565171Y-61881285D01*
G37*
G36*
X115765171Y-61881285D02*
G01*
X115803461Y-61897145D01*
X115837921Y-61920171D01*
X115867229Y-61949479D01*
X115890255Y-61983939D01*
X115906115Y-62022229D01*
X115914200Y-62062876D01*
X115914200Y-62104324D01*
X115906115Y-62144971D01*
X115890255Y-62183261D01*
X115867229Y-62217721D01*
X115837921Y-62247029D01*
X115803461Y-62270055D01*
X115765171Y-62285915D01*
X115724524Y-62294000D01*
X115683076Y-62294000D01*
X115642429Y-62285915D01*
X115604139Y-62270055D01*
X115569679Y-62247029D01*
X115540371Y-62217721D01*
X115517345Y-62183261D01*
X115501485Y-62144971D01*
X115493400Y-62104324D01*
X115493400Y-62062876D01*
X115501485Y-62022229D01*
X115517345Y-61983939D01*
X115540371Y-61949479D01*
X115569679Y-61920171D01*
X115604139Y-61897145D01*
X115642429Y-61881285D01*
X115683076Y-61873200D01*
X115724524Y-61873200D01*
X115765171Y-61881285D01*
X115765171Y-61881285D01*
G37*
G36*
X116565171Y-61881285D02*
G01*
X116603461Y-61897145D01*
X116637921Y-61920171D01*
X116667229Y-61949479D01*
X116690255Y-61983939D01*
X116706115Y-62022229D01*
X116714200Y-62062876D01*
X116714200Y-62104324D01*
X116706115Y-62144971D01*
X116690255Y-62183261D01*
X116667229Y-62217721D01*
X116637921Y-62247029D01*
X116603461Y-62270055D01*
X116565171Y-62285915D01*
X116524524Y-62294000D01*
X116483076Y-62294000D01*
X116442429Y-62285915D01*
X116404139Y-62270055D01*
X116369679Y-62247029D01*
X116340371Y-62217721D01*
X116317345Y-62183261D01*
X116301485Y-62144971D01*
X116293400Y-62104324D01*
X116293400Y-62062876D01*
X116301485Y-62022229D01*
X116317345Y-61983939D01*
X116340371Y-61949479D01*
X116369679Y-61920171D01*
X116404139Y-61897145D01*
X116442429Y-61881285D01*
X116483076Y-61873200D01*
X116524524Y-61873200D01*
X116565171Y-61881285D01*
X116565171Y-61881285D01*
G37*
G36*
X117365171Y-61881285D02*
G01*
X117403461Y-61897145D01*
X117437921Y-61920171D01*
X117467229Y-61949479D01*
X117490255Y-61983939D01*
X117506115Y-62022229D01*
X117514200Y-62062876D01*
X117514200Y-62104324D01*
X117506115Y-62144971D01*
X117490255Y-62183261D01*
X117467229Y-62217721D01*
X117437921Y-62247029D01*
X117403461Y-62270055D01*
X117365171Y-62285915D01*
X117324524Y-62294000D01*
X117283076Y-62294000D01*
X117242429Y-62285915D01*
X117204139Y-62270055D01*
X117169679Y-62247029D01*
X117140371Y-62217721D01*
X117117345Y-62183261D01*
X117101485Y-62144971D01*
X117093400Y-62104324D01*
X117093400Y-62062876D01*
X117101485Y-62022229D01*
X117117345Y-61983939D01*
X117140371Y-61949479D01*
X117169679Y-61920171D01*
X117204139Y-61897145D01*
X117242429Y-61881285D01*
X117283076Y-61873200D01*
X117324524Y-61873200D01*
X117365171Y-61881285D01*
X117365171Y-61881285D01*
G37*
G36*
X118165171Y-61881285D02*
G01*
X118203461Y-61897145D01*
X118237921Y-61920171D01*
X118267229Y-61949479D01*
X118290255Y-61983939D01*
X118306115Y-62022229D01*
X118314200Y-62062876D01*
X118314200Y-62104324D01*
X118306115Y-62144971D01*
X118290255Y-62183261D01*
X118267229Y-62217721D01*
X118237921Y-62247029D01*
X118203461Y-62270055D01*
X118165171Y-62285915D01*
X118124524Y-62294000D01*
X118083076Y-62294000D01*
X118042429Y-62285915D01*
X118004139Y-62270055D01*
X117969679Y-62247029D01*
X117940371Y-62217721D01*
X117917345Y-62183261D01*
X117901485Y-62144971D01*
X117893400Y-62104324D01*
X117893400Y-62062876D01*
X117901485Y-62022229D01*
X117917345Y-61983939D01*
X117940371Y-61949479D01*
X117969679Y-61920171D01*
X118004139Y-61897145D01*
X118042429Y-61881285D01*
X118083076Y-61873200D01*
X118124524Y-61873200D01*
X118165171Y-61881285D01*
X118165171Y-61881285D01*
G37*
G36*
X118965171Y-61881285D02*
G01*
X119003461Y-61897145D01*
X119037921Y-61920171D01*
X119067229Y-61949479D01*
X119090255Y-61983939D01*
X119106115Y-62022229D01*
X119114200Y-62062876D01*
X119114200Y-62104324D01*
X119106115Y-62144971D01*
X119090255Y-62183261D01*
X119067229Y-62217721D01*
X119037921Y-62247029D01*
X119003461Y-62270055D01*
X118965171Y-62285915D01*
X118924524Y-62294000D01*
X118883076Y-62294000D01*
X118842429Y-62285915D01*
X118804139Y-62270055D01*
X118769679Y-62247029D01*
X118740371Y-62217721D01*
X118717345Y-62183261D01*
X118701485Y-62144971D01*
X118693400Y-62104324D01*
X118693400Y-62062876D01*
X118701485Y-62022229D01*
X118717345Y-61983939D01*
X118740371Y-61949479D01*
X118769679Y-61920171D01*
X118804139Y-61897145D01*
X118842429Y-61881285D01*
X118883076Y-61873200D01*
X118924524Y-61873200D01*
X118965171Y-61881285D01*
X118965171Y-61881285D01*
G37*
G36*
X119765171Y-61881285D02*
G01*
X119803461Y-61897145D01*
X119837921Y-61920171D01*
X119867229Y-61949479D01*
X119890255Y-61983939D01*
X119906115Y-62022229D01*
X119914200Y-62062876D01*
X119914200Y-62104324D01*
X119906115Y-62144971D01*
X119890255Y-62183261D01*
X119867229Y-62217721D01*
X119837921Y-62247029D01*
X119803461Y-62270055D01*
X119765171Y-62285915D01*
X119724524Y-62294000D01*
X119683076Y-62294000D01*
X119642429Y-62285915D01*
X119604139Y-62270055D01*
X119569679Y-62247029D01*
X119540371Y-62217721D01*
X119517345Y-62183261D01*
X119501485Y-62144971D01*
X119493400Y-62104324D01*
X119493400Y-62062876D01*
X119501485Y-62022229D01*
X119517345Y-61983939D01*
X119540371Y-61949479D01*
X119569679Y-61920171D01*
X119604139Y-61897145D01*
X119642429Y-61881285D01*
X119683076Y-61873200D01*
X119724524Y-61873200D01*
X119765171Y-61881285D01*
X119765171Y-61881285D01*
G37*
G36*
X122965171Y-61881285D02*
G01*
X123003461Y-61897145D01*
X123037921Y-61920171D01*
X123067229Y-61949479D01*
X123090255Y-61983939D01*
X123106115Y-62022229D01*
X123114200Y-62062876D01*
X123114200Y-62104324D01*
X123106115Y-62144971D01*
X123090255Y-62183261D01*
X123067229Y-62217721D01*
X123037921Y-62247029D01*
X123003461Y-62270055D01*
X122965171Y-62285915D01*
X122924524Y-62294000D01*
X122883076Y-62294000D01*
X122842429Y-62285915D01*
X122804139Y-62270055D01*
X122769679Y-62247029D01*
X122740371Y-62217721D01*
X122717345Y-62183261D01*
X122701485Y-62144971D01*
X122693400Y-62104324D01*
X122693400Y-62062876D01*
X122701485Y-62022229D01*
X122717345Y-61983939D01*
X122740371Y-61949479D01*
X122769679Y-61920171D01*
X122804139Y-61897145D01*
X122842429Y-61881285D01*
X122883076Y-61873200D01*
X122924524Y-61873200D01*
X122965171Y-61881285D01*
X122965171Y-61881285D01*
G37*
G36*
X121365171Y-61881285D02*
G01*
X121403461Y-61897145D01*
X121437921Y-61920171D01*
X121467229Y-61949479D01*
X121490255Y-61983939D01*
X121506115Y-62022229D01*
X121514200Y-62062876D01*
X121514200Y-62104324D01*
X121506115Y-62144971D01*
X121490255Y-62183261D01*
X121467229Y-62217721D01*
X121437921Y-62247029D01*
X121403461Y-62270055D01*
X121365171Y-62285915D01*
X121324524Y-62294000D01*
X121283076Y-62294000D01*
X121242429Y-62285915D01*
X121204139Y-62270055D01*
X121169679Y-62247029D01*
X121140371Y-62217721D01*
X121117345Y-62183261D01*
X121101485Y-62144971D01*
X121093400Y-62104324D01*
X121093400Y-62062876D01*
X121101485Y-62022229D01*
X121117345Y-61983939D01*
X121140371Y-61949479D01*
X121169679Y-61920171D01*
X121204139Y-61897145D01*
X121242429Y-61881285D01*
X121283076Y-61873200D01*
X121324524Y-61873200D01*
X121365171Y-61881285D01*
X121365171Y-61881285D01*
G37*
G36*
X122165171Y-61881285D02*
G01*
X122203461Y-61897145D01*
X122237921Y-61920171D01*
X122267229Y-61949479D01*
X122290255Y-61983939D01*
X122306115Y-62022229D01*
X122314200Y-62062876D01*
X122314200Y-62104324D01*
X122306115Y-62144971D01*
X122290255Y-62183261D01*
X122267229Y-62217721D01*
X122237921Y-62247029D01*
X122203461Y-62270055D01*
X122165171Y-62285915D01*
X122124524Y-62294000D01*
X122083076Y-62294000D01*
X122042429Y-62285915D01*
X122004139Y-62270055D01*
X121969679Y-62247029D01*
X121940371Y-62217721D01*
X121917345Y-62183261D01*
X121901485Y-62144971D01*
X121893400Y-62104324D01*
X121893400Y-62062876D01*
X121901485Y-62022229D01*
X121917345Y-61983939D01*
X121940371Y-61949479D01*
X121969679Y-61920171D01*
X122004139Y-61897145D01*
X122042429Y-61881285D01*
X122083076Y-61873200D01*
X122124524Y-61873200D01*
X122165171Y-61881285D01*
X122165171Y-61881285D01*
G37*
G36*
X127172480Y-62181340D02*
G01*
X126191680Y-62181340D01*
X126191680Y-60810540D01*
X127172480Y-60810540D01*
X127172480Y-62181340D01*
X127172480Y-62181340D01*
G37*
G36*
X125532480Y-62181340D02*
G01*
X124551680Y-62181340D01*
X124551680Y-60810540D01*
X125532480Y-60810540D01*
X125532480Y-62181340D01*
X125532480Y-62181340D01*
G37*
G36*
X122965171Y-61081285D02*
G01*
X123003461Y-61097145D01*
X123037921Y-61120171D01*
X123067229Y-61149479D01*
X123090255Y-61183939D01*
X123106115Y-61222229D01*
X123114200Y-61262876D01*
X123114200Y-61304324D01*
X123106115Y-61344971D01*
X123090255Y-61383261D01*
X123067229Y-61417721D01*
X123037921Y-61447029D01*
X123003461Y-61470055D01*
X122965171Y-61485915D01*
X122924524Y-61494000D01*
X122883076Y-61494000D01*
X122842429Y-61485915D01*
X122804139Y-61470055D01*
X122769679Y-61447029D01*
X122740371Y-61417721D01*
X122717345Y-61383261D01*
X122701485Y-61344971D01*
X122693400Y-61304324D01*
X122693400Y-61262876D01*
X122701485Y-61222229D01*
X122717345Y-61183939D01*
X122740371Y-61149479D01*
X122769679Y-61120171D01*
X122804139Y-61097145D01*
X122842429Y-61081285D01*
X122883076Y-61073200D01*
X122924524Y-61073200D01*
X122965171Y-61081285D01*
X122965171Y-61081285D01*
G37*
G36*
X118165171Y-61081285D02*
G01*
X118203461Y-61097145D01*
X118237921Y-61120171D01*
X118267229Y-61149479D01*
X118290255Y-61183939D01*
X118306115Y-61222229D01*
X118314200Y-61262876D01*
X118314200Y-61304324D01*
X118306115Y-61344971D01*
X118290255Y-61383261D01*
X118267229Y-61417721D01*
X118237921Y-61447029D01*
X118203461Y-61470055D01*
X118165171Y-61485915D01*
X118124524Y-61494000D01*
X118083076Y-61494000D01*
X118042429Y-61485915D01*
X118004139Y-61470055D01*
X117969679Y-61447029D01*
X117940371Y-61417721D01*
X117917345Y-61383261D01*
X117901485Y-61344971D01*
X117893400Y-61304324D01*
X117893400Y-61262876D01*
X117901485Y-61222229D01*
X117917345Y-61183939D01*
X117940371Y-61149479D01*
X117969679Y-61120171D01*
X118004139Y-61097145D01*
X118042429Y-61081285D01*
X118083076Y-61073200D01*
X118124524Y-61073200D01*
X118165171Y-61081285D01*
X118165171Y-61081285D01*
G37*
G36*
X122165171Y-61081285D02*
G01*
X122203461Y-61097145D01*
X122237921Y-61120171D01*
X122267229Y-61149479D01*
X122290255Y-61183939D01*
X122306115Y-61222229D01*
X122314200Y-61262876D01*
X122314200Y-61304324D01*
X122306115Y-61344971D01*
X122290255Y-61383261D01*
X122267229Y-61417721D01*
X122237921Y-61447029D01*
X122203461Y-61470055D01*
X122165171Y-61485915D01*
X122124524Y-61494000D01*
X122083076Y-61494000D01*
X122042429Y-61485915D01*
X122004139Y-61470055D01*
X121969679Y-61447029D01*
X121940371Y-61417721D01*
X121917345Y-61383261D01*
X121901485Y-61344971D01*
X121893400Y-61304324D01*
X121893400Y-61262876D01*
X121901485Y-61222229D01*
X121917345Y-61183939D01*
X121940371Y-61149479D01*
X121969679Y-61120171D01*
X122004139Y-61097145D01*
X122042429Y-61081285D01*
X122083076Y-61073200D01*
X122124524Y-61073200D01*
X122165171Y-61081285D01*
X122165171Y-61081285D01*
G37*
G36*
X115765171Y-61081285D02*
G01*
X115803461Y-61097145D01*
X115837921Y-61120171D01*
X115867229Y-61149479D01*
X115890255Y-61183939D01*
X115906115Y-61222229D01*
X115914200Y-61262876D01*
X115914200Y-61304324D01*
X115906115Y-61344971D01*
X115890255Y-61383261D01*
X115867229Y-61417721D01*
X115837921Y-61447029D01*
X115803461Y-61470055D01*
X115765171Y-61485915D01*
X115724524Y-61494000D01*
X115683076Y-61494000D01*
X115642429Y-61485915D01*
X115604139Y-61470055D01*
X115569679Y-61447029D01*
X115540371Y-61417721D01*
X115517345Y-61383261D01*
X115501485Y-61344971D01*
X115493400Y-61304324D01*
X115493400Y-61262876D01*
X115501485Y-61222229D01*
X115517345Y-61183939D01*
X115540371Y-61149479D01*
X115569679Y-61120171D01*
X115604139Y-61097145D01*
X115642429Y-61081285D01*
X115683076Y-61073200D01*
X115724524Y-61073200D01*
X115765171Y-61081285D01*
X115765171Y-61081285D01*
G37*
G36*
X121365171Y-61081285D02*
G01*
X121403461Y-61097145D01*
X121437921Y-61120171D01*
X121467229Y-61149479D01*
X121490255Y-61183939D01*
X121506115Y-61222229D01*
X121514200Y-61262876D01*
X121514200Y-61304324D01*
X121506115Y-61344971D01*
X121490255Y-61383261D01*
X121467229Y-61417721D01*
X121437921Y-61447029D01*
X121403461Y-61470055D01*
X121365171Y-61485915D01*
X121324524Y-61494000D01*
X121283076Y-61494000D01*
X121242429Y-61485915D01*
X121204139Y-61470055D01*
X121169679Y-61447029D01*
X121140371Y-61417721D01*
X121117345Y-61383261D01*
X121101485Y-61344971D01*
X121093400Y-61304324D01*
X121093400Y-61262876D01*
X121101485Y-61222229D01*
X121117345Y-61183939D01*
X121140371Y-61149479D01*
X121169679Y-61120171D01*
X121204139Y-61097145D01*
X121242429Y-61081285D01*
X121283076Y-61073200D01*
X121324524Y-61073200D01*
X121365171Y-61081285D01*
X121365171Y-61081285D01*
G37*
G36*
X119765171Y-61081285D02*
G01*
X119803461Y-61097145D01*
X119837921Y-61120171D01*
X119867229Y-61149479D01*
X119890255Y-61183939D01*
X119906115Y-61222229D01*
X119914200Y-61262876D01*
X119914200Y-61304324D01*
X119906115Y-61344971D01*
X119890255Y-61383261D01*
X119867229Y-61417721D01*
X119837921Y-61447029D01*
X119803461Y-61470055D01*
X119765171Y-61485915D01*
X119724524Y-61494000D01*
X119683076Y-61494000D01*
X119642429Y-61485915D01*
X119604139Y-61470055D01*
X119569679Y-61447029D01*
X119540371Y-61417721D01*
X119517345Y-61383261D01*
X119501485Y-61344971D01*
X119493400Y-61304324D01*
X119493400Y-61262876D01*
X119501485Y-61222229D01*
X119517345Y-61183939D01*
X119540371Y-61149479D01*
X119569679Y-61120171D01*
X119604139Y-61097145D01*
X119642429Y-61081285D01*
X119683076Y-61073200D01*
X119724524Y-61073200D01*
X119765171Y-61081285D01*
X119765171Y-61081285D01*
G37*
G36*
X116565171Y-61081285D02*
G01*
X116603461Y-61097145D01*
X116637921Y-61120171D01*
X116667229Y-61149479D01*
X116690255Y-61183939D01*
X116706115Y-61222229D01*
X116714200Y-61262876D01*
X116714200Y-61304324D01*
X116706115Y-61344971D01*
X116690255Y-61383261D01*
X116667229Y-61417721D01*
X116637921Y-61447029D01*
X116603461Y-61470055D01*
X116565171Y-61485915D01*
X116524524Y-61494000D01*
X116483076Y-61494000D01*
X116442429Y-61485915D01*
X116404139Y-61470055D01*
X116369679Y-61447029D01*
X116340371Y-61417721D01*
X116317345Y-61383261D01*
X116301485Y-61344971D01*
X116293400Y-61304324D01*
X116293400Y-61262876D01*
X116301485Y-61222229D01*
X116317345Y-61183939D01*
X116340371Y-61149479D01*
X116369679Y-61120171D01*
X116404139Y-61097145D01*
X116442429Y-61081285D01*
X116483076Y-61073200D01*
X116524524Y-61073200D01*
X116565171Y-61081285D01*
X116565171Y-61081285D01*
G37*
G36*
X117365171Y-61081285D02*
G01*
X117403461Y-61097145D01*
X117437921Y-61120171D01*
X117467229Y-61149479D01*
X117490255Y-61183939D01*
X117506115Y-61222229D01*
X117514200Y-61262876D01*
X117514200Y-61304324D01*
X117506115Y-61344971D01*
X117490255Y-61383261D01*
X117467229Y-61417721D01*
X117437921Y-61447029D01*
X117403461Y-61470055D01*
X117365171Y-61485915D01*
X117324524Y-61494000D01*
X117283076Y-61494000D01*
X117242429Y-61485915D01*
X117204139Y-61470055D01*
X117169679Y-61447029D01*
X117140371Y-61417721D01*
X117117345Y-61383261D01*
X117101485Y-61344971D01*
X117093400Y-61304324D01*
X117093400Y-61262876D01*
X117101485Y-61222229D01*
X117117345Y-61183939D01*
X117140371Y-61149479D01*
X117169679Y-61120171D01*
X117204139Y-61097145D01*
X117242429Y-61081285D01*
X117283076Y-61073200D01*
X117324524Y-61073200D01*
X117365171Y-61081285D01*
X117365171Y-61081285D01*
G37*
G36*
X118965171Y-61081285D02*
G01*
X119003461Y-61097145D01*
X119037921Y-61120171D01*
X119067229Y-61149479D01*
X119090255Y-61183939D01*
X119106115Y-61222229D01*
X119114200Y-61262876D01*
X119114200Y-61304324D01*
X119106115Y-61344971D01*
X119090255Y-61383261D01*
X119067229Y-61417721D01*
X119037921Y-61447029D01*
X119003461Y-61470055D01*
X118965171Y-61485915D01*
X118924524Y-61494000D01*
X118883076Y-61494000D01*
X118842429Y-61485915D01*
X118804139Y-61470055D01*
X118769679Y-61447029D01*
X118740371Y-61417721D01*
X118717345Y-61383261D01*
X118701485Y-61344971D01*
X118693400Y-61304324D01*
X118693400Y-61262876D01*
X118701485Y-61222229D01*
X118717345Y-61183939D01*
X118740371Y-61149479D01*
X118769679Y-61120171D01*
X118804139Y-61097145D01*
X118842429Y-61081285D01*
X118883076Y-61073200D01*
X118924524Y-61073200D01*
X118965171Y-61081285D01*
X118965171Y-61081285D01*
G37*
G36*
X120565171Y-61081285D02*
G01*
X120603461Y-61097145D01*
X120637921Y-61120171D01*
X120667229Y-61149479D01*
X120690255Y-61183939D01*
X120706115Y-61222229D01*
X120714200Y-61262876D01*
X120714200Y-61304324D01*
X120706115Y-61344971D01*
X120690255Y-61383261D01*
X120667229Y-61417721D01*
X120637921Y-61447029D01*
X120603461Y-61470055D01*
X120565171Y-61485915D01*
X120524524Y-61494000D01*
X120483076Y-61494000D01*
X120442429Y-61485915D01*
X120404139Y-61470055D01*
X120369679Y-61447029D01*
X120340371Y-61417721D01*
X120317345Y-61383261D01*
X120301485Y-61344971D01*
X120293400Y-61304324D01*
X120293400Y-61262876D01*
X120301485Y-61222229D01*
X120317345Y-61183939D01*
X120340371Y-61149479D01*
X120369679Y-61120171D01*
X120404139Y-61097145D01*
X120442429Y-61081285D01*
X120483076Y-61073200D01*
X120524524Y-61073200D01*
X120565171Y-61081285D01*
X120565171Y-61081285D01*
G37*
G36*
X112404480Y-61143540D02*
G01*
X111543680Y-61143540D01*
X111543680Y-60222740D01*
X112404480Y-60222740D01*
X112404480Y-61143540D01*
X112404480Y-61143540D01*
G37*
G36*
X113764480Y-61143540D02*
G01*
X112903680Y-61143540D01*
X112903680Y-60222740D01*
X113764480Y-60222740D01*
X113764480Y-61143540D01*
X113764480Y-61143540D01*
G37*
G36*
X118965171Y-60281285D02*
G01*
X119003461Y-60297145D01*
X119037921Y-60320171D01*
X119067229Y-60349479D01*
X119090255Y-60383939D01*
X119106115Y-60422229D01*
X119114200Y-60462876D01*
X119114200Y-60504324D01*
X119106115Y-60544971D01*
X119090255Y-60583261D01*
X119067229Y-60617721D01*
X119037921Y-60647029D01*
X119003461Y-60670055D01*
X118965171Y-60685915D01*
X118924524Y-60694000D01*
X118883076Y-60694000D01*
X118842429Y-60685915D01*
X118804139Y-60670055D01*
X118769679Y-60647029D01*
X118740371Y-60617721D01*
X118717345Y-60583261D01*
X118701485Y-60544971D01*
X118693400Y-60504324D01*
X118693400Y-60462876D01*
X118701485Y-60422229D01*
X118717345Y-60383939D01*
X118740371Y-60349479D01*
X118769679Y-60320171D01*
X118804139Y-60297145D01*
X118842429Y-60281285D01*
X118883076Y-60273200D01*
X118924524Y-60273200D01*
X118965171Y-60281285D01*
X118965171Y-60281285D01*
G37*
G36*
X122165171Y-60281285D02*
G01*
X122203461Y-60297145D01*
X122237921Y-60320171D01*
X122267229Y-60349479D01*
X122290255Y-60383939D01*
X122306115Y-60422229D01*
X122314200Y-60462876D01*
X122314200Y-60504324D01*
X122306115Y-60544971D01*
X122290255Y-60583261D01*
X122267229Y-60617721D01*
X122237921Y-60647029D01*
X122203461Y-60670055D01*
X122165171Y-60685915D01*
X122124524Y-60694000D01*
X122083076Y-60694000D01*
X122042429Y-60685915D01*
X122004139Y-60670055D01*
X121969679Y-60647029D01*
X121940371Y-60617721D01*
X121917345Y-60583261D01*
X121901485Y-60544971D01*
X121893400Y-60504324D01*
X121893400Y-60462876D01*
X121901485Y-60422229D01*
X121917345Y-60383939D01*
X121940371Y-60349479D01*
X121969679Y-60320171D01*
X122004139Y-60297145D01*
X122042429Y-60281285D01*
X122083076Y-60273200D01*
X122124524Y-60273200D01*
X122165171Y-60281285D01*
X122165171Y-60281285D01*
G37*
G36*
X121365171Y-60281285D02*
G01*
X121403461Y-60297145D01*
X121437921Y-60320171D01*
X121467229Y-60349479D01*
X121490255Y-60383939D01*
X121506115Y-60422229D01*
X121514200Y-60462876D01*
X121514200Y-60504324D01*
X121506115Y-60544971D01*
X121490255Y-60583261D01*
X121467229Y-60617721D01*
X121437921Y-60647029D01*
X121403461Y-60670055D01*
X121365171Y-60685915D01*
X121324524Y-60694000D01*
X121283076Y-60694000D01*
X121242429Y-60685915D01*
X121204139Y-60670055D01*
X121169679Y-60647029D01*
X121140371Y-60617721D01*
X121117345Y-60583261D01*
X121101485Y-60544971D01*
X121093400Y-60504324D01*
X121093400Y-60462876D01*
X121101485Y-60422229D01*
X121117345Y-60383939D01*
X121140371Y-60349479D01*
X121169679Y-60320171D01*
X121204139Y-60297145D01*
X121242429Y-60281285D01*
X121283076Y-60273200D01*
X121324524Y-60273200D01*
X121365171Y-60281285D01*
X121365171Y-60281285D01*
G37*
G36*
X120565171Y-60281285D02*
G01*
X120603461Y-60297145D01*
X120637921Y-60320171D01*
X120667229Y-60349479D01*
X120690255Y-60383939D01*
X120706115Y-60422229D01*
X120714200Y-60462876D01*
X120714200Y-60504324D01*
X120706115Y-60544971D01*
X120690255Y-60583261D01*
X120667229Y-60617721D01*
X120637921Y-60647029D01*
X120603461Y-60670055D01*
X120565171Y-60685915D01*
X120524524Y-60694000D01*
X120483076Y-60694000D01*
X120442429Y-60685915D01*
X120404139Y-60670055D01*
X120369679Y-60647029D01*
X120340371Y-60617721D01*
X120317345Y-60583261D01*
X120301485Y-60544971D01*
X120293400Y-60504324D01*
X120293400Y-60462876D01*
X120301485Y-60422229D01*
X120317345Y-60383939D01*
X120340371Y-60349479D01*
X120369679Y-60320171D01*
X120404139Y-60297145D01*
X120442429Y-60281285D01*
X120483076Y-60273200D01*
X120524524Y-60273200D01*
X120565171Y-60281285D01*
X120565171Y-60281285D01*
G37*
G36*
X119765171Y-60281285D02*
G01*
X119803461Y-60297145D01*
X119837921Y-60320171D01*
X119867229Y-60349479D01*
X119890255Y-60383939D01*
X119906115Y-60422229D01*
X119914200Y-60462876D01*
X119914200Y-60504324D01*
X119906115Y-60544971D01*
X119890255Y-60583261D01*
X119867229Y-60617721D01*
X119837921Y-60647029D01*
X119803461Y-60670055D01*
X119765171Y-60685915D01*
X119724524Y-60694000D01*
X119683076Y-60694000D01*
X119642429Y-60685915D01*
X119604139Y-60670055D01*
X119569679Y-60647029D01*
X119540371Y-60617721D01*
X119517345Y-60583261D01*
X119501485Y-60544971D01*
X119493400Y-60504324D01*
X119493400Y-60462876D01*
X119501485Y-60422229D01*
X119517345Y-60383939D01*
X119540371Y-60349479D01*
X119569679Y-60320171D01*
X119604139Y-60297145D01*
X119642429Y-60281285D01*
X119683076Y-60273200D01*
X119724524Y-60273200D01*
X119765171Y-60281285D01*
X119765171Y-60281285D01*
G37*
G36*
X118165171Y-60281285D02*
G01*
X118203461Y-60297145D01*
X118237921Y-60320171D01*
X118267229Y-60349479D01*
X118290255Y-60383939D01*
X118306115Y-60422229D01*
X118314200Y-60462876D01*
X118314200Y-60504324D01*
X118306115Y-60544971D01*
X118290255Y-60583261D01*
X118267229Y-60617721D01*
X118237921Y-60647029D01*
X118203461Y-60670055D01*
X118165171Y-60685915D01*
X118124524Y-60694000D01*
X118083076Y-60694000D01*
X118042429Y-60685915D01*
X118004139Y-60670055D01*
X117969679Y-60647029D01*
X117940371Y-60617721D01*
X117917345Y-60583261D01*
X117901485Y-60544971D01*
X117893400Y-60504324D01*
X117893400Y-60462876D01*
X117901485Y-60422229D01*
X117917345Y-60383939D01*
X117940371Y-60349479D01*
X117969679Y-60320171D01*
X118004139Y-60297145D01*
X118042429Y-60281285D01*
X118083076Y-60273200D01*
X118124524Y-60273200D01*
X118165171Y-60281285D01*
X118165171Y-60281285D01*
G37*
G36*
X117365171Y-60281285D02*
G01*
X117403461Y-60297145D01*
X117437921Y-60320171D01*
X117467229Y-60349479D01*
X117490255Y-60383939D01*
X117506115Y-60422229D01*
X117514200Y-60462876D01*
X117514200Y-60504324D01*
X117506115Y-60544971D01*
X117490255Y-60583261D01*
X117467229Y-60617721D01*
X117437921Y-60647029D01*
X117403461Y-60670055D01*
X117365171Y-60685915D01*
X117324524Y-60694000D01*
X117283076Y-60694000D01*
X117242429Y-60685915D01*
X117204139Y-60670055D01*
X117169679Y-60647029D01*
X117140371Y-60617721D01*
X117117345Y-60583261D01*
X117101485Y-60544971D01*
X117093400Y-60504324D01*
X117093400Y-60462876D01*
X117101485Y-60422229D01*
X117117345Y-60383939D01*
X117140371Y-60349479D01*
X117169679Y-60320171D01*
X117204139Y-60297145D01*
X117242429Y-60281285D01*
X117283076Y-60273200D01*
X117324524Y-60273200D01*
X117365171Y-60281285D01*
X117365171Y-60281285D01*
G37*
G36*
X116565171Y-60281285D02*
G01*
X116603461Y-60297145D01*
X116637921Y-60320171D01*
X116667229Y-60349479D01*
X116690255Y-60383939D01*
X116706115Y-60422229D01*
X116714200Y-60462876D01*
X116714200Y-60504324D01*
X116706115Y-60544971D01*
X116690255Y-60583261D01*
X116667229Y-60617721D01*
X116637921Y-60647029D01*
X116603461Y-60670055D01*
X116565171Y-60685915D01*
X116524524Y-60694000D01*
X116483076Y-60694000D01*
X116442429Y-60685915D01*
X116404139Y-60670055D01*
X116369679Y-60647029D01*
X116340371Y-60617721D01*
X116317345Y-60583261D01*
X116301485Y-60544971D01*
X116293400Y-60504324D01*
X116293400Y-60462876D01*
X116301485Y-60422229D01*
X116317345Y-60383939D01*
X116340371Y-60349479D01*
X116369679Y-60320171D01*
X116404139Y-60297145D01*
X116442429Y-60281285D01*
X116483076Y-60273200D01*
X116524524Y-60273200D01*
X116565171Y-60281285D01*
X116565171Y-60281285D01*
G37*
G36*
X115765171Y-60281285D02*
G01*
X115803461Y-60297145D01*
X115837921Y-60320171D01*
X115867229Y-60349479D01*
X115890255Y-60383939D01*
X115906115Y-60422229D01*
X115914200Y-60462876D01*
X115914200Y-60504324D01*
X115906115Y-60544971D01*
X115890255Y-60583261D01*
X115867229Y-60617721D01*
X115837921Y-60647029D01*
X115803461Y-60670055D01*
X115765171Y-60685915D01*
X115724524Y-60694000D01*
X115683076Y-60694000D01*
X115642429Y-60685915D01*
X115604139Y-60670055D01*
X115569679Y-60647029D01*
X115540371Y-60617721D01*
X115517345Y-60583261D01*
X115501485Y-60544971D01*
X115493400Y-60504324D01*
X115493400Y-60462876D01*
X115501485Y-60422229D01*
X115517345Y-60383939D01*
X115540371Y-60349479D01*
X115569679Y-60320171D01*
X115604139Y-60297145D01*
X115642429Y-60281285D01*
X115683076Y-60273200D01*
X115724524Y-60273200D01*
X115765171Y-60281285D01*
X115765171Y-60281285D01*
G37*
G36*
X122965171Y-60281285D02*
G01*
X123003461Y-60297145D01*
X123037921Y-60320171D01*
X123067229Y-60349479D01*
X123090255Y-60383939D01*
X123106115Y-60422229D01*
X123114200Y-60462876D01*
X123114200Y-60504324D01*
X123106115Y-60544971D01*
X123090255Y-60583261D01*
X123067229Y-60617721D01*
X123037921Y-60647029D01*
X123003461Y-60670055D01*
X122965171Y-60685915D01*
X122924524Y-60694000D01*
X122883076Y-60694000D01*
X122842429Y-60685915D01*
X122804139Y-60670055D01*
X122769679Y-60647029D01*
X122740371Y-60617721D01*
X122717345Y-60583261D01*
X122701485Y-60544971D01*
X122693400Y-60504324D01*
X122693400Y-60462876D01*
X122701485Y-60422229D01*
X122717345Y-60383939D01*
X122740371Y-60349479D01*
X122769679Y-60320171D01*
X122804139Y-60297145D01*
X122842429Y-60281285D01*
X122883076Y-60273200D01*
X122924524Y-60273200D01*
X122965171Y-60281285D01*
X122965171Y-60281285D01*
G37*
G36*
X131345860Y-60523280D02*
G01*
X130525060Y-60523280D01*
X130525060Y-59762480D01*
X131345860Y-59762480D01*
X131345860Y-60523280D01*
X131345860Y-60523280D01*
G37*
G36*
X129885860Y-60523280D02*
G01*
X129065060Y-60523280D01*
X129065060Y-59762480D01*
X129885860Y-59762480D01*
X129885860Y-60523280D01*
X129885860Y-60523280D01*
G37*
G36*
X119765171Y-59481285D02*
G01*
X119803461Y-59497145D01*
X119837921Y-59520171D01*
X119867229Y-59549479D01*
X119890255Y-59583939D01*
X119906115Y-59622229D01*
X119914200Y-59662876D01*
X119914200Y-59704324D01*
X119906115Y-59744971D01*
X119890255Y-59783261D01*
X119867229Y-59817721D01*
X119837921Y-59847029D01*
X119803461Y-59870055D01*
X119765171Y-59885915D01*
X119724524Y-59894000D01*
X119683076Y-59894000D01*
X119642429Y-59885915D01*
X119604139Y-59870055D01*
X119569679Y-59847029D01*
X119540371Y-59817721D01*
X119517345Y-59783261D01*
X119501485Y-59744971D01*
X119493400Y-59704324D01*
X119493400Y-59662876D01*
X119501485Y-59622229D01*
X119517345Y-59583939D01*
X119540371Y-59549479D01*
X119569679Y-59520171D01*
X119604139Y-59497145D01*
X119642429Y-59481285D01*
X119683076Y-59473200D01*
X119724524Y-59473200D01*
X119765171Y-59481285D01*
X119765171Y-59481285D01*
G37*
G36*
X116565171Y-59481285D02*
G01*
X116603461Y-59497145D01*
X116637921Y-59520171D01*
X116667229Y-59549479D01*
X116690255Y-59583939D01*
X116706115Y-59622229D01*
X116714200Y-59662876D01*
X116714200Y-59704324D01*
X116706115Y-59744971D01*
X116690255Y-59783261D01*
X116667229Y-59817721D01*
X116637921Y-59847029D01*
X116603461Y-59870055D01*
X116565171Y-59885915D01*
X116524524Y-59894000D01*
X116483076Y-59894000D01*
X116442429Y-59885915D01*
X116404139Y-59870055D01*
X116369679Y-59847029D01*
X116340371Y-59817721D01*
X116317345Y-59783261D01*
X116301485Y-59744971D01*
X116293400Y-59704324D01*
X116293400Y-59662876D01*
X116301485Y-59622229D01*
X116317345Y-59583939D01*
X116340371Y-59549479D01*
X116369679Y-59520171D01*
X116404139Y-59497145D01*
X116442429Y-59481285D01*
X116483076Y-59473200D01*
X116524524Y-59473200D01*
X116565171Y-59481285D01*
X116565171Y-59481285D01*
G37*
G36*
X118165171Y-59481285D02*
G01*
X118203461Y-59497145D01*
X118237921Y-59520171D01*
X118267229Y-59549479D01*
X118290255Y-59583939D01*
X118306115Y-59622229D01*
X118314200Y-59662876D01*
X118314200Y-59704324D01*
X118306115Y-59744971D01*
X118290255Y-59783261D01*
X118267229Y-59817721D01*
X118237921Y-59847029D01*
X118203461Y-59870055D01*
X118165171Y-59885915D01*
X118124524Y-59894000D01*
X118083076Y-59894000D01*
X118042429Y-59885915D01*
X118004139Y-59870055D01*
X117969679Y-59847029D01*
X117940371Y-59817721D01*
X117917345Y-59783261D01*
X117901485Y-59744971D01*
X117893400Y-59704324D01*
X117893400Y-59662876D01*
X117901485Y-59622229D01*
X117917345Y-59583939D01*
X117940371Y-59549479D01*
X117969679Y-59520171D01*
X118004139Y-59497145D01*
X118042429Y-59481285D01*
X118083076Y-59473200D01*
X118124524Y-59473200D01*
X118165171Y-59481285D01*
X118165171Y-59481285D01*
G37*
G36*
X118965171Y-59481285D02*
G01*
X119003461Y-59497145D01*
X119037921Y-59520171D01*
X119067229Y-59549479D01*
X119090255Y-59583939D01*
X119106115Y-59622229D01*
X119114200Y-59662876D01*
X119114200Y-59704324D01*
X119106115Y-59744971D01*
X119090255Y-59783261D01*
X119067229Y-59817721D01*
X119037921Y-59847029D01*
X119003461Y-59870055D01*
X118965171Y-59885915D01*
X118924524Y-59894000D01*
X118883076Y-59894000D01*
X118842429Y-59885915D01*
X118804139Y-59870055D01*
X118769679Y-59847029D01*
X118740371Y-59817721D01*
X118717345Y-59783261D01*
X118701485Y-59744971D01*
X118693400Y-59704324D01*
X118693400Y-59662876D01*
X118701485Y-59622229D01*
X118717345Y-59583939D01*
X118740371Y-59549479D01*
X118769679Y-59520171D01*
X118804139Y-59497145D01*
X118842429Y-59481285D01*
X118883076Y-59473200D01*
X118924524Y-59473200D01*
X118965171Y-59481285D01*
X118965171Y-59481285D01*
G37*
G36*
X121365171Y-59481285D02*
G01*
X121403461Y-59497145D01*
X121437921Y-59520171D01*
X121467229Y-59549479D01*
X121490255Y-59583939D01*
X121506115Y-59622229D01*
X121514200Y-59662876D01*
X121514200Y-59704324D01*
X121506115Y-59744971D01*
X121490255Y-59783261D01*
X121467229Y-59817721D01*
X121437921Y-59847029D01*
X121403461Y-59870055D01*
X121365171Y-59885915D01*
X121324524Y-59894000D01*
X121283076Y-59894000D01*
X121242429Y-59885915D01*
X121204139Y-59870055D01*
X121169679Y-59847029D01*
X121140371Y-59817721D01*
X121117345Y-59783261D01*
X121101485Y-59744971D01*
X121093400Y-59704324D01*
X121093400Y-59662876D01*
X121101485Y-59622229D01*
X121117345Y-59583939D01*
X121140371Y-59549479D01*
X121169679Y-59520171D01*
X121204139Y-59497145D01*
X121242429Y-59481285D01*
X121283076Y-59473200D01*
X121324524Y-59473200D01*
X121365171Y-59481285D01*
X121365171Y-59481285D01*
G37*
G36*
X117365171Y-59481285D02*
G01*
X117403461Y-59497145D01*
X117437921Y-59520171D01*
X117467229Y-59549479D01*
X117490255Y-59583939D01*
X117506115Y-59622229D01*
X117514200Y-59662876D01*
X117514200Y-59704324D01*
X117506115Y-59744971D01*
X117490255Y-59783261D01*
X117467229Y-59817721D01*
X117437921Y-59847029D01*
X117403461Y-59870055D01*
X117365171Y-59885915D01*
X117324524Y-59894000D01*
X117283076Y-59894000D01*
X117242429Y-59885915D01*
X117204139Y-59870055D01*
X117169679Y-59847029D01*
X117140371Y-59817721D01*
X117117345Y-59783261D01*
X117101485Y-59744971D01*
X117093400Y-59704324D01*
X117093400Y-59662876D01*
X117101485Y-59622229D01*
X117117345Y-59583939D01*
X117140371Y-59549479D01*
X117169679Y-59520171D01*
X117204139Y-59497145D01*
X117242429Y-59481285D01*
X117283076Y-59473200D01*
X117324524Y-59473200D01*
X117365171Y-59481285D01*
X117365171Y-59481285D01*
G37*
G36*
X115765171Y-59481285D02*
G01*
X115803461Y-59497145D01*
X115837921Y-59520171D01*
X115867229Y-59549479D01*
X115890255Y-59583939D01*
X115906115Y-59622229D01*
X115914200Y-59662876D01*
X115914200Y-59704324D01*
X115906115Y-59744971D01*
X115890255Y-59783261D01*
X115867229Y-59817721D01*
X115837921Y-59847029D01*
X115803461Y-59870055D01*
X115765171Y-59885915D01*
X115724524Y-59894000D01*
X115683076Y-59894000D01*
X115642429Y-59885915D01*
X115604139Y-59870055D01*
X115569679Y-59847029D01*
X115540371Y-59817721D01*
X115517345Y-59783261D01*
X115501485Y-59744971D01*
X115493400Y-59704324D01*
X115493400Y-59662876D01*
X115501485Y-59622229D01*
X115517345Y-59583939D01*
X115540371Y-59549479D01*
X115569679Y-59520171D01*
X115604139Y-59497145D01*
X115642429Y-59481285D01*
X115683076Y-59473200D01*
X115724524Y-59473200D01*
X115765171Y-59481285D01*
X115765171Y-59481285D01*
G37*
G36*
X122165171Y-59481285D02*
G01*
X122203461Y-59497145D01*
X122237921Y-59520171D01*
X122267229Y-59549479D01*
X122290255Y-59583939D01*
X122306115Y-59622229D01*
X122314200Y-59662876D01*
X122314200Y-59704324D01*
X122306115Y-59744971D01*
X122290255Y-59783261D01*
X122267229Y-59817721D01*
X122237921Y-59847029D01*
X122203461Y-59870055D01*
X122165171Y-59885915D01*
X122124524Y-59894000D01*
X122083076Y-59894000D01*
X122042429Y-59885915D01*
X122004139Y-59870055D01*
X121969679Y-59847029D01*
X121940371Y-59817721D01*
X121917345Y-59783261D01*
X121901485Y-59744971D01*
X121893400Y-59704324D01*
X121893400Y-59662876D01*
X121901485Y-59622229D01*
X121917345Y-59583939D01*
X121940371Y-59549479D01*
X121969679Y-59520171D01*
X122004139Y-59497145D01*
X122042429Y-59481285D01*
X122083076Y-59473200D01*
X122124524Y-59473200D01*
X122165171Y-59481285D01*
X122165171Y-59481285D01*
G37*
G36*
X122965171Y-59481285D02*
G01*
X123003461Y-59497145D01*
X123037921Y-59520171D01*
X123067229Y-59549479D01*
X123090255Y-59583939D01*
X123106115Y-59622229D01*
X123114200Y-59662876D01*
X123114200Y-59704324D01*
X123106115Y-59744971D01*
X123090255Y-59783261D01*
X123067229Y-59817721D01*
X123037921Y-59847029D01*
X123003461Y-59870055D01*
X122965171Y-59885915D01*
X122924524Y-59894000D01*
X122883076Y-59894000D01*
X122842429Y-59885915D01*
X122804139Y-59870055D01*
X122769679Y-59847029D01*
X122740371Y-59817721D01*
X122717345Y-59783261D01*
X122701485Y-59744971D01*
X122693400Y-59704324D01*
X122693400Y-59662876D01*
X122701485Y-59622229D01*
X122717345Y-59583939D01*
X122740371Y-59549479D01*
X122769679Y-59520171D01*
X122804139Y-59497145D01*
X122842429Y-59481285D01*
X122883076Y-59473200D01*
X122924524Y-59473200D01*
X122965171Y-59481285D01*
X122965171Y-59481285D01*
G37*
G36*
X120565171Y-59481285D02*
G01*
X120603461Y-59497145D01*
X120637921Y-59520171D01*
X120667229Y-59549479D01*
X120690255Y-59583939D01*
X120706115Y-59622229D01*
X120714200Y-59662876D01*
X120714200Y-59704324D01*
X120706115Y-59744971D01*
X120690255Y-59783261D01*
X120667229Y-59817721D01*
X120637921Y-59847029D01*
X120603461Y-59870055D01*
X120565171Y-59885915D01*
X120524524Y-59894000D01*
X120483076Y-59894000D01*
X120442429Y-59885915D01*
X120404139Y-59870055D01*
X120369679Y-59847029D01*
X120340371Y-59817721D01*
X120317345Y-59783261D01*
X120301485Y-59744971D01*
X120293400Y-59704324D01*
X120293400Y-59662876D01*
X120301485Y-59622229D01*
X120317345Y-59583939D01*
X120340371Y-59549479D01*
X120369679Y-59520171D01*
X120404139Y-59497145D01*
X120442429Y-59481285D01*
X120483076Y-59473200D01*
X120524524Y-59473200D01*
X120565171Y-59481285D01*
X120565171Y-59481285D01*
G37*
G36*
X126447220Y-59491920D02*
G01*
X125816420Y-59491920D01*
X125816420Y-58811120D01*
X126447220Y-58811120D01*
X126447220Y-59491920D01*
X126447220Y-59491920D01*
G37*
G36*
X125557220Y-59491920D02*
G01*
X124926420Y-59491920D01*
X124926420Y-58811120D01*
X125557220Y-58811120D01*
X125557220Y-59491920D01*
X125557220Y-59491920D01*
G37*
G36*
X130003100Y-59235940D02*
G01*
X129462300Y-59235940D01*
X129462300Y-58625140D01*
X130003100Y-58625140D01*
X130003100Y-59235940D01*
X130003100Y-59235940D01*
G37*
G36*
X130913100Y-59235940D02*
G01*
X130372300Y-59235940D01*
X130372300Y-58625140D01*
X130913100Y-58625140D01*
X130913100Y-59235940D01*
X130913100Y-59235940D01*
G37*
G36*
X122165171Y-58681285D02*
G01*
X122203461Y-58697145D01*
X122237921Y-58720171D01*
X122267229Y-58749479D01*
X122290255Y-58783939D01*
X122306115Y-58822229D01*
X122314200Y-58862876D01*
X122314200Y-58904324D01*
X122306115Y-58944971D01*
X122290255Y-58983261D01*
X122267229Y-59017721D01*
X122237921Y-59047029D01*
X122203461Y-59070055D01*
X122165171Y-59085915D01*
X122124524Y-59094000D01*
X122083076Y-59094000D01*
X122042429Y-59085915D01*
X122004139Y-59070055D01*
X121969679Y-59047029D01*
X121940371Y-59017721D01*
X121917345Y-58983261D01*
X121901485Y-58944971D01*
X121893400Y-58904324D01*
X121893400Y-58862876D01*
X121901485Y-58822229D01*
X121917345Y-58783939D01*
X121940371Y-58749479D01*
X121969679Y-58720171D01*
X122004139Y-58697145D01*
X122042429Y-58681285D01*
X122083076Y-58673200D01*
X122124524Y-58673200D01*
X122165171Y-58681285D01*
X122165171Y-58681285D01*
G37*
G36*
X115765171Y-58681285D02*
G01*
X115803461Y-58697145D01*
X115837921Y-58720171D01*
X115867229Y-58749479D01*
X115890255Y-58783939D01*
X115906115Y-58822229D01*
X115914200Y-58862876D01*
X115914200Y-58904324D01*
X115906115Y-58944971D01*
X115890255Y-58983261D01*
X115867229Y-59017721D01*
X115837921Y-59047029D01*
X115803461Y-59070055D01*
X115765171Y-59085915D01*
X115724524Y-59094000D01*
X115683076Y-59094000D01*
X115642429Y-59085915D01*
X115604139Y-59070055D01*
X115569679Y-59047029D01*
X115540371Y-59017721D01*
X115517345Y-58983261D01*
X115501485Y-58944971D01*
X115493400Y-58904324D01*
X115493400Y-58862876D01*
X115501485Y-58822229D01*
X115517345Y-58783939D01*
X115540371Y-58749479D01*
X115569679Y-58720171D01*
X115604139Y-58697145D01*
X115642429Y-58681285D01*
X115683076Y-58673200D01*
X115724524Y-58673200D01*
X115765171Y-58681285D01*
X115765171Y-58681285D01*
G37*
G36*
X116565171Y-58681285D02*
G01*
X116603461Y-58697145D01*
X116637921Y-58720171D01*
X116667229Y-58749479D01*
X116690255Y-58783939D01*
X116706115Y-58822229D01*
X116714200Y-58862876D01*
X116714200Y-58904324D01*
X116706115Y-58944971D01*
X116690255Y-58983261D01*
X116667229Y-59017721D01*
X116637921Y-59047029D01*
X116603461Y-59070055D01*
X116565171Y-59085915D01*
X116524524Y-59094000D01*
X116483076Y-59094000D01*
X116442429Y-59085915D01*
X116404139Y-59070055D01*
X116369679Y-59047029D01*
X116340371Y-59017721D01*
X116317345Y-58983261D01*
X116301485Y-58944971D01*
X116293400Y-58904324D01*
X116293400Y-58862876D01*
X116301485Y-58822229D01*
X116317345Y-58783939D01*
X116340371Y-58749479D01*
X116369679Y-58720171D01*
X116404139Y-58697145D01*
X116442429Y-58681285D01*
X116483076Y-58673200D01*
X116524524Y-58673200D01*
X116565171Y-58681285D01*
X116565171Y-58681285D01*
G37*
G36*
X117365171Y-58681285D02*
G01*
X117403461Y-58697145D01*
X117437921Y-58720171D01*
X117467229Y-58749479D01*
X117490255Y-58783939D01*
X117506115Y-58822229D01*
X117514200Y-58862876D01*
X117514200Y-58904324D01*
X117506115Y-58944971D01*
X117490255Y-58983261D01*
X117467229Y-59017721D01*
X117437921Y-59047029D01*
X117403461Y-59070055D01*
X117365171Y-59085915D01*
X117324524Y-59094000D01*
X117283076Y-59094000D01*
X117242429Y-59085915D01*
X117204139Y-59070055D01*
X117169679Y-59047029D01*
X117140371Y-59017721D01*
X117117345Y-58983261D01*
X117101485Y-58944971D01*
X117093400Y-58904324D01*
X117093400Y-58862876D01*
X117101485Y-58822229D01*
X117117345Y-58783939D01*
X117140371Y-58749479D01*
X117169679Y-58720171D01*
X117204139Y-58697145D01*
X117242429Y-58681285D01*
X117283076Y-58673200D01*
X117324524Y-58673200D01*
X117365171Y-58681285D01*
X117365171Y-58681285D01*
G37*
G36*
X118165171Y-58681285D02*
G01*
X118203461Y-58697145D01*
X118237921Y-58720171D01*
X118267229Y-58749479D01*
X118290255Y-58783939D01*
X118306115Y-58822229D01*
X118314200Y-58862876D01*
X118314200Y-58904324D01*
X118306115Y-58944971D01*
X118290255Y-58983261D01*
X118267229Y-59017721D01*
X118237921Y-59047029D01*
X118203461Y-59070055D01*
X118165171Y-59085915D01*
X118124524Y-59094000D01*
X118083076Y-59094000D01*
X118042429Y-59085915D01*
X118004139Y-59070055D01*
X117969679Y-59047029D01*
X117940371Y-59017721D01*
X117917345Y-58983261D01*
X117901485Y-58944971D01*
X117893400Y-58904324D01*
X117893400Y-58862876D01*
X117901485Y-58822229D01*
X117917345Y-58783939D01*
X117940371Y-58749479D01*
X117969679Y-58720171D01*
X118004139Y-58697145D01*
X118042429Y-58681285D01*
X118083076Y-58673200D01*
X118124524Y-58673200D01*
X118165171Y-58681285D01*
X118165171Y-58681285D01*
G37*
G36*
X118965171Y-58681285D02*
G01*
X119003461Y-58697145D01*
X119037921Y-58720171D01*
X119067229Y-58749479D01*
X119090255Y-58783939D01*
X119106115Y-58822229D01*
X119114200Y-58862876D01*
X119114200Y-58904324D01*
X119106115Y-58944971D01*
X119090255Y-58983261D01*
X119067229Y-59017721D01*
X119037921Y-59047029D01*
X119003461Y-59070055D01*
X118965171Y-59085915D01*
X118924524Y-59094000D01*
X118883076Y-59094000D01*
X118842429Y-59085915D01*
X118804139Y-59070055D01*
X118769679Y-59047029D01*
X118740371Y-59017721D01*
X118717345Y-58983261D01*
X118701485Y-58944971D01*
X118693400Y-58904324D01*
X118693400Y-58862876D01*
X118701485Y-58822229D01*
X118717345Y-58783939D01*
X118740371Y-58749479D01*
X118769679Y-58720171D01*
X118804139Y-58697145D01*
X118842429Y-58681285D01*
X118883076Y-58673200D01*
X118924524Y-58673200D01*
X118965171Y-58681285D01*
X118965171Y-58681285D01*
G37*
G36*
X121365171Y-58681285D02*
G01*
X121403461Y-58697145D01*
X121437921Y-58720171D01*
X121467229Y-58749479D01*
X121490255Y-58783939D01*
X121506115Y-58822229D01*
X121514200Y-58862876D01*
X121514200Y-58904324D01*
X121506115Y-58944971D01*
X121490255Y-58983261D01*
X121467229Y-59017721D01*
X121437921Y-59047029D01*
X121403461Y-59070055D01*
X121365171Y-59085915D01*
X121324524Y-59094000D01*
X121283076Y-59094000D01*
X121242429Y-59085915D01*
X121204139Y-59070055D01*
X121169679Y-59047029D01*
X121140371Y-59017721D01*
X121117345Y-58983261D01*
X121101485Y-58944971D01*
X121093400Y-58904324D01*
X121093400Y-58862876D01*
X121101485Y-58822229D01*
X121117345Y-58783939D01*
X121140371Y-58749479D01*
X121169679Y-58720171D01*
X121204139Y-58697145D01*
X121242429Y-58681285D01*
X121283076Y-58673200D01*
X121324524Y-58673200D01*
X121365171Y-58681285D01*
X121365171Y-58681285D01*
G37*
G36*
X122965171Y-58681285D02*
G01*
X123003461Y-58697145D01*
X123037921Y-58720171D01*
X123067229Y-58749479D01*
X123090255Y-58783939D01*
X123106115Y-58822229D01*
X123114200Y-58862876D01*
X123114200Y-58904324D01*
X123106115Y-58944971D01*
X123090255Y-58983261D01*
X123067229Y-59017721D01*
X123037921Y-59047029D01*
X123003461Y-59070055D01*
X122965171Y-59085915D01*
X122924524Y-59094000D01*
X122883076Y-59094000D01*
X122842429Y-59085915D01*
X122804139Y-59070055D01*
X122769679Y-59047029D01*
X122740371Y-59017721D01*
X122717345Y-58983261D01*
X122701485Y-58944971D01*
X122693400Y-58904324D01*
X122693400Y-58862876D01*
X122701485Y-58822229D01*
X122717345Y-58783939D01*
X122740371Y-58749479D01*
X122769679Y-58720171D01*
X122804139Y-58697145D01*
X122842429Y-58681285D01*
X122883076Y-58673200D01*
X122924524Y-58673200D01*
X122965171Y-58681285D01*
X122965171Y-58681285D01*
G37*
G36*
X119765171Y-58681285D02*
G01*
X119803461Y-58697145D01*
X119837921Y-58720171D01*
X119867229Y-58749479D01*
X119890255Y-58783939D01*
X119906115Y-58822229D01*
X119914200Y-58862876D01*
X119914200Y-58904324D01*
X119906115Y-58944971D01*
X119890255Y-58983261D01*
X119867229Y-59017721D01*
X119837921Y-59047029D01*
X119803461Y-59070055D01*
X119765171Y-59085915D01*
X119724524Y-59094000D01*
X119683076Y-59094000D01*
X119642429Y-59085915D01*
X119604139Y-59070055D01*
X119569679Y-59047029D01*
X119540371Y-59017721D01*
X119517345Y-58983261D01*
X119501485Y-58944971D01*
X119493400Y-58904324D01*
X119493400Y-58862876D01*
X119501485Y-58822229D01*
X119517345Y-58783939D01*
X119540371Y-58749479D01*
X119569679Y-58720171D01*
X119604139Y-58697145D01*
X119642429Y-58681285D01*
X119683076Y-58673200D01*
X119724524Y-58673200D01*
X119765171Y-58681285D01*
X119765171Y-58681285D01*
G37*
G36*
X120565171Y-58681285D02*
G01*
X120603461Y-58697145D01*
X120637921Y-58720171D01*
X120667229Y-58749479D01*
X120690255Y-58783939D01*
X120706115Y-58822229D01*
X120714200Y-58862876D01*
X120714200Y-58904324D01*
X120706115Y-58944971D01*
X120690255Y-58983261D01*
X120667229Y-59017721D01*
X120637921Y-59047029D01*
X120603461Y-59070055D01*
X120565171Y-59085915D01*
X120524524Y-59094000D01*
X120483076Y-59094000D01*
X120442429Y-59085915D01*
X120404139Y-59070055D01*
X120369679Y-59047029D01*
X120340371Y-59017721D01*
X120317345Y-58983261D01*
X120301485Y-58944971D01*
X120293400Y-58904324D01*
X120293400Y-58862876D01*
X120301485Y-58822229D01*
X120317345Y-58783939D01*
X120340371Y-58749479D01*
X120369679Y-58720171D01*
X120404139Y-58697145D01*
X120442429Y-58681285D01*
X120483076Y-58673200D01*
X120524524Y-58673200D01*
X120565171Y-58681285D01*
X120565171Y-58681285D01*
G37*
G36*
X113757580Y-59042960D02*
G01*
X112896780Y-59042960D01*
X112896780Y-58122160D01*
X113757580Y-58122160D01*
X113757580Y-59042960D01*
X113757580Y-59042960D01*
G37*
G36*
X112397580Y-59042960D02*
G01*
X111536780Y-59042960D01*
X111536780Y-58122160D01*
X112397580Y-58122160D01*
X112397580Y-59042960D01*
X112397580Y-59042960D01*
G37*
G36*
X103968500Y-58389300D02*
G01*
X102217700Y-58389300D01*
X102217700Y-56638500D01*
X103968500Y-56638500D01*
X103968500Y-58389300D01*
X103968500Y-58389300D01*
G37*
G36*
X118165171Y-57881285D02*
G01*
X118203461Y-57897145D01*
X118237921Y-57920171D01*
X118267229Y-57949479D01*
X118290255Y-57983939D01*
X118306115Y-58022229D01*
X118314200Y-58062876D01*
X118314200Y-58104324D01*
X118306115Y-58144971D01*
X118290255Y-58183261D01*
X118267229Y-58217721D01*
X118237921Y-58247029D01*
X118203461Y-58270055D01*
X118165171Y-58285915D01*
X118124524Y-58294000D01*
X118083076Y-58294000D01*
X118042429Y-58285915D01*
X118004139Y-58270055D01*
X117969679Y-58247029D01*
X117940371Y-58217721D01*
X117917345Y-58183261D01*
X117901485Y-58144971D01*
X117893400Y-58104324D01*
X117893400Y-58062876D01*
X117901485Y-58022229D01*
X117917345Y-57983939D01*
X117940371Y-57949479D01*
X117969679Y-57920171D01*
X118004139Y-57897145D01*
X118042429Y-57881285D01*
X118083076Y-57873200D01*
X118124524Y-57873200D01*
X118165171Y-57881285D01*
X118165171Y-57881285D01*
G37*
G36*
X116565171Y-57881285D02*
G01*
X116603461Y-57897145D01*
X116637921Y-57920171D01*
X116667229Y-57949479D01*
X116690255Y-57983939D01*
X116706115Y-58022229D01*
X116714200Y-58062876D01*
X116714200Y-58104324D01*
X116706115Y-58144971D01*
X116690255Y-58183261D01*
X116667229Y-58217721D01*
X116637921Y-58247029D01*
X116603461Y-58270055D01*
X116565171Y-58285915D01*
X116524524Y-58294000D01*
X116483076Y-58294000D01*
X116442429Y-58285915D01*
X116404139Y-58270055D01*
X116369679Y-58247029D01*
X116340371Y-58217721D01*
X116317345Y-58183261D01*
X116301485Y-58144971D01*
X116293400Y-58104324D01*
X116293400Y-58062876D01*
X116301485Y-58022229D01*
X116317345Y-57983939D01*
X116340371Y-57949479D01*
X116369679Y-57920171D01*
X116404139Y-57897145D01*
X116442429Y-57881285D01*
X116483076Y-57873200D01*
X116524524Y-57873200D01*
X116565171Y-57881285D01*
X116565171Y-57881285D01*
G37*
G36*
X115765171Y-57881285D02*
G01*
X115803461Y-57897145D01*
X115837921Y-57920171D01*
X115867229Y-57949479D01*
X115890255Y-57983939D01*
X115906115Y-58022229D01*
X115914200Y-58062876D01*
X115914200Y-58104324D01*
X115906115Y-58144971D01*
X115890255Y-58183261D01*
X115867229Y-58217721D01*
X115837921Y-58247029D01*
X115803461Y-58270055D01*
X115765171Y-58285915D01*
X115724524Y-58294000D01*
X115683076Y-58294000D01*
X115642429Y-58285915D01*
X115604139Y-58270055D01*
X115569679Y-58247029D01*
X115540371Y-58217721D01*
X115517345Y-58183261D01*
X115501485Y-58144971D01*
X115493400Y-58104324D01*
X115493400Y-58062876D01*
X115501485Y-58022229D01*
X115517345Y-57983939D01*
X115540371Y-57949479D01*
X115569679Y-57920171D01*
X115604139Y-57897145D01*
X115642429Y-57881285D01*
X115683076Y-57873200D01*
X115724524Y-57873200D01*
X115765171Y-57881285D01*
X115765171Y-57881285D01*
G37*
G36*
X122965171Y-57881285D02*
G01*
X123003461Y-57897145D01*
X123037921Y-57920171D01*
X123067229Y-57949479D01*
X123090255Y-57983939D01*
X123106115Y-58022229D01*
X123114200Y-58062876D01*
X123114200Y-58104324D01*
X123106115Y-58144971D01*
X123090255Y-58183261D01*
X123067229Y-58217721D01*
X123037921Y-58247029D01*
X123003461Y-58270055D01*
X122965171Y-58285915D01*
X122924524Y-58294000D01*
X122883076Y-58294000D01*
X122842429Y-58285915D01*
X122804139Y-58270055D01*
X122769679Y-58247029D01*
X122740371Y-58217721D01*
X122717345Y-58183261D01*
X122701485Y-58144971D01*
X122693400Y-58104324D01*
X122693400Y-58062876D01*
X122701485Y-58022229D01*
X122717345Y-57983939D01*
X122740371Y-57949479D01*
X122769679Y-57920171D01*
X122804139Y-57897145D01*
X122842429Y-57881285D01*
X122883076Y-57873200D01*
X122924524Y-57873200D01*
X122965171Y-57881285D01*
X122965171Y-57881285D01*
G37*
G36*
X117365171Y-57881285D02*
G01*
X117403461Y-57897145D01*
X117437921Y-57920171D01*
X117467229Y-57949479D01*
X117490255Y-57983939D01*
X117506115Y-58022229D01*
X117514200Y-58062876D01*
X117514200Y-58104324D01*
X117506115Y-58144971D01*
X117490255Y-58183261D01*
X117467229Y-58217721D01*
X117437921Y-58247029D01*
X117403461Y-58270055D01*
X117365171Y-58285915D01*
X117324524Y-58294000D01*
X117283076Y-58294000D01*
X117242429Y-58285915D01*
X117204139Y-58270055D01*
X117169679Y-58247029D01*
X117140371Y-58217721D01*
X117117345Y-58183261D01*
X117101485Y-58144971D01*
X117093400Y-58104324D01*
X117093400Y-58062876D01*
X117101485Y-58022229D01*
X117117345Y-57983939D01*
X117140371Y-57949479D01*
X117169679Y-57920171D01*
X117204139Y-57897145D01*
X117242429Y-57881285D01*
X117283076Y-57873200D01*
X117324524Y-57873200D01*
X117365171Y-57881285D01*
X117365171Y-57881285D01*
G37*
G36*
X119765171Y-57881285D02*
G01*
X119803461Y-57897145D01*
X119837921Y-57920171D01*
X119867229Y-57949479D01*
X119890255Y-57983939D01*
X119906115Y-58022229D01*
X119914200Y-58062876D01*
X119914200Y-58104324D01*
X119906115Y-58144971D01*
X119890255Y-58183261D01*
X119867229Y-58217721D01*
X119837921Y-58247029D01*
X119803461Y-58270055D01*
X119765171Y-58285915D01*
X119724524Y-58294000D01*
X119683076Y-58294000D01*
X119642429Y-58285915D01*
X119604139Y-58270055D01*
X119569679Y-58247029D01*
X119540371Y-58217721D01*
X119517345Y-58183261D01*
X119501485Y-58144971D01*
X119493400Y-58104324D01*
X119493400Y-58062876D01*
X119501485Y-58022229D01*
X119517345Y-57983939D01*
X119540371Y-57949479D01*
X119569679Y-57920171D01*
X119604139Y-57897145D01*
X119642429Y-57881285D01*
X119683076Y-57873200D01*
X119724524Y-57873200D01*
X119765171Y-57881285D01*
X119765171Y-57881285D01*
G37*
G36*
X121365171Y-57881285D02*
G01*
X121403461Y-57897145D01*
X121437921Y-57920171D01*
X121467229Y-57949479D01*
X121490255Y-57983939D01*
X121506115Y-58022229D01*
X121514200Y-58062876D01*
X121514200Y-58104324D01*
X121506115Y-58144971D01*
X121490255Y-58183261D01*
X121467229Y-58217721D01*
X121437921Y-58247029D01*
X121403461Y-58270055D01*
X121365171Y-58285915D01*
X121324524Y-58294000D01*
X121283076Y-58294000D01*
X121242429Y-58285915D01*
X121204139Y-58270055D01*
X121169679Y-58247029D01*
X121140371Y-58217721D01*
X121117345Y-58183261D01*
X121101485Y-58144971D01*
X121093400Y-58104324D01*
X121093400Y-58062876D01*
X121101485Y-58022229D01*
X121117345Y-57983939D01*
X121140371Y-57949479D01*
X121169679Y-57920171D01*
X121204139Y-57897145D01*
X121242429Y-57881285D01*
X121283076Y-57873200D01*
X121324524Y-57873200D01*
X121365171Y-57881285D01*
X121365171Y-57881285D01*
G37*
G36*
X122165171Y-57881285D02*
G01*
X122203461Y-57897145D01*
X122237921Y-57920171D01*
X122267229Y-57949479D01*
X122290255Y-57983939D01*
X122306115Y-58022229D01*
X122314200Y-58062876D01*
X122314200Y-58104324D01*
X122306115Y-58144971D01*
X122290255Y-58183261D01*
X122267229Y-58217721D01*
X122237921Y-58247029D01*
X122203461Y-58270055D01*
X122165171Y-58285915D01*
X122124524Y-58294000D01*
X122083076Y-58294000D01*
X122042429Y-58285915D01*
X122004139Y-58270055D01*
X121969679Y-58247029D01*
X121940371Y-58217721D01*
X121917345Y-58183261D01*
X121901485Y-58144971D01*
X121893400Y-58104324D01*
X121893400Y-58062876D01*
X121901485Y-58022229D01*
X121917345Y-57983939D01*
X121940371Y-57949479D01*
X121969679Y-57920171D01*
X122004139Y-57897145D01*
X122042429Y-57881285D01*
X122083076Y-57873200D01*
X122124524Y-57873200D01*
X122165171Y-57881285D01*
X122165171Y-57881285D01*
G37*
G36*
X120565171Y-57881285D02*
G01*
X120603461Y-57897145D01*
X120637921Y-57920171D01*
X120667229Y-57949479D01*
X120690255Y-57983939D01*
X120706115Y-58022229D01*
X120714200Y-58062876D01*
X120714200Y-58104324D01*
X120706115Y-58144971D01*
X120690255Y-58183261D01*
X120667229Y-58217721D01*
X120637921Y-58247029D01*
X120603461Y-58270055D01*
X120565171Y-58285915D01*
X120524524Y-58294000D01*
X120483076Y-58294000D01*
X120442429Y-58285915D01*
X120404139Y-58270055D01*
X120369679Y-58247029D01*
X120340371Y-58217721D01*
X120317345Y-58183261D01*
X120301485Y-58144971D01*
X120293400Y-58104324D01*
X120293400Y-58062876D01*
X120301485Y-58022229D01*
X120317345Y-57983939D01*
X120340371Y-57949479D01*
X120369679Y-57920171D01*
X120404139Y-57897145D01*
X120442429Y-57881285D01*
X120483076Y-57873200D01*
X120524524Y-57873200D01*
X120565171Y-57881285D01*
X120565171Y-57881285D01*
G37*
G36*
X118965171Y-57881285D02*
G01*
X119003461Y-57897145D01*
X119037921Y-57920171D01*
X119067229Y-57949479D01*
X119090255Y-57983939D01*
X119106115Y-58022229D01*
X119114200Y-58062876D01*
X119114200Y-58104324D01*
X119106115Y-58144971D01*
X119090255Y-58183261D01*
X119067229Y-58217721D01*
X119037921Y-58247029D01*
X119003461Y-58270055D01*
X118965171Y-58285915D01*
X118924524Y-58294000D01*
X118883076Y-58294000D01*
X118842429Y-58285915D01*
X118804139Y-58270055D01*
X118769679Y-58247029D01*
X118740371Y-58217721D01*
X118717345Y-58183261D01*
X118701485Y-58144971D01*
X118693400Y-58104324D01*
X118693400Y-58062876D01*
X118701485Y-58022229D01*
X118717345Y-57983939D01*
X118740371Y-57949479D01*
X118769679Y-57920171D01*
X118804139Y-57897145D01*
X118842429Y-57881285D01*
X118883076Y-57873200D01*
X118924524Y-57873200D01*
X118965171Y-57881285D01*
X118965171Y-57881285D01*
G37*
G36*
X126797220Y-58131100D02*
G01*
X125936420Y-58131100D01*
X125936420Y-57210300D01*
X126797220Y-57210300D01*
X126797220Y-58131100D01*
X126797220Y-58131100D01*
G37*
G36*
X125437220Y-58131100D02*
G01*
X124576420Y-58131100D01*
X124576420Y-57210300D01*
X125437220Y-57210300D01*
X125437220Y-58131100D01*
X125437220Y-58131100D01*
G37*
G36*
X118965171Y-57081285D02*
G01*
X119003461Y-57097145D01*
X119037921Y-57120171D01*
X119067229Y-57149479D01*
X119090255Y-57183939D01*
X119106115Y-57222229D01*
X119114200Y-57262876D01*
X119114200Y-57304324D01*
X119106115Y-57344971D01*
X119090255Y-57383261D01*
X119067229Y-57417721D01*
X119037921Y-57447029D01*
X119003461Y-57470055D01*
X118965171Y-57485915D01*
X118924524Y-57494000D01*
X118883076Y-57494000D01*
X118842429Y-57485915D01*
X118804139Y-57470055D01*
X118769679Y-57447029D01*
X118740371Y-57417721D01*
X118717345Y-57383261D01*
X118701485Y-57344971D01*
X118693400Y-57304324D01*
X118693400Y-57262876D01*
X118701485Y-57222229D01*
X118717345Y-57183939D01*
X118740371Y-57149479D01*
X118769679Y-57120171D01*
X118804139Y-57097145D01*
X118842429Y-57081285D01*
X118883076Y-57073200D01*
X118924524Y-57073200D01*
X118965171Y-57081285D01*
X118965171Y-57081285D01*
G37*
G36*
X122965171Y-57081285D02*
G01*
X123003461Y-57097145D01*
X123037921Y-57120171D01*
X123067229Y-57149479D01*
X123090255Y-57183939D01*
X123106115Y-57222229D01*
X123114200Y-57262876D01*
X123114200Y-57304324D01*
X123106115Y-57344971D01*
X123090255Y-57383261D01*
X123067229Y-57417721D01*
X123037921Y-57447029D01*
X123003461Y-57470055D01*
X122965171Y-57485915D01*
X122924524Y-57494000D01*
X122883076Y-57494000D01*
X122842429Y-57485915D01*
X122804139Y-57470055D01*
X122769679Y-57447029D01*
X122740371Y-57417721D01*
X122717345Y-57383261D01*
X122701485Y-57344971D01*
X122693400Y-57304324D01*
X122693400Y-57262876D01*
X122701485Y-57222229D01*
X122717345Y-57183939D01*
X122740371Y-57149479D01*
X122769679Y-57120171D01*
X122804139Y-57097145D01*
X122842429Y-57081285D01*
X122883076Y-57073200D01*
X122924524Y-57073200D01*
X122965171Y-57081285D01*
X122965171Y-57081285D01*
G37*
G36*
X121365171Y-57081285D02*
G01*
X121403461Y-57097145D01*
X121437921Y-57120171D01*
X121467229Y-57149479D01*
X121490255Y-57183939D01*
X121506115Y-57222229D01*
X121514200Y-57262876D01*
X121514200Y-57304324D01*
X121506115Y-57344971D01*
X121490255Y-57383261D01*
X121467229Y-57417721D01*
X121437921Y-57447029D01*
X121403461Y-57470055D01*
X121365171Y-57485915D01*
X121324524Y-57494000D01*
X121283076Y-57494000D01*
X121242429Y-57485915D01*
X121204139Y-57470055D01*
X121169679Y-57447029D01*
X121140371Y-57417721D01*
X121117345Y-57383261D01*
X121101485Y-57344971D01*
X121093400Y-57304324D01*
X121093400Y-57262876D01*
X121101485Y-57222229D01*
X121117345Y-57183939D01*
X121140371Y-57149479D01*
X121169679Y-57120171D01*
X121204139Y-57097145D01*
X121242429Y-57081285D01*
X121283076Y-57073200D01*
X121324524Y-57073200D01*
X121365171Y-57081285D01*
X121365171Y-57081285D01*
G37*
G36*
X120565171Y-57081285D02*
G01*
X120603461Y-57097145D01*
X120637921Y-57120171D01*
X120667229Y-57149479D01*
X120690255Y-57183939D01*
X120706115Y-57222229D01*
X120714200Y-57262876D01*
X120714200Y-57304324D01*
X120706115Y-57344971D01*
X120690255Y-57383261D01*
X120667229Y-57417721D01*
X120637921Y-57447029D01*
X120603461Y-57470055D01*
X120565171Y-57485915D01*
X120524524Y-57494000D01*
X120483076Y-57494000D01*
X120442429Y-57485915D01*
X120404139Y-57470055D01*
X120369679Y-57447029D01*
X120340371Y-57417721D01*
X120317345Y-57383261D01*
X120301485Y-57344971D01*
X120293400Y-57304324D01*
X120293400Y-57262876D01*
X120301485Y-57222229D01*
X120317345Y-57183939D01*
X120340371Y-57149479D01*
X120369679Y-57120171D01*
X120404139Y-57097145D01*
X120442429Y-57081285D01*
X120483076Y-57073200D01*
X120524524Y-57073200D01*
X120565171Y-57081285D01*
X120565171Y-57081285D01*
G37*
G36*
X119765171Y-57081285D02*
G01*
X119803461Y-57097145D01*
X119837921Y-57120171D01*
X119867229Y-57149479D01*
X119890255Y-57183939D01*
X119906115Y-57222229D01*
X119914200Y-57262876D01*
X119914200Y-57304324D01*
X119906115Y-57344971D01*
X119890255Y-57383261D01*
X119867229Y-57417721D01*
X119837921Y-57447029D01*
X119803461Y-57470055D01*
X119765171Y-57485915D01*
X119724524Y-57494000D01*
X119683076Y-57494000D01*
X119642429Y-57485915D01*
X119604139Y-57470055D01*
X119569679Y-57447029D01*
X119540371Y-57417721D01*
X119517345Y-57383261D01*
X119501485Y-57344971D01*
X119493400Y-57304324D01*
X119493400Y-57262876D01*
X119501485Y-57222229D01*
X119517345Y-57183939D01*
X119540371Y-57149479D01*
X119569679Y-57120171D01*
X119604139Y-57097145D01*
X119642429Y-57081285D01*
X119683076Y-57073200D01*
X119724524Y-57073200D01*
X119765171Y-57081285D01*
X119765171Y-57081285D01*
G37*
G36*
X118165171Y-57081285D02*
G01*
X118203461Y-57097145D01*
X118237921Y-57120171D01*
X118267229Y-57149479D01*
X118290255Y-57183939D01*
X118306115Y-57222229D01*
X118314200Y-57262876D01*
X118314200Y-57304324D01*
X118306115Y-57344971D01*
X118290255Y-57383261D01*
X118267229Y-57417721D01*
X118237921Y-57447029D01*
X118203461Y-57470055D01*
X118165171Y-57485915D01*
X118124524Y-57494000D01*
X118083076Y-57494000D01*
X118042429Y-57485915D01*
X118004139Y-57470055D01*
X117969679Y-57447029D01*
X117940371Y-57417721D01*
X117917345Y-57383261D01*
X117901485Y-57344971D01*
X117893400Y-57304324D01*
X117893400Y-57262876D01*
X117901485Y-57222229D01*
X117917345Y-57183939D01*
X117940371Y-57149479D01*
X117969679Y-57120171D01*
X118004139Y-57097145D01*
X118042429Y-57081285D01*
X118083076Y-57073200D01*
X118124524Y-57073200D01*
X118165171Y-57081285D01*
X118165171Y-57081285D01*
G37*
G36*
X117365171Y-57081285D02*
G01*
X117403461Y-57097145D01*
X117437921Y-57120171D01*
X117467229Y-57149479D01*
X117490255Y-57183939D01*
X117506115Y-57222229D01*
X117514200Y-57262876D01*
X117514200Y-57304324D01*
X117506115Y-57344971D01*
X117490255Y-57383261D01*
X117467229Y-57417721D01*
X117437921Y-57447029D01*
X117403461Y-57470055D01*
X117365171Y-57485915D01*
X117324524Y-57494000D01*
X117283076Y-57494000D01*
X117242429Y-57485915D01*
X117204139Y-57470055D01*
X117169679Y-57447029D01*
X117140371Y-57417721D01*
X117117345Y-57383261D01*
X117101485Y-57344971D01*
X117093400Y-57304324D01*
X117093400Y-57262876D01*
X117101485Y-57222229D01*
X117117345Y-57183939D01*
X117140371Y-57149479D01*
X117169679Y-57120171D01*
X117204139Y-57097145D01*
X117242429Y-57081285D01*
X117283076Y-57073200D01*
X117324524Y-57073200D01*
X117365171Y-57081285D01*
X117365171Y-57081285D01*
G37*
G36*
X116565171Y-57081285D02*
G01*
X116603461Y-57097145D01*
X116637921Y-57120171D01*
X116667229Y-57149479D01*
X116690255Y-57183939D01*
X116706115Y-57222229D01*
X116714200Y-57262876D01*
X116714200Y-57304324D01*
X116706115Y-57344971D01*
X116690255Y-57383261D01*
X116667229Y-57417721D01*
X116637921Y-57447029D01*
X116603461Y-57470055D01*
X116565171Y-57485915D01*
X116524524Y-57494000D01*
X116483076Y-57494000D01*
X116442429Y-57485915D01*
X116404139Y-57470055D01*
X116369679Y-57447029D01*
X116340371Y-57417721D01*
X116317345Y-57383261D01*
X116301485Y-57344971D01*
X116293400Y-57304324D01*
X116293400Y-57262876D01*
X116301485Y-57222229D01*
X116317345Y-57183939D01*
X116340371Y-57149479D01*
X116369679Y-57120171D01*
X116404139Y-57097145D01*
X116442429Y-57081285D01*
X116483076Y-57073200D01*
X116524524Y-57073200D01*
X116565171Y-57081285D01*
X116565171Y-57081285D01*
G37*
G36*
X115765171Y-57081285D02*
G01*
X115803461Y-57097145D01*
X115837921Y-57120171D01*
X115867229Y-57149479D01*
X115890255Y-57183939D01*
X115906115Y-57222229D01*
X115914200Y-57262876D01*
X115914200Y-57304324D01*
X115906115Y-57344971D01*
X115890255Y-57383261D01*
X115867229Y-57417721D01*
X115837921Y-57447029D01*
X115803461Y-57470055D01*
X115765171Y-57485915D01*
X115724524Y-57494000D01*
X115683076Y-57494000D01*
X115642429Y-57485915D01*
X115604139Y-57470055D01*
X115569679Y-57447029D01*
X115540371Y-57417721D01*
X115517345Y-57383261D01*
X115501485Y-57344971D01*
X115493400Y-57304324D01*
X115493400Y-57262876D01*
X115501485Y-57222229D01*
X115517345Y-57183939D01*
X115540371Y-57149479D01*
X115569679Y-57120171D01*
X115604139Y-57097145D01*
X115642429Y-57081285D01*
X115683076Y-57073200D01*
X115724524Y-57073200D01*
X115765171Y-57081285D01*
X115765171Y-57081285D01*
G37*
G36*
X122165171Y-57081285D02*
G01*
X122203461Y-57097145D01*
X122237921Y-57120171D01*
X122267229Y-57149479D01*
X122290255Y-57183939D01*
X122306115Y-57222229D01*
X122314200Y-57262876D01*
X122314200Y-57304324D01*
X122306115Y-57344971D01*
X122290255Y-57383261D01*
X122267229Y-57417721D01*
X122237921Y-57447029D01*
X122203461Y-57470055D01*
X122165171Y-57485915D01*
X122124524Y-57494000D01*
X122083076Y-57494000D01*
X122042429Y-57485915D01*
X122004139Y-57470055D01*
X121969679Y-57447029D01*
X121940371Y-57417721D01*
X121917345Y-57383261D01*
X121901485Y-57344971D01*
X121893400Y-57304324D01*
X121893400Y-57262876D01*
X121901485Y-57222229D01*
X121917345Y-57183939D01*
X121940371Y-57149479D01*
X121969679Y-57120171D01*
X122004139Y-57097145D01*
X122042429Y-57081285D01*
X122083076Y-57073200D01*
X122124524Y-57073200D01*
X122165171Y-57081285D01*
X122165171Y-57081285D01*
G37*
G36*
X112402660Y-57282740D02*
G01*
X111541860Y-57282740D01*
X111541860Y-56361940D01*
X112402660Y-56361940D01*
X112402660Y-57282740D01*
X112402660Y-57282740D01*
G37*
G36*
X113762660Y-57282740D02*
G01*
X112901860Y-57282740D01*
X112901860Y-56361940D01*
X113762660Y-56361940D01*
X113762660Y-57282740D01*
X113762660Y-57282740D01*
G37*
G36*
X115765171Y-56281285D02*
G01*
X115803461Y-56297145D01*
X115837921Y-56320171D01*
X115867229Y-56349479D01*
X115890255Y-56383939D01*
X115906115Y-56422229D01*
X115914200Y-56462876D01*
X115914200Y-56504324D01*
X115906115Y-56544971D01*
X115890255Y-56583261D01*
X115867229Y-56617721D01*
X115837921Y-56647029D01*
X115803461Y-56670055D01*
X115765171Y-56685915D01*
X115724524Y-56694000D01*
X115683076Y-56694000D01*
X115642429Y-56685915D01*
X115604139Y-56670055D01*
X115569679Y-56647029D01*
X115540371Y-56617721D01*
X115517345Y-56583261D01*
X115501485Y-56544971D01*
X115493400Y-56504324D01*
X115493400Y-56462876D01*
X115501485Y-56422229D01*
X115517345Y-56383939D01*
X115540371Y-56349479D01*
X115569679Y-56320171D01*
X115604139Y-56297145D01*
X115642429Y-56281285D01*
X115683076Y-56273200D01*
X115724524Y-56273200D01*
X115765171Y-56281285D01*
X115765171Y-56281285D01*
G37*
G36*
X122965171Y-56281285D02*
G01*
X123003461Y-56297145D01*
X123037921Y-56320171D01*
X123067229Y-56349479D01*
X123090255Y-56383939D01*
X123106115Y-56422229D01*
X123114200Y-56462876D01*
X123114200Y-56504324D01*
X123106115Y-56544971D01*
X123090255Y-56583261D01*
X123067229Y-56617721D01*
X123037921Y-56647029D01*
X123003461Y-56670055D01*
X122965171Y-56685915D01*
X122924524Y-56694000D01*
X122883076Y-56694000D01*
X122842429Y-56685915D01*
X122804139Y-56670055D01*
X122769679Y-56647029D01*
X122740371Y-56617721D01*
X122717345Y-56583261D01*
X122701485Y-56544971D01*
X122693400Y-56504324D01*
X122693400Y-56462876D01*
X122701485Y-56422229D01*
X122717345Y-56383939D01*
X122740371Y-56349479D01*
X122769679Y-56320171D01*
X122804139Y-56297145D01*
X122842429Y-56281285D01*
X122883076Y-56273200D01*
X122924524Y-56273200D01*
X122965171Y-56281285D01*
X122965171Y-56281285D01*
G37*
G36*
X118965171Y-56281285D02*
G01*
X119003461Y-56297145D01*
X119037921Y-56320171D01*
X119067229Y-56349479D01*
X119090255Y-56383939D01*
X119106115Y-56422229D01*
X119114200Y-56462876D01*
X119114200Y-56504324D01*
X119106115Y-56544971D01*
X119090255Y-56583261D01*
X119067229Y-56617721D01*
X119037921Y-56647029D01*
X119003461Y-56670055D01*
X118965171Y-56685915D01*
X118924524Y-56694000D01*
X118883076Y-56694000D01*
X118842429Y-56685915D01*
X118804139Y-56670055D01*
X118769679Y-56647029D01*
X118740371Y-56617721D01*
X118717345Y-56583261D01*
X118701485Y-56544971D01*
X118693400Y-56504324D01*
X118693400Y-56462876D01*
X118701485Y-56422229D01*
X118717345Y-56383939D01*
X118740371Y-56349479D01*
X118769679Y-56320171D01*
X118804139Y-56297145D01*
X118842429Y-56281285D01*
X118883076Y-56273200D01*
X118924524Y-56273200D01*
X118965171Y-56281285D01*
X118965171Y-56281285D01*
G37*
G36*
X122165171Y-56281285D02*
G01*
X122203461Y-56297145D01*
X122237921Y-56320171D01*
X122267229Y-56349479D01*
X122290255Y-56383939D01*
X122306115Y-56422229D01*
X122314200Y-56462876D01*
X122314200Y-56504324D01*
X122306115Y-56544971D01*
X122290255Y-56583261D01*
X122267229Y-56617721D01*
X122237921Y-56647029D01*
X122203461Y-56670055D01*
X122165171Y-56685915D01*
X122124524Y-56694000D01*
X122083076Y-56694000D01*
X122042429Y-56685915D01*
X122004139Y-56670055D01*
X121969679Y-56647029D01*
X121940371Y-56617721D01*
X121917345Y-56583261D01*
X121901485Y-56544971D01*
X121893400Y-56504324D01*
X121893400Y-56462876D01*
X121901485Y-56422229D01*
X121917345Y-56383939D01*
X121940371Y-56349479D01*
X121969679Y-56320171D01*
X122004139Y-56297145D01*
X122042429Y-56281285D01*
X122083076Y-56273200D01*
X122124524Y-56273200D01*
X122165171Y-56281285D01*
X122165171Y-56281285D01*
G37*
G36*
X121365171Y-56281285D02*
G01*
X121403461Y-56297145D01*
X121437921Y-56320171D01*
X121467229Y-56349479D01*
X121490255Y-56383939D01*
X121506115Y-56422229D01*
X121514200Y-56462876D01*
X121514200Y-56504324D01*
X121506115Y-56544971D01*
X121490255Y-56583261D01*
X121467229Y-56617721D01*
X121437921Y-56647029D01*
X121403461Y-56670055D01*
X121365171Y-56685915D01*
X121324524Y-56694000D01*
X121283076Y-56694000D01*
X121242429Y-56685915D01*
X121204139Y-56670055D01*
X121169679Y-56647029D01*
X121140371Y-56617721D01*
X121117345Y-56583261D01*
X121101485Y-56544971D01*
X121093400Y-56504324D01*
X121093400Y-56462876D01*
X121101485Y-56422229D01*
X121117345Y-56383939D01*
X121140371Y-56349479D01*
X121169679Y-56320171D01*
X121204139Y-56297145D01*
X121242429Y-56281285D01*
X121283076Y-56273200D01*
X121324524Y-56273200D01*
X121365171Y-56281285D01*
X121365171Y-56281285D01*
G37*
G36*
X119765171Y-56281285D02*
G01*
X119803461Y-56297145D01*
X119837921Y-56320171D01*
X119867229Y-56349479D01*
X119890255Y-56383939D01*
X119906115Y-56422229D01*
X119914200Y-56462876D01*
X119914200Y-56504324D01*
X119906115Y-56544971D01*
X119890255Y-56583261D01*
X119867229Y-56617721D01*
X119837921Y-56647029D01*
X119803461Y-56670055D01*
X119765171Y-56685915D01*
X119724524Y-56694000D01*
X119683076Y-56694000D01*
X119642429Y-56685915D01*
X119604139Y-56670055D01*
X119569679Y-56647029D01*
X119540371Y-56617721D01*
X119517345Y-56583261D01*
X119501485Y-56544971D01*
X119493400Y-56504324D01*
X119493400Y-56462876D01*
X119501485Y-56422229D01*
X119517345Y-56383939D01*
X119540371Y-56349479D01*
X119569679Y-56320171D01*
X119604139Y-56297145D01*
X119642429Y-56281285D01*
X119683076Y-56273200D01*
X119724524Y-56273200D01*
X119765171Y-56281285D01*
X119765171Y-56281285D01*
G37*
G36*
X116565171Y-56281285D02*
G01*
X116603461Y-56297145D01*
X116637921Y-56320171D01*
X116667229Y-56349479D01*
X116690255Y-56383939D01*
X116706115Y-56422229D01*
X116714200Y-56462876D01*
X116714200Y-56504324D01*
X116706115Y-56544971D01*
X116690255Y-56583261D01*
X116667229Y-56617721D01*
X116637921Y-56647029D01*
X116603461Y-56670055D01*
X116565171Y-56685915D01*
X116524524Y-56694000D01*
X116483076Y-56694000D01*
X116442429Y-56685915D01*
X116404139Y-56670055D01*
X116369679Y-56647029D01*
X116340371Y-56617721D01*
X116317345Y-56583261D01*
X116301485Y-56544971D01*
X116293400Y-56504324D01*
X116293400Y-56462876D01*
X116301485Y-56422229D01*
X116317345Y-56383939D01*
X116340371Y-56349479D01*
X116369679Y-56320171D01*
X116404139Y-56297145D01*
X116442429Y-56281285D01*
X116483076Y-56273200D01*
X116524524Y-56273200D01*
X116565171Y-56281285D01*
X116565171Y-56281285D01*
G37*
G36*
X117365171Y-56281285D02*
G01*
X117403461Y-56297145D01*
X117437921Y-56320171D01*
X117467229Y-56349479D01*
X117490255Y-56383939D01*
X117506115Y-56422229D01*
X117514200Y-56462876D01*
X117514200Y-56504324D01*
X117506115Y-56544971D01*
X117490255Y-56583261D01*
X117467229Y-56617721D01*
X117437921Y-56647029D01*
X117403461Y-56670055D01*
X117365171Y-56685915D01*
X117324524Y-56694000D01*
X117283076Y-56694000D01*
X117242429Y-56685915D01*
X117204139Y-56670055D01*
X117169679Y-56647029D01*
X117140371Y-56617721D01*
X117117345Y-56583261D01*
X117101485Y-56544971D01*
X117093400Y-56504324D01*
X117093400Y-56462876D01*
X117101485Y-56422229D01*
X117117345Y-56383939D01*
X117140371Y-56349479D01*
X117169679Y-56320171D01*
X117204139Y-56297145D01*
X117242429Y-56281285D01*
X117283076Y-56273200D01*
X117324524Y-56273200D01*
X117365171Y-56281285D01*
X117365171Y-56281285D01*
G37*
G36*
X118165171Y-56281285D02*
G01*
X118203461Y-56297145D01*
X118237921Y-56320171D01*
X118267229Y-56349479D01*
X118290255Y-56383939D01*
X118306115Y-56422229D01*
X118314200Y-56462876D01*
X118314200Y-56504324D01*
X118306115Y-56544971D01*
X118290255Y-56583261D01*
X118267229Y-56617721D01*
X118237921Y-56647029D01*
X118203461Y-56670055D01*
X118165171Y-56685915D01*
X118124524Y-56694000D01*
X118083076Y-56694000D01*
X118042429Y-56685915D01*
X118004139Y-56670055D01*
X117969679Y-56647029D01*
X117940371Y-56617721D01*
X117917345Y-56583261D01*
X117901485Y-56544971D01*
X117893400Y-56504324D01*
X117893400Y-56462876D01*
X117901485Y-56422229D01*
X117917345Y-56383939D01*
X117940371Y-56349479D01*
X117969679Y-56320171D01*
X118004139Y-56297145D01*
X118042429Y-56281285D01*
X118083076Y-56273200D01*
X118124524Y-56273200D01*
X118165171Y-56281285D01*
X118165171Y-56281285D01*
G37*
G36*
X120565171Y-56281285D02*
G01*
X120603461Y-56297145D01*
X120637921Y-56320171D01*
X120667229Y-56349479D01*
X120690255Y-56383939D01*
X120706115Y-56422229D01*
X120714200Y-56462876D01*
X120714200Y-56504324D01*
X120706115Y-56544971D01*
X120690255Y-56583261D01*
X120667229Y-56617721D01*
X120637921Y-56647029D01*
X120603461Y-56670055D01*
X120565171Y-56685915D01*
X120524524Y-56694000D01*
X120483076Y-56694000D01*
X120442429Y-56685915D01*
X120404139Y-56670055D01*
X120369679Y-56647029D01*
X120340371Y-56617721D01*
X120317345Y-56583261D01*
X120301485Y-56544971D01*
X120293400Y-56504324D01*
X120293400Y-56462876D01*
X120301485Y-56422229D01*
X120317345Y-56383939D01*
X120340371Y-56349479D01*
X120369679Y-56320171D01*
X120404139Y-56297145D01*
X120442429Y-56281285D01*
X120483076Y-56273200D01*
X120524524Y-56273200D01*
X120565171Y-56281285D01*
X120565171Y-56281285D01*
G37*
G36*
X126797220Y-56431840D02*
G01*
X125936420Y-56431840D01*
X125936420Y-55511040D01*
X126797220Y-55511040D01*
X126797220Y-56431840D01*
X126797220Y-56431840D01*
G37*
G36*
X125437220Y-56431840D02*
G01*
X124576420Y-56431840D01*
X124576420Y-55511040D01*
X125437220Y-55511040D01*
X125437220Y-56431840D01*
X125437220Y-56431840D01*
G37*
G36*
X122165171Y-55481285D02*
G01*
X122203461Y-55497145D01*
X122237921Y-55520171D01*
X122267229Y-55549479D01*
X122290255Y-55583939D01*
X122306115Y-55622229D01*
X122314200Y-55662876D01*
X122314200Y-55704324D01*
X122306115Y-55744971D01*
X122290255Y-55783261D01*
X122267229Y-55817721D01*
X122237921Y-55847029D01*
X122203461Y-55870055D01*
X122165171Y-55885915D01*
X122124524Y-55894000D01*
X122083076Y-55894000D01*
X122042429Y-55885915D01*
X122004139Y-55870055D01*
X121969679Y-55847029D01*
X121940371Y-55817721D01*
X121917345Y-55783261D01*
X121901485Y-55744971D01*
X121893400Y-55704324D01*
X121893400Y-55662876D01*
X121901485Y-55622229D01*
X121917345Y-55583939D01*
X121940371Y-55549479D01*
X121969679Y-55520171D01*
X122004139Y-55497145D01*
X122042429Y-55481285D01*
X122083076Y-55473200D01*
X122124524Y-55473200D01*
X122165171Y-55481285D01*
X122165171Y-55481285D01*
G37*
G36*
X119765171Y-55481285D02*
G01*
X119803461Y-55497145D01*
X119837921Y-55520171D01*
X119867229Y-55549479D01*
X119890255Y-55583939D01*
X119906115Y-55622229D01*
X119914200Y-55662876D01*
X119914200Y-55704324D01*
X119906115Y-55744971D01*
X119890255Y-55783261D01*
X119867229Y-55817721D01*
X119837921Y-55847029D01*
X119803461Y-55870055D01*
X119765171Y-55885915D01*
X119724524Y-55894000D01*
X119683076Y-55894000D01*
X119642429Y-55885915D01*
X119604139Y-55870055D01*
X119569679Y-55847029D01*
X119540371Y-55817721D01*
X119517345Y-55783261D01*
X119501485Y-55744971D01*
X119493400Y-55704324D01*
X119493400Y-55662876D01*
X119501485Y-55622229D01*
X119517345Y-55583939D01*
X119540371Y-55549479D01*
X119569679Y-55520171D01*
X119604139Y-55497145D01*
X119642429Y-55481285D01*
X119683076Y-55473200D01*
X119724524Y-55473200D01*
X119765171Y-55481285D01*
X119765171Y-55481285D01*
G37*
G36*
X122965171Y-55481285D02*
G01*
X123003461Y-55497145D01*
X123037921Y-55520171D01*
X123067229Y-55549479D01*
X123090255Y-55583939D01*
X123106115Y-55622229D01*
X123114200Y-55662876D01*
X123114200Y-55704324D01*
X123106115Y-55744971D01*
X123090255Y-55783261D01*
X123067229Y-55817721D01*
X123037921Y-55847029D01*
X123003461Y-55870055D01*
X122965171Y-55885915D01*
X122924524Y-55894000D01*
X122883076Y-55894000D01*
X122842429Y-55885915D01*
X122804139Y-55870055D01*
X122769679Y-55847029D01*
X122740371Y-55817721D01*
X122717345Y-55783261D01*
X122701485Y-55744971D01*
X122693400Y-55704324D01*
X122693400Y-55662876D01*
X122701485Y-55622229D01*
X122717345Y-55583939D01*
X122740371Y-55549479D01*
X122769679Y-55520171D01*
X122804139Y-55497145D01*
X122842429Y-55481285D01*
X122883076Y-55473200D01*
X122924524Y-55473200D01*
X122965171Y-55481285D01*
X122965171Y-55481285D01*
G37*
G36*
X121365171Y-55481285D02*
G01*
X121403461Y-55497145D01*
X121437921Y-55520171D01*
X121467229Y-55549479D01*
X121490255Y-55583939D01*
X121506115Y-55622229D01*
X121514200Y-55662876D01*
X121514200Y-55704324D01*
X121506115Y-55744971D01*
X121490255Y-55783261D01*
X121467229Y-55817721D01*
X121437921Y-55847029D01*
X121403461Y-55870055D01*
X121365171Y-55885915D01*
X121324524Y-55894000D01*
X121283076Y-55894000D01*
X121242429Y-55885915D01*
X121204139Y-55870055D01*
X121169679Y-55847029D01*
X121140371Y-55817721D01*
X121117345Y-55783261D01*
X121101485Y-55744971D01*
X121093400Y-55704324D01*
X121093400Y-55662876D01*
X121101485Y-55622229D01*
X121117345Y-55583939D01*
X121140371Y-55549479D01*
X121169679Y-55520171D01*
X121204139Y-55497145D01*
X121242429Y-55481285D01*
X121283076Y-55473200D01*
X121324524Y-55473200D01*
X121365171Y-55481285D01*
X121365171Y-55481285D01*
G37*
G36*
X120565171Y-55481285D02*
G01*
X120603461Y-55497145D01*
X120637921Y-55520171D01*
X120667229Y-55549479D01*
X120690255Y-55583939D01*
X120706115Y-55622229D01*
X120714200Y-55662876D01*
X120714200Y-55704324D01*
X120706115Y-55744971D01*
X120690255Y-55783261D01*
X120667229Y-55817721D01*
X120637921Y-55847029D01*
X120603461Y-55870055D01*
X120565171Y-55885915D01*
X120524524Y-55894000D01*
X120483076Y-55894000D01*
X120442429Y-55885915D01*
X120404139Y-55870055D01*
X120369679Y-55847029D01*
X120340371Y-55817721D01*
X120317345Y-55783261D01*
X120301485Y-55744971D01*
X120293400Y-55704324D01*
X120293400Y-55662876D01*
X120301485Y-55622229D01*
X120317345Y-55583939D01*
X120340371Y-55549479D01*
X120369679Y-55520171D01*
X120404139Y-55497145D01*
X120442429Y-55481285D01*
X120483076Y-55473200D01*
X120524524Y-55473200D01*
X120565171Y-55481285D01*
X120565171Y-55481285D01*
G37*
G36*
X116565171Y-55481285D02*
G01*
X116603461Y-55497145D01*
X116637921Y-55520171D01*
X116667229Y-55549479D01*
X116690255Y-55583939D01*
X116706115Y-55622229D01*
X116714200Y-55662876D01*
X116714200Y-55704324D01*
X116706115Y-55744971D01*
X116690255Y-55783261D01*
X116667229Y-55817721D01*
X116637921Y-55847029D01*
X116603461Y-55870055D01*
X116565171Y-55885915D01*
X116524524Y-55894000D01*
X116483076Y-55894000D01*
X116442429Y-55885915D01*
X116404139Y-55870055D01*
X116369679Y-55847029D01*
X116340371Y-55817721D01*
X116317345Y-55783261D01*
X116301485Y-55744971D01*
X116293400Y-55704324D01*
X116293400Y-55662876D01*
X116301485Y-55622229D01*
X116317345Y-55583939D01*
X116340371Y-55549479D01*
X116369679Y-55520171D01*
X116404139Y-55497145D01*
X116442429Y-55481285D01*
X116483076Y-55473200D01*
X116524524Y-55473200D01*
X116565171Y-55481285D01*
X116565171Y-55481285D01*
G37*
G36*
X117365171Y-55481285D02*
G01*
X117403461Y-55497145D01*
X117437921Y-55520171D01*
X117467229Y-55549479D01*
X117490255Y-55583939D01*
X117506115Y-55622229D01*
X117514200Y-55662876D01*
X117514200Y-55704324D01*
X117506115Y-55744971D01*
X117490255Y-55783261D01*
X117467229Y-55817721D01*
X117437921Y-55847029D01*
X117403461Y-55870055D01*
X117365171Y-55885915D01*
X117324524Y-55894000D01*
X117283076Y-55894000D01*
X117242429Y-55885915D01*
X117204139Y-55870055D01*
X117169679Y-55847029D01*
X117140371Y-55817721D01*
X117117345Y-55783261D01*
X117101485Y-55744971D01*
X117093400Y-55704324D01*
X117093400Y-55662876D01*
X117101485Y-55622229D01*
X117117345Y-55583939D01*
X117140371Y-55549479D01*
X117169679Y-55520171D01*
X117204139Y-55497145D01*
X117242429Y-55481285D01*
X117283076Y-55473200D01*
X117324524Y-55473200D01*
X117365171Y-55481285D01*
X117365171Y-55481285D01*
G37*
G36*
X118165171Y-55481285D02*
G01*
X118203461Y-55497145D01*
X118237921Y-55520171D01*
X118267229Y-55549479D01*
X118290255Y-55583939D01*
X118306115Y-55622229D01*
X118314200Y-55662876D01*
X118314200Y-55704324D01*
X118306115Y-55744971D01*
X118290255Y-55783261D01*
X118267229Y-55817721D01*
X118237921Y-55847029D01*
X118203461Y-55870055D01*
X118165171Y-55885915D01*
X118124524Y-55894000D01*
X118083076Y-55894000D01*
X118042429Y-55885915D01*
X118004139Y-55870055D01*
X117969679Y-55847029D01*
X117940371Y-55817721D01*
X117917345Y-55783261D01*
X117901485Y-55744971D01*
X117893400Y-55704324D01*
X117893400Y-55662876D01*
X117901485Y-55622229D01*
X117917345Y-55583939D01*
X117940371Y-55549479D01*
X117969679Y-55520171D01*
X118004139Y-55497145D01*
X118042429Y-55481285D01*
X118083076Y-55473200D01*
X118124524Y-55473200D01*
X118165171Y-55481285D01*
X118165171Y-55481285D01*
G37*
G36*
X118965171Y-55481285D02*
G01*
X119003461Y-55497145D01*
X119037921Y-55520171D01*
X119067229Y-55549479D01*
X119090255Y-55583939D01*
X119106115Y-55622229D01*
X119114200Y-55662876D01*
X119114200Y-55704324D01*
X119106115Y-55744971D01*
X119090255Y-55783261D01*
X119067229Y-55817721D01*
X119037921Y-55847029D01*
X119003461Y-55870055D01*
X118965171Y-55885915D01*
X118924524Y-55894000D01*
X118883076Y-55894000D01*
X118842429Y-55885915D01*
X118804139Y-55870055D01*
X118769679Y-55847029D01*
X118740371Y-55817721D01*
X118717345Y-55783261D01*
X118701485Y-55744971D01*
X118693400Y-55704324D01*
X118693400Y-55662876D01*
X118701485Y-55622229D01*
X118717345Y-55583939D01*
X118740371Y-55549479D01*
X118769679Y-55520171D01*
X118804139Y-55497145D01*
X118842429Y-55481285D01*
X118883076Y-55473200D01*
X118924524Y-55473200D01*
X118965171Y-55481285D01*
X118965171Y-55481285D01*
G37*
G36*
X115765171Y-55481285D02*
G01*
X115803461Y-55497145D01*
X115837921Y-55520171D01*
X115867229Y-55549479D01*
X115890255Y-55583939D01*
X115906115Y-55622229D01*
X115914200Y-55662876D01*
X115914200Y-55704324D01*
X115906115Y-55744971D01*
X115890255Y-55783261D01*
X115867229Y-55817721D01*
X115837921Y-55847029D01*
X115803461Y-55870055D01*
X115765171Y-55885915D01*
X115724524Y-55894000D01*
X115683076Y-55894000D01*
X115642429Y-55885915D01*
X115604139Y-55870055D01*
X115569679Y-55847029D01*
X115540371Y-55817721D01*
X115517345Y-55783261D01*
X115501485Y-55744971D01*
X115493400Y-55704324D01*
X115493400Y-55662876D01*
X115501485Y-55622229D01*
X115517345Y-55583939D01*
X115540371Y-55549479D01*
X115569679Y-55520171D01*
X115604139Y-55497145D01*
X115642429Y-55481285D01*
X115683076Y-55473200D01*
X115724524Y-55473200D01*
X115765171Y-55481285D01*
X115765171Y-55481285D01*
G37*
G36*
X130400680Y-55100335D02*
G01*
X130403082Y-55124721D01*
X130410195Y-55148170D01*
X130421746Y-55169781D01*
X130437291Y-55188723D01*
X130456233Y-55204268D01*
X130477844Y-55215819D01*
X130501293Y-55222932D01*
X130525679Y-55225334D01*
X130550065Y-55222932D01*
X130573514Y-55215819D01*
X130595125Y-55204268D01*
X130614067Y-55188723D01*
X130629612Y-55169781D01*
X130641163Y-55148170D01*
X130645296Y-55136620D01*
X130657526Y-55096302D01*
X130706311Y-55005031D01*
X130771968Y-54925028D01*
X130851971Y-54859371D01*
X130943242Y-54810586D01*
X130943245Y-54810585D01*
X131042284Y-54780542D01*
X131093741Y-54775474D01*
X131119469Y-54772940D01*
X131171091Y-54772940D01*
X131196819Y-54775474D01*
X131248276Y-54780542D01*
X131347315Y-54810585D01*
X131347318Y-54810586D01*
X131438589Y-54859371D01*
X131518592Y-54925028D01*
X131584249Y-55005031D01*
X131633034Y-55096302D01*
X131633035Y-55096305D01*
X131660666Y-55187391D01*
X131670040Y-55210024D01*
X131683654Y-55230398D01*
X131700981Y-55247725D01*
X131721355Y-55261339D01*
X131743994Y-55270716D01*
X131768027Y-55275497D01*
X131792531Y-55275497D01*
X131816565Y-55270717D01*
X131839204Y-55261340D01*
X131859578Y-55247726D01*
X131876905Y-55230399D01*
X131890519Y-55210025D01*
X131899894Y-55187391D01*
X131927525Y-55096305D01*
X131927526Y-55096302D01*
X131976311Y-55005031D01*
X132041968Y-54925028D01*
X132121971Y-54859371D01*
X132213242Y-54810586D01*
X132213245Y-54810585D01*
X132312284Y-54780542D01*
X132363741Y-54775474D01*
X132389469Y-54772940D01*
X132441091Y-54772940D01*
X132466819Y-54775474D01*
X132518276Y-54780542D01*
X132617315Y-54810585D01*
X132617318Y-54810586D01*
X132708589Y-54859371D01*
X132788592Y-54925028D01*
X132854249Y-55005031D01*
X132903034Y-55096302D01*
X132903035Y-55096305D01*
X132930666Y-55187391D01*
X132940040Y-55210024D01*
X132953654Y-55230398D01*
X132970981Y-55247725D01*
X132991355Y-55261339D01*
X133013994Y-55270716D01*
X133038027Y-55275497D01*
X133062531Y-55275497D01*
X133086565Y-55270717D01*
X133109204Y-55261340D01*
X133129578Y-55247726D01*
X133146905Y-55230399D01*
X133160519Y-55210025D01*
X133169894Y-55187391D01*
X133197525Y-55096305D01*
X133197526Y-55096302D01*
X133246311Y-55005031D01*
X133311968Y-54925028D01*
X133391971Y-54859371D01*
X133483242Y-54810586D01*
X133483245Y-54810585D01*
X133582284Y-54780542D01*
X133633741Y-54775474D01*
X133659469Y-54772940D01*
X133711091Y-54772940D01*
X133736819Y-54775474D01*
X133788276Y-54780542D01*
X133887315Y-54810585D01*
X133887318Y-54810586D01*
X133978589Y-54859371D01*
X134058592Y-54925028D01*
X134124249Y-55005031D01*
X134173034Y-55096302D01*
X134173035Y-55096305D01*
X134200666Y-55187391D01*
X134210040Y-55210024D01*
X134223654Y-55230398D01*
X134240981Y-55247725D01*
X134261355Y-55261339D01*
X134283994Y-55270716D01*
X134308027Y-55275497D01*
X134332531Y-55275497D01*
X134356565Y-55270717D01*
X134379204Y-55261340D01*
X134399578Y-55247726D01*
X134416905Y-55230399D01*
X134430519Y-55210025D01*
X134439894Y-55187391D01*
X134467525Y-55096305D01*
X134467526Y-55096302D01*
X134516311Y-55005031D01*
X134581968Y-54925028D01*
X134661971Y-54859371D01*
X134753242Y-54810586D01*
X134753245Y-54810585D01*
X134852284Y-54780542D01*
X134903741Y-54775474D01*
X134929469Y-54772940D01*
X134981091Y-54772940D01*
X135006819Y-54775474D01*
X135058276Y-54780542D01*
X135157315Y-54810585D01*
X135157318Y-54810586D01*
X135248589Y-54859371D01*
X135328592Y-54925028D01*
X135394249Y-55005031D01*
X135443034Y-55096302D01*
X135443035Y-55096305D01*
X135473078Y-55195344D01*
X135483222Y-55298340D01*
X135473078Y-55401336D01*
X135443035Y-55500375D01*
X135443034Y-55500378D01*
X135394249Y-55591649D01*
X135328592Y-55671652D01*
X135248589Y-55737309D01*
X135157318Y-55786094D01*
X135157315Y-55786095D01*
X135058276Y-55816138D01*
X135006819Y-55821206D01*
X134981091Y-55823740D01*
X134929469Y-55823740D01*
X134903741Y-55821206D01*
X134852284Y-55816138D01*
X134753245Y-55786095D01*
X134753242Y-55786094D01*
X134661971Y-55737309D01*
X134581968Y-55671652D01*
X134516311Y-55591649D01*
X134467526Y-55500378D01*
X134467525Y-55500375D01*
X134439894Y-55409289D01*
X134430520Y-55386656D01*
X134416906Y-55366282D01*
X134399579Y-55348955D01*
X134379205Y-55335341D01*
X134356566Y-55325964D01*
X134332533Y-55321183D01*
X134308029Y-55321183D01*
X134283995Y-55325963D01*
X134261356Y-55335340D01*
X134240982Y-55348954D01*
X134223655Y-55366281D01*
X134210041Y-55386655D01*
X134200666Y-55409289D01*
X134173035Y-55500375D01*
X134173034Y-55500378D01*
X134124249Y-55591649D01*
X134058592Y-55671652D01*
X133978589Y-55737309D01*
X133887318Y-55786094D01*
X133887315Y-55786095D01*
X133788276Y-55816138D01*
X133736819Y-55821206D01*
X133711091Y-55823740D01*
X133659469Y-55823740D01*
X133633741Y-55821206D01*
X133582284Y-55816138D01*
X133483245Y-55786095D01*
X133483242Y-55786094D01*
X133391971Y-55737309D01*
X133311968Y-55671652D01*
X133246311Y-55591649D01*
X133197526Y-55500378D01*
X133197525Y-55500375D01*
X133169894Y-55409289D01*
X133160520Y-55386656D01*
X133146906Y-55366282D01*
X133129579Y-55348955D01*
X133109205Y-55335341D01*
X133086566Y-55325964D01*
X133062533Y-55321183D01*
X133038029Y-55321183D01*
X133013995Y-55325963D01*
X132991356Y-55335340D01*
X132970982Y-55348954D01*
X132953655Y-55366281D01*
X132940041Y-55386655D01*
X132930666Y-55409289D01*
X132903035Y-55500375D01*
X132903034Y-55500378D01*
X132854249Y-55591649D01*
X132788592Y-55671652D01*
X132708589Y-55737309D01*
X132617318Y-55786094D01*
X132617315Y-55786095D01*
X132518276Y-55816138D01*
X132466819Y-55821206D01*
X132441091Y-55823740D01*
X132389469Y-55823740D01*
X132363741Y-55821206D01*
X132312284Y-55816138D01*
X132213245Y-55786095D01*
X132213242Y-55786094D01*
X132121971Y-55737309D01*
X132041968Y-55671652D01*
X131976311Y-55591649D01*
X131927526Y-55500378D01*
X131927525Y-55500375D01*
X131899894Y-55409289D01*
X131890520Y-55386656D01*
X131876906Y-55366282D01*
X131859579Y-55348955D01*
X131839205Y-55335341D01*
X131816566Y-55325964D01*
X131792533Y-55321183D01*
X131768029Y-55321183D01*
X131743995Y-55325963D01*
X131721356Y-55335340D01*
X131700982Y-55348954D01*
X131683655Y-55366281D01*
X131670041Y-55386655D01*
X131660666Y-55409289D01*
X131633035Y-55500375D01*
X131633034Y-55500378D01*
X131584249Y-55591649D01*
X131518592Y-55671652D01*
X131438589Y-55737309D01*
X131347318Y-55786094D01*
X131347315Y-55786095D01*
X131248276Y-55816138D01*
X131196819Y-55821206D01*
X131171091Y-55823740D01*
X131119469Y-55823740D01*
X131093741Y-55821206D01*
X131042284Y-55816138D01*
X130943245Y-55786095D01*
X130943242Y-55786094D01*
X130851971Y-55737309D01*
X130771968Y-55671652D01*
X130706311Y-55591649D01*
X130657526Y-55500378D01*
X130657525Y-55500375D01*
X130645295Y-55460057D01*
X130635918Y-55437421D01*
X130622305Y-55417047D01*
X130604978Y-55399720D01*
X130584603Y-55386106D01*
X130561965Y-55376729D01*
X130537931Y-55371948D01*
X130513427Y-55371948D01*
X130489394Y-55376728D01*
X130466755Y-55386106D01*
X130446381Y-55399719D01*
X130429054Y-55417046D01*
X130415440Y-55437421D01*
X130406063Y-55460059D01*
X130401282Y-55484093D01*
X130400680Y-55496345D01*
X130400680Y-55823740D01*
X129349880Y-55823740D01*
X129349880Y-54772940D01*
X130400680Y-54772940D01*
X130400680Y-55100335D01*
X130400680Y-55100335D01*
G37*
G36*
X112412100Y-55563160D02*
G01*
X111551300Y-55563160D01*
X111551300Y-54642360D01*
X112412100Y-54642360D01*
X112412100Y-55563160D01*
X112412100Y-55563160D01*
G37*
G36*
X113772100Y-55563160D02*
G01*
X112911300Y-55563160D01*
X112911300Y-54642360D01*
X113772100Y-54642360D01*
X113772100Y-55563160D01*
X113772100Y-55563160D01*
G37*
G36*
X109304100Y-54757026D02*
G01*
X109372417Y-54785324D01*
X109433902Y-54826407D01*
X109486193Y-54878698D01*
X109527276Y-54940183D01*
X109555574Y-55008500D01*
X109570000Y-55081025D01*
X109570000Y-55154975D01*
X109555574Y-55227500D01*
X109527276Y-55295817D01*
X109486193Y-55357302D01*
X109433902Y-55409593D01*
X109372417Y-55450676D01*
X109304100Y-55478974D01*
X109231575Y-55493400D01*
X109157625Y-55493400D01*
X109085100Y-55478974D01*
X109016783Y-55450676D01*
X108955298Y-55409593D01*
X108903007Y-55357302D01*
X108861924Y-55295817D01*
X108833626Y-55227500D01*
X108819200Y-55154975D01*
X108819200Y-55081025D01*
X108833626Y-55008500D01*
X108861924Y-54940183D01*
X108903007Y-54878698D01*
X108955298Y-54826407D01*
X109016783Y-54785324D01*
X109085100Y-54757026D01*
X109157625Y-54742600D01*
X109231575Y-54742600D01*
X109304100Y-54757026D01*
X109304100Y-54757026D01*
G37*
G36*
X107459400Y-55110000D02*
G01*
X106408600Y-55110000D01*
X106408600Y-54059200D01*
X107459400Y-54059200D01*
X107459400Y-55110000D01*
X107459400Y-55110000D01*
G37*
M02*
