G04 #@! TF.GenerationSoftware,KiCad,Pcbnew,(5.1.0)-1*
G04 #@! TF.CreationDate,2019-07-24T02:43:26-07:00*
G04 #@! TF.ProjectId,SDCard-PCB,53444361-7264-42d5-9043-422e6b696361,rev?*
G04 #@! TF.SameCoordinates,Original*
G04 #@! TF.FileFunction,Copper,L2,Inr*
G04 #@! TF.FilePolarity,Positive*
%FSLAX46Y46*%
G04 Gerber Fmt 4.6, Leading zero omitted, Abs format (unit mm)*
G04 Created by KiCad (PCBNEW (5.1.0)-1) date 2019-07-24 02:43:26*
%MOMM*%
%LPD*%
G04 APERTURE LIST*
%ADD10R,1.000000X1.000000*%
%ADD11R,1.700000X1.700000*%
%ADD12O,1.000000X1.000000*%
%ADD13C,0.450000*%
%ADD14C,0.254000*%
G04 APERTURE END LIST*
D10*
X132753100Y-70205600D03*
X128282700Y-70205600D03*
X125082300Y-84518500D03*
X121856500Y-84518500D03*
X119316500Y-84518500D03*
X111582200Y-68122800D03*
X115455700Y-84543900D03*
X112928400Y-84556600D03*
X106934000Y-54584600D03*
D11*
X103238300Y-83563100D03*
X103238300Y-79413100D03*
D12*
X134955280Y-55298340D03*
X133685280Y-55298340D03*
X132415280Y-55298340D03*
X131145280Y-55298340D03*
D10*
X129875280Y-55298340D03*
D11*
X103093100Y-57513900D03*
X103035100Y-67823900D03*
X103043100Y-71973900D03*
X103093100Y-61713900D03*
D13*
X117205760Y-51635660D03*
X110909100Y-56822340D03*
X110970060Y-62565280D03*
X130558540Y-72006460D03*
X127492760Y-73784460D03*
X131977180Y-74692460D03*
X132405120Y-80307180D03*
X130479800Y-62217300D03*
X131457700Y-65275460D03*
X128991360Y-58930540D03*
X126682500Y-62638940D03*
X120103850Y-59283650D03*
X118498620Y-59291220D03*
X120903800Y-60883600D03*
X127368300Y-57658000D03*
X116340000Y-77890000D03*
X118284600Y-78755600D03*
X121557300Y-71249900D03*
X121640600Y-75311000D03*
X121043700Y-76936600D03*
X121640600Y-73431400D03*
X109664500Y-75184000D03*
X109639100Y-77558900D03*
X111175800Y-79375000D03*
X120980200Y-67144900D03*
X116497100Y-64058800D03*
X114206020Y-62567820D03*
X130959860Y-73855580D03*
X119303800Y-60083700D03*
X122501660Y-60888880D03*
X120098820Y-61681360D03*
X121700000Y-59280000D03*
X123780000Y-57550000D03*
X118277300Y-69989900D03*
X121043700Y-77711300D03*
X111620300Y-77558900D03*
X111569500Y-74396600D03*
X111582200Y-76403200D03*
X121081800Y-74409300D03*
X111988600Y-71920100D03*
X107111800Y-71996300D03*
X106095800Y-68592700D03*
X117703600Y-57683400D03*
X130317240Y-73855580D03*
X115735100Y-78625700D03*
X115277900Y-79565500D03*
X117710000Y-60880000D03*
X118290000Y-63780000D03*
X114239040Y-56822340D03*
X125036580Y-62661800D03*
X118506240Y-60883800D03*
X121701560Y-61681360D03*
X119300000Y-58480110D03*
X117319900Y-66268600D03*
X124307600Y-66268600D03*
X106908600Y-58089800D03*
X116903500Y-57683400D03*
X116903504Y-60883800D03*
X105270300Y-60858400D03*
X122500000Y-56890000D03*
X116900002Y-78880000D03*
X116900000Y-62470000D03*
X117710000Y-79490000D03*
X117710000Y-61690000D03*
X120110000Y-56890000D03*
X120510000Y-80750000D03*
X118740000Y-81510000D03*
X119310000Y-57689890D03*
X125745240Y-76527660D03*
X127502920Y-74676000D03*
X130561080Y-76560680D03*
X131966200Y-75752460D03*
X123840000Y-67570000D03*
X123840000Y-59290000D03*
X120904000Y-57683400D03*
X122110500Y-79984600D03*
X115006120Y-54823360D03*
X115026440Y-57691020D03*
X121592340Y-51765200D03*
X122699780Y-51798220D03*
X120500000Y-54300000D03*
X110230000Y-54950000D03*
X110230000Y-56100000D03*
X119310000Y-56090000D03*
X113020000Y-65760000D03*
X116100000Y-56880000D03*
X114220000Y-58710000D03*
X116900000Y-58480000D03*
X117310000Y-64720000D03*
X117700000Y-60080000D03*
X115520000Y-67640000D03*
X114750000Y-59680000D03*
X118506240Y-54922420D03*
X116611400Y-53632100D03*
X120497600Y-51694080D03*
D14*
G36*
X122563985Y-47674341D02*
G01*
X122673625Y-47707443D01*
X122774748Y-47761212D01*
X122863503Y-47833599D01*
X122936509Y-47921848D01*
X122990981Y-48022591D01*
X123024850Y-48132004D01*
X123040000Y-48276145D01*
X123040001Y-51008287D01*
X122950633Y-50971269D01*
X122784483Y-50938220D01*
X122615077Y-50938220D01*
X122448927Y-50971269D01*
X122292417Y-51036098D01*
X122164760Y-51121397D01*
X122140558Y-51097195D01*
X121999703Y-51003078D01*
X121843193Y-50938249D01*
X121677043Y-50905200D01*
X121507637Y-50905200D01*
X121341487Y-50938249D01*
X121184977Y-51003078D01*
X121087772Y-51068029D01*
X121045818Y-51026075D01*
X120904963Y-50931958D01*
X120748453Y-50867129D01*
X120582303Y-50834080D01*
X120412897Y-50834080D01*
X120246747Y-50867129D01*
X120090237Y-50931958D01*
X119949382Y-51026075D01*
X119829595Y-51145862D01*
X119735478Y-51286717D01*
X119670649Y-51443227D01*
X119637600Y-51609377D01*
X119637600Y-51778783D01*
X119670649Y-51944933D01*
X119735478Y-52101443D01*
X119829595Y-52242298D01*
X119949382Y-52362085D01*
X120090237Y-52456202D01*
X120246747Y-52521031D01*
X120412897Y-52554080D01*
X120582303Y-52554080D01*
X120748453Y-52521031D01*
X120904963Y-52456202D01*
X121002168Y-52391251D01*
X121044122Y-52433205D01*
X121184977Y-52527322D01*
X121341487Y-52592151D01*
X121507637Y-52625200D01*
X121677043Y-52625200D01*
X121843193Y-52592151D01*
X121999703Y-52527322D01*
X122127360Y-52442023D01*
X122151562Y-52466225D01*
X122292417Y-52560342D01*
X122448927Y-52625171D01*
X122615077Y-52658220D01*
X122784483Y-52658220D01*
X122950633Y-52625171D01*
X123040001Y-52588153D01*
X123040001Y-52967571D01*
X123036807Y-53000000D01*
X123049550Y-53129383D01*
X123087290Y-53253793D01*
X123148575Y-53368450D01*
X123231052Y-53468948D01*
X123331550Y-53551425D01*
X123446207Y-53612710D01*
X123570617Y-53650450D01*
X123667581Y-53660000D01*
X123700000Y-53663193D01*
X123732419Y-53660000D01*
X136840000Y-53660000D01*
X136840001Y-86340000D01*
X100660000Y-86340000D01*
X100660000Y-82713100D01*
X101750228Y-82713100D01*
X101750228Y-84413100D01*
X101762488Y-84537582D01*
X101798798Y-84657280D01*
X101857763Y-84767594D01*
X101937115Y-84864285D01*
X102033806Y-84943637D01*
X102144120Y-85002602D01*
X102263818Y-85038912D01*
X102388300Y-85051172D01*
X104088300Y-85051172D01*
X104212782Y-85038912D01*
X104332480Y-85002602D01*
X104442794Y-84943637D01*
X104539485Y-84864285D01*
X104618837Y-84767594D01*
X104677802Y-84657280D01*
X104714112Y-84537582D01*
X104726372Y-84413100D01*
X104726372Y-84056600D01*
X111790328Y-84056600D01*
X111790328Y-85056600D01*
X111802588Y-85181082D01*
X111838898Y-85300780D01*
X111897863Y-85411094D01*
X111977215Y-85507785D01*
X112073906Y-85587137D01*
X112184220Y-85646102D01*
X112303918Y-85682412D01*
X112428400Y-85694672D01*
X113428400Y-85694672D01*
X113552882Y-85682412D01*
X113672580Y-85646102D01*
X113782894Y-85587137D01*
X113879585Y-85507785D01*
X113958937Y-85411094D01*
X114017902Y-85300780D01*
X114054212Y-85181082D01*
X114066472Y-85056600D01*
X114066472Y-84056600D01*
X114065222Y-84043900D01*
X114317628Y-84043900D01*
X114317628Y-85043900D01*
X114329888Y-85168382D01*
X114366198Y-85288080D01*
X114425163Y-85398394D01*
X114504515Y-85495085D01*
X114601206Y-85574437D01*
X114711520Y-85633402D01*
X114831218Y-85669712D01*
X114955700Y-85681972D01*
X115955700Y-85681972D01*
X116080182Y-85669712D01*
X116199880Y-85633402D01*
X116310194Y-85574437D01*
X116406885Y-85495085D01*
X116486237Y-85398394D01*
X116545202Y-85288080D01*
X116581512Y-85168382D01*
X116593772Y-85043900D01*
X116593772Y-84043900D01*
X116591271Y-84018500D01*
X118178428Y-84018500D01*
X118178428Y-85018500D01*
X118190688Y-85142982D01*
X118226998Y-85262680D01*
X118285963Y-85372994D01*
X118365315Y-85469685D01*
X118462006Y-85549037D01*
X118572320Y-85608002D01*
X118692018Y-85644312D01*
X118816500Y-85656572D01*
X119816500Y-85656572D01*
X119940982Y-85644312D01*
X120060680Y-85608002D01*
X120170994Y-85549037D01*
X120267685Y-85469685D01*
X120347037Y-85372994D01*
X120406002Y-85262680D01*
X120442312Y-85142982D01*
X120454572Y-85018500D01*
X120454572Y-84018500D01*
X120718428Y-84018500D01*
X120718428Y-85018500D01*
X120730688Y-85142982D01*
X120766998Y-85262680D01*
X120825963Y-85372994D01*
X120905315Y-85469685D01*
X121002006Y-85549037D01*
X121112320Y-85608002D01*
X121232018Y-85644312D01*
X121356500Y-85656572D01*
X122356500Y-85656572D01*
X122480982Y-85644312D01*
X122600680Y-85608002D01*
X122710994Y-85549037D01*
X122807685Y-85469685D01*
X122887037Y-85372994D01*
X122946002Y-85262680D01*
X122982312Y-85142982D01*
X122994572Y-85018500D01*
X122994572Y-84018500D01*
X123944228Y-84018500D01*
X123944228Y-85018500D01*
X123956488Y-85142982D01*
X123992798Y-85262680D01*
X124051763Y-85372994D01*
X124131115Y-85469685D01*
X124227806Y-85549037D01*
X124338120Y-85608002D01*
X124457818Y-85644312D01*
X124582300Y-85656572D01*
X125582300Y-85656572D01*
X125706782Y-85644312D01*
X125826480Y-85608002D01*
X125936794Y-85549037D01*
X126033485Y-85469685D01*
X126112837Y-85372994D01*
X126171802Y-85262680D01*
X126208112Y-85142982D01*
X126220372Y-85018500D01*
X126220372Y-84018500D01*
X126208112Y-83894018D01*
X126171802Y-83774320D01*
X126112837Y-83664006D01*
X126033485Y-83567315D01*
X125936794Y-83487963D01*
X125826480Y-83428998D01*
X125706782Y-83392688D01*
X125582300Y-83380428D01*
X124582300Y-83380428D01*
X124457818Y-83392688D01*
X124338120Y-83428998D01*
X124227806Y-83487963D01*
X124131115Y-83567315D01*
X124051763Y-83664006D01*
X123992798Y-83774320D01*
X123956488Y-83894018D01*
X123944228Y-84018500D01*
X122994572Y-84018500D01*
X122982312Y-83894018D01*
X122946002Y-83774320D01*
X122887037Y-83664006D01*
X122807685Y-83567315D01*
X122710994Y-83487963D01*
X122600680Y-83428998D01*
X122480982Y-83392688D01*
X122356500Y-83380428D01*
X121356500Y-83380428D01*
X121232018Y-83392688D01*
X121112320Y-83428998D01*
X121002006Y-83487963D01*
X120905315Y-83567315D01*
X120825963Y-83664006D01*
X120766998Y-83774320D01*
X120730688Y-83894018D01*
X120718428Y-84018500D01*
X120454572Y-84018500D01*
X120442312Y-83894018D01*
X120406002Y-83774320D01*
X120347037Y-83664006D01*
X120267685Y-83567315D01*
X120170994Y-83487963D01*
X120060680Y-83428998D01*
X119940982Y-83392688D01*
X119816500Y-83380428D01*
X118816500Y-83380428D01*
X118692018Y-83392688D01*
X118572320Y-83428998D01*
X118462006Y-83487963D01*
X118365315Y-83567315D01*
X118285963Y-83664006D01*
X118226998Y-83774320D01*
X118190688Y-83894018D01*
X118178428Y-84018500D01*
X116591271Y-84018500D01*
X116581512Y-83919418D01*
X116545202Y-83799720D01*
X116486237Y-83689406D01*
X116406885Y-83592715D01*
X116310194Y-83513363D01*
X116199880Y-83454398D01*
X116080182Y-83418088D01*
X115955700Y-83405828D01*
X114955700Y-83405828D01*
X114831218Y-83418088D01*
X114711520Y-83454398D01*
X114601206Y-83513363D01*
X114504515Y-83592715D01*
X114425163Y-83689406D01*
X114366198Y-83799720D01*
X114329888Y-83919418D01*
X114317628Y-84043900D01*
X114065222Y-84043900D01*
X114054212Y-83932118D01*
X114017902Y-83812420D01*
X113958937Y-83702106D01*
X113879585Y-83605415D01*
X113782894Y-83526063D01*
X113672580Y-83467098D01*
X113552882Y-83430788D01*
X113428400Y-83418528D01*
X112428400Y-83418528D01*
X112303918Y-83430788D01*
X112184220Y-83467098D01*
X112073906Y-83526063D01*
X111977215Y-83605415D01*
X111897863Y-83702106D01*
X111838898Y-83812420D01*
X111802588Y-83932118D01*
X111790328Y-84056600D01*
X104726372Y-84056600D01*
X104726372Y-82713100D01*
X104714112Y-82588618D01*
X104677802Y-82468920D01*
X104618837Y-82358606D01*
X104539485Y-82261915D01*
X104442794Y-82182563D01*
X104332480Y-82123598D01*
X104212782Y-82087288D01*
X104088300Y-82075028D01*
X102388300Y-82075028D01*
X102263818Y-82087288D01*
X102144120Y-82123598D01*
X102033806Y-82182563D01*
X101937115Y-82261915D01*
X101857763Y-82358606D01*
X101798798Y-82468920D01*
X101762488Y-82588618D01*
X101750228Y-82713100D01*
X100660000Y-82713100D01*
X100660000Y-81425297D01*
X117880000Y-81425297D01*
X117880000Y-81594703D01*
X117913049Y-81760853D01*
X117977878Y-81917363D01*
X118071995Y-82058218D01*
X118191782Y-82178005D01*
X118332637Y-82272122D01*
X118489147Y-82336951D01*
X118655297Y-82370000D01*
X118824703Y-82370000D01*
X118990853Y-82336951D01*
X119147363Y-82272122D01*
X119288218Y-82178005D01*
X119408005Y-82058218D01*
X119502122Y-81917363D01*
X119566951Y-81760853D01*
X119600000Y-81594703D01*
X119600000Y-81425297D01*
X119566951Y-81259147D01*
X119502122Y-81102637D01*
X119408005Y-80961782D01*
X119288218Y-80841995D01*
X119147363Y-80747878D01*
X118990853Y-80683049D01*
X118901607Y-80665297D01*
X119650000Y-80665297D01*
X119650000Y-80834703D01*
X119683049Y-81000853D01*
X119747878Y-81157363D01*
X119841995Y-81298218D01*
X119961782Y-81418005D01*
X120102637Y-81512122D01*
X120259147Y-81576951D01*
X120425297Y-81610000D01*
X120594703Y-81610000D01*
X120760853Y-81576951D01*
X120917363Y-81512122D01*
X121058218Y-81418005D01*
X121178005Y-81298218D01*
X121272122Y-81157363D01*
X121336951Y-81000853D01*
X121370000Y-80834703D01*
X121370000Y-80665297D01*
X121336951Y-80499147D01*
X121272122Y-80342637D01*
X121178005Y-80201782D01*
X121058218Y-80081995D01*
X120917363Y-79987878D01*
X120760853Y-79923049D01*
X120644460Y-79899897D01*
X121250500Y-79899897D01*
X121250500Y-80069303D01*
X121283549Y-80235453D01*
X121348378Y-80391963D01*
X121442495Y-80532818D01*
X121562282Y-80652605D01*
X121703137Y-80746722D01*
X121859647Y-80811551D01*
X122025797Y-80844600D01*
X122195203Y-80844600D01*
X122361353Y-80811551D01*
X122517863Y-80746722D01*
X122658718Y-80652605D01*
X122778505Y-80532818D01*
X122872622Y-80391963D01*
X122937451Y-80235453D01*
X122970500Y-80069303D01*
X122970500Y-79899897D01*
X122937451Y-79733747D01*
X122872622Y-79577237D01*
X122778505Y-79436382D01*
X122658718Y-79316595D01*
X122517863Y-79222478D01*
X122361353Y-79157649D01*
X122195203Y-79124600D01*
X122025797Y-79124600D01*
X121859647Y-79157649D01*
X121703137Y-79222478D01*
X121562282Y-79316595D01*
X121442495Y-79436382D01*
X121348378Y-79577237D01*
X121283549Y-79733747D01*
X121250500Y-79899897D01*
X120644460Y-79899897D01*
X120594703Y-79890000D01*
X120425297Y-79890000D01*
X120259147Y-79923049D01*
X120102637Y-79987878D01*
X119961782Y-80081995D01*
X119841995Y-80201782D01*
X119747878Y-80342637D01*
X119683049Y-80499147D01*
X119650000Y-80665297D01*
X118901607Y-80665297D01*
X118824703Y-80650000D01*
X118655297Y-80650000D01*
X118489147Y-80683049D01*
X118332637Y-80747878D01*
X118191782Y-80841995D01*
X118071995Y-80961782D01*
X117977878Y-81102637D01*
X117913049Y-81259147D01*
X117880000Y-81425297D01*
X100660000Y-81425297D01*
X100660000Y-78563100D01*
X101750228Y-78563100D01*
X101750228Y-80263100D01*
X101762488Y-80387582D01*
X101798798Y-80507280D01*
X101857763Y-80617594D01*
X101937115Y-80714285D01*
X102033806Y-80793637D01*
X102144120Y-80852602D01*
X102263818Y-80888912D01*
X102388300Y-80901172D01*
X104088300Y-80901172D01*
X104212782Y-80888912D01*
X104332480Y-80852602D01*
X104442794Y-80793637D01*
X104539485Y-80714285D01*
X104618837Y-80617594D01*
X104677802Y-80507280D01*
X104714112Y-80387582D01*
X104726372Y-80263100D01*
X104726372Y-79480797D01*
X114417900Y-79480797D01*
X114417900Y-79650203D01*
X114450949Y-79816353D01*
X114515778Y-79972863D01*
X114609895Y-80113718D01*
X114729682Y-80233505D01*
X114870537Y-80327622D01*
X115027047Y-80392451D01*
X115193197Y-80425500D01*
X115362603Y-80425500D01*
X115528753Y-80392451D01*
X115685263Y-80327622D01*
X115826118Y-80233505D01*
X115945905Y-80113718D01*
X116040022Y-79972863D01*
X116104851Y-79816353D01*
X116137900Y-79650203D01*
X116137900Y-79480797D01*
X116121161Y-79396645D01*
X116142463Y-79387822D01*
X116185701Y-79358931D01*
X116231997Y-79428218D01*
X116351784Y-79548005D01*
X116492639Y-79642122D01*
X116649149Y-79706951D01*
X116815299Y-79740000D01*
X116882879Y-79740000D01*
X116883049Y-79740853D01*
X116947878Y-79897363D01*
X117041995Y-80038218D01*
X117161782Y-80158005D01*
X117302637Y-80252122D01*
X117459147Y-80316951D01*
X117625297Y-80350000D01*
X117794703Y-80350000D01*
X117960853Y-80316951D01*
X118117363Y-80252122D01*
X118258218Y-80158005D01*
X118378005Y-80038218D01*
X118472122Y-79897363D01*
X118536951Y-79740853D01*
X118570000Y-79574703D01*
X118570000Y-79405297D01*
X118536951Y-79239147D01*
X118472122Y-79082637D01*
X118378005Y-78941782D01*
X118258218Y-78821995D01*
X118117363Y-78727878D01*
X117960853Y-78663049D01*
X117794703Y-78630000D01*
X117727123Y-78630000D01*
X117726953Y-78629147D01*
X117662124Y-78472637D01*
X117568007Y-78331782D01*
X117448220Y-78211995D01*
X117307365Y-78117878D01*
X117150855Y-78053049D01*
X116984705Y-78020000D01*
X116815299Y-78020000D01*
X116649149Y-78053049D01*
X116492639Y-78117878D01*
X116449401Y-78146769D01*
X116403105Y-78077482D01*
X116283318Y-77957695D01*
X116142463Y-77863578D01*
X115985953Y-77798749D01*
X115819803Y-77765700D01*
X115650397Y-77765700D01*
X115484247Y-77798749D01*
X115327737Y-77863578D01*
X115186882Y-77957695D01*
X115067095Y-78077482D01*
X114972978Y-78218337D01*
X114908149Y-78374847D01*
X114875100Y-78540997D01*
X114875100Y-78710403D01*
X114891839Y-78794555D01*
X114870537Y-78803378D01*
X114729682Y-78897495D01*
X114609895Y-79017282D01*
X114515778Y-79158137D01*
X114450949Y-79314647D01*
X114417900Y-79480797D01*
X104726372Y-79480797D01*
X104726372Y-78563100D01*
X104714112Y-78438618D01*
X104677802Y-78318920D01*
X104618837Y-78208606D01*
X104539485Y-78111915D01*
X104442794Y-78032563D01*
X104332480Y-77973598D01*
X104212782Y-77937288D01*
X104088300Y-77925028D01*
X102388300Y-77925028D01*
X102263818Y-77937288D01*
X102144120Y-77973598D01*
X102033806Y-78032563D01*
X101937115Y-78111915D01*
X101857763Y-78208606D01*
X101798798Y-78318920D01*
X101762488Y-78438618D01*
X101750228Y-78563100D01*
X100660000Y-78563100D01*
X100660000Y-76318497D01*
X110722200Y-76318497D01*
X110722200Y-76487903D01*
X110755249Y-76654053D01*
X110820078Y-76810563D01*
X110914195Y-76951418D01*
X110962877Y-77000100D01*
X110952295Y-77010682D01*
X110858178Y-77151537D01*
X110793349Y-77308047D01*
X110760300Y-77474197D01*
X110760300Y-77643603D01*
X110793349Y-77809753D01*
X110858178Y-77966263D01*
X110952295Y-78107118D01*
X111072082Y-78226905D01*
X111212937Y-78321022D01*
X111369447Y-78385851D01*
X111535597Y-78418900D01*
X111705003Y-78418900D01*
X111871153Y-78385851D01*
X112027663Y-78321022D01*
X112168518Y-78226905D01*
X112288305Y-78107118D01*
X112382422Y-77966263D01*
X112447251Y-77809753D01*
X112480300Y-77643603D01*
X112480300Y-77626597D01*
X120183700Y-77626597D01*
X120183700Y-77796003D01*
X120216749Y-77962153D01*
X120281578Y-78118663D01*
X120375695Y-78259518D01*
X120495482Y-78379305D01*
X120636337Y-78473422D01*
X120792847Y-78538251D01*
X120958997Y-78571300D01*
X121128403Y-78571300D01*
X121294553Y-78538251D01*
X121451063Y-78473422D01*
X121591918Y-78379305D01*
X121711705Y-78259518D01*
X121805822Y-78118663D01*
X121870651Y-77962153D01*
X121903700Y-77796003D01*
X121903700Y-77626597D01*
X121870651Y-77460447D01*
X121805822Y-77303937D01*
X121711705Y-77163082D01*
X121591918Y-77043295D01*
X121451063Y-76949178D01*
X121294553Y-76884349D01*
X121128403Y-76851300D01*
X120958997Y-76851300D01*
X120792847Y-76884349D01*
X120636337Y-76949178D01*
X120495482Y-77043295D01*
X120375695Y-77163082D01*
X120281578Y-77303937D01*
X120216749Y-77460447D01*
X120183700Y-77626597D01*
X112480300Y-77626597D01*
X112480300Y-77474197D01*
X112447251Y-77308047D01*
X112382422Y-77151537D01*
X112288305Y-77010682D01*
X112239623Y-76962000D01*
X112250205Y-76951418D01*
X112344322Y-76810563D01*
X112409151Y-76654053D01*
X112442200Y-76487903D01*
X112442200Y-76442957D01*
X124885240Y-76442957D01*
X124885240Y-76612363D01*
X124918289Y-76778513D01*
X124983118Y-76935023D01*
X125077235Y-77075878D01*
X125197022Y-77195665D01*
X125337877Y-77289782D01*
X125494387Y-77354611D01*
X125660537Y-77387660D01*
X125829943Y-77387660D01*
X125996093Y-77354611D01*
X126152603Y-77289782D01*
X126293458Y-77195665D01*
X126413245Y-77075878D01*
X126507362Y-76935023D01*
X126572191Y-76778513D01*
X126605240Y-76612363D01*
X126605240Y-76475977D01*
X129701080Y-76475977D01*
X129701080Y-76645383D01*
X129734129Y-76811533D01*
X129798958Y-76968043D01*
X129893075Y-77108898D01*
X130012862Y-77228685D01*
X130153717Y-77322802D01*
X130310227Y-77387631D01*
X130476377Y-77420680D01*
X130645783Y-77420680D01*
X130811933Y-77387631D01*
X130968443Y-77322802D01*
X131109298Y-77228685D01*
X131229085Y-77108898D01*
X131323202Y-76968043D01*
X131388031Y-76811533D01*
X131421080Y-76645383D01*
X131421080Y-76475977D01*
X131408066Y-76410549D01*
X131417982Y-76420465D01*
X131558837Y-76514582D01*
X131715347Y-76579411D01*
X131881497Y-76612460D01*
X132050903Y-76612460D01*
X132217053Y-76579411D01*
X132373563Y-76514582D01*
X132514418Y-76420465D01*
X132634205Y-76300678D01*
X132728322Y-76159823D01*
X132793151Y-76003313D01*
X132826200Y-75837163D01*
X132826200Y-75667757D01*
X132793151Y-75501607D01*
X132728322Y-75345097D01*
X132634205Y-75204242D01*
X132514418Y-75084455D01*
X132373563Y-74990338D01*
X132217053Y-74925509D01*
X132050903Y-74892460D01*
X131881497Y-74892460D01*
X131715347Y-74925509D01*
X131558837Y-74990338D01*
X131417982Y-75084455D01*
X131298195Y-75204242D01*
X131204078Y-75345097D01*
X131139249Y-75501607D01*
X131106200Y-75667757D01*
X131106200Y-75837163D01*
X131119214Y-75902591D01*
X131109298Y-75892675D01*
X130968443Y-75798558D01*
X130811933Y-75733729D01*
X130645783Y-75700680D01*
X130476377Y-75700680D01*
X130310227Y-75733729D01*
X130153717Y-75798558D01*
X130012862Y-75892675D01*
X129893075Y-76012462D01*
X129798958Y-76153317D01*
X129734129Y-76309827D01*
X129701080Y-76475977D01*
X126605240Y-76475977D01*
X126605240Y-76442957D01*
X126572191Y-76276807D01*
X126507362Y-76120297D01*
X126413245Y-75979442D01*
X126293458Y-75859655D01*
X126152603Y-75765538D01*
X125996093Y-75700709D01*
X125829943Y-75667660D01*
X125660537Y-75667660D01*
X125494387Y-75700709D01*
X125337877Y-75765538D01*
X125197022Y-75859655D01*
X125077235Y-75979442D01*
X124983118Y-76120297D01*
X124918289Y-76276807D01*
X124885240Y-76442957D01*
X112442200Y-76442957D01*
X112442200Y-76318497D01*
X112409151Y-76152347D01*
X112344322Y-75995837D01*
X112250205Y-75854982D01*
X112130418Y-75735195D01*
X111989563Y-75641078D01*
X111833053Y-75576249D01*
X111666903Y-75543200D01*
X111497497Y-75543200D01*
X111331347Y-75576249D01*
X111174837Y-75641078D01*
X111033982Y-75735195D01*
X110914195Y-75854982D01*
X110820078Y-75995837D01*
X110755249Y-76152347D01*
X110722200Y-76318497D01*
X100660000Y-76318497D01*
X100660000Y-74311897D01*
X110709500Y-74311897D01*
X110709500Y-74481303D01*
X110742549Y-74647453D01*
X110807378Y-74803963D01*
X110901495Y-74944818D01*
X111021282Y-75064605D01*
X111162137Y-75158722D01*
X111318647Y-75223551D01*
X111484797Y-75256600D01*
X111654203Y-75256600D01*
X111820353Y-75223551D01*
X111976863Y-75158722D01*
X112117718Y-75064605D01*
X112237505Y-74944818D01*
X112331622Y-74803963D01*
X112396451Y-74647453D01*
X112429500Y-74481303D01*
X112429500Y-74324597D01*
X120221800Y-74324597D01*
X120221800Y-74494003D01*
X120254849Y-74660153D01*
X120319678Y-74816663D01*
X120413795Y-74957518D01*
X120533582Y-75077305D01*
X120674437Y-75171422D01*
X120830947Y-75236251D01*
X120997097Y-75269300D01*
X121166503Y-75269300D01*
X121332653Y-75236251D01*
X121489163Y-75171422D01*
X121630018Y-75077305D01*
X121749805Y-74957518D01*
X121843922Y-74816663D01*
X121908751Y-74660153D01*
X121922447Y-74591297D01*
X126642920Y-74591297D01*
X126642920Y-74760703D01*
X126675969Y-74926853D01*
X126740798Y-75083363D01*
X126834915Y-75224218D01*
X126954702Y-75344005D01*
X127095557Y-75438122D01*
X127252067Y-75502951D01*
X127418217Y-75536000D01*
X127587623Y-75536000D01*
X127753773Y-75502951D01*
X127910283Y-75438122D01*
X128051138Y-75344005D01*
X128170925Y-75224218D01*
X128265042Y-75083363D01*
X128329871Y-74926853D01*
X128362920Y-74760703D01*
X128362920Y-74591297D01*
X128329871Y-74425147D01*
X128265042Y-74268637D01*
X128170925Y-74127782D01*
X128051138Y-74007995D01*
X127910283Y-73913878D01*
X127753773Y-73849049D01*
X127587623Y-73816000D01*
X127418217Y-73816000D01*
X127252067Y-73849049D01*
X127095557Y-73913878D01*
X126954702Y-74007995D01*
X126834915Y-74127782D01*
X126740798Y-74268637D01*
X126675969Y-74425147D01*
X126642920Y-74591297D01*
X121922447Y-74591297D01*
X121941800Y-74494003D01*
X121941800Y-74324597D01*
X121908751Y-74158447D01*
X121843922Y-74001937D01*
X121749805Y-73861082D01*
X121659600Y-73770877D01*
X129457240Y-73770877D01*
X129457240Y-73940283D01*
X129490289Y-74106433D01*
X129555118Y-74262943D01*
X129649235Y-74403798D01*
X129769022Y-74523585D01*
X129909877Y-74617702D01*
X130066387Y-74682531D01*
X130232537Y-74715580D01*
X130401943Y-74715580D01*
X130568093Y-74682531D01*
X130638550Y-74653347D01*
X130709007Y-74682531D01*
X130875157Y-74715580D01*
X131044563Y-74715580D01*
X131210713Y-74682531D01*
X131367223Y-74617702D01*
X131508078Y-74523585D01*
X131627865Y-74403798D01*
X131721982Y-74262943D01*
X131786811Y-74106433D01*
X131819860Y-73940283D01*
X131819860Y-73770877D01*
X131786811Y-73604727D01*
X131721982Y-73448217D01*
X131627865Y-73307362D01*
X131508078Y-73187575D01*
X131367223Y-73093458D01*
X131210713Y-73028629D01*
X131044563Y-72995580D01*
X130875157Y-72995580D01*
X130709007Y-73028629D01*
X130638550Y-73057813D01*
X130568093Y-73028629D01*
X130401943Y-72995580D01*
X130232537Y-72995580D01*
X130066387Y-73028629D01*
X129909877Y-73093458D01*
X129769022Y-73187575D01*
X129649235Y-73307362D01*
X129555118Y-73448217D01*
X129490289Y-73604727D01*
X129457240Y-73770877D01*
X121659600Y-73770877D01*
X121630018Y-73741295D01*
X121489163Y-73647178D01*
X121332653Y-73582349D01*
X121166503Y-73549300D01*
X120997097Y-73549300D01*
X120830947Y-73582349D01*
X120674437Y-73647178D01*
X120533582Y-73741295D01*
X120413795Y-73861082D01*
X120319678Y-74001937D01*
X120254849Y-74158447D01*
X120221800Y-74324597D01*
X112429500Y-74324597D01*
X112429500Y-74311897D01*
X112396451Y-74145747D01*
X112331622Y-73989237D01*
X112237505Y-73848382D01*
X112117718Y-73728595D01*
X111976863Y-73634478D01*
X111820353Y-73569649D01*
X111654203Y-73536600D01*
X111484797Y-73536600D01*
X111318647Y-73569649D01*
X111162137Y-73634478D01*
X111021282Y-73728595D01*
X110901495Y-73848382D01*
X110807378Y-73989237D01*
X110742549Y-74145747D01*
X110709500Y-74311897D01*
X100660000Y-74311897D01*
X100660000Y-71123900D01*
X101555028Y-71123900D01*
X101555028Y-72823900D01*
X101567288Y-72948382D01*
X101603598Y-73068080D01*
X101662563Y-73178394D01*
X101741915Y-73275085D01*
X101838606Y-73354437D01*
X101948920Y-73413402D01*
X102068618Y-73449712D01*
X102193100Y-73461972D01*
X103893100Y-73461972D01*
X104017582Y-73449712D01*
X104137280Y-73413402D01*
X104247594Y-73354437D01*
X104344285Y-73275085D01*
X104423637Y-73178394D01*
X104482602Y-73068080D01*
X104518912Y-72948382D01*
X104531172Y-72823900D01*
X104531172Y-71911597D01*
X106251800Y-71911597D01*
X106251800Y-72081003D01*
X106284849Y-72247153D01*
X106349678Y-72403663D01*
X106443795Y-72544518D01*
X106563582Y-72664305D01*
X106704437Y-72758422D01*
X106860947Y-72823251D01*
X107027097Y-72856300D01*
X107196503Y-72856300D01*
X107362653Y-72823251D01*
X107519163Y-72758422D01*
X107660018Y-72664305D01*
X107779805Y-72544518D01*
X107873922Y-72403663D01*
X107938751Y-72247153D01*
X107971800Y-72081003D01*
X107971800Y-71911597D01*
X107956644Y-71835397D01*
X111128600Y-71835397D01*
X111128600Y-72004803D01*
X111161649Y-72170953D01*
X111226478Y-72327463D01*
X111320595Y-72468318D01*
X111440382Y-72588105D01*
X111581237Y-72682222D01*
X111737747Y-72747051D01*
X111903897Y-72780100D01*
X112073303Y-72780100D01*
X112239453Y-72747051D01*
X112395963Y-72682222D01*
X112536818Y-72588105D01*
X112656605Y-72468318D01*
X112750722Y-72327463D01*
X112815551Y-72170953D01*
X112848600Y-72004803D01*
X112848600Y-71835397D01*
X112815551Y-71669247D01*
X112750722Y-71512737D01*
X112656605Y-71371882D01*
X112536818Y-71252095D01*
X112395963Y-71157978D01*
X112239453Y-71093149D01*
X112073303Y-71060100D01*
X111903897Y-71060100D01*
X111737747Y-71093149D01*
X111581237Y-71157978D01*
X111440382Y-71252095D01*
X111320595Y-71371882D01*
X111226478Y-71512737D01*
X111161649Y-71669247D01*
X111128600Y-71835397D01*
X107956644Y-71835397D01*
X107938751Y-71745447D01*
X107873922Y-71588937D01*
X107779805Y-71448082D01*
X107660018Y-71328295D01*
X107519163Y-71234178D01*
X107362653Y-71169349D01*
X107196503Y-71136300D01*
X107027097Y-71136300D01*
X106860947Y-71169349D01*
X106704437Y-71234178D01*
X106563582Y-71328295D01*
X106443795Y-71448082D01*
X106349678Y-71588937D01*
X106284849Y-71745447D01*
X106251800Y-71911597D01*
X104531172Y-71911597D01*
X104531172Y-71123900D01*
X104518912Y-70999418D01*
X104482602Y-70879720D01*
X104423637Y-70769406D01*
X104344285Y-70672715D01*
X104247594Y-70593363D01*
X104137280Y-70534398D01*
X104017582Y-70498088D01*
X103893100Y-70485828D01*
X102193100Y-70485828D01*
X102068618Y-70498088D01*
X101948920Y-70534398D01*
X101838606Y-70593363D01*
X101741915Y-70672715D01*
X101662563Y-70769406D01*
X101603598Y-70879720D01*
X101567288Y-70999418D01*
X101555028Y-71123900D01*
X100660000Y-71123900D01*
X100660000Y-69905197D01*
X117417300Y-69905197D01*
X117417300Y-70074603D01*
X117450349Y-70240753D01*
X117515178Y-70397263D01*
X117609295Y-70538118D01*
X117729082Y-70657905D01*
X117869937Y-70752022D01*
X118026447Y-70816851D01*
X118192597Y-70849900D01*
X118362003Y-70849900D01*
X118528153Y-70816851D01*
X118684663Y-70752022D01*
X118825518Y-70657905D01*
X118945305Y-70538118D01*
X119039422Y-70397263D01*
X119104251Y-70240753D01*
X119137300Y-70074603D01*
X119137300Y-69905197D01*
X119104251Y-69739047D01*
X119090397Y-69705600D01*
X127144628Y-69705600D01*
X127144628Y-70705600D01*
X127156888Y-70830082D01*
X127193198Y-70949780D01*
X127252163Y-71060094D01*
X127331515Y-71156785D01*
X127428206Y-71236137D01*
X127538520Y-71295102D01*
X127658218Y-71331412D01*
X127782700Y-71343672D01*
X128782700Y-71343672D01*
X128907182Y-71331412D01*
X129026880Y-71295102D01*
X129137194Y-71236137D01*
X129233885Y-71156785D01*
X129313237Y-71060094D01*
X129372202Y-70949780D01*
X129408512Y-70830082D01*
X129420772Y-70705600D01*
X129420772Y-69705600D01*
X131615028Y-69705600D01*
X131615028Y-70705600D01*
X131627288Y-70830082D01*
X131663598Y-70949780D01*
X131722563Y-71060094D01*
X131801915Y-71156785D01*
X131898606Y-71236137D01*
X132008920Y-71295102D01*
X132128618Y-71331412D01*
X132253100Y-71343672D01*
X133253100Y-71343672D01*
X133377582Y-71331412D01*
X133497280Y-71295102D01*
X133607594Y-71236137D01*
X133704285Y-71156785D01*
X133783637Y-71060094D01*
X133842602Y-70949780D01*
X133878912Y-70830082D01*
X133891172Y-70705600D01*
X133891172Y-69705600D01*
X133878912Y-69581118D01*
X133842602Y-69461420D01*
X133783637Y-69351106D01*
X133704285Y-69254415D01*
X133607594Y-69175063D01*
X133497280Y-69116098D01*
X133377582Y-69079788D01*
X133253100Y-69067528D01*
X132253100Y-69067528D01*
X132128618Y-69079788D01*
X132008920Y-69116098D01*
X131898606Y-69175063D01*
X131801915Y-69254415D01*
X131722563Y-69351106D01*
X131663598Y-69461420D01*
X131627288Y-69581118D01*
X131615028Y-69705600D01*
X129420772Y-69705600D01*
X129408512Y-69581118D01*
X129372202Y-69461420D01*
X129313237Y-69351106D01*
X129233885Y-69254415D01*
X129137194Y-69175063D01*
X129026880Y-69116098D01*
X128907182Y-69079788D01*
X128782700Y-69067528D01*
X127782700Y-69067528D01*
X127658218Y-69079788D01*
X127538520Y-69116098D01*
X127428206Y-69175063D01*
X127331515Y-69254415D01*
X127252163Y-69351106D01*
X127193198Y-69461420D01*
X127156888Y-69581118D01*
X127144628Y-69705600D01*
X119090397Y-69705600D01*
X119039422Y-69582537D01*
X118945305Y-69441682D01*
X118825518Y-69321895D01*
X118684663Y-69227778D01*
X118528153Y-69162949D01*
X118362003Y-69129900D01*
X118192597Y-69129900D01*
X118026447Y-69162949D01*
X117869937Y-69227778D01*
X117729082Y-69321895D01*
X117609295Y-69441682D01*
X117515178Y-69582537D01*
X117450349Y-69739047D01*
X117417300Y-69905197D01*
X100660000Y-69905197D01*
X100660000Y-66973900D01*
X101547028Y-66973900D01*
X101547028Y-68673900D01*
X101559288Y-68798382D01*
X101595598Y-68918080D01*
X101654563Y-69028394D01*
X101733915Y-69125085D01*
X101830606Y-69204437D01*
X101940920Y-69263402D01*
X102060618Y-69299712D01*
X102185100Y-69311972D01*
X103885100Y-69311972D01*
X104009582Y-69299712D01*
X104129280Y-69263402D01*
X104239594Y-69204437D01*
X104336285Y-69125085D01*
X104415637Y-69028394D01*
X104474602Y-68918080D01*
X104510912Y-68798382D01*
X104523172Y-68673900D01*
X104523172Y-68507997D01*
X105235800Y-68507997D01*
X105235800Y-68677403D01*
X105268849Y-68843553D01*
X105333678Y-69000063D01*
X105427795Y-69140918D01*
X105547582Y-69260705D01*
X105688437Y-69354822D01*
X105844947Y-69419651D01*
X106011097Y-69452700D01*
X106180503Y-69452700D01*
X106346653Y-69419651D01*
X106503163Y-69354822D01*
X106644018Y-69260705D01*
X106763805Y-69140918D01*
X106857922Y-69000063D01*
X106922751Y-68843553D01*
X106955800Y-68677403D01*
X106955800Y-68507997D01*
X106922751Y-68341847D01*
X106857922Y-68185337D01*
X106763805Y-68044482D01*
X106644018Y-67924695D01*
X106503163Y-67830578D01*
X106346653Y-67765749D01*
X106180503Y-67732700D01*
X106011097Y-67732700D01*
X105844947Y-67765749D01*
X105688437Y-67830578D01*
X105547582Y-67924695D01*
X105427795Y-68044482D01*
X105333678Y-68185337D01*
X105268849Y-68341847D01*
X105235800Y-68507997D01*
X104523172Y-68507997D01*
X104523172Y-67622800D01*
X110444128Y-67622800D01*
X110444128Y-68622800D01*
X110456388Y-68747282D01*
X110492698Y-68866980D01*
X110551663Y-68977294D01*
X110631015Y-69073985D01*
X110727706Y-69153337D01*
X110838020Y-69212302D01*
X110957718Y-69248612D01*
X111082200Y-69260872D01*
X112082200Y-69260872D01*
X112206682Y-69248612D01*
X112326380Y-69212302D01*
X112436694Y-69153337D01*
X112533385Y-69073985D01*
X112612737Y-68977294D01*
X112671702Y-68866980D01*
X112708012Y-68747282D01*
X112720272Y-68622800D01*
X112720272Y-67622800D01*
X112713624Y-67555297D01*
X114660000Y-67555297D01*
X114660000Y-67724703D01*
X114693049Y-67890853D01*
X114757878Y-68047363D01*
X114851995Y-68188218D01*
X114971782Y-68308005D01*
X115112637Y-68402122D01*
X115269147Y-68466951D01*
X115435297Y-68500000D01*
X115604703Y-68500000D01*
X115770853Y-68466951D01*
X115927363Y-68402122D01*
X116068218Y-68308005D01*
X116188005Y-68188218D01*
X116282122Y-68047363D01*
X116346951Y-67890853D01*
X116380000Y-67724703D01*
X116380000Y-67555297D01*
X116366077Y-67485297D01*
X122980000Y-67485297D01*
X122980000Y-67654703D01*
X123013049Y-67820853D01*
X123077878Y-67977363D01*
X123171995Y-68118218D01*
X123291782Y-68238005D01*
X123432637Y-68332122D01*
X123589147Y-68396951D01*
X123755297Y-68430000D01*
X123924703Y-68430000D01*
X124090853Y-68396951D01*
X124247363Y-68332122D01*
X124388218Y-68238005D01*
X124508005Y-68118218D01*
X124602122Y-67977363D01*
X124666951Y-67820853D01*
X124700000Y-67654703D01*
X124700000Y-67485297D01*
X124666951Y-67319147D01*
X124602122Y-67162637D01*
X124557432Y-67095754D01*
X124558453Y-67095551D01*
X124714963Y-67030722D01*
X124855818Y-66936605D01*
X124975605Y-66816818D01*
X125069722Y-66675963D01*
X125134551Y-66519453D01*
X125167600Y-66353303D01*
X125167600Y-66183897D01*
X125134551Y-66017747D01*
X125069722Y-65861237D01*
X124975605Y-65720382D01*
X124855818Y-65600595D01*
X124714963Y-65506478D01*
X124558453Y-65441649D01*
X124392303Y-65408600D01*
X124222897Y-65408600D01*
X124056747Y-65441649D01*
X123900237Y-65506478D01*
X123759382Y-65600595D01*
X123639595Y-65720382D01*
X123545478Y-65861237D01*
X123480649Y-66017747D01*
X123447600Y-66183897D01*
X123447600Y-66353303D01*
X123480649Y-66519453D01*
X123545478Y-66675963D01*
X123590168Y-66742846D01*
X123589147Y-66743049D01*
X123432637Y-66807878D01*
X123291782Y-66901995D01*
X123171995Y-67021782D01*
X123077878Y-67162637D01*
X123013049Y-67319147D01*
X122980000Y-67485297D01*
X116366077Y-67485297D01*
X116346951Y-67389147D01*
X116282122Y-67232637D01*
X116188005Y-67091782D01*
X116068218Y-66971995D01*
X115927363Y-66877878D01*
X115770853Y-66813049D01*
X115604703Y-66780000D01*
X115435297Y-66780000D01*
X115269147Y-66813049D01*
X115112637Y-66877878D01*
X114971782Y-66971995D01*
X114851995Y-67091782D01*
X114757878Y-67232637D01*
X114693049Y-67389147D01*
X114660000Y-67555297D01*
X112713624Y-67555297D01*
X112708012Y-67498318D01*
X112671702Y-67378620D01*
X112612737Y-67268306D01*
X112533385Y-67171615D01*
X112436694Y-67092263D01*
X112326380Y-67033298D01*
X112206682Y-66996988D01*
X112082200Y-66984728D01*
X111082200Y-66984728D01*
X110957718Y-66996988D01*
X110838020Y-67033298D01*
X110727706Y-67092263D01*
X110631015Y-67171615D01*
X110551663Y-67268306D01*
X110492698Y-67378620D01*
X110456388Y-67498318D01*
X110444128Y-67622800D01*
X104523172Y-67622800D01*
X104523172Y-66973900D01*
X104510912Y-66849418D01*
X104474602Y-66729720D01*
X104415637Y-66619406D01*
X104336285Y-66522715D01*
X104239594Y-66443363D01*
X104129280Y-66384398D01*
X104009582Y-66348088D01*
X103885100Y-66335828D01*
X102185100Y-66335828D01*
X102060618Y-66348088D01*
X101940920Y-66384398D01*
X101830606Y-66443363D01*
X101733915Y-66522715D01*
X101654563Y-66619406D01*
X101595598Y-66729720D01*
X101559288Y-66849418D01*
X101547028Y-66973900D01*
X100660000Y-66973900D01*
X100660000Y-65675297D01*
X112160000Y-65675297D01*
X112160000Y-65844703D01*
X112193049Y-66010853D01*
X112257878Y-66167363D01*
X112351995Y-66308218D01*
X112471782Y-66428005D01*
X112612637Y-66522122D01*
X112769147Y-66586951D01*
X112935297Y-66620000D01*
X113104703Y-66620000D01*
X113270853Y-66586951D01*
X113427363Y-66522122D01*
X113568218Y-66428005D01*
X113688005Y-66308218D01*
X113782122Y-66167363D01*
X113846951Y-66010853D01*
X113880000Y-65844703D01*
X113880000Y-65675297D01*
X113846951Y-65509147D01*
X113782122Y-65352637D01*
X113688005Y-65211782D01*
X113568218Y-65091995D01*
X113427363Y-64997878D01*
X113270853Y-64933049D01*
X113104703Y-64900000D01*
X112935297Y-64900000D01*
X112769147Y-64933049D01*
X112612637Y-64997878D01*
X112471782Y-65091995D01*
X112351995Y-65211782D01*
X112257878Y-65352637D01*
X112193049Y-65509147D01*
X112160000Y-65675297D01*
X100660000Y-65675297D01*
X100660000Y-64635297D01*
X116450000Y-64635297D01*
X116450000Y-64804703D01*
X116483049Y-64970853D01*
X116547878Y-65127363D01*
X116641995Y-65268218D01*
X116761782Y-65388005D01*
X116902637Y-65482122D01*
X116936987Y-65496350D01*
X116912537Y-65506478D01*
X116771682Y-65600595D01*
X116651895Y-65720382D01*
X116557778Y-65861237D01*
X116492949Y-66017747D01*
X116459900Y-66183897D01*
X116459900Y-66353303D01*
X116492949Y-66519453D01*
X116557778Y-66675963D01*
X116651895Y-66816818D01*
X116771682Y-66936605D01*
X116912537Y-67030722D01*
X117069047Y-67095551D01*
X117235197Y-67128600D01*
X117404603Y-67128600D01*
X117570753Y-67095551D01*
X117727263Y-67030722D01*
X117868118Y-66936605D01*
X117987905Y-66816818D01*
X118082022Y-66675963D01*
X118146851Y-66519453D01*
X118179900Y-66353303D01*
X118179900Y-66183897D01*
X118146851Y-66017747D01*
X118082022Y-65861237D01*
X117987905Y-65720382D01*
X117868118Y-65600595D01*
X117727263Y-65506478D01*
X117692913Y-65492250D01*
X117717363Y-65482122D01*
X117858218Y-65388005D01*
X117978005Y-65268218D01*
X118072122Y-65127363D01*
X118136951Y-64970853D01*
X118170000Y-64804703D01*
X118170000Y-64635297D01*
X118169520Y-64632884D01*
X118205297Y-64640000D01*
X118374703Y-64640000D01*
X118540853Y-64606951D01*
X118697363Y-64542122D01*
X118838218Y-64448005D01*
X118958005Y-64328218D01*
X119052122Y-64187363D01*
X119116951Y-64030853D01*
X119150000Y-63864703D01*
X119150000Y-63695297D01*
X119116951Y-63529147D01*
X119052122Y-63372637D01*
X118958005Y-63231782D01*
X118838218Y-63111995D01*
X118697363Y-63017878D01*
X118540853Y-62953049D01*
X118374703Y-62920000D01*
X118205297Y-62920000D01*
X118039147Y-62953049D01*
X117882637Y-63017878D01*
X117741782Y-63111995D01*
X117621995Y-63231782D01*
X117527878Y-63372637D01*
X117463049Y-63529147D01*
X117430000Y-63695297D01*
X117430000Y-63864703D01*
X117430480Y-63867116D01*
X117394703Y-63860000D01*
X117225297Y-63860000D01*
X117059147Y-63893049D01*
X116902637Y-63957878D01*
X116761782Y-64051995D01*
X116641995Y-64171782D01*
X116547878Y-64312637D01*
X116483049Y-64469147D01*
X116450000Y-64635297D01*
X100660000Y-64635297D01*
X100660000Y-60863900D01*
X101605028Y-60863900D01*
X101605028Y-62563900D01*
X101617288Y-62688382D01*
X101653598Y-62808080D01*
X101712563Y-62918394D01*
X101791915Y-63015085D01*
X101888606Y-63094437D01*
X101998920Y-63153402D01*
X102118618Y-63189712D01*
X102243100Y-63201972D01*
X103943100Y-63201972D01*
X104067582Y-63189712D01*
X104187280Y-63153402D01*
X104297594Y-63094437D01*
X104394285Y-63015085D01*
X104473637Y-62918394D01*
X104532602Y-62808080D01*
X104568912Y-62688382D01*
X104581172Y-62563900D01*
X104581172Y-62483117D01*
X113346020Y-62483117D01*
X113346020Y-62652523D01*
X113379069Y-62818673D01*
X113443898Y-62975183D01*
X113538015Y-63116038D01*
X113657802Y-63235825D01*
X113798657Y-63329942D01*
X113955167Y-63394771D01*
X114121317Y-63427820D01*
X114290723Y-63427820D01*
X114456873Y-63394771D01*
X114613383Y-63329942D01*
X114754238Y-63235825D01*
X114874025Y-63116038D01*
X114968142Y-62975183D01*
X115032971Y-62818673D01*
X115066020Y-62652523D01*
X115066020Y-62483117D01*
X115032971Y-62316967D01*
X114968142Y-62160457D01*
X114874025Y-62019602D01*
X114754238Y-61899815D01*
X114613383Y-61805698D01*
X114456873Y-61740869D01*
X114290723Y-61707820D01*
X114121317Y-61707820D01*
X113955167Y-61740869D01*
X113798657Y-61805698D01*
X113657802Y-61899815D01*
X113538015Y-62019602D01*
X113443898Y-62160457D01*
X113379069Y-62316967D01*
X113346020Y-62483117D01*
X104581172Y-62483117D01*
X104581172Y-61375005D01*
X104602295Y-61406618D01*
X104722082Y-61526405D01*
X104862937Y-61620522D01*
X105019447Y-61685351D01*
X105185597Y-61718400D01*
X105355003Y-61718400D01*
X105521153Y-61685351D01*
X105677663Y-61620522D01*
X105818518Y-61526405D01*
X105938305Y-61406618D01*
X106032422Y-61265763D01*
X106097251Y-61109253D01*
X106130300Y-60943103D01*
X106130300Y-60773697D01*
X106097251Y-60607547D01*
X106032422Y-60451037D01*
X105938305Y-60310182D01*
X105818518Y-60190395D01*
X105677663Y-60096278D01*
X105521153Y-60031449D01*
X105355003Y-59998400D01*
X105185597Y-59998400D01*
X105019447Y-60031449D01*
X104862937Y-60096278D01*
X104722082Y-60190395D01*
X104602295Y-60310182D01*
X104508178Y-60451037D01*
X104479476Y-60520330D01*
X104473637Y-60509406D01*
X104394285Y-60412715D01*
X104297594Y-60333363D01*
X104187280Y-60274398D01*
X104067582Y-60238088D01*
X103943100Y-60225828D01*
X102243100Y-60225828D01*
X102118618Y-60238088D01*
X101998920Y-60274398D01*
X101888606Y-60333363D01*
X101791915Y-60412715D01*
X101712563Y-60509406D01*
X101653598Y-60619720D01*
X101617288Y-60739418D01*
X101605028Y-60863900D01*
X100660000Y-60863900D01*
X100660000Y-58363900D01*
X101605028Y-58363900D01*
X101617288Y-58488382D01*
X101653598Y-58608080D01*
X101712563Y-58718394D01*
X101791915Y-58815085D01*
X101888606Y-58894437D01*
X101998920Y-58953402D01*
X102118618Y-58989712D01*
X102243100Y-59001972D01*
X102807350Y-58998900D01*
X102966100Y-58840150D01*
X102966100Y-57640900D01*
X103220100Y-57640900D01*
X103220100Y-58840150D01*
X103378850Y-58998900D01*
X103943100Y-59001972D01*
X104067582Y-58989712D01*
X104187280Y-58953402D01*
X104297594Y-58894437D01*
X104394285Y-58815085D01*
X104473637Y-58718394D01*
X104532602Y-58608080D01*
X104568912Y-58488382D01*
X104581172Y-58363900D01*
X104579219Y-58005097D01*
X106048600Y-58005097D01*
X106048600Y-58174503D01*
X106081649Y-58340653D01*
X106146478Y-58497163D01*
X106240595Y-58638018D01*
X106360382Y-58757805D01*
X106501237Y-58851922D01*
X106657747Y-58916751D01*
X106823897Y-58949800D01*
X106993303Y-58949800D01*
X107159453Y-58916751D01*
X107315963Y-58851922D01*
X107456818Y-58757805D01*
X107576605Y-58638018D01*
X107585104Y-58625297D01*
X113360000Y-58625297D01*
X113360000Y-58794703D01*
X113393049Y-58960853D01*
X113457878Y-59117363D01*
X113551995Y-59258218D01*
X113671782Y-59378005D01*
X113812637Y-59472122D01*
X113906747Y-59511104D01*
X113890000Y-59595297D01*
X113890000Y-59764703D01*
X113923049Y-59930853D01*
X113987878Y-60087363D01*
X114081995Y-60228218D01*
X114201782Y-60348005D01*
X114342637Y-60442122D01*
X114499147Y-60506951D01*
X114665297Y-60540000D01*
X114834703Y-60540000D01*
X115000853Y-60506951D01*
X115157363Y-60442122D01*
X115298218Y-60348005D01*
X115418005Y-60228218D01*
X115512122Y-60087363D01*
X115576951Y-59930853D01*
X115610000Y-59764703D01*
X115610000Y-59595297D01*
X115576951Y-59429147D01*
X115512122Y-59272637D01*
X115418005Y-59131782D01*
X115298218Y-59011995D01*
X115157363Y-58917878D01*
X115063253Y-58878896D01*
X115080000Y-58794703D01*
X115080000Y-58625297D01*
X115065226Y-58551020D01*
X115111143Y-58551020D01*
X115277293Y-58517971D01*
X115433803Y-58453142D01*
X115574658Y-58359025D01*
X115694445Y-58239238D01*
X115788562Y-58098383D01*
X115853391Y-57941873D01*
X115886440Y-57775723D01*
X115886440Y-57714369D01*
X116015297Y-57740000D01*
X116043500Y-57740000D01*
X116043500Y-57768103D01*
X116076549Y-57934253D01*
X116135874Y-58077475D01*
X116073049Y-58229147D01*
X116040000Y-58395297D01*
X116040000Y-58564703D01*
X116073049Y-58730853D01*
X116137878Y-58887363D01*
X116231995Y-59028218D01*
X116351782Y-59148005D01*
X116492637Y-59242122D01*
X116649147Y-59306951D01*
X116815297Y-59340000D01*
X116984703Y-59340000D01*
X117150853Y-59306951D01*
X117307363Y-59242122D01*
X117448218Y-59148005D01*
X117568005Y-59028218D01*
X117662122Y-58887363D01*
X117726951Y-58730853D01*
X117760000Y-58564703D01*
X117760000Y-58543400D01*
X117788303Y-58543400D01*
X117954453Y-58510351D01*
X118110963Y-58445522D01*
X118251818Y-58351405D01*
X118371605Y-58231618D01*
X118465722Y-58090763D01*
X118505456Y-57994838D01*
X118537803Y-58072929D01*
X118473049Y-58229257D01*
X118440000Y-58395407D01*
X118440000Y-58564813D01*
X118473049Y-58730963D01*
X118537878Y-58887473D01*
X118631995Y-59028328D01*
X118751782Y-59148115D01*
X118892637Y-59242232D01*
X118990315Y-59282692D01*
X118896437Y-59321578D01*
X118755582Y-59415695D01*
X118635795Y-59535482D01*
X118541678Y-59676337D01*
X118502666Y-59770519D01*
X118462122Y-59672637D01*
X118368005Y-59531782D01*
X118248218Y-59411995D01*
X118107363Y-59317878D01*
X117950853Y-59253049D01*
X117784703Y-59220000D01*
X117615297Y-59220000D01*
X117449147Y-59253049D01*
X117292637Y-59317878D01*
X117151782Y-59411995D01*
X117031995Y-59531782D01*
X116937878Y-59672637D01*
X116873049Y-59829147D01*
X116840000Y-59995297D01*
X116840000Y-60023800D01*
X116818801Y-60023800D01*
X116652651Y-60056849D01*
X116496141Y-60121678D01*
X116355286Y-60215795D01*
X116235499Y-60335582D01*
X116141382Y-60476437D01*
X116076553Y-60632947D01*
X116043504Y-60799097D01*
X116043504Y-60968503D01*
X116076553Y-61134653D01*
X116141382Y-61291163D01*
X116235499Y-61432018D01*
X116355286Y-61551805D01*
X116496141Y-61645922D01*
X116569176Y-61676174D01*
X116492637Y-61707878D01*
X116351782Y-61801995D01*
X116231995Y-61921782D01*
X116137878Y-62062637D01*
X116073049Y-62219147D01*
X116040000Y-62385297D01*
X116040000Y-62554703D01*
X116073049Y-62720853D01*
X116137878Y-62877363D01*
X116231995Y-63018218D01*
X116351782Y-63138005D01*
X116492637Y-63232122D01*
X116649147Y-63296951D01*
X116815297Y-63330000D01*
X116984703Y-63330000D01*
X117150853Y-63296951D01*
X117307363Y-63232122D01*
X117448218Y-63138005D01*
X117568005Y-63018218D01*
X117662122Y-62877363D01*
X117726951Y-62720853D01*
X117755545Y-62577097D01*
X124176580Y-62577097D01*
X124176580Y-62746503D01*
X124209629Y-62912653D01*
X124274458Y-63069163D01*
X124368575Y-63210018D01*
X124488362Y-63329805D01*
X124629217Y-63423922D01*
X124785727Y-63488751D01*
X124951877Y-63521800D01*
X125121283Y-63521800D01*
X125287433Y-63488751D01*
X125443943Y-63423922D01*
X125584798Y-63329805D01*
X125704585Y-63210018D01*
X125798702Y-63069163D01*
X125863531Y-62912653D01*
X125896580Y-62746503D01*
X125896580Y-62577097D01*
X125863531Y-62410947D01*
X125798702Y-62254437D01*
X125704585Y-62113582D01*
X125584798Y-61993795D01*
X125443943Y-61899678D01*
X125287433Y-61834849D01*
X125121283Y-61801800D01*
X124951877Y-61801800D01*
X124785727Y-61834849D01*
X124629217Y-61899678D01*
X124488362Y-61993795D01*
X124368575Y-62113582D01*
X124274458Y-62254437D01*
X124209629Y-62410947D01*
X124176580Y-62577097D01*
X117755545Y-62577097D01*
X117760000Y-62554703D01*
X117760000Y-62550000D01*
X117794703Y-62550000D01*
X117960853Y-62516951D01*
X118117363Y-62452122D01*
X118258218Y-62358005D01*
X118378005Y-62238218D01*
X118472122Y-62097363D01*
X118536951Y-61940853D01*
X118570000Y-61774703D01*
X118570000Y-61743800D01*
X118590943Y-61743800D01*
X118757093Y-61710751D01*
X118913603Y-61645922D01*
X118987332Y-61596657D01*
X119238820Y-61596657D01*
X119238820Y-61766063D01*
X119271869Y-61932213D01*
X119336698Y-62088723D01*
X119430815Y-62229578D01*
X119550602Y-62349365D01*
X119691457Y-62443482D01*
X119847967Y-62508311D01*
X120014117Y-62541360D01*
X120183523Y-62541360D01*
X120349673Y-62508311D01*
X120506183Y-62443482D01*
X120647038Y-62349365D01*
X120766825Y-62229578D01*
X120860942Y-62088723D01*
X120900190Y-61993971D01*
X120939438Y-62088723D01*
X121033555Y-62229578D01*
X121153342Y-62349365D01*
X121294197Y-62443482D01*
X121450707Y-62508311D01*
X121616857Y-62541360D01*
X121786263Y-62541360D01*
X121952413Y-62508311D01*
X122108923Y-62443482D01*
X122249778Y-62349365D01*
X122369565Y-62229578D01*
X122463682Y-62088723D01*
X122528511Y-61932213D01*
X122561560Y-61766063D01*
X122561560Y-61748880D01*
X122586363Y-61748880D01*
X122752513Y-61715831D01*
X122909023Y-61651002D01*
X123049878Y-61556885D01*
X123169665Y-61437098D01*
X123263782Y-61296243D01*
X123328611Y-61139733D01*
X123361660Y-60973583D01*
X123361660Y-60804177D01*
X123328611Y-60638027D01*
X123263782Y-60481517D01*
X123169665Y-60340662D01*
X123049878Y-60220875D01*
X122909023Y-60126758D01*
X122752513Y-60061929D01*
X122586363Y-60028880D01*
X122416957Y-60028880D01*
X122250807Y-60061929D01*
X122094297Y-60126758D01*
X121953442Y-60220875D01*
X121833655Y-60340662D01*
X121739538Y-60481517D01*
X121674709Y-60638027D01*
X121641660Y-60804177D01*
X121641660Y-60821360D01*
X121616857Y-60821360D01*
X121450707Y-60854409D01*
X121294197Y-60919238D01*
X121153342Y-61013355D01*
X121033555Y-61133142D01*
X120939438Y-61273997D01*
X120900190Y-61368749D01*
X120860942Y-61273997D01*
X120766825Y-61133142D01*
X120647038Y-61013355D01*
X120506183Y-60919238D01*
X120349673Y-60854409D01*
X120183523Y-60821360D01*
X120014117Y-60821360D01*
X119847967Y-60854409D01*
X119691457Y-60919238D01*
X119550602Y-61013355D01*
X119430815Y-61133142D01*
X119336698Y-61273997D01*
X119271869Y-61430507D01*
X119238820Y-61596657D01*
X118987332Y-61596657D01*
X119054458Y-61551805D01*
X119174245Y-61432018D01*
X119268362Y-61291163D01*
X119333191Y-61134653D01*
X119366240Y-60968503D01*
X119366240Y-60943700D01*
X119388503Y-60943700D01*
X119554653Y-60910651D01*
X119711163Y-60845822D01*
X119852018Y-60751705D01*
X119971805Y-60631918D01*
X120065922Y-60491063D01*
X120130751Y-60334553D01*
X120163800Y-60168403D01*
X120163800Y-59998997D01*
X120130751Y-59832847D01*
X120065922Y-59676337D01*
X119971805Y-59535482D01*
X119852018Y-59415695D01*
X119711163Y-59321578D01*
X119613485Y-59281118D01*
X119707363Y-59242232D01*
X119777605Y-59195297D01*
X120840000Y-59195297D01*
X120840000Y-59364703D01*
X120873049Y-59530853D01*
X120937878Y-59687363D01*
X121031995Y-59828218D01*
X121151782Y-59948005D01*
X121292637Y-60042122D01*
X121449147Y-60106951D01*
X121615297Y-60140000D01*
X121784703Y-60140000D01*
X121950853Y-60106951D01*
X122107363Y-60042122D01*
X122248218Y-59948005D01*
X122368005Y-59828218D01*
X122462122Y-59687363D01*
X122526951Y-59530853D01*
X122560000Y-59364703D01*
X122560000Y-59205297D01*
X122980000Y-59205297D01*
X122980000Y-59374703D01*
X123013049Y-59540853D01*
X123077878Y-59697363D01*
X123171995Y-59838218D01*
X123291782Y-59958005D01*
X123432637Y-60052122D01*
X123589147Y-60116951D01*
X123755297Y-60150000D01*
X123924703Y-60150000D01*
X124090853Y-60116951D01*
X124247363Y-60052122D01*
X124388218Y-59958005D01*
X124508005Y-59838218D01*
X124602122Y-59697363D01*
X124666951Y-59540853D01*
X124700000Y-59374703D01*
X124700000Y-59205297D01*
X124666951Y-59039147D01*
X124602122Y-58882637D01*
X124508005Y-58741782D01*
X124388218Y-58621995D01*
X124247363Y-58527878D01*
X124090853Y-58463049D01*
X123924703Y-58430000D01*
X123755297Y-58430000D01*
X123589147Y-58463049D01*
X123432637Y-58527878D01*
X123291782Y-58621995D01*
X123171995Y-58741782D01*
X123077878Y-58882637D01*
X123013049Y-59039147D01*
X122980000Y-59205297D01*
X122560000Y-59205297D01*
X122560000Y-59195297D01*
X122526951Y-59029147D01*
X122462122Y-58872637D01*
X122368005Y-58731782D01*
X122248218Y-58611995D01*
X122107363Y-58517878D01*
X121950853Y-58453049D01*
X121784703Y-58420000D01*
X121615297Y-58420000D01*
X121449147Y-58453049D01*
X121292637Y-58517878D01*
X121151782Y-58611995D01*
X121031995Y-58731782D01*
X120937878Y-58872637D01*
X120873049Y-59029147D01*
X120840000Y-59195297D01*
X119777605Y-59195297D01*
X119848218Y-59148115D01*
X119968005Y-59028328D01*
X120062122Y-58887473D01*
X120126951Y-58730963D01*
X120160000Y-58564813D01*
X120160000Y-58395407D01*
X120126951Y-58229257D01*
X120072197Y-58097071D01*
X120108344Y-58009806D01*
X120141878Y-58090763D01*
X120235995Y-58231618D01*
X120355782Y-58351405D01*
X120496637Y-58445522D01*
X120653147Y-58510351D01*
X120819297Y-58543400D01*
X120988703Y-58543400D01*
X121154853Y-58510351D01*
X121311363Y-58445522D01*
X121452218Y-58351405D01*
X121572005Y-58231618D01*
X121666122Y-58090763D01*
X121730951Y-57934253D01*
X121764000Y-57768103D01*
X121764000Y-57598697D01*
X121730951Y-57432547D01*
X121666122Y-57276037D01*
X121572005Y-57135182D01*
X121452218Y-57015395D01*
X121311363Y-56921278D01*
X121154853Y-56856449D01*
X120988703Y-56823400D01*
X120970000Y-56823400D01*
X120970000Y-56805297D01*
X121640000Y-56805297D01*
X121640000Y-56974703D01*
X121673049Y-57140853D01*
X121737878Y-57297363D01*
X121831995Y-57438218D01*
X121951782Y-57558005D01*
X122092637Y-57652122D01*
X122249147Y-57716951D01*
X122415297Y-57750000D01*
X122584703Y-57750000D01*
X122750853Y-57716951D01*
X122907363Y-57652122D01*
X122921576Y-57642625D01*
X122953049Y-57800853D01*
X123017878Y-57957363D01*
X123111995Y-58098218D01*
X123231782Y-58218005D01*
X123372637Y-58312122D01*
X123529147Y-58376951D01*
X123695297Y-58410000D01*
X123864703Y-58410000D01*
X124030853Y-58376951D01*
X124187363Y-58312122D01*
X124328218Y-58218005D01*
X124448005Y-58098218D01*
X124542122Y-57957363D01*
X124606951Y-57800853D01*
X124640000Y-57634703D01*
X124640000Y-57465297D01*
X124606951Y-57299147D01*
X124542122Y-57142637D01*
X124448005Y-57001782D01*
X124328218Y-56881995D01*
X124187363Y-56787878D01*
X124030853Y-56723049D01*
X123864703Y-56690000D01*
X123695297Y-56690000D01*
X123529147Y-56723049D01*
X123372637Y-56787878D01*
X123358424Y-56797375D01*
X123326951Y-56639147D01*
X123262122Y-56482637D01*
X123168005Y-56341782D01*
X123048218Y-56221995D01*
X122907363Y-56127878D01*
X122750853Y-56063049D01*
X122584703Y-56030000D01*
X122415297Y-56030000D01*
X122249147Y-56063049D01*
X122092637Y-56127878D01*
X121951782Y-56221995D01*
X121831995Y-56341782D01*
X121737878Y-56482637D01*
X121673049Y-56639147D01*
X121640000Y-56805297D01*
X120970000Y-56805297D01*
X120936951Y-56639147D01*
X120872122Y-56482637D01*
X120778005Y-56341782D01*
X120658218Y-56221995D01*
X120517363Y-56127878D01*
X120360853Y-56063049D01*
X120194703Y-56030000D01*
X120170000Y-56030000D01*
X120170000Y-56005297D01*
X120136951Y-55839147D01*
X120072122Y-55682637D01*
X119978005Y-55541782D01*
X119858218Y-55421995D01*
X119717363Y-55327878D01*
X119560853Y-55263049D01*
X119394703Y-55230000D01*
X119309694Y-55230000D01*
X119333191Y-55173273D01*
X119366240Y-55007123D01*
X119366240Y-54837717D01*
X119333191Y-54671567D01*
X119268362Y-54515057D01*
X119174245Y-54374202D01*
X119054458Y-54254415D01*
X118995915Y-54215297D01*
X119640000Y-54215297D01*
X119640000Y-54384703D01*
X119673049Y-54550853D01*
X119737878Y-54707363D01*
X119831995Y-54848218D01*
X119951782Y-54968005D01*
X120092637Y-55062122D01*
X120249147Y-55126951D01*
X120415297Y-55160000D01*
X120584703Y-55160000D01*
X120750853Y-55126951D01*
X120907363Y-55062122D01*
X121048218Y-54968005D01*
X121168005Y-54848218D01*
X121201332Y-54798340D01*
X128737208Y-54798340D01*
X128737208Y-55798340D01*
X128749468Y-55922822D01*
X128785778Y-56042520D01*
X128844743Y-56152834D01*
X128924095Y-56249525D01*
X129020786Y-56328877D01*
X129131100Y-56387842D01*
X129250798Y-56424152D01*
X129375280Y-56436412D01*
X130375280Y-56436412D01*
X130499762Y-56424152D01*
X130619460Y-56387842D01*
X130697659Y-56346043D01*
X130708833Y-56352016D01*
X130922781Y-56416917D01*
X131089528Y-56433340D01*
X131201032Y-56433340D01*
X131367779Y-56416917D01*
X131581727Y-56352016D01*
X131778903Y-56246624D01*
X131780280Y-56245494D01*
X131781657Y-56246624D01*
X131978833Y-56352016D01*
X132192781Y-56416917D01*
X132359528Y-56433340D01*
X132471032Y-56433340D01*
X132637779Y-56416917D01*
X132851727Y-56352016D01*
X133048903Y-56246624D01*
X133050280Y-56245494D01*
X133051657Y-56246624D01*
X133248833Y-56352016D01*
X133462781Y-56416917D01*
X133629528Y-56433340D01*
X133741032Y-56433340D01*
X133907779Y-56416917D01*
X134121727Y-56352016D01*
X134318903Y-56246624D01*
X134320280Y-56245494D01*
X134321657Y-56246624D01*
X134518833Y-56352016D01*
X134732781Y-56416917D01*
X134899528Y-56433340D01*
X135011032Y-56433340D01*
X135177779Y-56416917D01*
X135391727Y-56352016D01*
X135588903Y-56246624D01*
X135761729Y-56104789D01*
X135903564Y-55931963D01*
X136008956Y-55734787D01*
X136073857Y-55520839D01*
X136095771Y-55298340D01*
X136073857Y-55075841D01*
X136008956Y-54861893D01*
X135903564Y-54664717D01*
X135761729Y-54491891D01*
X135588903Y-54350056D01*
X135391727Y-54244664D01*
X135177779Y-54179763D01*
X135011032Y-54163340D01*
X134899528Y-54163340D01*
X134732781Y-54179763D01*
X134518833Y-54244664D01*
X134321657Y-54350056D01*
X134320280Y-54351186D01*
X134318903Y-54350056D01*
X134121727Y-54244664D01*
X133907779Y-54179763D01*
X133741032Y-54163340D01*
X133629528Y-54163340D01*
X133462781Y-54179763D01*
X133248833Y-54244664D01*
X133051657Y-54350056D01*
X133050280Y-54351186D01*
X133048903Y-54350056D01*
X132851727Y-54244664D01*
X132637779Y-54179763D01*
X132471032Y-54163340D01*
X132359528Y-54163340D01*
X132192781Y-54179763D01*
X131978833Y-54244664D01*
X131781657Y-54350056D01*
X131780280Y-54351186D01*
X131778903Y-54350056D01*
X131581727Y-54244664D01*
X131367779Y-54179763D01*
X131201032Y-54163340D01*
X131089528Y-54163340D01*
X130922781Y-54179763D01*
X130708833Y-54244664D01*
X130697659Y-54250637D01*
X130619460Y-54208838D01*
X130499762Y-54172528D01*
X130375280Y-54160268D01*
X129375280Y-54160268D01*
X129250798Y-54172528D01*
X129131100Y-54208838D01*
X129020786Y-54267803D01*
X128924095Y-54347155D01*
X128844743Y-54443846D01*
X128785778Y-54554160D01*
X128749468Y-54673858D01*
X128737208Y-54798340D01*
X121201332Y-54798340D01*
X121262122Y-54707363D01*
X121326951Y-54550853D01*
X121360000Y-54384703D01*
X121360000Y-54215297D01*
X121326951Y-54049147D01*
X121262122Y-53892637D01*
X121168005Y-53751782D01*
X121048218Y-53631995D01*
X120907363Y-53537878D01*
X120750853Y-53473049D01*
X120584703Y-53440000D01*
X120415297Y-53440000D01*
X120249147Y-53473049D01*
X120092637Y-53537878D01*
X119951782Y-53631995D01*
X119831995Y-53751782D01*
X119737878Y-53892637D01*
X119673049Y-54049147D01*
X119640000Y-54215297D01*
X118995915Y-54215297D01*
X118913603Y-54160298D01*
X118757093Y-54095469D01*
X118590943Y-54062420D01*
X118421537Y-54062420D01*
X118255387Y-54095469D01*
X118098877Y-54160298D01*
X117958022Y-54254415D01*
X117838235Y-54374202D01*
X117744118Y-54515057D01*
X117679289Y-54671567D01*
X117646240Y-54837717D01*
X117646240Y-55007123D01*
X117679289Y-55173273D01*
X117744118Y-55329783D01*
X117838235Y-55470638D01*
X117958022Y-55590425D01*
X118098877Y-55684542D01*
X118255387Y-55749371D01*
X118421537Y-55782420D01*
X118506546Y-55782420D01*
X118483049Y-55839147D01*
X118450000Y-56005297D01*
X118450000Y-56174703D01*
X118483049Y-56340853D01*
X118547878Y-56497363D01*
X118641995Y-56638218D01*
X118761782Y-56758005D01*
X118902637Y-56852122D01*
X118993949Y-56889945D01*
X118902637Y-56927768D01*
X118761782Y-57021885D01*
X118641995Y-57141672D01*
X118547878Y-57282527D01*
X118508144Y-57378452D01*
X118465722Y-57276037D01*
X118371605Y-57135182D01*
X118251818Y-57015395D01*
X118110963Y-56921278D01*
X117954453Y-56856449D01*
X117788303Y-56823400D01*
X117618897Y-56823400D01*
X117452747Y-56856449D01*
X117303550Y-56918249D01*
X117154353Y-56856449D01*
X116988203Y-56823400D01*
X116960000Y-56823400D01*
X116960000Y-56795297D01*
X116926951Y-56629147D01*
X116862122Y-56472637D01*
X116768005Y-56331782D01*
X116648218Y-56211995D01*
X116507363Y-56117878D01*
X116350853Y-56053049D01*
X116184703Y-56020000D01*
X116015297Y-56020000D01*
X115849147Y-56053049D01*
X115692637Y-56117878D01*
X115551782Y-56211995D01*
X115431995Y-56331782D01*
X115337878Y-56472637D01*
X115273049Y-56629147D01*
X115240000Y-56795297D01*
X115240000Y-56856651D01*
X115111143Y-56831020D01*
X115099040Y-56831020D01*
X115099040Y-56737637D01*
X115065991Y-56571487D01*
X115001162Y-56414977D01*
X114907045Y-56274122D01*
X114787258Y-56154335D01*
X114646403Y-56060218D01*
X114489893Y-55995389D01*
X114323743Y-55962340D01*
X114154337Y-55962340D01*
X113988187Y-55995389D01*
X113831677Y-56060218D01*
X113690822Y-56154335D01*
X113571035Y-56274122D01*
X113476918Y-56414977D01*
X113412089Y-56571487D01*
X113379040Y-56737637D01*
X113379040Y-56907043D01*
X113412089Y-57073193D01*
X113476918Y-57229703D01*
X113571035Y-57370558D01*
X113690822Y-57490345D01*
X113831677Y-57584462D01*
X113988187Y-57649291D01*
X114154337Y-57682340D01*
X114166440Y-57682340D01*
X114166440Y-57775723D01*
X114181214Y-57850000D01*
X114135297Y-57850000D01*
X113969147Y-57883049D01*
X113812637Y-57947878D01*
X113671782Y-58041995D01*
X113551995Y-58161782D01*
X113457878Y-58302637D01*
X113393049Y-58459147D01*
X113360000Y-58625297D01*
X107585104Y-58625297D01*
X107670722Y-58497163D01*
X107735551Y-58340653D01*
X107768600Y-58174503D01*
X107768600Y-58005097D01*
X107735551Y-57838947D01*
X107670722Y-57682437D01*
X107576605Y-57541582D01*
X107456818Y-57421795D01*
X107315963Y-57327678D01*
X107159453Y-57262849D01*
X106993303Y-57229800D01*
X106823897Y-57229800D01*
X106657747Y-57262849D01*
X106501237Y-57327678D01*
X106360382Y-57421795D01*
X106240595Y-57541582D01*
X106146478Y-57682437D01*
X106081649Y-57838947D01*
X106048600Y-58005097D01*
X104579219Y-58005097D01*
X104578100Y-57799650D01*
X104419350Y-57640900D01*
X103220100Y-57640900D01*
X102966100Y-57640900D01*
X101766850Y-57640900D01*
X101608100Y-57799650D01*
X101605028Y-58363900D01*
X100660000Y-58363900D01*
X100660000Y-56663900D01*
X101605028Y-56663900D01*
X101608100Y-57228150D01*
X101766850Y-57386900D01*
X102966100Y-57386900D01*
X102966100Y-56187650D01*
X103220100Y-56187650D01*
X103220100Y-57386900D01*
X104419350Y-57386900D01*
X104578100Y-57228150D01*
X104581172Y-56663900D01*
X104568912Y-56539418D01*
X104532602Y-56419720D01*
X104473637Y-56309406D01*
X104394285Y-56212715D01*
X104297594Y-56133363D01*
X104187280Y-56074398D01*
X104067582Y-56038088D01*
X103943100Y-56025828D01*
X103378850Y-56028900D01*
X103220100Y-56187650D01*
X102966100Y-56187650D01*
X102807350Y-56028900D01*
X102243100Y-56025828D01*
X102118618Y-56038088D01*
X101998920Y-56074398D01*
X101888606Y-56133363D01*
X101791915Y-56212715D01*
X101712563Y-56309406D01*
X101653598Y-56419720D01*
X101617288Y-56539418D01*
X101605028Y-56663900D01*
X100660000Y-56663900D01*
X100660000Y-53660000D01*
X105960997Y-53660000D01*
X105903463Y-53730106D01*
X105844498Y-53840420D01*
X105808188Y-53960118D01*
X105795928Y-54084600D01*
X105795928Y-55084600D01*
X105808188Y-55209082D01*
X105844498Y-55328780D01*
X105903463Y-55439094D01*
X105982815Y-55535785D01*
X106079506Y-55615137D01*
X106189820Y-55674102D01*
X106309518Y-55710412D01*
X106434000Y-55722672D01*
X107434000Y-55722672D01*
X107558482Y-55710412D01*
X107678180Y-55674102D01*
X107788494Y-55615137D01*
X107885185Y-55535785D01*
X107964537Y-55439094D01*
X108023502Y-55328780D01*
X108059812Y-55209082D01*
X108072072Y-55084600D01*
X108072072Y-54865297D01*
X109370000Y-54865297D01*
X109370000Y-55034703D01*
X109403049Y-55200853D01*
X109467878Y-55357363D01*
X109561995Y-55498218D01*
X109588777Y-55525000D01*
X109561995Y-55551782D01*
X109467878Y-55692637D01*
X109403049Y-55849147D01*
X109370000Y-56015297D01*
X109370000Y-56184703D01*
X109403049Y-56350853D01*
X109467878Y-56507363D01*
X109561995Y-56648218D01*
X109681782Y-56768005D01*
X109822637Y-56862122D01*
X109979147Y-56926951D01*
X110145297Y-56960000D01*
X110314703Y-56960000D01*
X110480853Y-56926951D01*
X110637363Y-56862122D01*
X110778218Y-56768005D01*
X110898005Y-56648218D01*
X110992122Y-56507363D01*
X111056951Y-56350853D01*
X111090000Y-56184703D01*
X111090000Y-56015297D01*
X111056951Y-55849147D01*
X110992122Y-55692637D01*
X110898005Y-55551782D01*
X110871223Y-55525000D01*
X110898005Y-55498218D01*
X110992122Y-55357363D01*
X111056951Y-55200853D01*
X111090000Y-55034703D01*
X111090000Y-54865297D01*
X111064810Y-54738657D01*
X114146120Y-54738657D01*
X114146120Y-54908063D01*
X114179169Y-55074213D01*
X114243998Y-55230723D01*
X114338115Y-55371578D01*
X114457902Y-55491365D01*
X114598757Y-55585482D01*
X114755267Y-55650311D01*
X114921417Y-55683360D01*
X115090823Y-55683360D01*
X115256973Y-55650311D01*
X115413483Y-55585482D01*
X115554338Y-55491365D01*
X115674125Y-55371578D01*
X115768242Y-55230723D01*
X115833071Y-55074213D01*
X115866120Y-54908063D01*
X115866120Y-54738657D01*
X115833071Y-54572507D01*
X115768242Y-54415997D01*
X115674125Y-54275142D01*
X115554338Y-54155355D01*
X115413483Y-54061238D01*
X115256973Y-53996409D01*
X115090823Y-53963360D01*
X114921417Y-53963360D01*
X114755267Y-53996409D01*
X114598757Y-54061238D01*
X114457902Y-54155355D01*
X114338115Y-54275142D01*
X114243998Y-54415997D01*
X114179169Y-54572507D01*
X114146120Y-54738657D01*
X111064810Y-54738657D01*
X111056951Y-54699147D01*
X110992122Y-54542637D01*
X110898005Y-54401782D01*
X110778218Y-54281995D01*
X110637363Y-54187878D01*
X110480853Y-54123049D01*
X110314703Y-54090000D01*
X110145297Y-54090000D01*
X109979147Y-54123049D01*
X109822637Y-54187878D01*
X109681782Y-54281995D01*
X109561995Y-54401782D01*
X109467878Y-54542637D01*
X109403049Y-54699147D01*
X109370000Y-54865297D01*
X108072072Y-54865297D01*
X108072072Y-54084600D01*
X108059812Y-53960118D01*
X108023502Y-53840420D01*
X107964537Y-53730106D01*
X107907003Y-53660000D01*
X113967581Y-53660000D01*
X114000000Y-53663193D01*
X114032419Y-53660000D01*
X114129383Y-53650450D01*
X114253793Y-53612710D01*
X114368450Y-53551425D01*
X114373358Y-53547397D01*
X115751400Y-53547397D01*
X115751400Y-53716803D01*
X115784449Y-53882953D01*
X115849278Y-54039463D01*
X115943395Y-54180318D01*
X116063182Y-54300105D01*
X116204037Y-54394222D01*
X116360547Y-54459051D01*
X116526697Y-54492100D01*
X116696103Y-54492100D01*
X116862253Y-54459051D01*
X117018763Y-54394222D01*
X117159618Y-54300105D01*
X117279405Y-54180318D01*
X117373522Y-54039463D01*
X117438351Y-53882953D01*
X117471400Y-53716803D01*
X117471400Y-53547397D01*
X117438351Y-53381247D01*
X117373522Y-53224737D01*
X117279405Y-53083882D01*
X117159618Y-52964095D01*
X117018763Y-52869978D01*
X116862253Y-52805149D01*
X116696103Y-52772100D01*
X116526697Y-52772100D01*
X116360547Y-52805149D01*
X116204037Y-52869978D01*
X116063182Y-52964095D01*
X115943395Y-53083882D01*
X115849278Y-53224737D01*
X115784449Y-53381247D01*
X115751400Y-53547397D01*
X114373358Y-53547397D01*
X114468948Y-53468948D01*
X114551425Y-53368450D01*
X114612710Y-53253793D01*
X114650450Y-53129383D01*
X114663193Y-53000000D01*
X114660000Y-52967581D01*
X114660000Y-48282279D01*
X114674341Y-48136015D01*
X114707443Y-48026375D01*
X114761212Y-47925252D01*
X114833599Y-47836497D01*
X114921848Y-47763491D01*
X115022591Y-47709019D01*
X115132004Y-47675150D01*
X115276145Y-47660000D01*
X122417721Y-47660000D01*
X122563985Y-47674341D01*
X122563985Y-47674341D01*
G37*
X122563985Y-47674341D02*
X122673625Y-47707443D01*
X122774748Y-47761212D01*
X122863503Y-47833599D01*
X122936509Y-47921848D01*
X122990981Y-48022591D01*
X123024850Y-48132004D01*
X123040000Y-48276145D01*
X123040001Y-51008287D01*
X122950633Y-50971269D01*
X122784483Y-50938220D01*
X122615077Y-50938220D01*
X122448927Y-50971269D01*
X122292417Y-51036098D01*
X122164760Y-51121397D01*
X122140558Y-51097195D01*
X121999703Y-51003078D01*
X121843193Y-50938249D01*
X121677043Y-50905200D01*
X121507637Y-50905200D01*
X121341487Y-50938249D01*
X121184977Y-51003078D01*
X121087772Y-51068029D01*
X121045818Y-51026075D01*
X120904963Y-50931958D01*
X120748453Y-50867129D01*
X120582303Y-50834080D01*
X120412897Y-50834080D01*
X120246747Y-50867129D01*
X120090237Y-50931958D01*
X119949382Y-51026075D01*
X119829595Y-51145862D01*
X119735478Y-51286717D01*
X119670649Y-51443227D01*
X119637600Y-51609377D01*
X119637600Y-51778783D01*
X119670649Y-51944933D01*
X119735478Y-52101443D01*
X119829595Y-52242298D01*
X119949382Y-52362085D01*
X120090237Y-52456202D01*
X120246747Y-52521031D01*
X120412897Y-52554080D01*
X120582303Y-52554080D01*
X120748453Y-52521031D01*
X120904963Y-52456202D01*
X121002168Y-52391251D01*
X121044122Y-52433205D01*
X121184977Y-52527322D01*
X121341487Y-52592151D01*
X121507637Y-52625200D01*
X121677043Y-52625200D01*
X121843193Y-52592151D01*
X121999703Y-52527322D01*
X122127360Y-52442023D01*
X122151562Y-52466225D01*
X122292417Y-52560342D01*
X122448927Y-52625171D01*
X122615077Y-52658220D01*
X122784483Y-52658220D01*
X122950633Y-52625171D01*
X123040001Y-52588153D01*
X123040001Y-52967571D01*
X123036807Y-53000000D01*
X123049550Y-53129383D01*
X123087290Y-53253793D01*
X123148575Y-53368450D01*
X123231052Y-53468948D01*
X123331550Y-53551425D01*
X123446207Y-53612710D01*
X123570617Y-53650450D01*
X123667581Y-53660000D01*
X123700000Y-53663193D01*
X123732419Y-53660000D01*
X136840000Y-53660000D01*
X136840001Y-86340000D01*
X100660000Y-86340000D01*
X100660000Y-82713100D01*
X101750228Y-82713100D01*
X101750228Y-84413100D01*
X101762488Y-84537582D01*
X101798798Y-84657280D01*
X101857763Y-84767594D01*
X101937115Y-84864285D01*
X102033806Y-84943637D01*
X102144120Y-85002602D01*
X102263818Y-85038912D01*
X102388300Y-85051172D01*
X104088300Y-85051172D01*
X104212782Y-85038912D01*
X104332480Y-85002602D01*
X104442794Y-84943637D01*
X104539485Y-84864285D01*
X104618837Y-84767594D01*
X104677802Y-84657280D01*
X104714112Y-84537582D01*
X104726372Y-84413100D01*
X104726372Y-84056600D01*
X111790328Y-84056600D01*
X111790328Y-85056600D01*
X111802588Y-85181082D01*
X111838898Y-85300780D01*
X111897863Y-85411094D01*
X111977215Y-85507785D01*
X112073906Y-85587137D01*
X112184220Y-85646102D01*
X112303918Y-85682412D01*
X112428400Y-85694672D01*
X113428400Y-85694672D01*
X113552882Y-85682412D01*
X113672580Y-85646102D01*
X113782894Y-85587137D01*
X113879585Y-85507785D01*
X113958937Y-85411094D01*
X114017902Y-85300780D01*
X114054212Y-85181082D01*
X114066472Y-85056600D01*
X114066472Y-84056600D01*
X114065222Y-84043900D01*
X114317628Y-84043900D01*
X114317628Y-85043900D01*
X114329888Y-85168382D01*
X114366198Y-85288080D01*
X114425163Y-85398394D01*
X114504515Y-85495085D01*
X114601206Y-85574437D01*
X114711520Y-85633402D01*
X114831218Y-85669712D01*
X114955700Y-85681972D01*
X115955700Y-85681972D01*
X116080182Y-85669712D01*
X116199880Y-85633402D01*
X116310194Y-85574437D01*
X116406885Y-85495085D01*
X116486237Y-85398394D01*
X116545202Y-85288080D01*
X116581512Y-85168382D01*
X116593772Y-85043900D01*
X116593772Y-84043900D01*
X116591271Y-84018500D01*
X118178428Y-84018500D01*
X118178428Y-85018500D01*
X118190688Y-85142982D01*
X118226998Y-85262680D01*
X118285963Y-85372994D01*
X118365315Y-85469685D01*
X118462006Y-85549037D01*
X118572320Y-85608002D01*
X118692018Y-85644312D01*
X118816500Y-85656572D01*
X119816500Y-85656572D01*
X119940982Y-85644312D01*
X120060680Y-85608002D01*
X120170994Y-85549037D01*
X120267685Y-85469685D01*
X120347037Y-85372994D01*
X120406002Y-85262680D01*
X120442312Y-85142982D01*
X120454572Y-85018500D01*
X120454572Y-84018500D01*
X120718428Y-84018500D01*
X120718428Y-85018500D01*
X120730688Y-85142982D01*
X120766998Y-85262680D01*
X120825963Y-85372994D01*
X120905315Y-85469685D01*
X121002006Y-85549037D01*
X121112320Y-85608002D01*
X121232018Y-85644312D01*
X121356500Y-85656572D01*
X122356500Y-85656572D01*
X122480982Y-85644312D01*
X122600680Y-85608002D01*
X122710994Y-85549037D01*
X122807685Y-85469685D01*
X122887037Y-85372994D01*
X122946002Y-85262680D01*
X122982312Y-85142982D01*
X122994572Y-85018500D01*
X122994572Y-84018500D01*
X123944228Y-84018500D01*
X123944228Y-85018500D01*
X123956488Y-85142982D01*
X123992798Y-85262680D01*
X124051763Y-85372994D01*
X124131115Y-85469685D01*
X124227806Y-85549037D01*
X124338120Y-85608002D01*
X124457818Y-85644312D01*
X124582300Y-85656572D01*
X125582300Y-85656572D01*
X125706782Y-85644312D01*
X125826480Y-85608002D01*
X125936794Y-85549037D01*
X126033485Y-85469685D01*
X126112837Y-85372994D01*
X126171802Y-85262680D01*
X126208112Y-85142982D01*
X126220372Y-85018500D01*
X126220372Y-84018500D01*
X126208112Y-83894018D01*
X126171802Y-83774320D01*
X126112837Y-83664006D01*
X126033485Y-83567315D01*
X125936794Y-83487963D01*
X125826480Y-83428998D01*
X125706782Y-83392688D01*
X125582300Y-83380428D01*
X124582300Y-83380428D01*
X124457818Y-83392688D01*
X124338120Y-83428998D01*
X124227806Y-83487963D01*
X124131115Y-83567315D01*
X124051763Y-83664006D01*
X123992798Y-83774320D01*
X123956488Y-83894018D01*
X123944228Y-84018500D01*
X122994572Y-84018500D01*
X122982312Y-83894018D01*
X122946002Y-83774320D01*
X122887037Y-83664006D01*
X122807685Y-83567315D01*
X122710994Y-83487963D01*
X122600680Y-83428998D01*
X122480982Y-83392688D01*
X122356500Y-83380428D01*
X121356500Y-83380428D01*
X121232018Y-83392688D01*
X121112320Y-83428998D01*
X121002006Y-83487963D01*
X120905315Y-83567315D01*
X120825963Y-83664006D01*
X120766998Y-83774320D01*
X120730688Y-83894018D01*
X120718428Y-84018500D01*
X120454572Y-84018500D01*
X120442312Y-83894018D01*
X120406002Y-83774320D01*
X120347037Y-83664006D01*
X120267685Y-83567315D01*
X120170994Y-83487963D01*
X120060680Y-83428998D01*
X119940982Y-83392688D01*
X119816500Y-83380428D01*
X118816500Y-83380428D01*
X118692018Y-83392688D01*
X118572320Y-83428998D01*
X118462006Y-83487963D01*
X118365315Y-83567315D01*
X118285963Y-83664006D01*
X118226998Y-83774320D01*
X118190688Y-83894018D01*
X118178428Y-84018500D01*
X116591271Y-84018500D01*
X116581512Y-83919418D01*
X116545202Y-83799720D01*
X116486237Y-83689406D01*
X116406885Y-83592715D01*
X116310194Y-83513363D01*
X116199880Y-83454398D01*
X116080182Y-83418088D01*
X115955700Y-83405828D01*
X114955700Y-83405828D01*
X114831218Y-83418088D01*
X114711520Y-83454398D01*
X114601206Y-83513363D01*
X114504515Y-83592715D01*
X114425163Y-83689406D01*
X114366198Y-83799720D01*
X114329888Y-83919418D01*
X114317628Y-84043900D01*
X114065222Y-84043900D01*
X114054212Y-83932118D01*
X114017902Y-83812420D01*
X113958937Y-83702106D01*
X113879585Y-83605415D01*
X113782894Y-83526063D01*
X113672580Y-83467098D01*
X113552882Y-83430788D01*
X113428400Y-83418528D01*
X112428400Y-83418528D01*
X112303918Y-83430788D01*
X112184220Y-83467098D01*
X112073906Y-83526063D01*
X111977215Y-83605415D01*
X111897863Y-83702106D01*
X111838898Y-83812420D01*
X111802588Y-83932118D01*
X111790328Y-84056600D01*
X104726372Y-84056600D01*
X104726372Y-82713100D01*
X104714112Y-82588618D01*
X104677802Y-82468920D01*
X104618837Y-82358606D01*
X104539485Y-82261915D01*
X104442794Y-82182563D01*
X104332480Y-82123598D01*
X104212782Y-82087288D01*
X104088300Y-82075028D01*
X102388300Y-82075028D01*
X102263818Y-82087288D01*
X102144120Y-82123598D01*
X102033806Y-82182563D01*
X101937115Y-82261915D01*
X101857763Y-82358606D01*
X101798798Y-82468920D01*
X101762488Y-82588618D01*
X101750228Y-82713100D01*
X100660000Y-82713100D01*
X100660000Y-81425297D01*
X117880000Y-81425297D01*
X117880000Y-81594703D01*
X117913049Y-81760853D01*
X117977878Y-81917363D01*
X118071995Y-82058218D01*
X118191782Y-82178005D01*
X118332637Y-82272122D01*
X118489147Y-82336951D01*
X118655297Y-82370000D01*
X118824703Y-82370000D01*
X118990853Y-82336951D01*
X119147363Y-82272122D01*
X119288218Y-82178005D01*
X119408005Y-82058218D01*
X119502122Y-81917363D01*
X119566951Y-81760853D01*
X119600000Y-81594703D01*
X119600000Y-81425297D01*
X119566951Y-81259147D01*
X119502122Y-81102637D01*
X119408005Y-80961782D01*
X119288218Y-80841995D01*
X119147363Y-80747878D01*
X118990853Y-80683049D01*
X118901607Y-80665297D01*
X119650000Y-80665297D01*
X119650000Y-80834703D01*
X119683049Y-81000853D01*
X119747878Y-81157363D01*
X119841995Y-81298218D01*
X119961782Y-81418005D01*
X120102637Y-81512122D01*
X120259147Y-81576951D01*
X120425297Y-81610000D01*
X120594703Y-81610000D01*
X120760853Y-81576951D01*
X120917363Y-81512122D01*
X121058218Y-81418005D01*
X121178005Y-81298218D01*
X121272122Y-81157363D01*
X121336951Y-81000853D01*
X121370000Y-80834703D01*
X121370000Y-80665297D01*
X121336951Y-80499147D01*
X121272122Y-80342637D01*
X121178005Y-80201782D01*
X121058218Y-80081995D01*
X120917363Y-79987878D01*
X120760853Y-79923049D01*
X120644460Y-79899897D01*
X121250500Y-79899897D01*
X121250500Y-80069303D01*
X121283549Y-80235453D01*
X121348378Y-80391963D01*
X121442495Y-80532818D01*
X121562282Y-80652605D01*
X121703137Y-80746722D01*
X121859647Y-80811551D01*
X122025797Y-80844600D01*
X122195203Y-80844600D01*
X122361353Y-80811551D01*
X122517863Y-80746722D01*
X122658718Y-80652605D01*
X122778505Y-80532818D01*
X122872622Y-80391963D01*
X122937451Y-80235453D01*
X122970500Y-80069303D01*
X122970500Y-79899897D01*
X122937451Y-79733747D01*
X122872622Y-79577237D01*
X122778505Y-79436382D01*
X122658718Y-79316595D01*
X122517863Y-79222478D01*
X122361353Y-79157649D01*
X122195203Y-79124600D01*
X122025797Y-79124600D01*
X121859647Y-79157649D01*
X121703137Y-79222478D01*
X121562282Y-79316595D01*
X121442495Y-79436382D01*
X121348378Y-79577237D01*
X121283549Y-79733747D01*
X121250500Y-79899897D01*
X120644460Y-79899897D01*
X120594703Y-79890000D01*
X120425297Y-79890000D01*
X120259147Y-79923049D01*
X120102637Y-79987878D01*
X119961782Y-80081995D01*
X119841995Y-80201782D01*
X119747878Y-80342637D01*
X119683049Y-80499147D01*
X119650000Y-80665297D01*
X118901607Y-80665297D01*
X118824703Y-80650000D01*
X118655297Y-80650000D01*
X118489147Y-80683049D01*
X118332637Y-80747878D01*
X118191782Y-80841995D01*
X118071995Y-80961782D01*
X117977878Y-81102637D01*
X117913049Y-81259147D01*
X117880000Y-81425297D01*
X100660000Y-81425297D01*
X100660000Y-78563100D01*
X101750228Y-78563100D01*
X101750228Y-80263100D01*
X101762488Y-80387582D01*
X101798798Y-80507280D01*
X101857763Y-80617594D01*
X101937115Y-80714285D01*
X102033806Y-80793637D01*
X102144120Y-80852602D01*
X102263818Y-80888912D01*
X102388300Y-80901172D01*
X104088300Y-80901172D01*
X104212782Y-80888912D01*
X104332480Y-80852602D01*
X104442794Y-80793637D01*
X104539485Y-80714285D01*
X104618837Y-80617594D01*
X104677802Y-80507280D01*
X104714112Y-80387582D01*
X104726372Y-80263100D01*
X104726372Y-79480797D01*
X114417900Y-79480797D01*
X114417900Y-79650203D01*
X114450949Y-79816353D01*
X114515778Y-79972863D01*
X114609895Y-80113718D01*
X114729682Y-80233505D01*
X114870537Y-80327622D01*
X115027047Y-80392451D01*
X115193197Y-80425500D01*
X115362603Y-80425500D01*
X115528753Y-80392451D01*
X115685263Y-80327622D01*
X115826118Y-80233505D01*
X115945905Y-80113718D01*
X116040022Y-79972863D01*
X116104851Y-79816353D01*
X116137900Y-79650203D01*
X116137900Y-79480797D01*
X116121161Y-79396645D01*
X116142463Y-79387822D01*
X116185701Y-79358931D01*
X116231997Y-79428218D01*
X116351784Y-79548005D01*
X116492639Y-79642122D01*
X116649149Y-79706951D01*
X116815299Y-79740000D01*
X116882879Y-79740000D01*
X116883049Y-79740853D01*
X116947878Y-79897363D01*
X117041995Y-80038218D01*
X117161782Y-80158005D01*
X117302637Y-80252122D01*
X117459147Y-80316951D01*
X117625297Y-80350000D01*
X117794703Y-80350000D01*
X117960853Y-80316951D01*
X118117363Y-80252122D01*
X118258218Y-80158005D01*
X118378005Y-80038218D01*
X118472122Y-79897363D01*
X118536951Y-79740853D01*
X118570000Y-79574703D01*
X118570000Y-79405297D01*
X118536951Y-79239147D01*
X118472122Y-79082637D01*
X118378005Y-78941782D01*
X118258218Y-78821995D01*
X118117363Y-78727878D01*
X117960853Y-78663049D01*
X117794703Y-78630000D01*
X117727123Y-78630000D01*
X117726953Y-78629147D01*
X117662124Y-78472637D01*
X117568007Y-78331782D01*
X117448220Y-78211995D01*
X117307365Y-78117878D01*
X117150855Y-78053049D01*
X116984705Y-78020000D01*
X116815299Y-78020000D01*
X116649149Y-78053049D01*
X116492639Y-78117878D01*
X116449401Y-78146769D01*
X116403105Y-78077482D01*
X116283318Y-77957695D01*
X116142463Y-77863578D01*
X115985953Y-77798749D01*
X115819803Y-77765700D01*
X115650397Y-77765700D01*
X115484247Y-77798749D01*
X115327737Y-77863578D01*
X115186882Y-77957695D01*
X115067095Y-78077482D01*
X114972978Y-78218337D01*
X114908149Y-78374847D01*
X114875100Y-78540997D01*
X114875100Y-78710403D01*
X114891839Y-78794555D01*
X114870537Y-78803378D01*
X114729682Y-78897495D01*
X114609895Y-79017282D01*
X114515778Y-79158137D01*
X114450949Y-79314647D01*
X114417900Y-79480797D01*
X104726372Y-79480797D01*
X104726372Y-78563100D01*
X104714112Y-78438618D01*
X104677802Y-78318920D01*
X104618837Y-78208606D01*
X104539485Y-78111915D01*
X104442794Y-78032563D01*
X104332480Y-77973598D01*
X104212782Y-77937288D01*
X104088300Y-77925028D01*
X102388300Y-77925028D01*
X102263818Y-77937288D01*
X102144120Y-77973598D01*
X102033806Y-78032563D01*
X101937115Y-78111915D01*
X101857763Y-78208606D01*
X101798798Y-78318920D01*
X101762488Y-78438618D01*
X101750228Y-78563100D01*
X100660000Y-78563100D01*
X100660000Y-76318497D01*
X110722200Y-76318497D01*
X110722200Y-76487903D01*
X110755249Y-76654053D01*
X110820078Y-76810563D01*
X110914195Y-76951418D01*
X110962877Y-77000100D01*
X110952295Y-77010682D01*
X110858178Y-77151537D01*
X110793349Y-77308047D01*
X110760300Y-77474197D01*
X110760300Y-77643603D01*
X110793349Y-77809753D01*
X110858178Y-77966263D01*
X110952295Y-78107118D01*
X111072082Y-78226905D01*
X111212937Y-78321022D01*
X111369447Y-78385851D01*
X111535597Y-78418900D01*
X111705003Y-78418900D01*
X111871153Y-78385851D01*
X112027663Y-78321022D01*
X112168518Y-78226905D01*
X112288305Y-78107118D01*
X112382422Y-77966263D01*
X112447251Y-77809753D01*
X112480300Y-77643603D01*
X112480300Y-77626597D01*
X120183700Y-77626597D01*
X120183700Y-77796003D01*
X120216749Y-77962153D01*
X120281578Y-78118663D01*
X120375695Y-78259518D01*
X120495482Y-78379305D01*
X120636337Y-78473422D01*
X120792847Y-78538251D01*
X120958997Y-78571300D01*
X121128403Y-78571300D01*
X121294553Y-78538251D01*
X121451063Y-78473422D01*
X121591918Y-78379305D01*
X121711705Y-78259518D01*
X121805822Y-78118663D01*
X121870651Y-77962153D01*
X121903700Y-77796003D01*
X121903700Y-77626597D01*
X121870651Y-77460447D01*
X121805822Y-77303937D01*
X121711705Y-77163082D01*
X121591918Y-77043295D01*
X121451063Y-76949178D01*
X121294553Y-76884349D01*
X121128403Y-76851300D01*
X120958997Y-76851300D01*
X120792847Y-76884349D01*
X120636337Y-76949178D01*
X120495482Y-77043295D01*
X120375695Y-77163082D01*
X120281578Y-77303937D01*
X120216749Y-77460447D01*
X120183700Y-77626597D01*
X112480300Y-77626597D01*
X112480300Y-77474197D01*
X112447251Y-77308047D01*
X112382422Y-77151537D01*
X112288305Y-77010682D01*
X112239623Y-76962000D01*
X112250205Y-76951418D01*
X112344322Y-76810563D01*
X112409151Y-76654053D01*
X112442200Y-76487903D01*
X112442200Y-76442957D01*
X124885240Y-76442957D01*
X124885240Y-76612363D01*
X124918289Y-76778513D01*
X124983118Y-76935023D01*
X125077235Y-77075878D01*
X125197022Y-77195665D01*
X125337877Y-77289782D01*
X125494387Y-77354611D01*
X125660537Y-77387660D01*
X125829943Y-77387660D01*
X125996093Y-77354611D01*
X126152603Y-77289782D01*
X126293458Y-77195665D01*
X126413245Y-77075878D01*
X126507362Y-76935023D01*
X126572191Y-76778513D01*
X126605240Y-76612363D01*
X126605240Y-76475977D01*
X129701080Y-76475977D01*
X129701080Y-76645383D01*
X129734129Y-76811533D01*
X129798958Y-76968043D01*
X129893075Y-77108898D01*
X130012862Y-77228685D01*
X130153717Y-77322802D01*
X130310227Y-77387631D01*
X130476377Y-77420680D01*
X130645783Y-77420680D01*
X130811933Y-77387631D01*
X130968443Y-77322802D01*
X131109298Y-77228685D01*
X131229085Y-77108898D01*
X131323202Y-76968043D01*
X131388031Y-76811533D01*
X131421080Y-76645383D01*
X131421080Y-76475977D01*
X131408066Y-76410549D01*
X131417982Y-76420465D01*
X131558837Y-76514582D01*
X131715347Y-76579411D01*
X131881497Y-76612460D01*
X132050903Y-76612460D01*
X132217053Y-76579411D01*
X132373563Y-76514582D01*
X132514418Y-76420465D01*
X132634205Y-76300678D01*
X132728322Y-76159823D01*
X132793151Y-76003313D01*
X132826200Y-75837163D01*
X132826200Y-75667757D01*
X132793151Y-75501607D01*
X132728322Y-75345097D01*
X132634205Y-75204242D01*
X132514418Y-75084455D01*
X132373563Y-74990338D01*
X132217053Y-74925509D01*
X132050903Y-74892460D01*
X131881497Y-74892460D01*
X131715347Y-74925509D01*
X131558837Y-74990338D01*
X131417982Y-75084455D01*
X131298195Y-75204242D01*
X131204078Y-75345097D01*
X131139249Y-75501607D01*
X131106200Y-75667757D01*
X131106200Y-75837163D01*
X131119214Y-75902591D01*
X131109298Y-75892675D01*
X130968443Y-75798558D01*
X130811933Y-75733729D01*
X130645783Y-75700680D01*
X130476377Y-75700680D01*
X130310227Y-75733729D01*
X130153717Y-75798558D01*
X130012862Y-75892675D01*
X129893075Y-76012462D01*
X129798958Y-76153317D01*
X129734129Y-76309827D01*
X129701080Y-76475977D01*
X126605240Y-76475977D01*
X126605240Y-76442957D01*
X126572191Y-76276807D01*
X126507362Y-76120297D01*
X126413245Y-75979442D01*
X126293458Y-75859655D01*
X126152603Y-75765538D01*
X125996093Y-75700709D01*
X125829943Y-75667660D01*
X125660537Y-75667660D01*
X125494387Y-75700709D01*
X125337877Y-75765538D01*
X125197022Y-75859655D01*
X125077235Y-75979442D01*
X124983118Y-76120297D01*
X124918289Y-76276807D01*
X124885240Y-76442957D01*
X112442200Y-76442957D01*
X112442200Y-76318497D01*
X112409151Y-76152347D01*
X112344322Y-75995837D01*
X112250205Y-75854982D01*
X112130418Y-75735195D01*
X111989563Y-75641078D01*
X111833053Y-75576249D01*
X111666903Y-75543200D01*
X111497497Y-75543200D01*
X111331347Y-75576249D01*
X111174837Y-75641078D01*
X111033982Y-75735195D01*
X110914195Y-75854982D01*
X110820078Y-75995837D01*
X110755249Y-76152347D01*
X110722200Y-76318497D01*
X100660000Y-76318497D01*
X100660000Y-74311897D01*
X110709500Y-74311897D01*
X110709500Y-74481303D01*
X110742549Y-74647453D01*
X110807378Y-74803963D01*
X110901495Y-74944818D01*
X111021282Y-75064605D01*
X111162137Y-75158722D01*
X111318647Y-75223551D01*
X111484797Y-75256600D01*
X111654203Y-75256600D01*
X111820353Y-75223551D01*
X111976863Y-75158722D01*
X112117718Y-75064605D01*
X112237505Y-74944818D01*
X112331622Y-74803963D01*
X112396451Y-74647453D01*
X112429500Y-74481303D01*
X112429500Y-74324597D01*
X120221800Y-74324597D01*
X120221800Y-74494003D01*
X120254849Y-74660153D01*
X120319678Y-74816663D01*
X120413795Y-74957518D01*
X120533582Y-75077305D01*
X120674437Y-75171422D01*
X120830947Y-75236251D01*
X120997097Y-75269300D01*
X121166503Y-75269300D01*
X121332653Y-75236251D01*
X121489163Y-75171422D01*
X121630018Y-75077305D01*
X121749805Y-74957518D01*
X121843922Y-74816663D01*
X121908751Y-74660153D01*
X121922447Y-74591297D01*
X126642920Y-74591297D01*
X126642920Y-74760703D01*
X126675969Y-74926853D01*
X126740798Y-75083363D01*
X126834915Y-75224218D01*
X126954702Y-75344005D01*
X127095557Y-75438122D01*
X127252067Y-75502951D01*
X127418217Y-75536000D01*
X127587623Y-75536000D01*
X127753773Y-75502951D01*
X127910283Y-75438122D01*
X128051138Y-75344005D01*
X128170925Y-75224218D01*
X128265042Y-75083363D01*
X128329871Y-74926853D01*
X128362920Y-74760703D01*
X128362920Y-74591297D01*
X128329871Y-74425147D01*
X128265042Y-74268637D01*
X128170925Y-74127782D01*
X128051138Y-74007995D01*
X127910283Y-73913878D01*
X127753773Y-73849049D01*
X127587623Y-73816000D01*
X127418217Y-73816000D01*
X127252067Y-73849049D01*
X127095557Y-73913878D01*
X126954702Y-74007995D01*
X126834915Y-74127782D01*
X126740798Y-74268637D01*
X126675969Y-74425147D01*
X126642920Y-74591297D01*
X121922447Y-74591297D01*
X121941800Y-74494003D01*
X121941800Y-74324597D01*
X121908751Y-74158447D01*
X121843922Y-74001937D01*
X121749805Y-73861082D01*
X121659600Y-73770877D01*
X129457240Y-73770877D01*
X129457240Y-73940283D01*
X129490289Y-74106433D01*
X129555118Y-74262943D01*
X129649235Y-74403798D01*
X129769022Y-74523585D01*
X129909877Y-74617702D01*
X130066387Y-74682531D01*
X130232537Y-74715580D01*
X130401943Y-74715580D01*
X130568093Y-74682531D01*
X130638550Y-74653347D01*
X130709007Y-74682531D01*
X130875157Y-74715580D01*
X131044563Y-74715580D01*
X131210713Y-74682531D01*
X131367223Y-74617702D01*
X131508078Y-74523585D01*
X131627865Y-74403798D01*
X131721982Y-74262943D01*
X131786811Y-74106433D01*
X131819860Y-73940283D01*
X131819860Y-73770877D01*
X131786811Y-73604727D01*
X131721982Y-73448217D01*
X131627865Y-73307362D01*
X131508078Y-73187575D01*
X131367223Y-73093458D01*
X131210713Y-73028629D01*
X131044563Y-72995580D01*
X130875157Y-72995580D01*
X130709007Y-73028629D01*
X130638550Y-73057813D01*
X130568093Y-73028629D01*
X130401943Y-72995580D01*
X130232537Y-72995580D01*
X130066387Y-73028629D01*
X129909877Y-73093458D01*
X129769022Y-73187575D01*
X129649235Y-73307362D01*
X129555118Y-73448217D01*
X129490289Y-73604727D01*
X129457240Y-73770877D01*
X121659600Y-73770877D01*
X121630018Y-73741295D01*
X121489163Y-73647178D01*
X121332653Y-73582349D01*
X121166503Y-73549300D01*
X120997097Y-73549300D01*
X120830947Y-73582349D01*
X120674437Y-73647178D01*
X120533582Y-73741295D01*
X120413795Y-73861082D01*
X120319678Y-74001937D01*
X120254849Y-74158447D01*
X120221800Y-74324597D01*
X112429500Y-74324597D01*
X112429500Y-74311897D01*
X112396451Y-74145747D01*
X112331622Y-73989237D01*
X112237505Y-73848382D01*
X112117718Y-73728595D01*
X111976863Y-73634478D01*
X111820353Y-73569649D01*
X111654203Y-73536600D01*
X111484797Y-73536600D01*
X111318647Y-73569649D01*
X111162137Y-73634478D01*
X111021282Y-73728595D01*
X110901495Y-73848382D01*
X110807378Y-73989237D01*
X110742549Y-74145747D01*
X110709500Y-74311897D01*
X100660000Y-74311897D01*
X100660000Y-71123900D01*
X101555028Y-71123900D01*
X101555028Y-72823900D01*
X101567288Y-72948382D01*
X101603598Y-73068080D01*
X101662563Y-73178394D01*
X101741915Y-73275085D01*
X101838606Y-73354437D01*
X101948920Y-73413402D01*
X102068618Y-73449712D01*
X102193100Y-73461972D01*
X103893100Y-73461972D01*
X104017582Y-73449712D01*
X104137280Y-73413402D01*
X104247594Y-73354437D01*
X104344285Y-73275085D01*
X104423637Y-73178394D01*
X104482602Y-73068080D01*
X104518912Y-72948382D01*
X104531172Y-72823900D01*
X104531172Y-71911597D01*
X106251800Y-71911597D01*
X106251800Y-72081003D01*
X106284849Y-72247153D01*
X106349678Y-72403663D01*
X106443795Y-72544518D01*
X106563582Y-72664305D01*
X106704437Y-72758422D01*
X106860947Y-72823251D01*
X107027097Y-72856300D01*
X107196503Y-72856300D01*
X107362653Y-72823251D01*
X107519163Y-72758422D01*
X107660018Y-72664305D01*
X107779805Y-72544518D01*
X107873922Y-72403663D01*
X107938751Y-72247153D01*
X107971800Y-72081003D01*
X107971800Y-71911597D01*
X107956644Y-71835397D01*
X111128600Y-71835397D01*
X111128600Y-72004803D01*
X111161649Y-72170953D01*
X111226478Y-72327463D01*
X111320595Y-72468318D01*
X111440382Y-72588105D01*
X111581237Y-72682222D01*
X111737747Y-72747051D01*
X111903897Y-72780100D01*
X112073303Y-72780100D01*
X112239453Y-72747051D01*
X112395963Y-72682222D01*
X112536818Y-72588105D01*
X112656605Y-72468318D01*
X112750722Y-72327463D01*
X112815551Y-72170953D01*
X112848600Y-72004803D01*
X112848600Y-71835397D01*
X112815551Y-71669247D01*
X112750722Y-71512737D01*
X112656605Y-71371882D01*
X112536818Y-71252095D01*
X112395963Y-71157978D01*
X112239453Y-71093149D01*
X112073303Y-71060100D01*
X111903897Y-71060100D01*
X111737747Y-71093149D01*
X111581237Y-71157978D01*
X111440382Y-71252095D01*
X111320595Y-71371882D01*
X111226478Y-71512737D01*
X111161649Y-71669247D01*
X111128600Y-71835397D01*
X107956644Y-71835397D01*
X107938751Y-71745447D01*
X107873922Y-71588937D01*
X107779805Y-71448082D01*
X107660018Y-71328295D01*
X107519163Y-71234178D01*
X107362653Y-71169349D01*
X107196503Y-71136300D01*
X107027097Y-71136300D01*
X106860947Y-71169349D01*
X106704437Y-71234178D01*
X106563582Y-71328295D01*
X106443795Y-71448082D01*
X106349678Y-71588937D01*
X106284849Y-71745447D01*
X106251800Y-71911597D01*
X104531172Y-71911597D01*
X104531172Y-71123900D01*
X104518912Y-70999418D01*
X104482602Y-70879720D01*
X104423637Y-70769406D01*
X104344285Y-70672715D01*
X104247594Y-70593363D01*
X104137280Y-70534398D01*
X104017582Y-70498088D01*
X103893100Y-70485828D01*
X102193100Y-70485828D01*
X102068618Y-70498088D01*
X101948920Y-70534398D01*
X101838606Y-70593363D01*
X101741915Y-70672715D01*
X101662563Y-70769406D01*
X101603598Y-70879720D01*
X101567288Y-70999418D01*
X101555028Y-71123900D01*
X100660000Y-71123900D01*
X100660000Y-69905197D01*
X117417300Y-69905197D01*
X117417300Y-70074603D01*
X117450349Y-70240753D01*
X117515178Y-70397263D01*
X117609295Y-70538118D01*
X117729082Y-70657905D01*
X117869937Y-70752022D01*
X118026447Y-70816851D01*
X118192597Y-70849900D01*
X118362003Y-70849900D01*
X118528153Y-70816851D01*
X118684663Y-70752022D01*
X118825518Y-70657905D01*
X118945305Y-70538118D01*
X119039422Y-70397263D01*
X119104251Y-70240753D01*
X119137300Y-70074603D01*
X119137300Y-69905197D01*
X119104251Y-69739047D01*
X119090397Y-69705600D01*
X127144628Y-69705600D01*
X127144628Y-70705600D01*
X127156888Y-70830082D01*
X127193198Y-70949780D01*
X127252163Y-71060094D01*
X127331515Y-71156785D01*
X127428206Y-71236137D01*
X127538520Y-71295102D01*
X127658218Y-71331412D01*
X127782700Y-71343672D01*
X128782700Y-71343672D01*
X128907182Y-71331412D01*
X129026880Y-71295102D01*
X129137194Y-71236137D01*
X129233885Y-71156785D01*
X129313237Y-71060094D01*
X129372202Y-70949780D01*
X129408512Y-70830082D01*
X129420772Y-70705600D01*
X129420772Y-69705600D01*
X131615028Y-69705600D01*
X131615028Y-70705600D01*
X131627288Y-70830082D01*
X131663598Y-70949780D01*
X131722563Y-71060094D01*
X131801915Y-71156785D01*
X131898606Y-71236137D01*
X132008920Y-71295102D01*
X132128618Y-71331412D01*
X132253100Y-71343672D01*
X133253100Y-71343672D01*
X133377582Y-71331412D01*
X133497280Y-71295102D01*
X133607594Y-71236137D01*
X133704285Y-71156785D01*
X133783637Y-71060094D01*
X133842602Y-70949780D01*
X133878912Y-70830082D01*
X133891172Y-70705600D01*
X133891172Y-69705600D01*
X133878912Y-69581118D01*
X133842602Y-69461420D01*
X133783637Y-69351106D01*
X133704285Y-69254415D01*
X133607594Y-69175063D01*
X133497280Y-69116098D01*
X133377582Y-69079788D01*
X133253100Y-69067528D01*
X132253100Y-69067528D01*
X132128618Y-69079788D01*
X132008920Y-69116098D01*
X131898606Y-69175063D01*
X131801915Y-69254415D01*
X131722563Y-69351106D01*
X131663598Y-69461420D01*
X131627288Y-69581118D01*
X131615028Y-69705600D01*
X129420772Y-69705600D01*
X129408512Y-69581118D01*
X129372202Y-69461420D01*
X129313237Y-69351106D01*
X129233885Y-69254415D01*
X129137194Y-69175063D01*
X129026880Y-69116098D01*
X128907182Y-69079788D01*
X128782700Y-69067528D01*
X127782700Y-69067528D01*
X127658218Y-69079788D01*
X127538520Y-69116098D01*
X127428206Y-69175063D01*
X127331515Y-69254415D01*
X127252163Y-69351106D01*
X127193198Y-69461420D01*
X127156888Y-69581118D01*
X127144628Y-69705600D01*
X119090397Y-69705600D01*
X119039422Y-69582537D01*
X118945305Y-69441682D01*
X118825518Y-69321895D01*
X118684663Y-69227778D01*
X118528153Y-69162949D01*
X118362003Y-69129900D01*
X118192597Y-69129900D01*
X118026447Y-69162949D01*
X117869937Y-69227778D01*
X117729082Y-69321895D01*
X117609295Y-69441682D01*
X117515178Y-69582537D01*
X117450349Y-69739047D01*
X117417300Y-69905197D01*
X100660000Y-69905197D01*
X100660000Y-66973900D01*
X101547028Y-66973900D01*
X101547028Y-68673900D01*
X101559288Y-68798382D01*
X101595598Y-68918080D01*
X101654563Y-69028394D01*
X101733915Y-69125085D01*
X101830606Y-69204437D01*
X101940920Y-69263402D01*
X102060618Y-69299712D01*
X102185100Y-69311972D01*
X103885100Y-69311972D01*
X104009582Y-69299712D01*
X104129280Y-69263402D01*
X104239594Y-69204437D01*
X104336285Y-69125085D01*
X104415637Y-69028394D01*
X104474602Y-68918080D01*
X104510912Y-68798382D01*
X104523172Y-68673900D01*
X104523172Y-68507997D01*
X105235800Y-68507997D01*
X105235800Y-68677403D01*
X105268849Y-68843553D01*
X105333678Y-69000063D01*
X105427795Y-69140918D01*
X105547582Y-69260705D01*
X105688437Y-69354822D01*
X105844947Y-69419651D01*
X106011097Y-69452700D01*
X106180503Y-69452700D01*
X106346653Y-69419651D01*
X106503163Y-69354822D01*
X106644018Y-69260705D01*
X106763805Y-69140918D01*
X106857922Y-69000063D01*
X106922751Y-68843553D01*
X106955800Y-68677403D01*
X106955800Y-68507997D01*
X106922751Y-68341847D01*
X106857922Y-68185337D01*
X106763805Y-68044482D01*
X106644018Y-67924695D01*
X106503163Y-67830578D01*
X106346653Y-67765749D01*
X106180503Y-67732700D01*
X106011097Y-67732700D01*
X105844947Y-67765749D01*
X105688437Y-67830578D01*
X105547582Y-67924695D01*
X105427795Y-68044482D01*
X105333678Y-68185337D01*
X105268849Y-68341847D01*
X105235800Y-68507997D01*
X104523172Y-68507997D01*
X104523172Y-67622800D01*
X110444128Y-67622800D01*
X110444128Y-68622800D01*
X110456388Y-68747282D01*
X110492698Y-68866980D01*
X110551663Y-68977294D01*
X110631015Y-69073985D01*
X110727706Y-69153337D01*
X110838020Y-69212302D01*
X110957718Y-69248612D01*
X111082200Y-69260872D01*
X112082200Y-69260872D01*
X112206682Y-69248612D01*
X112326380Y-69212302D01*
X112436694Y-69153337D01*
X112533385Y-69073985D01*
X112612737Y-68977294D01*
X112671702Y-68866980D01*
X112708012Y-68747282D01*
X112720272Y-68622800D01*
X112720272Y-67622800D01*
X112713624Y-67555297D01*
X114660000Y-67555297D01*
X114660000Y-67724703D01*
X114693049Y-67890853D01*
X114757878Y-68047363D01*
X114851995Y-68188218D01*
X114971782Y-68308005D01*
X115112637Y-68402122D01*
X115269147Y-68466951D01*
X115435297Y-68500000D01*
X115604703Y-68500000D01*
X115770853Y-68466951D01*
X115927363Y-68402122D01*
X116068218Y-68308005D01*
X116188005Y-68188218D01*
X116282122Y-68047363D01*
X116346951Y-67890853D01*
X116380000Y-67724703D01*
X116380000Y-67555297D01*
X116366077Y-67485297D01*
X122980000Y-67485297D01*
X122980000Y-67654703D01*
X123013049Y-67820853D01*
X123077878Y-67977363D01*
X123171995Y-68118218D01*
X123291782Y-68238005D01*
X123432637Y-68332122D01*
X123589147Y-68396951D01*
X123755297Y-68430000D01*
X123924703Y-68430000D01*
X124090853Y-68396951D01*
X124247363Y-68332122D01*
X124388218Y-68238005D01*
X124508005Y-68118218D01*
X124602122Y-67977363D01*
X124666951Y-67820853D01*
X124700000Y-67654703D01*
X124700000Y-67485297D01*
X124666951Y-67319147D01*
X124602122Y-67162637D01*
X124557432Y-67095754D01*
X124558453Y-67095551D01*
X124714963Y-67030722D01*
X124855818Y-66936605D01*
X124975605Y-66816818D01*
X125069722Y-66675963D01*
X125134551Y-66519453D01*
X125167600Y-66353303D01*
X125167600Y-66183897D01*
X125134551Y-66017747D01*
X125069722Y-65861237D01*
X124975605Y-65720382D01*
X124855818Y-65600595D01*
X124714963Y-65506478D01*
X124558453Y-65441649D01*
X124392303Y-65408600D01*
X124222897Y-65408600D01*
X124056747Y-65441649D01*
X123900237Y-65506478D01*
X123759382Y-65600595D01*
X123639595Y-65720382D01*
X123545478Y-65861237D01*
X123480649Y-66017747D01*
X123447600Y-66183897D01*
X123447600Y-66353303D01*
X123480649Y-66519453D01*
X123545478Y-66675963D01*
X123590168Y-66742846D01*
X123589147Y-66743049D01*
X123432637Y-66807878D01*
X123291782Y-66901995D01*
X123171995Y-67021782D01*
X123077878Y-67162637D01*
X123013049Y-67319147D01*
X122980000Y-67485297D01*
X116366077Y-67485297D01*
X116346951Y-67389147D01*
X116282122Y-67232637D01*
X116188005Y-67091782D01*
X116068218Y-66971995D01*
X115927363Y-66877878D01*
X115770853Y-66813049D01*
X115604703Y-66780000D01*
X115435297Y-66780000D01*
X115269147Y-66813049D01*
X115112637Y-66877878D01*
X114971782Y-66971995D01*
X114851995Y-67091782D01*
X114757878Y-67232637D01*
X114693049Y-67389147D01*
X114660000Y-67555297D01*
X112713624Y-67555297D01*
X112708012Y-67498318D01*
X112671702Y-67378620D01*
X112612737Y-67268306D01*
X112533385Y-67171615D01*
X112436694Y-67092263D01*
X112326380Y-67033298D01*
X112206682Y-66996988D01*
X112082200Y-66984728D01*
X111082200Y-66984728D01*
X110957718Y-66996988D01*
X110838020Y-67033298D01*
X110727706Y-67092263D01*
X110631015Y-67171615D01*
X110551663Y-67268306D01*
X110492698Y-67378620D01*
X110456388Y-67498318D01*
X110444128Y-67622800D01*
X104523172Y-67622800D01*
X104523172Y-66973900D01*
X104510912Y-66849418D01*
X104474602Y-66729720D01*
X104415637Y-66619406D01*
X104336285Y-66522715D01*
X104239594Y-66443363D01*
X104129280Y-66384398D01*
X104009582Y-66348088D01*
X103885100Y-66335828D01*
X102185100Y-66335828D01*
X102060618Y-66348088D01*
X101940920Y-66384398D01*
X101830606Y-66443363D01*
X101733915Y-66522715D01*
X101654563Y-66619406D01*
X101595598Y-66729720D01*
X101559288Y-66849418D01*
X101547028Y-66973900D01*
X100660000Y-66973900D01*
X100660000Y-65675297D01*
X112160000Y-65675297D01*
X112160000Y-65844703D01*
X112193049Y-66010853D01*
X112257878Y-66167363D01*
X112351995Y-66308218D01*
X112471782Y-66428005D01*
X112612637Y-66522122D01*
X112769147Y-66586951D01*
X112935297Y-66620000D01*
X113104703Y-66620000D01*
X113270853Y-66586951D01*
X113427363Y-66522122D01*
X113568218Y-66428005D01*
X113688005Y-66308218D01*
X113782122Y-66167363D01*
X113846951Y-66010853D01*
X113880000Y-65844703D01*
X113880000Y-65675297D01*
X113846951Y-65509147D01*
X113782122Y-65352637D01*
X113688005Y-65211782D01*
X113568218Y-65091995D01*
X113427363Y-64997878D01*
X113270853Y-64933049D01*
X113104703Y-64900000D01*
X112935297Y-64900000D01*
X112769147Y-64933049D01*
X112612637Y-64997878D01*
X112471782Y-65091995D01*
X112351995Y-65211782D01*
X112257878Y-65352637D01*
X112193049Y-65509147D01*
X112160000Y-65675297D01*
X100660000Y-65675297D01*
X100660000Y-64635297D01*
X116450000Y-64635297D01*
X116450000Y-64804703D01*
X116483049Y-64970853D01*
X116547878Y-65127363D01*
X116641995Y-65268218D01*
X116761782Y-65388005D01*
X116902637Y-65482122D01*
X116936987Y-65496350D01*
X116912537Y-65506478D01*
X116771682Y-65600595D01*
X116651895Y-65720382D01*
X116557778Y-65861237D01*
X116492949Y-66017747D01*
X116459900Y-66183897D01*
X116459900Y-66353303D01*
X116492949Y-66519453D01*
X116557778Y-66675963D01*
X116651895Y-66816818D01*
X116771682Y-66936605D01*
X116912537Y-67030722D01*
X117069047Y-67095551D01*
X117235197Y-67128600D01*
X117404603Y-67128600D01*
X117570753Y-67095551D01*
X117727263Y-67030722D01*
X117868118Y-66936605D01*
X117987905Y-66816818D01*
X118082022Y-66675963D01*
X118146851Y-66519453D01*
X118179900Y-66353303D01*
X118179900Y-66183897D01*
X118146851Y-66017747D01*
X118082022Y-65861237D01*
X117987905Y-65720382D01*
X117868118Y-65600595D01*
X117727263Y-65506478D01*
X117692913Y-65492250D01*
X117717363Y-65482122D01*
X117858218Y-65388005D01*
X117978005Y-65268218D01*
X118072122Y-65127363D01*
X118136951Y-64970853D01*
X118170000Y-64804703D01*
X118170000Y-64635297D01*
X118169520Y-64632884D01*
X118205297Y-64640000D01*
X118374703Y-64640000D01*
X118540853Y-64606951D01*
X118697363Y-64542122D01*
X118838218Y-64448005D01*
X118958005Y-64328218D01*
X119052122Y-64187363D01*
X119116951Y-64030853D01*
X119150000Y-63864703D01*
X119150000Y-63695297D01*
X119116951Y-63529147D01*
X119052122Y-63372637D01*
X118958005Y-63231782D01*
X118838218Y-63111995D01*
X118697363Y-63017878D01*
X118540853Y-62953049D01*
X118374703Y-62920000D01*
X118205297Y-62920000D01*
X118039147Y-62953049D01*
X117882637Y-63017878D01*
X117741782Y-63111995D01*
X117621995Y-63231782D01*
X117527878Y-63372637D01*
X117463049Y-63529147D01*
X117430000Y-63695297D01*
X117430000Y-63864703D01*
X117430480Y-63867116D01*
X117394703Y-63860000D01*
X117225297Y-63860000D01*
X117059147Y-63893049D01*
X116902637Y-63957878D01*
X116761782Y-64051995D01*
X116641995Y-64171782D01*
X116547878Y-64312637D01*
X116483049Y-64469147D01*
X116450000Y-64635297D01*
X100660000Y-64635297D01*
X100660000Y-60863900D01*
X101605028Y-60863900D01*
X101605028Y-62563900D01*
X101617288Y-62688382D01*
X101653598Y-62808080D01*
X101712563Y-62918394D01*
X101791915Y-63015085D01*
X101888606Y-63094437D01*
X101998920Y-63153402D01*
X102118618Y-63189712D01*
X102243100Y-63201972D01*
X103943100Y-63201972D01*
X104067582Y-63189712D01*
X104187280Y-63153402D01*
X104297594Y-63094437D01*
X104394285Y-63015085D01*
X104473637Y-62918394D01*
X104532602Y-62808080D01*
X104568912Y-62688382D01*
X104581172Y-62563900D01*
X104581172Y-62483117D01*
X113346020Y-62483117D01*
X113346020Y-62652523D01*
X113379069Y-62818673D01*
X113443898Y-62975183D01*
X113538015Y-63116038D01*
X113657802Y-63235825D01*
X113798657Y-63329942D01*
X113955167Y-63394771D01*
X114121317Y-63427820D01*
X114290723Y-63427820D01*
X114456873Y-63394771D01*
X114613383Y-63329942D01*
X114754238Y-63235825D01*
X114874025Y-63116038D01*
X114968142Y-62975183D01*
X115032971Y-62818673D01*
X115066020Y-62652523D01*
X115066020Y-62483117D01*
X115032971Y-62316967D01*
X114968142Y-62160457D01*
X114874025Y-62019602D01*
X114754238Y-61899815D01*
X114613383Y-61805698D01*
X114456873Y-61740869D01*
X114290723Y-61707820D01*
X114121317Y-61707820D01*
X113955167Y-61740869D01*
X113798657Y-61805698D01*
X113657802Y-61899815D01*
X113538015Y-62019602D01*
X113443898Y-62160457D01*
X113379069Y-62316967D01*
X113346020Y-62483117D01*
X104581172Y-62483117D01*
X104581172Y-61375005D01*
X104602295Y-61406618D01*
X104722082Y-61526405D01*
X104862937Y-61620522D01*
X105019447Y-61685351D01*
X105185597Y-61718400D01*
X105355003Y-61718400D01*
X105521153Y-61685351D01*
X105677663Y-61620522D01*
X105818518Y-61526405D01*
X105938305Y-61406618D01*
X106032422Y-61265763D01*
X106097251Y-61109253D01*
X106130300Y-60943103D01*
X106130300Y-60773697D01*
X106097251Y-60607547D01*
X106032422Y-60451037D01*
X105938305Y-60310182D01*
X105818518Y-60190395D01*
X105677663Y-60096278D01*
X105521153Y-60031449D01*
X105355003Y-59998400D01*
X105185597Y-59998400D01*
X105019447Y-60031449D01*
X104862937Y-60096278D01*
X104722082Y-60190395D01*
X104602295Y-60310182D01*
X104508178Y-60451037D01*
X104479476Y-60520330D01*
X104473637Y-60509406D01*
X104394285Y-60412715D01*
X104297594Y-60333363D01*
X104187280Y-60274398D01*
X104067582Y-60238088D01*
X103943100Y-60225828D01*
X102243100Y-60225828D01*
X102118618Y-60238088D01*
X101998920Y-60274398D01*
X101888606Y-60333363D01*
X101791915Y-60412715D01*
X101712563Y-60509406D01*
X101653598Y-60619720D01*
X101617288Y-60739418D01*
X101605028Y-60863900D01*
X100660000Y-60863900D01*
X100660000Y-58363900D01*
X101605028Y-58363900D01*
X101617288Y-58488382D01*
X101653598Y-58608080D01*
X101712563Y-58718394D01*
X101791915Y-58815085D01*
X101888606Y-58894437D01*
X101998920Y-58953402D01*
X102118618Y-58989712D01*
X102243100Y-59001972D01*
X102807350Y-58998900D01*
X102966100Y-58840150D01*
X102966100Y-57640900D01*
X103220100Y-57640900D01*
X103220100Y-58840150D01*
X103378850Y-58998900D01*
X103943100Y-59001972D01*
X104067582Y-58989712D01*
X104187280Y-58953402D01*
X104297594Y-58894437D01*
X104394285Y-58815085D01*
X104473637Y-58718394D01*
X104532602Y-58608080D01*
X104568912Y-58488382D01*
X104581172Y-58363900D01*
X104579219Y-58005097D01*
X106048600Y-58005097D01*
X106048600Y-58174503D01*
X106081649Y-58340653D01*
X106146478Y-58497163D01*
X106240595Y-58638018D01*
X106360382Y-58757805D01*
X106501237Y-58851922D01*
X106657747Y-58916751D01*
X106823897Y-58949800D01*
X106993303Y-58949800D01*
X107159453Y-58916751D01*
X107315963Y-58851922D01*
X107456818Y-58757805D01*
X107576605Y-58638018D01*
X107585104Y-58625297D01*
X113360000Y-58625297D01*
X113360000Y-58794703D01*
X113393049Y-58960853D01*
X113457878Y-59117363D01*
X113551995Y-59258218D01*
X113671782Y-59378005D01*
X113812637Y-59472122D01*
X113906747Y-59511104D01*
X113890000Y-59595297D01*
X113890000Y-59764703D01*
X113923049Y-59930853D01*
X113987878Y-60087363D01*
X114081995Y-60228218D01*
X114201782Y-60348005D01*
X114342637Y-60442122D01*
X114499147Y-60506951D01*
X114665297Y-60540000D01*
X114834703Y-60540000D01*
X115000853Y-60506951D01*
X115157363Y-60442122D01*
X115298218Y-60348005D01*
X115418005Y-60228218D01*
X115512122Y-60087363D01*
X115576951Y-59930853D01*
X115610000Y-59764703D01*
X115610000Y-59595297D01*
X115576951Y-59429147D01*
X115512122Y-59272637D01*
X115418005Y-59131782D01*
X115298218Y-59011995D01*
X115157363Y-58917878D01*
X115063253Y-58878896D01*
X115080000Y-58794703D01*
X115080000Y-58625297D01*
X115065226Y-58551020D01*
X115111143Y-58551020D01*
X115277293Y-58517971D01*
X115433803Y-58453142D01*
X115574658Y-58359025D01*
X115694445Y-58239238D01*
X115788562Y-58098383D01*
X115853391Y-57941873D01*
X115886440Y-57775723D01*
X115886440Y-57714369D01*
X116015297Y-57740000D01*
X116043500Y-57740000D01*
X116043500Y-57768103D01*
X116076549Y-57934253D01*
X116135874Y-58077475D01*
X116073049Y-58229147D01*
X116040000Y-58395297D01*
X116040000Y-58564703D01*
X116073049Y-58730853D01*
X116137878Y-58887363D01*
X116231995Y-59028218D01*
X116351782Y-59148005D01*
X116492637Y-59242122D01*
X116649147Y-59306951D01*
X116815297Y-59340000D01*
X116984703Y-59340000D01*
X117150853Y-59306951D01*
X117307363Y-59242122D01*
X117448218Y-59148005D01*
X117568005Y-59028218D01*
X117662122Y-58887363D01*
X117726951Y-58730853D01*
X117760000Y-58564703D01*
X117760000Y-58543400D01*
X117788303Y-58543400D01*
X117954453Y-58510351D01*
X118110963Y-58445522D01*
X118251818Y-58351405D01*
X118371605Y-58231618D01*
X118465722Y-58090763D01*
X118505456Y-57994838D01*
X118537803Y-58072929D01*
X118473049Y-58229257D01*
X118440000Y-58395407D01*
X118440000Y-58564813D01*
X118473049Y-58730963D01*
X118537878Y-58887473D01*
X118631995Y-59028328D01*
X118751782Y-59148115D01*
X118892637Y-59242232D01*
X118990315Y-59282692D01*
X118896437Y-59321578D01*
X118755582Y-59415695D01*
X118635795Y-59535482D01*
X118541678Y-59676337D01*
X118502666Y-59770519D01*
X118462122Y-59672637D01*
X118368005Y-59531782D01*
X118248218Y-59411995D01*
X118107363Y-59317878D01*
X117950853Y-59253049D01*
X117784703Y-59220000D01*
X117615297Y-59220000D01*
X117449147Y-59253049D01*
X117292637Y-59317878D01*
X117151782Y-59411995D01*
X117031995Y-59531782D01*
X116937878Y-59672637D01*
X116873049Y-59829147D01*
X116840000Y-59995297D01*
X116840000Y-60023800D01*
X116818801Y-60023800D01*
X116652651Y-60056849D01*
X116496141Y-60121678D01*
X116355286Y-60215795D01*
X116235499Y-60335582D01*
X116141382Y-60476437D01*
X116076553Y-60632947D01*
X116043504Y-60799097D01*
X116043504Y-60968503D01*
X116076553Y-61134653D01*
X116141382Y-61291163D01*
X116235499Y-61432018D01*
X116355286Y-61551805D01*
X116496141Y-61645922D01*
X116569176Y-61676174D01*
X116492637Y-61707878D01*
X116351782Y-61801995D01*
X116231995Y-61921782D01*
X116137878Y-62062637D01*
X116073049Y-62219147D01*
X116040000Y-62385297D01*
X116040000Y-62554703D01*
X116073049Y-62720853D01*
X116137878Y-62877363D01*
X116231995Y-63018218D01*
X116351782Y-63138005D01*
X116492637Y-63232122D01*
X116649147Y-63296951D01*
X116815297Y-63330000D01*
X116984703Y-63330000D01*
X117150853Y-63296951D01*
X117307363Y-63232122D01*
X117448218Y-63138005D01*
X117568005Y-63018218D01*
X117662122Y-62877363D01*
X117726951Y-62720853D01*
X117755545Y-62577097D01*
X124176580Y-62577097D01*
X124176580Y-62746503D01*
X124209629Y-62912653D01*
X124274458Y-63069163D01*
X124368575Y-63210018D01*
X124488362Y-63329805D01*
X124629217Y-63423922D01*
X124785727Y-63488751D01*
X124951877Y-63521800D01*
X125121283Y-63521800D01*
X125287433Y-63488751D01*
X125443943Y-63423922D01*
X125584798Y-63329805D01*
X125704585Y-63210018D01*
X125798702Y-63069163D01*
X125863531Y-62912653D01*
X125896580Y-62746503D01*
X125896580Y-62577097D01*
X125863531Y-62410947D01*
X125798702Y-62254437D01*
X125704585Y-62113582D01*
X125584798Y-61993795D01*
X125443943Y-61899678D01*
X125287433Y-61834849D01*
X125121283Y-61801800D01*
X124951877Y-61801800D01*
X124785727Y-61834849D01*
X124629217Y-61899678D01*
X124488362Y-61993795D01*
X124368575Y-62113582D01*
X124274458Y-62254437D01*
X124209629Y-62410947D01*
X124176580Y-62577097D01*
X117755545Y-62577097D01*
X117760000Y-62554703D01*
X117760000Y-62550000D01*
X117794703Y-62550000D01*
X117960853Y-62516951D01*
X118117363Y-62452122D01*
X118258218Y-62358005D01*
X118378005Y-62238218D01*
X118472122Y-62097363D01*
X118536951Y-61940853D01*
X118570000Y-61774703D01*
X118570000Y-61743800D01*
X118590943Y-61743800D01*
X118757093Y-61710751D01*
X118913603Y-61645922D01*
X118987332Y-61596657D01*
X119238820Y-61596657D01*
X119238820Y-61766063D01*
X119271869Y-61932213D01*
X119336698Y-62088723D01*
X119430815Y-62229578D01*
X119550602Y-62349365D01*
X119691457Y-62443482D01*
X119847967Y-62508311D01*
X120014117Y-62541360D01*
X120183523Y-62541360D01*
X120349673Y-62508311D01*
X120506183Y-62443482D01*
X120647038Y-62349365D01*
X120766825Y-62229578D01*
X120860942Y-62088723D01*
X120900190Y-61993971D01*
X120939438Y-62088723D01*
X121033555Y-62229578D01*
X121153342Y-62349365D01*
X121294197Y-62443482D01*
X121450707Y-62508311D01*
X121616857Y-62541360D01*
X121786263Y-62541360D01*
X121952413Y-62508311D01*
X122108923Y-62443482D01*
X122249778Y-62349365D01*
X122369565Y-62229578D01*
X122463682Y-62088723D01*
X122528511Y-61932213D01*
X122561560Y-61766063D01*
X122561560Y-61748880D01*
X122586363Y-61748880D01*
X122752513Y-61715831D01*
X122909023Y-61651002D01*
X123049878Y-61556885D01*
X123169665Y-61437098D01*
X123263782Y-61296243D01*
X123328611Y-61139733D01*
X123361660Y-60973583D01*
X123361660Y-60804177D01*
X123328611Y-60638027D01*
X123263782Y-60481517D01*
X123169665Y-60340662D01*
X123049878Y-60220875D01*
X122909023Y-60126758D01*
X122752513Y-60061929D01*
X122586363Y-60028880D01*
X122416957Y-60028880D01*
X122250807Y-60061929D01*
X122094297Y-60126758D01*
X121953442Y-60220875D01*
X121833655Y-60340662D01*
X121739538Y-60481517D01*
X121674709Y-60638027D01*
X121641660Y-60804177D01*
X121641660Y-60821360D01*
X121616857Y-60821360D01*
X121450707Y-60854409D01*
X121294197Y-60919238D01*
X121153342Y-61013355D01*
X121033555Y-61133142D01*
X120939438Y-61273997D01*
X120900190Y-61368749D01*
X120860942Y-61273997D01*
X120766825Y-61133142D01*
X120647038Y-61013355D01*
X120506183Y-60919238D01*
X120349673Y-60854409D01*
X120183523Y-60821360D01*
X120014117Y-60821360D01*
X119847967Y-60854409D01*
X119691457Y-60919238D01*
X119550602Y-61013355D01*
X119430815Y-61133142D01*
X119336698Y-61273997D01*
X119271869Y-61430507D01*
X119238820Y-61596657D01*
X118987332Y-61596657D01*
X119054458Y-61551805D01*
X119174245Y-61432018D01*
X119268362Y-61291163D01*
X119333191Y-61134653D01*
X119366240Y-60968503D01*
X119366240Y-60943700D01*
X119388503Y-60943700D01*
X119554653Y-60910651D01*
X119711163Y-60845822D01*
X119852018Y-60751705D01*
X119971805Y-60631918D01*
X120065922Y-60491063D01*
X120130751Y-60334553D01*
X120163800Y-60168403D01*
X120163800Y-59998997D01*
X120130751Y-59832847D01*
X120065922Y-59676337D01*
X119971805Y-59535482D01*
X119852018Y-59415695D01*
X119711163Y-59321578D01*
X119613485Y-59281118D01*
X119707363Y-59242232D01*
X119777605Y-59195297D01*
X120840000Y-59195297D01*
X120840000Y-59364703D01*
X120873049Y-59530853D01*
X120937878Y-59687363D01*
X121031995Y-59828218D01*
X121151782Y-59948005D01*
X121292637Y-60042122D01*
X121449147Y-60106951D01*
X121615297Y-60140000D01*
X121784703Y-60140000D01*
X121950853Y-60106951D01*
X122107363Y-60042122D01*
X122248218Y-59948005D01*
X122368005Y-59828218D01*
X122462122Y-59687363D01*
X122526951Y-59530853D01*
X122560000Y-59364703D01*
X122560000Y-59205297D01*
X122980000Y-59205297D01*
X122980000Y-59374703D01*
X123013049Y-59540853D01*
X123077878Y-59697363D01*
X123171995Y-59838218D01*
X123291782Y-59958005D01*
X123432637Y-60052122D01*
X123589147Y-60116951D01*
X123755297Y-60150000D01*
X123924703Y-60150000D01*
X124090853Y-60116951D01*
X124247363Y-60052122D01*
X124388218Y-59958005D01*
X124508005Y-59838218D01*
X124602122Y-59697363D01*
X124666951Y-59540853D01*
X124700000Y-59374703D01*
X124700000Y-59205297D01*
X124666951Y-59039147D01*
X124602122Y-58882637D01*
X124508005Y-58741782D01*
X124388218Y-58621995D01*
X124247363Y-58527878D01*
X124090853Y-58463049D01*
X123924703Y-58430000D01*
X123755297Y-58430000D01*
X123589147Y-58463049D01*
X123432637Y-58527878D01*
X123291782Y-58621995D01*
X123171995Y-58741782D01*
X123077878Y-58882637D01*
X123013049Y-59039147D01*
X122980000Y-59205297D01*
X122560000Y-59205297D01*
X122560000Y-59195297D01*
X122526951Y-59029147D01*
X122462122Y-58872637D01*
X122368005Y-58731782D01*
X122248218Y-58611995D01*
X122107363Y-58517878D01*
X121950853Y-58453049D01*
X121784703Y-58420000D01*
X121615297Y-58420000D01*
X121449147Y-58453049D01*
X121292637Y-58517878D01*
X121151782Y-58611995D01*
X121031995Y-58731782D01*
X120937878Y-58872637D01*
X120873049Y-59029147D01*
X120840000Y-59195297D01*
X119777605Y-59195297D01*
X119848218Y-59148115D01*
X119968005Y-59028328D01*
X120062122Y-58887473D01*
X120126951Y-58730963D01*
X120160000Y-58564813D01*
X120160000Y-58395407D01*
X120126951Y-58229257D01*
X120072197Y-58097071D01*
X120108344Y-58009806D01*
X120141878Y-58090763D01*
X120235995Y-58231618D01*
X120355782Y-58351405D01*
X120496637Y-58445522D01*
X120653147Y-58510351D01*
X120819297Y-58543400D01*
X120988703Y-58543400D01*
X121154853Y-58510351D01*
X121311363Y-58445522D01*
X121452218Y-58351405D01*
X121572005Y-58231618D01*
X121666122Y-58090763D01*
X121730951Y-57934253D01*
X121764000Y-57768103D01*
X121764000Y-57598697D01*
X121730951Y-57432547D01*
X121666122Y-57276037D01*
X121572005Y-57135182D01*
X121452218Y-57015395D01*
X121311363Y-56921278D01*
X121154853Y-56856449D01*
X120988703Y-56823400D01*
X120970000Y-56823400D01*
X120970000Y-56805297D01*
X121640000Y-56805297D01*
X121640000Y-56974703D01*
X121673049Y-57140853D01*
X121737878Y-57297363D01*
X121831995Y-57438218D01*
X121951782Y-57558005D01*
X122092637Y-57652122D01*
X122249147Y-57716951D01*
X122415297Y-57750000D01*
X122584703Y-57750000D01*
X122750853Y-57716951D01*
X122907363Y-57652122D01*
X122921576Y-57642625D01*
X122953049Y-57800853D01*
X123017878Y-57957363D01*
X123111995Y-58098218D01*
X123231782Y-58218005D01*
X123372637Y-58312122D01*
X123529147Y-58376951D01*
X123695297Y-58410000D01*
X123864703Y-58410000D01*
X124030853Y-58376951D01*
X124187363Y-58312122D01*
X124328218Y-58218005D01*
X124448005Y-58098218D01*
X124542122Y-57957363D01*
X124606951Y-57800853D01*
X124640000Y-57634703D01*
X124640000Y-57465297D01*
X124606951Y-57299147D01*
X124542122Y-57142637D01*
X124448005Y-57001782D01*
X124328218Y-56881995D01*
X124187363Y-56787878D01*
X124030853Y-56723049D01*
X123864703Y-56690000D01*
X123695297Y-56690000D01*
X123529147Y-56723049D01*
X123372637Y-56787878D01*
X123358424Y-56797375D01*
X123326951Y-56639147D01*
X123262122Y-56482637D01*
X123168005Y-56341782D01*
X123048218Y-56221995D01*
X122907363Y-56127878D01*
X122750853Y-56063049D01*
X122584703Y-56030000D01*
X122415297Y-56030000D01*
X122249147Y-56063049D01*
X122092637Y-56127878D01*
X121951782Y-56221995D01*
X121831995Y-56341782D01*
X121737878Y-56482637D01*
X121673049Y-56639147D01*
X121640000Y-56805297D01*
X120970000Y-56805297D01*
X120936951Y-56639147D01*
X120872122Y-56482637D01*
X120778005Y-56341782D01*
X120658218Y-56221995D01*
X120517363Y-56127878D01*
X120360853Y-56063049D01*
X120194703Y-56030000D01*
X120170000Y-56030000D01*
X120170000Y-56005297D01*
X120136951Y-55839147D01*
X120072122Y-55682637D01*
X119978005Y-55541782D01*
X119858218Y-55421995D01*
X119717363Y-55327878D01*
X119560853Y-55263049D01*
X119394703Y-55230000D01*
X119309694Y-55230000D01*
X119333191Y-55173273D01*
X119366240Y-55007123D01*
X119366240Y-54837717D01*
X119333191Y-54671567D01*
X119268362Y-54515057D01*
X119174245Y-54374202D01*
X119054458Y-54254415D01*
X118995915Y-54215297D01*
X119640000Y-54215297D01*
X119640000Y-54384703D01*
X119673049Y-54550853D01*
X119737878Y-54707363D01*
X119831995Y-54848218D01*
X119951782Y-54968005D01*
X120092637Y-55062122D01*
X120249147Y-55126951D01*
X120415297Y-55160000D01*
X120584703Y-55160000D01*
X120750853Y-55126951D01*
X120907363Y-55062122D01*
X121048218Y-54968005D01*
X121168005Y-54848218D01*
X121201332Y-54798340D01*
X128737208Y-54798340D01*
X128737208Y-55798340D01*
X128749468Y-55922822D01*
X128785778Y-56042520D01*
X128844743Y-56152834D01*
X128924095Y-56249525D01*
X129020786Y-56328877D01*
X129131100Y-56387842D01*
X129250798Y-56424152D01*
X129375280Y-56436412D01*
X130375280Y-56436412D01*
X130499762Y-56424152D01*
X130619460Y-56387842D01*
X130697659Y-56346043D01*
X130708833Y-56352016D01*
X130922781Y-56416917D01*
X131089528Y-56433340D01*
X131201032Y-56433340D01*
X131367779Y-56416917D01*
X131581727Y-56352016D01*
X131778903Y-56246624D01*
X131780280Y-56245494D01*
X131781657Y-56246624D01*
X131978833Y-56352016D01*
X132192781Y-56416917D01*
X132359528Y-56433340D01*
X132471032Y-56433340D01*
X132637779Y-56416917D01*
X132851727Y-56352016D01*
X133048903Y-56246624D01*
X133050280Y-56245494D01*
X133051657Y-56246624D01*
X133248833Y-56352016D01*
X133462781Y-56416917D01*
X133629528Y-56433340D01*
X133741032Y-56433340D01*
X133907779Y-56416917D01*
X134121727Y-56352016D01*
X134318903Y-56246624D01*
X134320280Y-56245494D01*
X134321657Y-56246624D01*
X134518833Y-56352016D01*
X134732781Y-56416917D01*
X134899528Y-56433340D01*
X135011032Y-56433340D01*
X135177779Y-56416917D01*
X135391727Y-56352016D01*
X135588903Y-56246624D01*
X135761729Y-56104789D01*
X135903564Y-55931963D01*
X136008956Y-55734787D01*
X136073857Y-55520839D01*
X136095771Y-55298340D01*
X136073857Y-55075841D01*
X136008956Y-54861893D01*
X135903564Y-54664717D01*
X135761729Y-54491891D01*
X135588903Y-54350056D01*
X135391727Y-54244664D01*
X135177779Y-54179763D01*
X135011032Y-54163340D01*
X134899528Y-54163340D01*
X134732781Y-54179763D01*
X134518833Y-54244664D01*
X134321657Y-54350056D01*
X134320280Y-54351186D01*
X134318903Y-54350056D01*
X134121727Y-54244664D01*
X133907779Y-54179763D01*
X133741032Y-54163340D01*
X133629528Y-54163340D01*
X133462781Y-54179763D01*
X133248833Y-54244664D01*
X133051657Y-54350056D01*
X133050280Y-54351186D01*
X133048903Y-54350056D01*
X132851727Y-54244664D01*
X132637779Y-54179763D01*
X132471032Y-54163340D01*
X132359528Y-54163340D01*
X132192781Y-54179763D01*
X131978833Y-54244664D01*
X131781657Y-54350056D01*
X131780280Y-54351186D01*
X131778903Y-54350056D01*
X131581727Y-54244664D01*
X131367779Y-54179763D01*
X131201032Y-54163340D01*
X131089528Y-54163340D01*
X130922781Y-54179763D01*
X130708833Y-54244664D01*
X130697659Y-54250637D01*
X130619460Y-54208838D01*
X130499762Y-54172528D01*
X130375280Y-54160268D01*
X129375280Y-54160268D01*
X129250798Y-54172528D01*
X129131100Y-54208838D01*
X129020786Y-54267803D01*
X128924095Y-54347155D01*
X128844743Y-54443846D01*
X128785778Y-54554160D01*
X128749468Y-54673858D01*
X128737208Y-54798340D01*
X121201332Y-54798340D01*
X121262122Y-54707363D01*
X121326951Y-54550853D01*
X121360000Y-54384703D01*
X121360000Y-54215297D01*
X121326951Y-54049147D01*
X121262122Y-53892637D01*
X121168005Y-53751782D01*
X121048218Y-53631995D01*
X120907363Y-53537878D01*
X120750853Y-53473049D01*
X120584703Y-53440000D01*
X120415297Y-53440000D01*
X120249147Y-53473049D01*
X120092637Y-53537878D01*
X119951782Y-53631995D01*
X119831995Y-53751782D01*
X119737878Y-53892637D01*
X119673049Y-54049147D01*
X119640000Y-54215297D01*
X118995915Y-54215297D01*
X118913603Y-54160298D01*
X118757093Y-54095469D01*
X118590943Y-54062420D01*
X118421537Y-54062420D01*
X118255387Y-54095469D01*
X118098877Y-54160298D01*
X117958022Y-54254415D01*
X117838235Y-54374202D01*
X117744118Y-54515057D01*
X117679289Y-54671567D01*
X117646240Y-54837717D01*
X117646240Y-55007123D01*
X117679289Y-55173273D01*
X117744118Y-55329783D01*
X117838235Y-55470638D01*
X117958022Y-55590425D01*
X118098877Y-55684542D01*
X118255387Y-55749371D01*
X118421537Y-55782420D01*
X118506546Y-55782420D01*
X118483049Y-55839147D01*
X118450000Y-56005297D01*
X118450000Y-56174703D01*
X118483049Y-56340853D01*
X118547878Y-56497363D01*
X118641995Y-56638218D01*
X118761782Y-56758005D01*
X118902637Y-56852122D01*
X118993949Y-56889945D01*
X118902637Y-56927768D01*
X118761782Y-57021885D01*
X118641995Y-57141672D01*
X118547878Y-57282527D01*
X118508144Y-57378452D01*
X118465722Y-57276037D01*
X118371605Y-57135182D01*
X118251818Y-57015395D01*
X118110963Y-56921278D01*
X117954453Y-56856449D01*
X117788303Y-56823400D01*
X117618897Y-56823400D01*
X117452747Y-56856449D01*
X117303550Y-56918249D01*
X117154353Y-56856449D01*
X116988203Y-56823400D01*
X116960000Y-56823400D01*
X116960000Y-56795297D01*
X116926951Y-56629147D01*
X116862122Y-56472637D01*
X116768005Y-56331782D01*
X116648218Y-56211995D01*
X116507363Y-56117878D01*
X116350853Y-56053049D01*
X116184703Y-56020000D01*
X116015297Y-56020000D01*
X115849147Y-56053049D01*
X115692637Y-56117878D01*
X115551782Y-56211995D01*
X115431995Y-56331782D01*
X115337878Y-56472637D01*
X115273049Y-56629147D01*
X115240000Y-56795297D01*
X115240000Y-56856651D01*
X115111143Y-56831020D01*
X115099040Y-56831020D01*
X115099040Y-56737637D01*
X115065991Y-56571487D01*
X115001162Y-56414977D01*
X114907045Y-56274122D01*
X114787258Y-56154335D01*
X114646403Y-56060218D01*
X114489893Y-55995389D01*
X114323743Y-55962340D01*
X114154337Y-55962340D01*
X113988187Y-55995389D01*
X113831677Y-56060218D01*
X113690822Y-56154335D01*
X113571035Y-56274122D01*
X113476918Y-56414977D01*
X113412089Y-56571487D01*
X113379040Y-56737637D01*
X113379040Y-56907043D01*
X113412089Y-57073193D01*
X113476918Y-57229703D01*
X113571035Y-57370558D01*
X113690822Y-57490345D01*
X113831677Y-57584462D01*
X113988187Y-57649291D01*
X114154337Y-57682340D01*
X114166440Y-57682340D01*
X114166440Y-57775723D01*
X114181214Y-57850000D01*
X114135297Y-57850000D01*
X113969147Y-57883049D01*
X113812637Y-57947878D01*
X113671782Y-58041995D01*
X113551995Y-58161782D01*
X113457878Y-58302637D01*
X113393049Y-58459147D01*
X113360000Y-58625297D01*
X107585104Y-58625297D01*
X107670722Y-58497163D01*
X107735551Y-58340653D01*
X107768600Y-58174503D01*
X107768600Y-58005097D01*
X107735551Y-57838947D01*
X107670722Y-57682437D01*
X107576605Y-57541582D01*
X107456818Y-57421795D01*
X107315963Y-57327678D01*
X107159453Y-57262849D01*
X106993303Y-57229800D01*
X106823897Y-57229800D01*
X106657747Y-57262849D01*
X106501237Y-57327678D01*
X106360382Y-57421795D01*
X106240595Y-57541582D01*
X106146478Y-57682437D01*
X106081649Y-57838947D01*
X106048600Y-58005097D01*
X104579219Y-58005097D01*
X104578100Y-57799650D01*
X104419350Y-57640900D01*
X103220100Y-57640900D01*
X102966100Y-57640900D01*
X101766850Y-57640900D01*
X101608100Y-57799650D01*
X101605028Y-58363900D01*
X100660000Y-58363900D01*
X100660000Y-56663900D01*
X101605028Y-56663900D01*
X101608100Y-57228150D01*
X101766850Y-57386900D01*
X102966100Y-57386900D01*
X102966100Y-56187650D01*
X103220100Y-56187650D01*
X103220100Y-57386900D01*
X104419350Y-57386900D01*
X104578100Y-57228150D01*
X104581172Y-56663900D01*
X104568912Y-56539418D01*
X104532602Y-56419720D01*
X104473637Y-56309406D01*
X104394285Y-56212715D01*
X104297594Y-56133363D01*
X104187280Y-56074398D01*
X104067582Y-56038088D01*
X103943100Y-56025828D01*
X103378850Y-56028900D01*
X103220100Y-56187650D01*
X102966100Y-56187650D01*
X102807350Y-56028900D01*
X102243100Y-56025828D01*
X102118618Y-56038088D01*
X101998920Y-56074398D01*
X101888606Y-56133363D01*
X101791915Y-56212715D01*
X101712563Y-56309406D01*
X101653598Y-56419720D01*
X101617288Y-56539418D01*
X101605028Y-56663900D01*
X100660000Y-56663900D01*
X100660000Y-53660000D01*
X105960997Y-53660000D01*
X105903463Y-53730106D01*
X105844498Y-53840420D01*
X105808188Y-53960118D01*
X105795928Y-54084600D01*
X105795928Y-55084600D01*
X105808188Y-55209082D01*
X105844498Y-55328780D01*
X105903463Y-55439094D01*
X105982815Y-55535785D01*
X106079506Y-55615137D01*
X106189820Y-55674102D01*
X106309518Y-55710412D01*
X106434000Y-55722672D01*
X107434000Y-55722672D01*
X107558482Y-55710412D01*
X107678180Y-55674102D01*
X107788494Y-55615137D01*
X107885185Y-55535785D01*
X107964537Y-55439094D01*
X108023502Y-55328780D01*
X108059812Y-55209082D01*
X108072072Y-55084600D01*
X108072072Y-54865297D01*
X109370000Y-54865297D01*
X109370000Y-55034703D01*
X109403049Y-55200853D01*
X109467878Y-55357363D01*
X109561995Y-55498218D01*
X109588777Y-55525000D01*
X109561995Y-55551782D01*
X109467878Y-55692637D01*
X109403049Y-55849147D01*
X109370000Y-56015297D01*
X109370000Y-56184703D01*
X109403049Y-56350853D01*
X109467878Y-56507363D01*
X109561995Y-56648218D01*
X109681782Y-56768005D01*
X109822637Y-56862122D01*
X109979147Y-56926951D01*
X110145297Y-56960000D01*
X110314703Y-56960000D01*
X110480853Y-56926951D01*
X110637363Y-56862122D01*
X110778218Y-56768005D01*
X110898005Y-56648218D01*
X110992122Y-56507363D01*
X111056951Y-56350853D01*
X111090000Y-56184703D01*
X111090000Y-56015297D01*
X111056951Y-55849147D01*
X110992122Y-55692637D01*
X110898005Y-55551782D01*
X110871223Y-55525000D01*
X110898005Y-55498218D01*
X110992122Y-55357363D01*
X111056951Y-55200853D01*
X111090000Y-55034703D01*
X111090000Y-54865297D01*
X111064810Y-54738657D01*
X114146120Y-54738657D01*
X114146120Y-54908063D01*
X114179169Y-55074213D01*
X114243998Y-55230723D01*
X114338115Y-55371578D01*
X114457902Y-55491365D01*
X114598757Y-55585482D01*
X114755267Y-55650311D01*
X114921417Y-55683360D01*
X115090823Y-55683360D01*
X115256973Y-55650311D01*
X115413483Y-55585482D01*
X115554338Y-55491365D01*
X115674125Y-55371578D01*
X115768242Y-55230723D01*
X115833071Y-55074213D01*
X115866120Y-54908063D01*
X115866120Y-54738657D01*
X115833071Y-54572507D01*
X115768242Y-54415997D01*
X115674125Y-54275142D01*
X115554338Y-54155355D01*
X115413483Y-54061238D01*
X115256973Y-53996409D01*
X115090823Y-53963360D01*
X114921417Y-53963360D01*
X114755267Y-53996409D01*
X114598757Y-54061238D01*
X114457902Y-54155355D01*
X114338115Y-54275142D01*
X114243998Y-54415997D01*
X114179169Y-54572507D01*
X114146120Y-54738657D01*
X111064810Y-54738657D01*
X111056951Y-54699147D01*
X110992122Y-54542637D01*
X110898005Y-54401782D01*
X110778218Y-54281995D01*
X110637363Y-54187878D01*
X110480853Y-54123049D01*
X110314703Y-54090000D01*
X110145297Y-54090000D01*
X109979147Y-54123049D01*
X109822637Y-54187878D01*
X109681782Y-54281995D01*
X109561995Y-54401782D01*
X109467878Y-54542637D01*
X109403049Y-54699147D01*
X109370000Y-54865297D01*
X108072072Y-54865297D01*
X108072072Y-54084600D01*
X108059812Y-53960118D01*
X108023502Y-53840420D01*
X107964537Y-53730106D01*
X107907003Y-53660000D01*
X113967581Y-53660000D01*
X114000000Y-53663193D01*
X114032419Y-53660000D01*
X114129383Y-53650450D01*
X114253793Y-53612710D01*
X114368450Y-53551425D01*
X114373358Y-53547397D01*
X115751400Y-53547397D01*
X115751400Y-53716803D01*
X115784449Y-53882953D01*
X115849278Y-54039463D01*
X115943395Y-54180318D01*
X116063182Y-54300105D01*
X116204037Y-54394222D01*
X116360547Y-54459051D01*
X116526697Y-54492100D01*
X116696103Y-54492100D01*
X116862253Y-54459051D01*
X117018763Y-54394222D01*
X117159618Y-54300105D01*
X117279405Y-54180318D01*
X117373522Y-54039463D01*
X117438351Y-53882953D01*
X117471400Y-53716803D01*
X117471400Y-53547397D01*
X117438351Y-53381247D01*
X117373522Y-53224737D01*
X117279405Y-53083882D01*
X117159618Y-52964095D01*
X117018763Y-52869978D01*
X116862253Y-52805149D01*
X116696103Y-52772100D01*
X116526697Y-52772100D01*
X116360547Y-52805149D01*
X116204037Y-52869978D01*
X116063182Y-52964095D01*
X115943395Y-53083882D01*
X115849278Y-53224737D01*
X115784449Y-53381247D01*
X115751400Y-53547397D01*
X114373358Y-53547397D01*
X114468948Y-53468948D01*
X114551425Y-53368450D01*
X114612710Y-53253793D01*
X114650450Y-53129383D01*
X114663193Y-53000000D01*
X114660000Y-52967581D01*
X114660000Y-48282279D01*
X114674341Y-48136015D01*
X114707443Y-48026375D01*
X114761212Y-47925252D01*
X114833599Y-47836497D01*
X114921848Y-47763491D01*
X115022591Y-47709019D01*
X115132004Y-47675150D01*
X115276145Y-47660000D01*
X122417721Y-47660000D01*
X122563985Y-47674341D01*
M02*
