G04 #@! TF.GenerationSoftware,KiCad,Pcbnew,(5.1.0)-1*
G04 #@! TF.CreationDate,2019-08-27T14:04:22-07:00*
G04 #@! TF.ProjectId,SDCard-PCB,53444361-7264-42d5-9043-422e6b696361,rev?*
G04 #@! TF.SameCoordinates,Original*
G04 #@! TF.FileFunction,Legend,Top*
G04 #@! TF.FilePolarity,Positive*
%FSLAX46Y46*%
G04 Gerber Fmt 4.6, Leading zero omitted, Abs format (unit mm)*
G04 Created by KiCad (PCBNEW (5.1.0)-1) date 2019-08-27 14:04:22*
%MOMM*%
%LPD*%
G04 APERTURE LIST*
%ADD10C,0.120000*%
%ADD11C,0.100000*%
%ADD12C,0.150000*%
%ADD13C,0.050000*%
%ADD14C,0.200000*%
%ADD15C,0.110000*%
%ADD16C,0.090000*%
G04 APERTURE END LIST*
D10*
X133863100Y-70965600D02*
X132753100Y-70965600D01*
X133863100Y-70205600D02*
X133863100Y-70965600D01*
X132189629Y-69445600D02*
X131643100Y-69445600D01*
X133863100Y-69445600D02*
X133316571Y-69445600D01*
X131643100Y-69445600D02*
X131643100Y-69510600D01*
X133863100Y-69445600D02*
X133863100Y-69510600D01*
X133863100Y-69445600D02*
X131643100Y-69445600D01*
X129392700Y-70965600D02*
X128282700Y-70965600D01*
X129392700Y-70205600D02*
X129392700Y-70965600D01*
X127719229Y-69445600D02*
X127172700Y-69445600D01*
X129392700Y-69445600D02*
X128846171Y-69445600D01*
X127172700Y-69445600D02*
X127172700Y-69510600D01*
X129392700Y-69445600D02*
X129392700Y-69510600D01*
X129392700Y-69445600D02*
X127172700Y-69445600D01*
X124322300Y-85628500D02*
X124322300Y-84518500D01*
X125082300Y-85628500D02*
X124322300Y-85628500D01*
X125842300Y-83955029D02*
X125842300Y-83408500D01*
X125842300Y-85628500D02*
X125842300Y-85081971D01*
X125842300Y-83408500D02*
X125777300Y-83408500D01*
X125842300Y-85628500D02*
X125777300Y-85628500D01*
X125842300Y-85628500D02*
X125842300Y-83408500D01*
X121096500Y-85628500D02*
X121096500Y-84518500D01*
X121856500Y-85628500D02*
X121096500Y-85628500D01*
X122616500Y-83955029D02*
X122616500Y-83408500D01*
X122616500Y-85628500D02*
X122616500Y-85081971D01*
X122616500Y-83408500D02*
X122551500Y-83408500D01*
X122616500Y-85628500D02*
X122551500Y-85628500D01*
X122616500Y-85628500D02*
X122616500Y-83408500D01*
X118180580Y-85631040D02*
X118180580Y-84521040D01*
X118940580Y-85631040D02*
X118180580Y-85631040D01*
X119700580Y-83957569D02*
X119700580Y-83411040D01*
X119700580Y-85631040D02*
X119700580Y-85084511D01*
X119700580Y-83411040D02*
X119635580Y-83411040D01*
X119700580Y-85631040D02*
X119635580Y-85631040D01*
X119700580Y-85631040D02*
X119700580Y-83411040D01*
X110822200Y-69232800D02*
X110822200Y-68122800D01*
X111582200Y-69232800D02*
X110822200Y-69232800D01*
X112342200Y-67559329D02*
X112342200Y-67012800D01*
X112342200Y-69232800D02*
X112342200Y-68686271D01*
X112342200Y-67012800D02*
X112277200Y-67012800D01*
X112342200Y-69232800D02*
X112277200Y-69232800D01*
X112342200Y-69232800D02*
X112342200Y-67012800D01*
X114695700Y-85653900D02*
X114695700Y-84543900D01*
X115455700Y-85653900D02*
X114695700Y-85653900D01*
X116215700Y-83980429D02*
X116215700Y-83433900D01*
X116215700Y-85653900D02*
X116215700Y-85107371D01*
X116215700Y-83433900D02*
X116150700Y-83433900D01*
X116215700Y-85653900D02*
X116150700Y-85653900D01*
X116215700Y-85653900D02*
X116215700Y-83433900D01*
X112168400Y-85666600D02*
X112168400Y-84556600D01*
X112928400Y-85666600D02*
X112168400Y-85666600D01*
X113688400Y-83993129D02*
X113688400Y-83446600D01*
X113688400Y-85666600D02*
X113688400Y-85120071D01*
X113688400Y-83446600D02*
X113623400Y-83446600D01*
X113688400Y-85666600D02*
X113623400Y-85666600D01*
X113688400Y-85666600D02*
X113688400Y-83446600D01*
X105824000Y-53824600D02*
X106934000Y-53824600D01*
X105824000Y-54584600D02*
X105824000Y-53824600D01*
X107497471Y-55344600D02*
X108044000Y-55344600D01*
X105824000Y-55344600D02*
X106370529Y-55344600D01*
X108044000Y-55344600D02*
X108044000Y-55279600D01*
X105824000Y-55344600D02*
X105824000Y-55279600D01*
X105824000Y-55344600D02*
X108044000Y-55344600D01*
X104568300Y-82233100D02*
X104568300Y-83563100D01*
X103238300Y-82233100D02*
X104568300Y-82233100D01*
X101968300Y-82233100D02*
X101968300Y-84893100D01*
X101968300Y-84893100D02*
X101908300Y-84893100D01*
X101968300Y-82233100D02*
X101908300Y-82233100D01*
X101908300Y-82233100D02*
X101908300Y-84893100D01*
X104568300Y-78083100D02*
X104568300Y-79413100D01*
X103238300Y-78083100D02*
X104568300Y-78083100D01*
X101968300Y-78083100D02*
X101968300Y-80743100D01*
X101968300Y-80743100D02*
X101908300Y-80743100D01*
X101968300Y-78083100D02*
X101908300Y-78083100D01*
X101908300Y-78083100D02*
X101908300Y-80743100D01*
D11*
X121117420Y-65462880D02*
X121117420Y-65712880D01*
X122077420Y-65462880D02*
X122077420Y-65712880D01*
X112740000Y-77210000D02*
X112190000Y-77210000D01*
X112190000Y-77210000D02*
X112190000Y-76660000D01*
X116800000Y-77210000D02*
X117350000Y-77210000D01*
X117350000Y-77210000D02*
X117350000Y-76660000D01*
X116800000Y-72050000D02*
X117350000Y-72050000D01*
X117350000Y-72050000D02*
X117350000Y-72600000D01*
X112740000Y-72050000D02*
X112190000Y-72050000D01*
X112190000Y-72050000D02*
X112190000Y-72600000D01*
D12*
X127802640Y-63058040D02*
X127802640Y-64886840D01*
X129301240Y-63058040D02*
X127802640Y-63058040D01*
D11*
X114773800Y-63813600D02*
X117038800Y-63813600D01*
X114773800Y-61548600D02*
X114773800Y-63813600D01*
X114773800Y-54753600D02*
X117038800Y-54753600D01*
X114773800Y-57018600D02*
X114773800Y-54753600D01*
X123833800Y-54753600D02*
X121568800Y-54753600D01*
X123833800Y-57018600D02*
X123833800Y-54753600D01*
X123833800Y-63813600D02*
X121568800Y-63813600D01*
X123833800Y-61548600D02*
X123833800Y-63813600D01*
X131602200Y-76002460D02*
X131602200Y-74442460D01*
X130032200Y-76002460D02*
X130032200Y-74442460D01*
X128883400Y-78986580D02*
X128883400Y-77106580D01*
X126183400Y-78986580D02*
X126183400Y-77106580D01*
X129466600Y-84143600D02*
X129966600Y-84143600D01*
X129466600Y-84143600D02*
X129466600Y-83643600D01*
X132666600Y-80843600D02*
X132666600Y-81343600D01*
X132666600Y-80843600D02*
X132166600Y-80843600D01*
X129466600Y-80843600D02*
X129466600Y-81343600D01*
X132666600Y-84143600D02*
X132166600Y-84143600D01*
X129466600Y-80843600D02*
X129966600Y-80843600D01*
X132666600Y-84143600D02*
X132666600Y-83643600D01*
X130010460Y-60592880D02*
X130400460Y-60592880D01*
X130010460Y-59692880D02*
X130400460Y-59692880D01*
X112776540Y-63947100D02*
X112526540Y-63947100D01*
X112776540Y-64907100D02*
X112526540Y-64907100D01*
X112772180Y-58102560D02*
X112522180Y-58102560D01*
X112772180Y-59062560D02*
X112522180Y-59062560D01*
X125657080Y-62195940D02*
X126067080Y-62195940D01*
X125657080Y-60795940D02*
X126067080Y-60795940D01*
X112777260Y-56342340D02*
X112527260Y-56342340D01*
X112777260Y-57302340D02*
X112527260Y-57302340D01*
X112786700Y-54622760D02*
X112536700Y-54622760D01*
X112786700Y-55582760D02*
X112536700Y-55582760D01*
X119662000Y-65463600D02*
X119662000Y-65713600D01*
X120622000Y-65463600D02*
X120622000Y-65713600D01*
X125561820Y-56451440D02*
X125811820Y-56451440D01*
X125561820Y-55491440D02*
X125811820Y-55491440D01*
X112779080Y-60203140D02*
X112529080Y-60203140D01*
X112779080Y-61163140D02*
X112529080Y-61163140D01*
X125561820Y-58150700D02*
X125811820Y-58150700D01*
X125561820Y-57190700D02*
X125811820Y-57190700D01*
X112776540Y-62087820D02*
X112526540Y-62087820D01*
X112776540Y-63047820D02*
X112526540Y-63047820D01*
D10*
X129115280Y-56408340D02*
X129115280Y-55298340D01*
X129875280Y-56408340D02*
X129115280Y-56408340D01*
X130635280Y-54734869D02*
X130635280Y-54188340D01*
X130635280Y-56408340D02*
X130635280Y-55861811D01*
X130635280Y-54188340D02*
X135650280Y-54188340D01*
X130635280Y-56408340D02*
X135650280Y-56408340D01*
X135650280Y-54990810D02*
X135650280Y-54188340D01*
X135650280Y-56408340D02*
X135650280Y-55605870D01*
X101763100Y-58843900D02*
X101763100Y-57513900D01*
X103093100Y-58843900D02*
X101763100Y-58843900D01*
X104363100Y-58843900D02*
X104363100Y-56183900D01*
X104363100Y-56183900D02*
X104423100Y-56183900D01*
X104363100Y-58843900D02*
X104423100Y-58843900D01*
X104423100Y-58843900D02*
X104423100Y-56183900D01*
X104365100Y-66493900D02*
X104365100Y-67823900D01*
X103035100Y-66493900D02*
X104365100Y-66493900D01*
X101765100Y-66493900D02*
X101765100Y-69153900D01*
X101765100Y-69153900D02*
X101705100Y-69153900D01*
X101765100Y-66493900D02*
X101705100Y-66493900D01*
X101705100Y-66493900D02*
X101705100Y-69153900D01*
X104373100Y-70643900D02*
X104373100Y-71973900D01*
X103043100Y-70643900D02*
X104373100Y-70643900D01*
X101773100Y-70643900D02*
X101773100Y-73303900D01*
X101773100Y-73303900D02*
X101713100Y-73303900D01*
X101773100Y-70643900D02*
X101713100Y-70643900D01*
X101713100Y-70643900D02*
X101713100Y-73303900D01*
X101763100Y-63043900D02*
X101763100Y-61713900D01*
X103093100Y-63043900D02*
X101763100Y-63043900D01*
X104363100Y-63043900D02*
X104363100Y-60383900D01*
X104363100Y-60383900D02*
X104423100Y-60383900D01*
X104363100Y-63043900D02*
X104423100Y-63043900D01*
X104423100Y-63043900D02*
X104423100Y-60383900D01*
D12*
X134618480Y-70519823D02*
X135332766Y-70519823D01*
X135475623Y-70567442D01*
X135570861Y-70662680D01*
X135618480Y-70805538D01*
X135618480Y-70900776D01*
X135618480Y-69519823D02*
X135618480Y-70091252D01*
X135618480Y-69805538D02*
X134618480Y-69805538D01*
X134761338Y-69900776D01*
X134856576Y-69996014D01*
X134904195Y-70091252D01*
X135618480Y-69043633D02*
X135618480Y-68853157D01*
X135570861Y-68757919D01*
X135523242Y-68710300D01*
X135380385Y-68615061D01*
X135189909Y-68567442D01*
X134808957Y-68567442D01*
X134713719Y-68615061D01*
X134666100Y-68662680D01*
X134618480Y-68757919D01*
X134618480Y-68948395D01*
X134666100Y-69043633D01*
X134713719Y-69091252D01*
X134808957Y-69138871D01*
X135047052Y-69138871D01*
X135142290Y-69091252D01*
X135189909Y-69043633D01*
X135237528Y-68948395D01*
X135237528Y-68757919D01*
X135189909Y-68662680D01*
X135142290Y-68615061D01*
X135047052Y-68567442D01*
X125461780Y-70557923D02*
X126176066Y-70557923D01*
X126318923Y-70605542D01*
X126414161Y-70700780D01*
X126461780Y-70843638D01*
X126461780Y-70938876D01*
X126461780Y-69557923D02*
X126461780Y-70129352D01*
X126461780Y-69843638D02*
X125461780Y-69843638D01*
X125604638Y-69938876D01*
X125699876Y-70034114D01*
X125747495Y-70129352D01*
X125890352Y-68986495D02*
X125842733Y-69081733D01*
X125795114Y-69129352D01*
X125699876Y-69176971D01*
X125652257Y-69176971D01*
X125557019Y-69129352D01*
X125509400Y-69081733D01*
X125461780Y-68986495D01*
X125461780Y-68796019D01*
X125509400Y-68700780D01*
X125557019Y-68653161D01*
X125652257Y-68605542D01*
X125699876Y-68605542D01*
X125795114Y-68653161D01*
X125842733Y-68700780D01*
X125890352Y-68796019D01*
X125890352Y-68986495D01*
X125937971Y-69081733D01*
X125985590Y-69129352D01*
X126080828Y-69176971D01*
X126271304Y-69176971D01*
X126366542Y-69129352D01*
X126414161Y-69081733D01*
X126461780Y-68986495D01*
X126461780Y-68796019D01*
X126414161Y-68700780D01*
X126366542Y-68653161D01*
X126271304Y-68605542D01*
X126080828Y-68605542D01*
X125985590Y-68653161D01*
X125937971Y-68700780D01*
X125890352Y-68796019D01*
X124310876Y-85761580D02*
X124310876Y-86475866D01*
X124263257Y-86618723D01*
X124168019Y-86713961D01*
X124025161Y-86761580D01*
X123929923Y-86761580D01*
X125310876Y-86761580D02*
X124739447Y-86761580D01*
X125025161Y-86761580D02*
X125025161Y-85761580D01*
X124929923Y-85904438D01*
X124834685Y-85999676D01*
X124739447Y-86047295D01*
X125644209Y-85761580D02*
X126310876Y-85761580D01*
X125882304Y-86761580D01*
X120919976Y-85774280D02*
X120919976Y-86488566D01*
X120872357Y-86631423D01*
X120777119Y-86726661D01*
X120634261Y-86774280D01*
X120539023Y-86774280D01*
X121919976Y-86774280D02*
X121348547Y-86774280D01*
X121634261Y-86774280D02*
X121634261Y-85774280D01*
X121539023Y-85917138D01*
X121443785Y-86012376D01*
X121348547Y-86059995D01*
X122777119Y-85774280D02*
X122586642Y-85774280D01*
X122491404Y-85821900D01*
X122443785Y-85869519D01*
X122348547Y-86012376D01*
X122300928Y-86202852D01*
X122300928Y-86583804D01*
X122348547Y-86679042D01*
X122396166Y-86726661D01*
X122491404Y-86774280D01*
X122681880Y-86774280D01*
X122777119Y-86726661D01*
X122824738Y-86679042D01*
X122872357Y-86583804D01*
X122872357Y-86345709D01*
X122824738Y-86250471D01*
X122777119Y-86202852D01*
X122681880Y-86155233D01*
X122491404Y-86155233D01*
X122396166Y-86202852D01*
X122348547Y-86250471D01*
X122300928Y-86345709D01*
X118009856Y-85764120D02*
X118009856Y-86478406D01*
X117962237Y-86621263D01*
X117866999Y-86716501D01*
X117724141Y-86764120D01*
X117628903Y-86764120D01*
X119009856Y-86764120D02*
X118438427Y-86764120D01*
X118724141Y-86764120D02*
X118724141Y-85764120D01*
X118628903Y-85906978D01*
X118533665Y-86002216D01*
X118438427Y-86049835D01*
X119343189Y-85764120D02*
X119962237Y-85764120D01*
X119628903Y-86145073D01*
X119771760Y-86145073D01*
X119866999Y-86192692D01*
X119914618Y-86240311D01*
X119962237Y-86335549D01*
X119962237Y-86573644D01*
X119914618Y-86668882D01*
X119866999Y-86716501D01*
X119771760Y-86764120D01*
X119486046Y-86764120D01*
X119390808Y-86716501D01*
X119343189Y-86668882D01*
X109339580Y-68932323D02*
X110053866Y-68932323D01*
X110196723Y-68979942D01*
X110291961Y-69075180D01*
X110339580Y-69218038D01*
X110339580Y-69313276D01*
X110339580Y-67932323D02*
X110339580Y-68503752D01*
X110339580Y-68218038D02*
X109339580Y-68218038D01*
X109482438Y-68313276D01*
X109577676Y-68408514D01*
X109625295Y-68503752D01*
X109434819Y-67551371D02*
X109387200Y-67503752D01*
X109339580Y-67408514D01*
X109339580Y-67170419D01*
X109387200Y-67075180D01*
X109434819Y-67027561D01*
X109530057Y-66979942D01*
X109625295Y-66979942D01*
X109768152Y-67027561D01*
X110339580Y-67598990D01*
X110339580Y-66979942D01*
X114569976Y-85685380D02*
X114569976Y-86399666D01*
X114522357Y-86542523D01*
X114427119Y-86637761D01*
X114284261Y-86685380D01*
X114189023Y-86685380D01*
X115569976Y-86685380D02*
X114998547Y-86685380D01*
X115284261Y-86685380D02*
X115284261Y-85685380D01*
X115189023Y-85828238D01*
X115093785Y-85923476D01*
X114998547Y-85971095D01*
X116522357Y-86685380D02*
X115950928Y-86685380D01*
X116236642Y-86685380D02*
X116236642Y-85685380D01*
X116141404Y-85828238D01*
X116046166Y-85923476D01*
X115950928Y-85971095D01*
X111915676Y-85748880D02*
X111915676Y-86463166D01*
X111868057Y-86606023D01*
X111772819Y-86701261D01*
X111629961Y-86748880D01*
X111534723Y-86748880D01*
X112915676Y-86748880D02*
X112344247Y-86748880D01*
X112629961Y-86748880D02*
X112629961Y-85748880D01*
X112534723Y-85891738D01*
X112439485Y-85986976D01*
X112344247Y-86034595D01*
X113534723Y-85748880D02*
X113629961Y-85748880D01*
X113725200Y-85796500D01*
X113772819Y-85844119D01*
X113820438Y-85939357D01*
X113868057Y-86129833D01*
X113868057Y-86367928D01*
X113820438Y-86558404D01*
X113772819Y-86653642D01*
X113725200Y-86701261D01*
X113629961Y-86748880D01*
X113534723Y-86748880D01*
X113439485Y-86701261D01*
X113391866Y-86653642D01*
X113344247Y-86558404D01*
X113296628Y-86367928D01*
X113296628Y-86129833D01*
X113344247Y-85939357D01*
X113391866Y-85844119D01*
X113439485Y-85796500D01*
X113534723Y-85748880D01*
X106181566Y-55967380D02*
X106181566Y-56681666D01*
X106133947Y-56824523D01*
X106038709Y-56919761D01*
X105895852Y-56967380D01*
X105800614Y-56967380D01*
X106562519Y-55967380D02*
X107181566Y-55967380D01*
X106848233Y-56348333D01*
X106991090Y-56348333D01*
X107086328Y-56395952D01*
X107133947Y-56443571D01*
X107181566Y-56538809D01*
X107181566Y-56776904D01*
X107133947Y-56872142D01*
X107086328Y-56919761D01*
X106991090Y-56967380D01*
X106705376Y-56967380D01*
X106610138Y-56919761D01*
X106562519Y-56872142D01*
X129565923Y-76490580D02*
X129565923Y-77204866D01*
X129518304Y-77347723D01*
X129423066Y-77442961D01*
X129280209Y-77490580D01*
X129184971Y-77490580D01*
X129804019Y-77585819D02*
X130565923Y-77585819D01*
X131232590Y-77442961D02*
X131137352Y-77490580D01*
X130946876Y-77490580D01*
X130851638Y-77442961D01*
X130804019Y-77395342D01*
X130756400Y-77300104D01*
X130756400Y-77014390D01*
X130804019Y-76919152D01*
X130851638Y-76871533D01*
X130946876Y-76823914D01*
X131137352Y-76823914D01*
X131232590Y-76871533D01*
X131804019Y-77490580D02*
X131708780Y-77442961D01*
X131661161Y-77395342D01*
X131613542Y-77300104D01*
X131613542Y-77014390D01*
X131661161Y-76919152D01*
X131708780Y-76871533D01*
X131804019Y-76823914D01*
X131946876Y-76823914D01*
X132042114Y-76871533D01*
X132089733Y-76919152D01*
X132137352Y-77014390D01*
X132137352Y-77300104D01*
X132089733Y-77395342D01*
X132042114Y-77442961D01*
X131946876Y-77490580D01*
X131804019Y-77490580D01*
X132994495Y-77490580D02*
X132994495Y-76966771D01*
X132946876Y-76871533D01*
X132851638Y-76823914D01*
X132661161Y-76823914D01*
X132565923Y-76871533D01*
X132994495Y-77442961D02*
X132899257Y-77490580D01*
X132661161Y-77490580D01*
X132565923Y-77442961D01*
X132518304Y-77347723D01*
X132518304Y-77252485D01*
X132565923Y-77157247D01*
X132661161Y-77109628D01*
X132899257Y-77109628D01*
X132994495Y-77062009D01*
X133375447Y-77490580D02*
X133899257Y-76823914D01*
X133375447Y-76823914D02*
X133899257Y-77490580D01*
X134042114Y-77585819D02*
X134804019Y-77585819D01*
X135470685Y-76823914D02*
X135470685Y-77633438D01*
X135423066Y-77728676D01*
X135375447Y-77776295D01*
X135280209Y-77823914D01*
X135137352Y-77823914D01*
X135042114Y-77776295D01*
X135470685Y-77442961D02*
X135375447Y-77490580D01*
X135184971Y-77490580D01*
X135089733Y-77442961D01*
X135042114Y-77395342D01*
X134994495Y-77300104D01*
X134994495Y-77014390D01*
X135042114Y-76919152D01*
X135089733Y-76871533D01*
X135184971Y-76823914D01*
X135375447Y-76823914D01*
X135470685Y-76871533D01*
X135946876Y-76823914D02*
X135946876Y-77490580D01*
X135946876Y-76919152D02*
X135994495Y-76871533D01*
X136089733Y-76823914D01*
X136232590Y-76823914D01*
X136327828Y-76871533D01*
X136375447Y-76966771D01*
X136375447Y-77490580D01*
X137280209Y-77490580D02*
X137280209Y-76490580D01*
X137280209Y-77442961D02*
X137184971Y-77490580D01*
X136994495Y-77490580D01*
X136899257Y-77442961D01*
X136851638Y-77395342D01*
X136804019Y-77300104D01*
X136804019Y-77014390D01*
X136851638Y-76919152D01*
X136899257Y-76871533D01*
X136994495Y-76823914D01*
X137184971Y-76823914D01*
X137280209Y-76871533D01*
X138280209Y-77490580D02*
X137708780Y-77490580D01*
X137994495Y-77490580D02*
X137994495Y-76490580D01*
X137899257Y-76633438D01*
X137804019Y-76728676D01*
X137708780Y-76776295D01*
X105020680Y-83896433D02*
X105734966Y-83896433D01*
X105877823Y-83944052D01*
X105973061Y-84039290D01*
X106020680Y-84182147D01*
X106020680Y-84277385D01*
X105115919Y-83467861D02*
X105068300Y-83420242D01*
X105020680Y-83325004D01*
X105020680Y-83086909D01*
X105068300Y-82991671D01*
X105115919Y-82944052D01*
X105211157Y-82896433D01*
X105306395Y-82896433D01*
X105449252Y-82944052D01*
X106020680Y-83515480D01*
X106020680Y-82896433D01*
X105020680Y-79746433D02*
X105734966Y-79746433D01*
X105877823Y-79794052D01*
X105973061Y-79889290D01*
X106020680Y-80032147D01*
X106020680Y-80127385D01*
X106020680Y-78746433D02*
X106020680Y-79317861D01*
X106020680Y-79032147D02*
X105020680Y-79032147D01*
X105163538Y-79127385D01*
X105258776Y-79222623D01*
X105306395Y-79317861D01*
D13*
X122836633Y-67430938D02*
X122589014Y-67430938D01*
X122589014Y-66910938D01*
X123084252Y-67133795D02*
X123034728Y-67109033D01*
X123009966Y-67084271D01*
X122985204Y-67034747D01*
X122985204Y-67009985D01*
X123009966Y-66960461D01*
X123034728Y-66935700D01*
X123084252Y-66910938D01*
X123183300Y-66910938D01*
X123232823Y-66935700D01*
X123257585Y-66960461D01*
X123282347Y-67009985D01*
X123282347Y-67034747D01*
X123257585Y-67084271D01*
X123232823Y-67109033D01*
X123183300Y-67133795D01*
X123084252Y-67133795D01*
X123034728Y-67158557D01*
X123009966Y-67183319D01*
X122985204Y-67232842D01*
X122985204Y-67331890D01*
X123009966Y-67381414D01*
X123034728Y-67406176D01*
X123084252Y-67430938D01*
X123183300Y-67430938D01*
X123232823Y-67406176D01*
X123257585Y-67381414D01*
X123282347Y-67331890D01*
X123282347Y-67232842D01*
X123257585Y-67183319D01*
X123232823Y-67158557D01*
X123183300Y-67133795D01*
X121268371Y-67399671D02*
X121244561Y-67423480D01*
X121173133Y-67447290D01*
X121125514Y-67447290D01*
X121054085Y-67423480D01*
X121006466Y-67375861D01*
X120982657Y-67328242D01*
X120958847Y-67233004D01*
X120958847Y-67161576D01*
X120982657Y-67066338D01*
X121006466Y-67018719D01*
X121054085Y-66971100D01*
X121125514Y-66947290D01*
X121173133Y-66947290D01*
X121244561Y-66971100D01*
X121268371Y-66994909D01*
X121458847Y-66994909D02*
X121482657Y-66971100D01*
X121530276Y-66947290D01*
X121649323Y-66947290D01*
X121696942Y-66971100D01*
X121720752Y-66994909D01*
X121744561Y-67042528D01*
X121744561Y-67090147D01*
X121720752Y-67161576D01*
X121435038Y-67447290D01*
X121744561Y-67447290D01*
X121982657Y-67447290D02*
X122077895Y-67447290D01*
X122125514Y-67423480D01*
X122149323Y-67399671D01*
X122196942Y-67328242D01*
X122220752Y-67233004D01*
X122220752Y-67042528D01*
X122196942Y-66994909D01*
X122173133Y-66971100D01*
X122125514Y-66947290D01*
X122030276Y-66947290D01*
X121982657Y-66971100D01*
X121958847Y-66994909D01*
X121935038Y-67042528D01*
X121935038Y-67161576D01*
X121958847Y-67209195D01*
X121982657Y-67233004D01*
X122030276Y-67256814D01*
X122125514Y-67256814D01*
X122173133Y-67233004D01*
X122196942Y-67209195D01*
X122220752Y-67161576D01*
X114107090Y-79356733D02*
X113868995Y-79523400D01*
X114107090Y-79642447D02*
X113607090Y-79642447D01*
X113607090Y-79451971D01*
X113630900Y-79404352D01*
X113654709Y-79380542D01*
X113702328Y-79356733D01*
X113773757Y-79356733D01*
X113821376Y-79380542D01*
X113845185Y-79404352D01*
X113868995Y-79451971D01*
X113868995Y-79642447D01*
X113654709Y-79166257D02*
X113630900Y-79142447D01*
X113607090Y-79094828D01*
X113607090Y-78975780D01*
X113630900Y-78928161D01*
X113654709Y-78904352D01*
X113702328Y-78880542D01*
X113749947Y-78880542D01*
X113821376Y-78904352D01*
X114107090Y-79190066D01*
X114107090Y-78880542D01*
X121803290Y-73502033D02*
X121565195Y-73668700D01*
X121803290Y-73787747D02*
X121303290Y-73787747D01*
X121303290Y-73597271D01*
X121327100Y-73549652D01*
X121350909Y-73525842D01*
X121398528Y-73502033D01*
X121469957Y-73502033D01*
X121517576Y-73525842D01*
X121541385Y-73549652D01*
X121565195Y-73597271D01*
X121565195Y-73787747D01*
X121803290Y-73025842D02*
X121803290Y-73311557D01*
X121803290Y-73168700D02*
X121303290Y-73168700D01*
X121374719Y-73216319D01*
X121422338Y-73263938D01*
X121446147Y-73311557D01*
D12*
X118816380Y-69673766D02*
X118816380Y-70149957D01*
X117816380Y-70149957D01*
X118149714Y-68911861D02*
X118816380Y-68911861D01*
X117768761Y-69149957D02*
X118483047Y-69388052D01*
X118483047Y-68769004D01*
D13*
X114653190Y-78150233D02*
X114415095Y-78316900D01*
X114653190Y-78435947D02*
X114153190Y-78435947D01*
X114153190Y-78245471D01*
X114177000Y-78197852D01*
X114200809Y-78174042D01*
X114248428Y-78150233D01*
X114319857Y-78150233D01*
X114367476Y-78174042D01*
X114391285Y-78197852D01*
X114415095Y-78245471D01*
X114415095Y-78435947D01*
X114153190Y-77721661D02*
X114153190Y-77816900D01*
X114177000Y-77864519D01*
X114200809Y-77888328D01*
X114272238Y-77935947D01*
X114367476Y-77959757D01*
X114557952Y-77959757D01*
X114605571Y-77935947D01*
X114629380Y-77912138D01*
X114653190Y-77864519D01*
X114653190Y-77769280D01*
X114629380Y-77721661D01*
X114605571Y-77697852D01*
X114557952Y-77674042D01*
X114438904Y-77674042D01*
X114391285Y-77697852D01*
X114367476Y-77721661D01*
X114343666Y-77769280D01*
X114343666Y-77864519D01*
X114367476Y-77912138D01*
X114391285Y-77935947D01*
X114438904Y-77959757D01*
X119568090Y-78074033D02*
X119329995Y-78240700D01*
X119568090Y-78359747D02*
X119068090Y-78359747D01*
X119068090Y-78169271D01*
X119091900Y-78121652D01*
X119115709Y-78097842D01*
X119163328Y-78074033D01*
X119234757Y-78074033D01*
X119282376Y-78097842D01*
X119306185Y-78121652D01*
X119329995Y-78169271D01*
X119329995Y-78359747D01*
X119068090Y-77621652D02*
X119068090Y-77859747D01*
X119306185Y-77883557D01*
X119282376Y-77859747D01*
X119258566Y-77812128D01*
X119258566Y-77693080D01*
X119282376Y-77645461D01*
X119306185Y-77621652D01*
X119353804Y-77597842D01*
X119472852Y-77597842D01*
X119520471Y-77621652D01*
X119544280Y-77645461D01*
X119568090Y-77693080D01*
X119568090Y-77812128D01*
X119544280Y-77859747D01*
X119520471Y-77883557D01*
X118229866Y-76972290D02*
X118063200Y-76734195D01*
X117944152Y-76972290D02*
X117944152Y-76472290D01*
X118134628Y-76472290D01*
X118182247Y-76496100D01*
X118206057Y-76519909D01*
X118229866Y-76567528D01*
X118229866Y-76638957D01*
X118206057Y-76686576D01*
X118182247Y-76710385D01*
X118134628Y-76734195D01*
X117944152Y-76734195D01*
X118396533Y-76472290D02*
X118706057Y-76472290D01*
X118539390Y-76662766D01*
X118610819Y-76662766D01*
X118658438Y-76686576D01*
X118682247Y-76710385D01*
X118706057Y-76758004D01*
X118706057Y-76877052D01*
X118682247Y-76924671D01*
X118658438Y-76948480D01*
X118610819Y-76972290D01*
X118467961Y-76972290D01*
X118420342Y-76948480D01*
X118396533Y-76924671D01*
X109466866Y-77712071D02*
X109443057Y-77735880D01*
X109371628Y-77759690D01*
X109324009Y-77759690D01*
X109252580Y-77735880D01*
X109204961Y-77688261D01*
X109181152Y-77640642D01*
X109157342Y-77545404D01*
X109157342Y-77473976D01*
X109181152Y-77378738D01*
X109204961Y-77331119D01*
X109252580Y-77283500D01*
X109324009Y-77259690D01*
X109371628Y-77259690D01*
X109443057Y-77283500D01*
X109466866Y-77307309D01*
X109752580Y-77473976D02*
X109704961Y-77450166D01*
X109681152Y-77426357D01*
X109657342Y-77378738D01*
X109657342Y-77354928D01*
X109681152Y-77307309D01*
X109704961Y-77283500D01*
X109752580Y-77259690D01*
X109847819Y-77259690D01*
X109895438Y-77283500D01*
X109919247Y-77307309D01*
X109943057Y-77354928D01*
X109943057Y-77378738D01*
X109919247Y-77426357D01*
X109895438Y-77450166D01*
X109847819Y-77473976D01*
X109752580Y-77473976D01*
X109704961Y-77497785D01*
X109681152Y-77521595D01*
X109657342Y-77569214D01*
X109657342Y-77664452D01*
X109681152Y-77712071D01*
X109704961Y-77735880D01*
X109752580Y-77759690D01*
X109847819Y-77759690D01*
X109895438Y-77735880D01*
X109919247Y-77712071D01*
X109943057Y-77664452D01*
X109943057Y-77569214D01*
X109919247Y-77521595D01*
X109895438Y-77497785D01*
X109847819Y-77473976D01*
D14*
X113996190Y-69534761D02*
X113996190Y-71153809D01*
X114091428Y-71344285D01*
X114186666Y-71439523D01*
X114377142Y-71534761D01*
X114758095Y-71534761D01*
X114948571Y-71439523D01*
X115043809Y-71344285D01*
X115139047Y-71153809D01*
X115139047Y-69534761D01*
X117139047Y-71534761D02*
X115996190Y-71534761D01*
X116567619Y-71534761D02*
X116567619Y-69534761D01*
X116377142Y-69820476D01*
X116186666Y-70010952D01*
X115996190Y-70106190D01*
D13*
X118204466Y-78889990D02*
X118037800Y-78651895D01*
X117918752Y-78889990D02*
X117918752Y-78389990D01*
X118109228Y-78389990D01*
X118156847Y-78413800D01*
X118180657Y-78437609D01*
X118204466Y-78485228D01*
X118204466Y-78556657D01*
X118180657Y-78604276D01*
X118156847Y-78628085D01*
X118109228Y-78651895D01*
X117918752Y-78651895D01*
X118633038Y-78556657D02*
X118633038Y-78889990D01*
X118513990Y-78366180D02*
X118394942Y-78723323D01*
X118704466Y-78723323D01*
D12*
X118816380Y-73890166D02*
X118816380Y-74366357D01*
X117816380Y-74366357D01*
X117816380Y-73652071D02*
X117816380Y-73033023D01*
X118197333Y-73366357D01*
X118197333Y-73223500D01*
X118244952Y-73128261D01*
X118292571Y-73080642D01*
X118387809Y-73033023D01*
X118625904Y-73033023D01*
X118721142Y-73080642D01*
X118768761Y-73128261D01*
X118816380Y-73223500D01*
X118816380Y-73509214D01*
X118768761Y-73604452D01*
X118721142Y-73652071D01*
D13*
X109000171Y-74638671D02*
X108976361Y-74662480D01*
X108904933Y-74686290D01*
X108857314Y-74686290D01*
X108785885Y-74662480D01*
X108738266Y-74614861D01*
X108714457Y-74567242D01*
X108690647Y-74472004D01*
X108690647Y-74400576D01*
X108714457Y-74305338D01*
X108738266Y-74257719D01*
X108785885Y-74210100D01*
X108857314Y-74186290D01*
X108904933Y-74186290D01*
X108976361Y-74210100D01*
X109000171Y-74233909D01*
X109476361Y-74686290D02*
X109190647Y-74686290D01*
X109333504Y-74686290D02*
X109333504Y-74186290D01*
X109285885Y-74257719D01*
X109238266Y-74305338D01*
X109190647Y-74329147D01*
X109762076Y-74400576D02*
X109714457Y-74376766D01*
X109690647Y-74352957D01*
X109666838Y-74305338D01*
X109666838Y-74281528D01*
X109690647Y-74233909D01*
X109714457Y-74210100D01*
X109762076Y-74186290D01*
X109857314Y-74186290D01*
X109904933Y-74210100D01*
X109928742Y-74233909D01*
X109952552Y-74281528D01*
X109952552Y-74305338D01*
X109928742Y-74352957D01*
X109904933Y-74376766D01*
X109857314Y-74400576D01*
X109762076Y-74400576D01*
X109714457Y-74424385D01*
X109690647Y-74448195D01*
X109666838Y-74495814D01*
X109666838Y-74591052D01*
X109690647Y-74638671D01*
X109714457Y-74662480D01*
X109762076Y-74686290D01*
X109857314Y-74686290D01*
X109904933Y-74662480D01*
X109928742Y-74638671D01*
X109952552Y-74591052D01*
X109952552Y-74495814D01*
X109928742Y-74448195D01*
X109904933Y-74424385D01*
X109857314Y-74400576D01*
X120333271Y-70590528D02*
X120357080Y-70614338D01*
X120380890Y-70685766D01*
X120380890Y-70733385D01*
X120357080Y-70804814D01*
X120309461Y-70852433D01*
X120261842Y-70876242D01*
X120166604Y-70900052D01*
X120095176Y-70900052D01*
X119999938Y-70876242D01*
X119952319Y-70852433D01*
X119904700Y-70804814D01*
X119880890Y-70733385D01*
X119880890Y-70685766D01*
X119904700Y-70614338D01*
X119928509Y-70590528D01*
X120380890Y-70114338D02*
X120380890Y-70400052D01*
X120380890Y-70257195D02*
X119880890Y-70257195D01*
X119952319Y-70304814D01*
X119999938Y-70352433D01*
X120023747Y-70400052D01*
X119880890Y-69685766D02*
X119880890Y-69781004D01*
X119904700Y-69828623D01*
X119928509Y-69852433D01*
X119999938Y-69900052D01*
X120095176Y-69923861D01*
X120285652Y-69923861D01*
X120333271Y-69900052D01*
X120357080Y-69876242D01*
X120380890Y-69828623D01*
X120380890Y-69733385D01*
X120357080Y-69685766D01*
X120333271Y-69661957D01*
X120285652Y-69638147D01*
X120166604Y-69638147D01*
X120118985Y-69661957D01*
X120095176Y-69685766D01*
X120071366Y-69733385D01*
X120071366Y-69828623D01*
X120095176Y-69876242D01*
X120118985Y-69900052D01*
X120166604Y-69923861D01*
X109038271Y-75426071D02*
X109014461Y-75449880D01*
X108943033Y-75473690D01*
X108895414Y-75473690D01*
X108823985Y-75449880D01*
X108776366Y-75402261D01*
X108752557Y-75354642D01*
X108728747Y-75259404D01*
X108728747Y-75187976D01*
X108752557Y-75092738D01*
X108776366Y-75045119D01*
X108823985Y-74997500D01*
X108895414Y-74973690D01*
X108943033Y-74973690D01*
X109014461Y-74997500D01*
X109038271Y-75021309D01*
X109514461Y-75473690D02*
X109228747Y-75473690D01*
X109371604Y-75473690D02*
X109371604Y-74973690D01*
X109323985Y-75045119D01*
X109276366Y-75092738D01*
X109228747Y-75116547D01*
X109681128Y-74973690D02*
X110014461Y-74973690D01*
X109800176Y-75473690D01*
X108987471Y-78550271D02*
X108963661Y-78574080D01*
X108892233Y-78597890D01*
X108844614Y-78597890D01*
X108773185Y-78574080D01*
X108725566Y-78526461D01*
X108701757Y-78478842D01*
X108677947Y-78383604D01*
X108677947Y-78312176D01*
X108701757Y-78216938D01*
X108725566Y-78169319D01*
X108773185Y-78121700D01*
X108844614Y-78097890D01*
X108892233Y-78097890D01*
X108963661Y-78121700D01*
X108987471Y-78145509D01*
X109463661Y-78597890D02*
X109177947Y-78597890D01*
X109320804Y-78597890D02*
X109320804Y-78097890D01*
X109273185Y-78169319D01*
X109225566Y-78216938D01*
X109177947Y-78240747D01*
X109892233Y-78264557D02*
X109892233Y-78597890D01*
X109773185Y-78074080D02*
X109654138Y-78431223D01*
X109963661Y-78431223D01*
X121755671Y-75924528D02*
X121779480Y-75948338D01*
X121803290Y-76019766D01*
X121803290Y-76067385D01*
X121779480Y-76138814D01*
X121731861Y-76186433D01*
X121684242Y-76210242D01*
X121589004Y-76234052D01*
X121517576Y-76234052D01*
X121422338Y-76210242D01*
X121374719Y-76186433D01*
X121327100Y-76138814D01*
X121303290Y-76067385D01*
X121303290Y-76019766D01*
X121327100Y-75948338D01*
X121350909Y-75924528D01*
X121803290Y-75448338D02*
X121803290Y-75734052D01*
X121803290Y-75591195D02*
X121303290Y-75591195D01*
X121374719Y-75638814D01*
X121422338Y-75686433D01*
X121446147Y-75734052D01*
X121303290Y-74995957D02*
X121303290Y-75234052D01*
X121541385Y-75257861D01*
X121517576Y-75234052D01*
X121493766Y-75186433D01*
X121493766Y-75067385D01*
X121517576Y-75019766D01*
X121541385Y-74995957D01*
X121589004Y-74972147D01*
X121708052Y-74972147D01*
X121755671Y-74995957D01*
X121779480Y-75019766D01*
X121803290Y-75067385D01*
X121803290Y-75186433D01*
X121779480Y-75234052D01*
X121755671Y-75257861D01*
X109012871Y-76950071D02*
X108989061Y-76973880D01*
X108917633Y-76997690D01*
X108870014Y-76997690D01*
X108798585Y-76973880D01*
X108750966Y-76926261D01*
X108727157Y-76878642D01*
X108703347Y-76783404D01*
X108703347Y-76711976D01*
X108727157Y-76616738D01*
X108750966Y-76569119D01*
X108798585Y-76521500D01*
X108870014Y-76497690D01*
X108917633Y-76497690D01*
X108989061Y-76521500D01*
X109012871Y-76545309D01*
X109489061Y-76997690D02*
X109203347Y-76997690D01*
X109346204Y-76997690D02*
X109346204Y-76497690D01*
X109298585Y-76569119D01*
X109250966Y-76616738D01*
X109203347Y-76640547D01*
X109679538Y-76545309D02*
X109703347Y-76521500D01*
X109750966Y-76497690D01*
X109870014Y-76497690D01*
X109917633Y-76521500D01*
X109941442Y-76545309D01*
X109965252Y-76592928D01*
X109965252Y-76640547D01*
X109941442Y-76711976D01*
X109655728Y-76997690D01*
X109965252Y-76997690D01*
X109025571Y-76149971D02*
X109001761Y-76173780D01*
X108930333Y-76197590D01*
X108882714Y-76197590D01*
X108811285Y-76173780D01*
X108763666Y-76126161D01*
X108739857Y-76078542D01*
X108716047Y-75983304D01*
X108716047Y-75911876D01*
X108739857Y-75816638D01*
X108763666Y-75769019D01*
X108811285Y-75721400D01*
X108882714Y-75697590D01*
X108930333Y-75697590D01*
X109001761Y-75721400D01*
X109025571Y-75745209D01*
X109501761Y-76197590D02*
X109216047Y-76197590D01*
X109358904Y-76197590D02*
X109358904Y-75697590D01*
X109311285Y-75769019D01*
X109263666Y-75816638D01*
X109216047Y-75840447D01*
X109977952Y-76197590D02*
X109692238Y-76197590D01*
X109835095Y-76197590D02*
X109835095Y-75697590D01*
X109787476Y-75769019D01*
X109739857Y-75816638D01*
X109692238Y-75840447D01*
X121133371Y-70552428D02*
X121157180Y-70576238D01*
X121180990Y-70647666D01*
X121180990Y-70695285D01*
X121157180Y-70766714D01*
X121109561Y-70814333D01*
X121061942Y-70838142D01*
X120966704Y-70861952D01*
X120895276Y-70861952D01*
X120800038Y-70838142D01*
X120752419Y-70814333D01*
X120704800Y-70766714D01*
X120680990Y-70695285D01*
X120680990Y-70647666D01*
X120704800Y-70576238D01*
X120728609Y-70552428D01*
X121180990Y-70076238D02*
X121180990Y-70361952D01*
X121180990Y-70219095D02*
X120680990Y-70219095D01*
X120752419Y-70266714D01*
X120800038Y-70314333D01*
X120823847Y-70361952D01*
X120680990Y-69766714D02*
X120680990Y-69719095D01*
X120704800Y-69671476D01*
X120728609Y-69647666D01*
X120776228Y-69623857D01*
X120871466Y-69600047D01*
X120990514Y-69600047D01*
X121085752Y-69623857D01*
X121133371Y-69647666D01*
X121157180Y-69671476D01*
X121180990Y-69719095D01*
X121180990Y-69766714D01*
X121157180Y-69814333D01*
X121133371Y-69838142D01*
X121085752Y-69861952D01*
X120990514Y-69885761D01*
X120871466Y-69885761D01*
X120776228Y-69861952D01*
X120728609Y-69838142D01*
X120704800Y-69814333D01*
X120680990Y-69766714D01*
X120955571Y-76677033D02*
X120979380Y-76700842D01*
X121003190Y-76772271D01*
X121003190Y-76819890D01*
X120979380Y-76891319D01*
X120931761Y-76938938D01*
X120884142Y-76962747D01*
X120788904Y-76986557D01*
X120717476Y-76986557D01*
X120622238Y-76962747D01*
X120574619Y-76938938D01*
X120527000Y-76891319D01*
X120503190Y-76819890D01*
X120503190Y-76772271D01*
X120527000Y-76700842D01*
X120550809Y-76677033D01*
X121003190Y-76438938D02*
X121003190Y-76343700D01*
X120979380Y-76296080D01*
X120955571Y-76272271D01*
X120884142Y-76224652D01*
X120788904Y-76200842D01*
X120598428Y-76200842D01*
X120550809Y-76224652D01*
X120527000Y-76248461D01*
X120503190Y-76296080D01*
X120503190Y-76391319D01*
X120527000Y-76438938D01*
X120550809Y-76462747D01*
X120598428Y-76486557D01*
X120717476Y-76486557D01*
X120765095Y-76462747D01*
X120788904Y-76438938D01*
X120812714Y-76391319D01*
X120812714Y-76296080D01*
X120788904Y-76248461D01*
X120765095Y-76224652D01*
X120717476Y-76200842D01*
X119545871Y-70123833D02*
X119569680Y-70147642D01*
X119593490Y-70219071D01*
X119593490Y-70266690D01*
X119569680Y-70338119D01*
X119522061Y-70385738D01*
X119474442Y-70409547D01*
X119379204Y-70433357D01*
X119307776Y-70433357D01*
X119212538Y-70409547D01*
X119164919Y-70385738D01*
X119117300Y-70338119D01*
X119093490Y-70266690D01*
X119093490Y-70219071D01*
X119117300Y-70147642D01*
X119141109Y-70123833D01*
X119093490Y-69695261D02*
X119093490Y-69790500D01*
X119117300Y-69838119D01*
X119141109Y-69861928D01*
X119212538Y-69909547D01*
X119307776Y-69933357D01*
X119498252Y-69933357D01*
X119545871Y-69909547D01*
X119569680Y-69885738D01*
X119593490Y-69838119D01*
X119593490Y-69742880D01*
X119569680Y-69695261D01*
X119545871Y-69671452D01*
X119498252Y-69647642D01*
X119379204Y-69647642D01*
X119331585Y-69671452D01*
X119307776Y-69695261D01*
X119283966Y-69742880D01*
X119283966Y-69838119D01*
X119307776Y-69885738D01*
X119331585Y-69909547D01*
X119379204Y-69933357D01*
X120282471Y-74619633D02*
X120306280Y-74643442D01*
X120330090Y-74714871D01*
X120330090Y-74762490D01*
X120306280Y-74833919D01*
X120258661Y-74881538D01*
X120211042Y-74905347D01*
X120115804Y-74929157D01*
X120044376Y-74929157D01*
X119949138Y-74905347D01*
X119901519Y-74881538D01*
X119853900Y-74833919D01*
X119830090Y-74762490D01*
X119830090Y-74714871D01*
X119853900Y-74643442D01*
X119877709Y-74619633D01*
X119830090Y-74167252D02*
X119830090Y-74405347D01*
X120068185Y-74429157D01*
X120044376Y-74405347D01*
X120020566Y-74357728D01*
X120020566Y-74238680D01*
X120044376Y-74191061D01*
X120068185Y-74167252D01*
X120115804Y-74143442D01*
X120234852Y-74143442D01*
X120282471Y-74167252D01*
X120306280Y-74191061D01*
X120330090Y-74238680D01*
X120330090Y-74357728D01*
X120306280Y-74405347D01*
X120282471Y-74429157D01*
X111994166Y-80379071D02*
X111970357Y-80402880D01*
X111898928Y-80426690D01*
X111851309Y-80426690D01*
X111779880Y-80402880D01*
X111732261Y-80355261D01*
X111708452Y-80307642D01*
X111684642Y-80212404D01*
X111684642Y-80140976D01*
X111708452Y-80045738D01*
X111732261Y-79998119D01*
X111779880Y-79950500D01*
X111851309Y-79926690D01*
X111898928Y-79926690D01*
X111970357Y-79950500D01*
X111994166Y-79974309D01*
X112422738Y-80093357D02*
X112422738Y-80426690D01*
X112303690Y-79902880D02*
X112184642Y-80260023D01*
X112494166Y-80260023D01*
X120320571Y-78086733D02*
X120344380Y-78110542D01*
X120368190Y-78181971D01*
X120368190Y-78229590D01*
X120344380Y-78301019D01*
X120296761Y-78348638D01*
X120249142Y-78372447D01*
X120153904Y-78396257D01*
X120082476Y-78396257D01*
X119987238Y-78372447D01*
X119939619Y-78348638D01*
X119892000Y-78301019D01*
X119868190Y-78229590D01*
X119868190Y-78181971D01*
X119892000Y-78110542D01*
X119915809Y-78086733D01*
X119868190Y-77920066D02*
X119868190Y-77610542D01*
X120058666Y-77777209D01*
X120058666Y-77705780D01*
X120082476Y-77658161D01*
X120106285Y-77634352D01*
X120153904Y-77610542D01*
X120272952Y-77610542D01*
X120320571Y-77634352D01*
X120344380Y-77658161D01*
X120368190Y-77705780D01*
X120368190Y-77848638D01*
X120344380Y-77896257D01*
X120320571Y-77920066D01*
X119258566Y-74244971D02*
X119234757Y-74268780D01*
X119163328Y-74292590D01*
X119115709Y-74292590D01*
X119044280Y-74268780D01*
X118996661Y-74221161D01*
X118972852Y-74173542D01*
X118949042Y-74078304D01*
X118949042Y-74006876D01*
X118972852Y-73911638D01*
X118996661Y-73864019D01*
X119044280Y-73816400D01*
X119115709Y-73792590D01*
X119163328Y-73792590D01*
X119234757Y-73816400D01*
X119258566Y-73840209D01*
X119449042Y-73840209D02*
X119472852Y-73816400D01*
X119520471Y-73792590D01*
X119639519Y-73792590D01*
X119687138Y-73816400D01*
X119710947Y-73840209D01*
X119734757Y-73887828D01*
X119734757Y-73935447D01*
X119710947Y-74006876D01*
X119425233Y-74292590D01*
X119734757Y-74292590D01*
X120371371Y-72816233D02*
X120395180Y-72840042D01*
X120418990Y-72911471D01*
X120418990Y-72959090D01*
X120395180Y-73030519D01*
X120347561Y-73078138D01*
X120299942Y-73101947D01*
X120204704Y-73125757D01*
X120133276Y-73125757D01*
X120038038Y-73101947D01*
X119990419Y-73078138D01*
X119942800Y-73030519D01*
X119918990Y-72959090D01*
X119918990Y-72911471D01*
X119942800Y-72840042D01*
X119966609Y-72816233D01*
X120418990Y-72340042D02*
X120418990Y-72625757D01*
X120418990Y-72482900D02*
X119918990Y-72482900D01*
X119990419Y-72530519D01*
X120038038Y-72578138D01*
X120061847Y-72625757D01*
D14*
X132908680Y-63893580D02*
X133861061Y-63893580D01*
X131861061Y-64560247D02*
X132908680Y-63893580D01*
X131861061Y-63226914D01*
X133861061Y-61512628D02*
X133861061Y-62655485D01*
X133861061Y-62084057D02*
X131861061Y-62084057D01*
X132146776Y-62274533D01*
X132337252Y-62465009D01*
X132432490Y-62655485D01*
X114401790Y-64614561D02*
X114401790Y-66233609D01*
X114497028Y-66424085D01*
X114592266Y-66519323D01*
X114782742Y-66614561D01*
X115163695Y-66614561D01*
X115354171Y-66519323D01*
X115449409Y-66424085D01*
X115544647Y-66233609D01*
X115544647Y-64614561D01*
X117354171Y-65281228D02*
X117354171Y-66614561D01*
X116877980Y-64519323D02*
X116401790Y-65947895D01*
X117639885Y-65947895D01*
D15*
X132064861Y-73353447D02*
X132064861Y-74219638D01*
X132115814Y-74321542D01*
X132166766Y-74372495D01*
X132268671Y-74423447D01*
X132472480Y-74423447D01*
X132574385Y-74372495D01*
X132625338Y-74321542D01*
X132676290Y-74219638D01*
X132676290Y-73353447D01*
X133134861Y-73455352D02*
X133185814Y-73404400D01*
X133287719Y-73353447D01*
X133542480Y-73353447D01*
X133644385Y-73404400D01*
X133695338Y-73455352D01*
X133746290Y-73557257D01*
X133746290Y-73659161D01*
X133695338Y-73812019D01*
X133083909Y-74423447D01*
X133746290Y-74423447D01*
D13*
X105533071Y-72971790D02*
X105366404Y-72733695D01*
X105247357Y-72971790D02*
X105247357Y-72471790D01*
X105437833Y-72471790D01*
X105485452Y-72495600D01*
X105509261Y-72519409D01*
X105533071Y-72567028D01*
X105533071Y-72638457D01*
X105509261Y-72686076D01*
X105485452Y-72709885D01*
X105437833Y-72733695D01*
X105247357Y-72733695D01*
X106009261Y-72971790D02*
X105723547Y-72971790D01*
X105866404Y-72971790D02*
X105866404Y-72471790D01*
X105818785Y-72543219D01*
X105771166Y-72590838D01*
X105723547Y-72614647D01*
X106485452Y-72971790D02*
X106199738Y-72971790D01*
X106342595Y-72971790D02*
X106342595Y-72471790D01*
X106294976Y-72543219D01*
X106247357Y-72590838D01*
X106199738Y-72614647D01*
X105469571Y-67269490D02*
X105302904Y-67031395D01*
X105183857Y-67269490D02*
X105183857Y-66769490D01*
X105374333Y-66769490D01*
X105421952Y-66793300D01*
X105445761Y-66817109D01*
X105469571Y-66864728D01*
X105469571Y-66936157D01*
X105445761Y-66983776D01*
X105421952Y-67007585D01*
X105374333Y-67031395D01*
X105183857Y-67031395D01*
X105945761Y-67269490D02*
X105660047Y-67269490D01*
X105802904Y-67269490D02*
X105802904Y-66769490D01*
X105755285Y-66840919D01*
X105707666Y-66888538D01*
X105660047Y-66912347D01*
X106255285Y-66769490D02*
X106302904Y-66769490D01*
X106350523Y-66793300D01*
X106374333Y-66817109D01*
X106398142Y-66864728D01*
X106421952Y-66959966D01*
X106421952Y-67079014D01*
X106398142Y-67174252D01*
X106374333Y-67221871D01*
X106350523Y-67245680D01*
X106302904Y-67269490D01*
X106255285Y-67269490D01*
X106207666Y-67245680D01*
X106183857Y-67221871D01*
X106160047Y-67174252D01*
X106136238Y-67079014D01*
X106136238Y-66959966D01*
X106160047Y-66864728D01*
X106183857Y-66817109D01*
X106207666Y-66793300D01*
X106255285Y-66769490D01*
X130129766Y-58417590D02*
X129963100Y-58179495D01*
X129844052Y-58417590D02*
X129844052Y-57917590D01*
X130034528Y-57917590D01*
X130082147Y-57941400D01*
X130105957Y-57965209D01*
X130129766Y-58012828D01*
X130129766Y-58084257D01*
X130105957Y-58131876D01*
X130082147Y-58155685D01*
X130034528Y-58179495D01*
X129844052Y-58179495D01*
X130367861Y-58417590D02*
X130463100Y-58417590D01*
X130510719Y-58393780D01*
X130534528Y-58369971D01*
X130582147Y-58298542D01*
X130605957Y-58203304D01*
X130605957Y-58012828D01*
X130582147Y-57965209D01*
X130558338Y-57941400D01*
X130510719Y-57917590D01*
X130415480Y-57917590D01*
X130367861Y-57941400D01*
X130344052Y-57965209D01*
X130320242Y-58012828D01*
X130320242Y-58131876D01*
X130344052Y-58179495D01*
X130367861Y-58203304D01*
X130415480Y-58227114D01*
X130510719Y-58227114D01*
X130558338Y-58203304D01*
X130582147Y-58179495D01*
X130605957Y-58131876D01*
X124584590Y-76931033D02*
X124346495Y-77097700D01*
X124584590Y-77216747D02*
X124084590Y-77216747D01*
X124084590Y-77026271D01*
X124108400Y-76978652D01*
X124132209Y-76954842D01*
X124179828Y-76931033D01*
X124251257Y-76931033D01*
X124298876Y-76954842D01*
X124322685Y-76978652D01*
X124346495Y-77026271D01*
X124346495Y-77216747D01*
X124084590Y-76764366D02*
X124084590Y-76431033D01*
X124584590Y-76645319D01*
X118747233Y-67481738D02*
X118499614Y-67481738D01*
X118499614Y-66961738D01*
X118871042Y-66961738D02*
X119217709Y-66961738D01*
X118994852Y-67481738D01*
D14*
X125593361Y-79682933D02*
X125593361Y-80635314D01*
X123593361Y-80635314D01*
X123783838Y-79111504D02*
X123688600Y-79016266D01*
X123593361Y-78825790D01*
X123593361Y-78349600D01*
X123688600Y-78159123D01*
X123783838Y-78063885D01*
X123974314Y-77968647D01*
X124164790Y-77968647D01*
X124450504Y-78063885D01*
X125593361Y-79206742D01*
X125593361Y-77968647D01*
D12*
X126803080Y-82170566D02*
X126803080Y-82646757D01*
X125803080Y-82646757D01*
X126803080Y-81313423D02*
X126803080Y-81884852D01*
X126803080Y-81599138D02*
X125803080Y-81599138D01*
X125945938Y-81694376D01*
X126041176Y-81789614D01*
X126088795Y-81884852D01*
X108664476Y-55687980D02*
X108664476Y-56402266D01*
X108616857Y-56545123D01*
X108521619Y-56640361D01*
X108378761Y-56687980D01*
X108283523Y-56687980D01*
X109664476Y-56687980D02*
X109093047Y-56687980D01*
X109378761Y-56687980D02*
X109378761Y-55687980D01*
X109283523Y-55830838D01*
X109188285Y-55926076D01*
X109093047Y-55973695D01*
X110521619Y-56021314D02*
X110521619Y-56687980D01*
X110283523Y-55640361D02*
X110045428Y-56354647D01*
X110664476Y-56354647D01*
X130733266Y-84845980D02*
X130733266Y-85560266D01*
X130685647Y-85703123D01*
X130590409Y-85798361D01*
X130447552Y-85845980D01*
X130352314Y-85845980D01*
X131352314Y-85274552D02*
X131257076Y-85226933D01*
X131209457Y-85179314D01*
X131161838Y-85084076D01*
X131161838Y-85036457D01*
X131209457Y-84941219D01*
X131257076Y-84893600D01*
X131352314Y-84845980D01*
X131542790Y-84845980D01*
X131638028Y-84893600D01*
X131685647Y-84941219D01*
X131733266Y-85036457D01*
X131733266Y-85084076D01*
X131685647Y-85179314D01*
X131638028Y-85226933D01*
X131542790Y-85274552D01*
X131352314Y-85274552D01*
X131257076Y-85322171D01*
X131209457Y-85369790D01*
X131161838Y-85465028D01*
X131161838Y-85655504D01*
X131209457Y-85750742D01*
X131257076Y-85798361D01*
X131352314Y-85845980D01*
X131542790Y-85845980D01*
X131638028Y-85798361D01*
X131685647Y-85750742D01*
X131733266Y-85655504D01*
X131733266Y-85465028D01*
X131685647Y-85369790D01*
X131638028Y-85322171D01*
X131542790Y-85274552D01*
D11*
X131710204Y-60764680D02*
X131710204Y-59764680D01*
X131948300Y-59764680D01*
X132091157Y-59812300D01*
X132186395Y-59907538D01*
X132234014Y-60002776D01*
X132281633Y-60193252D01*
X132281633Y-60336109D01*
X132234014Y-60526585D01*
X132186395Y-60621823D01*
X132091157Y-60717061D01*
X131948300Y-60764680D01*
X131710204Y-60764680D01*
X133234014Y-60764680D02*
X132662585Y-60764680D01*
X132948300Y-60764680D02*
X132948300Y-59764680D01*
X132853061Y-59907538D01*
X132757823Y-60002776D01*
X132662585Y-60050395D01*
D13*
X112230111Y-65555671D02*
X112206301Y-65579480D01*
X112134873Y-65603290D01*
X112087254Y-65603290D01*
X112015825Y-65579480D01*
X111968206Y-65531861D01*
X111944397Y-65484242D01*
X111920587Y-65389004D01*
X111920587Y-65317576D01*
X111944397Y-65222338D01*
X111968206Y-65174719D01*
X112015825Y-65127100D01*
X112087254Y-65103290D01*
X112134873Y-65103290D01*
X112206301Y-65127100D01*
X112230111Y-65150909D01*
X112396778Y-65103290D02*
X112706301Y-65103290D01*
X112539635Y-65293766D01*
X112611063Y-65293766D01*
X112658682Y-65317576D01*
X112682492Y-65341385D01*
X112706301Y-65389004D01*
X112706301Y-65508052D01*
X112682492Y-65555671D01*
X112658682Y-65579480D01*
X112611063Y-65603290D01*
X112468206Y-65603290D01*
X112420587Y-65579480D01*
X112396778Y-65555671D01*
X112992016Y-65317576D02*
X112944397Y-65293766D01*
X112920587Y-65269957D01*
X112896778Y-65222338D01*
X112896778Y-65198528D01*
X112920587Y-65150909D01*
X112944397Y-65127100D01*
X112992016Y-65103290D01*
X113087254Y-65103290D01*
X113134873Y-65127100D01*
X113158682Y-65150909D01*
X113182492Y-65198528D01*
X113182492Y-65222338D01*
X113158682Y-65269957D01*
X113134873Y-65293766D01*
X113087254Y-65317576D01*
X112992016Y-65317576D01*
X112944397Y-65341385D01*
X112920587Y-65365195D01*
X112896778Y-65412814D01*
X112896778Y-65508052D01*
X112920587Y-65555671D01*
X112944397Y-65579480D01*
X112992016Y-65603290D01*
X113087254Y-65603290D01*
X113134873Y-65579480D01*
X113158682Y-65555671D01*
X113182492Y-65508052D01*
X113182492Y-65412814D01*
X113158682Y-65365195D01*
X113134873Y-65341385D01*
X113087254Y-65317576D01*
X112225751Y-59711131D02*
X112201941Y-59734940D01*
X112130513Y-59758750D01*
X112082894Y-59758750D01*
X112011465Y-59734940D01*
X111963846Y-59687321D01*
X111940037Y-59639702D01*
X111916227Y-59544464D01*
X111916227Y-59473036D01*
X111940037Y-59377798D01*
X111963846Y-59330179D01*
X112011465Y-59282560D01*
X112082894Y-59258750D01*
X112130513Y-59258750D01*
X112201941Y-59282560D01*
X112225751Y-59306369D01*
X112392418Y-59258750D02*
X112701941Y-59258750D01*
X112535275Y-59449226D01*
X112606703Y-59449226D01*
X112654322Y-59473036D01*
X112678132Y-59496845D01*
X112701941Y-59544464D01*
X112701941Y-59663512D01*
X112678132Y-59711131D01*
X112654322Y-59734940D01*
X112606703Y-59758750D01*
X112463846Y-59758750D01*
X112416227Y-59734940D01*
X112392418Y-59711131D01*
X112868608Y-59258750D02*
X113201941Y-59258750D01*
X112987656Y-59758750D01*
D16*
X125265571Y-63333271D02*
X125221761Y-63377080D01*
X125090333Y-63420890D01*
X125002714Y-63420890D01*
X124871285Y-63377080D01*
X124783666Y-63289461D01*
X124739857Y-63201842D01*
X124696047Y-63026604D01*
X124696047Y-62895176D01*
X124739857Y-62719938D01*
X124783666Y-62632319D01*
X124871285Y-62544700D01*
X125002714Y-62500890D01*
X125090333Y-62500890D01*
X125221761Y-62544700D01*
X125265571Y-62588509D01*
X125572238Y-62500890D02*
X126141761Y-62500890D01*
X125835095Y-62851366D01*
X125966523Y-62851366D01*
X126054142Y-62895176D01*
X126097952Y-62938985D01*
X126141761Y-63026604D01*
X126141761Y-63245652D01*
X126097952Y-63333271D01*
X126054142Y-63377080D01*
X125966523Y-63420890D01*
X125703666Y-63420890D01*
X125616047Y-63377080D01*
X125572238Y-63333271D01*
X126930333Y-62500890D02*
X126755095Y-62500890D01*
X126667476Y-62544700D01*
X126623666Y-62588509D01*
X126536047Y-62719938D01*
X126492238Y-62895176D01*
X126492238Y-63245652D01*
X126536047Y-63333271D01*
X126579857Y-63377080D01*
X126667476Y-63420890D01*
X126842714Y-63420890D01*
X126930333Y-63377080D01*
X126974142Y-63333271D01*
X127017952Y-63245652D01*
X127017952Y-63026604D01*
X126974142Y-62938985D01*
X126930333Y-62895176D01*
X126842714Y-62851366D01*
X126667476Y-62851366D01*
X126579857Y-62895176D01*
X126536047Y-62938985D01*
X126492238Y-63026604D01*
D13*
X112230831Y-57950911D02*
X112207021Y-57974720D01*
X112135593Y-57998530D01*
X112087974Y-57998530D01*
X112016545Y-57974720D01*
X111968926Y-57927101D01*
X111945117Y-57879482D01*
X111921307Y-57784244D01*
X111921307Y-57712816D01*
X111945117Y-57617578D01*
X111968926Y-57569959D01*
X112016545Y-57522340D01*
X112087974Y-57498530D01*
X112135593Y-57498530D01*
X112207021Y-57522340D01*
X112230831Y-57546149D01*
X112397498Y-57498530D02*
X112707021Y-57498530D01*
X112540355Y-57689006D01*
X112611783Y-57689006D01*
X112659402Y-57712816D01*
X112683212Y-57736625D01*
X112707021Y-57784244D01*
X112707021Y-57903292D01*
X112683212Y-57950911D01*
X112659402Y-57974720D01*
X112611783Y-57998530D01*
X112468926Y-57998530D01*
X112421307Y-57974720D01*
X112397498Y-57950911D01*
X113159402Y-57498530D02*
X112921307Y-57498530D01*
X112897498Y-57736625D01*
X112921307Y-57712816D01*
X112968926Y-57689006D01*
X113087974Y-57689006D01*
X113135593Y-57712816D01*
X113159402Y-57736625D01*
X113183212Y-57784244D01*
X113183212Y-57903292D01*
X113159402Y-57950911D01*
X113135593Y-57974720D01*
X113087974Y-57998530D01*
X112968926Y-57998530D01*
X112921307Y-57974720D01*
X112897498Y-57950911D01*
X112240271Y-56231331D02*
X112216461Y-56255140D01*
X112145033Y-56278950D01*
X112097414Y-56278950D01*
X112025985Y-56255140D01*
X111978366Y-56207521D01*
X111954557Y-56159902D01*
X111930747Y-56064664D01*
X111930747Y-55993236D01*
X111954557Y-55897998D01*
X111978366Y-55850379D01*
X112025985Y-55802760D01*
X112097414Y-55778950D01*
X112145033Y-55778950D01*
X112216461Y-55802760D01*
X112240271Y-55826569D01*
X112406938Y-55778950D02*
X112716461Y-55778950D01*
X112549795Y-55969426D01*
X112621223Y-55969426D01*
X112668842Y-55993236D01*
X112692652Y-56017045D01*
X112716461Y-56064664D01*
X112716461Y-56183712D01*
X112692652Y-56231331D01*
X112668842Y-56255140D01*
X112621223Y-56278950D01*
X112478366Y-56278950D01*
X112430747Y-56255140D01*
X112406938Y-56231331D01*
X113145033Y-55945617D02*
X113145033Y-56278950D01*
X113025985Y-55755140D02*
X112906938Y-56112283D01*
X113216461Y-56112283D01*
X119782471Y-67425071D02*
X119758661Y-67448880D01*
X119687233Y-67472690D01*
X119639614Y-67472690D01*
X119568185Y-67448880D01*
X119520566Y-67401261D01*
X119496757Y-67353642D01*
X119472947Y-67258404D01*
X119472947Y-67186976D01*
X119496757Y-67091738D01*
X119520566Y-67044119D01*
X119568185Y-66996500D01*
X119639614Y-66972690D01*
X119687233Y-66972690D01*
X119758661Y-66996500D01*
X119782471Y-67020309D01*
X119949138Y-66972690D02*
X120258661Y-66972690D01*
X120091995Y-67163166D01*
X120163423Y-67163166D01*
X120211042Y-67186976D01*
X120234852Y-67210785D01*
X120258661Y-67258404D01*
X120258661Y-67377452D01*
X120234852Y-67425071D01*
X120211042Y-67448880D01*
X120163423Y-67472690D01*
X120020566Y-67472690D01*
X119972947Y-67448880D01*
X119949138Y-67425071D01*
X120425328Y-66972690D02*
X120734852Y-66972690D01*
X120568185Y-67163166D01*
X120639614Y-67163166D01*
X120687233Y-67186976D01*
X120711042Y-67210785D01*
X120734852Y-67258404D01*
X120734852Y-67377452D01*
X120711042Y-67425071D01*
X120687233Y-67448880D01*
X120639614Y-67472690D01*
X120496757Y-67472690D01*
X120449138Y-67448880D01*
X120425328Y-67425071D01*
X127496071Y-56290328D02*
X127519880Y-56314138D01*
X127543690Y-56385566D01*
X127543690Y-56433185D01*
X127519880Y-56504614D01*
X127472261Y-56552233D01*
X127424642Y-56576042D01*
X127329404Y-56599852D01*
X127257976Y-56599852D01*
X127162738Y-56576042D01*
X127115119Y-56552233D01*
X127067500Y-56504614D01*
X127043690Y-56433185D01*
X127043690Y-56385566D01*
X127067500Y-56314138D01*
X127091309Y-56290328D01*
X127043690Y-56123661D02*
X127043690Y-55814138D01*
X127234166Y-55980804D01*
X127234166Y-55909376D01*
X127257976Y-55861757D01*
X127281785Y-55837947D01*
X127329404Y-55814138D01*
X127448452Y-55814138D01*
X127496071Y-55837947D01*
X127519880Y-55861757D01*
X127543690Y-55909376D01*
X127543690Y-56052233D01*
X127519880Y-56099852D01*
X127496071Y-56123661D01*
X127091309Y-55623661D02*
X127067500Y-55599852D01*
X127043690Y-55552233D01*
X127043690Y-55433185D01*
X127067500Y-55385566D01*
X127091309Y-55361757D01*
X127138928Y-55337947D01*
X127186547Y-55337947D01*
X127257976Y-55361757D01*
X127543690Y-55647471D01*
X127543690Y-55337947D01*
X112232651Y-61811711D02*
X112208841Y-61835520D01*
X112137413Y-61859330D01*
X112089794Y-61859330D01*
X112018365Y-61835520D01*
X111970746Y-61787901D01*
X111946937Y-61740282D01*
X111923127Y-61645044D01*
X111923127Y-61573616D01*
X111946937Y-61478378D01*
X111970746Y-61430759D01*
X112018365Y-61383140D01*
X112089794Y-61359330D01*
X112137413Y-61359330D01*
X112208841Y-61383140D01*
X112232651Y-61406949D01*
X112399318Y-61359330D02*
X112708841Y-61359330D01*
X112542175Y-61549806D01*
X112613603Y-61549806D01*
X112661222Y-61573616D01*
X112685032Y-61597425D01*
X112708841Y-61645044D01*
X112708841Y-61764092D01*
X112685032Y-61811711D01*
X112661222Y-61835520D01*
X112613603Y-61859330D01*
X112470746Y-61859330D01*
X112423127Y-61835520D01*
X112399318Y-61811711D01*
X113185032Y-61859330D02*
X112899318Y-61859330D01*
X113042175Y-61859330D02*
X113042175Y-61359330D01*
X112994556Y-61430759D01*
X112946937Y-61478378D01*
X112899318Y-61502187D01*
X127483371Y-57966728D02*
X127507180Y-57990538D01*
X127530990Y-58061966D01*
X127530990Y-58109585D01*
X127507180Y-58181014D01*
X127459561Y-58228633D01*
X127411942Y-58252442D01*
X127316704Y-58276252D01*
X127245276Y-58276252D01*
X127150038Y-58252442D01*
X127102419Y-58228633D01*
X127054800Y-58181014D01*
X127030990Y-58109585D01*
X127030990Y-58061966D01*
X127054800Y-57990538D01*
X127078609Y-57966728D01*
X127030990Y-57800061D02*
X127030990Y-57490538D01*
X127221466Y-57657204D01*
X127221466Y-57585776D01*
X127245276Y-57538157D01*
X127269085Y-57514347D01*
X127316704Y-57490538D01*
X127435752Y-57490538D01*
X127483371Y-57514347D01*
X127507180Y-57538157D01*
X127530990Y-57585776D01*
X127530990Y-57728633D01*
X127507180Y-57776252D01*
X127483371Y-57800061D01*
X127030990Y-57181014D02*
X127030990Y-57133395D01*
X127054800Y-57085776D01*
X127078609Y-57061966D01*
X127126228Y-57038157D01*
X127221466Y-57014347D01*
X127340514Y-57014347D01*
X127435752Y-57038157D01*
X127483371Y-57061966D01*
X127507180Y-57085776D01*
X127530990Y-57133395D01*
X127530990Y-57181014D01*
X127507180Y-57228633D01*
X127483371Y-57252442D01*
X127435752Y-57276252D01*
X127340514Y-57300061D01*
X127221466Y-57300061D01*
X127126228Y-57276252D01*
X127078609Y-57252442D01*
X127054800Y-57228633D01*
X127030990Y-57181014D01*
X112230111Y-63696391D02*
X112206301Y-63720200D01*
X112134873Y-63744010D01*
X112087254Y-63744010D01*
X112015825Y-63720200D01*
X111968206Y-63672581D01*
X111944397Y-63624962D01*
X111920587Y-63529724D01*
X111920587Y-63458296D01*
X111944397Y-63363058D01*
X111968206Y-63315439D01*
X112015825Y-63267820D01*
X112087254Y-63244010D01*
X112134873Y-63244010D01*
X112206301Y-63267820D01*
X112230111Y-63291629D01*
X112420587Y-63291629D02*
X112444397Y-63267820D01*
X112492016Y-63244010D01*
X112611063Y-63244010D01*
X112658682Y-63267820D01*
X112682492Y-63291629D01*
X112706301Y-63339248D01*
X112706301Y-63386867D01*
X112682492Y-63458296D01*
X112396778Y-63744010D01*
X112706301Y-63744010D01*
X112992016Y-63458296D02*
X112944397Y-63434486D01*
X112920587Y-63410677D01*
X112896778Y-63363058D01*
X112896778Y-63339248D01*
X112920587Y-63291629D01*
X112944397Y-63267820D01*
X112992016Y-63244010D01*
X113087254Y-63244010D01*
X113134873Y-63267820D01*
X113158682Y-63291629D01*
X113182492Y-63339248D01*
X113182492Y-63363058D01*
X113158682Y-63410677D01*
X113134873Y-63434486D01*
X113087254Y-63458296D01*
X112992016Y-63458296D01*
X112944397Y-63482105D01*
X112920587Y-63505915D01*
X112896778Y-63553534D01*
X112896778Y-63648772D01*
X112920587Y-63696391D01*
X112944397Y-63720200D01*
X112992016Y-63744010D01*
X113087254Y-63744010D01*
X113134873Y-63720200D01*
X113158682Y-63696391D01*
X113182492Y-63648772D01*
X113182492Y-63553534D01*
X113158682Y-63505915D01*
X113134873Y-63482105D01*
X113087254Y-63458296D01*
X127242071Y-59478028D02*
X127265880Y-59501838D01*
X127289690Y-59573266D01*
X127289690Y-59620885D01*
X127265880Y-59692314D01*
X127218261Y-59739933D01*
X127170642Y-59763742D01*
X127075404Y-59787552D01*
X127003976Y-59787552D01*
X126908738Y-59763742D01*
X126861119Y-59739933D01*
X126813500Y-59692314D01*
X126789690Y-59620885D01*
X126789690Y-59573266D01*
X126813500Y-59501838D01*
X126837309Y-59478028D01*
X126837309Y-59287552D02*
X126813500Y-59263742D01*
X126789690Y-59216123D01*
X126789690Y-59097076D01*
X126813500Y-59049457D01*
X126837309Y-59025647D01*
X126884928Y-59001838D01*
X126932547Y-59001838D01*
X127003976Y-59025647D01*
X127289690Y-59311361D01*
X127289690Y-59001838D01*
X126789690Y-58835171D02*
X126789690Y-58501838D01*
X127289690Y-58716123D01*
X128735971Y-61633871D02*
X128712161Y-61657680D01*
X128640733Y-61681490D01*
X128593114Y-61681490D01*
X128521685Y-61657680D01*
X128474066Y-61610061D01*
X128450257Y-61562442D01*
X128426447Y-61467204D01*
X128426447Y-61395776D01*
X128450257Y-61300538D01*
X128474066Y-61252919D01*
X128521685Y-61205300D01*
X128593114Y-61181490D01*
X128640733Y-61181490D01*
X128712161Y-61205300D01*
X128735971Y-61229109D01*
X128926447Y-61229109D02*
X128950257Y-61205300D01*
X128997876Y-61181490D01*
X129116923Y-61181490D01*
X129164542Y-61205300D01*
X129188352Y-61229109D01*
X129212161Y-61276728D01*
X129212161Y-61324347D01*
X129188352Y-61395776D01*
X128902638Y-61681490D01*
X129212161Y-61681490D01*
X129640733Y-61181490D02*
X129545495Y-61181490D01*
X129497876Y-61205300D01*
X129474066Y-61229109D01*
X129426447Y-61300538D01*
X129402638Y-61395776D01*
X129402638Y-61586252D01*
X129426447Y-61633871D01*
X129450257Y-61657680D01*
X129497876Y-61681490D01*
X129593114Y-61681490D01*
X129640733Y-61657680D01*
X129664542Y-61633871D01*
X129688352Y-61586252D01*
X129688352Y-61467204D01*
X129664542Y-61419585D01*
X129640733Y-61395776D01*
X129593114Y-61371966D01*
X129497876Y-61371966D01*
X129450257Y-61395776D01*
X129426447Y-61419585D01*
X129402638Y-61467204D01*
X133274571Y-66209028D02*
X133298380Y-66232838D01*
X133322190Y-66304266D01*
X133322190Y-66351885D01*
X133298380Y-66423314D01*
X133250761Y-66470933D01*
X133203142Y-66494742D01*
X133107904Y-66518552D01*
X133036476Y-66518552D01*
X132941238Y-66494742D01*
X132893619Y-66470933D01*
X132846000Y-66423314D01*
X132822190Y-66351885D01*
X132822190Y-66304266D01*
X132846000Y-66232838D01*
X132869809Y-66209028D01*
X132869809Y-66018552D02*
X132846000Y-65994742D01*
X132822190Y-65947123D01*
X132822190Y-65828076D01*
X132846000Y-65780457D01*
X132869809Y-65756647D01*
X132917428Y-65732838D01*
X132965047Y-65732838D01*
X133036476Y-65756647D01*
X133322190Y-66042361D01*
X133322190Y-65732838D01*
X132822190Y-65280457D02*
X132822190Y-65518552D01*
X133060285Y-65542361D01*
X133036476Y-65518552D01*
X133012666Y-65470933D01*
X133012666Y-65351885D01*
X133036476Y-65304266D01*
X133060285Y-65280457D01*
X133107904Y-65256647D01*
X133226952Y-65256647D01*
X133274571Y-65280457D01*
X133298380Y-65304266D01*
X133322190Y-65351885D01*
X133322190Y-65470933D01*
X133298380Y-65518552D01*
X133274571Y-65542361D01*
X129845571Y-73244828D02*
X129869380Y-73268638D01*
X129893190Y-73340066D01*
X129893190Y-73387685D01*
X129869380Y-73459114D01*
X129821761Y-73506733D01*
X129774142Y-73530542D01*
X129678904Y-73554352D01*
X129607476Y-73554352D01*
X129512238Y-73530542D01*
X129464619Y-73506733D01*
X129417000Y-73459114D01*
X129393190Y-73387685D01*
X129393190Y-73340066D01*
X129417000Y-73268638D01*
X129440809Y-73244828D01*
X129440809Y-73054352D02*
X129417000Y-73030542D01*
X129393190Y-72982923D01*
X129393190Y-72863876D01*
X129417000Y-72816257D01*
X129440809Y-72792447D01*
X129488428Y-72768638D01*
X129536047Y-72768638D01*
X129607476Y-72792447D01*
X129893190Y-73078161D01*
X129893190Y-72768638D01*
X129893190Y-72292447D02*
X129893190Y-72578161D01*
X129893190Y-72435304D02*
X129393190Y-72435304D01*
X129464619Y-72482923D01*
X129512238Y-72530542D01*
X129536047Y-72578161D01*
X131775971Y-73244828D02*
X131799780Y-73268638D01*
X131823590Y-73340066D01*
X131823590Y-73387685D01*
X131799780Y-73459114D01*
X131752161Y-73506733D01*
X131704542Y-73530542D01*
X131609304Y-73554352D01*
X131537876Y-73554352D01*
X131442638Y-73530542D01*
X131395019Y-73506733D01*
X131347400Y-73459114D01*
X131323590Y-73387685D01*
X131323590Y-73340066D01*
X131347400Y-73268638D01*
X131371209Y-73244828D01*
X131371209Y-73054352D02*
X131347400Y-73030542D01*
X131323590Y-72982923D01*
X131323590Y-72863876D01*
X131347400Y-72816257D01*
X131371209Y-72792447D01*
X131418828Y-72768638D01*
X131466447Y-72768638D01*
X131537876Y-72792447D01*
X131823590Y-73078161D01*
X131823590Y-72768638D01*
X131323590Y-72459114D02*
X131323590Y-72411495D01*
X131347400Y-72363876D01*
X131371209Y-72340066D01*
X131418828Y-72316257D01*
X131514066Y-72292447D01*
X131633114Y-72292447D01*
X131728352Y-72316257D01*
X131775971Y-72340066D01*
X131799780Y-72363876D01*
X131823590Y-72411495D01*
X131823590Y-72459114D01*
X131799780Y-72506733D01*
X131775971Y-72530542D01*
X131728352Y-72554352D01*
X131633114Y-72578161D01*
X131514066Y-72578161D01*
X131418828Y-72554352D01*
X131371209Y-72530542D01*
X131347400Y-72506733D01*
X131323590Y-72459114D01*
X133401571Y-75632428D02*
X133425380Y-75656238D01*
X133449190Y-75727666D01*
X133449190Y-75775285D01*
X133425380Y-75846714D01*
X133377761Y-75894333D01*
X133330142Y-75918142D01*
X133234904Y-75941952D01*
X133163476Y-75941952D01*
X133068238Y-75918142D01*
X133020619Y-75894333D01*
X132973000Y-75846714D01*
X132949190Y-75775285D01*
X132949190Y-75727666D01*
X132973000Y-75656238D01*
X132996809Y-75632428D01*
X133449190Y-75156238D02*
X133449190Y-75441952D01*
X133449190Y-75299095D02*
X132949190Y-75299095D01*
X133020619Y-75346714D01*
X133068238Y-75394333D01*
X133092047Y-75441952D01*
X133449190Y-74918142D02*
X133449190Y-74822904D01*
X133425380Y-74775285D01*
X133401571Y-74751476D01*
X133330142Y-74703857D01*
X133234904Y-74680047D01*
X133044428Y-74680047D01*
X132996809Y-74703857D01*
X132973000Y-74727666D01*
X132949190Y-74775285D01*
X132949190Y-74870523D01*
X132973000Y-74918142D01*
X132996809Y-74941952D01*
X133044428Y-74965761D01*
X133163476Y-74965761D01*
X133211095Y-74941952D01*
X133234904Y-74918142D01*
X133258714Y-74870523D01*
X133258714Y-74775285D01*
X133234904Y-74727666D01*
X133211095Y-74703857D01*
X133163476Y-74680047D01*
X126259471Y-73152771D02*
X126235661Y-73176580D01*
X126164233Y-73200390D01*
X126116614Y-73200390D01*
X126045185Y-73176580D01*
X125997566Y-73128961D01*
X125973757Y-73081342D01*
X125949947Y-72986104D01*
X125949947Y-72914676D01*
X125973757Y-72819438D01*
X125997566Y-72771819D01*
X126045185Y-72724200D01*
X126116614Y-72700390D01*
X126164233Y-72700390D01*
X126235661Y-72724200D01*
X126259471Y-72748009D01*
X126735661Y-73200390D02*
X126449947Y-73200390D01*
X126592804Y-73200390D02*
X126592804Y-72700390D01*
X126545185Y-72771819D01*
X126497566Y-72819438D01*
X126449947Y-72843247D01*
X126902328Y-72700390D02*
X127211852Y-72700390D01*
X127045185Y-72890866D01*
X127116614Y-72890866D01*
X127164233Y-72914676D01*
X127188042Y-72938485D01*
X127211852Y-72986104D01*
X127211852Y-73105152D01*
X127188042Y-73152771D01*
X127164233Y-73176580D01*
X127116614Y-73200390D01*
X126973757Y-73200390D01*
X126926138Y-73176580D01*
X126902328Y-73152771D01*
X128313666Y-73178171D02*
X128289857Y-73201980D01*
X128218428Y-73225790D01*
X128170809Y-73225790D01*
X128099380Y-73201980D01*
X128051761Y-73154361D01*
X128027952Y-73106742D01*
X128004142Y-73011504D01*
X128004142Y-72940076D01*
X128027952Y-72844838D01*
X128051761Y-72797219D01*
X128099380Y-72749600D01*
X128170809Y-72725790D01*
X128218428Y-72725790D01*
X128289857Y-72749600D01*
X128313666Y-72773409D01*
X128480333Y-72725790D02*
X128813666Y-72725790D01*
X128599380Y-73225790D01*
D12*
X135848766Y-57135780D02*
X135848766Y-57850066D01*
X135801147Y-57992923D01*
X135705909Y-58088161D01*
X135563052Y-58135780D01*
X135467814Y-58135780D01*
X136372576Y-58135780D02*
X136563052Y-58135780D01*
X136658290Y-58088161D01*
X136705909Y-58040542D01*
X136801147Y-57897685D01*
X136848766Y-57707209D01*
X136848766Y-57326257D01*
X136801147Y-57231019D01*
X136753528Y-57183400D01*
X136658290Y-57135780D01*
X136467814Y-57135780D01*
X136372576Y-57183400D01*
X136324957Y-57231019D01*
X136277338Y-57326257D01*
X136277338Y-57564352D01*
X136324957Y-57659590D01*
X136372576Y-57707209D01*
X136467814Y-57754828D01*
X136658290Y-57754828D01*
X136753528Y-57707209D01*
X136801147Y-57659590D01*
X136848766Y-57564352D01*
X102309766Y-54326280D02*
X102309766Y-55040566D01*
X102262147Y-55183423D01*
X102166909Y-55278661D01*
X102024052Y-55326280D01*
X101928814Y-55326280D01*
X102690719Y-54326280D02*
X103357385Y-54326280D01*
X102928814Y-55326280D01*
X104031766Y-64776280D02*
X104031766Y-65490566D01*
X103984147Y-65633423D01*
X103888909Y-65728661D01*
X103746052Y-65776280D01*
X103650814Y-65776280D01*
X104936528Y-64776280D02*
X104746052Y-64776280D01*
X104650814Y-64823900D01*
X104603195Y-64871519D01*
X104507957Y-65014376D01*
X104460338Y-65204852D01*
X104460338Y-65585804D01*
X104507957Y-65681042D01*
X104555576Y-65728661D01*
X104650814Y-65776280D01*
X104841290Y-65776280D01*
X104936528Y-65728661D01*
X104984147Y-65681042D01*
X105031766Y-65585804D01*
X105031766Y-65347709D01*
X104984147Y-65252471D01*
X104936528Y-65204852D01*
X104841290Y-65157233D01*
X104650814Y-65157233D01*
X104555576Y-65204852D01*
X104507957Y-65252471D01*
X104460338Y-65347709D01*
X101495266Y-74102980D02*
X101495266Y-74817266D01*
X101447647Y-74960123D01*
X101352409Y-75055361D01*
X101209552Y-75102980D01*
X101114314Y-75102980D01*
X102447647Y-74102980D02*
X101971457Y-74102980D01*
X101923838Y-74579171D01*
X101971457Y-74531552D01*
X102066695Y-74483933D01*
X102304790Y-74483933D01*
X102400028Y-74531552D01*
X102447647Y-74579171D01*
X102495266Y-74674409D01*
X102495266Y-74912504D01*
X102447647Y-75007742D01*
X102400028Y-75055361D01*
X102304790Y-75102980D01*
X102066695Y-75102980D01*
X101971457Y-75055361D01*
X101923838Y-75007742D01*
X102309766Y-63676280D02*
X102309766Y-64390566D01*
X102262147Y-64533423D01*
X102166909Y-64628661D01*
X102024052Y-64676280D01*
X101928814Y-64676280D01*
X103214528Y-64009614D02*
X103214528Y-64676280D01*
X102976433Y-63628661D02*
X102738338Y-64342947D01*
X103357385Y-64342947D01*
M02*
