G04 #@! TF.GenerationSoftware,KiCad,Pcbnew,(5.1.0)-1*
G04 #@! TF.CreationDate,2019-07-24T02:43:26-07:00*
G04 #@! TF.ProjectId,SDCard-PCB,53444361-7264-42d5-9043-422e6b696361,rev?*
G04 #@! TF.SameCoordinates,Original*
G04 #@! TF.FileFunction,Copper,L6,Bot*
G04 #@! TF.FilePolarity,Positive*
%FSLAX46Y46*%
G04 Gerber Fmt 4.6, Leading zero omitted, Abs format (unit mm)*
G04 Created by KiCad (PCBNEW (5.1.0)-1) date 2019-07-24 02:43:26*
%MOMM*%
%LPD*%
G04 APERTURE LIST*
%ADD10R,1.000000X1.000000*%
%ADD11R,1.700000X1.700000*%
%ADD12O,1.000000X1.000000*%
%ADD13R,0.800000X2.900000*%
%ADD14C,0.450000*%
%ADD15C,0.152400*%
G04 APERTURE END LIST*
D10*
X132753100Y-70205600D03*
X128282700Y-70205600D03*
X125082300Y-84518500D03*
X121856500Y-84518500D03*
X119316500Y-84518500D03*
X111582200Y-68122800D03*
X115455700Y-84543900D03*
X112928400Y-84556600D03*
X106934000Y-54584600D03*
D11*
X103238300Y-83563100D03*
X103238300Y-79413100D03*
D12*
X134955280Y-55298340D03*
X133685280Y-55298340D03*
X132415280Y-55298340D03*
X131145280Y-55298340D03*
D10*
X129875280Y-55298340D03*
D13*
X115000000Y-49600000D03*
X116100000Y-49600000D03*
X117200000Y-49600000D03*
X118300000Y-49600000D03*
X119400000Y-49600000D03*
X120500000Y-49600000D03*
X121600000Y-49600000D03*
X122700000Y-49600000D03*
D11*
X103093100Y-57513900D03*
X103035100Y-67823900D03*
X103043100Y-71973900D03*
X103093100Y-61713900D03*
D14*
X117205760Y-51635660D03*
X110909100Y-56822340D03*
X110970060Y-62565280D03*
X130558540Y-72006460D03*
X127492760Y-73784460D03*
X131977180Y-74692460D03*
X132405120Y-80307180D03*
X130479800Y-62217300D03*
X131457700Y-65275460D03*
X128991360Y-58930540D03*
X126682500Y-62638940D03*
X120103850Y-59283650D03*
X118498620Y-59291220D03*
X120903800Y-60883600D03*
X127368300Y-57658000D03*
X116340000Y-77890000D03*
X118284600Y-78755600D03*
X121557300Y-71249900D03*
X121640600Y-75311000D03*
X121043700Y-76936600D03*
X121640600Y-73431400D03*
X109664500Y-75184000D03*
X109639100Y-77558900D03*
X111175800Y-79375000D03*
X120980200Y-67144900D03*
X116497100Y-64058800D03*
X114206020Y-62567820D03*
X130959860Y-73855580D03*
X119303800Y-60083700D03*
X122501660Y-60888880D03*
X120098820Y-61681360D03*
X121700000Y-59280000D03*
X123780000Y-57550000D03*
X118277300Y-69989900D03*
X121043700Y-77711300D03*
X111620300Y-77558900D03*
X111569500Y-74396600D03*
X111582200Y-76403200D03*
X121081800Y-74409300D03*
X111988600Y-71920100D03*
X107111800Y-71996300D03*
X106095800Y-68592700D03*
X117703600Y-57683400D03*
X130317240Y-73855580D03*
X115735100Y-78625700D03*
X115277900Y-79565500D03*
X117710000Y-60880000D03*
X118290000Y-63780000D03*
X114239040Y-56822340D03*
X125036580Y-62661800D03*
X118506240Y-60883800D03*
X121701560Y-61681360D03*
X119300000Y-58480110D03*
X117319900Y-66268600D03*
X124307600Y-66268600D03*
X106908600Y-58089800D03*
X116903500Y-57683400D03*
X116903504Y-60883800D03*
X105270300Y-60858400D03*
X122500000Y-56890000D03*
X116900002Y-78880000D03*
X116900000Y-62470000D03*
X117710000Y-79490000D03*
X117710000Y-61690000D03*
X120110000Y-56890000D03*
X120510000Y-80750000D03*
X118740000Y-81510000D03*
X119310000Y-57689890D03*
X125745240Y-76527660D03*
X127502920Y-74676000D03*
X130561080Y-76560680D03*
X131966200Y-75752460D03*
X123840000Y-67570000D03*
X123840000Y-59290000D03*
X120904000Y-57683400D03*
X122110500Y-79984600D03*
X115006120Y-54823360D03*
X115026440Y-57691020D03*
X121592340Y-51765200D03*
X122699780Y-51798220D03*
X120500000Y-54300000D03*
X110230000Y-54950000D03*
X110230000Y-56100000D03*
X119310000Y-56090000D03*
X113020000Y-65760000D03*
X116100000Y-56880000D03*
X114220000Y-58710000D03*
X116900000Y-58480000D03*
X117310000Y-64720000D03*
X117700000Y-60080000D03*
X115520000Y-67640000D03*
X114750000Y-59680000D03*
X118506240Y-54922420D03*
X116611400Y-53632100D03*
X120497600Y-51694080D03*
D15*
X117200000Y-49600000D02*
X117200000Y-51629900D01*
X117200000Y-51629900D02*
X117205760Y-51635660D01*
X132753100Y-72059800D02*
X132753100Y-70205600D01*
X132537200Y-72275700D02*
X132753100Y-72059800D01*
X130959860Y-73855580D02*
X132537200Y-72278240D01*
X132537200Y-72278240D02*
X132537200Y-72275700D01*
X128320800Y-71859140D02*
X130317240Y-73855580D01*
X128282700Y-70205600D02*
X128282700Y-71821040D01*
X128282700Y-71821040D02*
X128320800Y-71859140D01*
X117710000Y-60880000D02*
X118290000Y-61460000D01*
X118290000Y-61460000D02*
X118290000Y-63780000D01*
X116900000Y-62470000D02*
X116900000Y-78879998D01*
X116900000Y-78879998D02*
X116900002Y-78880000D01*
X113580800Y-84556600D02*
X112928400Y-84556600D01*
X116900002Y-81237398D02*
X113580800Y-84556600D01*
X116900002Y-78880000D02*
X116900002Y-81237398D01*
X117710000Y-61690000D02*
X117710000Y-79490000D01*
X116108100Y-84543900D02*
X115455700Y-84543900D01*
X117710000Y-82942000D02*
X116108100Y-84543900D01*
X117710000Y-79490000D02*
X117710000Y-82942000D01*
X120510000Y-80431802D02*
X120510000Y-80750000D01*
X120110000Y-56890000D02*
X120510000Y-57290000D01*
X120510000Y-57290000D02*
X120510000Y-80431802D01*
X121204100Y-84518500D02*
X121856500Y-84518500D01*
X120510000Y-83824400D02*
X121204100Y-84518500D01*
X120510000Y-80750000D02*
X120510000Y-83824400D01*
X119085001Y-57914889D02*
X119310000Y-57689890D01*
X118896341Y-58103549D02*
X119085001Y-57914889D01*
X118740000Y-81510000D02*
X118896341Y-81353659D01*
X118896341Y-81353659D02*
X118896341Y-58103549D01*
X118740000Y-83942000D02*
X119316500Y-84518500D01*
X118740000Y-81510000D02*
X118740000Y-83942000D01*
X123840000Y-67570000D02*
X123840000Y-59290000D01*
X122110500Y-58889900D02*
X122110500Y-79666402D01*
X120904000Y-57683400D02*
X122110500Y-58889900D01*
X122110500Y-79666402D02*
X122110500Y-79984600D01*
X125082300Y-82956400D02*
X125082300Y-84518500D01*
X122110500Y-79984600D02*
X125082300Y-82956400D01*
X115006120Y-49606120D02*
X115000000Y-49600000D01*
X115006120Y-54823360D02*
X115006120Y-49606120D01*
X116090000Y-49610000D02*
X116100000Y-49600000D01*
X116100000Y-51202400D02*
X116100000Y-49600000D01*
X116100000Y-54306830D02*
X116100000Y-51202400D01*
X115026440Y-55380390D02*
X116100000Y-54306830D01*
X115026440Y-57691020D02*
X115026440Y-55380390D01*
X121590000Y-49610000D02*
X121600000Y-49600000D01*
X121592340Y-49607660D02*
X121600000Y-49600000D01*
X121592340Y-51765200D02*
X121592340Y-49607660D01*
X122699780Y-49600220D02*
X122700000Y-49600000D01*
X122699780Y-51798220D02*
X122699780Y-49600220D01*
X116100000Y-57407350D02*
X116100000Y-56880000D01*
X113020000Y-65760000D02*
X113020000Y-60487350D01*
X113020000Y-60487350D02*
X116100000Y-57407350D01*
X117310000Y-60470000D02*
X117700000Y-60080000D01*
X117310000Y-64720000D02*
X117310000Y-60470000D01*
X115520000Y-67640000D02*
X115520000Y-60450000D01*
X115520000Y-60450000D02*
X114750000Y-59680000D01*
X115037200Y-68122800D02*
X115520000Y-67640000D01*
X111582200Y-68122800D02*
X115037200Y-68122800D01*
X118506240Y-49806240D02*
X118300000Y-49600000D01*
X118506240Y-53634640D02*
X118506240Y-49806240D01*
X118506240Y-54922420D02*
X118506240Y-53634640D01*
X117665500Y-53632100D02*
X116611400Y-53632100D01*
X118503700Y-52793900D02*
X117665500Y-53632100D01*
X120497600Y-49602400D02*
X120500000Y-49600000D01*
X120497600Y-51694080D02*
X120497600Y-49602400D01*
M02*
