G04 #@! TF.GenerationSoftware,KiCad,Pcbnew,(5.1.0)-1*
G04 #@! TF.CreationDate,2019-08-27T17:01:11-07:00*
G04 #@! TF.ProjectId,SDCard-PCB,53444361-7264-42d5-9043-422e6b696361,rev?*
G04 #@! TF.SameCoordinates,Original*
G04 #@! TF.FileFunction,Legend,Top*
G04 #@! TF.FilePolarity,Positive*
%FSLAX46Y46*%
G04 Gerber Fmt 4.6, Leading zero omitted, Abs format (unit mm)*
G04 Created by KiCad (PCBNEW (5.1.0)-1) date 2019-08-27 17:01:11*
%MOMM*%
%LPD*%
G04 APERTURE LIST*
%ADD10C,0.120000*%
%ADD11C,0.100000*%
%ADD12C,0.150000*%
%ADD13C,0.050000*%
%ADD14C,0.200000*%
%ADD15C,0.110000*%
%ADD16C,0.090000*%
G04 APERTURE END LIST*
D10*
X133975800Y-53861660D02*
X135305800Y-53861660D01*
X133975800Y-55191660D02*
X133975800Y-53861660D01*
X133975800Y-56461660D02*
X136635800Y-56461660D01*
X136635800Y-56461660D02*
X136635800Y-66681660D01*
X133975800Y-56461660D02*
X133975800Y-66681660D01*
X133975800Y-66681660D02*
X136635800Y-66681660D01*
X133665920Y-84702960D02*
X133665920Y-83372960D01*
X134995920Y-84702960D02*
X133665920Y-84702960D01*
X136265920Y-84702960D02*
X136265920Y-82042960D01*
X136265920Y-82042960D02*
X136325920Y-82042960D01*
X136265920Y-84702960D02*
X136325920Y-84702960D01*
X136325920Y-84702960D02*
X136325920Y-82042960D01*
X133665920Y-80232560D02*
X133665920Y-78902560D01*
X134995920Y-80232560D02*
X133665920Y-80232560D01*
X136265920Y-80232560D02*
X136265920Y-77572560D01*
X136265920Y-77572560D02*
X136325920Y-77572560D01*
X136265920Y-80232560D02*
X136325920Y-80232560D01*
X136325920Y-80232560D02*
X136325920Y-77572560D01*
X125271220Y-85899300D02*
X125271220Y-84569300D01*
X126601220Y-85899300D02*
X125271220Y-85899300D01*
X127871220Y-85899300D02*
X127871220Y-83239300D01*
X127871220Y-83239300D02*
X127931220Y-83239300D01*
X127871220Y-85899300D02*
X127931220Y-85899300D01*
X127931220Y-85899300D02*
X127931220Y-83239300D01*
X121359620Y-85884060D02*
X121359620Y-84554060D01*
X122689620Y-85884060D02*
X121359620Y-85884060D01*
X123959620Y-85884060D02*
X123959620Y-83224060D01*
X123959620Y-83224060D02*
X124019620Y-83224060D01*
X123959620Y-85884060D02*
X124019620Y-85884060D01*
X124019620Y-85884060D02*
X124019620Y-83224060D01*
X117432780Y-85884060D02*
X117432780Y-84554060D01*
X118762780Y-85884060D02*
X117432780Y-85884060D01*
X120032780Y-85884060D02*
X120032780Y-83224060D01*
X120032780Y-83224060D02*
X120092780Y-83224060D01*
X120032780Y-85884060D02*
X120092780Y-85884060D01*
X120092780Y-85884060D02*
X120092780Y-83224060D01*
X110252200Y-69452800D02*
X110252200Y-68122800D01*
X111582200Y-69452800D02*
X110252200Y-69452800D01*
X112852200Y-69452800D02*
X112852200Y-66792800D01*
X112852200Y-66792800D02*
X112912200Y-66792800D01*
X112852200Y-69452800D02*
X112912200Y-69452800D01*
X112912200Y-69452800D02*
X112912200Y-66792800D01*
X113460220Y-85914540D02*
X113460220Y-84584540D01*
X114790220Y-85914540D02*
X113460220Y-85914540D01*
X116060220Y-85914540D02*
X116060220Y-83254540D01*
X116060220Y-83254540D02*
X116120220Y-83254540D01*
X116060220Y-85914540D02*
X116120220Y-85914540D01*
X116120220Y-85914540D02*
X116120220Y-83254540D01*
X109429240Y-85899300D02*
X109429240Y-84569300D01*
X110759240Y-85899300D02*
X109429240Y-85899300D01*
X112029240Y-85899300D02*
X112029240Y-83239300D01*
X112029240Y-83239300D02*
X112089240Y-83239300D01*
X112029240Y-85899300D02*
X112089240Y-85899300D01*
X112089240Y-85899300D02*
X112089240Y-83239300D01*
X105604000Y-53254600D02*
X106934000Y-53254600D01*
X105604000Y-54584600D02*
X105604000Y-53254600D01*
X105604000Y-55854600D02*
X108264000Y-55854600D01*
X108264000Y-55854600D02*
X108264000Y-55914600D01*
X105604000Y-55854600D02*
X105604000Y-55914600D01*
X105604000Y-55914600D02*
X108264000Y-55914600D01*
D11*
X126195220Y-74406560D02*
X126195220Y-73906560D01*
X126195220Y-74406560D02*
X125695220Y-74406560D01*
X122895220Y-71206560D02*
X123395220Y-71206560D01*
X122895220Y-71206560D02*
X122895220Y-71706560D01*
X122895220Y-74406560D02*
X123395220Y-74406560D01*
X126195220Y-71206560D02*
X126195220Y-71706560D01*
X122895220Y-74406560D02*
X122895220Y-73906560D01*
X126195220Y-71206560D02*
X125695220Y-71206560D01*
X126353100Y-78141820D02*
X128233100Y-78141820D01*
X126353100Y-75441820D02*
X128233100Y-75441820D01*
D10*
X104568300Y-82233100D02*
X104568300Y-83563100D01*
X103238300Y-82233100D02*
X104568300Y-82233100D01*
X101968300Y-82233100D02*
X101968300Y-84893100D01*
X101968300Y-84893100D02*
X101908300Y-84893100D01*
X101968300Y-82233100D02*
X101908300Y-82233100D01*
X101908300Y-82233100D02*
X101908300Y-84893100D01*
X104568300Y-78083100D02*
X104568300Y-79413100D01*
X103238300Y-78083100D02*
X104568300Y-78083100D01*
X101968300Y-78083100D02*
X101968300Y-80743100D01*
X101968300Y-80743100D02*
X101908300Y-80743100D01*
X101968300Y-78083100D02*
X101908300Y-78083100D01*
X101908300Y-78083100D02*
X101908300Y-80743100D01*
D11*
X121117420Y-65462880D02*
X121117420Y-65712880D01*
X122077420Y-65462880D02*
X122077420Y-65712880D01*
X112740000Y-77210000D02*
X112190000Y-77210000D01*
X112190000Y-77210000D02*
X112190000Y-76660000D01*
X116800000Y-77210000D02*
X117350000Y-77210000D01*
X117350000Y-77210000D02*
X117350000Y-76660000D01*
X116800000Y-72050000D02*
X117350000Y-72050000D01*
X117350000Y-72050000D02*
X117350000Y-72600000D01*
X112740000Y-72050000D02*
X112190000Y-72050000D01*
X112190000Y-72050000D02*
X112190000Y-72600000D01*
D12*
X127802640Y-63058040D02*
X127802640Y-64886840D01*
X129301240Y-63058040D02*
X127802640Y-63058040D01*
D11*
X114773800Y-63813600D02*
X117038800Y-63813600D01*
X114773800Y-61548600D02*
X114773800Y-63813600D01*
X114773800Y-54753600D02*
X117038800Y-54753600D01*
X114773800Y-57018600D02*
X114773800Y-54753600D01*
X123833800Y-54753600D02*
X121568800Y-54753600D01*
X123833800Y-57018600D02*
X123833800Y-54753600D01*
X123833800Y-63813600D02*
X121568800Y-63813600D01*
X123833800Y-61548600D02*
X123833800Y-63813600D01*
X129199060Y-82222060D02*
X130759060Y-82222060D01*
X129199060Y-80652060D02*
X130759060Y-80652060D01*
X130010460Y-60592880D02*
X130400460Y-60592880D01*
X130010460Y-59692880D02*
X130400460Y-59692880D01*
X112776540Y-63947100D02*
X112526540Y-63947100D01*
X112776540Y-64907100D02*
X112526540Y-64907100D01*
X112772180Y-58102560D02*
X112522180Y-58102560D01*
X112772180Y-59062560D02*
X112522180Y-59062560D01*
X125657080Y-62195940D02*
X126067080Y-62195940D01*
X125657080Y-60795940D02*
X126067080Y-60795940D01*
X112777260Y-56342340D02*
X112527260Y-56342340D01*
X112777260Y-57302340D02*
X112527260Y-57302340D01*
X112786700Y-54622760D02*
X112536700Y-54622760D01*
X112786700Y-55582760D02*
X112536700Y-55582760D01*
X119662000Y-65463600D02*
X119662000Y-65713600D01*
X120622000Y-65463600D02*
X120622000Y-65713600D01*
X125561820Y-56451440D02*
X125811820Y-56451440D01*
X125561820Y-55491440D02*
X125811820Y-55491440D01*
X112779080Y-60203140D02*
X112529080Y-60203140D01*
X112779080Y-61163140D02*
X112529080Y-61163140D01*
X125561820Y-58150700D02*
X125811820Y-58150700D01*
X125561820Y-57190700D02*
X125811820Y-57190700D01*
X112776540Y-62087820D02*
X112526540Y-62087820D01*
X112776540Y-63047820D02*
X112526540Y-63047820D01*
D10*
X101763100Y-58843900D02*
X101763100Y-57513900D01*
X103093100Y-58843900D02*
X101763100Y-58843900D01*
X104363100Y-58843900D02*
X104363100Y-56183900D01*
X104363100Y-56183900D02*
X104423100Y-56183900D01*
X104363100Y-58843900D02*
X104423100Y-58843900D01*
X104423100Y-58843900D02*
X104423100Y-56183900D01*
X104365100Y-66493900D02*
X104365100Y-67823900D01*
X103035100Y-66493900D02*
X104365100Y-66493900D01*
X101765100Y-66493900D02*
X101765100Y-69153900D01*
X101765100Y-69153900D02*
X101705100Y-69153900D01*
X101765100Y-66493900D02*
X101705100Y-66493900D01*
X101705100Y-66493900D02*
X101705100Y-69153900D01*
X104373100Y-70643900D02*
X104373100Y-71973900D01*
X103043100Y-70643900D02*
X104373100Y-70643900D01*
X101773100Y-70643900D02*
X101773100Y-73303900D01*
X101773100Y-73303900D02*
X101713100Y-73303900D01*
X101773100Y-70643900D02*
X101713100Y-70643900D01*
X101713100Y-70643900D02*
X101713100Y-73303900D01*
X101763100Y-63043900D02*
X101763100Y-61713900D01*
X103093100Y-63043900D02*
X101763100Y-63043900D01*
X104363100Y-63043900D02*
X104363100Y-60383900D01*
X104363100Y-60383900D02*
X104423100Y-60383900D01*
X104363100Y-63043900D02*
X104423100Y-63043900D01*
X104423100Y-63043900D02*
X104423100Y-60383900D01*
D12*
X127867160Y-76989416D02*
X128581446Y-76989416D01*
X128724303Y-77037035D01*
X128819541Y-77132273D01*
X128867160Y-77275130D01*
X128867160Y-77370368D01*
X128962399Y-76751320D02*
X128962399Y-75989416D01*
X128819541Y-75322749D02*
X128867160Y-75417987D01*
X128867160Y-75608463D01*
X128819541Y-75703701D01*
X128771922Y-75751320D01*
X128676684Y-75798940D01*
X128390970Y-75798940D01*
X128295732Y-75751320D01*
X128248113Y-75703701D01*
X128200494Y-75608463D01*
X128200494Y-75417987D01*
X128248113Y-75322749D01*
X128867160Y-74751320D02*
X128819541Y-74846559D01*
X128771922Y-74894178D01*
X128676684Y-74941797D01*
X128390970Y-74941797D01*
X128295732Y-74894178D01*
X128248113Y-74846559D01*
X128200494Y-74751320D01*
X128200494Y-74608463D01*
X128248113Y-74513225D01*
X128295732Y-74465606D01*
X128390970Y-74417987D01*
X128676684Y-74417987D01*
X128771922Y-74465606D01*
X128819541Y-74513225D01*
X128867160Y-74608463D01*
X128867160Y-74751320D01*
X128867160Y-73560844D02*
X128343351Y-73560844D01*
X128248113Y-73608463D01*
X128200494Y-73703701D01*
X128200494Y-73894178D01*
X128248113Y-73989416D01*
X128819541Y-73560844D02*
X128867160Y-73656082D01*
X128867160Y-73894178D01*
X128819541Y-73989416D01*
X128724303Y-74037035D01*
X128629065Y-74037035D01*
X128533827Y-73989416D01*
X128486208Y-73894178D01*
X128486208Y-73656082D01*
X128438589Y-73560844D01*
X128867160Y-73179892D02*
X128200494Y-72656082D01*
X128200494Y-73179892D02*
X128867160Y-72656082D01*
X128962399Y-72513225D02*
X128962399Y-71751320D01*
X128200494Y-71084654D02*
X129010018Y-71084654D01*
X129105256Y-71132273D01*
X129152875Y-71179892D01*
X129200494Y-71275130D01*
X129200494Y-71417987D01*
X129152875Y-71513225D01*
X128819541Y-71084654D02*
X128867160Y-71179892D01*
X128867160Y-71370368D01*
X128819541Y-71465606D01*
X128771922Y-71513225D01*
X128676684Y-71560844D01*
X128390970Y-71560844D01*
X128295732Y-71513225D01*
X128248113Y-71465606D01*
X128200494Y-71370368D01*
X128200494Y-71179892D01*
X128248113Y-71084654D01*
X128200494Y-70608463D02*
X128867160Y-70608463D01*
X128295732Y-70608463D02*
X128248113Y-70560844D01*
X128200494Y-70465606D01*
X128200494Y-70322749D01*
X128248113Y-70227511D01*
X128343351Y-70179892D01*
X128867160Y-70179892D01*
X128867160Y-69275130D02*
X127867160Y-69275130D01*
X128819541Y-69275130D02*
X128867160Y-69370368D01*
X128867160Y-69560844D01*
X128819541Y-69656082D01*
X128771922Y-69703701D01*
X128676684Y-69751320D01*
X128390970Y-69751320D01*
X128295732Y-69703701D01*
X128248113Y-69656082D01*
X128200494Y-69560844D01*
X128200494Y-69370368D01*
X128248113Y-69275130D01*
X128867160Y-68275130D02*
X128867160Y-68846559D01*
X128867160Y-68560844D02*
X127867160Y-68560844D01*
X128010018Y-68656082D01*
X128105256Y-68751320D01*
X128152875Y-68846559D01*
X134972466Y-52314040D02*
X134972466Y-53028326D01*
X134924847Y-53171183D01*
X134829609Y-53266421D01*
X134686752Y-53314040D01*
X134591514Y-53314040D01*
X135496276Y-53314040D02*
X135686752Y-53314040D01*
X135781990Y-53266421D01*
X135829609Y-53218802D01*
X135924847Y-53075945D01*
X135972466Y-52885469D01*
X135972466Y-52504517D01*
X135924847Y-52409279D01*
X135877228Y-52361660D01*
X135781990Y-52314040D01*
X135591514Y-52314040D01*
X135496276Y-52361660D01*
X135448657Y-52409279D01*
X135401038Y-52504517D01*
X135401038Y-52742612D01*
X135448657Y-52837850D01*
X135496276Y-52885469D01*
X135591514Y-52933088D01*
X135781990Y-52933088D01*
X135877228Y-52885469D01*
X135924847Y-52837850D01*
X135972466Y-52742612D01*
X132118300Y-84182483D02*
X132832586Y-84182483D01*
X132975443Y-84230102D01*
X133070681Y-84325340D01*
X133118300Y-84468198D01*
X133118300Y-84563436D01*
X133118300Y-83182483D02*
X133118300Y-83753912D01*
X133118300Y-83468198D02*
X132118300Y-83468198D01*
X132261158Y-83563436D01*
X132356396Y-83658674D01*
X132404015Y-83753912D01*
X133118300Y-82706293D02*
X133118300Y-82515817D01*
X133070681Y-82420579D01*
X133023062Y-82372960D01*
X132880205Y-82277721D01*
X132689729Y-82230102D01*
X132308777Y-82230102D01*
X132213539Y-82277721D01*
X132165920Y-82325340D01*
X132118300Y-82420579D01*
X132118300Y-82611055D01*
X132165920Y-82706293D01*
X132213539Y-82753912D01*
X132308777Y-82801531D01*
X132546872Y-82801531D01*
X132642110Y-82753912D01*
X132689729Y-82706293D01*
X132737348Y-82611055D01*
X132737348Y-82420579D01*
X132689729Y-82325340D01*
X132642110Y-82277721D01*
X132546872Y-82230102D01*
X132118300Y-79712083D02*
X132832586Y-79712083D01*
X132975443Y-79759702D01*
X133070681Y-79854940D01*
X133118300Y-79997798D01*
X133118300Y-80093036D01*
X133118300Y-78712083D02*
X133118300Y-79283512D01*
X133118300Y-78997798D02*
X132118300Y-78997798D01*
X132261158Y-79093036D01*
X132356396Y-79188274D01*
X132404015Y-79283512D01*
X132546872Y-78140655D02*
X132499253Y-78235893D01*
X132451634Y-78283512D01*
X132356396Y-78331131D01*
X132308777Y-78331131D01*
X132213539Y-78283512D01*
X132165920Y-78235893D01*
X132118300Y-78140655D01*
X132118300Y-77950179D01*
X132165920Y-77854940D01*
X132213539Y-77807321D01*
X132308777Y-77759702D01*
X132356396Y-77759702D01*
X132451634Y-77807321D01*
X132499253Y-77854940D01*
X132546872Y-77950179D01*
X132546872Y-78140655D01*
X132594491Y-78235893D01*
X132642110Y-78283512D01*
X132737348Y-78331131D01*
X132927824Y-78331131D01*
X133023062Y-78283512D01*
X133070681Y-78235893D01*
X133118300Y-78140655D01*
X133118300Y-77950179D01*
X133070681Y-77854940D01*
X133023062Y-77807321D01*
X132927824Y-77759702D01*
X132737348Y-77759702D01*
X132642110Y-77807321D01*
X132594491Y-77854940D01*
X132546872Y-77950179D01*
X123723600Y-85378823D02*
X124437886Y-85378823D01*
X124580743Y-85426442D01*
X124675981Y-85521680D01*
X124723600Y-85664538D01*
X124723600Y-85759776D01*
X124723600Y-84378823D02*
X124723600Y-84950252D01*
X124723600Y-84664538D02*
X123723600Y-84664538D01*
X123866458Y-84759776D01*
X123961696Y-84855014D01*
X124009315Y-84950252D01*
X123723600Y-84045490D02*
X123723600Y-83378823D01*
X124723600Y-83807395D01*
X119812000Y-85363583D02*
X120526286Y-85363583D01*
X120669143Y-85411202D01*
X120764381Y-85506440D01*
X120812000Y-85649298D01*
X120812000Y-85744536D01*
X120812000Y-84363583D02*
X120812000Y-84935012D01*
X120812000Y-84649298D02*
X119812000Y-84649298D01*
X119954858Y-84744536D01*
X120050096Y-84839774D01*
X120097715Y-84935012D01*
X119812000Y-83506440D02*
X119812000Y-83696917D01*
X119859620Y-83792155D01*
X119907239Y-83839774D01*
X120050096Y-83935012D01*
X120240572Y-83982631D01*
X120621524Y-83982631D01*
X120716762Y-83935012D01*
X120764381Y-83887393D01*
X120812000Y-83792155D01*
X120812000Y-83601679D01*
X120764381Y-83506440D01*
X120716762Y-83458821D01*
X120621524Y-83411202D01*
X120383429Y-83411202D01*
X120288191Y-83458821D01*
X120240572Y-83506440D01*
X120192953Y-83601679D01*
X120192953Y-83792155D01*
X120240572Y-83887393D01*
X120288191Y-83935012D01*
X120383429Y-83982631D01*
X115885160Y-85363583D02*
X116599446Y-85363583D01*
X116742303Y-85411202D01*
X116837541Y-85506440D01*
X116885160Y-85649298D01*
X116885160Y-85744536D01*
X116885160Y-84363583D02*
X116885160Y-84935012D01*
X116885160Y-84649298D02*
X115885160Y-84649298D01*
X116028018Y-84744536D01*
X116123256Y-84839774D01*
X116170875Y-84935012D01*
X115885160Y-84030250D02*
X115885160Y-83411202D01*
X116266113Y-83744536D01*
X116266113Y-83601679D01*
X116313732Y-83506440D01*
X116361351Y-83458821D01*
X116456589Y-83411202D01*
X116694684Y-83411202D01*
X116789922Y-83458821D01*
X116837541Y-83506440D01*
X116885160Y-83601679D01*
X116885160Y-83887393D01*
X116837541Y-83982631D01*
X116789922Y-84030250D01*
X108704580Y-68932323D02*
X109418866Y-68932323D01*
X109561723Y-68979942D01*
X109656961Y-69075180D01*
X109704580Y-69218038D01*
X109704580Y-69313276D01*
X109704580Y-67932323D02*
X109704580Y-68503752D01*
X109704580Y-68218038D02*
X108704580Y-68218038D01*
X108847438Y-68313276D01*
X108942676Y-68408514D01*
X108990295Y-68503752D01*
X108799819Y-67551371D02*
X108752200Y-67503752D01*
X108704580Y-67408514D01*
X108704580Y-67170419D01*
X108752200Y-67075180D01*
X108799819Y-67027561D01*
X108895057Y-66979942D01*
X108990295Y-66979942D01*
X109133152Y-67027561D01*
X109704580Y-67598990D01*
X109704580Y-66979942D01*
X111912600Y-85394063D02*
X112626886Y-85394063D01*
X112769743Y-85441682D01*
X112864981Y-85536920D01*
X112912600Y-85679778D01*
X112912600Y-85775016D01*
X112912600Y-84394063D02*
X112912600Y-84965492D01*
X112912600Y-84679778D02*
X111912600Y-84679778D01*
X112055458Y-84775016D01*
X112150696Y-84870254D01*
X112198315Y-84965492D01*
X112912600Y-83441682D02*
X112912600Y-84013111D01*
X112912600Y-83727397D02*
X111912600Y-83727397D01*
X112055458Y-83822635D01*
X112150696Y-83917873D01*
X112198315Y-84013111D01*
X107881620Y-85378823D02*
X108595906Y-85378823D01*
X108738763Y-85426442D01*
X108834001Y-85521680D01*
X108881620Y-85664538D01*
X108881620Y-85759776D01*
X108881620Y-84378823D02*
X108881620Y-84950252D01*
X108881620Y-84664538D02*
X107881620Y-84664538D01*
X108024478Y-84759776D01*
X108119716Y-84855014D01*
X108167335Y-84950252D01*
X107881620Y-83759776D02*
X107881620Y-83664538D01*
X107929240Y-83569300D01*
X107976859Y-83521680D01*
X108072097Y-83474061D01*
X108262573Y-83426442D01*
X108500668Y-83426442D01*
X108691144Y-83474061D01*
X108786382Y-83521680D01*
X108834001Y-83569300D01*
X108881620Y-83664538D01*
X108881620Y-83759776D01*
X108834001Y-83855014D01*
X108786382Y-83902633D01*
X108691144Y-83950252D01*
X108500668Y-83997871D01*
X108262573Y-83997871D01*
X108072097Y-83950252D01*
X107976859Y-83902633D01*
X107929240Y-83855014D01*
X107881620Y-83759776D01*
X106600666Y-51706980D02*
X106600666Y-52421266D01*
X106553047Y-52564123D01*
X106457809Y-52659361D01*
X106314952Y-52706980D01*
X106219714Y-52706980D01*
X106981619Y-51706980D02*
X107600666Y-51706980D01*
X107267333Y-52087933D01*
X107410190Y-52087933D01*
X107505428Y-52135552D01*
X107553047Y-52183171D01*
X107600666Y-52278409D01*
X107600666Y-52516504D01*
X107553047Y-52611742D01*
X107505428Y-52659361D01*
X107410190Y-52706980D01*
X107124476Y-52706980D01*
X107029238Y-52659361D01*
X106981619Y-52611742D01*
X126897600Y-73139893D02*
X127611886Y-73139893D01*
X127754743Y-73187512D01*
X127849981Y-73282750D01*
X127897600Y-73425607D01*
X127897600Y-73520845D01*
X127326172Y-72520845D02*
X127278553Y-72616083D01*
X127230934Y-72663702D01*
X127135696Y-72711321D01*
X127088077Y-72711321D01*
X126992839Y-72663702D01*
X126945220Y-72616083D01*
X126897600Y-72520845D01*
X126897600Y-72330369D01*
X126945220Y-72235131D01*
X126992839Y-72187512D01*
X127088077Y-72139893D01*
X127135696Y-72139893D01*
X127230934Y-72187512D01*
X127278553Y-72235131D01*
X127326172Y-72330369D01*
X127326172Y-72520845D01*
X127373791Y-72616083D01*
X127421410Y-72663702D01*
X127516648Y-72711321D01*
X127707124Y-72711321D01*
X127802362Y-72663702D01*
X127849981Y-72616083D01*
X127897600Y-72520845D01*
X127897600Y-72330369D01*
X127849981Y-72235131D01*
X127802362Y-72187512D01*
X127707124Y-72139893D01*
X127516648Y-72139893D01*
X127421410Y-72187512D01*
X127373791Y-72235131D01*
X127326172Y-72330369D01*
D13*
X127268546Y-78397230D02*
X127101880Y-78159135D01*
X126982832Y-78397230D02*
X126982832Y-77897230D01*
X127173308Y-77897230D01*
X127220927Y-77921040D01*
X127244737Y-77944849D01*
X127268546Y-77992468D01*
X127268546Y-78063897D01*
X127244737Y-78111516D01*
X127220927Y-78135325D01*
X127173308Y-78159135D01*
X126982832Y-78159135D01*
X127435213Y-77897230D02*
X127768546Y-77897230D01*
X127554260Y-78397230D01*
D14*
X125656746Y-74851781D02*
X124704365Y-74851781D01*
X124704365Y-72851781D01*
X126228175Y-73042258D02*
X126323413Y-72947020D01*
X126513889Y-72851781D01*
X126990080Y-72851781D01*
X127180556Y-72947020D01*
X127275794Y-73042258D01*
X127371032Y-73232734D01*
X127371032Y-73423210D01*
X127275794Y-73708924D01*
X126132937Y-74851781D01*
X127371032Y-74851781D01*
D12*
X105020680Y-83896433D02*
X105734966Y-83896433D01*
X105877823Y-83944052D01*
X105973061Y-84039290D01*
X106020680Y-84182147D01*
X106020680Y-84277385D01*
X105115919Y-83467861D02*
X105068300Y-83420242D01*
X105020680Y-83325004D01*
X105020680Y-83086909D01*
X105068300Y-82991671D01*
X105115919Y-82944052D01*
X105211157Y-82896433D01*
X105306395Y-82896433D01*
X105449252Y-82944052D01*
X106020680Y-83515480D01*
X106020680Y-82896433D01*
X105020680Y-79746433D02*
X105734966Y-79746433D01*
X105877823Y-79794052D01*
X105973061Y-79889290D01*
X106020680Y-80032147D01*
X106020680Y-80127385D01*
X106020680Y-78746433D02*
X106020680Y-79317861D01*
X106020680Y-79032147D02*
X105020680Y-79032147D01*
X105163538Y-79127385D01*
X105258776Y-79222623D01*
X105306395Y-79317861D01*
D13*
X122836633Y-67430938D02*
X122589014Y-67430938D01*
X122589014Y-66910938D01*
X123084252Y-67133795D02*
X123034728Y-67109033D01*
X123009966Y-67084271D01*
X122985204Y-67034747D01*
X122985204Y-67009985D01*
X123009966Y-66960461D01*
X123034728Y-66935700D01*
X123084252Y-66910938D01*
X123183300Y-66910938D01*
X123232823Y-66935700D01*
X123257585Y-66960461D01*
X123282347Y-67009985D01*
X123282347Y-67034747D01*
X123257585Y-67084271D01*
X123232823Y-67109033D01*
X123183300Y-67133795D01*
X123084252Y-67133795D01*
X123034728Y-67158557D01*
X123009966Y-67183319D01*
X122985204Y-67232842D01*
X122985204Y-67331890D01*
X123009966Y-67381414D01*
X123034728Y-67406176D01*
X123084252Y-67430938D01*
X123183300Y-67430938D01*
X123232823Y-67406176D01*
X123257585Y-67381414D01*
X123282347Y-67331890D01*
X123282347Y-67232842D01*
X123257585Y-67183319D01*
X123232823Y-67158557D01*
X123183300Y-67133795D01*
X121268371Y-67399671D02*
X121244561Y-67423480D01*
X121173133Y-67447290D01*
X121125514Y-67447290D01*
X121054085Y-67423480D01*
X121006466Y-67375861D01*
X120982657Y-67328242D01*
X120958847Y-67233004D01*
X120958847Y-67161576D01*
X120982657Y-67066338D01*
X121006466Y-67018719D01*
X121054085Y-66971100D01*
X121125514Y-66947290D01*
X121173133Y-66947290D01*
X121244561Y-66971100D01*
X121268371Y-66994909D01*
X121458847Y-66994909D02*
X121482657Y-66971100D01*
X121530276Y-66947290D01*
X121649323Y-66947290D01*
X121696942Y-66971100D01*
X121720752Y-66994909D01*
X121744561Y-67042528D01*
X121744561Y-67090147D01*
X121720752Y-67161576D01*
X121435038Y-67447290D01*
X121744561Y-67447290D01*
X121982657Y-67447290D02*
X122077895Y-67447290D01*
X122125514Y-67423480D01*
X122149323Y-67399671D01*
X122196942Y-67328242D01*
X122220752Y-67233004D01*
X122220752Y-67042528D01*
X122196942Y-66994909D01*
X122173133Y-66971100D01*
X122125514Y-66947290D01*
X122030276Y-66947290D01*
X121982657Y-66971100D01*
X121958847Y-66994909D01*
X121935038Y-67042528D01*
X121935038Y-67161576D01*
X121958847Y-67209195D01*
X121982657Y-67233004D01*
X122030276Y-67256814D01*
X122125514Y-67256814D01*
X122173133Y-67233004D01*
X122196942Y-67209195D01*
X122220752Y-67161576D01*
X114107090Y-79356733D02*
X113868995Y-79523400D01*
X114107090Y-79642447D02*
X113607090Y-79642447D01*
X113607090Y-79451971D01*
X113630900Y-79404352D01*
X113654709Y-79380542D01*
X113702328Y-79356733D01*
X113773757Y-79356733D01*
X113821376Y-79380542D01*
X113845185Y-79404352D01*
X113868995Y-79451971D01*
X113868995Y-79642447D01*
X113654709Y-79166257D02*
X113630900Y-79142447D01*
X113607090Y-79094828D01*
X113607090Y-78975780D01*
X113630900Y-78928161D01*
X113654709Y-78904352D01*
X113702328Y-78880542D01*
X113749947Y-78880542D01*
X113821376Y-78904352D01*
X114107090Y-79190066D01*
X114107090Y-78880542D01*
X121803290Y-73502033D02*
X121565195Y-73668700D01*
X121803290Y-73787747D02*
X121303290Y-73787747D01*
X121303290Y-73597271D01*
X121327100Y-73549652D01*
X121350909Y-73525842D01*
X121398528Y-73502033D01*
X121469957Y-73502033D01*
X121517576Y-73525842D01*
X121541385Y-73549652D01*
X121565195Y-73597271D01*
X121565195Y-73787747D01*
X121803290Y-73025842D02*
X121803290Y-73311557D01*
X121803290Y-73168700D02*
X121303290Y-73168700D01*
X121374719Y-73216319D01*
X121422338Y-73263938D01*
X121446147Y-73311557D01*
D12*
X118816380Y-69673766D02*
X118816380Y-70149957D01*
X117816380Y-70149957D01*
X118149714Y-68911861D02*
X118816380Y-68911861D01*
X117768761Y-69149957D02*
X118483047Y-69388052D01*
X118483047Y-68769004D01*
D13*
X114653190Y-78150233D02*
X114415095Y-78316900D01*
X114653190Y-78435947D02*
X114153190Y-78435947D01*
X114153190Y-78245471D01*
X114177000Y-78197852D01*
X114200809Y-78174042D01*
X114248428Y-78150233D01*
X114319857Y-78150233D01*
X114367476Y-78174042D01*
X114391285Y-78197852D01*
X114415095Y-78245471D01*
X114415095Y-78435947D01*
X114153190Y-77721661D02*
X114153190Y-77816900D01*
X114177000Y-77864519D01*
X114200809Y-77888328D01*
X114272238Y-77935947D01*
X114367476Y-77959757D01*
X114557952Y-77959757D01*
X114605571Y-77935947D01*
X114629380Y-77912138D01*
X114653190Y-77864519D01*
X114653190Y-77769280D01*
X114629380Y-77721661D01*
X114605571Y-77697852D01*
X114557952Y-77674042D01*
X114438904Y-77674042D01*
X114391285Y-77697852D01*
X114367476Y-77721661D01*
X114343666Y-77769280D01*
X114343666Y-77864519D01*
X114367476Y-77912138D01*
X114391285Y-77935947D01*
X114438904Y-77959757D01*
X119568090Y-78074033D02*
X119329995Y-78240700D01*
X119568090Y-78359747D02*
X119068090Y-78359747D01*
X119068090Y-78169271D01*
X119091900Y-78121652D01*
X119115709Y-78097842D01*
X119163328Y-78074033D01*
X119234757Y-78074033D01*
X119282376Y-78097842D01*
X119306185Y-78121652D01*
X119329995Y-78169271D01*
X119329995Y-78359747D01*
X119068090Y-77621652D02*
X119068090Y-77859747D01*
X119306185Y-77883557D01*
X119282376Y-77859747D01*
X119258566Y-77812128D01*
X119258566Y-77693080D01*
X119282376Y-77645461D01*
X119306185Y-77621652D01*
X119353804Y-77597842D01*
X119472852Y-77597842D01*
X119520471Y-77621652D01*
X119544280Y-77645461D01*
X119568090Y-77693080D01*
X119568090Y-77812128D01*
X119544280Y-77859747D01*
X119520471Y-77883557D01*
X118229866Y-76972290D02*
X118063200Y-76734195D01*
X117944152Y-76972290D02*
X117944152Y-76472290D01*
X118134628Y-76472290D01*
X118182247Y-76496100D01*
X118206057Y-76519909D01*
X118229866Y-76567528D01*
X118229866Y-76638957D01*
X118206057Y-76686576D01*
X118182247Y-76710385D01*
X118134628Y-76734195D01*
X117944152Y-76734195D01*
X118396533Y-76472290D02*
X118706057Y-76472290D01*
X118539390Y-76662766D01*
X118610819Y-76662766D01*
X118658438Y-76686576D01*
X118682247Y-76710385D01*
X118706057Y-76758004D01*
X118706057Y-76877052D01*
X118682247Y-76924671D01*
X118658438Y-76948480D01*
X118610819Y-76972290D01*
X118467961Y-76972290D01*
X118420342Y-76948480D01*
X118396533Y-76924671D01*
X109466866Y-77712071D02*
X109443057Y-77735880D01*
X109371628Y-77759690D01*
X109324009Y-77759690D01*
X109252580Y-77735880D01*
X109204961Y-77688261D01*
X109181152Y-77640642D01*
X109157342Y-77545404D01*
X109157342Y-77473976D01*
X109181152Y-77378738D01*
X109204961Y-77331119D01*
X109252580Y-77283500D01*
X109324009Y-77259690D01*
X109371628Y-77259690D01*
X109443057Y-77283500D01*
X109466866Y-77307309D01*
X109752580Y-77473976D02*
X109704961Y-77450166D01*
X109681152Y-77426357D01*
X109657342Y-77378738D01*
X109657342Y-77354928D01*
X109681152Y-77307309D01*
X109704961Y-77283500D01*
X109752580Y-77259690D01*
X109847819Y-77259690D01*
X109895438Y-77283500D01*
X109919247Y-77307309D01*
X109943057Y-77354928D01*
X109943057Y-77378738D01*
X109919247Y-77426357D01*
X109895438Y-77450166D01*
X109847819Y-77473976D01*
X109752580Y-77473976D01*
X109704961Y-77497785D01*
X109681152Y-77521595D01*
X109657342Y-77569214D01*
X109657342Y-77664452D01*
X109681152Y-77712071D01*
X109704961Y-77735880D01*
X109752580Y-77759690D01*
X109847819Y-77759690D01*
X109895438Y-77735880D01*
X109919247Y-77712071D01*
X109943057Y-77664452D01*
X109943057Y-77569214D01*
X109919247Y-77521595D01*
X109895438Y-77497785D01*
X109847819Y-77473976D01*
D14*
X113996190Y-69534761D02*
X113996190Y-71153809D01*
X114091428Y-71344285D01*
X114186666Y-71439523D01*
X114377142Y-71534761D01*
X114758095Y-71534761D01*
X114948571Y-71439523D01*
X115043809Y-71344285D01*
X115139047Y-71153809D01*
X115139047Y-69534761D01*
X117139047Y-71534761D02*
X115996190Y-71534761D01*
X116567619Y-71534761D02*
X116567619Y-69534761D01*
X116377142Y-69820476D01*
X116186666Y-70010952D01*
X115996190Y-70106190D01*
D13*
X118204466Y-78889990D02*
X118037800Y-78651895D01*
X117918752Y-78889990D02*
X117918752Y-78389990D01*
X118109228Y-78389990D01*
X118156847Y-78413800D01*
X118180657Y-78437609D01*
X118204466Y-78485228D01*
X118204466Y-78556657D01*
X118180657Y-78604276D01*
X118156847Y-78628085D01*
X118109228Y-78651895D01*
X117918752Y-78651895D01*
X118633038Y-78556657D02*
X118633038Y-78889990D01*
X118513990Y-78366180D02*
X118394942Y-78723323D01*
X118704466Y-78723323D01*
D12*
X118816380Y-73890166D02*
X118816380Y-74366357D01*
X117816380Y-74366357D01*
X117816380Y-73652071D02*
X117816380Y-73033023D01*
X118197333Y-73366357D01*
X118197333Y-73223500D01*
X118244952Y-73128261D01*
X118292571Y-73080642D01*
X118387809Y-73033023D01*
X118625904Y-73033023D01*
X118721142Y-73080642D01*
X118768761Y-73128261D01*
X118816380Y-73223500D01*
X118816380Y-73509214D01*
X118768761Y-73604452D01*
X118721142Y-73652071D01*
D13*
X109000171Y-74638671D02*
X108976361Y-74662480D01*
X108904933Y-74686290D01*
X108857314Y-74686290D01*
X108785885Y-74662480D01*
X108738266Y-74614861D01*
X108714457Y-74567242D01*
X108690647Y-74472004D01*
X108690647Y-74400576D01*
X108714457Y-74305338D01*
X108738266Y-74257719D01*
X108785885Y-74210100D01*
X108857314Y-74186290D01*
X108904933Y-74186290D01*
X108976361Y-74210100D01*
X109000171Y-74233909D01*
X109476361Y-74686290D02*
X109190647Y-74686290D01*
X109333504Y-74686290D02*
X109333504Y-74186290D01*
X109285885Y-74257719D01*
X109238266Y-74305338D01*
X109190647Y-74329147D01*
X109762076Y-74400576D02*
X109714457Y-74376766D01*
X109690647Y-74352957D01*
X109666838Y-74305338D01*
X109666838Y-74281528D01*
X109690647Y-74233909D01*
X109714457Y-74210100D01*
X109762076Y-74186290D01*
X109857314Y-74186290D01*
X109904933Y-74210100D01*
X109928742Y-74233909D01*
X109952552Y-74281528D01*
X109952552Y-74305338D01*
X109928742Y-74352957D01*
X109904933Y-74376766D01*
X109857314Y-74400576D01*
X109762076Y-74400576D01*
X109714457Y-74424385D01*
X109690647Y-74448195D01*
X109666838Y-74495814D01*
X109666838Y-74591052D01*
X109690647Y-74638671D01*
X109714457Y-74662480D01*
X109762076Y-74686290D01*
X109857314Y-74686290D01*
X109904933Y-74662480D01*
X109928742Y-74638671D01*
X109952552Y-74591052D01*
X109952552Y-74495814D01*
X109928742Y-74448195D01*
X109904933Y-74424385D01*
X109857314Y-74400576D01*
X120333271Y-70590528D02*
X120357080Y-70614338D01*
X120380890Y-70685766D01*
X120380890Y-70733385D01*
X120357080Y-70804814D01*
X120309461Y-70852433D01*
X120261842Y-70876242D01*
X120166604Y-70900052D01*
X120095176Y-70900052D01*
X119999938Y-70876242D01*
X119952319Y-70852433D01*
X119904700Y-70804814D01*
X119880890Y-70733385D01*
X119880890Y-70685766D01*
X119904700Y-70614338D01*
X119928509Y-70590528D01*
X120380890Y-70114338D02*
X120380890Y-70400052D01*
X120380890Y-70257195D02*
X119880890Y-70257195D01*
X119952319Y-70304814D01*
X119999938Y-70352433D01*
X120023747Y-70400052D01*
X119880890Y-69685766D02*
X119880890Y-69781004D01*
X119904700Y-69828623D01*
X119928509Y-69852433D01*
X119999938Y-69900052D01*
X120095176Y-69923861D01*
X120285652Y-69923861D01*
X120333271Y-69900052D01*
X120357080Y-69876242D01*
X120380890Y-69828623D01*
X120380890Y-69733385D01*
X120357080Y-69685766D01*
X120333271Y-69661957D01*
X120285652Y-69638147D01*
X120166604Y-69638147D01*
X120118985Y-69661957D01*
X120095176Y-69685766D01*
X120071366Y-69733385D01*
X120071366Y-69828623D01*
X120095176Y-69876242D01*
X120118985Y-69900052D01*
X120166604Y-69923861D01*
X109038271Y-75426071D02*
X109014461Y-75449880D01*
X108943033Y-75473690D01*
X108895414Y-75473690D01*
X108823985Y-75449880D01*
X108776366Y-75402261D01*
X108752557Y-75354642D01*
X108728747Y-75259404D01*
X108728747Y-75187976D01*
X108752557Y-75092738D01*
X108776366Y-75045119D01*
X108823985Y-74997500D01*
X108895414Y-74973690D01*
X108943033Y-74973690D01*
X109014461Y-74997500D01*
X109038271Y-75021309D01*
X109514461Y-75473690D02*
X109228747Y-75473690D01*
X109371604Y-75473690D02*
X109371604Y-74973690D01*
X109323985Y-75045119D01*
X109276366Y-75092738D01*
X109228747Y-75116547D01*
X109681128Y-74973690D02*
X110014461Y-74973690D01*
X109800176Y-75473690D01*
X108987471Y-78550271D02*
X108963661Y-78574080D01*
X108892233Y-78597890D01*
X108844614Y-78597890D01*
X108773185Y-78574080D01*
X108725566Y-78526461D01*
X108701757Y-78478842D01*
X108677947Y-78383604D01*
X108677947Y-78312176D01*
X108701757Y-78216938D01*
X108725566Y-78169319D01*
X108773185Y-78121700D01*
X108844614Y-78097890D01*
X108892233Y-78097890D01*
X108963661Y-78121700D01*
X108987471Y-78145509D01*
X109463661Y-78597890D02*
X109177947Y-78597890D01*
X109320804Y-78597890D02*
X109320804Y-78097890D01*
X109273185Y-78169319D01*
X109225566Y-78216938D01*
X109177947Y-78240747D01*
X109892233Y-78264557D02*
X109892233Y-78597890D01*
X109773185Y-78074080D02*
X109654138Y-78431223D01*
X109963661Y-78431223D01*
X121755671Y-75924528D02*
X121779480Y-75948338D01*
X121803290Y-76019766D01*
X121803290Y-76067385D01*
X121779480Y-76138814D01*
X121731861Y-76186433D01*
X121684242Y-76210242D01*
X121589004Y-76234052D01*
X121517576Y-76234052D01*
X121422338Y-76210242D01*
X121374719Y-76186433D01*
X121327100Y-76138814D01*
X121303290Y-76067385D01*
X121303290Y-76019766D01*
X121327100Y-75948338D01*
X121350909Y-75924528D01*
X121803290Y-75448338D02*
X121803290Y-75734052D01*
X121803290Y-75591195D02*
X121303290Y-75591195D01*
X121374719Y-75638814D01*
X121422338Y-75686433D01*
X121446147Y-75734052D01*
X121303290Y-74995957D02*
X121303290Y-75234052D01*
X121541385Y-75257861D01*
X121517576Y-75234052D01*
X121493766Y-75186433D01*
X121493766Y-75067385D01*
X121517576Y-75019766D01*
X121541385Y-74995957D01*
X121589004Y-74972147D01*
X121708052Y-74972147D01*
X121755671Y-74995957D01*
X121779480Y-75019766D01*
X121803290Y-75067385D01*
X121803290Y-75186433D01*
X121779480Y-75234052D01*
X121755671Y-75257861D01*
X109012871Y-76950071D02*
X108989061Y-76973880D01*
X108917633Y-76997690D01*
X108870014Y-76997690D01*
X108798585Y-76973880D01*
X108750966Y-76926261D01*
X108727157Y-76878642D01*
X108703347Y-76783404D01*
X108703347Y-76711976D01*
X108727157Y-76616738D01*
X108750966Y-76569119D01*
X108798585Y-76521500D01*
X108870014Y-76497690D01*
X108917633Y-76497690D01*
X108989061Y-76521500D01*
X109012871Y-76545309D01*
X109489061Y-76997690D02*
X109203347Y-76997690D01*
X109346204Y-76997690D02*
X109346204Y-76497690D01*
X109298585Y-76569119D01*
X109250966Y-76616738D01*
X109203347Y-76640547D01*
X109679538Y-76545309D02*
X109703347Y-76521500D01*
X109750966Y-76497690D01*
X109870014Y-76497690D01*
X109917633Y-76521500D01*
X109941442Y-76545309D01*
X109965252Y-76592928D01*
X109965252Y-76640547D01*
X109941442Y-76711976D01*
X109655728Y-76997690D01*
X109965252Y-76997690D01*
X109025571Y-76149971D02*
X109001761Y-76173780D01*
X108930333Y-76197590D01*
X108882714Y-76197590D01*
X108811285Y-76173780D01*
X108763666Y-76126161D01*
X108739857Y-76078542D01*
X108716047Y-75983304D01*
X108716047Y-75911876D01*
X108739857Y-75816638D01*
X108763666Y-75769019D01*
X108811285Y-75721400D01*
X108882714Y-75697590D01*
X108930333Y-75697590D01*
X109001761Y-75721400D01*
X109025571Y-75745209D01*
X109501761Y-76197590D02*
X109216047Y-76197590D01*
X109358904Y-76197590D02*
X109358904Y-75697590D01*
X109311285Y-75769019D01*
X109263666Y-75816638D01*
X109216047Y-75840447D01*
X109977952Y-76197590D02*
X109692238Y-76197590D01*
X109835095Y-76197590D02*
X109835095Y-75697590D01*
X109787476Y-75769019D01*
X109739857Y-75816638D01*
X109692238Y-75840447D01*
X121133371Y-70552428D02*
X121157180Y-70576238D01*
X121180990Y-70647666D01*
X121180990Y-70695285D01*
X121157180Y-70766714D01*
X121109561Y-70814333D01*
X121061942Y-70838142D01*
X120966704Y-70861952D01*
X120895276Y-70861952D01*
X120800038Y-70838142D01*
X120752419Y-70814333D01*
X120704800Y-70766714D01*
X120680990Y-70695285D01*
X120680990Y-70647666D01*
X120704800Y-70576238D01*
X120728609Y-70552428D01*
X121180990Y-70076238D02*
X121180990Y-70361952D01*
X121180990Y-70219095D02*
X120680990Y-70219095D01*
X120752419Y-70266714D01*
X120800038Y-70314333D01*
X120823847Y-70361952D01*
X120680990Y-69766714D02*
X120680990Y-69719095D01*
X120704800Y-69671476D01*
X120728609Y-69647666D01*
X120776228Y-69623857D01*
X120871466Y-69600047D01*
X120990514Y-69600047D01*
X121085752Y-69623857D01*
X121133371Y-69647666D01*
X121157180Y-69671476D01*
X121180990Y-69719095D01*
X121180990Y-69766714D01*
X121157180Y-69814333D01*
X121133371Y-69838142D01*
X121085752Y-69861952D01*
X120990514Y-69885761D01*
X120871466Y-69885761D01*
X120776228Y-69861952D01*
X120728609Y-69838142D01*
X120704800Y-69814333D01*
X120680990Y-69766714D01*
X120955571Y-76677033D02*
X120979380Y-76700842D01*
X121003190Y-76772271D01*
X121003190Y-76819890D01*
X120979380Y-76891319D01*
X120931761Y-76938938D01*
X120884142Y-76962747D01*
X120788904Y-76986557D01*
X120717476Y-76986557D01*
X120622238Y-76962747D01*
X120574619Y-76938938D01*
X120527000Y-76891319D01*
X120503190Y-76819890D01*
X120503190Y-76772271D01*
X120527000Y-76700842D01*
X120550809Y-76677033D01*
X121003190Y-76438938D02*
X121003190Y-76343700D01*
X120979380Y-76296080D01*
X120955571Y-76272271D01*
X120884142Y-76224652D01*
X120788904Y-76200842D01*
X120598428Y-76200842D01*
X120550809Y-76224652D01*
X120527000Y-76248461D01*
X120503190Y-76296080D01*
X120503190Y-76391319D01*
X120527000Y-76438938D01*
X120550809Y-76462747D01*
X120598428Y-76486557D01*
X120717476Y-76486557D01*
X120765095Y-76462747D01*
X120788904Y-76438938D01*
X120812714Y-76391319D01*
X120812714Y-76296080D01*
X120788904Y-76248461D01*
X120765095Y-76224652D01*
X120717476Y-76200842D01*
X119545871Y-70123833D02*
X119569680Y-70147642D01*
X119593490Y-70219071D01*
X119593490Y-70266690D01*
X119569680Y-70338119D01*
X119522061Y-70385738D01*
X119474442Y-70409547D01*
X119379204Y-70433357D01*
X119307776Y-70433357D01*
X119212538Y-70409547D01*
X119164919Y-70385738D01*
X119117300Y-70338119D01*
X119093490Y-70266690D01*
X119093490Y-70219071D01*
X119117300Y-70147642D01*
X119141109Y-70123833D01*
X119093490Y-69695261D02*
X119093490Y-69790500D01*
X119117300Y-69838119D01*
X119141109Y-69861928D01*
X119212538Y-69909547D01*
X119307776Y-69933357D01*
X119498252Y-69933357D01*
X119545871Y-69909547D01*
X119569680Y-69885738D01*
X119593490Y-69838119D01*
X119593490Y-69742880D01*
X119569680Y-69695261D01*
X119545871Y-69671452D01*
X119498252Y-69647642D01*
X119379204Y-69647642D01*
X119331585Y-69671452D01*
X119307776Y-69695261D01*
X119283966Y-69742880D01*
X119283966Y-69838119D01*
X119307776Y-69885738D01*
X119331585Y-69909547D01*
X119379204Y-69933357D01*
X120282471Y-74619633D02*
X120306280Y-74643442D01*
X120330090Y-74714871D01*
X120330090Y-74762490D01*
X120306280Y-74833919D01*
X120258661Y-74881538D01*
X120211042Y-74905347D01*
X120115804Y-74929157D01*
X120044376Y-74929157D01*
X119949138Y-74905347D01*
X119901519Y-74881538D01*
X119853900Y-74833919D01*
X119830090Y-74762490D01*
X119830090Y-74714871D01*
X119853900Y-74643442D01*
X119877709Y-74619633D01*
X119830090Y-74167252D02*
X119830090Y-74405347D01*
X120068185Y-74429157D01*
X120044376Y-74405347D01*
X120020566Y-74357728D01*
X120020566Y-74238680D01*
X120044376Y-74191061D01*
X120068185Y-74167252D01*
X120115804Y-74143442D01*
X120234852Y-74143442D01*
X120282471Y-74167252D01*
X120306280Y-74191061D01*
X120330090Y-74238680D01*
X120330090Y-74357728D01*
X120306280Y-74405347D01*
X120282471Y-74429157D01*
X111994166Y-80379071D02*
X111970357Y-80402880D01*
X111898928Y-80426690D01*
X111851309Y-80426690D01*
X111779880Y-80402880D01*
X111732261Y-80355261D01*
X111708452Y-80307642D01*
X111684642Y-80212404D01*
X111684642Y-80140976D01*
X111708452Y-80045738D01*
X111732261Y-79998119D01*
X111779880Y-79950500D01*
X111851309Y-79926690D01*
X111898928Y-79926690D01*
X111970357Y-79950500D01*
X111994166Y-79974309D01*
X112422738Y-80093357D02*
X112422738Y-80426690D01*
X112303690Y-79902880D02*
X112184642Y-80260023D01*
X112494166Y-80260023D01*
X120320571Y-78086733D02*
X120344380Y-78110542D01*
X120368190Y-78181971D01*
X120368190Y-78229590D01*
X120344380Y-78301019D01*
X120296761Y-78348638D01*
X120249142Y-78372447D01*
X120153904Y-78396257D01*
X120082476Y-78396257D01*
X119987238Y-78372447D01*
X119939619Y-78348638D01*
X119892000Y-78301019D01*
X119868190Y-78229590D01*
X119868190Y-78181971D01*
X119892000Y-78110542D01*
X119915809Y-78086733D01*
X119868190Y-77920066D02*
X119868190Y-77610542D01*
X120058666Y-77777209D01*
X120058666Y-77705780D01*
X120082476Y-77658161D01*
X120106285Y-77634352D01*
X120153904Y-77610542D01*
X120272952Y-77610542D01*
X120320571Y-77634352D01*
X120344380Y-77658161D01*
X120368190Y-77705780D01*
X120368190Y-77848638D01*
X120344380Y-77896257D01*
X120320571Y-77920066D01*
X119258566Y-74244971D02*
X119234757Y-74268780D01*
X119163328Y-74292590D01*
X119115709Y-74292590D01*
X119044280Y-74268780D01*
X118996661Y-74221161D01*
X118972852Y-74173542D01*
X118949042Y-74078304D01*
X118949042Y-74006876D01*
X118972852Y-73911638D01*
X118996661Y-73864019D01*
X119044280Y-73816400D01*
X119115709Y-73792590D01*
X119163328Y-73792590D01*
X119234757Y-73816400D01*
X119258566Y-73840209D01*
X119449042Y-73840209D02*
X119472852Y-73816400D01*
X119520471Y-73792590D01*
X119639519Y-73792590D01*
X119687138Y-73816400D01*
X119710947Y-73840209D01*
X119734757Y-73887828D01*
X119734757Y-73935447D01*
X119710947Y-74006876D01*
X119425233Y-74292590D01*
X119734757Y-74292590D01*
X118080006Y-72354531D02*
X118056197Y-72378340D01*
X117984768Y-72402150D01*
X117937149Y-72402150D01*
X117865720Y-72378340D01*
X117818101Y-72330721D01*
X117794292Y-72283102D01*
X117770482Y-72187864D01*
X117770482Y-72116436D01*
X117794292Y-72021198D01*
X117818101Y-71973579D01*
X117865720Y-71925960D01*
X117937149Y-71902150D01*
X117984768Y-71902150D01*
X118056197Y-71925960D01*
X118080006Y-71949769D01*
X118556197Y-72402150D02*
X118270482Y-72402150D01*
X118413340Y-72402150D02*
X118413340Y-71902150D01*
X118365720Y-71973579D01*
X118318101Y-72021198D01*
X118270482Y-72045007D01*
D14*
X132908680Y-63893580D02*
X133861061Y-63893580D01*
X131861061Y-64560247D02*
X132908680Y-63893580D01*
X131861061Y-63226914D01*
X133861061Y-61512628D02*
X133861061Y-62655485D01*
X133861061Y-62084057D02*
X131861061Y-62084057D01*
X132146776Y-62274533D01*
X132337252Y-62465009D01*
X132432490Y-62655485D01*
X114401790Y-64614561D02*
X114401790Y-66233609D01*
X114497028Y-66424085D01*
X114592266Y-66519323D01*
X114782742Y-66614561D01*
X115163695Y-66614561D01*
X115354171Y-66519323D01*
X115449409Y-66424085D01*
X115544647Y-66233609D01*
X115544647Y-64614561D01*
X117354171Y-65281228D02*
X117354171Y-66614561D01*
X116877980Y-64519323D02*
X116401790Y-65947895D01*
X117639885Y-65947895D01*
D15*
X130676167Y-84315198D02*
X131542358Y-84315198D01*
X131644262Y-84264245D01*
X131695215Y-84213293D01*
X131746167Y-84111388D01*
X131746167Y-83907579D01*
X131695215Y-83805674D01*
X131644262Y-83754721D01*
X131542358Y-83703769D01*
X130676167Y-83703769D01*
X130778072Y-83245198D02*
X130727120Y-83194245D01*
X130676167Y-83092340D01*
X130676167Y-82837579D01*
X130727120Y-82735674D01*
X130778072Y-82684721D01*
X130879977Y-82633769D01*
X130981881Y-82633769D01*
X131134739Y-82684721D01*
X131746167Y-83296150D01*
X131746167Y-82633769D01*
D13*
X105533071Y-72971790D02*
X105366404Y-72733695D01*
X105247357Y-72971790D02*
X105247357Y-72471790D01*
X105437833Y-72471790D01*
X105485452Y-72495600D01*
X105509261Y-72519409D01*
X105533071Y-72567028D01*
X105533071Y-72638457D01*
X105509261Y-72686076D01*
X105485452Y-72709885D01*
X105437833Y-72733695D01*
X105247357Y-72733695D01*
X106009261Y-72971790D02*
X105723547Y-72971790D01*
X105866404Y-72971790D02*
X105866404Y-72471790D01*
X105818785Y-72543219D01*
X105771166Y-72590838D01*
X105723547Y-72614647D01*
X106485452Y-72971790D02*
X106199738Y-72971790D01*
X106342595Y-72971790D02*
X106342595Y-72471790D01*
X106294976Y-72543219D01*
X106247357Y-72590838D01*
X106199738Y-72614647D01*
X105469571Y-67269490D02*
X105302904Y-67031395D01*
X105183857Y-67269490D02*
X105183857Y-66769490D01*
X105374333Y-66769490D01*
X105421952Y-66793300D01*
X105445761Y-66817109D01*
X105469571Y-66864728D01*
X105469571Y-66936157D01*
X105445761Y-66983776D01*
X105421952Y-67007585D01*
X105374333Y-67031395D01*
X105183857Y-67031395D01*
X105945761Y-67269490D02*
X105660047Y-67269490D01*
X105802904Y-67269490D02*
X105802904Y-66769490D01*
X105755285Y-66840919D01*
X105707666Y-66888538D01*
X105660047Y-66912347D01*
X106255285Y-66769490D02*
X106302904Y-66769490D01*
X106350523Y-66793300D01*
X106374333Y-66817109D01*
X106398142Y-66864728D01*
X106421952Y-66959966D01*
X106421952Y-67079014D01*
X106398142Y-67174252D01*
X106374333Y-67221871D01*
X106350523Y-67245680D01*
X106302904Y-67269490D01*
X106255285Y-67269490D01*
X106207666Y-67245680D01*
X106183857Y-67221871D01*
X106160047Y-67174252D01*
X106136238Y-67079014D01*
X106136238Y-66959966D01*
X106160047Y-66864728D01*
X106183857Y-66817109D01*
X106207666Y-66793300D01*
X106255285Y-66769490D01*
X130129766Y-58417590D02*
X129963100Y-58179495D01*
X129844052Y-58417590D02*
X129844052Y-57917590D01*
X130034528Y-57917590D01*
X130082147Y-57941400D01*
X130105957Y-57965209D01*
X130129766Y-58012828D01*
X130129766Y-58084257D01*
X130105957Y-58131876D01*
X130082147Y-58155685D01*
X130034528Y-58179495D01*
X129844052Y-58179495D01*
X130367861Y-58417590D02*
X130463100Y-58417590D01*
X130510719Y-58393780D01*
X130534528Y-58369971D01*
X130582147Y-58298542D01*
X130605957Y-58203304D01*
X130605957Y-58012828D01*
X130582147Y-57965209D01*
X130558338Y-57941400D01*
X130510719Y-57917590D01*
X130415480Y-57917590D01*
X130367861Y-57941400D01*
X130344052Y-57965209D01*
X130320242Y-58012828D01*
X130320242Y-58131876D01*
X130344052Y-58179495D01*
X130367861Y-58203304D01*
X130415480Y-58227114D01*
X130510719Y-58227114D01*
X130558338Y-58203304D01*
X130582147Y-58179495D01*
X130605957Y-58131876D01*
X118747233Y-67481738D02*
X118499614Y-67481738D01*
X118499614Y-66961738D01*
X118871042Y-66961738D02*
X119217709Y-66961738D01*
X118994852Y-67481738D01*
D12*
X123361293Y-75187740D02*
X122885102Y-75187740D01*
X122885102Y-74187740D01*
X124218436Y-75187740D02*
X123647007Y-75187740D01*
X123932721Y-75187740D02*
X123932721Y-74187740D01*
X123837483Y-74330598D01*
X123742245Y-74425836D01*
X123647007Y-74473455D01*
X108664476Y-55687980D02*
X108664476Y-56402266D01*
X108616857Y-56545123D01*
X108521619Y-56640361D01*
X108378761Y-56687980D01*
X108283523Y-56687980D01*
X109664476Y-56687980D02*
X109093047Y-56687980D01*
X109378761Y-56687980D02*
X109378761Y-55687980D01*
X109283523Y-55830838D01*
X109188285Y-55926076D01*
X109093047Y-55973695D01*
X110521619Y-56021314D02*
X110521619Y-56687980D01*
X110283523Y-55640361D02*
X110045428Y-56354647D01*
X110664476Y-56354647D01*
D11*
X131710204Y-60764680D02*
X131710204Y-59764680D01*
X131948300Y-59764680D01*
X132091157Y-59812300D01*
X132186395Y-59907538D01*
X132234014Y-60002776D01*
X132281633Y-60193252D01*
X132281633Y-60336109D01*
X132234014Y-60526585D01*
X132186395Y-60621823D01*
X132091157Y-60717061D01*
X131948300Y-60764680D01*
X131710204Y-60764680D01*
X133234014Y-60764680D02*
X132662585Y-60764680D01*
X132948300Y-60764680D02*
X132948300Y-59764680D01*
X132853061Y-59907538D01*
X132757823Y-60002776D01*
X132662585Y-60050395D01*
D13*
X112230111Y-65555671D02*
X112206301Y-65579480D01*
X112134873Y-65603290D01*
X112087254Y-65603290D01*
X112015825Y-65579480D01*
X111968206Y-65531861D01*
X111944397Y-65484242D01*
X111920587Y-65389004D01*
X111920587Y-65317576D01*
X111944397Y-65222338D01*
X111968206Y-65174719D01*
X112015825Y-65127100D01*
X112087254Y-65103290D01*
X112134873Y-65103290D01*
X112206301Y-65127100D01*
X112230111Y-65150909D01*
X112396778Y-65103290D02*
X112706301Y-65103290D01*
X112539635Y-65293766D01*
X112611063Y-65293766D01*
X112658682Y-65317576D01*
X112682492Y-65341385D01*
X112706301Y-65389004D01*
X112706301Y-65508052D01*
X112682492Y-65555671D01*
X112658682Y-65579480D01*
X112611063Y-65603290D01*
X112468206Y-65603290D01*
X112420587Y-65579480D01*
X112396778Y-65555671D01*
X112992016Y-65317576D02*
X112944397Y-65293766D01*
X112920587Y-65269957D01*
X112896778Y-65222338D01*
X112896778Y-65198528D01*
X112920587Y-65150909D01*
X112944397Y-65127100D01*
X112992016Y-65103290D01*
X113087254Y-65103290D01*
X113134873Y-65127100D01*
X113158682Y-65150909D01*
X113182492Y-65198528D01*
X113182492Y-65222338D01*
X113158682Y-65269957D01*
X113134873Y-65293766D01*
X113087254Y-65317576D01*
X112992016Y-65317576D01*
X112944397Y-65341385D01*
X112920587Y-65365195D01*
X112896778Y-65412814D01*
X112896778Y-65508052D01*
X112920587Y-65555671D01*
X112944397Y-65579480D01*
X112992016Y-65603290D01*
X113087254Y-65603290D01*
X113134873Y-65579480D01*
X113158682Y-65555671D01*
X113182492Y-65508052D01*
X113182492Y-65412814D01*
X113158682Y-65365195D01*
X113134873Y-65341385D01*
X113087254Y-65317576D01*
X112225751Y-59711131D02*
X112201941Y-59734940D01*
X112130513Y-59758750D01*
X112082894Y-59758750D01*
X112011465Y-59734940D01*
X111963846Y-59687321D01*
X111940037Y-59639702D01*
X111916227Y-59544464D01*
X111916227Y-59473036D01*
X111940037Y-59377798D01*
X111963846Y-59330179D01*
X112011465Y-59282560D01*
X112082894Y-59258750D01*
X112130513Y-59258750D01*
X112201941Y-59282560D01*
X112225751Y-59306369D01*
X112392418Y-59258750D02*
X112701941Y-59258750D01*
X112535275Y-59449226D01*
X112606703Y-59449226D01*
X112654322Y-59473036D01*
X112678132Y-59496845D01*
X112701941Y-59544464D01*
X112701941Y-59663512D01*
X112678132Y-59711131D01*
X112654322Y-59734940D01*
X112606703Y-59758750D01*
X112463846Y-59758750D01*
X112416227Y-59734940D01*
X112392418Y-59711131D01*
X112868608Y-59258750D02*
X113201941Y-59258750D01*
X112987656Y-59758750D01*
D16*
X125265571Y-63333271D02*
X125221761Y-63377080D01*
X125090333Y-63420890D01*
X125002714Y-63420890D01*
X124871285Y-63377080D01*
X124783666Y-63289461D01*
X124739857Y-63201842D01*
X124696047Y-63026604D01*
X124696047Y-62895176D01*
X124739857Y-62719938D01*
X124783666Y-62632319D01*
X124871285Y-62544700D01*
X125002714Y-62500890D01*
X125090333Y-62500890D01*
X125221761Y-62544700D01*
X125265571Y-62588509D01*
X125572238Y-62500890D02*
X126141761Y-62500890D01*
X125835095Y-62851366D01*
X125966523Y-62851366D01*
X126054142Y-62895176D01*
X126097952Y-62938985D01*
X126141761Y-63026604D01*
X126141761Y-63245652D01*
X126097952Y-63333271D01*
X126054142Y-63377080D01*
X125966523Y-63420890D01*
X125703666Y-63420890D01*
X125616047Y-63377080D01*
X125572238Y-63333271D01*
X126930333Y-62500890D02*
X126755095Y-62500890D01*
X126667476Y-62544700D01*
X126623666Y-62588509D01*
X126536047Y-62719938D01*
X126492238Y-62895176D01*
X126492238Y-63245652D01*
X126536047Y-63333271D01*
X126579857Y-63377080D01*
X126667476Y-63420890D01*
X126842714Y-63420890D01*
X126930333Y-63377080D01*
X126974142Y-63333271D01*
X127017952Y-63245652D01*
X127017952Y-63026604D01*
X126974142Y-62938985D01*
X126930333Y-62895176D01*
X126842714Y-62851366D01*
X126667476Y-62851366D01*
X126579857Y-62895176D01*
X126536047Y-62938985D01*
X126492238Y-63026604D01*
D13*
X112230831Y-57950911D02*
X112207021Y-57974720D01*
X112135593Y-57998530D01*
X112087974Y-57998530D01*
X112016545Y-57974720D01*
X111968926Y-57927101D01*
X111945117Y-57879482D01*
X111921307Y-57784244D01*
X111921307Y-57712816D01*
X111945117Y-57617578D01*
X111968926Y-57569959D01*
X112016545Y-57522340D01*
X112087974Y-57498530D01*
X112135593Y-57498530D01*
X112207021Y-57522340D01*
X112230831Y-57546149D01*
X112397498Y-57498530D02*
X112707021Y-57498530D01*
X112540355Y-57689006D01*
X112611783Y-57689006D01*
X112659402Y-57712816D01*
X112683212Y-57736625D01*
X112707021Y-57784244D01*
X112707021Y-57903292D01*
X112683212Y-57950911D01*
X112659402Y-57974720D01*
X112611783Y-57998530D01*
X112468926Y-57998530D01*
X112421307Y-57974720D01*
X112397498Y-57950911D01*
X113159402Y-57498530D02*
X112921307Y-57498530D01*
X112897498Y-57736625D01*
X112921307Y-57712816D01*
X112968926Y-57689006D01*
X113087974Y-57689006D01*
X113135593Y-57712816D01*
X113159402Y-57736625D01*
X113183212Y-57784244D01*
X113183212Y-57903292D01*
X113159402Y-57950911D01*
X113135593Y-57974720D01*
X113087974Y-57998530D01*
X112968926Y-57998530D01*
X112921307Y-57974720D01*
X112897498Y-57950911D01*
X112240271Y-56231331D02*
X112216461Y-56255140D01*
X112145033Y-56278950D01*
X112097414Y-56278950D01*
X112025985Y-56255140D01*
X111978366Y-56207521D01*
X111954557Y-56159902D01*
X111930747Y-56064664D01*
X111930747Y-55993236D01*
X111954557Y-55897998D01*
X111978366Y-55850379D01*
X112025985Y-55802760D01*
X112097414Y-55778950D01*
X112145033Y-55778950D01*
X112216461Y-55802760D01*
X112240271Y-55826569D01*
X112406938Y-55778950D02*
X112716461Y-55778950D01*
X112549795Y-55969426D01*
X112621223Y-55969426D01*
X112668842Y-55993236D01*
X112692652Y-56017045D01*
X112716461Y-56064664D01*
X112716461Y-56183712D01*
X112692652Y-56231331D01*
X112668842Y-56255140D01*
X112621223Y-56278950D01*
X112478366Y-56278950D01*
X112430747Y-56255140D01*
X112406938Y-56231331D01*
X113145033Y-55945617D02*
X113145033Y-56278950D01*
X113025985Y-55755140D02*
X112906938Y-56112283D01*
X113216461Y-56112283D01*
X119782471Y-67425071D02*
X119758661Y-67448880D01*
X119687233Y-67472690D01*
X119639614Y-67472690D01*
X119568185Y-67448880D01*
X119520566Y-67401261D01*
X119496757Y-67353642D01*
X119472947Y-67258404D01*
X119472947Y-67186976D01*
X119496757Y-67091738D01*
X119520566Y-67044119D01*
X119568185Y-66996500D01*
X119639614Y-66972690D01*
X119687233Y-66972690D01*
X119758661Y-66996500D01*
X119782471Y-67020309D01*
X119949138Y-66972690D02*
X120258661Y-66972690D01*
X120091995Y-67163166D01*
X120163423Y-67163166D01*
X120211042Y-67186976D01*
X120234852Y-67210785D01*
X120258661Y-67258404D01*
X120258661Y-67377452D01*
X120234852Y-67425071D01*
X120211042Y-67448880D01*
X120163423Y-67472690D01*
X120020566Y-67472690D01*
X119972947Y-67448880D01*
X119949138Y-67425071D01*
X120425328Y-66972690D02*
X120734852Y-66972690D01*
X120568185Y-67163166D01*
X120639614Y-67163166D01*
X120687233Y-67186976D01*
X120711042Y-67210785D01*
X120734852Y-67258404D01*
X120734852Y-67377452D01*
X120711042Y-67425071D01*
X120687233Y-67448880D01*
X120639614Y-67472690D01*
X120496757Y-67472690D01*
X120449138Y-67448880D01*
X120425328Y-67425071D01*
X127496071Y-56290328D02*
X127519880Y-56314138D01*
X127543690Y-56385566D01*
X127543690Y-56433185D01*
X127519880Y-56504614D01*
X127472261Y-56552233D01*
X127424642Y-56576042D01*
X127329404Y-56599852D01*
X127257976Y-56599852D01*
X127162738Y-56576042D01*
X127115119Y-56552233D01*
X127067500Y-56504614D01*
X127043690Y-56433185D01*
X127043690Y-56385566D01*
X127067500Y-56314138D01*
X127091309Y-56290328D01*
X127043690Y-56123661D02*
X127043690Y-55814138D01*
X127234166Y-55980804D01*
X127234166Y-55909376D01*
X127257976Y-55861757D01*
X127281785Y-55837947D01*
X127329404Y-55814138D01*
X127448452Y-55814138D01*
X127496071Y-55837947D01*
X127519880Y-55861757D01*
X127543690Y-55909376D01*
X127543690Y-56052233D01*
X127519880Y-56099852D01*
X127496071Y-56123661D01*
X127091309Y-55623661D02*
X127067500Y-55599852D01*
X127043690Y-55552233D01*
X127043690Y-55433185D01*
X127067500Y-55385566D01*
X127091309Y-55361757D01*
X127138928Y-55337947D01*
X127186547Y-55337947D01*
X127257976Y-55361757D01*
X127543690Y-55647471D01*
X127543690Y-55337947D01*
X112232651Y-61811711D02*
X112208841Y-61835520D01*
X112137413Y-61859330D01*
X112089794Y-61859330D01*
X112018365Y-61835520D01*
X111970746Y-61787901D01*
X111946937Y-61740282D01*
X111923127Y-61645044D01*
X111923127Y-61573616D01*
X111946937Y-61478378D01*
X111970746Y-61430759D01*
X112018365Y-61383140D01*
X112089794Y-61359330D01*
X112137413Y-61359330D01*
X112208841Y-61383140D01*
X112232651Y-61406949D01*
X112399318Y-61359330D02*
X112708841Y-61359330D01*
X112542175Y-61549806D01*
X112613603Y-61549806D01*
X112661222Y-61573616D01*
X112685032Y-61597425D01*
X112708841Y-61645044D01*
X112708841Y-61764092D01*
X112685032Y-61811711D01*
X112661222Y-61835520D01*
X112613603Y-61859330D01*
X112470746Y-61859330D01*
X112423127Y-61835520D01*
X112399318Y-61811711D01*
X113185032Y-61859330D02*
X112899318Y-61859330D01*
X113042175Y-61859330D02*
X113042175Y-61359330D01*
X112994556Y-61430759D01*
X112946937Y-61478378D01*
X112899318Y-61502187D01*
X127483371Y-57966728D02*
X127507180Y-57990538D01*
X127530990Y-58061966D01*
X127530990Y-58109585D01*
X127507180Y-58181014D01*
X127459561Y-58228633D01*
X127411942Y-58252442D01*
X127316704Y-58276252D01*
X127245276Y-58276252D01*
X127150038Y-58252442D01*
X127102419Y-58228633D01*
X127054800Y-58181014D01*
X127030990Y-58109585D01*
X127030990Y-58061966D01*
X127054800Y-57990538D01*
X127078609Y-57966728D01*
X127030990Y-57800061D02*
X127030990Y-57490538D01*
X127221466Y-57657204D01*
X127221466Y-57585776D01*
X127245276Y-57538157D01*
X127269085Y-57514347D01*
X127316704Y-57490538D01*
X127435752Y-57490538D01*
X127483371Y-57514347D01*
X127507180Y-57538157D01*
X127530990Y-57585776D01*
X127530990Y-57728633D01*
X127507180Y-57776252D01*
X127483371Y-57800061D01*
X127030990Y-57181014D02*
X127030990Y-57133395D01*
X127054800Y-57085776D01*
X127078609Y-57061966D01*
X127126228Y-57038157D01*
X127221466Y-57014347D01*
X127340514Y-57014347D01*
X127435752Y-57038157D01*
X127483371Y-57061966D01*
X127507180Y-57085776D01*
X127530990Y-57133395D01*
X127530990Y-57181014D01*
X127507180Y-57228633D01*
X127483371Y-57252442D01*
X127435752Y-57276252D01*
X127340514Y-57300061D01*
X127221466Y-57300061D01*
X127126228Y-57276252D01*
X127078609Y-57252442D01*
X127054800Y-57228633D01*
X127030990Y-57181014D01*
X112230111Y-63696391D02*
X112206301Y-63720200D01*
X112134873Y-63744010D01*
X112087254Y-63744010D01*
X112015825Y-63720200D01*
X111968206Y-63672581D01*
X111944397Y-63624962D01*
X111920587Y-63529724D01*
X111920587Y-63458296D01*
X111944397Y-63363058D01*
X111968206Y-63315439D01*
X112015825Y-63267820D01*
X112087254Y-63244010D01*
X112134873Y-63244010D01*
X112206301Y-63267820D01*
X112230111Y-63291629D01*
X112420587Y-63291629D02*
X112444397Y-63267820D01*
X112492016Y-63244010D01*
X112611063Y-63244010D01*
X112658682Y-63267820D01*
X112682492Y-63291629D01*
X112706301Y-63339248D01*
X112706301Y-63386867D01*
X112682492Y-63458296D01*
X112396778Y-63744010D01*
X112706301Y-63744010D01*
X112992016Y-63458296D02*
X112944397Y-63434486D01*
X112920587Y-63410677D01*
X112896778Y-63363058D01*
X112896778Y-63339248D01*
X112920587Y-63291629D01*
X112944397Y-63267820D01*
X112992016Y-63244010D01*
X113087254Y-63244010D01*
X113134873Y-63267820D01*
X113158682Y-63291629D01*
X113182492Y-63339248D01*
X113182492Y-63363058D01*
X113158682Y-63410677D01*
X113134873Y-63434486D01*
X113087254Y-63458296D01*
X112992016Y-63458296D01*
X112944397Y-63482105D01*
X112920587Y-63505915D01*
X112896778Y-63553534D01*
X112896778Y-63648772D01*
X112920587Y-63696391D01*
X112944397Y-63720200D01*
X112992016Y-63744010D01*
X113087254Y-63744010D01*
X113134873Y-63720200D01*
X113158682Y-63696391D01*
X113182492Y-63648772D01*
X113182492Y-63553534D01*
X113158682Y-63505915D01*
X113134873Y-63482105D01*
X113087254Y-63458296D01*
X127242071Y-59478028D02*
X127265880Y-59501838D01*
X127289690Y-59573266D01*
X127289690Y-59620885D01*
X127265880Y-59692314D01*
X127218261Y-59739933D01*
X127170642Y-59763742D01*
X127075404Y-59787552D01*
X127003976Y-59787552D01*
X126908738Y-59763742D01*
X126861119Y-59739933D01*
X126813500Y-59692314D01*
X126789690Y-59620885D01*
X126789690Y-59573266D01*
X126813500Y-59501838D01*
X126837309Y-59478028D01*
X126837309Y-59287552D02*
X126813500Y-59263742D01*
X126789690Y-59216123D01*
X126789690Y-59097076D01*
X126813500Y-59049457D01*
X126837309Y-59025647D01*
X126884928Y-59001838D01*
X126932547Y-59001838D01*
X127003976Y-59025647D01*
X127289690Y-59311361D01*
X127289690Y-59001838D01*
X126789690Y-58835171D02*
X126789690Y-58501838D01*
X127289690Y-58716123D01*
X128735971Y-61633871D02*
X128712161Y-61657680D01*
X128640733Y-61681490D01*
X128593114Y-61681490D01*
X128521685Y-61657680D01*
X128474066Y-61610061D01*
X128450257Y-61562442D01*
X128426447Y-61467204D01*
X128426447Y-61395776D01*
X128450257Y-61300538D01*
X128474066Y-61252919D01*
X128521685Y-61205300D01*
X128593114Y-61181490D01*
X128640733Y-61181490D01*
X128712161Y-61205300D01*
X128735971Y-61229109D01*
X128926447Y-61229109D02*
X128950257Y-61205300D01*
X128997876Y-61181490D01*
X129116923Y-61181490D01*
X129164542Y-61205300D01*
X129188352Y-61229109D01*
X129212161Y-61276728D01*
X129212161Y-61324347D01*
X129188352Y-61395776D01*
X128902638Y-61681490D01*
X129212161Y-61681490D01*
X129640733Y-61181490D02*
X129545495Y-61181490D01*
X129497876Y-61205300D01*
X129474066Y-61229109D01*
X129426447Y-61300538D01*
X129402638Y-61395776D01*
X129402638Y-61586252D01*
X129426447Y-61633871D01*
X129450257Y-61657680D01*
X129497876Y-61681490D01*
X129593114Y-61681490D01*
X129640733Y-61657680D01*
X129664542Y-61633871D01*
X129688352Y-61586252D01*
X129688352Y-61467204D01*
X129664542Y-61419585D01*
X129640733Y-61395776D01*
X129593114Y-61371966D01*
X129497876Y-61371966D01*
X129450257Y-61395776D01*
X129426447Y-61419585D01*
X129402638Y-61467204D01*
X133274571Y-66209028D02*
X133298380Y-66232838D01*
X133322190Y-66304266D01*
X133322190Y-66351885D01*
X133298380Y-66423314D01*
X133250761Y-66470933D01*
X133203142Y-66494742D01*
X133107904Y-66518552D01*
X133036476Y-66518552D01*
X132941238Y-66494742D01*
X132893619Y-66470933D01*
X132846000Y-66423314D01*
X132822190Y-66351885D01*
X132822190Y-66304266D01*
X132846000Y-66232838D01*
X132869809Y-66209028D01*
X132869809Y-66018552D02*
X132846000Y-65994742D01*
X132822190Y-65947123D01*
X132822190Y-65828076D01*
X132846000Y-65780457D01*
X132869809Y-65756647D01*
X132917428Y-65732838D01*
X132965047Y-65732838D01*
X133036476Y-65756647D01*
X133322190Y-66042361D01*
X133322190Y-65732838D01*
X132822190Y-65280457D02*
X132822190Y-65518552D01*
X133060285Y-65542361D01*
X133036476Y-65518552D01*
X133012666Y-65470933D01*
X133012666Y-65351885D01*
X133036476Y-65304266D01*
X133060285Y-65280457D01*
X133107904Y-65256647D01*
X133226952Y-65256647D01*
X133274571Y-65280457D01*
X133298380Y-65304266D01*
X133322190Y-65351885D01*
X133322190Y-65470933D01*
X133298380Y-65518552D01*
X133274571Y-65542361D01*
X131956691Y-80465431D02*
X131932881Y-80489240D01*
X131861453Y-80513050D01*
X131813834Y-80513050D01*
X131742405Y-80489240D01*
X131694786Y-80441621D01*
X131670977Y-80394002D01*
X131647167Y-80298764D01*
X131647167Y-80227336D01*
X131670977Y-80132098D01*
X131694786Y-80084479D01*
X131742405Y-80036860D01*
X131813834Y-80013050D01*
X131861453Y-80013050D01*
X131932881Y-80036860D01*
X131956691Y-80060669D01*
X132147167Y-80060669D02*
X132170977Y-80036860D01*
X132218596Y-80013050D01*
X132337643Y-80013050D01*
X132385262Y-80036860D01*
X132409072Y-80060669D01*
X132432881Y-80108288D01*
X132432881Y-80155907D01*
X132409072Y-80227336D01*
X132123358Y-80513050D01*
X132432881Y-80513050D01*
X132909072Y-80513050D02*
X132623358Y-80513050D01*
X132766215Y-80513050D02*
X132766215Y-80013050D01*
X132718596Y-80084479D01*
X132670977Y-80132098D01*
X132623358Y-80155907D01*
X131956691Y-82395831D02*
X131932881Y-82419640D01*
X131861453Y-82443450D01*
X131813834Y-82443450D01*
X131742405Y-82419640D01*
X131694786Y-82372021D01*
X131670977Y-82324402D01*
X131647167Y-82229164D01*
X131647167Y-82157736D01*
X131670977Y-82062498D01*
X131694786Y-82014879D01*
X131742405Y-81967260D01*
X131813834Y-81943450D01*
X131861453Y-81943450D01*
X131932881Y-81967260D01*
X131956691Y-81991069D01*
X132147167Y-81991069D02*
X132170977Y-81967260D01*
X132218596Y-81943450D01*
X132337643Y-81943450D01*
X132385262Y-81967260D01*
X132409072Y-81991069D01*
X132432881Y-82038688D01*
X132432881Y-82086307D01*
X132409072Y-82157736D01*
X132123358Y-82443450D01*
X132432881Y-82443450D01*
X132742405Y-81943450D02*
X132790024Y-81943450D01*
X132837643Y-81967260D01*
X132861453Y-81991069D01*
X132885262Y-82038688D01*
X132909072Y-82133926D01*
X132909072Y-82252974D01*
X132885262Y-82348212D01*
X132861453Y-82395831D01*
X132837643Y-82419640D01*
X132790024Y-82443450D01*
X132742405Y-82443450D01*
X132694786Y-82419640D01*
X132670977Y-82395831D01*
X132647167Y-82348212D01*
X132623358Y-82252974D01*
X132623358Y-82133926D01*
X132647167Y-82038688D01*
X132670977Y-81991069D01*
X132694786Y-81967260D01*
X132742405Y-81943450D01*
X129569091Y-84021431D02*
X129545281Y-84045240D01*
X129473853Y-84069050D01*
X129426234Y-84069050D01*
X129354805Y-84045240D01*
X129307186Y-83997621D01*
X129283377Y-83950002D01*
X129259567Y-83854764D01*
X129259567Y-83783336D01*
X129283377Y-83688098D01*
X129307186Y-83640479D01*
X129354805Y-83592860D01*
X129426234Y-83569050D01*
X129473853Y-83569050D01*
X129545281Y-83592860D01*
X129569091Y-83616669D01*
X130045281Y-84069050D02*
X129759567Y-84069050D01*
X129902424Y-84069050D02*
X129902424Y-83569050D01*
X129854805Y-83640479D01*
X129807186Y-83688098D01*
X129759567Y-83711907D01*
X130283377Y-84069050D02*
X130378615Y-84069050D01*
X130426234Y-84045240D01*
X130450043Y-84021431D01*
X130497662Y-83950002D01*
X130521472Y-83854764D01*
X130521472Y-83664288D01*
X130497662Y-83616669D01*
X130473853Y-83592860D01*
X130426234Y-83569050D01*
X130330996Y-83569050D01*
X130283377Y-83592860D01*
X130259567Y-83616669D01*
X130235758Y-83664288D01*
X130235758Y-83783336D01*
X130259567Y-83830955D01*
X130283377Y-83854764D01*
X130330996Y-83878574D01*
X130426234Y-83878574D01*
X130473853Y-83854764D01*
X130497662Y-83830955D01*
X130521472Y-83783336D01*
X132405891Y-77522188D02*
X132429700Y-77545998D01*
X132453510Y-77617426D01*
X132453510Y-77665045D01*
X132429700Y-77736474D01*
X132382081Y-77784093D01*
X132334462Y-77807902D01*
X132239224Y-77831712D01*
X132167796Y-77831712D01*
X132072558Y-77807902D01*
X132024939Y-77784093D01*
X131977320Y-77736474D01*
X131953510Y-77665045D01*
X131953510Y-77617426D01*
X131977320Y-77545998D01*
X132001129Y-77522188D01*
X132453510Y-77045998D02*
X132453510Y-77331712D01*
X132453510Y-77188855D02*
X131953510Y-77188855D01*
X132024939Y-77236474D01*
X132072558Y-77284093D01*
X132096367Y-77331712D01*
X131953510Y-76879331D02*
X131953510Y-76569807D01*
X132143986Y-76736474D01*
X132143986Y-76665045D01*
X132167796Y-76617426D01*
X132191605Y-76593617D01*
X132239224Y-76569807D01*
X132358272Y-76569807D01*
X132405891Y-76593617D01*
X132429700Y-76617426D01*
X132453510Y-76665045D01*
X132453510Y-76807902D01*
X132429700Y-76855521D01*
X132405891Y-76879331D01*
X132380491Y-79100193D02*
X132404300Y-79124002D01*
X132428110Y-79195431D01*
X132428110Y-79243050D01*
X132404300Y-79314479D01*
X132356681Y-79362098D01*
X132309062Y-79385907D01*
X132213824Y-79409717D01*
X132142396Y-79409717D01*
X132047158Y-79385907D01*
X131999539Y-79362098D01*
X131951920Y-79314479D01*
X131928110Y-79243050D01*
X131928110Y-79195431D01*
X131951920Y-79124002D01*
X131975729Y-79100193D01*
X131928110Y-78933526D02*
X131928110Y-78600193D01*
X132428110Y-78814479D01*
D12*
X102309766Y-54326280D02*
X102309766Y-55040566D01*
X102262147Y-55183423D01*
X102166909Y-55278661D01*
X102024052Y-55326280D01*
X101928814Y-55326280D01*
X102690719Y-54326280D02*
X103357385Y-54326280D01*
X102928814Y-55326280D01*
X104031766Y-64776280D02*
X104031766Y-65490566D01*
X103984147Y-65633423D01*
X103888909Y-65728661D01*
X103746052Y-65776280D01*
X103650814Y-65776280D01*
X104936528Y-64776280D02*
X104746052Y-64776280D01*
X104650814Y-64823900D01*
X104603195Y-64871519D01*
X104507957Y-65014376D01*
X104460338Y-65204852D01*
X104460338Y-65585804D01*
X104507957Y-65681042D01*
X104555576Y-65728661D01*
X104650814Y-65776280D01*
X104841290Y-65776280D01*
X104936528Y-65728661D01*
X104984147Y-65681042D01*
X105031766Y-65585804D01*
X105031766Y-65347709D01*
X104984147Y-65252471D01*
X104936528Y-65204852D01*
X104841290Y-65157233D01*
X104650814Y-65157233D01*
X104555576Y-65204852D01*
X104507957Y-65252471D01*
X104460338Y-65347709D01*
X101495266Y-74102980D02*
X101495266Y-74817266D01*
X101447647Y-74960123D01*
X101352409Y-75055361D01*
X101209552Y-75102980D01*
X101114314Y-75102980D01*
X102447647Y-74102980D02*
X101971457Y-74102980D01*
X101923838Y-74579171D01*
X101971457Y-74531552D01*
X102066695Y-74483933D01*
X102304790Y-74483933D01*
X102400028Y-74531552D01*
X102447647Y-74579171D01*
X102495266Y-74674409D01*
X102495266Y-74912504D01*
X102447647Y-75007742D01*
X102400028Y-75055361D01*
X102304790Y-75102980D01*
X102066695Y-75102980D01*
X101971457Y-75055361D01*
X101923838Y-75007742D01*
X102309766Y-63676280D02*
X102309766Y-64390566D01*
X102262147Y-64533423D01*
X102166909Y-64628661D01*
X102024052Y-64676280D01*
X101928814Y-64676280D01*
X103214528Y-64009614D02*
X103214528Y-64676280D01*
X102976433Y-63628661D02*
X102738338Y-64342947D01*
X103357385Y-64342947D01*
M02*
