G04 #@! TF.GenerationSoftware,KiCad,Pcbnew,(5.1.0)-1*
G04 #@! TF.CreationDate,2019-08-27T17:01:11-07:00*
G04 #@! TF.ProjectId,SDCard-PCB,53444361-7264-42d5-9043-422e6b696361,rev?*
G04 #@! TF.SameCoordinates,Original*
G04 #@! TF.FileFunction,Copper,L2,Inr*
G04 #@! TF.FilePolarity,Positive*
%FSLAX46Y46*%
G04 Gerber Fmt 4.6, Leading zero omitted, Abs format (unit mm)*
G04 Created by KiCad (PCBNEW (5.1.0)-1) date 2019-08-27 17:01:11*
%MOMM*%
%LPD*%
G04 APERTURE LIST*
%ADD10O,1.700000X1.700000*%
%ADD11R,1.700000X1.700000*%
%ADD12C,0.450000*%
%ADD13C,0.508000*%
%ADD14C,0.203200*%
G04 APERTURE END LIST*
D10*
X135305800Y-65351660D03*
X135305800Y-62811660D03*
X135305800Y-60271660D03*
X135305800Y-57731660D03*
D11*
X135305800Y-55191660D03*
X134995920Y-83372960D03*
X134995920Y-78902560D03*
X126601220Y-84569300D03*
X122689620Y-84554060D03*
X118762780Y-84554060D03*
X111582200Y-68122800D03*
X114790220Y-84584540D03*
X110759240Y-84569300D03*
X106934000Y-54584600D03*
X103238300Y-83563100D03*
X103238300Y-79413100D03*
X103093100Y-57513900D03*
X103035100Y-67823900D03*
X103043100Y-71973900D03*
X103093100Y-61713900D03*
D12*
X117205760Y-51635660D03*
X110909100Y-56822340D03*
X110970060Y-62565280D03*
X133195060Y-81178400D03*
X131417060Y-78112620D03*
X130509060Y-82597040D03*
X130479800Y-62217300D03*
X131457700Y-65275460D03*
X128991360Y-58930540D03*
X126682500Y-62638940D03*
X118498620Y-59291220D03*
X120903800Y-60883600D03*
X127368300Y-57658000D03*
X116340000Y-77890000D03*
X118284600Y-78755600D03*
X121557300Y-71249900D03*
X121640600Y-75311000D03*
X121043700Y-76936600D03*
X109664500Y-75184000D03*
X109639100Y-77558900D03*
X111175800Y-79375000D03*
X120980200Y-67144900D03*
X116497100Y-64058800D03*
X120103850Y-59283650D03*
X124545220Y-71331560D03*
X124545220Y-74281560D03*
X127144780Y-72798940D03*
X121640600Y-73431400D03*
X114206020Y-62567820D03*
X131345940Y-81579720D03*
X122501660Y-60888880D03*
X120098820Y-61681360D03*
X121043700Y-77711300D03*
X111620300Y-77558900D03*
X111569500Y-74396600D03*
X111582200Y-76403200D03*
X111988600Y-71920100D03*
X107111800Y-71996300D03*
X106095800Y-68592700D03*
X117703600Y-57683400D03*
X122504200Y-58483500D03*
X119319040Y-60065920D03*
X121081800Y-74409300D03*
X119435880Y-78178660D03*
X119646700Y-70147180D03*
X131345940Y-80937100D03*
X115735100Y-78625700D03*
X115277900Y-79565500D03*
X124165360Y-57670700D03*
X111574580Y-75577700D03*
X117710000Y-60880000D03*
X118290000Y-63780000D03*
X114239040Y-56822340D03*
X125036580Y-62661800D03*
X118506240Y-60883800D03*
X121701560Y-61681360D03*
X117319900Y-66268600D03*
X124307600Y-66268600D03*
X118506241Y-58480960D03*
X106908600Y-58089800D03*
X116903500Y-57683400D03*
X116903504Y-60883800D03*
X105270300Y-60858400D03*
X122920760Y-54241700D03*
X116900002Y-78880000D03*
X116900000Y-62470000D03*
X117710000Y-79490000D03*
X117710000Y-61690000D03*
X120110000Y-56890000D03*
X120510000Y-80750000D03*
X118740000Y-81510000D03*
X118503700Y-57680860D03*
X130525520Y-78122780D03*
X128640840Y-81180940D03*
X129449060Y-82586060D03*
X128818100Y-76791820D03*
X123840000Y-67570000D03*
X123840000Y-59290000D03*
X120904000Y-57683400D03*
X122110500Y-79984600D03*
X115006120Y-54823360D03*
X115026440Y-57691020D03*
X121592340Y-51765200D03*
X122699780Y-51798220D03*
X120500000Y-54300000D03*
X110230000Y-54950000D03*
X110230000Y-56100000D03*
X119310000Y-56090000D03*
X113020000Y-65760000D03*
X116100000Y-56880000D03*
X114220000Y-58710000D03*
X116900000Y-58480000D03*
X117310000Y-64720000D03*
X117700000Y-60080000D03*
X115520000Y-67640000D03*
X114750000Y-59680000D03*
X116611400Y-53632100D03*
X118506240Y-54670960D03*
X120497600Y-51694080D03*
D13*
X130520440Y-78117700D02*
X130525520Y-78122780D01*
X130525520Y-79296260D02*
X128640840Y-81180940D01*
X130525520Y-78122780D02*
X130525520Y-79296260D01*
X128640840Y-81777840D02*
X129449060Y-82586060D01*
X128640840Y-81180940D02*
X128640840Y-81777840D01*
X129194560Y-76791820D02*
X130525520Y-78122780D01*
X128818100Y-76791820D02*
X129194560Y-76791820D01*
D14*
G36*
X122618515Y-47398949D02*
G01*
X122780606Y-47447887D01*
X122930107Y-47527378D01*
X123061323Y-47634394D01*
X123169254Y-47764860D01*
X123249785Y-47913802D01*
X123299855Y-48075550D01*
X123319400Y-48261506D01*
X123319401Y-52981297D01*
X123317559Y-53000000D01*
X123324907Y-53074611D01*
X123346671Y-53146354D01*
X123382012Y-53212473D01*
X123429573Y-53270427D01*
X123487527Y-53317988D01*
X123553646Y-53353329D01*
X123625389Y-53375093D01*
X123681307Y-53380600D01*
X123700000Y-53382441D01*
X123718693Y-53380600D01*
X137119400Y-53380600D01*
X137119401Y-86619400D01*
X100380600Y-86619400D01*
X100380600Y-82713100D01*
X102030980Y-82713100D01*
X102030980Y-84413100D01*
X102037846Y-84482810D01*
X102058179Y-84549840D01*
X102091199Y-84611616D01*
X102135637Y-84665763D01*
X102189784Y-84710201D01*
X102251560Y-84743221D01*
X102318590Y-84763554D01*
X102388300Y-84770420D01*
X104088300Y-84770420D01*
X104158010Y-84763554D01*
X104225040Y-84743221D01*
X104286816Y-84710201D01*
X104340963Y-84665763D01*
X104385401Y-84611616D01*
X104418421Y-84549840D01*
X104438754Y-84482810D01*
X104445620Y-84413100D01*
X104445620Y-83719300D01*
X109551920Y-83719300D01*
X109551920Y-85419300D01*
X109558786Y-85489010D01*
X109579119Y-85556040D01*
X109612139Y-85617816D01*
X109656577Y-85671963D01*
X109710724Y-85716401D01*
X109772500Y-85749421D01*
X109839530Y-85769754D01*
X109909240Y-85776620D01*
X111609240Y-85776620D01*
X111678950Y-85769754D01*
X111745980Y-85749421D01*
X111807756Y-85716401D01*
X111861903Y-85671963D01*
X111906341Y-85617816D01*
X111939361Y-85556040D01*
X111959694Y-85489010D01*
X111966560Y-85419300D01*
X111966560Y-83734540D01*
X113582900Y-83734540D01*
X113582900Y-85434540D01*
X113589766Y-85504250D01*
X113610099Y-85571280D01*
X113643119Y-85633056D01*
X113687557Y-85687203D01*
X113741704Y-85731641D01*
X113803480Y-85764661D01*
X113870510Y-85784994D01*
X113940220Y-85791860D01*
X115640220Y-85791860D01*
X115709930Y-85784994D01*
X115776960Y-85764661D01*
X115838736Y-85731641D01*
X115892883Y-85687203D01*
X115937321Y-85633056D01*
X115970341Y-85571280D01*
X115990674Y-85504250D01*
X115997540Y-85434540D01*
X115997540Y-83734540D01*
X115994538Y-83704060D01*
X117555460Y-83704060D01*
X117555460Y-85404060D01*
X117562326Y-85473770D01*
X117582659Y-85540800D01*
X117615679Y-85602576D01*
X117660117Y-85656723D01*
X117714264Y-85701161D01*
X117776040Y-85734181D01*
X117843070Y-85754514D01*
X117912780Y-85761380D01*
X119612780Y-85761380D01*
X119682490Y-85754514D01*
X119749520Y-85734181D01*
X119811296Y-85701161D01*
X119865443Y-85656723D01*
X119909881Y-85602576D01*
X119942901Y-85540800D01*
X119963234Y-85473770D01*
X119970100Y-85404060D01*
X119970100Y-83704060D01*
X121482300Y-83704060D01*
X121482300Y-85404060D01*
X121489166Y-85473770D01*
X121509499Y-85540800D01*
X121542519Y-85602576D01*
X121586957Y-85656723D01*
X121641104Y-85701161D01*
X121702880Y-85734181D01*
X121769910Y-85754514D01*
X121839620Y-85761380D01*
X123539620Y-85761380D01*
X123609330Y-85754514D01*
X123676360Y-85734181D01*
X123738136Y-85701161D01*
X123792283Y-85656723D01*
X123836721Y-85602576D01*
X123869741Y-85540800D01*
X123890074Y-85473770D01*
X123896940Y-85404060D01*
X123896940Y-83719300D01*
X125393900Y-83719300D01*
X125393900Y-85419300D01*
X125400766Y-85489010D01*
X125421099Y-85556040D01*
X125454119Y-85617816D01*
X125498557Y-85671963D01*
X125552704Y-85716401D01*
X125614480Y-85749421D01*
X125681510Y-85769754D01*
X125751220Y-85776620D01*
X127451220Y-85776620D01*
X127520930Y-85769754D01*
X127587960Y-85749421D01*
X127649736Y-85716401D01*
X127703883Y-85671963D01*
X127748321Y-85617816D01*
X127781341Y-85556040D01*
X127801674Y-85489010D01*
X127808540Y-85419300D01*
X127808540Y-83719300D01*
X127801674Y-83649590D01*
X127781341Y-83582560D01*
X127748321Y-83520784D01*
X127703883Y-83466637D01*
X127649736Y-83422199D01*
X127587960Y-83389179D01*
X127520930Y-83368846D01*
X127451220Y-83361980D01*
X125751220Y-83361980D01*
X125681510Y-83368846D01*
X125614480Y-83389179D01*
X125552704Y-83422199D01*
X125498557Y-83466637D01*
X125454119Y-83520784D01*
X125421099Y-83582560D01*
X125400766Y-83649590D01*
X125393900Y-83719300D01*
X123896940Y-83719300D01*
X123896940Y-83704060D01*
X123890074Y-83634350D01*
X123869741Y-83567320D01*
X123836721Y-83505544D01*
X123792283Y-83451397D01*
X123738136Y-83406959D01*
X123676360Y-83373939D01*
X123609330Y-83353606D01*
X123539620Y-83346740D01*
X121839620Y-83346740D01*
X121769910Y-83353606D01*
X121702880Y-83373939D01*
X121641104Y-83406959D01*
X121586957Y-83451397D01*
X121542519Y-83505544D01*
X121509499Y-83567320D01*
X121489166Y-83634350D01*
X121482300Y-83704060D01*
X119970100Y-83704060D01*
X119963234Y-83634350D01*
X119942901Y-83567320D01*
X119909881Y-83505544D01*
X119865443Y-83451397D01*
X119811296Y-83406959D01*
X119749520Y-83373939D01*
X119682490Y-83353606D01*
X119612780Y-83346740D01*
X117912780Y-83346740D01*
X117843070Y-83353606D01*
X117776040Y-83373939D01*
X117714264Y-83406959D01*
X117660117Y-83451397D01*
X117615679Y-83505544D01*
X117582659Y-83567320D01*
X117562326Y-83634350D01*
X117555460Y-83704060D01*
X115994538Y-83704060D01*
X115990674Y-83664830D01*
X115970341Y-83597800D01*
X115937321Y-83536024D01*
X115892883Y-83481877D01*
X115838736Y-83437439D01*
X115776960Y-83404419D01*
X115709930Y-83384086D01*
X115640220Y-83377220D01*
X113940220Y-83377220D01*
X113870510Y-83384086D01*
X113803480Y-83404419D01*
X113741704Y-83437439D01*
X113687557Y-83481877D01*
X113643119Y-83536024D01*
X113610099Y-83597800D01*
X113589766Y-83664830D01*
X113582900Y-83734540D01*
X111966560Y-83734540D01*
X111966560Y-83719300D01*
X111959694Y-83649590D01*
X111939361Y-83582560D01*
X111906341Y-83520784D01*
X111861903Y-83466637D01*
X111807756Y-83422199D01*
X111745980Y-83389179D01*
X111678950Y-83368846D01*
X111609240Y-83361980D01*
X109909240Y-83361980D01*
X109839530Y-83368846D01*
X109772500Y-83389179D01*
X109710724Y-83422199D01*
X109656577Y-83466637D01*
X109612139Y-83520784D01*
X109579119Y-83582560D01*
X109558786Y-83649590D01*
X109551920Y-83719300D01*
X104445620Y-83719300D01*
X104445620Y-82713100D01*
X104438754Y-82643390D01*
X104418421Y-82576360D01*
X104385401Y-82514584D01*
X104340963Y-82460437D01*
X104286816Y-82415999D01*
X104225040Y-82382979D01*
X104158010Y-82362646D01*
X104088300Y-82355780D01*
X102388300Y-82355780D01*
X102318590Y-82362646D01*
X102251560Y-82382979D01*
X102189784Y-82415999D01*
X102135637Y-82460437D01*
X102091199Y-82514584D01*
X102058179Y-82576360D01*
X102037846Y-82643390D01*
X102030980Y-82713100D01*
X100380600Y-82713100D01*
X100380600Y-81452816D01*
X118159400Y-81452816D01*
X118159400Y-81567184D01*
X118181712Y-81679355D01*
X118225479Y-81785017D01*
X118289019Y-81880111D01*
X118369889Y-81960981D01*
X118464983Y-82024521D01*
X118570645Y-82068288D01*
X118682816Y-82090600D01*
X118797184Y-82090600D01*
X118909355Y-82068288D01*
X119015017Y-82024521D01*
X119110111Y-81960981D01*
X119190981Y-81880111D01*
X119254521Y-81785017D01*
X119298288Y-81679355D01*
X119320600Y-81567184D01*
X119320600Y-81452816D01*
X119298288Y-81340645D01*
X119254521Y-81234983D01*
X119190981Y-81139889D01*
X119110111Y-81059019D01*
X119015017Y-80995479D01*
X118909355Y-80951712D01*
X118797184Y-80929400D01*
X118682816Y-80929400D01*
X118570645Y-80951712D01*
X118464983Y-80995479D01*
X118369889Y-81059019D01*
X118289019Y-81139889D01*
X118225479Y-81234983D01*
X118181712Y-81340645D01*
X118159400Y-81452816D01*
X100380600Y-81452816D01*
X100380600Y-80692816D01*
X119929400Y-80692816D01*
X119929400Y-80807184D01*
X119951712Y-80919355D01*
X119995479Y-81025017D01*
X120059019Y-81120111D01*
X120139889Y-81200981D01*
X120234983Y-81264521D01*
X120340645Y-81308288D01*
X120452816Y-81330600D01*
X120567184Y-81330600D01*
X120679355Y-81308288D01*
X120785017Y-81264521D01*
X120880111Y-81200981D01*
X120900152Y-81180940D01*
X128028291Y-81180940D01*
X128031240Y-81210881D01*
X128031240Y-81747899D01*
X128028291Y-81777840D01*
X128031240Y-81807781D01*
X128040061Y-81897342D01*
X128074919Y-82012252D01*
X128131525Y-82118154D01*
X128207703Y-82210978D01*
X128230967Y-82230070D01*
X129039179Y-83038284D01*
X129108745Y-83095375D01*
X129214647Y-83151981D01*
X129329557Y-83186839D01*
X129449060Y-83198609D01*
X129568562Y-83186839D01*
X129683472Y-83151981D01*
X129789374Y-83095375D01*
X129882197Y-83019197D01*
X129958375Y-82926374D01*
X130014981Y-82820472D01*
X130049839Y-82705562D01*
X130061609Y-82586060D01*
X130055395Y-82522960D01*
X133788600Y-82522960D01*
X133788600Y-84222960D01*
X133795466Y-84292670D01*
X133815799Y-84359700D01*
X133848819Y-84421476D01*
X133893257Y-84475623D01*
X133947404Y-84520061D01*
X134009180Y-84553081D01*
X134076210Y-84573414D01*
X134145920Y-84580280D01*
X135845920Y-84580280D01*
X135915630Y-84573414D01*
X135982660Y-84553081D01*
X136044436Y-84520061D01*
X136098583Y-84475623D01*
X136143021Y-84421476D01*
X136176041Y-84359700D01*
X136196374Y-84292670D01*
X136203240Y-84222960D01*
X136203240Y-82522960D01*
X136196374Y-82453250D01*
X136176041Y-82386220D01*
X136143021Y-82324444D01*
X136098583Y-82270297D01*
X136044436Y-82225859D01*
X135982660Y-82192839D01*
X135915630Y-82172506D01*
X135845920Y-82165640D01*
X134145920Y-82165640D01*
X134076210Y-82172506D01*
X134009180Y-82192839D01*
X133947404Y-82225859D01*
X133893257Y-82270297D01*
X133848819Y-82324444D01*
X133815799Y-82386220D01*
X133795466Y-82453250D01*
X133788600Y-82522960D01*
X130055395Y-82522960D01*
X130049839Y-82466557D01*
X130014981Y-82351647D01*
X129958375Y-82245745D01*
X129901284Y-82176179D01*
X129250440Y-81525337D01*
X129250440Y-81433443D01*
X129803967Y-80879916D01*
X130765340Y-80879916D01*
X130765340Y-80994284D01*
X130787652Y-81106455D01*
X130831419Y-81212117D01*
X130862351Y-81258410D01*
X130831419Y-81304703D01*
X130787652Y-81410365D01*
X130765340Y-81522536D01*
X130765340Y-81636904D01*
X130787652Y-81749075D01*
X130831419Y-81854737D01*
X130894959Y-81949831D01*
X130975829Y-82030701D01*
X131070923Y-82094241D01*
X131176585Y-82138008D01*
X131288756Y-82160320D01*
X131403124Y-82160320D01*
X131515295Y-82138008D01*
X131620957Y-82094241D01*
X131716051Y-82030701D01*
X131796921Y-81949831D01*
X131860461Y-81854737D01*
X131904228Y-81749075D01*
X131926540Y-81636904D01*
X131926540Y-81522536D01*
X131904228Y-81410365D01*
X131860461Y-81304703D01*
X131829529Y-81258410D01*
X131860461Y-81212117D01*
X131904228Y-81106455D01*
X131926540Y-80994284D01*
X131926540Y-80879916D01*
X131904228Y-80767745D01*
X131860461Y-80662083D01*
X131796921Y-80566989D01*
X131716051Y-80486119D01*
X131620957Y-80422579D01*
X131515295Y-80378812D01*
X131403124Y-80356500D01*
X131288756Y-80356500D01*
X131176585Y-80378812D01*
X131070923Y-80422579D01*
X130975829Y-80486119D01*
X130894959Y-80566989D01*
X130831419Y-80662083D01*
X130787652Y-80767745D01*
X130765340Y-80879916D01*
X129803967Y-80879916D01*
X130935393Y-79748491D01*
X130958658Y-79729398D01*
X131034836Y-79636574D01*
X131091441Y-79530672D01*
X131126299Y-79415762D01*
X131138069Y-79296261D01*
X131135120Y-79266319D01*
X131135120Y-78152721D01*
X131138069Y-78122780D01*
X131131153Y-78052560D01*
X133788600Y-78052560D01*
X133788600Y-79752560D01*
X133795466Y-79822270D01*
X133815799Y-79889300D01*
X133848819Y-79951076D01*
X133893257Y-80005223D01*
X133947404Y-80049661D01*
X134009180Y-80082681D01*
X134076210Y-80103014D01*
X134145920Y-80109880D01*
X135845920Y-80109880D01*
X135915630Y-80103014D01*
X135982660Y-80082681D01*
X136044436Y-80049661D01*
X136098583Y-80005223D01*
X136143021Y-79951076D01*
X136176041Y-79889300D01*
X136196374Y-79822270D01*
X136203240Y-79752560D01*
X136203240Y-78052560D01*
X136196374Y-77982850D01*
X136176041Y-77915820D01*
X136143021Y-77854044D01*
X136098583Y-77799897D01*
X136044436Y-77755459D01*
X135982660Y-77722439D01*
X135915630Y-77702106D01*
X135845920Y-77695240D01*
X134145920Y-77695240D01*
X134076210Y-77702106D01*
X134009180Y-77722439D01*
X133947404Y-77755459D01*
X133893257Y-77799897D01*
X133848819Y-77854044D01*
X133815799Y-77915820D01*
X133795466Y-77982850D01*
X133788600Y-78052560D01*
X131131153Y-78052560D01*
X131126299Y-78003277D01*
X131091441Y-77888367D01*
X131044153Y-77799897D01*
X131034836Y-77782466D01*
X130958658Y-77689642D01*
X130935400Y-77670555D01*
X129646795Y-76381952D01*
X129627698Y-76358682D01*
X129534874Y-76282504D01*
X129428972Y-76225899D01*
X129314062Y-76191041D01*
X129224501Y-76182220D01*
X129194560Y-76179271D01*
X129164619Y-76182220D01*
X128788159Y-76182220D01*
X128698598Y-76191041D01*
X128583688Y-76225899D01*
X128477786Y-76282504D01*
X128384962Y-76358682D01*
X128308784Y-76451506D01*
X128252179Y-76557408D01*
X128217321Y-76672318D01*
X128205551Y-76791820D01*
X128217321Y-76911322D01*
X128252179Y-77026232D01*
X128308784Y-77132134D01*
X128384962Y-77224958D01*
X128477786Y-77301136D01*
X128583688Y-77357741D01*
X128698598Y-77392599D01*
X128788159Y-77401420D01*
X128942057Y-77401420D01*
X129915920Y-78375285D01*
X129915921Y-79043755D01*
X128230972Y-80728705D01*
X128207702Y-80747802D01*
X128131524Y-80840627D01*
X128074919Y-80946529D01*
X128055184Y-81011585D01*
X128040061Y-81061438D01*
X128028291Y-81180940D01*
X120900152Y-81180940D01*
X120960981Y-81120111D01*
X121024521Y-81025017D01*
X121068288Y-80919355D01*
X121090600Y-80807184D01*
X121090600Y-80692816D01*
X121068288Y-80580645D01*
X121024521Y-80474983D01*
X120960981Y-80379889D01*
X120880111Y-80299019D01*
X120785017Y-80235479D01*
X120679355Y-80191712D01*
X120567184Y-80169400D01*
X120452816Y-80169400D01*
X120340645Y-80191712D01*
X120234983Y-80235479D01*
X120139889Y-80299019D01*
X120059019Y-80379889D01*
X119995479Y-80474983D01*
X119951712Y-80580645D01*
X119929400Y-80692816D01*
X100380600Y-80692816D01*
X100380600Y-78563100D01*
X102030980Y-78563100D01*
X102030980Y-80263100D01*
X102037846Y-80332810D01*
X102058179Y-80399840D01*
X102091199Y-80461616D01*
X102135637Y-80515763D01*
X102189784Y-80560201D01*
X102251560Y-80593221D01*
X102318590Y-80613554D01*
X102388300Y-80620420D01*
X104088300Y-80620420D01*
X104158010Y-80613554D01*
X104225040Y-80593221D01*
X104286816Y-80560201D01*
X104340963Y-80515763D01*
X104385401Y-80461616D01*
X104418421Y-80399840D01*
X104438754Y-80332810D01*
X104445620Y-80263100D01*
X104445620Y-79508316D01*
X114697300Y-79508316D01*
X114697300Y-79622684D01*
X114719612Y-79734855D01*
X114763379Y-79840517D01*
X114826919Y-79935611D01*
X114907789Y-80016481D01*
X115002883Y-80080021D01*
X115108545Y-80123788D01*
X115220716Y-80146100D01*
X115335084Y-80146100D01*
X115447255Y-80123788D01*
X115552917Y-80080021D01*
X115648011Y-80016481D01*
X115728881Y-79935611D01*
X115792421Y-79840517D01*
X115836188Y-79734855D01*
X115858500Y-79622684D01*
X115858500Y-79508316D01*
X115836188Y-79396145D01*
X115792421Y-79290483D01*
X115736172Y-79206300D01*
X115792284Y-79206300D01*
X115904455Y-79183988D01*
X116010117Y-79140221D01*
X116105211Y-79076681D01*
X116186081Y-78995811D01*
X116249621Y-78900717D01*
X116281888Y-78822816D01*
X116319402Y-78822816D01*
X116319402Y-78937184D01*
X116341714Y-79049355D01*
X116385481Y-79155017D01*
X116449021Y-79250111D01*
X116529891Y-79330981D01*
X116624985Y-79394521D01*
X116730647Y-79438288D01*
X116842818Y-79460600D01*
X116957186Y-79460600D01*
X117069357Y-79438288D01*
X117133605Y-79411675D01*
X117129400Y-79432816D01*
X117129400Y-79547184D01*
X117151712Y-79659355D01*
X117195479Y-79765017D01*
X117259019Y-79860111D01*
X117339889Y-79940981D01*
X117434983Y-80004521D01*
X117540645Y-80048288D01*
X117652816Y-80070600D01*
X117767184Y-80070600D01*
X117879355Y-80048288D01*
X117985017Y-80004521D01*
X118080111Y-79940981D01*
X118093676Y-79927416D01*
X121529900Y-79927416D01*
X121529900Y-80041784D01*
X121552212Y-80153955D01*
X121595979Y-80259617D01*
X121659519Y-80354711D01*
X121740389Y-80435581D01*
X121835483Y-80499121D01*
X121941145Y-80542888D01*
X122053316Y-80565200D01*
X122167684Y-80565200D01*
X122279855Y-80542888D01*
X122385517Y-80499121D01*
X122480611Y-80435581D01*
X122561481Y-80354711D01*
X122625021Y-80259617D01*
X122668788Y-80153955D01*
X122691100Y-80041784D01*
X122691100Y-79927416D01*
X122668788Y-79815245D01*
X122625021Y-79709583D01*
X122561481Y-79614489D01*
X122480611Y-79533619D01*
X122385517Y-79470079D01*
X122279855Y-79426312D01*
X122167684Y-79404000D01*
X122053316Y-79404000D01*
X121941145Y-79426312D01*
X121835483Y-79470079D01*
X121740389Y-79533619D01*
X121659519Y-79614489D01*
X121595979Y-79709583D01*
X121552212Y-79815245D01*
X121529900Y-79927416D01*
X118093676Y-79927416D01*
X118160981Y-79860111D01*
X118224521Y-79765017D01*
X118268288Y-79659355D01*
X118290600Y-79547184D01*
X118290600Y-79432816D01*
X118268288Y-79320645D01*
X118224521Y-79214983D01*
X118160981Y-79119889D01*
X118080111Y-79039019D01*
X117985017Y-78975479D01*
X117879355Y-78931712D01*
X117767184Y-78909400D01*
X117652816Y-78909400D01*
X117540645Y-78931712D01*
X117476397Y-78958325D01*
X117480602Y-78937184D01*
X117480602Y-78822816D01*
X117458290Y-78710645D01*
X117414523Y-78604983D01*
X117350983Y-78509889D01*
X117270113Y-78429019D01*
X117175019Y-78365479D01*
X117069357Y-78321712D01*
X116957186Y-78299400D01*
X116842818Y-78299400D01*
X116730647Y-78321712D01*
X116624985Y-78365479D01*
X116529891Y-78429019D01*
X116449021Y-78509889D01*
X116385481Y-78604983D01*
X116341714Y-78710645D01*
X116319402Y-78822816D01*
X116281888Y-78822816D01*
X116293388Y-78795055D01*
X116315700Y-78682884D01*
X116315700Y-78568516D01*
X116293388Y-78456345D01*
X116249621Y-78350683D01*
X116186081Y-78255589D01*
X116105211Y-78174719D01*
X116025528Y-78121476D01*
X118855280Y-78121476D01*
X118855280Y-78235844D01*
X118877592Y-78348015D01*
X118921359Y-78453677D01*
X118984899Y-78548771D01*
X119065769Y-78629641D01*
X119160863Y-78693181D01*
X119266525Y-78736948D01*
X119378696Y-78759260D01*
X119493064Y-78759260D01*
X119605235Y-78736948D01*
X119710897Y-78693181D01*
X119805991Y-78629641D01*
X119886861Y-78548771D01*
X119950401Y-78453677D01*
X119994168Y-78348015D01*
X120016480Y-78235844D01*
X120016480Y-78121476D01*
X119994168Y-78009305D01*
X119950401Y-77903643D01*
X119886861Y-77808549D01*
X119805991Y-77727679D01*
X119710897Y-77664139D01*
X119686700Y-77654116D01*
X120463100Y-77654116D01*
X120463100Y-77768484D01*
X120485412Y-77880655D01*
X120529179Y-77986317D01*
X120592719Y-78081411D01*
X120673589Y-78162281D01*
X120768683Y-78225821D01*
X120874345Y-78269588D01*
X120986516Y-78291900D01*
X121100884Y-78291900D01*
X121213055Y-78269588D01*
X121318717Y-78225821D01*
X121413811Y-78162281D01*
X121494681Y-78081411D01*
X121558221Y-77986317D01*
X121601988Y-77880655D01*
X121624300Y-77768484D01*
X121624300Y-77654116D01*
X121601988Y-77541945D01*
X121558221Y-77436283D01*
X121494681Y-77341189D01*
X121413811Y-77260319D01*
X121318717Y-77196779D01*
X121213055Y-77153012D01*
X121100884Y-77130700D01*
X120986516Y-77130700D01*
X120874345Y-77153012D01*
X120768683Y-77196779D01*
X120673589Y-77260319D01*
X120592719Y-77341189D01*
X120529179Y-77436283D01*
X120485412Y-77541945D01*
X120463100Y-77654116D01*
X119686700Y-77654116D01*
X119605235Y-77620372D01*
X119493064Y-77598060D01*
X119378696Y-77598060D01*
X119266525Y-77620372D01*
X119160863Y-77664139D01*
X119065769Y-77727679D01*
X118984899Y-77808549D01*
X118921359Y-77903643D01*
X118877592Y-78009305D01*
X118855280Y-78121476D01*
X116025528Y-78121476D01*
X116010117Y-78111179D01*
X115904455Y-78067412D01*
X115792284Y-78045100D01*
X115677916Y-78045100D01*
X115565745Y-78067412D01*
X115460083Y-78111179D01*
X115364989Y-78174719D01*
X115284119Y-78255589D01*
X115220579Y-78350683D01*
X115176812Y-78456345D01*
X115154500Y-78568516D01*
X115154500Y-78682884D01*
X115176812Y-78795055D01*
X115220579Y-78900717D01*
X115276828Y-78984900D01*
X115220716Y-78984900D01*
X115108545Y-79007212D01*
X115002883Y-79050979D01*
X114907789Y-79114519D01*
X114826919Y-79195389D01*
X114763379Y-79290483D01*
X114719612Y-79396145D01*
X114697300Y-79508316D01*
X104445620Y-79508316D01*
X104445620Y-78563100D01*
X104438754Y-78493390D01*
X104418421Y-78426360D01*
X104385401Y-78364584D01*
X104340963Y-78310437D01*
X104286816Y-78265999D01*
X104225040Y-78232979D01*
X104158010Y-78212646D01*
X104088300Y-78205780D01*
X102388300Y-78205780D01*
X102318590Y-78212646D01*
X102251560Y-78232979D01*
X102189784Y-78265999D01*
X102135637Y-78310437D01*
X102091199Y-78364584D01*
X102058179Y-78426360D01*
X102037846Y-78493390D01*
X102030980Y-78563100D01*
X100380600Y-78563100D01*
X100380600Y-75520516D01*
X110993980Y-75520516D01*
X110993980Y-75634884D01*
X111016292Y-75747055D01*
X111060059Y-75852717D01*
X111123599Y-75947811D01*
X111170048Y-75994260D01*
X111131219Y-76033089D01*
X111067679Y-76128183D01*
X111023912Y-76233845D01*
X111001600Y-76346016D01*
X111001600Y-76460384D01*
X111023912Y-76572555D01*
X111067679Y-76678217D01*
X111131219Y-76773311D01*
X111212089Y-76854181D01*
X111307183Y-76917721D01*
X111412845Y-76961488D01*
X111525016Y-76983800D01*
X111535465Y-76983800D01*
X111450945Y-77000612D01*
X111345283Y-77044379D01*
X111250189Y-77107919D01*
X111169319Y-77188789D01*
X111105779Y-77283883D01*
X111062012Y-77389545D01*
X111039700Y-77501716D01*
X111039700Y-77616084D01*
X111062012Y-77728255D01*
X111105779Y-77833917D01*
X111169319Y-77929011D01*
X111250189Y-78009881D01*
X111345283Y-78073421D01*
X111450945Y-78117188D01*
X111563116Y-78139500D01*
X111677484Y-78139500D01*
X111789655Y-78117188D01*
X111895317Y-78073421D01*
X111990411Y-78009881D01*
X112071281Y-77929011D01*
X112134821Y-77833917D01*
X112178588Y-77728255D01*
X112200900Y-77616084D01*
X112200900Y-77501716D01*
X112178588Y-77389545D01*
X112134821Y-77283883D01*
X112071281Y-77188789D01*
X111990411Y-77107919D01*
X111895317Y-77044379D01*
X111789655Y-77000612D01*
X111677484Y-76978300D01*
X111667035Y-76978300D01*
X111751555Y-76961488D01*
X111857217Y-76917721D01*
X111952311Y-76854181D01*
X112033181Y-76773311D01*
X112096721Y-76678217D01*
X112140488Y-76572555D01*
X112162800Y-76460384D01*
X112162800Y-76346016D01*
X112140488Y-76233845D01*
X112096721Y-76128183D01*
X112033181Y-76033089D01*
X111986732Y-75986640D01*
X112025561Y-75947811D01*
X112089101Y-75852717D01*
X112132868Y-75747055D01*
X112155180Y-75634884D01*
X112155180Y-75520516D01*
X112132868Y-75408345D01*
X112089101Y-75302683D01*
X112025561Y-75207589D01*
X111944691Y-75126719D01*
X111849597Y-75063179D01*
X111743935Y-75019412D01*
X111631764Y-74997100D01*
X111517396Y-74997100D01*
X111405225Y-75019412D01*
X111299563Y-75063179D01*
X111204469Y-75126719D01*
X111123599Y-75207589D01*
X111060059Y-75302683D01*
X111016292Y-75408345D01*
X110993980Y-75520516D01*
X100380600Y-75520516D01*
X100380600Y-74339416D01*
X110988900Y-74339416D01*
X110988900Y-74453784D01*
X111011212Y-74565955D01*
X111054979Y-74671617D01*
X111118519Y-74766711D01*
X111199389Y-74847581D01*
X111294483Y-74911121D01*
X111400145Y-74954888D01*
X111512316Y-74977200D01*
X111626684Y-74977200D01*
X111738855Y-74954888D01*
X111844517Y-74911121D01*
X111939611Y-74847581D01*
X112020481Y-74766711D01*
X112084021Y-74671617D01*
X112127788Y-74565955D01*
X112150100Y-74453784D01*
X112150100Y-74352116D01*
X120501200Y-74352116D01*
X120501200Y-74466484D01*
X120523512Y-74578655D01*
X120567279Y-74684317D01*
X120630819Y-74779411D01*
X120711689Y-74860281D01*
X120806783Y-74923821D01*
X120912445Y-74967588D01*
X121024616Y-74989900D01*
X121138984Y-74989900D01*
X121251155Y-74967588D01*
X121356817Y-74923821D01*
X121451911Y-74860281D01*
X121532781Y-74779411D01*
X121596321Y-74684317D01*
X121640088Y-74578655D01*
X121662400Y-74466484D01*
X121662400Y-74352116D01*
X121640088Y-74239945D01*
X121596321Y-74134283D01*
X121532781Y-74039189D01*
X121451911Y-73958319D01*
X121356817Y-73894779D01*
X121251155Y-73851012D01*
X121138984Y-73828700D01*
X121024616Y-73828700D01*
X120912445Y-73851012D01*
X120806783Y-73894779D01*
X120711689Y-73958319D01*
X120630819Y-74039189D01*
X120567279Y-74134283D01*
X120523512Y-74239945D01*
X120501200Y-74352116D01*
X112150100Y-74352116D01*
X112150100Y-74339416D01*
X112127788Y-74227245D01*
X112084021Y-74121583D01*
X112020481Y-74026489D01*
X111939611Y-73945619D01*
X111844517Y-73882079D01*
X111738855Y-73838312D01*
X111626684Y-73816000D01*
X111512316Y-73816000D01*
X111400145Y-73838312D01*
X111294483Y-73882079D01*
X111199389Y-73945619D01*
X111118519Y-74026489D01*
X111054979Y-74121583D01*
X111011212Y-74227245D01*
X110988900Y-74339416D01*
X100380600Y-74339416D01*
X100380600Y-71123900D01*
X101835780Y-71123900D01*
X101835780Y-72823900D01*
X101842646Y-72893610D01*
X101862979Y-72960640D01*
X101895999Y-73022416D01*
X101940437Y-73076563D01*
X101994584Y-73121001D01*
X102056360Y-73154021D01*
X102123390Y-73174354D01*
X102193100Y-73181220D01*
X103893100Y-73181220D01*
X103962810Y-73174354D01*
X104029840Y-73154021D01*
X104091616Y-73121001D01*
X104145763Y-73076563D01*
X104190201Y-73022416D01*
X104223221Y-72960640D01*
X104243554Y-72893610D01*
X104250420Y-72823900D01*
X104250420Y-71939116D01*
X106531200Y-71939116D01*
X106531200Y-72053484D01*
X106553512Y-72165655D01*
X106597279Y-72271317D01*
X106660819Y-72366411D01*
X106741689Y-72447281D01*
X106836783Y-72510821D01*
X106942445Y-72554588D01*
X107054616Y-72576900D01*
X107168984Y-72576900D01*
X107281155Y-72554588D01*
X107386817Y-72510821D01*
X107481911Y-72447281D01*
X107562781Y-72366411D01*
X107626321Y-72271317D01*
X107670088Y-72165655D01*
X107692400Y-72053484D01*
X107692400Y-71939116D01*
X107677244Y-71862916D01*
X111408000Y-71862916D01*
X111408000Y-71977284D01*
X111430312Y-72089455D01*
X111474079Y-72195117D01*
X111537619Y-72290211D01*
X111618489Y-72371081D01*
X111713583Y-72434621D01*
X111819245Y-72478388D01*
X111931416Y-72500700D01*
X112045784Y-72500700D01*
X112157955Y-72478388D01*
X112263617Y-72434621D01*
X112358711Y-72371081D01*
X112439581Y-72290211D01*
X112503121Y-72195117D01*
X112546888Y-72089455D01*
X112569200Y-71977284D01*
X112569200Y-71862916D01*
X112546888Y-71750745D01*
X112503121Y-71645083D01*
X112439581Y-71549989D01*
X112358711Y-71469119D01*
X112263617Y-71405579D01*
X112157955Y-71361812D01*
X112045784Y-71339500D01*
X111931416Y-71339500D01*
X111819245Y-71361812D01*
X111713583Y-71405579D01*
X111618489Y-71469119D01*
X111537619Y-71549989D01*
X111474079Y-71645083D01*
X111430312Y-71750745D01*
X111408000Y-71862916D01*
X107677244Y-71862916D01*
X107670088Y-71826945D01*
X107626321Y-71721283D01*
X107562781Y-71626189D01*
X107481911Y-71545319D01*
X107386817Y-71481779D01*
X107281155Y-71438012D01*
X107168984Y-71415700D01*
X107054616Y-71415700D01*
X106942445Y-71438012D01*
X106836783Y-71481779D01*
X106741689Y-71545319D01*
X106660819Y-71626189D01*
X106597279Y-71721283D01*
X106553512Y-71826945D01*
X106531200Y-71939116D01*
X104250420Y-71939116D01*
X104250420Y-71123900D01*
X104243554Y-71054190D01*
X104223221Y-70987160D01*
X104190201Y-70925384D01*
X104145763Y-70871237D01*
X104091616Y-70826799D01*
X104029840Y-70793779D01*
X103962810Y-70773446D01*
X103893100Y-70766580D01*
X102193100Y-70766580D01*
X102123390Y-70773446D01*
X102056360Y-70793779D01*
X101994584Y-70826799D01*
X101940437Y-70871237D01*
X101895999Y-70925384D01*
X101862979Y-70987160D01*
X101842646Y-71054190D01*
X101835780Y-71123900D01*
X100380600Y-71123900D01*
X100380600Y-70089996D01*
X119066100Y-70089996D01*
X119066100Y-70204364D01*
X119088412Y-70316535D01*
X119132179Y-70422197D01*
X119195719Y-70517291D01*
X119276589Y-70598161D01*
X119371683Y-70661701D01*
X119477345Y-70705468D01*
X119589516Y-70727780D01*
X119703884Y-70727780D01*
X119816055Y-70705468D01*
X119921717Y-70661701D01*
X120016811Y-70598161D01*
X120097681Y-70517291D01*
X120161221Y-70422197D01*
X120204988Y-70316535D01*
X120227300Y-70204364D01*
X120227300Y-70089996D01*
X120204988Y-69977825D01*
X120161221Y-69872163D01*
X120097681Y-69777069D01*
X120016811Y-69696199D01*
X119921717Y-69632659D01*
X119816055Y-69588892D01*
X119703884Y-69566580D01*
X119589516Y-69566580D01*
X119477345Y-69588892D01*
X119371683Y-69632659D01*
X119276589Y-69696199D01*
X119195719Y-69777069D01*
X119132179Y-69872163D01*
X119088412Y-69977825D01*
X119066100Y-70089996D01*
X100380600Y-70089996D01*
X100380600Y-66973900D01*
X101827780Y-66973900D01*
X101827780Y-68673900D01*
X101834646Y-68743610D01*
X101854979Y-68810640D01*
X101887999Y-68872416D01*
X101932437Y-68926563D01*
X101986584Y-68971001D01*
X102048360Y-69004021D01*
X102115390Y-69024354D01*
X102185100Y-69031220D01*
X103885100Y-69031220D01*
X103954810Y-69024354D01*
X104021840Y-69004021D01*
X104083616Y-68971001D01*
X104137763Y-68926563D01*
X104182201Y-68872416D01*
X104215221Y-68810640D01*
X104235554Y-68743610D01*
X104242420Y-68673900D01*
X104242420Y-68535516D01*
X105515200Y-68535516D01*
X105515200Y-68649884D01*
X105537512Y-68762055D01*
X105581279Y-68867717D01*
X105644819Y-68962811D01*
X105725689Y-69043681D01*
X105820783Y-69107221D01*
X105926445Y-69150988D01*
X106038616Y-69173300D01*
X106152984Y-69173300D01*
X106265155Y-69150988D01*
X106370817Y-69107221D01*
X106465911Y-69043681D01*
X106546781Y-68962811D01*
X106610321Y-68867717D01*
X106654088Y-68762055D01*
X106676400Y-68649884D01*
X106676400Y-68535516D01*
X106654088Y-68423345D01*
X106610321Y-68317683D01*
X106546781Y-68222589D01*
X106465911Y-68141719D01*
X106370817Y-68078179D01*
X106265155Y-68034412D01*
X106152984Y-68012100D01*
X106038616Y-68012100D01*
X105926445Y-68034412D01*
X105820783Y-68078179D01*
X105725689Y-68141719D01*
X105644819Y-68222589D01*
X105581279Y-68317683D01*
X105537512Y-68423345D01*
X105515200Y-68535516D01*
X104242420Y-68535516D01*
X104242420Y-67272800D01*
X110374880Y-67272800D01*
X110374880Y-68972800D01*
X110381746Y-69042510D01*
X110402079Y-69109540D01*
X110435099Y-69171316D01*
X110479537Y-69225463D01*
X110533684Y-69269901D01*
X110595460Y-69302921D01*
X110662490Y-69323254D01*
X110732200Y-69330120D01*
X112432200Y-69330120D01*
X112501910Y-69323254D01*
X112568940Y-69302921D01*
X112630716Y-69269901D01*
X112684863Y-69225463D01*
X112729301Y-69171316D01*
X112762321Y-69109540D01*
X112782654Y-69042510D01*
X112789520Y-68972800D01*
X112789520Y-67582816D01*
X114939400Y-67582816D01*
X114939400Y-67697184D01*
X114961712Y-67809355D01*
X115005479Y-67915017D01*
X115069019Y-68010111D01*
X115149889Y-68090981D01*
X115244983Y-68154521D01*
X115350645Y-68198288D01*
X115462816Y-68220600D01*
X115577184Y-68220600D01*
X115689355Y-68198288D01*
X115795017Y-68154521D01*
X115890111Y-68090981D01*
X115970981Y-68010111D01*
X116034521Y-67915017D01*
X116078288Y-67809355D01*
X116100600Y-67697184D01*
X116100600Y-67582816D01*
X116086677Y-67512816D01*
X123259400Y-67512816D01*
X123259400Y-67627184D01*
X123281712Y-67739355D01*
X123325479Y-67845017D01*
X123389019Y-67940111D01*
X123469889Y-68020981D01*
X123564983Y-68084521D01*
X123670645Y-68128288D01*
X123782816Y-68150600D01*
X123897184Y-68150600D01*
X124009355Y-68128288D01*
X124115017Y-68084521D01*
X124210111Y-68020981D01*
X124290981Y-67940111D01*
X124354521Y-67845017D01*
X124398288Y-67739355D01*
X124420600Y-67627184D01*
X124420600Y-67512816D01*
X124398288Y-67400645D01*
X124354521Y-67294983D01*
X124290981Y-67199889D01*
X124210111Y-67119019D01*
X124115017Y-67055479D01*
X124009355Y-67011712D01*
X123897184Y-66989400D01*
X123782816Y-66989400D01*
X123670645Y-67011712D01*
X123564983Y-67055479D01*
X123469889Y-67119019D01*
X123389019Y-67199889D01*
X123325479Y-67294983D01*
X123281712Y-67400645D01*
X123259400Y-67512816D01*
X116086677Y-67512816D01*
X116078288Y-67470645D01*
X116034521Y-67364983D01*
X115970981Y-67269889D01*
X115890111Y-67189019D01*
X115795017Y-67125479D01*
X115689355Y-67081712D01*
X115577184Y-67059400D01*
X115462816Y-67059400D01*
X115350645Y-67081712D01*
X115244983Y-67125479D01*
X115149889Y-67189019D01*
X115069019Y-67269889D01*
X115005479Y-67364983D01*
X114961712Y-67470645D01*
X114939400Y-67582816D01*
X112789520Y-67582816D01*
X112789520Y-67272800D01*
X112782654Y-67203090D01*
X112762321Y-67136060D01*
X112729301Y-67074284D01*
X112684863Y-67020137D01*
X112630716Y-66975699D01*
X112568940Y-66942679D01*
X112501910Y-66922346D01*
X112432200Y-66915480D01*
X110732200Y-66915480D01*
X110662490Y-66922346D01*
X110595460Y-66942679D01*
X110533684Y-66975699D01*
X110479537Y-67020137D01*
X110435099Y-67074284D01*
X110402079Y-67136060D01*
X110381746Y-67203090D01*
X110374880Y-67272800D01*
X104242420Y-67272800D01*
X104242420Y-66973900D01*
X104235554Y-66904190D01*
X104215221Y-66837160D01*
X104182201Y-66775384D01*
X104137763Y-66721237D01*
X104083616Y-66676799D01*
X104021840Y-66643779D01*
X103954810Y-66623446D01*
X103885100Y-66616580D01*
X102185100Y-66616580D01*
X102115390Y-66623446D01*
X102048360Y-66643779D01*
X101986584Y-66676799D01*
X101932437Y-66721237D01*
X101887999Y-66775384D01*
X101854979Y-66837160D01*
X101834646Y-66904190D01*
X101827780Y-66973900D01*
X100380600Y-66973900D01*
X100380600Y-65702816D01*
X112439400Y-65702816D01*
X112439400Y-65817184D01*
X112461712Y-65929355D01*
X112505479Y-66035017D01*
X112569019Y-66130111D01*
X112649889Y-66210981D01*
X112744983Y-66274521D01*
X112850645Y-66318288D01*
X112962816Y-66340600D01*
X113077184Y-66340600D01*
X113189355Y-66318288D01*
X113295017Y-66274521D01*
X113389459Y-66211416D01*
X116739300Y-66211416D01*
X116739300Y-66325784D01*
X116761612Y-66437955D01*
X116805379Y-66543617D01*
X116868919Y-66638711D01*
X116949789Y-66719581D01*
X117044883Y-66783121D01*
X117150545Y-66826888D01*
X117262716Y-66849200D01*
X117377084Y-66849200D01*
X117489255Y-66826888D01*
X117594917Y-66783121D01*
X117690011Y-66719581D01*
X117770881Y-66638711D01*
X117834421Y-66543617D01*
X117878188Y-66437955D01*
X117900500Y-66325784D01*
X117900500Y-66211416D01*
X123727000Y-66211416D01*
X123727000Y-66325784D01*
X123749312Y-66437955D01*
X123793079Y-66543617D01*
X123856619Y-66638711D01*
X123937489Y-66719581D01*
X124032583Y-66783121D01*
X124138245Y-66826888D01*
X124250416Y-66849200D01*
X124364784Y-66849200D01*
X124476955Y-66826888D01*
X124582617Y-66783121D01*
X124677711Y-66719581D01*
X124758581Y-66638711D01*
X124822121Y-66543617D01*
X124865888Y-66437955D01*
X124888200Y-66325784D01*
X124888200Y-66211416D01*
X124865888Y-66099245D01*
X124822121Y-65993583D01*
X124758581Y-65898489D01*
X124677711Y-65817619D01*
X124582617Y-65754079D01*
X124476955Y-65710312D01*
X124364784Y-65688000D01*
X124250416Y-65688000D01*
X124138245Y-65710312D01*
X124032583Y-65754079D01*
X123937489Y-65817619D01*
X123856619Y-65898489D01*
X123793079Y-65993583D01*
X123749312Y-66099245D01*
X123727000Y-66211416D01*
X117900500Y-66211416D01*
X117878188Y-66099245D01*
X117834421Y-65993583D01*
X117770881Y-65898489D01*
X117690011Y-65817619D01*
X117594917Y-65754079D01*
X117489255Y-65710312D01*
X117377084Y-65688000D01*
X117262716Y-65688000D01*
X117150545Y-65710312D01*
X117044883Y-65754079D01*
X116949789Y-65817619D01*
X116868919Y-65898489D01*
X116805379Y-65993583D01*
X116761612Y-66099245D01*
X116739300Y-66211416D01*
X113389459Y-66211416D01*
X113390111Y-66210981D01*
X113470981Y-66130111D01*
X113534521Y-66035017D01*
X113578288Y-65929355D01*
X113600600Y-65817184D01*
X113600600Y-65702816D01*
X113578288Y-65590645D01*
X113534521Y-65484983D01*
X113470981Y-65389889D01*
X113432752Y-65351660D01*
X134094367Y-65351660D01*
X134117644Y-65587999D01*
X134186582Y-65815255D01*
X134298530Y-66024696D01*
X134449188Y-66208272D01*
X134632764Y-66358930D01*
X134842205Y-66470878D01*
X135069461Y-66539816D01*
X135246576Y-66557260D01*
X135365024Y-66557260D01*
X135542139Y-66539816D01*
X135769395Y-66470878D01*
X135978836Y-66358930D01*
X136162412Y-66208272D01*
X136313070Y-66024696D01*
X136425018Y-65815255D01*
X136493956Y-65587999D01*
X136517233Y-65351660D01*
X136493956Y-65115321D01*
X136425018Y-64888065D01*
X136313070Y-64678624D01*
X136162412Y-64495048D01*
X135978836Y-64344390D01*
X135769395Y-64232442D01*
X135542139Y-64163504D01*
X135365024Y-64146060D01*
X135246576Y-64146060D01*
X135069461Y-64163504D01*
X134842205Y-64232442D01*
X134632764Y-64344390D01*
X134449188Y-64495048D01*
X134298530Y-64678624D01*
X134186582Y-64888065D01*
X134117644Y-65115321D01*
X134094367Y-65351660D01*
X113432752Y-65351660D01*
X113390111Y-65309019D01*
X113295017Y-65245479D01*
X113189355Y-65201712D01*
X113077184Y-65179400D01*
X112962816Y-65179400D01*
X112850645Y-65201712D01*
X112744983Y-65245479D01*
X112649889Y-65309019D01*
X112569019Y-65389889D01*
X112505479Y-65484983D01*
X112461712Y-65590645D01*
X112439400Y-65702816D01*
X100380600Y-65702816D01*
X100380600Y-64662816D01*
X116729400Y-64662816D01*
X116729400Y-64777184D01*
X116751712Y-64889355D01*
X116795479Y-64995017D01*
X116859019Y-65090111D01*
X116939889Y-65170981D01*
X117034983Y-65234521D01*
X117140645Y-65278288D01*
X117252816Y-65300600D01*
X117367184Y-65300600D01*
X117479355Y-65278288D01*
X117585017Y-65234521D01*
X117680111Y-65170981D01*
X117760981Y-65090111D01*
X117824521Y-64995017D01*
X117868288Y-64889355D01*
X117890600Y-64777184D01*
X117890600Y-64662816D01*
X117868288Y-64550645D01*
X117824521Y-64444983D01*
X117760981Y-64349889D01*
X117680111Y-64269019D01*
X117585017Y-64205479D01*
X117479355Y-64161712D01*
X117367184Y-64139400D01*
X117252816Y-64139400D01*
X117140645Y-64161712D01*
X117034983Y-64205479D01*
X116939889Y-64269019D01*
X116859019Y-64349889D01*
X116795479Y-64444983D01*
X116751712Y-64550645D01*
X116729400Y-64662816D01*
X100380600Y-64662816D01*
X100380600Y-63722816D01*
X117709400Y-63722816D01*
X117709400Y-63837184D01*
X117731712Y-63949355D01*
X117775479Y-64055017D01*
X117839019Y-64150111D01*
X117919889Y-64230981D01*
X118014983Y-64294521D01*
X118120645Y-64338288D01*
X118232816Y-64360600D01*
X118347184Y-64360600D01*
X118459355Y-64338288D01*
X118565017Y-64294521D01*
X118660111Y-64230981D01*
X118740981Y-64150111D01*
X118804521Y-64055017D01*
X118848288Y-63949355D01*
X118870600Y-63837184D01*
X118870600Y-63722816D01*
X118848288Y-63610645D01*
X118804521Y-63504983D01*
X118740981Y-63409889D01*
X118660111Y-63329019D01*
X118565017Y-63265479D01*
X118459355Y-63221712D01*
X118347184Y-63199400D01*
X118232816Y-63199400D01*
X118120645Y-63221712D01*
X118014983Y-63265479D01*
X117919889Y-63329019D01*
X117839019Y-63409889D01*
X117775479Y-63504983D01*
X117731712Y-63610645D01*
X117709400Y-63722816D01*
X100380600Y-63722816D01*
X100380600Y-60863900D01*
X101885780Y-60863900D01*
X101885780Y-62563900D01*
X101892646Y-62633610D01*
X101912979Y-62700640D01*
X101945999Y-62762416D01*
X101990437Y-62816563D01*
X102044584Y-62861001D01*
X102106360Y-62894021D01*
X102173390Y-62914354D01*
X102243100Y-62921220D01*
X103943100Y-62921220D01*
X104012810Y-62914354D01*
X104079840Y-62894021D01*
X104141616Y-62861001D01*
X104195763Y-62816563D01*
X104240201Y-62762416D01*
X104273221Y-62700640D01*
X104293554Y-62633610D01*
X104300420Y-62563900D01*
X104300420Y-62510636D01*
X113625420Y-62510636D01*
X113625420Y-62625004D01*
X113647732Y-62737175D01*
X113691499Y-62842837D01*
X113755039Y-62937931D01*
X113835909Y-63018801D01*
X113931003Y-63082341D01*
X114036665Y-63126108D01*
X114148836Y-63148420D01*
X114263204Y-63148420D01*
X114375375Y-63126108D01*
X114481037Y-63082341D01*
X114576131Y-63018801D01*
X114657001Y-62937931D01*
X114720541Y-62842837D01*
X114764308Y-62737175D01*
X114786620Y-62625004D01*
X114786620Y-62510636D01*
X114767163Y-62412816D01*
X116319400Y-62412816D01*
X116319400Y-62527184D01*
X116341712Y-62639355D01*
X116385479Y-62745017D01*
X116449019Y-62840111D01*
X116529889Y-62920981D01*
X116624983Y-62984521D01*
X116730645Y-63028288D01*
X116842816Y-63050600D01*
X116957184Y-63050600D01*
X117069355Y-63028288D01*
X117175017Y-62984521D01*
X117270111Y-62920981D01*
X117350981Y-62840111D01*
X117414521Y-62745017D01*
X117458288Y-62639355D01*
X117465197Y-62604616D01*
X124455980Y-62604616D01*
X124455980Y-62718984D01*
X124478292Y-62831155D01*
X124522059Y-62936817D01*
X124585599Y-63031911D01*
X124666469Y-63112781D01*
X124761563Y-63176321D01*
X124867225Y-63220088D01*
X124979396Y-63242400D01*
X125093764Y-63242400D01*
X125205935Y-63220088D01*
X125311597Y-63176321D01*
X125406691Y-63112781D01*
X125487561Y-63031911D01*
X125551101Y-62936817D01*
X125594868Y-62831155D01*
X125598745Y-62811660D01*
X134094367Y-62811660D01*
X134117644Y-63047999D01*
X134186582Y-63275255D01*
X134298530Y-63484696D01*
X134449188Y-63668272D01*
X134632764Y-63818930D01*
X134842205Y-63930878D01*
X135069461Y-63999816D01*
X135246576Y-64017260D01*
X135365024Y-64017260D01*
X135542139Y-63999816D01*
X135769395Y-63930878D01*
X135978836Y-63818930D01*
X136162412Y-63668272D01*
X136313070Y-63484696D01*
X136425018Y-63275255D01*
X136493956Y-63047999D01*
X136517233Y-62811660D01*
X136493956Y-62575321D01*
X136425018Y-62348065D01*
X136313070Y-62138624D01*
X136162412Y-61955048D01*
X135978836Y-61804390D01*
X135769395Y-61692442D01*
X135542139Y-61623504D01*
X135365024Y-61606060D01*
X135246576Y-61606060D01*
X135069461Y-61623504D01*
X134842205Y-61692442D01*
X134632764Y-61804390D01*
X134449188Y-61955048D01*
X134298530Y-62138624D01*
X134186582Y-62348065D01*
X134117644Y-62575321D01*
X134094367Y-62811660D01*
X125598745Y-62811660D01*
X125617180Y-62718984D01*
X125617180Y-62604616D01*
X125594868Y-62492445D01*
X125551101Y-62386783D01*
X125487561Y-62291689D01*
X125406691Y-62210819D01*
X125311597Y-62147279D01*
X125205935Y-62103512D01*
X125093764Y-62081200D01*
X124979396Y-62081200D01*
X124867225Y-62103512D01*
X124761563Y-62147279D01*
X124666469Y-62210819D01*
X124585599Y-62291689D01*
X124522059Y-62386783D01*
X124478292Y-62492445D01*
X124455980Y-62604616D01*
X117465197Y-62604616D01*
X117480600Y-62527184D01*
X117480600Y-62412816D01*
X117458288Y-62300645D01*
X117414521Y-62194983D01*
X117409530Y-62187514D01*
X117434983Y-62204521D01*
X117540645Y-62248288D01*
X117652816Y-62270600D01*
X117767184Y-62270600D01*
X117879355Y-62248288D01*
X117985017Y-62204521D01*
X118080111Y-62140981D01*
X118160981Y-62060111D01*
X118224521Y-61965017D01*
X118268288Y-61859355D01*
X118290600Y-61747184D01*
X118290600Y-61632816D01*
X118288882Y-61624176D01*
X119518220Y-61624176D01*
X119518220Y-61738544D01*
X119540532Y-61850715D01*
X119584299Y-61956377D01*
X119647839Y-62051471D01*
X119728709Y-62132341D01*
X119823803Y-62195881D01*
X119929465Y-62239648D01*
X120041636Y-62261960D01*
X120156004Y-62261960D01*
X120268175Y-62239648D01*
X120373837Y-62195881D01*
X120468931Y-62132341D01*
X120549801Y-62051471D01*
X120613341Y-61956377D01*
X120657108Y-61850715D01*
X120679420Y-61738544D01*
X120679420Y-61624176D01*
X121120960Y-61624176D01*
X121120960Y-61738544D01*
X121143272Y-61850715D01*
X121187039Y-61956377D01*
X121250579Y-62051471D01*
X121331449Y-62132341D01*
X121426543Y-62195881D01*
X121532205Y-62239648D01*
X121644376Y-62261960D01*
X121758744Y-62261960D01*
X121870915Y-62239648D01*
X121976577Y-62195881D01*
X122071671Y-62132341D01*
X122152541Y-62051471D01*
X122216081Y-61956377D01*
X122259848Y-61850715D01*
X122282160Y-61738544D01*
X122282160Y-61624176D01*
X122259848Y-61512005D01*
X122216081Y-61406343D01*
X122204011Y-61388278D01*
X122226643Y-61403401D01*
X122332305Y-61447168D01*
X122444476Y-61469480D01*
X122558844Y-61469480D01*
X122671015Y-61447168D01*
X122776677Y-61403401D01*
X122871771Y-61339861D01*
X122952641Y-61258991D01*
X123016181Y-61163897D01*
X123059948Y-61058235D01*
X123082260Y-60946064D01*
X123082260Y-60831696D01*
X123059948Y-60719525D01*
X123016181Y-60613863D01*
X122952641Y-60518769D01*
X122871771Y-60437899D01*
X122776677Y-60374359D01*
X122671015Y-60330592D01*
X122558844Y-60308280D01*
X122444476Y-60308280D01*
X122332305Y-60330592D01*
X122226643Y-60374359D01*
X122131549Y-60437899D01*
X122050679Y-60518769D01*
X121987139Y-60613863D01*
X121943372Y-60719525D01*
X121921060Y-60831696D01*
X121921060Y-60946064D01*
X121943372Y-61058235D01*
X121987139Y-61163897D01*
X121999209Y-61181962D01*
X121976577Y-61166839D01*
X121870915Y-61123072D01*
X121758744Y-61100760D01*
X121644376Y-61100760D01*
X121532205Y-61123072D01*
X121426543Y-61166839D01*
X121331449Y-61230379D01*
X121250579Y-61311249D01*
X121187039Y-61406343D01*
X121143272Y-61512005D01*
X121120960Y-61624176D01*
X120679420Y-61624176D01*
X120657108Y-61512005D01*
X120613341Y-61406343D01*
X120549801Y-61311249D01*
X120468931Y-61230379D01*
X120373837Y-61166839D01*
X120268175Y-61123072D01*
X120156004Y-61100760D01*
X120041636Y-61100760D01*
X119929465Y-61123072D01*
X119823803Y-61166839D01*
X119728709Y-61230379D01*
X119647839Y-61311249D01*
X119584299Y-61406343D01*
X119540532Y-61512005D01*
X119518220Y-61624176D01*
X118288882Y-61624176D01*
X118268288Y-61520645D01*
X118224521Y-61414983D01*
X118199002Y-61376792D01*
X118231223Y-61398321D01*
X118336885Y-61442088D01*
X118449056Y-61464400D01*
X118563424Y-61464400D01*
X118675595Y-61442088D01*
X118781257Y-61398321D01*
X118876351Y-61334781D01*
X118957221Y-61253911D01*
X119020761Y-61158817D01*
X119064528Y-61053155D01*
X119086840Y-60940984D01*
X119086840Y-60826616D01*
X119064528Y-60714445D01*
X119020761Y-60608783D01*
X118967786Y-60529501D01*
X119044023Y-60580441D01*
X119149685Y-60624208D01*
X119261856Y-60646520D01*
X119376224Y-60646520D01*
X119488395Y-60624208D01*
X119594057Y-60580441D01*
X119689151Y-60516901D01*
X119770021Y-60436031D01*
X119833561Y-60340937D01*
X119862256Y-60271660D01*
X134094367Y-60271660D01*
X134117644Y-60507999D01*
X134186582Y-60735255D01*
X134298530Y-60944696D01*
X134449188Y-61128272D01*
X134632764Y-61278930D01*
X134842205Y-61390878D01*
X135069461Y-61459816D01*
X135246576Y-61477260D01*
X135365024Y-61477260D01*
X135542139Y-61459816D01*
X135769395Y-61390878D01*
X135978836Y-61278930D01*
X136162412Y-61128272D01*
X136313070Y-60944696D01*
X136425018Y-60735255D01*
X136493956Y-60507999D01*
X136517233Y-60271660D01*
X136493956Y-60035321D01*
X136425018Y-59808065D01*
X136313070Y-59598624D01*
X136162412Y-59415048D01*
X135978836Y-59264390D01*
X135769395Y-59152442D01*
X135542139Y-59083504D01*
X135365024Y-59066060D01*
X135246576Y-59066060D01*
X135069461Y-59083504D01*
X134842205Y-59152442D01*
X134632764Y-59264390D01*
X134449188Y-59415048D01*
X134298530Y-59598624D01*
X134186582Y-59808065D01*
X134117644Y-60035321D01*
X134094367Y-60271660D01*
X119862256Y-60271660D01*
X119877328Y-60235275D01*
X119899640Y-60123104D01*
X119899640Y-60008736D01*
X119877328Y-59896565D01*
X119833561Y-59790903D01*
X119770021Y-59695809D01*
X119689151Y-59614939D01*
X119594057Y-59551399D01*
X119488395Y-59507632D01*
X119376224Y-59485320D01*
X119261856Y-59485320D01*
X119149685Y-59507632D01*
X119044023Y-59551399D01*
X118948929Y-59614939D01*
X118868059Y-59695809D01*
X118804519Y-59790903D01*
X118760752Y-59896565D01*
X118738440Y-60008736D01*
X118738440Y-60123104D01*
X118760752Y-60235275D01*
X118804519Y-60340937D01*
X118857494Y-60420219D01*
X118781257Y-60369279D01*
X118675595Y-60325512D01*
X118563424Y-60303200D01*
X118449056Y-60303200D01*
X118336885Y-60325512D01*
X118231223Y-60369279D01*
X118183834Y-60400944D01*
X118214521Y-60355017D01*
X118258288Y-60249355D01*
X118280600Y-60137184D01*
X118280600Y-60022816D01*
X118258288Y-59910645D01*
X118214521Y-59804983D01*
X118150981Y-59709889D01*
X118070111Y-59629019D01*
X117975017Y-59565479D01*
X117869355Y-59521712D01*
X117757184Y-59499400D01*
X117642816Y-59499400D01*
X117530645Y-59521712D01*
X117424983Y-59565479D01*
X117329889Y-59629019D01*
X117249019Y-59709889D01*
X117185479Y-59804983D01*
X117141712Y-59910645D01*
X117119400Y-60022816D01*
X117119400Y-60137184D01*
X117141712Y-60249355D01*
X117185479Y-60355017D01*
X117208307Y-60389181D01*
X117178521Y-60369279D01*
X117072859Y-60325512D01*
X116960688Y-60303200D01*
X116846320Y-60303200D01*
X116734149Y-60325512D01*
X116628487Y-60369279D01*
X116533393Y-60432819D01*
X116452523Y-60513689D01*
X116388983Y-60608783D01*
X116345216Y-60714445D01*
X116322904Y-60826616D01*
X116322904Y-60940984D01*
X116345216Y-61053155D01*
X116388983Y-61158817D01*
X116452523Y-61253911D01*
X116533393Y-61334781D01*
X116628487Y-61398321D01*
X116734149Y-61442088D01*
X116846320Y-61464400D01*
X116960688Y-61464400D01*
X117072859Y-61442088D01*
X117178521Y-61398321D01*
X117229270Y-61364412D01*
X117195479Y-61414983D01*
X117151712Y-61520645D01*
X117129400Y-61632816D01*
X117129400Y-61747184D01*
X117151712Y-61859355D01*
X117195479Y-61965017D01*
X117200470Y-61972486D01*
X117175017Y-61955479D01*
X117069355Y-61911712D01*
X116957184Y-61889400D01*
X116842816Y-61889400D01*
X116730645Y-61911712D01*
X116624983Y-61955479D01*
X116529889Y-62019019D01*
X116449019Y-62099889D01*
X116385479Y-62194983D01*
X116341712Y-62300645D01*
X116319400Y-62412816D01*
X114767163Y-62412816D01*
X114764308Y-62398465D01*
X114720541Y-62292803D01*
X114657001Y-62197709D01*
X114576131Y-62116839D01*
X114481037Y-62053299D01*
X114375375Y-62009532D01*
X114263204Y-61987220D01*
X114148836Y-61987220D01*
X114036665Y-62009532D01*
X113931003Y-62053299D01*
X113835909Y-62116839D01*
X113755039Y-62197709D01*
X113691499Y-62292803D01*
X113647732Y-62398465D01*
X113625420Y-62510636D01*
X104300420Y-62510636D01*
X104300420Y-60863900D01*
X104294247Y-60801216D01*
X104689700Y-60801216D01*
X104689700Y-60915584D01*
X104712012Y-61027755D01*
X104755779Y-61133417D01*
X104819319Y-61228511D01*
X104900189Y-61309381D01*
X104995283Y-61372921D01*
X105100945Y-61416688D01*
X105213116Y-61439000D01*
X105327484Y-61439000D01*
X105439655Y-61416688D01*
X105545317Y-61372921D01*
X105640411Y-61309381D01*
X105721281Y-61228511D01*
X105784821Y-61133417D01*
X105828588Y-61027755D01*
X105850900Y-60915584D01*
X105850900Y-60801216D01*
X105828588Y-60689045D01*
X105784821Y-60583383D01*
X105721281Y-60488289D01*
X105640411Y-60407419D01*
X105545317Y-60343879D01*
X105439655Y-60300112D01*
X105327484Y-60277800D01*
X105213116Y-60277800D01*
X105100945Y-60300112D01*
X104995283Y-60343879D01*
X104900189Y-60407419D01*
X104819319Y-60488289D01*
X104755779Y-60583383D01*
X104712012Y-60689045D01*
X104689700Y-60801216D01*
X104294247Y-60801216D01*
X104293554Y-60794190D01*
X104273221Y-60727160D01*
X104240201Y-60665384D01*
X104195763Y-60611237D01*
X104141616Y-60566799D01*
X104079840Y-60533779D01*
X104012810Y-60513446D01*
X103943100Y-60506580D01*
X102243100Y-60506580D01*
X102173390Y-60513446D01*
X102106360Y-60533779D01*
X102044584Y-60566799D01*
X101990437Y-60611237D01*
X101945999Y-60665384D01*
X101912979Y-60727160D01*
X101892646Y-60794190D01*
X101885780Y-60863900D01*
X100380600Y-60863900D01*
X100380600Y-58363900D01*
X101885779Y-58363900D01*
X101892645Y-58433610D01*
X101912978Y-58500641D01*
X101945998Y-58562417D01*
X101990436Y-58616564D01*
X102044583Y-58661002D01*
X102106359Y-58694022D01*
X102173390Y-58714355D01*
X102243100Y-58721221D01*
X102978800Y-58719500D01*
X103067700Y-58630600D01*
X103067700Y-57539300D01*
X103118500Y-57539300D01*
X103118500Y-58630600D01*
X103207400Y-58719500D01*
X103943100Y-58721221D01*
X104012810Y-58714355D01*
X104079841Y-58694022D01*
X104141617Y-58661002D01*
X104195764Y-58616564D01*
X104240202Y-58562417D01*
X104273222Y-58500641D01*
X104293555Y-58433610D01*
X104300421Y-58363900D01*
X104299647Y-58032616D01*
X106328000Y-58032616D01*
X106328000Y-58146984D01*
X106350312Y-58259155D01*
X106394079Y-58364817D01*
X106457619Y-58459911D01*
X106538489Y-58540781D01*
X106633583Y-58604321D01*
X106739245Y-58648088D01*
X106851416Y-58670400D01*
X106965784Y-58670400D01*
X107054185Y-58652816D01*
X113639400Y-58652816D01*
X113639400Y-58767184D01*
X113661712Y-58879355D01*
X113705479Y-58985017D01*
X113769019Y-59080111D01*
X113849889Y-59160981D01*
X113944983Y-59224521D01*
X114050645Y-59268288D01*
X114162816Y-59290600D01*
X114277184Y-59290600D01*
X114328519Y-59280389D01*
X114299019Y-59309889D01*
X114235479Y-59404983D01*
X114191712Y-59510645D01*
X114169400Y-59622816D01*
X114169400Y-59737184D01*
X114191712Y-59849355D01*
X114235479Y-59955017D01*
X114299019Y-60050111D01*
X114379889Y-60130981D01*
X114474983Y-60194521D01*
X114580645Y-60238288D01*
X114692816Y-60260600D01*
X114807184Y-60260600D01*
X114919355Y-60238288D01*
X115025017Y-60194521D01*
X115120111Y-60130981D01*
X115200981Y-60050111D01*
X115264521Y-59955017D01*
X115308288Y-59849355D01*
X115330600Y-59737184D01*
X115330600Y-59622816D01*
X115308288Y-59510645D01*
X115264521Y-59404983D01*
X115200981Y-59309889D01*
X115123908Y-59232816D01*
X123259400Y-59232816D01*
X123259400Y-59347184D01*
X123281712Y-59459355D01*
X123325479Y-59565017D01*
X123389019Y-59660111D01*
X123469889Y-59740981D01*
X123564983Y-59804521D01*
X123670645Y-59848288D01*
X123782816Y-59870600D01*
X123897184Y-59870600D01*
X124009355Y-59848288D01*
X124115017Y-59804521D01*
X124210111Y-59740981D01*
X124290981Y-59660111D01*
X124354521Y-59565017D01*
X124398288Y-59459355D01*
X124420600Y-59347184D01*
X124420600Y-59232816D01*
X124398288Y-59120645D01*
X124354521Y-59014983D01*
X124290981Y-58919889D01*
X124210111Y-58839019D01*
X124115017Y-58775479D01*
X124009355Y-58731712D01*
X123897184Y-58709400D01*
X123782816Y-58709400D01*
X123670645Y-58731712D01*
X123564983Y-58775479D01*
X123469889Y-58839019D01*
X123389019Y-58919889D01*
X123325479Y-59014983D01*
X123281712Y-59120645D01*
X123259400Y-59232816D01*
X115123908Y-59232816D01*
X115120111Y-59229019D01*
X115025017Y-59165479D01*
X114919355Y-59121712D01*
X114807184Y-59099400D01*
X114692816Y-59099400D01*
X114641481Y-59109611D01*
X114670981Y-59080111D01*
X114734521Y-58985017D01*
X114778288Y-58879355D01*
X114800600Y-58767184D01*
X114800600Y-58652816D01*
X114778288Y-58540645D01*
X114734521Y-58434983D01*
X114670981Y-58339889D01*
X114590111Y-58259019D01*
X114495017Y-58195479D01*
X114389355Y-58151712D01*
X114277184Y-58129400D01*
X114162816Y-58129400D01*
X114050645Y-58151712D01*
X113944983Y-58195479D01*
X113849889Y-58259019D01*
X113769019Y-58339889D01*
X113705479Y-58434983D01*
X113661712Y-58540645D01*
X113639400Y-58652816D01*
X107054185Y-58652816D01*
X107077955Y-58648088D01*
X107183617Y-58604321D01*
X107278711Y-58540781D01*
X107359581Y-58459911D01*
X107423121Y-58364817D01*
X107466888Y-58259155D01*
X107489200Y-58146984D01*
X107489200Y-58032616D01*
X107466888Y-57920445D01*
X107423121Y-57814783D01*
X107359581Y-57719689D01*
X107278711Y-57638819D01*
X107271254Y-57633836D01*
X114445840Y-57633836D01*
X114445840Y-57748204D01*
X114468152Y-57860375D01*
X114511919Y-57966037D01*
X114575459Y-58061131D01*
X114656329Y-58142001D01*
X114751423Y-58205541D01*
X114857085Y-58249308D01*
X114969256Y-58271620D01*
X115083624Y-58271620D01*
X115195795Y-58249308D01*
X115301457Y-58205541D01*
X115396551Y-58142001D01*
X115477421Y-58061131D01*
X115540961Y-57966037D01*
X115584728Y-57860375D01*
X115607040Y-57748204D01*
X115607040Y-57633836D01*
X115584728Y-57521665D01*
X115540961Y-57416003D01*
X115477421Y-57320909D01*
X115396551Y-57240039D01*
X115301457Y-57176499D01*
X115195795Y-57132732D01*
X115083624Y-57110420D01*
X114969256Y-57110420D01*
X114857085Y-57132732D01*
X114751423Y-57176499D01*
X114656329Y-57240039D01*
X114575459Y-57320909D01*
X114511919Y-57416003D01*
X114468152Y-57521665D01*
X114445840Y-57633836D01*
X107271254Y-57633836D01*
X107183617Y-57575279D01*
X107077955Y-57531512D01*
X106965784Y-57509200D01*
X106851416Y-57509200D01*
X106739245Y-57531512D01*
X106633583Y-57575279D01*
X106538489Y-57638819D01*
X106457619Y-57719689D01*
X106394079Y-57814783D01*
X106350312Y-57920445D01*
X106328000Y-58032616D01*
X104299647Y-58032616D01*
X104298700Y-57628200D01*
X104209800Y-57539300D01*
X103118500Y-57539300D01*
X103067700Y-57539300D01*
X101976400Y-57539300D01*
X101887500Y-57628200D01*
X101885779Y-58363900D01*
X100380600Y-58363900D01*
X100380600Y-56663900D01*
X101885779Y-56663900D01*
X101887500Y-57399600D01*
X101976400Y-57488500D01*
X103067700Y-57488500D01*
X103067700Y-56397200D01*
X103118500Y-56397200D01*
X103118500Y-57488500D01*
X104209800Y-57488500D01*
X104298700Y-57399600D01*
X104300184Y-56765156D01*
X113658440Y-56765156D01*
X113658440Y-56879524D01*
X113680752Y-56991695D01*
X113724519Y-57097357D01*
X113788059Y-57192451D01*
X113868929Y-57273321D01*
X113964023Y-57336861D01*
X114069685Y-57380628D01*
X114181856Y-57402940D01*
X114296224Y-57402940D01*
X114408395Y-57380628D01*
X114514057Y-57336861D01*
X114609151Y-57273321D01*
X114690021Y-57192451D01*
X114753561Y-57097357D01*
X114797328Y-56991695D01*
X114819640Y-56879524D01*
X114819640Y-56822816D01*
X115519400Y-56822816D01*
X115519400Y-56937184D01*
X115541712Y-57049355D01*
X115585479Y-57155017D01*
X115649019Y-57250111D01*
X115729889Y-57330981D01*
X115824983Y-57394521D01*
X115930645Y-57438288D01*
X116042816Y-57460600D01*
X116157184Y-57460600D01*
X116269355Y-57438288D01*
X116375017Y-57394521D01*
X116416973Y-57366487D01*
X116388979Y-57408383D01*
X116345212Y-57514045D01*
X116322900Y-57626216D01*
X116322900Y-57740584D01*
X116345212Y-57852755D01*
X116388979Y-57958417D01*
X116452519Y-58053511D01*
X116478958Y-58079950D01*
X116449019Y-58109889D01*
X116385479Y-58204983D01*
X116341712Y-58310645D01*
X116319400Y-58422816D01*
X116319400Y-58537184D01*
X116341712Y-58649355D01*
X116385479Y-58755017D01*
X116449019Y-58850111D01*
X116529889Y-58930981D01*
X116624983Y-58994521D01*
X116730645Y-59038288D01*
X116842816Y-59060600D01*
X116957184Y-59060600D01*
X117069355Y-59038288D01*
X117175017Y-58994521D01*
X117270111Y-58930981D01*
X117350981Y-58850111D01*
X117414521Y-58755017D01*
X117458288Y-58649355D01*
X117480600Y-58537184D01*
X117480600Y-58422816D01*
X117458288Y-58310645D01*
X117414521Y-58204983D01*
X117394654Y-58175250D01*
X117428583Y-58197921D01*
X117534245Y-58241688D01*
X117646416Y-58264000D01*
X117760784Y-58264000D01*
X117872955Y-58241688D01*
X117978617Y-58197921D01*
X118011972Y-58175634D01*
X117991720Y-58205943D01*
X117947953Y-58311605D01*
X117925641Y-58423776D01*
X117925641Y-58538144D01*
X117947953Y-58650315D01*
X117991720Y-58755977D01*
X118055260Y-58851071D01*
X118136130Y-58931941D01*
X118231224Y-58995481D01*
X118336886Y-59039248D01*
X118449057Y-59061560D01*
X118563425Y-59061560D01*
X118675596Y-59039248D01*
X118781258Y-58995481D01*
X118876352Y-58931941D01*
X118957222Y-58851071D01*
X119020762Y-58755977D01*
X119064529Y-58650315D01*
X119086841Y-58538144D01*
X119086841Y-58426316D01*
X121923600Y-58426316D01*
X121923600Y-58540684D01*
X121945912Y-58652855D01*
X121989679Y-58758517D01*
X122053219Y-58853611D01*
X122134089Y-58934481D01*
X122229183Y-58998021D01*
X122334845Y-59041788D01*
X122447016Y-59064100D01*
X122561384Y-59064100D01*
X122673555Y-59041788D01*
X122779217Y-58998021D01*
X122874311Y-58934481D01*
X122955181Y-58853611D01*
X123018721Y-58758517D01*
X123062488Y-58652855D01*
X123084800Y-58540684D01*
X123084800Y-58426316D01*
X123062488Y-58314145D01*
X123018721Y-58208483D01*
X122955181Y-58113389D01*
X122874311Y-58032519D01*
X122779217Y-57968979D01*
X122673555Y-57925212D01*
X122561384Y-57902900D01*
X122447016Y-57902900D01*
X122334845Y-57925212D01*
X122229183Y-57968979D01*
X122134089Y-58032519D01*
X122053219Y-58113389D01*
X121989679Y-58208483D01*
X121945912Y-58314145D01*
X121923600Y-58426316D01*
X119086841Y-58426316D01*
X119086841Y-58423776D01*
X119064529Y-58311605D01*
X119020762Y-58205943D01*
X118957222Y-58110849D01*
X118926013Y-58079640D01*
X118954681Y-58050971D01*
X119018221Y-57955877D01*
X119061988Y-57850215D01*
X119084300Y-57738044D01*
X119084300Y-57623676D01*
X119061988Y-57511505D01*
X119018221Y-57405843D01*
X118954681Y-57310749D01*
X118873811Y-57229879D01*
X118778717Y-57166339D01*
X118673055Y-57122572D01*
X118560884Y-57100260D01*
X118446516Y-57100260D01*
X118334345Y-57122572D01*
X118228683Y-57166339D01*
X118133589Y-57229879D01*
X118102380Y-57261088D01*
X118073711Y-57232419D01*
X117978617Y-57168879D01*
X117872955Y-57125112D01*
X117760784Y-57102800D01*
X117646416Y-57102800D01*
X117534245Y-57125112D01*
X117428583Y-57168879D01*
X117333489Y-57232419D01*
X117303550Y-57262358D01*
X117273611Y-57232419D01*
X117178517Y-57168879D01*
X117072855Y-57125112D01*
X116960684Y-57102800D01*
X116846316Y-57102800D01*
X116734145Y-57125112D01*
X116628483Y-57168879D01*
X116586527Y-57196913D01*
X116614521Y-57155017D01*
X116658288Y-57049355D01*
X116680600Y-56937184D01*
X116680600Y-56822816D01*
X116658288Y-56710645D01*
X116614521Y-56604983D01*
X116550981Y-56509889D01*
X116470111Y-56429019D01*
X116375017Y-56365479D01*
X116269355Y-56321712D01*
X116157184Y-56299400D01*
X116042816Y-56299400D01*
X115930645Y-56321712D01*
X115824983Y-56365479D01*
X115729889Y-56429019D01*
X115649019Y-56509889D01*
X115585479Y-56604983D01*
X115541712Y-56710645D01*
X115519400Y-56822816D01*
X114819640Y-56822816D01*
X114819640Y-56765156D01*
X114797328Y-56652985D01*
X114753561Y-56547323D01*
X114690021Y-56452229D01*
X114609151Y-56371359D01*
X114514057Y-56307819D01*
X114408395Y-56264052D01*
X114296224Y-56241740D01*
X114181856Y-56241740D01*
X114069685Y-56264052D01*
X113964023Y-56307819D01*
X113868929Y-56371359D01*
X113788059Y-56452229D01*
X113724519Y-56547323D01*
X113680752Y-56652985D01*
X113658440Y-56765156D01*
X104300184Y-56765156D01*
X104300421Y-56663900D01*
X104293555Y-56594190D01*
X104273222Y-56527159D01*
X104240202Y-56465383D01*
X104195764Y-56411236D01*
X104141617Y-56366798D01*
X104079841Y-56333778D01*
X104012810Y-56313445D01*
X103943100Y-56306579D01*
X103207400Y-56308300D01*
X103118500Y-56397200D01*
X103067700Y-56397200D01*
X102978800Y-56308300D01*
X102243100Y-56306579D01*
X102173390Y-56313445D01*
X102106359Y-56333778D01*
X102044583Y-56366798D01*
X101990436Y-56411236D01*
X101945998Y-56465383D01*
X101912978Y-56527159D01*
X101892645Y-56594190D01*
X101885779Y-56663900D01*
X100380600Y-56663900D01*
X100380600Y-53380600D01*
X106050292Y-53380600D01*
X106014290Y-53384146D01*
X105947260Y-53404479D01*
X105885484Y-53437499D01*
X105831337Y-53481937D01*
X105786899Y-53536084D01*
X105753879Y-53597860D01*
X105733546Y-53664890D01*
X105726680Y-53734600D01*
X105726680Y-55434600D01*
X105733546Y-55504310D01*
X105753879Y-55571340D01*
X105786899Y-55633116D01*
X105831337Y-55687263D01*
X105885484Y-55731701D01*
X105947260Y-55764721D01*
X106014290Y-55785054D01*
X106084000Y-55791920D01*
X107784000Y-55791920D01*
X107853710Y-55785054D01*
X107920740Y-55764721D01*
X107982516Y-55731701D01*
X108036663Y-55687263D01*
X108081101Y-55633116D01*
X108114121Y-55571340D01*
X108134454Y-55504310D01*
X108141320Y-55434600D01*
X108141320Y-54892816D01*
X109649400Y-54892816D01*
X109649400Y-55007184D01*
X109671712Y-55119355D01*
X109715479Y-55225017D01*
X109779019Y-55320111D01*
X109859889Y-55400981D01*
X109954983Y-55464521D01*
X110060645Y-55508288D01*
X110144663Y-55525000D01*
X110060645Y-55541712D01*
X109954983Y-55585479D01*
X109859889Y-55649019D01*
X109779019Y-55729889D01*
X109715479Y-55824983D01*
X109671712Y-55930645D01*
X109649400Y-56042816D01*
X109649400Y-56157184D01*
X109671712Y-56269355D01*
X109715479Y-56375017D01*
X109779019Y-56470111D01*
X109859889Y-56550981D01*
X109954983Y-56614521D01*
X110060645Y-56658288D01*
X110172816Y-56680600D01*
X110287184Y-56680600D01*
X110399355Y-56658288D01*
X110505017Y-56614521D01*
X110600111Y-56550981D01*
X110680981Y-56470111D01*
X110744521Y-56375017D01*
X110788288Y-56269355D01*
X110810600Y-56157184D01*
X110810600Y-56042816D01*
X110808611Y-56032816D01*
X118729400Y-56032816D01*
X118729400Y-56147184D01*
X118751712Y-56259355D01*
X118795479Y-56365017D01*
X118859019Y-56460111D01*
X118939889Y-56540981D01*
X119034983Y-56604521D01*
X119140645Y-56648288D01*
X119252816Y-56670600D01*
X119367184Y-56670600D01*
X119479355Y-56648288D01*
X119585017Y-56604521D01*
X119616546Y-56583454D01*
X119595479Y-56614983D01*
X119551712Y-56720645D01*
X119529400Y-56832816D01*
X119529400Y-56947184D01*
X119551712Y-57059355D01*
X119595479Y-57165017D01*
X119659019Y-57260111D01*
X119739889Y-57340981D01*
X119834983Y-57404521D01*
X119940645Y-57448288D01*
X120052816Y-57470600D01*
X120167184Y-57470600D01*
X120279355Y-57448288D01*
X120385017Y-57404521D01*
X120397740Y-57396020D01*
X120389479Y-57408383D01*
X120345712Y-57514045D01*
X120323400Y-57626216D01*
X120323400Y-57740584D01*
X120345712Y-57852755D01*
X120389479Y-57958417D01*
X120453019Y-58053511D01*
X120533889Y-58134381D01*
X120628983Y-58197921D01*
X120734645Y-58241688D01*
X120846816Y-58264000D01*
X120961184Y-58264000D01*
X121073355Y-58241688D01*
X121179017Y-58197921D01*
X121274111Y-58134381D01*
X121354981Y-58053511D01*
X121418521Y-57958417D01*
X121462288Y-57852755D01*
X121484600Y-57740584D01*
X121484600Y-57626216D01*
X121482074Y-57613516D01*
X123584760Y-57613516D01*
X123584760Y-57727884D01*
X123607072Y-57840055D01*
X123650839Y-57945717D01*
X123714379Y-58040811D01*
X123795249Y-58121681D01*
X123890343Y-58185221D01*
X123996005Y-58228988D01*
X124108176Y-58251300D01*
X124222544Y-58251300D01*
X124334715Y-58228988D01*
X124440377Y-58185221D01*
X124535471Y-58121681D01*
X124616341Y-58040811D01*
X124679881Y-57945717D01*
X124723648Y-57840055D01*
X124745208Y-57731660D01*
X134094367Y-57731660D01*
X134117644Y-57967999D01*
X134186582Y-58195255D01*
X134298530Y-58404696D01*
X134449188Y-58588272D01*
X134632764Y-58738930D01*
X134842205Y-58850878D01*
X135069461Y-58919816D01*
X135246576Y-58937260D01*
X135365024Y-58937260D01*
X135542139Y-58919816D01*
X135769395Y-58850878D01*
X135978836Y-58738930D01*
X136162412Y-58588272D01*
X136313070Y-58404696D01*
X136425018Y-58195255D01*
X136493956Y-57967999D01*
X136517233Y-57731660D01*
X136493956Y-57495321D01*
X136425018Y-57268065D01*
X136313070Y-57058624D01*
X136162412Y-56875048D01*
X135978836Y-56724390D01*
X135769395Y-56612442D01*
X135542139Y-56543504D01*
X135365024Y-56526060D01*
X135246576Y-56526060D01*
X135069461Y-56543504D01*
X134842205Y-56612442D01*
X134632764Y-56724390D01*
X134449188Y-56875048D01*
X134298530Y-57058624D01*
X134186582Y-57268065D01*
X134117644Y-57495321D01*
X134094367Y-57731660D01*
X124745208Y-57731660D01*
X124745960Y-57727884D01*
X124745960Y-57613516D01*
X124723648Y-57501345D01*
X124679881Y-57395683D01*
X124616341Y-57300589D01*
X124535471Y-57219719D01*
X124440377Y-57156179D01*
X124334715Y-57112412D01*
X124222544Y-57090100D01*
X124108176Y-57090100D01*
X123996005Y-57112412D01*
X123890343Y-57156179D01*
X123795249Y-57219719D01*
X123714379Y-57300589D01*
X123650839Y-57395683D01*
X123607072Y-57501345D01*
X123584760Y-57613516D01*
X121482074Y-57613516D01*
X121462288Y-57514045D01*
X121418521Y-57408383D01*
X121354981Y-57313289D01*
X121274111Y-57232419D01*
X121179017Y-57168879D01*
X121073355Y-57125112D01*
X120961184Y-57102800D01*
X120846816Y-57102800D01*
X120734645Y-57125112D01*
X120628983Y-57168879D01*
X120616260Y-57177380D01*
X120624521Y-57165017D01*
X120668288Y-57059355D01*
X120690600Y-56947184D01*
X120690600Y-56832816D01*
X120668288Y-56720645D01*
X120624521Y-56614983D01*
X120560981Y-56519889D01*
X120480111Y-56439019D01*
X120385017Y-56375479D01*
X120279355Y-56331712D01*
X120167184Y-56309400D01*
X120052816Y-56309400D01*
X119940645Y-56331712D01*
X119834983Y-56375479D01*
X119803454Y-56396546D01*
X119824521Y-56365017D01*
X119868288Y-56259355D01*
X119890600Y-56147184D01*
X119890600Y-56032816D01*
X119868288Y-55920645D01*
X119824521Y-55814983D01*
X119760981Y-55719889D01*
X119680111Y-55639019D01*
X119585017Y-55575479D01*
X119479355Y-55531712D01*
X119367184Y-55509400D01*
X119252816Y-55509400D01*
X119140645Y-55531712D01*
X119034983Y-55575479D01*
X118939889Y-55639019D01*
X118859019Y-55719889D01*
X118795479Y-55814983D01*
X118751712Y-55920645D01*
X118729400Y-56032816D01*
X110808611Y-56032816D01*
X110788288Y-55930645D01*
X110744521Y-55824983D01*
X110680981Y-55729889D01*
X110600111Y-55649019D01*
X110505017Y-55585479D01*
X110399355Y-55541712D01*
X110315337Y-55525000D01*
X110399355Y-55508288D01*
X110505017Y-55464521D01*
X110600111Y-55400981D01*
X110680981Y-55320111D01*
X110744521Y-55225017D01*
X110788288Y-55119355D01*
X110810600Y-55007184D01*
X110810600Y-54892816D01*
X110788288Y-54780645D01*
X110782295Y-54766176D01*
X114425520Y-54766176D01*
X114425520Y-54880544D01*
X114447832Y-54992715D01*
X114491599Y-55098377D01*
X114555139Y-55193471D01*
X114636009Y-55274341D01*
X114731103Y-55337881D01*
X114836765Y-55381648D01*
X114948936Y-55403960D01*
X115063304Y-55403960D01*
X115175475Y-55381648D01*
X115281137Y-55337881D01*
X115376231Y-55274341D01*
X115457101Y-55193471D01*
X115520641Y-55098377D01*
X115564408Y-54992715D01*
X115586720Y-54880544D01*
X115586720Y-54766176D01*
X115564408Y-54654005D01*
X115547745Y-54613776D01*
X117925640Y-54613776D01*
X117925640Y-54728144D01*
X117947952Y-54840315D01*
X117991719Y-54945977D01*
X118055259Y-55041071D01*
X118136129Y-55121941D01*
X118231223Y-55185481D01*
X118336885Y-55229248D01*
X118449056Y-55251560D01*
X118563424Y-55251560D01*
X118675595Y-55229248D01*
X118781257Y-55185481D01*
X118876351Y-55121941D01*
X118957221Y-55041071D01*
X119020761Y-54945977D01*
X119064528Y-54840315D01*
X119086840Y-54728144D01*
X119086840Y-54613776D01*
X119064528Y-54501605D01*
X119020761Y-54395943D01*
X118957221Y-54300849D01*
X118899188Y-54242816D01*
X119919400Y-54242816D01*
X119919400Y-54357184D01*
X119941712Y-54469355D01*
X119985479Y-54575017D01*
X120049019Y-54670111D01*
X120129889Y-54750981D01*
X120224983Y-54814521D01*
X120330645Y-54858288D01*
X120442816Y-54880600D01*
X120557184Y-54880600D01*
X120669355Y-54858288D01*
X120775017Y-54814521D01*
X120870111Y-54750981D01*
X120950981Y-54670111D01*
X121014521Y-54575017D01*
X121058288Y-54469355D01*
X121080600Y-54357184D01*
X121080600Y-54242816D01*
X121069004Y-54184516D01*
X122340160Y-54184516D01*
X122340160Y-54298884D01*
X122362472Y-54411055D01*
X122406239Y-54516717D01*
X122469779Y-54611811D01*
X122550649Y-54692681D01*
X122645743Y-54756221D01*
X122751405Y-54799988D01*
X122863576Y-54822300D01*
X122977944Y-54822300D01*
X123090115Y-54799988D01*
X123195777Y-54756221D01*
X123290871Y-54692681D01*
X123371741Y-54611811D01*
X123435281Y-54516717D01*
X123479048Y-54411055D01*
X123492851Y-54341660D01*
X134098480Y-54341660D01*
X134098480Y-56041660D01*
X134105346Y-56111370D01*
X134125679Y-56178400D01*
X134158699Y-56240176D01*
X134203137Y-56294323D01*
X134257284Y-56338761D01*
X134319060Y-56371781D01*
X134386090Y-56392114D01*
X134455800Y-56398980D01*
X136155800Y-56398980D01*
X136225510Y-56392114D01*
X136292540Y-56371781D01*
X136354316Y-56338761D01*
X136408463Y-56294323D01*
X136452901Y-56240176D01*
X136485921Y-56178400D01*
X136506254Y-56111370D01*
X136513120Y-56041660D01*
X136513120Y-54341660D01*
X136506254Y-54271950D01*
X136485921Y-54204920D01*
X136452901Y-54143144D01*
X136408463Y-54088997D01*
X136354316Y-54044559D01*
X136292540Y-54011539D01*
X136225510Y-53991206D01*
X136155800Y-53984340D01*
X134455800Y-53984340D01*
X134386090Y-53991206D01*
X134319060Y-54011539D01*
X134257284Y-54044559D01*
X134203137Y-54088997D01*
X134158699Y-54143144D01*
X134125679Y-54204920D01*
X134105346Y-54271950D01*
X134098480Y-54341660D01*
X123492851Y-54341660D01*
X123501360Y-54298884D01*
X123501360Y-54184516D01*
X123479048Y-54072345D01*
X123435281Y-53966683D01*
X123371741Y-53871589D01*
X123290871Y-53790719D01*
X123195777Y-53727179D01*
X123090115Y-53683412D01*
X122977944Y-53661100D01*
X122863576Y-53661100D01*
X122751405Y-53683412D01*
X122645743Y-53727179D01*
X122550649Y-53790719D01*
X122469779Y-53871589D01*
X122406239Y-53966683D01*
X122362472Y-54072345D01*
X122340160Y-54184516D01*
X121069004Y-54184516D01*
X121058288Y-54130645D01*
X121014521Y-54024983D01*
X120950981Y-53929889D01*
X120870111Y-53849019D01*
X120775017Y-53785479D01*
X120669355Y-53741712D01*
X120557184Y-53719400D01*
X120442816Y-53719400D01*
X120330645Y-53741712D01*
X120224983Y-53785479D01*
X120129889Y-53849019D01*
X120049019Y-53929889D01*
X119985479Y-54024983D01*
X119941712Y-54130645D01*
X119919400Y-54242816D01*
X118899188Y-54242816D01*
X118876351Y-54219979D01*
X118781257Y-54156439D01*
X118675595Y-54112672D01*
X118563424Y-54090360D01*
X118449056Y-54090360D01*
X118336885Y-54112672D01*
X118231223Y-54156439D01*
X118136129Y-54219979D01*
X118055259Y-54300849D01*
X117991719Y-54395943D01*
X117947952Y-54501605D01*
X117925640Y-54613776D01*
X115547745Y-54613776D01*
X115520641Y-54548343D01*
X115457101Y-54453249D01*
X115376231Y-54372379D01*
X115281137Y-54308839D01*
X115175475Y-54265072D01*
X115063304Y-54242760D01*
X114948936Y-54242760D01*
X114836765Y-54265072D01*
X114731103Y-54308839D01*
X114636009Y-54372379D01*
X114555139Y-54453249D01*
X114491599Y-54548343D01*
X114447832Y-54654005D01*
X114425520Y-54766176D01*
X110782295Y-54766176D01*
X110744521Y-54674983D01*
X110680981Y-54579889D01*
X110600111Y-54499019D01*
X110505017Y-54435479D01*
X110399355Y-54391712D01*
X110287184Y-54369400D01*
X110172816Y-54369400D01*
X110060645Y-54391712D01*
X109954983Y-54435479D01*
X109859889Y-54499019D01*
X109779019Y-54579889D01*
X109715479Y-54674983D01*
X109671712Y-54780645D01*
X109649400Y-54892816D01*
X108141320Y-54892816D01*
X108141320Y-53734600D01*
X108134454Y-53664890D01*
X108114121Y-53597860D01*
X108101858Y-53574916D01*
X116030800Y-53574916D01*
X116030800Y-53689284D01*
X116053112Y-53801455D01*
X116096879Y-53907117D01*
X116160419Y-54002211D01*
X116241289Y-54083081D01*
X116336383Y-54146621D01*
X116442045Y-54190388D01*
X116554216Y-54212700D01*
X116668584Y-54212700D01*
X116780755Y-54190388D01*
X116886417Y-54146621D01*
X116981511Y-54083081D01*
X117062381Y-54002211D01*
X117125921Y-53907117D01*
X117169688Y-53801455D01*
X117192000Y-53689284D01*
X117192000Y-53574916D01*
X117169688Y-53462745D01*
X117125921Y-53357083D01*
X117062381Y-53261989D01*
X116981511Y-53181119D01*
X116886417Y-53117579D01*
X116780755Y-53073812D01*
X116668584Y-53051500D01*
X116554216Y-53051500D01*
X116442045Y-53073812D01*
X116336383Y-53117579D01*
X116241289Y-53181119D01*
X116160419Y-53261989D01*
X116096879Y-53357083D01*
X116053112Y-53462745D01*
X116030800Y-53574916D01*
X108101858Y-53574916D01*
X108081101Y-53536084D01*
X108036663Y-53481937D01*
X107982516Y-53437499D01*
X107920740Y-53404479D01*
X107853710Y-53384146D01*
X107817708Y-53380600D01*
X113981307Y-53380600D01*
X114000000Y-53382441D01*
X114018693Y-53380600D01*
X114074611Y-53375093D01*
X114146354Y-53353329D01*
X114212473Y-53317988D01*
X114270427Y-53270427D01*
X114317988Y-53212473D01*
X114353329Y-53146354D01*
X114375093Y-53074611D01*
X114382441Y-53000000D01*
X114380600Y-52981307D01*
X114380600Y-51636896D01*
X119917000Y-51636896D01*
X119917000Y-51751264D01*
X119939312Y-51863435D01*
X119983079Y-51969097D01*
X120046619Y-52064191D01*
X120127489Y-52145061D01*
X120222583Y-52208601D01*
X120328245Y-52252368D01*
X120440416Y-52274680D01*
X120554784Y-52274680D01*
X120666955Y-52252368D01*
X120772617Y-52208601D01*
X120867711Y-52145061D01*
X120948581Y-52064191D01*
X121012121Y-51969097D01*
X121031579Y-51922122D01*
X121034052Y-51934555D01*
X121077819Y-52040217D01*
X121141359Y-52135311D01*
X121222229Y-52216181D01*
X121317323Y-52279721D01*
X121422985Y-52323488D01*
X121535156Y-52345800D01*
X121649524Y-52345800D01*
X121761695Y-52323488D01*
X121867357Y-52279721D01*
X121962451Y-52216181D01*
X122043321Y-52135311D01*
X122106861Y-52040217D01*
X122140019Y-51960168D01*
X122141492Y-51967575D01*
X122185259Y-52073237D01*
X122248799Y-52168331D01*
X122329669Y-52249201D01*
X122424763Y-52312741D01*
X122530425Y-52356508D01*
X122642596Y-52378820D01*
X122756964Y-52378820D01*
X122869135Y-52356508D01*
X122974797Y-52312741D01*
X123069891Y-52249201D01*
X123150761Y-52168331D01*
X123214301Y-52073237D01*
X123258068Y-51967575D01*
X123280380Y-51855404D01*
X123280380Y-51741036D01*
X123258068Y-51628865D01*
X123214301Y-51523203D01*
X123150761Y-51428109D01*
X123069891Y-51347239D01*
X122974797Y-51283699D01*
X122869135Y-51239932D01*
X122756964Y-51217620D01*
X122642596Y-51217620D01*
X122530425Y-51239932D01*
X122424763Y-51283699D01*
X122329669Y-51347239D01*
X122248799Y-51428109D01*
X122185259Y-51523203D01*
X122152101Y-51603252D01*
X122150628Y-51595845D01*
X122106861Y-51490183D01*
X122043321Y-51395089D01*
X121962451Y-51314219D01*
X121867357Y-51250679D01*
X121761695Y-51206912D01*
X121649524Y-51184600D01*
X121535156Y-51184600D01*
X121422985Y-51206912D01*
X121317323Y-51250679D01*
X121222229Y-51314219D01*
X121141359Y-51395089D01*
X121077819Y-51490183D01*
X121058361Y-51537158D01*
X121055888Y-51524725D01*
X121012121Y-51419063D01*
X120948581Y-51323969D01*
X120867711Y-51243099D01*
X120772617Y-51179559D01*
X120666955Y-51135792D01*
X120554784Y-51113480D01*
X120440416Y-51113480D01*
X120328245Y-51135792D01*
X120222583Y-51179559D01*
X120127489Y-51243099D01*
X120046619Y-51323969D01*
X119983079Y-51419063D01*
X119939312Y-51524725D01*
X119917000Y-51636896D01*
X114380600Y-51636896D01*
X114380600Y-48268619D01*
X114398949Y-48081485D01*
X114447887Y-47919394D01*
X114527378Y-47769893D01*
X114634394Y-47638677D01*
X114764860Y-47530746D01*
X114913802Y-47450215D01*
X115075550Y-47400145D01*
X115261505Y-47380600D01*
X122431381Y-47380600D01*
X122618515Y-47398949D01*
X122618515Y-47398949D01*
G37*
X122618515Y-47398949D02*
X122780606Y-47447887D01*
X122930107Y-47527378D01*
X123061323Y-47634394D01*
X123169254Y-47764860D01*
X123249785Y-47913802D01*
X123299855Y-48075550D01*
X123319400Y-48261506D01*
X123319401Y-52981297D01*
X123317559Y-53000000D01*
X123324907Y-53074611D01*
X123346671Y-53146354D01*
X123382012Y-53212473D01*
X123429573Y-53270427D01*
X123487527Y-53317988D01*
X123553646Y-53353329D01*
X123625389Y-53375093D01*
X123681307Y-53380600D01*
X123700000Y-53382441D01*
X123718693Y-53380600D01*
X137119400Y-53380600D01*
X137119401Y-86619400D01*
X100380600Y-86619400D01*
X100380600Y-82713100D01*
X102030980Y-82713100D01*
X102030980Y-84413100D01*
X102037846Y-84482810D01*
X102058179Y-84549840D01*
X102091199Y-84611616D01*
X102135637Y-84665763D01*
X102189784Y-84710201D01*
X102251560Y-84743221D01*
X102318590Y-84763554D01*
X102388300Y-84770420D01*
X104088300Y-84770420D01*
X104158010Y-84763554D01*
X104225040Y-84743221D01*
X104286816Y-84710201D01*
X104340963Y-84665763D01*
X104385401Y-84611616D01*
X104418421Y-84549840D01*
X104438754Y-84482810D01*
X104445620Y-84413100D01*
X104445620Y-83719300D01*
X109551920Y-83719300D01*
X109551920Y-85419300D01*
X109558786Y-85489010D01*
X109579119Y-85556040D01*
X109612139Y-85617816D01*
X109656577Y-85671963D01*
X109710724Y-85716401D01*
X109772500Y-85749421D01*
X109839530Y-85769754D01*
X109909240Y-85776620D01*
X111609240Y-85776620D01*
X111678950Y-85769754D01*
X111745980Y-85749421D01*
X111807756Y-85716401D01*
X111861903Y-85671963D01*
X111906341Y-85617816D01*
X111939361Y-85556040D01*
X111959694Y-85489010D01*
X111966560Y-85419300D01*
X111966560Y-83734540D01*
X113582900Y-83734540D01*
X113582900Y-85434540D01*
X113589766Y-85504250D01*
X113610099Y-85571280D01*
X113643119Y-85633056D01*
X113687557Y-85687203D01*
X113741704Y-85731641D01*
X113803480Y-85764661D01*
X113870510Y-85784994D01*
X113940220Y-85791860D01*
X115640220Y-85791860D01*
X115709930Y-85784994D01*
X115776960Y-85764661D01*
X115838736Y-85731641D01*
X115892883Y-85687203D01*
X115937321Y-85633056D01*
X115970341Y-85571280D01*
X115990674Y-85504250D01*
X115997540Y-85434540D01*
X115997540Y-83734540D01*
X115994538Y-83704060D01*
X117555460Y-83704060D01*
X117555460Y-85404060D01*
X117562326Y-85473770D01*
X117582659Y-85540800D01*
X117615679Y-85602576D01*
X117660117Y-85656723D01*
X117714264Y-85701161D01*
X117776040Y-85734181D01*
X117843070Y-85754514D01*
X117912780Y-85761380D01*
X119612780Y-85761380D01*
X119682490Y-85754514D01*
X119749520Y-85734181D01*
X119811296Y-85701161D01*
X119865443Y-85656723D01*
X119909881Y-85602576D01*
X119942901Y-85540800D01*
X119963234Y-85473770D01*
X119970100Y-85404060D01*
X119970100Y-83704060D01*
X121482300Y-83704060D01*
X121482300Y-85404060D01*
X121489166Y-85473770D01*
X121509499Y-85540800D01*
X121542519Y-85602576D01*
X121586957Y-85656723D01*
X121641104Y-85701161D01*
X121702880Y-85734181D01*
X121769910Y-85754514D01*
X121839620Y-85761380D01*
X123539620Y-85761380D01*
X123609330Y-85754514D01*
X123676360Y-85734181D01*
X123738136Y-85701161D01*
X123792283Y-85656723D01*
X123836721Y-85602576D01*
X123869741Y-85540800D01*
X123890074Y-85473770D01*
X123896940Y-85404060D01*
X123896940Y-83719300D01*
X125393900Y-83719300D01*
X125393900Y-85419300D01*
X125400766Y-85489010D01*
X125421099Y-85556040D01*
X125454119Y-85617816D01*
X125498557Y-85671963D01*
X125552704Y-85716401D01*
X125614480Y-85749421D01*
X125681510Y-85769754D01*
X125751220Y-85776620D01*
X127451220Y-85776620D01*
X127520930Y-85769754D01*
X127587960Y-85749421D01*
X127649736Y-85716401D01*
X127703883Y-85671963D01*
X127748321Y-85617816D01*
X127781341Y-85556040D01*
X127801674Y-85489010D01*
X127808540Y-85419300D01*
X127808540Y-83719300D01*
X127801674Y-83649590D01*
X127781341Y-83582560D01*
X127748321Y-83520784D01*
X127703883Y-83466637D01*
X127649736Y-83422199D01*
X127587960Y-83389179D01*
X127520930Y-83368846D01*
X127451220Y-83361980D01*
X125751220Y-83361980D01*
X125681510Y-83368846D01*
X125614480Y-83389179D01*
X125552704Y-83422199D01*
X125498557Y-83466637D01*
X125454119Y-83520784D01*
X125421099Y-83582560D01*
X125400766Y-83649590D01*
X125393900Y-83719300D01*
X123896940Y-83719300D01*
X123896940Y-83704060D01*
X123890074Y-83634350D01*
X123869741Y-83567320D01*
X123836721Y-83505544D01*
X123792283Y-83451397D01*
X123738136Y-83406959D01*
X123676360Y-83373939D01*
X123609330Y-83353606D01*
X123539620Y-83346740D01*
X121839620Y-83346740D01*
X121769910Y-83353606D01*
X121702880Y-83373939D01*
X121641104Y-83406959D01*
X121586957Y-83451397D01*
X121542519Y-83505544D01*
X121509499Y-83567320D01*
X121489166Y-83634350D01*
X121482300Y-83704060D01*
X119970100Y-83704060D01*
X119963234Y-83634350D01*
X119942901Y-83567320D01*
X119909881Y-83505544D01*
X119865443Y-83451397D01*
X119811296Y-83406959D01*
X119749520Y-83373939D01*
X119682490Y-83353606D01*
X119612780Y-83346740D01*
X117912780Y-83346740D01*
X117843070Y-83353606D01*
X117776040Y-83373939D01*
X117714264Y-83406959D01*
X117660117Y-83451397D01*
X117615679Y-83505544D01*
X117582659Y-83567320D01*
X117562326Y-83634350D01*
X117555460Y-83704060D01*
X115994538Y-83704060D01*
X115990674Y-83664830D01*
X115970341Y-83597800D01*
X115937321Y-83536024D01*
X115892883Y-83481877D01*
X115838736Y-83437439D01*
X115776960Y-83404419D01*
X115709930Y-83384086D01*
X115640220Y-83377220D01*
X113940220Y-83377220D01*
X113870510Y-83384086D01*
X113803480Y-83404419D01*
X113741704Y-83437439D01*
X113687557Y-83481877D01*
X113643119Y-83536024D01*
X113610099Y-83597800D01*
X113589766Y-83664830D01*
X113582900Y-83734540D01*
X111966560Y-83734540D01*
X111966560Y-83719300D01*
X111959694Y-83649590D01*
X111939361Y-83582560D01*
X111906341Y-83520784D01*
X111861903Y-83466637D01*
X111807756Y-83422199D01*
X111745980Y-83389179D01*
X111678950Y-83368846D01*
X111609240Y-83361980D01*
X109909240Y-83361980D01*
X109839530Y-83368846D01*
X109772500Y-83389179D01*
X109710724Y-83422199D01*
X109656577Y-83466637D01*
X109612139Y-83520784D01*
X109579119Y-83582560D01*
X109558786Y-83649590D01*
X109551920Y-83719300D01*
X104445620Y-83719300D01*
X104445620Y-82713100D01*
X104438754Y-82643390D01*
X104418421Y-82576360D01*
X104385401Y-82514584D01*
X104340963Y-82460437D01*
X104286816Y-82415999D01*
X104225040Y-82382979D01*
X104158010Y-82362646D01*
X104088300Y-82355780D01*
X102388300Y-82355780D01*
X102318590Y-82362646D01*
X102251560Y-82382979D01*
X102189784Y-82415999D01*
X102135637Y-82460437D01*
X102091199Y-82514584D01*
X102058179Y-82576360D01*
X102037846Y-82643390D01*
X102030980Y-82713100D01*
X100380600Y-82713100D01*
X100380600Y-81452816D01*
X118159400Y-81452816D01*
X118159400Y-81567184D01*
X118181712Y-81679355D01*
X118225479Y-81785017D01*
X118289019Y-81880111D01*
X118369889Y-81960981D01*
X118464983Y-82024521D01*
X118570645Y-82068288D01*
X118682816Y-82090600D01*
X118797184Y-82090600D01*
X118909355Y-82068288D01*
X119015017Y-82024521D01*
X119110111Y-81960981D01*
X119190981Y-81880111D01*
X119254521Y-81785017D01*
X119298288Y-81679355D01*
X119320600Y-81567184D01*
X119320600Y-81452816D01*
X119298288Y-81340645D01*
X119254521Y-81234983D01*
X119190981Y-81139889D01*
X119110111Y-81059019D01*
X119015017Y-80995479D01*
X118909355Y-80951712D01*
X118797184Y-80929400D01*
X118682816Y-80929400D01*
X118570645Y-80951712D01*
X118464983Y-80995479D01*
X118369889Y-81059019D01*
X118289019Y-81139889D01*
X118225479Y-81234983D01*
X118181712Y-81340645D01*
X118159400Y-81452816D01*
X100380600Y-81452816D01*
X100380600Y-80692816D01*
X119929400Y-80692816D01*
X119929400Y-80807184D01*
X119951712Y-80919355D01*
X119995479Y-81025017D01*
X120059019Y-81120111D01*
X120139889Y-81200981D01*
X120234983Y-81264521D01*
X120340645Y-81308288D01*
X120452816Y-81330600D01*
X120567184Y-81330600D01*
X120679355Y-81308288D01*
X120785017Y-81264521D01*
X120880111Y-81200981D01*
X120900152Y-81180940D01*
X128028291Y-81180940D01*
X128031240Y-81210881D01*
X128031240Y-81747899D01*
X128028291Y-81777840D01*
X128031240Y-81807781D01*
X128040061Y-81897342D01*
X128074919Y-82012252D01*
X128131525Y-82118154D01*
X128207703Y-82210978D01*
X128230967Y-82230070D01*
X129039179Y-83038284D01*
X129108745Y-83095375D01*
X129214647Y-83151981D01*
X129329557Y-83186839D01*
X129449060Y-83198609D01*
X129568562Y-83186839D01*
X129683472Y-83151981D01*
X129789374Y-83095375D01*
X129882197Y-83019197D01*
X129958375Y-82926374D01*
X130014981Y-82820472D01*
X130049839Y-82705562D01*
X130061609Y-82586060D01*
X130055395Y-82522960D01*
X133788600Y-82522960D01*
X133788600Y-84222960D01*
X133795466Y-84292670D01*
X133815799Y-84359700D01*
X133848819Y-84421476D01*
X133893257Y-84475623D01*
X133947404Y-84520061D01*
X134009180Y-84553081D01*
X134076210Y-84573414D01*
X134145920Y-84580280D01*
X135845920Y-84580280D01*
X135915630Y-84573414D01*
X135982660Y-84553081D01*
X136044436Y-84520061D01*
X136098583Y-84475623D01*
X136143021Y-84421476D01*
X136176041Y-84359700D01*
X136196374Y-84292670D01*
X136203240Y-84222960D01*
X136203240Y-82522960D01*
X136196374Y-82453250D01*
X136176041Y-82386220D01*
X136143021Y-82324444D01*
X136098583Y-82270297D01*
X136044436Y-82225859D01*
X135982660Y-82192839D01*
X135915630Y-82172506D01*
X135845920Y-82165640D01*
X134145920Y-82165640D01*
X134076210Y-82172506D01*
X134009180Y-82192839D01*
X133947404Y-82225859D01*
X133893257Y-82270297D01*
X133848819Y-82324444D01*
X133815799Y-82386220D01*
X133795466Y-82453250D01*
X133788600Y-82522960D01*
X130055395Y-82522960D01*
X130049839Y-82466557D01*
X130014981Y-82351647D01*
X129958375Y-82245745D01*
X129901284Y-82176179D01*
X129250440Y-81525337D01*
X129250440Y-81433443D01*
X129803967Y-80879916D01*
X130765340Y-80879916D01*
X130765340Y-80994284D01*
X130787652Y-81106455D01*
X130831419Y-81212117D01*
X130862351Y-81258410D01*
X130831419Y-81304703D01*
X130787652Y-81410365D01*
X130765340Y-81522536D01*
X130765340Y-81636904D01*
X130787652Y-81749075D01*
X130831419Y-81854737D01*
X130894959Y-81949831D01*
X130975829Y-82030701D01*
X131070923Y-82094241D01*
X131176585Y-82138008D01*
X131288756Y-82160320D01*
X131403124Y-82160320D01*
X131515295Y-82138008D01*
X131620957Y-82094241D01*
X131716051Y-82030701D01*
X131796921Y-81949831D01*
X131860461Y-81854737D01*
X131904228Y-81749075D01*
X131926540Y-81636904D01*
X131926540Y-81522536D01*
X131904228Y-81410365D01*
X131860461Y-81304703D01*
X131829529Y-81258410D01*
X131860461Y-81212117D01*
X131904228Y-81106455D01*
X131926540Y-80994284D01*
X131926540Y-80879916D01*
X131904228Y-80767745D01*
X131860461Y-80662083D01*
X131796921Y-80566989D01*
X131716051Y-80486119D01*
X131620957Y-80422579D01*
X131515295Y-80378812D01*
X131403124Y-80356500D01*
X131288756Y-80356500D01*
X131176585Y-80378812D01*
X131070923Y-80422579D01*
X130975829Y-80486119D01*
X130894959Y-80566989D01*
X130831419Y-80662083D01*
X130787652Y-80767745D01*
X130765340Y-80879916D01*
X129803967Y-80879916D01*
X130935393Y-79748491D01*
X130958658Y-79729398D01*
X131034836Y-79636574D01*
X131091441Y-79530672D01*
X131126299Y-79415762D01*
X131138069Y-79296261D01*
X131135120Y-79266319D01*
X131135120Y-78152721D01*
X131138069Y-78122780D01*
X131131153Y-78052560D01*
X133788600Y-78052560D01*
X133788600Y-79752560D01*
X133795466Y-79822270D01*
X133815799Y-79889300D01*
X133848819Y-79951076D01*
X133893257Y-80005223D01*
X133947404Y-80049661D01*
X134009180Y-80082681D01*
X134076210Y-80103014D01*
X134145920Y-80109880D01*
X135845920Y-80109880D01*
X135915630Y-80103014D01*
X135982660Y-80082681D01*
X136044436Y-80049661D01*
X136098583Y-80005223D01*
X136143021Y-79951076D01*
X136176041Y-79889300D01*
X136196374Y-79822270D01*
X136203240Y-79752560D01*
X136203240Y-78052560D01*
X136196374Y-77982850D01*
X136176041Y-77915820D01*
X136143021Y-77854044D01*
X136098583Y-77799897D01*
X136044436Y-77755459D01*
X135982660Y-77722439D01*
X135915630Y-77702106D01*
X135845920Y-77695240D01*
X134145920Y-77695240D01*
X134076210Y-77702106D01*
X134009180Y-77722439D01*
X133947404Y-77755459D01*
X133893257Y-77799897D01*
X133848819Y-77854044D01*
X133815799Y-77915820D01*
X133795466Y-77982850D01*
X133788600Y-78052560D01*
X131131153Y-78052560D01*
X131126299Y-78003277D01*
X131091441Y-77888367D01*
X131044153Y-77799897D01*
X131034836Y-77782466D01*
X130958658Y-77689642D01*
X130935400Y-77670555D01*
X129646795Y-76381952D01*
X129627698Y-76358682D01*
X129534874Y-76282504D01*
X129428972Y-76225899D01*
X129314062Y-76191041D01*
X129224501Y-76182220D01*
X129194560Y-76179271D01*
X129164619Y-76182220D01*
X128788159Y-76182220D01*
X128698598Y-76191041D01*
X128583688Y-76225899D01*
X128477786Y-76282504D01*
X128384962Y-76358682D01*
X128308784Y-76451506D01*
X128252179Y-76557408D01*
X128217321Y-76672318D01*
X128205551Y-76791820D01*
X128217321Y-76911322D01*
X128252179Y-77026232D01*
X128308784Y-77132134D01*
X128384962Y-77224958D01*
X128477786Y-77301136D01*
X128583688Y-77357741D01*
X128698598Y-77392599D01*
X128788159Y-77401420D01*
X128942057Y-77401420D01*
X129915920Y-78375285D01*
X129915921Y-79043755D01*
X128230972Y-80728705D01*
X128207702Y-80747802D01*
X128131524Y-80840627D01*
X128074919Y-80946529D01*
X128055184Y-81011585D01*
X128040061Y-81061438D01*
X128028291Y-81180940D01*
X120900152Y-81180940D01*
X120960981Y-81120111D01*
X121024521Y-81025017D01*
X121068288Y-80919355D01*
X121090600Y-80807184D01*
X121090600Y-80692816D01*
X121068288Y-80580645D01*
X121024521Y-80474983D01*
X120960981Y-80379889D01*
X120880111Y-80299019D01*
X120785017Y-80235479D01*
X120679355Y-80191712D01*
X120567184Y-80169400D01*
X120452816Y-80169400D01*
X120340645Y-80191712D01*
X120234983Y-80235479D01*
X120139889Y-80299019D01*
X120059019Y-80379889D01*
X119995479Y-80474983D01*
X119951712Y-80580645D01*
X119929400Y-80692816D01*
X100380600Y-80692816D01*
X100380600Y-78563100D01*
X102030980Y-78563100D01*
X102030980Y-80263100D01*
X102037846Y-80332810D01*
X102058179Y-80399840D01*
X102091199Y-80461616D01*
X102135637Y-80515763D01*
X102189784Y-80560201D01*
X102251560Y-80593221D01*
X102318590Y-80613554D01*
X102388300Y-80620420D01*
X104088300Y-80620420D01*
X104158010Y-80613554D01*
X104225040Y-80593221D01*
X104286816Y-80560201D01*
X104340963Y-80515763D01*
X104385401Y-80461616D01*
X104418421Y-80399840D01*
X104438754Y-80332810D01*
X104445620Y-80263100D01*
X104445620Y-79508316D01*
X114697300Y-79508316D01*
X114697300Y-79622684D01*
X114719612Y-79734855D01*
X114763379Y-79840517D01*
X114826919Y-79935611D01*
X114907789Y-80016481D01*
X115002883Y-80080021D01*
X115108545Y-80123788D01*
X115220716Y-80146100D01*
X115335084Y-80146100D01*
X115447255Y-80123788D01*
X115552917Y-80080021D01*
X115648011Y-80016481D01*
X115728881Y-79935611D01*
X115792421Y-79840517D01*
X115836188Y-79734855D01*
X115858500Y-79622684D01*
X115858500Y-79508316D01*
X115836188Y-79396145D01*
X115792421Y-79290483D01*
X115736172Y-79206300D01*
X115792284Y-79206300D01*
X115904455Y-79183988D01*
X116010117Y-79140221D01*
X116105211Y-79076681D01*
X116186081Y-78995811D01*
X116249621Y-78900717D01*
X116281888Y-78822816D01*
X116319402Y-78822816D01*
X116319402Y-78937184D01*
X116341714Y-79049355D01*
X116385481Y-79155017D01*
X116449021Y-79250111D01*
X116529891Y-79330981D01*
X116624985Y-79394521D01*
X116730647Y-79438288D01*
X116842818Y-79460600D01*
X116957186Y-79460600D01*
X117069357Y-79438288D01*
X117133605Y-79411675D01*
X117129400Y-79432816D01*
X117129400Y-79547184D01*
X117151712Y-79659355D01*
X117195479Y-79765017D01*
X117259019Y-79860111D01*
X117339889Y-79940981D01*
X117434983Y-80004521D01*
X117540645Y-80048288D01*
X117652816Y-80070600D01*
X117767184Y-80070600D01*
X117879355Y-80048288D01*
X117985017Y-80004521D01*
X118080111Y-79940981D01*
X118093676Y-79927416D01*
X121529900Y-79927416D01*
X121529900Y-80041784D01*
X121552212Y-80153955D01*
X121595979Y-80259617D01*
X121659519Y-80354711D01*
X121740389Y-80435581D01*
X121835483Y-80499121D01*
X121941145Y-80542888D01*
X122053316Y-80565200D01*
X122167684Y-80565200D01*
X122279855Y-80542888D01*
X122385517Y-80499121D01*
X122480611Y-80435581D01*
X122561481Y-80354711D01*
X122625021Y-80259617D01*
X122668788Y-80153955D01*
X122691100Y-80041784D01*
X122691100Y-79927416D01*
X122668788Y-79815245D01*
X122625021Y-79709583D01*
X122561481Y-79614489D01*
X122480611Y-79533619D01*
X122385517Y-79470079D01*
X122279855Y-79426312D01*
X122167684Y-79404000D01*
X122053316Y-79404000D01*
X121941145Y-79426312D01*
X121835483Y-79470079D01*
X121740389Y-79533619D01*
X121659519Y-79614489D01*
X121595979Y-79709583D01*
X121552212Y-79815245D01*
X121529900Y-79927416D01*
X118093676Y-79927416D01*
X118160981Y-79860111D01*
X118224521Y-79765017D01*
X118268288Y-79659355D01*
X118290600Y-79547184D01*
X118290600Y-79432816D01*
X118268288Y-79320645D01*
X118224521Y-79214983D01*
X118160981Y-79119889D01*
X118080111Y-79039019D01*
X117985017Y-78975479D01*
X117879355Y-78931712D01*
X117767184Y-78909400D01*
X117652816Y-78909400D01*
X117540645Y-78931712D01*
X117476397Y-78958325D01*
X117480602Y-78937184D01*
X117480602Y-78822816D01*
X117458290Y-78710645D01*
X117414523Y-78604983D01*
X117350983Y-78509889D01*
X117270113Y-78429019D01*
X117175019Y-78365479D01*
X117069357Y-78321712D01*
X116957186Y-78299400D01*
X116842818Y-78299400D01*
X116730647Y-78321712D01*
X116624985Y-78365479D01*
X116529891Y-78429019D01*
X116449021Y-78509889D01*
X116385481Y-78604983D01*
X116341714Y-78710645D01*
X116319402Y-78822816D01*
X116281888Y-78822816D01*
X116293388Y-78795055D01*
X116315700Y-78682884D01*
X116315700Y-78568516D01*
X116293388Y-78456345D01*
X116249621Y-78350683D01*
X116186081Y-78255589D01*
X116105211Y-78174719D01*
X116025528Y-78121476D01*
X118855280Y-78121476D01*
X118855280Y-78235844D01*
X118877592Y-78348015D01*
X118921359Y-78453677D01*
X118984899Y-78548771D01*
X119065769Y-78629641D01*
X119160863Y-78693181D01*
X119266525Y-78736948D01*
X119378696Y-78759260D01*
X119493064Y-78759260D01*
X119605235Y-78736948D01*
X119710897Y-78693181D01*
X119805991Y-78629641D01*
X119886861Y-78548771D01*
X119950401Y-78453677D01*
X119994168Y-78348015D01*
X120016480Y-78235844D01*
X120016480Y-78121476D01*
X119994168Y-78009305D01*
X119950401Y-77903643D01*
X119886861Y-77808549D01*
X119805991Y-77727679D01*
X119710897Y-77664139D01*
X119686700Y-77654116D01*
X120463100Y-77654116D01*
X120463100Y-77768484D01*
X120485412Y-77880655D01*
X120529179Y-77986317D01*
X120592719Y-78081411D01*
X120673589Y-78162281D01*
X120768683Y-78225821D01*
X120874345Y-78269588D01*
X120986516Y-78291900D01*
X121100884Y-78291900D01*
X121213055Y-78269588D01*
X121318717Y-78225821D01*
X121413811Y-78162281D01*
X121494681Y-78081411D01*
X121558221Y-77986317D01*
X121601988Y-77880655D01*
X121624300Y-77768484D01*
X121624300Y-77654116D01*
X121601988Y-77541945D01*
X121558221Y-77436283D01*
X121494681Y-77341189D01*
X121413811Y-77260319D01*
X121318717Y-77196779D01*
X121213055Y-77153012D01*
X121100884Y-77130700D01*
X120986516Y-77130700D01*
X120874345Y-77153012D01*
X120768683Y-77196779D01*
X120673589Y-77260319D01*
X120592719Y-77341189D01*
X120529179Y-77436283D01*
X120485412Y-77541945D01*
X120463100Y-77654116D01*
X119686700Y-77654116D01*
X119605235Y-77620372D01*
X119493064Y-77598060D01*
X119378696Y-77598060D01*
X119266525Y-77620372D01*
X119160863Y-77664139D01*
X119065769Y-77727679D01*
X118984899Y-77808549D01*
X118921359Y-77903643D01*
X118877592Y-78009305D01*
X118855280Y-78121476D01*
X116025528Y-78121476D01*
X116010117Y-78111179D01*
X115904455Y-78067412D01*
X115792284Y-78045100D01*
X115677916Y-78045100D01*
X115565745Y-78067412D01*
X115460083Y-78111179D01*
X115364989Y-78174719D01*
X115284119Y-78255589D01*
X115220579Y-78350683D01*
X115176812Y-78456345D01*
X115154500Y-78568516D01*
X115154500Y-78682884D01*
X115176812Y-78795055D01*
X115220579Y-78900717D01*
X115276828Y-78984900D01*
X115220716Y-78984900D01*
X115108545Y-79007212D01*
X115002883Y-79050979D01*
X114907789Y-79114519D01*
X114826919Y-79195389D01*
X114763379Y-79290483D01*
X114719612Y-79396145D01*
X114697300Y-79508316D01*
X104445620Y-79508316D01*
X104445620Y-78563100D01*
X104438754Y-78493390D01*
X104418421Y-78426360D01*
X104385401Y-78364584D01*
X104340963Y-78310437D01*
X104286816Y-78265999D01*
X104225040Y-78232979D01*
X104158010Y-78212646D01*
X104088300Y-78205780D01*
X102388300Y-78205780D01*
X102318590Y-78212646D01*
X102251560Y-78232979D01*
X102189784Y-78265999D01*
X102135637Y-78310437D01*
X102091199Y-78364584D01*
X102058179Y-78426360D01*
X102037846Y-78493390D01*
X102030980Y-78563100D01*
X100380600Y-78563100D01*
X100380600Y-75520516D01*
X110993980Y-75520516D01*
X110993980Y-75634884D01*
X111016292Y-75747055D01*
X111060059Y-75852717D01*
X111123599Y-75947811D01*
X111170048Y-75994260D01*
X111131219Y-76033089D01*
X111067679Y-76128183D01*
X111023912Y-76233845D01*
X111001600Y-76346016D01*
X111001600Y-76460384D01*
X111023912Y-76572555D01*
X111067679Y-76678217D01*
X111131219Y-76773311D01*
X111212089Y-76854181D01*
X111307183Y-76917721D01*
X111412845Y-76961488D01*
X111525016Y-76983800D01*
X111535465Y-76983800D01*
X111450945Y-77000612D01*
X111345283Y-77044379D01*
X111250189Y-77107919D01*
X111169319Y-77188789D01*
X111105779Y-77283883D01*
X111062012Y-77389545D01*
X111039700Y-77501716D01*
X111039700Y-77616084D01*
X111062012Y-77728255D01*
X111105779Y-77833917D01*
X111169319Y-77929011D01*
X111250189Y-78009881D01*
X111345283Y-78073421D01*
X111450945Y-78117188D01*
X111563116Y-78139500D01*
X111677484Y-78139500D01*
X111789655Y-78117188D01*
X111895317Y-78073421D01*
X111990411Y-78009881D01*
X112071281Y-77929011D01*
X112134821Y-77833917D01*
X112178588Y-77728255D01*
X112200900Y-77616084D01*
X112200900Y-77501716D01*
X112178588Y-77389545D01*
X112134821Y-77283883D01*
X112071281Y-77188789D01*
X111990411Y-77107919D01*
X111895317Y-77044379D01*
X111789655Y-77000612D01*
X111677484Y-76978300D01*
X111667035Y-76978300D01*
X111751555Y-76961488D01*
X111857217Y-76917721D01*
X111952311Y-76854181D01*
X112033181Y-76773311D01*
X112096721Y-76678217D01*
X112140488Y-76572555D01*
X112162800Y-76460384D01*
X112162800Y-76346016D01*
X112140488Y-76233845D01*
X112096721Y-76128183D01*
X112033181Y-76033089D01*
X111986732Y-75986640D01*
X112025561Y-75947811D01*
X112089101Y-75852717D01*
X112132868Y-75747055D01*
X112155180Y-75634884D01*
X112155180Y-75520516D01*
X112132868Y-75408345D01*
X112089101Y-75302683D01*
X112025561Y-75207589D01*
X111944691Y-75126719D01*
X111849597Y-75063179D01*
X111743935Y-75019412D01*
X111631764Y-74997100D01*
X111517396Y-74997100D01*
X111405225Y-75019412D01*
X111299563Y-75063179D01*
X111204469Y-75126719D01*
X111123599Y-75207589D01*
X111060059Y-75302683D01*
X111016292Y-75408345D01*
X110993980Y-75520516D01*
X100380600Y-75520516D01*
X100380600Y-74339416D01*
X110988900Y-74339416D01*
X110988900Y-74453784D01*
X111011212Y-74565955D01*
X111054979Y-74671617D01*
X111118519Y-74766711D01*
X111199389Y-74847581D01*
X111294483Y-74911121D01*
X111400145Y-74954888D01*
X111512316Y-74977200D01*
X111626684Y-74977200D01*
X111738855Y-74954888D01*
X111844517Y-74911121D01*
X111939611Y-74847581D01*
X112020481Y-74766711D01*
X112084021Y-74671617D01*
X112127788Y-74565955D01*
X112150100Y-74453784D01*
X112150100Y-74352116D01*
X120501200Y-74352116D01*
X120501200Y-74466484D01*
X120523512Y-74578655D01*
X120567279Y-74684317D01*
X120630819Y-74779411D01*
X120711689Y-74860281D01*
X120806783Y-74923821D01*
X120912445Y-74967588D01*
X121024616Y-74989900D01*
X121138984Y-74989900D01*
X121251155Y-74967588D01*
X121356817Y-74923821D01*
X121451911Y-74860281D01*
X121532781Y-74779411D01*
X121596321Y-74684317D01*
X121640088Y-74578655D01*
X121662400Y-74466484D01*
X121662400Y-74352116D01*
X121640088Y-74239945D01*
X121596321Y-74134283D01*
X121532781Y-74039189D01*
X121451911Y-73958319D01*
X121356817Y-73894779D01*
X121251155Y-73851012D01*
X121138984Y-73828700D01*
X121024616Y-73828700D01*
X120912445Y-73851012D01*
X120806783Y-73894779D01*
X120711689Y-73958319D01*
X120630819Y-74039189D01*
X120567279Y-74134283D01*
X120523512Y-74239945D01*
X120501200Y-74352116D01*
X112150100Y-74352116D01*
X112150100Y-74339416D01*
X112127788Y-74227245D01*
X112084021Y-74121583D01*
X112020481Y-74026489D01*
X111939611Y-73945619D01*
X111844517Y-73882079D01*
X111738855Y-73838312D01*
X111626684Y-73816000D01*
X111512316Y-73816000D01*
X111400145Y-73838312D01*
X111294483Y-73882079D01*
X111199389Y-73945619D01*
X111118519Y-74026489D01*
X111054979Y-74121583D01*
X111011212Y-74227245D01*
X110988900Y-74339416D01*
X100380600Y-74339416D01*
X100380600Y-71123900D01*
X101835780Y-71123900D01*
X101835780Y-72823900D01*
X101842646Y-72893610D01*
X101862979Y-72960640D01*
X101895999Y-73022416D01*
X101940437Y-73076563D01*
X101994584Y-73121001D01*
X102056360Y-73154021D01*
X102123390Y-73174354D01*
X102193100Y-73181220D01*
X103893100Y-73181220D01*
X103962810Y-73174354D01*
X104029840Y-73154021D01*
X104091616Y-73121001D01*
X104145763Y-73076563D01*
X104190201Y-73022416D01*
X104223221Y-72960640D01*
X104243554Y-72893610D01*
X104250420Y-72823900D01*
X104250420Y-71939116D01*
X106531200Y-71939116D01*
X106531200Y-72053484D01*
X106553512Y-72165655D01*
X106597279Y-72271317D01*
X106660819Y-72366411D01*
X106741689Y-72447281D01*
X106836783Y-72510821D01*
X106942445Y-72554588D01*
X107054616Y-72576900D01*
X107168984Y-72576900D01*
X107281155Y-72554588D01*
X107386817Y-72510821D01*
X107481911Y-72447281D01*
X107562781Y-72366411D01*
X107626321Y-72271317D01*
X107670088Y-72165655D01*
X107692400Y-72053484D01*
X107692400Y-71939116D01*
X107677244Y-71862916D01*
X111408000Y-71862916D01*
X111408000Y-71977284D01*
X111430312Y-72089455D01*
X111474079Y-72195117D01*
X111537619Y-72290211D01*
X111618489Y-72371081D01*
X111713583Y-72434621D01*
X111819245Y-72478388D01*
X111931416Y-72500700D01*
X112045784Y-72500700D01*
X112157955Y-72478388D01*
X112263617Y-72434621D01*
X112358711Y-72371081D01*
X112439581Y-72290211D01*
X112503121Y-72195117D01*
X112546888Y-72089455D01*
X112569200Y-71977284D01*
X112569200Y-71862916D01*
X112546888Y-71750745D01*
X112503121Y-71645083D01*
X112439581Y-71549989D01*
X112358711Y-71469119D01*
X112263617Y-71405579D01*
X112157955Y-71361812D01*
X112045784Y-71339500D01*
X111931416Y-71339500D01*
X111819245Y-71361812D01*
X111713583Y-71405579D01*
X111618489Y-71469119D01*
X111537619Y-71549989D01*
X111474079Y-71645083D01*
X111430312Y-71750745D01*
X111408000Y-71862916D01*
X107677244Y-71862916D01*
X107670088Y-71826945D01*
X107626321Y-71721283D01*
X107562781Y-71626189D01*
X107481911Y-71545319D01*
X107386817Y-71481779D01*
X107281155Y-71438012D01*
X107168984Y-71415700D01*
X107054616Y-71415700D01*
X106942445Y-71438012D01*
X106836783Y-71481779D01*
X106741689Y-71545319D01*
X106660819Y-71626189D01*
X106597279Y-71721283D01*
X106553512Y-71826945D01*
X106531200Y-71939116D01*
X104250420Y-71939116D01*
X104250420Y-71123900D01*
X104243554Y-71054190D01*
X104223221Y-70987160D01*
X104190201Y-70925384D01*
X104145763Y-70871237D01*
X104091616Y-70826799D01*
X104029840Y-70793779D01*
X103962810Y-70773446D01*
X103893100Y-70766580D01*
X102193100Y-70766580D01*
X102123390Y-70773446D01*
X102056360Y-70793779D01*
X101994584Y-70826799D01*
X101940437Y-70871237D01*
X101895999Y-70925384D01*
X101862979Y-70987160D01*
X101842646Y-71054190D01*
X101835780Y-71123900D01*
X100380600Y-71123900D01*
X100380600Y-70089996D01*
X119066100Y-70089996D01*
X119066100Y-70204364D01*
X119088412Y-70316535D01*
X119132179Y-70422197D01*
X119195719Y-70517291D01*
X119276589Y-70598161D01*
X119371683Y-70661701D01*
X119477345Y-70705468D01*
X119589516Y-70727780D01*
X119703884Y-70727780D01*
X119816055Y-70705468D01*
X119921717Y-70661701D01*
X120016811Y-70598161D01*
X120097681Y-70517291D01*
X120161221Y-70422197D01*
X120204988Y-70316535D01*
X120227300Y-70204364D01*
X120227300Y-70089996D01*
X120204988Y-69977825D01*
X120161221Y-69872163D01*
X120097681Y-69777069D01*
X120016811Y-69696199D01*
X119921717Y-69632659D01*
X119816055Y-69588892D01*
X119703884Y-69566580D01*
X119589516Y-69566580D01*
X119477345Y-69588892D01*
X119371683Y-69632659D01*
X119276589Y-69696199D01*
X119195719Y-69777069D01*
X119132179Y-69872163D01*
X119088412Y-69977825D01*
X119066100Y-70089996D01*
X100380600Y-70089996D01*
X100380600Y-66973900D01*
X101827780Y-66973900D01*
X101827780Y-68673900D01*
X101834646Y-68743610D01*
X101854979Y-68810640D01*
X101887999Y-68872416D01*
X101932437Y-68926563D01*
X101986584Y-68971001D01*
X102048360Y-69004021D01*
X102115390Y-69024354D01*
X102185100Y-69031220D01*
X103885100Y-69031220D01*
X103954810Y-69024354D01*
X104021840Y-69004021D01*
X104083616Y-68971001D01*
X104137763Y-68926563D01*
X104182201Y-68872416D01*
X104215221Y-68810640D01*
X104235554Y-68743610D01*
X104242420Y-68673900D01*
X104242420Y-68535516D01*
X105515200Y-68535516D01*
X105515200Y-68649884D01*
X105537512Y-68762055D01*
X105581279Y-68867717D01*
X105644819Y-68962811D01*
X105725689Y-69043681D01*
X105820783Y-69107221D01*
X105926445Y-69150988D01*
X106038616Y-69173300D01*
X106152984Y-69173300D01*
X106265155Y-69150988D01*
X106370817Y-69107221D01*
X106465911Y-69043681D01*
X106546781Y-68962811D01*
X106610321Y-68867717D01*
X106654088Y-68762055D01*
X106676400Y-68649884D01*
X106676400Y-68535516D01*
X106654088Y-68423345D01*
X106610321Y-68317683D01*
X106546781Y-68222589D01*
X106465911Y-68141719D01*
X106370817Y-68078179D01*
X106265155Y-68034412D01*
X106152984Y-68012100D01*
X106038616Y-68012100D01*
X105926445Y-68034412D01*
X105820783Y-68078179D01*
X105725689Y-68141719D01*
X105644819Y-68222589D01*
X105581279Y-68317683D01*
X105537512Y-68423345D01*
X105515200Y-68535516D01*
X104242420Y-68535516D01*
X104242420Y-67272800D01*
X110374880Y-67272800D01*
X110374880Y-68972800D01*
X110381746Y-69042510D01*
X110402079Y-69109540D01*
X110435099Y-69171316D01*
X110479537Y-69225463D01*
X110533684Y-69269901D01*
X110595460Y-69302921D01*
X110662490Y-69323254D01*
X110732200Y-69330120D01*
X112432200Y-69330120D01*
X112501910Y-69323254D01*
X112568940Y-69302921D01*
X112630716Y-69269901D01*
X112684863Y-69225463D01*
X112729301Y-69171316D01*
X112762321Y-69109540D01*
X112782654Y-69042510D01*
X112789520Y-68972800D01*
X112789520Y-67582816D01*
X114939400Y-67582816D01*
X114939400Y-67697184D01*
X114961712Y-67809355D01*
X115005479Y-67915017D01*
X115069019Y-68010111D01*
X115149889Y-68090981D01*
X115244983Y-68154521D01*
X115350645Y-68198288D01*
X115462816Y-68220600D01*
X115577184Y-68220600D01*
X115689355Y-68198288D01*
X115795017Y-68154521D01*
X115890111Y-68090981D01*
X115970981Y-68010111D01*
X116034521Y-67915017D01*
X116078288Y-67809355D01*
X116100600Y-67697184D01*
X116100600Y-67582816D01*
X116086677Y-67512816D01*
X123259400Y-67512816D01*
X123259400Y-67627184D01*
X123281712Y-67739355D01*
X123325479Y-67845017D01*
X123389019Y-67940111D01*
X123469889Y-68020981D01*
X123564983Y-68084521D01*
X123670645Y-68128288D01*
X123782816Y-68150600D01*
X123897184Y-68150600D01*
X124009355Y-68128288D01*
X124115017Y-68084521D01*
X124210111Y-68020981D01*
X124290981Y-67940111D01*
X124354521Y-67845017D01*
X124398288Y-67739355D01*
X124420600Y-67627184D01*
X124420600Y-67512816D01*
X124398288Y-67400645D01*
X124354521Y-67294983D01*
X124290981Y-67199889D01*
X124210111Y-67119019D01*
X124115017Y-67055479D01*
X124009355Y-67011712D01*
X123897184Y-66989400D01*
X123782816Y-66989400D01*
X123670645Y-67011712D01*
X123564983Y-67055479D01*
X123469889Y-67119019D01*
X123389019Y-67199889D01*
X123325479Y-67294983D01*
X123281712Y-67400645D01*
X123259400Y-67512816D01*
X116086677Y-67512816D01*
X116078288Y-67470645D01*
X116034521Y-67364983D01*
X115970981Y-67269889D01*
X115890111Y-67189019D01*
X115795017Y-67125479D01*
X115689355Y-67081712D01*
X115577184Y-67059400D01*
X115462816Y-67059400D01*
X115350645Y-67081712D01*
X115244983Y-67125479D01*
X115149889Y-67189019D01*
X115069019Y-67269889D01*
X115005479Y-67364983D01*
X114961712Y-67470645D01*
X114939400Y-67582816D01*
X112789520Y-67582816D01*
X112789520Y-67272800D01*
X112782654Y-67203090D01*
X112762321Y-67136060D01*
X112729301Y-67074284D01*
X112684863Y-67020137D01*
X112630716Y-66975699D01*
X112568940Y-66942679D01*
X112501910Y-66922346D01*
X112432200Y-66915480D01*
X110732200Y-66915480D01*
X110662490Y-66922346D01*
X110595460Y-66942679D01*
X110533684Y-66975699D01*
X110479537Y-67020137D01*
X110435099Y-67074284D01*
X110402079Y-67136060D01*
X110381746Y-67203090D01*
X110374880Y-67272800D01*
X104242420Y-67272800D01*
X104242420Y-66973900D01*
X104235554Y-66904190D01*
X104215221Y-66837160D01*
X104182201Y-66775384D01*
X104137763Y-66721237D01*
X104083616Y-66676799D01*
X104021840Y-66643779D01*
X103954810Y-66623446D01*
X103885100Y-66616580D01*
X102185100Y-66616580D01*
X102115390Y-66623446D01*
X102048360Y-66643779D01*
X101986584Y-66676799D01*
X101932437Y-66721237D01*
X101887999Y-66775384D01*
X101854979Y-66837160D01*
X101834646Y-66904190D01*
X101827780Y-66973900D01*
X100380600Y-66973900D01*
X100380600Y-65702816D01*
X112439400Y-65702816D01*
X112439400Y-65817184D01*
X112461712Y-65929355D01*
X112505479Y-66035017D01*
X112569019Y-66130111D01*
X112649889Y-66210981D01*
X112744983Y-66274521D01*
X112850645Y-66318288D01*
X112962816Y-66340600D01*
X113077184Y-66340600D01*
X113189355Y-66318288D01*
X113295017Y-66274521D01*
X113389459Y-66211416D01*
X116739300Y-66211416D01*
X116739300Y-66325784D01*
X116761612Y-66437955D01*
X116805379Y-66543617D01*
X116868919Y-66638711D01*
X116949789Y-66719581D01*
X117044883Y-66783121D01*
X117150545Y-66826888D01*
X117262716Y-66849200D01*
X117377084Y-66849200D01*
X117489255Y-66826888D01*
X117594917Y-66783121D01*
X117690011Y-66719581D01*
X117770881Y-66638711D01*
X117834421Y-66543617D01*
X117878188Y-66437955D01*
X117900500Y-66325784D01*
X117900500Y-66211416D01*
X123727000Y-66211416D01*
X123727000Y-66325784D01*
X123749312Y-66437955D01*
X123793079Y-66543617D01*
X123856619Y-66638711D01*
X123937489Y-66719581D01*
X124032583Y-66783121D01*
X124138245Y-66826888D01*
X124250416Y-66849200D01*
X124364784Y-66849200D01*
X124476955Y-66826888D01*
X124582617Y-66783121D01*
X124677711Y-66719581D01*
X124758581Y-66638711D01*
X124822121Y-66543617D01*
X124865888Y-66437955D01*
X124888200Y-66325784D01*
X124888200Y-66211416D01*
X124865888Y-66099245D01*
X124822121Y-65993583D01*
X124758581Y-65898489D01*
X124677711Y-65817619D01*
X124582617Y-65754079D01*
X124476955Y-65710312D01*
X124364784Y-65688000D01*
X124250416Y-65688000D01*
X124138245Y-65710312D01*
X124032583Y-65754079D01*
X123937489Y-65817619D01*
X123856619Y-65898489D01*
X123793079Y-65993583D01*
X123749312Y-66099245D01*
X123727000Y-66211416D01*
X117900500Y-66211416D01*
X117878188Y-66099245D01*
X117834421Y-65993583D01*
X117770881Y-65898489D01*
X117690011Y-65817619D01*
X117594917Y-65754079D01*
X117489255Y-65710312D01*
X117377084Y-65688000D01*
X117262716Y-65688000D01*
X117150545Y-65710312D01*
X117044883Y-65754079D01*
X116949789Y-65817619D01*
X116868919Y-65898489D01*
X116805379Y-65993583D01*
X116761612Y-66099245D01*
X116739300Y-66211416D01*
X113389459Y-66211416D01*
X113390111Y-66210981D01*
X113470981Y-66130111D01*
X113534521Y-66035017D01*
X113578288Y-65929355D01*
X113600600Y-65817184D01*
X113600600Y-65702816D01*
X113578288Y-65590645D01*
X113534521Y-65484983D01*
X113470981Y-65389889D01*
X113432752Y-65351660D01*
X134094367Y-65351660D01*
X134117644Y-65587999D01*
X134186582Y-65815255D01*
X134298530Y-66024696D01*
X134449188Y-66208272D01*
X134632764Y-66358930D01*
X134842205Y-66470878D01*
X135069461Y-66539816D01*
X135246576Y-66557260D01*
X135365024Y-66557260D01*
X135542139Y-66539816D01*
X135769395Y-66470878D01*
X135978836Y-66358930D01*
X136162412Y-66208272D01*
X136313070Y-66024696D01*
X136425018Y-65815255D01*
X136493956Y-65587999D01*
X136517233Y-65351660D01*
X136493956Y-65115321D01*
X136425018Y-64888065D01*
X136313070Y-64678624D01*
X136162412Y-64495048D01*
X135978836Y-64344390D01*
X135769395Y-64232442D01*
X135542139Y-64163504D01*
X135365024Y-64146060D01*
X135246576Y-64146060D01*
X135069461Y-64163504D01*
X134842205Y-64232442D01*
X134632764Y-64344390D01*
X134449188Y-64495048D01*
X134298530Y-64678624D01*
X134186582Y-64888065D01*
X134117644Y-65115321D01*
X134094367Y-65351660D01*
X113432752Y-65351660D01*
X113390111Y-65309019D01*
X113295017Y-65245479D01*
X113189355Y-65201712D01*
X113077184Y-65179400D01*
X112962816Y-65179400D01*
X112850645Y-65201712D01*
X112744983Y-65245479D01*
X112649889Y-65309019D01*
X112569019Y-65389889D01*
X112505479Y-65484983D01*
X112461712Y-65590645D01*
X112439400Y-65702816D01*
X100380600Y-65702816D01*
X100380600Y-64662816D01*
X116729400Y-64662816D01*
X116729400Y-64777184D01*
X116751712Y-64889355D01*
X116795479Y-64995017D01*
X116859019Y-65090111D01*
X116939889Y-65170981D01*
X117034983Y-65234521D01*
X117140645Y-65278288D01*
X117252816Y-65300600D01*
X117367184Y-65300600D01*
X117479355Y-65278288D01*
X117585017Y-65234521D01*
X117680111Y-65170981D01*
X117760981Y-65090111D01*
X117824521Y-64995017D01*
X117868288Y-64889355D01*
X117890600Y-64777184D01*
X117890600Y-64662816D01*
X117868288Y-64550645D01*
X117824521Y-64444983D01*
X117760981Y-64349889D01*
X117680111Y-64269019D01*
X117585017Y-64205479D01*
X117479355Y-64161712D01*
X117367184Y-64139400D01*
X117252816Y-64139400D01*
X117140645Y-64161712D01*
X117034983Y-64205479D01*
X116939889Y-64269019D01*
X116859019Y-64349889D01*
X116795479Y-64444983D01*
X116751712Y-64550645D01*
X116729400Y-64662816D01*
X100380600Y-64662816D01*
X100380600Y-63722816D01*
X117709400Y-63722816D01*
X117709400Y-63837184D01*
X117731712Y-63949355D01*
X117775479Y-64055017D01*
X117839019Y-64150111D01*
X117919889Y-64230981D01*
X118014983Y-64294521D01*
X118120645Y-64338288D01*
X118232816Y-64360600D01*
X118347184Y-64360600D01*
X118459355Y-64338288D01*
X118565017Y-64294521D01*
X118660111Y-64230981D01*
X118740981Y-64150111D01*
X118804521Y-64055017D01*
X118848288Y-63949355D01*
X118870600Y-63837184D01*
X118870600Y-63722816D01*
X118848288Y-63610645D01*
X118804521Y-63504983D01*
X118740981Y-63409889D01*
X118660111Y-63329019D01*
X118565017Y-63265479D01*
X118459355Y-63221712D01*
X118347184Y-63199400D01*
X118232816Y-63199400D01*
X118120645Y-63221712D01*
X118014983Y-63265479D01*
X117919889Y-63329019D01*
X117839019Y-63409889D01*
X117775479Y-63504983D01*
X117731712Y-63610645D01*
X117709400Y-63722816D01*
X100380600Y-63722816D01*
X100380600Y-60863900D01*
X101885780Y-60863900D01*
X101885780Y-62563900D01*
X101892646Y-62633610D01*
X101912979Y-62700640D01*
X101945999Y-62762416D01*
X101990437Y-62816563D01*
X102044584Y-62861001D01*
X102106360Y-62894021D01*
X102173390Y-62914354D01*
X102243100Y-62921220D01*
X103943100Y-62921220D01*
X104012810Y-62914354D01*
X104079840Y-62894021D01*
X104141616Y-62861001D01*
X104195763Y-62816563D01*
X104240201Y-62762416D01*
X104273221Y-62700640D01*
X104293554Y-62633610D01*
X104300420Y-62563900D01*
X104300420Y-62510636D01*
X113625420Y-62510636D01*
X113625420Y-62625004D01*
X113647732Y-62737175D01*
X113691499Y-62842837D01*
X113755039Y-62937931D01*
X113835909Y-63018801D01*
X113931003Y-63082341D01*
X114036665Y-63126108D01*
X114148836Y-63148420D01*
X114263204Y-63148420D01*
X114375375Y-63126108D01*
X114481037Y-63082341D01*
X114576131Y-63018801D01*
X114657001Y-62937931D01*
X114720541Y-62842837D01*
X114764308Y-62737175D01*
X114786620Y-62625004D01*
X114786620Y-62510636D01*
X114767163Y-62412816D01*
X116319400Y-62412816D01*
X116319400Y-62527184D01*
X116341712Y-62639355D01*
X116385479Y-62745017D01*
X116449019Y-62840111D01*
X116529889Y-62920981D01*
X116624983Y-62984521D01*
X116730645Y-63028288D01*
X116842816Y-63050600D01*
X116957184Y-63050600D01*
X117069355Y-63028288D01*
X117175017Y-62984521D01*
X117270111Y-62920981D01*
X117350981Y-62840111D01*
X117414521Y-62745017D01*
X117458288Y-62639355D01*
X117465197Y-62604616D01*
X124455980Y-62604616D01*
X124455980Y-62718984D01*
X124478292Y-62831155D01*
X124522059Y-62936817D01*
X124585599Y-63031911D01*
X124666469Y-63112781D01*
X124761563Y-63176321D01*
X124867225Y-63220088D01*
X124979396Y-63242400D01*
X125093764Y-63242400D01*
X125205935Y-63220088D01*
X125311597Y-63176321D01*
X125406691Y-63112781D01*
X125487561Y-63031911D01*
X125551101Y-62936817D01*
X125594868Y-62831155D01*
X125598745Y-62811660D01*
X134094367Y-62811660D01*
X134117644Y-63047999D01*
X134186582Y-63275255D01*
X134298530Y-63484696D01*
X134449188Y-63668272D01*
X134632764Y-63818930D01*
X134842205Y-63930878D01*
X135069461Y-63999816D01*
X135246576Y-64017260D01*
X135365024Y-64017260D01*
X135542139Y-63999816D01*
X135769395Y-63930878D01*
X135978836Y-63818930D01*
X136162412Y-63668272D01*
X136313070Y-63484696D01*
X136425018Y-63275255D01*
X136493956Y-63047999D01*
X136517233Y-62811660D01*
X136493956Y-62575321D01*
X136425018Y-62348065D01*
X136313070Y-62138624D01*
X136162412Y-61955048D01*
X135978836Y-61804390D01*
X135769395Y-61692442D01*
X135542139Y-61623504D01*
X135365024Y-61606060D01*
X135246576Y-61606060D01*
X135069461Y-61623504D01*
X134842205Y-61692442D01*
X134632764Y-61804390D01*
X134449188Y-61955048D01*
X134298530Y-62138624D01*
X134186582Y-62348065D01*
X134117644Y-62575321D01*
X134094367Y-62811660D01*
X125598745Y-62811660D01*
X125617180Y-62718984D01*
X125617180Y-62604616D01*
X125594868Y-62492445D01*
X125551101Y-62386783D01*
X125487561Y-62291689D01*
X125406691Y-62210819D01*
X125311597Y-62147279D01*
X125205935Y-62103512D01*
X125093764Y-62081200D01*
X124979396Y-62081200D01*
X124867225Y-62103512D01*
X124761563Y-62147279D01*
X124666469Y-62210819D01*
X124585599Y-62291689D01*
X124522059Y-62386783D01*
X124478292Y-62492445D01*
X124455980Y-62604616D01*
X117465197Y-62604616D01*
X117480600Y-62527184D01*
X117480600Y-62412816D01*
X117458288Y-62300645D01*
X117414521Y-62194983D01*
X117409530Y-62187514D01*
X117434983Y-62204521D01*
X117540645Y-62248288D01*
X117652816Y-62270600D01*
X117767184Y-62270600D01*
X117879355Y-62248288D01*
X117985017Y-62204521D01*
X118080111Y-62140981D01*
X118160981Y-62060111D01*
X118224521Y-61965017D01*
X118268288Y-61859355D01*
X118290600Y-61747184D01*
X118290600Y-61632816D01*
X118288882Y-61624176D01*
X119518220Y-61624176D01*
X119518220Y-61738544D01*
X119540532Y-61850715D01*
X119584299Y-61956377D01*
X119647839Y-62051471D01*
X119728709Y-62132341D01*
X119823803Y-62195881D01*
X119929465Y-62239648D01*
X120041636Y-62261960D01*
X120156004Y-62261960D01*
X120268175Y-62239648D01*
X120373837Y-62195881D01*
X120468931Y-62132341D01*
X120549801Y-62051471D01*
X120613341Y-61956377D01*
X120657108Y-61850715D01*
X120679420Y-61738544D01*
X120679420Y-61624176D01*
X121120960Y-61624176D01*
X121120960Y-61738544D01*
X121143272Y-61850715D01*
X121187039Y-61956377D01*
X121250579Y-62051471D01*
X121331449Y-62132341D01*
X121426543Y-62195881D01*
X121532205Y-62239648D01*
X121644376Y-62261960D01*
X121758744Y-62261960D01*
X121870915Y-62239648D01*
X121976577Y-62195881D01*
X122071671Y-62132341D01*
X122152541Y-62051471D01*
X122216081Y-61956377D01*
X122259848Y-61850715D01*
X122282160Y-61738544D01*
X122282160Y-61624176D01*
X122259848Y-61512005D01*
X122216081Y-61406343D01*
X122204011Y-61388278D01*
X122226643Y-61403401D01*
X122332305Y-61447168D01*
X122444476Y-61469480D01*
X122558844Y-61469480D01*
X122671015Y-61447168D01*
X122776677Y-61403401D01*
X122871771Y-61339861D01*
X122952641Y-61258991D01*
X123016181Y-61163897D01*
X123059948Y-61058235D01*
X123082260Y-60946064D01*
X123082260Y-60831696D01*
X123059948Y-60719525D01*
X123016181Y-60613863D01*
X122952641Y-60518769D01*
X122871771Y-60437899D01*
X122776677Y-60374359D01*
X122671015Y-60330592D01*
X122558844Y-60308280D01*
X122444476Y-60308280D01*
X122332305Y-60330592D01*
X122226643Y-60374359D01*
X122131549Y-60437899D01*
X122050679Y-60518769D01*
X121987139Y-60613863D01*
X121943372Y-60719525D01*
X121921060Y-60831696D01*
X121921060Y-60946064D01*
X121943372Y-61058235D01*
X121987139Y-61163897D01*
X121999209Y-61181962D01*
X121976577Y-61166839D01*
X121870915Y-61123072D01*
X121758744Y-61100760D01*
X121644376Y-61100760D01*
X121532205Y-61123072D01*
X121426543Y-61166839D01*
X121331449Y-61230379D01*
X121250579Y-61311249D01*
X121187039Y-61406343D01*
X121143272Y-61512005D01*
X121120960Y-61624176D01*
X120679420Y-61624176D01*
X120657108Y-61512005D01*
X120613341Y-61406343D01*
X120549801Y-61311249D01*
X120468931Y-61230379D01*
X120373837Y-61166839D01*
X120268175Y-61123072D01*
X120156004Y-61100760D01*
X120041636Y-61100760D01*
X119929465Y-61123072D01*
X119823803Y-61166839D01*
X119728709Y-61230379D01*
X119647839Y-61311249D01*
X119584299Y-61406343D01*
X119540532Y-61512005D01*
X119518220Y-61624176D01*
X118288882Y-61624176D01*
X118268288Y-61520645D01*
X118224521Y-61414983D01*
X118199002Y-61376792D01*
X118231223Y-61398321D01*
X118336885Y-61442088D01*
X118449056Y-61464400D01*
X118563424Y-61464400D01*
X118675595Y-61442088D01*
X118781257Y-61398321D01*
X118876351Y-61334781D01*
X118957221Y-61253911D01*
X119020761Y-61158817D01*
X119064528Y-61053155D01*
X119086840Y-60940984D01*
X119086840Y-60826616D01*
X119064528Y-60714445D01*
X119020761Y-60608783D01*
X118967786Y-60529501D01*
X119044023Y-60580441D01*
X119149685Y-60624208D01*
X119261856Y-60646520D01*
X119376224Y-60646520D01*
X119488395Y-60624208D01*
X119594057Y-60580441D01*
X119689151Y-60516901D01*
X119770021Y-60436031D01*
X119833561Y-60340937D01*
X119862256Y-60271660D01*
X134094367Y-60271660D01*
X134117644Y-60507999D01*
X134186582Y-60735255D01*
X134298530Y-60944696D01*
X134449188Y-61128272D01*
X134632764Y-61278930D01*
X134842205Y-61390878D01*
X135069461Y-61459816D01*
X135246576Y-61477260D01*
X135365024Y-61477260D01*
X135542139Y-61459816D01*
X135769395Y-61390878D01*
X135978836Y-61278930D01*
X136162412Y-61128272D01*
X136313070Y-60944696D01*
X136425018Y-60735255D01*
X136493956Y-60507999D01*
X136517233Y-60271660D01*
X136493956Y-60035321D01*
X136425018Y-59808065D01*
X136313070Y-59598624D01*
X136162412Y-59415048D01*
X135978836Y-59264390D01*
X135769395Y-59152442D01*
X135542139Y-59083504D01*
X135365024Y-59066060D01*
X135246576Y-59066060D01*
X135069461Y-59083504D01*
X134842205Y-59152442D01*
X134632764Y-59264390D01*
X134449188Y-59415048D01*
X134298530Y-59598624D01*
X134186582Y-59808065D01*
X134117644Y-60035321D01*
X134094367Y-60271660D01*
X119862256Y-60271660D01*
X119877328Y-60235275D01*
X119899640Y-60123104D01*
X119899640Y-60008736D01*
X119877328Y-59896565D01*
X119833561Y-59790903D01*
X119770021Y-59695809D01*
X119689151Y-59614939D01*
X119594057Y-59551399D01*
X119488395Y-59507632D01*
X119376224Y-59485320D01*
X119261856Y-59485320D01*
X119149685Y-59507632D01*
X119044023Y-59551399D01*
X118948929Y-59614939D01*
X118868059Y-59695809D01*
X118804519Y-59790903D01*
X118760752Y-59896565D01*
X118738440Y-60008736D01*
X118738440Y-60123104D01*
X118760752Y-60235275D01*
X118804519Y-60340937D01*
X118857494Y-60420219D01*
X118781257Y-60369279D01*
X118675595Y-60325512D01*
X118563424Y-60303200D01*
X118449056Y-60303200D01*
X118336885Y-60325512D01*
X118231223Y-60369279D01*
X118183834Y-60400944D01*
X118214521Y-60355017D01*
X118258288Y-60249355D01*
X118280600Y-60137184D01*
X118280600Y-60022816D01*
X118258288Y-59910645D01*
X118214521Y-59804983D01*
X118150981Y-59709889D01*
X118070111Y-59629019D01*
X117975017Y-59565479D01*
X117869355Y-59521712D01*
X117757184Y-59499400D01*
X117642816Y-59499400D01*
X117530645Y-59521712D01*
X117424983Y-59565479D01*
X117329889Y-59629019D01*
X117249019Y-59709889D01*
X117185479Y-59804983D01*
X117141712Y-59910645D01*
X117119400Y-60022816D01*
X117119400Y-60137184D01*
X117141712Y-60249355D01*
X117185479Y-60355017D01*
X117208307Y-60389181D01*
X117178521Y-60369279D01*
X117072859Y-60325512D01*
X116960688Y-60303200D01*
X116846320Y-60303200D01*
X116734149Y-60325512D01*
X116628487Y-60369279D01*
X116533393Y-60432819D01*
X116452523Y-60513689D01*
X116388983Y-60608783D01*
X116345216Y-60714445D01*
X116322904Y-60826616D01*
X116322904Y-60940984D01*
X116345216Y-61053155D01*
X116388983Y-61158817D01*
X116452523Y-61253911D01*
X116533393Y-61334781D01*
X116628487Y-61398321D01*
X116734149Y-61442088D01*
X116846320Y-61464400D01*
X116960688Y-61464400D01*
X117072859Y-61442088D01*
X117178521Y-61398321D01*
X117229270Y-61364412D01*
X117195479Y-61414983D01*
X117151712Y-61520645D01*
X117129400Y-61632816D01*
X117129400Y-61747184D01*
X117151712Y-61859355D01*
X117195479Y-61965017D01*
X117200470Y-61972486D01*
X117175017Y-61955479D01*
X117069355Y-61911712D01*
X116957184Y-61889400D01*
X116842816Y-61889400D01*
X116730645Y-61911712D01*
X116624983Y-61955479D01*
X116529889Y-62019019D01*
X116449019Y-62099889D01*
X116385479Y-62194983D01*
X116341712Y-62300645D01*
X116319400Y-62412816D01*
X114767163Y-62412816D01*
X114764308Y-62398465D01*
X114720541Y-62292803D01*
X114657001Y-62197709D01*
X114576131Y-62116839D01*
X114481037Y-62053299D01*
X114375375Y-62009532D01*
X114263204Y-61987220D01*
X114148836Y-61987220D01*
X114036665Y-62009532D01*
X113931003Y-62053299D01*
X113835909Y-62116839D01*
X113755039Y-62197709D01*
X113691499Y-62292803D01*
X113647732Y-62398465D01*
X113625420Y-62510636D01*
X104300420Y-62510636D01*
X104300420Y-60863900D01*
X104294247Y-60801216D01*
X104689700Y-60801216D01*
X104689700Y-60915584D01*
X104712012Y-61027755D01*
X104755779Y-61133417D01*
X104819319Y-61228511D01*
X104900189Y-61309381D01*
X104995283Y-61372921D01*
X105100945Y-61416688D01*
X105213116Y-61439000D01*
X105327484Y-61439000D01*
X105439655Y-61416688D01*
X105545317Y-61372921D01*
X105640411Y-61309381D01*
X105721281Y-61228511D01*
X105784821Y-61133417D01*
X105828588Y-61027755D01*
X105850900Y-60915584D01*
X105850900Y-60801216D01*
X105828588Y-60689045D01*
X105784821Y-60583383D01*
X105721281Y-60488289D01*
X105640411Y-60407419D01*
X105545317Y-60343879D01*
X105439655Y-60300112D01*
X105327484Y-60277800D01*
X105213116Y-60277800D01*
X105100945Y-60300112D01*
X104995283Y-60343879D01*
X104900189Y-60407419D01*
X104819319Y-60488289D01*
X104755779Y-60583383D01*
X104712012Y-60689045D01*
X104689700Y-60801216D01*
X104294247Y-60801216D01*
X104293554Y-60794190D01*
X104273221Y-60727160D01*
X104240201Y-60665384D01*
X104195763Y-60611237D01*
X104141616Y-60566799D01*
X104079840Y-60533779D01*
X104012810Y-60513446D01*
X103943100Y-60506580D01*
X102243100Y-60506580D01*
X102173390Y-60513446D01*
X102106360Y-60533779D01*
X102044584Y-60566799D01*
X101990437Y-60611237D01*
X101945999Y-60665384D01*
X101912979Y-60727160D01*
X101892646Y-60794190D01*
X101885780Y-60863900D01*
X100380600Y-60863900D01*
X100380600Y-58363900D01*
X101885779Y-58363900D01*
X101892645Y-58433610D01*
X101912978Y-58500641D01*
X101945998Y-58562417D01*
X101990436Y-58616564D01*
X102044583Y-58661002D01*
X102106359Y-58694022D01*
X102173390Y-58714355D01*
X102243100Y-58721221D01*
X102978800Y-58719500D01*
X103067700Y-58630600D01*
X103067700Y-57539300D01*
X103118500Y-57539300D01*
X103118500Y-58630600D01*
X103207400Y-58719500D01*
X103943100Y-58721221D01*
X104012810Y-58714355D01*
X104079841Y-58694022D01*
X104141617Y-58661002D01*
X104195764Y-58616564D01*
X104240202Y-58562417D01*
X104273222Y-58500641D01*
X104293555Y-58433610D01*
X104300421Y-58363900D01*
X104299647Y-58032616D01*
X106328000Y-58032616D01*
X106328000Y-58146984D01*
X106350312Y-58259155D01*
X106394079Y-58364817D01*
X106457619Y-58459911D01*
X106538489Y-58540781D01*
X106633583Y-58604321D01*
X106739245Y-58648088D01*
X106851416Y-58670400D01*
X106965784Y-58670400D01*
X107054185Y-58652816D01*
X113639400Y-58652816D01*
X113639400Y-58767184D01*
X113661712Y-58879355D01*
X113705479Y-58985017D01*
X113769019Y-59080111D01*
X113849889Y-59160981D01*
X113944983Y-59224521D01*
X114050645Y-59268288D01*
X114162816Y-59290600D01*
X114277184Y-59290600D01*
X114328519Y-59280389D01*
X114299019Y-59309889D01*
X114235479Y-59404983D01*
X114191712Y-59510645D01*
X114169400Y-59622816D01*
X114169400Y-59737184D01*
X114191712Y-59849355D01*
X114235479Y-59955017D01*
X114299019Y-60050111D01*
X114379889Y-60130981D01*
X114474983Y-60194521D01*
X114580645Y-60238288D01*
X114692816Y-60260600D01*
X114807184Y-60260600D01*
X114919355Y-60238288D01*
X115025017Y-60194521D01*
X115120111Y-60130981D01*
X115200981Y-60050111D01*
X115264521Y-59955017D01*
X115308288Y-59849355D01*
X115330600Y-59737184D01*
X115330600Y-59622816D01*
X115308288Y-59510645D01*
X115264521Y-59404983D01*
X115200981Y-59309889D01*
X115123908Y-59232816D01*
X123259400Y-59232816D01*
X123259400Y-59347184D01*
X123281712Y-59459355D01*
X123325479Y-59565017D01*
X123389019Y-59660111D01*
X123469889Y-59740981D01*
X123564983Y-59804521D01*
X123670645Y-59848288D01*
X123782816Y-59870600D01*
X123897184Y-59870600D01*
X124009355Y-59848288D01*
X124115017Y-59804521D01*
X124210111Y-59740981D01*
X124290981Y-59660111D01*
X124354521Y-59565017D01*
X124398288Y-59459355D01*
X124420600Y-59347184D01*
X124420600Y-59232816D01*
X124398288Y-59120645D01*
X124354521Y-59014983D01*
X124290981Y-58919889D01*
X124210111Y-58839019D01*
X124115017Y-58775479D01*
X124009355Y-58731712D01*
X123897184Y-58709400D01*
X123782816Y-58709400D01*
X123670645Y-58731712D01*
X123564983Y-58775479D01*
X123469889Y-58839019D01*
X123389019Y-58919889D01*
X123325479Y-59014983D01*
X123281712Y-59120645D01*
X123259400Y-59232816D01*
X115123908Y-59232816D01*
X115120111Y-59229019D01*
X115025017Y-59165479D01*
X114919355Y-59121712D01*
X114807184Y-59099400D01*
X114692816Y-59099400D01*
X114641481Y-59109611D01*
X114670981Y-59080111D01*
X114734521Y-58985017D01*
X114778288Y-58879355D01*
X114800600Y-58767184D01*
X114800600Y-58652816D01*
X114778288Y-58540645D01*
X114734521Y-58434983D01*
X114670981Y-58339889D01*
X114590111Y-58259019D01*
X114495017Y-58195479D01*
X114389355Y-58151712D01*
X114277184Y-58129400D01*
X114162816Y-58129400D01*
X114050645Y-58151712D01*
X113944983Y-58195479D01*
X113849889Y-58259019D01*
X113769019Y-58339889D01*
X113705479Y-58434983D01*
X113661712Y-58540645D01*
X113639400Y-58652816D01*
X107054185Y-58652816D01*
X107077955Y-58648088D01*
X107183617Y-58604321D01*
X107278711Y-58540781D01*
X107359581Y-58459911D01*
X107423121Y-58364817D01*
X107466888Y-58259155D01*
X107489200Y-58146984D01*
X107489200Y-58032616D01*
X107466888Y-57920445D01*
X107423121Y-57814783D01*
X107359581Y-57719689D01*
X107278711Y-57638819D01*
X107271254Y-57633836D01*
X114445840Y-57633836D01*
X114445840Y-57748204D01*
X114468152Y-57860375D01*
X114511919Y-57966037D01*
X114575459Y-58061131D01*
X114656329Y-58142001D01*
X114751423Y-58205541D01*
X114857085Y-58249308D01*
X114969256Y-58271620D01*
X115083624Y-58271620D01*
X115195795Y-58249308D01*
X115301457Y-58205541D01*
X115396551Y-58142001D01*
X115477421Y-58061131D01*
X115540961Y-57966037D01*
X115584728Y-57860375D01*
X115607040Y-57748204D01*
X115607040Y-57633836D01*
X115584728Y-57521665D01*
X115540961Y-57416003D01*
X115477421Y-57320909D01*
X115396551Y-57240039D01*
X115301457Y-57176499D01*
X115195795Y-57132732D01*
X115083624Y-57110420D01*
X114969256Y-57110420D01*
X114857085Y-57132732D01*
X114751423Y-57176499D01*
X114656329Y-57240039D01*
X114575459Y-57320909D01*
X114511919Y-57416003D01*
X114468152Y-57521665D01*
X114445840Y-57633836D01*
X107271254Y-57633836D01*
X107183617Y-57575279D01*
X107077955Y-57531512D01*
X106965784Y-57509200D01*
X106851416Y-57509200D01*
X106739245Y-57531512D01*
X106633583Y-57575279D01*
X106538489Y-57638819D01*
X106457619Y-57719689D01*
X106394079Y-57814783D01*
X106350312Y-57920445D01*
X106328000Y-58032616D01*
X104299647Y-58032616D01*
X104298700Y-57628200D01*
X104209800Y-57539300D01*
X103118500Y-57539300D01*
X103067700Y-57539300D01*
X101976400Y-57539300D01*
X101887500Y-57628200D01*
X101885779Y-58363900D01*
X100380600Y-58363900D01*
X100380600Y-56663900D01*
X101885779Y-56663900D01*
X101887500Y-57399600D01*
X101976400Y-57488500D01*
X103067700Y-57488500D01*
X103067700Y-56397200D01*
X103118500Y-56397200D01*
X103118500Y-57488500D01*
X104209800Y-57488500D01*
X104298700Y-57399600D01*
X104300184Y-56765156D01*
X113658440Y-56765156D01*
X113658440Y-56879524D01*
X113680752Y-56991695D01*
X113724519Y-57097357D01*
X113788059Y-57192451D01*
X113868929Y-57273321D01*
X113964023Y-57336861D01*
X114069685Y-57380628D01*
X114181856Y-57402940D01*
X114296224Y-57402940D01*
X114408395Y-57380628D01*
X114514057Y-57336861D01*
X114609151Y-57273321D01*
X114690021Y-57192451D01*
X114753561Y-57097357D01*
X114797328Y-56991695D01*
X114819640Y-56879524D01*
X114819640Y-56822816D01*
X115519400Y-56822816D01*
X115519400Y-56937184D01*
X115541712Y-57049355D01*
X115585479Y-57155017D01*
X115649019Y-57250111D01*
X115729889Y-57330981D01*
X115824983Y-57394521D01*
X115930645Y-57438288D01*
X116042816Y-57460600D01*
X116157184Y-57460600D01*
X116269355Y-57438288D01*
X116375017Y-57394521D01*
X116416973Y-57366487D01*
X116388979Y-57408383D01*
X116345212Y-57514045D01*
X116322900Y-57626216D01*
X116322900Y-57740584D01*
X116345212Y-57852755D01*
X116388979Y-57958417D01*
X116452519Y-58053511D01*
X116478958Y-58079950D01*
X116449019Y-58109889D01*
X116385479Y-58204983D01*
X116341712Y-58310645D01*
X116319400Y-58422816D01*
X116319400Y-58537184D01*
X116341712Y-58649355D01*
X116385479Y-58755017D01*
X116449019Y-58850111D01*
X116529889Y-58930981D01*
X116624983Y-58994521D01*
X116730645Y-59038288D01*
X116842816Y-59060600D01*
X116957184Y-59060600D01*
X117069355Y-59038288D01*
X117175017Y-58994521D01*
X117270111Y-58930981D01*
X117350981Y-58850111D01*
X117414521Y-58755017D01*
X117458288Y-58649355D01*
X117480600Y-58537184D01*
X117480600Y-58422816D01*
X117458288Y-58310645D01*
X117414521Y-58204983D01*
X117394654Y-58175250D01*
X117428583Y-58197921D01*
X117534245Y-58241688D01*
X117646416Y-58264000D01*
X117760784Y-58264000D01*
X117872955Y-58241688D01*
X117978617Y-58197921D01*
X118011972Y-58175634D01*
X117991720Y-58205943D01*
X117947953Y-58311605D01*
X117925641Y-58423776D01*
X117925641Y-58538144D01*
X117947953Y-58650315D01*
X117991720Y-58755977D01*
X118055260Y-58851071D01*
X118136130Y-58931941D01*
X118231224Y-58995481D01*
X118336886Y-59039248D01*
X118449057Y-59061560D01*
X118563425Y-59061560D01*
X118675596Y-59039248D01*
X118781258Y-58995481D01*
X118876352Y-58931941D01*
X118957222Y-58851071D01*
X119020762Y-58755977D01*
X119064529Y-58650315D01*
X119086841Y-58538144D01*
X119086841Y-58426316D01*
X121923600Y-58426316D01*
X121923600Y-58540684D01*
X121945912Y-58652855D01*
X121989679Y-58758517D01*
X122053219Y-58853611D01*
X122134089Y-58934481D01*
X122229183Y-58998021D01*
X122334845Y-59041788D01*
X122447016Y-59064100D01*
X122561384Y-59064100D01*
X122673555Y-59041788D01*
X122779217Y-58998021D01*
X122874311Y-58934481D01*
X122955181Y-58853611D01*
X123018721Y-58758517D01*
X123062488Y-58652855D01*
X123084800Y-58540684D01*
X123084800Y-58426316D01*
X123062488Y-58314145D01*
X123018721Y-58208483D01*
X122955181Y-58113389D01*
X122874311Y-58032519D01*
X122779217Y-57968979D01*
X122673555Y-57925212D01*
X122561384Y-57902900D01*
X122447016Y-57902900D01*
X122334845Y-57925212D01*
X122229183Y-57968979D01*
X122134089Y-58032519D01*
X122053219Y-58113389D01*
X121989679Y-58208483D01*
X121945912Y-58314145D01*
X121923600Y-58426316D01*
X119086841Y-58426316D01*
X119086841Y-58423776D01*
X119064529Y-58311605D01*
X119020762Y-58205943D01*
X118957222Y-58110849D01*
X118926013Y-58079640D01*
X118954681Y-58050971D01*
X119018221Y-57955877D01*
X119061988Y-57850215D01*
X119084300Y-57738044D01*
X119084300Y-57623676D01*
X119061988Y-57511505D01*
X119018221Y-57405843D01*
X118954681Y-57310749D01*
X118873811Y-57229879D01*
X118778717Y-57166339D01*
X118673055Y-57122572D01*
X118560884Y-57100260D01*
X118446516Y-57100260D01*
X118334345Y-57122572D01*
X118228683Y-57166339D01*
X118133589Y-57229879D01*
X118102380Y-57261088D01*
X118073711Y-57232419D01*
X117978617Y-57168879D01*
X117872955Y-57125112D01*
X117760784Y-57102800D01*
X117646416Y-57102800D01*
X117534245Y-57125112D01*
X117428583Y-57168879D01*
X117333489Y-57232419D01*
X117303550Y-57262358D01*
X117273611Y-57232419D01*
X117178517Y-57168879D01*
X117072855Y-57125112D01*
X116960684Y-57102800D01*
X116846316Y-57102800D01*
X116734145Y-57125112D01*
X116628483Y-57168879D01*
X116586527Y-57196913D01*
X116614521Y-57155017D01*
X116658288Y-57049355D01*
X116680600Y-56937184D01*
X116680600Y-56822816D01*
X116658288Y-56710645D01*
X116614521Y-56604983D01*
X116550981Y-56509889D01*
X116470111Y-56429019D01*
X116375017Y-56365479D01*
X116269355Y-56321712D01*
X116157184Y-56299400D01*
X116042816Y-56299400D01*
X115930645Y-56321712D01*
X115824983Y-56365479D01*
X115729889Y-56429019D01*
X115649019Y-56509889D01*
X115585479Y-56604983D01*
X115541712Y-56710645D01*
X115519400Y-56822816D01*
X114819640Y-56822816D01*
X114819640Y-56765156D01*
X114797328Y-56652985D01*
X114753561Y-56547323D01*
X114690021Y-56452229D01*
X114609151Y-56371359D01*
X114514057Y-56307819D01*
X114408395Y-56264052D01*
X114296224Y-56241740D01*
X114181856Y-56241740D01*
X114069685Y-56264052D01*
X113964023Y-56307819D01*
X113868929Y-56371359D01*
X113788059Y-56452229D01*
X113724519Y-56547323D01*
X113680752Y-56652985D01*
X113658440Y-56765156D01*
X104300184Y-56765156D01*
X104300421Y-56663900D01*
X104293555Y-56594190D01*
X104273222Y-56527159D01*
X104240202Y-56465383D01*
X104195764Y-56411236D01*
X104141617Y-56366798D01*
X104079841Y-56333778D01*
X104012810Y-56313445D01*
X103943100Y-56306579D01*
X103207400Y-56308300D01*
X103118500Y-56397200D01*
X103067700Y-56397200D01*
X102978800Y-56308300D01*
X102243100Y-56306579D01*
X102173390Y-56313445D01*
X102106359Y-56333778D01*
X102044583Y-56366798D01*
X101990436Y-56411236D01*
X101945998Y-56465383D01*
X101912978Y-56527159D01*
X101892645Y-56594190D01*
X101885779Y-56663900D01*
X100380600Y-56663900D01*
X100380600Y-53380600D01*
X106050292Y-53380600D01*
X106014290Y-53384146D01*
X105947260Y-53404479D01*
X105885484Y-53437499D01*
X105831337Y-53481937D01*
X105786899Y-53536084D01*
X105753879Y-53597860D01*
X105733546Y-53664890D01*
X105726680Y-53734600D01*
X105726680Y-55434600D01*
X105733546Y-55504310D01*
X105753879Y-55571340D01*
X105786899Y-55633116D01*
X105831337Y-55687263D01*
X105885484Y-55731701D01*
X105947260Y-55764721D01*
X106014290Y-55785054D01*
X106084000Y-55791920D01*
X107784000Y-55791920D01*
X107853710Y-55785054D01*
X107920740Y-55764721D01*
X107982516Y-55731701D01*
X108036663Y-55687263D01*
X108081101Y-55633116D01*
X108114121Y-55571340D01*
X108134454Y-55504310D01*
X108141320Y-55434600D01*
X108141320Y-54892816D01*
X109649400Y-54892816D01*
X109649400Y-55007184D01*
X109671712Y-55119355D01*
X109715479Y-55225017D01*
X109779019Y-55320111D01*
X109859889Y-55400981D01*
X109954983Y-55464521D01*
X110060645Y-55508288D01*
X110144663Y-55525000D01*
X110060645Y-55541712D01*
X109954983Y-55585479D01*
X109859889Y-55649019D01*
X109779019Y-55729889D01*
X109715479Y-55824983D01*
X109671712Y-55930645D01*
X109649400Y-56042816D01*
X109649400Y-56157184D01*
X109671712Y-56269355D01*
X109715479Y-56375017D01*
X109779019Y-56470111D01*
X109859889Y-56550981D01*
X109954983Y-56614521D01*
X110060645Y-56658288D01*
X110172816Y-56680600D01*
X110287184Y-56680600D01*
X110399355Y-56658288D01*
X110505017Y-56614521D01*
X110600111Y-56550981D01*
X110680981Y-56470111D01*
X110744521Y-56375017D01*
X110788288Y-56269355D01*
X110810600Y-56157184D01*
X110810600Y-56042816D01*
X110808611Y-56032816D01*
X118729400Y-56032816D01*
X118729400Y-56147184D01*
X118751712Y-56259355D01*
X118795479Y-56365017D01*
X118859019Y-56460111D01*
X118939889Y-56540981D01*
X119034983Y-56604521D01*
X119140645Y-56648288D01*
X119252816Y-56670600D01*
X119367184Y-56670600D01*
X119479355Y-56648288D01*
X119585017Y-56604521D01*
X119616546Y-56583454D01*
X119595479Y-56614983D01*
X119551712Y-56720645D01*
X119529400Y-56832816D01*
X119529400Y-56947184D01*
X119551712Y-57059355D01*
X119595479Y-57165017D01*
X119659019Y-57260111D01*
X119739889Y-57340981D01*
X119834983Y-57404521D01*
X119940645Y-57448288D01*
X120052816Y-57470600D01*
X120167184Y-57470600D01*
X120279355Y-57448288D01*
X120385017Y-57404521D01*
X120397740Y-57396020D01*
X120389479Y-57408383D01*
X120345712Y-57514045D01*
X120323400Y-57626216D01*
X120323400Y-57740584D01*
X120345712Y-57852755D01*
X120389479Y-57958417D01*
X120453019Y-58053511D01*
X120533889Y-58134381D01*
X120628983Y-58197921D01*
X120734645Y-58241688D01*
X120846816Y-58264000D01*
X120961184Y-58264000D01*
X121073355Y-58241688D01*
X121179017Y-58197921D01*
X121274111Y-58134381D01*
X121354981Y-58053511D01*
X121418521Y-57958417D01*
X121462288Y-57852755D01*
X121484600Y-57740584D01*
X121484600Y-57626216D01*
X121482074Y-57613516D01*
X123584760Y-57613516D01*
X123584760Y-57727884D01*
X123607072Y-57840055D01*
X123650839Y-57945717D01*
X123714379Y-58040811D01*
X123795249Y-58121681D01*
X123890343Y-58185221D01*
X123996005Y-58228988D01*
X124108176Y-58251300D01*
X124222544Y-58251300D01*
X124334715Y-58228988D01*
X124440377Y-58185221D01*
X124535471Y-58121681D01*
X124616341Y-58040811D01*
X124679881Y-57945717D01*
X124723648Y-57840055D01*
X124745208Y-57731660D01*
X134094367Y-57731660D01*
X134117644Y-57967999D01*
X134186582Y-58195255D01*
X134298530Y-58404696D01*
X134449188Y-58588272D01*
X134632764Y-58738930D01*
X134842205Y-58850878D01*
X135069461Y-58919816D01*
X135246576Y-58937260D01*
X135365024Y-58937260D01*
X135542139Y-58919816D01*
X135769395Y-58850878D01*
X135978836Y-58738930D01*
X136162412Y-58588272D01*
X136313070Y-58404696D01*
X136425018Y-58195255D01*
X136493956Y-57967999D01*
X136517233Y-57731660D01*
X136493956Y-57495321D01*
X136425018Y-57268065D01*
X136313070Y-57058624D01*
X136162412Y-56875048D01*
X135978836Y-56724390D01*
X135769395Y-56612442D01*
X135542139Y-56543504D01*
X135365024Y-56526060D01*
X135246576Y-56526060D01*
X135069461Y-56543504D01*
X134842205Y-56612442D01*
X134632764Y-56724390D01*
X134449188Y-56875048D01*
X134298530Y-57058624D01*
X134186582Y-57268065D01*
X134117644Y-57495321D01*
X134094367Y-57731660D01*
X124745208Y-57731660D01*
X124745960Y-57727884D01*
X124745960Y-57613516D01*
X124723648Y-57501345D01*
X124679881Y-57395683D01*
X124616341Y-57300589D01*
X124535471Y-57219719D01*
X124440377Y-57156179D01*
X124334715Y-57112412D01*
X124222544Y-57090100D01*
X124108176Y-57090100D01*
X123996005Y-57112412D01*
X123890343Y-57156179D01*
X123795249Y-57219719D01*
X123714379Y-57300589D01*
X123650839Y-57395683D01*
X123607072Y-57501345D01*
X123584760Y-57613516D01*
X121482074Y-57613516D01*
X121462288Y-57514045D01*
X121418521Y-57408383D01*
X121354981Y-57313289D01*
X121274111Y-57232419D01*
X121179017Y-57168879D01*
X121073355Y-57125112D01*
X120961184Y-57102800D01*
X120846816Y-57102800D01*
X120734645Y-57125112D01*
X120628983Y-57168879D01*
X120616260Y-57177380D01*
X120624521Y-57165017D01*
X120668288Y-57059355D01*
X120690600Y-56947184D01*
X120690600Y-56832816D01*
X120668288Y-56720645D01*
X120624521Y-56614983D01*
X120560981Y-56519889D01*
X120480111Y-56439019D01*
X120385017Y-56375479D01*
X120279355Y-56331712D01*
X120167184Y-56309400D01*
X120052816Y-56309400D01*
X119940645Y-56331712D01*
X119834983Y-56375479D01*
X119803454Y-56396546D01*
X119824521Y-56365017D01*
X119868288Y-56259355D01*
X119890600Y-56147184D01*
X119890600Y-56032816D01*
X119868288Y-55920645D01*
X119824521Y-55814983D01*
X119760981Y-55719889D01*
X119680111Y-55639019D01*
X119585017Y-55575479D01*
X119479355Y-55531712D01*
X119367184Y-55509400D01*
X119252816Y-55509400D01*
X119140645Y-55531712D01*
X119034983Y-55575479D01*
X118939889Y-55639019D01*
X118859019Y-55719889D01*
X118795479Y-55814983D01*
X118751712Y-55920645D01*
X118729400Y-56032816D01*
X110808611Y-56032816D01*
X110788288Y-55930645D01*
X110744521Y-55824983D01*
X110680981Y-55729889D01*
X110600111Y-55649019D01*
X110505017Y-55585479D01*
X110399355Y-55541712D01*
X110315337Y-55525000D01*
X110399355Y-55508288D01*
X110505017Y-55464521D01*
X110600111Y-55400981D01*
X110680981Y-55320111D01*
X110744521Y-55225017D01*
X110788288Y-55119355D01*
X110810600Y-55007184D01*
X110810600Y-54892816D01*
X110788288Y-54780645D01*
X110782295Y-54766176D01*
X114425520Y-54766176D01*
X114425520Y-54880544D01*
X114447832Y-54992715D01*
X114491599Y-55098377D01*
X114555139Y-55193471D01*
X114636009Y-55274341D01*
X114731103Y-55337881D01*
X114836765Y-55381648D01*
X114948936Y-55403960D01*
X115063304Y-55403960D01*
X115175475Y-55381648D01*
X115281137Y-55337881D01*
X115376231Y-55274341D01*
X115457101Y-55193471D01*
X115520641Y-55098377D01*
X115564408Y-54992715D01*
X115586720Y-54880544D01*
X115586720Y-54766176D01*
X115564408Y-54654005D01*
X115547745Y-54613776D01*
X117925640Y-54613776D01*
X117925640Y-54728144D01*
X117947952Y-54840315D01*
X117991719Y-54945977D01*
X118055259Y-55041071D01*
X118136129Y-55121941D01*
X118231223Y-55185481D01*
X118336885Y-55229248D01*
X118449056Y-55251560D01*
X118563424Y-55251560D01*
X118675595Y-55229248D01*
X118781257Y-55185481D01*
X118876351Y-55121941D01*
X118957221Y-55041071D01*
X119020761Y-54945977D01*
X119064528Y-54840315D01*
X119086840Y-54728144D01*
X119086840Y-54613776D01*
X119064528Y-54501605D01*
X119020761Y-54395943D01*
X118957221Y-54300849D01*
X118899188Y-54242816D01*
X119919400Y-54242816D01*
X119919400Y-54357184D01*
X119941712Y-54469355D01*
X119985479Y-54575017D01*
X120049019Y-54670111D01*
X120129889Y-54750981D01*
X120224983Y-54814521D01*
X120330645Y-54858288D01*
X120442816Y-54880600D01*
X120557184Y-54880600D01*
X120669355Y-54858288D01*
X120775017Y-54814521D01*
X120870111Y-54750981D01*
X120950981Y-54670111D01*
X121014521Y-54575017D01*
X121058288Y-54469355D01*
X121080600Y-54357184D01*
X121080600Y-54242816D01*
X121069004Y-54184516D01*
X122340160Y-54184516D01*
X122340160Y-54298884D01*
X122362472Y-54411055D01*
X122406239Y-54516717D01*
X122469779Y-54611811D01*
X122550649Y-54692681D01*
X122645743Y-54756221D01*
X122751405Y-54799988D01*
X122863576Y-54822300D01*
X122977944Y-54822300D01*
X123090115Y-54799988D01*
X123195777Y-54756221D01*
X123290871Y-54692681D01*
X123371741Y-54611811D01*
X123435281Y-54516717D01*
X123479048Y-54411055D01*
X123492851Y-54341660D01*
X134098480Y-54341660D01*
X134098480Y-56041660D01*
X134105346Y-56111370D01*
X134125679Y-56178400D01*
X134158699Y-56240176D01*
X134203137Y-56294323D01*
X134257284Y-56338761D01*
X134319060Y-56371781D01*
X134386090Y-56392114D01*
X134455800Y-56398980D01*
X136155800Y-56398980D01*
X136225510Y-56392114D01*
X136292540Y-56371781D01*
X136354316Y-56338761D01*
X136408463Y-56294323D01*
X136452901Y-56240176D01*
X136485921Y-56178400D01*
X136506254Y-56111370D01*
X136513120Y-56041660D01*
X136513120Y-54341660D01*
X136506254Y-54271950D01*
X136485921Y-54204920D01*
X136452901Y-54143144D01*
X136408463Y-54088997D01*
X136354316Y-54044559D01*
X136292540Y-54011539D01*
X136225510Y-53991206D01*
X136155800Y-53984340D01*
X134455800Y-53984340D01*
X134386090Y-53991206D01*
X134319060Y-54011539D01*
X134257284Y-54044559D01*
X134203137Y-54088997D01*
X134158699Y-54143144D01*
X134125679Y-54204920D01*
X134105346Y-54271950D01*
X134098480Y-54341660D01*
X123492851Y-54341660D01*
X123501360Y-54298884D01*
X123501360Y-54184516D01*
X123479048Y-54072345D01*
X123435281Y-53966683D01*
X123371741Y-53871589D01*
X123290871Y-53790719D01*
X123195777Y-53727179D01*
X123090115Y-53683412D01*
X122977944Y-53661100D01*
X122863576Y-53661100D01*
X122751405Y-53683412D01*
X122645743Y-53727179D01*
X122550649Y-53790719D01*
X122469779Y-53871589D01*
X122406239Y-53966683D01*
X122362472Y-54072345D01*
X122340160Y-54184516D01*
X121069004Y-54184516D01*
X121058288Y-54130645D01*
X121014521Y-54024983D01*
X120950981Y-53929889D01*
X120870111Y-53849019D01*
X120775017Y-53785479D01*
X120669355Y-53741712D01*
X120557184Y-53719400D01*
X120442816Y-53719400D01*
X120330645Y-53741712D01*
X120224983Y-53785479D01*
X120129889Y-53849019D01*
X120049019Y-53929889D01*
X119985479Y-54024983D01*
X119941712Y-54130645D01*
X119919400Y-54242816D01*
X118899188Y-54242816D01*
X118876351Y-54219979D01*
X118781257Y-54156439D01*
X118675595Y-54112672D01*
X118563424Y-54090360D01*
X118449056Y-54090360D01*
X118336885Y-54112672D01*
X118231223Y-54156439D01*
X118136129Y-54219979D01*
X118055259Y-54300849D01*
X117991719Y-54395943D01*
X117947952Y-54501605D01*
X117925640Y-54613776D01*
X115547745Y-54613776D01*
X115520641Y-54548343D01*
X115457101Y-54453249D01*
X115376231Y-54372379D01*
X115281137Y-54308839D01*
X115175475Y-54265072D01*
X115063304Y-54242760D01*
X114948936Y-54242760D01*
X114836765Y-54265072D01*
X114731103Y-54308839D01*
X114636009Y-54372379D01*
X114555139Y-54453249D01*
X114491599Y-54548343D01*
X114447832Y-54654005D01*
X114425520Y-54766176D01*
X110782295Y-54766176D01*
X110744521Y-54674983D01*
X110680981Y-54579889D01*
X110600111Y-54499019D01*
X110505017Y-54435479D01*
X110399355Y-54391712D01*
X110287184Y-54369400D01*
X110172816Y-54369400D01*
X110060645Y-54391712D01*
X109954983Y-54435479D01*
X109859889Y-54499019D01*
X109779019Y-54579889D01*
X109715479Y-54674983D01*
X109671712Y-54780645D01*
X109649400Y-54892816D01*
X108141320Y-54892816D01*
X108141320Y-53734600D01*
X108134454Y-53664890D01*
X108114121Y-53597860D01*
X108101858Y-53574916D01*
X116030800Y-53574916D01*
X116030800Y-53689284D01*
X116053112Y-53801455D01*
X116096879Y-53907117D01*
X116160419Y-54002211D01*
X116241289Y-54083081D01*
X116336383Y-54146621D01*
X116442045Y-54190388D01*
X116554216Y-54212700D01*
X116668584Y-54212700D01*
X116780755Y-54190388D01*
X116886417Y-54146621D01*
X116981511Y-54083081D01*
X117062381Y-54002211D01*
X117125921Y-53907117D01*
X117169688Y-53801455D01*
X117192000Y-53689284D01*
X117192000Y-53574916D01*
X117169688Y-53462745D01*
X117125921Y-53357083D01*
X117062381Y-53261989D01*
X116981511Y-53181119D01*
X116886417Y-53117579D01*
X116780755Y-53073812D01*
X116668584Y-53051500D01*
X116554216Y-53051500D01*
X116442045Y-53073812D01*
X116336383Y-53117579D01*
X116241289Y-53181119D01*
X116160419Y-53261989D01*
X116096879Y-53357083D01*
X116053112Y-53462745D01*
X116030800Y-53574916D01*
X108101858Y-53574916D01*
X108081101Y-53536084D01*
X108036663Y-53481937D01*
X107982516Y-53437499D01*
X107920740Y-53404479D01*
X107853710Y-53384146D01*
X107817708Y-53380600D01*
X113981307Y-53380600D01*
X114000000Y-53382441D01*
X114018693Y-53380600D01*
X114074611Y-53375093D01*
X114146354Y-53353329D01*
X114212473Y-53317988D01*
X114270427Y-53270427D01*
X114317988Y-53212473D01*
X114353329Y-53146354D01*
X114375093Y-53074611D01*
X114382441Y-53000000D01*
X114380600Y-52981307D01*
X114380600Y-51636896D01*
X119917000Y-51636896D01*
X119917000Y-51751264D01*
X119939312Y-51863435D01*
X119983079Y-51969097D01*
X120046619Y-52064191D01*
X120127489Y-52145061D01*
X120222583Y-52208601D01*
X120328245Y-52252368D01*
X120440416Y-52274680D01*
X120554784Y-52274680D01*
X120666955Y-52252368D01*
X120772617Y-52208601D01*
X120867711Y-52145061D01*
X120948581Y-52064191D01*
X121012121Y-51969097D01*
X121031579Y-51922122D01*
X121034052Y-51934555D01*
X121077819Y-52040217D01*
X121141359Y-52135311D01*
X121222229Y-52216181D01*
X121317323Y-52279721D01*
X121422985Y-52323488D01*
X121535156Y-52345800D01*
X121649524Y-52345800D01*
X121761695Y-52323488D01*
X121867357Y-52279721D01*
X121962451Y-52216181D01*
X122043321Y-52135311D01*
X122106861Y-52040217D01*
X122140019Y-51960168D01*
X122141492Y-51967575D01*
X122185259Y-52073237D01*
X122248799Y-52168331D01*
X122329669Y-52249201D01*
X122424763Y-52312741D01*
X122530425Y-52356508D01*
X122642596Y-52378820D01*
X122756964Y-52378820D01*
X122869135Y-52356508D01*
X122974797Y-52312741D01*
X123069891Y-52249201D01*
X123150761Y-52168331D01*
X123214301Y-52073237D01*
X123258068Y-51967575D01*
X123280380Y-51855404D01*
X123280380Y-51741036D01*
X123258068Y-51628865D01*
X123214301Y-51523203D01*
X123150761Y-51428109D01*
X123069891Y-51347239D01*
X122974797Y-51283699D01*
X122869135Y-51239932D01*
X122756964Y-51217620D01*
X122642596Y-51217620D01*
X122530425Y-51239932D01*
X122424763Y-51283699D01*
X122329669Y-51347239D01*
X122248799Y-51428109D01*
X122185259Y-51523203D01*
X122152101Y-51603252D01*
X122150628Y-51595845D01*
X122106861Y-51490183D01*
X122043321Y-51395089D01*
X121962451Y-51314219D01*
X121867357Y-51250679D01*
X121761695Y-51206912D01*
X121649524Y-51184600D01*
X121535156Y-51184600D01*
X121422985Y-51206912D01*
X121317323Y-51250679D01*
X121222229Y-51314219D01*
X121141359Y-51395089D01*
X121077819Y-51490183D01*
X121058361Y-51537158D01*
X121055888Y-51524725D01*
X121012121Y-51419063D01*
X120948581Y-51323969D01*
X120867711Y-51243099D01*
X120772617Y-51179559D01*
X120666955Y-51135792D01*
X120554784Y-51113480D01*
X120440416Y-51113480D01*
X120328245Y-51135792D01*
X120222583Y-51179559D01*
X120127489Y-51243099D01*
X120046619Y-51323969D01*
X119983079Y-51419063D01*
X119939312Y-51524725D01*
X119917000Y-51636896D01*
X114380600Y-51636896D01*
X114380600Y-48268619D01*
X114398949Y-48081485D01*
X114447887Y-47919394D01*
X114527378Y-47769893D01*
X114634394Y-47638677D01*
X114764860Y-47530746D01*
X114913802Y-47450215D01*
X115075550Y-47400145D01*
X115261505Y-47380600D01*
X122431381Y-47380600D01*
X122618515Y-47398949D01*
M02*
