G04 #@! TF.GenerationSoftware,KiCad,Pcbnew,(5.1.0)-1*
G04 #@! TF.CreationDate,2019-08-27T17:01:11-07:00*
G04 #@! TF.ProjectId,SDCard-PCB,53444361-7264-42d5-9043-422e6b696361,rev?*
G04 #@! TF.SameCoordinates,Original*
G04 #@! TF.FileFunction,Paste,Top*
G04 #@! TF.FilePolarity,Positive*
%FSLAX46Y46*%
G04 Gerber Fmt 4.6, Leading zero omitted, Abs format (unit mm)*
G04 Created by KiCad (PCBNEW (5.1.0)-1) date 2019-08-27 17:01:11*
%MOMM*%
%LPD*%
G04 APERTURE LIST*
%ADD10R,2.500000X2.500000*%
%ADD11R,2.200000X1.050000*%
%ADD12R,2.000000X1.000000*%
%ADD13R,0.310000X0.340000*%
%ADD14R,0.870000X2.620000*%
%ADD15R,0.920000X0.890000*%
%ADD16R,0.870000X0.810000*%
%ADD17R,0.340000X0.310000*%
%ADD18C,0.100000*%
%ADD19C,0.590000*%
%ADD20R,0.260000X0.680000*%
%ADD21R,0.680000X0.260000*%
%ADD22R,1.350000X1.350000*%
%ADD23R,0.630000X0.580000*%
%ADD24R,1.200000X1.400000*%
%ADD25C,0.370000*%
%ADD26R,0.740000X0.270000*%
%ADD27R,0.820000X0.270000*%
%ADD28R,0.490000X0.560000*%
%ADD29C,0.700000*%
%ADD30R,0.770000X0.710000*%
%ADD31R,0.810000X0.870000*%
%ADD32R,0.930000X1.320000*%
%ADD33R,0.580000X0.630000*%
G04 APERTURE END LIST*
D10*
X127144780Y-72798940D03*
D11*
X124545220Y-74281560D03*
X124545220Y-71331560D03*
D12*
X123045220Y-72806560D03*
D13*
X127129540Y-78933040D03*
X127679540Y-78933040D03*
D14*
X128818100Y-76791820D03*
X125768100Y-76791820D03*
D15*
X122897900Y-66268600D03*
X122897900Y-64938600D03*
D16*
X121597420Y-66267880D03*
X121597420Y-64907880D03*
D17*
X114515900Y-78952000D03*
X114515900Y-79502000D03*
D13*
X120345200Y-73444100D03*
X120895200Y-73444100D03*
D18*
G36*
X118474258Y-70545610D02*
G01*
X118488576Y-70547734D01*
X118502617Y-70551251D01*
X118516246Y-70556128D01*
X118529331Y-70562317D01*
X118541747Y-70569758D01*
X118553373Y-70578381D01*
X118564098Y-70588102D01*
X118573819Y-70598827D01*
X118582442Y-70610453D01*
X118589883Y-70622869D01*
X118596072Y-70635954D01*
X118600949Y-70649583D01*
X118604466Y-70663624D01*
X118606590Y-70677942D01*
X118607300Y-70692400D01*
X118607300Y-70987400D01*
X118606590Y-71001858D01*
X118604466Y-71016176D01*
X118600949Y-71030217D01*
X118596072Y-71043846D01*
X118589883Y-71056931D01*
X118582442Y-71069347D01*
X118573819Y-71080973D01*
X118564098Y-71091698D01*
X118553373Y-71101419D01*
X118541747Y-71110042D01*
X118529331Y-71117483D01*
X118516246Y-71123672D01*
X118502617Y-71128549D01*
X118488576Y-71132066D01*
X118474258Y-71134190D01*
X118459800Y-71134900D01*
X118114800Y-71134900D01*
X118100342Y-71134190D01*
X118086024Y-71132066D01*
X118071983Y-71128549D01*
X118058354Y-71123672D01*
X118045269Y-71117483D01*
X118032853Y-71110042D01*
X118021227Y-71101419D01*
X118010502Y-71091698D01*
X118000781Y-71080973D01*
X117992158Y-71069347D01*
X117984717Y-71056931D01*
X117978528Y-71043846D01*
X117973651Y-71030217D01*
X117970134Y-71016176D01*
X117968010Y-71001858D01*
X117967300Y-70987400D01*
X117967300Y-70692400D01*
X117968010Y-70677942D01*
X117970134Y-70663624D01*
X117973651Y-70649583D01*
X117978528Y-70635954D01*
X117984717Y-70622869D01*
X117992158Y-70610453D01*
X118000781Y-70598827D01*
X118010502Y-70588102D01*
X118021227Y-70578381D01*
X118032853Y-70569758D01*
X118045269Y-70562317D01*
X118058354Y-70556128D01*
X118071983Y-70551251D01*
X118086024Y-70547734D01*
X118100342Y-70545610D01*
X118114800Y-70544900D01*
X118459800Y-70544900D01*
X118474258Y-70545610D01*
X118474258Y-70545610D01*
G37*
D19*
X118287300Y-70839900D03*
D18*
G36*
X118474258Y-71515610D02*
G01*
X118488576Y-71517734D01*
X118502617Y-71521251D01*
X118516246Y-71526128D01*
X118529331Y-71532317D01*
X118541747Y-71539758D01*
X118553373Y-71548381D01*
X118564098Y-71558102D01*
X118573819Y-71568827D01*
X118582442Y-71580453D01*
X118589883Y-71592869D01*
X118596072Y-71605954D01*
X118600949Y-71619583D01*
X118604466Y-71633624D01*
X118606590Y-71647942D01*
X118607300Y-71662400D01*
X118607300Y-71957400D01*
X118606590Y-71971858D01*
X118604466Y-71986176D01*
X118600949Y-72000217D01*
X118596072Y-72013846D01*
X118589883Y-72026931D01*
X118582442Y-72039347D01*
X118573819Y-72050973D01*
X118564098Y-72061698D01*
X118553373Y-72071419D01*
X118541747Y-72080042D01*
X118529331Y-72087483D01*
X118516246Y-72093672D01*
X118502617Y-72098549D01*
X118488576Y-72102066D01*
X118474258Y-72104190D01*
X118459800Y-72104900D01*
X118114800Y-72104900D01*
X118100342Y-72104190D01*
X118086024Y-72102066D01*
X118071983Y-72098549D01*
X118058354Y-72093672D01*
X118045269Y-72087483D01*
X118032853Y-72080042D01*
X118021227Y-72071419D01*
X118010502Y-72061698D01*
X118000781Y-72050973D01*
X117992158Y-72039347D01*
X117984717Y-72026931D01*
X117978528Y-72013846D01*
X117973651Y-72000217D01*
X117970134Y-71986176D01*
X117968010Y-71971858D01*
X117967300Y-71957400D01*
X117967300Y-71662400D01*
X117968010Y-71647942D01*
X117970134Y-71633624D01*
X117973651Y-71619583D01*
X117978528Y-71605954D01*
X117984717Y-71592869D01*
X117992158Y-71580453D01*
X118000781Y-71568827D01*
X118010502Y-71558102D01*
X118021227Y-71548381D01*
X118032853Y-71539758D01*
X118045269Y-71532317D01*
X118058354Y-71526128D01*
X118071983Y-71521251D01*
X118086024Y-71517734D01*
X118100342Y-71515610D01*
X118114800Y-71514900D01*
X118459800Y-71514900D01*
X118474258Y-71515610D01*
X118474258Y-71515610D01*
G37*
D19*
X118287300Y-71809900D03*
D17*
X115023900Y-77779200D03*
X115023900Y-78329200D03*
X119291100Y-76674300D03*
X119291100Y-77224300D03*
D13*
X118024600Y-77325600D03*
X118574600Y-77325600D03*
X110346400Y-77558900D03*
X110896400Y-77558900D03*
D20*
X113020000Y-76965000D03*
X113520000Y-76965000D03*
X114020000Y-76965000D03*
X114520000Y-76965000D03*
X115020000Y-76965000D03*
X115520000Y-76965000D03*
X116020000Y-76965000D03*
X116520000Y-76965000D03*
D21*
X117105000Y-76380000D03*
X117105000Y-75880000D03*
X117105000Y-75380000D03*
X117105000Y-74880000D03*
X117105000Y-74380000D03*
X117105000Y-73880000D03*
X117105000Y-73380000D03*
X117105000Y-72880000D03*
D20*
X116520000Y-72295000D03*
X116020000Y-72295000D03*
X115520000Y-72295000D03*
X115020000Y-72295000D03*
X114520000Y-72295000D03*
X114020000Y-72295000D03*
X113520000Y-72295000D03*
X113020000Y-72295000D03*
D21*
X112435000Y-72880000D03*
X112435000Y-73380000D03*
X112435000Y-73880000D03*
X112435000Y-74380000D03*
X112435000Y-74880000D03*
X112435000Y-75380000D03*
X112435000Y-75880000D03*
X112435000Y-76380000D03*
D22*
X115545000Y-75405000D03*
X115545000Y-73855000D03*
X113995000Y-75405000D03*
X113995000Y-73855000D03*
D13*
X118579600Y-78015600D03*
X118029600Y-78015600D03*
D18*
G36*
X118476958Y-74615710D02*
G01*
X118491276Y-74617834D01*
X118505317Y-74621351D01*
X118518946Y-74626228D01*
X118532031Y-74632417D01*
X118544447Y-74639858D01*
X118556073Y-74648481D01*
X118566798Y-74658202D01*
X118576519Y-74668927D01*
X118585142Y-74680553D01*
X118592583Y-74692969D01*
X118598772Y-74706054D01*
X118603649Y-74719683D01*
X118607166Y-74733724D01*
X118609290Y-74748042D01*
X118610000Y-74762500D01*
X118610000Y-75057500D01*
X118609290Y-75071958D01*
X118607166Y-75086276D01*
X118603649Y-75100317D01*
X118598772Y-75113946D01*
X118592583Y-75127031D01*
X118585142Y-75139447D01*
X118576519Y-75151073D01*
X118566798Y-75161798D01*
X118556073Y-75171519D01*
X118544447Y-75180142D01*
X118532031Y-75187583D01*
X118518946Y-75193772D01*
X118505317Y-75198649D01*
X118491276Y-75202166D01*
X118476958Y-75204290D01*
X118462500Y-75205000D01*
X118117500Y-75205000D01*
X118103042Y-75204290D01*
X118088724Y-75202166D01*
X118074683Y-75198649D01*
X118061054Y-75193772D01*
X118047969Y-75187583D01*
X118035553Y-75180142D01*
X118023927Y-75171519D01*
X118013202Y-75161798D01*
X118003481Y-75151073D01*
X117994858Y-75139447D01*
X117987417Y-75127031D01*
X117981228Y-75113946D01*
X117976351Y-75100317D01*
X117972834Y-75086276D01*
X117970710Y-75071958D01*
X117970000Y-75057500D01*
X117970000Y-74762500D01*
X117970710Y-74748042D01*
X117972834Y-74733724D01*
X117976351Y-74719683D01*
X117981228Y-74706054D01*
X117987417Y-74692969D01*
X117994858Y-74680553D01*
X118003481Y-74668927D01*
X118013202Y-74658202D01*
X118023927Y-74648481D01*
X118035553Y-74639858D01*
X118047969Y-74632417D01*
X118061054Y-74626228D01*
X118074683Y-74621351D01*
X118088724Y-74617834D01*
X118103042Y-74615710D01*
X118117500Y-74615000D01*
X118462500Y-74615000D01*
X118476958Y-74615710D01*
X118476958Y-74615710D01*
G37*
D19*
X118290000Y-74910000D03*
D18*
G36*
X118476958Y-75585710D02*
G01*
X118491276Y-75587834D01*
X118505317Y-75591351D01*
X118518946Y-75596228D01*
X118532031Y-75602417D01*
X118544447Y-75609858D01*
X118556073Y-75618481D01*
X118566798Y-75628202D01*
X118576519Y-75638927D01*
X118585142Y-75650553D01*
X118592583Y-75662969D01*
X118598772Y-75676054D01*
X118603649Y-75689683D01*
X118607166Y-75703724D01*
X118609290Y-75718042D01*
X118610000Y-75732500D01*
X118610000Y-76027500D01*
X118609290Y-76041958D01*
X118607166Y-76056276D01*
X118603649Y-76070317D01*
X118598772Y-76083946D01*
X118592583Y-76097031D01*
X118585142Y-76109447D01*
X118576519Y-76121073D01*
X118566798Y-76131798D01*
X118556073Y-76141519D01*
X118544447Y-76150142D01*
X118532031Y-76157583D01*
X118518946Y-76163772D01*
X118505317Y-76168649D01*
X118491276Y-76172166D01*
X118476958Y-76174290D01*
X118462500Y-76175000D01*
X118117500Y-76175000D01*
X118103042Y-76174290D01*
X118088724Y-76172166D01*
X118074683Y-76168649D01*
X118061054Y-76163772D01*
X118047969Y-76157583D01*
X118035553Y-76150142D01*
X118023927Y-76141519D01*
X118013202Y-76131798D01*
X118003481Y-76121073D01*
X117994858Y-76109447D01*
X117987417Y-76097031D01*
X117981228Y-76083946D01*
X117976351Y-76070317D01*
X117972834Y-76056276D01*
X117970710Y-76041958D01*
X117970000Y-76027500D01*
X117970000Y-75732500D01*
X117970710Y-75718042D01*
X117972834Y-75703724D01*
X117976351Y-75689683D01*
X117981228Y-75676054D01*
X117987417Y-75662969D01*
X117994858Y-75650553D01*
X118003481Y-75638927D01*
X118013202Y-75628202D01*
X118023927Y-75618481D01*
X118035553Y-75609858D01*
X118047969Y-75602417D01*
X118061054Y-75596228D01*
X118074683Y-75591351D01*
X118088724Y-75587834D01*
X118103042Y-75585710D01*
X118117500Y-75585000D01*
X118462500Y-75585000D01*
X118476958Y-75585710D01*
X118476958Y-75585710D01*
G37*
D19*
X118290000Y-75880000D03*
D13*
X110342000Y-74409300D03*
X110892000Y-74409300D03*
D17*
X120107300Y-71254900D03*
X120107300Y-71804900D03*
D13*
X110342000Y-75184000D03*
X110892000Y-75184000D03*
X110354700Y-78359000D03*
X110904700Y-78359000D03*
D17*
X120904000Y-75319800D03*
X120904000Y-75869800D03*
D13*
X110342000Y-76758800D03*
X110892000Y-76758800D03*
X110342000Y-75971400D03*
X110892000Y-75971400D03*
D17*
X120917300Y-71254900D03*
X120917300Y-71804900D03*
X120103900Y-75315400D03*
X120103900Y-75865400D03*
D23*
X119287300Y-70919900D03*
X119287300Y-71809900D03*
X119310000Y-74985000D03*
X119310000Y-75875000D03*
X112077500Y-79375500D03*
X112077500Y-78485500D03*
D17*
X120103900Y-77219900D03*
X120103900Y-76669900D03*
D13*
X119016100Y-73444100D03*
X119566100Y-73444100D03*
D17*
X118239540Y-73352660D03*
X118239540Y-72802660D03*
D24*
X130481440Y-64167840D03*
X130481440Y-66367840D03*
X128781440Y-66367840D03*
X128781440Y-64167840D03*
D25*
X115703800Y-55683600D03*
X116503800Y-55683600D03*
X117303800Y-55683600D03*
X118103800Y-55683600D03*
X118903800Y-55683600D03*
X119703800Y-55683600D03*
X120503800Y-55683600D03*
X121303800Y-55683600D03*
X122103800Y-55683600D03*
X122903800Y-55683600D03*
X115703800Y-56483600D03*
X116503800Y-56483600D03*
X117303800Y-56483600D03*
X118103800Y-56483600D03*
X118903800Y-56483600D03*
X119703800Y-56483600D03*
X120503800Y-56483600D03*
X121303800Y-56483600D03*
X122103800Y-56483600D03*
X122903800Y-56483600D03*
X115703800Y-57283600D03*
X116503800Y-57283600D03*
X117303800Y-57283600D03*
X118103800Y-57283600D03*
X118903800Y-57283600D03*
X119703800Y-57283600D03*
X120503800Y-57283600D03*
X121303800Y-57283600D03*
X122103800Y-57283600D03*
X122903800Y-57283600D03*
X115703800Y-58083600D03*
X116503800Y-58083600D03*
X117303800Y-58083600D03*
X118103800Y-58083600D03*
X118903800Y-58083600D03*
X119703800Y-58083600D03*
X120503800Y-58083600D03*
X121303800Y-58083600D03*
X122103800Y-58083600D03*
X122903800Y-58083600D03*
X115703800Y-58883600D03*
X116503800Y-58883600D03*
X117303800Y-58883600D03*
X118103800Y-58883600D03*
X118903800Y-58883600D03*
X119703800Y-58883600D03*
X120503800Y-58883600D03*
X121303800Y-58883600D03*
X122103800Y-58883600D03*
X122903800Y-58883600D03*
X115703800Y-59683600D03*
X116503800Y-59683600D03*
X117303800Y-59683600D03*
X118103800Y-59683600D03*
X118903800Y-59683600D03*
X119703800Y-59683600D03*
X120503800Y-59683600D03*
X121303800Y-59683600D03*
X122103800Y-59683600D03*
X122903800Y-59683600D03*
X115703800Y-60483600D03*
X116503800Y-60483600D03*
X117303800Y-60483600D03*
X118103800Y-60483600D03*
X118903800Y-60483600D03*
X119703800Y-60483600D03*
X120503800Y-60483600D03*
X121303800Y-60483600D03*
X122103800Y-60483600D03*
X122903800Y-60483600D03*
X115703800Y-61283600D03*
X116503800Y-61283600D03*
X117303800Y-61283600D03*
X118103800Y-61283600D03*
X118903800Y-61283600D03*
X119703800Y-61283600D03*
X120503800Y-61283600D03*
X121303800Y-61283600D03*
X122103800Y-61283600D03*
X122903800Y-61283600D03*
X115703800Y-62083600D03*
X116503800Y-62083600D03*
X117303800Y-62083600D03*
X118103800Y-62083600D03*
X118903800Y-62083600D03*
X119703800Y-62083600D03*
X120503800Y-62083600D03*
X121303800Y-62083600D03*
X122103800Y-62083600D03*
X122903800Y-62083600D03*
X115703800Y-62883600D03*
X116503800Y-62883600D03*
X117303800Y-62883600D03*
X118103800Y-62883600D03*
X118903800Y-62883600D03*
X119703800Y-62883600D03*
X120503800Y-62883600D03*
X121303800Y-62883600D03*
X122103800Y-62883600D03*
X122903800Y-62883600D03*
D26*
X130509060Y-80937060D03*
X130509060Y-81437060D03*
X130509060Y-81937060D03*
X129449060Y-81937060D03*
X129449060Y-81437060D03*
D27*
X129489060Y-80937060D03*
D28*
X105338200Y-71988680D03*
X106248200Y-71988680D03*
X105272500Y-67830700D03*
X106182500Y-67830700D03*
X129732700Y-58930540D03*
X130642700Y-58930540D03*
D15*
X118846600Y-64938600D03*
X118846600Y-66268600D03*
D18*
G36*
X124174918Y-75586070D02*
G01*
X124189236Y-75588194D01*
X124203277Y-75591711D01*
X124216906Y-75596588D01*
X124229991Y-75602777D01*
X124242407Y-75610218D01*
X124254033Y-75618841D01*
X124264758Y-75628562D01*
X124274479Y-75639287D01*
X124283102Y-75650913D01*
X124290543Y-75663329D01*
X124296732Y-75676414D01*
X124301609Y-75690043D01*
X124305126Y-75704084D01*
X124307250Y-75718402D01*
X124307960Y-75732860D01*
X124307960Y-76077860D01*
X124307250Y-76092318D01*
X124305126Y-76106636D01*
X124301609Y-76120677D01*
X124296732Y-76134306D01*
X124290543Y-76147391D01*
X124283102Y-76159807D01*
X124274479Y-76171433D01*
X124264758Y-76182158D01*
X124254033Y-76191879D01*
X124242407Y-76200502D01*
X124229991Y-76207943D01*
X124216906Y-76214132D01*
X124203277Y-76219009D01*
X124189236Y-76222526D01*
X124174918Y-76224650D01*
X124160460Y-76225360D01*
X123865460Y-76225360D01*
X123851002Y-76224650D01*
X123836684Y-76222526D01*
X123822643Y-76219009D01*
X123809014Y-76214132D01*
X123795929Y-76207943D01*
X123783513Y-76200502D01*
X123771887Y-76191879D01*
X123761162Y-76182158D01*
X123751441Y-76171433D01*
X123742818Y-76159807D01*
X123735377Y-76147391D01*
X123729188Y-76134306D01*
X123724311Y-76120677D01*
X123720794Y-76106636D01*
X123718670Y-76092318D01*
X123717960Y-76077860D01*
X123717960Y-75732860D01*
X123718670Y-75718402D01*
X123720794Y-75704084D01*
X123724311Y-75690043D01*
X123729188Y-75676414D01*
X123735377Y-75663329D01*
X123742818Y-75650913D01*
X123751441Y-75639287D01*
X123761162Y-75628562D01*
X123771887Y-75618841D01*
X123783513Y-75610218D01*
X123795929Y-75602777D01*
X123809014Y-75596588D01*
X123822643Y-75591711D01*
X123836684Y-75588194D01*
X123851002Y-75586070D01*
X123865460Y-75585360D01*
X124160460Y-75585360D01*
X124174918Y-75586070D01*
X124174918Y-75586070D01*
G37*
D19*
X124012960Y-75905360D03*
D18*
G36*
X123204918Y-75586070D02*
G01*
X123219236Y-75588194D01*
X123233277Y-75591711D01*
X123246906Y-75596588D01*
X123259991Y-75602777D01*
X123272407Y-75610218D01*
X123284033Y-75618841D01*
X123294758Y-75628562D01*
X123304479Y-75639287D01*
X123313102Y-75650913D01*
X123320543Y-75663329D01*
X123326732Y-75676414D01*
X123331609Y-75690043D01*
X123335126Y-75704084D01*
X123337250Y-75718402D01*
X123337960Y-75732860D01*
X123337960Y-76077860D01*
X123337250Y-76092318D01*
X123335126Y-76106636D01*
X123331609Y-76120677D01*
X123326732Y-76134306D01*
X123320543Y-76147391D01*
X123313102Y-76159807D01*
X123304479Y-76171433D01*
X123294758Y-76182158D01*
X123284033Y-76191879D01*
X123272407Y-76200502D01*
X123259991Y-76207943D01*
X123246906Y-76214132D01*
X123233277Y-76219009D01*
X123219236Y-76222526D01*
X123204918Y-76224650D01*
X123190460Y-76225360D01*
X122895460Y-76225360D01*
X122881002Y-76224650D01*
X122866684Y-76222526D01*
X122852643Y-76219009D01*
X122839014Y-76214132D01*
X122825929Y-76207943D01*
X122813513Y-76200502D01*
X122801887Y-76191879D01*
X122791162Y-76182158D01*
X122781441Y-76171433D01*
X122772818Y-76159807D01*
X122765377Y-76147391D01*
X122759188Y-76134306D01*
X122754311Y-76120677D01*
X122750794Y-76106636D01*
X122748670Y-76092318D01*
X122747960Y-76077860D01*
X122747960Y-75732860D01*
X122748670Y-75718402D01*
X122750794Y-75704084D01*
X122754311Y-75690043D01*
X122759188Y-75676414D01*
X122765377Y-75663329D01*
X122772818Y-75650913D01*
X122781441Y-75639287D01*
X122791162Y-75628562D01*
X122801887Y-75618841D01*
X122813513Y-75610218D01*
X122825929Y-75602777D01*
X122839014Y-75596588D01*
X122852643Y-75591711D01*
X122866684Y-75588194D01*
X122881002Y-75586070D01*
X122895460Y-75585360D01*
X123190460Y-75585360D01*
X123204918Y-75586070D01*
X123204918Y-75586070D01*
G37*
D19*
X123042960Y-75905360D03*
D29*
X109194600Y-55118000D03*
D30*
X130935460Y-60142880D03*
X129475460Y-60142880D03*
D31*
X111971540Y-64427100D03*
X113331540Y-64427100D03*
X111967180Y-58582560D03*
X113327180Y-58582560D03*
D32*
X126682080Y-61495940D03*
X125042080Y-61495940D03*
D31*
X111972260Y-56822340D03*
X113332260Y-56822340D03*
X111981700Y-55102760D03*
X113341700Y-55102760D03*
D16*
X120142000Y-66268600D03*
X120142000Y-64908600D03*
D31*
X126366820Y-55971440D03*
X125006820Y-55971440D03*
X111974080Y-60683140D03*
X113334080Y-60683140D03*
X126366820Y-57670700D03*
X125006820Y-57670700D03*
X111971540Y-62567820D03*
X113331540Y-62567820D03*
D33*
X126131820Y-59151520D03*
X125241820Y-59151520D03*
X129484620Y-62227460D03*
X128594620Y-62227460D03*
D23*
X132290820Y-65464960D03*
X132290820Y-66354960D03*
D13*
X132540420Y-80896460D03*
X131990420Y-80896460D03*
X132536020Y-81556860D03*
X131986020Y-81556860D03*
X130244260Y-83159600D03*
X129694260Y-83159600D03*
D33*
X131412980Y-77266800D03*
X130522980Y-77266800D03*
X131415520Y-79011780D03*
X130525520Y-79011780D03*
M02*
