M48
; DRILL file {KiCad (5.1.6)-1} date 10/08/20 20:15:57
; FORMAT={-:-/ absolute / inch / decimal}
; #@! TF.CreationDate,2020-10-08T20:15:57-07:00
; #@! TF.GenerationSoftware,Kicad,Pcbnew,(5.1.6)-1
; #@! TF.FileFunction,Plated,1,2,PTH
FMAT,2
INCH
T1C0.0059
%
G90
G05
T1
X5.1218Y-3.81
X5.1218Y-4.0384
X5.1376Y-3.8231
X5.1376Y-4.0513
X5.1533Y-3.81
X5.1533Y-4.0384
X5.1691Y-3.8227
X5.1691Y-4.0513
X5.1848Y-3.81
X5.1848Y-4.0384
X5.2006Y-3.8231
X5.2006Y-4.0513
X5.2163Y-3.81
X5.2163Y-4.0384
X5.232Y-3.8227
X5.232Y-4.0513
X5.2478Y-3.81
X5.2478Y-4.0384
X5.2635Y-3.8227
X5.2635Y-4.0513
X5.2793Y-3.81
X5.2793Y-4.0384
X5.295Y-3.8227
X5.295Y-4.0513
X5.3108Y-3.81
X5.3108Y-4.0384
X5.3265Y-3.8227
X5.3265Y-4.0513
X5.3423Y-3.81
X5.3423Y-4.0384
X5.358Y-3.8227
X5.358Y-4.0513
X5.3738Y-3.81
X5.3738Y-4.0384
X5.3895Y-3.8227
X5.3895Y-4.0513
X5.4053Y-3.81
X5.4053Y-4.0384
X5.421Y-3.8227
X5.421Y-4.0513
X5.4368Y-3.81
X5.4368Y-4.0384
X5.4525Y-3.8227
X5.4525Y-4.0513
X5.4683Y-3.81
X5.4683Y-4.0384
X5.484Y-3.8227
X5.484Y-4.0513
X5.4998Y-3.81
X5.4998Y-4.0384
X5.5155Y-3.8227
X5.5155Y-4.0513
X5.5313Y-3.81
X5.5313Y-4.0384
X5.6206Y-3.8228
X5.6206Y-4.0755
X5.6363Y-4.0628
X5.6364Y-3.8101
X5.6521Y-3.8228
X5.6521Y-4.0755
X5.6678Y-4.0628
X5.6679Y-3.8101
X5.6835Y-3.8228
X5.6835Y-4.0755
X5.6993Y-4.0629
X5.6993Y-3.8101
T0
M30
