G04 #@! TF.GenerationSoftware,KiCad,Pcbnew,(5.1.6)-1*
G04 #@! TF.CreationDate,2020-10-08T20:15:55-07:00*
G04 #@! TF.ProjectId,Flex Cable,466c6578-2043-4616-926c-652e6b696361,rev?*
G04 #@! TF.SameCoordinates,Original*
G04 #@! TF.FileFunction,Copper,L2,Bot*
G04 #@! TF.FilePolarity,Positive*
%FSLAX46Y46*%
G04 Gerber Fmt 4.6, Leading zero omitted, Abs format (unit mm)*
G04 Created by KiCad (PCBNEW (5.1.6)-1) date 2020-10-08 20:15:55*
%MOMM*%
%LPD*%
G01*
G04 APERTURE LIST*
G04 #@! TA.AperFunction,SMDPad,CuDef*
%ADD10R,0.200000X1.000000*%
G04 #@! TD*
G04 #@! TA.AperFunction,ViaPad*
%ADD11C,0.350000*%
G04 #@! TD*
G04 #@! TA.AperFunction,Conductor*
%ADD12C,0.203200*%
G04 #@! TD*
G04 APERTURE END LIST*
D10*
X142763400Y-96775540D03*
X143163400Y-96775540D03*
X143563400Y-96775540D03*
X143963400Y-96775540D03*
X144363400Y-96775540D03*
X144763400Y-96775540D03*
X142762080Y-103516700D03*
X143162080Y-103516700D03*
X143562080Y-103516700D03*
X143962080Y-103516700D03*
X144362080Y-103516700D03*
X144762080Y-103516700D03*
X140494000Y-102901880D03*
X140094000Y-102901880D03*
X139694000Y-102901880D03*
X138894000Y-102901880D03*
X138094000Y-102901880D03*
X139294000Y-102901880D03*
X137694000Y-102901880D03*
X137294000Y-102901880D03*
X136894000Y-102901880D03*
X136494000Y-102901880D03*
X136094000Y-102901880D03*
X135694000Y-102901880D03*
X138494000Y-102901880D03*
X130094000Y-102901880D03*
X130494000Y-102901880D03*
X130894000Y-102901880D03*
X131294000Y-102901880D03*
X131694000Y-102901880D03*
X132094000Y-102901880D03*
X132494000Y-102901880D03*
X132894000Y-102901880D03*
X133294000Y-102901880D03*
X133694000Y-102901880D03*
X134094000Y-102901880D03*
X134494000Y-102901880D03*
X134894000Y-102901880D03*
X135294000Y-102901880D03*
X140494000Y-96774000D03*
X140094000Y-96774000D03*
X139694000Y-96774000D03*
X138894000Y-96774000D03*
X138094000Y-96774000D03*
X139294000Y-96774000D03*
X137694000Y-96774000D03*
X137294000Y-96774000D03*
X136894000Y-96774000D03*
X136494000Y-96774000D03*
X136094000Y-96774000D03*
X135694000Y-96774000D03*
X138494000Y-96774000D03*
X130094000Y-96774000D03*
X130494000Y-96774000D03*
X130894000Y-96774000D03*
X131294000Y-96774000D03*
X131694000Y-96774000D03*
X132094000Y-96774000D03*
X132494000Y-96774000D03*
X132894000Y-96774000D03*
X133294000Y-96774000D03*
X133694000Y-96774000D03*
X134094000Y-96774000D03*
X134494000Y-96774000D03*
X134894000Y-96774000D03*
X135294000Y-96774000D03*
D11*
X140494000Y-102576000D03*
X140494000Y-96774000D03*
X140094000Y-102901880D03*
X140094000Y-97096000D03*
X139694000Y-102576000D03*
X139694000Y-96774000D03*
X138894000Y-102576000D03*
X138894000Y-96774000D03*
X138094000Y-102576000D03*
X138094000Y-96774000D03*
X139294000Y-102901880D03*
X139294000Y-97096000D03*
X137694000Y-102901880D03*
X137694000Y-97096000D03*
X137294000Y-102576000D03*
X137294000Y-96774000D03*
X136894000Y-102901880D03*
X136894000Y-97096000D03*
X136494000Y-102576000D03*
X136494000Y-96774000D03*
X136094000Y-102901880D03*
X136094000Y-97096000D03*
X135694000Y-102576000D03*
X135694000Y-96774000D03*
X138494000Y-102901880D03*
X138494000Y-97096000D03*
X130094000Y-102576000D03*
X130094000Y-96774000D03*
X130494000Y-102901880D03*
X130494000Y-97106000D03*
X130894000Y-102576000D03*
X130894000Y-96774000D03*
X131294000Y-102901880D03*
X131294000Y-97096000D03*
X131694000Y-102576000D03*
X131694000Y-96774000D03*
X132094000Y-102901880D03*
X132094000Y-97106000D03*
X132494000Y-102576000D03*
X132494000Y-96774000D03*
X132894000Y-102901880D03*
X132894000Y-97096000D03*
X133294000Y-102576000D03*
X133294000Y-96774000D03*
X133694000Y-102901880D03*
X133694000Y-97096000D03*
X134094000Y-102576000D03*
X134094000Y-96774000D03*
X134494000Y-102901880D03*
X134494000Y-97096000D03*
X134894000Y-102576000D03*
X134894000Y-96774000D03*
X135294000Y-102901880D03*
X135294000Y-97096000D03*
X142762080Y-103516700D03*
X142762080Y-97098080D03*
X143163400Y-96775540D03*
X143162080Y-103196000D03*
X143562080Y-103516700D03*
X143562080Y-97098080D03*
X143963400Y-96775540D03*
X143962080Y-103196000D03*
X144362080Y-103516700D03*
X144362080Y-97098080D03*
X144763400Y-96775540D03*
X144762080Y-103198080D03*
D12*
X140494000Y-102198680D02*
X140494000Y-96774000D01*
X140494000Y-102576000D02*
X140494000Y-102198680D01*
X140094000Y-102901880D02*
X140094000Y-102901880D01*
X140094000Y-102901880D02*
X140094000Y-97096000D01*
X140094000Y-97096000D02*
X140094000Y-96774000D01*
X139694000Y-102576000D02*
X139694000Y-96774000D01*
X138894000Y-102198680D02*
X138894000Y-96774000D01*
X138894000Y-102576000D02*
X138894000Y-102198680D01*
X138094000Y-102576000D02*
X138094000Y-96774000D01*
X139294000Y-102901880D02*
X139294000Y-102901880D01*
X139294000Y-102901880D02*
X139294000Y-97096000D01*
X139294000Y-97096000D02*
X139294000Y-96774000D01*
X137694000Y-102901880D02*
X137694000Y-102901880D01*
X137694000Y-102901880D02*
X137694000Y-97096000D01*
X137694000Y-97096000D02*
X137694000Y-96774000D01*
X137294000Y-102576000D02*
X137294000Y-96774000D01*
X136894000Y-102901880D02*
X136894000Y-102901880D01*
X136894000Y-102901880D02*
X136894000Y-97096000D01*
X136894000Y-97096000D02*
X136894000Y-96774000D01*
X136494000Y-102198680D02*
X136494000Y-96774000D01*
X136494000Y-102576000D02*
X136494000Y-102198680D01*
X136094000Y-102901880D02*
X136094000Y-102901880D01*
X136094000Y-102901880D02*
X136094000Y-97096000D01*
X136094000Y-97096000D02*
X136094000Y-96774000D01*
X135694000Y-102198680D02*
X135694000Y-96774000D01*
X135694000Y-102576000D02*
X135694000Y-102198680D01*
X138494000Y-102901880D02*
X138494000Y-102901880D01*
X138494000Y-102901880D02*
X138494000Y-97096000D01*
X138494000Y-97096000D02*
X138494000Y-96774000D01*
X130094000Y-102198680D02*
X130094000Y-96774000D01*
X130094000Y-102576000D02*
X130094000Y-102198680D01*
X130494000Y-102901880D02*
X130494000Y-102901880D01*
X130494000Y-102901880D02*
X130494000Y-97106000D01*
X130494000Y-97106000D02*
X130494000Y-96774000D01*
X130894000Y-96774000D02*
X130894000Y-102576000D01*
X131294000Y-102901880D02*
X131294000Y-102901880D01*
X131294000Y-102901880D02*
X131294000Y-97096000D01*
X131294000Y-97096000D02*
X131294000Y-96774000D01*
X131694000Y-102198680D02*
X131694000Y-96774000D01*
X131694000Y-102576000D02*
X131694000Y-102198680D01*
X132094000Y-102901880D02*
X132094000Y-102901880D01*
X132094000Y-102901880D02*
X132094000Y-97106000D01*
X132094000Y-97106000D02*
X132094000Y-96774000D01*
X132494000Y-102576000D02*
X132494000Y-96774000D01*
X132894000Y-102198680D02*
X132894000Y-97096000D01*
X132894000Y-102901880D02*
X132894000Y-102901880D01*
X132894000Y-102901880D02*
X132894000Y-102198680D01*
X132894000Y-97096000D02*
X132894000Y-96774000D01*
X133294000Y-102198680D02*
X133294000Y-96774000D01*
X133294000Y-102576000D02*
X133294000Y-102198680D01*
X133694000Y-102901880D02*
X133694000Y-102901880D01*
X133694000Y-102901880D02*
X133694000Y-97096000D01*
X133694000Y-97096000D02*
X133694000Y-96774000D01*
X134094000Y-102198680D02*
X134094000Y-96774000D01*
X134094000Y-102576000D02*
X134094000Y-102198680D01*
X134494000Y-102901880D02*
X134494000Y-102901880D01*
X134494000Y-102901880D02*
X134494000Y-97096000D01*
X134494000Y-97096000D02*
X134494000Y-96774000D01*
X134894000Y-102576000D02*
X134894000Y-96774000D01*
X135294000Y-102198680D02*
X135294000Y-97096000D01*
X135294000Y-102901880D02*
X135294000Y-102901880D01*
X135294000Y-102901880D02*
X135294000Y-102198680D01*
X135294000Y-97096000D02*
X135294000Y-96774000D01*
X142762080Y-103516700D02*
X142762080Y-97098080D01*
X143162080Y-96776860D02*
X143163400Y-96775540D01*
X143162080Y-103516700D02*
X143162080Y-103188080D01*
X143162080Y-103188080D02*
X143162080Y-96776860D01*
X143562080Y-103516700D02*
X143562080Y-97098080D01*
X143962080Y-96776860D02*
X143963400Y-96775540D01*
X143962080Y-103516700D02*
X143962080Y-103188080D01*
X143962080Y-103188080D02*
X143962080Y-96776860D01*
X144362080Y-103516700D02*
X144362080Y-97098080D01*
X144762080Y-96776860D02*
X144763400Y-96775540D01*
X144762080Y-103516700D02*
X144762080Y-103198080D01*
X144762080Y-103198080D02*
X144762080Y-96776860D01*
M02*
