M48
; DRILL file {KiCad (5.1.0)-1} date 9/21/2019 4:07:04 PM
; FORMAT={-:-/ absolute / inch / decimal}
; #@! TF.CreationDate,2019-09-21T16:07:04-07:00
; #@! TF.GenerationSoftware,Kicad,Pcbnew,(5.1.0)-1
FMAT,2
INCH
T1C0.0059
%
G90
G05
T1
X1.7175Y-1.0033
X1.7175Y-1.0413
X1.7175Y-1.0793
X1.7175Y-1.1173
X1.7175Y-1.1933
X1.7415Y-0.9843
X1.7415Y-1.0603
X1.7415Y-1.1363
X1.7415Y-1.2123
X1.3726Y-1.2752
X1.3916Y-1.2992
X1.4486Y-1.2752
X1.4676Y-1.2992
X1.4866Y-1.2752
X1.5056Y-1.2992
X1.5246Y-1.2752
X1.5436Y-1.2992
X1.5626Y-1.2752
X1.5816Y-1.2992
X1.6006Y-1.2752
X1.6196Y-1.2992
X1.6386Y-1.2752
X1.6766Y-1.2752
X1.4303Y-1.541
X1.4493Y-1.565
X1.4683Y-1.541
X1.4873Y-1.565
X1.5063Y-1.541
X1.5253Y-1.565
X1.5443Y-1.541
X1.5633Y-1.565
X1.5823Y-1.541
X1.6013Y-1.565
X1.6203Y-1.541
X1.6393Y-1.565
X1.6583Y-1.541
X1.6773Y-1.565
X1.6963Y-1.541
X1.7153Y-1.565
X1.7343Y-1.541
X1.7533Y-1.565
X1.7723Y-1.541
X1.7913Y-1.565
T0
M30
