G04 #@! TF.GenerationSoftware,KiCad,Pcbnew,(5.1.0)-1*
G04 #@! TF.CreationDate,2019-09-21T16:07:02-07:00*
G04 #@! TF.ProjectId,Miniscope-v4-wire-free-flex,4d696e69-7363-46f7-9065-2d76342d7769,rev?*
G04 #@! TF.SameCoordinates,Original*
G04 #@! TF.FileFunction,Soldermask,Top*
G04 #@! TF.FilePolarity,Negative*
%FSLAX46Y46*%
G04 Gerber Fmt 4.6, Leading zero omitted, Abs format (unit mm)*
G04 Created by KiCad (PCBNEW (5.1.0)-1) date 2019-09-21 16:07:02*
%MOMM*%
%LPD*%
G04 APERTURE LIST*
%ADD10C,0.100000*%
G04 APERTURE END LIST*
D10*
G36*
X36894708Y-39481337D02*
G01*
X36945555Y-39502398D01*
X36991318Y-39532976D01*
X37030233Y-39571891D01*
X37060811Y-39617654D01*
X37081872Y-39668501D01*
X37092609Y-39722481D01*
X37092609Y-39777519D01*
X37081872Y-39831499D01*
X37060811Y-39882346D01*
X37030233Y-39928109D01*
X36991318Y-39967024D01*
X36945555Y-39997602D01*
X36894708Y-40018663D01*
X36840728Y-40029400D01*
X36785690Y-40029400D01*
X36731710Y-40018663D01*
X36680863Y-39997602D01*
X36635100Y-39967024D01*
X36596185Y-39928109D01*
X36565607Y-39882346D01*
X36544546Y-39831499D01*
X36533809Y-39777519D01*
X36533809Y-39722481D01*
X36544546Y-39668501D01*
X36565607Y-39617654D01*
X36596185Y-39571891D01*
X36635100Y-39532976D01*
X36680863Y-39502398D01*
X36731710Y-39481337D01*
X36785690Y-39470600D01*
X36840728Y-39470600D01*
X36894708Y-39481337D01*
X36894708Y-39481337D01*
G37*
G36*
X37859907Y-39481337D02*
G01*
X37910754Y-39502398D01*
X37956517Y-39532976D01*
X37995432Y-39571891D01*
X38026010Y-39617654D01*
X38047071Y-39668501D01*
X38057808Y-39722481D01*
X38057808Y-39777519D01*
X38047071Y-39831499D01*
X38026010Y-39882346D01*
X37995432Y-39928109D01*
X37956517Y-39967024D01*
X37910754Y-39997602D01*
X37859907Y-40018663D01*
X37805927Y-40029400D01*
X37750889Y-40029400D01*
X37696909Y-40018663D01*
X37646062Y-39997602D01*
X37600299Y-39967024D01*
X37561384Y-39928109D01*
X37530806Y-39882346D01*
X37509745Y-39831499D01*
X37499008Y-39777519D01*
X37499008Y-39722481D01*
X37509745Y-39668501D01*
X37530806Y-39617654D01*
X37561384Y-39571891D01*
X37600299Y-39532976D01*
X37646062Y-39502398D01*
X37696909Y-39481337D01*
X37750889Y-39470600D01*
X37805927Y-39470600D01*
X37859907Y-39481337D01*
X37859907Y-39481337D01*
G37*
G36*
X38825106Y-39481337D02*
G01*
X38875953Y-39502398D01*
X38921716Y-39532976D01*
X38960631Y-39571891D01*
X38991209Y-39617654D01*
X39012270Y-39668501D01*
X39023007Y-39722481D01*
X39023007Y-39777519D01*
X39012270Y-39831499D01*
X38991209Y-39882346D01*
X38960631Y-39928109D01*
X38921716Y-39967024D01*
X38875953Y-39997602D01*
X38825106Y-40018663D01*
X38771126Y-40029400D01*
X38716088Y-40029400D01*
X38662108Y-40018663D01*
X38611261Y-39997602D01*
X38565498Y-39967024D01*
X38526583Y-39928109D01*
X38496005Y-39882346D01*
X38474944Y-39831499D01*
X38464207Y-39777519D01*
X38464207Y-39722481D01*
X38474944Y-39668501D01*
X38496005Y-39617654D01*
X38526583Y-39571891D01*
X38565498Y-39532976D01*
X38611261Y-39502398D01*
X38662108Y-39481337D01*
X38716088Y-39470600D01*
X38771126Y-39470600D01*
X38825106Y-39481337D01*
X38825106Y-39481337D01*
G37*
G36*
X39790305Y-39481337D02*
G01*
X39841152Y-39502398D01*
X39886915Y-39532976D01*
X39925830Y-39571891D01*
X39956408Y-39617654D01*
X39977469Y-39668501D01*
X39988206Y-39722481D01*
X39988206Y-39777519D01*
X39977469Y-39831499D01*
X39956408Y-39882346D01*
X39925830Y-39928109D01*
X39886915Y-39967024D01*
X39841152Y-39997602D01*
X39790305Y-40018663D01*
X39736325Y-40029400D01*
X39681287Y-40029400D01*
X39627307Y-40018663D01*
X39576460Y-39997602D01*
X39530697Y-39967024D01*
X39491782Y-39928109D01*
X39461204Y-39882346D01*
X39440143Y-39831499D01*
X39429406Y-39777519D01*
X39429406Y-39722481D01*
X39440143Y-39668501D01*
X39461204Y-39617654D01*
X39491782Y-39571891D01*
X39530697Y-39532976D01*
X39576460Y-39502398D01*
X39627307Y-39481337D01*
X39681287Y-39470600D01*
X39736325Y-39470600D01*
X39790305Y-39481337D01*
X39790305Y-39481337D01*
G37*
G36*
X40755504Y-39481337D02*
G01*
X40806351Y-39502398D01*
X40852114Y-39532976D01*
X40891029Y-39571891D01*
X40921607Y-39617654D01*
X40942668Y-39668501D01*
X40953405Y-39722481D01*
X40953405Y-39777519D01*
X40942668Y-39831499D01*
X40921607Y-39882346D01*
X40891029Y-39928109D01*
X40852114Y-39967024D01*
X40806351Y-39997602D01*
X40755504Y-40018663D01*
X40701524Y-40029400D01*
X40646486Y-40029400D01*
X40592506Y-40018663D01*
X40541659Y-39997602D01*
X40495896Y-39967024D01*
X40456981Y-39928109D01*
X40426403Y-39882346D01*
X40405342Y-39831499D01*
X40394605Y-39777519D01*
X40394605Y-39722481D01*
X40405342Y-39668501D01*
X40426403Y-39617654D01*
X40456981Y-39571891D01*
X40495896Y-39532976D01*
X40541659Y-39502398D01*
X40592506Y-39481337D01*
X40646486Y-39470600D01*
X40701524Y-39470600D01*
X40755504Y-39481337D01*
X40755504Y-39481337D01*
G37*
G36*
X41720703Y-39481337D02*
G01*
X41771550Y-39502398D01*
X41817313Y-39532976D01*
X41856228Y-39571891D01*
X41886806Y-39617654D01*
X41907867Y-39668501D01*
X41918604Y-39722481D01*
X41918604Y-39777519D01*
X41907867Y-39831499D01*
X41886806Y-39882346D01*
X41856228Y-39928109D01*
X41817313Y-39967024D01*
X41771550Y-39997602D01*
X41720703Y-40018663D01*
X41666723Y-40029400D01*
X41611685Y-40029400D01*
X41557705Y-40018663D01*
X41506858Y-39997602D01*
X41461095Y-39967024D01*
X41422180Y-39928109D01*
X41391602Y-39882346D01*
X41370541Y-39831499D01*
X41359804Y-39777519D01*
X41359804Y-39722481D01*
X41370541Y-39668501D01*
X41391602Y-39617654D01*
X41422180Y-39571891D01*
X41461095Y-39532976D01*
X41506858Y-39502398D01*
X41557705Y-39481337D01*
X41611685Y-39470600D01*
X41666723Y-39470600D01*
X41720703Y-39481337D01*
X41720703Y-39481337D01*
G37*
G36*
X42685902Y-39481337D02*
G01*
X42736749Y-39502398D01*
X42782512Y-39532976D01*
X42821427Y-39571891D01*
X42852005Y-39617654D01*
X42873066Y-39668501D01*
X42883803Y-39722481D01*
X42883803Y-39777519D01*
X42873066Y-39831499D01*
X42852005Y-39882346D01*
X42821427Y-39928109D01*
X42782512Y-39967024D01*
X42736749Y-39997602D01*
X42685902Y-40018663D01*
X42631922Y-40029400D01*
X42576884Y-40029400D01*
X42522904Y-40018663D01*
X42472057Y-39997602D01*
X42426294Y-39967024D01*
X42387379Y-39928109D01*
X42356801Y-39882346D01*
X42335740Y-39831499D01*
X42325003Y-39777519D01*
X42325003Y-39722481D01*
X42335740Y-39668501D01*
X42356801Y-39617654D01*
X42387379Y-39571891D01*
X42426294Y-39532976D01*
X42472057Y-39502398D01*
X42522904Y-39481337D01*
X42576884Y-39470600D01*
X42631922Y-39470600D01*
X42685902Y-39481337D01*
X42685902Y-39481337D01*
G37*
G36*
X43651101Y-39481337D02*
G01*
X43701948Y-39502398D01*
X43747711Y-39532976D01*
X43786626Y-39571891D01*
X43817204Y-39617654D01*
X43838265Y-39668501D01*
X43849002Y-39722481D01*
X43849002Y-39777519D01*
X43838265Y-39831499D01*
X43817204Y-39882346D01*
X43786626Y-39928109D01*
X43747711Y-39967024D01*
X43701948Y-39997602D01*
X43651101Y-40018663D01*
X43597121Y-40029400D01*
X43542083Y-40029400D01*
X43488103Y-40018663D01*
X43437256Y-39997602D01*
X43391493Y-39967024D01*
X43352578Y-39928109D01*
X43322000Y-39882346D01*
X43300939Y-39831499D01*
X43290202Y-39777519D01*
X43290202Y-39722481D01*
X43300939Y-39668501D01*
X43322000Y-39617654D01*
X43352578Y-39571891D01*
X43391493Y-39532976D01*
X43437256Y-39502398D01*
X43488103Y-39481337D01*
X43542083Y-39470600D01*
X43597121Y-39470600D01*
X43651101Y-39481337D01*
X43651101Y-39481337D01*
G37*
G36*
X45581499Y-39481337D02*
G01*
X45632346Y-39502398D01*
X45678109Y-39532976D01*
X45717024Y-39571891D01*
X45747602Y-39617654D01*
X45768663Y-39668501D01*
X45779400Y-39722481D01*
X45779400Y-39777519D01*
X45768663Y-39831499D01*
X45747602Y-39882346D01*
X45717024Y-39928109D01*
X45678109Y-39967024D01*
X45632346Y-39997602D01*
X45581499Y-40018663D01*
X45527519Y-40029400D01*
X45472481Y-40029400D01*
X45418501Y-40018663D01*
X45367654Y-39997602D01*
X45321891Y-39967024D01*
X45282976Y-39928109D01*
X45252398Y-39882346D01*
X45231337Y-39831499D01*
X45220600Y-39777519D01*
X45220600Y-39722481D01*
X45231337Y-39668501D01*
X45252398Y-39617654D01*
X45282976Y-39571891D01*
X45321891Y-39532976D01*
X45367654Y-39502398D01*
X45418501Y-39481337D01*
X45472481Y-39470600D01*
X45527519Y-39470600D01*
X45581499Y-39481337D01*
X45581499Y-39481337D01*
G37*
G36*
X44616300Y-39481337D02*
G01*
X44667147Y-39502398D01*
X44712910Y-39532976D01*
X44751825Y-39571891D01*
X44782403Y-39617654D01*
X44803464Y-39668501D01*
X44814201Y-39722481D01*
X44814201Y-39777519D01*
X44803464Y-39831499D01*
X44782403Y-39882346D01*
X44751825Y-39928109D01*
X44712910Y-39967024D01*
X44667147Y-39997602D01*
X44616300Y-40018663D01*
X44562320Y-40029400D01*
X44507282Y-40029400D01*
X44453302Y-40018663D01*
X44402455Y-39997602D01*
X44356692Y-39967024D01*
X44317777Y-39928109D01*
X44287199Y-39882346D01*
X44266138Y-39831499D01*
X44255401Y-39777519D01*
X44255401Y-39722481D01*
X44266138Y-39668501D01*
X44287199Y-39617654D01*
X44317777Y-39571891D01*
X44356692Y-39532976D01*
X44402455Y-39502398D01*
X44453302Y-39481337D01*
X44507282Y-39470600D01*
X44562320Y-39470600D01*
X44616300Y-39481337D01*
X44616300Y-39481337D01*
G37*
G36*
X43168502Y-38871737D02*
G01*
X43219349Y-38892798D01*
X43265112Y-38923376D01*
X43304027Y-38962291D01*
X43334605Y-39008054D01*
X43355666Y-39058901D01*
X43366403Y-39112881D01*
X43366403Y-39167919D01*
X43355666Y-39221899D01*
X43334605Y-39272746D01*
X43304027Y-39318509D01*
X43265112Y-39357424D01*
X43219349Y-39388002D01*
X43168502Y-39409063D01*
X43114522Y-39419800D01*
X43059484Y-39419800D01*
X43005504Y-39409063D01*
X42954657Y-39388002D01*
X42908894Y-39357424D01*
X42869979Y-39318509D01*
X42839401Y-39272746D01*
X42818340Y-39221899D01*
X42807603Y-39167919D01*
X42807603Y-39112881D01*
X42818340Y-39058901D01*
X42839401Y-39008054D01*
X42869979Y-38962291D01*
X42908894Y-38923376D01*
X42954657Y-38892798D01*
X43005504Y-38871737D01*
X43059484Y-38861000D01*
X43114522Y-38861000D01*
X43168502Y-38871737D01*
X43168502Y-38871737D01*
G37*
G36*
X36412109Y-38871737D02*
G01*
X36462956Y-38892798D01*
X36508719Y-38923376D01*
X36547634Y-38962291D01*
X36578212Y-39008054D01*
X36599273Y-39058901D01*
X36610010Y-39112881D01*
X36610010Y-39167919D01*
X36599273Y-39221899D01*
X36578212Y-39272746D01*
X36547634Y-39318509D01*
X36508719Y-39357424D01*
X36462956Y-39388002D01*
X36412109Y-39409063D01*
X36358129Y-39419800D01*
X36303091Y-39419800D01*
X36249111Y-39409063D01*
X36198264Y-39388002D01*
X36152501Y-39357424D01*
X36113586Y-39318509D01*
X36083008Y-39272746D01*
X36061947Y-39221899D01*
X36051210Y-39167919D01*
X36051210Y-39112881D01*
X36061947Y-39058901D01*
X36083008Y-39008054D01*
X36113586Y-38962291D01*
X36152501Y-38923376D01*
X36198264Y-38892798D01*
X36249111Y-38871737D01*
X36303091Y-38861000D01*
X36358129Y-38861000D01*
X36412109Y-38871737D01*
X36412109Y-38871737D01*
G37*
G36*
X37377308Y-38871737D02*
G01*
X37428155Y-38892798D01*
X37473918Y-38923376D01*
X37512833Y-38962291D01*
X37543411Y-39008054D01*
X37564472Y-39058901D01*
X37575209Y-39112881D01*
X37575209Y-39167919D01*
X37564472Y-39221899D01*
X37543411Y-39272746D01*
X37512833Y-39318509D01*
X37473918Y-39357424D01*
X37428155Y-39388002D01*
X37377308Y-39409063D01*
X37323328Y-39419800D01*
X37268290Y-39419800D01*
X37214310Y-39409063D01*
X37163463Y-39388002D01*
X37117700Y-39357424D01*
X37078785Y-39318509D01*
X37048207Y-39272746D01*
X37027146Y-39221899D01*
X37016409Y-39167919D01*
X37016409Y-39112881D01*
X37027146Y-39058901D01*
X37048207Y-39008054D01*
X37078785Y-38962291D01*
X37117700Y-38923376D01*
X37163463Y-38892798D01*
X37214310Y-38871737D01*
X37268290Y-38861000D01*
X37323328Y-38861000D01*
X37377308Y-38871737D01*
X37377308Y-38871737D01*
G37*
G36*
X38342507Y-38871737D02*
G01*
X38393354Y-38892798D01*
X38439117Y-38923376D01*
X38478032Y-38962291D01*
X38508610Y-39008054D01*
X38529671Y-39058901D01*
X38540408Y-39112881D01*
X38540408Y-39167919D01*
X38529671Y-39221899D01*
X38508610Y-39272746D01*
X38478032Y-39318509D01*
X38439117Y-39357424D01*
X38393354Y-39388002D01*
X38342507Y-39409063D01*
X38288527Y-39419800D01*
X38233489Y-39419800D01*
X38179509Y-39409063D01*
X38128662Y-39388002D01*
X38082899Y-39357424D01*
X38043984Y-39318509D01*
X38013406Y-39272746D01*
X37992345Y-39221899D01*
X37981608Y-39167919D01*
X37981608Y-39112881D01*
X37992345Y-39058901D01*
X38013406Y-39008054D01*
X38043984Y-38962291D01*
X38082899Y-38923376D01*
X38128662Y-38892798D01*
X38179509Y-38871737D01*
X38233489Y-38861000D01*
X38288527Y-38861000D01*
X38342507Y-38871737D01*
X38342507Y-38871737D01*
G37*
G36*
X39307706Y-38871737D02*
G01*
X39358553Y-38892798D01*
X39404316Y-38923376D01*
X39443231Y-38962291D01*
X39473809Y-39008054D01*
X39494870Y-39058901D01*
X39505607Y-39112881D01*
X39505607Y-39167919D01*
X39494870Y-39221899D01*
X39473809Y-39272746D01*
X39443231Y-39318509D01*
X39404316Y-39357424D01*
X39358553Y-39388002D01*
X39307706Y-39409063D01*
X39253726Y-39419800D01*
X39198688Y-39419800D01*
X39144708Y-39409063D01*
X39093861Y-39388002D01*
X39048098Y-39357424D01*
X39009183Y-39318509D01*
X38978605Y-39272746D01*
X38957544Y-39221899D01*
X38946807Y-39167919D01*
X38946807Y-39112881D01*
X38957544Y-39058901D01*
X38978605Y-39008054D01*
X39009183Y-38962291D01*
X39048098Y-38923376D01*
X39093861Y-38892798D01*
X39144708Y-38871737D01*
X39198688Y-38861000D01*
X39253726Y-38861000D01*
X39307706Y-38871737D01*
X39307706Y-38871737D01*
G37*
G36*
X40272905Y-38871737D02*
G01*
X40323752Y-38892798D01*
X40369515Y-38923376D01*
X40408430Y-38962291D01*
X40439008Y-39008054D01*
X40460069Y-39058901D01*
X40470806Y-39112881D01*
X40470806Y-39167919D01*
X40460069Y-39221899D01*
X40439008Y-39272746D01*
X40408430Y-39318509D01*
X40369515Y-39357424D01*
X40323752Y-39388002D01*
X40272905Y-39409063D01*
X40218925Y-39419800D01*
X40163887Y-39419800D01*
X40109907Y-39409063D01*
X40059060Y-39388002D01*
X40013297Y-39357424D01*
X39974382Y-39318509D01*
X39943804Y-39272746D01*
X39922743Y-39221899D01*
X39912006Y-39167919D01*
X39912006Y-39112881D01*
X39922743Y-39058901D01*
X39943804Y-39008054D01*
X39974382Y-38962291D01*
X40013297Y-38923376D01*
X40059060Y-38892798D01*
X40109907Y-38871737D01*
X40163887Y-38861000D01*
X40218925Y-38861000D01*
X40272905Y-38871737D01*
X40272905Y-38871737D01*
G37*
G36*
X41238104Y-38871737D02*
G01*
X41288951Y-38892798D01*
X41334714Y-38923376D01*
X41373629Y-38962291D01*
X41404207Y-39008054D01*
X41425268Y-39058901D01*
X41436005Y-39112881D01*
X41436005Y-39167919D01*
X41425268Y-39221899D01*
X41404207Y-39272746D01*
X41373629Y-39318509D01*
X41334714Y-39357424D01*
X41288951Y-39388002D01*
X41238104Y-39409063D01*
X41184124Y-39419800D01*
X41129086Y-39419800D01*
X41075106Y-39409063D01*
X41024259Y-39388002D01*
X40978496Y-39357424D01*
X40939581Y-39318509D01*
X40909003Y-39272746D01*
X40887942Y-39221899D01*
X40877205Y-39167919D01*
X40877205Y-39112881D01*
X40887942Y-39058901D01*
X40909003Y-39008054D01*
X40939581Y-38962291D01*
X40978496Y-38923376D01*
X41024259Y-38892798D01*
X41075106Y-38871737D01*
X41129086Y-38861000D01*
X41184124Y-38861000D01*
X41238104Y-38871737D01*
X41238104Y-38871737D01*
G37*
G36*
X42203303Y-38871737D02*
G01*
X42254150Y-38892798D01*
X42299913Y-38923376D01*
X42338828Y-38962291D01*
X42369406Y-39008054D01*
X42390467Y-39058901D01*
X42401204Y-39112881D01*
X42401204Y-39167919D01*
X42390467Y-39221899D01*
X42369406Y-39272746D01*
X42338828Y-39318509D01*
X42299913Y-39357424D01*
X42254150Y-39388002D01*
X42203303Y-39409063D01*
X42149323Y-39419800D01*
X42094285Y-39419800D01*
X42040305Y-39409063D01*
X41989458Y-39388002D01*
X41943695Y-39357424D01*
X41904780Y-39318509D01*
X41874202Y-39272746D01*
X41853141Y-39221899D01*
X41842404Y-39167919D01*
X41842404Y-39112881D01*
X41853141Y-39058901D01*
X41874202Y-39008054D01*
X41904780Y-38962291D01*
X41943695Y-38923376D01*
X41989458Y-38892798D01*
X42040305Y-38871737D01*
X42094285Y-38861000D01*
X42149323Y-38861000D01*
X42203303Y-38871737D01*
X42203303Y-38871737D01*
G37*
G36*
X44133701Y-38871737D02*
G01*
X44184548Y-38892798D01*
X44230311Y-38923376D01*
X44269226Y-38962291D01*
X44299804Y-39008054D01*
X44320865Y-39058901D01*
X44331602Y-39112881D01*
X44331602Y-39167919D01*
X44320865Y-39221899D01*
X44299804Y-39272746D01*
X44269226Y-39318509D01*
X44230311Y-39357424D01*
X44184548Y-39388002D01*
X44133701Y-39409063D01*
X44079721Y-39419800D01*
X44024683Y-39419800D01*
X43970703Y-39409063D01*
X43919856Y-39388002D01*
X43874093Y-39357424D01*
X43835178Y-39318509D01*
X43804600Y-39272746D01*
X43783539Y-39221899D01*
X43772802Y-39167919D01*
X43772802Y-39112881D01*
X43783539Y-39058901D01*
X43804600Y-39008054D01*
X43835178Y-38962291D01*
X43874093Y-38923376D01*
X43919856Y-38892798D01*
X43970703Y-38871737D01*
X44024683Y-38861000D01*
X44079721Y-38861000D01*
X44133701Y-38871737D01*
X44133701Y-38871737D01*
G37*
G36*
X45098900Y-38871737D02*
G01*
X45149747Y-38892798D01*
X45195510Y-38923376D01*
X45234425Y-38962291D01*
X45265003Y-39008054D01*
X45286064Y-39058901D01*
X45296801Y-39112881D01*
X45296801Y-39167919D01*
X45286064Y-39221899D01*
X45265003Y-39272746D01*
X45234425Y-39318509D01*
X45195510Y-39357424D01*
X45149747Y-39388002D01*
X45098900Y-39409063D01*
X45044920Y-39419800D01*
X44989882Y-39419800D01*
X44935902Y-39409063D01*
X44885055Y-39388002D01*
X44839292Y-39357424D01*
X44800377Y-39318509D01*
X44769799Y-39272746D01*
X44748738Y-39221899D01*
X44738001Y-39167919D01*
X44738001Y-39112881D01*
X44748738Y-39058901D01*
X44769799Y-39008054D01*
X44800377Y-38962291D01*
X44839292Y-38923376D01*
X44885055Y-38892798D01*
X44935902Y-38871737D01*
X44989882Y-38861000D01*
X45044920Y-38861000D01*
X45098900Y-38871737D01*
X45098900Y-38871737D01*
G37*
G36*
X38323905Y-32731337D02*
G01*
X38374752Y-32752398D01*
X38420515Y-32782976D01*
X38459430Y-32821891D01*
X38490008Y-32867654D01*
X38511069Y-32918501D01*
X38521806Y-32972481D01*
X38521806Y-33027519D01*
X38511069Y-33081499D01*
X38490008Y-33132346D01*
X38459430Y-33178109D01*
X38420515Y-33217024D01*
X38374752Y-33247602D01*
X38323905Y-33268663D01*
X38269925Y-33279400D01*
X38214887Y-33279400D01*
X38160907Y-33268663D01*
X38110060Y-33247602D01*
X38064297Y-33217024D01*
X38025382Y-33178109D01*
X37994804Y-33132346D01*
X37973743Y-33081499D01*
X37963006Y-33027519D01*
X37963006Y-32972481D01*
X37973743Y-32918501D01*
X37994804Y-32867654D01*
X38025382Y-32821891D01*
X38064297Y-32782976D01*
X38110060Y-32752398D01*
X38160907Y-32731337D01*
X38214887Y-32720600D01*
X38269925Y-32720600D01*
X38323905Y-32731337D01*
X38323905Y-32731337D01*
G37*
G36*
X41219502Y-32731337D02*
G01*
X41270349Y-32752398D01*
X41316112Y-32782976D01*
X41355027Y-32821891D01*
X41385605Y-32867654D01*
X41406666Y-32918501D01*
X41417403Y-32972481D01*
X41417403Y-33027519D01*
X41406666Y-33081499D01*
X41385605Y-33132346D01*
X41355027Y-33178109D01*
X41316112Y-33217024D01*
X41270349Y-33247602D01*
X41219502Y-33268663D01*
X41165522Y-33279400D01*
X41110484Y-33279400D01*
X41056504Y-33268663D01*
X41005657Y-33247602D01*
X40959894Y-33217024D01*
X40920979Y-33178109D01*
X40890401Y-33132346D01*
X40869340Y-33081499D01*
X40858603Y-33027519D01*
X40858603Y-32972481D01*
X40869340Y-32918501D01*
X40890401Y-32867654D01*
X40920979Y-32821891D01*
X40959894Y-32782976D01*
X41005657Y-32752398D01*
X41056504Y-32731337D01*
X41110484Y-32720600D01*
X41165522Y-32720600D01*
X41219502Y-32731337D01*
X41219502Y-32731337D01*
G37*
G36*
X40254303Y-32731337D02*
G01*
X40305150Y-32752398D01*
X40350913Y-32782976D01*
X40389828Y-32821891D01*
X40420406Y-32867654D01*
X40441467Y-32918501D01*
X40452204Y-32972481D01*
X40452204Y-33027519D01*
X40441467Y-33081499D01*
X40420406Y-33132346D01*
X40389828Y-33178109D01*
X40350913Y-33217024D01*
X40305150Y-33247602D01*
X40254303Y-33268663D01*
X40200323Y-33279400D01*
X40145285Y-33279400D01*
X40091305Y-33268663D01*
X40040458Y-33247602D01*
X39994695Y-33217024D01*
X39955780Y-33178109D01*
X39925202Y-33132346D01*
X39904141Y-33081499D01*
X39893404Y-33027519D01*
X39893404Y-32972481D01*
X39904141Y-32918501D01*
X39925202Y-32867654D01*
X39955780Y-32821891D01*
X39994695Y-32782976D01*
X40040458Y-32752398D01*
X40091305Y-32731337D01*
X40145285Y-32720600D01*
X40200323Y-32720600D01*
X40254303Y-32731337D01*
X40254303Y-32731337D01*
G37*
G36*
X37358706Y-32731337D02*
G01*
X37409553Y-32752398D01*
X37455316Y-32782976D01*
X37494231Y-32821891D01*
X37524809Y-32867654D01*
X37545870Y-32918501D01*
X37556607Y-32972481D01*
X37556607Y-33027519D01*
X37545870Y-33081499D01*
X37524809Y-33132346D01*
X37494231Y-33178109D01*
X37455316Y-33217024D01*
X37409553Y-33247602D01*
X37358706Y-33268663D01*
X37304726Y-33279400D01*
X37249688Y-33279400D01*
X37195708Y-33268663D01*
X37144861Y-33247602D01*
X37099098Y-33217024D01*
X37060183Y-33178109D01*
X37029605Y-33132346D01*
X37008544Y-33081499D01*
X36997807Y-33027519D01*
X36997807Y-32972481D01*
X37008544Y-32918501D01*
X37029605Y-32867654D01*
X37060183Y-32821891D01*
X37099098Y-32782976D01*
X37144861Y-32752398D01*
X37195708Y-32731337D01*
X37249688Y-32720600D01*
X37304726Y-32720600D01*
X37358706Y-32731337D01*
X37358706Y-32731337D01*
G37*
G36*
X39289104Y-32731337D02*
G01*
X39339951Y-32752398D01*
X39385714Y-32782976D01*
X39424629Y-32821891D01*
X39455207Y-32867654D01*
X39476268Y-32918501D01*
X39487005Y-32972481D01*
X39487005Y-33027519D01*
X39476268Y-33081499D01*
X39455207Y-33132346D01*
X39424629Y-33178109D01*
X39385714Y-33217024D01*
X39339951Y-33247602D01*
X39289104Y-33268663D01*
X39235124Y-33279400D01*
X39180086Y-33279400D01*
X39126106Y-33268663D01*
X39075259Y-33247602D01*
X39029496Y-33217024D01*
X38990581Y-33178109D01*
X38960003Y-33132346D01*
X38938942Y-33081499D01*
X38928205Y-33027519D01*
X38928205Y-32972481D01*
X38938942Y-32918501D01*
X38960003Y-32867654D01*
X38990581Y-32821891D01*
X39029496Y-32782976D01*
X39075259Y-32752398D01*
X39126106Y-32731337D01*
X39180086Y-32720600D01*
X39235124Y-32720600D01*
X39289104Y-32731337D01*
X39289104Y-32731337D01*
G37*
G36*
X35428308Y-32731337D02*
G01*
X35479155Y-32752398D01*
X35524918Y-32782976D01*
X35563833Y-32821891D01*
X35594411Y-32867654D01*
X35615472Y-32918501D01*
X35626209Y-32972481D01*
X35626209Y-33027519D01*
X35615472Y-33081499D01*
X35594411Y-33132346D01*
X35563833Y-33178109D01*
X35524918Y-33217024D01*
X35479155Y-33247602D01*
X35428308Y-33268663D01*
X35374328Y-33279400D01*
X35319290Y-33279400D01*
X35265310Y-33268663D01*
X35214463Y-33247602D01*
X35168700Y-33217024D01*
X35129785Y-33178109D01*
X35099207Y-33132346D01*
X35078146Y-33081499D01*
X35067409Y-33027519D01*
X35067409Y-32972481D01*
X35078146Y-32918501D01*
X35099207Y-32867654D01*
X35129785Y-32821891D01*
X35168700Y-32782976D01*
X35214463Y-32752398D01*
X35265310Y-32731337D01*
X35319290Y-32720600D01*
X35374328Y-32720600D01*
X35428308Y-32731337D01*
X35428308Y-32731337D01*
G37*
G36*
X36876107Y-32121737D02*
G01*
X36926954Y-32142798D01*
X36972717Y-32173376D01*
X37011632Y-32212291D01*
X37042210Y-32258054D01*
X37063271Y-32308901D01*
X37074008Y-32362881D01*
X37074008Y-32417919D01*
X37063271Y-32471899D01*
X37042210Y-32522746D01*
X37011632Y-32568509D01*
X36972717Y-32607424D01*
X36926954Y-32638002D01*
X36876107Y-32659063D01*
X36822127Y-32669800D01*
X36767089Y-32669800D01*
X36713109Y-32659063D01*
X36662262Y-32638002D01*
X36616499Y-32607424D01*
X36577584Y-32568509D01*
X36547006Y-32522746D01*
X36525945Y-32471899D01*
X36515208Y-32417919D01*
X36515208Y-32362881D01*
X36525945Y-32308901D01*
X36547006Y-32258054D01*
X36577584Y-32212291D01*
X36616499Y-32173376D01*
X36662262Y-32142798D01*
X36713109Y-32121737D01*
X36767089Y-32111000D01*
X36822127Y-32111000D01*
X36876107Y-32121737D01*
X36876107Y-32121737D01*
G37*
G36*
X37841306Y-32121737D02*
G01*
X37892153Y-32142798D01*
X37937916Y-32173376D01*
X37976831Y-32212291D01*
X38007409Y-32258054D01*
X38028470Y-32308901D01*
X38039207Y-32362881D01*
X38039207Y-32417919D01*
X38028470Y-32471899D01*
X38007409Y-32522746D01*
X37976831Y-32568509D01*
X37937916Y-32607424D01*
X37892153Y-32638002D01*
X37841306Y-32659063D01*
X37787326Y-32669800D01*
X37732288Y-32669800D01*
X37678308Y-32659063D01*
X37627461Y-32638002D01*
X37581698Y-32607424D01*
X37542783Y-32568509D01*
X37512205Y-32522746D01*
X37491144Y-32471899D01*
X37480407Y-32417919D01*
X37480407Y-32362881D01*
X37491144Y-32308901D01*
X37512205Y-32258054D01*
X37542783Y-32212291D01*
X37581698Y-32173376D01*
X37627461Y-32142798D01*
X37678308Y-32121737D01*
X37732288Y-32111000D01*
X37787326Y-32111000D01*
X37841306Y-32121737D01*
X37841306Y-32121737D01*
G37*
G36*
X38806505Y-32121737D02*
G01*
X38857352Y-32142798D01*
X38903115Y-32173376D01*
X38942030Y-32212291D01*
X38972608Y-32258054D01*
X38993669Y-32308901D01*
X39004406Y-32362881D01*
X39004406Y-32417919D01*
X38993669Y-32471899D01*
X38972608Y-32522746D01*
X38942030Y-32568509D01*
X38903115Y-32607424D01*
X38857352Y-32638002D01*
X38806505Y-32659063D01*
X38752525Y-32669800D01*
X38697487Y-32669800D01*
X38643507Y-32659063D01*
X38592660Y-32638002D01*
X38546897Y-32607424D01*
X38507982Y-32568509D01*
X38477404Y-32522746D01*
X38456343Y-32471899D01*
X38445606Y-32417919D01*
X38445606Y-32362881D01*
X38456343Y-32308901D01*
X38477404Y-32258054D01*
X38507982Y-32212291D01*
X38546897Y-32173376D01*
X38592660Y-32142798D01*
X38643507Y-32121737D01*
X38697487Y-32111000D01*
X38752525Y-32111000D01*
X38806505Y-32121737D01*
X38806505Y-32121737D01*
G37*
G36*
X39771704Y-32121737D02*
G01*
X39822551Y-32142798D01*
X39868314Y-32173376D01*
X39907229Y-32212291D01*
X39937807Y-32258054D01*
X39958868Y-32308901D01*
X39969605Y-32362881D01*
X39969605Y-32417919D01*
X39958868Y-32471899D01*
X39937807Y-32522746D01*
X39907229Y-32568509D01*
X39868314Y-32607424D01*
X39822551Y-32638002D01*
X39771704Y-32659063D01*
X39717724Y-32669800D01*
X39662686Y-32669800D01*
X39608706Y-32659063D01*
X39557859Y-32638002D01*
X39512096Y-32607424D01*
X39473181Y-32568509D01*
X39442603Y-32522746D01*
X39421542Y-32471899D01*
X39410805Y-32417919D01*
X39410805Y-32362881D01*
X39421542Y-32308901D01*
X39442603Y-32258054D01*
X39473181Y-32212291D01*
X39512096Y-32173376D01*
X39557859Y-32142798D01*
X39608706Y-32121737D01*
X39662686Y-32111000D01*
X39717724Y-32111000D01*
X39771704Y-32121737D01*
X39771704Y-32121737D01*
G37*
G36*
X40736903Y-32121737D02*
G01*
X40787750Y-32142798D01*
X40833513Y-32173376D01*
X40872428Y-32212291D01*
X40903006Y-32258054D01*
X40924067Y-32308901D01*
X40934804Y-32362881D01*
X40934804Y-32417919D01*
X40924067Y-32471899D01*
X40903006Y-32522746D01*
X40872428Y-32568509D01*
X40833513Y-32607424D01*
X40787750Y-32638002D01*
X40736903Y-32659063D01*
X40682923Y-32669800D01*
X40627885Y-32669800D01*
X40573905Y-32659063D01*
X40523058Y-32638002D01*
X40477295Y-32607424D01*
X40438380Y-32568509D01*
X40407802Y-32522746D01*
X40386741Y-32471899D01*
X40376004Y-32417919D01*
X40376004Y-32362881D01*
X40386741Y-32308901D01*
X40407802Y-32258054D01*
X40438380Y-32212291D01*
X40477295Y-32173376D01*
X40523058Y-32142798D01*
X40573905Y-32121737D01*
X40627885Y-32111000D01*
X40682923Y-32111000D01*
X40736903Y-32121737D01*
X40736903Y-32121737D01*
G37*
G36*
X41702102Y-32121737D02*
G01*
X41752949Y-32142798D01*
X41798712Y-32173376D01*
X41837627Y-32212291D01*
X41868205Y-32258054D01*
X41889266Y-32308901D01*
X41900003Y-32362881D01*
X41900003Y-32417919D01*
X41889266Y-32471899D01*
X41868205Y-32522746D01*
X41837627Y-32568509D01*
X41798712Y-32607424D01*
X41752949Y-32638002D01*
X41702102Y-32659063D01*
X41648122Y-32669800D01*
X41593084Y-32669800D01*
X41539104Y-32659063D01*
X41488257Y-32638002D01*
X41442494Y-32607424D01*
X41403579Y-32568509D01*
X41373001Y-32522746D01*
X41351940Y-32471899D01*
X41341203Y-32417919D01*
X41341203Y-32362881D01*
X41351940Y-32308901D01*
X41373001Y-32258054D01*
X41403579Y-32212291D01*
X41442494Y-32173376D01*
X41488257Y-32142798D01*
X41539104Y-32121737D01*
X41593084Y-32111000D01*
X41648122Y-32111000D01*
X41702102Y-32121737D01*
X41702102Y-32121737D01*
G37*
G36*
X34945709Y-32121737D02*
G01*
X34996556Y-32142798D01*
X35042319Y-32173376D01*
X35081234Y-32212291D01*
X35111812Y-32258054D01*
X35132873Y-32308901D01*
X35143610Y-32362881D01*
X35143610Y-32417919D01*
X35132873Y-32471899D01*
X35111812Y-32522746D01*
X35081234Y-32568509D01*
X35042319Y-32607424D01*
X34996556Y-32638002D01*
X34945709Y-32659063D01*
X34891729Y-32669800D01*
X34836691Y-32669800D01*
X34782711Y-32659063D01*
X34731864Y-32638002D01*
X34686101Y-32607424D01*
X34647186Y-32568509D01*
X34616608Y-32522746D01*
X34595547Y-32471899D01*
X34584810Y-32417919D01*
X34584810Y-32362881D01*
X34595547Y-32308901D01*
X34616608Y-32258054D01*
X34647186Y-32212291D01*
X34686101Y-32173376D01*
X34731864Y-32142798D01*
X34782711Y-32121737D01*
X34836691Y-32111000D01*
X34891729Y-32111000D01*
X34945709Y-32121737D01*
X34945709Y-32121737D01*
G37*
G36*
X42667301Y-32121737D02*
G01*
X42718148Y-32142798D01*
X42763911Y-32173376D01*
X42802826Y-32212291D01*
X42833404Y-32258054D01*
X42854465Y-32308901D01*
X42865202Y-32362881D01*
X42865202Y-32417919D01*
X42854465Y-32471899D01*
X42833404Y-32522746D01*
X42802826Y-32568509D01*
X42763911Y-32607424D01*
X42718148Y-32638002D01*
X42667301Y-32659063D01*
X42613321Y-32669800D01*
X42558283Y-32669800D01*
X42504303Y-32659063D01*
X42453456Y-32638002D01*
X42407693Y-32607424D01*
X42368778Y-32568509D01*
X42338200Y-32522746D01*
X42317139Y-32471899D01*
X42306402Y-32417919D01*
X42306402Y-32362881D01*
X42317139Y-32308901D01*
X42338200Y-32258054D01*
X42368778Y-32212291D01*
X42407693Y-32173376D01*
X42453456Y-32142798D01*
X42504303Y-32121737D01*
X42558283Y-32111000D01*
X42613321Y-32111000D01*
X42667301Y-32121737D01*
X42667301Y-32121737D01*
G37*
G36*
X44315099Y-30522531D02*
G01*
X44365946Y-30543592D01*
X44411709Y-30574170D01*
X44450624Y-30613085D01*
X44481202Y-30658848D01*
X44502263Y-30709695D01*
X44513000Y-30763675D01*
X44513000Y-30818713D01*
X44502263Y-30872693D01*
X44481202Y-30923540D01*
X44450624Y-30969303D01*
X44411709Y-31008218D01*
X44365946Y-31038796D01*
X44315099Y-31059857D01*
X44261119Y-31070594D01*
X44206081Y-31070594D01*
X44152101Y-31059857D01*
X44101254Y-31038796D01*
X44055491Y-31008218D01*
X44016576Y-30969303D01*
X43985998Y-30923540D01*
X43964937Y-30872693D01*
X43954200Y-30818713D01*
X43954200Y-30763675D01*
X43964937Y-30709695D01*
X43985998Y-30658848D01*
X44016576Y-30613085D01*
X44055491Y-30574170D01*
X44101254Y-30543592D01*
X44152101Y-30522531D01*
X44206081Y-30511794D01*
X44261119Y-30511794D01*
X44315099Y-30522531D01*
X44315099Y-30522531D01*
G37*
G36*
X43705499Y-30039931D02*
G01*
X43756346Y-30060992D01*
X43802109Y-30091570D01*
X43841024Y-30130485D01*
X43871602Y-30176248D01*
X43892663Y-30227095D01*
X43903400Y-30281075D01*
X43903400Y-30336113D01*
X43892663Y-30390093D01*
X43871602Y-30440940D01*
X43841024Y-30486703D01*
X43802109Y-30525618D01*
X43756346Y-30556196D01*
X43705499Y-30577257D01*
X43651519Y-30587994D01*
X43596481Y-30587994D01*
X43542501Y-30577257D01*
X43491654Y-30556196D01*
X43445891Y-30525618D01*
X43406976Y-30486703D01*
X43376398Y-30440940D01*
X43355337Y-30390093D01*
X43344600Y-30336113D01*
X43344600Y-30281075D01*
X43355337Y-30227095D01*
X43376398Y-30176248D01*
X43406976Y-30130485D01*
X43445891Y-30091570D01*
X43491654Y-30060992D01*
X43542501Y-30039931D01*
X43596481Y-30029194D01*
X43651519Y-30029194D01*
X43705499Y-30039931D01*
X43705499Y-30039931D01*
G37*
G36*
X44315099Y-28592133D02*
G01*
X44365946Y-28613194D01*
X44411709Y-28643772D01*
X44450624Y-28682687D01*
X44481202Y-28728450D01*
X44502263Y-28779297D01*
X44513000Y-28833277D01*
X44513000Y-28888315D01*
X44502263Y-28942295D01*
X44481202Y-28993142D01*
X44450624Y-29038905D01*
X44411709Y-29077820D01*
X44365946Y-29108398D01*
X44315099Y-29129459D01*
X44261119Y-29140196D01*
X44206081Y-29140196D01*
X44152101Y-29129459D01*
X44101254Y-29108398D01*
X44055491Y-29077820D01*
X44016576Y-29038905D01*
X43985998Y-28993142D01*
X43964937Y-28942295D01*
X43954200Y-28888315D01*
X43954200Y-28833277D01*
X43964937Y-28779297D01*
X43985998Y-28728450D01*
X44016576Y-28682687D01*
X44055491Y-28643772D01*
X44101254Y-28613194D01*
X44152101Y-28592133D01*
X44206081Y-28581396D01*
X44261119Y-28581396D01*
X44315099Y-28592133D01*
X44315099Y-28592133D01*
G37*
G36*
X43705499Y-28109533D02*
G01*
X43756346Y-28130594D01*
X43802109Y-28161172D01*
X43841024Y-28200087D01*
X43871602Y-28245850D01*
X43892663Y-28296697D01*
X43903400Y-28350677D01*
X43903400Y-28405715D01*
X43892663Y-28459695D01*
X43871602Y-28510542D01*
X43841024Y-28556305D01*
X43802109Y-28595220D01*
X43756346Y-28625798D01*
X43705499Y-28646859D01*
X43651519Y-28657596D01*
X43596481Y-28657596D01*
X43542501Y-28646859D01*
X43491654Y-28625798D01*
X43445891Y-28595220D01*
X43406976Y-28556305D01*
X43376398Y-28510542D01*
X43355337Y-28459695D01*
X43344600Y-28405715D01*
X43344600Y-28350677D01*
X43355337Y-28296697D01*
X43376398Y-28245850D01*
X43406976Y-28200087D01*
X43445891Y-28161172D01*
X43491654Y-28130594D01*
X43542501Y-28109533D01*
X43596481Y-28098796D01*
X43651519Y-28098796D01*
X43705499Y-28109533D01*
X43705499Y-28109533D01*
G37*
G36*
X43705499Y-27144334D02*
G01*
X43756346Y-27165395D01*
X43802109Y-27195973D01*
X43841024Y-27234888D01*
X43871602Y-27280651D01*
X43892663Y-27331498D01*
X43903400Y-27385478D01*
X43903400Y-27440516D01*
X43892663Y-27494496D01*
X43871602Y-27545343D01*
X43841024Y-27591106D01*
X43802109Y-27630021D01*
X43756346Y-27660599D01*
X43705499Y-27681660D01*
X43651519Y-27692397D01*
X43596481Y-27692397D01*
X43542501Y-27681660D01*
X43491654Y-27660599D01*
X43445891Y-27630021D01*
X43406976Y-27591106D01*
X43376398Y-27545343D01*
X43355337Y-27494496D01*
X43344600Y-27440516D01*
X43344600Y-27385478D01*
X43355337Y-27331498D01*
X43376398Y-27280651D01*
X43406976Y-27234888D01*
X43445891Y-27195973D01*
X43491654Y-27165395D01*
X43542501Y-27144334D01*
X43596481Y-27133597D01*
X43651519Y-27133597D01*
X43705499Y-27144334D01*
X43705499Y-27144334D01*
G37*
G36*
X44315099Y-26661735D02*
G01*
X44365946Y-26682796D01*
X44411709Y-26713374D01*
X44450624Y-26752289D01*
X44481202Y-26798052D01*
X44502263Y-26848899D01*
X44513000Y-26902879D01*
X44513000Y-26957917D01*
X44502263Y-27011897D01*
X44481202Y-27062744D01*
X44450624Y-27108507D01*
X44411709Y-27147422D01*
X44365946Y-27178000D01*
X44315099Y-27199061D01*
X44261119Y-27209798D01*
X44206081Y-27209798D01*
X44152101Y-27199061D01*
X44101254Y-27178000D01*
X44055491Y-27147422D01*
X44016576Y-27108507D01*
X43985998Y-27062744D01*
X43964937Y-27011897D01*
X43954200Y-26957917D01*
X43954200Y-26902879D01*
X43964937Y-26848899D01*
X43985998Y-26798052D01*
X44016576Y-26752289D01*
X44055491Y-26713374D01*
X44101254Y-26682796D01*
X44152101Y-26661735D01*
X44206081Y-26650998D01*
X44261119Y-26650998D01*
X44315099Y-26661735D01*
X44315099Y-26661735D01*
G37*
G36*
X43705499Y-26179135D02*
G01*
X43756346Y-26200196D01*
X43802109Y-26230774D01*
X43841024Y-26269689D01*
X43871602Y-26315452D01*
X43892663Y-26366299D01*
X43903400Y-26420279D01*
X43903400Y-26475317D01*
X43892663Y-26529297D01*
X43871602Y-26580144D01*
X43841024Y-26625907D01*
X43802109Y-26664822D01*
X43756346Y-26695400D01*
X43705499Y-26716461D01*
X43651519Y-26727198D01*
X43596481Y-26727198D01*
X43542501Y-26716461D01*
X43491654Y-26695400D01*
X43445891Y-26664822D01*
X43406976Y-26625907D01*
X43376398Y-26580144D01*
X43355337Y-26529297D01*
X43344600Y-26475317D01*
X43344600Y-26420279D01*
X43355337Y-26366299D01*
X43376398Y-26315452D01*
X43406976Y-26269689D01*
X43445891Y-26230774D01*
X43491654Y-26200196D01*
X43542501Y-26179135D01*
X43596481Y-26168398D01*
X43651519Y-26168398D01*
X43705499Y-26179135D01*
X43705499Y-26179135D01*
G37*
G36*
X43705499Y-25213936D02*
G01*
X43756346Y-25234997D01*
X43802109Y-25265575D01*
X43841024Y-25304490D01*
X43871602Y-25350253D01*
X43892663Y-25401100D01*
X43903400Y-25455080D01*
X43903400Y-25510118D01*
X43892663Y-25564098D01*
X43871602Y-25614945D01*
X43841024Y-25660708D01*
X43802109Y-25699623D01*
X43756346Y-25730201D01*
X43705499Y-25751262D01*
X43651519Y-25761999D01*
X43596481Y-25761999D01*
X43542501Y-25751262D01*
X43491654Y-25730201D01*
X43445891Y-25699623D01*
X43406976Y-25660708D01*
X43376398Y-25614945D01*
X43355337Y-25564098D01*
X43344600Y-25510118D01*
X43344600Y-25455080D01*
X43355337Y-25401100D01*
X43376398Y-25350253D01*
X43406976Y-25304490D01*
X43445891Y-25265575D01*
X43491654Y-25234997D01*
X43542501Y-25213936D01*
X43596481Y-25203199D01*
X43651519Y-25203199D01*
X43705499Y-25213936D01*
X43705499Y-25213936D01*
G37*
G36*
X44315099Y-24731337D02*
G01*
X44365946Y-24752398D01*
X44411709Y-24782976D01*
X44450624Y-24821891D01*
X44481202Y-24867654D01*
X44502263Y-24918501D01*
X44513000Y-24972481D01*
X44513000Y-25027519D01*
X44502263Y-25081499D01*
X44481202Y-25132346D01*
X44450624Y-25178109D01*
X44411709Y-25217024D01*
X44365946Y-25247602D01*
X44315099Y-25268663D01*
X44261119Y-25279400D01*
X44206081Y-25279400D01*
X44152101Y-25268663D01*
X44101254Y-25247602D01*
X44055491Y-25217024D01*
X44016576Y-25178109D01*
X43985998Y-25132346D01*
X43964937Y-25081499D01*
X43954200Y-25027519D01*
X43954200Y-24972481D01*
X43964937Y-24918501D01*
X43985998Y-24867654D01*
X44016576Y-24821891D01*
X44055491Y-24782976D01*
X44101254Y-24752398D01*
X44152101Y-24731337D01*
X44206081Y-24720600D01*
X44261119Y-24720600D01*
X44315099Y-24731337D01*
X44315099Y-24731337D01*
G37*
M02*
