%TF.GenerationSoftware,KiCad,Pcbnew,(7.0.0)*%
%TF.CreationDate,2023-08-02T20:08:49-07:00*%
%TF.ProjectId,SWD_to_v4WF_Cable,5357445f-746f-45f7-9634-57465f436162,rev?*%
%TF.SameCoordinates,Original*%
%TF.FileFunction,Copper,L1,Top*%
%TF.FilePolarity,Positive*%
%FSLAX46Y46*%
G04 Gerber Fmt 4.6, Leading zero omitted, Abs format (unit mm)*
G04 Created by KiCad (PCBNEW (7.0.0)) date 2023-08-02 20:08:49*
%MOMM*%
%LPD*%
G01*
G04 APERTURE LIST*
G04 Aperture macros list*
%AMRoundRect*
0 Rectangle with rounded corners*
0 $1 Rounding radius*
0 $2 $3 $4 $5 $6 $7 $8 $9 X,Y pos of 4 corners*
0 Add a 4 corners polygon primitive as box body*
4,1,4,$2,$3,$4,$5,$6,$7,$8,$9,$2,$3,0*
0 Add four circle primitives for the rounded corners*
1,1,$1+$1,$2,$3*
1,1,$1+$1,$4,$5*
1,1,$1+$1,$6,$7*
1,1,$1+$1,$8,$9*
0 Add four rect primitives between the rounded corners*
20,1,$1+$1,$2,$3,$4,$5,0*
20,1,$1+$1,$4,$5,$6,$7,0*
20,1,$1+$1,$6,$7,$8,$9,0*
20,1,$1+$1,$8,$9,$2,$3,0*%
G04 Aperture macros list end*
%TA.AperFunction,ComponentPad*%
%ADD10R,1.700000X1.700000*%
%TD*%
%TA.AperFunction,ComponentPad*%
%ADD11O,1.700000X1.700000*%
%TD*%
%TA.AperFunction,SMDPad,CuDef*%
%ADD12RoundRect,0.250000X0.450000X-0.350000X0.450000X0.350000X-0.450000X0.350000X-0.450000X-0.350000X0*%
%TD*%
%TA.AperFunction,SMDPad,CuDef*%
%ADD13RoundRect,0.250000X-0.475000X0.337500X-0.475000X-0.337500X0.475000X-0.337500X0.475000X0.337500X0*%
%TD*%
%TA.AperFunction,ViaPad*%
%ADD14C,0.800000*%
%TD*%
%TA.AperFunction,Conductor*%
%ADD15C,0.304800*%
%TD*%
%TA.AperFunction,Conductor*%
%ADD16C,0.250000*%
%TD*%
G04 APERTURE END LIST*
D10*
%TO.P,J1,1,Pin_1*%
%TO.N,/SWDCLK*%
X183639999Y-64679999D03*
D11*
%TO.P,J1,2,Pin_2*%
%TO.N,/SWDIO*%
X183639999Y-62139999D03*
%TO.P,J1,3,Pin_3*%
%TO.N,+1V8*%
X183639999Y-59599999D03*
%TO.P,J1,4,Pin_4*%
%TO.N,GND*%
X183639999Y-57059999D03*
%TO.P,J1,5,Pin_5*%
%TO.N,/nRST*%
X183639999Y-54519999D03*
%TD*%
D12*
%TO.P,R1,1*%
%TO.N,+1V8*%
X163775000Y-56600000D03*
%TO.P,R1,2*%
%TO.N,/nRST*%
X163775000Y-54600000D03*
%TD*%
D13*
%TO.P,C1,1*%
%TO.N,/nRST*%
X161275000Y-54550000D03*
%TO.P,C1,2*%
%TO.N,GND*%
X161275000Y-56625000D03*
%TD*%
D10*
%TO.P,J2,1,Pin_1*%
%TO.N,+1V8*%
X132249999Y-64424999D03*
D11*
%TO.P,J2,2,Pin_2*%
%TO.N,/SWDIO*%
X129709999Y-64424999D03*
%TO.P,J2,3,Pin_3*%
%TO.N,GND*%
X132249999Y-61884999D03*
%TO.P,J2,4,Pin_4*%
%TO.N,/SWDCLK*%
X129709999Y-61884999D03*
%TO.P,J2,5,Pin_5*%
%TO.N,GND*%
X132249999Y-59344999D03*
%TO.P,J2,6,Pin_6*%
%TO.N,unconnected-(J2-Pin_6-Pad6)*%
X129709999Y-59344999D03*
%TO.P,J2,7,Pin_7*%
%TO.N,unconnected-(J2-Pin_7-Pad7)*%
X132249999Y-56804999D03*
%TO.P,J2,8,Pin_8*%
%TO.N,unconnected-(J2-Pin_8-Pad8)*%
X129709999Y-56804999D03*
%TO.P,J2,9,Pin_9*%
%TO.N,GND*%
X132249999Y-54264999D03*
%TO.P,J2,10,Pin_10*%
%TO.N,/nRST*%
X129709999Y-54264999D03*
%TD*%
D14*
%TO.N,GND*%
X159600000Y-56625000D03*
%TD*%
D15*
%TO.N,/SWDIO*%
X182002000Y-62140000D02*
X183640000Y-62140000D01*
X178221000Y-65921000D02*
X182002000Y-62140000D01*
%TO.N,/SWDCLK*%
X181687800Y-66632200D02*
X183640000Y-64680000D01*
X129714800Y-66632200D02*
X181687800Y-66632200D01*
X128190800Y-63304800D02*
X128190800Y-65108200D01*
X128190800Y-65108200D02*
X129714800Y-66632200D01*
X129610600Y-61885000D02*
X128190800Y-63304800D01*
X129710000Y-61885000D02*
X129610600Y-61885000D01*
D16*
%TO.N,+1V8*%
X182200000Y-59600000D02*
X183640000Y-59600000D01*
X179200000Y-56600000D02*
X182200000Y-59600000D01*
D15*
%TO.N,/nRST*%
X182576800Y-52636800D02*
X183640000Y-53700000D01*
X164611800Y-52636800D02*
X182576800Y-52636800D01*
X183640000Y-53700000D02*
X183640000Y-54520000D01*
%TO.N,/SWDIO*%
X129710000Y-64692500D02*
X130938500Y-65921000D01*
X129710000Y-64425000D02*
X129710000Y-64692500D01*
X130938500Y-65921000D02*
X178221000Y-65921000D01*
D16*
%TO.N,+1V8*%
X163775000Y-56600000D02*
X179200000Y-56600000D01*
%TO.N,GND*%
X161275000Y-56625000D02*
X159625000Y-56625000D01*
X159625000Y-56625000D02*
X159600000Y-56625000D01*
%TO.N,/nRST*%
X163725000Y-54550000D02*
X163775000Y-54600000D01*
X161275000Y-54550000D02*
X163725000Y-54550000D01*
D15*
X131338200Y-52636800D02*
X164611800Y-52636800D01*
D16*
X163775000Y-53473600D02*
X164611800Y-52636800D01*
X163775000Y-54600000D02*
X163775000Y-53473600D01*
D15*
X129710000Y-54265000D02*
X131338200Y-52636800D01*
%TD*%
%TA.AperFunction,Conductor*%
%TO.N,+1V8*%
G36*
X160456365Y-53314216D02*
G01*
X160502380Y-53359435D01*
X160519982Y-53421501D01*
X160504557Y-53484144D01*
X160460148Y-53530941D01*
X160332595Y-53609616D01*
X160332590Y-53609619D01*
X160326348Y-53613470D01*
X160321158Y-53618659D01*
X160321154Y-53618663D01*
X160206163Y-53733654D01*
X160206159Y-53733658D01*
X160200970Y-53738848D01*
X160197119Y-53745090D01*
X160197116Y-53745095D01*
X160111735Y-53883518D01*
X160111730Y-53883526D01*
X160107885Y-53889762D01*
X160105579Y-53896719D01*
X160105577Y-53896725D01*
X160056171Y-54045827D01*
X160052113Y-54058074D01*
X160051414Y-54064908D01*
X160051414Y-54064912D01*
X160047583Y-54102411D01*
X160041500Y-54161955D01*
X160041500Y-54165159D01*
X160041500Y-54165160D01*
X160041500Y-54934838D01*
X160041500Y-54934857D01*
X160041501Y-54938044D01*
X160041825Y-54941221D01*
X160041826Y-54941229D01*
X160049283Y-55014232D01*
X160052113Y-55041926D01*
X160054272Y-55048443D01*
X160054274Y-55048450D01*
X160074985Y-55110951D01*
X160107885Y-55210238D01*
X160111732Y-55216476D01*
X160111735Y-55216481D01*
X160197114Y-55354901D01*
X160200970Y-55361152D01*
X160326348Y-55486530D01*
X160331023Y-55489413D01*
X160365679Y-55532597D01*
X160378270Y-55587500D01*
X160365679Y-55642403D01*
X160331023Y-55685586D01*
X160326348Y-55688470D01*
X160321161Y-55693656D01*
X160321161Y-55693657D01*
X160203341Y-55811477D01*
X160157338Y-55840783D01*
X160103260Y-55847901D01*
X160057004Y-55833314D01*
X160056752Y-55833882D01*
X160051771Y-55831664D01*
X160051768Y-55831663D01*
X159882288Y-55756206D01*
X159875835Y-55754834D01*
X159875831Y-55754833D01*
X159701943Y-55717872D01*
X159701940Y-55717871D01*
X159695487Y-55716500D01*
X159504513Y-55716500D01*
X159498060Y-55717871D01*
X159498056Y-55717872D01*
X159324168Y-55754833D01*
X159324161Y-55754835D01*
X159317712Y-55756206D01*
X159311682Y-55758890D01*
X159311681Y-55758891D01*
X159149278Y-55831197D01*
X159149275Y-55831198D01*
X159143248Y-55833882D01*
X159137907Y-55837762D01*
X159137906Y-55837763D01*
X158994091Y-55942250D01*
X158994083Y-55942256D01*
X158988747Y-55946134D01*
X158984330Y-55951039D01*
X158984325Y-55951044D01*
X158891725Y-56053888D01*
X158860960Y-56088056D01*
X158857661Y-56093769D01*
X158857658Y-56093774D01*
X158774992Y-56236956D01*
X158765473Y-56253444D01*
X158763434Y-56259718D01*
X158763430Y-56259728D01*
X158708497Y-56428794D01*
X158708495Y-56428801D01*
X158706458Y-56435072D01*
X158705768Y-56441633D01*
X158705768Y-56441635D01*
X158702577Y-56472000D01*
X158686496Y-56625000D01*
X158687186Y-56631565D01*
X158705414Y-56805000D01*
X158706458Y-56814928D01*
X158708495Y-56821200D01*
X158708497Y-56821205D01*
X158763430Y-56990271D01*
X158763433Y-56990278D01*
X158765473Y-56996556D01*
X158860960Y-57161944D01*
X158988747Y-57303866D01*
X159143248Y-57416118D01*
X159317712Y-57493794D01*
X159504513Y-57533500D01*
X159688884Y-57533500D01*
X159695487Y-57533500D01*
X159882288Y-57493794D01*
X160056752Y-57416118D01*
X160057005Y-57416687D01*
X160103250Y-57402099D01*
X160157334Y-57409214D01*
X160203341Y-57438523D01*
X160326348Y-57561530D01*
X160332596Y-57565383D01*
X160332595Y-57565383D01*
X160471018Y-57650764D01*
X160471020Y-57650765D01*
X160477262Y-57654615D01*
X160645574Y-57710387D01*
X160749455Y-57721000D01*
X161800544Y-57720999D01*
X161904426Y-57710387D01*
X162072738Y-57654615D01*
X162223652Y-57561530D01*
X162349030Y-57436152D01*
X162434409Y-57297730D01*
X162480242Y-57253855D01*
X162541649Y-57237879D01*
X162603055Y-57253855D01*
X162648890Y-57297732D01*
X162722511Y-57417091D01*
X162731558Y-57428532D01*
X162846467Y-57543441D01*
X162857908Y-57552488D01*
X162996232Y-57637807D01*
X163009435Y-57643964D01*
X163164153Y-57695232D01*
X163177511Y-57698092D01*
X163271307Y-57707674D01*
X163277697Y-57708000D01*
X163504410Y-57708000D01*
X163517493Y-57704493D01*
X163521000Y-57691410D01*
X164029000Y-57691410D01*
X164032506Y-57704493D01*
X164045590Y-57708000D01*
X164272303Y-57708000D01*
X164278692Y-57707674D01*
X164372488Y-57698092D01*
X164385846Y-57695232D01*
X164540564Y-57643964D01*
X164553767Y-57637807D01*
X164692091Y-57552488D01*
X164703532Y-57543441D01*
X164818441Y-57428532D01*
X164827488Y-57417091D01*
X164912807Y-57278767D01*
X164918964Y-57265564D01*
X164970232Y-57110846D01*
X164973092Y-57097488D01*
X164982674Y-57003692D01*
X164983000Y-56997303D01*
X164983000Y-56870590D01*
X164979493Y-56857506D01*
X164966410Y-56854000D01*
X164045590Y-56854000D01*
X164032506Y-56857506D01*
X164029000Y-56870590D01*
X164029000Y-57691410D01*
X163521000Y-57691410D01*
X163521000Y-56472000D01*
X163537881Y-56409000D01*
X163584000Y-56362881D01*
X163647000Y-56346000D01*
X164966410Y-56346000D01*
X164979493Y-56342493D01*
X164983000Y-56329410D01*
X164983000Y-56202698D01*
X164982674Y-56196307D01*
X164973092Y-56102511D01*
X164970232Y-56089153D01*
X164918964Y-55934435D01*
X164912807Y-55921232D01*
X164827488Y-55782908D01*
X164818441Y-55771467D01*
X164736423Y-55689449D01*
X164703811Y-55632965D01*
X164703811Y-55567743D01*
X164736423Y-55511259D01*
X164777183Y-55470499D01*
X164824030Y-55423652D01*
X164917115Y-55272738D01*
X164972887Y-55104426D01*
X164983500Y-55000545D01*
X164983499Y-54199456D01*
X164972887Y-54095574D01*
X164957237Y-54048346D01*
X164919422Y-53934225D01*
X164917115Y-53927262D01*
X164890133Y-53883518D01*
X164827883Y-53782595D01*
X164824030Y-53776348D01*
X164698652Y-53650970D01*
X164694078Y-53648148D01*
X164653895Y-53591924D01*
X164649831Y-53522114D01*
X164683613Y-53460891D01*
X164809900Y-53334604D01*
X164850778Y-53307291D01*
X164898996Y-53297700D01*
X182250857Y-53297700D01*
X182299075Y-53307291D01*
X182339952Y-53334605D01*
X182540847Y-53535500D01*
X182570925Y-53583683D01*
X182576784Y-53640180D01*
X182557235Y-53693510D01*
X182443992Y-53866843D01*
X182441140Y-53871209D01*
X182439048Y-53875978D01*
X182439046Y-53875982D01*
X182352799Y-54072606D01*
X182352796Y-54072614D01*
X182350704Y-54077384D01*
X182349423Y-54082440D01*
X182349422Y-54082445D01*
X182328476Y-54165160D01*
X182295436Y-54295632D01*
X182295006Y-54300820D01*
X182295005Y-54300827D01*
X182279813Y-54484172D01*
X182276844Y-54520000D01*
X182277274Y-54525189D01*
X182292390Y-54707616D01*
X182295436Y-54744368D01*
X182296717Y-54749426D01*
X182344481Y-54938044D01*
X182350704Y-54962616D01*
X182352797Y-54967389D01*
X182352799Y-54967393D01*
X182412907Y-55104426D01*
X182441140Y-55168791D01*
X182564278Y-55357268D01*
X182567806Y-55361100D01*
X182713227Y-55519069D01*
X182713231Y-55519073D01*
X182716760Y-55522906D01*
X182894424Y-55661189D01*
X182899002Y-55663666D01*
X182899009Y-55663671D01*
X182927680Y-55679187D01*
X182975951Y-55725503D01*
X182993710Y-55790000D01*
X182975951Y-55854497D01*
X182927680Y-55900813D01*
X182899009Y-55916328D01*
X182898993Y-55916338D01*
X182894424Y-55918811D01*
X182890313Y-55922010D01*
X182890311Y-55922012D01*
X182720878Y-56053888D01*
X182720872Y-56053893D01*
X182716760Y-56057094D01*
X182713237Y-56060919D01*
X182713227Y-56060930D01*
X182567806Y-56218899D01*
X182567802Y-56218902D01*
X182564278Y-56222732D01*
X182561430Y-56227090D01*
X182561427Y-56227095D01*
X182472714Y-56362881D01*
X182441140Y-56411209D01*
X182439048Y-56415978D01*
X182439046Y-56415982D01*
X182352799Y-56612606D01*
X182352796Y-56612614D01*
X182350704Y-56617384D01*
X182295436Y-56835632D01*
X182295006Y-56840820D01*
X182295005Y-56840827D01*
X182293623Y-56857506D01*
X182276844Y-57060000D01*
X182277274Y-57065189D01*
X182294971Y-57278767D01*
X182295436Y-57284368D01*
X182350704Y-57502616D01*
X182352797Y-57507389D01*
X182352799Y-57507393D01*
X182412704Y-57643964D01*
X182441140Y-57708791D01*
X182564278Y-57897268D01*
X182611598Y-57948671D01*
X182713227Y-58059069D01*
X182713231Y-58059073D01*
X182716760Y-58062906D01*
X182894424Y-58201189D01*
X182899000Y-58203665D01*
X182899004Y-58203668D01*
X182905184Y-58207012D01*
X182928205Y-58219470D01*
X182976476Y-58265784D01*
X182994237Y-58330281D01*
X182976479Y-58394779D01*
X182928209Y-58441096D01*
X182899285Y-58456749D01*
X182890588Y-58462431D01*
X182721211Y-58594262D01*
X182713567Y-58601299D01*
X182568210Y-58759200D01*
X182561822Y-58767406D01*
X182444431Y-58947086D01*
X182439488Y-58956221D01*
X182353270Y-59152776D01*
X182349900Y-59162591D01*
X182306986Y-59332056D01*
X182306751Y-59343434D01*
X182317840Y-59346000D01*
X183768000Y-59346000D01*
X183831000Y-59362881D01*
X183877119Y-59409000D01*
X183894000Y-59472000D01*
X183894000Y-59728000D01*
X183877119Y-59791000D01*
X183831000Y-59837119D01*
X183768000Y-59854000D01*
X182317840Y-59854000D01*
X182306751Y-59856565D01*
X182306986Y-59867943D01*
X182349900Y-60037408D01*
X182353270Y-60047223D01*
X182439488Y-60243778D01*
X182444431Y-60252913D01*
X182561822Y-60432593D01*
X182568210Y-60440799D01*
X182713567Y-60598700D01*
X182721211Y-60605737D01*
X182890588Y-60737568D01*
X182899281Y-60743247D01*
X182928206Y-60758901D01*
X182976478Y-60805217D01*
X182994237Y-60869715D01*
X182976478Y-60934212D01*
X182928207Y-60980528D01*
X182916701Y-60986755D01*
X182899000Y-60996334D01*
X182898994Y-60996337D01*
X182894424Y-60998811D01*
X182890313Y-61002010D01*
X182890311Y-61002012D01*
X182720878Y-61133888D01*
X182720872Y-61133893D01*
X182716760Y-61137094D01*
X182713237Y-61140919D01*
X182713227Y-61140930D01*
X182567806Y-61298899D01*
X182567802Y-61298902D01*
X182564278Y-61302732D01*
X182561430Y-61307090D01*
X182561427Y-61307095D01*
X182486347Y-61422015D01*
X182440834Y-61463914D01*
X182380864Y-61479100D01*
X182025766Y-61479100D01*
X182018158Y-61478870D01*
X181969410Y-61475921D01*
X181969408Y-61475921D01*
X181961803Y-61475461D01*
X181954314Y-61476833D01*
X181954303Y-61476834D01*
X181906254Y-61485640D01*
X181898732Y-61486785D01*
X181850238Y-61492673D01*
X181850232Y-61492674D01*
X181842675Y-61493592D01*
X181835553Y-61496292D01*
X181835548Y-61496294D01*
X181834491Y-61496695D01*
X181812546Y-61502812D01*
X181811440Y-61503014D01*
X181811426Y-61503018D01*
X181803936Y-61504391D01*
X181796989Y-61507517D01*
X181796984Y-61507519D01*
X181752446Y-61527563D01*
X181745421Y-61530473D01*
X181699729Y-61547803D01*
X181699724Y-61547805D01*
X181692609Y-61550504D01*
X181686345Y-61554826D01*
X181686336Y-61554832D01*
X181685405Y-61555475D01*
X181665557Y-61566670D01*
X181664529Y-61567132D01*
X181664521Y-61567136D01*
X181657580Y-61570261D01*
X181651590Y-61574953D01*
X181651586Y-61574956D01*
X181628256Y-61593234D01*
X181613124Y-61605087D01*
X181607009Y-61609587D01*
X181566790Y-61637349D01*
X181566784Y-61637353D01*
X181560523Y-61641676D01*
X181555477Y-61647371D01*
X181555472Y-61647376D01*
X181523068Y-61683952D01*
X181517852Y-61689492D01*
X177984152Y-65223195D01*
X177943275Y-65250509D01*
X177895057Y-65260100D01*
X133734000Y-65260100D01*
X133671000Y-65243219D01*
X133624881Y-65197100D01*
X133608000Y-65134100D01*
X133608000Y-64695590D01*
X133604493Y-64682506D01*
X133591410Y-64679000D01*
X132122000Y-64679000D01*
X132059000Y-64662119D01*
X132012881Y-64616000D01*
X131996000Y-64553000D01*
X131996000Y-64297000D01*
X132012881Y-64234000D01*
X132059000Y-64187881D01*
X132122000Y-64171000D01*
X133591410Y-64171000D01*
X133604493Y-64167493D01*
X133608000Y-64154410D01*
X133608000Y-63529777D01*
X133607640Y-63523061D01*
X133602337Y-63473742D01*
X133598740Y-63458521D01*
X133553594Y-63337480D01*
X133545045Y-63321824D01*
X133468302Y-63219307D01*
X133455692Y-63206697D01*
X133353175Y-63129954D01*
X133337521Y-63121406D01*
X133230827Y-63081611D01*
X133180493Y-63047047D01*
X133152319Y-62992877D01*
X133152922Y-62931821D01*
X133182159Y-62878217D01*
X133325722Y-62722268D01*
X133448860Y-62533791D01*
X133539296Y-62327616D01*
X133594564Y-62109368D01*
X133613156Y-61885000D01*
X133594564Y-61660632D01*
X133539296Y-61442384D01*
X133448860Y-61236209D01*
X133325722Y-61047732D01*
X133263857Y-60980529D01*
X133176772Y-60885930D01*
X133176767Y-60885925D01*
X133173240Y-60882094D01*
X132995576Y-60743811D01*
X132991002Y-60741336D01*
X132990995Y-60741331D01*
X132962320Y-60725814D01*
X132914048Y-60679498D01*
X132896289Y-60615000D01*
X132914048Y-60550502D01*
X132962320Y-60504186D01*
X132990990Y-60488671D01*
X132995576Y-60486189D01*
X133173240Y-60347906D01*
X133325722Y-60182268D01*
X133448860Y-59993791D01*
X133539296Y-59787616D01*
X133594564Y-59569368D01*
X133613156Y-59345000D01*
X133594564Y-59120632D01*
X133539296Y-58902384D01*
X133448860Y-58696209D01*
X133325722Y-58507732D01*
X133264379Y-58441096D01*
X133176772Y-58345930D01*
X133176767Y-58345925D01*
X133173240Y-58342094D01*
X132995576Y-58203811D01*
X132991002Y-58201336D01*
X132990995Y-58201331D01*
X132962320Y-58185814D01*
X132914048Y-58139498D01*
X132896289Y-58075000D01*
X132914048Y-58010502D01*
X132962320Y-57964186D01*
X132990990Y-57948671D01*
X132995576Y-57946189D01*
X133173240Y-57807906D01*
X133325722Y-57642268D01*
X133448860Y-57453791D01*
X133539296Y-57247616D01*
X133594564Y-57029368D01*
X133613156Y-56805000D01*
X133594564Y-56580632D01*
X133539296Y-56362384D01*
X133448860Y-56156209D01*
X133325722Y-55967732D01*
X133215409Y-55847901D01*
X133176772Y-55805930D01*
X133176767Y-55805925D01*
X133173240Y-55802094D01*
X132995576Y-55663811D01*
X132990997Y-55661333D01*
X132990994Y-55661331D01*
X132962318Y-55645812D01*
X132914047Y-55599494D01*
X132896289Y-55534996D01*
X132914050Y-55470499D01*
X132962321Y-55424185D01*
X132995576Y-55406189D01*
X133173240Y-55267906D01*
X133325722Y-55102268D01*
X133448860Y-54913791D01*
X133539296Y-54707616D01*
X133594564Y-54489368D01*
X133613156Y-54265000D01*
X133594564Y-54040632D01*
X133539296Y-53822384D01*
X133448860Y-53616209D01*
X133368111Y-53492614D01*
X133347703Y-53428907D01*
X133362781Y-53363731D01*
X133409097Y-53315459D01*
X133473595Y-53297700D01*
X160394001Y-53297700D01*
X160456365Y-53314216D01*
G37*
%TD.AperFunction*%
%TD*%
M02*
