%TF.GenerationSoftware,KiCad,Pcbnew,(7.0.0)*%
%TF.CreationDate,2023-08-02T20:08:49-07:00*%
%TF.ProjectId,SWD_to_v4WF_Cable,5357445f-746f-45f7-9634-57465f436162,rev?*%
%TF.SameCoordinates,Original*%
%TF.FileFunction,Copper,L2,Bot*%
%TF.FilePolarity,Positive*%
%FSLAX46Y46*%
G04 Gerber Fmt 4.6, Leading zero omitted, Abs format (unit mm)*
G04 Created by KiCad (PCBNEW (7.0.0)) date 2023-08-02 20:08:49*
%MOMM*%
%LPD*%
G01*
G04 APERTURE LIST*
%TA.AperFunction,ComponentPad*%
%ADD10R,1.700000X1.700000*%
%TD*%
%TA.AperFunction,ComponentPad*%
%ADD11O,1.700000X1.700000*%
%TD*%
%TA.AperFunction,ViaPad*%
%ADD12C,0.800000*%
%TD*%
G04 APERTURE END LIST*
D10*
%TO.P,J1,1,Pin_1*%
%TO.N,/SWDCLK*%
X183639999Y-64679999D03*
D11*
%TO.P,J1,2,Pin_2*%
%TO.N,/SWDIO*%
X183639999Y-62139999D03*
%TO.P,J1,3,Pin_3*%
%TO.N,+1V8*%
X183639999Y-59599999D03*
%TO.P,J1,4,Pin_4*%
%TO.N,GND*%
X183639999Y-57059999D03*
%TO.P,J1,5,Pin_5*%
%TO.N,/nRST*%
X183639999Y-54519999D03*
%TD*%
D10*
%TO.P,J2,1,Pin_1*%
%TO.N,+1V8*%
X132249999Y-64424999D03*
D11*
%TO.P,J2,2,Pin_2*%
%TO.N,/SWDIO*%
X129709999Y-64424999D03*
%TO.P,J2,3,Pin_3*%
%TO.N,GND*%
X132249999Y-61884999D03*
%TO.P,J2,4,Pin_4*%
%TO.N,/SWDCLK*%
X129709999Y-61884999D03*
%TO.P,J2,5,Pin_5*%
%TO.N,GND*%
X132249999Y-59344999D03*
%TO.P,J2,6,Pin_6*%
%TO.N,unconnected-(J2-Pin_6-Pad6)*%
X129709999Y-59344999D03*
%TO.P,J2,7,Pin_7*%
%TO.N,unconnected-(J2-Pin_7-Pad7)*%
X132249999Y-56804999D03*
%TO.P,J2,8,Pin_8*%
%TO.N,unconnected-(J2-Pin_8-Pad8)*%
X129709999Y-56804999D03*
%TO.P,J2,9,Pin_9*%
%TO.N,GND*%
X132249999Y-54264999D03*
%TO.P,J2,10,Pin_10*%
%TO.N,/nRST*%
X129709999Y-54264999D03*
%TD*%
D12*
%TO.N,GND*%
X159600000Y-56625000D03*
%TD*%
%TA.AperFunction,Conductor*%
%TO.N,GND*%
G36*
X185037000Y-49866881D02*
G01*
X185083119Y-49913000D01*
X185100000Y-49976000D01*
X185100000Y-53865626D01*
X185081704Y-53931016D01*
X185032129Y-53977416D01*
X184965673Y-53991351D01*
X184901635Y-53968773D01*
X184858613Y-53916240D01*
X184840956Y-53875987D01*
X184840954Y-53875985D01*
X184838860Y-53871209D01*
X184715722Y-53682732D01*
X184645083Y-53605998D01*
X184566772Y-53520930D01*
X184566767Y-53520925D01*
X184563240Y-53517094D01*
X184385576Y-53378811D01*
X184380997Y-53376333D01*
X184380994Y-53376331D01*
X184192159Y-53274139D01*
X184192156Y-53274137D01*
X184187574Y-53271658D01*
X184182650Y-53269967D01*
X184182642Y-53269964D01*
X183979565Y-53200248D01*
X183979559Y-53200246D01*
X183974635Y-53198556D01*
X183969498Y-53197698D01*
X183969495Y-53197698D01*
X183757706Y-53162357D01*
X183757703Y-53162356D01*
X183752569Y-53161500D01*
X183527431Y-53161500D01*
X183522297Y-53162356D01*
X183522293Y-53162357D01*
X183310504Y-53197698D01*
X183310498Y-53197699D01*
X183305365Y-53198556D01*
X183300443Y-53200245D01*
X183300434Y-53200248D01*
X183097357Y-53269964D01*
X183097344Y-53269969D01*
X183092426Y-53271658D01*
X183087847Y-53274135D01*
X183087840Y-53274139D01*
X182899005Y-53376331D01*
X182898997Y-53376336D01*
X182894424Y-53378811D01*
X182890313Y-53382010D01*
X182890311Y-53382012D01*
X182720878Y-53513888D01*
X182720872Y-53513893D01*
X182716760Y-53517094D01*
X182713237Y-53520919D01*
X182713227Y-53520930D01*
X182567806Y-53678899D01*
X182567802Y-53678902D01*
X182564278Y-53682732D01*
X182561430Y-53687090D01*
X182561427Y-53687095D01*
X182443992Y-53866843D01*
X182441140Y-53871209D01*
X182439048Y-53875978D01*
X182439046Y-53875982D01*
X182352799Y-54072606D01*
X182352796Y-54072614D01*
X182350704Y-54077384D01*
X182295436Y-54295632D01*
X182295006Y-54300820D01*
X182295005Y-54300827D01*
X182282147Y-54456000D01*
X182276844Y-54520000D01*
X182277274Y-54525189D01*
X182292390Y-54707616D01*
X182295436Y-54744368D01*
X182350704Y-54962616D01*
X182352797Y-54967389D01*
X182352799Y-54967393D01*
X182413509Y-55105799D01*
X182441140Y-55168791D01*
X182564278Y-55357268D01*
X182567806Y-55361100D01*
X182713227Y-55519069D01*
X182713231Y-55519073D01*
X182716760Y-55522906D01*
X182894424Y-55661189D01*
X182899000Y-55663665D01*
X182899004Y-55663668D01*
X182905184Y-55667012D01*
X182928205Y-55679470D01*
X182976476Y-55725784D01*
X182994237Y-55790281D01*
X182976479Y-55854779D01*
X182928209Y-55901096D01*
X182899285Y-55916749D01*
X182890588Y-55922431D01*
X182721211Y-56054262D01*
X182713567Y-56061299D01*
X182568210Y-56219200D01*
X182561822Y-56227406D01*
X182444431Y-56407086D01*
X182439488Y-56416221D01*
X182353270Y-56612776D01*
X182349900Y-56622591D01*
X182306986Y-56792056D01*
X182306751Y-56803434D01*
X182317840Y-56806000D01*
X183768000Y-56806000D01*
X183831000Y-56822881D01*
X183877119Y-56869000D01*
X183894000Y-56932000D01*
X183894000Y-57188000D01*
X183877119Y-57251000D01*
X183831000Y-57297119D01*
X183768000Y-57314000D01*
X182317840Y-57314000D01*
X182306751Y-57316565D01*
X182306986Y-57327943D01*
X182349900Y-57497408D01*
X182353270Y-57507223D01*
X182439488Y-57703778D01*
X182444431Y-57712913D01*
X182561822Y-57892593D01*
X182568210Y-57900799D01*
X182713567Y-58058700D01*
X182721211Y-58065737D01*
X182890588Y-58197568D01*
X182899281Y-58203247D01*
X182928206Y-58218901D01*
X182976478Y-58265217D01*
X182994237Y-58329715D01*
X182976478Y-58394212D01*
X182928207Y-58440528D01*
X182916701Y-58446755D01*
X182899000Y-58456334D01*
X182898994Y-58456337D01*
X182894424Y-58458811D01*
X182890313Y-58462010D01*
X182890311Y-58462012D01*
X182720878Y-58593888D01*
X182720872Y-58593893D01*
X182716760Y-58597094D01*
X182713237Y-58600919D01*
X182713227Y-58600930D01*
X182567806Y-58758899D01*
X182567802Y-58758902D01*
X182564278Y-58762732D01*
X182561430Y-58767090D01*
X182561427Y-58767095D01*
X182443992Y-58946843D01*
X182441140Y-58951209D01*
X182439048Y-58955978D01*
X182439046Y-58955982D01*
X182352799Y-59152606D01*
X182352796Y-59152614D01*
X182350704Y-59157384D01*
X182295436Y-59375632D01*
X182295006Y-59380820D01*
X182295005Y-59380827D01*
X182279813Y-59564172D01*
X182276844Y-59600000D01*
X182277274Y-59605189D01*
X182292390Y-59787616D01*
X182295436Y-59824368D01*
X182350704Y-60042616D01*
X182352797Y-60047389D01*
X182352799Y-60047393D01*
X182413509Y-60185799D01*
X182441140Y-60248791D01*
X182564278Y-60437268D01*
X182611598Y-60488671D01*
X182713227Y-60599069D01*
X182713231Y-60599073D01*
X182716760Y-60602906D01*
X182894424Y-60741189D01*
X182927680Y-60759186D01*
X182975950Y-60805499D01*
X182993710Y-60869996D01*
X182975953Y-60934494D01*
X182927683Y-60980811D01*
X182899005Y-60996331D01*
X182898997Y-60996336D01*
X182894424Y-60998811D01*
X182890313Y-61002010D01*
X182890311Y-61002012D01*
X182720878Y-61133888D01*
X182720872Y-61133893D01*
X182716760Y-61137094D01*
X182713237Y-61140919D01*
X182713227Y-61140930D01*
X182567806Y-61298899D01*
X182567802Y-61298902D01*
X182564278Y-61302732D01*
X182561430Y-61307090D01*
X182561427Y-61307095D01*
X182443992Y-61486843D01*
X182441140Y-61491209D01*
X182439048Y-61495978D01*
X182439046Y-61495982D01*
X182352799Y-61692606D01*
X182352796Y-61692614D01*
X182350704Y-61697384D01*
X182295436Y-61915632D01*
X182295006Y-61920820D01*
X182295005Y-61920827D01*
X182282147Y-62076000D01*
X182276844Y-62140000D01*
X182277274Y-62145189D01*
X182292390Y-62327616D01*
X182295436Y-62364368D01*
X182350704Y-62582616D01*
X182352797Y-62587389D01*
X182352799Y-62587393D01*
X182413506Y-62725792D01*
X182441140Y-62788791D01*
X182564278Y-62977268D01*
X182659792Y-63081023D01*
X182707474Y-63132819D01*
X182736711Y-63186423D01*
X182737314Y-63247478D01*
X182709140Y-63301648D01*
X182658807Y-63336212D01*
X182552240Y-63375960D01*
X182552231Y-63375964D01*
X182543796Y-63379111D01*
X182536588Y-63384506D01*
X182536582Y-63384510D01*
X182433950Y-63461340D01*
X182433946Y-63461343D01*
X182426739Y-63466739D01*
X182421343Y-63473946D01*
X182421340Y-63473950D01*
X182344510Y-63576582D01*
X182344506Y-63576588D01*
X182339111Y-63583796D01*
X182335965Y-63592230D01*
X182335962Y-63592236D01*
X182290763Y-63713419D01*
X182290761Y-63713423D01*
X182288011Y-63720799D01*
X182287169Y-63728625D01*
X182287168Y-63728632D01*
X182282523Y-63771843D01*
X182281500Y-63781362D01*
X182281500Y-65578638D01*
X182281859Y-65581985D01*
X182281860Y-65581988D01*
X182287168Y-65631367D01*
X182287169Y-65631373D01*
X182288011Y-65639201D01*
X182290762Y-65646578D01*
X182290763Y-65646580D01*
X182335962Y-65767763D01*
X182335964Y-65767766D01*
X182339111Y-65776204D01*
X182344508Y-65783414D01*
X182344510Y-65783417D01*
X182418190Y-65881841D01*
X182426739Y-65893261D01*
X182543796Y-65980889D01*
X182680799Y-66031989D01*
X182741362Y-66038500D01*
X184535269Y-66038500D01*
X184538638Y-66038500D01*
X184599201Y-66031989D01*
X184736204Y-65980889D01*
X184853261Y-65893261D01*
X184865823Y-65876479D01*
X184873133Y-65866716D01*
X184921659Y-65827612D01*
X184982989Y-65816547D01*
X185042121Y-65836228D01*
X185084588Y-65881841D01*
X185100000Y-65942226D01*
X185100000Y-68724000D01*
X185083119Y-68787000D01*
X185037000Y-68833119D01*
X184974000Y-68850000D01*
X126226000Y-68850000D01*
X126163000Y-68833119D01*
X126116881Y-68787000D01*
X126100000Y-68724000D01*
X126100000Y-64425000D01*
X128346844Y-64425000D01*
X128365436Y-64649368D01*
X128420704Y-64867616D01*
X128511140Y-65073791D01*
X128634278Y-65262268D01*
X128637806Y-65266100D01*
X128783227Y-65424069D01*
X128783231Y-65424073D01*
X128786760Y-65427906D01*
X128964424Y-65566189D01*
X129162426Y-65673342D01*
X129167355Y-65675034D01*
X129167357Y-65675035D01*
X129268895Y-65709892D01*
X129375365Y-65746444D01*
X129597431Y-65783500D01*
X129817358Y-65783500D01*
X129822569Y-65783500D01*
X130044635Y-65746444D01*
X130257574Y-65673342D01*
X130455576Y-65566189D01*
X130633240Y-65427906D01*
X130676662Y-65380737D01*
X130694244Y-65361639D01*
X130747716Y-65327238D01*
X130811178Y-65323328D01*
X130868469Y-65350904D01*
X130905000Y-65402943D01*
X130945959Y-65512757D01*
X130945963Y-65512765D01*
X130949111Y-65521204D01*
X130954508Y-65528414D01*
X130954510Y-65528417D01*
X130994613Y-65581988D01*
X131036739Y-65638261D01*
X131153796Y-65725889D01*
X131290799Y-65776989D01*
X131351362Y-65783500D01*
X133145269Y-65783500D01*
X133148638Y-65783500D01*
X133209201Y-65776989D01*
X133346204Y-65725889D01*
X133463261Y-65638261D01*
X133550889Y-65521204D01*
X133601989Y-65384201D01*
X133608500Y-65323638D01*
X133608500Y-63526362D01*
X133601989Y-63465799D01*
X133550889Y-63328796D01*
X133545427Y-63321500D01*
X133469069Y-63219498D01*
X133463261Y-63211739D01*
X133429442Y-63186422D01*
X133353417Y-63129510D01*
X133353414Y-63129508D01*
X133346204Y-63124111D01*
X133337765Y-63120963D01*
X133337757Y-63120959D01*
X133230686Y-63081023D01*
X133180352Y-63046459D01*
X133152178Y-62992289D01*
X133152781Y-62931234D01*
X133182018Y-62877630D01*
X133321794Y-62725792D01*
X133328177Y-62717593D01*
X133445568Y-62537913D01*
X133450511Y-62528778D01*
X133536729Y-62332223D01*
X133540099Y-62322408D01*
X133583013Y-62152943D01*
X133583248Y-62141565D01*
X133572160Y-62139000D01*
X132122000Y-62139000D01*
X132059000Y-62122119D01*
X132012881Y-62076000D01*
X131996000Y-62013000D01*
X131996000Y-61614410D01*
X132504000Y-61614410D01*
X132507506Y-61627493D01*
X132520590Y-61631000D01*
X133572160Y-61631000D01*
X133583248Y-61628434D01*
X133583013Y-61617056D01*
X133540099Y-61447591D01*
X133536729Y-61437776D01*
X133450511Y-61241221D01*
X133445568Y-61232086D01*
X133328177Y-61052406D01*
X133321789Y-61044200D01*
X133176432Y-60886299D01*
X133168788Y-60879262D01*
X132999411Y-60747431D01*
X132990718Y-60741752D01*
X132961267Y-60725814D01*
X132912995Y-60679498D01*
X132895236Y-60615000D01*
X132912995Y-60550502D01*
X132961267Y-60504186D01*
X132990718Y-60488247D01*
X132999411Y-60482568D01*
X133168788Y-60350737D01*
X133176432Y-60343700D01*
X133321789Y-60185799D01*
X133328177Y-60177593D01*
X133445568Y-59997913D01*
X133450511Y-59988778D01*
X133536729Y-59792223D01*
X133540099Y-59782408D01*
X133583013Y-59612943D01*
X133583248Y-59601565D01*
X133572160Y-59599000D01*
X132520590Y-59599000D01*
X132507506Y-59602506D01*
X132504000Y-59615590D01*
X132504000Y-61614410D01*
X131996000Y-61614410D01*
X131996000Y-59217000D01*
X132012881Y-59154000D01*
X132059000Y-59107881D01*
X132122000Y-59091000D01*
X133572160Y-59091000D01*
X133583248Y-59088434D01*
X133583013Y-59077056D01*
X133540099Y-58907591D01*
X133536729Y-58897776D01*
X133450511Y-58701221D01*
X133445568Y-58692086D01*
X133328177Y-58512406D01*
X133321789Y-58504200D01*
X133176432Y-58346299D01*
X133168788Y-58339262D01*
X132999411Y-58207431D01*
X132990713Y-58201749D01*
X132961792Y-58186097D01*
X132913520Y-58139780D01*
X132895762Y-58075281D01*
X132913523Y-58010784D01*
X132961791Y-57964472D01*
X132995576Y-57946189D01*
X133173240Y-57807906D01*
X133325722Y-57642268D01*
X133448860Y-57453791D01*
X133539296Y-57247616D01*
X133594564Y-57029368D01*
X133613156Y-56805000D01*
X133594564Y-56580632D01*
X133539296Y-56362384D01*
X133448860Y-56156209D01*
X133325722Y-55967732D01*
X133264379Y-55901096D01*
X133176772Y-55805930D01*
X133176767Y-55805925D01*
X133173240Y-55802094D01*
X132995576Y-55663811D01*
X132991000Y-55661334D01*
X132990990Y-55661328D01*
X132961794Y-55645529D01*
X132913521Y-55599213D01*
X132895762Y-55534715D01*
X132913522Y-55470217D01*
X132961794Y-55423900D01*
X132990723Y-55408244D01*
X132999411Y-55402568D01*
X133168788Y-55270737D01*
X133176432Y-55263700D01*
X133321789Y-55105799D01*
X133328177Y-55097593D01*
X133445568Y-54917913D01*
X133450511Y-54908778D01*
X133536729Y-54712223D01*
X133540099Y-54702408D01*
X133583013Y-54532943D01*
X133583248Y-54521565D01*
X133572160Y-54519000D01*
X132122000Y-54519000D01*
X132059000Y-54502119D01*
X132012881Y-54456000D01*
X131996000Y-54393000D01*
X131996000Y-53994410D01*
X132504000Y-53994410D01*
X132507506Y-54007493D01*
X132520590Y-54011000D01*
X133572160Y-54011000D01*
X133583248Y-54008434D01*
X133583013Y-53997056D01*
X133540099Y-53827591D01*
X133536729Y-53817776D01*
X133450511Y-53621221D01*
X133445568Y-53612086D01*
X133328177Y-53432406D01*
X133321789Y-53424200D01*
X133176432Y-53266299D01*
X133168788Y-53259262D01*
X132999411Y-53127431D01*
X132990718Y-53121752D01*
X132801957Y-53019599D01*
X132792440Y-53015424D01*
X132589442Y-52945735D01*
X132579372Y-52943185D01*
X132517538Y-52932867D01*
X132506401Y-52933443D01*
X132504000Y-52944336D01*
X132504000Y-53994410D01*
X131996000Y-53994410D01*
X131996000Y-52944336D01*
X131993598Y-52933443D01*
X131982461Y-52932867D01*
X131920627Y-52943185D01*
X131910557Y-52945735D01*
X131707559Y-53015424D01*
X131698042Y-53019599D01*
X131509281Y-53121752D01*
X131500588Y-53127431D01*
X131331211Y-53259262D01*
X131323567Y-53266299D01*
X131178210Y-53424200D01*
X131171816Y-53432415D01*
X131085780Y-53564101D01*
X131040267Y-53605999D01*
X130980297Y-53621185D01*
X130920328Y-53605998D01*
X130874816Y-53564101D01*
X130785722Y-53427732D01*
X130724956Y-53361723D01*
X130636772Y-53265930D01*
X130636767Y-53265925D01*
X130633240Y-53262094D01*
X130455576Y-53123811D01*
X130450997Y-53121333D01*
X130450994Y-53121331D01*
X130262159Y-53019139D01*
X130262156Y-53019137D01*
X130257574Y-53016658D01*
X130252650Y-53014967D01*
X130252642Y-53014964D01*
X130049565Y-52945248D01*
X130049559Y-52945246D01*
X130044635Y-52943556D01*
X130039498Y-52942698D01*
X130039495Y-52942698D01*
X129827706Y-52907357D01*
X129827703Y-52907356D01*
X129822569Y-52906500D01*
X129597431Y-52906500D01*
X129592297Y-52907356D01*
X129592293Y-52907357D01*
X129380504Y-52942698D01*
X129380498Y-52942699D01*
X129375365Y-52943556D01*
X129370443Y-52945245D01*
X129370434Y-52945248D01*
X129167357Y-53014964D01*
X129167344Y-53014969D01*
X129162426Y-53016658D01*
X129157847Y-53019135D01*
X129157840Y-53019139D01*
X128969005Y-53121331D01*
X128968997Y-53121336D01*
X128964424Y-53123811D01*
X128960313Y-53127010D01*
X128960311Y-53127012D01*
X128790878Y-53258888D01*
X128790872Y-53258893D01*
X128786760Y-53262094D01*
X128783237Y-53265919D01*
X128783227Y-53265930D01*
X128637806Y-53423899D01*
X128637802Y-53423902D01*
X128634278Y-53427732D01*
X128631430Y-53432090D01*
X128631427Y-53432095D01*
X128513992Y-53611843D01*
X128511140Y-53616209D01*
X128509048Y-53620978D01*
X128509046Y-53620982D01*
X128422799Y-53817606D01*
X128422796Y-53817614D01*
X128420704Y-53822384D01*
X128419423Y-53827440D01*
X128419422Y-53827445D01*
X128377141Y-53994410D01*
X128365436Y-54040632D01*
X128365006Y-54045820D01*
X128365005Y-54045827D01*
X128361971Y-54082445D01*
X128346844Y-54265000D01*
X128347274Y-54270189D01*
X128357450Y-54393000D01*
X128365436Y-54489368D01*
X128420704Y-54707616D01*
X128422797Y-54712389D01*
X128422799Y-54712393D01*
X128439043Y-54749426D01*
X128511140Y-54913791D01*
X128634278Y-55102268D01*
X128637806Y-55106100D01*
X128783227Y-55264069D01*
X128783231Y-55264073D01*
X128786760Y-55267906D01*
X128964424Y-55406189D01*
X128997680Y-55424186D01*
X129045950Y-55470499D01*
X129063710Y-55534996D01*
X129045953Y-55599494D01*
X128997683Y-55645811D01*
X128969005Y-55661331D01*
X128968997Y-55661336D01*
X128964424Y-55663811D01*
X128960313Y-55667010D01*
X128960311Y-55667012D01*
X128790878Y-55798888D01*
X128790872Y-55798893D01*
X128786760Y-55802094D01*
X128783237Y-55805919D01*
X128783227Y-55805930D01*
X128637806Y-55963899D01*
X128637802Y-55963902D01*
X128634278Y-55967732D01*
X128631430Y-55972090D01*
X128631427Y-55972095D01*
X128545483Y-56103643D01*
X128511140Y-56156209D01*
X128509048Y-56160978D01*
X128509046Y-56160982D01*
X128422799Y-56357606D01*
X128422796Y-56357614D01*
X128420704Y-56362384D01*
X128419423Y-56367440D01*
X128419422Y-56367445D01*
X128366717Y-56575573D01*
X128365436Y-56580632D01*
X128365006Y-56585820D01*
X128365005Y-56585827D01*
X128362772Y-56612776D01*
X128346844Y-56805000D01*
X128347274Y-56810189D01*
X128357367Y-56932000D01*
X128365436Y-57029368D01*
X128420704Y-57247616D01*
X128422797Y-57252389D01*
X128422799Y-57252393D01*
X128455938Y-57327943D01*
X128511140Y-57453791D01*
X128634278Y-57642268D01*
X128637806Y-57646100D01*
X128783227Y-57804069D01*
X128783231Y-57804073D01*
X128786760Y-57807906D01*
X128964424Y-57946189D01*
X128969002Y-57948666D01*
X128969009Y-57948671D01*
X128997680Y-57964187D01*
X129045951Y-58010503D01*
X129063710Y-58075000D01*
X129045951Y-58139497D01*
X128997680Y-58185813D01*
X128969009Y-58201328D01*
X128968993Y-58201338D01*
X128964424Y-58203811D01*
X128960313Y-58207010D01*
X128960311Y-58207012D01*
X128790878Y-58338888D01*
X128790872Y-58338893D01*
X128786760Y-58342094D01*
X128783237Y-58345919D01*
X128783227Y-58345930D01*
X128637806Y-58503899D01*
X128637802Y-58503902D01*
X128634278Y-58507732D01*
X128631430Y-58512090D01*
X128631427Y-58512095D01*
X128513992Y-58691843D01*
X128511140Y-58696209D01*
X128509048Y-58700978D01*
X128509046Y-58700982D01*
X128422799Y-58897606D01*
X128422796Y-58897614D01*
X128420704Y-58902384D01*
X128419423Y-58907440D01*
X128419422Y-58907445D01*
X128376471Y-59077056D01*
X128365436Y-59120632D01*
X128365006Y-59125820D01*
X128365005Y-59125827D01*
X128347909Y-59332147D01*
X128346844Y-59345000D01*
X128365436Y-59569368D01*
X128420704Y-59787616D01*
X128422797Y-59792389D01*
X128422799Y-59792393D01*
X128439043Y-59829426D01*
X128511140Y-59993791D01*
X128634278Y-60182268D01*
X128637806Y-60186100D01*
X128783227Y-60344069D01*
X128783231Y-60344073D01*
X128786760Y-60347906D01*
X128964424Y-60486189D01*
X128969002Y-60488666D01*
X128969009Y-60488671D01*
X128997680Y-60504187D01*
X129045951Y-60550503D01*
X129063710Y-60615000D01*
X129045951Y-60679497D01*
X128997680Y-60725813D01*
X128969009Y-60741328D01*
X128968993Y-60741338D01*
X128964424Y-60743811D01*
X128960313Y-60747010D01*
X128960311Y-60747012D01*
X128790878Y-60878888D01*
X128790872Y-60878893D01*
X128786760Y-60882094D01*
X128783237Y-60885919D01*
X128783227Y-60885930D01*
X128637806Y-61043899D01*
X128637802Y-61043902D01*
X128634278Y-61047732D01*
X128631430Y-61052090D01*
X128631427Y-61052095D01*
X128513992Y-61231843D01*
X128511140Y-61236209D01*
X128509048Y-61240978D01*
X128509046Y-61240982D01*
X128422799Y-61437606D01*
X128422796Y-61437614D01*
X128420704Y-61442384D01*
X128419423Y-61447440D01*
X128419422Y-61447445D01*
X128377141Y-61614410D01*
X128365436Y-61660632D01*
X128365006Y-61665820D01*
X128365005Y-61665827D01*
X128361971Y-61702445D01*
X128346844Y-61885000D01*
X128347274Y-61890189D01*
X128357450Y-62013000D01*
X128365436Y-62109368D01*
X128420704Y-62327616D01*
X128422797Y-62332389D01*
X128422799Y-62332393D01*
X128439043Y-62369426D01*
X128511140Y-62533791D01*
X128634278Y-62722268D01*
X128637806Y-62726100D01*
X128783227Y-62884069D01*
X128783231Y-62884073D01*
X128786760Y-62887906D01*
X128964424Y-63026189D01*
X128969002Y-63028666D01*
X128969009Y-63028671D01*
X128997680Y-63044187D01*
X129045951Y-63090503D01*
X129063710Y-63155000D01*
X129045951Y-63219497D01*
X128997680Y-63265813D01*
X128969009Y-63281328D01*
X128968993Y-63281338D01*
X128964424Y-63283811D01*
X128960313Y-63287010D01*
X128960311Y-63287012D01*
X128790878Y-63418888D01*
X128790872Y-63418893D01*
X128786760Y-63422094D01*
X128783237Y-63425919D01*
X128783227Y-63425930D01*
X128637806Y-63583899D01*
X128637802Y-63583902D01*
X128634278Y-63587732D01*
X128631430Y-63592090D01*
X128631427Y-63592095D01*
X128513992Y-63771843D01*
X128511140Y-63776209D01*
X128509048Y-63780978D01*
X128509046Y-63780982D01*
X128422799Y-63977606D01*
X128422796Y-63977614D01*
X128420704Y-63982384D01*
X128365436Y-64200632D01*
X128365006Y-64205820D01*
X128365005Y-64205827D01*
X128347909Y-64412147D01*
X128346844Y-64425000D01*
X126100000Y-64425000D01*
X126100000Y-49976000D01*
X126116881Y-49913000D01*
X126163000Y-49866881D01*
X126226000Y-49850000D01*
X184974000Y-49850000D01*
X185037000Y-49866881D01*
G37*
%TD.AperFunction*%
%TD*%
M02*
