%TF.GenerationSoftware,KiCad,Pcbnew,(6.0.6)*%
%TF.CreationDate,2022-09-07T20:40:28-07:00*%
%TF.ProjectId,SWD_to_v4WF_Cable,5357445f-746f-45f7-9634-57465f436162,rev?*%
%TF.SameCoordinates,Original*%
%TF.FileFunction,Legend,Top*%
%TF.FilePolarity,Positive*%
%FSLAX46Y46*%
G04 Gerber Fmt 4.6, Leading zero omitted, Abs format (unit mm)*
G04 Created by KiCad (PCBNEW (6.0.6)) date 2022-09-07 20:40:28*
%MOMM*%
%LPD*%
G01*
G04 APERTURE LIST*
%ADD10C,0.150000*%
%ADD11C,0.120000*%
G04 APERTURE END LIST*
D10*
X134140000Y-67605000D02*
X146205000Y-67605000D01*
X170017500Y-50460000D02*
X170017500Y-67605000D01*
X140152657Y-52350000D02*
X140152657Y-66350000D01*
X181130000Y-52365000D02*
X181130000Y-66365000D01*
X146205000Y-50460000D02*
X134140000Y-50460000D01*
X182082500Y-50460000D02*
X170017500Y-50460000D01*
X134140000Y-50460000D02*
X134140000Y-67605000D01*
X170017500Y-67605000D02*
X182082500Y-67605000D01*
X182082500Y-67605000D02*
X182082500Y-50460000D01*
X146205000Y-67605000D02*
X146205000Y-50460000D01*
%TO.C,kibuzzard-630EA251*%
G36*
X142890698Y-58917406D02*
G01*
X142966501Y-58991225D01*
X142999133Y-59073069D01*
X143018712Y-59187369D01*
X143025238Y-59334125D01*
X143018800Y-59496226D01*
X142999485Y-59620581D01*
X142967295Y-59707188D01*
X142891690Y-59783388D01*
X142780763Y-59808788D01*
X142709326Y-59794500D01*
X142709326Y-58907088D01*
X142780763Y-58892800D01*
X142890698Y-58917406D01*
G37*
G36*
X140586309Y-58423958D02*
G01*
X143529005Y-58423958D01*
X143529005Y-60276042D01*
X140586309Y-60276042D01*
X140586309Y-59342063D01*
X140917038Y-59342063D01*
X140923239Y-59483449D01*
X140941843Y-59605984D01*
X140972849Y-59709668D01*
X141016257Y-59794500D01*
X141072068Y-59860480D01*
X141140280Y-59907609D01*
X141220896Y-59935887D01*
X141313913Y-59945313D01*
X141408810Y-59939139D01*
X141455929Y-59929438D01*
X141750476Y-59929438D01*
X141925101Y-59929438D01*
X141925101Y-59088063D01*
X141928276Y-59088063D01*
X142175926Y-59929438D01*
X142353726Y-59929438D01*
X142353726Y-59913563D01*
X142531526Y-59913563D01*
X142650985Y-59937375D01*
X142780763Y-59945313D01*
X142912526Y-59931620D01*
X143015713Y-59890544D01*
X143094096Y-59815733D01*
X143151445Y-59700838D01*
X143177462Y-59600119D01*
X143193072Y-59477882D01*
X143198276Y-59334125D01*
X143192174Y-59185743D01*
X143173868Y-59061273D01*
X143143358Y-58960715D01*
X143100645Y-58884069D01*
X143021710Y-58812190D01*
X142915083Y-58769063D01*
X142780763Y-58754687D01*
X142655748Y-58762625D01*
X142531526Y-58786437D01*
X142531526Y-59913563D01*
X142353726Y-59913563D01*
X142353726Y-58770563D01*
X142187038Y-58770563D01*
X142187038Y-59611938D01*
X142182276Y-59611938D01*
X141934626Y-58770563D01*
X141750476Y-58770563D01*
X141750476Y-59929438D01*
X141455929Y-59929438D01*
X141498769Y-59920618D01*
X141583788Y-59889750D01*
X141583788Y-59238875D01*
X141213901Y-59238875D01*
X141213901Y-59373813D01*
X141413926Y-59373813D01*
X141413926Y-59789738D01*
X141318676Y-59808788D01*
X141221838Y-59781800D01*
X141150401Y-59700838D01*
X141117769Y-59612996D01*
X141098190Y-59493404D01*
X141091663Y-59342063D01*
X141098542Y-59194160D01*
X141119180Y-59078538D01*
X141153576Y-58995194D01*
X141232554Y-58919589D01*
X141345663Y-58894388D01*
X141442898Y-58903913D01*
X141544101Y-58932488D01*
X141544101Y-58789613D01*
X141446866Y-58763419D01*
X141345663Y-58754687D01*
X141214694Y-58770386D01*
X141107538Y-58817482D01*
X141024194Y-58895975D01*
X140977314Y-58976838D01*
X140943827Y-59078141D01*
X140923736Y-59199882D01*
X140917038Y-59342063D01*
X140586309Y-59342063D01*
X140586309Y-58423958D01*
G37*
%TO.C,kibuzzard-630EA342*%
G36*
X140586309Y-55883958D02*
G01*
X142628893Y-55883958D01*
X142628893Y-57736042D01*
X140586309Y-57736042D01*
X140586309Y-57389438D01*
X140917038Y-57389438D01*
X141091664Y-57389438D01*
X141091664Y-56548063D01*
X141094839Y-56548063D01*
X141342488Y-57389438D01*
X141520289Y-57389438D01*
X141520289Y-56794125D01*
X141686976Y-56794125D01*
X141693252Y-56937372D01*
X141712078Y-57061520D01*
X141743456Y-57166567D01*
X141787385Y-57252516D01*
X141843866Y-57319364D01*
X141912897Y-57367113D01*
X141994480Y-57395763D01*
X142088614Y-57405313D01*
X142194579Y-57395391D01*
X142290226Y-57365625D01*
X142290226Y-57219575D01*
X142199739Y-57256484D01*
X142115601Y-57268788D01*
X142037990Y-57255602D01*
X141974490Y-57216047D01*
X141925101Y-57150122D01*
X141889823Y-57057826D01*
X141868657Y-56939161D01*
X141861601Y-56794125D01*
X141867995Y-56659761D01*
X141887177Y-56549826D01*
X141919148Y-56464322D01*
X141963907Y-56403247D01*
X142021453Y-56366602D01*
X142091789Y-56354388D01*
X142128301Y-56360738D01*
X142128301Y-56608388D01*
X142298164Y-56608388D01*
X142298164Y-56249613D01*
X142196960Y-56223419D01*
X142083851Y-56214687D01*
X141990833Y-56223741D01*
X141910218Y-56250902D01*
X141842005Y-56296171D01*
X141786195Y-56359547D01*
X141742787Y-56441030D01*
X141711781Y-56540621D01*
X141693177Y-56658319D01*
X141686976Y-56794125D01*
X141520289Y-56794125D01*
X141520289Y-56230563D01*
X141353601Y-56230563D01*
X141353601Y-57071938D01*
X141348839Y-57071938D01*
X141101189Y-56230563D01*
X140917038Y-56230563D01*
X140917038Y-57389438D01*
X140586309Y-57389438D01*
X140586309Y-55883958D01*
G37*
%TO.C,kibuzzard-630EA36E*%
G36*
X136679472Y-60963958D02*
G01*
X139606292Y-60963958D01*
X139606292Y-62816042D01*
X136679472Y-62816042D01*
X136679472Y-61874125D01*
X137010201Y-61874125D01*
X137016476Y-62017372D01*
X137035303Y-62141520D01*
X137066681Y-62246567D01*
X137110610Y-62332516D01*
X137167090Y-62399364D01*
X137236122Y-62447113D01*
X137317704Y-62475763D01*
X137411838Y-62485313D01*
X137517804Y-62475391D01*
X137536933Y-62469438D01*
X137883326Y-62469438D01*
X138431013Y-62469438D01*
X138624688Y-62469438D01*
X138802488Y-62469438D01*
X138802488Y-61913813D01*
X138805663Y-61913813D01*
X139083476Y-62469438D01*
X139275563Y-62469438D01*
X138964413Y-61863013D01*
X139267626Y-61310563D01*
X139077126Y-61310563D01*
X138805663Y-61818563D01*
X138802488Y-61818563D01*
X138802488Y-61310563D01*
X138624688Y-61310563D01*
X138624688Y-62469438D01*
X138431013Y-62469438D01*
X138431013Y-62331325D01*
X138061126Y-62331325D01*
X138061126Y-61310563D01*
X137883326Y-61310563D01*
X137883326Y-62469438D01*
X137536933Y-62469438D01*
X137613451Y-62445625D01*
X137613451Y-62299575D01*
X137522963Y-62336484D01*
X137438826Y-62348788D01*
X137361215Y-62335602D01*
X137297715Y-62296047D01*
X137248326Y-62230122D01*
X137213048Y-62137826D01*
X137191881Y-62019161D01*
X137184826Y-61874125D01*
X137191220Y-61739761D01*
X137210402Y-61629826D01*
X137242373Y-61544322D01*
X137287131Y-61483247D01*
X137344678Y-61446602D01*
X137415013Y-61434388D01*
X137451526Y-61440738D01*
X137451526Y-61688388D01*
X137621388Y-61688388D01*
X137621388Y-61329613D01*
X137520185Y-61303419D01*
X137407076Y-61294687D01*
X137314058Y-61303741D01*
X137233443Y-61330902D01*
X137165230Y-61376171D01*
X137109419Y-61439547D01*
X137066011Y-61521030D01*
X137035005Y-61620621D01*
X137016402Y-61738319D01*
X137010201Y-61874125D01*
X136679472Y-61874125D01*
X136679472Y-60963958D01*
G37*
%TO.C,kibuzzard-630EA342*%
G36*
X137563708Y-58423958D02*
G01*
X139606292Y-58423958D01*
X139606292Y-60276042D01*
X137563708Y-60276042D01*
X137563708Y-59929438D01*
X137894437Y-59929438D01*
X138069063Y-59929438D01*
X138069063Y-59088063D01*
X138072238Y-59088063D01*
X138319887Y-59929438D01*
X138497688Y-59929438D01*
X138497688Y-59334125D01*
X138664375Y-59334125D01*
X138670651Y-59477372D01*
X138689477Y-59601520D01*
X138720855Y-59706567D01*
X138764784Y-59792516D01*
X138821265Y-59859364D01*
X138890296Y-59907113D01*
X138971879Y-59935763D01*
X139066013Y-59945313D01*
X139171978Y-59935391D01*
X139267625Y-59905625D01*
X139267625Y-59759575D01*
X139177138Y-59796484D01*
X139093000Y-59808788D01*
X139015389Y-59795602D01*
X138951889Y-59756047D01*
X138902500Y-59690122D01*
X138867222Y-59597826D01*
X138846056Y-59479161D01*
X138839000Y-59334125D01*
X138845394Y-59199761D01*
X138864576Y-59089826D01*
X138896547Y-59004322D01*
X138941306Y-58943247D01*
X138998852Y-58906602D01*
X139069188Y-58894388D01*
X139105700Y-58900738D01*
X139105700Y-59148388D01*
X139275563Y-59148388D01*
X139275563Y-58789613D01*
X139174359Y-58763419D01*
X139061250Y-58754687D01*
X138968232Y-58763741D01*
X138887617Y-58790902D01*
X138819404Y-58836171D01*
X138763594Y-58899547D01*
X138720186Y-58981030D01*
X138689180Y-59080621D01*
X138670576Y-59198319D01*
X138664375Y-59334125D01*
X138497688Y-59334125D01*
X138497688Y-58770563D01*
X138331000Y-58770563D01*
X138331000Y-59611938D01*
X138326238Y-59611938D01*
X138078588Y-58770563D01*
X137894437Y-58770563D01*
X137894437Y-59929438D01*
X137563708Y-59929438D01*
X137563708Y-58423958D01*
G37*
%TO.C,kibuzzard-630EA6CF*%
G36*
X176873516Y-53825302D02*
G01*
X176933444Y-53862806D01*
X176969162Y-53927298D01*
X176981069Y-54020763D01*
X176968369Y-54118394D01*
X176930269Y-54182688D01*
X176862006Y-54218406D01*
X176758819Y-54230313D01*
X176696906Y-54230313D01*
X176696906Y-53825500D01*
X176788981Y-53812800D01*
X176873516Y-53825302D01*
G37*
G36*
X175399390Y-53343958D02*
G01*
X180656660Y-53343958D01*
X180656660Y-55196042D01*
X175399390Y-55196042D01*
X175399390Y-54849438D01*
X175730119Y-54849438D01*
X175904744Y-54849438D01*
X175904744Y-54173163D01*
X176012694Y-54138238D01*
X176130169Y-54169988D01*
X176161919Y-54285875D01*
X176161919Y-54849438D01*
X176333369Y-54849438D01*
X176519106Y-54849438D01*
X176696906Y-54849438D01*
X176696906Y-54368425D01*
X176758819Y-54368425D01*
X176854862Y-54399381D01*
X176885223Y-54444030D01*
X176911219Y-54516063D01*
X177003294Y-54849438D01*
X177185856Y-54849438D01*
X177344606Y-54849438D01*
X177900231Y-54849438D01*
X177900231Y-54711325D01*
X177522406Y-54711325D01*
X177522406Y-54293813D01*
X177884356Y-54293813D01*
X177884356Y-54158875D01*
X177522406Y-54158875D01*
X177522406Y-53976312D01*
X178111369Y-53976312D01*
X178127839Y-54089025D01*
X178177250Y-54182688D01*
X178231842Y-54237721D01*
X178307778Y-54290638D01*
X178405056Y-54341438D01*
X178473120Y-54382316D01*
X178518563Y-54428750D01*
X178544161Y-54485106D01*
X178552694Y-54555750D01*
X178541581Y-54629767D01*
X178508244Y-54683544D01*
X178455062Y-54716286D01*
X178384419Y-54727200D01*
X178291462Y-54715735D01*
X178203091Y-54681339D01*
X178119306Y-54624013D01*
X178119306Y-54789113D01*
X178200798Y-54831446D01*
X178290756Y-54856846D01*
X178389181Y-54865313D01*
X178512054Y-54852613D01*
X178520018Y-54849438D01*
X178932106Y-54849438D01*
X179487731Y-54849438D01*
X179487731Y-54711325D01*
X179109906Y-54711325D01*
X179109906Y-54293813D01*
X179471856Y-54293813D01*
X179471856Y-54158875D01*
X179109906Y-54158875D01*
X179109906Y-53828675D01*
X179487731Y-53828675D01*
X179675056Y-53828675D01*
X179911594Y-53828675D01*
X179911594Y-54849438D01*
X180089394Y-54849438D01*
X180089394Y-53828675D01*
X180325931Y-53828675D01*
X180325931Y-53690563D01*
X179675056Y-53690563D01*
X179675056Y-53828675D01*
X179487731Y-53828675D01*
X179487731Y-53690563D01*
X178932106Y-53690563D01*
X178932106Y-54849438D01*
X178520018Y-54849438D01*
X178607621Y-54814513D01*
X178675884Y-54751013D01*
X178716841Y-54662113D01*
X178730494Y-54547812D01*
X178713428Y-54425178D01*
X178662231Y-54327150D01*
X178604199Y-54270529D01*
X178521120Y-54214967D01*
X178412994Y-54160463D01*
X178342438Y-54113014D01*
X178300105Y-54048985D01*
X178285994Y-53968375D01*
X178297106Y-53903288D01*
X178330444Y-53854075D01*
X178383228Y-53823119D01*
X178452681Y-53812800D01*
X178576109Y-53829866D01*
X178698744Y-53881063D01*
X178698744Y-53722313D01*
X178613372Y-53695854D01*
X178524472Y-53679979D01*
X178432044Y-53674687D01*
X178337235Y-53683507D01*
X178258124Y-53709965D01*
X178194713Y-53754063D01*
X178132205Y-53849312D01*
X178111369Y-53976312D01*
X177522406Y-53976312D01*
X177522406Y-53828675D01*
X177900231Y-53828675D01*
X177900231Y-53690563D01*
X177344606Y-53690563D01*
X177344606Y-54849438D01*
X177185856Y-54849438D01*
X177087431Y-54525588D01*
X177036631Y-54400969D01*
X176976306Y-54322388D01*
X176976306Y-54319213D01*
X177054094Y-54273770D01*
X177109656Y-54208881D01*
X177142994Y-54124545D01*
X177154106Y-54020763D01*
X177144317Y-53911842D01*
X177114948Y-53824265D01*
X177066000Y-53758031D01*
X176996062Y-53711729D01*
X176903722Y-53683948D01*
X176788981Y-53674687D01*
X176697612Y-53678215D01*
X176607653Y-53688799D01*
X176519106Y-53706437D01*
X176519106Y-54849438D01*
X176333369Y-54849438D01*
X176333369Y-54293813D01*
X176316898Y-54152922D01*
X176267487Y-54066800D01*
X176209367Y-54034168D01*
X176122849Y-54014589D01*
X176007931Y-54008063D01*
X175905802Y-54015471D01*
X175813198Y-54037696D01*
X175730119Y-54074738D01*
X175730119Y-54849438D01*
X175399390Y-54849438D01*
X175399390Y-53343958D01*
G37*
%TO.C,kibuzzard-630EA6B9*%
G36*
X175469712Y-51226706D02*
G01*
X175517536Y-51273735D01*
X175544325Y-51364024D01*
X175553254Y-51509479D01*
X175544325Y-51654934D01*
X175517536Y-51745223D01*
X175469712Y-51792252D01*
X175397679Y-51807929D01*
X175325646Y-51792252D01*
X175277823Y-51745223D01*
X175251034Y-51654934D01*
X175242104Y-51509479D01*
X175251034Y-51364024D01*
X175277823Y-51273735D01*
X175325646Y-51226706D01*
X175397679Y-51211029D01*
X175469712Y-51226706D01*
G37*
G36*
X176245206Y-51227896D02*
G01*
X176296998Y-51278498D01*
X176327359Y-51369977D01*
X176337479Y-51509479D01*
X176328053Y-51640745D01*
X176299776Y-51734507D01*
X176252647Y-51790764D01*
X176186667Y-51809517D01*
X176067604Y-51773004D01*
X176067604Y-51228491D01*
X176170792Y-51211029D01*
X176245206Y-51227896D01*
G37*
G36*
X177091542Y-51261035D02*
G01*
X177116942Y-51334656D01*
X177126467Y-51445979D01*
X176843892Y-51445979D01*
X176857386Y-51331679D01*
X176885167Y-51258654D01*
X176929220Y-51219363D01*
X176991529Y-51206267D01*
X177091542Y-51261035D01*
G37*
G36*
X169942500Y-50385000D02*
G01*
X177628646Y-50385000D01*
X177628646Y-52602208D01*
X169942500Y-52602208D01*
X169942500Y-52271479D01*
X175892979Y-52271479D01*
X176067604Y-52271479D01*
X176067604Y-51906354D01*
X176135073Y-51930166D01*
X176207304Y-51938104D01*
X176300438Y-51926198D01*
X176376638Y-51890479D01*
X176435904Y-51830948D01*
X176478238Y-51747604D01*
X176503638Y-51640448D01*
X176512104Y-51509479D01*
X176662917Y-51509479D01*
X176673059Y-51640448D01*
X176703486Y-51747604D01*
X176754198Y-51830948D01*
X176825195Y-51890479D01*
X176916476Y-51926198D01*
X177028042Y-51938104D01*
X177138770Y-51928182D01*
X177255054Y-51898417D01*
X177255054Y-51766654D01*
X177146311Y-51798801D01*
X177048679Y-51809517D01*
X176963550Y-51795824D01*
X176901836Y-51754748D01*
X176862346Y-51681127D01*
X176843892Y-51569804D01*
X177294742Y-51569804D01*
X177297917Y-51506304D01*
X177289626Y-51370749D01*
X177264756Y-51262535D01*
X177223304Y-51181660D01*
X177164920Y-51125657D01*
X177089249Y-51092055D01*
X176996292Y-51080854D01*
X176894427Y-51092760D01*
X176811083Y-51128479D01*
X176746261Y-51188010D01*
X176699958Y-51271354D01*
X176672177Y-51378510D01*
X176662917Y-51509479D01*
X176512104Y-51509479D01*
X176502844Y-51370573D01*
X176475063Y-51260771D01*
X176428761Y-51180073D01*
X176362174Y-51124951D01*
X176273538Y-51091878D01*
X176162854Y-51080854D01*
X176067957Y-51086498D01*
X175977999Y-51103432D01*
X175892979Y-51131654D01*
X175892979Y-52271479D01*
X169942500Y-52271479D01*
X169942500Y-51922229D01*
X170273229Y-51922229D01*
X170428804Y-51922229D01*
X170455792Y-50937979D01*
X170460554Y-50937979D01*
X170551042Y-51652354D01*
X170701854Y-51652354D01*
X170800279Y-50937979D01*
X170801867Y-50937979D01*
X170825679Y-51922229D01*
X170995542Y-51922229D01*
X170953701Y-51096729D01*
X171182867Y-51096729D01*
X171182867Y-51225317D01*
X171394004Y-51225317D01*
X171394004Y-51922229D01*
X171571804Y-51922229D01*
X171921054Y-51922229D01*
X172095679Y-51922229D01*
X172095679Y-51245954D01*
X172203629Y-51211029D01*
X172321104Y-51242779D01*
X172352854Y-51358667D01*
X172352854Y-51922229D01*
X172524304Y-51922229D01*
X172524304Y-51366604D01*
X172507834Y-51225713D01*
X172458423Y-51139591D01*
X172400303Y-51106960D01*
X172355095Y-51096729D01*
X172770367Y-51096729D01*
X172770367Y-51225317D01*
X172981504Y-51225317D01*
X172981504Y-51922229D01*
X173159304Y-51922229D01*
X173159304Y-51311041D01*
X173519667Y-51311041D01*
X173535542Y-51402521D01*
X173583167Y-51473760D01*
X173668495Y-51529124D01*
X173797479Y-51572979D01*
X173902254Y-51620604D01*
X173930829Y-51699979D01*
X173894317Y-51783323D01*
X173773667Y-51809517D01*
X173654207Y-51794038D01*
X173527604Y-51747604D01*
X173527604Y-51887304D01*
X173612271Y-51915526D01*
X173703288Y-51932460D01*
X173800654Y-51938104D01*
X173930234Y-51922626D01*
X174026873Y-51876191D01*
X174087000Y-51801182D01*
X174107042Y-51699979D01*
X174091762Y-51598379D01*
X174045923Y-51525354D01*
X174020068Y-51509479D01*
X174297542Y-51509479D01*
X174308478Y-51639654D01*
X174341286Y-51746546D01*
X174395967Y-51830154D01*
X174470579Y-51890126D01*
X174563183Y-51926110D01*
X174673779Y-51938104D01*
X174773395Y-51928182D01*
X174869042Y-51898417D01*
X174869042Y-51768242D01*
X174780142Y-51802770D01*
X174694417Y-51814279D01*
X174603532Y-51795229D01*
X174534079Y-51738079D01*
X174490026Y-51642829D01*
X174475342Y-51509479D01*
X175064304Y-51509479D01*
X175073476Y-51646004D01*
X175100993Y-51755012D01*
X175146854Y-51836504D01*
X175211413Y-51892948D01*
X175295021Y-51926815D01*
X175397679Y-51938104D01*
X175500338Y-51926815D01*
X175583946Y-51892948D01*
X175648504Y-51836504D01*
X175694365Y-51755012D01*
X175721882Y-51646004D01*
X175731054Y-51509479D01*
X175721882Y-51372954D01*
X175694365Y-51263946D01*
X175648504Y-51182454D01*
X175583946Y-51126010D01*
X175500338Y-51092143D01*
X175397679Y-51080854D01*
X175295021Y-51092143D01*
X175211413Y-51126010D01*
X175146854Y-51182454D01*
X175100993Y-51263946D01*
X175073476Y-51372954D01*
X175064304Y-51509479D01*
X174475342Y-51509479D01*
X174488042Y-51379899D01*
X174526142Y-51286435D01*
X174586864Y-51229881D01*
X174667429Y-51211029D01*
X174710292Y-51215792D01*
X174710292Y-51398354D01*
X174876979Y-51398354D01*
X174876979Y-51112604D01*
X174779348Y-51088791D01*
X174670604Y-51080854D01*
X174571628Y-51089601D01*
X174487880Y-51115844D01*
X174419358Y-51159581D01*
X174366063Y-51220813D01*
X174327996Y-51299540D01*
X174305155Y-51395762D01*
X174297542Y-51509479D01*
X174020068Y-51509479D01*
X173958015Y-51471379D01*
X173816529Y-51426929D01*
X173722073Y-51382479D01*
X173694292Y-51311041D01*
X173728820Y-51233651D01*
X173832404Y-51207854D01*
X173953054Y-51217776D01*
X174080054Y-51247541D01*
X174080054Y-51115779D01*
X173997151Y-51096376D01*
X173909310Y-51084735D01*
X173816529Y-51080854D01*
X173687148Y-51095737D01*
X173594279Y-51140385D01*
X173538320Y-51212815D01*
X173519667Y-51311041D01*
X173159304Y-51311041D01*
X173159304Y-51096729D01*
X172770367Y-51096729D01*
X172355095Y-51096729D01*
X172313784Y-51087380D01*
X172198867Y-51080854D01*
X172096738Y-51088262D01*
X172004133Y-51110487D01*
X171921054Y-51147529D01*
X171921054Y-51922229D01*
X171571804Y-51922229D01*
X171571804Y-51096729D01*
X171182867Y-51096729D01*
X170953701Y-51096729D01*
X170944448Y-50914167D01*
X171362254Y-50914167D01*
X171571804Y-50914167D01*
X172949754Y-50914167D01*
X173159304Y-50914167D01*
X173159304Y-50715729D01*
X172949754Y-50715729D01*
X172949754Y-50914167D01*
X171571804Y-50914167D01*
X171571804Y-50715729D01*
X171362254Y-50715729D01*
X171362254Y-50914167D01*
X170944448Y-50914167D01*
X170936804Y-50763354D01*
X170736779Y-50763354D01*
X170641529Y-51501542D01*
X170638354Y-51501542D01*
X170541517Y-50763354D01*
X170333554Y-50763354D01*
X170273229Y-51922229D01*
X169942500Y-51922229D01*
X169942500Y-50385000D01*
G37*
%TO.C,kibuzzard-630EA251*%
G36*
X140586309Y-53343958D02*
G01*
X143529005Y-53343958D01*
X143529005Y-55196042D01*
X140586309Y-55196042D01*
X140586309Y-54262063D01*
X140917038Y-54262063D01*
X140923239Y-54403449D01*
X140941843Y-54525984D01*
X140972849Y-54629668D01*
X141016257Y-54714500D01*
X141072068Y-54780480D01*
X141140280Y-54827609D01*
X141220896Y-54855887D01*
X141313913Y-54865313D01*
X141408810Y-54859139D01*
X141455929Y-54849438D01*
X141750476Y-54849438D01*
X141925101Y-54849438D01*
X141925101Y-54008063D01*
X141928276Y-54008063D01*
X142175926Y-54849438D01*
X142353726Y-54849438D01*
X142353726Y-54833563D01*
X142531526Y-54833563D01*
X142650985Y-54857375D01*
X142780763Y-54865313D01*
X142912526Y-54851620D01*
X143015713Y-54810544D01*
X143094096Y-54735733D01*
X143151445Y-54620838D01*
X143177462Y-54520119D01*
X143193072Y-54397882D01*
X143198276Y-54254125D01*
X143192174Y-54105743D01*
X143173868Y-53981273D01*
X143143358Y-53880715D01*
X143100645Y-53804069D01*
X143021710Y-53732190D01*
X142915083Y-53689063D01*
X142780763Y-53674687D01*
X142655748Y-53682625D01*
X142531526Y-53706437D01*
X142531526Y-54833563D01*
X142353726Y-54833563D01*
X142353726Y-53690563D01*
X142187038Y-53690563D01*
X142187038Y-54531938D01*
X142182276Y-54531938D01*
X141934626Y-53690563D01*
X141750476Y-53690563D01*
X141750476Y-54849438D01*
X141455929Y-54849438D01*
X141498769Y-54840618D01*
X141583788Y-54809750D01*
X141583788Y-54158875D01*
X141213901Y-54158875D01*
X141213901Y-54293813D01*
X141413926Y-54293813D01*
X141413926Y-54709738D01*
X141318676Y-54728788D01*
X141221838Y-54701800D01*
X141150401Y-54620838D01*
X141117769Y-54532996D01*
X141098190Y-54413404D01*
X141091663Y-54262063D01*
X141098542Y-54114160D01*
X141119180Y-53998538D01*
X141153576Y-53915194D01*
X141232554Y-53839589D01*
X141345663Y-53814388D01*
X141442898Y-53823913D01*
X141544101Y-53852488D01*
X141544101Y-53709613D01*
X141446866Y-53683419D01*
X141345663Y-53674687D01*
X141214694Y-53690386D01*
X141107538Y-53737482D01*
X141024194Y-53815975D01*
X140977314Y-53896838D01*
X140943827Y-53998141D01*
X140923736Y-54119882D01*
X140917038Y-54262063D01*
X140586309Y-54262063D01*
X140586309Y-53343958D01*
G37*
G36*
X142890698Y-53837406D02*
G01*
X142966501Y-53911225D01*
X142999133Y-53993069D01*
X143018712Y-54107369D01*
X143025238Y-54254125D01*
X143018800Y-54416226D01*
X142999485Y-54540581D01*
X142967295Y-54627188D01*
X142891690Y-54703388D01*
X142780763Y-54728788D01*
X142709326Y-54714500D01*
X142709326Y-53827088D01*
X142780763Y-53812800D01*
X142890698Y-53837406D01*
G37*
%TO.C,kibuzzard-630EA39E*%
G36*
X145641693Y-50878448D02*
G01*
X145717496Y-50952267D01*
X145750128Y-51034111D01*
X145769707Y-51148411D01*
X145776234Y-51295167D01*
X145769795Y-51457268D01*
X145750481Y-51581623D01*
X145718290Y-51668230D01*
X145642685Y-51744430D01*
X145531758Y-51769830D01*
X145460321Y-51755542D01*
X145460321Y-50868130D01*
X145531758Y-50853842D01*
X145641693Y-50878448D01*
G37*
G36*
X143376992Y-50385000D02*
G01*
X146280000Y-50385000D01*
X146280000Y-52237084D01*
X143376992Y-52237084D01*
X143376992Y-51017354D01*
X143707721Y-51017354D01*
X143724191Y-51130067D01*
X143773602Y-51223730D01*
X143828195Y-51278763D01*
X143904130Y-51331680D01*
X144001408Y-51382480D01*
X144069473Y-51423358D01*
X144114915Y-51469792D01*
X144140513Y-51526148D01*
X144149046Y-51596792D01*
X144137933Y-51670809D01*
X144104596Y-51724586D01*
X144051415Y-51757328D01*
X143980771Y-51768242D01*
X143887814Y-51756777D01*
X143799443Y-51722381D01*
X143715658Y-51665055D01*
X143715658Y-51830155D01*
X143797150Y-51872488D01*
X143887108Y-51897888D01*
X143985533Y-51906355D01*
X144108406Y-51893655D01*
X144203973Y-51855555D01*
X144272236Y-51792055D01*
X144313193Y-51703155D01*
X144326846Y-51588854D01*
X144309780Y-51466220D01*
X144258583Y-51368192D01*
X144200552Y-51311571D01*
X144117472Y-51256009D01*
X144009346Y-51201505D01*
X143938790Y-51154056D01*
X143896457Y-51090027D01*
X143882346Y-51009417D01*
X143893458Y-50944330D01*
X143926796Y-50895117D01*
X143979580Y-50864161D01*
X144049033Y-50853842D01*
X144172462Y-50870908D01*
X144295096Y-50922105D01*
X144295096Y-50763355D01*
X144209724Y-50736896D01*
X144180094Y-50731605D01*
X144422096Y-50731605D01*
X144525283Y-51890480D01*
X144696733Y-51890480D01*
X144790396Y-51112605D01*
X144795158Y-51112605D01*
X144874533Y-51890480D01*
X145080908Y-51890480D01*
X145082322Y-51874605D01*
X145282521Y-51874605D01*
X145401980Y-51898417D01*
X145531758Y-51906355D01*
X145663521Y-51892662D01*
X145766708Y-51851586D01*
X145845091Y-51776775D01*
X145902440Y-51661880D01*
X145928457Y-51561161D01*
X145944068Y-51438924D01*
X145949271Y-51295167D01*
X145943169Y-51146785D01*
X145924863Y-51022315D01*
X145894353Y-50921757D01*
X145851640Y-50845111D01*
X145772706Y-50773232D01*
X145666079Y-50730105D01*
X145531758Y-50715729D01*
X145406743Y-50723667D01*
X145282521Y-50747479D01*
X145282521Y-51874605D01*
X145082322Y-51874605D01*
X145184096Y-50731605D01*
X145025346Y-50731605D01*
X144966608Y-51723792D01*
X144963433Y-51723792D01*
X144879296Y-50922105D01*
X144738008Y-50922105D01*
X144650696Y-51612667D01*
X144647521Y-51612667D01*
X144591958Y-50731605D01*
X144422096Y-50731605D01*
X144180094Y-50731605D01*
X144120824Y-50721021D01*
X144028396Y-50715729D01*
X143933587Y-50724549D01*
X143854477Y-50751007D01*
X143791065Y-50795105D01*
X143728557Y-50890354D01*
X143707721Y-51017354D01*
X143376992Y-51017354D01*
X143376992Y-50385000D01*
G37*
%TO.C,kibuzzard-630EA6DD*%
G36*
X180018353Y-56377406D02*
G01*
X180094156Y-56451225D01*
X180126788Y-56533069D01*
X180146367Y-56647369D01*
X180152893Y-56794125D01*
X180146455Y-56956226D01*
X180127140Y-57080581D01*
X180094950Y-57167188D01*
X180019345Y-57243388D01*
X179908418Y-57268788D01*
X179836981Y-57254500D01*
X179836981Y-56367088D01*
X179908418Y-56352800D01*
X180018353Y-56377406D01*
G37*
G36*
X177713964Y-55883958D02*
G01*
X180656660Y-55883958D01*
X180656660Y-57736042D01*
X177713964Y-57736042D01*
X177713964Y-56802063D01*
X178044693Y-56802063D01*
X178050894Y-56943449D01*
X178069498Y-57065984D01*
X178100504Y-57169668D01*
X178143912Y-57254500D01*
X178199723Y-57320480D01*
X178267935Y-57367609D01*
X178348551Y-57395887D01*
X178441568Y-57405313D01*
X178536465Y-57399139D01*
X178583584Y-57389438D01*
X178878131Y-57389438D01*
X179052756Y-57389438D01*
X179052756Y-56548063D01*
X179055931Y-56548063D01*
X179303581Y-57389438D01*
X179481381Y-57389438D01*
X179481381Y-57373563D01*
X179659181Y-57373563D01*
X179778640Y-57397375D01*
X179908418Y-57405313D01*
X180040181Y-57391620D01*
X180143368Y-57350544D01*
X180221751Y-57275733D01*
X180279100Y-57160838D01*
X180305117Y-57060119D01*
X180320727Y-56937882D01*
X180325931Y-56794125D01*
X180319829Y-56645743D01*
X180301523Y-56521273D01*
X180271013Y-56420715D01*
X180228300Y-56344069D01*
X180149365Y-56272190D01*
X180042738Y-56229063D01*
X179908418Y-56214687D01*
X179783403Y-56222625D01*
X179659181Y-56246437D01*
X179659181Y-57373563D01*
X179481381Y-57373563D01*
X179481381Y-56230563D01*
X179314693Y-56230563D01*
X179314693Y-57071938D01*
X179309931Y-57071938D01*
X179062281Y-56230563D01*
X178878131Y-56230563D01*
X178878131Y-57389438D01*
X178583584Y-57389438D01*
X178626424Y-57380618D01*
X178711443Y-57349750D01*
X178711443Y-56698875D01*
X178341556Y-56698875D01*
X178341556Y-56833813D01*
X178541581Y-56833813D01*
X178541581Y-57249738D01*
X178446331Y-57268788D01*
X178349493Y-57241800D01*
X178278056Y-57160838D01*
X178245424Y-57072996D01*
X178225845Y-56953404D01*
X178219318Y-56802063D01*
X178226197Y-56654160D01*
X178246835Y-56538538D01*
X178281231Y-56455194D01*
X178360209Y-56379589D01*
X178473318Y-56354388D01*
X178570553Y-56363913D01*
X178671756Y-56392488D01*
X178671756Y-56249613D01*
X178574521Y-56223419D01*
X178473318Y-56214687D01*
X178342349Y-56230386D01*
X178235193Y-56277482D01*
X178151849Y-56355975D01*
X178104969Y-56436838D01*
X178071482Y-56538141D01*
X178051391Y-56659882D01*
X178044693Y-56802063D01*
X177713964Y-56802063D01*
X177713964Y-55883958D01*
G37*
%TO.C,kibuzzard-630EA2F1*%
G36*
X134349022Y-53343958D02*
G01*
X139606292Y-53343958D01*
X139606292Y-55196042D01*
X134349022Y-55196042D01*
X134349022Y-54849438D01*
X134679751Y-54849438D01*
X134854376Y-54849438D01*
X134854376Y-54173163D01*
X134962326Y-54138238D01*
X135079801Y-54169988D01*
X135111551Y-54285875D01*
X135111551Y-54849438D01*
X135283001Y-54849438D01*
X135468738Y-54849438D01*
X135646538Y-54849438D01*
X135646538Y-54368425D01*
X135708451Y-54368425D01*
X135804494Y-54399381D01*
X135834855Y-54444030D01*
X135860851Y-54516063D01*
X135952926Y-54849438D01*
X136135488Y-54849438D01*
X136294238Y-54849438D01*
X136849863Y-54849438D01*
X136849863Y-54711325D01*
X136472038Y-54711325D01*
X136472038Y-54293813D01*
X136833988Y-54293813D01*
X136833988Y-54158875D01*
X136472038Y-54158875D01*
X136472038Y-53976312D01*
X137061001Y-53976312D01*
X137077471Y-54089025D01*
X137126882Y-54182688D01*
X137181474Y-54237721D01*
X137257410Y-54290638D01*
X137354688Y-54341438D01*
X137422752Y-54382316D01*
X137468195Y-54428750D01*
X137493793Y-54485106D01*
X137502326Y-54555750D01*
X137491213Y-54629767D01*
X137457876Y-54683544D01*
X137404694Y-54716286D01*
X137334051Y-54727200D01*
X137241094Y-54715735D01*
X137152723Y-54681339D01*
X137068938Y-54624013D01*
X137068938Y-54789113D01*
X137150430Y-54831446D01*
X137240388Y-54856846D01*
X137338813Y-54865313D01*
X137461686Y-54852613D01*
X137469650Y-54849438D01*
X137881738Y-54849438D01*
X138437363Y-54849438D01*
X138437363Y-54711325D01*
X138059538Y-54711325D01*
X138059538Y-54293813D01*
X138421488Y-54293813D01*
X138421488Y-54158875D01*
X138059538Y-54158875D01*
X138059538Y-53828675D01*
X138437363Y-53828675D01*
X138624688Y-53828675D01*
X138861226Y-53828675D01*
X138861226Y-54849438D01*
X139039026Y-54849438D01*
X139039026Y-53828675D01*
X139275563Y-53828675D01*
X139275563Y-53690563D01*
X138624688Y-53690563D01*
X138624688Y-53828675D01*
X138437363Y-53828675D01*
X138437363Y-53690563D01*
X137881738Y-53690563D01*
X137881738Y-54849438D01*
X137469650Y-54849438D01*
X137557253Y-54814513D01*
X137625516Y-54751013D01*
X137666473Y-54662113D01*
X137680126Y-54547812D01*
X137663060Y-54425178D01*
X137611863Y-54327150D01*
X137553831Y-54270529D01*
X137470752Y-54214967D01*
X137362626Y-54160463D01*
X137292070Y-54113014D01*
X137249737Y-54048985D01*
X137235626Y-53968375D01*
X137246738Y-53903288D01*
X137280076Y-53854075D01*
X137332860Y-53823119D01*
X137402313Y-53812800D01*
X137525741Y-53829866D01*
X137648376Y-53881063D01*
X137648376Y-53722313D01*
X137563004Y-53695854D01*
X137474104Y-53679979D01*
X137381676Y-53674687D01*
X137286867Y-53683507D01*
X137207756Y-53709965D01*
X137144345Y-53754063D01*
X137081837Y-53849312D01*
X137061001Y-53976312D01*
X136472038Y-53976312D01*
X136472038Y-53828675D01*
X136849863Y-53828675D01*
X136849863Y-53690563D01*
X136294238Y-53690563D01*
X136294238Y-54849438D01*
X136135488Y-54849438D01*
X136037063Y-54525588D01*
X135986263Y-54400969D01*
X135925938Y-54322388D01*
X135925938Y-54319213D01*
X136003726Y-54273770D01*
X136059288Y-54208881D01*
X136092626Y-54124545D01*
X136103738Y-54020763D01*
X136093949Y-53911842D01*
X136064580Y-53824265D01*
X136015632Y-53758031D01*
X135945694Y-53711729D01*
X135853354Y-53683948D01*
X135738613Y-53674687D01*
X135647244Y-53678215D01*
X135557285Y-53688799D01*
X135468738Y-53706437D01*
X135468738Y-54849438D01*
X135283001Y-54849438D01*
X135283001Y-54293813D01*
X135266530Y-54152922D01*
X135217119Y-54066800D01*
X135158999Y-54034168D01*
X135072481Y-54014589D01*
X134957563Y-54008063D01*
X134855434Y-54015471D01*
X134762830Y-54037696D01*
X134679751Y-54074738D01*
X134679751Y-54849438D01*
X134349022Y-54849438D01*
X134349022Y-53343958D01*
G37*
G36*
X135823148Y-53825302D02*
G01*
X135883076Y-53862806D01*
X135918794Y-53927298D01*
X135930701Y-54020763D01*
X135918001Y-54118394D01*
X135879901Y-54182688D01*
X135811638Y-54218406D01*
X135708451Y-54230313D01*
X135646538Y-54230313D01*
X135646538Y-53825500D01*
X135738613Y-53812800D01*
X135823148Y-53825302D01*
G37*
%TO.C,kibuzzard-630EA721*%
G36*
X180058834Y-61457208D02*
G01*
X180114793Y-61530431D01*
X180138605Y-61613775D01*
X180152893Y-61733631D01*
X180157656Y-61890000D01*
X180152893Y-62046369D01*
X180138605Y-62166225D01*
X180114793Y-62249569D01*
X180058834Y-62322792D01*
X179976680Y-62347200D01*
X179894527Y-62322792D01*
X179838568Y-62249569D01*
X179814755Y-62166225D01*
X179800468Y-62046369D01*
X179795705Y-61890000D01*
X179800468Y-61733631D01*
X179814755Y-61613775D01*
X179838568Y-61530431D01*
X179894527Y-61457208D01*
X179976680Y-61432800D01*
X180058834Y-61457208D01*
G37*
G36*
X178434027Y-61457406D02*
G01*
X178509830Y-61531225D01*
X178542462Y-61613069D01*
X178562042Y-61727369D01*
X178568568Y-61874125D01*
X178562130Y-62036226D01*
X178542815Y-62160581D01*
X178510624Y-62247188D01*
X178435020Y-62323388D01*
X178324093Y-62348788D01*
X178252655Y-62334500D01*
X178252655Y-61447088D01*
X178324093Y-61432800D01*
X178434027Y-61457406D01*
G37*
G36*
X177744126Y-60963958D02*
G01*
X180656660Y-60963958D01*
X180656660Y-62816042D01*
X177744126Y-62816042D01*
X177744126Y-62453563D01*
X178074855Y-62453563D01*
X178194315Y-62477375D01*
X178324093Y-62485313D01*
X178455855Y-62471620D01*
X178461336Y-62469438D01*
X178913055Y-62469438D01*
X179452805Y-62469438D01*
X179452805Y-62331325D01*
X179275005Y-62331325D01*
X179275005Y-61890000D01*
X179627430Y-61890000D01*
X179631752Y-62028994D01*
X179644717Y-62147528D01*
X179666324Y-62245600D01*
X179714148Y-62357916D01*
X179779830Y-62431338D01*
X179866349Y-62471819D01*
X179976680Y-62485313D01*
X180087012Y-62471819D01*
X180173530Y-62431338D01*
X180239213Y-62357916D01*
X180287037Y-62245600D01*
X180308644Y-62147528D01*
X180321609Y-62028994D01*
X180325930Y-61890000D01*
X180321609Y-61751006D01*
X180308644Y-61632472D01*
X180287037Y-61534400D01*
X180239213Y-61422084D01*
X180173530Y-61348663D01*
X180087012Y-61308181D01*
X179976680Y-61294687D01*
X179866349Y-61308181D01*
X179779830Y-61348663D01*
X179714148Y-61422084D01*
X179666324Y-61534400D01*
X179644717Y-61632472D01*
X179631752Y-61751006D01*
X179627430Y-61890000D01*
X179275005Y-61890000D01*
X179275005Y-61448675D01*
X179452805Y-61448675D01*
X179452805Y-61310563D01*
X178913055Y-61310563D01*
X178913055Y-61448675D01*
X179090855Y-61448675D01*
X179090855Y-62331325D01*
X178913055Y-62331325D01*
X178913055Y-62469438D01*
X178461336Y-62469438D01*
X178559043Y-62430544D01*
X178637426Y-62355733D01*
X178694774Y-62240838D01*
X178720792Y-62140119D01*
X178736402Y-62017882D01*
X178741605Y-61874125D01*
X178735504Y-61725743D01*
X178717198Y-61601273D01*
X178686688Y-61500715D01*
X178643974Y-61424069D01*
X178565040Y-61352190D01*
X178458413Y-61309063D01*
X178324093Y-61294687D01*
X178199077Y-61302625D01*
X178074855Y-61326437D01*
X178074855Y-62453563D01*
X177744126Y-62453563D01*
X177744126Y-60963958D01*
G37*
%TO.C,kibuzzard-630EA733*%
G36*
X177729840Y-63503958D02*
G01*
X180656660Y-63503958D01*
X180656660Y-65356042D01*
X177729840Y-65356042D01*
X177729840Y-64414125D01*
X178060569Y-64414125D01*
X178066844Y-64557372D01*
X178085671Y-64681520D01*
X178117049Y-64786567D01*
X178160978Y-64872516D01*
X178217458Y-64939364D01*
X178286490Y-64987113D01*
X178368072Y-65015763D01*
X178462206Y-65025313D01*
X178568172Y-65015391D01*
X178587301Y-65009438D01*
X178933694Y-65009438D01*
X179481381Y-65009438D01*
X179675056Y-65009438D01*
X179852856Y-65009438D01*
X179852856Y-64453813D01*
X179856031Y-64453813D01*
X180133844Y-65009438D01*
X180325931Y-65009438D01*
X180014781Y-64403013D01*
X180317994Y-63850563D01*
X180127494Y-63850563D01*
X179856031Y-64358563D01*
X179852856Y-64358563D01*
X179852856Y-63850563D01*
X179675056Y-63850563D01*
X179675056Y-65009438D01*
X179481381Y-65009438D01*
X179481381Y-64871325D01*
X179111494Y-64871325D01*
X179111494Y-63850563D01*
X178933694Y-63850563D01*
X178933694Y-65009438D01*
X178587301Y-65009438D01*
X178663819Y-64985625D01*
X178663819Y-64839575D01*
X178573331Y-64876484D01*
X178489194Y-64888788D01*
X178411583Y-64875602D01*
X178348083Y-64836047D01*
X178298694Y-64770122D01*
X178263416Y-64677826D01*
X178242249Y-64559161D01*
X178235194Y-64414125D01*
X178241588Y-64279761D01*
X178260770Y-64169826D01*
X178292741Y-64084322D01*
X178337499Y-64023247D01*
X178395046Y-63986602D01*
X178465381Y-63974388D01*
X178501894Y-63980738D01*
X178501894Y-64228388D01*
X178671756Y-64228388D01*
X178671756Y-63869613D01*
X178570553Y-63843419D01*
X178457444Y-63834687D01*
X178364426Y-63843741D01*
X178283811Y-63870902D01*
X178215598Y-63916171D01*
X178159787Y-63979547D01*
X178116379Y-64061030D01*
X178085373Y-64160621D01*
X178066770Y-64278319D01*
X178060569Y-64414125D01*
X177729840Y-64414125D01*
X177729840Y-63503958D01*
G37*
%TO.C,kibuzzard-630EA6F1*%
G36*
X177793340Y-58423958D02*
G01*
X180656660Y-58423958D01*
X180656660Y-60276042D01*
X177793340Y-60276042D01*
X177793340Y-59088063D01*
X178124069Y-59088063D01*
X178397119Y-58935663D01*
X178400294Y-58937250D01*
X178400294Y-59929438D01*
X178578094Y-59929438D01*
X178578094Y-58770563D01*
X178836856Y-58770563D01*
X179094031Y-59929438D01*
X179300406Y-59929438D01*
X179367755Y-59627812D01*
X179659181Y-59627812D01*
X179668706Y-59722445D01*
X179697281Y-59801026D01*
X179744906Y-59863556D01*
X179810170Y-59908976D01*
X179891662Y-59936228D01*
X179989381Y-59945313D01*
X180087453Y-59936228D01*
X180170003Y-59908976D01*
X180237031Y-59863556D01*
X180286420Y-59801026D01*
X180316053Y-59722445D01*
X180325931Y-59627812D01*
X180313430Y-59525022D01*
X180275925Y-59435725D01*
X180215798Y-59363494D01*
X180135431Y-59311900D01*
X180135431Y-59308725D01*
X180204884Y-59257727D01*
X180257669Y-59193631D01*
X180291006Y-59120011D01*
X180302119Y-59040438D01*
X180281878Y-58920383D01*
X180221156Y-58830094D01*
X180123525Y-58773539D01*
X179992556Y-58754687D01*
X179861588Y-58773737D01*
X179763956Y-58830887D01*
X179703234Y-58921375D01*
X179682994Y-59040438D01*
X179693908Y-59125766D01*
X179726650Y-59207125D01*
X179777252Y-59277372D01*
X179841744Y-59329363D01*
X179841744Y-59330950D01*
X179761873Y-59383437D01*
X179704822Y-59450409D01*
X179670591Y-59531868D01*
X179659181Y-59627812D01*
X179367755Y-59627812D01*
X179559169Y-58770563D01*
X179382956Y-58770563D01*
X179201981Y-59770688D01*
X179200394Y-59770688D01*
X179019419Y-58770563D01*
X178836856Y-58770563D01*
X178578094Y-58770563D01*
X178401881Y-58770563D01*
X178124069Y-58932488D01*
X178124069Y-59088063D01*
X177793340Y-59088063D01*
X177793340Y-58423958D01*
G37*
G36*
X180072990Y-59438724D02*
G01*
X180131727Y-59513865D01*
X180151306Y-59615113D01*
X180132962Y-59721828D01*
X180077928Y-59785857D01*
X179986206Y-59807200D01*
X179917150Y-59795095D01*
X179865556Y-59758781D01*
X179833409Y-59698655D01*
X179822694Y-59615113D01*
X179839627Y-59513865D01*
X179890427Y-59438724D01*
X179975094Y-59389688D01*
X180072990Y-59438724D01*
G37*
G36*
X180102888Y-58932488D02*
G01*
X180129677Y-58983287D01*
X180138606Y-59053137D01*
X180122731Y-59145918D01*
X180075106Y-59214710D01*
X179995731Y-59259513D01*
X179918120Y-59216826D01*
X179871553Y-59148035D01*
X179856031Y-59053137D01*
X179864961Y-58981303D01*
X179891750Y-58930900D01*
X180002081Y-58891213D01*
X180102888Y-58932488D01*
G37*
%TO.C,kibuzzard-630EA251*%
G36*
X140586309Y-60963958D02*
G01*
X143529005Y-60963958D01*
X143529005Y-62816042D01*
X140586309Y-62816042D01*
X140586309Y-61882063D01*
X140917038Y-61882063D01*
X140923239Y-62023449D01*
X140941843Y-62145984D01*
X140972849Y-62249668D01*
X141016257Y-62334500D01*
X141072068Y-62400480D01*
X141140280Y-62447609D01*
X141220896Y-62475887D01*
X141313913Y-62485313D01*
X141408810Y-62479139D01*
X141455929Y-62469438D01*
X141750476Y-62469438D01*
X141925101Y-62469438D01*
X141925101Y-61628063D01*
X141928276Y-61628063D01*
X142175926Y-62469438D01*
X142353726Y-62469438D01*
X142353726Y-62453563D01*
X142531526Y-62453563D01*
X142650985Y-62477375D01*
X142780763Y-62485313D01*
X142912526Y-62471620D01*
X143015713Y-62430544D01*
X143094096Y-62355733D01*
X143151445Y-62240838D01*
X143177462Y-62140119D01*
X143193072Y-62017882D01*
X143198276Y-61874125D01*
X143192174Y-61725743D01*
X143173868Y-61601273D01*
X143143358Y-61500715D01*
X143100645Y-61424069D01*
X143021710Y-61352190D01*
X142915083Y-61309063D01*
X142780763Y-61294687D01*
X142655748Y-61302625D01*
X142531526Y-61326437D01*
X142531526Y-62453563D01*
X142353726Y-62453563D01*
X142353726Y-61310563D01*
X142187038Y-61310563D01*
X142187038Y-62151938D01*
X142182276Y-62151938D01*
X141934626Y-61310563D01*
X141750476Y-61310563D01*
X141750476Y-62469438D01*
X141455929Y-62469438D01*
X141498769Y-62460618D01*
X141583788Y-62429750D01*
X141583788Y-61778875D01*
X141213901Y-61778875D01*
X141213901Y-61913813D01*
X141413926Y-61913813D01*
X141413926Y-62329738D01*
X141318676Y-62348788D01*
X141221838Y-62321800D01*
X141150401Y-62240838D01*
X141117769Y-62152996D01*
X141098190Y-62033404D01*
X141091663Y-61882063D01*
X141098542Y-61734160D01*
X141119180Y-61618538D01*
X141153576Y-61535194D01*
X141232554Y-61459589D01*
X141345663Y-61434388D01*
X141442898Y-61443913D01*
X141544101Y-61472488D01*
X141544101Y-61329613D01*
X141446866Y-61303419D01*
X141345663Y-61294687D01*
X141214694Y-61310386D01*
X141107538Y-61357482D01*
X141024194Y-61435975D01*
X140977314Y-61516838D01*
X140943827Y-61618141D01*
X140923736Y-61739882D01*
X140917038Y-61882063D01*
X140586309Y-61882063D01*
X140586309Y-60963958D01*
G37*
G36*
X142890698Y-61457406D02*
G01*
X142966501Y-61531225D01*
X142999133Y-61613069D01*
X143018712Y-61727369D01*
X143025238Y-61874125D01*
X143018800Y-62036226D01*
X142999485Y-62160581D01*
X142967295Y-62247188D01*
X142891690Y-62323388D01*
X142780763Y-62348788D01*
X142709326Y-62334500D01*
X142709326Y-61447088D01*
X142780763Y-61432800D01*
X142890698Y-61457406D01*
G37*
%TO.C,kibuzzard-630EA342*%
G36*
X137563708Y-55883958D02*
G01*
X139606292Y-55883958D01*
X139606292Y-57736042D01*
X137563708Y-57736042D01*
X137563708Y-57389438D01*
X137894437Y-57389438D01*
X138069063Y-57389438D01*
X138069063Y-56548063D01*
X138072238Y-56548063D01*
X138319887Y-57389438D01*
X138497688Y-57389438D01*
X138497688Y-56794125D01*
X138664375Y-56794125D01*
X138670651Y-56937372D01*
X138689477Y-57061520D01*
X138720855Y-57166567D01*
X138764784Y-57252516D01*
X138821265Y-57319364D01*
X138890296Y-57367113D01*
X138971879Y-57395763D01*
X139066013Y-57405313D01*
X139171978Y-57395391D01*
X139267625Y-57365625D01*
X139267625Y-57219575D01*
X139177138Y-57256484D01*
X139093000Y-57268788D01*
X139015389Y-57255602D01*
X138951889Y-57216047D01*
X138902500Y-57150122D01*
X138867222Y-57057826D01*
X138846056Y-56939161D01*
X138839000Y-56794125D01*
X138845394Y-56659761D01*
X138864576Y-56549826D01*
X138896547Y-56464322D01*
X138941306Y-56403247D01*
X138998852Y-56366602D01*
X139069188Y-56354388D01*
X139105700Y-56360738D01*
X139105700Y-56608388D01*
X139275563Y-56608388D01*
X139275563Y-56249613D01*
X139174359Y-56223419D01*
X139061250Y-56214687D01*
X138968232Y-56223741D01*
X138887617Y-56250902D01*
X138819404Y-56296171D01*
X138763594Y-56359547D01*
X138720186Y-56441030D01*
X138689180Y-56540621D01*
X138670576Y-56658319D01*
X138664375Y-56794125D01*
X138497688Y-56794125D01*
X138497688Y-56230563D01*
X138331000Y-56230563D01*
X138331000Y-57071938D01*
X138326238Y-57071938D01*
X138078588Y-56230563D01*
X137894437Y-56230563D01*
X137894437Y-57389438D01*
X137563708Y-57389438D01*
X137563708Y-55883958D01*
G37*
%TO.C,kibuzzard-630EA059*%
G36*
X142895857Y-64012488D02*
G01*
X142922646Y-64063287D01*
X142931575Y-64133137D01*
X142915700Y-64225918D01*
X142868075Y-64294710D01*
X142788700Y-64339513D01*
X142711089Y-64296826D01*
X142664522Y-64228035D01*
X142649000Y-64133137D01*
X142657930Y-64061303D01*
X142684719Y-64010900D01*
X142795050Y-63971213D01*
X142895857Y-64012488D01*
G37*
G36*
X142865959Y-64518724D02*
G01*
X142924696Y-64593865D01*
X142944275Y-64695113D01*
X142925931Y-64801828D01*
X142870897Y-64865857D01*
X142779175Y-64887200D01*
X142710119Y-64875095D01*
X142658525Y-64838781D01*
X142626378Y-64778655D01*
X142615663Y-64695113D01*
X142632596Y-64593865D01*
X142683396Y-64518724D01*
X142768063Y-64469688D01*
X142865959Y-64518724D01*
G37*
G36*
X140586309Y-63503958D02*
G01*
X143449629Y-63503958D01*
X143449629Y-65356042D01*
X140586309Y-65356042D01*
X140586309Y-64168063D01*
X140917038Y-64168063D01*
X141190088Y-64015663D01*
X141193263Y-64017250D01*
X141193263Y-65009438D01*
X141371063Y-65009438D01*
X141371063Y-63850563D01*
X141629825Y-63850563D01*
X141887000Y-65009438D01*
X142093375Y-65009438D01*
X142160724Y-64707812D01*
X142452150Y-64707812D01*
X142461675Y-64802445D01*
X142490250Y-64881026D01*
X142537875Y-64943556D01*
X142603139Y-64988976D01*
X142684631Y-65016228D01*
X142782350Y-65025313D01*
X142880422Y-65016228D01*
X142962972Y-64988976D01*
X143030000Y-64943556D01*
X143079389Y-64881026D01*
X143109022Y-64802445D01*
X143118900Y-64707812D01*
X143106399Y-64605022D01*
X143068894Y-64515725D01*
X143008767Y-64443494D01*
X142928400Y-64391900D01*
X142928400Y-64388725D01*
X142997853Y-64337727D01*
X143050638Y-64273631D01*
X143083975Y-64200011D01*
X143095088Y-64120438D01*
X143074847Y-64000383D01*
X143014125Y-63910094D01*
X142916494Y-63853539D01*
X142785525Y-63834687D01*
X142654557Y-63853737D01*
X142556925Y-63910887D01*
X142496203Y-64001375D01*
X142475963Y-64120438D01*
X142486877Y-64205766D01*
X142519619Y-64287125D01*
X142570221Y-64357372D01*
X142634713Y-64409363D01*
X142634713Y-64410950D01*
X142554842Y-64463437D01*
X142497791Y-64530409D01*
X142463560Y-64611868D01*
X142452150Y-64707812D01*
X142160724Y-64707812D01*
X142352138Y-63850563D01*
X142175925Y-63850563D01*
X141994950Y-64850688D01*
X141993363Y-64850688D01*
X141812388Y-63850563D01*
X141629825Y-63850563D01*
X141371063Y-63850563D01*
X141194850Y-63850563D01*
X140917038Y-64012488D01*
X140917038Y-64168063D01*
X140586309Y-64168063D01*
X140586309Y-63503958D01*
G37*
%TO.C,kibuzzard-630EA384*%
G36*
X137383659Y-63997406D02*
G01*
X137459462Y-64071225D01*
X137492094Y-64153069D01*
X137511674Y-64267369D01*
X137518200Y-64414125D01*
X137511762Y-64576226D01*
X137492447Y-64700581D01*
X137460256Y-64787188D01*
X137384652Y-64863388D01*
X137273725Y-64888788D01*
X137202287Y-64874500D01*
X137202287Y-63987088D01*
X137273725Y-63972800D01*
X137383659Y-63997406D01*
G37*
G36*
X139008466Y-63997208D02*
G01*
X139064425Y-64070431D01*
X139088237Y-64153775D01*
X139102525Y-64273631D01*
X139107288Y-64430000D01*
X139102525Y-64586369D01*
X139088237Y-64706225D01*
X139064425Y-64789569D01*
X139008466Y-64862792D01*
X138926312Y-64887200D01*
X138844159Y-64862792D01*
X138788200Y-64789569D01*
X138764387Y-64706225D01*
X138750100Y-64586369D01*
X138745337Y-64430000D01*
X138750100Y-64273631D01*
X138764387Y-64153775D01*
X138788200Y-64070431D01*
X138844159Y-63997208D01*
X138926312Y-63972800D01*
X139008466Y-63997208D01*
G37*
G36*
X136693758Y-63503958D02*
G01*
X139606292Y-63503958D01*
X139606292Y-65356042D01*
X136693758Y-65356042D01*
X136693758Y-64993563D01*
X137024487Y-64993563D01*
X137143947Y-65017375D01*
X137273725Y-65025313D01*
X137405487Y-65011620D01*
X137410968Y-65009438D01*
X137862687Y-65009438D01*
X138402437Y-65009438D01*
X138402437Y-64871325D01*
X138224637Y-64871325D01*
X138224637Y-64430000D01*
X138577062Y-64430000D01*
X138581384Y-64568994D01*
X138594349Y-64687528D01*
X138615956Y-64785600D01*
X138663780Y-64897916D01*
X138729462Y-64971338D01*
X138815981Y-65011819D01*
X138926312Y-65025313D01*
X139036644Y-65011819D01*
X139123162Y-64971338D01*
X139188845Y-64897916D01*
X139236669Y-64785600D01*
X139258276Y-64687528D01*
X139271241Y-64568994D01*
X139275562Y-64430000D01*
X139271241Y-64291006D01*
X139258276Y-64172472D01*
X139236669Y-64074400D01*
X139188845Y-63962084D01*
X139123162Y-63888663D01*
X139036644Y-63848181D01*
X138926312Y-63834687D01*
X138815981Y-63848181D01*
X138729462Y-63888663D01*
X138663780Y-63962084D01*
X138615956Y-64074400D01*
X138594349Y-64172472D01*
X138581384Y-64291006D01*
X138577062Y-64430000D01*
X138224637Y-64430000D01*
X138224637Y-63988675D01*
X138402437Y-63988675D01*
X138402437Y-63850563D01*
X137862687Y-63850563D01*
X137862687Y-63988675D01*
X138040487Y-63988675D01*
X138040487Y-64871325D01*
X137862687Y-64871325D01*
X137862687Y-65009438D01*
X137410968Y-65009438D01*
X137508675Y-64970544D01*
X137587058Y-64895733D01*
X137644406Y-64780838D01*
X137670424Y-64680119D01*
X137686034Y-64557882D01*
X137691237Y-64414125D01*
X137685136Y-64265743D01*
X137666830Y-64141273D01*
X137636320Y-64040715D01*
X137593606Y-63964069D01*
X137514672Y-63892190D01*
X137408045Y-63849063D01*
X137273725Y-63834687D01*
X137148709Y-63842625D01*
X137024487Y-63866437D01*
X137024487Y-64993563D01*
X136693758Y-64993563D01*
X136693758Y-63503958D01*
G37*
D11*
%TO.C,J2*%
X119610000Y-58965000D02*
X125610000Y-58965000D01*
X128667071Y-64045000D02*
X128270000Y-64045000D01*
X119610000Y-56425000D02*
X125610000Y-56425000D01*
X128667071Y-57185000D02*
X128270000Y-57185000D01*
X128270000Y-60615000D02*
X125610000Y-60615000D01*
X125610000Y-65755000D02*
X128270000Y-65755000D01*
X125610000Y-64265000D02*
X119610000Y-64265000D01*
X125610000Y-64805000D02*
X119610000Y-64805000D01*
X128667071Y-62265000D02*
X128270000Y-62265000D01*
X131207071Y-56425000D02*
X130752929Y-56425000D01*
X131207071Y-58965000D02*
X130752929Y-58965000D01*
X128667071Y-56425000D02*
X128270000Y-56425000D01*
X125610000Y-64625000D02*
X119610000Y-64625000D01*
X128270000Y-63155000D02*
X125610000Y-63155000D01*
X128667071Y-53885000D02*
X128270000Y-53885000D01*
X125610000Y-64745000D02*
X119610000Y-64745000D01*
X133520000Y-64425000D02*
X133520000Y-65695000D01*
X125610000Y-54645000D02*
X119610000Y-54645000D01*
X131207071Y-57185000D02*
X130752929Y-57185000D01*
X131207071Y-54645000D02*
X130752929Y-54645000D01*
X128270000Y-65755000D02*
X128270000Y-52935000D01*
X128667071Y-54645000D02*
X128270000Y-54645000D01*
X131207071Y-62265000D02*
X130752929Y-62265000D01*
X125610000Y-64145000D02*
X119610000Y-64145000D01*
X131140000Y-64045000D02*
X130752929Y-64045000D01*
X125610000Y-52935000D02*
X125610000Y-65755000D01*
X128270000Y-55535000D02*
X125610000Y-55535000D01*
X119610000Y-54645000D02*
X119610000Y-53885000D01*
X119610000Y-64805000D02*
X119610000Y-64045000D01*
X119610000Y-61505000D02*
X125610000Y-61505000D01*
X119610000Y-59725000D02*
X119610000Y-58965000D01*
X131207071Y-61505000D02*
X130752929Y-61505000D01*
X119610000Y-53885000D02*
X125610000Y-53885000D01*
X125610000Y-57185000D02*
X119610000Y-57185000D01*
X125610000Y-64385000D02*
X119610000Y-64385000D01*
X133520000Y-65695000D02*
X132250000Y-65695000D01*
X128270000Y-58075000D02*
X125610000Y-58075000D01*
X131207071Y-53885000D02*
X130752929Y-53885000D01*
X125610000Y-64505000D02*
X119610000Y-64505000D01*
X128667071Y-58965000D02*
X128270000Y-58965000D01*
X128667071Y-64805000D02*
X128270000Y-64805000D01*
X125610000Y-59725000D02*
X119610000Y-59725000D01*
X119610000Y-64045000D02*
X125610000Y-64045000D01*
X119610000Y-57185000D02*
X119610000Y-56425000D01*
X131207071Y-59725000D02*
X130752929Y-59725000D01*
X128667071Y-61505000D02*
X128270000Y-61505000D01*
X119610000Y-62265000D02*
X119610000Y-61505000D01*
X125610000Y-62265000D02*
X119610000Y-62265000D01*
X128270000Y-52935000D02*
X125610000Y-52935000D01*
X128667071Y-59725000D02*
X128270000Y-59725000D01*
X131140000Y-64805000D02*
X130752929Y-64805000D01*
%TD*%
M02*
