%TF.GenerationSoftware,KiCad,Pcbnew,(6.0.6)*%
%TF.CreationDate,2022-09-07T20:40:28-07:00*%
%TF.ProjectId,SWD_to_v4WF_Cable,5357445f-746f-45f7-9634-57465f436162,rev?*%
%TF.SameCoordinates,Original*%
%TF.FileFunction,Copper,L2,Bot*%
%TF.FilePolarity,Positive*%
%FSLAX46Y46*%
G04 Gerber Fmt 4.6, Leading zero omitted, Abs format (unit mm)*
G04 Created by KiCad (PCBNEW (6.0.6)) date 2022-09-07 20:40:28*
%MOMM*%
%LPD*%
G01*
G04 APERTURE LIST*
%TA.AperFunction,ComponentPad*%
%ADD10R,1.700000X1.700000*%
%TD*%
%TA.AperFunction,ComponentPad*%
%ADD11O,1.700000X1.700000*%
%TD*%
G04 APERTURE END LIST*
D10*
%TO.P,J2,1,Pin_1*%
%TO.N,+1V8*%
X132250000Y-64425000D03*
D11*
%TO.P,J2,2,Pin_2*%
%TO.N,/SWDIO*%
X129710000Y-64425000D03*
%TO.P,J2,3,Pin_3*%
%TO.N,GND*%
X132250000Y-61885000D03*
%TO.P,J2,4,Pin_4*%
%TO.N,/SWDCLK*%
X129710000Y-61885000D03*
%TO.P,J2,5,Pin_5*%
%TO.N,GND*%
X132250000Y-59345000D03*
%TO.P,J2,6,Pin_6*%
%TO.N,unconnected-(J2-Pad6)*%
X129710000Y-59345000D03*
%TO.P,J2,7,Pin_7*%
%TO.N,unconnected-(J2-Pad7)*%
X132250000Y-56805000D03*
%TO.P,J2,8,Pin_8*%
%TO.N,unconnected-(J2-Pad8)*%
X129710000Y-56805000D03*
%TO.P,J2,9,Pin_9*%
%TO.N,GND*%
X132250000Y-54265000D03*
%TO.P,J2,10,Pin_10*%
%TO.N,/nRST*%
X129710000Y-54265000D03*
%TD*%
D10*
%TO.P,J1,1,Pin_1*%
%TO.N,/SWDCLK*%
X183600000Y-64425000D03*
D11*
%TO.P,J1,2,Pin_2*%
%TO.N,/SWDIO*%
X183600000Y-61885000D03*
%TO.P,J1,3,Pin_3*%
%TO.N,+1V8*%
X183600000Y-59345000D03*
%TO.P,J1,4,Pin_4*%
%TO.N,GND*%
X183600000Y-56805000D03*
%TO.P,J1,5,Pin_5*%
%TO.N,/nRST*%
X183600000Y-54265000D03*
%TD*%
%TA.AperFunction,Conductor*%
%TO.N,GND*%
G36*
X184570018Y-49860000D02*
G01*
X184584852Y-49862310D01*
X184584855Y-49862310D01*
X184593724Y-49863691D01*
X184602626Y-49862527D01*
X184602750Y-49862511D01*
X184633192Y-49862240D01*
X184640621Y-49863077D01*
X184695264Y-49869234D01*
X184722771Y-49875513D01*
X184799853Y-49902485D01*
X184825274Y-49914727D01*
X184894426Y-49958178D01*
X184916485Y-49975770D01*
X184974230Y-50033515D01*
X184991822Y-50055574D01*
X185035273Y-50124726D01*
X185047515Y-50150147D01*
X185074487Y-50227228D01*
X185080766Y-50254736D01*
X185087018Y-50310226D01*
X185086923Y-50325868D01*
X185087800Y-50325879D01*
X185087690Y-50334851D01*
X185086309Y-50343724D01*
X185087473Y-50352626D01*
X185087473Y-50352628D01*
X185090436Y-50375283D01*
X185091500Y-50391621D01*
X185091500Y-53682362D01*
X185071498Y-53750483D01*
X185017842Y-53796976D01*
X184947568Y-53807080D01*
X184882988Y-53777586D01*
X184849951Y-53732605D01*
X184803419Y-53625589D01*
X184803419Y-53625588D01*
X184801354Y-53620840D01*
X184680014Y-53433277D01*
X184529670Y-53268051D01*
X184525619Y-53264852D01*
X184525615Y-53264848D01*
X184358414Y-53132800D01*
X184358410Y-53132798D01*
X184354359Y-53129598D01*
X184318028Y-53109542D01*
X184302136Y-53100769D01*
X184158789Y-53021638D01*
X184153920Y-53019914D01*
X184153916Y-53019912D01*
X183953087Y-52948795D01*
X183953083Y-52948794D01*
X183948212Y-52947069D01*
X183943119Y-52946162D01*
X183943116Y-52946161D01*
X183733373Y-52908800D01*
X183733367Y-52908799D01*
X183728284Y-52907894D01*
X183654452Y-52906992D01*
X183510081Y-52905228D01*
X183510079Y-52905228D01*
X183504911Y-52905165D01*
X183284091Y-52938955D01*
X183071756Y-53008357D01*
X182873607Y-53111507D01*
X182869474Y-53114610D01*
X182869471Y-53114612D01*
X182845247Y-53132800D01*
X182694965Y-53245635D01*
X182540629Y-53407138D01*
X182414743Y-53591680D01*
X182399003Y-53625589D01*
X182328449Y-53777586D01*
X182320688Y-53794305D01*
X182260989Y-54009570D01*
X182237251Y-54231695D01*
X182250110Y-54454715D01*
X182251247Y-54459761D01*
X182251248Y-54459767D01*
X182264597Y-54519000D01*
X182299222Y-54672639D01*
X182383266Y-54879616D01*
X182499987Y-55070088D01*
X182646250Y-55238938D01*
X182818126Y-55381632D01*
X182890978Y-55424203D01*
X182891955Y-55424774D01*
X182940679Y-55476412D01*
X182953750Y-55546195D01*
X182927019Y-55611967D01*
X182886562Y-55645327D01*
X182878457Y-55649546D01*
X182869738Y-55655036D01*
X182699433Y-55782905D01*
X182691726Y-55789748D01*
X182544590Y-55943717D01*
X182538104Y-55951727D01*
X182418098Y-56127649D01*
X182413000Y-56136623D01*
X182323338Y-56329783D01*
X182319775Y-56339470D01*
X182264389Y-56539183D01*
X182265912Y-56547607D01*
X182278292Y-56551000D01*
X183728000Y-56551000D01*
X183796121Y-56571002D01*
X183842614Y-56624658D01*
X183854000Y-56677000D01*
X183854000Y-56933000D01*
X183833998Y-57001121D01*
X183780342Y-57047614D01*
X183728000Y-57059000D01*
X182283225Y-57059000D01*
X182269694Y-57062973D01*
X182268257Y-57072966D01*
X182298565Y-57207446D01*
X182301645Y-57217275D01*
X182381770Y-57414603D01*
X182386413Y-57423794D01*
X182497694Y-57605388D01*
X182503777Y-57613699D01*
X182643213Y-57774667D01*
X182650580Y-57781883D01*
X182814434Y-57917916D01*
X182822881Y-57923831D01*
X182891969Y-57964203D01*
X182940693Y-58015842D01*
X182953764Y-58085625D01*
X182927033Y-58151396D01*
X182886584Y-58184752D01*
X182873607Y-58191507D01*
X182869474Y-58194610D01*
X182869471Y-58194612D01*
X182845247Y-58212800D01*
X182694965Y-58325635D01*
X182540629Y-58487138D01*
X182414743Y-58671680D01*
X182399003Y-58705589D01*
X182328449Y-58857586D01*
X182320688Y-58874305D01*
X182260989Y-59089570D01*
X182237251Y-59311695D01*
X182250110Y-59534715D01*
X182251247Y-59539761D01*
X182251248Y-59539767D01*
X182264597Y-59599000D01*
X182299222Y-59752639D01*
X182383266Y-59959616D01*
X182499987Y-60150088D01*
X182646250Y-60318938D01*
X182818126Y-60461632D01*
X182888595Y-60502811D01*
X182891445Y-60504476D01*
X182940169Y-60556114D01*
X182953240Y-60625897D01*
X182926509Y-60691669D01*
X182886055Y-60725027D01*
X182873607Y-60731507D01*
X182869474Y-60734610D01*
X182869471Y-60734612D01*
X182845247Y-60752800D01*
X182694965Y-60865635D01*
X182540629Y-61027138D01*
X182414743Y-61211680D01*
X182399003Y-61245589D01*
X182328449Y-61397586D01*
X182320688Y-61414305D01*
X182260989Y-61629570D01*
X182237251Y-61851695D01*
X182250110Y-62074715D01*
X182251247Y-62079761D01*
X182251248Y-62079767D01*
X182264597Y-62139000D01*
X182299222Y-62292639D01*
X182383266Y-62499616D01*
X182499987Y-62690088D01*
X182646250Y-62858938D01*
X182650230Y-62862242D01*
X182654981Y-62866187D01*
X182694616Y-62925090D01*
X182696113Y-62996071D01*
X182658997Y-63056593D01*
X182618725Y-63081112D01*
X182530095Y-63114338D01*
X182503295Y-63124385D01*
X182386739Y-63211739D01*
X182299385Y-63328295D01*
X182248255Y-63464684D01*
X182241500Y-63526866D01*
X182241500Y-65323134D01*
X182248255Y-65385316D01*
X182299385Y-65521705D01*
X182386739Y-65638261D01*
X182503295Y-65725615D01*
X182639684Y-65776745D01*
X182701866Y-65783500D01*
X184498134Y-65783500D01*
X184560316Y-65776745D01*
X184696705Y-65725615D01*
X184813261Y-65638261D01*
X184864674Y-65569661D01*
X184921533Y-65527146D01*
X184992352Y-65522120D01*
X185054645Y-65556180D01*
X185088635Y-65618511D01*
X185091500Y-65645226D01*
X185091500Y-68300633D01*
X185090000Y-68320018D01*
X185087862Y-68333753D01*
X185086309Y-68343724D01*
X185087473Y-68352626D01*
X185087489Y-68352750D01*
X185087760Y-68383193D01*
X185080766Y-68445264D01*
X185074487Y-68472771D01*
X185047515Y-68549853D01*
X185035273Y-68575274D01*
X184991822Y-68644426D01*
X184974230Y-68666485D01*
X184916485Y-68724230D01*
X184894426Y-68741822D01*
X184825274Y-68785273D01*
X184799853Y-68797515D01*
X184722772Y-68824487D01*
X184695264Y-68830766D01*
X184639774Y-68837018D01*
X184624132Y-68836923D01*
X184624121Y-68837800D01*
X184615149Y-68837690D01*
X184606276Y-68836309D01*
X184597374Y-68837473D01*
X184597372Y-68837473D01*
X184586385Y-68838910D01*
X184574714Y-68840436D01*
X184558379Y-68841500D01*
X126919367Y-68841500D01*
X126899982Y-68840000D01*
X126885148Y-68837690D01*
X126885145Y-68837690D01*
X126876276Y-68836309D01*
X126866341Y-68837608D01*
X126865254Y-68837750D01*
X126836569Y-68838207D01*
X126763259Y-68830987D01*
X126733788Y-68828084D01*
X126709568Y-68823267D01*
X126590454Y-68787134D01*
X126567645Y-68777685D01*
X126457876Y-68719013D01*
X126437345Y-68705295D01*
X126341124Y-68626329D01*
X126323671Y-68608876D01*
X126244705Y-68512655D01*
X126230987Y-68492124D01*
X126172315Y-68382355D01*
X126162866Y-68359546D01*
X126126733Y-68240432D01*
X126121916Y-68216212D01*
X126112711Y-68122755D01*
X126112607Y-68099151D01*
X126112768Y-68097354D01*
X126113576Y-68092552D01*
X126113729Y-68080000D01*
X126109773Y-68052376D01*
X126108500Y-68034514D01*
X126108500Y-64391695D01*
X128347251Y-64391695D01*
X128360110Y-64614715D01*
X128361247Y-64619761D01*
X128361248Y-64619767D01*
X128385304Y-64726508D01*
X128409222Y-64832639D01*
X128493266Y-65039616D01*
X128609987Y-65230088D01*
X128756250Y-65398938D01*
X128832846Y-65462529D01*
X128910678Y-65527146D01*
X128928126Y-65541632D01*
X129121000Y-65654338D01*
X129329692Y-65734030D01*
X129334760Y-65735061D01*
X129334763Y-65735062D01*
X129442017Y-65756883D01*
X129548597Y-65778567D01*
X129553772Y-65778757D01*
X129553774Y-65778757D01*
X129766673Y-65786564D01*
X129766677Y-65786564D01*
X129771837Y-65786753D01*
X129776957Y-65786097D01*
X129776959Y-65786097D01*
X129988288Y-65759025D01*
X129988289Y-65759025D01*
X129993416Y-65758368D01*
X129998366Y-65756883D01*
X130202429Y-65695661D01*
X130202434Y-65695659D01*
X130207384Y-65694174D01*
X130407994Y-65595896D01*
X130589860Y-65466173D01*
X130698091Y-65358319D01*
X130760462Y-65324404D01*
X130831268Y-65329592D01*
X130888030Y-65372238D01*
X130905012Y-65403341D01*
X130949385Y-65521705D01*
X131036739Y-65638261D01*
X131153295Y-65725615D01*
X131289684Y-65776745D01*
X131351866Y-65783500D01*
X133148134Y-65783500D01*
X133210316Y-65776745D01*
X133346705Y-65725615D01*
X133463261Y-65638261D01*
X133550615Y-65521705D01*
X133601745Y-65385316D01*
X133608500Y-65323134D01*
X133608500Y-63526866D01*
X133601745Y-63464684D01*
X133550615Y-63328295D01*
X133463261Y-63211739D01*
X133346705Y-63124385D01*
X133227687Y-63079767D01*
X133170923Y-63037125D01*
X133146223Y-62970564D01*
X133161430Y-62901215D01*
X133182977Y-62872535D01*
X133284052Y-62771812D01*
X133290730Y-62763965D01*
X133415003Y-62591020D01*
X133420313Y-62582183D01*
X133514670Y-62391267D01*
X133518469Y-62381672D01*
X133580377Y-62177910D01*
X133582555Y-62167837D01*
X133583986Y-62156962D01*
X133581775Y-62142778D01*
X133568617Y-62139000D01*
X132122000Y-62139000D01*
X132053879Y-62118998D01*
X132007386Y-62065342D01*
X131996000Y-62013000D01*
X131996000Y-61612885D01*
X132504000Y-61612885D01*
X132508475Y-61628124D01*
X132509865Y-61629329D01*
X132517548Y-61631000D01*
X133568344Y-61631000D01*
X133581875Y-61627027D01*
X133583180Y-61617947D01*
X133541214Y-61450875D01*
X133537894Y-61441124D01*
X133452972Y-61245814D01*
X133448105Y-61236739D01*
X133332426Y-61057926D01*
X133326136Y-61049757D01*
X133182806Y-60892240D01*
X133175273Y-60885215D01*
X133008139Y-60753222D01*
X132999552Y-60747517D01*
X132962116Y-60726851D01*
X132912146Y-60676419D01*
X132897374Y-60606976D01*
X132922490Y-60540571D01*
X132949842Y-60513964D01*
X133125327Y-60388792D01*
X133133200Y-60382139D01*
X133284052Y-60231812D01*
X133290730Y-60223965D01*
X133415003Y-60051020D01*
X133420313Y-60042183D01*
X133514670Y-59851267D01*
X133518469Y-59841672D01*
X133580377Y-59637910D01*
X133582555Y-59627837D01*
X133583986Y-59616962D01*
X133581775Y-59602778D01*
X133568617Y-59599000D01*
X132522115Y-59599000D01*
X132506876Y-59603475D01*
X132505671Y-59604865D01*
X132504000Y-59612548D01*
X132504000Y-61612885D01*
X131996000Y-61612885D01*
X131996000Y-59217000D01*
X132016002Y-59148879D01*
X132069658Y-59102386D01*
X132122000Y-59091000D01*
X133568344Y-59091000D01*
X133581875Y-59087027D01*
X133583180Y-59077947D01*
X133541214Y-58910875D01*
X133537894Y-58901124D01*
X133452972Y-58705814D01*
X133448105Y-58696739D01*
X133332426Y-58517926D01*
X133326136Y-58509757D01*
X133182806Y-58352240D01*
X133175273Y-58345215D01*
X133008139Y-58213222D01*
X132999556Y-58207520D01*
X132962602Y-58187120D01*
X132912631Y-58136687D01*
X132897859Y-58067245D01*
X132922975Y-58000839D01*
X132950327Y-57974232D01*
X132973797Y-57957491D01*
X133129860Y-57846173D01*
X133288096Y-57688489D01*
X133347594Y-57605689D01*
X133415435Y-57511277D01*
X133418453Y-57507077D01*
X133439320Y-57464857D01*
X133515136Y-57311453D01*
X133515137Y-57311451D01*
X133517430Y-57306811D01*
X133582370Y-57093069D01*
X133611529Y-56871590D01*
X133613156Y-56805000D01*
X133594852Y-56582361D01*
X133540431Y-56365702D01*
X133451354Y-56160840D01*
X133330014Y-55973277D01*
X133179670Y-55808051D01*
X133175619Y-55804852D01*
X133175615Y-55804848D01*
X133008414Y-55672800D01*
X133008410Y-55672798D01*
X133004359Y-55669598D01*
X132962569Y-55646529D01*
X132912598Y-55596097D01*
X132897826Y-55526654D01*
X132922942Y-55460248D01*
X132950294Y-55433641D01*
X133125328Y-55308792D01*
X133133200Y-55302139D01*
X133284052Y-55151812D01*
X133290730Y-55143965D01*
X133415003Y-54971020D01*
X133420313Y-54962183D01*
X133514670Y-54771267D01*
X133518469Y-54761672D01*
X133580377Y-54557910D01*
X133582555Y-54547837D01*
X133583986Y-54536962D01*
X133581775Y-54522778D01*
X133568617Y-54519000D01*
X132122000Y-54519000D01*
X132053879Y-54498998D01*
X132007386Y-54445342D01*
X131996000Y-54393000D01*
X131996000Y-53992885D01*
X132504000Y-53992885D01*
X132508475Y-54008124D01*
X132509865Y-54009329D01*
X132517548Y-54011000D01*
X133568344Y-54011000D01*
X133581875Y-54007027D01*
X133583180Y-53997947D01*
X133541214Y-53830875D01*
X133537894Y-53821124D01*
X133452972Y-53625814D01*
X133448105Y-53616739D01*
X133332426Y-53437926D01*
X133326136Y-53429757D01*
X133182806Y-53272240D01*
X133175273Y-53265215D01*
X133008139Y-53133222D01*
X132999552Y-53127517D01*
X132813117Y-53024599D01*
X132803705Y-53020369D01*
X132602959Y-52949280D01*
X132592988Y-52946646D01*
X132521837Y-52933972D01*
X132508540Y-52935432D01*
X132504000Y-52949989D01*
X132504000Y-53992885D01*
X131996000Y-53992885D01*
X131996000Y-52948102D01*
X131992082Y-52934758D01*
X131977806Y-52932771D01*
X131939324Y-52938660D01*
X131929288Y-52941051D01*
X131726868Y-53007212D01*
X131717359Y-53011209D01*
X131528463Y-53109542D01*
X131519738Y-53115036D01*
X131349433Y-53242905D01*
X131341726Y-53249748D01*
X131194590Y-53403717D01*
X131188109Y-53411722D01*
X131083498Y-53565074D01*
X131028587Y-53610076D01*
X130958062Y-53618247D01*
X130894315Y-53586993D01*
X130873618Y-53562509D01*
X130792822Y-53437617D01*
X130792820Y-53437614D01*
X130790014Y-53433277D01*
X130639670Y-53268051D01*
X130635619Y-53264852D01*
X130635615Y-53264848D01*
X130468414Y-53132800D01*
X130468410Y-53132798D01*
X130464359Y-53129598D01*
X130428028Y-53109542D01*
X130412136Y-53100769D01*
X130268789Y-53021638D01*
X130263920Y-53019914D01*
X130263916Y-53019912D01*
X130063087Y-52948795D01*
X130063083Y-52948794D01*
X130058212Y-52947069D01*
X130053119Y-52946162D01*
X130053116Y-52946161D01*
X129843373Y-52908800D01*
X129843367Y-52908799D01*
X129838284Y-52907894D01*
X129764452Y-52906992D01*
X129620081Y-52905228D01*
X129620079Y-52905228D01*
X129614911Y-52905165D01*
X129394091Y-52938955D01*
X129181756Y-53008357D01*
X128983607Y-53111507D01*
X128979474Y-53114610D01*
X128979471Y-53114612D01*
X128955247Y-53132800D01*
X128804965Y-53245635D01*
X128650629Y-53407138D01*
X128524743Y-53591680D01*
X128509003Y-53625589D01*
X128438449Y-53777586D01*
X128430688Y-53794305D01*
X128370989Y-54009570D01*
X128347251Y-54231695D01*
X128360110Y-54454715D01*
X128361247Y-54459761D01*
X128361248Y-54459767D01*
X128374597Y-54519000D01*
X128409222Y-54672639D01*
X128493266Y-54879616D01*
X128609987Y-55070088D01*
X128756250Y-55238938D01*
X128928126Y-55381632D01*
X128998595Y-55422811D01*
X129001445Y-55424476D01*
X129050169Y-55476114D01*
X129063240Y-55545897D01*
X129036509Y-55611669D01*
X128996055Y-55645027D01*
X128983607Y-55651507D01*
X128979474Y-55654610D01*
X128979471Y-55654612D01*
X128955247Y-55672800D01*
X128804965Y-55785635D01*
X128650629Y-55947138D01*
X128647720Y-55951403D01*
X128647714Y-55951411D01*
X128635404Y-55969457D01*
X128524743Y-56131680D01*
X128430688Y-56334305D01*
X128370989Y-56549570D01*
X128347251Y-56771695D01*
X128347548Y-56776848D01*
X128347548Y-56776851D01*
X128353011Y-56871590D01*
X128360110Y-56994715D01*
X128361247Y-56999761D01*
X128361248Y-56999767D01*
X128372031Y-57047614D01*
X128409222Y-57212639D01*
X128493266Y-57419616D01*
X128543863Y-57502183D01*
X128607291Y-57605688D01*
X128609987Y-57610088D01*
X128756250Y-57778938D01*
X128928126Y-57921632D01*
X128998595Y-57962811D01*
X129001445Y-57964476D01*
X129050169Y-58016114D01*
X129063240Y-58085897D01*
X129036509Y-58151669D01*
X128996055Y-58185027D01*
X128983607Y-58191507D01*
X128979474Y-58194610D01*
X128979471Y-58194612D01*
X128955247Y-58212800D01*
X128804965Y-58325635D01*
X128650629Y-58487138D01*
X128524743Y-58671680D01*
X128509003Y-58705589D01*
X128438449Y-58857586D01*
X128430688Y-58874305D01*
X128370989Y-59089570D01*
X128347251Y-59311695D01*
X128360110Y-59534715D01*
X128361247Y-59539761D01*
X128361248Y-59539767D01*
X128374597Y-59599000D01*
X128409222Y-59752639D01*
X128493266Y-59959616D01*
X128609987Y-60150088D01*
X128756250Y-60318938D01*
X128928126Y-60461632D01*
X128998595Y-60502811D01*
X129001445Y-60504476D01*
X129050169Y-60556114D01*
X129063240Y-60625897D01*
X129036509Y-60691669D01*
X128996055Y-60725027D01*
X128983607Y-60731507D01*
X128979474Y-60734610D01*
X128979471Y-60734612D01*
X128955247Y-60752800D01*
X128804965Y-60865635D01*
X128650629Y-61027138D01*
X128524743Y-61211680D01*
X128509003Y-61245589D01*
X128438449Y-61397586D01*
X128430688Y-61414305D01*
X128370989Y-61629570D01*
X128347251Y-61851695D01*
X128360110Y-62074715D01*
X128361247Y-62079761D01*
X128361248Y-62079767D01*
X128374597Y-62139000D01*
X128409222Y-62292639D01*
X128493266Y-62499616D01*
X128609987Y-62690088D01*
X128756250Y-62858938D01*
X128928126Y-63001632D01*
X128988865Y-63037125D01*
X129001445Y-63044476D01*
X129050169Y-63096114D01*
X129063240Y-63165897D01*
X129036509Y-63231669D01*
X128996055Y-63265027D01*
X128983607Y-63271507D01*
X128979474Y-63274610D01*
X128979471Y-63274612D01*
X128809100Y-63402530D01*
X128804965Y-63405635D01*
X128765525Y-63446907D01*
X128711280Y-63503671D01*
X128650629Y-63567138D01*
X128524743Y-63751680D01*
X128430688Y-63954305D01*
X128370989Y-64169570D01*
X128347251Y-64391695D01*
X126108500Y-64391695D01*
X126108500Y-50403250D01*
X126110246Y-50382345D01*
X126112770Y-50367344D01*
X126112770Y-50367341D01*
X126113576Y-50362552D01*
X126113729Y-50350000D01*
X126113040Y-50345188D01*
X126112723Y-50340327D01*
X126113008Y-50340308D01*
X126112607Y-50313549D01*
X126119234Y-50254736D01*
X126125513Y-50227229D01*
X126152485Y-50150147D01*
X126164727Y-50124726D01*
X126208178Y-50055574D01*
X126225770Y-50033515D01*
X126283515Y-49975770D01*
X126305574Y-49958178D01*
X126374726Y-49914727D01*
X126400147Y-49902485D01*
X126477228Y-49875513D01*
X126504736Y-49869234D01*
X126560226Y-49862982D01*
X126575868Y-49863077D01*
X126575879Y-49862200D01*
X126584851Y-49862310D01*
X126593724Y-49863691D01*
X126602626Y-49862527D01*
X126602628Y-49862527D01*
X126617951Y-49860523D01*
X126625286Y-49859564D01*
X126641621Y-49858500D01*
X184550633Y-49858500D01*
X184570018Y-49860000D01*
G37*
%TD.AperFunction*%
%TD*%
M02*
