%TF.GenerationSoftware,KiCad,Pcbnew,(5.1.6)-1*%
%TF.CreationDate,2021-06-02T19:48:48-07:00*%
%TF.ProjectId,Miniscope-v4-Wire-Free,4d696e69-7363-46f7-9065-2d76342d5769,rev?*%
%TF.SameCoordinates,Original*%
%TF.FileFunction,Copper,L2,Inr*%
%TF.FilePolarity,Positive*%
%FSLAX46Y46*%
G04 Gerber Fmt 4.6, Leading zero omitted, Abs format (unit mm)*
G04 Created by KiCad (PCBNEW (5.1.6)-1) date 2021-06-02 19:48:48*
%MOMM*%
%LPD*%
G01*
G04 APERTURE LIST*
%TA.AperFunction,ViaPad*%
%ADD10C,0.304800*%
%TD*%
%TA.AperFunction,ViaPad*%
%ADD11C,0.254000*%
%TD*%
%TA.AperFunction,Conductor*%
%ADD12C,0.152400*%
%TD*%
%TA.AperFunction,Conductor*%
%ADD13C,0.101600*%
%TD*%
G04 APERTURE END LIST*
D10*
%TO.N,GND*%
X92060200Y-69335600D03*
X81571700Y-61131400D03*
X81889200Y-58464400D03*
X83210000Y-61537800D03*
X81051000Y-68497400D03*
X82625800Y-69275800D03*
X82079700Y-63988900D03*
X83349700Y-68357700D03*
X81127200Y-62274400D03*
X83819600Y-69551500D03*
X81114500Y-65779600D03*
X83946500Y-60170600D03*
X89318700Y-67316300D03*
X88417000Y-59963000D03*
X91615200Y-69707000D03*
X85722400Y-68835600D03*
X85032200Y-68810200D03*
X86131000Y-67544900D03*
X82090200Y-63476200D03*
D11*
X84999000Y-65322400D03*
D10*
X86446800Y-64941400D03*
D11*
X85049800Y-62858600D03*
D10*
X83556203Y-64504598D03*
X83957611Y-64010396D03*
D11*
X86672400Y-62754000D03*
D10*
X85474133Y-59612893D03*
D11*
X89698000Y-68853000D03*
X89129800Y-60915800D03*
X89850400Y-62299800D03*
X90907800Y-62840800D03*
D10*
X90282200Y-64535000D03*
X83932200Y-66033600D03*
%TO.N,/SD_DAT2*%
X79844500Y-60890100D03*
%TO.N,/SD_DAT3*%
X80187400Y-61741000D03*
%TO.N,/SD_DAT0*%
X82067000Y-61017100D03*
%TO.N,/SD_CMD*%
X79971500Y-62769700D03*
%TO.N,/SD_CLK*%
X81130607Y-61000993D03*
%TO.N,/SD_DAT1*%
X80352500Y-59937600D03*
D11*
%TO.N,/USB_VBUS*%
X91983500Y-65774900D03*
D10*
X86933200Y-66502800D03*
%TO.N,/SWCLK*%
X86154200Y-60123400D03*
%TO.N,/SWDIO*%
X86116600Y-61029800D03*
D11*
%TO.N,+1V8*%
X90374400Y-61697800D03*
D10*
X82706100Y-60017900D03*
X81114500Y-63447200D03*
X85664425Y-60683005D03*
X81508200Y-68522800D03*
X82143200Y-62210900D03*
X88021597Y-68785053D03*
X84465600Y-66006475D03*
X84160800Y-63595200D03*
D11*
X85828800Y-62641800D03*
D10*
X87920000Y-65805000D03*
X91145275Y-68904400D03*
D11*
X90374400Y-61697800D03*
D10*
X91676198Y-62223610D03*
X91676174Y-59683600D03*
%TO.N,/SPI1_MOSI*%
X83451300Y-64966800D03*
%TO.N,/SPI1_MISO*%
X83787717Y-65298375D03*
%TO.N,/SDMMC1_D0*%
X82884880Y-60430360D03*
%TO.N,/SDMMC1_D1*%
X82675813Y-59581213D03*
X83982160Y-61273640D03*
%TO.N,/SDMMC1_D3*%
X80365202Y-59074000D03*
X84454600Y-61359968D03*
%TO.N,/SDMMC1_CMD*%
X80377900Y-59505800D03*
%TO.N,/SDMMC1_CK*%
X82346400Y-61461600D03*
D11*
%TO.N,+3V3*%
X90079000Y-67913200D03*
X90434600Y-65576400D03*
D10*
X83946500Y-60720600D03*
X83311500Y-60720600D03*
X91424700Y-64644610D03*
X83792000Y-67802000D03*
X81216100Y-67684600D03*
X81114500Y-62833200D03*
X80035000Y-63950800D03*
X82259295Y-65741708D03*
D11*
X90434600Y-65576400D03*
X90079000Y-67913200D03*
D10*
X83652687Y-65681699D03*
%TO.N,/LED_PWM*%
X91245317Y-60771100D03*
D11*
X87472400Y-62746600D03*
D10*
%TO.N,VDC*%
X87043200Y-67349700D03*
X82625800Y-69830900D03*
X89307600Y-69800400D03*
D11*
X86861000Y-68843400D03*
%TO.N,/ENT*%
X88936000Y-63747600D03*
D10*
X90290855Y-60437692D03*
D11*
X88936000Y-63747600D03*
D10*
%TO.N,/VDD_PIX*%
X85546000Y-64489600D03*
X83627400Y-63519002D03*
%TO.N,Net-(C3-Pad2)*%
X87808100Y-66367500D03*
%TO.N,Net-(C4-Pad2)*%
X90857000Y-66367500D03*
%TO.N,/VDDA*%
X89129800Y-60025800D03*
%TO.N,Net-(R1-Pad1)*%
X87449600Y-68480000D03*
%TO.N,Net-(D2-Pad1)*%
X82191800Y-65254200D03*
%TO.N,/RESET_N*%
X84480000Y-65346075D03*
X86614267Y-63531700D03*
%TO.N,/TRIGGER0*%
X84165513Y-65676275D03*
X87550000Y-63250000D03*
%TO.N,/MONITOR0*%
X83334800Y-67471800D03*
%TO.N,/BAT+*%
X86125873Y-69346527D03*
%TO.N,Net-(L1-Pad1)*%
X87945402Y-69462600D03*
%TO.N,Net-(L2-Pad1)*%
X90614100Y-69513400D03*
D11*
%TO.N,/XIN32*%
X88418600Y-61702200D03*
D10*
X91628400Y-60466300D03*
%TO.N,/XOUT32*%
X90167400Y-59640800D03*
%TO.N,/VDDCORE*%
X91589800Y-62993600D03*
%TO.N,/nRESET*%
X87437400Y-66084400D03*
%TO.N,Net-(L5-Pad2)*%
X91615200Y-61410790D03*
%TO.N,/CLK1_OUT*%
X84150000Y-63150000D03*
X87058100Y-63224392D03*
D11*
%TO.N,/ADC0*%
X85340800Y-67650200D03*
D10*
X90536200Y-68776800D03*
%TO.N,/PCC_DATA7*%
X84175200Y-65002360D03*
D11*
%TO.N,/I_LED*%
X89443500Y-63730200D03*
D10*
X92123196Y-65025600D03*
%TO.N,/UART_RX*%
X91704600Y-68319600D03*
%TO.N,/UART_TX*%
X91441871Y-67629458D03*
%TO.N,/SD_DET*%
X86281200Y-59488402D03*
%TO.N,/nCHRG*%
X87398800Y-68962600D03*
X88872000Y-68810200D03*
%TD*%
D12*
%TO.N,GND*%
X89318700Y-68473700D02*
X89318700Y-67316300D01*
X89698000Y-68853000D02*
X89318700Y-68473700D01*
%TO.N,/USB_VBUS*%
X91983500Y-65774900D02*
X91060699Y-66697701D01*
X91060699Y-66697701D02*
X87128101Y-66697701D01*
X87128101Y-66697701D02*
X86933200Y-66502800D01*
D13*
%TO.N,+1V8*%
X85828800Y-62641800D02*
X84850000Y-63620600D01*
X84186200Y-63620600D02*
X84160800Y-63595200D01*
X84850000Y-63620600D02*
X84186200Y-63620600D01*
%TO.N,/LED_PWM*%
X88216000Y-62003000D02*
X87472400Y-62746600D01*
X90827800Y-60771100D02*
X89595900Y-62003000D01*
X89595900Y-62003000D02*
X88216000Y-62003000D01*
X91245317Y-60771100D02*
X90827800Y-60771100D01*
D12*
%TO.N,VDC*%
X89256400Y-69851600D02*
X87525800Y-69851600D01*
X87525800Y-69851600D02*
X86861000Y-69186800D01*
X86861000Y-69186800D02*
X86861000Y-68843400D01*
X89307600Y-69800400D02*
X89256400Y-69851600D01*
D13*
%TO.N,/XIN32*%
X91628400Y-60466300D02*
X90726200Y-60466300D01*
X90726200Y-60466300D02*
X89490300Y-61702200D01*
X89490300Y-61702200D02*
X88418600Y-61702200D01*
%TO.N,/ADC0*%
X90104400Y-69208600D02*
X90536200Y-68776800D01*
X88758200Y-69208600D02*
X90104400Y-69208600D01*
X88478800Y-68620200D02*
X88478800Y-68929200D01*
X88478800Y-68929200D02*
X88758200Y-69208600D01*
X85340800Y-67650200D02*
X85815000Y-68124400D01*
X85815000Y-68124400D02*
X87983000Y-68124400D01*
X87983000Y-68124400D02*
X88478800Y-68620200D01*
D12*
%TO.N,/I_LED*%
X89443500Y-63730200D02*
X91119900Y-63730200D01*
X91119900Y-63730200D02*
X92123196Y-64733496D01*
X92123196Y-64733496D02*
X92123196Y-65025600D01*
%TD*%
D13*
%TO.N,GND*%
G36*
X85949200Y-59000000D02*
G01*
X85950176Y-59009911D01*
X85953067Y-59019440D01*
X85957761Y-59028223D01*
X85964079Y-59035921D01*
X86105969Y-59177811D01*
X86054518Y-59212189D01*
X86004987Y-59261720D01*
X85966071Y-59319962D01*
X85939265Y-59384677D01*
X85925600Y-59453378D01*
X85925600Y-59523426D01*
X85939265Y-59592127D01*
X85966071Y-59656842D01*
X86004987Y-59715084D01*
X86054518Y-59764615D01*
X86073024Y-59776980D01*
X86050475Y-59781465D01*
X85985760Y-59808271D01*
X85927518Y-59847187D01*
X85877987Y-59896718D01*
X85839071Y-59954960D01*
X85812265Y-60019675D01*
X85798600Y-60088376D01*
X85798600Y-60158424D01*
X85812265Y-60227125D01*
X85839071Y-60291840D01*
X85877987Y-60350082D01*
X85927518Y-60399613D01*
X85985760Y-60438529D01*
X86050475Y-60465335D01*
X86119176Y-60479000D01*
X86189224Y-60479000D01*
X86257925Y-60465335D01*
X86322640Y-60438529D01*
X86380882Y-60399613D01*
X86430413Y-60350082D01*
X86469329Y-60291840D01*
X86496135Y-60227125D01*
X86509800Y-60158424D01*
X86509800Y-60088376D01*
X86496135Y-60019675D01*
X86484165Y-59990776D01*
X88774200Y-59990776D01*
X88774200Y-60060824D01*
X88787865Y-60129525D01*
X88814671Y-60194240D01*
X88853587Y-60252482D01*
X88903118Y-60302013D01*
X88961360Y-60340929D01*
X89026075Y-60367735D01*
X89094776Y-60381400D01*
X89164824Y-60381400D01*
X89233525Y-60367735D01*
X89298240Y-60340929D01*
X89356482Y-60302013D01*
X89406013Y-60252482D01*
X89444929Y-60194240D01*
X89471735Y-60129525D01*
X89485400Y-60060824D01*
X89485400Y-59990776D01*
X89471735Y-59922075D01*
X89444929Y-59857360D01*
X89406013Y-59799118D01*
X89356482Y-59749587D01*
X89298240Y-59710671D01*
X89233525Y-59683865D01*
X89164824Y-59670200D01*
X89094776Y-59670200D01*
X89026075Y-59683865D01*
X88961360Y-59710671D01*
X88903118Y-59749587D01*
X88853587Y-59799118D01*
X88814671Y-59857360D01*
X88787865Y-59922075D01*
X88774200Y-59990776D01*
X86484165Y-59990776D01*
X86469329Y-59954960D01*
X86430413Y-59896718D01*
X86380882Y-59847187D01*
X86362376Y-59834822D01*
X86384925Y-59830337D01*
X86449640Y-59803531D01*
X86507882Y-59764615D01*
X86557413Y-59715084D01*
X86596329Y-59656842D01*
X86623135Y-59592127D01*
X86631355Y-59550800D01*
X89822735Y-59550800D01*
X89811800Y-59605776D01*
X89811800Y-59675824D01*
X89825465Y-59744525D01*
X89852271Y-59809240D01*
X89891187Y-59867482D01*
X89940718Y-59917013D01*
X89998960Y-59955929D01*
X90063675Y-59982735D01*
X90132376Y-59996400D01*
X90202424Y-59996400D01*
X90271125Y-59982735D01*
X90335840Y-59955929D01*
X90394082Y-59917013D01*
X90443613Y-59867482D01*
X90482529Y-59809240D01*
X90509335Y-59744525D01*
X90523000Y-59675824D01*
X90523000Y-59605776D01*
X90512065Y-59550800D01*
X91346282Y-59550800D01*
X91334239Y-59579875D01*
X91320574Y-59648576D01*
X91320574Y-59718624D01*
X91334239Y-59787325D01*
X91361045Y-59852040D01*
X91399961Y-59910282D01*
X91449492Y-59959813D01*
X91507734Y-59998729D01*
X91572449Y-60025535D01*
X91641150Y-60039200D01*
X91711198Y-60039200D01*
X91779899Y-60025535D01*
X91844614Y-59998729D01*
X91902856Y-59959813D01*
X91952387Y-59910282D01*
X91991303Y-59852040D01*
X92018109Y-59787325D01*
X92031774Y-59718624D01*
X92031774Y-59648576D01*
X92018109Y-59579875D01*
X92006066Y-59550800D01*
X92699200Y-59550800D01*
X92699200Y-69949200D01*
X89630864Y-69949200D01*
X89649535Y-69904125D01*
X89663200Y-69835424D01*
X89663200Y-69765376D01*
X89649535Y-69696675D01*
X89622729Y-69631960D01*
X89583813Y-69573718D01*
X89534282Y-69524187D01*
X89476040Y-69485271D01*
X89421308Y-69462600D01*
X90091942Y-69462600D01*
X90104400Y-69463827D01*
X90116858Y-69462600D01*
X90116869Y-69462600D01*
X90154193Y-69458924D01*
X90202072Y-69444400D01*
X90246197Y-69420814D01*
X90262723Y-69407251D01*
X90275188Y-69397022D01*
X90275191Y-69397019D01*
X90278549Y-69394263D01*
X90272165Y-69409675D01*
X90258500Y-69478376D01*
X90258500Y-69548424D01*
X90272165Y-69617125D01*
X90298971Y-69681840D01*
X90337887Y-69740082D01*
X90387418Y-69789613D01*
X90445660Y-69828529D01*
X90510375Y-69855335D01*
X90579076Y-69869000D01*
X90649124Y-69869000D01*
X90717825Y-69855335D01*
X90782540Y-69828529D01*
X90840782Y-69789613D01*
X90890313Y-69740082D01*
X90929229Y-69681840D01*
X90956035Y-69617125D01*
X90969700Y-69548424D01*
X90969700Y-69478376D01*
X90956035Y-69409675D01*
X90929229Y-69344960D01*
X90890313Y-69286718D01*
X90840782Y-69237187D01*
X90782540Y-69198271D01*
X90717825Y-69171465D01*
X90649124Y-69157800D01*
X90579076Y-69157800D01*
X90510375Y-69171465D01*
X90493935Y-69178275D01*
X90539810Y-69132400D01*
X90571224Y-69132400D01*
X90639925Y-69118735D01*
X90704640Y-69091929D01*
X90762882Y-69053013D01*
X90804638Y-69011257D01*
X90830146Y-69072840D01*
X90869062Y-69131082D01*
X90918593Y-69180613D01*
X90976835Y-69219529D01*
X91041550Y-69246335D01*
X91110251Y-69260000D01*
X91180299Y-69260000D01*
X91249000Y-69246335D01*
X91313715Y-69219529D01*
X91371957Y-69180613D01*
X91421488Y-69131082D01*
X91460404Y-69072840D01*
X91487210Y-69008125D01*
X91500875Y-68939424D01*
X91500875Y-68869376D01*
X91487210Y-68800675D01*
X91460404Y-68735960D01*
X91421488Y-68677718D01*
X91371957Y-68628187D01*
X91313715Y-68589271D01*
X91249000Y-68562465D01*
X91180299Y-68548800D01*
X91110251Y-68548800D01*
X91041550Y-68562465D01*
X90976835Y-68589271D01*
X90918593Y-68628187D01*
X90876837Y-68669943D01*
X90851329Y-68608360D01*
X90812413Y-68550118D01*
X90762882Y-68500587D01*
X90704640Y-68461671D01*
X90639925Y-68434865D01*
X90571224Y-68421200D01*
X90501176Y-68421200D01*
X90432475Y-68434865D01*
X90367760Y-68461671D01*
X90309518Y-68500587D01*
X90259987Y-68550118D01*
X90221071Y-68608360D01*
X90194265Y-68673075D01*
X90180600Y-68741776D01*
X90180600Y-68773190D01*
X89999190Y-68954600D01*
X89197087Y-68954600D01*
X89213935Y-68913925D01*
X89227600Y-68845224D01*
X89227600Y-68775176D01*
X89213935Y-68706475D01*
X89187129Y-68641760D01*
X89148213Y-68583518D01*
X89098682Y-68533987D01*
X89040440Y-68495071D01*
X88975725Y-68468265D01*
X88907024Y-68454600D01*
X88836976Y-68454600D01*
X88768275Y-68468265D01*
X88703560Y-68495071D01*
X88700881Y-68496861D01*
X88691014Y-68478403D01*
X88659273Y-68439727D01*
X88649591Y-68431781D01*
X88502386Y-68284576D01*
X91349000Y-68284576D01*
X91349000Y-68354624D01*
X91362665Y-68423325D01*
X91389471Y-68488040D01*
X91428387Y-68546282D01*
X91477918Y-68595813D01*
X91536160Y-68634729D01*
X91600875Y-68661535D01*
X91669576Y-68675200D01*
X91739624Y-68675200D01*
X91808325Y-68661535D01*
X91873040Y-68634729D01*
X91931282Y-68595813D01*
X91980813Y-68546282D01*
X92019729Y-68488040D01*
X92046535Y-68423325D01*
X92060200Y-68354624D01*
X92060200Y-68284576D01*
X92046535Y-68215875D01*
X92019729Y-68151160D01*
X91980813Y-68092918D01*
X91931282Y-68043387D01*
X91873040Y-68004471D01*
X91808325Y-67977665D01*
X91739624Y-67964000D01*
X91669576Y-67964000D01*
X91600875Y-67977665D01*
X91536160Y-68004471D01*
X91477918Y-68043387D01*
X91428387Y-68092918D01*
X91389471Y-68151160D01*
X91362665Y-68215875D01*
X91349000Y-68284576D01*
X88502386Y-68284576D01*
X88171419Y-67953609D01*
X88163473Y-67943927D01*
X88153791Y-67935981D01*
X88153788Y-67935978D01*
X88141323Y-67925749D01*
X88124797Y-67912186D01*
X88080672Y-67888600D01*
X88054557Y-67880678D01*
X89748800Y-67880678D01*
X89748800Y-67945722D01*
X89761489Y-68009516D01*
X89786380Y-68069608D01*
X89822517Y-68123690D01*
X89868510Y-68169683D01*
X89922592Y-68205820D01*
X89982684Y-68230711D01*
X90046478Y-68243400D01*
X90111522Y-68243400D01*
X90175316Y-68230711D01*
X90235408Y-68205820D01*
X90289490Y-68169683D01*
X90335483Y-68123690D01*
X90371620Y-68069608D01*
X90396511Y-68009516D01*
X90409200Y-67945722D01*
X90409200Y-67880678D01*
X90396511Y-67816884D01*
X90371620Y-67756792D01*
X90335483Y-67702710D01*
X90289490Y-67656717D01*
X90235408Y-67620580D01*
X90175316Y-67595689D01*
X90169007Y-67594434D01*
X91086271Y-67594434D01*
X91086271Y-67664482D01*
X91099936Y-67733183D01*
X91126742Y-67797898D01*
X91165658Y-67856140D01*
X91215189Y-67905671D01*
X91273431Y-67944587D01*
X91338146Y-67971393D01*
X91406847Y-67985058D01*
X91476895Y-67985058D01*
X91545596Y-67971393D01*
X91610311Y-67944587D01*
X91668553Y-67905671D01*
X91718084Y-67856140D01*
X91757000Y-67797898D01*
X91783806Y-67733183D01*
X91797471Y-67664482D01*
X91797471Y-67594434D01*
X91783806Y-67525733D01*
X91757000Y-67461018D01*
X91718084Y-67402776D01*
X91668553Y-67353245D01*
X91610311Y-67314329D01*
X91545596Y-67287523D01*
X91476895Y-67273858D01*
X91406847Y-67273858D01*
X91338146Y-67287523D01*
X91273431Y-67314329D01*
X91215189Y-67353245D01*
X91165658Y-67402776D01*
X91126742Y-67461018D01*
X91099936Y-67525733D01*
X91086271Y-67594434D01*
X90169007Y-67594434D01*
X90111522Y-67583000D01*
X90046478Y-67583000D01*
X89982684Y-67595689D01*
X89922592Y-67620580D01*
X89868510Y-67656717D01*
X89822517Y-67702710D01*
X89786380Y-67756792D01*
X89761489Y-67816884D01*
X89748800Y-67880678D01*
X88054557Y-67880678D01*
X88032793Y-67874076D01*
X87995469Y-67870400D01*
X87995458Y-67870400D01*
X87983000Y-67869173D01*
X87970542Y-67870400D01*
X85920210Y-67870400D01*
X85671000Y-67621190D01*
X85671000Y-67617678D01*
X85658311Y-67553884D01*
X85633420Y-67493792D01*
X85597283Y-67439710D01*
X85551290Y-67393717D01*
X85497208Y-67357580D01*
X85437116Y-67332689D01*
X85373322Y-67320000D01*
X85308278Y-67320000D01*
X85244484Y-67332689D01*
X85184392Y-67357580D01*
X85130310Y-67393717D01*
X85084317Y-67439710D01*
X85048180Y-67493792D01*
X85023289Y-67553884D01*
X85010600Y-67617678D01*
X85010600Y-67682722D01*
X85023289Y-67746516D01*
X85048180Y-67806608D01*
X85084317Y-67860690D01*
X85130310Y-67906683D01*
X85184392Y-67942820D01*
X85244484Y-67967711D01*
X85308278Y-67980400D01*
X85311790Y-67980400D01*
X85626581Y-68295191D01*
X85634527Y-68304873D01*
X85644209Y-68312819D01*
X85644211Y-68312821D01*
X85673203Y-68336614D01*
X85717328Y-68360200D01*
X85765207Y-68374724D01*
X85802531Y-68378400D01*
X85802541Y-68378400D01*
X85814999Y-68379627D01*
X85827457Y-68378400D01*
X87107242Y-68378400D01*
X87094000Y-68444976D01*
X87094000Y-68515024D01*
X87107665Y-68583725D01*
X87134471Y-68648440D01*
X87164750Y-68693755D01*
X87158861Y-68699644D01*
X87153620Y-68686992D01*
X87117483Y-68632910D01*
X87071490Y-68586917D01*
X87017408Y-68550780D01*
X86957316Y-68525889D01*
X86893522Y-68513200D01*
X86828478Y-68513200D01*
X86764684Y-68525889D01*
X86704592Y-68550780D01*
X86650510Y-68586917D01*
X86604517Y-68632910D01*
X86568380Y-68686992D01*
X86543489Y-68747084D01*
X86530800Y-68810878D01*
X86530800Y-68875922D01*
X86543489Y-68939716D01*
X86568380Y-68999808D01*
X86581600Y-69019593D01*
X86581600Y-69173084D01*
X86580249Y-69186800D01*
X86581600Y-69200515D01*
X86585644Y-69241571D01*
X86601620Y-69294238D01*
X86627564Y-69342777D01*
X86662479Y-69385321D01*
X86673141Y-69394071D01*
X87228268Y-69949200D01*
X82961698Y-69949200D01*
X82967735Y-69934625D01*
X82981400Y-69865924D01*
X82981400Y-69795876D01*
X82967735Y-69727175D01*
X82940929Y-69662460D01*
X82902013Y-69604218D01*
X82852482Y-69554687D01*
X82794240Y-69515771D01*
X82729525Y-69488965D01*
X82660824Y-69475300D01*
X82590776Y-69475300D01*
X82522075Y-69488965D01*
X82457360Y-69515771D01*
X82399118Y-69554687D01*
X82349587Y-69604218D01*
X82310671Y-69662460D01*
X82283865Y-69727175D01*
X82270200Y-69795876D01*
X82270200Y-69865924D01*
X82283865Y-69934625D01*
X82289902Y-69949200D01*
X79700800Y-69949200D01*
X79700800Y-69311503D01*
X85770273Y-69311503D01*
X85770273Y-69381551D01*
X85783938Y-69450252D01*
X85810744Y-69514967D01*
X85849660Y-69573209D01*
X85899191Y-69622740D01*
X85957433Y-69661656D01*
X86022148Y-69688462D01*
X86090849Y-69702127D01*
X86160897Y-69702127D01*
X86229598Y-69688462D01*
X86294313Y-69661656D01*
X86352555Y-69622740D01*
X86402086Y-69573209D01*
X86441002Y-69514967D01*
X86467808Y-69450252D01*
X86481473Y-69381551D01*
X86481473Y-69311503D01*
X86467808Y-69242802D01*
X86441002Y-69178087D01*
X86402086Y-69119845D01*
X86352555Y-69070314D01*
X86294313Y-69031398D01*
X86229598Y-69004592D01*
X86160897Y-68990927D01*
X86090849Y-68990927D01*
X86022148Y-69004592D01*
X85957433Y-69031398D01*
X85899191Y-69070314D01*
X85849660Y-69119845D01*
X85810744Y-69178087D01*
X85783938Y-69242802D01*
X85770273Y-69311503D01*
X79700800Y-69311503D01*
X79700800Y-68487776D01*
X81152600Y-68487776D01*
X81152600Y-68557824D01*
X81166265Y-68626525D01*
X81193071Y-68691240D01*
X81231987Y-68749482D01*
X81281518Y-68799013D01*
X81339760Y-68837929D01*
X81404475Y-68864735D01*
X81473176Y-68878400D01*
X81543224Y-68878400D01*
X81611925Y-68864735D01*
X81676640Y-68837929D01*
X81734882Y-68799013D01*
X81784413Y-68749482D01*
X81823329Y-68691240D01*
X81850135Y-68626525D01*
X81863800Y-68557824D01*
X81863800Y-68487776D01*
X81850135Y-68419075D01*
X81823329Y-68354360D01*
X81784413Y-68296118D01*
X81734882Y-68246587D01*
X81676640Y-68207671D01*
X81611925Y-68180865D01*
X81543224Y-68167200D01*
X81473176Y-68167200D01*
X81404475Y-68180865D01*
X81339760Y-68207671D01*
X81281518Y-68246587D01*
X81231987Y-68296118D01*
X81193071Y-68354360D01*
X81166265Y-68419075D01*
X81152600Y-68487776D01*
X79700800Y-68487776D01*
X79700800Y-67649576D01*
X80860500Y-67649576D01*
X80860500Y-67719624D01*
X80874165Y-67788325D01*
X80900971Y-67853040D01*
X80939887Y-67911282D01*
X80989418Y-67960813D01*
X81047660Y-67999729D01*
X81112375Y-68026535D01*
X81181076Y-68040200D01*
X81251124Y-68040200D01*
X81319825Y-68026535D01*
X81384540Y-67999729D01*
X81442782Y-67960813D01*
X81492313Y-67911282D01*
X81531229Y-67853040D01*
X81558035Y-67788325D01*
X81571700Y-67719624D01*
X81571700Y-67649576D01*
X81558035Y-67580875D01*
X81531229Y-67516160D01*
X81492313Y-67457918D01*
X81471171Y-67436776D01*
X82979200Y-67436776D01*
X82979200Y-67506824D01*
X82992865Y-67575525D01*
X83019671Y-67640240D01*
X83058587Y-67698482D01*
X83108118Y-67748013D01*
X83166360Y-67786929D01*
X83231075Y-67813735D01*
X83299776Y-67827400D01*
X83369824Y-67827400D01*
X83436400Y-67814158D01*
X83436400Y-67837024D01*
X83450065Y-67905725D01*
X83476871Y-67970440D01*
X83515787Y-68028682D01*
X83565318Y-68078213D01*
X83623560Y-68117129D01*
X83688275Y-68143935D01*
X83756976Y-68157600D01*
X83827024Y-68157600D01*
X83895725Y-68143935D01*
X83960440Y-68117129D01*
X84018682Y-68078213D01*
X84068213Y-68028682D01*
X84107129Y-67970440D01*
X84133935Y-67905725D01*
X84147600Y-67837024D01*
X84147600Y-67766976D01*
X84133935Y-67698275D01*
X84107129Y-67633560D01*
X84068213Y-67575318D01*
X84018682Y-67525787D01*
X83960440Y-67486871D01*
X83895725Y-67460065D01*
X83827024Y-67446400D01*
X83756976Y-67446400D01*
X83690400Y-67459642D01*
X83690400Y-67436776D01*
X83676735Y-67368075D01*
X83654617Y-67314676D01*
X86687600Y-67314676D01*
X86687600Y-67384724D01*
X86701265Y-67453425D01*
X86728071Y-67518140D01*
X86766987Y-67576382D01*
X86816518Y-67625913D01*
X86874760Y-67664829D01*
X86939475Y-67691635D01*
X87008176Y-67705300D01*
X87078224Y-67705300D01*
X87146925Y-67691635D01*
X87211640Y-67664829D01*
X87269882Y-67625913D01*
X87319413Y-67576382D01*
X87358329Y-67518140D01*
X87385135Y-67453425D01*
X87398800Y-67384724D01*
X87398800Y-67314676D01*
X87385135Y-67245975D01*
X87358329Y-67181260D01*
X87319413Y-67123018D01*
X87269882Y-67073487D01*
X87211640Y-67034571D01*
X87146925Y-67007765D01*
X87078224Y-66994100D01*
X87008176Y-66994100D01*
X86939475Y-67007765D01*
X86874760Y-67034571D01*
X86816518Y-67073487D01*
X86766987Y-67123018D01*
X86728071Y-67181260D01*
X86701265Y-67245975D01*
X86687600Y-67314676D01*
X83654617Y-67314676D01*
X83649929Y-67303360D01*
X83611013Y-67245118D01*
X83561482Y-67195587D01*
X83503240Y-67156671D01*
X83438525Y-67129865D01*
X83369824Y-67116200D01*
X83299776Y-67116200D01*
X83231075Y-67129865D01*
X83166360Y-67156671D01*
X83108118Y-67195587D01*
X83058587Y-67245118D01*
X83019671Y-67303360D01*
X82992865Y-67368075D01*
X82979200Y-67436776D01*
X81471171Y-67436776D01*
X81442782Y-67408387D01*
X81384540Y-67369471D01*
X81319825Y-67342665D01*
X81251124Y-67329000D01*
X81181076Y-67329000D01*
X81112375Y-67342665D01*
X81047660Y-67369471D01*
X80989418Y-67408387D01*
X80939887Y-67457918D01*
X80900971Y-67516160D01*
X80874165Y-67580875D01*
X80860500Y-67649576D01*
X79700800Y-67649576D01*
X79700800Y-66467776D01*
X86577600Y-66467776D01*
X86577600Y-66537824D01*
X86591265Y-66606525D01*
X86618071Y-66671240D01*
X86656987Y-66729482D01*
X86706518Y-66779013D01*
X86764760Y-66817929D01*
X86829475Y-66844735D01*
X86892550Y-66857281D01*
X86920834Y-66885565D01*
X86929580Y-66896222D01*
X86972123Y-66931136D01*
X86972124Y-66931137D01*
X87020662Y-66957081D01*
X87073329Y-66973057D01*
X87128101Y-66978452D01*
X87141817Y-66977101D01*
X91046983Y-66977101D01*
X91060699Y-66978452D01*
X91074415Y-66977101D01*
X91115471Y-66973057D01*
X91168138Y-66957081D01*
X91216676Y-66931137D01*
X91259220Y-66896222D01*
X91267970Y-66885560D01*
X92056478Y-66097053D01*
X92079816Y-66092411D01*
X92139908Y-66067520D01*
X92193990Y-66031383D01*
X92239983Y-65985390D01*
X92276120Y-65931308D01*
X92301011Y-65871216D01*
X92313700Y-65807422D01*
X92313700Y-65742378D01*
X92301011Y-65678584D01*
X92276120Y-65618492D01*
X92239983Y-65564410D01*
X92193990Y-65518417D01*
X92139908Y-65482280D01*
X92079816Y-65457389D01*
X92016022Y-65444700D01*
X91950978Y-65444700D01*
X91887184Y-65457389D01*
X91827092Y-65482280D01*
X91773010Y-65518417D01*
X91727017Y-65564410D01*
X91690880Y-65618492D01*
X91665989Y-65678584D01*
X91661347Y-65701922D01*
X91168957Y-66194313D01*
X91133213Y-66140818D01*
X91083682Y-66091287D01*
X91025440Y-66052371D01*
X90960725Y-66025565D01*
X90892024Y-66011900D01*
X90821976Y-66011900D01*
X90753275Y-66025565D01*
X90688560Y-66052371D01*
X90630318Y-66091287D01*
X90580787Y-66140818D01*
X90541871Y-66199060D01*
X90515065Y-66263775D01*
X90501400Y-66332476D01*
X90501400Y-66402524D01*
X90504538Y-66418301D01*
X88160562Y-66418301D01*
X88163700Y-66402524D01*
X88163700Y-66332476D01*
X88150035Y-66263775D01*
X88123229Y-66199060D01*
X88084313Y-66140818D01*
X88070892Y-66127397D01*
X88088440Y-66120129D01*
X88146682Y-66081213D01*
X88196213Y-66031682D01*
X88235129Y-65973440D01*
X88261935Y-65908725D01*
X88275600Y-65840024D01*
X88275600Y-65769976D01*
X88261935Y-65701275D01*
X88235129Y-65636560D01*
X88196213Y-65578318D01*
X88161773Y-65543878D01*
X90104400Y-65543878D01*
X90104400Y-65608922D01*
X90117089Y-65672716D01*
X90141980Y-65732808D01*
X90178117Y-65786890D01*
X90224110Y-65832883D01*
X90278192Y-65869020D01*
X90338284Y-65893911D01*
X90402078Y-65906600D01*
X90467122Y-65906600D01*
X90530916Y-65893911D01*
X90591008Y-65869020D01*
X90645090Y-65832883D01*
X90691083Y-65786890D01*
X90727220Y-65732808D01*
X90752111Y-65672716D01*
X90764800Y-65608922D01*
X90764800Y-65543878D01*
X90752111Y-65480084D01*
X90727220Y-65419992D01*
X90691083Y-65365910D01*
X90645090Y-65319917D01*
X90591008Y-65283780D01*
X90530916Y-65258889D01*
X90467122Y-65246200D01*
X90402078Y-65246200D01*
X90338284Y-65258889D01*
X90278192Y-65283780D01*
X90224110Y-65319917D01*
X90178117Y-65365910D01*
X90141980Y-65419992D01*
X90117089Y-65480084D01*
X90104400Y-65543878D01*
X88161773Y-65543878D01*
X88146682Y-65528787D01*
X88088440Y-65489871D01*
X88023725Y-65463065D01*
X87955024Y-65449400D01*
X87884976Y-65449400D01*
X87816275Y-65463065D01*
X87751560Y-65489871D01*
X87693318Y-65528787D01*
X87643787Y-65578318D01*
X87604871Y-65636560D01*
X87578065Y-65701275D01*
X87567684Y-65753466D01*
X87541125Y-65742465D01*
X87472424Y-65728800D01*
X87402376Y-65728800D01*
X87333675Y-65742465D01*
X87268960Y-65769271D01*
X87210718Y-65808187D01*
X87161187Y-65857718D01*
X87122271Y-65915960D01*
X87095465Y-65980675D01*
X87081800Y-66049376D01*
X87081800Y-66119424D01*
X87094812Y-66184843D01*
X87036925Y-66160865D01*
X86968224Y-66147200D01*
X86898176Y-66147200D01*
X86829475Y-66160865D01*
X86764760Y-66187671D01*
X86706518Y-66226587D01*
X86656987Y-66276118D01*
X86618071Y-66334360D01*
X86591265Y-66399075D01*
X86577600Y-66467776D01*
X79700800Y-66467776D01*
X79700800Y-65219176D01*
X81836200Y-65219176D01*
X81836200Y-65289224D01*
X81849865Y-65357925D01*
X81876671Y-65422640D01*
X81915587Y-65480882D01*
X81965118Y-65530413D01*
X81970429Y-65533962D01*
X81944166Y-65573268D01*
X81917360Y-65637983D01*
X81903695Y-65706684D01*
X81903695Y-65776732D01*
X81917360Y-65845433D01*
X81944166Y-65910148D01*
X81983082Y-65968390D01*
X82032613Y-66017921D01*
X82090855Y-66056837D01*
X82155570Y-66083643D01*
X82224271Y-66097308D01*
X82294319Y-66097308D01*
X82363020Y-66083643D01*
X82427735Y-66056837D01*
X82485977Y-66017921D01*
X82535508Y-65968390D01*
X82574424Y-65910148D01*
X82601230Y-65845433D01*
X82614895Y-65776732D01*
X82614895Y-65706684D01*
X82601230Y-65637983D01*
X82574424Y-65573268D01*
X82535508Y-65515026D01*
X82485977Y-65465495D01*
X82480666Y-65461946D01*
X82506929Y-65422640D01*
X82533735Y-65357925D01*
X82547400Y-65289224D01*
X82547400Y-65219176D01*
X82533735Y-65150475D01*
X82506929Y-65085760D01*
X82468013Y-65027518D01*
X82418482Y-64977987D01*
X82360240Y-64939071D01*
X82342629Y-64931776D01*
X83095700Y-64931776D01*
X83095700Y-65001824D01*
X83109365Y-65070525D01*
X83136171Y-65135240D01*
X83175087Y-65193482D01*
X83224618Y-65243013D01*
X83282860Y-65281929D01*
X83347575Y-65308735D01*
X83416276Y-65322400D01*
X83432117Y-65322400D01*
X83432117Y-65333399D01*
X83444056Y-65393424D01*
X83426005Y-65405486D01*
X83376474Y-65455017D01*
X83337558Y-65513259D01*
X83310752Y-65577974D01*
X83297087Y-65646675D01*
X83297087Y-65716723D01*
X83310752Y-65785424D01*
X83337558Y-65850139D01*
X83376474Y-65908381D01*
X83426005Y-65957912D01*
X83484247Y-65996828D01*
X83548962Y-66023634D01*
X83617663Y-66037299D01*
X83687711Y-66037299D01*
X83756412Y-66023634D01*
X83821127Y-65996828D01*
X83879369Y-65957912D01*
X83911812Y-65925469D01*
X83938831Y-65952488D01*
X83997073Y-65991404D01*
X84061788Y-66018210D01*
X84110000Y-66027800D01*
X84110000Y-66041499D01*
X84123665Y-66110200D01*
X84150471Y-66174915D01*
X84189387Y-66233157D01*
X84238918Y-66282688D01*
X84297160Y-66321604D01*
X84361875Y-66348410D01*
X84430576Y-66362075D01*
X84500624Y-66362075D01*
X84569325Y-66348410D01*
X84634040Y-66321604D01*
X84692282Y-66282688D01*
X84741813Y-66233157D01*
X84780729Y-66174915D01*
X84807535Y-66110200D01*
X84821200Y-66041499D01*
X84821200Y-65971451D01*
X84807535Y-65902750D01*
X84780729Y-65838035D01*
X84741813Y-65779793D01*
X84692282Y-65730262D01*
X84634040Y-65691346D01*
X84604856Y-65679257D01*
X84648440Y-65661204D01*
X84706682Y-65622288D01*
X84756213Y-65572757D01*
X84795129Y-65514515D01*
X84821935Y-65449800D01*
X84835600Y-65381099D01*
X84835600Y-65311051D01*
X84821935Y-65242350D01*
X84795129Y-65177635D01*
X84756213Y-65119393D01*
X84706682Y-65069862D01*
X84648440Y-65030946D01*
X84583725Y-65004140D01*
X84530800Y-64993613D01*
X84530800Y-64967336D01*
X84517135Y-64898635D01*
X84490329Y-64833920D01*
X84451413Y-64775678D01*
X84401882Y-64726147D01*
X84343640Y-64687231D01*
X84278925Y-64660425D01*
X84210224Y-64646760D01*
X84140176Y-64646760D01*
X84071475Y-64660425D01*
X84006760Y-64687231D01*
X83948518Y-64726147D01*
X83898987Y-64775678D01*
X83860071Y-64833920D01*
X83833265Y-64898635D01*
X83824419Y-64943109D01*
X83822741Y-64942775D01*
X83806900Y-64942775D01*
X83806900Y-64931776D01*
X83793235Y-64863075D01*
X83766429Y-64798360D01*
X83727513Y-64740118D01*
X83677982Y-64690587D01*
X83619740Y-64651671D01*
X83555025Y-64624865D01*
X83486324Y-64611200D01*
X83416276Y-64611200D01*
X83347575Y-64624865D01*
X83282860Y-64651671D01*
X83224618Y-64690587D01*
X83175087Y-64740118D01*
X83136171Y-64798360D01*
X83109365Y-64863075D01*
X83095700Y-64931776D01*
X82342629Y-64931776D01*
X82295525Y-64912265D01*
X82226824Y-64898600D01*
X82156776Y-64898600D01*
X82088075Y-64912265D01*
X82023360Y-64939071D01*
X81965118Y-64977987D01*
X81915587Y-65027518D01*
X81876671Y-65085760D01*
X81849865Y-65150475D01*
X81836200Y-65219176D01*
X79700800Y-65219176D01*
X79700800Y-64454576D01*
X85190400Y-64454576D01*
X85190400Y-64524624D01*
X85204065Y-64593325D01*
X85230871Y-64658040D01*
X85269787Y-64716282D01*
X85319318Y-64765813D01*
X85377560Y-64804729D01*
X85442275Y-64831535D01*
X85510976Y-64845200D01*
X85581024Y-64845200D01*
X85649725Y-64831535D01*
X85714440Y-64804729D01*
X85772682Y-64765813D01*
X85822213Y-64716282D01*
X85861129Y-64658040D01*
X85887935Y-64593325D01*
X85901600Y-64524624D01*
X85901600Y-64454576D01*
X85887935Y-64385875D01*
X85861129Y-64321160D01*
X85822213Y-64262918D01*
X85772682Y-64213387D01*
X85714440Y-64174471D01*
X85649725Y-64147665D01*
X85581024Y-64134000D01*
X85510976Y-64134000D01*
X85442275Y-64147665D01*
X85377560Y-64174471D01*
X85319318Y-64213387D01*
X85269787Y-64262918D01*
X85230871Y-64321160D01*
X85204065Y-64385875D01*
X85190400Y-64454576D01*
X79700800Y-64454576D01*
X79700800Y-64073199D01*
X79719871Y-64119240D01*
X79758787Y-64177482D01*
X79808318Y-64227013D01*
X79866560Y-64265929D01*
X79931275Y-64292735D01*
X79999976Y-64306400D01*
X80070024Y-64306400D01*
X80138725Y-64292735D01*
X80203440Y-64265929D01*
X80261682Y-64227013D01*
X80311213Y-64177482D01*
X80350129Y-64119240D01*
X80376935Y-64054525D01*
X80390600Y-63985824D01*
X80390600Y-63915776D01*
X80376935Y-63847075D01*
X80350129Y-63782360D01*
X80311213Y-63724118D01*
X80261682Y-63674587D01*
X80203440Y-63635671D01*
X80138725Y-63608865D01*
X80070024Y-63595200D01*
X79999976Y-63595200D01*
X79931275Y-63608865D01*
X79866560Y-63635671D01*
X79808318Y-63674587D01*
X79758787Y-63724118D01*
X79719871Y-63782360D01*
X79700800Y-63828401D01*
X79700800Y-63001895D01*
X79744818Y-63045913D01*
X79803060Y-63084829D01*
X79867775Y-63111635D01*
X79936476Y-63125300D01*
X80006524Y-63125300D01*
X80075225Y-63111635D01*
X80139940Y-63084829D01*
X80198182Y-63045913D01*
X80247713Y-62996382D01*
X80286629Y-62938140D01*
X80313435Y-62873425D01*
X80327100Y-62804724D01*
X80327100Y-62798176D01*
X80758900Y-62798176D01*
X80758900Y-62868224D01*
X80772565Y-62936925D01*
X80799371Y-63001640D01*
X80838287Y-63059882D01*
X80887818Y-63109413D01*
X80933894Y-63140200D01*
X80887818Y-63170987D01*
X80838287Y-63220518D01*
X80799371Y-63278760D01*
X80772565Y-63343475D01*
X80758900Y-63412176D01*
X80758900Y-63482224D01*
X80772565Y-63550925D01*
X80799371Y-63615640D01*
X80838287Y-63673882D01*
X80887818Y-63723413D01*
X80946060Y-63762329D01*
X81010775Y-63789135D01*
X81079476Y-63802800D01*
X81149524Y-63802800D01*
X81218225Y-63789135D01*
X81282940Y-63762329D01*
X81341182Y-63723413D01*
X81390713Y-63673882D01*
X81429629Y-63615640D01*
X81456435Y-63550925D01*
X81469751Y-63483978D01*
X83271800Y-63483978D01*
X83271800Y-63554026D01*
X83285465Y-63622727D01*
X83312271Y-63687442D01*
X83351187Y-63745684D01*
X83400718Y-63795215D01*
X83458960Y-63834131D01*
X83523675Y-63860937D01*
X83592376Y-63874602D01*
X83662424Y-63874602D01*
X83731125Y-63860937D01*
X83795840Y-63834131D01*
X83854082Y-63795215D01*
X83861687Y-63787610D01*
X83884587Y-63821882D01*
X83934118Y-63871413D01*
X83992360Y-63910329D01*
X84057075Y-63937135D01*
X84125776Y-63950800D01*
X84195824Y-63950800D01*
X84264525Y-63937135D01*
X84329240Y-63910329D01*
X84382712Y-63874600D01*
X84837542Y-63874600D01*
X84850000Y-63875827D01*
X84862458Y-63874600D01*
X84862469Y-63874600D01*
X84899793Y-63870924D01*
X84947672Y-63856400D01*
X84991797Y-63832814D01*
X85008323Y-63819251D01*
X85020788Y-63809022D01*
X85020791Y-63809019D01*
X85030473Y-63801073D01*
X85038419Y-63791391D01*
X85333134Y-63496676D01*
X86258667Y-63496676D01*
X86258667Y-63566724D01*
X86272332Y-63635425D01*
X86299138Y-63700140D01*
X86338054Y-63758382D01*
X86387585Y-63807913D01*
X86445827Y-63846829D01*
X86510542Y-63873635D01*
X86579243Y-63887300D01*
X86649291Y-63887300D01*
X86717992Y-63873635D01*
X86782707Y-63846829D01*
X86840949Y-63807913D01*
X86890480Y-63758382D01*
X86919414Y-63715078D01*
X88605800Y-63715078D01*
X88605800Y-63780122D01*
X88618489Y-63843916D01*
X88643380Y-63904008D01*
X88679517Y-63958090D01*
X88725510Y-64004083D01*
X88779592Y-64040220D01*
X88839684Y-64065111D01*
X88903478Y-64077800D01*
X88968522Y-64077800D01*
X89032316Y-64065111D01*
X89092408Y-64040220D01*
X89146490Y-64004083D01*
X89192483Y-63958090D01*
X89197263Y-63950936D01*
X89233010Y-63986683D01*
X89287092Y-64022820D01*
X89347184Y-64047711D01*
X89410978Y-64060400D01*
X89476022Y-64060400D01*
X89539816Y-64047711D01*
X89599908Y-64022820D01*
X89619693Y-64009600D01*
X91004170Y-64009600D01*
X91304195Y-64309625D01*
X91256260Y-64329481D01*
X91198018Y-64368397D01*
X91148487Y-64417928D01*
X91109571Y-64476170D01*
X91082765Y-64540885D01*
X91069100Y-64609586D01*
X91069100Y-64679634D01*
X91082765Y-64748335D01*
X91109571Y-64813050D01*
X91148487Y-64871292D01*
X91198018Y-64920823D01*
X91256260Y-64959739D01*
X91320975Y-64986545D01*
X91389676Y-65000210D01*
X91459724Y-65000210D01*
X91528425Y-64986545D01*
X91593140Y-64959739D01*
X91651382Y-64920823D01*
X91700913Y-64871292D01*
X91739829Y-64813050D01*
X91759684Y-64765115D01*
X91825556Y-64830986D01*
X91808067Y-64857160D01*
X91781261Y-64921875D01*
X91767596Y-64990576D01*
X91767596Y-65060624D01*
X91781261Y-65129325D01*
X91808067Y-65194040D01*
X91846983Y-65252282D01*
X91896514Y-65301813D01*
X91954756Y-65340729D01*
X92019471Y-65367535D01*
X92088172Y-65381200D01*
X92158220Y-65381200D01*
X92226921Y-65367535D01*
X92291636Y-65340729D01*
X92349878Y-65301813D01*
X92399409Y-65252282D01*
X92438325Y-65194040D01*
X92465131Y-65129325D01*
X92478796Y-65060624D01*
X92478796Y-64990576D01*
X92465131Y-64921875D01*
X92438325Y-64857160D01*
X92402596Y-64803688D01*
X92402596Y-64747212D01*
X92403947Y-64733496D01*
X92399721Y-64690587D01*
X92398552Y-64678724D01*
X92382576Y-64626057D01*
X92356632Y-64577519D01*
X92321717Y-64534975D01*
X92311060Y-64526229D01*
X91327171Y-63542341D01*
X91318421Y-63531679D01*
X91275877Y-63496764D01*
X91227339Y-63470820D01*
X91174672Y-63454844D01*
X91133616Y-63450800D01*
X91119900Y-63449449D01*
X91106184Y-63450800D01*
X89619693Y-63450800D01*
X89599908Y-63437580D01*
X89539816Y-63412689D01*
X89476022Y-63400000D01*
X89410978Y-63400000D01*
X89347184Y-63412689D01*
X89287092Y-63437580D01*
X89233010Y-63473717D01*
X89187017Y-63519710D01*
X89182237Y-63526864D01*
X89146490Y-63491117D01*
X89092408Y-63454980D01*
X89032316Y-63430089D01*
X88968522Y-63417400D01*
X88903478Y-63417400D01*
X88839684Y-63430089D01*
X88779592Y-63454980D01*
X88725510Y-63491117D01*
X88679517Y-63537110D01*
X88643380Y-63591192D01*
X88618489Y-63651284D01*
X88605800Y-63715078D01*
X86919414Y-63715078D01*
X86929396Y-63700140D01*
X86956202Y-63635425D01*
X86969353Y-63569306D01*
X87023076Y-63579992D01*
X87093124Y-63579992D01*
X87161825Y-63566327D01*
X87226540Y-63539521D01*
X87284782Y-63500605D01*
X87291246Y-63494141D01*
X87323318Y-63526213D01*
X87381560Y-63565129D01*
X87446275Y-63591935D01*
X87514976Y-63605600D01*
X87585024Y-63605600D01*
X87653725Y-63591935D01*
X87718440Y-63565129D01*
X87776682Y-63526213D01*
X87826213Y-63476682D01*
X87865129Y-63418440D01*
X87891935Y-63353725D01*
X87905600Y-63285024D01*
X87905600Y-63214976D01*
X87891935Y-63146275D01*
X87865129Y-63081560D01*
X87826213Y-63023318D01*
X87776682Y-62973787D01*
X87753918Y-62958576D01*
X91234200Y-62958576D01*
X91234200Y-63028624D01*
X91247865Y-63097325D01*
X91274671Y-63162040D01*
X91313587Y-63220282D01*
X91363118Y-63269813D01*
X91421360Y-63308729D01*
X91486075Y-63335535D01*
X91554776Y-63349200D01*
X91624824Y-63349200D01*
X91693525Y-63335535D01*
X91758240Y-63308729D01*
X91816482Y-63269813D01*
X91866013Y-63220282D01*
X91904929Y-63162040D01*
X91931735Y-63097325D01*
X91945400Y-63028624D01*
X91945400Y-62958576D01*
X91931735Y-62889875D01*
X91904929Y-62825160D01*
X91866013Y-62766918D01*
X91816482Y-62717387D01*
X91758240Y-62678471D01*
X91693525Y-62651665D01*
X91624824Y-62638000D01*
X91554776Y-62638000D01*
X91486075Y-62651665D01*
X91421360Y-62678471D01*
X91363118Y-62717387D01*
X91313587Y-62766918D01*
X91274671Y-62825160D01*
X91247865Y-62889875D01*
X91234200Y-62958576D01*
X87753918Y-62958576D01*
X87735924Y-62946553D01*
X87765020Y-62903008D01*
X87789911Y-62842916D01*
X87802600Y-62779122D01*
X87802600Y-62775610D01*
X88321210Y-62257000D01*
X89583442Y-62257000D01*
X89595900Y-62258227D01*
X89608358Y-62257000D01*
X89608369Y-62257000D01*
X89645693Y-62253324D01*
X89693572Y-62238800D01*
X89737697Y-62215214D01*
X89754223Y-62201651D01*
X89766688Y-62191422D01*
X89766691Y-62191419D01*
X89770142Y-62188586D01*
X91320598Y-62188586D01*
X91320598Y-62258634D01*
X91334263Y-62327335D01*
X91361069Y-62392050D01*
X91399985Y-62450292D01*
X91449516Y-62499823D01*
X91507758Y-62538739D01*
X91572473Y-62565545D01*
X91641174Y-62579210D01*
X91711222Y-62579210D01*
X91779923Y-62565545D01*
X91844638Y-62538739D01*
X91902880Y-62499823D01*
X91952411Y-62450292D01*
X91991327Y-62392050D01*
X92018133Y-62327335D01*
X92031798Y-62258634D01*
X92031798Y-62188586D01*
X92018133Y-62119885D01*
X91991327Y-62055170D01*
X91952411Y-61996928D01*
X91902880Y-61947397D01*
X91844638Y-61908481D01*
X91779923Y-61881675D01*
X91711222Y-61868010D01*
X91641174Y-61868010D01*
X91572473Y-61881675D01*
X91507758Y-61908481D01*
X91449516Y-61947397D01*
X91399985Y-61996928D01*
X91361069Y-62055170D01*
X91334263Y-62119885D01*
X91320598Y-62188586D01*
X89770142Y-62188586D01*
X89776373Y-62183473D01*
X89784321Y-62173789D01*
X90090641Y-61867469D01*
X90117917Y-61908290D01*
X90163910Y-61954283D01*
X90217992Y-61990420D01*
X90278084Y-62015311D01*
X90341878Y-62028000D01*
X90406922Y-62028000D01*
X90470716Y-62015311D01*
X90530808Y-61990420D01*
X90584890Y-61954283D01*
X90630883Y-61908290D01*
X90667020Y-61854208D01*
X90691911Y-61794116D01*
X90704600Y-61730322D01*
X90704600Y-61665278D01*
X90691911Y-61601484D01*
X90667020Y-61541392D01*
X90630883Y-61487310D01*
X90584890Y-61441317D01*
X90544069Y-61414041D01*
X90582344Y-61375766D01*
X91259600Y-61375766D01*
X91259600Y-61445814D01*
X91273265Y-61514515D01*
X91300071Y-61579230D01*
X91338987Y-61637472D01*
X91388518Y-61687003D01*
X91446760Y-61725919D01*
X91511475Y-61752725D01*
X91580176Y-61766390D01*
X91650224Y-61766390D01*
X91718925Y-61752725D01*
X91783640Y-61725919D01*
X91841882Y-61687003D01*
X91891413Y-61637472D01*
X91930329Y-61579230D01*
X91957135Y-61514515D01*
X91970800Y-61445814D01*
X91970800Y-61375766D01*
X91957135Y-61307065D01*
X91930329Y-61242350D01*
X91891413Y-61184108D01*
X91841882Y-61134577D01*
X91783640Y-61095661D01*
X91718925Y-61068855D01*
X91650224Y-61055190D01*
X91580176Y-61055190D01*
X91511475Y-61068855D01*
X91446760Y-61095661D01*
X91388518Y-61134577D01*
X91338987Y-61184108D01*
X91300071Y-61242350D01*
X91273265Y-61307065D01*
X91259600Y-61375766D01*
X90582344Y-61375766D01*
X90933010Y-61025100D01*
X90996422Y-61025100D01*
X91018635Y-61047313D01*
X91076877Y-61086229D01*
X91141592Y-61113035D01*
X91210293Y-61126700D01*
X91280341Y-61126700D01*
X91349042Y-61113035D01*
X91413757Y-61086229D01*
X91471999Y-61047313D01*
X91521530Y-60997782D01*
X91560446Y-60939540D01*
X91587252Y-60874825D01*
X91597779Y-60821900D01*
X91663424Y-60821900D01*
X91732125Y-60808235D01*
X91796840Y-60781429D01*
X91855082Y-60742513D01*
X91904613Y-60692982D01*
X91943529Y-60634740D01*
X91970335Y-60570025D01*
X91984000Y-60501324D01*
X91984000Y-60431276D01*
X91970335Y-60362575D01*
X91943529Y-60297860D01*
X91904613Y-60239618D01*
X91855082Y-60190087D01*
X91796840Y-60151171D01*
X91732125Y-60124365D01*
X91663424Y-60110700D01*
X91593376Y-60110700D01*
X91524675Y-60124365D01*
X91459960Y-60151171D01*
X91401718Y-60190087D01*
X91379505Y-60212300D01*
X90738658Y-60212300D01*
X90726200Y-60211073D01*
X90713742Y-60212300D01*
X90713731Y-60212300D01*
X90676407Y-60215976D01*
X90628528Y-60230500D01*
X90613158Y-60238715D01*
X90592837Y-60249577D01*
X90567068Y-60211010D01*
X90517537Y-60161479D01*
X90459295Y-60122563D01*
X90394580Y-60095757D01*
X90325879Y-60082092D01*
X90255831Y-60082092D01*
X90187130Y-60095757D01*
X90122415Y-60122563D01*
X90064173Y-60161479D01*
X90014642Y-60211010D01*
X89975726Y-60269252D01*
X89948920Y-60333967D01*
X89935255Y-60402668D01*
X89935255Y-60472716D01*
X89948920Y-60541417D01*
X89975726Y-60606132D01*
X90014642Y-60664374D01*
X90064173Y-60713905D01*
X90097270Y-60736020D01*
X89385090Y-61448200D01*
X88631573Y-61448200D01*
X88629090Y-61445717D01*
X88575008Y-61409580D01*
X88514916Y-61384689D01*
X88451122Y-61372000D01*
X88386078Y-61372000D01*
X88322284Y-61384689D01*
X88262192Y-61409580D01*
X88208110Y-61445717D01*
X88162117Y-61491710D01*
X88125980Y-61545792D01*
X88101089Y-61605884D01*
X88088400Y-61669678D01*
X88088400Y-61734722D01*
X88097115Y-61778539D01*
X88074203Y-61790786D01*
X88045211Y-61814579D01*
X88045209Y-61814581D01*
X88035527Y-61822527D01*
X88027581Y-61832209D01*
X87443390Y-62416400D01*
X87439878Y-62416400D01*
X87376084Y-62429089D01*
X87315992Y-62453980D01*
X87261910Y-62490117D01*
X87215917Y-62536110D01*
X87179780Y-62590192D01*
X87154889Y-62650284D01*
X87142200Y-62714078D01*
X87142200Y-62779122D01*
X87154889Y-62842916D01*
X87173223Y-62887178D01*
X87161825Y-62882457D01*
X87093124Y-62868792D01*
X87023076Y-62868792D01*
X86954375Y-62882457D01*
X86889660Y-62909263D01*
X86831418Y-62948179D01*
X86781887Y-62997710D01*
X86742971Y-63055952D01*
X86716165Y-63120667D01*
X86703014Y-63186786D01*
X86649291Y-63176100D01*
X86579243Y-63176100D01*
X86510542Y-63189765D01*
X86445827Y-63216571D01*
X86387585Y-63255487D01*
X86338054Y-63305018D01*
X86299138Y-63363260D01*
X86272332Y-63427975D01*
X86258667Y-63496676D01*
X85333134Y-63496676D01*
X85857810Y-62972000D01*
X85861322Y-62972000D01*
X85925116Y-62959311D01*
X85985208Y-62934420D01*
X86039290Y-62898283D01*
X86085283Y-62852290D01*
X86121420Y-62798208D01*
X86146311Y-62738116D01*
X86159000Y-62674322D01*
X86159000Y-62609278D01*
X86146311Y-62545484D01*
X86121420Y-62485392D01*
X86085283Y-62431310D01*
X86039290Y-62385317D01*
X85985208Y-62349180D01*
X85925116Y-62324289D01*
X85861322Y-62311600D01*
X85796278Y-62311600D01*
X85732484Y-62324289D01*
X85672392Y-62349180D01*
X85618310Y-62385317D01*
X85572317Y-62431310D01*
X85536180Y-62485392D01*
X85511289Y-62545484D01*
X85498600Y-62609278D01*
X85498600Y-62612790D01*
X84744790Y-63366600D01*
X84435095Y-63366600D01*
X84433809Y-63365314D01*
X84465129Y-63318440D01*
X84491935Y-63253725D01*
X84505600Y-63185024D01*
X84505600Y-63114976D01*
X84491935Y-63046275D01*
X84465129Y-62981560D01*
X84426213Y-62923318D01*
X84376682Y-62873787D01*
X84318440Y-62834871D01*
X84253725Y-62808065D01*
X84185024Y-62794400D01*
X84114976Y-62794400D01*
X84046275Y-62808065D01*
X83981560Y-62834871D01*
X83923318Y-62873787D01*
X83873787Y-62923318D01*
X83834871Y-62981560D01*
X83808065Y-63046275D01*
X83794400Y-63114976D01*
X83794400Y-63185024D01*
X83798503Y-63205652D01*
X83795840Y-63203873D01*
X83731125Y-63177067D01*
X83662424Y-63163402D01*
X83592376Y-63163402D01*
X83523675Y-63177067D01*
X83458960Y-63203873D01*
X83400718Y-63242789D01*
X83351187Y-63292320D01*
X83312271Y-63350562D01*
X83285465Y-63415277D01*
X83271800Y-63483978D01*
X81469751Y-63483978D01*
X81470100Y-63482224D01*
X81470100Y-63412176D01*
X81456435Y-63343475D01*
X81429629Y-63278760D01*
X81390713Y-63220518D01*
X81341182Y-63170987D01*
X81295106Y-63140200D01*
X81341182Y-63109413D01*
X81390713Y-63059882D01*
X81429629Y-63001640D01*
X81456435Y-62936925D01*
X81470100Y-62868224D01*
X81470100Y-62798176D01*
X81456435Y-62729475D01*
X81429629Y-62664760D01*
X81390713Y-62606518D01*
X81341182Y-62556987D01*
X81282940Y-62518071D01*
X81218225Y-62491265D01*
X81149524Y-62477600D01*
X81079476Y-62477600D01*
X81010775Y-62491265D01*
X80946060Y-62518071D01*
X80887818Y-62556987D01*
X80838287Y-62606518D01*
X80799371Y-62664760D01*
X80772565Y-62729475D01*
X80758900Y-62798176D01*
X80327100Y-62798176D01*
X80327100Y-62734676D01*
X80313435Y-62665975D01*
X80286629Y-62601260D01*
X80247713Y-62543018D01*
X80198182Y-62493487D01*
X80139940Y-62454571D01*
X80075225Y-62427765D01*
X80006524Y-62414100D01*
X79936476Y-62414100D01*
X79867775Y-62427765D01*
X79803060Y-62454571D01*
X79744818Y-62493487D01*
X79700800Y-62537505D01*
X79700800Y-62175876D01*
X81787600Y-62175876D01*
X81787600Y-62245924D01*
X81801265Y-62314625D01*
X81828071Y-62379340D01*
X81866987Y-62437582D01*
X81916518Y-62487113D01*
X81974760Y-62526029D01*
X82039475Y-62552835D01*
X82108176Y-62566500D01*
X82178224Y-62566500D01*
X82246925Y-62552835D01*
X82311640Y-62526029D01*
X82369882Y-62487113D01*
X82419413Y-62437582D01*
X82458329Y-62379340D01*
X82485135Y-62314625D01*
X82498800Y-62245924D01*
X82498800Y-62175876D01*
X82485135Y-62107175D01*
X82458329Y-62042460D01*
X82419413Y-61984218D01*
X82369882Y-61934687D01*
X82311640Y-61895771D01*
X82246925Y-61868965D01*
X82178224Y-61855300D01*
X82108176Y-61855300D01*
X82039475Y-61868965D01*
X81974760Y-61895771D01*
X81916518Y-61934687D01*
X81866987Y-61984218D01*
X81828071Y-62042460D01*
X81801265Y-62107175D01*
X81787600Y-62175876D01*
X79700800Y-62175876D01*
X79700800Y-61705976D01*
X79831800Y-61705976D01*
X79831800Y-61776024D01*
X79845465Y-61844725D01*
X79872271Y-61909440D01*
X79911187Y-61967682D01*
X79960718Y-62017213D01*
X80018960Y-62056129D01*
X80083675Y-62082935D01*
X80152376Y-62096600D01*
X80222424Y-62096600D01*
X80291125Y-62082935D01*
X80355840Y-62056129D01*
X80414082Y-62017213D01*
X80463613Y-61967682D01*
X80502529Y-61909440D01*
X80529335Y-61844725D01*
X80543000Y-61776024D01*
X80543000Y-61705976D01*
X80529335Y-61637275D01*
X80502529Y-61572560D01*
X80463613Y-61514318D01*
X80414082Y-61464787D01*
X80355840Y-61425871D01*
X80291125Y-61399065D01*
X80222424Y-61385400D01*
X80152376Y-61385400D01*
X80083675Y-61399065D01*
X80018960Y-61425871D01*
X79960718Y-61464787D01*
X79911187Y-61514318D01*
X79872271Y-61572560D01*
X79845465Y-61637275D01*
X79831800Y-61705976D01*
X79700800Y-61705976D01*
X79700800Y-61215477D01*
X79740775Y-61232035D01*
X79809476Y-61245700D01*
X79879524Y-61245700D01*
X79948225Y-61232035D01*
X80012940Y-61205229D01*
X80071182Y-61166313D01*
X80120713Y-61116782D01*
X80159629Y-61058540D01*
X80186435Y-60993825D01*
X80191975Y-60965969D01*
X80775007Y-60965969D01*
X80775007Y-61036017D01*
X80788672Y-61104718D01*
X80815478Y-61169433D01*
X80854394Y-61227675D01*
X80903925Y-61277206D01*
X80962167Y-61316122D01*
X81026882Y-61342928D01*
X81095583Y-61356593D01*
X81165631Y-61356593D01*
X81234332Y-61342928D01*
X81299047Y-61316122D01*
X81357289Y-61277206D01*
X81406820Y-61227675D01*
X81445736Y-61169433D01*
X81472542Y-61104718D01*
X81486207Y-61036017D01*
X81486207Y-60982076D01*
X81711400Y-60982076D01*
X81711400Y-61052124D01*
X81725065Y-61120825D01*
X81751871Y-61185540D01*
X81790787Y-61243782D01*
X81840318Y-61293313D01*
X81898560Y-61332229D01*
X81963275Y-61359035D01*
X82002675Y-61366872D01*
X81990800Y-61426576D01*
X81990800Y-61496624D01*
X82004465Y-61565325D01*
X82031271Y-61630040D01*
X82070187Y-61688282D01*
X82119718Y-61737813D01*
X82177960Y-61776729D01*
X82242675Y-61803535D01*
X82311376Y-61817200D01*
X82381424Y-61817200D01*
X82450125Y-61803535D01*
X82514840Y-61776729D01*
X82573082Y-61737813D01*
X82622613Y-61688282D01*
X82661529Y-61630040D01*
X82688335Y-61565325D01*
X82702000Y-61496624D01*
X82702000Y-61426576D01*
X82688335Y-61357875D01*
X82661529Y-61293160D01*
X82622613Y-61234918D01*
X82573082Y-61185387D01*
X82514840Y-61146471D01*
X82450125Y-61119665D01*
X82410725Y-61111828D01*
X82422600Y-61052124D01*
X82422600Y-60982076D01*
X82408935Y-60913375D01*
X82382129Y-60848660D01*
X82343213Y-60790418D01*
X82293682Y-60740887D01*
X82235440Y-60701971D01*
X82170725Y-60675165D01*
X82102024Y-60661500D01*
X82031976Y-60661500D01*
X81963275Y-60675165D01*
X81898560Y-60701971D01*
X81840318Y-60740887D01*
X81790787Y-60790418D01*
X81751871Y-60848660D01*
X81725065Y-60913375D01*
X81711400Y-60982076D01*
X81486207Y-60982076D01*
X81486207Y-60965969D01*
X81472542Y-60897268D01*
X81445736Y-60832553D01*
X81406820Y-60774311D01*
X81357289Y-60724780D01*
X81299047Y-60685864D01*
X81234332Y-60659058D01*
X81165631Y-60645393D01*
X81095583Y-60645393D01*
X81026882Y-60659058D01*
X80962167Y-60685864D01*
X80903925Y-60724780D01*
X80854394Y-60774311D01*
X80815478Y-60832553D01*
X80788672Y-60897268D01*
X80775007Y-60965969D01*
X80191975Y-60965969D01*
X80200100Y-60925124D01*
X80200100Y-60855076D01*
X80186435Y-60786375D01*
X80159629Y-60721660D01*
X80120713Y-60663418D01*
X80071182Y-60613887D01*
X80012940Y-60574971D01*
X79948225Y-60548165D01*
X79879524Y-60534500D01*
X79809476Y-60534500D01*
X79740775Y-60548165D01*
X79700800Y-60564723D01*
X79700800Y-59902576D01*
X79996900Y-59902576D01*
X79996900Y-59972624D01*
X80010565Y-60041325D01*
X80037371Y-60106040D01*
X80076287Y-60164282D01*
X80125818Y-60213813D01*
X80184060Y-60252729D01*
X80248775Y-60279535D01*
X80317476Y-60293200D01*
X80387524Y-60293200D01*
X80456225Y-60279535D01*
X80520940Y-60252729D01*
X80579182Y-60213813D01*
X80628713Y-60164282D01*
X80667629Y-60106040D01*
X80694435Y-60041325D01*
X80708100Y-59972624D01*
X80708100Y-59902576D01*
X80694435Y-59833875D01*
X80667629Y-59769160D01*
X80647524Y-59739071D01*
X80654113Y-59732482D01*
X80693029Y-59674240D01*
X80719835Y-59609525D01*
X80732432Y-59546189D01*
X82320213Y-59546189D01*
X82320213Y-59616237D01*
X82333878Y-59684938D01*
X82360684Y-59749653D01*
X82399600Y-59807895D01*
X82411076Y-59819371D01*
X82390971Y-59849460D01*
X82364165Y-59914175D01*
X82350500Y-59982876D01*
X82350500Y-60052924D01*
X82364165Y-60121625D01*
X82390971Y-60186340D01*
X82429887Y-60244582D01*
X82479418Y-60294113D01*
X82537660Y-60333029D01*
X82541368Y-60334565D01*
X82529280Y-60395336D01*
X82529280Y-60465384D01*
X82542945Y-60534085D01*
X82569751Y-60598800D01*
X82608667Y-60657042D01*
X82658198Y-60706573D01*
X82716440Y-60745489D01*
X82781155Y-60772295D01*
X82849856Y-60785960D01*
X82919904Y-60785960D01*
X82960334Y-60777918D01*
X82969565Y-60824325D01*
X82996371Y-60889040D01*
X83035287Y-60947282D01*
X83084818Y-60996813D01*
X83143060Y-61035729D01*
X83207775Y-61062535D01*
X83276476Y-61076200D01*
X83346524Y-61076200D01*
X83415225Y-61062535D01*
X83479940Y-61035729D01*
X83538182Y-60996813D01*
X83587713Y-60947282D01*
X83626629Y-60889040D01*
X83629000Y-60883316D01*
X83631371Y-60889040D01*
X83670287Y-60947282D01*
X83719818Y-60996813D01*
X83741563Y-61011342D01*
X83705947Y-61046958D01*
X83667031Y-61105200D01*
X83640225Y-61169915D01*
X83626560Y-61238616D01*
X83626560Y-61308664D01*
X83640225Y-61377365D01*
X83667031Y-61442080D01*
X83705947Y-61500322D01*
X83755478Y-61549853D01*
X83813720Y-61588769D01*
X83878435Y-61615575D01*
X83947136Y-61629240D01*
X84017184Y-61629240D01*
X84085885Y-61615575D01*
X84150600Y-61588769D01*
X84170789Y-61575279D01*
X84178387Y-61586650D01*
X84227918Y-61636181D01*
X84286160Y-61675097D01*
X84350875Y-61701903D01*
X84419576Y-61715568D01*
X84489624Y-61715568D01*
X84558325Y-61701903D01*
X84623040Y-61675097D01*
X84681282Y-61636181D01*
X84730813Y-61586650D01*
X84769729Y-61528408D01*
X84796535Y-61463693D01*
X84810200Y-61394992D01*
X84810200Y-61324944D01*
X84796535Y-61256243D01*
X84769729Y-61191528D01*
X84730813Y-61133286D01*
X84681282Y-61083755D01*
X84623040Y-61044839D01*
X84558325Y-61018033D01*
X84489624Y-61004368D01*
X84419576Y-61004368D01*
X84350875Y-61018033D01*
X84286160Y-61044839D01*
X84265971Y-61058329D01*
X84258373Y-61046958D01*
X84208842Y-60997427D01*
X84187097Y-60982898D01*
X84222713Y-60947282D01*
X84261629Y-60889040D01*
X84288435Y-60824325D01*
X84302100Y-60755624D01*
X84302100Y-60685576D01*
X84294623Y-60647981D01*
X85308825Y-60647981D01*
X85308825Y-60718029D01*
X85322490Y-60786730D01*
X85349296Y-60851445D01*
X85388212Y-60909687D01*
X85437743Y-60959218D01*
X85495985Y-60998134D01*
X85560700Y-61024940D01*
X85629401Y-61038605D01*
X85699449Y-61038605D01*
X85761000Y-61026362D01*
X85761000Y-61064824D01*
X85774665Y-61133525D01*
X85801471Y-61198240D01*
X85840387Y-61256482D01*
X85889918Y-61306013D01*
X85948160Y-61344929D01*
X86012875Y-61371735D01*
X86081576Y-61385400D01*
X86151624Y-61385400D01*
X86220325Y-61371735D01*
X86285040Y-61344929D01*
X86343282Y-61306013D01*
X86392813Y-61256482D01*
X86431729Y-61198240D01*
X86458535Y-61133525D01*
X86472200Y-61064824D01*
X86472200Y-60994776D01*
X86458535Y-60926075D01*
X86431729Y-60861360D01*
X86392813Y-60803118D01*
X86343282Y-60753587D01*
X86285040Y-60714671D01*
X86220325Y-60687865D01*
X86151624Y-60674200D01*
X86081576Y-60674200D01*
X86020025Y-60686443D01*
X86020025Y-60647981D01*
X86006360Y-60579280D01*
X85979554Y-60514565D01*
X85940638Y-60456323D01*
X85891107Y-60406792D01*
X85832865Y-60367876D01*
X85768150Y-60341070D01*
X85699449Y-60327405D01*
X85629401Y-60327405D01*
X85560700Y-60341070D01*
X85495985Y-60367876D01*
X85437743Y-60406792D01*
X85388212Y-60456323D01*
X85349296Y-60514565D01*
X85322490Y-60579280D01*
X85308825Y-60647981D01*
X84294623Y-60647981D01*
X84288435Y-60616875D01*
X84261629Y-60552160D01*
X84222713Y-60493918D01*
X84173182Y-60444387D01*
X84114940Y-60405471D01*
X84050225Y-60378665D01*
X83981524Y-60365000D01*
X83911476Y-60365000D01*
X83842775Y-60378665D01*
X83778060Y-60405471D01*
X83719818Y-60444387D01*
X83670287Y-60493918D01*
X83631371Y-60552160D01*
X83629000Y-60557884D01*
X83626629Y-60552160D01*
X83587713Y-60493918D01*
X83538182Y-60444387D01*
X83479940Y-60405471D01*
X83415225Y-60378665D01*
X83346524Y-60365000D01*
X83276476Y-60365000D01*
X83236046Y-60373042D01*
X83226815Y-60326635D01*
X83200009Y-60261920D01*
X83161093Y-60203678D01*
X83111562Y-60154147D01*
X83053320Y-60115231D01*
X83049612Y-60113695D01*
X83061700Y-60052924D01*
X83061700Y-59982876D01*
X83048035Y-59914175D01*
X83021229Y-59849460D01*
X82982313Y-59791218D01*
X82970837Y-59779742D01*
X82990942Y-59749653D01*
X83017748Y-59684938D01*
X83031413Y-59616237D01*
X83031413Y-59546189D01*
X83017748Y-59477488D01*
X82990942Y-59412773D01*
X82952026Y-59354531D01*
X82902495Y-59305000D01*
X82844253Y-59266084D01*
X82779538Y-59239278D01*
X82710837Y-59225613D01*
X82640789Y-59225613D01*
X82572088Y-59239278D01*
X82507373Y-59266084D01*
X82449131Y-59305000D01*
X82399600Y-59354531D01*
X82360684Y-59412773D01*
X82333878Y-59477488D01*
X82320213Y-59546189D01*
X80732432Y-59546189D01*
X80733500Y-59540824D01*
X80733500Y-59470776D01*
X80719835Y-59402075D01*
X80693029Y-59337360D01*
X80654968Y-59280398D01*
X80680331Y-59242440D01*
X80707137Y-59177725D01*
X80720802Y-59109024D01*
X80720802Y-59038976D01*
X80707137Y-58970275D01*
X80680331Y-58905560D01*
X80641415Y-58847318D01*
X80591884Y-58797787D01*
X80533642Y-58758871D01*
X80468927Y-58732065D01*
X80400226Y-58718400D01*
X80330178Y-58718400D01*
X80261477Y-58732065D01*
X80196762Y-58758871D01*
X80138520Y-58797787D01*
X80088989Y-58847318D01*
X80050073Y-58905560D01*
X80023267Y-58970275D01*
X80009602Y-59038976D01*
X80009602Y-59109024D01*
X80023267Y-59177725D01*
X80050073Y-59242440D01*
X80088134Y-59299402D01*
X80062771Y-59337360D01*
X80035965Y-59402075D01*
X80022300Y-59470776D01*
X80022300Y-59540824D01*
X80035965Y-59609525D01*
X80062771Y-59674240D01*
X80082876Y-59704329D01*
X80076287Y-59710918D01*
X80037371Y-59769160D01*
X80010565Y-59833875D01*
X79996900Y-59902576D01*
X79700800Y-59902576D01*
X79700800Y-58300800D01*
X85949200Y-58300800D01*
X85949200Y-59000000D01*
G37*
X85949200Y-59000000D02*
X85950176Y-59009911D01*
X85953067Y-59019440D01*
X85957761Y-59028223D01*
X85964079Y-59035921D01*
X86105969Y-59177811D01*
X86054518Y-59212189D01*
X86004987Y-59261720D01*
X85966071Y-59319962D01*
X85939265Y-59384677D01*
X85925600Y-59453378D01*
X85925600Y-59523426D01*
X85939265Y-59592127D01*
X85966071Y-59656842D01*
X86004987Y-59715084D01*
X86054518Y-59764615D01*
X86073024Y-59776980D01*
X86050475Y-59781465D01*
X85985760Y-59808271D01*
X85927518Y-59847187D01*
X85877987Y-59896718D01*
X85839071Y-59954960D01*
X85812265Y-60019675D01*
X85798600Y-60088376D01*
X85798600Y-60158424D01*
X85812265Y-60227125D01*
X85839071Y-60291840D01*
X85877987Y-60350082D01*
X85927518Y-60399613D01*
X85985760Y-60438529D01*
X86050475Y-60465335D01*
X86119176Y-60479000D01*
X86189224Y-60479000D01*
X86257925Y-60465335D01*
X86322640Y-60438529D01*
X86380882Y-60399613D01*
X86430413Y-60350082D01*
X86469329Y-60291840D01*
X86496135Y-60227125D01*
X86509800Y-60158424D01*
X86509800Y-60088376D01*
X86496135Y-60019675D01*
X86484165Y-59990776D01*
X88774200Y-59990776D01*
X88774200Y-60060824D01*
X88787865Y-60129525D01*
X88814671Y-60194240D01*
X88853587Y-60252482D01*
X88903118Y-60302013D01*
X88961360Y-60340929D01*
X89026075Y-60367735D01*
X89094776Y-60381400D01*
X89164824Y-60381400D01*
X89233525Y-60367735D01*
X89298240Y-60340929D01*
X89356482Y-60302013D01*
X89406013Y-60252482D01*
X89444929Y-60194240D01*
X89471735Y-60129525D01*
X89485400Y-60060824D01*
X89485400Y-59990776D01*
X89471735Y-59922075D01*
X89444929Y-59857360D01*
X89406013Y-59799118D01*
X89356482Y-59749587D01*
X89298240Y-59710671D01*
X89233525Y-59683865D01*
X89164824Y-59670200D01*
X89094776Y-59670200D01*
X89026075Y-59683865D01*
X88961360Y-59710671D01*
X88903118Y-59749587D01*
X88853587Y-59799118D01*
X88814671Y-59857360D01*
X88787865Y-59922075D01*
X88774200Y-59990776D01*
X86484165Y-59990776D01*
X86469329Y-59954960D01*
X86430413Y-59896718D01*
X86380882Y-59847187D01*
X86362376Y-59834822D01*
X86384925Y-59830337D01*
X86449640Y-59803531D01*
X86507882Y-59764615D01*
X86557413Y-59715084D01*
X86596329Y-59656842D01*
X86623135Y-59592127D01*
X86631355Y-59550800D01*
X89822735Y-59550800D01*
X89811800Y-59605776D01*
X89811800Y-59675824D01*
X89825465Y-59744525D01*
X89852271Y-59809240D01*
X89891187Y-59867482D01*
X89940718Y-59917013D01*
X89998960Y-59955929D01*
X90063675Y-59982735D01*
X90132376Y-59996400D01*
X90202424Y-59996400D01*
X90271125Y-59982735D01*
X90335840Y-59955929D01*
X90394082Y-59917013D01*
X90443613Y-59867482D01*
X90482529Y-59809240D01*
X90509335Y-59744525D01*
X90523000Y-59675824D01*
X90523000Y-59605776D01*
X90512065Y-59550800D01*
X91346282Y-59550800D01*
X91334239Y-59579875D01*
X91320574Y-59648576D01*
X91320574Y-59718624D01*
X91334239Y-59787325D01*
X91361045Y-59852040D01*
X91399961Y-59910282D01*
X91449492Y-59959813D01*
X91507734Y-59998729D01*
X91572449Y-60025535D01*
X91641150Y-60039200D01*
X91711198Y-60039200D01*
X91779899Y-60025535D01*
X91844614Y-59998729D01*
X91902856Y-59959813D01*
X91952387Y-59910282D01*
X91991303Y-59852040D01*
X92018109Y-59787325D01*
X92031774Y-59718624D01*
X92031774Y-59648576D01*
X92018109Y-59579875D01*
X92006066Y-59550800D01*
X92699200Y-59550800D01*
X92699200Y-69949200D01*
X89630864Y-69949200D01*
X89649535Y-69904125D01*
X89663200Y-69835424D01*
X89663200Y-69765376D01*
X89649535Y-69696675D01*
X89622729Y-69631960D01*
X89583813Y-69573718D01*
X89534282Y-69524187D01*
X89476040Y-69485271D01*
X89421308Y-69462600D01*
X90091942Y-69462600D01*
X90104400Y-69463827D01*
X90116858Y-69462600D01*
X90116869Y-69462600D01*
X90154193Y-69458924D01*
X90202072Y-69444400D01*
X90246197Y-69420814D01*
X90262723Y-69407251D01*
X90275188Y-69397022D01*
X90275191Y-69397019D01*
X90278549Y-69394263D01*
X90272165Y-69409675D01*
X90258500Y-69478376D01*
X90258500Y-69548424D01*
X90272165Y-69617125D01*
X90298971Y-69681840D01*
X90337887Y-69740082D01*
X90387418Y-69789613D01*
X90445660Y-69828529D01*
X90510375Y-69855335D01*
X90579076Y-69869000D01*
X90649124Y-69869000D01*
X90717825Y-69855335D01*
X90782540Y-69828529D01*
X90840782Y-69789613D01*
X90890313Y-69740082D01*
X90929229Y-69681840D01*
X90956035Y-69617125D01*
X90969700Y-69548424D01*
X90969700Y-69478376D01*
X90956035Y-69409675D01*
X90929229Y-69344960D01*
X90890313Y-69286718D01*
X90840782Y-69237187D01*
X90782540Y-69198271D01*
X90717825Y-69171465D01*
X90649124Y-69157800D01*
X90579076Y-69157800D01*
X90510375Y-69171465D01*
X90493935Y-69178275D01*
X90539810Y-69132400D01*
X90571224Y-69132400D01*
X90639925Y-69118735D01*
X90704640Y-69091929D01*
X90762882Y-69053013D01*
X90804638Y-69011257D01*
X90830146Y-69072840D01*
X90869062Y-69131082D01*
X90918593Y-69180613D01*
X90976835Y-69219529D01*
X91041550Y-69246335D01*
X91110251Y-69260000D01*
X91180299Y-69260000D01*
X91249000Y-69246335D01*
X91313715Y-69219529D01*
X91371957Y-69180613D01*
X91421488Y-69131082D01*
X91460404Y-69072840D01*
X91487210Y-69008125D01*
X91500875Y-68939424D01*
X91500875Y-68869376D01*
X91487210Y-68800675D01*
X91460404Y-68735960D01*
X91421488Y-68677718D01*
X91371957Y-68628187D01*
X91313715Y-68589271D01*
X91249000Y-68562465D01*
X91180299Y-68548800D01*
X91110251Y-68548800D01*
X91041550Y-68562465D01*
X90976835Y-68589271D01*
X90918593Y-68628187D01*
X90876837Y-68669943D01*
X90851329Y-68608360D01*
X90812413Y-68550118D01*
X90762882Y-68500587D01*
X90704640Y-68461671D01*
X90639925Y-68434865D01*
X90571224Y-68421200D01*
X90501176Y-68421200D01*
X90432475Y-68434865D01*
X90367760Y-68461671D01*
X90309518Y-68500587D01*
X90259987Y-68550118D01*
X90221071Y-68608360D01*
X90194265Y-68673075D01*
X90180600Y-68741776D01*
X90180600Y-68773190D01*
X89999190Y-68954600D01*
X89197087Y-68954600D01*
X89213935Y-68913925D01*
X89227600Y-68845224D01*
X89227600Y-68775176D01*
X89213935Y-68706475D01*
X89187129Y-68641760D01*
X89148213Y-68583518D01*
X89098682Y-68533987D01*
X89040440Y-68495071D01*
X88975725Y-68468265D01*
X88907024Y-68454600D01*
X88836976Y-68454600D01*
X88768275Y-68468265D01*
X88703560Y-68495071D01*
X88700881Y-68496861D01*
X88691014Y-68478403D01*
X88659273Y-68439727D01*
X88649591Y-68431781D01*
X88502386Y-68284576D01*
X91349000Y-68284576D01*
X91349000Y-68354624D01*
X91362665Y-68423325D01*
X91389471Y-68488040D01*
X91428387Y-68546282D01*
X91477918Y-68595813D01*
X91536160Y-68634729D01*
X91600875Y-68661535D01*
X91669576Y-68675200D01*
X91739624Y-68675200D01*
X91808325Y-68661535D01*
X91873040Y-68634729D01*
X91931282Y-68595813D01*
X91980813Y-68546282D01*
X92019729Y-68488040D01*
X92046535Y-68423325D01*
X92060200Y-68354624D01*
X92060200Y-68284576D01*
X92046535Y-68215875D01*
X92019729Y-68151160D01*
X91980813Y-68092918D01*
X91931282Y-68043387D01*
X91873040Y-68004471D01*
X91808325Y-67977665D01*
X91739624Y-67964000D01*
X91669576Y-67964000D01*
X91600875Y-67977665D01*
X91536160Y-68004471D01*
X91477918Y-68043387D01*
X91428387Y-68092918D01*
X91389471Y-68151160D01*
X91362665Y-68215875D01*
X91349000Y-68284576D01*
X88502386Y-68284576D01*
X88171419Y-67953609D01*
X88163473Y-67943927D01*
X88153791Y-67935981D01*
X88153788Y-67935978D01*
X88141323Y-67925749D01*
X88124797Y-67912186D01*
X88080672Y-67888600D01*
X88054557Y-67880678D01*
X89748800Y-67880678D01*
X89748800Y-67945722D01*
X89761489Y-68009516D01*
X89786380Y-68069608D01*
X89822517Y-68123690D01*
X89868510Y-68169683D01*
X89922592Y-68205820D01*
X89982684Y-68230711D01*
X90046478Y-68243400D01*
X90111522Y-68243400D01*
X90175316Y-68230711D01*
X90235408Y-68205820D01*
X90289490Y-68169683D01*
X90335483Y-68123690D01*
X90371620Y-68069608D01*
X90396511Y-68009516D01*
X90409200Y-67945722D01*
X90409200Y-67880678D01*
X90396511Y-67816884D01*
X90371620Y-67756792D01*
X90335483Y-67702710D01*
X90289490Y-67656717D01*
X90235408Y-67620580D01*
X90175316Y-67595689D01*
X90169007Y-67594434D01*
X91086271Y-67594434D01*
X91086271Y-67664482D01*
X91099936Y-67733183D01*
X91126742Y-67797898D01*
X91165658Y-67856140D01*
X91215189Y-67905671D01*
X91273431Y-67944587D01*
X91338146Y-67971393D01*
X91406847Y-67985058D01*
X91476895Y-67985058D01*
X91545596Y-67971393D01*
X91610311Y-67944587D01*
X91668553Y-67905671D01*
X91718084Y-67856140D01*
X91757000Y-67797898D01*
X91783806Y-67733183D01*
X91797471Y-67664482D01*
X91797471Y-67594434D01*
X91783806Y-67525733D01*
X91757000Y-67461018D01*
X91718084Y-67402776D01*
X91668553Y-67353245D01*
X91610311Y-67314329D01*
X91545596Y-67287523D01*
X91476895Y-67273858D01*
X91406847Y-67273858D01*
X91338146Y-67287523D01*
X91273431Y-67314329D01*
X91215189Y-67353245D01*
X91165658Y-67402776D01*
X91126742Y-67461018D01*
X91099936Y-67525733D01*
X91086271Y-67594434D01*
X90169007Y-67594434D01*
X90111522Y-67583000D01*
X90046478Y-67583000D01*
X89982684Y-67595689D01*
X89922592Y-67620580D01*
X89868510Y-67656717D01*
X89822517Y-67702710D01*
X89786380Y-67756792D01*
X89761489Y-67816884D01*
X89748800Y-67880678D01*
X88054557Y-67880678D01*
X88032793Y-67874076D01*
X87995469Y-67870400D01*
X87995458Y-67870400D01*
X87983000Y-67869173D01*
X87970542Y-67870400D01*
X85920210Y-67870400D01*
X85671000Y-67621190D01*
X85671000Y-67617678D01*
X85658311Y-67553884D01*
X85633420Y-67493792D01*
X85597283Y-67439710D01*
X85551290Y-67393717D01*
X85497208Y-67357580D01*
X85437116Y-67332689D01*
X85373322Y-67320000D01*
X85308278Y-67320000D01*
X85244484Y-67332689D01*
X85184392Y-67357580D01*
X85130310Y-67393717D01*
X85084317Y-67439710D01*
X85048180Y-67493792D01*
X85023289Y-67553884D01*
X85010600Y-67617678D01*
X85010600Y-67682722D01*
X85023289Y-67746516D01*
X85048180Y-67806608D01*
X85084317Y-67860690D01*
X85130310Y-67906683D01*
X85184392Y-67942820D01*
X85244484Y-67967711D01*
X85308278Y-67980400D01*
X85311790Y-67980400D01*
X85626581Y-68295191D01*
X85634527Y-68304873D01*
X85644209Y-68312819D01*
X85644211Y-68312821D01*
X85673203Y-68336614D01*
X85717328Y-68360200D01*
X85765207Y-68374724D01*
X85802531Y-68378400D01*
X85802541Y-68378400D01*
X85814999Y-68379627D01*
X85827457Y-68378400D01*
X87107242Y-68378400D01*
X87094000Y-68444976D01*
X87094000Y-68515024D01*
X87107665Y-68583725D01*
X87134471Y-68648440D01*
X87164750Y-68693755D01*
X87158861Y-68699644D01*
X87153620Y-68686992D01*
X87117483Y-68632910D01*
X87071490Y-68586917D01*
X87017408Y-68550780D01*
X86957316Y-68525889D01*
X86893522Y-68513200D01*
X86828478Y-68513200D01*
X86764684Y-68525889D01*
X86704592Y-68550780D01*
X86650510Y-68586917D01*
X86604517Y-68632910D01*
X86568380Y-68686992D01*
X86543489Y-68747084D01*
X86530800Y-68810878D01*
X86530800Y-68875922D01*
X86543489Y-68939716D01*
X86568380Y-68999808D01*
X86581600Y-69019593D01*
X86581600Y-69173084D01*
X86580249Y-69186800D01*
X86581600Y-69200515D01*
X86585644Y-69241571D01*
X86601620Y-69294238D01*
X86627564Y-69342777D01*
X86662479Y-69385321D01*
X86673141Y-69394071D01*
X87228268Y-69949200D01*
X82961698Y-69949200D01*
X82967735Y-69934625D01*
X82981400Y-69865924D01*
X82981400Y-69795876D01*
X82967735Y-69727175D01*
X82940929Y-69662460D01*
X82902013Y-69604218D01*
X82852482Y-69554687D01*
X82794240Y-69515771D01*
X82729525Y-69488965D01*
X82660824Y-69475300D01*
X82590776Y-69475300D01*
X82522075Y-69488965D01*
X82457360Y-69515771D01*
X82399118Y-69554687D01*
X82349587Y-69604218D01*
X82310671Y-69662460D01*
X82283865Y-69727175D01*
X82270200Y-69795876D01*
X82270200Y-69865924D01*
X82283865Y-69934625D01*
X82289902Y-69949200D01*
X79700800Y-69949200D01*
X79700800Y-69311503D01*
X85770273Y-69311503D01*
X85770273Y-69381551D01*
X85783938Y-69450252D01*
X85810744Y-69514967D01*
X85849660Y-69573209D01*
X85899191Y-69622740D01*
X85957433Y-69661656D01*
X86022148Y-69688462D01*
X86090849Y-69702127D01*
X86160897Y-69702127D01*
X86229598Y-69688462D01*
X86294313Y-69661656D01*
X86352555Y-69622740D01*
X86402086Y-69573209D01*
X86441002Y-69514967D01*
X86467808Y-69450252D01*
X86481473Y-69381551D01*
X86481473Y-69311503D01*
X86467808Y-69242802D01*
X86441002Y-69178087D01*
X86402086Y-69119845D01*
X86352555Y-69070314D01*
X86294313Y-69031398D01*
X86229598Y-69004592D01*
X86160897Y-68990927D01*
X86090849Y-68990927D01*
X86022148Y-69004592D01*
X85957433Y-69031398D01*
X85899191Y-69070314D01*
X85849660Y-69119845D01*
X85810744Y-69178087D01*
X85783938Y-69242802D01*
X85770273Y-69311503D01*
X79700800Y-69311503D01*
X79700800Y-68487776D01*
X81152600Y-68487776D01*
X81152600Y-68557824D01*
X81166265Y-68626525D01*
X81193071Y-68691240D01*
X81231987Y-68749482D01*
X81281518Y-68799013D01*
X81339760Y-68837929D01*
X81404475Y-68864735D01*
X81473176Y-68878400D01*
X81543224Y-68878400D01*
X81611925Y-68864735D01*
X81676640Y-68837929D01*
X81734882Y-68799013D01*
X81784413Y-68749482D01*
X81823329Y-68691240D01*
X81850135Y-68626525D01*
X81863800Y-68557824D01*
X81863800Y-68487776D01*
X81850135Y-68419075D01*
X81823329Y-68354360D01*
X81784413Y-68296118D01*
X81734882Y-68246587D01*
X81676640Y-68207671D01*
X81611925Y-68180865D01*
X81543224Y-68167200D01*
X81473176Y-68167200D01*
X81404475Y-68180865D01*
X81339760Y-68207671D01*
X81281518Y-68246587D01*
X81231987Y-68296118D01*
X81193071Y-68354360D01*
X81166265Y-68419075D01*
X81152600Y-68487776D01*
X79700800Y-68487776D01*
X79700800Y-67649576D01*
X80860500Y-67649576D01*
X80860500Y-67719624D01*
X80874165Y-67788325D01*
X80900971Y-67853040D01*
X80939887Y-67911282D01*
X80989418Y-67960813D01*
X81047660Y-67999729D01*
X81112375Y-68026535D01*
X81181076Y-68040200D01*
X81251124Y-68040200D01*
X81319825Y-68026535D01*
X81384540Y-67999729D01*
X81442782Y-67960813D01*
X81492313Y-67911282D01*
X81531229Y-67853040D01*
X81558035Y-67788325D01*
X81571700Y-67719624D01*
X81571700Y-67649576D01*
X81558035Y-67580875D01*
X81531229Y-67516160D01*
X81492313Y-67457918D01*
X81471171Y-67436776D01*
X82979200Y-67436776D01*
X82979200Y-67506824D01*
X82992865Y-67575525D01*
X83019671Y-67640240D01*
X83058587Y-67698482D01*
X83108118Y-67748013D01*
X83166360Y-67786929D01*
X83231075Y-67813735D01*
X83299776Y-67827400D01*
X83369824Y-67827400D01*
X83436400Y-67814158D01*
X83436400Y-67837024D01*
X83450065Y-67905725D01*
X83476871Y-67970440D01*
X83515787Y-68028682D01*
X83565318Y-68078213D01*
X83623560Y-68117129D01*
X83688275Y-68143935D01*
X83756976Y-68157600D01*
X83827024Y-68157600D01*
X83895725Y-68143935D01*
X83960440Y-68117129D01*
X84018682Y-68078213D01*
X84068213Y-68028682D01*
X84107129Y-67970440D01*
X84133935Y-67905725D01*
X84147600Y-67837024D01*
X84147600Y-67766976D01*
X84133935Y-67698275D01*
X84107129Y-67633560D01*
X84068213Y-67575318D01*
X84018682Y-67525787D01*
X83960440Y-67486871D01*
X83895725Y-67460065D01*
X83827024Y-67446400D01*
X83756976Y-67446400D01*
X83690400Y-67459642D01*
X83690400Y-67436776D01*
X83676735Y-67368075D01*
X83654617Y-67314676D01*
X86687600Y-67314676D01*
X86687600Y-67384724D01*
X86701265Y-67453425D01*
X86728071Y-67518140D01*
X86766987Y-67576382D01*
X86816518Y-67625913D01*
X86874760Y-67664829D01*
X86939475Y-67691635D01*
X87008176Y-67705300D01*
X87078224Y-67705300D01*
X87146925Y-67691635D01*
X87211640Y-67664829D01*
X87269882Y-67625913D01*
X87319413Y-67576382D01*
X87358329Y-67518140D01*
X87385135Y-67453425D01*
X87398800Y-67384724D01*
X87398800Y-67314676D01*
X87385135Y-67245975D01*
X87358329Y-67181260D01*
X87319413Y-67123018D01*
X87269882Y-67073487D01*
X87211640Y-67034571D01*
X87146925Y-67007765D01*
X87078224Y-66994100D01*
X87008176Y-66994100D01*
X86939475Y-67007765D01*
X86874760Y-67034571D01*
X86816518Y-67073487D01*
X86766987Y-67123018D01*
X86728071Y-67181260D01*
X86701265Y-67245975D01*
X86687600Y-67314676D01*
X83654617Y-67314676D01*
X83649929Y-67303360D01*
X83611013Y-67245118D01*
X83561482Y-67195587D01*
X83503240Y-67156671D01*
X83438525Y-67129865D01*
X83369824Y-67116200D01*
X83299776Y-67116200D01*
X83231075Y-67129865D01*
X83166360Y-67156671D01*
X83108118Y-67195587D01*
X83058587Y-67245118D01*
X83019671Y-67303360D01*
X82992865Y-67368075D01*
X82979200Y-67436776D01*
X81471171Y-67436776D01*
X81442782Y-67408387D01*
X81384540Y-67369471D01*
X81319825Y-67342665D01*
X81251124Y-67329000D01*
X81181076Y-67329000D01*
X81112375Y-67342665D01*
X81047660Y-67369471D01*
X80989418Y-67408387D01*
X80939887Y-67457918D01*
X80900971Y-67516160D01*
X80874165Y-67580875D01*
X80860500Y-67649576D01*
X79700800Y-67649576D01*
X79700800Y-66467776D01*
X86577600Y-66467776D01*
X86577600Y-66537824D01*
X86591265Y-66606525D01*
X86618071Y-66671240D01*
X86656987Y-66729482D01*
X86706518Y-66779013D01*
X86764760Y-66817929D01*
X86829475Y-66844735D01*
X86892550Y-66857281D01*
X86920834Y-66885565D01*
X86929580Y-66896222D01*
X86972123Y-66931136D01*
X86972124Y-66931137D01*
X87020662Y-66957081D01*
X87073329Y-66973057D01*
X87128101Y-66978452D01*
X87141817Y-66977101D01*
X91046983Y-66977101D01*
X91060699Y-66978452D01*
X91074415Y-66977101D01*
X91115471Y-66973057D01*
X91168138Y-66957081D01*
X91216676Y-66931137D01*
X91259220Y-66896222D01*
X91267970Y-66885560D01*
X92056478Y-66097053D01*
X92079816Y-66092411D01*
X92139908Y-66067520D01*
X92193990Y-66031383D01*
X92239983Y-65985390D01*
X92276120Y-65931308D01*
X92301011Y-65871216D01*
X92313700Y-65807422D01*
X92313700Y-65742378D01*
X92301011Y-65678584D01*
X92276120Y-65618492D01*
X92239983Y-65564410D01*
X92193990Y-65518417D01*
X92139908Y-65482280D01*
X92079816Y-65457389D01*
X92016022Y-65444700D01*
X91950978Y-65444700D01*
X91887184Y-65457389D01*
X91827092Y-65482280D01*
X91773010Y-65518417D01*
X91727017Y-65564410D01*
X91690880Y-65618492D01*
X91665989Y-65678584D01*
X91661347Y-65701922D01*
X91168957Y-66194313D01*
X91133213Y-66140818D01*
X91083682Y-66091287D01*
X91025440Y-66052371D01*
X90960725Y-66025565D01*
X90892024Y-66011900D01*
X90821976Y-66011900D01*
X90753275Y-66025565D01*
X90688560Y-66052371D01*
X90630318Y-66091287D01*
X90580787Y-66140818D01*
X90541871Y-66199060D01*
X90515065Y-66263775D01*
X90501400Y-66332476D01*
X90501400Y-66402524D01*
X90504538Y-66418301D01*
X88160562Y-66418301D01*
X88163700Y-66402524D01*
X88163700Y-66332476D01*
X88150035Y-66263775D01*
X88123229Y-66199060D01*
X88084313Y-66140818D01*
X88070892Y-66127397D01*
X88088440Y-66120129D01*
X88146682Y-66081213D01*
X88196213Y-66031682D01*
X88235129Y-65973440D01*
X88261935Y-65908725D01*
X88275600Y-65840024D01*
X88275600Y-65769976D01*
X88261935Y-65701275D01*
X88235129Y-65636560D01*
X88196213Y-65578318D01*
X88161773Y-65543878D01*
X90104400Y-65543878D01*
X90104400Y-65608922D01*
X90117089Y-65672716D01*
X90141980Y-65732808D01*
X90178117Y-65786890D01*
X90224110Y-65832883D01*
X90278192Y-65869020D01*
X90338284Y-65893911D01*
X90402078Y-65906600D01*
X90467122Y-65906600D01*
X90530916Y-65893911D01*
X90591008Y-65869020D01*
X90645090Y-65832883D01*
X90691083Y-65786890D01*
X90727220Y-65732808D01*
X90752111Y-65672716D01*
X90764800Y-65608922D01*
X90764800Y-65543878D01*
X90752111Y-65480084D01*
X90727220Y-65419992D01*
X90691083Y-65365910D01*
X90645090Y-65319917D01*
X90591008Y-65283780D01*
X90530916Y-65258889D01*
X90467122Y-65246200D01*
X90402078Y-65246200D01*
X90338284Y-65258889D01*
X90278192Y-65283780D01*
X90224110Y-65319917D01*
X90178117Y-65365910D01*
X90141980Y-65419992D01*
X90117089Y-65480084D01*
X90104400Y-65543878D01*
X88161773Y-65543878D01*
X88146682Y-65528787D01*
X88088440Y-65489871D01*
X88023725Y-65463065D01*
X87955024Y-65449400D01*
X87884976Y-65449400D01*
X87816275Y-65463065D01*
X87751560Y-65489871D01*
X87693318Y-65528787D01*
X87643787Y-65578318D01*
X87604871Y-65636560D01*
X87578065Y-65701275D01*
X87567684Y-65753466D01*
X87541125Y-65742465D01*
X87472424Y-65728800D01*
X87402376Y-65728800D01*
X87333675Y-65742465D01*
X87268960Y-65769271D01*
X87210718Y-65808187D01*
X87161187Y-65857718D01*
X87122271Y-65915960D01*
X87095465Y-65980675D01*
X87081800Y-66049376D01*
X87081800Y-66119424D01*
X87094812Y-66184843D01*
X87036925Y-66160865D01*
X86968224Y-66147200D01*
X86898176Y-66147200D01*
X86829475Y-66160865D01*
X86764760Y-66187671D01*
X86706518Y-66226587D01*
X86656987Y-66276118D01*
X86618071Y-66334360D01*
X86591265Y-66399075D01*
X86577600Y-66467776D01*
X79700800Y-66467776D01*
X79700800Y-65219176D01*
X81836200Y-65219176D01*
X81836200Y-65289224D01*
X81849865Y-65357925D01*
X81876671Y-65422640D01*
X81915587Y-65480882D01*
X81965118Y-65530413D01*
X81970429Y-65533962D01*
X81944166Y-65573268D01*
X81917360Y-65637983D01*
X81903695Y-65706684D01*
X81903695Y-65776732D01*
X81917360Y-65845433D01*
X81944166Y-65910148D01*
X81983082Y-65968390D01*
X82032613Y-66017921D01*
X82090855Y-66056837D01*
X82155570Y-66083643D01*
X82224271Y-66097308D01*
X82294319Y-66097308D01*
X82363020Y-66083643D01*
X82427735Y-66056837D01*
X82485977Y-66017921D01*
X82535508Y-65968390D01*
X82574424Y-65910148D01*
X82601230Y-65845433D01*
X82614895Y-65776732D01*
X82614895Y-65706684D01*
X82601230Y-65637983D01*
X82574424Y-65573268D01*
X82535508Y-65515026D01*
X82485977Y-65465495D01*
X82480666Y-65461946D01*
X82506929Y-65422640D01*
X82533735Y-65357925D01*
X82547400Y-65289224D01*
X82547400Y-65219176D01*
X82533735Y-65150475D01*
X82506929Y-65085760D01*
X82468013Y-65027518D01*
X82418482Y-64977987D01*
X82360240Y-64939071D01*
X82342629Y-64931776D01*
X83095700Y-64931776D01*
X83095700Y-65001824D01*
X83109365Y-65070525D01*
X83136171Y-65135240D01*
X83175087Y-65193482D01*
X83224618Y-65243013D01*
X83282860Y-65281929D01*
X83347575Y-65308735D01*
X83416276Y-65322400D01*
X83432117Y-65322400D01*
X83432117Y-65333399D01*
X83444056Y-65393424D01*
X83426005Y-65405486D01*
X83376474Y-65455017D01*
X83337558Y-65513259D01*
X83310752Y-65577974D01*
X83297087Y-65646675D01*
X83297087Y-65716723D01*
X83310752Y-65785424D01*
X83337558Y-65850139D01*
X83376474Y-65908381D01*
X83426005Y-65957912D01*
X83484247Y-65996828D01*
X83548962Y-66023634D01*
X83617663Y-66037299D01*
X83687711Y-66037299D01*
X83756412Y-66023634D01*
X83821127Y-65996828D01*
X83879369Y-65957912D01*
X83911812Y-65925469D01*
X83938831Y-65952488D01*
X83997073Y-65991404D01*
X84061788Y-66018210D01*
X84110000Y-66027800D01*
X84110000Y-66041499D01*
X84123665Y-66110200D01*
X84150471Y-66174915D01*
X84189387Y-66233157D01*
X84238918Y-66282688D01*
X84297160Y-66321604D01*
X84361875Y-66348410D01*
X84430576Y-66362075D01*
X84500624Y-66362075D01*
X84569325Y-66348410D01*
X84634040Y-66321604D01*
X84692282Y-66282688D01*
X84741813Y-66233157D01*
X84780729Y-66174915D01*
X84807535Y-66110200D01*
X84821200Y-66041499D01*
X84821200Y-65971451D01*
X84807535Y-65902750D01*
X84780729Y-65838035D01*
X84741813Y-65779793D01*
X84692282Y-65730262D01*
X84634040Y-65691346D01*
X84604856Y-65679257D01*
X84648440Y-65661204D01*
X84706682Y-65622288D01*
X84756213Y-65572757D01*
X84795129Y-65514515D01*
X84821935Y-65449800D01*
X84835600Y-65381099D01*
X84835600Y-65311051D01*
X84821935Y-65242350D01*
X84795129Y-65177635D01*
X84756213Y-65119393D01*
X84706682Y-65069862D01*
X84648440Y-65030946D01*
X84583725Y-65004140D01*
X84530800Y-64993613D01*
X84530800Y-64967336D01*
X84517135Y-64898635D01*
X84490329Y-64833920D01*
X84451413Y-64775678D01*
X84401882Y-64726147D01*
X84343640Y-64687231D01*
X84278925Y-64660425D01*
X84210224Y-64646760D01*
X84140176Y-64646760D01*
X84071475Y-64660425D01*
X84006760Y-64687231D01*
X83948518Y-64726147D01*
X83898987Y-64775678D01*
X83860071Y-64833920D01*
X83833265Y-64898635D01*
X83824419Y-64943109D01*
X83822741Y-64942775D01*
X83806900Y-64942775D01*
X83806900Y-64931776D01*
X83793235Y-64863075D01*
X83766429Y-64798360D01*
X83727513Y-64740118D01*
X83677982Y-64690587D01*
X83619740Y-64651671D01*
X83555025Y-64624865D01*
X83486324Y-64611200D01*
X83416276Y-64611200D01*
X83347575Y-64624865D01*
X83282860Y-64651671D01*
X83224618Y-64690587D01*
X83175087Y-64740118D01*
X83136171Y-64798360D01*
X83109365Y-64863075D01*
X83095700Y-64931776D01*
X82342629Y-64931776D01*
X82295525Y-64912265D01*
X82226824Y-64898600D01*
X82156776Y-64898600D01*
X82088075Y-64912265D01*
X82023360Y-64939071D01*
X81965118Y-64977987D01*
X81915587Y-65027518D01*
X81876671Y-65085760D01*
X81849865Y-65150475D01*
X81836200Y-65219176D01*
X79700800Y-65219176D01*
X79700800Y-64454576D01*
X85190400Y-64454576D01*
X85190400Y-64524624D01*
X85204065Y-64593325D01*
X85230871Y-64658040D01*
X85269787Y-64716282D01*
X85319318Y-64765813D01*
X85377560Y-64804729D01*
X85442275Y-64831535D01*
X85510976Y-64845200D01*
X85581024Y-64845200D01*
X85649725Y-64831535D01*
X85714440Y-64804729D01*
X85772682Y-64765813D01*
X85822213Y-64716282D01*
X85861129Y-64658040D01*
X85887935Y-64593325D01*
X85901600Y-64524624D01*
X85901600Y-64454576D01*
X85887935Y-64385875D01*
X85861129Y-64321160D01*
X85822213Y-64262918D01*
X85772682Y-64213387D01*
X85714440Y-64174471D01*
X85649725Y-64147665D01*
X85581024Y-64134000D01*
X85510976Y-64134000D01*
X85442275Y-64147665D01*
X85377560Y-64174471D01*
X85319318Y-64213387D01*
X85269787Y-64262918D01*
X85230871Y-64321160D01*
X85204065Y-64385875D01*
X85190400Y-64454576D01*
X79700800Y-64454576D01*
X79700800Y-64073199D01*
X79719871Y-64119240D01*
X79758787Y-64177482D01*
X79808318Y-64227013D01*
X79866560Y-64265929D01*
X79931275Y-64292735D01*
X79999976Y-64306400D01*
X80070024Y-64306400D01*
X80138725Y-64292735D01*
X80203440Y-64265929D01*
X80261682Y-64227013D01*
X80311213Y-64177482D01*
X80350129Y-64119240D01*
X80376935Y-64054525D01*
X80390600Y-63985824D01*
X80390600Y-63915776D01*
X80376935Y-63847075D01*
X80350129Y-63782360D01*
X80311213Y-63724118D01*
X80261682Y-63674587D01*
X80203440Y-63635671D01*
X80138725Y-63608865D01*
X80070024Y-63595200D01*
X79999976Y-63595200D01*
X79931275Y-63608865D01*
X79866560Y-63635671D01*
X79808318Y-63674587D01*
X79758787Y-63724118D01*
X79719871Y-63782360D01*
X79700800Y-63828401D01*
X79700800Y-63001895D01*
X79744818Y-63045913D01*
X79803060Y-63084829D01*
X79867775Y-63111635D01*
X79936476Y-63125300D01*
X80006524Y-63125300D01*
X80075225Y-63111635D01*
X80139940Y-63084829D01*
X80198182Y-63045913D01*
X80247713Y-62996382D01*
X80286629Y-62938140D01*
X80313435Y-62873425D01*
X80327100Y-62804724D01*
X80327100Y-62798176D01*
X80758900Y-62798176D01*
X80758900Y-62868224D01*
X80772565Y-62936925D01*
X80799371Y-63001640D01*
X80838287Y-63059882D01*
X80887818Y-63109413D01*
X80933894Y-63140200D01*
X80887818Y-63170987D01*
X80838287Y-63220518D01*
X80799371Y-63278760D01*
X80772565Y-63343475D01*
X80758900Y-63412176D01*
X80758900Y-63482224D01*
X80772565Y-63550925D01*
X80799371Y-63615640D01*
X80838287Y-63673882D01*
X80887818Y-63723413D01*
X80946060Y-63762329D01*
X81010775Y-63789135D01*
X81079476Y-63802800D01*
X81149524Y-63802800D01*
X81218225Y-63789135D01*
X81282940Y-63762329D01*
X81341182Y-63723413D01*
X81390713Y-63673882D01*
X81429629Y-63615640D01*
X81456435Y-63550925D01*
X81469751Y-63483978D01*
X83271800Y-63483978D01*
X83271800Y-63554026D01*
X83285465Y-63622727D01*
X83312271Y-63687442D01*
X83351187Y-63745684D01*
X83400718Y-63795215D01*
X83458960Y-63834131D01*
X83523675Y-63860937D01*
X83592376Y-63874602D01*
X83662424Y-63874602D01*
X83731125Y-63860937D01*
X83795840Y-63834131D01*
X83854082Y-63795215D01*
X83861687Y-63787610D01*
X83884587Y-63821882D01*
X83934118Y-63871413D01*
X83992360Y-63910329D01*
X84057075Y-63937135D01*
X84125776Y-63950800D01*
X84195824Y-63950800D01*
X84264525Y-63937135D01*
X84329240Y-63910329D01*
X84382712Y-63874600D01*
X84837542Y-63874600D01*
X84850000Y-63875827D01*
X84862458Y-63874600D01*
X84862469Y-63874600D01*
X84899793Y-63870924D01*
X84947672Y-63856400D01*
X84991797Y-63832814D01*
X85008323Y-63819251D01*
X85020788Y-63809022D01*
X85020791Y-63809019D01*
X85030473Y-63801073D01*
X85038419Y-63791391D01*
X85333134Y-63496676D01*
X86258667Y-63496676D01*
X86258667Y-63566724D01*
X86272332Y-63635425D01*
X86299138Y-63700140D01*
X86338054Y-63758382D01*
X86387585Y-63807913D01*
X86445827Y-63846829D01*
X86510542Y-63873635D01*
X86579243Y-63887300D01*
X86649291Y-63887300D01*
X86717992Y-63873635D01*
X86782707Y-63846829D01*
X86840949Y-63807913D01*
X86890480Y-63758382D01*
X86919414Y-63715078D01*
X88605800Y-63715078D01*
X88605800Y-63780122D01*
X88618489Y-63843916D01*
X88643380Y-63904008D01*
X88679517Y-63958090D01*
X88725510Y-64004083D01*
X88779592Y-64040220D01*
X88839684Y-64065111D01*
X88903478Y-64077800D01*
X88968522Y-64077800D01*
X89032316Y-64065111D01*
X89092408Y-64040220D01*
X89146490Y-64004083D01*
X89192483Y-63958090D01*
X89197263Y-63950936D01*
X89233010Y-63986683D01*
X89287092Y-64022820D01*
X89347184Y-64047711D01*
X89410978Y-64060400D01*
X89476022Y-64060400D01*
X89539816Y-64047711D01*
X89599908Y-64022820D01*
X89619693Y-64009600D01*
X91004170Y-64009600D01*
X91304195Y-64309625D01*
X91256260Y-64329481D01*
X91198018Y-64368397D01*
X91148487Y-64417928D01*
X91109571Y-64476170D01*
X91082765Y-64540885D01*
X91069100Y-64609586D01*
X91069100Y-64679634D01*
X91082765Y-64748335D01*
X91109571Y-64813050D01*
X91148487Y-64871292D01*
X91198018Y-64920823D01*
X91256260Y-64959739D01*
X91320975Y-64986545D01*
X91389676Y-65000210D01*
X91459724Y-65000210D01*
X91528425Y-64986545D01*
X91593140Y-64959739D01*
X91651382Y-64920823D01*
X91700913Y-64871292D01*
X91739829Y-64813050D01*
X91759684Y-64765115D01*
X91825556Y-64830986D01*
X91808067Y-64857160D01*
X91781261Y-64921875D01*
X91767596Y-64990576D01*
X91767596Y-65060624D01*
X91781261Y-65129325D01*
X91808067Y-65194040D01*
X91846983Y-65252282D01*
X91896514Y-65301813D01*
X91954756Y-65340729D01*
X92019471Y-65367535D01*
X92088172Y-65381200D01*
X92158220Y-65381200D01*
X92226921Y-65367535D01*
X92291636Y-65340729D01*
X92349878Y-65301813D01*
X92399409Y-65252282D01*
X92438325Y-65194040D01*
X92465131Y-65129325D01*
X92478796Y-65060624D01*
X92478796Y-64990576D01*
X92465131Y-64921875D01*
X92438325Y-64857160D01*
X92402596Y-64803688D01*
X92402596Y-64747212D01*
X92403947Y-64733496D01*
X92399721Y-64690587D01*
X92398552Y-64678724D01*
X92382576Y-64626057D01*
X92356632Y-64577519D01*
X92321717Y-64534975D01*
X92311060Y-64526229D01*
X91327171Y-63542341D01*
X91318421Y-63531679D01*
X91275877Y-63496764D01*
X91227339Y-63470820D01*
X91174672Y-63454844D01*
X91133616Y-63450800D01*
X91119900Y-63449449D01*
X91106184Y-63450800D01*
X89619693Y-63450800D01*
X89599908Y-63437580D01*
X89539816Y-63412689D01*
X89476022Y-63400000D01*
X89410978Y-63400000D01*
X89347184Y-63412689D01*
X89287092Y-63437580D01*
X89233010Y-63473717D01*
X89187017Y-63519710D01*
X89182237Y-63526864D01*
X89146490Y-63491117D01*
X89092408Y-63454980D01*
X89032316Y-63430089D01*
X88968522Y-63417400D01*
X88903478Y-63417400D01*
X88839684Y-63430089D01*
X88779592Y-63454980D01*
X88725510Y-63491117D01*
X88679517Y-63537110D01*
X88643380Y-63591192D01*
X88618489Y-63651284D01*
X88605800Y-63715078D01*
X86919414Y-63715078D01*
X86929396Y-63700140D01*
X86956202Y-63635425D01*
X86969353Y-63569306D01*
X87023076Y-63579992D01*
X87093124Y-63579992D01*
X87161825Y-63566327D01*
X87226540Y-63539521D01*
X87284782Y-63500605D01*
X87291246Y-63494141D01*
X87323318Y-63526213D01*
X87381560Y-63565129D01*
X87446275Y-63591935D01*
X87514976Y-63605600D01*
X87585024Y-63605600D01*
X87653725Y-63591935D01*
X87718440Y-63565129D01*
X87776682Y-63526213D01*
X87826213Y-63476682D01*
X87865129Y-63418440D01*
X87891935Y-63353725D01*
X87905600Y-63285024D01*
X87905600Y-63214976D01*
X87891935Y-63146275D01*
X87865129Y-63081560D01*
X87826213Y-63023318D01*
X87776682Y-62973787D01*
X87753918Y-62958576D01*
X91234200Y-62958576D01*
X91234200Y-63028624D01*
X91247865Y-63097325D01*
X91274671Y-63162040D01*
X91313587Y-63220282D01*
X91363118Y-63269813D01*
X91421360Y-63308729D01*
X91486075Y-63335535D01*
X91554776Y-63349200D01*
X91624824Y-63349200D01*
X91693525Y-63335535D01*
X91758240Y-63308729D01*
X91816482Y-63269813D01*
X91866013Y-63220282D01*
X91904929Y-63162040D01*
X91931735Y-63097325D01*
X91945400Y-63028624D01*
X91945400Y-62958576D01*
X91931735Y-62889875D01*
X91904929Y-62825160D01*
X91866013Y-62766918D01*
X91816482Y-62717387D01*
X91758240Y-62678471D01*
X91693525Y-62651665D01*
X91624824Y-62638000D01*
X91554776Y-62638000D01*
X91486075Y-62651665D01*
X91421360Y-62678471D01*
X91363118Y-62717387D01*
X91313587Y-62766918D01*
X91274671Y-62825160D01*
X91247865Y-62889875D01*
X91234200Y-62958576D01*
X87753918Y-62958576D01*
X87735924Y-62946553D01*
X87765020Y-62903008D01*
X87789911Y-62842916D01*
X87802600Y-62779122D01*
X87802600Y-62775610D01*
X88321210Y-62257000D01*
X89583442Y-62257000D01*
X89595900Y-62258227D01*
X89608358Y-62257000D01*
X89608369Y-62257000D01*
X89645693Y-62253324D01*
X89693572Y-62238800D01*
X89737697Y-62215214D01*
X89754223Y-62201651D01*
X89766688Y-62191422D01*
X89766691Y-62191419D01*
X89770142Y-62188586D01*
X91320598Y-62188586D01*
X91320598Y-62258634D01*
X91334263Y-62327335D01*
X91361069Y-62392050D01*
X91399985Y-62450292D01*
X91449516Y-62499823D01*
X91507758Y-62538739D01*
X91572473Y-62565545D01*
X91641174Y-62579210D01*
X91711222Y-62579210D01*
X91779923Y-62565545D01*
X91844638Y-62538739D01*
X91902880Y-62499823D01*
X91952411Y-62450292D01*
X91991327Y-62392050D01*
X92018133Y-62327335D01*
X92031798Y-62258634D01*
X92031798Y-62188586D01*
X92018133Y-62119885D01*
X91991327Y-62055170D01*
X91952411Y-61996928D01*
X91902880Y-61947397D01*
X91844638Y-61908481D01*
X91779923Y-61881675D01*
X91711222Y-61868010D01*
X91641174Y-61868010D01*
X91572473Y-61881675D01*
X91507758Y-61908481D01*
X91449516Y-61947397D01*
X91399985Y-61996928D01*
X91361069Y-62055170D01*
X91334263Y-62119885D01*
X91320598Y-62188586D01*
X89770142Y-62188586D01*
X89776373Y-62183473D01*
X89784321Y-62173789D01*
X90090641Y-61867469D01*
X90117917Y-61908290D01*
X90163910Y-61954283D01*
X90217992Y-61990420D01*
X90278084Y-62015311D01*
X90341878Y-62028000D01*
X90406922Y-62028000D01*
X90470716Y-62015311D01*
X90530808Y-61990420D01*
X90584890Y-61954283D01*
X90630883Y-61908290D01*
X90667020Y-61854208D01*
X90691911Y-61794116D01*
X90704600Y-61730322D01*
X90704600Y-61665278D01*
X90691911Y-61601484D01*
X90667020Y-61541392D01*
X90630883Y-61487310D01*
X90584890Y-61441317D01*
X90544069Y-61414041D01*
X90582344Y-61375766D01*
X91259600Y-61375766D01*
X91259600Y-61445814D01*
X91273265Y-61514515D01*
X91300071Y-61579230D01*
X91338987Y-61637472D01*
X91388518Y-61687003D01*
X91446760Y-61725919D01*
X91511475Y-61752725D01*
X91580176Y-61766390D01*
X91650224Y-61766390D01*
X91718925Y-61752725D01*
X91783640Y-61725919D01*
X91841882Y-61687003D01*
X91891413Y-61637472D01*
X91930329Y-61579230D01*
X91957135Y-61514515D01*
X91970800Y-61445814D01*
X91970800Y-61375766D01*
X91957135Y-61307065D01*
X91930329Y-61242350D01*
X91891413Y-61184108D01*
X91841882Y-61134577D01*
X91783640Y-61095661D01*
X91718925Y-61068855D01*
X91650224Y-61055190D01*
X91580176Y-61055190D01*
X91511475Y-61068855D01*
X91446760Y-61095661D01*
X91388518Y-61134577D01*
X91338987Y-61184108D01*
X91300071Y-61242350D01*
X91273265Y-61307065D01*
X91259600Y-61375766D01*
X90582344Y-61375766D01*
X90933010Y-61025100D01*
X90996422Y-61025100D01*
X91018635Y-61047313D01*
X91076877Y-61086229D01*
X91141592Y-61113035D01*
X91210293Y-61126700D01*
X91280341Y-61126700D01*
X91349042Y-61113035D01*
X91413757Y-61086229D01*
X91471999Y-61047313D01*
X91521530Y-60997782D01*
X91560446Y-60939540D01*
X91587252Y-60874825D01*
X91597779Y-60821900D01*
X91663424Y-60821900D01*
X91732125Y-60808235D01*
X91796840Y-60781429D01*
X91855082Y-60742513D01*
X91904613Y-60692982D01*
X91943529Y-60634740D01*
X91970335Y-60570025D01*
X91984000Y-60501324D01*
X91984000Y-60431276D01*
X91970335Y-60362575D01*
X91943529Y-60297860D01*
X91904613Y-60239618D01*
X91855082Y-60190087D01*
X91796840Y-60151171D01*
X91732125Y-60124365D01*
X91663424Y-60110700D01*
X91593376Y-60110700D01*
X91524675Y-60124365D01*
X91459960Y-60151171D01*
X91401718Y-60190087D01*
X91379505Y-60212300D01*
X90738658Y-60212300D01*
X90726200Y-60211073D01*
X90713742Y-60212300D01*
X90713731Y-60212300D01*
X90676407Y-60215976D01*
X90628528Y-60230500D01*
X90613158Y-60238715D01*
X90592837Y-60249577D01*
X90567068Y-60211010D01*
X90517537Y-60161479D01*
X90459295Y-60122563D01*
X90394580Y-60095757D01*
X90325879Y-60082092D01*
X90255831Y-60082092D01*
X90187130Y-60095757D01*
X90122415Y-60122563D01*
X90064173Y-60161479D01*
X90014642Y-60211010D01*
X89975726Y-60269252D01*
X89948920Y-60333967D01*
X89935255Y-60402668D01*
X89935255Y-60472716D01*
X89948920Y-60541417D01*
X89975726Y-60606132D01*
X90014642Y-60664374D01*
X90064173Y-60713905D01*
X90097270Y-60736020D01*
X89385090Y-61448200D01*
X88631573Y-61448200D01*
X88629090Y-61445717D01*
X88575008Y-61409580D01*
X88514916Y-61384689D01*
X88451122Y-61372000D01*
X88386078Y-61372000D01*
X88322284Y-61384689D01*
X88262192Y-61409580D01*
X88208110Y-61445717D01*
X88162117Y-61491710D01*
X88125980Y-61545792D01*
X88101089Y-61605884D01*
X88088400Y-61669678D01*
X88088400Y-61734722D01*
X88097115Y-61778539D01*
X88074203Y-61790786D01*
X88045211Y-61814579D01*
X88045209Y-61814581D01*
X88035527Y-61822527D01*
X88027581Y-61832209D01*
X87443390Y-62416400D01*
X87439878Y-62416400D01*
X87376084Y-62429089D01*
X87315992Y-62453980D01*
X87261910Y-62490117D01*
X87215917Y-62536110D01*
X87179780Y-62590192D01*
X87154889Y-62650284D01*
X87142200Y-62714078D01*
X87142200Y-62779122D01*
X87154889Y-62842916D01*
X87173223Y-62887178D01*
X87161825Y-62882457D01*
X87093124Y-62868792D01*
X87023076Y-62868792D01*
X86954375Y-62882457D01*
X86889660Y-62909263D01*
X86831418Y-62948179D01*
X86781887Y-62997710D01*
X86742971Y-63055952D01*
X86716165Y-63120667D01*
X86703014Y-63186786D01*
X86649291Y-63176100D01*
X86579243Y-63176100D01*
X86510542Y-63189765D01*
X86445827Y-63216571D01*
X86387585Y-63255487D01*
X86338054Y-63305018D01*
X86299138Y-63363260D01*
X86272332Y-63427975D01*
X86258667Y-63496676D01*
X85333134Y-63496676D01*
X85857810Y-62972000D01*
X85861322Y-62972000D01*
X85925116Y-62959311D01*
X85985208Y-62934420D01*
X86039290Y-62898283D01*
X86085283Y-62852290D01*
X86121420Y-62798208D01*
X86146311Y-62738116D01*
X86159000Y-62674322D01*
X86159000Y-62609278D01*
X86146311Y-62545484D01*
X86121420Y-62485392D01*
X86085283Y-62431310D01*
X86039290Y-62385317D01*
X85985208Y-62349180D01*
X85925116Y-62324289D01*
X85861322Y-62311600D01*
X85796278Y-62311600D01*
X85732484Y-62324289D01*
X85672392Y-62349180D01*
X85618310Y-62385317D01*
X85572317Y-62431310D01*
X85536180Y-62485392D01*
X85511289Y-62545484D01*
X85498600Y-62609278D01*
X85498600Y-62612790D01*
X84744790Y-63366600D01*
X84435095Y-63366600D01*
X84433809Y-63365314D01*
X84465129Y-63318440D01*
X84491935Y-63253725D01*
X84505600Y-63185024D01*
X84505600Y-63114976D01*
X84491935Y-63046275D01*
X84465129Y-62981560D01*
X84426213Y-62923318D01*
X84376682Y-62873787D01*
X84318440Y-62834871D01*
X84253725Y-62808065D01*
X84185024Y-62794400D01*
X84114976Y-62794400D01*
X84046275Y-62808065D01*
X83981560Y-62834871D01*
X83923318Y-62873787D01*
X83873787Y-62923318D01*
X83834871Y-62981560D01*
X83808065Y-63046275D01*
X83794400Y-63114976D01*
X83794400Y-63185024D01*
X83798503Y-63205652D01*
X83795840Y-63203873D01*
X83731125Y-63177067D01*
X83662424Y-63163402D01*
X83592376Y-63163402D01*
X83523675Y-63177067D01*
X83458960Y-63203873D01*
X83400718Y-63242789D01*
X83351187Y-63292320D01*
X83312271Y-63350562D01*
X83285465Y-63415277D01*
X83271800Y-63483978D01*
X81469751Y-63483978D01*
X81470100Y-63482224D01*
X81470100Y-63412176D01*
X81456435Y-63343475D01*
X81429629Y-63278760D01*
X81390713Y-63220518D01*
X81341182Y-63170987D01*
X81295106Y-63140200D01*
X81341182Y-63109413D01*
X81390713Y-63059882D01*
X81429629Y-63001640D01*
X81456435Y-62936925D01*
X81470100Y-62868224D01*
X81470100Y-62798176D01*
X81456435Y-62729475D01*
X81429629Y-62664760D01*
X81390713Y-62606518D01*
X81341182Y-62556987D01*
X81282940Y-62518071D01*
X81218225Y-62491265D01*
X81149524Y-62477600D01*
X81079476Y-62477600D01*
X81010775Y-62491265D01*
X80946060Y-62518071D01*
X80887818Y-62556987D01*
X80838287Y-62606518D01*
X80799371Y-62664760D01*
X80772565Y-62729475D01*
X80758900Y-62798176D01*
X80327100Y-62798176D01*
X80327100Y-62734676D01*
X80313435Y-62665975D01*
X80286629Y-62601260D01*
X80247713Y-62543018D01*
X80198182Y-62493487D01*
X80139940Y-62454571D01*
X80075225Y-62427765D01*
X80006524Y-62414100D01*
X79936476Y-62414100D01*
X79867775Y-62427765D01*
X79803060Y-62454571D01*
X79744818Y-62493487D01*
X79700800Y-62537505D01*
X79700800Y-62175876D01*
X81787600Y-62175876D01*
X81787600Y-62245924D01*
X81801265Y-62314625D01*
X81828071Y-62379340D01*
X81866987Y-62437582D01*
X81916518Y-62487113D01*
X81974760Y-62526029D01*
X82039475Y-62552835D01*
X82108176Y-62566500D01*
X82178224Y-62566500D01*
X82246925Y-62552835D01*
X82311640Y-62526029D01*
X82369882Y-62487113D01*
X82419413Y-62437582D01*
X82458329Y-62379340D01*
X82485135Y-62314625D01*
X82498800Y-62245924D01*
X82498800Y-62175876D01*
X82485135Y-62107175D01*
X82458329Y-62042460D01*
X82419413Y-61984218D01*
X82369882Y-61934687D01*
X82311640Y-61895771D01*
X82246925Y-61868965D01*
X82178224Y-61855300D01*
X82108176Y-61855300D01*
X82039475Y-61868965D01*
X81974760Y-61895771D01*
X81916518Y-61934687D01*
X81866987Y-61984218D01*
X81828071Y-62042460D01*
X81801265Y-62107175D01*
X81787600Y-62175876D01*
X79700800Y-62175876D01*
X79700800Y-61705976D01*
X79831800Y-61705976D01*
X79831800Y-61776024D01*
X79845465Y-61844725D01*
X79872271Y-61909440D01*
X79911187Y-61967682D01*
X79960718Y-62017213D01*
X80018960Y-62056129D01*
X80083675Y-62082935D01*
X80152376Y-62096600D01*
X80222424Y-62096600D01*
X80291125Y-62082935D01*
X80355840Y-62056129D01*
X80414082Y-62017213D01*
X80463613Y-61967682D01*
X80502529Y-61909440D01*
X80529335Y-61844725D01*
X80543000Y-61776024D01*
X80543000Y-61705976D01*
X80529335Y-61637275D01*
X80502529Y-61572560D01*
X80463613Y-61514318D01*
X80414082Y-61464787D01*
X80355840Y-61425871D01*
X80291125Y-61399065D01*
X80222424Y-61385400D01*
X80152376Y-61385400D01*
X80083675Y-61399065D01*
X80018960Y-61425871D01*
X79960718Y-61464787D01*
X79911187Y-61514318D01*
X79872271Y-61572560D01*
X79845465Y-61637275D01*
X79831800Y-61705976D01*
X79700800Y-61705976D01*
X79700800Y-61215477D01*
X79740775Y-61232035D01*
X79809476Y-61245700D01*
X79879524Y-61245700D01*
X79948225Y-61232035D01*
X80012940Y-61205229D01*
X80071182Y-61166313D01*
X80120713Y-61116782D01*
X80159629Y-61058540D01*
X80186435Y-60993825D01*
X80191975Y-60965969D01*
X80775007Y-60965969D01*
X80775007Y-61036017D01*
X80788672Y-61104718D01*
X80815478Y-61169433D01*
X80854394Y-61227675D01*
X80903925Y-61277206D01*
X80962167Y-61316122D01*
X81026882Y-61342928D01*
X81095583Y-61356593D01*
X81165631Y-61356593D01*
X81234332Y-61342928D01*
X81299047Y-61316122D01*
X81357289Y-61277206D01*
X81406820Y-61227675D01*
X81445736Y-61169433D01*
X81472542Y-61104718D01*
X81486207Y-61036017D01*
X81486207Y-60982076D01*
X81711400Y-60982076D01*
X81711400Y-61052124D01*
X81725065Y-61120825D01*
X81751871Y-61185540D01*
X81790787Y-61243782D01*
X81840318Y-61293313D01*
X81898560Y-61332229D01*
X81963275Y-61359035D01*
X82002675Y-61366872D01*
X81990800Y-61426576D01*
X81990800Y-61496624D01*
X82004465Y-61565325D01*
X82031271Y-61630040D01*
X82070187Y-61688282D01*
X82119718Y-61737813D01*
X82177960Y-61776729D01*
X82242675Y-61803535D01*
X82311376Y-61817200D01*
X82381424Y-61817200D01*
X82450125Y-61803535D01*
X82514840Y-61776729D01*
X82573082Y-61737813D01*
X82622613Y-61688282D01*
X82661529Y-61630040D01*
X82688335Y-61565325D01*
X82702000Y-61496624D01*
X82702000Y-61426576D01*
X82688335Y-61357875D01*
X82661529Y-61293160D01*
X82622613Y-61234918D01*
X82573082Y-61185387D01*
X82514840Y-61146471D01*
X82450125Y-61119665D01*
X82410725Y-61111828D01*
X82422600Y-61052124D01*
X82422600Y-60982076D01*
X82408935Y-60913375D01*
X82382129Y-60848660D01*
X82343213Y-60790418D01*
X82293682Y-60740887D01*
X82235440Y-60701971D01*
X82170725Y-60675165D01*
X82102024Y-60661500D01*
X82031976Y-60661500D01*
X81963275Y-60675165D01*
X81898560Y-60701971D01*
X81840318Y-60740887D01*
X81790787Y-60790418D01*
X81751871Y-60848660D01*
X81725065Y-60913375D01*
X81711400Y-60982076D01*
X81486207Y-60982076D01*
X81486207Y-60965969D01*
X81472542Y-60897268D01*
X81445736Y-60832553D01*
X81406820Y-60774311D01*
X81357289Y-60724780D01*
X81299047Y-60685864D01*
X81234332Y-60659058D01*
X81165631Y-60645393D01*
X81095583Y-60645393D01*
X81026882Y-60659058D01*
X80962167Y-60685864D01*
X80903925Y-60724780D01*
X80854394Y-60774311D01*
X80815478Y-60832553D01*
X80788672Y-60897268D01*
X80775007Y-60965969D01*
X80191975Y-60965969D01*
X80200100Y-60925124D01*
X80200100Y-60855076D01*
X80186435Y-60786375D01*
X80159629Y-60721660D01*
X80120713Y-60663418D01*
X80071182Y-60613887D01*
X80012940Y-60574971D01*
X79948225Y-60548165D01*
X79879524Y-60534500D01*
X79809476Y-60534500D01*
X79740775Y-60548165D01*
X79700800Y-60564723D01*
X79700800Y-59902576D01*
X79996900Y-59902576D01*
X79996900Y-59972624D01*
X80010565Y-60041325D01*
X80037371Y-60106040D01*
X80076287Y-60164282D01*
X80125818Y-60213813D01*
X80184060Y-60252729D01*
X80248775Y-60279535D01*
X80317476Y-60293200D01*
X80387524Y-60293200D01*
X80456225Y-60279535D01*
X80520940Y-60252729D01*
X80579182Y-60213813D01*
X80628713Y-60164282D01*
X80667629Y-60106040D01*
X80694435Y-60041325D01*
X80708100Y-59972624D01*
X80708100Y-59902576D01*
X80694435Y-59833875D01*
X80667629Y-59769160D01*
X80647524Y-59739071D01*
X80654113Y-59732482D01*
X80693029Y-59674240D01*
X80719835Y-59609525D01*
X80732432Y-59546189D01*
X82320213Y-59546189D01*
X82320213Y-59616237D01*
X82333878Y-59684938D01*
X82360684Y-59749653D01*
X82399600Y-59807895D01*
X82411076Y-59819371D01*
X82390971Y-59849460D01*
X82364165Y-59914175D01*
X82350500Y-59982876D01*
X82350500Y-60052924D01*
X82364165Y-60121625D01*
X82390971Y-60186340D01*
X82429887Y-60244582D01*
X82479418Y-60294113D01*
X82537660Y-60333029D01*
X82541368Y-60334565D01*
X82529280Y-60395336D01*
X82529280Y-60465384D01*
X82542945Y-60534085D01*
X82569751Y-60598800D01*
X82608667Y-60657042D01*
X82658198Y-60706573D01*
X82716440Y-60745489D01*
X82781155Y-60772295D01*
X82849856Y-60785960D01*
X82919904Y-60785960D01*
X82960334Y-60777918D01*
X82969565Y-60824325D01*
X82996371Y-60889040D01*
X83035287Y-60947282D01*
X83084818Y-60996813D01*
X83143060Y-61035729D01*
X83207775Y-61062535D01*
X83276476Y-61076200D01*
X83346524Y-61076200D01*
X83415225Y-61062535D01*
X83479940Y-61035729D01*
X83538182Y-60996813D01*
X83587713Y-60947282D01*
X83626629Y-60889040D01*
X83629000Y-60883316D01*
X83631371Y-60889040D01*
X83670287Y-60947282D01*
X83719818Y-60996813D01*
X83741563Y-61011342D01*
X83705947Y-61046958D01*
X83667031Y-61105200D01*
X83640225Y-61169915D01*
X83626560Y-61238616D01*
X83626560Y-61308664D01*
X83640225Y-61377365D01*
X83667031Y-61442080D01*
X83705947Y-61500322D01*
X83755478Y-61549853D01*
X83813720Y-61588769D01*
X83878435Y-61615575D01*
X83947136Y-61629240D01*
X84017184Y-61629240D01*
X84085885Y-61615575D01*
X84150600Y-61588769D01*
X84170789Y-61575279D01*
X84178387Y-61586650D01*
X84227918Y-61636181D01*
X84286160Y-61675097D01*
X84350875Y-61701903D01*
X84419576Y-61715568D01*
X84489624Y-61715568D01*
X84558325Y-61701903D01*
X84623040Y-61675097D01*
X84681282Y-61636181D01*
X84730813Y-61586650D01*
X84769729Y-61528408D01*
X84796535Y-61463693D01*
X84810200Y-61394992D01*
X84810200Y-61324944D01*
X84796535Y-61256243D01*
X84769729Y-61191528D01*
X84730813Y-61133286D01*
X84681282Y-61083755D01*
X84623040Y-61044839D01*
X84558325Y-61018033D01*
X84489624Y-61004368D01*
X84419576Y-61004368D01*
X84350875Y-61018033D01*
X84286160Y-61044839D01*
X84265971Y-61058329D01*
X84258373Y-61046958D01*
X84208842Y-60997427D01*
X84187097Y-60982898D01*
X84222713Y-60947282D01*
X84261629Y-60889040D01*
X84288435Y-60824325D01*
X84302100Y-60755624D01*
X84302100Y-60685576D01*
X84294623Y-60647981D01*
X85308825Y-60647981D01*
X85308825Y-60718029D01*
X85322490Y-60786730D01*
X85349296Y-60851445D01*
X85388212Y-60909687D01*
X85437743Y-60959218D01*
X85495985Y-60998134D01*
X85560700Y-61024940D01*
X85629401Y-61038605D01*
X85699449Y-61038605D01*
X85761000Y-61026362D01*
X85761000Y-61064824D01*
X85774665Y-61133525D01*
X85801471Y-61198240D01*
X85840387Y-61256482D01*
X85889918Y-61306013D01*
X85948160Y-61344929D01*
X86012875Y-61371735D01*
X86081576Y-61385400D01*
X86151624Y-61385400D01*
X86220325Y-61371735D01*
X86285040Y-61344929D01*
X86343282Y-61306013D01*
X86392813Y-61256482D01*
X86431729Y-61198240D01*
X86458535Y-61133525D01*
X86472200Y-61064824D01*
X86472200Y-60994776D01*
X86458535Y-60926075D01*
X86431729Y-60861360D01*
X86392813Y-60803118D01*
X86343282Y-60753587D01*
X86285040Y-60714671D01*
X86220325Y-60687865D01*
X86151624Y-60674200D01*
X86081576Y-60674200D01*
X86020025Y-60686443D01*
X86020025Y-60647981D01*
X86006360Y-60579280D01*
X85979554Y-60514565D01*
X85940638Y-60456323D01*
X85891107Y-60406792D01*
X85832865Y-60367876D01*
X85768150Y-60341070D01*
X85699449Y-60327405D01*
X85629401Y-60327405D01*
X85560700Y-60341070D01*
X85495985Y-60367876D01*
X85437743Y-60406792D01*
X85388212Y-60456323D01*
X85349296Y-60514565D01*
X85322490Y-60579280D01*
X85308825Y-60647981D01*
X84294623Y-60647981D01*
X84288435Y-60616875D01*
X84261629Y-60552160D01*
X84222713Y-60493918D01*
X84173182Y-60444387D01*
X84114940Y-60405471D01*
X84050225Y-60378665D01*
X83981524Y-60365000D01*
X83911476Y-60365000D01*
X83842775Y-60378665D01*
X83778060Y-60405471D01*
X83719818Y-60444387D01*
X83670287Y-60493918D01*
X83631371Y-60552160D01*
X83629000Y-60557884D01*
X83626629Y-60552160D01*
X83587713Y-60493918D01*
X83538182Y-60444387D01*
X83479940Y-60405471D01*
X83415225Y-60378665D01*
X83346524Y-60365000D01*
X83276476Y-60365000D01*
X83236046Y-60373042D01*
X83226815Y-60326635D01*
X83200009Y-60261920D01*
X83161093Y-60203678D01*
X83111562Y-60154147D01*
X83053320Y-60115231D01*
X83049612Y-60113695D01*
X83061700Y-60052924D01*
X83061700Y-59982876D01*
X83048035Y-59914175D01*
X83021229Y-59849460D01*
X82982313Y-59791218D01*
X82970837Y-59779742D01*
X82990942Y-59749653D01*
X83017748Y-59684938D01*
X83031413Y-59616237D01*
X83031413Y-59546189D01*
X83017748Y-59477488D01*
X82990942Y-59412773D01*
X82952026Y-59354531D01*
X82902495Y-59305000D01*
X82844253Y-59266084D01*
X82779538Y-59239278D01*
X82710837Y-59225613D01*
X82640789Y-59225613D01*
X82572088Y-59239278D01*
X82507373Y-59266084D01*
X82449131Y-59305000D01*
X82399600Y-59354531D01*
X82360684Y-59412773D01*
X82333878Y-59477488D01*
X82320213Y-59546189D01*
X80732432Y-59546189D01*
X80733500Y-59540824D01*
X80733500Y-59470776D01*
X80719835Y-59402075D01*
X80693029Y-59337360D01*
X80654968Y-59280398D01*
X80680331Y-59242440D01*
X80707137Y-59177725D01*
X80720802Y-59109024D01*
X80720802Y-59038976D01*
X80707137Y-58970275D01*
X80680331Y-58905560D01*
X80641415Y-58847318D01*
X80591884Y-58797787D01*
X80533642Y-58758871D01*
X80468927Y-58732065D01*
X80400226Y-58718400D01*
X80330178Y-58718400D01*
X80261477Y-58732065D01*
X80196762Y-58758871D01*
X80138520Y-58797787D01*
X80088989Y-58847318D01*
X80050073Y-58905560D01*
X80023267Y-58970275D01*
X80009602Y-59038976D01*
X80009602Y-59109024D01*
X80023267Y-59177725D01*
X80050073Y-59242440D01*
X80088134Y-59299402D01*
X80062771Y-59337360D01*
X80035965Y-59402075D01*
X80022300Y-59470776D01*
X80022300Y-59540824D01*
X80035965Y-59609525D01*
X80062771Y-59674240D01*
X80082876Y-59704329D01*
X80076287Y-59710918D01*
X80037371Y-59769160D01*
X80010565Y-59833875D01*
X79996900Y-59902576D01*
X79700800Y-59902576D01*
X79700800Y-58300800D01*
X85949200Y-58300800D01*
X85949200Y-59000000D01*
%TD*%
M02*
