%TF.GenerationSoftware,KiCad,Pcbnew,(5.1.6)-1*%
%TF.CreationDate,2021-06-02T19:48:48-07:00*%
%TF.ProjectId,Miniscope-v4-Wire-Free,4d696e69-7363-46f7-9065-2d76342d5769,rev?*%
%TF.SameCoordinates,Original*%
%TF.FileFunction,Soldermask,Top*%
%TF.FilePolarity,Negative*%
%FSLAX46Y46*%
G04 Gerber Fmt 4.6, Leading zero omitted, Abs format (unit mm)*
G04 Created by KiCad (PCBNEW (5.1.6)-1) date 2021-06-02 19:48:48*
%MOMM*%
%LPD*%
G01*
G04 APERTURE LIST*
%ADD10C,0.100000*%
G04 APERTURE END LIST*
D10*
G36*
X87269200Y-70028800D02*
G01*
X86448400Y-70028800D01*
X86448400Y-69268000D01*
X87269200Y-69268000D01*
X87269200Y-70028800D01*
G37*
G36*
X85809200Y-70028800D02*
G01*
X84988400Y-70028800D01*
X84988400Y-69268000D01*
X85809200Y-69268000D01*
X85809200Y-70028800D01*
G37*
G36*
X84515400Y-70025400D02*
G01*
X83264600Y-70025400D01*
X83264600Y-68824600D01*
X84515400Y-68824600D01*
X84515400Y-70025400D01*
G37*
G36*
X81925400Y-70025400D02*
G01*
X80674600Y-70025400D01*
X80674600Y-68824600D01*
X81925400Y-68824600D01*
X81925400Y-70025400D01*
G37*
G36*
X88718737Y-69046727D02*
G01*
X88761123Y-69059585D01*
X88800188Y-69080465D01*
X88834431Y-69108569D01*
X88862535Y-69142812D01*
X88883415Y-69181877D01*
X88896273Y-69224263D01*
X88900800Y-69270226D01*
X88900800Y-69794974D01*
X88896273Y-69840937D01*
X88883415Y-69883323D01*
X88862535Y-69922388D01*
X88834431Y-69956631D01*
X88800188Y-69984735D01*
X88761123Y-70005615D01*
X88718737Y-70018473D01*
X88672774Y-70023000D01*
X87758026Y-70023000D01*
X87712063Y-70018473D01*
X87669677Y-70005615D01*
X87630612Y-69984735D01*
X87596369Y-69956631D01*
X87568265Y-69922388D01*
X87547385Y-69883323D01*
X87534527Y-69840937D01*
X87530000Y-69794974D01*
X87530000Y-69270226D01*
X87534527Y-69224263D01*
X87547385Y-69181877D01*
X87568265Y-69142812D01*
X87596369Y-69108569D01*
X87630612Y-69080465D01*
X87669677Y-69059585D01*
X87712063Y-69046727D01*
X87758026Y-69042200D01*
X88672774Y-69042200D01*
X88718737Y-69046727D01*
G37*
G36*
X90877737Y-69046727D02*
G01*
X90920123Y-69059585D01*
X90959188Y-69080465D01*
X90993431Y-69108569D01*
X91021535Y-69142812D01*
X91042415Y-69181877D01*
X91055273Y-69224263D01*
X91059800Y-69270226D01*
X91059800Y-69794974D01*
X91055273Y-69840937D01*
X91042415Y-69883323D01*
X91021535Y-69922388D01*
X90993431Y-69956631D01*
X90959188Y-69984735D01*
X90920123Y-70005615D01*
X90877737Y-70018473D01*
X90831774Y-70023000D01*
X89917026Y-70023000D01*
X89871063Y-70018473D01*
X89828677Y-70005615D01*
X89789612Y-69984735D01*
X89755369Y-69956631D01*
X89727265Y-69922388D01*
X89706385Y-69883323D01*
X89693527Y-69840937D01*
X89689000Y-69794974D01*
X89689000Y-69270226D01*
X89693527Y-69224263D01*
X89706385Y-69181877D01*
X89727265Y-69142812D01*
X89755369Y-69108569D01*
X89789612Y-69080465D01*
X89828677Y-69059585D01*
X89871063Y-69046727D01*
X89917026Y-69042200D01*
X90831774Y-69042200D01*
X90877737Y-69046727D01*
G37*
G36*
X92658800Y-70008700D02*
G01*
X91287200Y-70008700D01*
X91287200Y-69145100D01*
X92658800Y-69145100D01*
X92658800Y-70008700D01*
G37*
G36*
X89445695Y-69621548D02*
G01*
X89459007Y-69625586D01*
X89471276Y-69632145D01*
X89482030Y-69640970D01*
X89490855Y-69651724D01*
X89497414Y-69663993D01*
X89501452Y-69677305D01*
X89503000Y-69693026D01*
X89503000Y-69907774D01*
X89501452Y-69923495D01*
X89497414Y-69936807D01*
X89490855Y-69949076D01*
X89482030Y-69959830D01*
X89471276Y-69968655D01*
X89459007Y-69975214D01*
X89445695Y-69979252D01*
X89429974Y-69980800D01*
X89185226Y-69980800D01*
X89169505Y-69979252D01*
X89156193Y-69975214D01*
X89143924Y-69968655D01*
X89133170Y-69959830D01*
X89124345Y-69949076D01*
X89117786Y-69936807D01*
X89113748Y-69923495D01*
X89112200Y-69907774D01*
X89112200Y-69693026D01*
X89113748Y-69677305D01*
X89117786Y-69663993D01*
X89124345Y-69651724D01*
X89133170Y-69640970D01*
X89143924Y-69632145D01*
X89156193Y-69625586D01*
X89169505Y-69621548D01*
X89185226Y-69620000D01*
X89429974Y-69620000D01*
X89445695Y-69621548D01*
G37*
G36*
X89445695Y-69071548D02*
G01*
X89459007Y-69075586D01*
X89471276Y-69082145D01*
X89482030Y-69090970D01*
X89490855Y-69101724D01*
X89497414Y-69113993D01*
X89501452Y-69127305D01*
X89503000Y-69143026D01*
X89503000Y-69357774D01*
X89501452Y-69373495D01*
X89497414Y-69386807D01*
X89490855Y-69399076D01*
X89482030Y-69409830D01*
X89471276Y-69418655D01*
X89459007Y-69425214D01*
X89445695Y-69429252D01*
X89429974Y-69430800D01*
X89185226Y-69430800D01*
X89169505Y-69429252D01*
X89156193Y-69425214D01*
X89143924Y-69418655D01*
X89133170Y-69409830D01*
X89124345Y-69399076D01*
X89117786Y-69386807D01*
X89113748Y-69373495D01*
X89112200Y-69357774D01*
X89112200Y-69143026D01*
X89113748Y-69127305D01*
X89117786Y-69113993D01*
X89124345Y-69101724D01*
X89133170Y-69090970D01*
X89143924Y-69082145D01*
X89156193Y-69075586D01*
X89169505Y-69071548D01*
X89185226Y-69070000D01*
X89429974Y-69070000D01*
X89445695Y-69071548D01*
G37*
G36*
X86434095Y-68649548D02*
G01*
X86447407Y-68653586D01*
X86459676Y-68660145D01*
X86470430Y-68668970D01*
X86479255Y-68679724D01*
X86485814Y-68691993D01*
X86489852Y-68705305D01*
X86491400Y-68721026D01*
X86491400Y-68965774D01*
X86489852Y-68981495D01*
X86485814Y-68994807D01*
X86479255Y-69007076D01*
X86470430Y-69017830D01*
X86459676Y-69026655D01*
X86447407Y-69033214D01*
X86434095Y-69037252D01*
X86418374Y-69038800D01*
X86203626Y-69038800D01*
X86187905Y-69037252D01*
X86174593Y-69033214D01*
X86162324Y-69026655D01*
X86151570Y-69017830D01*
X86142745Y-69007076D01*
X86136186Y-68994807D01*
X86132148Y-68981495D01*
X86130600Y-68965774D01*
X86130600Y-68721026D01*
X86132148Y-68705305D01*
X86136186Y-68691993D01*
X86142745Y-68679724D01*
X86151570Y-68668970D01*
X86162324Y-68660145D01*
X86174593Y-68653586D01*
X86187905Y-68649548D01*
X86203626Y-68648000D01*
X86418374Y-68648000D01*
X86434095Y-68649548D01*
G37*
G36*
X86984095Y-68649548D02*
G01*
X86997407Y-68653586D01*
X87009676Y-68660145D01*
X87020430Y-68668970D01*
X87029255Y-68679724D01*
X87035814Y-68691993D01*
X87039852Y-68705305D01*
X87041400Y-68721026D01*
X87041400Y-68965774D01*
X87039852Y-68981495D01*
X87035814Y-68994807D01*
X87029255Y-69007076D01*
X87020430Y-69017830D01*
X87009676Y-69026655D01*
X86997407Y-69033214D01*
X86984095Y-69037252D01*
X86968374Y-69038800D01*
X86753626Y-69038800D01*
X86737905Y-69037252D01*
X86724593Y-69033214D01*
X86712324Y-69026655D01*
X86701570Y-69017830D01*
X86692745Y-69007076D01*
X86686186Y-68994807D01*
X86682148Y-68981495D01*
X86680600Y-68965774D01*
X86680600Y-68721026D01*
X86682148Y-68705305D01*
X86686186Y-68691993D01*
X86692745Y-68679724D01*
X86701570Y-68668970D01*
X86712324Y-68660145D01*
X86724593Y-68653586D01*
X86737905Y-68649548D01*
X86753626Y-68648000D01*
X86968374Y-68648000D01*
X86984095Y-68649548D01*
G37*
G36*
X92658800Y-68738700D02*
G01*
X91287200Y-68738700D01*
X91287200Y-67875100D01*
X92658800Y-67875100D01*
X92658800Y-68738700D01*
G37*
G36*
X80775400Y-68725400D02*
G01*
X79724600Y-68725400D01*
X79724600Y-67974600D01*
X80775400Y-67974600D01*
X80775400Y-68725400D01*
G37*
G36*
X89441895Y-68245948D02*
G01*
X89455207Y-68249986D01*
X89467476Y-68256545D01*
X89478230Y-68265370D01*
X89487055Y-68276124D01*
X89493614Y-68288393D01*
X89497652Y-68301705D01*
X89499200Y-68317426D01*
X89499200Y-68532174D01*
X89497652Y-68547895D01*
X89493614Y-68561207D01*
X89487055Y-68573476D01*
X89478230Y-68584230D01*
X89467476Y-68593055D01*
X89455207Y-68599614D01*
X89441895Y-68603652D01*
X89426174Y-68605200D01*
X89181426Y-68605200D01*
X89165705Y-68603652D01*
X89152393Y-68599614D01*
X89140124Y-68593055D01*
X89129370Y-68584230D01*
X89120545Y-68573476D01*
X89113986Y-68561207D01*
X89109948Y-68547895D01*
X89108400Y-68532174D01*
X89108400Y-68317426D01*
X89109948Y-68301705D01*
X89113986Y-68288393D01*
X89120545Y-68276124D01*
X89129370Y-68265370D01*
X89140124Y-68256545D01*
X89152393Y-68249986D01*
X89165705Y-68245948D01*
X89181426Y-68244400D01*
X89426174Y-68244400D01*
X89441895Y-68245948D01*
G37*
G36*
X84910095Y-68036148D02*
G01*
X84923407Y-68040186D01*
X84935676Y-68046745D01*
X84946430Y-68055570D01*
X84955255Y-68066324D01*
X84961814Y-68078593D01*
X84965852Y-68091905D01*
X84967400Y-68107626D01*
X84967400Y-68352374D01*
X84965852Y-68368095D01*
X84961814Y-68381407D01*
X84955255Y-68393676D01*
X84946430Y-68404430D01*
X84935676Y-68413255D01*
X84923407Y-68419814D01*
X84910095Y-68423852D01*
X84894374Y-68425400D01*
X84679626Y-68425400D01*
X84663905Y-68423852D01*
X84650593Y-68419814D01*
X84638324Y-68413255D01*
X84627570Y-68404430D01*
X84618745Y-68393676D01*
X84612186Y-68381407D01*
X84608148Y-68368095D01*
X84606600Y-68352374D01*
X84606600Y-68107626D01*
X84608148Y-68091905D01*
X84612186Y-68078593D01*
X84618745Y-68066324D01*
X84627570Y-68055570D01*
X84638324Y-68046745D01*
X84650593Y-68040186D01*
X84663905Y-68036148D01*
X84679626Y-68034600D01*
X84894374Y-68034600D01*
X84910095Y-68036148D01*
G37*
G36*
X85460095Y-68036148D02*
G01*
X85473407Y-68040186D01*
X85485676Y-68046745D01*
X85496430Y-68055570D01*
X85505255Y-68066324D01*
X85511814Y-68078593D01*
X85515852Y-68091905D01*
X85517400Y-68107626D01*
X85517400Y-68352374D01*
X85515852Y-68368095D01*
X85511814Y-68381407D01*
X85505255Y-68393676D01*
X85496430Y-68404430D01*
X85485676Y-68413255D01*
X85473407Y-68419814D01*
X85460095Y-68423852D01*
X85444374Y-68425400D01*
X85229626Y-68425400D01*
X85213905Y-68423852D01*
X85200593Y-68419814D01*
X85188324Y-68413255D01*
X85177570Y-68404430D01*
X85168745Y-68393676D01*
X85162186Y-68381407D01*
X85158148Y-68368095D01*
X85156600Y-68352374D01*
X85156600Y-68107626D01*
X85158148Y-68091905D01*
X85162186Y-68078593D01*
X85168745Y-68066324D01*
X85177570Y-68055570D01*
X85188324Y-68046745D01*
X85200593Y-68040186D01*
X85213905Y-68036148D01*
X85229626Y-68034600D01*
X85444374Y-68034600D01*
X85460095Y-68036148D01*
G37*
G36*
X86434095Y-68036148D02*
G01*
X86447407Y-68040186D01*
X86459676Y-68046745D01*
X86470430Y-68055570D01*
X86479255Y-68066324D01*
X86485814Y-68078593D01*
X86489852Y-68091905D01*
X86491400Y-68107626D01*
X86491400Y-68352374D01*
X86489852Y-68368095D01*
X86485814Y-68381407D01*
X86479255Y-68393676D01*
X86470430Y-68404430D01*
X86459676Y-68413255D01*
X86447407Y-68419814D01*
X86434095Y-68423852D01*
X86418374Y-68425400D01*
X86203626Y-68425400D01*
X86187905Y-68423852D01*
X86174593Y-68419814D01*
X86162324Y-68413255D01*
X86151570Y-68404430D01*
X86142745Y-68393676D01*
X86136186Y-68381407D01*
X86132148Y-68368095D01*
X86130600Y-68352374D01*
X86130600Y-68107626D01*
X86132148Y-68091905D01*
X86136186Y-68078593D01*
X86142745Y-68066324D01*
X86151570Y-68055570D01*
X86162324Y-68046745D01*
X86174593Y-68040186D01*
X86187905Y-68036148D01*
X86203626Y-68034600D01*
X86418374Y-68034600D01*
X86434095Y-68036148D01*
G37*
G36*
X86984095Y-68036148D02*
G01*
X86997407Y-68040186D01*
X87009676Y-68046745D01*
X87020430Y-68055570D01*
X87029255Y-68066324D01*
X87035814Y-68078593D01*
X87039852Y-68091905D01*
X87041400Y-68107626D01*
X87041400Y-68352374D01*
X87039852Y-68368095D01*
X87035814Y-68381407D01*
X87029255Y-68393676D01*
X87020430Y-68404430D01*
X87009676Y-68413255D01*
X86997407Y-68419814D01*
X86984095Y-68423852D01*
X86968374Y-68425400D01*
X86753626Y-68425400D01*
X86737905Y-68423852D01*
X86724593Y-68419814D01*
X86712324Y-68413255D01*
X86701570Y-68404430D01*
X86692745Y-68393676D01*
X86686186Y-68381407D01*
X86682148Y-68368095D01*
X86680600Y-68352374D01*
X86680600Y-68107626D01*
X86682148Y-68091905D01*
X86686186Y-68078593D01*
X86692745Y-68066324D01*
X86701570Y-68055570D01*
X86712324Y-68046745D01*
X86724593Y-68040186D01*
X86737905Y-68036148D01*
X86753626Y-68034600D01*
X86968374Y-68034600D01*
X86984095Y-68036148D01*
G37*
G36*
X90877737Y-67406727D02*
G01*
X90920123Y-67419585D01*
X90959188Y-67440465D01*
X90993431Y-67468569D01*
X91021535Y-67502812D01*
X91042415Y-67541877D01*
X91055273Y-67584263D01*
X91059800Y-67630226D01*
X91059800Y-68154974D01*
X91055273Y-68200937D01*
X91042415Y-68243323D01*
X91021535Y-68282388D01*
X90993431Y-68316631D01*
X90959188Y-68344735D01*
X90920123Y-68365615D01*
X90877737Y-68378473D01*
X90831774Y-68383000D01*
X89917026Y-68383000D01*
X89871063Y-68378473D01*
X89828677Y-68365615D01*
X89789612Y-68344735D01*
X89755369Y-68316631D01*
X89727265Y-68282388D01*
X89706385Y-68243323D01*
X89693527Y-68200937D01*
X89689000Y-68154974D01*
X89689000Y-67630226D01*
X89693527Y-67584263D01*
X89706385Y-67541877D01*
X89727265Y-67502812D01*
X89755369Y-67468569D01*
X89789612Y-67440465D01*
X89828677Y-67419585D01*
X89871063Y-67406727D01*
X89917026Y-67402200D01*
X90831774Y-67402200D01*
X90877737Y-67406727D01*
G37*
G36*
X88718737Y-67406727D02*
G01*
X88761123Y-67419585D01*
X88800188Y-67440465D01*
X88834431Y-67468569D01*
X88862535Y-67502812D01*
X88883415Y-67541877D01*
X88896273Y-67584263D01*
X88900800Y-67630226D01*
X88900800Y-68154974D01*
X88896273Y-68200937D01*
X88883415Y-68243323D01*
X88862535Y-68282388D01*
X88834431Y-68316631D01*
X88800188Y-68344735D01*
X88761123Y-68365615D01*
X88718737Y-68378473D01*
X88672774Y-68383000D01*
X87758026Y-68383000D01*
X87712063Y-68378473D01*
X87669677Y-68365615D01*
X87630612Y-68344735D01*
X87596369Y-68316631D01*
X87568265Y-68282388D01*
X87547385Y-68243323D01*
X87534527Y-68200937D01*
X87530000Y-68154974D01*
X87530000Y-67630226D01*
X87534527Y-67584263D01*
X87547385Y-67541877D01*
X87568265Y-67502812D01*
X87596369Y-67468569D01*
X87630612Y-67440465D01*
X87669677Y-67419585D01*
X87712063Y-67406727D01*
X87758026Y-67402200D01*
X88672774Y-67402200D01*
X88718737Y-67406727D01*
G37*
G36*
X89441895Y-67695948D02*
G01*
X89455207Y-67699986D01*
X89467476Y-67706545D01*
X89478230Y-67715370D01*
X89487055Y-67726124D01*
X89493614Y-67738393D01*
X89497652Y-67751705D01*
X89499200Y-67767426D01*
X89499200Y-67982174D01*
X89497652Y-67997895D01*
X89493614Y-68011207D01*
X89487055Y-68023476D01*
X89478230Y-68034230D01*
X89467476Y-68043055D01*
X89455207Y-68049614D01*
X89441895Y-68053652D01*
X89426174Y-68055200D01*
X89181426Y-68055200D01*
X89165705Y-68053652D01*
X89152393Y-68049614D01*
X89140124Y-68043055D01*
X89129370Y-68034230D01*
X89120545Y-68023476D01*
X89113986Y-68011207D01*
X89109948Y-67997895D01*
X89108400Y-67982174D01*
X89108400Y-67767426D01*
X89109948Y-67751705D01*
X89113986Y-67738393D01*
X89120545Y-67726124D01*
X89129370Y-67715370D01*
X89140124Y-67706545D01*
X89152393Y-67699986D01*
X89165705Y-67695948D01*
X89181426Y-67694400D01*
X89426174Y-67694400D01*
X89441895Y-67695948D01*
G37*
G36*
X84913895Y-67426548D02*
G01*
X84927207Y-67430586D01*
X84939476Y-67437145D01*
X84950230Y-67445970D01*
X84959055Y-67456724D01*
X84965614Y-67468993D01*
X84969652Y-67482305D01*
X84971200Y-67498026D01*
X84971200Y-67742774D01*
X84969652Y-67758495D01*
X84965614Y-67771807D01*
X84959055Y-67784076D01*
X84950230Y-67794830D01*
X84939476Y-67803655D01*
X84927207Y-67810214D01*
X84913895Y-67814252D01*
X84898174Y-67815800D01*
X84683426Y-67815800D01*
X84667705Y-67814252D01*
X84654393Y-67810214D01*
X84642124Y-67803655D01*
X84631370Y-67794830D01*
X84622545Y-67784076D01*
X84615986Y-67771807D01*
X84611948Y-67758495D01*
X84610400Y-67742774D01*
X84610400Y-67498026D01*
X84611948Y-67482305D01*
X84615986Y-67468993D01*
X84622545Y-67456724D01*
X84631370Y-67445970D01*
X84642124Y-67437145D01*
X84654393Y-67430586D01*
X84667705Y-67426548D01*
X84683426Y-67425000D01*
X84898174Y-67425000D01*
X84913895Y-67426548D01*
G37*
G36*
X85463895Y-67426548D02*
G01*
X85477207Y-67430586D01*
X85489476Y-67437145D01*
X85500230Y-67445970D01*
X85509055Y-67456724D01*
X85515614Y-67468993D01*
X85519652Y-67482305D01*
X85521200Y-67498026D01*
X85521200Y-67742774D01*
X85519652Y-67758495D01*
X85515614Y-67771807D01*
X85509055Y-67784076D01*
X85500230Y-67794830D01*
X85489476Y-67803655D01*
X85477207Y-67810214D01*
X85463895Y-67814252D01*
X85448174Y-67815800D01*
X85233426Y-67815800D01*
X85217705Y-67814252D01*
X85204393Y-67810214D01*
X85192124Y-67803655D01*
X85181370Y-67794830D01*
X85172545Y-67784076D01*
X85165986Y-67771807D01*
X85161948Y-67758495D01*
X85160400Y-67742774D01*
X85160400Y-67498026D01*
X85161948Y-67482305D01*
X85165986Y-67468993D01*
X85172545Y-67456724D01*
X85181370Y-67445970D01*
X85192124Y-67437145D01*
X85204393Y-67430586D01*
X85217705Y-67426548D01*
X85233426Y-67425000D01*
X85448174Y-67425000D01*
X85463895Y-67426548D01*
G37*
G36*
X87136969Y-67130446D02*
G01*
X87162934Y-67138322D01*
X87186877Y-67151121D01*
X87207859Y-67168341D01*
X87225079Y-67189323D01*
X87237878Y-67213266D01*
X87245754Y-67239231D01*
X87248600Y-67268126D01*
X87248600Y-67667874D01*
X87245754Y-67696769D01*
X87237878Y-67722734D01*
X87225079Y-67746677D01*
X87207859Y-67767659D01*
X87186877Y-67784879D01*
X87162934Y-67797678D01*
X87136969Y-67805554D01*
X87108074Y-67808400D01*
X86758326Y-67808400D01*
X86729431Y-67805554D01*
X86703466Y-67797678D01*
X86679523Y-67784879D01*
X86658541Y-67767659D01*
X86641321Y-67746677D01*
X86628522Y-67722734D01*
X86620646Y-67696769D01*
X86617800Y-67667874D01*
X86617800Y-67268126D01*
X86620646Y-67239231D01*
X86628522Y-67213266D01*
X86641321Y-67189323D01*
X86658541Y-67168341D01*
X86679523Y-67151121D01*
X86703466Y-67138322D01*
X86729431Y-67130446D01*
X86758326Y-67127600D01*
X87108074Y-67127600D01*
X87136969Y-67130446D01*
G37*
G36*
X86246969Y-67130446D02*
G01*
X86272934Y-67138322D01*
X86296877Y-67151121D01*
X86317859Y-67168341D01*
X86335079Y-67189323D01*
X86347878Y-67213266D01*
X86355754Y-67239231D01*
X86358600Y-67268126D01*
X86358600Y-67667874D01*
X86355754Y-67696769D01*
X86347878Y-67722734D01*
X86335079Y-67746677D01*
X86317859Y-67767659D01*
X86296877Y-67784879D01*
X86272934Y-67797678D01*
X86246969Y-67805554D01*
X86218074Y-67808400D01*
X85868326Y-67808400D01*
X85839431Y-67805554D01*
X85813466Y-67797678D01*
X85789523Y-67784879D01*
X85768541Y-67767659D01*
X85751321Y-67746677D01*
X85738522Y-67722734D01*
X85730646Y-67696769D01*
X85727800Y-67667874D01*
X85727800Y-67268126D01*
X85730646Y-67239231D01*
X85738522Y-67213266D01*
X85751321Y-67189323D01*
X85768541Y-67168341D01*
X85789523Y-67151121D01*
X85813466Y-67138322D01*
X85839431Y-67130446D01*
X85868326Y-67127600D01*
X86218074Y-67127600D01*
X86246969Y-67130446D01*
G37*
G36*
X80775400Y-67625400D02*
G01*
X79724600Y-67625400D01*
X79724600Y-66874600D01*
X80775400Y-66874600D01*
X80775400Y-67625400D01*
G37*
G36*
X92658800Y-67468700D02*
G01*
X91287200Y-67468700D01*
X91287200Y-66605100D01*
X92658800Y-66605100D01*
X92658800Y-67468700D01*
G37*
G36*
X85100695Y-66827548D02*
G01*
X85114007Y-66831586D01*
X85126276Y-66838145D01*
X85137030Y-66846970D01*
X85145855Y-66857724D01*
X85152414Y-66869993D01*
X85156452Y-66883305D01*
X85158000Y-66899026D01*
X85158000Y-67113774D01*
X85156452Y-67129495D01*
X85152414Y-67142807D01*
X85145855Y-67155076D01*
X85137030Y-67165830D01*
X85126276Y-67174655D01*
X85114007Y-67181214D01*
X85100695Y-67185252D01*
X85084974Y-67186800D01*
X84840226Y-67186800D01*
X84824505Y-67185252D01*
X84811193Y-67181214D01*
X84798924Y-67174655D01*
X84788170Y-67165830D01*
X84779345Y-67155076D01*
X84772786Y-67142807D01*
X84768748Y-67129495D01*
X84767200Y-67113774D01*
X84767200Y-66899026D01*
X84768748Y-66883305D01*
X84772786Y-66869993D01*
X84779345Y-66857724D01*
X84788170Y-66846970D01*
X84798924Y-66838145D01*
X84811193Y-66831586D01*
X84824505Y-66827548D01*
X84840226Y-66826000D01*
X85084974Y-66826000D01*
X85100695Y-66827548D01*
G37*
G36*
X87945495Y-66739348D02*
G01*
X87958807Y-66743386D01*
X87971076Y-66749945D01*
X87981830Y-66758770D01*
X87990655Y-66769524D01*
X87997214Y-66781793D01*
X88001252Y-66795105D01*
X88002800Y-66810826D01*
X88002800Y-67025574D01*
X88001252Y-67041295D01*
X87997214Y-67054607D01*
X87990655Y-67066876D01*
X87981830Y-67077630D01*
X87971076Y-67086455D01*
X87958807Y-67093014D01*
X87945495Y-67097052D01*
X87929774Y-67098600D01*
X87685026Y-67098600D01*
X87669305Y-67097052D01*
X87655993Y-67093014D01*
X87643724Y-67086455D01*
X87632970Y-67077630D01*
X87624145Y-67066876D01*
X87617586Y-67054607D01*
X87613548Y-67041295D01*
X87612000Y-67025574D01*
X87612000Y-66810826D01*
X87613548Y-66795105D01*
X87617586Y-66781793D01*
X87624145Y-66769524D01*
X87632970Y-66758770D01*
X87643724Y-66749945D01*
X87655993Y-66743386D01*
X87669305Y-66739348D01*
X87685026Y-66737800D01*
X87929774Y-66737800D01*
X87945495Y-66739348D01*
G37*
G36*
X89775895Y-66738648D02*
G01*
X89789207Y-66742686D01*
X89801476Y-66749245D01*
X89812230Y-66758070D01*
X89821055Y-66768824D01*
X89827614Y-66781093D01*
X89831652Y-66794405D01*
X89833200Y-66810126D01*
X89833200Y-67024874D01*
X89831652Y-67040595D01*
X89827614Y-67053907D01*
X89821055Y-67066176D01*
X89812230Y-67076930D01*
X89801476Y-67085755D01*
X89789207Y-67092314D01*
X89775895Y-67096352D01*
X89760174Y-67097900D01*
X89515426Y-67097900D01*
X89499705Y-67096352D01*
X89486393Y-67092314D01*
X89474124Y-67085755D01*
X89463370Y-67076930D01*
X89454545Y-67066176D01*
X89447986Y-67053907D01*
X89443948Y-67040595D01*
X89442400Y-67024874D01*
X89442400Y-66810126D01*
X89443948Y-66794405D01*
X89447986Y-66781093D01*
X89454545Y-66768824D01*
X89463370Y-66758070D01*
X89474124Y-66749245D01*
X89486393Y-66742686D01*
X89499705Y-66738648D01*
X89515426Y-66737100D01*
X89760174Y-66737100D01*
X89775895Y-66738648D01*
G37*
G36*
X90995095Y-66738648D02*
G01*
X91008407Y-66742686D01*
X91020676Y-66749245D01*
X91031430Y-66758070D01*
X91040255Y-66768824D01*
X91046814Y-66781093D01*
X91050852Y-66794405D01*
X91052400Y-66810126D01*
X91052400Y-67024874D01*
X91050852Y-67040595D01*
X91046814Y-67053907D01*
X91040255Y-67066176D01*
X91031430Y-67076930D01*
X91020676Y-67085755D01*
X91008407Y-67092314D01*
X90995095Y-67096352D01*
X90979374Y-67097900D01*
X90734626Y-67097900D01*
X90718905Y-67096352D01*
X90705593Y-67092314D01*
X90693324Y-67085755D01*
X90682570Y-67076930D01*
X90673745Y-67066176D01*
X90667186Y-67053907D01*
X90663148Y-67040595D01*
X90661600Y-67024874D01*
X90661600Y-66810126D01*
X90663148Y-66794405D01*
X90667186Y-66781093D01*
X90673745Y-66768824D01*
X90682570Y-66758070D01*
X90693324Y-66749245D01*
X90705593Y-66742686D01*
X90718905Y-66738648D01*
X90734626Y-66737100D01*
X90979374Y-66737100D01*
X90995095Y-66738648D01*
G37*
G36*
X90385495Y-66738648D02*
G01*
X90398807Y-66742686D01*
X90411076Y-66749245D01*
X90421830Y-66758070D01*
X90430655Y-66768824D01*
X90437214Y-66781093D01*
X90441252Y-66794405D01*
X90442800Y-66810126D01*
X90442800Y-67024874D01*
X90441252Y-67040595D01*
X90437214Y-67053907D01*
X90430655Y-67066176D01*
X90421830Y-67076930D01*
X90411076Y-67085755D01*
X90398807Y-67092314D01*
X90385495Y-67096352D01*
X90369774Y-67097900D01*
X90125026Y-67097900D01*
X90109305Y-67096352D01*
X90095993Y-67092314D01*
X90083724Y-67085755D01*
X90072970Y-67076930D01*
X90064145Y-67066176D01*
X90057586Y-67053907D01*
X90053548Y-67040595D01*
X90052000Y-67024874D01*
X90052000Y-66810126D01*
X90053548Y-66794405D01*
X90057586Y-66781093D01*
X90064145Y-66768824D01*
X90072970Y-66758070D01*
X90083724Y-66749245D01*
X90095993Y-66742686D01*
X90109305Y-66738648D01*
X90125026Y-66737100D01*
X90369774Y-66737100D01*
X90385495Y-66738648D01*
G37*
G36*
X88556695Y-66738648D02*
G01*
X88570007Y-66742686D01*
X88582276Y-66749245D01*
X88593030Y-66758070D01*
X88601855Y-66768824D01*
X88608414Y-66781093D01*
X88612452Y-66794405D01*
X88614000Y-66810126D01*
X88614000Y-67024874D01*
X88612452Y-67040595D01*
X88608414Y-67053907D01*
X88601855Y-67066176D01*
X88593030Y-67076930D01*
X88582276Y-67085755D01*
X88570007Y-67092314D01*
X88556695Y-67096352D01*
X88540974Y-67097900D01*
X88296226Y-67097900D01*
X88280505Y-67096352D01*
X88267193Y-67092314D01*
X88254924Y-67085755D01*
X88244170Y-67076930D01*
X88235345Y-67066176D01*
X88228786Y-67053907D01*
X88224748Y-67040595D01*
X88223200Y-67024874D01*
X88223200Y-66810126D01*
X88224748Y-66794405D01*
X88228786Y-66781093D01*
X88235345Y-66768824D01*
X88244170Y-66758070D01*
X88254924Y-66749245D01*
X88267193Y-66742686D01*
X88280505Y-66738648D01*
X88296226Y-66737100D01*
X88540974Y-66737100D01*
X88556695Y-66738648D01*
G37*
G36*
X89164695Y-66738648D02*
G01*
X89178007Y-66742686D01*
X89190276Y-66749245D01*
X89201030Y-66758070D01*
X89209855Y-66768824D01*
X89216414Y-66781093D01*
X89220452Y-66794405D01*
X89222000Y-66810126D01*
X89222000Y-67024874D01*
X89220452Y-67040595D01*
X89216414Y-67053907D01*
X89209855Y-67066176D01*
X89201030Y-67076930D01*
X89190276Y-67085755D01*
X89178007Y-67092314D01*
X89164695Y-67096352D01*
X89148974Y-67097900D01*
X88904226Y-67097900D01*
X88888505Y-67096352D01*
X88875193Y-67092314D01*
X88862924Y-67085755D01*
X88852170Y-67076930D01*
X88843345Y-67066176D01*
X88836786Y-67053907D01*
X88832748Y-67040595D01*
X88831200Y-67024874D01*
X88831200Y-66810126D01*
X88832748Y-66794405D01*
X88836786Y-66781093D01*
X88843345Y-66768824D01*
X88852170Y-66758070D01*
X88862924Y-66749245D01*
X88875193Y-66742686D01*
X88888505Y-66738648D01*
X88904226Y-66737100D01*
X89148974Y-66737100D01*
X89164695Y-66738648D01*
G37*
G36*
X87136969Y-66165246D02*
G01*
X87162934Y-66173122D01*
X87186877Y-66185921D01*
X87207859Y-66203141D01*
X87225079Y-66224123D01*
X87237878Y-66248066D01*
X87245754Y-66274031D01*
X87248600Y-66302926D01*
X87248600Y-66702674D01*
X87245754Y-66731569D01*
X87237878Y-66757534D01*
X87225079Y-66781477D01*
X87207859Y-66802459D01*
X87186877Y-66819679D01*
X87162934Y-66832478D01*
X87136969Y-66840354D01*
X87108074Y-66843200D01*
X86758326Y-66843200D01*
X86729431Y-66840354D01*
X86703466Y-66832478D01*
X86679523Y-66819679D01*
X86658541Y-66802459D01*
X86641321Y-66781477D01*
X86628522Y-66757534D01*
X86620646Y-66731569D01*
X86617800Y-66702674D01*
X86617800Y-66302926D01*
X86620646Y-66274031D01*
X86628522Y-66248066D01*
X86641321Y-66224123D01*
X86658541Y-66203141D01*
X86679523Y-66185921D01*
X86703466Y-66173122D01*
X86729431Y-66165246D01*
X86758326Y-66162400D01*
X87108074Y-66162400D01*
X87136969Y-66165246D01*
G37*
G36*
X86246969Y-66165246D02*
G01*
X86272934Y-66173122D01*
X86296877Y-66185921D01*
X86317859Y-66203141D01*
X86335079Y-66224123D01*
X86347878Y-66248066D01*
X86355754Y-66274031D01*
X86358600Y-66302926D01*
X86358600Y-66702674D01*
X86355754Y-66731569D01*
X86347878Y-66757534D01*
X86335079Y-66781477D01*
X86317859Y-66802459D01*
X86296877Y-66819679D01*
X86272934Y-66832478D01*
X86246969Y-66840354D01*
X86218074Y-66843200D01*
X85868326Y-66843200D01*
X85839431Y-66840354D01*
X85813466Y-66832478D01*
X85789523Y-66819679D01*
X85768541Y-66802459D01*
X85751321Y-66781477D01*
X85738522Y-66757534D01*
X85730646Y-66731569D01*
X85727800Y-66702674D01*
X85727800Y-66302926D01*
X85730646Y-66274031D01*
X85738522Y-66248066D01*
X85751321Y-66224123D01*
X85768541Y-66203141D01*
X85789523Y-66185921D01*
X85813466Y-66173122D01*
X85839431Y-66165246D01*
X85868326Y-66162400D01*
X86218074Y-66162400D01*
X86246969Y-66165246D01*
G37*
G36*
X85100695Y-66277548D02*
G01*
X85114007Y-66281586D01*
X85126276Y-66288145D01*
X85137030Y-66296970D01*
X85145855Y-66307724D01*
X85152414Y-66319993D01*
X85156452Y-66333305D01*
X85158000Y-66349026D01*
X85158000Y-66563774D01*
X85156452Y-66579495D01*
X85152414Y-66592807D01*
X85145855Y-66605076D01*
X85137030Y-66615830D01*
X85126276Y-66624655D01*
X85114007Y-66631214D01*
X85100695Y-66635252D01*
X85084974Y-66636800D01*
X84840226Y-66636800D01*
X84824505Y-66635252D01*
X84811193Y-66631214D01*
X84798924Y-66624655D01*
X84788170Y-66615830D01*
X84779345Y-66605076D01*
X84772786Y-66592807D01*
X84768748Y-66579495D01*
X84767200Y-66563774D01*
X84767200Y-66349026D01*
X84768748Y-66333305D01*
X84772786Y-66319993D01*
X84779345Y-66307724D01*
X84788170Y-66296970D01*
X84798924Y-66288145D01*
X84811193Y-66281586D01*
X84824505Y-66277548D01*
X84840226Y-66276000D01*
X85084974Y-66276000D01*
X85100695Y-66277548D01*
G37*
G36*
X87945495Y-66189348D02*
G01*
X87958807Y-66193386D01*
X87971076Y-66199945D01*
X87981830Y-66208770D01*
X87990655Y-66219524D01*
X87997214Y-66231793D01*
X88001252Y-66245105D01*
X88002800Y-66260826D01*
X88002800Y-66475574D01*
X88001252Y-66491295D01*
X87997214Y-66504607D01*
X87990655Y-66516876D01*
X87981830Y-66527630D01*
X87971076Y-66536455D01*
X87958807Y-66543014D01*
X87945495Y-66547052D01*
X87929774Y-66548600D01*
X87685026Y-66548600D01*
X87669305Y-66547052D01*
X87655993Y-66543014D01*
X87643724Y-66536455D01*
X87632970Y-66527630D01*
X87624145Y-66516876D01*
X87617586Y-66504607D01*
X87613548Y-66491295D01*
X87612000Y-66475574D01*
X87612000Y-66260826D01*
X87613548Y-66245105D01*
X87617586Y-66231793D01*
X87624145Y-66219524D01*
X87632970Y-66208770D01*
X87643724Y-66199945D01*
X87655993Y-66193386D01*
X87669305Y-66189348D01*
X87685026Y-66187800D01*
X87929774Y-66187800D01*
X87945495Y-66189348D01*
G37*
G36*
X89775895Y-66188648D02*
G01*
X89789207Y-66192686D01*
X89801476Y-66199245D01*
X89812230Y-66208070D01*
X89821055Y-66218824D01*
X89827614Y-66231093D01*
X89831652Y-66244405D01*
X89833200Y-66260126D01*
X89833200Y-66474874D01*
X89831652Y-66490595D01*
X89827614Y-66503907D01*
X89821055Y-66516176D01*
X89812230Y-66526930D01*
X89801476Y-66535755D01*
X89789207Y-66542314D01*
X89775895Y-66546352D01*
X89760174Y-66547900D01*
X89515426Y-66547900D01*
X89499705Y-66546352D01*
X89486393Y-66542314D01*
X89474124Y-66535755D01*
X89463370Y-66526930D01*
X89454545Y-66516176D01*
X89447986Y-66503907D01*
X89443948Y-66490595D01*
X89442400Y-66474874D01*
X89442400Y-66260126D01*
X89443948Y-66244405D01*
X89447986Y-66231093D01*
X89454545Y-66218824D01*
X89463370Y-66208070D01*
X89474124Y-66199245D01*
X89486393Y-66192686D01*
X89499705Y-66188648D01*
X89515426Y-66187100D01*
X89760174Y-66187100D01*
X89775895Y-66188648D01*
G37*
G36*
X90995095Y-66188648D02*
G01*
X91008407Y-66192686D01*
X91020676Y-66199245D01*
X91031430Y-66208070D01*
X91040255Y-66218824D01*
X91046814Y-66231093D01*
X91050852Y-66244405D01*
X91052400Y-66260126D01*
X91052400Y-66474874D01*
X91050852Y-66490595D01*
X91046814Y-66503907D01*
X91040255Y-66516176D01*
X91031430Y-66526930D01*
X91020676Y-66535755D01*
X91008407Y-66542314D01*
X90995095Y-66546352D01*
X90979374Y-66547900D01*
X90734626Y-66547900D01*
X90718905Y-66546352D01*
X90705593Y-66542314D01*
X90693324Y-66535755D01*
X90682570Y-66526930D01*
X90673745Y-66516176D01*
X90667186Y-66503907D01*
X90663148Y-66490595D01*
X90661600Y-66474874D01*
X90661600Y-66260126D01*
X90663148Y-66244405D01*
X90667186Y-66231093D01*
X90673745Y-66218824D01*
X90682570Y-66208070D01*
X90693324Y-66199245D01*
X90705593Y-66192686D01*
X90718905Y-66188648D01*
X90734626Y-66187100D01*
X90979374Y-66187100D01*
X90995095Y-66188648D01*
G37*
G36*
X88556695Y-66188648D02*
G01*
X88570007Y-66192686D01*
X88582276Y-66199245D01*
X88593030Y-66208070D01*
X88601855Y-66218824D01*
X88608414Y-66231093D01*
X88612452Y-66244405D01*
X88614000Y-66260126D01*
X88614000Y-66474874D01*
X88612452Y-66490595D01*
X88608414Y-66503907D01*
X88601855Y-66516176D01*
X88593030Y-66526930D01*
X88582276Y-66535755D01*
X88570007Y-66542314D01*
X88556695Y-66546352D01*
X88540974Y-66547900D01*
X88296226Y-66547900D01*
X88280505Y-66546352D01*
X88267193Y-66542314D01*
X88254924Y-66535755D01*
X88244170Y-66526930D01*
X88235345Y-66516176D01*
X88228786Y-66503907D01*
X88224748Y-66490595D01*
X88223200Y-66474874D01*
X88223200Y-66260126D01*
X88224748Y-66244405D01*
X88228786Y-66231093D01*
X88235345Y-66218824D01*
X88244170Y-66208070D01*
X88254924Y-66199245D01*
X88267193Y-66192686D01*
X88280505Y-66188648D01*
X88296226Y-66187100D01*
X88540974Y-66187100D01*
X88556695Y-66188648D01*
G37*
G36*
X89164695Y-66188648D02*
G01*
X89178007Y-66192686D01*
X89190276Y-66199245D01*
X89201030Y-66208070D01*
X89209855Y-66218824D01*
X89216414Y-66231093D01*
X89220452Y-66244405D01*
X89222000Y-66260126D01*
X89222000Y-66474874D01*
X89220452Y-66490595D01*
X89216414Y-66503907D01*
X89209855Y-66516176D01*
X89201030Y-66526930D01*
X89190276Y-66535755D01*
X89178007Y-66542314D01*
X89164695Y-66546352D01*
X89148974Y-66547900D01*
X88904226Y-66547900D01*
X88888505Y-66546352D01*
X88875193Y-66542314D01*
X88862924Y-66535755D01*
X88852170Y-66526930D01*
X88843345Y-66516176D01*
X88836786Y-66503907D01*
X88832748Y-66490595D01*
X88831200Y-66474874D01*
X88831200Y-66260126D01*
X88832748Y-66244405D01*
X88836786Y-66231093D01*
X88843345Y-66218824D01*
X88852170Y-66208070D01*
X88862924Y-66199245D01*
X88875193Y-66192686D01*
X88888505Y-66188648D01*
X88904226Y-66187100D01*
X89148974Y-66187100D01*
X89164695Y-66188648D01*
G37*
G36*
X90385495Y-66188648D02*
G01*
X90398807Y-66192686D01*
X90411076Y-66199245D01*
X90421830Y-66208070D01*
X90430655Y-66218824D01*
X90437214Y-66231093D01*
X90441252Y-66244405D01*
X90442800Y-66260126D01*
X90442800Y-66474874D01*
X90441252Y-66490595D01*
X90437214Y-66503907D01*
X90430655Y-66516176D01*
X90421830Y-66526930D01*
X90411076Y-66535755D01*
X90398807Y-66542314D01*
X90385495Y-66546352D01*
X90369774Y-66547900D01*
X90125026Y-66547900D01*
X90109305Y-66546352D01*
X90095993Y-66542314D01*
X90083724Y-66535755D01*
X90072970Y-66526930D01*
X90064145Y-66516176D01*
X90057586Y-66503907D01*
X90053548Y-66490595D01*
X90052000Y-66474874D01*
X90052000Y-66260126D01*
X90053548Y-66244405D01*
X90057586Y-66231093D01*
X90064145Y-66218824D01*
X90072970Y-66208070D01*
X90083724Y-66199245D01*
X90095993Y-66192686D01*
X90109305Y-66188648D01*
X90125026Y-66187100D01*
X90369774Y-66187100D01*
X90385495Y-66188648D01*
G37*
G36*
X80775400Y-66525400D02*
G01*
X79724600Y-66525400D01*
X79724600Y-65774600D01*
X80775400Y-65774600D01*
X80775400Y-66525400D01*
G37*
G36*
X92658800Y-66198700D02*
G01*
X91287200Y-66198700D01*
X91287200Y-65335100D01*
X92658800Y-65335100D01*
X92658800Y-66198700D01*
G37*
G36*
X85126095Y-65684548D02*
G01*
X85139407Y-65688586D01*
X85151676Y-65695145D01*
X85162430Y-65703970D01*
X85171255Y-65714724D01*
X85177814Y-65726993D01*
X85181852Y-65740305D01*
X85183400Y-65756026D01*
X85183400Y-65970774D01*
X85181852Y-65986495D01*
X85177814Y-65999807D01*
X85171255Y-66012076D01*
X85162430Y-66022830D01*
X85151676Y-66031655D01*
X85139407Y-66038214D01*
X85126095Y-66042252D01*
X85110374Y-66043800D01*
X84865626Y-66043800D01*
X84849905Y-66042252D01*
X84836593Y-66038214D01*
X84824324Y-66031655D01*
X84813570Y-66022830D01*
X84804745Y-66012076D01*
X84798186Y-65999807D01*
X84794148Y-65986495D01*
X84792600Y-65970774D01*
X84792600Y-65756026D01*
X84794148Y-65740305D01*
X84798186Y-65726993D01*
X84804745Y-65714724D01*
X84813570Y-65703970D01*
X84824324Y-65695145D01*
X84836593Y-65688586D01*
X84849905Y-65684548D01*
X84865626Y-65683000D01*
X85110374Y-65683000D01*
X85126095Y-65684548D01*
G37*
G36*
X90095000Y-65783200D02*
G01*
X89774200Y-65783200D01*
X89774200Y-65092400D01*
X90095000Y-65092400D01*
X90095000Y-65783200D01*
G37*
G36*
X89595000Y-65783200D02*
G01*
X89274200Y-65783200D01*
X89274200Y-65092400D01*
X89595000Y-65092400D01*
X89595000Y-65783200D01*
G37*
G36*
X89095000Y-65783200D02*
G01*
X88774200Y-65783200D01*
X88774200Y-65092400D01*
X89095000Y-65092400D01*
X89095000Y-65783200D01*
G37*
G36*
X88595000Y-65783200D02*
G01*
X88274200Y-65783200D01*
X88274200Y-65092400D01*
X88595000Y-65092400D01*
X88595000Y-65783200D01*
G37*
G36*
X90595000Y-65783200D02*
G01*
X90274200Y-65783200D01*
X90274200Y-65092400D01*
X90595000Y-65092400D01*
X90595000Y-65783200D01*
G37*
G36*
X87441295Y-65390548D02*
G01*
X87454607Y-65394586D01*
X87466876Y-65401145D01*
X87477630Y-65409970D01*
X87486455Y-65420724D01*
X87493014Y-65432993D01*
X87497052Y-65446305D01*
X87498600Y-65462026D01*
X87498600Y-65706774D01*
X87497052Y-65722495D01*
X87493014Y-65735807D01*
X87486455Y-65748076D01*
X87477630Y-65758830D01*
X87466876Y-65767655D01*
X87454607Y-65774214D01*
X87441295Y-65778252D01*
X87425574Y-65779800D01*
X87210826Y-65779800D01*
X87195105Y-65778252D01*
X87181793Y-65774214D01*
X87169524Y-65767655D01*
X87158770Y-65758830D01*
X87149945Y-65748076D01*
X87143386Y-65735807D01*
X87139348Y-65722495D01*
X87137800Y-65706774D01*
X87137800Y-65462026D01*
X87139348Y-65446305D01*
X87143386Y-65432993D01*
X87149945Y-65420724D01*
X87158770Y-65409970D01*
X87169524Y-65401145D01*
X87181793Y-65394586D01*
X87195105Y-65390548D01*
X87210826Y-65389000D01*
X87425574Y-65389000D01*
X87441295Y-65390548D01*
G37*
G36*
X86891295Y-65390548D02*
G01*
X86904607Y-65394586D01*
X86916876Y-65401145D01*
X86927630Y-65409970D01*
X86936455Y-65420724D01*
X86943014Y-65432993D01*
X86947052Y-65446305D01*
X86948600Y-65462026D01*
X86948600Y-65706774D01*
X86947052Y-65722495D01*
X86943014Y-65735807D01*
X86936455Y-65748076D01*
X86927630Y-65758830D01*
X86916876Y-65767655D01*
X86904607Y-65774214D01*
X86891295Y-65778252D01*
X86875574Y-65779800D01*
X86660826Y-65779800D01*
X86645105Y-65778252D01*
X86631793Y-65774214D01*
X86619524Y-65767655D01*
X86608770Y-65758830D01*
X86599945Y-65748076D01*
X86593386Y-65735807D01*
X86589348Y-65722495D01*
X86587800Y-65706774D01*
X86587800Y-65462026D01*
X86589348Y-65446305D01*
X86593386Y-65432993D01*
X86599945Y-65420724D01*
X86608770Y-65409970D01*
X86619524Y-65401145D01*
X86631793Y-65394586D01*
X86645105Y-65390548D01*
X86660826Y-65389000D01*
X86875574Y-65389000D01*
X86891295Y-65390548D01*
G37*
G36*
X85877806Y-64808794D02*
G01*
X85938300Y-64820826D01*
X86006619Y-64849125D01*
X86068104Y-64890208D01*
X86120392Y-64942496D01*
X86161475Y-65003981D01*
X86189774Y-65072300D01*
X86199774Y-65122574D01*
X86204200Y-65144826D01*
X86204200Y-65218774D01*
X86201806Y-65230806D01*
X86189774Y-65291300D01*
X86161475Y-65359619D01*
X86120392Y-65421104D01*
X86068104Y-65473392D01*
X86006619Y-65514475D01*
X85938300Y-65542774D01*
X85877806Y-65554806D01*
X85865774Y-65557200D01*
X85791826Y-65557200D01*
X85779794Y-65554806D01*
X85719300Y-65542774D01*
X85650981Y-65514475D01*
X85589496Y-65473392D01*
X85537208Y-65421104D01*
X85496125Y-65359619D01*
X85467826Y-65291300D01*
X85455794Y-65230806D01*
X85453400Y-65218774D01*
X85453400Y-65144826D01*
X85457826Y-65122574D01*
X85467826Y-65072300D01*
X85496125Y-65003981D01*
X85537208Y-64942496D01*
X85589496Y-64890208D01*
X85650981Y-64849125D01*
X85719300Y-64820826D01*
X85779794Y-64808794D01*
X85791826Y-64806400D01*
X85865774Y-64806400D01*
X85877806Y-64808794D01*
G37*
G36*
X85126095Y-65134548D02*
G01*
X85139407Y-65138586D01*
X85151676Y-65145145D01*
X85162430Y-65153970D01*
X85171255Y-65164724D01*
X85177814Y-65176993D01*
X85181852Y-65190305D01*
X85183400Y-65206026D01*
X85183400Y-65420774D01*
X85181852Y-65436495D01*
X85177814Y-65449807D01*
X85171255Y-65462076D01*
X85162430Y-65472830D01*
X85151676Y-65481655D01*
X85139407Y-65488214D01*
X85126095Y-65492252D01*
X85110374Y-65493800D01*
X84865626Y-65493800D01*
X84849905Y-65492252D01*
X84836593Y-65488214D01*
X84824324Y-65481655D01*
X84813570Y-65472830D01*
X84804745Y-65462076D01*
X84798186Y-65449807D01*
X84794148Y-65436495D01*
X84792600Y-65420774D01*
X84792600Y-65206026D01*
X84794148Y-65190305D01*
X84798186Y-65176993D01*
X84804745Y-65164724D01*
X84813570Y-65153970D01*
X84824324Y-65145145D01*
X84836593Y-65138586D01*
X84849905Y-65134548D01*
X84865626Y-65133000D01*
X85110374Y-65133000D01*
X85126095Y-65134548D01*
G37*
G36*
X80775400Y-65425400D02*
G01*
X79724600Y-65425400D01*
X79724600Y-64674600D01*
X80775400Y-64674600D01*
X80775400Y-65425400D01*
G37*
G36*
X87428595Y-64806348D02*
G01*
X87441907Y-64810386D01*
X87454176Y-64816945D01*
X87464930Y-64825770D01*
X87473755Y-64836524D01*
X87480314Y-64848793D01*
X87484352Y-64862105D01*
X87485900Y-64877826D01*
X87485900Y-65122574D01*
X87484352Y-65138295D01*
X87480314Y-65151607D01*
X87473755Y-65163876D01*
X87464930Y-65174630D01*
X87454176Y-65183455D01*
X87441907Y-65190014D01*
X87428595Y-65194052D01*
X87412874Y-65195600D01*
X87198126Y-65195600D01*
X87182405Y-65194052D01*
X87169093Y-65190014D01*
X87156824Y-65183455D01*
X87146070Y-65174630D01*
X87137245Y-65163876D01*
X87130686Y-65151607D01*
X87126648Y-65138295D01*
X87125100Y-65122574D01*
X87125100Y-64877826D01*
X87126648Y-64862105D01*
X87130686Y-64848793D01*
X87137245Y-64836524D01*
X87146070Y-64825770D01*
X87156824Y-64816945D01*
X87169093Y-64810386D01*
X87182405Y-64806348D01*
X87198126Y-64804800D01*
X87412874Y-64804800D01*
X87428595Y-64806348D01*
G37*
G36*
X86878595Y-64806348D02*
G01*
X86891907Y-64810386D01*
X86904176Y-64816945D01*
X86914930Y-64825770D01*
X86923755Y-64836524D01*
X86930314Y-64848793D01*
X86934352Y-64862105D01*
X86935900Y-64877826D01*
X86935900Y-65122574D01*
X86934352Y-65138295D01*
X86930314Y-65151607D01*
X86923755Y-65163876D01*
X86914930Y-65174630D01*
X86904176Y-65183455D01*
X86891907Y-65190014D01*
X86878595Y-65194052D01*
X86862874Y-65195600D01*
X86648126Y-65195600D01*
X86632405Y-65194052D01*
X86619093Y-65190014D01*
X86606824Y-65183455D01*
X86596070Y-65174630D01*
X86587245Y-65163876D01*
X86580686Y-65151607D01*
X86576648Y-65138295D01*
X86575100Y-65122574D01*
X86575100Y-64877826D01*
X86576648Y-64862105D01*
X86580686Y-64848793D01*
X86587245Y-64836524D01*
X86596070Y-64825770D01*
X86606824Y-64816945D01*
X86619093Y-64810386D01*
X86632405Y-64806348D01*
X86648126Y-64804800D01*
X86862874Y-64804800D01*
X86878595Y-64806348D01*
G37*
G36*
X90655000Y-64943200D02*
G01*
X88214200Y-64943200D01*
X88214200Y-64252400D01*
X90655000Y-64252400D01*
X90655000Y-64943200D01*
G37*
G36*
X91562795Y-64435948D02*
G01*
X91576107Y-64439986D01*
X91588376Y-64446545D01*
X91599130Y-64455370D01*
X91607955Y-64466124D01*
X91614514Y-64478393D01*
X91618552Y-64491705D01*
X91620100Y-64507426D01*
X91620100Y-64722174D01*
X91618552Y-64737895D01*
X91614514Y-64751207D01*
X91607955Y-64763476D01*
X91599130Y-64774230D01*
X91588376Y-64783055D01*
X91576107Y-64789614D01*
X91562795Y-64793652D01*
X91547074Y-64795200D01*
X91302326Y-64795200D01*
X91286605Y-64793652D01*
X91273293Y-64789614D01*
X91261024Y-64783055D01*
X91250270Y-64774230D01*
X91241445Y-64763476D01*
X91234886Y-64751207D01*
X91230848Y-64737895D01*
X91229300Y-64722174D01*
X91229300Y-64507426D01*
X91230848Y-64491705D01*
X91234886Y-64478393D01*
X91241445Y-64466124D01*
X91250270Y-64455370D01*
X91261024Y-64446545D01*
X91273293Y-64439986D01*
X91286605Y-64435948D01*
X91302326Y-64434400D01*
X91547074Y-64434400D01*
X91562795Y-64435948D01*
G37*
G36*
X92185095Y-64435948D02*
G01*
X92198407Y-64439986D01*
X92210676Y-64446545D01*
X92221430Y-64455370D01*
X92230255Y-64466124D01*
X92236814Y-64478393D01*
X92240852Y-64491705D01*
X92242400Y-64507426D01*
X92242400Y-64722174D01*
X92240852Y-64737895D01*
X92236814Y-64751207D01*
X92230255Y-64763476D01*
X92221430Y-64774230D01*
X92210676Y-64783055D01*
X92198407Y-64789614D01*
X92185095Y-64793652D01*
X92169374Y-64795200D01*
X91924626Y-64795200D01*
X91908905Y-64793652D01*
X91895593Y-64789614D01*
X91883324Y-64783055D01*
X91872570Y-64774230D01*
X91863745Y-64763476D01*
X91857186Y-64751207D01*
X91853148Y-64737895D01*
X91851600Y-64722174D01*
X91851600Y-64507426D01*
X91853148Y-64491705D01*
X91857186Y-64478393D01*
X91863745Y-64466124D01*
X91872570Y-64455370D01*
X91883324Y-64446545D01*
X91895593Y-64439986D01*
X91908905Y-64435948D01*
X91924626Y-64434400D01*
X92169374Y-64434400D01*
X92185095Y-64435948D01*
G37*
G36*
X85151495Y-64338348D02*
G01*
X85164807Y-64342386D01*
X85177076Y-64348945D01*
X85187830Y-64357770D01*
X85196655Y-64368524D01*
X85203214Y-64380793D01*
X85207252Y-64394105D01*
X85208800Y-64409826D01*
X85208800Y-64624574D01*
X85207252Y-64640295D01*
X85203214Y-64653607D01*
X85196655Y-64665876D01*
X85187830Y-64676630D01*
X85177076Y-64685455D01*
X85164807Y-64692014D01*
X85151495Y-64696052D01*
X85135774Y-64697600D01*
X84891026Y-64697600D01*
X84875305Y-64696052D01*
X84861993Y-64692014D01*
X84849724Y-64685455D01*
X84838970Y-64676630D01*
X84830145Y-64665876D01*
X84823586Y-64653607D01*
X84819548Y-64640295D01*
X84818000Y-64624574D01*
X84818000Y-64409826D01*
X84819548Y-64394105D01*
X84823586Y-64380793D01*
X84830145Y-64368524D01*
X84838970Y-64357770D01*
X84849724Y-64348945D01*
X84861993Y-64342386D01*
X84875305Y-64338348D01*
X84891026Y-64336800D01*
X85135774Y-64336800D01*
X85151495Y-64338348D01*
G37*
G36*
X87428595Y-64209448D02*
G01*
X87441907Y-64213486D01*
X87454176Y-64220045D01*
X87464930Y-64228870D01*
X87473755Y-64239624D01*
X87480314Y-64251893D01*
X87484352Y-64265205D01*
X87485900Y-64280926D01*
X87485900Y-64525674D01*
X87484352Y-64541395D01*
X87480314Y-64554707D01*
X87473755Y-64566976D01*
X87464930Y-64577730D01*
X87454176Y-64586555D01*
X87441907Y-64593114D01*
X87428595Y-64597152D01*
X87412874Y-64598700D01*
X87198126Y-64598700D01*
X87182405Y-64597152D01*
X87169093Y-64593114D01*
X87156824Y-64586555D01*
X87146070Y-64577730D01*
X87137245Y-64566976D01*
X87130686Y-64554707D01*
X87126648Y-64541395D01*
X87125100Y-64525674D01*
X87125100Y-64280926D01*
X87126648Y-64265205D01*
X87130686Y-64251893D01*
X87137245Y-64239624D01*
X87146070Y-64228870D01*
X87156824Y-64220045D01*
X87169093Y-64213486D01*
X87182405Y-64209448D01*
X87198126Y-64207900D01*
X87412874Y-64207900D01*
X87428595Y-64209448D01*
G37*
G36*
X86878595Y-64209448D02*
G01*
X86891907Y-64213486D01*
X86904176Y-64220045D01*
X86914930Y-64228870D01*
X86923755Y-64239624D01*
X86930314Y-64251893D01*
X86934352Y-64265205D01*
X86935900Y-64280926D01*
X86935900Y-64525674D01*
X86934352Y-64541395D01*
X86930314Y-64554707D01*
X86923755Y-64566976D01*
X86914930Y-64577730D01*
X86904176Y-64586555D01*
X86891907Y-64593114D01*
X86878595Y-64597152D01*
X86862874Y-64598700D01*
X86648126Y-64598700D01*
X86632405Y-64597152D01*
X86619093Y-64593114D01*
X86606824Y-64586555D01*
X86596070Y-64577730D01*
X86587245Y-64566976D01*
X86580686Y-64554707D01*
X86576648Y-64541395D01*
X86575100Y-64525674D01*
X86575100Y-64280926D01*
X86576648Y-64265205D01*
X86580686Y-64251893D01*
X86587245Y-64239624D01*
X86596070Y-64228870D01*
X86606824Y-64220045D01*
X86619093Y-64213486D01*
X86632405Y-64209448D01*
X86648126Y-64207900D01*
X86862874Y-64207900D01*
X86878595Y-64209448D01*
G37*
G36*
X80775400Y-64325400D02*
G01*
X79724600Y-64325400D01*
X79724600Y-63574600D01*
X80775400Y-63574600D01*
X80775400Y-64325400D01*
G37*
G36*
X85877806Y-63538794D02*
G01*
X85938300Y-63550826D01*
X86006619Y-63579125D01*
X86068104Y-63620208D01*
X86120392Y-63672496D01*
X86161475Y-63733981D01*
X86189774Y-63802300D01*
X86204200Y-63874827D01*
X86204200Y-63948773D01*
X86189774Y-64021300D01*
X86161475Y-64089619D01*
X86120392Y-64151104D01*
X86068104Y-64203392D01*
X86006619Y-64244475D01*
X85938300Y-64272774D01*
X85877806Y-64284806D01*
X85865774Y-64287200D01*
X85791826Y-64287200D01*
X85779794Y-64284806D01*
X85719300Y-64272774D01*
X85650981Y-64244475D01*
X85589496Y-64203392D01*
X85537208Y-64151104D01*
X85496125Y-64089619D01*
X85467826Y-64021300D01*
X85453400Y-63948773D01*
X85453400Y-63874827D01*
X85467826Y-63802300D01*
X85496125Y-63733981D01*
X85537208Y-63672496D01*
X85589496Y-63620208D01*
X85650981Y-63579125D01*
X85719300Y-63550826D01*
X85779794Y-63538794D01*
X85791826Y-63536400D01*
X85865774Y-63536400D01*
X85877806Y-63538794D01*
G37*
G36*
X92185095Y-63885948D02*
G01*
X92198407Y-63889986D01*
X92210676Y-63896545D01*
X92221430Y-63905370D01*
X92230255Y-63916124D01*
X92236814Y-63928393D01*
X92240852Y-63941705D01*
X92242400Y-63957426D01*
X92242400Y-64172174D01*
X92240852Y-64187895D01*
X92236814Y-64201207D01*
X92230255Y-64213476D01*
X92221430Y-64224230D01*
X92210676Y-64233055D01*
X92198407Y-64239614D01*
X92185095Y-64243652D01*
X92169374Y-64245200D01*
X91924626Y-64245200D01*
X91908905Y-64243652D01*
X91895593Y-64239614D01*
X91883324Y-64233055D01*
X91872570Y-64224230D01*
X91863745Y-64213476D01*
X91857186Y-64201207D01*
X91853148Y-64187895D01*
X91851600Y-64172174D01*
X91851600Y-63957426D01*
X91853148Y-63941705D01*
X91857186Y-63928393D01*
X91863745Y-63916124D01*
X91872570Y-63905370D01*
X91883324Y-63896545D01*
X91895593Y-63889986D01*
X91908905Y-63885948D01*
X91924626Y-63884400D01*
X92169374Y-63884400D01*
X92185095Y-63885948D01*
G37*
G36*
X91562795Y-63885948D02*
G01*
X91576107Y-63889986D01*
X91588376Y-63896545D01*
X91599130Y-63905370D01*
X91607955Y-63916124D01*
X91614514Y-63928393D01*
X91618552Y-63941705D01*
X91620100Y-63957426D01*
X91620100Y-64172174D01*
X91618552Y-64187895D01*
X91614514Y-64201207D01*
X91607955Y-64213476D01*
X91599130Y-64224230D01*
X91588376Y-64233055D01*
X91576107Y-64239614D01*
X91562795Y-64243652D01*
X91547074Y-64245200D01*
X91302326Y-64245200D01*
X91286605Y-64243652D01*
X91273293Y-64239614D01*
X91261024Y-64233055D01*
X91250270Y-64224230D01*
X91241445Y-64213476D01*
X91234886Y-64201207D01*
X91230848Y-64187895D01*
X91229300Y-64172174D01*
X91229300Y-63957426D01*
X91230848Y-63941705D01*
X91234886Y-63928393D01*
X91241445Y-63916124D01*
X91250270Y-63905370D01*
X91261024Y-63896545D01*
X91273293Y-63889986D01*
X91286605Y-63885948D01*
X91302326Y-63884400D01*
X91547074Y-63884400D01*
X91562795Y-63885948D01*
G37*
G36*
X85151495Y-63788348D02*
G01*
X85164807Y-63792386D01*
X85177076Y-63798945D01*
X85187830Y-63807770D01*
X85196655Y-63818524D01*
X85203214Y-63830793D01*
X85207252Y-63844105D01*
X85208800Y-63859826D01*
X85208800Y-64074574D01*
X85207252Y-64090295D01*
X85203214Y-64103607D01*
X85196655Y-64115876D01*
X85187830Y-64126630D01*
X85177076Y-64135455D01*
X85164807Y-64142014D01*
X85151495Y-64146052D01*
X85135774Y-64147600D01*
X84891026Y-64147600D01*
X84875305Y-64146052D01*
X84861993Y-64142014D01*
X84849724Y-64135455D01*
X84838970Y-64126630D01*
X84830145Y-64115876D01*
X84823586Y-64103607D01*
X84819548Y-64090295D01*
X84818000Y-64074574D01*
X84818000Y-63859826D01*
X84819548Y-63844105D01*
X84823586Y-63830793D01*
X84830145Y-63818524D01*
X84838970Y-63807770D01*
X84849724Y-63798945D01*
X84861993Y-63792386D01*
X84875305Y-63788348D01*
X84891026Y-63786800D01*
X85135774Y-63786800D01*
X85151495Y-63788348D01*
G37*
G36*
X90595000Y-64103200D02*
G01*
X90274200Y-64103200D01*
X90274200Y-63412400D01*
X90595000Y-63412400D01*
X90595000Y-64103200D01*
G37*
G36*
X88595000Y-64103200D02*
G01*
X88274200Y-64103200D01*
X88274200Y-63412400D01*
X88595000Y-63412400D01*
X88595000Y-64103200D01*
G37*
G36*
X89095000Y-64103200D02*
G01*
X88774200Y-64103200D01*
X88774200Y-63412400D01*
X89095000Y-63412400D01*
X89095000Y-64103200D01*
G37*
G36*
X90095000Y-64103200D02*
G01*
X89774200Y-64103200D01*
X89774200Y-63412400D01*
X90095000Y-63412400D01*
X90095000Y-64103200D01*
G37*
G36*
X89595000Y-64103200D02*
G01*
X89274200Y-64103200D01*
X89274200Y-63412400D01*
X89595000Y-63412400D01*
X89595000Y-64103200D01*
G37*
G36*
X87247800Y-64027000D02*
G01*
X86897000Y-64027000D01*
X86897000Y-63486200D01*
X87247800Y-63486200D01*
X87247800Y-64027000D01*
G37*
G36*
X92491577Y-62542487D02*
G01*
X92533963Y-62555345D01*
X92573028Y-62576225D01*
X92607271Y-62604329D01*
X92635375Y-62638572D01*
X92656255Y-62677637D01*
X92669113Y-62720023D01*
X92673640Y-62765986D01*
X92673640Y-63290734D01*
X92669113Y-63336697D01*
X92656255Y-63379083D01*
X92635375Y-63418148D01*
X92607271Y-63452391D01*
X92573028Y-63480495D01*
X92533963Y-63501375D01*
X92491577Y-63514233D01*
X92445614Y-63518760D01*
X91530866Y-63518760D01*
X91484903Y-63514233D01*
X91442517Y-63501375D01*
X91403452Y-63480495D01*
X91369209Y-63452391D01*
X91341105Y-63418148D01*
X91320225Y-63379083D01*
X91307367Y-63336697D01*
X91302840Y-63290734D01*
X91302840Y-62765986D01*
X91307367Y-62720023D01*
X91320225Y-62677637D01*
X91341105Y-62638572D01*
X91369209Y-62604329D01*
X91403452Y-62576225D01*
X91442517Y-62555345D01*
X91484903Y-62542487D01*
X91530866Y-62537960D01*
X92445614Y-62537960D01*
X92491577Y-62542487D01*
G37*
G36*
X80775400Y-63225400D02*
G01*
X79724600Y-63225400D01*
X79724600Y-62474600D01*
X80775400Y-62474600D01*
X80775400Y-63225400D01*
G37*
G36*
X85176895Y-62687348D02*
G01*
X85190207Y-62691386D01*
X85202476Y-62697945D01*
X85213230Y-62706770D01*
X85222055Y-62717524D01*
X85228614Y-62729793D01*
X85232652Y-62743105D01*
X85234200Y-62758826D01*
X85234200Y-62973574D01*
X85232652Y-62989295D01*
X85228614Y-63002607D01*
X85222055Y-63014876D01*
X85213230Y-63025630D01*
X85202476Y-63034455D01*
X85190207Y-63041014D01*
X85176895Y-63045052D01*
X85161174Y-63046600D01*
X84916426Y-63046600D01*
X84900705Y-63045052D01*
X84887393Y-63041014D01*
X84875124Y-63034455D01*
X84864370Y-63025630D01*
X84855545Y-63014876D01*
X84848986Y-63002607D01*
X84844948Y-62989295D01*
X84843400Y-62973574D01*
X84843400Y-62758826D01*
X84844948Y-62743105D01*
X84848986Y-62729793D01*
X84855545Y-62717524D01*
X84864370Y-62706770D01*
X84875124Y-62697945D01*
X84887393Y-62691386D01*
X84900705Y-62687348D01*
X84916426Y-62685800D01*
X85161174Y-62685800D01*
X85176895Y-62687348D01*
G37*
G36*
X89358569Y-62393446D02*
G01*
X89384534Y-62401322D01*
X89408477Y-62414121D01*
X89429459Y-62431341D01*
X89446679Y-62452323D01*
X89459478Y-62476266D01*
X89467354Y-62502231D01*
X89470200Y-62531126D01*
X89470200Y-62880874D01*
X89467354Y-62909769D01*
X89459478Y-62935734D01*
X89446679Y-62959677D01*
X89429459Y-62980659D01*
X89408477Y-62997879D01*
X89384534Y-63010678D01*
X89358569Y-63018554D01*
X89329674Y-63021400D01*
X88929926Y-63021400D01*
X88901031Y-63018554D01*
X88875066Y-63010678D01*
X88851123Y-62997879D01*
X88830141Y-62980659D01*
X88812921Y-62959677D01*
X88800122Y-62935734D01*
X88792246Y-62909769D01*
X88789400Y-62880874D01*
X88789400Y-62531126D01*
X88792246Y-62502231D01*
X88800122Y-62476266D01*
X88812921Y-62452323D01*
X88830141Y-62431341D01*
X88851123Y-62414121D01*
X88875066Y-62401322D01*
X88901031Y-62393446D01*
X88929926Y-62390600D01*
X89329674Y-62390600D01*
X89358569Y-62393446D01*
G37*
G36*
X90512495Y-62661948D02*
G01*
X90525807Y-62665986D01*
X90538076Y-62672545D01*
X90548830Y-62681370D01*
X90557655Y-62692124D01*
X90564214Y-62704393D01*
X90568252Y-62717705D01*
X90569800Y-62733426D01*
X90569800Y-62948174D01*
X90568252Y-62963895D01*
X90564214Y-62977207D01*
X90557655Y-62989476D01*
X90548830Y-63000230D01*
X90538076Y-63009055D01*
X90525807Y-63015614D01*
X90512495Y-63019652D01*
X90496774Y-63021200D01*
X90252026Y-63021200D01*
X90236305Y-63019652D01*
X90222993Y-63015614D01*
X90210724Y-63009055D01*
X90199970Y-63000230D01*
X90191145Y-62989476D01*
X90184586Y-62977207D01*
X90180548Y-62963895D01*
X90179000Y-62948174D01*
X90179000Y-62733426D01*
X90180548Y-62717705D01*
X90184586Y-62704393D01*
X90191145Y-62692124D01*
X90199970Y-62681370D01*
X90210724Y-62672545D01*
X90222993Y-62665986D01*
X90236305Y-62661948D01*
X90252026Y-62660400D01*
X90496774Y-62660400D01*
X90512495Y-62661948D01*
G37*
G36*
X88556695Y-62661948D02*
G01*
X88570007Y-62665986D01*
X88582276Y-62672545D01*
X88593030Y-62681370D01*
X88601855Y-62692124D01*
X88608414Y-62704393D01*
X88612452Y-62717705D01*
X88614000Y-62733426D01*
X88614000Y-62948174D01*
X88612452Y-62963895D01*
X88608414Y-62977207D01*
X88601855Y-62989476D01*
X88593030Y-63000230D01*
X88582276Y-63009055D01*
X88570007Y-63015614D01*
X88556695Y-63019652D01*
X88540974Y-63021200D01*
X88296226Y-63021200D01*
X88280505Y-63019652D01*
X88267193Y-63015614D01*
X88254924Y-63009055D01*
X88244170Y-63000230D01*
X88235345Y-62989476D01*
X88228786Y-62977207D01*
X88224748Y-62963895D01*
X88223200Y-62948174D01*
X88223200Y-62733426D01*
X88224748Y-62717705D01*
X88228786Y-62704393D01*
X88235345Y-62692124D01*
X88244170Y-62681370D01*
X88254924Y-62672545D01*
X88267193Y-62665986D01*
X88280505Y-62661948D01*
X88296226Y-62660400D01*
X88540974Y-62660400D01*
X88556695Y-62661948D01*
G37*
G36*
X89979095Y-62661948D02*
G01*
X89992407Y-62665986D01*
X90004676Y-62672545D01*
X90015430Y-62681370D01*
X90024255Y-62692124D01*
X90030814Y-62704393D01*
X90034852Y-62717705D01*
X90036400Y-62733426D01*
X90036400Y-62948174D01*
X90034852Y-62963895D01*
X90030814Y-62977207D01*
X90024255Y-62989476D01*
X90015430Y-63000230D01*
X90004676Y-63009055D01*
X89992407Y-63015614D01*
X89979095Y-63019652D01*
X89963374Y-63021200D01*
X89718626Y-63021200D01*
X89702905Y-63019652D01*
X89689593Y-63015614D01*
X89677324Y-63009055D01*
X89666570Y-63000230D01*
X89657745Y-62989476D01*
X89651186Y-62977207D01*
X89647148Y-62963895D01*
X89645600Y-62948174D01*
X89645600Y-62733426D01*
X89647148Y-62717705D01*
X89651186Y-62704393D01*
X89657745Y-62692124D01*
X89666570Y-62681370D01*
X89677324Y-62672545D01*
X89689593Y-62665986D01*
X89702905Y-62661948D01*
X89718626Y-62660400D01*
X89963374Y-62660400D01*
X89979095Y-62661948D01*
G37*
G36*
X91045895Y-62661948D02*
G01*
X91059207Y-62665986D01*
X91071476Y-62672545D01*
X91082230Y-62681370D01*
X91091055Y-62692124D01*
X91097614Y-62704393D01*
X91101652Y-62717705D01*
X91103200Y-62733426D01*
X91103200Y-62948174D01*
X91101652Y-62963895D01*
X91097614Y-62977207D01*
X91091055Y-62989476D01*
X91082230Y-63000230D01*
X91071476Y-63009055D01*
X91059207Y-63015614D01*
X91045895Y-63019652D01*
X91030174Y-63021200D01*
X90785426Y-63021200D01*
X90769705Y-63019652D01*
X90756393Y-63015614D01*
X90744124Y-63009055D01*
X90733370Y-63000230D01*
X90724545Y-62989476D01*
X90717986Y-62977207D01*
X90713948Y-62963895D01*
X90712400Y-62948174D01*
X90712400Y-62733426D01*
X90713948Y-62717705D01*
X90717986Y-62704393D01*
X90724545Y-62692124D01*
X90733370Y-62681370D01*
X90744124Y-62672545D01*
X90756393Y-62665986D01*
X90769705Y-62661948D01*
X90785426Y-62660400D01*
X91030174Y-62660400D01*
X91045895Y-62661948D01*
G37*
G36*
X85877806Y-62268794D02*
G01*
X85938300Y-62280826D01*
X86006619Y-62309125D01*
X86068104Y-62350208D01*
X86120392Y-62402496D01*
X86161475Y-62463981D01*
X86189774Y-62532300D01*
X86194612Y-62556625D01*
X86204200Y-62604826D01*
X86204200Y-62678774D01*
X86202802Y-62685800D01*
X86189774Y-62751300D01*
X86161475Y-62819619D01*
X86120392Y-62881104D01*
X86068104Y-62933392D01*
X86006619Y-62974475D01*
X85938300Y-63002774D01*
X85880182Y-63014334D01*
X85865774Y-63017200D01*
X85791826Y-63017200D01*
X85777418Y-63014334D01*
X85719300Y-63002774D01*
X85650981Y-62974475D01*
X85589496Y-62933392D01*
X85537208Y-62881104D01*
X85496125Y-62819619D01*
X85467826Y-62751300D01*
X85454798Y-62685800D01*
X85453400Y-62678774D01*
X85453400Y-62604826D01*
X85462988Y-62556625D01*
X85467826Y-62532300D01*
X85496125Y-62463981D01*
X85537208Y-62402496D01*
X85589496Y-62350208D01*
X85650981Y-62309125D01*
X85719300Y-62280826D01*
X85779794Y-62268794D01*
X85791826Y-62266400D01*
X85865774Y-62266400D01*
X85877806Y-62268794D01*
G37*
G36*
X87602800Y-63017000D02*
G01*
X87342000Y-63017000D01*
X87342000Y-62476200D01*
X87602800Y-62476200D01*
X87602800Y-63017000D01*
G37*
G36*
X86802800Y-63017000D02*
G01*
X86542000Y-63017000D01*
X86542000Y-62476200D01*
X86802800Y-62476200D01*
X86802800Y-63017000D01*
G37*
G36*
X85176895Y-62137348D02*
G01*
X85190207Y-62141386D01*
X85202476Y-62147945D01*
X85213230Y-62156770D01*
X85222055Y-62167524D01*
X85228614Y-62179793D01*
X85232652Y-62193105D01*
X85234200Y-62208826D01*
X85234200Y-62423574D01*
X85232652Y-62439295D01*
X85228614Y-62452607D01*
X85222055Y-62464876D01*
X85213230Y-62475630D01*
X85202476Y-62484455D01*
X85190207Y-62491014D01*
X85176895Y-62495052D01*
X85161174Y-62496600D01*
X84916426Y-62496600D01*
X84900705Y-62495052D01*
X84887393Y-62491014D01*
X84875124Y-62484455D01*
X84864370Y-62475630D01*
X84855545Y-62464876D01*
X84848986Y-62452607D01*
X84844948Y-62439295D01*
X84843400Y-62423574D01*
X84843400Y-62208826D01*
X84844948Y-62193105D01*
X84848986Y-62179793D01*
X84855545Y-62167524D01*
X84864370Y-62156770D01*
X84875124Y-62147945D01*
X84887393Y-62141386D01*
X84900705Y-62137348D01*
X84916426Y-62135800D01*
X85161174Y-62135800D01*
X85176895Y-62137348D01*
G37*
G36*
X91045895Y-62111948D02*
G01*
X91059207Y-62115986D01*
X91071476Y-62122545D01*
X91082230Y-62131370D01*
X91091055Y-62142124D01*
X91097614Y-62154393D01*
X91101652Y-62167705D01*
X91103200Y-62183426D01*
X91103200Y-62398174D01*
X91101652Y-62413895D01*
X91097614Y-62427207D01*
X91091055Y-62439476D01*
X91082230Y-62450230D01*
X91071476Y-62459055D01*
X91059207Y-62465614D01*
X91045895Y-62469652D01*
X91030174Y-62471200D01*
X90785426Y-62471200D01*
X90769705Y-62469652D01*
X90756393Y-62465614D01*
X90744124Y-62459055D01*
X90733370Y-62450230D01*
X90724545Y-62439476D01*
X90717986Y-62427207D01*
X90713948Y-62413895D01*
X90712400Y-62398174D01*
X90712400Y-62183426D01*
X90713948Y-62167705D01*
X90717986Y-62154393D01*
X90724545Y-62142124D01*
X90733370Y-62131370D01*
X90744124Y-62122545D01*
X90756393Y-62115986D01*
X90769705Y-62111948D01*
X90785426Y-62110400D01*
X91030174Y-62110400D01*
X91045895Y-62111948D01*
G37*
G36*
X90512495Y-62111948D02*
G01*
X90525807Y-62115986D01*
X90538076Y-62122545D01*
X90548830Y-62131370D01*
X90557655Y-62142124D01*
X90564214Y-62154393D01*
X90568252Y-62167705D01*
X90569800Y-62183426D01*
X90569800Y-62398174D01*
X90568252Y-62413895D01*
X90564214Y-62427207D01*
X90557655Y-62439476D01*
X90548830Y-62450230D01*
X90538076Y-62459055D01*
X90525807Y-62465614D01*
X90512495Y-62469652D01*
X90496774Y-62471200D01*
X90252026Y-62471200D01*
X90236305Y-62469652D01*
X90222993Y-62465614D01*
X90210724Y-62459055D01*
X90199970Y-62450230D01*
X90191145Y-62439476D01*
X90184586Y-62427207D01*
X90180548Y-62413895D01*
X90179000Y-62398174D01*
X90179000Y-62183426D01*
X90180548Y-62167705D01*
X90184586Y-62154393D01*
X90191145Y-62142124D01*
X90199970Y-62131370D01*
X90210724Y-62122545D01*
X90222993Y-62115986D01*
X90236305Y-62111948D01*
X90252026Y-62110400D01*
X90496774Y-62110400D01*
X90512495Y-62111948D01*
G37*
G36*
X89979095Y-62111948D02*
G01*
X89992407Y-62115986D01*
X90004676Y-62122545D01*
X90015430Y-62131370D01*
X90024255Y-62142124D01*
X90030814Y-62154393D01*
X90034852Y-62167705D01*
X90036400Y-62183426D01*
X90036400Y-62398174D01*
X90034852Y-62413895D01*
X90030814Y-62427207D01*
X90024255Y-62439476D01*
X90015430Y-62450230D01*
X90004676Y-62459055D01*
X89992407Y-62465614D01*
X89979095Y-62469652D01*
X89963374Y-62471200D01*
X89718626Y-62471200D01*
X89702905Y-62469652D01*
X89689593Y-62465614D01*
X89677324Y-62459055D01*
X89666570Y-62450230D01*
X89657745Y-62439476D01*
X89651186Y-62427207D01*
X89647148Y-62413895D01*
X89645600Y-62398174D01*
X89645600Y-62183426D01*
X89647148Y-62167705D01*
X89651186Y-62154393D01*
X89657745Y-62142124D01*
X89666570Y-62131370D01*
X89677324Y-62122545D01*
X89689593Y-62115986D01*
X89702905Y-62111948D01*
X89718626Y-62110400D01*
X89963374Y-62110400D01*
X89979095Y-62111948D01*
G37*
G36*
X88556695Y-62111948D02*
G01*
X88570007Y-62115986D01*
X88582276Y-62122545D01*
X88593030Y-62131370D01*
X88601855Y-62142124D01*
X88608414Y-62154393D01*
X88612452Y-62167705D01*
X88614000Y-62183426D01*
X88614000Y-62398174D01*
X88612452Y-62413895D01*
X88608414Y-62427207D01*
X88601855Y-62439476D01*
X88593030Y-62450230D01*
X88582276Y-62459055D01*
X88570007Y-62465614D01*
X88556695Y-62469652D01*
X88540974Y-62471200D01*
X88296226Y-62471200D01*
X88280505Y-62469652D01*
X88267193Y-62465614D01*
X88254924Y-62459055D01*
X88244170Y-62450230D01*
X88235345Y-62439476D01*
X88228786Y-62427207D01*
X88224748Y-62413895D01*
X88223200Y-62398174D01*
X88223200Y-62183426D01*
X88224748Y-62167705D01*
X88228786Y-62154393D01*
X88235345Y-62142124D01*
X88244170Y-62131370D01*
X88254924Y-62122545D01*
X88267193Y-62115986D01*
X88280505Y-62111948D01*
X88296226Y-62110400D01*
X88540974Y-62110400D01*
X88556695Y-62111948D01*
G37*
G36*
X89358569Y-61503446D02*
G01*
X89384534Y-61511322D01*
X89408477Y-61524121D01*
X89429459Y-61541341D01*
X89446679Y-61562323D01*
X89459478Y-61586266D01*
X89467354Y-61612231D01*
X89470200Y-61641126D01*
X89470200Y-61990874D01*
X89467354Y-62019769D01*
X89459478Y-62045734D01*
X89446679Y-62069677D01*
X89429459Y-62090659D01*
X89408477Y-62107879D01*
X89384534Y-62120678D01*
X89358569Y-62128554D01*
X89329674Y-62131400D01*
X88929926Y-62131400D01*
X88901031Y-62128554D01*
X88875066Y-62120678D01*
X88851123Y-62107879D01*
X88830141Y-62090659D01*
X88812921Y-62069677D01*
X88800122Y-62045734D01*
X88792246Y-62019769D01*
X88789400Y-61990874D01*
X88789400Y-61641126D01*
X88792246Y-61612231D01*
X88800122Y-61586266D01*
X88812921Y-61562323D01*
X88830141Y-61541341D01*
X88851123Y-61524121D01*
X88875066Y-61511322D01*
X88901031Y-61503446D01*
X88929926Y-61500600D01*
X89329674Y-61500600D01*
X89358569Y-61503446D01*
G37*
G36*
X80775400Y-62125400D02*
G01*
X79724600Y-62125400D01*
X79724600Y-61374600D01*
X80775400Y-61374600D01*
X80775400Y-62125400D01*
G37*
G36*
X88025600Y-62090200D02*
G01*
X86474800Y-62090200D01*
X86474800Y-61239400D01*
X88025600Y-61239400D01*
X88025600Y-62090200D01*
G37*
G36*
X85151495Y-61544348D02*
G01*
X85164807Y-61548386D01*
X85177076Y-61554945D01*
X85187830Y-61563770D01*
X85196655Y-61574524D01*
X85203214Y-61586793D01*
X85207252Y-61600105D01*
X85208800Y-61615826D01*
X85208800Y-61830574D01*
X85207252Y-61846295D01*
X85203214Y-61859607D01*
X85196655Y-61871876D01*
X85187830Y-61882630D01*
X85177076Y-61891455D01*
X85164807Y-61898014D01*
X85151495Y-61902052D01*
X85135774Y-61903600D01*
X84891026Y-61903600D01*
X84875305Y-61902052D01*
X84861993Y-61898014D01*
X84849724Y-61891455D01*
X84838970Y-61882630D01*
X84830145Y-61871876D01*
X84823586Y-61859607D01*
X84819548Y-61846295D01*
X84818000Y-61830574D01*
X84818000Y-61615826D01*
X84819548Y-61600105D01*
X84823586Y-61586793D01*
X84830145Y-61574524D01*
X84838970Y-61563770D01*
X84849724Y-61554945D01*
X84861993Y-61548386D01*
X84875305Y-61544348D01*
X84891026Y-61542800D01*
X85135774Y-61542800D01*
X85151495Y-61544348D01*
G37*
G36*
X88556695Y-61523348D02*
G01*
X88570007Y-61527386D01*
X88582276Y-61533945D01*
X88593030Y-61542770D01*
X88601855Y-61553524D01*
X88608414Y-61565793D01*
X88612452Y-61579105D01*
X88614000Y-61594826D01*
X88614000Y-61809574D01*
X88612452Y-61825295D01*
X88608414Y-61838607D01*
X88601855Y-61850876D01*
X88593030Y-61861630D01*
X88582276Y-61870455D01*
X88570007Y-61877014D01*
X88556695Y-61881052D01*
X88540974Y-61882600D01*
X88296226Y-61882600D01*
X88280505Y-61881052D01*
X88267193Y-61877014D01*
X88254924Y-61870455D01*
X88244170Y-61861630D01*
X88235345Y-61850876D01*
X88228786Y-61838607D01*
X88224748Y-61825295D01*
X88223200Y-61809574D01*
X88223200Y-61594826D01*
X88224748Y-61579105D01*
X88228786Y-61565793D01*
X88235345Y-61553524D01*
X88244170Y-61542770D01*
X88254924Y-61533945D01*
X88267193Y-61527386D01*
X88280505Y-61523348D01*
X88296226Y-61521800D01*
X88540974Y-61521800D01*
X88556695Y-61523348D01*
G37*
G36*
X92491577Y-60902487D02*
G01*
X92533963Y-60915345D01*
X92573028Y-60936225D01*
X92607271Y-60964329D01*
X92635375Y-60998572D01*
X92656255Y-61037637D01*
X92669113Y-61080023D01*
X92673640Y-61125986D01*
X92673640Y-61650734D01*
X92669113Y-61696697D01*
X92656255Y-61739083D01*
X92635375Y-61778148D01*
X92607271Y-61812391D01*
X92573028Y-61840495D01*
X92533963Y-61861375D01*
X92491577Y-61874233D01*
X92445614Y-61878760D01*
X91530866Y-61878760D01*
X91484903Y-61874233D01*
X91442517Y-61861375D01*
X91403452Y-61840495D01*
X91369209Y-61812391D01*
X91341105Y-61778148D01*
X91320225Y-61739083D01*
X91307367Y-61696697D01*
X91302840Y-61650734D01*
X91302840Y-61125986D01*
X91307367Y-61080023D01*
X91320225Y-61037637D01*
X91341105Y-60998572D01*
X91369209Y-60964329D01*
X91403452Y-60936225D01*
X91442517Y-60915345D01*
X91484903Y-60902487D01*
X91530866Y-60897960D01*
X92445614Y-60897960D01*
X92491577Y-60902487D01*
G37*
G36*
X91045895Y-61518948D02*
G01*
X91059207Y-61522986D01*
X91071476Y-61529545D01*
X91082230Y-61538370D01*
X91091055Y-61549124D01*
X91097614Y-61561393D01*
X91101652Y-61574705D01*
X91103200Y-61590426D01*
X91103200Y-61805174D01*
X91101652Y-61820895D01*
X91097614Y-61834207D01*
X91091055Y-61846476D01*
X91082230Y-61857230D01*
X91071476Y-61866055D01*
X91059207Y-61872614D01*
X91045895Y-61876652D01*
X91030174Y-61878200D01*
X90785426Y-61878200D01*
X90769705Y-61876652D01*
X90756393Y-61872614D01*
X90744124Y-61866055D01*
X90733370Y-61857230D01*
X90724545Y-61846476D01*
X90717986Y-61834207D01*
X90713948Y-61820895D01*
X90712400Y-61805174D01*
X90712400Y-61590426D01*
X90713948Y-61574705D01*
X90717986Y-61561393D01*
X90724545Y-61549124D01*
X90733370Y-61538370D01*
X90744124Y-61529545D01*
X90756393Y-61522986D01*
X90769705Y-61518948D01*
X90785426Y-61517400D01*
X91030174Y-61517400D01*
X91045895Y-61518948D01*
G37*
G36*
X89979095Y-61518948D02*
G01*
X89992407Y-61522986D01*
X90004676Y-61529545D01*
X90015430Y-61538370D01*
X90024255Y-61549124D01*
X90030814Y-61561393D01*
X90034852Y-61574705D01*
X90036400Y-61590426D01*
X90036400Y-61805174D01*
X90034852Y-61820895D01*
X90030814Y-61834207D01*
X90024255Y-61846476D01*
X90015430Y-61857230D01*
X90004676Y-61866055D01*
X89992407Y-61872614D01*
X89979095Y-61876652D01*
X89963374Y-61878200D01*
X89718626Y-61878200D01*
X89702905Y-61876652D01*
X89689593Y-61872614D01*
X89677324Y-61866055D01*
X89666570Y-61857230D01*
X89657745Y-61846476D01*
X89651186Y-61834207D01*
X89647148Y-61820895D01*
X89645600Y-61805174D01*
X89645600Y-61590426D01*
X89647148Y-61574705D01*
X89651186Y-61561393D01*
X89657745Y-61549124D01*
X89666570Y-61538370D01*
X89677324Y-61529545D01*
X89689593Y-61522986D01*
X89702905Y-61518948D01*
X89718626Y-61517400D01*
X89963374Y-61517400D01*
X89979095Y-61518948D01*
G37*
G36*
X90512495Y-61518948D02*
G01*
X90525807Y-61522986D01*
X90538076Y-61529545D01*
X90548830Y-61538370D01*
X90557655Y-61549124D01*
X90564214Y-61561393D01*
X90568252Y-61574705D01*
X90569800Y-61590426D01*
X90569800Y-61805174D01*
X90568252Y-61820895D01*
X90564214Y-61834207D01*
X90557655Y-61846476D01*
X90548830Y-61857230D01*
X90538076Y-61866055D01*
X90525807Y-61872614D01*
X90512495Y-61876652D01*
X90496774Y-61878200D01*
X90252026Y-61878200D01*
X90236305Y-61876652D01*
X90222993Y-61872614D01*
X90210724Y-61866055D01*
X90199970Y-61857230D01*
X90191145Y-61846476D01*
X90184586Y-61834207D01*
X90180548Y-61820895D01*
X90179000Y-61805174D01*
X90179000Y-61590426D01*
X90180548Y-61574705D01*
X90184586Y-61561393D01*
X90191145Y-61549124D01*
X90199970Y-61538370D01*
X90210724Y-61529545D01*
X90222993Y-61522986D01*
X90236305Y-61518948D01*
X90252026Y-61517400D01*
X90496774Y-61517400D01*
X90512495Y-61518948D01*
G37*
G36*
X85874918Y-60998219D02*
G01*
X85938300Y-61010826D01*
X86006619Y-61039125D01*
X86068104Y-61080208D01*
X86120392Y-61132496D01*
X86161475Y-61193981D01*
X86189774Y-61262300D01*
X86204200Y-61334827D01*
X86204200Y-61408773D01*
X86189774Y-61481300D01*
X86161475Y-61549619D01*
X86120392Y-61611104D01*
X86068104Y-61663392D01*
X86006619Y-61704475D01*
X85938300Y-61732774D01*
X85877806Y-61744806D01*
X85865774Y-61747200D01*
X85791826Y-61747200D01*
X85779794Y-61744806D01*
X85719300Y-61732774D01*
X85650981Y-61704475D01*
X85589496Y-61663392D01*
X85537208Y-61611104D01*
X85496125Y-61549619D01*
X85467826Y-61481300D01*
X85453400Y-61408773D01*
X85453400Y-61334827D01*
X85467826Y-61262300D01*
X85496125Y-61193981D01*
X85537208Y-61132496D01*
X85589496Y-61080208D01*
X85650981Y-61039125D01*
X85719300Y-61010826D01*
X85782682Y-60998219D01*
X85791826Y-60996400D01*
X85865774Y-60996400D01*
X85874918Y-60998219D01*
G37*
G36*
X85151495Y-60994348D02*
G01*
X85164807Y-60998386D01*
X85177076Y-61004945D01*
X85187830Y-61013770D01*
X85196655Y-61024524D01*
X85203214Y-61036793D01*
X85207252Y-61050105D01*
X85208800Y-61065826D01*
X85208800Y-61280574D01*
X85207252Y-61296295D01*
X85203214Y-61309607D01*
X85196655Y-61321876D01*
X85187830Y-61332630D01*
X85177076Y-61341455D01*
X85164807Y-61348014D01*
X85151495Y-61352052D01*
X85135774Y-61353600D01*
X84891026Y-61353600D01*
X84875305Y-61352052D01*
X84861993Y-61348014D01*
X84849724Y-61341455D01*
X84838970Y-61332630D01*
X84830145Y-61321876D01*
X84823586Y-61309607D01*
X84819548Y-61296295D01*
X84818000Y-61280574D01*
X84818000Y-61065826D01*
X84819548Y-61050105D01*
X84823586Y-61036793D01*
X84830145Y-61024524D01*
X84838970Y-61013770D01*
X84849724Y-61004945D01*
X84861993Y-60998386D01*
X84875305Y-60994348D01*
X84891026Y-60992800D01*
X85135774Y-60992800D01*
X85151495Y-60994348D01*
G37*
G36*
X88556695Y-60973348D02*
G01*
X88570007Y-60977386D01*
X88582276Y-60983945D01*
X88593030Y-60992770D01*
X88601855Y-61003524D01*
X88608414Y-61015793D01*
X88612452Y-61029105D01*
X88614000Y-61044826D01*
X88614000Y-61259574D01*
X88612452Y-61275295D01*
X88608414Y-61288607D01*
X88601855Y-61300876D01*
X88593030Y-61311630D01*
X88582276Y-61320455D01*
X88570007Y-61327014D01*
X88556695Y-61331052D01*
X88540974Y-61332600D01*
X88296226Y-61332600D01*
X88280505Y-61331052D01*
X88267193Y-61327014D01*
X88254924Y-61320455D01*
X88244170Y-61311630D01*
X88235345Y-61300876D01*
X88228786Y-61288607D01*
X88224748Y-61275295D01*
X88223200Y-61259574D01*
X88223200Y-61044826D01*
X88224748Y-61029105D01*
X88228786Y-61015793D01*
X88235345Y-61003524D01*
X88244170Y-60992770D01*
X88254924Y-60983945D01*
X88267193Y-60977386D01*
X88280505Y-60973348D01*
X88296226Y-60971800D01*
X88540974Y-60971800D01*
X88556695Y-60973348D01*
G37*
G36*
X91045895Y-60968948D02*
G01*
X91059207Y-60972986D01*
X91071476Y-60979545D01*
X91082230Y-60988370D01*
X91091055Y-60999124D01*
X91097614Y-61011393D01*
X91101652Y-61024705D01*
X91103200Y-61040426D01*
X91103200Y-61255174D01*
X91101652Y-61270895D01*
X91097614Y-61284207D01*
X91091055Y-61296476D01*
X91082230Y-61307230D01*
X91071476Y-61316055D01*
X91059207Y-61322614D01*
X91045895Y-61326652D01*
X91030174Y-61328200D01*
X90785426Y-61328200D01*
X90769705Y-61326652D01*
X90756393Y-61322614D01*
X90744124Y-61316055D01*
X90733370Y-61307230D01*
X90724545Y-61296476D01*
X90717986Y-61284207D01*
X90713948Y-61270895D01*
X90712400Y-61255174D01*
X90712400Y-61040426D01*
X90713948Y-61024705D01*
X90717986Y-61011393D01*
X90724545Y-60999124D01*
X90733370Y-60988370D01*
X90744124Y-60979545D01*
X90756393Y-60972986D01*
X90769705Y-60968948D01*
X90785426Y-60967400D01*
X91030174Y-60967400D01*
X91045895Y-60968948D01*
G37*
G36*
X90512495Y-60968948D02*
G01*
X90525807Y-60972986D01*
X90538076Y-60979545D01*
X90548830Y-60988370D01*
X90557655Y-60999124D01*
X90564214Y-61011393D01*
X90568252Y-61024705D01*
X90569800Y-61040426D01*
X90569800Y-61255174D01*
X90568252Y-61270895D01*
X90564214Y-61284207D01*
X90557655Y-61296476D01*
X90548830Y-61307230D01*
X90538076Y-61316055D01*
X90525807Y-61322614D01*
X90512495Y-61326652D01*
X90496774Y-61328200D01*
X90252026Y-61328200D01*
X90236305Y-61326652D01*
X90222993Y-61322614D01*
X90210724Y-61316055D01*
X90199970Y-61307230D01*
X90191145Y-61296476D01*
X90184586Y-61284207D01*
X90180548Y-61270895D01*
X90179000Y-61255174D01*
X90179000Y-61040426D01*
X90180548Y-61024705D01*
X90184586Y-61011393D01*
X90191145Y-60999124D01*
X90199970Y-60988370D01*
X90210724Y-60979545D01*
X90222993Y-60972986D01*
X90236305Y-60968948D01*
X90252026Y-60967400D01*
X90496774Y-60967400D01*
X90512495Y-60968948D01*
G37*
G36*
X89979095Y-60968948D02*
G01*
X89992407Y-60972986D01*
X90004676Y-60979545D01*
X90015430Y-60988370D01*
X90024255Y-60999124D01*
X90030814Y-61011393D01*
X90034852Y-61024705D01*
X90036400Y-61040426D01*
X90036400Y-61255174D01*
X90034852Y-61270895D01*
X90030814Y-61284207D01*
X90024255Y-61296476D01*
X90015430Y-61307230D01*
X90004676Y-61316055D01*
X89992407Y-61322614D01*
X89979095Y-61326652D01*
X89963374Y-61328200D01*
X89718626Y-61328200D01*
X89702905Y-61326652D01*
X89689593Y-61322614D01*
X89677324Y-61316055D01*
X89666570Y-61307230D01*
X89657745Y-61296476D01*
X89651186Y-61284207D01*
X89647148Y-61270895D01*
X89645600Y-61255174D01*
X89645600Y-61040426D01*
X89647148Y-61024705D01*
X89651186Y-61011393D01*
X89657745Y-60999124D01*
X89666570Y-60988370D01*
X89677324Y-60979545D01*
X89689593Y-60972986D01*
X89702905Y-60968948D01*
X89718626Y-60967400D01*
X89963374Y-60967400D01*
X89979095Y-60968948D01*
G37*
G36*
X89358569Y-60603246D02*
G01*
X89384534Y-60611122D01*
X89408477Y-60623921D01*
X89429459Y-60641141D01*
X89446679Y-60662123D01*
X89459478Y-60686066D01*
X89467354Y-60712031D01*
X89470200Y-60740926D01*
X89470200Y-61090674D01*
X89467354Y-61119569D01*
X89459478Y-61145534D01*
X89446679Y-61169477D01*
X89429459Y-61190459D01*
X89408477Y-61207679D01*
X89384534Y-61220478D01*
X89358569Y-61228354D01*
X89329674Y-61231200D01*
X88929926Y-61231200D01*
X88901031Y-61228354D01*
X88875066Y-61220478D01*
X88851123Y-61207679D01*
X88830141Y-61190459D01*
X88812921Y-61169477D01*
X88800122Y-61145534D01*
X88792246Y-61119569D01*
X88789400Y-61090674D01*
X88789400Y-60740926D01*
X88792246Y-60712031D01*
X88800122Y-60686066D01*
X88812921Y-60662123D01*
X88830141Y-60641141D01*
X88851123Y-60623921D01*
X88875066Y-60611122D01*
X88901031Y-60603246D01*
X88929926Y-60600400D01*
X89329674Y-60600400D01*
X89358569Y-60603246D01*
G37*
G36*
X80775400Y-61025400D02*
G01*
X79724600Y-61025400D01*
X79724600Y-60274600D01*
X80775400Y-60274600D01*
X80775400Y-61025400D01*
G37*
G36*
X85146415Y-60414748D02*
G01*
X85159727Y-60418786D01*
X85171996Y-60425345D01*
X85182750Y-60434170D01*
X85191575Y-60444924D01*
X85198134Y-60457193D01*
X85202172Y-60470505D01*
X85203720Y-60486226D01*
X85203720Y-60700974D01*
X85202172Y-60716695D01*
X85198134Y-60730007D01*
X85191575Y-60742276D01*
X85182750Y-60753030D01*
X85171996Y-60761855D01*
X85159727Y-60768414D01*
X85146415Y-60772452D01*
X85130694Y-60774000D01*
X84885946Y-60774000D01*
X84870225Y-60772452D01*
X84856913Y-60768414D01*
X84844644Y-60761855D01*
X84833890Y-60753030D01*
X84825065Y-60742276D01*
X84818506Y-60730007D01*
X84814468Y-60716695D01*
X84812920Y-60700974D01*
X84812920Y-60486226D01*
X84814468Y-60470505D01*
X84818506Y-60457193D01*
X84825065Y-60444924D01*
X84833890Y-60434170D01*
X84844644Y-60425345D01*
X84856913Y-60418786D01*
X84870225Y-60414748D01*
X84885946Y-60413200D01*
X85130694Y-60413200D01*
X85146415Y-60414748D01*
G37*
G36*
X88556695Y-60380348D02*
G01*
X88570007Y-60384386D01*
X88582276Y-60390945D01*
X88593030Y-60399770D01*
X88601855Y-60410524D01*
X88608414Y-60422793D01*
X88612452Y-60436105D01*
X88614000Y-60451826D01*
X88614000Y-60666574D01*
X88612452Y-60682295D01*
X88608414Y-60695607D01*
X88601855Y-60707876D01*
X88593030Y-60718630D01*
X88582276Y-60727455D01*
X88570007Y-60734014D01*
X88556695Y-60738052D01*
X88540974Y-60739600D01*
X88296226Y-60739600D01*
X88280505Y-60738052D01*
X88267193Y-60734014D01*
X88254924Y-60727455D01*
X88244170Y-60718630D01*
X88235345Y-60707876D01*
X88228786Y-60695607D01*
X88224748Y-60682295D01*
X88223200Y-60666574D01*
X88223200Y-60451826D01*
X88224748Y-60436105D01*
X88228786Y-60422793D01*
X88235345Y-60410524D01*
X88244170Y-60399770D01*
X88254924Y-60390945D01*
X88267193Y-60384386D01*
X88280505Y-60380348D01*
X88296226Y-60378800D01*
X88540974Y-60378800D01*
X88556695Y-60380348D01*
G37*
G36*
X89979095Y-60371548D02*
G01*
X89992407Y-60375586D01*
X90004676Y-60382145D01*
X90015430Y-60390970D01*
X90024255Y-60401724D01*
X90030814Y-60413993D01*
X90034852Y-60427305D01*
X90036400Y-60443026D01*
X90036400Y-60657774D01*
X90034852Y-60673495D01*
X90030814Y-60686807D01*
X90024255Y-60699076D01*
X90015430Y-60709830D01*
X90004676Y-60718655D01*
X89992407Y-60725214D01*
X89979095Y-60729252D01*
X89963374Y-60730800D01*
X89718626Y-60730800D01*
X89702905Y-60729252D01*
X89689593Y-60725214D01*
X89677324Y-60718655D01*
X89666570Y-60709830D01*
X89657745Y-60699076D01*
X89651186Y-60686807D01*
X89647148Y-60673495D01*
X89645600Y-60657774D01*
X89645600Y-60443026D01*
X89647148Y-60427305D01*
X89651186Y-60413993D01*
X89657745Y-60401724D01*
X89666570Y-60390970D01*
X89677324Y-60382145D01*
X89689593Y-60375586D01*
X89702905Y-60371548D01*
X89718626Y-60370000D01*
X89963374Y-60370000D01*
X89979095Y-60371548D01*
G37*
G36*
X88025600Y-60590200D02*
G01*
X86474800Y-60590200D01*
X86474800Y-59739400D01*
X88025600Y-59739400D01*
X88025600Y-60590200D01*
G37*
G36*
X85877806Y-59728794D02*
G01*
X85938300Y-59740826D01*
X86006619Y-59769125D01*
X86068104Y-59810208D01*
X86120392Y-59862496D01*
X86161475Y-59923981D01*
X86189774Y-59992300D01*
X86204200Y-60064827D01*
X86204200Y-60138773D01*
X86189774Y-60211300D01*
X86161475Y-60279619D01*
X86120392Y-60341104D01*
X86068104Y-60393392D01*
X86006619Y-60434475D01*
X85938300Y-60462774D01*
X85877806Y-60474806D01*
X85865774Y-60477200D01*
X85791826Y-60477200D01*
X85779794Y-60474806D01*
X85719300Y-60462774D01*
X85650981Y-60434475D01*
X85589496Y-60393392D01*
X85537208Y-60341104D01*
X85496125Y-60279619D01*
X85467826Y-60211300D01*
X85453400Y-60138773D01*
X85453400Y-60064827D01*
X85467826Y-59992300D01*
X85496125Y-59923981D01*
X85537208Y-59862496D01*
X85589496Y-59810208D01*
X85650981Y-59769125D01*
X85719300Y-59740826D01*
X85779794Y-59728794D01*
X85791826Y-59726400D01*
X85865774Y-59726400D01*
X85877806Y-59728794D01*
G37*
G36*
X92589787Y-59507335D02*
G01*
X92630296Y-59519624D01*
X92667632Y-59539580D01*
X92700360Y-59566440D01*
X92727220Y-59599168D01*
X92747176Y-59636504D01*
X92759465Y-59677013D01*
X92763800Y-59721026D01*
X92763800Y-60255774D01*
X92759465Y-60299787D01*
X92747176Y-60340296D01*
X92727220Y-60377632D01*
X92700360Y-60410360D01*
X92667632Y-60437220D01*
X92630296Y-60457176D01*
X92589787Y-60469465D01*
X92545774Y-60473800D01*
X92041026Y-60473800D01*
X91997013Y-60469465D01*
X91956504Y-60457176D01*
X91919168Y-60437220D01*
X91886440Y-60410360D01*
X91859580Y-60377632D01*
X91839624Y-60340296D01*
X91827335Y-60299787D01*
X91823000Y-60255774D01*
X91823000Y-59721026D01*
X91827335Y-59677013D01*
X91839624Y-59636504D01*
X91859580Y-59599168D01*
X91886440Y-59566440D01*
X91919168Y-59539580D01*
X91956504Y-59519624D01*
X91997013Y-59507335D01*
X92041026Y-59503000D01*
X92545774Y-59503000D01*
X92589787Y-59507335D01*
G37*
G36*
X91259787Y-59507335D02*
G01*
X91300296Y-59519624D01*
X91337632Y-59539580D01*
X91370360Y-59566440D01*
X91397220Y-59599168D01*
X91417176Y-59636504D01*
X91429465Y-59677013D01*
X91433800Y-59721026D01*
X91433800Y-60255774D01*
X91429465Y-60299787D01*
X91417176Y-60340296D01*
X91397220Y-60377632D01*
X91370360Y-60410360D01*
X91337632Y-60437220D01*
X91300296Y-60457176D01*
X91259787Y-60469465D01*
X91215774Y-60473800D01*
X90711026Y-60473800D01*
X90667013Y-60469465D01*
X90626504Y-60457176D01*
X90589168Y-60437220D01*
X90556440Y-60410360D01*
X90529580Y-60377632D01*
X90509624Y-60340296D01*
X90497335Y-60299787D01*
X90493000Y-60255774D01*
X90493000Y-59721026D01*
X90497335Y-59677013D01*
X90509624Y-59636504D01*
X90529580Y-59599168D01*
X90556440Y-59566440D01*
X90589168Y-59539580D01*
X90626504Y-59519624D01*
X90667013Y-59507335D01*
X90711026Y-59503000D01*
X91215774Y-59503000D01*
X91259787Y-59507335D01*
G37*
G36*
X89358569Y-59713246D02*
G01*
X89384534Y-59721122D01*
X89408477Y-59733921D01*
X89429459Y-59751141D01*
X89446679Y-59772123D01*
X89459478Y-59796066D01*
X89467354Y-59822031D01*
X89470200Y-59850926D01*
X89470200Y-60200674D01*
X89467354Y-60229569D01*
X89459478Y-60255534D01*
X89446679Y-60279477D01*
X89429459Y-60300459D01*
X89408477Y-60317679D01*
X89384534Y-60330478D01*
X89358569Y-60338354D01*
X89329674Y-60341200D01*
X88929926Y-60341200D01*
X88901031Y-60338354D01*
X88875066Y-60330478D01*
X88851123Y-60317679D01*
X88830141Y-60300459D01*
X88812921Y-60279477D01*
X88800122Y-60255534D01*
X88792246Y-60229569D01*
X88789400Y-60200674D01*
X88789400Y-59850926D01*
X88792246Y-59822031D01*
X88800122Y-59796066D01*
X88812921Y-59772123D01*
X88830141Y-59751141D01*
X88851123Y-59733921D01*
X88875066Y-59721122D01*
X88901031Y-59713246D01*
X88929926Y-59710400D01*
X89329674Y-59710400D01*
X89358569Y-59713246D01*
G37*
G36*
X85146415Y-59864748D02*
G01*
X85159727Y-59868786D01*
X85171996Y-59875345D01*
X85182750Y-59884170D01*
X85191575Y-59894924D01*
X85198134Y-59907193D01*
X85202172Y-59920505D01*
X85203720Y-59936226D01*
X85203720Y-60150974D01*
X85202172Y-60166695D01*
X85198134Y-60180007D01*
X85191575Y-60192276D01*
X85182750Y-60203030D01*
X85171996Y-60211855D01*
X85159727Y-60218414D01*
X85146415Y-60222452D01*
X85130694Y-60224000D01*
X84885946Y-60224000D01*
X84870225Y-60222452D01*
X84856913Y-60218414D01*
X84844644Y-60211855D01*
X84833890Y-60203030D01*
X84825065Y-60192276D01*
X84818506Y-60180007D01*
X84814468Y-60166695D01*
X84812920Y-60150974D01*
X84812920Y-59936226D01*
X84814468Y-59920505D01*
X84818506Y-59907193D01*
X84825065Y-59894924D01*
X84833890Y-59884170D01*
X84844644Y-59875345D01*
X84856913Y-59868786D01*
X84870225Y-59864748D01*
X84885946Y-59863200D01*
X85130694Y-59863200D01*
X85146415Y-59864748D01*
G37*
G36*
X88556695Y-59830348D02*
G01*
X88570007Y-59834386D01*
X88582276Y-59840945D01*
X88593030Y-59849770D01*
X88601855Y-59860524D01*
X88608414Y-59872793D01*
X88612452Y-59886105D01*
X88614000Y-59901826D01*
X88614000Y-60116574D01*
X88612452Y-60132295D01*
X88608414Y-60145607D01*
X88601855Y-60157876D01*
X88593030Y-60168630D01*
X88582276Y-60177455D01*
X88570007Y-60184014D01*
X88556695Y-60188052D01*
X88540974Y-60189600D01*
X88296226Y-60189600D01*
X88280505Y-60188052D01*
X88267193Y-60184014D01*
X88254924Y-60177455D01*
X88244170Y-60168630D01*
X88235345Y-60157876D01*
X88228786Y-60145607D01*
X88224748Y-60132295D01*
X88223200Y-60116574D01*
X88223200Y-59901826D01*
X88224748Y-59886105D01*
X88228786Y-59872793D01*
X88235345Y-59860524D01*
X88244170Y-59849770D01*
X88254924Y-59840945D01*
X88267193Y-59834386D01*
X88280505Y-59830348D01*
X88296226Y-59828800D01*
X88540974Y-59828800D01*
X88556695Y-59830348D01*
G37*
G36*
X89979095Y-59821548D02*
G01*
X89992407Y-59825586D01*
X90004676Y-59832145D01*
X90015430Y-59840970D01*
X90024255Y-59851724D01*
X90030814Y-59863993D01*
X90034852Y-59877305D01*
X90036400Y-59893026D01*
X90036400Y-60107774D01*
X90034852Y-60123495D01*
X90030814Y-60136807D01*
X90024255Y-60149076D01*
X90015430Y-60159830D01*
X90004676Y-60168655D01*
X89992407Y-60175214D01*
X89979095Y-60179252D01*
X89963374Y-60180800D01*
X89718626Y-60180800D01*
X89702905Y-60179252D01*
X89689593Y-60175214D01*
X89677324Y-60168655D01*
X89666570Y-60159830D01*
X89657745Y-60149076D01*
X89651186Y-60136807D01*
X89647148Y-60123495D01*
X89645600Y-60107774D01*
X89645600Y-59893026D01*
X89647148Y-59877305D01*
X89651186Y-59863993D01*
X89657745Y-59851724D01*
X89666570Y-59840970D01*
X89677324Y-59832145D01*
X89689593Y-59825586D01*
X89702905Y-59821548D01*
X89718626Y-59820000D01*
X89963374Y-59820000D01*
X89979095Y-59821548D01*
G37*
G36*
X82365400Y-59775400D02*
G01*
X81114600Y-59775400D01*
X81114600Y-58274600D01*
X82365400Y-58274600D01*
X82365400Y-59775400D01*
G37*
G36*
X84515400Y-59725400D02*
G01*
X83564600Y-59725400D01*
X83564600Y-58274600D01*
X84515400Y-58274600D01*
X84515400Y-59725400D01*
G37*
G36*
X85151495Y-59281908D02*
G01*
X85164807Y-59285946D01*
X85177076Y-59292505D01*
X85187830Y-59301330D01*
X85196655Y-59312084D01*
X85203214Y-59324353D01*
X85207252Y-59337665D01*
X85208800Y-59353386D01*
X85208800Y-59568134D01*
X85207252Y-59583855D01*
X85203214Y-59597167D01*
X85196655Y-59609436D01*
X85187830Y-59620190D01*
X85177076Y-59629015D01*
X85164807Y-59635574D01*
X85151495Y-59639612D01*
X85135774Y-59641160D01*
X84891026Y-59641160D01*
X84875305Y-59639612D01*
X84861993Y-59635574D01*
X84849724Y-59629015D01*
X84838970Y-59620190D01*
X84830145Y-59609436D01*
X84823586Y-59597167D01*
X84819548Y-59583855D01*
X84818000Y-59568134D01*
X84818000Y-59353386D01*
X84819548Y-59337665D01*
X84823586Y-59324353D01*
X84830145Y-59312084D01*
X84838970Y-59301330D01*
X84849724Y-59292505D01*
X84861993Y-59285946D01*
X84875305Y-59281908D01*
X84891026Y-59280360D01*
X85135774Y-59280360D01*
X85151495Y-59281908D01*
G37*
G36*
X83265400Y-59325400D02*
G01*
X82514600Y-59325400D01*
X82514600Y-58274600D01*
X83265400Y-58274600D01*
X83265400Y-59325400D01*
G37*
G36*
X85151495Y-58731908D02*
G01*
X85164807Y-58735946D01*
X85177076Y-58742505D01*
X85187830Y-58751330D01*
X85196655Y-58762084D01*
X85203214Y-58774353D01*
X85207252Y-58787665D01*
X85208800Y-58803386D01*
X85208800Y-59018134D01*
X85207252Y-59033855D01*
X85203214Y-59047167D01*
X85196655Y-59059436D01*
X85187830Y-59070190D01*
X85177076Y-59079015D01*
X85164807Y-59085574D01*
X85151495Y-59089612D01*
X85135774Y-59091160D01*
X84891026Y-59091160D01*
X84875305Y-59089612D01*
X84861993Y-59085574D01*
X84849724Y-59079015D01*
X84838970Y-59070190D01*
X84830145Y-59059436D01*
X84823586Y-59047167D01*
X84819548Y-59033855D01*
X84818000Y-59018134D01*
X84818000Y-58803386D01*
X84819548Y-58787665D01*
X84823586Y-58774353D01*
X84830145Y-58762084D01*
X84838970Y-58751330D01*
X84849724Y-58742505D01*
X84861993Y-58735946D01*
X84875305Y-58731908D01*
X84891026Y-58730360D01*
X85135774Y-58730360D01*
X85151495Y-58731908D01*
G37*
M02*
