G04 #@! TF.GenerationSoftware,KiCad,Pcbnew,(5.1.0)-1*
G04 #@! TF.CreationDate,2019-06-03T19:39:10-07:00*
G04 #@! TF.ProjectId,SDCard-PCB,53444361-7264-42d5-9043-422e6b696361,rev?*
G04 #@! TF.SameCoordinates,Original*
G04 #@! TF.FileFunction,Copper,L2,Inr*
G04 #@! TF.FilePolarity,Positive*
%FSLAX46Y46*%
G04 Gerber Fmt 4.6, Leading zero omitted, Abs format (unit mm)*
G04 Created by KiCad (PCBNEW (5.1.0)-1) date 2019-06-03 19:39:10*
%MOMM*%
%LPD*%
G04 APERTURE LIST*
%ADD10O,1.700000X1.700000*%
%ADD11R,1.700000X1.700000*%
%ADD12C,2.500000*%
%ADD13C,0.450000*%
%ADD14C,0.508000*%
%ADD15C,0.254000*%
G04 APERTURE END LIST*
D10*
X111070000Y-83730000D03*
X113610000Y-83730000D03*
X116150000Y-83730000D03*
X118690000Y-83730000D03*
X121230000Y-83730000D03*
X123770000Y-83730000D03*
X126310000Y-83730000D03*
D11*
X128850000Y-83730000D03*
X140150000Y-82910000D03*
X140230000Y-72600000D03*
X140200000Y-68450000D03*
X140150000Y-78710000D03*
X140010000Y-60640000D03*
X140010000Y-55990000D03*
D12*
X106980000Y-84890000D03*
X106980000Y-79810000D03*
X101900000Y-79810000D03*
X101900000Y-84890000D03*
X104440000Y-82350000D03*
D13*
X133985000Y-83835000D03*
X116900000Y-52600000D03*
X116870000Y-54330000D03*
X113550000Y-56280000D03*
X129620000Y-65250000D03*
X133620000Y-65250000D03*
X126330000Y-62390000D03*
X136000000Y-60940000D03*
X108070000Y-75570000D03*
X106830000Y-71830000D03*
X109360000Y-68020000D03*
X110720000Y-69240000D03*
X112220000Y-64650000D03*
X117720000Y-64640000D03*
X109950002Y-72070000D03*
X107390000Y-62460000D03*
X112500000Y-75200000D03*
X115100000Y-72000000D03*
X119800000Y-77550000D03*
X119200000Y-73910000D03*
X114860000Y-75450000D03*
X132720000Y-79900000D03*
X136270000Y-79690000D03*
X137930000Y-82900000D03*
X136340000Y-75840000D03*
X134190000Y-70970000D03*
X128110000Y-72290000D03*
X128910000Y-74690000D03*
X126510000Y-73890000D03*
X126520000Y-72290000D03*
X128910000Y-73890000D03*
X124500000Y-77490000D03*
X131200000Y-61700000D03*
X115570000Y-54080000D03*
X118820000Y-53330000D03*
X118480000Y-58760000D03*
X130370000Y-65250000D03*
X126550000Y-64510000D03*
X132440000Y-59860000D03*
X106900000Y-75130000D03*
X106840000Y-68020000D03*
X114265000Y-64645000D03*
X109410000Y-73090000D03*
X111410000Y-71940000D03*
X108580000Y-63640000D03*
X115240000Y-77480000D03*
X108170000Y-76980000D03*
X137770000Y-79410000D03*
X132920000Y-75860000D03*
X135910000Y-72020000D03*
X135850000Y-68480000D03*
X127310000Y-73890000D03*
X128110000Y-75490000D03*
X130510000Y-74690000D03*
X129710000Y-72300000D03*
X125720000Y-72280000D03*
X119400000Y-52600000D03*
X115852498Y-56897498D03*
X128400000Y-60080000D03*
X109590000Y-70320000D03*
X115765000Y-64615000D03*
X126510000Y-66800000D03*
X122440000Y-76910000D03*
X119200000Y-72240000D03*
X131800000Y-75570000D03*
X134700000Y-68310000D03*
X129710000Y-75490000D03*
X127320000Y-71480000D03*
X127310000Y-75490000D03*
X125710000Y-73090000D03*
X135730000Y-73090000D03*
X116090000Y-52620000D03*
X115000000Y-58530000D03*
X118300000Y-52610000D03*
X120500000Y-52620000D03*
X121590000Y-52670000D03*
X122700000Y-52700000D03*
X123050000Y-76280000D03*
X104670000Y-76280000D03*
X123100000Y-74690000D03*
X104120000Y-74680000D03*
X120570000Y-77500000D03*
X120560000Y-66750000D03*
X125310000Y-67750000D03*
X117280000Y-67750000D03*
X121620000Y-73080000D03*
X117960000Y-73070000D03*
X126510000Y-71490000D03*
X110370000Y-65180000D03*
X127310000Y-69890000D03*
X110920000Y-65710000D03*
X130510000Y-68590000D03*
X111430000Y-65230002D03*
X124510000Y-63720000D03*
X117210004Y-53770000D03*
X120220000Y-53500000D03*
X125710000Y-65039998D03*
X120690000Y-54150000D03*
X124910000Y-61000000D03*
D14*
X101900000Y-79810000D02*
X101900000Y-84890000D01*
D15*
G36*
X122563985Y-47674341D02*
G01*
X122673625Y-47707443D01*
X122774748Y-47761212D01*
X122863503Y-47833599D01*
X122936509Y-47921848D01*
X122990981Y-48022591D01*
X123024850Y-48132004D01*
X123040000Y-48276145D01*
X123040001Y-51909975D01*
X122950853Y-51873049D01*
X122784703Y-51840000D01*
X122615297Y-51840000D01*
X122449147Y-51873049D01*
X122292637Y-51937878D01*
X122161635Y-52025412D01*
X122138218Y-52001995D01*
X121997363Y-51907878D01*
X121840853Y-51843049D01*
X121674703Y-51810000D01*
X121505297Y-51810000D01*
X121339147Y-51843049D01*
X121182637Y-51907878D01*
X121075613Y-51979390D01*
X121048218Y-51951995D01*
X120907363Y-51857878D01*
X120750853Y-51793049D01*
X120584703Y-51760000D01*
X120415297Y-51760000D01*
X120249147Y-51793049D01*
X120092637Y-51857878D01*
X119961635Y-51945412D01*
X119948218Y-51931995D01*
X119807363Y-51837878D01*
X119650853Y-51773049D01*
X119484703Y-51740000D01*
X119315297Y-51740000D01*
X119149147Y-51773049D01*
X118992637Y-51837878D01*
X118851782Y-51931995D01*
X118844360Y-51939417D01*
X118707363Y-51847878D01*
X118550853Y-51783049D01*
X118384703Y-51750000D01*
X118215297Y-51750000D01*
X118049147Y-51783049D01*
X117892637Y-51847878D01*
X117751782Y-51941995D01*
X117631995Y-52061782D01*
X117537878Y-52202637D01*
X117473049Y-52359147D01*
X117440000Y-52525297D01*
X117440000Y-52694703D01*
X117473049Y-52860853D01*
X117516672Y-52966169D01*
X117460857Y-52943049D01*
X117294707Y-52910000D01*
X117125301Y-52910000D01*
X116959151Y-52943049D01*
X116872113Y-52979102D01*
X116916951Y-52870853D01*
X116950000Y-52704703D01*
X116950000Y-52535297D01*
X116916951Y-52369147D01*
X116852122Y-52212637D01*
X116758005Y-52071782D01*
X116638218Y-51951995D01*
X116497363Y-51857878D01*
X116340853Y-51793049D01*
X116174703Y-51760000D01*
X116005297Y-51760000D01*
X115839147Y-51793049D01*
X115682637Y-51857878D01*
X115541782Y-51951995D01*
X115421995Y-52071782D01*
X115327878Y-52212637D01*
X115263049Y-52369147D01*
X115230000Y-52535297D01*
X115230000Y-52704703D01*
X115263049Y-52870853D01*
X115327878Y-53027363D01*
X115421995Y-53168218D01*
X115475688Y-53221911D01*
X115319147Y-53253049D01*
X115162637Y-53317878D01*
X115021782Y-53411995D01*
X114901995Y-53531782D01*
X114807878Y-53672637D01*
X114743049Y-53829147D01*
X114710000Y-53995297D01*
X114710000Y-54164703D01*
X114743049Y-54330853D01*
X114807878Y-54487363D01*
X114901995Y-54628218D01*
X115021782Y-54748005D01*
X115162637Y-54842122D01*
X115319147Y-54906951D01*
X115485297Y-54940000D01*
X115654703Y-54940000D01*
X115820853Y-54906951D01*
X115977363Y-54842122D01*
X116118218Y-54748005D01*
X116238005Y-54628218D01*
X116332122Y-54487363D01*
X116396951Y-54330853D01*
X116430000Y-54164703D01*
X116430000Y-54134192D01*
X116447882Y-54177363D01*
X116541999Y-54318218D01*
X116661786Y-54438005D01*
X116802641Y-54532122D01*
X116959151Y-54596951D01*
X117125301Y-54630000D01*
X117294707Y-54630000D01*
X117460857Y-54596951D01*
X117617367Y-54532122D01*
X117758222Y-54438005D01*
X117878009Y-54318218D01*
X117972126Y-54177363D01*
X118036955Y-54020853D01*
X118070004Y-53854703D01*
X118070004Y-53755511D01*
X118151995Y-53878218D01*
X118271782Y-53998005D01*
X118412637Y-54092122D01*
X118569147Y-54156951D01*
X118735297Y-54190000D01*
X118904703Y-54190000D01*
X119070853Y-54156951D01*
X119227363Y-54092122D01*
X119368218Y-53998005D01*
X119458271Y-53907952D01*
X119551995Y-54048218D01*
X119671782Y-54168005D01*
X119812637Y-54262122D01*
X119837503Y-54272422D01*
X119863049Y-54400853D01*
X119927878Y-54557363D01*
X120021995Y-54698218D01*
X120141782Y-54818005D01*
X120282637Y-54912122D01*
X120439147Y-54976951D01*
X120605297Y-55010000D01*
X120774703Y-55010000D01*
X120940853Y-54976951D01*
X121097363Y-54912122D01*
X121238218Y-54818005D01*
X121358005Y-54698218D01*
X121452122Y-54557363D01*
X121516951Y-54400853D01*
X121550000Y-54234703D01*
X121550000Y-54065297D01*
X121516951Y-53899147D01*
X121452122Y-53742637D01*
X121358005Y-53601782D01*
X121238218Y-53481995D01*
X121097363Y-53387878D01*
X121072497Y-53377578D01*
X121068127Y-53355609D01*
X121182637Y-53432122D01*
X121339147Y-53496951D01*
X121505297Y-53530000D01*
X121674703Y-53530000D01*
X121840853Y-53496951D01*
X121997363Y-53432122D01*
X122128365Y-53344588D01*
X122151782Y-53368005D01*
X122292637Y-53462122D01*
X122449147Y-53526951D01*
X122615297Y-53560000D01*
X122784703Y-53560000D01*
X122950853Y-53526951D01*
X123107363Y-53462122D01*
X123183629Y-53411163D01*
X123231052Y-53468948D01*
X123331550Y-53551425D01*
X123446207Y-53612710D01*
X123570617Y-53650450D01*
X123667581Y-53660000D01*
X123700000Y-53663193D01*
X123732419Y-53660000D01*
X142340000Y-53660000D01*
X142340001Y-86340000D01*
X108054773Y-86340000D01*
X108114000Y-86203605D01*
X106980000Y-85069605D01*
X105846000Y-86203605D01*
X105905227Y-86340000D01*
X102974773Y-86340000D01*
X103034000Y-86203605D01*
X101900000Y-85069605D01*
X101885858Y-85083748D01*
X101706253Y-84904143D01*
X101720395Y-84890000D01*
X101706253Y-84875858D01*
X101885858Y-84696253D01*
X101900000Y-84710395D01*
X101914143Y-84696253D01*
X102093748Y-84875858D01*
X102079605Y-84890000D01*
X103213605Y-86024000D01*
X103503577Y-85898086D01*
X103669433Y-85565874D01*
X103767290Y-85207688D01*
X103793389Y-84837294D01*
X103746725Y-84468925D01*
X103629094Y-84116738D01*
X103586313Y-84036701D01*
X103890166Y-84162561D01*
X104254344Y-84235000D01*
X104625656Y-84235000D01*
X104989834Y-84162561D01*
X105300569Y-84033850D01*
X105210567Y-84214126D01*
X105112710Y-84572312D01*
X105086611Y-84942706D01*
X105133275Y-85311075D01*
X105250906Y-85663262D01*
X105376423Y-85898086D01*
X105666395Y-86024000D01*
X106800395Y-84890000D01*
X107159605Y-84890000D01*
X108293605Y-86024000D01*
X108583577Y-85898086D01*
X108749433Y-85565874D01*
X108847290Y-85207688D01*
X108873389Y-84837294D01*
X108826725Y-84468925D01*
X108709094Y-84116738D01*
X108583577Y-83881914D01*
X108293605Y-83756000D01*
X107159605Y-84890000D01*
X106800395Y-84890000D01*
X106786253Y-84875858D01*
X106965858Y-84696253D01*
X106980000Y-84710395D01*
X107960395Y-83730000D01*
X109577815Y-83730000D01*
X109606487Y-84021111D01*
X109691401Y-84301034D01*
X109829294Y-84559014D01*
X110014866Y-84785134D01*
X110240986Y-84970706D01*
X110498966Y-85108599D01*
X110778889Y-85193513D01*
X110997050Y-85215000D01*
X111142950Y-85215000D01*
X111361111Y-85193513D01*
X111641034Y-85108599D01*
X111899014Y-84970706D01*
X112125134Y-84785134D01*
X112310706Y-84559014D01*
X112340000Y-84504209D01*
X112369294Y-84559014D01*
X112554866Y-84785134D01*
X112780986Y-84970706D01*
X113038966Y-85108599D01*
X113318889Y-85193513D01*
X113537050Y-85215000D01*
X113682950Y-85215000D01*
X113901111Y-85193513D01*
X114181034Y-85108599D01*
X114439014Y-84970706D01*
X114665134Y-84785134D01*
X114850706Y-84559014D01*
X114880000Y-84504209D01*
X114909294Y-84559014D01*
X115094866Y-84785134D01*
X115320986Y-84970706D01*
X115578966Y-85108599D01*
X115858889Y-85193513D01*
X116077050Y-85215000D01*
X116222950Y-85215000D01*
X116441111Y-85193513D01*
X116721034Y-85108599D01*
X116979014Y-84970706D01*
X117205134Y-84785134D01*
X117390706Y-84559014D01*
X117420000Y-84504209D01*
X117449294Y-84559014D01*
X117634866Y-84785134D01*
X117860986Y-84970706D01*
X118118966Y-85108599D01*
X118398889Y-85193513D01*
X118617050Y-85215000D01*
X118762950Y-85215000D01*
X118981111Y-85193513D01*
X119261034Y-85108599D01*
X119519014Y-84970706D01*
X119745134Y-84785134D01*
X119930706Y-84559014D01*
X119960000Y-84504209D01*
X119989294Y-84559014D01*
X120174866Y-84785134D01*
X120400986Y-84970706D01*
X120658966Y-85108599D01*
X120938889Y-85193513D01*
X121157050Y-85215000D01*
X121302950Y-85215000D01*
X121521111Y-85193513D01*
X121801034Y-85108599D01*
X122059014Y-84970706D01*
X122285134Y-84785134D01*
X122470706Y-84559014D01*
X122500000Y-84504209D01*
X122529294Y-84559014D01*
X122714866Y-84785134D01*
X122940986Y-84970706D01*
X123198966Y-85108599D01*
X123478889Y-85193513D01*
X123697050Y-85215000D01*
X123842950Y-85215000D01*
X124061111Y-85193513D01*
X124341034Y-85108599D01*
X124599014Y-84970706D01*
X124825134Y-84785134D01*
X125010706Y-84559014D01*
X125040000Y-84504209D01*
X125069294Y-84559014D01*
X125254866Y-84785134D01*
X125480986Y-84970706D01*
X125738966Y-85108599D01*
X126018889Y-85193513D01*
X126237050Y-85215000D01*
X126382950Y-85215000D01*
X126601111Y-85193513D01*
X126881034Y-85108599D01*
X127139014Y-84970706D01*
X127365134Y-84785134D01*
X127389607Y-84755313D01*
X127410498Y-84824180D01*
X127469463Y-84934494D01*
X127548815Y-85031185D01*
X127645506Y-85110537D01*
X127755820Y-85169502D01*
X127875518Y-85205812D01*
X128000000Y-85218072D01*
X129700000Y-85218072D01*
X129824482Y-85205812D01*
X129944180Y-85169502D01*
X130054494Y-85110537D01*
X130151185Y-85031185D01*
X130230537Y-84934494D01*
X130289502Y-84824180D01*
X130325812Y-84704482D01*
X130338072Y-84580000D01*
X130338072Y-83760000D01*
X138661928Y-83760000D01*
X138674188Y-83884482D01*
X138710498Y-84004180D01*
X138769463Y-84114494D01*
X138848815Y-84211185D01*
X138945506Y-84290537D01*
X139055820Y-84349502D01*
X139175518Y-84385812D01*
X139300000Y-84398072D01*
X139864250Y-84395000D01*
X140023000Y-84236250D01*
X140023000Y-83037000D01*
X140277000Y-83037000D01*
X140277000Y-84236250D01*
X140435750Y-84395000D01*
X141000000Y-84398072D01*
X141124482Y-84385812D01*
X141244180Y-84349502D01*
X141354494Y-84290537D01*
X141451185Y-84211185D01*
X141530537Y-84114494D01*
X141589502Y-84004180D01*
X141625812Y-83884482D01*
X141638072Y-83760000D01*
X141635000Y-83195750D01*
X141476250Y-83037000D01*
X140277000Y-83037000D01*
X140023000Y-83037000D01*
X138823750Y-83037000D01*
X138665000Y-83195750D01*
X138661928Y-83760000D01*
X130338072Y-83760000D01*
X130338072Y-82880000D01*
X130325812Y-82755518D01*
X130289502Y-82635820D01*
X130230537Y-82525506D01*
X130151185Y-82428815D01*
X130054494Y-82349463D01*
X129944180Y-82290498D01*
X129824482Y-82254188D01*
X129700000Y-82241928D01*
X128000000Y-82241928D01*
X127875518Y-82254188D01*
X127755820Y-82290498D01*
X127645506Y-82349463D01*
X127548815Y-82428815D01*
X127469463Y-82525506D01*
X127410498Y-82635820D01*
X127389607Y-82704687D01*
X127365134Y-82674866D01*
X127139014Y-82489294D01*
X126881034Y-82351401D01*
X126601111Y-82266487D01*
X126382950Y-82245000D01*
X126237050Y-82245000D01*
X126018889Y-82266487D01*
X125738966Y-82351401D01*
X125480986Y-82489294D01*
X125254866Y-82674866D01*
X125069294Y-82900986D01*
X125040000Y-82955791D01*
X125010706Y-82900986D01*
X124825134Y-82674866D01*
X124599014Y-82489294D01*
X124341034Y-82351401D01*
X124061111Y-82266487D01*
X123842950Y-82245000D01*
X123697050Y-82245000D01*
X123478889Y-82266487D01*
X123198966Y-82351401D01*
X122940986Y-82489294D01*
X122714866Y-82674866D01*
X122529294Y-82900986D01*
X122500000Y-82955791D01*
X122470706Y-82900986D01*
X122285134Y-82674866D01*
X122059014Y-82489294D01*
X121801034Y-82351401D01*
X121521111Y-82266487D01*
X121302950Y-82245000D01*
X121157050Y-82245000D01*
X120938889Y-82266487D01*
X120658966Y-82351401D01*
X120400986Y-82489294D01*
X120174866Y-82674866D01*
X119989294Y-82900986D01*
X119960000Y-82955791D01*
X119930706Y-82900986D01*
X119745134Y-82674866D01*
X119519014Y-82489294D01*
X119261034Y-82351401D01*
X118981111Y-82266487D01*
X118762950Y-82245000D01*
X118617050Y-82245000D01*
X118398889Y-82266487D01*
X118118966Y-82351401D01*
X117860986Y-82489294D01*
X117634866Y-82674866D01*
X117449294Y-82900986D01*
X117420000Y-82955791D01*
X117390706Y-82900986D01*
X117205134Y-82674866D01*
X116979014Y-82489294D01*
X116721034Y-82351401D01*
X116441111Y-82266487D01*
X116222950Y-82245000D01*
X116077050Y-82245000D01*
X115858889Y-82266487D01*
X115578966Y-82351401D01*
X115320986Y-82489294D01*
X115094866Y-82674866D01*
X114909294Y-82900986D01*
X114880000Y-82955791D01*
X114850706Y-82900986D01*
X114665134Y-82674866D01*
X114439014Y-82489294D01*
X114181034Y-82351401D01*
X113901111Y-82266487D01*
X113682950Y-82245000D01*
X113537050Y-82245000D01*
X113318889Y-82266487D01*
X113038966Y-82351401D01*
X112780986Y-82489294D01*
X112554866Y-82674866D01*
X112369294Y-82900986D01*
X112340000Y-82955791D01*
X112310706Y-82900986D01*
X112125134Y-82674866D01*
X111899014Y-82489294D01*
X111641034Y-82351401D01*
X111361111Y-82266487D01*
X111142950Y-82245000D01*
X110997050Y-82245000D01*
X110778889Y-82266487D01*
X110498966Y-82351401D01*
X110240986Y-82489294D01*
X110014866Y-82674866D01*
X109829294Y-82900986D01*
X109691401Y-83158966D01*
X109606487Y-83438889D01*
X109577815Y-83730000D01*
X107960395Y-83730000D01*
X108114000Y-83576395D01*
X107988086Y-83286423D01*
X107655874Y-83120567D01*
X107297688Y-83022710D01*
X106927294Y-82996611D01*
X106558925Y-83043275D01*
X106206738Y-83160906D01*
X106126701Y-83203687D01*
X106252561Y-82899834D01*
X106325000Y-82535656D01*
X106325000Y-82164344D01*
X106304245Y-82060000D01*
X138661928Y-82060000D01*
X138665000Y-82624250D01*
X138823750Y-82783000D01*
X140023000Y-82783000D01*
X140023000Y-81583750D01*
X140277000Y-81583750D01*
X140277000Y-82783000D01*
X141476250Y-82783000D01*
X141635000Y-82624250D01*
X141638072Y-82060000D01*
X141625812Y-81935518D01*
X141589502Y-81815820D01*
X141530537Y-81705506D01*
X141451185Y-81608815D01*
X141354494Y-81529463D01*
X141244180Y-81470498D01*
X141124482Y-81434188D01*
X141000000Y-81421928D01*
X140435750Y-81425000D01*
X140277000Y-81583750D01*
X140023000Y-81583750D01*
X139864250Y-81425000D01*
X139300000Y-81421928D01*
X139175518Y-81434188D01*
X139055820Y-81470498D01*
X138945506Y-81529463D01*
X138848815Y-81608815D01*
X138769463Y-81705506D01*
X138710498Y-81815820D01*
X138674188Y-81935518D01*
X138661928Y-82060000D01*
X106304245Y-82060000D01*
X106252561Y-81800166D01*
X106123850Y-81489431D01*
X106304126Y-81579433D01*
X106662312Y-81677290D01*
X107032706Y-81703389D01*
X107401075Y-81656725D01*
X107753262Y-81539094D01*
X107988086Y-81413577D01*
X108114000Y-81123605D01*
X106980000Y-79989605D01*
X106965858Y-80003748D01*
X106786253Y-79824143D01*
X106800395Y-79810000D01*
X107159605Y-79810000D01*
X108293605Y-80944000D01*
X108583577Y-80818086D01*
X108749433Y-80485874D01*
X108847290Y-80127688D01*
X108873389Y-79757294D01*
X108826725Y-79388925D01*
X108805474Y-79325297D01*
X136910000Y-79325297D01*
X136910000Y-79494703D01*
X136943049Y-79660853D01*
X137007878Y-79817363D01*
X137101995Y-79958218D01*
X137221782Y-80078005D01*
X137362637Y-80172122D01*
X137519147Y-80236951D01*
X137685297Y-80270000D01*
X137854703Y-80270000D01*
X138020853Y-80236951D01*
X138177363Y-80172122D01*
X138318218Y-80078005D01*
X138438005Y-79958218D01*
X138532122Y-79817363D01*
X138596951Y-79660853D01*
X138630000Y-79494703D01*
X138630000Y-79325297D01*
X138596951Y-79159147D01*
X138532122Y-79002637D01*
X138438005Y-78861782D01*
X138318218Y-78741995D01*
X138177363Y-78647878D01*
X138020853Y-78583049D01*
X137854703Y-78550000D01*
X137685297Y-78550000D01*
X137519147Y-78583049D01*
X137362637Y-78647878D01*
X137221782Y-78741995D01*
X137101995Y-78861782D01*
X137007878Y-79002637D01*
X136943049Y-79159147D01*
X136910000Y-79325297D01*
X108805474Y-79325297D01*
X108709094Y-79036738D01*
X108583577Y-78801914D01*
X108293605Y-78676000D01*
X107159605Y-79810000D01*
X106800395Y-79810000D01*
X105666395Y-78676000D01*
X105376423Y-78801914D01*
X105210567Y-79134126D01*
X105112710Y-79492312D01*
X105086611Y-79862706D01*
X105133275Y-80231075D01*
X105250906Y-80583262D01*
X105293687Y-80663299D01*
X104989834Y-80537439D01*
X104625656Y-80465000D01*
X104254344Y-80465000D01*
X103890166Y-80537439D01*
X103579431Y-80666150D01*
X103669433Y-80485874D01*
X103767290Y-80127688D01*
X103793389Y-79757294D01*
X103746725Y-79388925D01*
X103629094Y-79036738D01*
X103503577Y-78801914D01*
X103213605Y-78676000D01*
X102079605Y-79810000D01*
X102093748Y-79824143D01*
X101914143Y-80003748D01*
X101900000Y-79989605D01*
X101885858Y-80003748D01*
X101706253Y-79824143D01*
X101720395Y-79810000D01*
X101706253Y-79795858D01*
X101885858Y-79616253D01*
X101900000Y-79630395D01*
X103034000Y-78496395D01*
X105846000Y-78496395D01*
X106980000Y-79630395D01*
X108114000Y-78496395D01*
X107988086Y-78206423D01*
X107655874Y-78040567D01*
X107297688Y-77942710D01*
X106927294Y-77916611D01*
X106558925Y-77963275D01*
X106206738Y-78080906D01*
X105971914Y-78206423D01*
X105846000Y-78496395D01*
X103034000Y-78496395D01*
X102908086Y-78206423D01*
X102575874Y-78040567D01*
X102217688Y-77942710D01*
X101847294Y-77916611D01*
X101478925Y-77963275D01*
X101126738Y-78080906D01*
X100891914Y-78206423D01*
X100766001Y-78496393D01*
X100660000Y-78390392D01*
X100660000Y-74595297D01*
X103260000Y-74595297D01*
X103260000Y-74764703D01*
X103293049Y-74930853D01*
X103357878Y-75087363D01*
X103451995Y-75228218D01*
X103571782Y-75348005D01*
X103712637Y-75442122D01*
X103869147Y-75506951D01*
X104035297Y-75540000D01*
X104204703Y-75540000D01*
X104240052Y-75532969D01*
X104121782Y-75611995D01*
X104001995Y-75731782D01*
X103907878Y-75872637D01*
X103843049Y-76029147D01*
X103810000Y-76195297D01*
X103810000Y-76364703D01*
X103843049Y-76530853D01*
X103907878Y-76687363D01*
X104001995Y-76828218D01*
X104121782Y-76948005D01*
X104262637Y-77042122D01*
X104419147Y-77106951D01*
X104585297Y-77140000D01*
X104754703Y-77140000D01*
X104920853Y-77106951D01*
X105077363Y-77042122D01*
X105218218Y-76948005D01*
X105270926Y-76895297D01*
X107310000Y-76895297D01*
X107310000Y-77064703D01*
X107343049Y-77230853D01*
X107407878Y-77387363D01*
X107501995Y-77528218D01*
X107621782Y-77648005D01*
X107762637Y-77742122D01*
X107919147Y-77806951D01*
X108085297Y-77840000D01*
X108254703Y-77840000D01*
X108420853Y-77806951D01*
X108577363Y-77742122D01*
X108718218Y-77648005D01*
X108838005Y-77528218D01*
X108926820Y-77395297D01*
X114380000Y-77395297D01*
X114380000Y-77564703D01*
X114413049Y-77730853D01*
X114477878Y-77887363D01*
X114571995Y-78028218D01*
X114691782Y-78148005D01*
X114832637Y-78242122D01*
X114989147Y-78306951D01*
X115155297Y-78340000D01*
X115324703Y-78340000D01*
X115490853Y-78306951D01*
X115647363Y-78242122D01*
X115788218Y-78148005D01*
X115908005Y-78028218D01*
X116002122Y-77887363D01*
X116066951Y-77730853D01*
X116100000Y-77564703D01*
X116100000Y-77415297D01*
X119710000Y-77415297D01*
X119710000Y-77584703D01*
X119743049Y-77750853D01*
X119807878Y-77907363D01*
X119901995Y-78048218D01*
X120021782Y-78168005D01*
X120162637Y-78262122D01*
X120319147Y-78326951D01*
X120485297Y-78360000D01*
X120654703Y-78360000D01*
X120820853Y-78326951D01*
X120977363Y-78262122D01*
X121118218Y-78168005D01*
X121238005Y-78048218D01*
X121332122Y-77907363D01*
X121351740Y-77860000D01*
X138661928Y-77860000D01*
X138661928Y-79560000D01*
X138674188Y-79684482D01*
X138710498Y-79804180D01*
X138769463Y-79914494D01*
X138848815Y-80011185D01*
X138945506Y-80090537D01*
X139055820Y-80149502D01*
X139175518Y-80185812D01*
X139300000Y-80198072D01*
X141000000Y-80198072D01*
X141124482Y-80185812D01*
X141244180Y-80149502D01*
X141354494Y-80090537D01*
X141451185Y-80011185D01*
X141530537Y-79914494D01*
X141589502Y-79804180D01*
X141625812Y-79684482D01*
X141638072Y-79560000D01*
X141638072Y-77860000D01*
X141625812Y-77735518D01*
X141589502Y-77615820D01*
X141530537Y-77505506D01*
X141451185Y-77408815D01*
X141354494Y-77329463D01*
X141244180Y-77270498D01*
X141124482Y-77234188D01*
X141000000Y-77221928D01*
X139300000Y-77221928D01*
X139175518Y-77234188D01*
X139055820Y-77270498D01*
X138945506Y-77329463D01*
X138848815Y-77408815D01*
X138769463Y-77505506D01*
X138710498Y-77615820D01*
X138674188Y-77735518D01*
X138661928Y-77860000D01*
X121351740Y-77860000D01*
X121396951Y-77750853D01*
X121430000Y-77584703D01*
X121430000Y-77415297D01*
X121396951Y-77249147D01*
X121332122Y-77092637D01*
X121238005Y-76951782D01*
X121118218Y-76831995D01*
X121108194Y-76825297D01*
X121580000Y-76825297D01*
X121580000Y-76994703D01*
X121613049Y-77160853D01*
X121677878Y-77317363D01*
X121771995Y-77458218D01*
X121891782Y-77578005D01*
X122032637Y-77672122D01*
X122189147Y-77736951D01*
X122355297Y-77770000D01*
X122524703Y-77770000D01*
X122690853Y-77736951D01*
X122847363Y-77672122D01*
X122988218Y-77578005D01*
X123108005Y-77458218D01*
X123202122Y-77317363D01*
X123266951Y-77160853D01*
X123276718Y-77111752D01*
X123300853Y-77106951D01*
X123457363Y-77042122D01*
X123598218Y-76948005D01*
X123718005Y-76828218D01*
X123812122Y-76687363D01*
X123876951Y-76530853D01*
X123910000Y-76364703D01*
X123910000Y-76195297D01*
X123876951Y-76029147D01*
X123812122Y-75872637D01*
X123718005Y-75731782D01*
X123598218Y-75611995D01*
X123457363Y-75517878D01*
X123402989Y-75495355D01*
X123507363Y-75452122D01*
X123648218Y-75358005D01*
X123768005Y-75238218D01*
X123862122Y-75097363D01*
X123926951Y-74940853D01*
X123960000Y-74774703D01*
X123960000Y-74605297D01*
X123926951Y-74439147D01*
X123862122Y-74282637D01*
X123768005Y-74141782D01*
X123648218Y-74021995D01*
X123507363Y-73927878D01*
X123350853Y-73863049D01*
X123184703Y-73830000D01*
X123015297Y-73830000D01*
X122849147Y-73863049D01*
X122692637Y-73927878D01*
X122551782Y-74021995D01*
X122431995Y-74141782D01*
X122337878Y-74282637D01*
X122273049Y-74439147D01*
X122240000Y-74605297D01*
X122240000Y-74774703D01*
X122273049Y-74940853D01*
X122337878Y-75097363D01*
X122431995Y-75238218D01*
X122551782Y-75358005D01*
X122692637Y-75452122D01*
X122747011Y-75474645D01*
X122642637Y-75517878D01*
X122501782Y-75611995D01*
X122381995Y-75731782D01*
X122287878Y-75872637D01*
X122223049Y-76029147D01*
X122213282Y-76078248D01*
X122189147Y-76083049D01*
X122032637Y-76147878D01*
X121891782Y-76241995D01*
X121771995Y-76361782D01*
X121677878Y-76502637D01*
X121613049Y-76659147D01*
X121580000Y-76825297D01*
X121108194Y-76825297D01*
X120977363Y-76737878D01*
X120820853Y-76673049D01*
X120654703Y-76640000D01*
X120485297Y-76640000D01*
X120319147Y-76673049D01*
X120162637Y-76737878D01*
X120021782Y-76831995D01*
X119901995Y-76951782D01*
X119807878Y-77092637D01*
X119743049Y-77249147D01*
X119710000Y-77415297D01*
X116100000Y-77415297D01*
X116100000Y-77395297D01*
X116066951Y-77229147D01*
X116002122Y-77072637D01*
X115908005Y-76931782D01*
X115788218Y-76811995D01*
X115647363Y-76717878D01*
X115490853Y-76653049D01*
X115324703Y-76620000D01*
X115155297Y-76620000D01*
X114989147Y-76653049D01*
X114832637Y-76717878D01*
X114691782Y-76811995D01*
X114571995Y-76931782D01*
X114477878Y-77072637D01*
X114413049Y-77229147D01*
X114380000Y-77395297D01*
X108926820Y-77395297D01*
X108932122Y-77387363D01*
X108996951Y-77230853D01*
X109030000Y-77064703D01*
X109030000Y-76895297D01*
X108996951Y-76729147D01*
X108932122Y-76572637D01*
X108838005Y-76431782D01*
X108718218Y-76311995D01*
X108577363Y-76217878D01*
X108420853Y-76153049D01*
X108254703Y-76120000D01*
X108085297Y-76120000D01*
X107919147Y-76153049D01*
X107762637Y-76217878D01*
X107621782Y-76311995D01*
X107501995Y-76431782D01*
X107407878Y-76572637D01*
X107343049Y-76729147D01*
X107310000Y-76895297D01*
X105270926Y-76895297D01*
X105338005Y-76828218D01*
X105432122Y-76687363D01*
X105496951Y-76530853D01*
X105530000Y-76364703D01*
X105530000Y-76195297D01*
X105496951Y-76029147D01*
X105432122Y-75872637D01*
X105338005Y-75731782D01*
X105218218Y-75611995D01*
X105077363Y-75517878D01*
X104920853Y-75453049D01*
X104754703Y-75420000D01*
X104585297Y-75420000D01*
X104549948Y-75427031D01*
X104668218Y-75348005D01*
X104788005Y-75228218D01*
X104882122Y-75087363D01*
X104899546Y-75045297D01*
X106040000Y-75045297D01*
X106040000Y-75214703D01*
X106073049Y-75380853D01*
X106137878Y-75537363D01*
X106231995Y-75678218D01*
X106351782Y-75798005D01*
X106492637Y-75892122D01*
X106649147Y-75956951D01*
X106815297Y-75990000D01*
X106984703Y-75990000D01*
X107150853Y-75956951D01*
X107307363Y-75892122D01*
X107448218Y-75798005D01*
X107568005Y-75678218D01*
X107662122Y-75537363D01*
X107726951Y-75380853D01*
X107760000Y-75214703D01*
X107760000Y-75045297D01*
X107726951Y-74879147D01*
X107662122Y-74722637D01*
X107568005Y-74581782D01*
X107448218Y-74461995D01*
X107307363Y-74367878D01*
X107150853Y-74303049D01*
X106984703Y-74270000D01*
X106815297Y-74270000D01*
X106649147Y-74303049D01*
X106492637Y-74367878D01*
X106351782Y-74461995D01*
X106231995Y-74581782D01*
X106137878Y-74722637D01*
X106073049Y-74879147D01*
X106040000Y-75045297D01*
X104899546Y-75045297D01*
X104946951Y-74930853D01*
X104980000Y-74764703D01*
X104980000Y-74595297D01*
X104946951Y-74429147D01*
X104882122Y-74272637D01*
X104788005Y-74131782D01*
X104668218Y-74011995D01*
X104527363Y-73917878D01*
X104370853Y-73853049D01*
X104204703Y-73820000D01*
X104035297Y-73820000D01*
X103869147Y-73853049D01*
X103712637Y-73917878D01*
X103571782Y-74011995D01*
X103451995Y-74131782D01*
X103357878Y-74272637D01*
X103293049Y-74429147D01*
X103260000Y-74595297D01*
X100660000Y-74595297D01*
X100660000Y-73005297D01*
X108550000Y-73005297D01*
X108550000Y-73174703D01*
X108583049Y-73340853D01*
X108647878Y-73497363D01*
X108741995Y-73638218D01*
X108861782Y-73758005D01*
X109002637Y-73852122D01*
X109159147Y-73916951D01*
X109325297Y-73950000D01*
X109494703Y-73950000D01*
X109660853Y-73916951D01*
X109817363Y-73852122D01*
X109958218Y-73758005D01*
X110078005Y-73638218D01*
X110172122Y-73497363D01*
X110236951Y-73340853D01*
X110270000Y-73174703D01*
X110270000Y-73005297D01*
X110266022Y-72985297D01*
X117100000Y-72985297D01*
X117100000Y-73154703D01*
X117133049Y-73320853D01*
X117197878Y-73477363D01*
X117291995Y-73618218D01*
X117411782Y-73738005D01*
X117552637Y-73832122D01*
X117709147Y-73896951D01*
X117875297Y-73930000D01*
X118044703Y-73930000D01*
X118210853Y-73896951D01*
X118367363Y-73832122D01*
X118508218Y-73738005D01*
X118628005Y-73618218D01*
X118722122Y-73477363D01*
X118786951Y-73320853D01*
X118820000Y-73154703D01*
X118820000Y-73013456D01*
X118949147Y-73066951D01*
X119115297Y-73100000D01*
X119284703Y-73100000D01*
X119450853Y-73066951D01*
X119607363Y-73002122D01*
X119617577Y-72995297D01*
X120760000Y-72995297D01*
X120760000Y-73164703D01*
X120793049Y-73330853D01*
X120857878Y-73487363D01*
X120951995Y-73628218D01*
X121071782Y-73748005D01*
X121212637Y-73842122D01*
X121369147Y-73906951D01*
X121535297Y-73940000D01*
X121704703Y-73940000D01*
X121870853Y-73906951D01*
X122027363Y-73842122D01*
X122168218Y-73748005D01*
X122288005Y-73628218D01*
X122382122Y-73487363D01*
X122446951Y-73330853D01*
X122480000Y-73164703D01*
X122480000Y-73005297D01*
X124850000Y-73005297D01*
X124850000Y-73174703D01*
X124883049Y-73340853D01*
X124947878Y-73497363D01*
X125041995Y-73638218D01*
X125161782Y-73758005D01*
X125302637Y-73852122D01*
X125459147Y-73916951D01*
X125625297Y-73950000D01*
X125794703Y-73950000D01*
X125960853Y-73916951D01*
X126117363Y-73852122D01*
X126187441Y-73805297D01*
X126450000Y-73805297D01*
X126450000Y-73974703D01*
X126483049Y-74140853D01*
X126547878Y-74297363D01*
X126641995Y-74438218D01*
X126761782Y-74558005D01*
X126902637Y-74652122D01*
X126994082Y-74690000D01*
X126902637Y-74727878D01*
X126761782Y-74821995D01*
X126641995Y-74941782D01*
X126547878Y-75082637D01*
X126483049Y-75239147D01*
X126450000Y-75405297D01*
X126450000Y-75574703D01*
X126483049Y-75740853D01*
X126547878Y-75897363D01*
X126641995Y-76038218D01*
X126761782Y-76158005D01*
X126902637Y-76252122D01*
X127059147Y-76316951D01*
X127225297Y-76350000D01*
X127394703Y-76350000D01*
X127560853Y-76316951D01*
X127710000Y-76255172D01*
X127859147Y-76316951D01*
X128025297Y-76350000D01*
X128194703Y-76350000D01*
X128360853Y-76316951D01*
X128517363Y-76252122D01*
X128658218Y-76158005D01*
X128778005Y-76038218D01*
X128872122Y-75897363D01*
X128910000Y-75805918D01*
X128947878Y-75897363D01*
X129041995Y-76038218D01*
X129161782Y-76158005D01*
X129302637Y-76252122D01*
X129459147Y-76316951D01*
X129625297Y-76350000D01*
X129794703Y-76350000D01*
X129960853Y-76316951D01*
X130117363Y-76252122D01*
X130258218Y-76158005D01*
X130378005Y-76038218D01*
X130472122Y-75897363D01*
X130536951Y-75740853D01*
X130570000Y-75574703D01*
X130570000Y-75550000D01*
X130594703Y-75550000D01*
X130760853Y-75516951D01*
X130917363Y-75452122D01*
X130951080Y-75429593D01*
X130940000Y-75485297D01*
X130940000Y-75654703D01*
X130973049Y-75820853D01*
X131037878Y-75977363D01*
X131131995Y-76118218D01*
X131251782Y-76238005D01*
X131392637Y-76332122D01*
X131549147Y-76396951D01*
X131715297Y-76430000D01*
X131884703Y-76430000D01*
X132050853Y-76396951D01*
X132202496Y-76334138D01*
X132251995Y-76408218D01*
X132371782Y-76528005D01*
X132512637Y-76622122D01*
X132669147Y-76686951D01*
X132835297Y-76720000D01*
X133004703Y-76720000D01*
X133170853Y-76686951D01*
X133327363Y-76622122D01*
X133468218Y-76528005D01*
X133588005Y-76408218D01*
X133682122Y-76267363D01*
X133746951Y-76110853D01*
X133780000Y-75944703D01*
X133780000Y-75775297D01*
X133746951Y-75609147D01*
X133682122Y-75452637D01*
X133588005Y-75311782D01*
X133468218Y-75191995D01*
X133327363Y-75097878D01*
X133170853Y-75033049D01*
X133004703Y-75000000D01*
X132835297Y-75000000D01*
X132669147Y-75033049D01*
X132517504Y-75095862D01*
X132468005Y-75021782D01*
X132348218Y-74901995D01*
X132207363Y-74807878D01*
X132050853Y-74743049D01*
X131884703Y-74710000D01*
X131715297Y-74710000D01*
X131549147Y-74743049D01*
X131392637Y-74807878D01*
X131358920Y-74830407D01*
X131370000Y-74774703D01*
X131370000Y-74605297D01*
X131336951Y-74439147D01*
X131272122Y-74282637D01*
X131178005Y-74141782D01*
X131058218Y-74021995D01*
X130917363Y-73927878D01*
X130760853Y-73863049D01*
X130594703Y-73830000D01*
X130425297Y-73830000D01*
X130259147Y-73863049D01*
X130102637Y-73927878D01*
X129961782Y-74021995D01*
X129841995Y-74141782D01*
X129747878Y-74282637D01*
X129683049Y-74439147D01*
X129650000Y-74605297D01*
X129650000Y-74630000D01*
X129625297Y-74630000D01*
X129459147Y-74663049D01*
X129302637Y-74727878D01*
X129161782Y-74821995D01*
X129041995Y-74941782D01*
X128947878Y-75082637D01*
X128910000Y-75174082D01*
X128872122Y-75082637D01*
X128778005Y-74941782D01*
X128658218Y-74821995D01*
X128517363Y-74727878D01*
X128360853Y-74663049D01*
X128194703Y-74630000D01*
X128025297Y-74630000D01*
X127859147Y-74663049D01*
X127710000Y-74724828D01*
X127625918Y-74690000D01*
X127717363Y-74652122D01*
X127858218Y-74558005D01*
X127978005Y-74438218D01*
X128072122Y-74297363D01*
X128136951Y-74140853D01*
X128170000Y-73974703D01*
X128170000Y-73805297D01*
X128136951Y-73639147D01*
X128072122Y-73482637D01*
X127978005Y-73341782D01*
X127858218Y-73221995D01*
X127717363Y-73127878D01*
X127560853Y-73063049D01*
X127394703Y-73030000D01*
X127225297Y-73030000D01*
X127059147Y-73063049D01*
X126902637Y-73127878D01*
X126761782Y-73221995D01*
X126641995Y-73341782D01*
X126547878Y-73482637D01*
X126483049Y-73639147D01*
X126450000Y-73805297D01*
X126187441Y-73805297D01*
X126258218Y-73758005D01*
X126378005Y-73638218D01*
X126472122Y-73497363D01*
X126536951Y-73340853D01*
X126570000Y-73174703D01*
X126570000Y-73005297D01*
X126536951Y-72839147D01*
X126477157Y-72694793D01*
X126482122Y-72687363D01*
X126546951Y-72530853D01*
X126580000Y-72364703D01*
X126580000Y-72350000D01*
X126594703Y-72350000D01*
X126760853Y-72316951D01*
X126917363Y-72252122D01*
X126924793Y-72247157D01*
X127069147Y-72306951D01*
X127235297Y-72340000D01*
X127404703Y-72340000D01*
X127570853Y-72306951D01*
X127727363Y-72242122D01*
X127767509Y-72215297D01*
X128850000Y-72215297D01*
X128850000Y-72384703D01*
X128883049Y-72550853D01*
X128947878Y-72707363D01*
X129041995Y-72848218D01*
X129161782Y-72968005D01*
X129302637Y-73062122D01*
X129459147Y-73126951D01*
X129625297Y-73160000D01*
X129794703Y-73160000D01*
X129960853Y-73126951D01*
X130117363Y-73062122D01*
X130202406Y-73005297D01*
X134870000Y-73005297D01*
X134870000Y-73174703D01*
X134903049Y-73340853D01*
X134967878Y-73497363D01*
X135061995Y-73638218D01*
X135181782Y-73758005D01*
X135322637Y-73852122D01*
X135479147Y-73916951D01*
X135645297Y-73950000D01*
X135814703Y-73950000D01*
X135980853Y-73916951D01*
X136137363Y-73852122D01*
X136278218Y-73758005D01*
X136398005Y-73638218D01*
X136492122Y-73497363D01*
X136556951Y-73340853D01*
X136590000Y-73174703D01*
X136590000Y-73005297D01*
X136556951Y-72839147D01*
X136492122Y-72682637D01*
X136480692Y-72665531D01*
X136578005Y-72568218D01*
X136672122Y-72427363D01*
X136736951Y-72270853D01*
X136770000Y-72104703D01*
X136770000Y-71935297D01*
X136736951Y-71769147D01*
X136729020Y-71750000D01*
X138741928Y-71750000D01*
X138741928Y-73450000D01*
X138754188Y-73574482D01*
X138790498Y-73694180D01*
X138849463Y-73804494D01*
X138928815Y-73901185D01*
X139025506Y-73980537D01*
X139135820Y-74039502D01*
X139255518Y-74075812D01*
X139380000Y-74088072D01*
X141080000Y-74088072D01*
X141204482Y-74075812D01*
X141324180Y-74039502D01*
X141434494Y-73980537D01*
X141531185Y-73901185D01*
X141610537Y-73804494D01*
X141669502Y-73694180D01*
X141705812Y-73574482D01*
X141718072Y-73450000D01*
X141718072Y-71750000D01*
X141705812Y-71625518D01*
X141669502Y-71505820D01*
X141610537Y-71395506D01*
X141531185Y-71298815D01*
X141434494Y-71219463D01*
X141324180Y-71160498D01*
X141204482Y-71124188D01*
X141080000Y-71111928D01*
X139380000Y-71111928D01*
X139255518Y-71124188D01*
X139135820Y-71160498D01*
X139025506Y-71219463D01*
X138928815Y-71298815D01*
X138849463Y-71395506D01*
X138790498Y-71505820D01*
X138754188Y-71625518D01*
X138741928Y-71750000D01*
X136729020Y-71750000D01*
X136672122Y-71612637D01*
X136578005Y-71471782D01*
X136458218Y-71351995D01*
X136317363Y-71257878D01*
X136160853Y-71193049D01*
X135994703Y-71160000D01*
X135825297Y-71160000D01*
X135659147Y-71193049D01*
X135502637Y-71257878D01*
X135361782Y-71351995D01*
X135241995Y-71471782D01*
X135147878Y-71612637D01*
X135083049Y-71769147D01*
X135050000Y-71935297D01*
X135050000Y-72104703D01*
X135083049Y-72270853D01*
X135147878Y-72427363D01*
X135159308Y-72444469D01*
X135061995Y-72541782D01*
X134967878Y-72682637D01*
X134903049Y-72839147D01*
X134870000Y-73005297D01*
X130202406Y-73005297D01*
X130258218Y-72968005D01*
X130378005Y-72848218D01*
X130472122Y-72707363D01*
X130536951Y-72550853D01*
X130570000Y-72384703D01*
X130570000Y-72215297D01*
X130536951Y-72049147D01*
X130472122Y-71892637D01*
X130378005Y-71751782D01*
X130258218Y-71631995D01*
X130117363Y-71537878D01*
X129960853Y-71473049D01*
X129794703Y-71440000D01*
X129625297Y-71440000D01*
X129459147Y-71473049D01*
X129302637Y-71537878D01*
X129161782Y-71631995D01*
X129041995Y-71751782D01*
X128947878Y-71892637D01*
X128883049Y-72049147D01*
X128850000Y-72215297D01*
X127767509Y-72215297D01*
X127868218Y-72148005D01*
X127988005Y-72028218D01*
X128082122Y-71887363D01*
X128146951Y-71730853D01*
X128180000Y-71564703D01*
X128180000Y-71395297D01*
X128146951Y-71229147D01*
X128082122Y-71072637D01*
X127988005Y-70931782D01*
X127868218Y-70811995D01*
X127727363Y-70717878D01*
X127642989Y-70682929D01*
X127717363Y-70652122D01*
X127858218Y-70558005D01*
X127978005Y-70438218D01*
X128072122Y-70297363D01*
X128136951Y-70140853D01*
X128170000Y-69974703D01*
X128170000Y-69805297D01*
X128136951Y-69639147D01*
X128072122Y-69482637D01*
X127978005Y-69341782D01*
X127858218Y-69221995D01*
X127717363Y-69127878D01*
X127560853Y-69063049D01*
X127394703Y-69030000D01*
X127225297Y-69030000D01*
X127059147Y-69063049D01*
X126902637Y-69127878D01*
X126761782Y-69221995D01*
X126641995Y-69341782D01*
X126547878Y-69482637D01*
X126483049Y-69639147D01*
X126450000Y-69805297D01*
X126450000Y-69974703D01*
X126483049Y-70140853D01*
X126547878Y-70297363D01*
X126641995Y-70438218D01*
X126761782Y-70558005D01*
X126902637Y-70652122D01*
X126987011Y-70687071D01*
X126912637Y-70717878D01*
X126905207Y-70722843D01*
X126760853Y-70663049D01*
X126594703Y-70630000D01*
X126425297Y-70630000D01*
X126259147Y-70663049D01*
X126102637Y-70727878D01*
X125961782Y-70821995D01*
X125841995Y-70941782D01*
X125747878Y-71082637D01*
X125683049Y-71239147D01*
X125650000Y-71405297D01*
X125650000Y-71420000D01*
X125635297Y-71420000D01*
X125469147Y-71453049D01*
X125312637Y-71517878D01*
X125171782Y-71611995D01*
X125051995Y-71731782D01*
X124957878Y-71872637D01*
X124893049Y-72029147D01*
X124860000Y-72195297D01*
X124860000Y-72364703D01*
X124893049Y-72530853D01*
X124952843Y-72675207D01*
X124947878Y-72682637D01*
X124883049Y-72839147D01*
X124850000Y-73005297D01*
X122480000Y-73005297D01*
X122480000Y-72995297D01*
X122446951Y-72829147D01*
X122382122Y-72672637D01*
X122288005Y-72531782D01*
X122168218Y-72411995D01*
X122027363Y-72317878D01*
X121870853Y-72253049D01*
X121704703Y-72220000D01*
X121535297Y-72220000D01*
X121369147Y-72253049D01*
X121212637Y-72317878D01*
X121071782Y-72411995D01*
X120951995Y-72531782D01*
X120857878Y-72672637D01*
X120793049Y-72829147D01*
X120760000Y-72995297D01*
X119617577Y-72995297D01*
X119748218Y-72908005D01*
X119868005Y-72788218D01*
X119962122Y-72647363D01*
X120026951Y-72490853D01*
X120060000Y-72324703D01*
X120060000Y-72155297D01*
X120026951Y-71989147D01*
X119962122Y-71832637D01*
X119868005Y-71691782D01*
X119748218Y-71571995D01*
X119607363Y-71477878D01*
X119450853Y-71413049D01*
X119284703Y-71380000D01*
X119115297Y-71380000D01*
X118949147Y-71413049D01*
X118792637Y-71477878D01*
X118651782Y-71571995D01*
X118531995Y-71691782D01*
X118437878Y-71832637D01*
X118373049Y-71989147D01*
X118340000Y-72155297D01*
X118340000Y-72296544D01*
X118210853Y-72243049D01*
X118044703Y-72210000D01*
X117875297Y-72210000D01*
X117709147Y-72243049D01*
X117552637Y-72307878D01*
X117411782Y-72401995D01*
X117291995Y-72521782D01*
X117197878Y-72662637D01*
X117133049Y-72819147D01*
X117100000Y-72985297D01*
X110266022Y-72985297D01*
X110236951Y-72839147D01*
X110172122Y-72682637D01*
X110078005Y-72541782D01*
X109958218Y-72421995D01*
X109817363Y-72327878D01*
X109660853Y-72263049D01*
X109494703Y-72230000D01*
X109325297Y-72230000D01*
X109159147Y-72263049D01*
X109002637Y-72327878D01*
X108861782Y-72421995D01*
X108741995Y-72541782D01*
X108647878Y-72682637D01*
X108583049Y-72839147D01*
X108550000Y-73005297D01*
X100660000Y-73005297D01*
X100660000Y-71855297D01*
X110550000Y-71855297D01*
X110550000Y-72024703D01*
X110583049Y-72190853D01*
X110647878Y-72347363D01*
X110741995Y-72488218D01*
X110861782Y-72608005D01*
X111002637Y-72702122D01*
X111159147Y-72766951D01*
X111325297Y-72800000D01*
X111494703Y-72800000D01*
X111660853Y-72766951D01*
X111817363Y-72702122D01*
X111958218Y-72608005D01*
X112078005Y-72488218D01*
X112172122Y-72347363D01*
X112236951Y-72190853D01*
X112270000Y-72024703D01*
X112270000Y-71855297D01*
X112236951Y-71689147D01*
X112172122Y-71532637D01*
X112078005Y-71391782D01*
X111958218Y-71271995D01*
X111817363Y-71177878D01*
X111660853Y-71113049D01*
X111494703Y-71080000D01*
X111325297Y-71080000D01*
X111159147Y-71113049D01*
X111002637Y-71177878D01*
X110861782Y-71271995D01*
X110741995Y-71391782D01*
X110647878Y-71532637D01*
X110583049Y-71689147D01*
X110550000Y-71855297D01*
X100660000Y-71855297D01*
X100660000Y-70235297D01*
X108730000Y-70235297D01*
X108730000Y-70404703D01*
X108763049Y-70570853D01*
X108827878Y-70727363D01*
X108921995Y-70868218D01*
X109041782Y-70988005D01*
X109182637Y-71082122D01*
X109339147Y-71146951D01*
X109505297Y-71180000D01*
X109674703Y-71180000D01*
X109840853Y-71146951D01*
X109997363Y-71082122D01*
X110138218Y-70988005D01*
X110258005Y-70868218D01*
X110352122Y-70727363D01*
X110416951Y-70570853D01*
X110450000Y-70404703D01*
X110450000Y-70235297D01*
X110416951Y-70069147D01*
X110352122Y-69912637D01*
X110258005Y-69771782D01*
X110138218Y-69651995D01*
X109997363Y-69557878D01*
X109840853Y-69493049D01*
X109674703Y-69460000D01*
X109505297Y-69460000D01*
X109339147Y-69493049D01*
X109182637Y-69557878D01*
X109041782Y-69651995D01*
X108921995Y-69771782D01*
X108827878Y-69912637D01*
X108763049Y-70069147D01*
X108730000Y-70235297D01*
X100660000Y-70235297D01*
X100660000Y-67935297D01*
X105980000Y-67935297D01*
X105980000Y-68104703D01*
X106013049Y-68270853D01*
X106077878Y-68427363D01*
X106171995Y-68568218D01*
X106291782Y-68688005D01*
X106432637Y-68782122D01*
X106589147Y-68846951D01*
X106755297Y-68880000D01*
X106924703Y-68880000D01*
X107090853Y-68846951D01*
X107247363Y-68782122D01*
X107388218Y-68688005D01*
X107508005Y-68568218D01*
X107602122Y-68427363D01*
X107666951Y-68270853D01*
X107700000Y-68104703D01*
X107700000Y-67935297D01*
X107666951Y-67769147D01*
X107623935Y-67665297D01*
X116420000Y-67665297D01*
X116420000Y-67834703D01*
X116453049Y-68000853D01*
X116517878Y-68157363D01*
X116611995Y-68298218D01*
X116731782Y-68418005D01*
X116872637Y-68512122D01*
X117029147Y-68576951D01*
X117195297Y-68610000D01*
X117364703Y-68610000D01*
X117530853Y-68576951D01*
X117687363Y-68512122D01*
X117828218Y-68418005D01*
X117948005Y-68298218D01*
X118042122Y-68157363D01*
X118106951Y-68000853D01*
X118140000Y-67834703D01*
X118140000Y-67665297D01*
X124450000Y-67665297D01*
X124450000Y-67834703D01*
X124483049Y-68000853D01*
X124547878Y-68157363D01*
X124641995Y-68298218D01*
X124761782Y-68418005D01*
X124902637Y-68512122D01*
X125059147Y-68576951D01*
X125225297Y-68610000D01*
X125394703Y-68610000D01*
X125560853Y-68576951D01*
X125717363Y-68512122D01*
X125727577Y-68505297D01*
X129650000Y-68505297D01*
X129650000Y-68674703D01*
X129683049Y-68840853D01*
X129747878Y-68997363D01*
X129841995Y-69138218D01*
X129961782Y-69258005D01*
X130102637Y-69352122D01*
X130259147Y-69416951D01*
X130425297Y-69450000D01*
X130594703Y-69450000D01*
X130760853Y-69416951D01*
X130917363Y-69352122D01*
X131058218Y-69258005D01*
X131178005Y-69138218D01*
X131272122Y-68997363D01*
X131336951Y-68840853D01*
X131370000Y-68674703D01*
X131370000Y-68505297D01*
X131336951Y-68339147D01*
X131289793Y-68225297D01*
X133840000Y-68225297D01*
X133840000Y-68394703D01*
X133873049Y-68560853D01*
X133937878Y-68717363D01*
X134031995Y-68858218D01*
X134151782Y-68978005D01*
X134292637Y-69072122D01*
X134449147Y-69136951D01*
X134615297Y-69170000D01*
X134784703Y-69170000D01*
X134950853Y-69136951D01*
X135107363Y-69072122D01*
X135179240Y-69024095D01*
X135181995Y-69028218D01*
X135301782Y-69148005D01*
X135442637Y-69242122D01*
X135599147Y-69306951D01*
X135765297Y-69340000D01*
X135934703Y-69340000D01*
X136100853Y-69306951D01*
X136257363Y-69242122D01*
X136398218Y-69148005D01*
X136518005Y-69028218D01*
X136612122Y-68887363D01*
X136676951Y-68730853D01*
X136710000Y-68564703D01*
X136710000Y-68395297D01*
X136676951Y-68229147D01*
X136612122Y-68072637D01*
X136518005Y-67931782D01*
X136398218Y-67811995D01*
X136257363Y-67717878D01*
X136100853Y-67653049D01*
X135934703Y-67620000D01*
X135765297Y-67620000D01*
X135599147Y-67653049D01*
X135442637Y-67717878D01*
X135370760Y-67765905D01*
X135368005Y-67761782D01*
X135248218Y-67641995D01*
X135185369Y-67600000D01*
X138711928Y-67600000D01*
X138711928Y-69300000D01*
X138724188Y-69424482D01*
X138760498Y-69544180D01*
X138819463Y-69654494D01*
X138898815Y-69751185D01*
X138995506Y-69830537D01*
X139105820Y-69889502D01*
X139225518Y-69925812D01*
X139350000Y-69938072D01*
X141050000Y-69938072D01*
X141174482Y-69925812D01*
X141294180Y-69889502D01*
X141404494Y-69830537D01*
X141501185Y-69751185D01*
X141580537Y-69654494D01*
X141639502Y-69544180D01*
X141675812Y-69424482D01*
X141688072Y-69300000D01*
X141688072Y-67600000D01*
X141675812Y-67475518D01*
X141639502Y-67355820D01*
X141580537Y-67245506D01*
X141501185Y-67148815D01*
X141404494Y-67069463D01*
X141294180Y-67010498D01*
X141174482Y-66974188D01*
X141050000Y-66961928D01*
X139350000Y-66961928D01*
X139225518Y-66974188D01*
X139105820Y-67010498D01*
X138995506Y-67069463D01*
X138898815Y-67148815D01*
X138819463Y-67245506D01*
X138760498Y-67355820D01*
X138724188Y-67475518D01*
X138711928Y-67600000D01*
X135185369Y-67600000D01*
X135107363Y-67547878D01*
X134950853Y-67483049D01*
X134784703Y-67450000D01*
X134615297Y-67450000D01*
X134449147Y-67483049D01*
X134292637Y-67547878D01*
X134151782Y-67641995D01*
X134031995Y-67761782D01*
X133937878Y-67902637D01*
X133873049Y-68059147D01*
X133840000Y-68225297D01*
X131289793Y-68225297D01*
X131272122Y-68182637D01*
X131178005Y-68041782D01*
X131058218Y-67921995D01*
X130917363Y-67827878D01*
X130760853Y-67763049D01*
X130594703Y-67730000D01*
X130425297Y-67730000D01*
X130259147Y-67763049D01*
X130102637Y-67827878D01*
X129961782Y-67921995D01*
X129841995Y-68041782D01*
X129747878Y-68182637D01*
X129683049Y-68339147D01*
X129650000Y-68505297D01*
X125727577Y-68505297D01*
X125858218Y-68418005D01*
X125978005Y-68298218D01*
X126072122Y-68157363D01*
X126136951Y-68000853D01*
X126170000Y-67834703D01*
X126170000Y-67665297D01*
X126153683Y-67583266D01*
X126259147Y-67626951D01*
X126425297Y-67660000D01*
X126594703Y-67660000D01*
X126760853Y-67626951D01*
X126917363Y-67562122D01*
X127058218Y-67468005D01*
X127178005Y-67348218D01*
X127272122Y-67207363D01*
X127336951Y-67050853D01*
X127370000Y-66884703D01*
X127370000Y-66715297D01*
X127336951Y-66549147D01*
X127272122Y-66392637D01*
X127178005Y-66251782D01*
X127058218Y-66131995D01*
X126917363Y-66037878D01*
X126760853Y-65973049D01*
X126594703Y-65940000D01*
X126425297Y-65940000D01*
X126259147Y-65973049D01*
X126102637Y-66037878D01*
X125961782Y-66131995D01*
X125841995Y-66251782D01*
X125747878Y-66392637D01*
X125683049Y-66549147D01*
X125650000Y-66715297D01*
X125650000Y-66884703D01*
X125666317Y-66966734D01*
X125560853Y-66923049D01*
X125394703Y-66890000D01*
X125225297Y-66890000D01*
X125059147Y-66923049D01*
X124902637Y-66987878D01*
X124761782Y-67081995D01*
X124641995Y-67201782D01*
X124547878Y-67342637D01*
X124483049Y-67499147D01*
X124450000Y-67665297D01*
X118140000Y-67665297D01*
X118106951Y-67499147D01*
X118042122Y-67342637D01*
X117948005Y-67201782D01*
X117828218Y-67081995D01*
X117687363Y-66987878D01*
X117530853Y-66923049D01*
X117364703Y-66890000D01*
X117195297Y-66890000D01*
X117029147Y-66923049D01*
X116872637Y-66987878D01*
X116731782Y-67081995D01*
X116611995Y-67201782D01*
X116517878Y-67342637D01*
X116453049Y-67499147D01*
X116420000Y-67665297D01*
X107623935Y-67665297D01*
X107602122Y-67612637D01*
X107508005Y-67471782D01*
X107388218Y-67351995D01*
X107247363Y-67257878D01*
X107090853Y-67193049D01*
X106924703Y-67160000D01*
X106755297Y-67160000D01*
X106589147Y-67193049D01*
X106432637Y-67257878D01*
X106291782Y-67351995D01*
X106171995Y-67471782D01*
X106077878Y-67612637D01*
X106013049Y-67769147D01*
X105980000Y-67935297D01*
X100660000Y-67935297D01*
X100660000Y-66665297D01*
X119700000Y-66665297D01*
X119700000Y-66834703D01*
X119733049Y-67000853D01*
X119797878Y-67157363D01*
X119891995Y-67298218D01*
X120011782Y-67418005D01*
X120152637Y-67512122D01*
X120309147Y-67576951D01*
X120475297Y-67610000D01*
X120644703Y-67610000D01*
X120810853Y-67576951D01*
X120967363Y-67512122D01*
X121108218Y-67418005D01*
X121228005Y-67298218D01*
X121322122Y-67157363D01*
X121386951Y-67000853D01*
X121420000Y-66834703D01*
X121420000Y-66665297D01*
X121386951Y-66499147D01*
X121322122Y-66342637D01*
X121228005Y-66201782D01*
X121108218Y-66081995D01*
X120967363Y-65987878D01*
X120810853Y-65923049D01*
X120644703Y-65890000D01*
X120475297Y-65890000D01*
X120309147Y-65923049D01*
X120152637Y-65987878D01*
X120011782Y-66081995D01*
X119891995Y-66201782D01*
X119797878Y-66342637D01*
X119733049Y-66499147D01*
X119700000Y-66665297D01*
X100660000Y-66665297D01*
X100660000Y-65095297D01*
X109510000Y-65095297D01*
X109510000Y-65264703D01*
X109543049Y-65430853D01*
X109607878Y-65587363D01*
X109701995Y-65728218D01*
X109821782Y-65848005D01*
X109962637Y-65942122D01*
X110110693Y-66003449D01*
X110157878Y-66117363D01*
X110251995Y-66258218D01*
X110371782Y-66378005D01*
X110512637Y-66472122D01*
X110669147Y-66536951D01*
X110835297Y-66570000D01*
X111004703Y-66570000D01*
X111170853Y-66536951D01*
X111327363Y-66472122D01*
X111468218Y-66378005D01*
X111588005Y-66258218D01*
X111682122Y-66117363D01*
X111712590Y-66043807D01*
X111837363Y-65992124D01*
X111978218Y-65898007D01*
X112098005Y-65778220D01*
X112192122Y-65637365D01*
X112256951Y-65480855D01*
X112290000Y-65314705D01*
X112290000Y-65145299D01*
X112256951Y-64979149D01*
X112192122Y-64822639D01*
X112098005Y-64681784D01*
X111978218Y-64561997D01*
X111975674Y-64560297D01*
X113405000Y-64560297D01*
X113405000Y-64729703D01*
X113438049Y-64895853D01*
X113502878Y-65052363D01*
X113596995Y-65193218D01*
X113716782Y-65313005D01*
X113857637Y-65407122D01*
X114014147Y-65471951D01*
X114180297Y-65505000D01*
X114349703Y-65505000D01*
X114515853Y-65471951D01*
X114672363Y-65407122D01*
X114813218Y-65313005D01*
X114933005Y-65193218D01*
X115025023Y-65055505D01*
X115096995Y-65163218D01*
X115216782Y-65283005D01*
X115357637Y-65377122D01*
X115514147Y-65441951D01*
X115680297Y-65475000D01*
X115849703Y-65475000D01*
X116015853Y-65441951D01*
X116172363Y-65377122D01*
X116313218Y-65283005D01*
X116433005Y-65163218D01*
X116527122Y-65022363D01*
X116554902Y-64955295D01*
X124850000Y-64955295D01*
X124850000Y-65124701D01*
X124883049Y-65290851D01*
X124947878Y-65447361D01*
X125041995Y-65588216D01*
X125161782Y-65708003D01*
X125302637Y-65802120D01*
X125459147Y-65866949D01*
X125625297Y-65899998D01*
X125794703Y-65899998D01*
X125960853Y-65866949D01*
X126117363Y-65802120D01*
X126258218Y-65708003D01*
X126378005Y-65588216D01*
X126472122Y-65447361D01*
X126504166Y-65370000D01*
X126634703Y-65370000D01*
X126800853Y-65336951D01*
X126957363Y-65272122D01*
X127098218Y-65178005D01*
X127110926Y-65165297D01*
X129510000Y-65165297D01*
X129510000Y-65334703D01*
X129543049Y-65500853D01*
X129607878Y-65657363D01*
X129701995Y-65798218D01*
X129821782Y-65918005D01*
X129962637Y-66012122D01*
X130119147Y-66076951D01*
X130285297Y-66110000D01*
X130454703Y-66110000D01*
X130620853Y-66076951D01*
X130777363Y-66012122D01*
X130918218Y-65918005D01*
X131038005Y-65798218D01*
X131132122Y-65657363D01*
X131196951Y-65500853D01*
X131230000Y-65334703D01*
X131230000Y-65165297D01*
X131196951Y-64999147D01*
X131132122Y-64842637D01*
X131038005Y-64701782D01*
X130918218Y-64581995D01*
X130777363Y-64487878D01*
X130620853Y-64423049D01*
X130454703Y-64390000D01*
X130285297Y-64390000D01*
X130119147Y-64423049D01*
X129962637Y-64487878D01*
X129821782Y-64581995D01*
X129701995Y-64701782D01*
X129607878Y-64842637D01*
X129543049Y-64999147D01*
X129510000Y-65165297D01*
X127110926Y-65165297D01*
X127218005Y-65058218D01*
X127312122Y-64917363D01*
X127376951Y-64760853D01*
X127410000Y-64594703D01*
X127410000Y-64425297D01*
X127376951Y-64259147D01*
X127312122Y-64102637D01*
X127218005Y-63961782D01*
X127098218Y-63841995D01*
X126957363Y-63747878D01*
X126800853Y-63683049D01*
X126634703Y-63650000D01*
X126465297Y-63650000D01*
X126299147Y-63683049D01*
X126142637Y-63747878D01*
X126001782Y-63841995D01*
X125881995Y-63961782D01*
X125787878Y-64102637D01*
X125755834Y-64179998D01*
X125625297Y-64179998D01*
X125459147Y-64213047D01*
X125302637Y-64277876D01*
X125161782Y-64371993D01*
X125041995Y-64491780D01*
X124947878Y-64632635D01*
X124883049Y-64789145D01*
X124850000Y-64955295D01*
X116554902Y-64955295D01*
X116591951Y-64865853D01*
X116625000Y-64699703D01*
X116625000Y-64530297D01*
X116591951Y-64364147D01*
X116527122Y-64207637D01*
X116433005Y-64066782D01*
X116313218Y-63946995D01*
X116172363Y-63852878D01*
X116015853Y-63788049D01*
X115849703Y-63755000D01*
X115680297Y-63755000D01*
X115514147Y-63788049D01*
X115357637Y-63852878D01*
X115216782Y-63946995D01*
X115096995Y-64066782D01*
X115004977Y-64204495D01*
X114933005Y-64096782D01*
X114813218Y-63976995D01*
X114672363Y-63882878D01*
X114515853Y-63818049D01*
X114349703Y-63785000D01*
X114180297Y-63785000D01*
X114014147Y-63818049D01*
X113857637Y-63882878D01*
X113716782Y-63976995D01*
X113596995Y-64096782D01*
X113502878Y-64237637D01*
X113438049Y-64394147D01*
X113405000Y-64560297D01*
X111975674Y-64560297D01*
X111837363Y-64467880D01*
X111680853Y-64403051D01*
X111514703Y-64370002D01*
X111345297Y-64370002D01*
X111179147Y-64403051D01*
X111022637Y-64467880D01*
X110933598Y-64527375D01*
X110918218Y-64511995D01*
X110777363Y-64417878D01*
X110620853Y-64353049D01*
X110454703Y-64320000D01*
X110285297Y-64320000D01*
X110119147Y-64353049D01*
X109962637Y-64417878D01*
X109821782Y-64511995D01*
X109701995Y-64631782D01*
X109607878Y-64772637D01*
X109543049Y-64929147D01*
X109510000Y-65095297D01*
X100660000Y-65095297D01*
X100660000Y-63555297D01*
X107720000Y-63555297D01*
X107720000Y-63724703D01*
X107753049Y-63890853D01*
X107817878Y-64047363D01*
X107911995Y-64188218D01*
X108031782Y-64308005D01*
X108172637Y-64402122D01*
X108329147Y-64466951D01*
X108495297Y-64500000D01*
X108664703Y-64500000D01*
X108830853Y-64466951D01*
X108987363Y-64402122D01*
X109128218Y-64308005D01*
X109248005Y-64188218D01*
X109342122Y-64047363D01*
X109406951Y-63890853D01*
X109440000Y-63724703D01*
X109440000Y-63635297D01*
X123650000Y-63635297D01*
X123650000Y-63804703D01*
X123683049Y-63970853D01*
X123747878Y-64127363D01*
X123841995Y-64268218D01*
X123961782Y-64388005D01*
X124102637Y-64482122D01*
X124259147Y-64546951D01*
X124425297Y-64580000D01*
X124594703Y-64580000D01*
X124760853Y-64546951D01*
X124917363Y-64482122D01*
X125058218Y-64388005D01*
X125178005Y-64268218D01*
X125272122Y-64127363D01*
X125336951Y-63970853D01*
X125370000Y-63804703D01*
X125370000Y-63635297D01*
X125336951Y-63469147D01*
X125272122Y-63312637D01*
X125178005Y-63171782D01*
X125058218Y-63051995D01*
X124917363Y-62957878D01*
X124760853Y-62893049D01*
X124594703Y-62860000D01*
X124425297Y-62860000D01*
X124259147Y-62893049D01*
X124102637Y-62957878D01*
X123961782Y-63051995D01*
X123841995Y-63171782D01*
X123747878Y-63312637D01*
X123683049Y-63469147D01*
X123650000Y-63635297D01*
X109440000Y-63635297D01*
X109440000Y-63555297D01*
X109406951Y-63389147D01*
X109342122Y-63232637D01*
X109248005Y-63091782D01*
X109128218Y-62971995D01*
X108987363Y-62877878D01*
X108830853Y-62813049D01*
X108664703Y-62780000D01*
X108495297Y-62780000D01*
X108329147Y-62813049D01*
X108172637Y-62877878D01*
X108031782Y-62971995D01*
X107911995Y-63091782D01*
X107817878Y-63232637D01*
X107753049Y-63389147D01*
X107720000Y-63555297D01*
X100660000Y-63555297D01*
X100660000Y-60915297D01*
X124050000Y-60915297D01*
X124050000Y-61084703D01*
X124083049Y-61250853D01*
X124147878Y-61407363D01*
X124241995Y-61548218D01*
X124361782Y-61668005D01*
X124502637Y-61762122D01*
X124659147Y-61826951D01*
X124825297Y-61860000D01*
X124994703Y-61860000D01*
X125160853Y-61826951D01*
X125317363Y-61762122D01*
X125458218Y-61668005D01*
X125578005Y-61548218D01*
X125616905Y-61490000D01*
X138521928Y-61490000D01*
X138534188Y-61614482D01*
X138570498Y-61734180D01*
X138629463Y-61844494D01*
X138708815Y-61941185D01*
X138805506Y-62020537D01*
X138915820Y-62079502D01*
X139035518Y-62115812D01*
X139160000Y-62128072D01*
X139724250Y-62125000D01*
X139883000Y-61966250D01*
X139883000Y-60767000D01*
X140137000Y-60767000D01*
X140137000Y-61966250D01*
X140295750Y-62125000D01*
X140860000Y-62128072D01*
X140984482Y-62115812D01*
X141104180Y-62079502D01*
X141214494Y-62020537D01*
X141311185Y-61941185D01*
X141390537Y-61844494D01*
X141449502Y-61734180D01*
X141485812Y-61614482D01*
X141498072Y-61490000D01*
X141495000Y-60925750D01*
X141336250Y-60767000D01*
X140137000Y-60767000D01*
X139883000Y-60767000D01*
X138683750Y-60767000D01*
X138525000Y-60925750D01*
X138521928Y-61490000D01*
X125616905Y-61490000D01*
X125672122Y-61407363D01*
X125736951Y-61250853D01*
X125770000Y-61084703D01*
X125770000Y-60915297D01*
X125736951Y-60749147D01*
X125672122Y-60592637D01*
X125578005Y-60451782D01*
X125458218Y-60331995D01*
X125317363Y-60237878D01*
X125160853Y-60173049D01*
X124994703Y-60140000D01*
X124825297Y-60140000D01*
X124659147Y-60173049D01*
X124502637Y-60237878D01*
X124361782Y-60331995D01*
X124241995Y-60451782D01*
X124147878Y-60592637D01*
X124083049Y-60749147D01*
X124050000Y-60915297D01*
X100660000Y-60915297D01*
X100660000Y-59995297D01*
X127540000Y-59995297D01*
X127540000Y-60164703D01*
X127573049Y-60330853D01*
X127637878Y-60487363D01*
X127731995Y-60628218D01*
X127851782Y-60748005D01*
X127992637Y-60842122D01*
X128149147Y-60906951D01*
X128315297Y-60940000D01*
X128484703Y-60940000D01*
X128650853Y-60906951D01*
X128807363Y-60842122D01*
X128948218Y-60748005D01*
X129068005Y-60628218D01*
X129162122Y-60487363D01*
X129226951Y-60330853D01*
X129260000Y-60164703D01*
X129260000Y-59995297D01*
X129226951Y-59829147D01*
X129204646Y-59775297D01*
X131580000Y-59775297D01*
X131580000Y-59944703D01*
X131613049Y-60110853D01*
X131677878Y-60267363D01*
X131771995Y-60408218D01*
X131891782Y-60528005D01*
X132032637Y-60622122D01*
X132189147Y-60686951D01*
X132355297Y-60720000D01*
X132524703Y-60720000D01*
X132690853Y-60686951D01*
X132847363Y-60622122D01*
X132988218Y-60528005D01*
X133108005Y-60408218D01*
X133202122Y-60267363D01*
X133266951Y-60110853D01*
X133300000Y-59944703D01*
X133300000Y-59790000D01*
X138521928Y-59790000D01*
X138525000Y-60354250D01*
X138683750Y-60513000D01*
X139883000Y-60513000D01*
X139883000Y-59313750D01*
X140137000Y-59313750D01*
X140137000Y-60513000D01*
X141336250Y-60513000D01*
X141495000Y-60354250D01*
X141498072Y-59790000D01*
X141485812Y-59665518D01*
X141449502Y-59545820D01*
X141390537Y-59435506D01*
X141311185Y-59338815D01*
X141214494Y-59259463D01*
X141104180Y-59200498D01*
X140984482Y-59164188D01*
X140860000Y-59151928D01*
X140295750Y-59155000D01*
X140137000Y-59313750D01*
X139883000Y-59313750D01*
X139724250Y-59155000D01*
X139160000Y-59151928D01*
X139035518Y-59164188D01*
X138915820Y-59200498D01*
X138805506Y-59259463D01*
X138708815Y-59338815D01*
X138629463Y-59435506D01*
X138570498Y-59545820D01*
X138534188Y-59665518D01*
X138521928Y-59790000D01*
X133300000Y-59790000D01*
X133300000Y-59775297D01*
X133266951Y-59609147D01*
X133202122Y-59452637D01*
X133108005Y-59311782D01*
X132988218Y-59191995D01*
X132847363Y-59097878D01*
X132690853Y-59033049D01*
X132524703Y-59000000D01*
X132355297Y-59000000D01*
X132189147Y-59033049D01*
X132032637Y-59097878D01*
X131891782Y-59191995D01*
X131771995Y-59311782D01*
X131677878Y-59452637D01*
X131613049Y-59609147D01*
X131580000Y-59775297D01*
X129204646Y-59775297D01*
X129162122Y-59672637D01*
X129068005Y-59531782D01*
X128948218Y-59411995D01*
X128807363Y-59317878D01*
X128650853Y-59253049D01*
X128484703Y-59220000D01*
X128315297Y-59220000D01*
X128149147Y-59253049D01*
X127992637Y-59317878D01*
X127851782Y-59411995D01*
X127731995Y-59531782D01*
X127637878Y-59672637D01*
X127573049Y-59829147D01*
X127540000Y-59995297D01*
X100660000Y-59995297D01*
X100660000Y-58445297D01*
X114140000Y-58445297D01*
X114140000Y-58614703D01*
X114173049Y-58780853D01*
X114237878Y-58937363D01*
X114331995Y-59078218D01*
X114451782Y-59198005D01*
X114592637Y-59292122D01*
X114749147Y-59356951D01*
X114915297Y-59390000D01*
X115084703Y-59390000D01*
X115250853Y-59356951D01*
X115407363Y-59292122D01*
X115548218Y-59198005D01*
X115668005Y-59078218D01*
X115762122Y-58937363D01*
X115826951Y-58780853D01*
X115847947Y-58675297D01*
X117620000Y-58675297D01*
X117620000Y-58844703D01*
X117653049Y-59010853D01*
X117717878Y-59167363D01*
X117811995Y-59308218D01*
X117931782Y-59428005D01*
X118072637Y-59522122D01*
X118229147Y-59586951D01*
X118395297Y-59620000D01*
X118564703Y-59620000D01*
X118730853Y-59586951D01*
X118887363Y-59522122D01*
X119028218Y-59428005D01*
X119148005Y-59308218D01*
X119242122Y-59167363D01*
X119306951Y-59010853D01*
X119340000Y-58844703D01*
X119340000Y-58675297D01*
X119306951Y-58509147D01*
X119242122Y-58352637D01*
X119148005Y-58211782D01*
X119028218Y-58091995D01*
X118887363Y-57997878D01*
X118730853Y-57933049D01*
X118564703Y-57900000D01*
X118395297Y-57900000D01*
X118229147Y-57933049D01*
X118072637Y-57997878D01*
X117931782Y-58091995D01*
X117811995Y-58211782D01*
X117717878Y-58352637D01*
X117653049Y-58509147D01*
X117620000Y-58675297D01*
X115847947Y-58675297D01*
X115860000Y-58614703D01*
X115860000Y-58445297D01*
X115826951Y-58279147D01*
X115762122Y-58122637D01*
X115668005Y-57981782D01*
X115548218Y-57861995D01*
X115407363Y-57767878D01*
X115250853Y-57703049D01*
X115084703Y-57670000D01*
X114915297Y-57670000D01*
X114749147Y-57703049D01*
X114592637Y-57767878D01*
X114451782Y-57861995D01*
X114331995Y-57981782D01*
X114237878Y-58122637D01*
X114173049Y-58279147D01*
X114140000Y-58445297D01*
X100660000Y-58445297D01*
X100660000Y-56812795D01*
X114992498Y-56812795D01*
X114992498Y-56982201D01*
X115025547Y-57148351D01*
X115090376Y-57304861D01*
X115184493Y-57445716D01*
X115304280Y-57565503D01*
X115445135Y-57659620D01*
X115601645Y-57724449D01*
X115767795Y-57757498D01*
X115937201Y-57757498D01*
X116103351Y-57724449D01*
X116259861Y-57659620D01*
X116400716Y-57565503D01*
X116520503Y-57445716D01*
X116614620Y-57304861D01*
X116679449Y-57148351D01*
X116712498Y-56982201D01*
X116712498Y-56812795D01*
X116679449Y-56646645D01*
X116614620Y-56490135D01*
X116520503Y-56349280D01*
X116400716Y-56229493D01*
X116259861Y-56135376D01*
X116103351Y-56070547D01*
X115937201Y-56037498D01*
X115767795Y-56037498D01*
X115601645Y-56070547D01*
X115445135Y-56135376D01*
X115304280Y-56229493D01*
X115184493Y-56349280D01*
X115090376Y-56490135D01*
X115025547Y-56646645D01*
X114992498Y-56812795D01*
X100660000Y-56812795D01*
X100660000Y-55140000D01*
X138521928Y-55140000D01*
X138521928Y-56840000D01*
X138534188Y-56964482D01*
X138570498Y-57084180D01*
X138629463Y-57194494D01*
X138708815Y-57291185D01*
X138805506Y-57370537D01*
X138915820Y-57429502D01*
X139035518Y-57465812D01*
X139160000Y-57478072D01*
X140860000Y-57478072D01*
X140984482Y-57465812D01*
X141104180Y-57429502D01*
X141214494Y-57370537D01*
X141311185Y-57291185D01*
X141390537Y-57194494D01*
X141449502Y-57084180D01*
X141485812Y-56964482D01*
X141498072Y-56840000D01*
X141498072Y-55140000D01*
X141485812Y-55015518D01*
X141449502Y-54895820D01*
X141390537Y-54785506D01*
X141311185Y-54688815D01*
X141214494Y-54609463D01*
X141104180Y-54550498D01*
X140984482Y-54514188D01*
X140860000Y-54501928D01*
X139160000Y-54501928D01*
X139035518Y-54514188D01*
X138915820Y-54550498D01*
X138805506Y-54609463D01*
X138708815Y-54688815D01*
X138629463Y-54785506D01*
X138570498Y-54895820D01*
X138534188Y-55015518D01*
X138521928Y-55140000D01*
X100660000Y-55140000D01*
X100660000Y-53660000D01*
X113967581Y-53660000D01*
X114000000Y-53663193D01*
X114032419Y-53660000D01*
X114129383Y-53650450D01*
X114253793Y-53612710D01*
X114368450Y-53551425D01*
X114468948Y-53468948D01*
X114551425Y-53368450D01*
X114612710Y-53253793D01*
X114650450Y-53129383D01*
X114663193Y-53000000D01*
X114660000Y-52967581D01*
X114660000Y-48282279D01*
X114674341Y-48136015D01*
X114707443Y-48026375D01*
X114761212Y-47925252D01*
X114833599Y-47836497D01*
X114921848Y-47763491D01*
X115022591Y-47709019D01*
X115132004Y-47675150D01*
X115276145Y-47660000D01*
X122417721Y-47660000D01*
X122563985Y-47674341D01*
X122563985Y-47674341D01*
G37*
X122563985Y-47674341D02*
X122673625Y-47707443D01*
X122774748Y-47761212D01*
X122863503Y-47833599D01*
X122936509Y-47921848D01*
X122990981Y-48022591D01*
X123024850Y-48132004D01*
X123040000Y-48276145D01*
X123040001Y-51909975D01*
X122950853Y-51873049D01*
X122784703Y-51840000D01*
X122615297Y-51840000D01*
X122449147Y-51873049D01*
X122292637Y-51937878D01*
X122161635Y-52025412D01*
X122138218Y-52001995D01*
X121997363Y-51907878D01*
X121840853Y-51843049D01*
X121674703Y-51810000D01*
X121505297Y-51810000D01*
X121339147Y-51843049D01*
X121182637Y-51907878D01*
X121075613Y-51979390D01*
X121048218Y-51951995D01*
X120907363Y-51857878D01*
X120750853Y-51793049D01*
X120584703Y-51760000D01*
X120415297Y-51760000D01*
X120249147Y-51793049D01*
X120092637Y-51857878D01*
X119961635Y-51945412D01*
X119948218Y-51931995D01*
X119807363Y-51837878D01*
X119650853Y-51773049D01*
X119484703Y-51740000D01*
X119315297Y-51740000D01*
X119149147Y-51773049D01*
X118992637Y-51837878D01*
X118851782Y-51931995D01*
X118844360Y-51939417D01*
X118707363Y-51847878D01*
X118550853Y-51783049D01*
X118384703Y-51750000D01*
X118215297Y-51750000D01*
X118049147Y-51783049D01*
X117892637Y-51847878D01*
X117751782Y-51941995D01*
X117631995Y-52061782D01*
X117537878Y-52202637D01*
X117473049Y-52359147D01*
X117440000Y-52525297D01*
X117440000Y-52694703D01*
X117473049Y-52860853D01*
X117516672Y-52966169D01*
X117460857Y-52943049D01*
X117294707Y-52910000D01*
X117125301Y-52910000D01*
X116959151Y-52943049D01*
X116872113Y-52979102D01*
X116916951Y-52870853D01*
X116950000Y-52704703D01*
X116950000Y-52535297D01*
X116916951Y-52369147D01*
X116852122Y-52212637D01*
X116758005Y-52071782D01*
X116638218Y-51951995D01*
X116497363Y-51857878D01*
X116340853Y-51793049D01*
X116174703Y-51760000D01*
X116005297Y-51760000D01*
X115839147Y-51793049D01*
X115682637Y-51857878D01*
X115541782Y-51951995D01*
X115421995Y-52071782D01*
X115327878Y-52212637D01*
X115263049Y-52369147D01*
X115230000Y-52535297D01*
X115230000Y-52704703D01*
X115263049Y-52870853D01*
X115327878Y-53027363D01*
X115421995Y-53168218D01*
X115475688Y-53221911D01*
X115319147Y-53253049D01*
X115162637Y-53317878D01*
X115021782Y-53411995D01*
X114901995Y-53531782D01*
X114807878Y-53672637D01*
X114743049Y-53829147D01*
X114710000Y-53995297D01*
X114710000Y-54164703D01*
X114743049Y-54330853D01*
X114807878Y-54487363D01*
X114901995Y-54628218D01*
X115021782Y-54748005D01*
X115162637Y-54842122D01*
X115319147Y-54906951D01*
X115485297Y-54940000D01*
X115654703Y-54940000D01*
X115820853Y-54906951D01*
X115977363Y-54842122D01*
X116118218Y-54748005D01*
X116238005Y-54628218D01*
X116332122Y-54487363D01*
X116396951Y-54330853D01*
X116430000Y-54164703D01*
X116430000Y-54134192D01*
X116447882Y-54177363D01*
X116541999Y-54318218D01*
X116661786Y-54438005D01*
X116802641Y-54532122D01*
X116959151Y-54596951D01*
X117125301Y-54630000D01*
X117294707Y-54630000D01*
X117460857Y-54596951D01*
X117617367Y-54532122D01*
X117758222Y-54438005D01*
X117878009Y-54318218D01*
X117972126Y-54177363D01*
X118036955Y-54020853D01*
X118070004Y-53854703D01*
X118070004Y-53755511D01*
X118151995Y-53878218D01*
X118271782Y-53998005D01*
X118412637Y-54092122D01*
X118569147Y-54156951D01*
X118735297Y-54190000D01*
X118904703Y-54190000D01*
X119070853Y-54156951D01*
X119227363Y-54092122D01*
X119368218Y-53998005D01*
X119458271Y-53907952D01*
X119551995Y-54048218D01*
X119671782Y-54168005D01*
X119812637Y-54262122D01*
X119837503Y-54272422D01*
X119863049Y-54400853D01*
X119927878Y-54557363D01*
X120021995Y-54698218D01*
X120141782Y-54818005D01*
X120282637Y-54912122D01*
X120439147Y-54976951D01*
X120605297Y-55010000D01*
X120774703Y-55010000D01*
X120940853Y-54976951D01*
X121097363Y-54912122D01*
X121238218Y-54818005D01*
X121358005Y-54698218D01*
X121452122Y-54557363D01*
X121516951Y-54400853D01*
X121550000Y-54234703D01*
X121550000Y-54065297D01*
X121516951Y-53899147D01*
X121452122Y-53742637D01*
X121358005Y-53601782D01*
X121238218Y-53481995D01*
X121097363Y-53387878D01*
X121072497Y-53377578D01*
X121068127Y-53355609D01*
X121182637Y-53432122D01*
X121339147Y-53496951D01*
X121505297Y-53530000D01*
X121674703Y-53530000D01*
X121840853Y-53496951D01*
X121997363Y-53432122D01*
X122128365Y-53344588D01*
X122151782Y-53368005D01*
X122292637Y-53462122D01*
X122449147Y-53526951D01*
X122615297Y-53560000D01*
X122784703Y-53560000D01*
X122950853Y-53526951D01*
X123107363Y-53462122D01*
X123183629Y-53411163D01*
X123231052Y-53468948D01*
X123331550Y-53551425D01*
X123446207Y-53612710D01*
X123570617Y-53650450D01*
X123667581Y-53660000D01*
X123700000Y-53663193D01*
X123732419Y-53660000D01*
X142340000Y-53660000D01*
X142340001Y-86340000D01*
X108054773Y-86340000D01*
X108114000Y-86203605D01*
X106980000Y-85069605D01*
X105846000Y-86203605D01*
X105905227Y-86340000D01*
X102974773Y-86340000D01*
X103034000Y-86203605D01*
X101900000Y-85069605D01*
X101885858Y-85083748D01*
X101706253Y-84904143D01*
X101720395Y-84890000D01*
X101706253Y-84875858D01*
X101885858Y-84696253D01*
X101900000Y-84710395D01*
X101914143Y-84696253D01*
X102093748Y-84875858D01*
X102079605Y-84890000D01*
X103213605Y-86024000D01*
X103503577Y-85898086D01*
X103669433Y-85565874D01*
X103767290Y-85207688D01*
X103793389Y-84837294D01*
X103746725Y-84468925D01*
X103629094Y-84116738D01*
X103586313Y-84036701D01*
X103890166Y-84162561D01*
X104254344Y-84235000D01*
X104625656Y-84235000D01*
X104989834Y-84162561D01*
X105300569Y-84033850D01*
X105210567Y-84214126D01*
X105112710Y-84572312D01*
X105086611Y-84942706D01*
X105133275Y-85311075D01*
X105250906Y-85663262D01*
X105376423Y-85898086D01*
X105666395Y-86024000D01*
X106800395Y-84890000D01*
X107159605Y-84890000D01*
X108293605Y-86024000D01*
X108583577Y-85898086D01*
X108749433Y-85565874D01*
X108847290Y-85207688D01*
X108873389Y-84837294D01*
X108826725Y-84468925D01*
X108709094Y-84116738D01*
X108583577Y-83881914D01*
X108293605Y-83756000D01*
X107159605Y-84890000D01*
X106800395Y-84890000D01*
X106786253Y-84875858D01*
X106965858Y-84696253D01*
X106980000Y-84710395D01*
X107960395Y-83730000D01*
X109577815Y-83730000D01*
X109606487Y-84021111D01*
X109691401Y-84301034D01*
X109829294Y-84559014D01*
X110014866Y-84785134D01*
X110240986Y-84970706D01*
X110498966Y-85108599D01*
X110778889Y-85193513D01*
X110997050Y-85215000D01*
X111142950Y-85215000D01*
X111361111Y-85193513D01*
X111641034Y-85108599D01*
X111899014Y-84970706D01*
X112125134Y-84785134D01*
X112310706Y-84559014D01*
X112340000Y-84504209D01*
X112369294Y-84559014D01*
X112554866Y-84785134D01*
X112780986Y-84970706D01*
X113038966Y-85108599D01*
X113318889Y-85193513D01*
X113537050Y-85215000D01*
X113682950Y-85215000D01*
X113901111Y-85193513D01*
X114181034Y-85108599D01*
X114439014Y-84970706D01*
X114665134Y-84785134D01*
X114850706Y-84559014D01*
X114880000Y-84504209D01*
X114909294Y-84559014D01*
X115094866Y-84785134D01*
X115320986Y-84970706D01*
X115578966Y-85108599D01*
X115858889Y-85193513D01*
X116077050Y-85215000D01*
X116222950Y-85215000D01*
X116441111Y-85193513D01*
X116721034Y-85108599D01*
X116979014Y-84970706D01*
X117205134Y-84785134D01*
X117390706Y-84559014D01*
X117420000Y-84504209D01*
X117449294Y-84559014D01*
X117634866Y-84785134D01*
X117860986Y-84970706D01*
X118118966Y-85108599D01*
X118398889Y-85193513D01*
X118617050Y-85215000D01*
X118762950Y-85215000D01*
X118981111Y-85193513D01*
X119261034Y-85108599D01*
X119519014Y-84970706D01*
X119745134Y-84785134D01*
X119930706Y-84559014D01*
X119960000Y-84504209D01*
X119989294Y-84559014D01*
X120174866Y-84785134D01*
X120400986Y-84970706D01*
X120658966Y-85108599D01*
X120938889Y-85193513D01*
X121157050Y-85215000D01*
X121302950Y-85215000D01*
X121521111Y-85193513D01*
X121801034Y-85108599D01*
X122059014Y-84970706D01*
X122285134Y-84785134D01*
X122470706Y-84559014D01*
X122500000Y-84504209D01*
X122529294Y-84559014D01*
X122714866Y-84785134D01*
X122940986Y-84970706D01*
X123198966Y-85108599D01*
X123478889Y-85193513D01*
X123697050Y-85215000D01*
X123842950Y-85215000D01*
X124061111Y-85193513D01*
X124341034Y-85108599D01*
X124599014Y-84970706D01*
X124825134Y-84785134D01*
X125010706Y-84559014D01*
X125040000Y-84504209D01*
X125069294Y-84559014D01*
X125254866Y-84785134D01*
X125480986Y-84970706D01*
X125738966Y-85108599D01*
X126018889Y-85193513D01*
X126237050Y-85215000D01*
X126382950Y-85215000D01*
X126601111Y-85193513D01*
X126881034Y-85108599D01*
X127139014Y-84970706D01*
X127365134Y-84785134D01*
X127389607Y-84755313D01*
X127410498Y-84824180D01*
X127469463Y-84934494D01*
X127548815Y-85031185D01*
X127645506Y-85110537D01*
X127755820Y-85169502D01*
X127875518Y-85205812D01*
X128000000Y-85218072D01*
X129700000Y-85218072D01*
X129824482Y-85205812D01*
X129944180Y-85169502D01*
X130054494Y-85110537D01*
X130151185Y-85031185D01*
X130230537Y-84934494D01*
X130289502Y-84824180D01*
X130325812Y-84704482D01*
X130338072Y-84580000D01*
X130338072Y-83760000D01*
X138661928Y-83760000D01*
X138674188Y-83884482D01*
X138710498Y-84004180D01*
X138769463Y-84114494D01*
X138848815Y-84211185D01*
X138945506Y-84290537D01*
X139055820Y-84349502D01*
X139175518Y-84385812D01*
X139300000Y-84398072D01*
X139864250Y-84395000D01*
X140023000Y-84236250D01*
X140023000Y-83037000D01*
X140277000Y-83037000D01*
X140277000Y-84236250D01*
X140435750Y-84395000D01*
X141000000Y-84398072D01*
X141124482Y-84385812D01*
X141244180Y-84349502D01*
X141354494Y-84290537D01*
X141451185Y-84211185D01*
X141530537Y-84114494D01*
X141589502Y-84004180D01*
X141625812Y-83884482D01*
X141638072Y-83760000D01*
X141635000Y-83195750D01*
X141476250Y-83037000D01*
X140277000Y-83037000D01*
X140023000Y-83037000D01*
X138823750Y-83037000D01*
X138665000Y-83195750D01*
X138661928Y-83760000D01*
X130338072Y-83760000D01*
X130338072Y-82880000D01*
X130325812Y-82755518D01*
X130289502Y-82635820D01*
X130230537Y-82525506D01*
X130151185Y-82428815D01*
X130054494Y-82349463D01*
X129944180Y-82290498D01*
X129824482Y-82254188D01*
X129700000Y-82241928D01*
X128000000Y-82241928D01*
X127875518Y-82254188D01*
X127755820Y-82290498D01*
X127645506Y-82349463D01*
X127548815Y-82428815D01*
X127469463Y-82525506D01*
X127410498Y-82635820D01*
X127389607Y-82704687D01*
X127365134Y-82674866D01*
X127139014Y-82489294D01*
X126881034Y-82351401D01*
X126601111Y-82266487D01*
X126382950Y-82245000D01*
X126237050Y-82245000D01*
X126018889Y-82266487D01*
X125738966Y-82351401D01*
X125480986Y-82489294D01*
X125254866Y-82674866D01*
X125069294Y-82900986D01*
X125040000Y-82955791D01*
X125010706Y-82900986D01*
X124825134Y-82674866D01*
X124599014Y-82489294D01*
X124341034Y-82351401D01*
X124061111Y-82266487D01*
X123842950Y-82245000D01*
X123697050Y-82245000D01*
X123478889Y-82266487D01*
X123198966Y-82351401D01*
X122940986Y-82489294D01*
X122714866Y-82674866D01*
X122529294Y-82900986D01*
X122500000Y-82955791D01*
X122470706Y-82900986D01*
X122285134Y-82674866D01*
X122059014Y-82489294D01*
X121801034Y-82351401D01*
X121521111Y-82266487D01*
X121302950Y-82245000D01*
X121157050Y-82245000D01*
X120938889Y-82266487D01*
X120658966Y-82351401D01*
X120400986Y-82489294D01*
X120174866Y-82674866D01*
X119989294Y-82900986D01*
X119960000Y-82955791D01*
X119930706Y-82900986D01*
X119745134Y-82674866D01*
X119519014Y-82489294D01*
X119261034Y-82351401D01*
X118981111Y-82266487D01*
X118762950Y-82245000D01*
X118617050Y-82245000D01*
X118398889Y-82266487D01*
X118118966Y-82351401D01*
X117860986Y-82489294D01*
X117634866Y-82674866D01*
X117449294Y-82900986D01*
X117420000Y-82955791D01*
X117390706Y-82900986D01*
X117205134Y-82674866D01*
X116979014Y-82489294D01*
X116721034Y-82351401D01*
X116441111Y-82266487D01*
X116222950Y-82245000D01*
X116077050Y-82245000D01*
X115858889Y-82266487D01*
X115578966Y-82351401D01*
X115320986Y-82489294D01*
X115094866Y-82674866D01*
X114909294Y-82900986D01*
X114880000Y-82955791D01*
X114850706Y-82900986D01*
X114665134Y-82674866D01*
X114439014Y-82489294D01*
X114181034Y-82351401D01*
X113901111Y-82266487D01*
X113682950Y-82245000D01*
X113537050Y-82245000D01*
X113318889Y-82266487D01*
X113038966Y-82351401D01*
X112780986Y-82489294D01*
X112554866Y-82674866D01*
X112369294Y-82900986D01*
X112340000Y-82955791D01*
X112310706Y-82900986D01*
X112125134Y-82674866D01*
X111899014Y-82489294D01*
X111641034Y-82351401D01*
X111361111Y-82266487D01*
X111142950Y-82245000D01*
X110997050Y-82245000D01*
X110778889Y-82266487D01*
X110498966Y-82351401D01*
X110240986Y-82489294D01*
X110014866Y-82674866D01*
X109829294Y-82900986D01*
X109691401Y-83158966D01*
X109606487Y-83438889D01*
X109577815Y-83730000D01*
X107960395Y-83730000D01*
X108114000Y-83576395D01*
X107988086Y-83286423D01*
X107655874Y-83120567D01*
X107297688Y-83022710D01*
X106927294Y-82996611D01*
X106558925Y-83043275D01*
X106206738Y-83160906D01*
X106126701Y-83203687D01*
X106252561Y-82899834D01*
X106325000Y-82535656D01*
X106325000Y-82164344D01*
X106304245Y-82060000D01*
X138661928Y-82060000D01*
X138665000Y-82624250D01*
X138823750Y-82783000D01*
X140023000Y-82783000D01*
X140023000Y-81583750D01*
X140277000Y-81583750D01*
X140277000Y-82783000D01*
X141476250Y-82783000D01*
X141635000Y-82624250D01*
X141638072Y-82060000D01*
X141625812Y-81935518D01*
X141589502Y-81815820D01*
X141530537Y-81705506D01*
X141451185Y-81608815D01*
X141354494Y-81529463D01*
X141244180Y-81470498D01*
X141124482Y-81434188D01*
X141000000Y-81421928D01*
X140435750Y-81425000D01*
X140277000Y-81583750D01*
X140023000Y-81583750D01*
X139864250Y-81425000D01*
X139300000Y-81421928D01*
X139175518Y-81434188D01*
X139055820Y-81470498D01*
X138945506Y-81529463D01*
X138848815Y-81608815D01*
X138769463Y-81705506D01*
X138710498Y-81815820D01*
X138674188Y-81935518D01*
X138661928Y-82060000D01*
X106304245Y-82060000D01*
X106252561Y-81800166D01*
X106123850Y-81489431D01*
X106304126Y-81579433D01*
X106662312Y-81677290D01*
X107032706Y-81703389D01*
X107401075Y-81656725D01*
X107753262Y-81539094D01*
X107988086Y-81413577D01*
X108114000Y-81123605D01*
X106980000Y-79989605D01*
X106965858Y-80003748D01*
X106786253Y-79824143D01*
X106800395Y-79810000D01*
X107159605Y-79810000D01*
X108293605Y-80944000D01*
X108583577Y-80818086D01*
X108749433Y-80485874D01*
X108847290Y-80127688D01*
X108873389Y-79757294D01*
X108826725Y-79388925D01*
X108805474Y-79325297D01*
X136910000Y-79325297D01*
X136910000Y-79494703D01*
X136943049Y-79660853D01*
X137007878Y-79817363D01*
X137101995Y-79958218D01*
X137221782Y-80078005D01*
X137362637Y-80172122D01*
X137519147Y-80236951D01*
X137685297Y-80270000D01*
X137854703Y-80270000D01*
X138020853Y-80236951D01*
X138177363Y-80172122D01*
X138318218Y-80078005D01*
X138438005Y-79958218D01*
X138532122Y-79817363D01*
X138596951Y-79660853D01*
X138630000Y-79494703D01*
X138630000Y-79325297D01*
X138596951Y-79159147D01*
X138532122Y-79002637D01*
X138438005Y-78861782D01*
X138318218Y-78741995D01*
X138177363Y-78647878D01*
X138020853Y-78583049D01*
X137854703Y-78550000D01*
X137685297Y-78550000D01*
X137519147Y-78583049D01*
X137362637Y-78647878D01*
X137221782Y-78741995D01*
X137101995Y-78861782D01*
X137007878Y-79002637D01*
X136943049Y-79159147D01*
X136910000Y-79325297D01*
X108805474Y-79325297D01*
X108709094Y-79036738D01*
X108583577Y-78801914D01*
X108293605Y-78676000D01*
X107159605Y-79810000D01*
X106800395Y-79810000D01*
X105666395Y-78676000D01*
X105376423Y-78801914D01*
X105210567Y-79134126D01*
X105112710Y-79492312D01*
X105086611Y-79862706D01*
X105133275Y-80231075D01*
X105250906Y-80583262D01*
X105293687Y-80663299D01*
X104989834Y-80537439D01*
X104625656Y-80465000D01*
X104254344Y-80465000D01*
X103890166Y-80537439D01*
X103579431Y-80666150D01*
X103669433Y-80485874D01*
X103767290Y-80127688D01*
X103793389Y-79757294D01*
X103746725Y-79388925D01*
X103629094Y-79036738D01*
X103503577Y-78801914D01*
X103213605Y-78676000D01*
X102079605Y-79810000D01*
X102093748Y-79824143D01*
X101914143Y-80003748D01*
X101900000Y-79989605D01*
X101885858Y-80003748D01*
X101706253Y-79824143D01*
X101720395Y-79810000D01*
X101706253Y-79795858D01*
X101885858Y-79616253D01*
X101900000Y-79630395D01*
X103034000Y-78496395D01*
X105846000Y-78496395D01*
X106980000Y-79630395D01*
X108114000Y-78496395D01*
X107988086Y-78206423D01*
X107655874Y-78040567D01*
X107297688Y-77942710D01*
X106927294Y-77916611D01*
X106558925Y-77963275D01*
X106206738Y-78080906D01*
X105971914Y-78206423D01*
X105846000Y-78496395D01*
X103034000Y-78496395D01*
X102908086Y-78206423D01*
X102575874Y-78040567D01*
X102217688Y-77942710D01*
X101847294Y-77916611D01*
X101478925Y-77963275D01*
X101126738Y-78080906D01*
X100891914Y-78206423D01*
X100766001Y-78496393D01*
X100660000Y-78390392D01*
X100660000Y-74595297D01*
X103260000Y-74595297D01*
X103260000Y-74764703D01*
X103293049Y-74930853D01*
X103357878Y-75087363D01*
X103451995Y-75228218D01*
X103571782Y-75348005D01*
X103712637Y-75442122D01*
X103869147Y-75506951D01*
X104035297Y-75540000D01*
X104204703Y-75540000D01*
X104240052Y-75532969D01*
X104121782Y-75611995D01*
X104001995Y-75731782D01*
X103907878Y-75872637D01*
X103843049Y-76029147D01*
X103810000Y-76195297D01*
X103810000Y-76364703D01*
X103843049Y-76530853D01*
X103907878Y-76687363D01*
X104001995Y-76828218D01*
X104121782Y-76948005D01*
X104262637Y-77042122D01*
X104419147Y-77106951D01*
X104585297Y-77140000D01*
X104754703Y-77140000D01*
X104920853Y-77106951D01*
X105077363Y-77042122D01*
X105218218Y-76948005D01*
X105270926Y-76895297D01*
X107310000Y-76895297D01*
X107310000Y-77064703D01*
X107343049Y-77230853D01*
X107407878Y-77387363D01*
X107501995Y-77528218D01*
X107621782Y-77648005D01*
X107762637Y-77742122D01*
X107919147Y-77806951D01*
X108085297Y-77840000D01*
X108254703Y-77840000D01*
X108420853Y-77806951D01*
X108577363Y-77742122D01*
X108718218Y-77648005D01*
X108838005Y-77528218D01*
X108926820Y-77395297D01*
X114380000Y-77395297D01*
X114380000Y-77564703D01*
X114413049Y-77730853D01*
X114477878Y-77887363D01*
X114571995Y-78028218D01*
X114691782Y-78148005D01*
X114832637Y-78242122D01*
X114989147Y-78306951D01*
X115155297Y-78340000D01*
X115324703Y-78340000D01*
X115490853Y-78306951D01*
X115647363Y-78242122D01*
X115788218Y-78148005D01*
X115908005Y-78028218D01*
X116002122Y-77887363D01*
X116066951Y-77730853D01*
X116100000Y-77564703D01*
X116100000Y-77415297D01*
X119710000Y-77415297D01*
X119710000Y-77584703D01*
X119743049Y-77750853D01*
X119807878Y-77907363D01*
X119901995Y-78048218D01*
X120021782Y-78168005D01*
X120162637Y-78262122D01*
X120319147Y-78326951D01*
X120485297Y-78360000D01*
X120654703Y-78360000D01*
X120820853Y-78326951D01*
X120977363Y-78262122D01*
X121118218Y-78168005D01*
X121238005Y-78048218D01*
X121332122Y-77907363D01*
X121351740Y-77860000D01*
X138661928Y-77860000D01*
X138661928Y-79560000D01*
X138674188Y-79684482D01*
X138710498Y-79804180D01*
X138769463Y-79914494D01*
X138848815Y-80011185D01*
X138945506Y-80090537D01*
X139055820Y-80149502D01*
X139175518Y-80185812D01*
X139300000Y-80198072D01*
X141000000Y-80198072D01*
X141124482Y-80185812D01*
X141244180Y-80149502D01*
X141354494Y-80090537D01*
X141451185Y-80011185D01*
X141530537Y-79914494D01*
X141589502Y-79804180D01*
X141625812Y-79684482D01*
X141638072Y-79560000D01*
X141638072Y-77860000D01*
X141625812Y-77735518D01*
X141589502Y-77615820D01*
X141530537Y-77505506D01*
X141451185Y-77408815D01*
X141354494Y-77329463D01*
X141244180Y-77270498D01*
X141124482Y-77234188D01*
X141000000Y-77221928D01*
X139300000Y-77221928D01*
X139175518Y-77234188D01*
X139055820Y-77270498D01*
X138945506Y-77329463D01*
X138848815Y-77408815D01*
X138769463Y-77505506D01*
X138710498Y-77615820D01*
X138674188Y-77735518D01*
X138661928Y-77860000D01*
X121351740Y-77860000D01*
X121396951Y-77750853D01*
X121430000Y-77584703D01*
X121430000Y-77415297D01*
X121396951Y-77249147D01*
X121332122Y-77092637D01*
X121238005Y-76951782D01*
X121118218Y-76831995D01*
X121108194Y-76825297D01*
X121580000Y-76825297D01*
X121580000Y-76994703D01*
X121613049Y-77160853D01*
X121677878Y-77317363D01*
X121771995Y-77458218D01*
X121891782Y-77578005D01*
X122032637Y-77672122D01*
X122189147Y-77736951D01*
X122355297Y-77770000D01*
X122524703Y-77770000D01*
X122690853Y-77736951D01*
X122847363Y-77672122D01*
X122988218Y-77578005D01*
X123108005Y-77458218D01*
X123202122Y-77317363D01*
X123266951Y-77160853D01*
X123276718Y-77111752D01*
X123300853Y-77106951D01*
X123457363Y-77042122D01*
X123598218Y-76948005D01*
X123718005Y-76828218D01*
X123812122Y-76687363D01*
X123876951Y-76530853D01*
X123910000Y-76364703D01*
X123910000Y-76195297D01*
X123876951Y-76029147D01*
X123812122Y-75872637D01*
X123718005Y-75731782D01*
X123598218Y-75611995D01*
X123457363Y-75517878D01*
X123402989Y-75495355D01*
X123507363Y-75452122D01*
X123648218Y-75358005D01*
X123768005Y-75238218D01*
X123862122Y-75097363D01*
X123926951Y-74940853D01*
X123960000Y-74774703D01*
X123960000Y-74605297D01*
X123926951Y-74439147D01*
X123862122Y-74282637D01*
X123768005Y-74141782D01*
X123648218Y-74021995D01*
X123507363Y-73927878D01*
X123350853Y-73863049D01*
X123184703Y-73830000D01*
X123015297Y-73830000D01*
X122849147Y-73863049D01*
X122692637Y-73927878D01*
X122551782Y-74021995D01*
X122431995Y-74141782D01*
X122337878Y-74282637D01*
X122273049Y-74439147D01*
X122240000Y-74605297D01*
X122240000Y-74774703D01*
X122273049Y-74940853D01*
X122337878Y-75097363D01*
X122431995Y-75238218D01*
X122551782Y-75358005D01*
X122692637Y-75452122D01*
X122747011Y-75474645D01*
X122642637Y-75517878D01*
X122501782Y-75611995D01*
X122381995Y-75731782D01*
X122287878Y-75872637D01*
X122223049Y-76029147D01*
X122213282Y-76078248D01*
X122189147Y-76083049D01*
X122032637Y-76147878D01*
X121891782Y-76241995D01*
X121771995Y-76361782D01*
X121677878Y-76502637D01*
X121613049Y-76659147D01*
X121580000Y-76825297D01*
X121108194Y-76825297D01*
X120977363Y-76737878D01*
X120820853Y-76673049D01*
X120654703Y-76640000D01*
X120485297Y-76640000D01*
X120319147Y-76673049D01*
X120162637Y-76737878D01*
X120021782Y-76831995D01*
X119901995Y-76951782D01*
X119807878Y-77092637D01*
X119743049Y-77249147D01*
X119710000Y-77415297D01*
X116100000Y-77415297D01*
X116100000Y-77395297D01*
X116066951Y-77229147D01*
X116002122Y-77072637D01*
X115908005Y-76931782D01*
X115788218Y-76811995D01*
X115647363Y-76717878D01*
X115490853Y-76653049D01*
X115324703Y-76620000D01*
X115155297Y-76620000D01*
X114989147Y-76653049D01*
X114832637Y-76717878D01*
X114691782Y-76811995D01*
X114571995Y-76931782D01*
X114477878Y-77072637D01*
X114413049Y-77229147D01*
X114380000Y-77395297D01*
X108926820Y-77395297D01*
X108932122Y-77387363D01*
X108996951Y-77230853D01*
X109030000Y-77064703D01*
X109030000Y-76895297D01*
X108996951Y-76729147D01*
X108932122Y-76572637D01*
X108838005Y-76431782D01*
X108718218Y-76311995D01*
X108577363Y-76217878D01*
X108420853Y-76153049D01*
X108254703Y-76120000D01*
X108085297Y-76120000D01*
X107919147Y-76153049D01*
X107762637Y-76217878D01*
X107621782Y-76311995D01*
X107501995Y-76431782D01*
X107407878Y-76572637D01*
X107343049Y-76729147D01*
X107310000Y-76895297D01*
X105270926Y-76895297D01*
X105338005Y-76828218D01*
X105432122Y-76687363D01*
X105496951Y-76530853D01*
X105530000Y-76364703D01*
X105530000Y-76195297D01*
X105496951Y-76029147D01*
X105432122Y-75872637D01*
X105338005Y-75731782D01*
X105218218Y-75611995D01*
X105077363Y-75517878D01*
X104920853Y-75453049D01*
X104754703Y-75420000D01*
X104585297Y-75420000D01*
X104549948Y-75427031D01*
X104668218Y-75348005D01*
X104788005Y-75228218D01*
X104882122Y-75087363D01*
X104899546Y-75045297D01*
X106040000Y-75045297D01*
X106040000Y-75214703D01*
X106073049Y-75380853D01*
X106137878Y-75537363D01*
X106231995Y-75678218D01*
X106351782Y-75798005D01*
X106492637Y-75892122D01*
X106649147Y-75956951D01*
X106815297Y-75990000D01*
X106984703Y-75990000D01*
X107150853Y-75956951D01*
X107307363Y-75892122D01*
X107448218Y-75798005D01*
X107568005Y-75678218D01*
X107662122Y-75537363D01*
X107726951Y-75380853D01*
X107760000Y-75214703D01*
X107760000Y-75045297D01*
X107726951Y-74879147D01*
X107662122Y-74722637D01*
X107568005Y-74581782D01*
X107448218Y-74461995D01*
X107307363Y-74367878D01*
X107150853Y-74303049D01*
X106984703Y-74270000D01*
X106815297Y-74270000D01*
X106649147Y-74303049D01*
X106492637Y-74367878D01*
X106351782Y-74461995D01*
X106231995Y-74581782D01*
X106137878Y-74722637D01*
X106073049Y-74879147D01*
X106040000Y-75045297D01*
X104899546Y-75045297D01*
X104946951Y-74930853D01*
X104980000Y-74764703D01*
X104980000Y-74595297D01*
X104946951Y-74429147D01*
X104882122Y-74272637D01*
X104788005Y-74131782D01*
X104668218Y-74011995D01*
X104527363Y-73917878D01*
X104370853Y-73853049D01*
X104204703Y-73820000D01*
X104035297Y-73820000D01*
X103869147Y-73853049D01*
X103712637Y-73917878D01*
X103571782Y-74011995D01*
X103451995Y-74131782D01*
X103357878Y-74272637D01*
X103293049Y-74429147D01*
X103260000Y-74595297D01*
X100660000Y-74595297D01*
X100660000Y-73005297D01*
X108550000Y-73005297D01*
X108550000Y-73174703D01*
X108583049Y-73340853D01*
X108647878Y-73497363D01*
X108741995Y-73638218D01*
X108861782Y-73758005D01*
X109002637Y-73852122D01*
X109159147Y-73916951D01*
X109325297Y-73950000D01*
X109494703Y-73950000D01*
X109660853Y-73916951D01*
X109817363Y-73852122D01*
X109958218Y-73758005D01*
X110078005Y-73638218D01*
X110172122Y-73497363D01*
X110236951Y-73340853D01*
X110270000Y-73174703D01*
X110270000Y-73005297D01*
X110266022Y-72985297D01*
X117100000Y-72985297D01*
X117100000Y-73154703D01*
X117133049Y-73320853D01*
X117197878Y-73477363D01*
X117291995Y-73618218D01*
X117411782Y-73738005D01*
X117552637Y-73832122D01*
X117709147Y-73896951D01*
X117875297Y-73930000D01*
X118044703Y-73930000D01*
X118210853Y-73896951D01*
X118367363Y-73832122D01*
X118508218Y-73738005D01*
X118628005Y-73618218D01*
X118722122Y-73477363D01*
X118786951Y-73320853D01*
X118820000Y-73154703D01*
X118820000Y-73013456D01*
X118949147Y-73066951D01*
X119115297Y-73100000D01*
X119284703Y-73100000D01*
X119450853Y-73066951D01*
X119607363Y-73002122D01*
X119617577Y-72995297D01*
X120760000Y-72995297D01*
X120760000Y-73164703D01*
X120793049Y-73330853D01*
X120857878Y-73487363D01*
X120951995Y-73628218D01*
X121071782Y-73748005D01*
X121212637Y-73842122D01*
X121369147Y-73906951D01*
X121535297Y-73940000D01*
X121704703Y-73940000D01*
X121870853Y-73906951D01*
X122027363Y-73842122D01*
X122168218Y-73748005D01*
X122288005Y-73628218D01*
X122382122Y-73487363D01*
X122446951Y-73330853D01*
X122480000Y-73164703D01*
X122480000Y-73005297D01*
X124850000Y-73005297D01*
X124850000Y-73174703D01*
X124883049Y-73340853D01*
X124947878Y-73497363D01*
X125041995Y-73638218D01*
X125161782Y-73758005D01*
X125302637Y-73852122D01*
X125459147Y-73916951D01*
X125625297Y-73950000D01*
X125794703Y-73950000D01*
X125960853Y-73916951D01*
X126117363Y-73852122D01*
X126187441Y-73805297D01*
X126450000Y-73805297D01*
X126450000Y-73974703D01*
X126483049Y-74140853D01*
X126547878Y-74297363D01*
X126641995Y-74438218D01*
X126761782Y-74558005D01*
X126902637Y-74652122D01*
X126994082Y-74690000D01*
X126902637Y-74727878D01*
X126761782Y-74821995D01*
X126641995Y-74941782D01*
X126547878Y-75082637D01*
X126483049Y-75239147D01*
X126450000Y-75405297D01*
X126450000Y-75574703D01*
X126483049Y-75740853D01*
X126547878Y-75897363D01*
X126641995Y-76038218D01*
X126761782Y-76158005D01*
X126902637Y-76252122D01*
X127059147Y-76316951D01*
X127225297Y-76350000D01*
X127394703Y-76350000D01*
X127560853Y-76316951D01*
X127710000Y-76255172D01*
X127859147Y-76316951D01*
X128025297Y-76350000D01*
X128194703Y-76350000D01*
X128360853Y-76316951D01*
X128517363Y-76252122D01*
X128658218Y-76158005D01*
X128778005Y-76038218D01*
X128872122Y-75897363D01*
X128910000Y-75805918D01*
X128947878Y-75897363D01*
X129041995Y-76038218D01*
X129161782Y-76158005D01*
X129302637Y-76252122D01*
X129459147Y-76316951D01*
X129625297Y-76350000D01*
X129794703Y-76350000D01*
X129960853Y-76316951D01*
X130117363Y-76252122D01*
X130258218Y-76158005D01*
X130378005Y-76038218D01*
X130472122Y-75897363D01*
X130536951Y-75740853D01*
X130570000Y-75574703D01*
X130570000Y-75550000D01*
X130594703Y-75550000D01*
X130760853Y-75516951D01*
X130917363Y-75452122D01*
X130951080Y-75429593D01*
X130940000Y-75485297D01*
X130940000Y-75654703D01*
X130973049Y-75820853D01*
X131037878Y-75977363D01*
X131131995Y-76118218D01*
X131251782Y-76238005D01*
X131392637Y-76332122D01*
X131549147Y-76396951D01*
X131715297Y-76430000D01*
X131884703Y-76430000D01*
X132050853Y-76396951D01*
X132202496Y-76334138D01*
X132251995Y-76408218D01*
X132371782Y-76528005D01*
X132512637Y-76622122D01*
X132669147Y-76686951D01*
X132835297Y-76720000D01*
X133004703Y-76720000D01*
X133170853Y-76686951D01*
X133327363Y-76622122D01*
X133468218Y-76528005D01*
X133588005Y-76408218D01*
X133682122Y-76267363D01*
X133746951Y-76110853D01*
X133780000Y-75944703D01*
X133780000Y-75775297D01*
X133746951Y-75609147D01*
X133682122Y-75452637D01*
X133588005Y-75311782D01*
X133468218Y-75191995D01*
X133327363Y-75097878D01*
X133170853Y-75033049D01*
X133004703Y-75000000D01*
X132835297Y-75000000D01*
X132669147Y-75033049D01*
X132517504Y-75095862D01*
X132468005Y-75021782D01*
X132348218Y-74901995D01*
X132207363Y-74807878D01*
X132050853Y-74743049D01*
X131884703Y-74710000D01*
X131715297Y-74710000D01*
X131549147Y-74743049D01*
X131392637Y-74807878D01*
X131358920Y-74830407D01*
X131370000Y-74774703D01*
X131370000Y-74605297D01*
X131336951Y-74439147D01*
X131272122Y-74282637D01*
X131178005Y-74141782D01*
X131058218Y-74021995D01*
X130917363Y-73927878D01*
X130760853Y-73863049D01*
X130594703Y-73830000D01*
X130425297Y-73830000D01*
X130259147Y-73863049D01*
X130102637Y-73927878D01*
X129961782Y-74021995D01*
X129841995Y-74141782D01*
X129747878Y-74282637D01*
X129683049Y-74439147D01*
X129650000Y-74605297D01*
X129650000Y-74630000D01*
X129625297Y-74630000D01*
X129459147Y-74663049D01*
X129302637Y-74727878D01*
X129161782Y-74821995D01*
X129041995Y-74941782D01*
X128947878Y-75082637D01*
X128910000Y-75174082D01*
X128872122Y-75082637D01*
X128778005Y-74941782D01*
X128658218Y-74821995D01*
X128517363Y-74727878D01*
X128360853Y-74663049D01*
X128194703Y-74630000D01*
X128025297Y-74630000D01*
X127859147Y-74663049D01*
X127710000Y-74724828D01*
X127625918Y-74690000D01*
X127717363Y-74652122D01*
X127858218Y-74558005D01*
X127978005Y-74438218D01*
X128072122Y-74297363D01*
X128136951Y-74140853D01*
X128170000Y-73974703D01*
X128170000Y-73805297D01*
X128136951Y-73639147D01*
X128072122Y-73482637D01*
X127978005Y-73341782D01*
X127858218Y-73221995D01*
X127717363Y-73127878D01*
X127560853Y-73063049D01*
X127394703Y-73030000D01*
X127225297Y-73030000D01*
X127059147Y-73063049D01*
X126902637Y-73127878D01*
X126761782Y-73221995D01*
X126641995Y-73341782D01*
X126547878Y-73482637D01*
X126483049Y-73639147D01*
X126450000Y-73805297D01*
X126187441Y-73805297D01*
X126258218Y-73758005D01*
X126378005Y-73638218D01*
X126472122Y-73497363D01*
X126536951Y-73340853D01*
X126570000Y-73174703D01*
X126570000Y-73005297D01*
X126536951Y-72839147D01*
X126477157Y-72694793D01*
X126482122Y-72687363D01*
X126546951Y-72530853D01*
X126580000Y-72364703D01*
X126580000Y-72350000D01*
X126594703Y-72350000D01*
X126760853Y-72316951D01*
X126917363Y-72252122D01*
X126924793Y-72247157D01*
X127069147Y-72306951D01*
X127235297Y-72340000D01*
X127404703Y-72340000D01*
X127570853Y-72306951D01*
X127727363Y-72242122D01*
X127767509Y-72215297D01*
X128850000Y-72215297D01*
X128850000Y-72384703D01*
X128883049Y-72550853D01*
X128947878Y-72707363D01*
X129041995Y-72848218D01*
X129161782Y-72968005D01*
X129302637Y-73062122D01*
X129459147Y-73126951D01*
X129625297Y-73160000D01*
X129794703Y-73160000D01*
X129960853Y-73126951D01*
X130117363Y-73062122D01*
X130202406Y-73005297D01*
X134870000Y-73005297D01*
X134870000Y-73174703D01*
X134903049Y-73340853D01*
X134967878Y-73497363D01*
X135061995Y-73638218D01*
X135181782Y-73758005D01*
X135322637Y-73852122D01*
X135479147Y-73916951D01*
X135645297Y-73950000D01*
X135814703Y-73950000D01*
X135980853Y-73916951D01*
X136137363Y-73852122D01*
X136278218Y-73758005D01*
X136398005Y-73638218D01*
X136492122Y-73497363D01*
X136556951Y-73340853D01*
X136590000Y-73174703D01*
X136590000Y-73005297D01*
X136556951Y-72839147D01*
X136492122Y-72682637D01*
X136480692Y-72665531D01*
X136578005Y-72568218D01*
X136672122Y-72427363D01*
X136736951Y-72270853D01*
X136770000Y-72104703D01*
X136770000Y-71935297D01*
X136736951Y-71769147D01*
X136729020Y-71750000D01*
X138741928Y-71750000D01*
X138741928Y-73450000D01*
X138754188Y-73574482D01*
X138790498Y-73694180D01*
X138849463Y-73804494D01*
X138928815Y-73901185D01*
X139025506Y-73980537D01*
X139135820Y-74039502D01*
X139255518Y-74075812D01*
X139380000Y-74088072D01*
X141080000Y-74088072D01*
X141204482Y-74075812D01*
X141324180Y-74039502D01*
X141434494Y-73980537D01*
X141531185Y-73901185D01*
X141610537Y-73804494D01*
X141669502Y-73694180D01*
X141705812Y-73574482D01*
X141718072Y-73450000D01*
X141718072Y-71750000D01*
X141705812Y-71625518D01*
X141669502Y-71505820D01*
X141610537Y-71395506D01*
X141531185Y-71298815D01*
X141434494Y-71219463D01*
X141324180Y-71160498D01*
X141204482Y-71124188D01*
X141080000Y-71111928D01*
X139380000Y-71111928D01*
X139255518Y-71124188D01*
X139135820Y-71160498D01*
X139025506Y-71219463D01*
X138928815Y-71298815D01*
X138849463Y-71395506D01*
X138790498Y-71505820D01*
X138754188Y-71625518D01*
X138741928Y-71750000D01*
X136729020Y-71750000D01*
X136672122Y-71612637D01*
X136578005Y-71471782D01*
X136458218Y-71351995D01*
X136317363Y-71257878D01*
X136160853Y-71193049D01*
X135994703Y-71160000D01*
X135825297Y-71160000D01*
X135659147Y-71193049D01*
X135502637Y-71257878D01*
X135361782Y-71351995D01*
X135241995Y-71471782D01*
X135147878Y-71612637D01*
X135083049Y-71769147D01*
X135050000Y-71935297D01*
X135050000Y-72104703D01*
X135083049Y-72270853D01*
X135147878Y-72427363D01*
X135159308Y-72444469D01*
X135061995Y-72541782D01*
X134967878Y-72682637D01*
X134903049Y-72839147D01*
X134870000Y-73005297D01*
X130202406Y-73005297D01*
X130258218Y-72968005D01*
X130378005Y-72848218D01*
X130472122Y-72707363D01*
X130536951Y-72550853D01*
X130570000Y-72384703D01*
X130570000Y-72215297D01*
X130536951Y-72049147D01*
X130472122Y-71892637D01*
X130378005Y-71751782D01*
X130258218Y-71631995D01*
X130117363Y-71537878D01*
X129960853Y-71473049D01*
X129794703Y-71440000D01*
X129625297Y-71440000D01*
X129459147Y-71473049D01*
X129302637Y-71537878D01*
X129161782Y-71631995D01*
X129041995Y-71751782D01*
X128947878Y-71892637D01*
X128883049Y-72049147D01*
X128850000Y-72215297D01*
X127767509Y-72215297D01*
X127868218Y-72148005D01*
X127988005Y-72028218D01*
X128082122Y-71887363D01*
X128146951Y-71730853D01*
X128180000Y-71564703D01*
X128180000Y-71395297D01*
X128146951Y-71229147D01*
X128082122Y-71072637D01*
X127988005Y-70931782D01*
X127868218Y-70811995D01*
X127727363Y-70717878D01*
X127642989Y-70682929D01*
X127717363Y-70652122D01*
X127858218Y-70558005D01*
X127978005Y-70438218D01*
X128072122Y-70297363D01*
X128136951Y-70140853D01*
X128170000Y-69974703D01*
X128170000Y-69805297D01*
X128136951Y-69639147D01*
X128072122Y-69482637D01*
X127978005Y-69341782D01*
X127858218Y-69221995D01*
X127717363Y-69127878D01*
X127560853Y-69063049D01*
X127394703Y-69030000D01*
X127225297Y-69030000D01*
X127059147Y-69063049D01*
X126902637Y-69127878D01*
X126761782Y-69221995D01*
X126641995Y-69341782D01*
X126547878Y-69482637D01*
X126483049Y-69639147D01*
X126450000Y-69805297D01*
X126450000Y-69974703D01*
X126483049Y-70140853D01*
X126547878Y-70297363D01*
X126641995Y-70438218D01*
X126761782Y-70558005D01*
X126902637Y-70652122D01*
X126987011Y-70687071D01*
X126912637Y-70717878D01*
X126905207Y-70722843D01*
X126760853Y-70663049D01*
X126594703Y-70630000D01*
X126425297Y-70630000D01*
X126259147Y-70663049D01*
X126102637Y-70727878D01*
X125961782Y-70821995D01*
X125841995Y-70941782D01*
X125747878Y-71082637D01*
X125683049Y-71239147D01*
X125650000Y-71405297D01*
X125650000Y-71420000D01*
X125635297Y-71420000D01*
X125469147Y-71453049D01*
X125312637Y-71517878D01*
X125171782Y-71611995D01*
X125051995Y-71731782D01*
X124957878Y-71872637D01*
X124893049Y-72029147D01*
X124860000Y-72195297D01*
X124860000Y-72364703D01*
X124893049Y-72530853D01*
X124952843Y-72675207D01*
X124947878Y-72682637D01*
X124883049Y-72839147D01*
X124850000Y-73005297D01*
X122480000Y-73005297D01*
X122480000Y-72995297D01*
X122446951Y-72829147D01*
X122382122Y-72672637D01*
X122288005Y-72531782D01*
X122168218Y-72411995D01*
X122027363Y-72317878D01*
X121870853Y-72253049D01*
X121704703Y-72220000D01*
X121535297Y-72220000D01*
X121369147Y-72253049D01*
X121212637Y-72317878D01*
X121071782Y-72411995D01*
X120951995Y-72531782D01*
X120857878Y-72672637D01*
X120793049Y-72829147D01*
X120760000Y-72995297D01*
X119617577Y-72995297D01*
X119748218Y-72908005D01*
X119868005Y-72788218D01*
X119962122Y-72647363D01*
X120026951Y-72490853D01*
X120060000Y-72324703D01*
X120060000Y-72155297D01*
X120026951Y-71989147D01*
X119962122Y-71832637D01*
X119868005Y-71691782D01*
X119748218Y-71571995D01*
X119607363Y-71477878D01*
X119450853Y-71413049D01*
X119284703Y-71380000D01*
X119115297Y-71380000D01*
X118949147Y-71413049D01*
X118792637Y-71477878D01*
X118651782Y-71571995D01*
X118531995Y-71691782D01*
X118437878Y-71832637D01*
X118373049Y-71989147D01*
X118340000Y-72155297D01*
X118340000Y-72296544D01*
X118210853Y-72243049D01*
X118044703Y-72210000D01*
X117875297Y-72210000D01*
X117709147Y-72243049D01*
X117552637Y-72307878D01*
X117411782Y-72401995D01*
X117291995Y-72521782D01*
X117197878Y-72662637D01*
X117133049Y-72819147D01*
X117100000Y-72985297D01*
X110266022Y-72985297D01*
X110236951Y-72839147D01*
X110172122Y-72682637D01*
X110078005Y-72541782D01*
X109958218Y-72421995D01*
X109817363Y-72327878D01*
X109660853Y-72263049D01*
X109494703Y-72230000D01*
X109325297Y-72230000D01*
X109159147Y-72263049D01*
X109002637Y-72327878D01*
X108861782Y-72421995D01*
X108741995Y-72541782D01*
X108647878Y-72682637D01*
X108583049Y-72839147D01*
X108550000Y-73005297D01*
X100660000Y-73005297D01*
X100660000Y-71855297D01*
X110550000Y-71855297D01*
X110550000Y-72024703D01*
X110583049Y-72190853D01*
X110647878Y-72347363D01*
X110741995Y-72488218D01*
X110861782Y-72608005D01*
X111002637Y-72702122D01*
X111159147Y-72766951D01*
X111325297Y-72800000D01*
X111494703Y-72800000D01*
X111660853Y-72766951D01*
X111817363Y-72702122D01*
X111958218Y-72608005D01*
X112078005Y-72488218D01*
X112172122Y-72347363D01*
X112236951Y-72190853D01*
X112270000Y-72024703D01*
X112270000Y-71855297D01*
X112236951Y-71689147D01*
X112172122Y-71532637D01*
X112078005Y-71391782D01*
X111958218Y-71271995D01*
X111817363Y-71177878D01*
X111660853Y-71113049D01*
X111494703Y-71080000D01*
X111325297Y-71080000D01*
X111159147Y-71113049D01*
X111002637Y-71177878D01*
X110861782Y-71271995D01*
X110741995Y-71391782D01*
X110647878Y-71532637D01*
X110583049Y-71689147D01*
X110550000Y-71855297D01*
X100660000Y-71855297D01*
X100660000Y-70235297D01*
X108730000Y-70235297D01*
X108730000Y-70404703D01*
X108763049Y-70570853D01*
X108827878Y-70727363D01*
X108921995Y-70868218D01*
X109041782Y-70988005D01*
X109182637Y-71082122D01*
X109339147Y-71146951D01*
X109505297Y-71180000D01*
X109674703Y-71180000D01*
X109840853Y-71146951D01*
X109997363Y-71082122D01*
X110138218Y-70988005D01*
X110258005Y-70868218D01*
X110352122Y-70727363D01*
X110416951Y-70570853D01*
X110450000Y-70404703D01*
X110450000Y-70235297D01*
X110416951Y-70069147D01*
X110352122Y-69912637D01*
X110258005Y-69771782D01*
X110138218Y-69651995D01*
X109997363Y-69557878D01*
X109840853Y-69493049D01*
X109674703Y-69460000D01*
X109505297Y-69460000D01*
X109339147Y-69493049D01*
X109182637Y-69557878D01*
X109041782Y-69651995D01*
X108921995Y-69771782D01*
X108827878Y-69912637D01*
X108763049Y-70069147D01*
X108730000Y-70235297D01*
X100660000Y-70235297D01*
X100660000Y-67935297D01*
X105980000Y-67935297D01*
X105980000Y-68104703D01*
X106013049Y-68270853D01*
X106077878Y-68427363D01*
X106171995Y-68568218D01*
X106291782Y-68688005D01*
X106432637Y-68782122D01*
X106589147Y-68846951D01*
X106755297Y-68880000D01*
X106924703Y-68880000D01*
X107090853Y-68846951D01*
X107247363Y-68782122D01*
X107388218Y-68688005D01*
X107508005Y-68568218D01*
X107602122Y-68427363D01*
X107666951Y-68270853D01*
X107700000Y-68104703D01*
X107700000Y-67935297D01*
X107666951Y-67769147D01*
X107623935Y-67665297D01*
X116420000Y-67665297D01*
X116420000Y-67834703D01*
X116453049Y-68000853D01*
X116517878Y-68157363D01*
X116611995Y-68298218D01*
X116731782Y-68418005D01*
X116872637Y-68512122D01*
X117029147Y-68576951D01*
X117195297Y-68610000D01*
X117364703Y-68610000D01*
X117530853Y-68576951D01*
X117687363Y-68512122D01*
X117828218Y-68418005D01*
X117948005Y-68298218D01*
X118042122Y-68157363D01*
X118106951Y-68000853D01*
X118140000Y-67834703D01*
X118140000Y-67665297D01*
X124450000Y-67665297D01*
X124450000Y-67834703D01*
X124483049Y-68000853D01*
X124547878Y-68157363D01*
X124641995Y-68298218D01*
X124761782Y-68418005D01*
X124902637Y-68512122D01*
X125059147Y-68576951D01*
X125225297Y-68610000D01*
X125394703Y-68610000D01*
X125560853Y-68576951D01*
X125717363Y-68512122D01*
X125727577Y-68505297D01*
X129650000Y-68505297D01*
X129650000Y-68674703D01*
X129683049Y-68840853D01*
X129747878Y-68997363D01*
X129841995Y-69138218D01*
X129961782Y-69258005D01*
X130102637Y-69352122D01*
X130259147Y-69416951D01*
X130425297Y-69450000D01*
X130594703Y-69450000D01*
X130760853Y-69416951D01*
X130917363Y-69352122D01*
X131058218Y-69258005D01*
X131178005Y-69138218D01*
X131272122Y-68997363D01*
X131336951Y-68840853D01*
X131370000Y-68674703D01*
X131370000Y-68505297D01*
X131336951Y-68339147D01*
X131289793Y-68225297D01*
X133840000Y-68225297D01*
X133840000Y-68394703D01*
X133873049Y-68560853D01*
X133937878Y-68717363D01*
X134031995Y-68858218D01*
X134151782Y-68978005D01*
X134292637Y-69072122D01*
X134449147Y-69136951D01*
X134615297Y-69170000D01*
X134784703Y-69170000D01*
X134950853Y-69136951D01*
X135107363Y-69072122D01*
X135179240Y-69024095D01*
X135181995Y-69028218D01*
X135301782Y-69148005D01*
X135442637Y-69242122D01*
X135599147Y-69306951D01*
X135765297Y-69340000D01*
X135934703Y-69340000D01*
X136100853Y-69306951D01*
X136257363Y-69242122D01*
X136398218Y-69148005D01*
X136518005Y-69028218D01*
X136612122Y-68887363D01*
X136676951Y-68730853D01*
X136710000Y-68564703D01*
X136710000Y-68395297D01*
X136676951Y-68229147D01*
X136612122Y-68072637D01*
X136518005Y-67931782D01*
X136398218Y-67811995D01*
X136257363Y-67717878D01*
X136100853Y-67653049D01*
X135934703Y-67620000D01*
X135765297Y-67620000D01*
X135599147Y-67653049D01*
X135442637Y-67717878D01*
X135370760Y-67765905D01*
X135368005Y-67761782D01*
X135248218Y-67641995D01*
X135185369Y-67600000D01*
X138711928Y-67600000D01*
X138711928Y-69300000D01*
X138724188Y-69424482D01*
X138760498Y-69544180D01*
X138819463Y-69654494D01*
X138898815Y-69751185D01*
X138995506Y-69830537D01*
X139105820Y-69889502D01*
X139225518Y-69925812D01*
X139350000Y-69938072D01*
X141050000Y-69938072D01*
X141174482Y-69925812D01*
X141294180Y-69889502D01*
X141404494Y-69830537D01*
X141501185Y-69751185D01*
X141580537Y-69654494D01*
X141639502Y-69544180D01*
X141675812Y-69424482D01*
X141688072Y-69300000D01*
X141688072Y-67600000D01*
X141675812Y-67475518D01*
X141639502Y-67355820D01*
X141580537Y-67245506D01*
X141501185Y-67148815D01*
X141404494Y-67069463D01*
X141294180Y-67010498D01*
X141174482Y-66974188D01*
X141050000Y-66961928D01*
X139350000Y-66961928D01*
X139225518Y-66974188D01*
X139105820Y-67010498D01*
X138995506Y-67069463D01*
X138898815Y-67148815D01*
X138819463Y-67245506D01*
X138760498Y-67355820D01*
X138724188Y-67475518D01*
X138711928Y-67600000D01*
X135185369Y-67600000D01*
X135107363Y-67547878D01*
X134950853Y-67483049D01*
X134784703Y-67450000D01*
X134615297Y-67450000D01*
X134449147Y-67483049D01*
X134292637Y-67547878D01*
X134151782Y-67641995D01*
X134031995Y-67761782D01*
X133937878Y-67902637D01*
X133873049Y-68059147D01*
X133840000Y-68225297D01*
X131289793Y-68225297D01*
X131272122Y-68182637D01*
X131178005Y-68041782D01*
X131058218Y-67921995D01*
X130917363Y-67827878D01*
X130760853Y-67763049D01*
X130594703Y-67730000D01*
X130425297Y-67730000D01*
X130259147Y-67763049D01*
X130102637Y-67827878D01*
X129961782Y-67921995D01*
X129841995Y-68041782D01*
X129747878Y-68182637D01*
X129683049Y-68339147D01*
X129650000Y-68505297D01*
X125727577Y-68505297D01*
X125858218Y-68418005D01*
X125978005Y-68298218D01*
X126072122Y-68157363D01*
X126136951Y-68000853D01*
X126170000Y-67834703D01*
X126170000Y-67665297D01*
X126153683Y-67583266D01*
X126259147Y-67626951D01*
X126425297Y-67660000D01*
X126594703Y-67660000D01*
X126760853Y-67626951D01*
X126917363Y-67562122D01*
X127058218Y-67468005D01*
X127178005Y-67348218D01*
X127272122Y-67207363D01*
X127336951Y-67050853D01*
X127370000Y-66884703D01*
X127370000Y-66715297D01*
X127336951Y-66549147D01*
X127272122Y-66392637D01*
X127178005Y-66251782D01*
X127058218Y-66131995D01*
X126917363Y-66037878D01*
X126760853Y-65973049D01*
X126594703Y-65940000D01*
X126425297Y-65940000D01*
X126259147Y-65973049D01*
X126102637Y-66037878D01*
X125961782Y-66131995D01*
X125841995Y-66251782D01*
X125747878Y-66392637D01*
X125683049Y-66549147D01*
X125650000Y-66715297D01*
X125650000Y-66884703D01*
X125666317Y-66966734D01*
X125560853Y-66923049D01*
X125394703Y-66890000D01*
X125225297Y-66890000D01*
X125059147Y-66923049D01*
X124902637Y-66987878D01*
X124761782Y-67081995D01*
X124641995Y-67201782D01*
X124547878Y-67342637D01*
X124483049Y-67499147D01*
X124450000Y-67665297D01*
X118140000Y-67665297D01*
X118106951Y-67499147D01*
X118042122Y-67342637D01*
X117948005Y-67201782D01*
X117828218Y-67081995D01*
X117687363Y-66987878D01*
X117530853Y-66923049D01*
X117364703Y-66890000D01*
X117195297Y-66890000D01*
X117029147Y-66923049D01*
X116872637Y-66987878D01*
X116731782Y-67081995D01*
X116611995Y-67201782D01*
X116517878Y-67342637D01*
X116453049Y-67499147D01*
X116420000Y-67665297D01*
X107623935Y-67665297D01*
X107602122Y-67612637D01*
X107508005Y-67471782D01*
X107388218Y-67351995D01*
X107247363Y-67257878D01*
X107090853Y-67193049D01*
X106924703Y-67160000D01*
X106755297Y-67160000D01*
X106589147Y-67193049D01*
X106432637Y-67257878D01*
X106291782Y-67351995D01*
X106171995Y-67471782D01*
X106077878Y-67612637D01*
X106013049Y-67769147D01*
X105980000Y-67935297D01*
X100660000Y-67935297D01*
X100660000Y-66665297D01*
X119700000Y-66665297D01*
X119700000Y-66834703D01*
X119733049Y-67000853D01*
X119797878Y-67157363D01*
X119891995Y-67298218D01*
X120011782Y-67418005D01*
X120152637Y-67512122D01*
X120309147Y-67576951D01*
X120475297Y-67610000D01*
X120644703Y-67610000D01*
X120810853Y-67576951D01*
X120967363Y-67512122D01*
X121108218Y-67418005D01*
X121228005Y-67298218D01*
X121322122Y-67157363D01*
X121386951Y-67000853D01*
X121420000Y-66834703D01*
X121420000Y-66665297D01*
X121386951Y-66499147D01*
X121322122Y-66342637D01*
X121228005Y-66201782D01*
X121108218Y-66081995D01*
X120967363Y-65987878D01*
X120810853Y-65923049D01*
X120644703Y-65890000D01*
X120475297Y-65890000D01*
X120309147Y-65923049D01*
X120152637Y-65987878D01*
X120011782Y-66081995D01*
X119891995Y-66201782D01*
X119797878Y-66342637D01*
X119733049Y-66499147D01*
X119700000Y-66665297D01*
X100660000Y-66665297D01*
X100660000Y-65095297D01*
X109510000Y-65095297D01*
X109510000Y-65264703D01*
X109543049Y-65430853D01*
X109607878Y-65587363D01*
X109701995Y-65728218D01*
X109821782Y-65848005D01*
X109962637Y-65942122D01*
X110110693Y-66003449D01*
X110157878Y-66117363D01*
X110251995Y-66258218D01*
X110371782Y-66378005D01*
X110512637Y-66472122D01*
X110669147Y-66536951D01*
X110835297Y-66570000D01*
X111004703Y-66570000D01*
X111170853Y-66536951D01*
X111327363Y-66472122D01*
X111468218Y-66378005D01*
X111588005Y-66258218D01*
X111682122Y-66117363D01*
X111712590Y-66043807D01*
X111837363Y-65992124D01*
X111978218Y-65898007D01*
X112098005Y-65778220D01*
X112192122Y-65637365D01*
X112256951Y-65480855D01*
X112290000Y-65314705D01*
X112290000Y-65145299D01*
X112256951Y-64979149D01*
X112192122Y-64822639D01*
X112098005Y-64681784D01*
X111978218Y-64561997D01*
X111975674Y-64560297D01*
X113405000Y-64560297D01*
X113405000Y-64729703D01*
X113438049Y-64895853D01*
X113502878Y-65052363D01*
X113596995Y-65193218D01*
X113716782Y-65313005D01*
X113857637Y-65407122D01*
X114014147Y-65471951D01*
X114180297Y-65505000D01*
X114349703Y-65505000D01*
X114515853Y-65471951D01*
X114672363Y-65407122D01*
X114813218Y-65313005D01*
X114933005Y-65193218D01*
X115025023Y-65055505D01*
X115096995Y-65163218D01*
X115216782Y-65283005D01*
X115357637Y-65377122D01*
X115514147Y-65441951D01*
X115680297Y-65475000D01*
X115849703Y-65475000D01*
X116015853Y-65441951D01*
X116172363Y-65377122D01*
X116313218Y-65283005D01*
X116433005Y-65163218D01*
X116527122Y-65022363D01*
X116554902Y-64955295D01*
X124850000Y-64955295D01*
X124850000Y-65124701D01*
X124883049Y-65290851D01*
X124947878Y-65447361D01*
X125041995Y-65588216D01*
X125161782Y-65708003D01*
X125302637Y-65802120D01*
X125459147Y-65866949D01*
X125625297Y-65899998D01*
X125794703Y-65899998D01*
X125960853Y-65866949D01*
X126117363Y-65802120D01*
X126258218Y-65708003D01*
X126378005Y-65588216D01*
X126472122Y-65447361D01*
X126504166Y-65370000D01*
X126634703Y-65370000D01*
X126800853Y-65336951D01*
X126957363Y-65272122D01*
X127098218Y-65178005D01*
X127110926Y-65165297D01*
X129510000Y-65165297D01*
X129510000Y-65334703D01*
X129543049Y-65500853D01*
X129607878Y-65657363D01*
X129701995Y-65798218D01*
X129821782Y-65918005D01*
X129962637Y-66012122D01*
X130119147Y-66076951D01*
X130285297Y-66110000D01*
X130454703Y-66110000D01*
X130620853Y-66076951D01*
X130777363Y-66012122D01*
X130918218Y-65918005D01*
X131038005Y-65798218D01*
X131132122Y-65657363D01*
X131196951Y-65500853D01*
X131230000Y-65334703D01*
X131230000Y-65165297D01*
X131196951Y-64999147D01*
X131132122Y-64842637D01*
X131038005Y-64701782D01*
X130918218Y-64581995D01*
X130777363Y-64487878D01*
X130620853Y-64423049D01*
X130454703Y-64390000D01*
X130285297Y-64390000D01*
X130119147Y-64423049D01*
X129962637Y-64487878D01*
X129821782Y-64581995D01*
X129701995Y-64701782D01*
X129607878Y-64842637D01*
X129543049Y-64999147D01*
X129510000Y-65165297D01*
X127110926Y-65165297D01*
X127218005Y-65058218D01*
X127312122Y-64917363D01*
X127376951Y-64760853D01*
X127410000Y-64594703D01*
X127410000Y-64425297D01*
X127376951Y-64259147D01*
X127312122Y-64102637D01*
X127218005Y-63961782D01*
X127098218Y-63841995D01*
X126957363Y-63747878D01*
X126800853Y-63683049D01*
X126634703Y-63650000D01*
X126465297Y-63650000D01*
X126299147Y-63683049D01*
X126142637Y-63747878D01*
X126001782Y-63841995D01*
X125881995Y-63961782D01*
X125787878Y-64102637D01*
X125755834Y-64179998D01*
X125625297Y-64179998D01*
X125459147Y-64213047D01*
X125302637Y-64277876D01*
X125161782Y-64371993D01*
X125041995Y-64491780D01*
X124947878Y-64632635D01*
X124883049Y-64789145D01*
X124850000Y-64955295D01*
X116554902Y-64955295D01*
X116591951Y-64865853D01*
X116625000Y-64699703D01*
X116625000Y-64530297D01*
X116591951Y-64364147D01*
X116527122Y-64207637D01*
X116433005Y-64066782D01*
X116313218Y-63946995D01*
X116172363Y-63852878D01*
X116015853Y-63788049D01*
X115849703Y-63755000D01*
X115680297Y-63755000D01*
X115514147Y-63788049D01*
X115357637Y-63852878D01*
X115216782Y-63946995D01*
X115096995Y-64066782D01*
X115004977Y-64204495D01*
X114933005Y-64096782D01*
X114813218Y-63976995D01*
X114672363Y-63882878D01*
X114515853Y-63818049D01*
X114349703Y-63785000D01*
X114180297Y-63785000D01*
X114014147Y-63818049D01*
X113857637Y-63882878D01*
X113716782Y-63976995D01*
X113596995Y-64096782D01*
X113502878Y-64237637D01*
X113438049Y-64394147D01*
X113405000Y-64560297D01*
X111975674Y-64560297D01*
X111837363Y-64467880D01*
X111680853Y-64403051D01*
X111514703Y-64370002D01*
X111345297Y-64370002D01*
X111179147Y-64403051D01*
X111022637Y-64467880D01*
X110933598Y-64527375D01*
X110918218Y-64511995D01*
X110777363Y-64417878D01*
X110620853Y-64353049D01*
X110454703Y-64320000D01*
X110285297Y-64320000D01*
X110119147Y-64353049D01*
X109962637Y-64417878D01*
X109821782Y-64511995D01*
X109701995Y-64631782D01*
X109607878Y-64772637D01*
X109543049Y-64929147D01*
X109510000Y-65095297D01*
X100660000Y-65095297D01*
X100660000Y-63555297D01*
X107720000Y-63555297D01*
X107720000Y-63724703D01*
X107753049Y-63890853D01*
X107817878Y-64047363D01*
X107911995Y-64188218D01*
X108031782Y-64308005D01*
X108172637Y-64402122D01*
X108329147Y-64466951D01*
X108495297Y-64500000D01*
X108664703Y-64500000D01*
X108830853Y-64466951D01*
X108987363Y-64402122D01*
X109128218Y-64308005D01*
X109248005Y-64188218D01*
X109342122Y-64047363D01*
X109406951Y-63890853D01*
X109440000Y-63724703D01*
X109440000Y-63635297D01*
X123650000Y-63635297D01*
X123650000Y-63804703D01*
X123683049Y-63970853D01*
X123747878Y-64127363D01*
X123841995Y-64268218D01*
X123961782Y-64388005D01*
X124102637Y-64482122D01*
X124259147Y-64546951D01*
X124425297Y-64580000D01*
X124594703Y-64580000D01*
X124760853Y-64546951D01*
X124917363Y-64482122D01*
X125058218Y-64388005D01*
X125178005Y-64268218D01*
X125272122Y-64127363D01*
X125336951Y-63970853D01*
X125370000Y-63804703D01*
X125370000Y-63635297D01*
X125336951Y-63469147D01*
X125272122Y-63312637D01*
X125178005Y-63171782D01*
X125058218Y-63051995D01*
X124917363Y-62957878D01*
X124760853Y-62893049D01*
X124594703Y-62860000D01*
X124425297Y-62860000D01*
X124259147Y-62893049D01*
X124102637Y-62957878D01*
X123961782Y-63051995D01*
X123841995Y-63171782D01*
X123747878Y-63312637D01*
X123683049Y-63469147D01*
X123650000Y-63635297D01*
X109440000Y-63635297D01*
X109440000Y-63555297D01*
X109406951Y-63389147D01*
X109342122Y-63232637D01*
X109248005Y-63091782D01*
X109128218Y-62971995D01*
X108987363Y-62877878D01*
X108830853Y-62813049D01*
X108664703Y-62780000D01*
X108495297Y-62780000D01*
X108329147Y-62813049D01*
X108172637Y-62877878D01*
X108031782Y-62971995D01*
X107911995Y-63091782D01*
X107817878Y-63232637D01*
X107753049Y-63389147D01*
X107720000Y-63555297D01*
X100660000Y-63555297D01*
X100660000Y-60915297D01*
X124050000Y-60915297D01*
X124050000Y-61084703D01*
X124083049Y-61250853D01*
X124147878Y-61407363D01*
X124241995Y-61548218D01*
X124361782Y-61668005D01*
X124502637Y-61762122D01*
X124659147Y-61826951D01*
X124825297Y-61860000D01*
X124994703Y-61860000D01*
X125160853Y-61826951D01*
X125317363Y-61762122D01*
X125458218Y-61668005D01*
X125578005Y-61548218D01*
X125616905Y-61490000D01*
X138521928Y-61490000D01*
X138534188Y-61614482D01*
X138570498Y-61734180D01*
X138629463Y-61844494D01*
X138708815Y-61941185D01*
X138805506Y-62020537D01*
X138915820Y-62079502D01*
X139035518Y-62115812D01*
X139160000Y-62128072D01*
X139724250Y-62125000D01*
X139883000Y-61966250D01*
X139883000Y-60767000D01*
X140137000Y-60767000D01*
X140137000Y-61966250D01*
X140295750Y-62125000D01*
X140860000Y-62128072D01*
X140984482Y-62115812D01*
X141104180Y-62079502D01*
X141214494Y-62020537D01*
X141311185Y-61941185D01*
X141390537Y-61844494D01*
X141449502Y-61734180D01*
X141485812Y-61614482D01*
X141498072Y-61490000D01*
X141495000Y-60925750D01*
X141336250Y-60767000D01*
X140137000Y-60767000D01*
X139883000Y-60767000D01*
X138683750Y-60767000D01*
X138525000Y-60925750D01*
X138521928Y-61490000D01*
X125616905Y-61490000D01*
X125672122Y-61407363D01*
X125736951Y-61250853D01*
X125770000Y-61084703D01*
X125770000Y-60915297D01*
X125736951Y-60749147D01*
X125672122Y-60592637D01*
X125578005Y-60451782D01*
X125458218Y-60331995D01*
X125317363Y-60237878D01*
X125160853Y-60173049D01*
X124994703Y-60140000D01*
X124825297Y-60140000D01*
X124659147Y-60173049D01*
X124502637Y-60237878D01*
X124361782Y-60331995D01*
X124241995Y-60451782D01*
X124147878Y-60592637D01*
X124083049Y-60749147D01*
X124050000Y-60915297D01*
X100660000Y-60915297D01*
X100660000Y-59995297D01*
X127540000Y-59995297D01*
X127540000Y-60164703D01*
X127573049Y-60330853D01*
X127637878Y-60487363D01*
X127731995Y-60628218D01*
X127851782Y-60748005D01*
X127992637Y-60842122D01*
X128149147Y-60906951D01*
X128315297Y-60940000D01*
X128484703Y-60940000D01*
X128650853Y-60906951D01*
X128807363Y-60842122D01*
X128948218Y-60748005D01*
X129068005Y-60628218D01*
X129162122Y-60487363D01*
X129226951Y-60330853D01*
X129260000Y-60164703D01*
X129260000Y-59995297D01*
X129226951Y-59829147D01*
X129204646Y-59775297D01*
X131580000Y-59775297D01*
X131580000Y-59944703D01*
X131613049Y-60110853D01*
X131677878Y-60267363D01*
X131771995Y-60408218D01*
X131891782Y-60528005D01*
X132032637Y-60622122D01*
X132189147Y-60686951D01*
X132355297Y-60720000D01*
X132524703Y-60720000D01*
X132690853Y-60686951D01*
X132847363Y-60622122D01*
X132988218Y-60528005D01*
X133108005Y-60408218D01*
X133202122Y-60267363D01*
X133266951Y-60110853D01*
X133300000Y-59944703D01*
X133300000Y-59790000D01*
X138521928Y-59790000D01*
X138525000Y-60354250D01*
X138683750Y-60513000D01*
X139883000Y-60513000D01*
X139883000Y-59313750D01*
X140137000Y-59313750D01*
X140137000Y-60513000D01*
X141336250Y-60513000D01*
X141495000Y-60354250D01*
X141498072Y-59790000D01*
X141485812Y-59665518D01*
X141449502Y-59545820D01*
X141390537Y-59435506D01*
X141311185Y-59338815D01*
X141214494Y-59259463D01*
X141104180Y-59200498D01*
X140984482Y-59164188D01*
X140860000Y-59151928D01*
X140295750Y-59155000D01*
X140137000Y-59313750D01*
X139883000Y-59313750D01*
X139724250Y-59155000D01*
X139160000Y-59151928D01*
X139035518Y-59164188D01*
X138915820Y-59200498D01*
X138805506Y-59259463D01*
X138708815Y-59338815D01*
X138629463Y-59435506D01*
X138570498Y-59545820D01*
X138534188Y-59665518D01*
X138521928Y-59790000D01*
X133300000Y-59790000D01*
X133300000Y-59775297D01*
X133266951Y-59609147D01*
X133202122Y-59452637D01*
X133108005Y-59311782D01*
X132988218Y-59191995D01*
X132847363Y-59097878D01*
X132690853Y-59033049D01*
X132524703Y-59000000D01*
X132355297Y-59000000D01*
X132189147Y-59033049D01*
X132032637Y-59097878D01*
X131891782Y-59191995D01*
X131771995Y-59311782D01*
X131677878Y-59452637D01*
X131613049Y-59609147D01*
X131580000Y-59775297D01*
X129204646Y-59775297D01*
X129162122Y-59672637D01*
X129068005Y-59531782D01*
X128948218Y-59411995D01*
X128807363Y-59317878D01*
X128650853Y-59253049D01*
X128484703Y-59220000D01*
X128315297Y-59220000D01*
X128149147Y-59253049D01*
X127992637Y-59317878D01*
X127851782Y-59411995D01*
X127731995Y-59531782D01*
X127637878Y-59672637D01*
X127573049Y-59829147D01*
X127540000Y-59995297D01*
X100660000Y-59995297D01*
X100660000Y-58445297D01*
X114140000Y-58445297D01*
X114140000Y-58614703D01*
X114173049Y-58780853D01*
X114237878Y-58937363D01*
X114331995Y-59078218D01*
X114451782Y-59198005D01*
X114592637Y-59292122D01*
X114749147Y-59356951D01*
X114915297Y-59390000D01*
X115084703Y-59390000D01*
X115250853Y-59356951D01*
X115407363Y-59292122D01*
X115548218Y-59198005D01*
X115668005Y-59078218D01*
X115762122Y-58937363D01*
X115826951Y-58780853D01*
X115847947Y-58675297D01*
X117620000Y-58675297D01*
X117620000Y-58844703D01*
X117653049Y-59010853D01*
X117717878Y-59167363D01*
X117811995Y-59308218D01*
X117931782Y-59428005D01*
X118072637Y-59522122D01*
X118229147Y-59586951D01*
X118395297Y-59620000D01*
X118564703Y-59620000D01*
X118730853Y-59586951D01*
X118887363Y-59522122D01*
X119028218Y-59428005D01*
X119148005Y-59308218D01*
X119242122Y-59167363D01*
X119306951Y-59010853D01*
X119340000Y-58844703D01*
X119340000Y-58675297D01*
X119306951Y-58509147D01*
X119242122Y-58352637D01*
X119148005Y-58211782D01*
X119028218Y-58091995D01*
X118887363Y-57997878D01*
X118730853Y-57933049D01*
X118564703Y-57900000D01*
X118395297Y-57900000D01*
X118229147Y-57933049D01*
X118072637Y-57997878D01*
X117931782Y-58091995D01*
X117811995Y-58211782D01*
X117717878Y-58352637D01*
X117653049Y-58509147D01*
X117620000Y-58675297D01*
X115847947Y-58675297D01*
X115860000Y-58614703D01*
X115860000Y-58445297D01*
X115826951Y-58279147D01*
X115762122Y-58122637D01*
X115668005Y-57981782D01*
X115548218Y-57861995D01*
X115407363Y-57767878D01*
X115250853Y-57703049D01*
X115084703Y-57670000D01*
X114915297Y-57670000D01*
X114749147Y-57703049D01*
X114592637Y-57767878D01*
X114451782Y-57861995D01*
X114331995Y-57981782D01*
X114237878Y-58122637D01*
X114173049Y-58279147D01*
X114140000Y-58445297D01*
X100660000Y-58445297D01*
X100660000Y-56812795D01*
X114992498Y-56812795D01*
X114992498Y-56982201D01*
X115025547Y-57148351D01*
X115090376Y-57304861D01*
X115184493Y-57445716D01*
X115304280Y-57565503D01*
X115445135Y-57659620D01*
X115601645Y-57724449D01*
X115767795Y-57757498D01*
X115937201Y-57757498D01*
X116103351Y-57724449D01*
X116259861Y-57659620D01*
X116400716Y-57565503D01*
X116520503Y-57445716D01*
X116614620Y-57304861D01*
X116679449Y-57148351D01*
X116712498Y-56982201D01*
X116712498Y-56812795D01*
X116679449Y-56646645D01*
X116614620Y-56490135D01*
X116520503Y-56349280D01*
X116400716Y-56229493D01*
X116259861Y-56135376D01*
X116103351Y-56070547D01*
X115937201Y-56037498D01*
X115767795Y-56037498D01*
X115601645Y-56070547D01*
X115445135Y-56135376D01*
X115304280Y-56229493D01*
X115184493Y-56349280D01*
X115090376Y-56490135D01*
X115025547Y-56646645D01*
X114992498Y-56812795D01*
X100660000Y-56812795D01*
X100660000Y-55140000D01*
X138521928Y-55140000D01*
X138521928Y-56840000D01*
X138534188Y-56964482D01*
X138570498Y-57084180D01*
X138629463Y-57194494D01*
X138708815Y-57291185D01*
X138805506Y-57370537D01*
X138915820Y-57429502D01*
X139035518Y-57465812D01*
X139160000Y-57478072D01*
X140860000Y-57478072D01*
X140984482Y-57465812D01*
X141104180Y-57429502D01*
X141214494Y-57370537D01*
X141311185Y-57291185D01*
X141390537Y-57194494D01*
X141449502Y-57084180D01*
X141485812Y-56964482D01*
X141498072Y-56840000D01*
X141498072Y-55140000D01*
X141485812Y-55015518D01*
X141449502Y-54895820D01*
X141390537Y-54785506D01*
X141311185Y-54688815D01*
X141214494Y-54609463D01*
X141104180Y-54550498D01*
X140984482Y-54514188D01*
X140860000Y-54501928D01*
X139160000Y-54501928D01*
X139035518Y-54514188D01*
X138915820Y-54550498D01*
X138805506Y-54609463D01*
X138708815Y-54688815D01*
X138629463Y-54785506D01*
X138570498Y-54895820D01*
X138534188Y-55015518D01*
X138521928Y-55140000D01*
X100660000Y-55140000D01*
X100660000Y-53660000D01*
X113967581Y-53660000D01*
X114000000Y-53663193D01*
X114032419Y-53660000D01*
X114129383Y-53650450D01*
X114253793Y-53612710D01*
X114368450Y-53551425D01*
X114468948Y-53468948D01*
X114551425Y-53368450D01*
X114612710Y-53253793D01*
X114650450Y-53129383D01*
X114663193Y-53000000D01*
X114660000Y-52967581D01*
X114660000Y-48282279D01*
X114674341Y-48136015D01*
X114707443Y-48026375D01*
X114761212Y-47925252D01*
X114833599Y-47836497D01*
X114921848Y-47763491D01*
X115022591Y-47709019D01*
X115132004Y-47675150D01*
X115276145Y-47660000D01*
X122417721Y-47660000D01*
X122563985Y-47674341D01*
M02*
