G04 #@! TF.GenerationSoftware,KiCad,Pcbnew,(5.1.0)-1*
G04 #@! TF.CreationDate,2019-06-03T19:39:10-07:00*
G04 #@! TF.ProjectId,SDCard-PCB,53444361-7264-42d5-9043-422e6b696361,rev?*
G04 #@! TF.SameCoordinates,Original*
G04 #@! TF.FileFunction,Soldermask,Top*
G04 #@! TF.FilePolarity,Negative*
%FSLAX46Y46*%
G04 Gerber Fmt 4.6, Leading zero omitted, Abs format (unit mm)*
G04 Created by KiCad (PCBNEW (5.1.0)-1) date 2019-06-03 19:39:10*
%MOMM*%
%LPD*%
G04 APERTURE LIST*
%ADD10C,0.100000*%
G04 APERTURE END LIST*
D10*
G36*
X107352020Y-83663612D02*
G01*
X107584127Y-83759754D01*
X107584128Y-83759755D01*
X107793020Y-83899332D01*
X107970668Y-84076980D01*
X107970669Y-84076982D01*
X108110246Y-84285873D01*
X108206388Y-84517980D01*
X108255400Y-84764383D01*
X108255400Y-85015617D01*
X108206388Y-85262020D01*
X108110246Y-85494127D01*
X108110245Y-85494128D01*
X107970668Y-85703020D01*
X107793020Y-85880668D01*
X107687864Y-85950931D01*
X107584127Y-86020246D01*
X107352020Y-86116388D01*
X107105617Y-86165400D01*
X106854383Y-86165400D01*
X106607980Y-86116388D01*
X106375873Y-86020246D01*
X106272136Y-85950931D01*
X106166980Y-85880668D01*
X105989332Y-85703020D01*
X105849755Y-85494128D01*
X105849754Y-85494127D01*
X105753612Y-85262020D01*
X105704600Y-85015617D01*
X105704600Y-84764383D01*
X105753612Y-84517980D01*
X105849754Y-84285873D01*
X105989331Y-84076982D01*
X105989332Y-84076980D01*
X106166980Y-83899332D01*
X106375872Y-83759755D01*
X106375873Y-83759754D01*
X106607980Y-83663612D01*
X106854383Y-83614600D01*
X107105617Y-83614600D01*
X107352020Y-83663612D01*
X107352020Y-83663612D01*
G37*
G36*
X102272020Y-83663612D02*
G01*
X102504127Y-83759754D01*
X102504128Y-83759755D01*
X102713020Y-83899332D01*
X102890668Y-84076980D01*
X102890669Y-84076982D01*
X103030246Y-84285873D01*
X103126388Y-84517980D01*
X103175400Y-84764383D01*
X103175400Y-85015617D01*
X103126388Y-85262020D01*
X103030246Y-85494127D01*
X103030245Y-85494128D01*
X102890668Y-85703020D01*
X102713020Y-85880668D01*
X102607864Y-85950931D01*
X102504127Y-86020246D01*
X102272020Y-86116388D01*
X102025617Y-86165400D01*
X101774383Y-86165400D01*
X101527980Y-86116388D01*
X101295873Y-86020246D01*
X101192136Y-85950931D01*
X101086980Y-85880668D01*
X100909332Y-85703020D01*
X100769755Y-85494128D01*
X100769754Y-85494127D01*
X100673612Y-85262020D01*
X100624600Y-85015617D01*
X100624600Y-84764383D01*
X100673612Y-84517980D01*
X100769754Y-84285873D01*
X100909331Y-84076982D01*
X100909332Y-84076980D01*
X101086980Y-83899332D01*
X101295872Y-83759755D01*
X101295873Y-83759754D01*
X101527980Y-83663612D01*
X101774383Y-83614600D01*
X102025617Y-83614600D01*
X102272020Y-83663612D01*
X102272020Y-83663612D01*
G37*
G36*
X135845400Y-85195400D02*
G01*
X134394600Y-85195400D01*
X134394600Y-83944600D01*
X135845400Y-83944600D01*
X135845400Y-85195400D01*
X135845400Y-85195400D01*
G37*
G36*
X133645400Y-85195400D02*
G01*
X132194600Y-85195400D01*
X132194600Y-83944600D01*
X133645400Y-83944600D01*
X133645400Y-85195400D01*
X133645400Y-85195400D01*
G37*
G36*
X113781606Y-82867266D02*
G01*
X113864115Y-82892295D01*
X113946622Y-82917323D01*
X113946624Y-82917324D01*
X114098698Y-82998609D01*
X114231996Y-83108004D01*
X114341391Y-83241302D01*
X114422676Y-83393376D01*
X114472734Y-83558394D01*
X114489635Y-83730000D01*
X114472734Y-83901606D01*
X114422676Y-84066624D01*
X114341391Y-84218698D01*
X114231996Y-84351996D01*
X114098698Y-84461391D01*
X113992827Y-84517980D01*
X113946622Y-84542677D01*
X113864115Y-84567705D01*
X113781606Y-84592734D01*
X113653002Y-84605400D01*
X113566998Y-84605400D01*
X113438394Y-84592734D01*
X113355885Y-84567705D01*
X113273378Y-84542677D01*
X113227173Y-84517980D01*
X113121302Y-84461391D01*
X112988004Y-84351996D01*
X112878609Y-84218698D01*
X112797324Y-84066624D01*
X112747266Y-83901606D01*
X112730365Y-83730000D01*
X112747266Y-83558394D01*
X112797324Y-83393376D01*
X112878609Y-83241302D01*
X112988004Y-83108004D01*
X113121302Y-82998609D01*
X113273376Y-82917324D01*
X113273378Y-82917323D01*
X113355885Y-82892295D01*
X113438394Y-82867266D01*
X113566998Y-82854600D01*
X113653002Y-82854600D01*
X113781606Y-82867266D01*
X113781606Y-82867266D01*
G37*
G36*
X123941606Y-82867266D02*
G01*
X124024115Y-82892295D01*
X124106622Y-82917323D01*
X124106624Y-82917324D01*
X124258698Y-82998609D01*
X124391996Y-83108004D01*
X124501391Y-83241302D01*
X124582676Y-83393376D01*
X124632734Y-83558394D01*
X124649635Y-83730000D01*
X124632734Y-83901606D01*
X124582676Y-84066624D01*
X124501391Y-84218698D01*
X124391996Y-84351996D01*
X124258698Y-84461391D01*
X124152827Y-84517980D01*
X124106622Y-84542677D01*
X124024115Y-84567705D01*
X123941606Y-84592734D01*
X123813002Y-84605400D01*
X123726998Y-84605400D01*
X123598394Y-84592734D01*
X123515885Y-84567705D01*
X123433378Y-84542677D01*
X123387173Y-84517980D01*
X123281302Y-84461391D01*
X123148004Y-84351996D01*
X123038609Y-84218698D01*
X122957324Y-84066624D01*
X122907266Y-83901606D01*
X122890365Y-83730000D01*
X122907266Y-83558394D01*
X122957324Y-83393376D01*
X123038609Y-83241302D01*
X123148004Y-83108004D01*
X123281302Y-82998609D01*
X123433376Y-82917324D01*
X123433378Y-82917323D01*
X123515885Y-82892295D01*
X123598394Y-82867266D01*
X123726998Y-82854600D01*
X123813002Y-82854600D01*
X123941606Y-82867266D01*
X123941606Y-82867266D01*
G37*
G36*
X126481606Y-82867266D02*
G01*
X126564115Y-82892295D01*
X126646622Y-82917323D01*
X126646624Y-82917324D01*
X126798698Y-82998609D01*
X126931996Y-83108004D01*
X127041391Y-83241302D01*
X127122676Y-83393376D01*
X127172734Y-83558394D01*
X127189635Y-83730000D01*
X127172734Y-83901606D01*
X127122676Y-84066624D01*
X127041391Y-84218698D01*
X126931996Y-84351996D01*
X126798698Y-84461391D01*
X126692827Y-84517980D01*
X126646622Y-84542677D01*
X126564115Y-84567705D01*
X126481606Y-84592734D01*
X126353002Y-84605400D01*
X126266998Y-84605400D01*
X126138394Y-84592734D01*
X126055885Y-84567705D01*
X125973378Y-84542677D01*
X125927173Y-84517980D01*
X125821302Y-84461391D01*
X125688004Y-84351996D01*
X125578609Y-84218698D01*
X125497324Y-84066624D01*
X125447266Y-83901606D01*
X125430365Y-83730000D01*
X125447266Y-83558394D01*
X125497324Y-83393376D01*
X125578609Y-83241302D01*
X125688004Y-83108004D01*
X125821302Y-82998609D01*
X125973376Y-82917324D01*
X125973378Y-82917323D01*
X126055885Y-82892295D01*
X126138394Y-82867266D01*
X126266998Y-82854600D01*
X126353002Y-82854600D01*
X126481606Y-82867266D01*
X126481606Y-82867266D01*
G37*
G36*
X129725400Y-84605400D02*
G01*
X127974600Y-84605400D01*
X127974600Y-82854600D01*
X129725400Y-82854600D01*
X129725400Y-84605400D01*
X129725400Y-84605400D01*
G37*
G36*
X121401606Y-82867266D02*
G01*
X121484115Y-82892295D01*
X121566622Y-82917323D01*
X121566624Y-82917324D01*
X121718698Y-82998609D01*
X121851996Y-83108004D01*
X121961391Y-83241302D01*
X122042676Y-83393376D01*
X122092734Y-83558394D01*
X122109635Y-83730000D01*
X122092734Y-83901606D01*
X122042676Y-84066624D01*
X121961391Y-84218698D01*
X121851996Y-84351996D01*
X121718698Y-84461391D01*
X121612827Y-84517980D01*
X121566622Y-84542677D01*
X121484115Y-84567705D01*
X121401606Y-84592734D01*
X121273002Y-84605400D01*
X121186998Y-84605400D01*
X121058394Y-84592734D01*
X120975885Y-84567705D01*
X120893378Y-84542677D01*
X120847173Y-84517980D01*
X120741302Y-84461391D01*
X120608004Y-84351996D01*
X120498609Y-84218698D01*
X120417324Y-84066624D01*
X120367266Y-83901606D01*
X120350365Y-83730000D01*
X120367266Y-83558394D01*
X120417324Y-83393376D01*
X120498609Y-83241302D01*
X120608004Y-83108004D01*
X120741302Y-82998609D01*
X120893376Y-82917324D01*
X120893378Y-82917323D01*
X120975885Y-82892295D01*
X121058394Y-82867266D01*
X121186998Y-82854600D01*
X121273002Y-82854600D01*
X121401606Y-82867266D01*
X121401606Y-82867266D01*
G37*
G36*
X118861606Y-82867266D02*
G01*
X118944115Y-82892295D01*
X119026622Y-82917323D01*
X119026624Y-82917324D01*
X119178698Y-82998609D01*
X119311996Y-83108004D01*
X119421391Y-83241302D01*
X119502676Y-83393376D01*
X119552734Y-83558394D01*
X119569635Y-83730000D01*
X119552734Y-83901606D01*
X119502676Y-84066624D01*
X119421391Y-84218698D01*
X119311996Y-84351996D01*
X119178698Y-84461391D01*
X119072827Y-84517980D01*
X119026622Y-84542677D01*
X118944115Y-84567705D01*
X118861606Y-84592734D01*
X118733002Y-84605400D01*
X118646998Y-84605400D01*
X118518394Y-84592734D01*
X118435885Y-84567705D01*
X118353378Y-84542677D01*
X118307173Y-84517980D01*
X118201302Y-84461391D01*
X118068004Y-84351996D01*
X117958609Y-84218698D01*
X117877324Y-84066624D01*
X117827266Y-83901606D01*
X117810365Y-83730000D01*
X117827266Y-83558394D01*
X117877324Y-83393376D01*
X117958609Y-83241302D01*
X118068004Y-83108004D01*
X118201302Y-82998609D01*
X118353376Y-82917324D01*
X118353378Y-82917323D01*
X118435885Y-82892295D01*
X118518394Y-82867266D01*
X118646998Y-82854600D01*
X118733002Y-82854600D01*
X118861606Y-82867266D01*
X118861606Y-82867266D01*
G37*
G36*
X116321606Y-82867266D02*
G01*
X116404115Y-82892295D01*
X116486622Y-82917323D01*
X116486624Y-82917324D01*
X116638698Y-82998609D01*
X116771996Y-83108004D01*
X116881391Y-83241302D01*
X116962676Y-83393376D01*
X117012734Y-83558394D01*
X117029635Y-83730000D01*
X117012734Y-83901606D01*
X116962676Y-84066624D01*
X116881391Y-84218698D01*
X116771996Y-84351996D01*
X116638698Y-84461391D01*
X116532827Y-84517980D01*
X116486622Y-84542677D01*
X116404115Y-84567705D01*
X116321606Y-84592734D01*
X116193002Y-84605400D01*
X116106998Y-84605400D01*
X115978394Y-84592734D01*
X115895885Y-84567705D01*
X115813378Y-84542677D01*
X115767173Y-84517980D01*
X115661302Y-84461391D01*
X115528004Y-84351996D01*
X115418609Y-84218698D01*
X115337324Y-84066624D01*
X115287266Y-83901606D01*
X115270365Y-83730000D01*
X115287266Y-83558394D01*
X115337324Y-83393376D01*
X115418609Y-83241302D01*
X115528004Y-83108004D01*
X115661302Y-82998609D01*
X115813376Y-82917324D01*
X115813378Y-82917323D01*
X115895885Y-82892295D01*
X115978394Y-82867266D01*
X116106998Y-82854600D01*
X116193002Y-82854600D01*
X116321606Y-82867266D01*
X116321606Y-82867266D01*
G37*
G36*
X111241606Y-82867266D02*
G01*
X111324115Y-82892295D01*
X111406622Y-82917323D01*
X111406624Y-82917324D01*
X111558698Y-82998609D01*
X111691996Y-83108004D01*
X111801391Y-83241302D01*
X111882676Y-83393376D01*
X111932734Y-83558394D01*
X111949635Y-83730000D01*
X111932734Y-83901606D01*
X111882676Y-84066624D01*
X111801391Y-84218698D01*
X111691996Y-84351996D01*
X111558698Y-84461391D01*
X111452827Y-84517980D01*
X111406622Y-84542677D01*
X111324115Y-84567705D01*
X111241606Y-84592734D01*
X111113002Y-84605400D01*
X111026998Y-84605400D01*
X110898394Y-84592734D01*
X110815885Y-84567705D01*
X110733378Y-84542677D01*
X110687173Y-84517980D01*
X110581302Y-84461391D01*
X110448004Y-84351996D01*
X110338609Y-84218698D01*
X110257324Y-84066624D01*
X110207266Y-83901606D01*
X110190365Y-83730000D01*
X110207266Y-83558394D01*
X110257324Y-83393376D01*
X110338609Y-83241302D01*
X110448004Y-83108004D01*
X110581302Y-82998609D01*
X110733376Y-82917324D01*
X110733378Y-82917323D01*
X110815885Y-82892295D01*
X110898394Y-82867266D01*
X111026998Y-82854600D01*
X111113002Y-82854600D01*
X111241606Y-82867266D01*
X111241606Y-82867266D01*
G37*
G36*
X141025400Y-83785400D02*
G01*
X139274600Y-83785400D01*
X139274600Y-82034600D01*
X141025400Y-82034600D01*
X141025400Y-83785400D01*
X141025400Y-83785400D01*
G37*
G36*
X104812020Y-81123612D02*
G01*
X105044127Y-81219754D01*
X105044128Y-81219755D01*
X105253020Y-81359332D01*
X105430668Y-81536980D01*
X105430669Y-81536982D01*
X105570246Y-81745873D01*
X105666388Y-81977980D01*
X105715400Y-82224383D01*
X105715400Y-82475617D01*
X105666388Y-82722020D01*
X105570246Y-82954127D01*
X105570245Y-82954128D01*
X105430668Y-83163020D01*
X105253020Y-83340668D01*
X105174137Y-83393376D01*
X105044127Y-83480246D01*
X104812020Y-83576388D01*
X104565617Y-83625400D01*
X104314383Y-83625400D01*
X104067980Y-83576388D01*
X103835873Y-83480246D01*
X103705863Y-83393376D01*
X103626980Y-83340668D01*
X103449332Y-83163020D01*
X103309755Y-82954128D01*
X103309754Y-82954127D01*
X103213612Y-82722020D01*
X103164600Y-82475617D01*
X103164600Y-82224383D01*
X103213612Y-81977980D01*
X103309754Y-81745873D01*
X103449331Y-81536982D01*
X103449332Y-81536980D01*
X103626980Y-81359332D01*
X103835872Y-81219755D01*
X103835873Y-81219754D01*
X104067980Y-81123612D01*
X104314383Y-81074600D01*
X104565617Y-81074600D01*
X104812020Y-81123612D01*
X104812020Y-81123612D01*
G37*
G36*
X135845400Y-83495400D02*
G01*
X134394600Y-83495400D01*
X134394600Y-82244600D01*
X135845400Y-82244600D01*
X135845400Y-83495400D01*
X135845400Y-83495400D01*
G37*
G36*
X133645400Y-83495400D02*
G01*
X132194600Y-83495400D01*
X132194600Y-82244600D01*
X133645400Y-82244600D01*
X133645400Y-83495400D01*
X133645400Y-83495400D01*
G37*
G36*
X133720400Y-81270400D02*
G01*
X133089600Y-81270400D01*
X133089600Y-80589600D01*
X133720400Y-80589600D01*
X133720400Y-81270400D01*
X133720400Y-81270400D01*
G37*
G36*
X132830400Y-81270400D02*
G01*
X132199600Y-81270400D01*
X132199600Y-80589600D01*
X132830400Y-80589600D01*
X132830400Y-81270400D01*
X132830400Y-81270400D01*
G37*
G36*
X136020400Y-81270400D02*
G01*
X135389600Y-81270400D01*
X135389600Y-80589600D01*
X136020400Y-80589600D01*
X136020400Y-81270400D01*
X136020400Y-81270400D01*
G37*
G36*
X135130400Y-81270400D02*
G01*
X134499600Y-81270400D01*
X134499600Y-80589600D01*
X135130400Y-80589600D01*
X135130400Y-81270400D01*
X135130400Y-81270400D01*
G37*
G36*
X107352020Y-78583612D02*
G01*
X107584127Y-78679754D01*
X107648364Y-78722676D01*
X107793020Y-78819332D01*
X107970668Y-78996980D01*
X107970669Y-78996982D01*
X108110246Y-79205873D01*
X108206388Y-79437980D01*
X108255400Y-79684383D01*
X108255400Y-79935617D01*
X108206388Y-80182020D01*
X108110246Y-80414127D01*
X108110245Y-80414128D01*
X107970668Y-80623020D01*
X107793020Y-80800668D01*
X107687864Y-80870931D01*
X107584127Y-80940246D01*
X107352020Y-81036388D01*
X107105617Y-81085400D01*
X106854383Y-81085400D01*
X106607980Y-81036388D01*
X106375873Y-80940246D01*
X106272136Y-80870931D01*
X106166980Y-80800668D01*
X105989332Y-80623020D01*
X105849755Y-80414128D01*
X105849754Y-80414127D01*
X105753612Y-80182020D01*
X105704600Y-79935617D01*
X105704600Y-79684383D01*
X105753612Y-79437980D01*
X105849754Y-79205873D01*
X105989331Y-78996982D01*
X105989332Y-78996980D01*
X106166980Y-78819332D01*
X106311636Y-78722676D01*
X106375873Y-78679754D01*
X106607980Y-78583612D01*
X106854383Y-78534600D01*
X107105617Y-78534600D01*
X107352020Y-78583612D01*
X107352020Y-78583612D01*
G37*
G36*
X102272020Y-78583612D02*
G01*
X102504127Y-78679754D01*
X102568364Y-78722676D01*
X102713020Y-78819332D01*
X102890668Y-78996980D01*
X102890669Y-78996982D01*
X103030246Y-79205873D01*
X103126388Y-79437980D01*
X103175400Y-79684383D01*
X103175400Y-79935617D01*
X103126388Y-80182020D01*
X103030246Y-80414127D01*
X103030245Y-80414128D01*
X102890668Y-80623020D01*
X102713020Y-80800668D01*
X102607864Y-80870931D01*
X102504127Y-80940246D01*
X102272020Y-81036388D01*
X102025617Y-81085400D01*
X101774383Y-81085400D01*
X101527980Y-81036388D01*
X101295873Y-80940246D01*
X101192136Y-80870931D01*
X101086980Y-80800668D01*
X100909332Y-80623020D01*
X100769755Y-80414128D01*
X100769754Y-80414127D01*
X100673612Y-80182020D01*
X100624600Y-79935617D01*
X100624600Y-79684383D01*
X100673612Y-79437980D01*
X100769754Y-79205873D01*
X100909331Y-78996982D01*
X100909332Y-78996980D01*
X101086980Y-78819332D01*
X101231636Y-78722676D01*
X101295873Y-78679754D01*
X101527980Y-78583612D01*
X101774383Y-78534600D01*
X102025617Y-78534600D01*
X102272020Y-78583612D01*
X102272020Y-78583612D01*
G37*
G36*
X141025400Y-79585400D02*
G01*
X139274600Y-79585400D01*
X139274600Y-77834600D01*
X141025400Y-77834600D01*
X141025400Y-79585400D01*
X141025400Y-79585400D01*
G37*
G36*
X134055400Y-78970400D02*
G01*
X133084600Y-78970400D01*
X133084600Y-78029600D01*
X134055400Y-78029600D01*
X134055400Y-78970400D01*
X134055400Y-78970400D01*
G37*
G36*
X135600400Y-78920400D02*
G01*
X134679600Y-78920400D01*
X134679600Y-78059600D01*
X135600400Y-78059600D01*
X135600400Y-78920400D01*
X135600400Y-78920400D01*
G37*
G36*
X136579500Y-78029026D02*
G01*
X136647817Y-78057324D01*
X136709302Y-78098407D01*
X136761593Y-78150698D01*
X136802676Y-78212183D01*
X136830974Y-78280500D01*
X136845400Y-78353025D01*
X136845400Y-78426975D01*
X136830974Y-78499500D01*
X136802676Y-78567817D01*
X136761593Y-78629302D01*
X136709302Y-78681593D01*
X136647817Y-78722676D01*
X136579500Y-78750974D01*
X136506975Y-78765400D01*
X136433025Y-78765400D01*
X136360500Y-78750974D01*
X136292183Y-78722676D01*
X136230698Y-78681593D01*
X136178407Y-78629302D01*
X136137324Y-78567817D01*
X136109026Y-78499500D01*
X136094600Y-78426975D01*
X136094600Y-78353025D01*
X136109026Y-78280500D01*
X136137324Y-78212183D01*
X136178407Y-78150698D01*
X136230698Y-78098407D01*
X136292183Y-78057324D01*
X136360500Y-78029026D01*
X136433025Y-78014600D01*
X136506975Y-78014600D01*
X136579500Y-78029026D01*
X136579500Y-78029026D01*
G37*
G36*
X118040400Y-77955400D02*
G01*
X117099600Y-77955400D01*
X117099600Y-76984600D01*
X118040400Y-76984600D01*
X118040400Y-77955400D01*
X118040400Y-77955400D01*
G37*
G36*
X116710400Y-77955400D02*
G01*
X115769600Y-77955400D01*
X115769600Y-76984600D01*
X116710400Y-76984600D01*
X116710400Y-77955400D01*
X116710400Y-77955400D01*
G37*
G36*
X134055400Y-77640400D02*
G01*
X133084600Y-77640400D01*
X133084600Y-76699600D01*
X134055400Y-76699600D01*
X134055400Y-77640400D01*
X134055400Y-77640400D01*
G37*
G36*
X135600400Y-77560400D02*
G01*
X134679600Y-77560400D01*
X134679600Y-76699600D01*
X135600400Y-76699600D01*
X135600400Y-77560400D01*
X135600400Y-77560400D01*
G37*
G36*
X110900400Y-77465400D02*
G01*
X109959600Y-77465400D01*
X109959600Y-76494600D01*
X110900400Y-76494600D01*
X110900400Y-77465400D01*
X110900400Y-77465400D01*
G37*
G36*
X109570400Y-77465400D02*
G01*
X108629600Y-77465400D01*
X108629600Y-76494600D01*
X109570400Y-76494600D01*
X109570400Y-77465400D01*
X109570400Y-77465400D01*
G37*
G36*
X121845400Y-77100400D02*
G01*
X120874600Y-77100400D01*
X120874600Y-76159600D01*
X121845400Y-76159600D01*
X121845400Y-77100400D01*
X121845400Y-77100400D01*
G37*
G36*
X120260400Y-77090400D02*
G01*
X119339600Y-77090400D01*
X119339600Y-76229600D01*
X120260400Y-76229600D01*
X120260400Y-77090400D01*
X120260400Y-77090400D01*
G37*
G36*
X130171371Y-76487685D02*
G01*
X130209661Y-76503545D01*
X130244121Y-76526571D01*
X130273429Y-76555879D01*
X130296455Y-76590339D01*
X130312315Y-76628629D01*
X130320400Y-76669276D01*
X130320400Y-76710724D01*
X130312315Y-76751371D01*
X130296455Y-76789661D01*
X130273429Y-76824121D01*
X130244121Y-76853429D01*
X130209661Y-76876455D01*
X130171371Y-76892315D01*
X130130724Y-76900400D01*
X130089276Y-76900400D01*
X130048629Y-76892315D01*
X130010339Y-76876455D01*
X129975879Y-76853429D01*
X129946571Y-76824121D01*
X129923545Y-76789661D01*
X129907685Y-76751371D01*
X129899600Y-76710724D01*
X129899600Y-76669276D01*
X129907685Y-76628629D01*
X129923545Y-76590339D01*
X129946571Y-76555879D01*
X129975879Y-76526571D01*
X130010339Y-76503545D01*
X130048629Y-76487685D01*
X130089276Y-76479600D01*
X130130724Y-76479600D01*
X130171371Y-76487685D01*
X130171371Y-76487685D01*
G37*
G36*
X130971371Y-76487685D02*
G01*
X131009661Y-76503545D01*
X131044121Y-76526571D01*
X131073429Y-76555879D01*
X131096455Y-76590339D01*
X131112315Y-76628629D01*
X131120400Y-76669276D01*
X131120400Y-76710724D01*
X131112315Y-76751371D01*
X131096455Y-76789661D01*
X131073429Y-76824121D01*
X131044121Y-76853429D01*
X131009661Y-76876455D01*
X130971371Y-76892315D01*
X130930724Y-76900400D01*
X130889276Y-76900400D01*
X130848629Y-76892315D01*
X130810339Y-76876455D01*
X130775879Y-76853429D01*
X130746571Y-76824121D01*
X130723545Y-76789661D01*
X130707685Y-76751371D01*
X130699600Y-76710724D01*
X130699600Y-76669276D01*
X130707685Y-76628629D01*
X130723545Y-76590339D01*
X130746571Y-76555879D01*
X130775879Y-76526571D01*
X130810339Y-76503545D01*
X130848629Y-76487685D01*
X130889276Y-76479600D01*
X130930724Y-76479600D01*
X130971371Y-76487685D01*
X130971371Y-76487685D01*
G37*
G36*
X126171371Y-76487685D02*
G01*
X126209661Y-76503545D01*
X126244121Y-76526571D01*
X126273429Y-76555879D01*
X126296455Y-76590339D01*
X126312315Y-76628629D01*
X126320400Y-76669276D01*
X126320400Y-76710724D01*
X126312315Y-76751371D01*
X126296455Y-76789661D01*
X126273429Y-76824121D01*
X126244121Y-76853429D01*
X126209661Y-76876455D01*
X126171371Y-76892315D01*
X126130724Y-76900400D01*
X126089276Y-76900400D01*
X126048629Y-76892315D01*
X126010339Y-76876455D01*
X125975879Y-76853429D01*
X125946571Y-76824121D01*
X125923545Y-76789661D01*
X125907685Y-76751371D01*
X125899600Y-76710724D01*
X125899600Y-76669276D01*
X125907685Y-76628629D01*
X125923545Y-76590339D01*
X125946571Y-76555879D01*
X125975879Y-76526571D01*
X126010339Y-76503545D01*
X126048629Y-76487685D01*
X126089276Y-76479600D01*
X126130724Y-76479600D01*
X126171371Y-76487685D01*
X126171371Y-76487685D01*
G37*
G36*
X125371371Y-76487685D02*
G01*
X125409661Y-76503545D01*
X125444121Y-76526571D01*
X125473429Y-76555879D01*
X125496455Y-76590339D01*
X125512315Y-76628629D01*
X125520400Y-76669276D01*
X125520400Y-76710724D01*
X125512315Y-76751371D01*
X125496455Y-76789661D01*
X125473429Y-76824121D01*
X125444121Y-76853429D01*
X125409661Y-76876455D01*
X125371371Y-76892315D01*
X125330724Y-76900400D01*
X125289276Y-76900400D01*
X125248629Y-76892315D01*
X125210339Y-76876455D01*
X125175879Y-76853429D01*
X125146571Y-76824121D01*
X125123545Y-76789661D01*
X125107685Y-76751371D01*
X125099600Y-76710724D01*
X125099600Y-76669276D01*
X125107685Y-76628629D01*
X125123545Y-76590339D01*
X125146571Y-76555879D01*
X125175879Y-76526571D01*
X125210339Y-76503545D01*
X125248629Y-76487685D01*
X125289276Y-76479600D01*
X125330724Y-76479600D01*
X125371371Y-76487685D01*
X125371371Y-76487685D01*
G37*
G36*
X124571371Y-76487685D02*
G01*
X124609661Y-76503545D01*
X124644121Y-76526571D01*
X124673429Y-76555879D01*
X124696455Y-76590339D01*
X124712315Y-76628629D01*
X124720400Y-76669276D01*
X124720400Y-76710724D01*
X124712315Y-76751371D01*
X124696455Y-76789661D01*
X124673429Y-76824121D01*
X124644121Y-76853429D01*
X124609661Y-76876455D01*
X124571371Y-76892315D01*
X124530724Y-76900400D01*
X124489276Y-76900400D01*
X124448629Y-76892315D01*
X124410339Y-76876455D01*
X124375879Y-76853429D01*
X124346571Y-76824121D01*
X124323545Y-76789661D01*
X124307685Y-76751371D01*
X124299600Y-76710724D01*
X124299600Y-76669276D01*
X124307685Y-76628629D01*
X124323545Y-76590339D01*
X124346571Y-76555879D01*
X124375879Y-76526571D01*
X124410339Y-76503545D01*
X124448629Y-76487685D01*
X124489276Y-76479600D01*
X124530724Y-76479600D01*
X124571371Y-76487685D01*
X124571371Y-76487685D01*
G37*
G36*
X123771371Y-76487685D02*
G01*
X123809661Y-76503545D01*
X123844121Y-76526571D01*
X123873429Y-76555879D01*
X123896455Y-76590339D01*
X123912315Y-76628629D01*
X123920400Y-76669276D01*
X123920400Y-76710724D01*
X123912315Y-76751371D01*
X123896455Y-76789661D01*
X123873429Y-76824121D01*
X123844121Y-76853429D01*
X123809661Y-76876455D01*
X123771371Y-76892315D01*
X123730724Y-76900400D01*
X123689276Y-76900400D01*
X123648629Y-76892315D01*
X123610339Y-76876455D01*
X123575879Y-76853429D01*
X123546571Y-76824121D01*
X123523545Y-76789661D01*
X123507685Y-76751371D01*
X123499600Y-76710724D01*
X123499600Y-76669276D01*
X123507685Y-76628629D01*
X123523545Y-76590339D01*
X123546571Y-76555879D01*
X123575879Y-76526571D01*
X123610339Y-76503545D01*
X123648629Y-76487685D01*
X123689276Y-76479600D01*
X123730724Y-76479600D01*
X123771371Y-76487685D01*
X123771371Y-76487685D01*
G37*
G36*
X126971371Y-76487685D02*
G01*
X127009661Y-76503545D01*
X127044121Y-76526571D01*
X127073429Y-76555879D01*
X127096455Y-76590339D01*
X127112315Y-76628629D01*
X127120400Y-76669276D01*
X127120400Y-76710724D01*
X127112315Y-76751371D01*
X127096455Y-76789661D01*
X127073429Y-76824121D01*
X127044121Y-76853429D01*
X127009661Y-76876455D01*
X126971371Y-76892315D01*
X126930724Y-76900400D01*
X126889276Y-76900400D01*
X126848629Y-76892315D01*
X126810339Y-76876455D01*
X126775879Y-76853429D01*
X126746571Y-76824121D01*
X126723545Y-76789661D01*
X126707685Y-76751371D01*
X126699600Y-76710724D01*
X126699600Y-76669276D01*
X126707685Y-76628629D01*
X126723545Y-76590339D01*
X126746571Y-76555879D01*
X126775879Y-76526571D01*
X126810339Y-76503545D01*
X126848629Y-76487685D01*
X126889276Y-76479600D01*
X126930724Y-76479600D01*
X126971371Y-76487685D01*
X126971371Y-76487685D01*
G37*
G36*
X127771371Y-76487685D02*
G01*
X127809661Y-76503545D01*
X127844121Y-76526571D01*
X127873429Y-76555879D01*
X127896455Y-76590339D01*
X127912315Y-76628629D01*
X127920400Y-76669276D01*
X127920400Y-76710724D01*
X127912315Y-76751371D01*
X127896455Y-76789661D01*
X127873429Y-76824121D01*
X127844121Y-76853429D01*
X127809661Y-76876455D01*
X127771371Y-76892315D01*
X127730724Y-76900400D01*
X127689276Y-76900400D01*
X127648629Y-76892315D01*
X127610339Y-76876455D01*
X127575879Y-76853429D01*
X127546571Y-76824121D01*
X127523545Y-76789661D01*
X127507685Y-76751371D01*
X127499600Y-76710724D01*
X127499600Y-76669276D01*
X127507685Y-76628629D01*
X127523545Y-76590339D01*
X127546571Y-76555879D01*
X127575879Y-76526571D01*
X127610339Y-76503545D01*
X127648629Y-76487685D01*
X127689276Y-76479600D01*
X127730724Y-76479600D01*
X127771371Y-76487685D01*
X127771371Y-76487685D01*
G37*
G36*
X128571371Y-76487685D02*
G01*
X128609661Y-76503545D01*
X128644121Y-76526571D01*
X128673429Y-76555879D01*
X128696455Y-76590339D01*
X128712315Y-76628629D01*
X128720400Y-76669276D01*
X128720400Y-76710724D01*
X128712315Y-76751371D01*
X128696455Y-76789661D01*
X128673429Y-76824121D01*
X128644121Y-76853429D01*
X128609661Y-76876455D01*
X128571371Y-76892315D01*
X128530724Y-76900400D01*
X128489276Y-76900400D01*
X128448629Y-76892315D01*
X128410339Y-76876455D01*
X128375879Y-76853429D01*
X128346571Y-76824121D01*
X128323545Y-76789661D01*
X128307685Y-76751371D01*
X128299600Y-76710724D01*
X128299600Y-76669276D01*
X128307685Y-76628629D01*
X128323545Y-76590339D01*
X128346571Y-76555879D01*
X128375879Y-76526571D01*
X128410339Y-76503545D01*
X128448629Y-76487685D01*
X128489276Y-76479600D01*
X128530724Y-76479600D01*
X128571371Y-76487685D01*
X128571371Y-76487685D01*
G37*
G36*
X129371371Y-76487685D02*
G01*
X129409661Y-76503545D01*
X129444121Y-76526571D01*
X129473429Y-76555879D01*
X129496455Y-76590339D01*
X129512315Y-76628629D01*
X129520400Y-76669276D01*
X129520400Y-76710724D01*
X129512315Y-76751371D01*
X129496455Y-76789661D01*
X129473429Y-76824121D01*
X129444121Y-76853429D01*
X129409661Y-76876455D01*
X129371371Y-76892315D01*
X129330724Y-76900400D01*
X129289276Y-76900400D01*
X129248629Y-76892315D01*
X129210339Y-76876455D01*
X129175879Y-76853429D01*
X129146571Y-76824121D01*
X129123545Y-76789661D01*
X129107685Y-76751371D01*
X129099600Y-76710724D01*
X129099600Y-76669276D01*
X129107685Y-76628629D01*
X129123545Y-76590339D01*
X129146571Y-76555879D01*
X129175879Y-76526571D01*
X129210339Y-76503545D01*
X129248629Y-76487685D01*
X129289276Y-76479600D01*
X129330724Y-76479600D01*
X129371371Y-76487685D01*
X129371371Y-76487685D01*
G37*
G36*
X118210400Y-76495400D02*
G01*
X117229600Y-76495400D01*
X117229600Y-75124600D01*
X118210400Y-75124600D01*
X118210400Y-76495400D01*
X118210400Y-76495400D01*
G37*
G36*
X116570400Y-76495400D02*
G01*
X115589600Y-76495400D01*
X115589600Y-75124600D01*
X116570400Y-75124600D01*
X116570400Y-76495400D01*
X116570400Y-76495400D01*
G37*
G36*
X134340400Y-76310400D02*
G01*
X133479600Y-76310400D01*
X133479600Y-75389600D01*
X134340400Y-75389600D01*
X134340400Y-76310400D01*
X134340400Y-76310400D01*
G37*
G36*
X135700400Y-76310400D02*
G01*
X134839600Y-76310400D01*
X134839600Y-75389600D01*
X135700400Y-75389600D01*
X135700400Y-76310400D01*
X135700400Y-76310400D01*
G37*
G36*
X126971371Y-75687685D02*
G01*
X127009661Y-75703545D01*
X127044121Y-75726571D01*
X127073429Y-75755879D01*
X127096455Y-75790339D01*
X127112315Y-75828629D01*
X127120400Y-75869276D01*
X127120400Y-75910724D01*
X127112315Y-75951371D01*
X127096455Y-75989661D01*
X127073429Y-76024121D01*
X127044121Y-76053429D01*
X127009661Y-76076455D01*
X126971371Y-76092315D01*
X126930724Y-76100400D01*
X126889276Y-76100400D01*
X126848629Y-76092315D01*
X126810339Y-76076455D01*
X126775879Y-76053429D01*
X126746571Y-76024121D01*
X126723545Y-75989661D01*
X126707685Y-75951371D01*
X126699600Y-75910724D01*
X126699600Y-75869276D01*
X126707685Y-75828629D01*
X126723545Y-75790339D01*
X126746571Y-75755879D01*
X126775879Y-75726571D01*
X126810339Y-75703545D01*
X126848629Y-75687685D01*
X126889276Y-75679600D01*
X126930724Y-75679600D01*
X126971371Y-75687685D01*
X126971371Y-75687685D01*
G37*
G36*
X127771371Y-75687685D02*
G01*
X127809661Y-75703545D01*
X127844121Y-75726571D01*
X127873429Y-75755879D01*
X127896455Y-75790339D01*
X127912315Y-75828629D01*
X127920400Y-75869276D01*
X127920400Y-75910724D01*
X127912315Y-75951371D01*
X127896455Y-75989661D01*
X127873429Y-76024121D01*
X127844121Y-76053429D01*
X127809661Y-76076455D01*
X127771371Y-76092315D01*
X127730724Y-76100400D01*
X127689276Y-76100400D01*
X127648629Y-76092315D01*
X127610339Y-76076455D01*
X127575879Y-76053429D01*
X127546571Y-76024121D01*
X127523545Y-75989661D01*
X127507685Y-75951371D01*
X127499600Y-75910724D01*
X127499600Y-75869276D01*
X127507685Y-75828629D01*
X127523545Y-75790339D01*
X127546571Y-75755879D01*
X127575879Y-75726571D01*
X127610339Y-75703545D01*
X127648629Y-75687685D01*
X127689276Y-75679600D01*
X127730724Y-75679600D01*
X127771371Y-75687685D01*
X127771371Y-75687685D01*
G37*
G36*
X124571371Y-75687685D02*
G01*
X124609661Y-75703545D01*
X124644121Y-75726571D01*
X124673429Y-75755879D01*
X124696455Y-75790339D01*
X124712315Y-75828629D01*
X124720400Y-75869276D01*
X124720400Y-75910724D01*
X124712315Y-75951371D01*
X124696455Y-75989661D01*
X124673429Y-76024121D01*
X124644121Y-76053429D01*
X124609661Y-76076455D01*
X124571371Y-76092315D01*
X124530724Y-76100400D01*
X124489276Y-76100400D01*
X124448629Y-76092315D01*
X124410339Y-76076455D01*
X124375879Y-76053429D01*
X124346571Y-76024121D01*
X124323545Y-75989661D01*
X124307685Y-75951371D01*
X124299600Y-75910724D01*
X124299600Y-75869276D01*
X124307685Y-75828629D01*
X124323545Y-75790339D01*
X124346571Y-75755879D01*
X124375879Y-75726571D01*
X124410339Y-75703545D01*
X124448629Y-75687685D01*
X124489276Y-75679600D01*
X124530724Y-75679600D01*
X124571371Y-75687685D01*
X124571371Y-75687685D01*
G37*
G36*
X128571371Y-75687685D02*
G01*
X128609661Y-75703545D01*
X128644121Y-75726571D01*
X128673429Y-75755879D01*
X128696455Y-75790339D01*
X128712315Y-75828629D01*
X128720400Y-75869276D01*
X128720400Y-75910724D01*
X128712315Y-75951371D01*
X128696455Y-75989661D01*
X128673429Y-76024121D01*
X128644121Y-76053429D01*
X128609661Y-76076455D01*
X128571371Y-76092315D01*
X128530724Y-76100400D01*
X128489276Y-76100400D01*
X128448629Y-76092315D01*
X128410339Y-76076455D01*
X128375879Y-76053429D01*
X128346571Y-76024121D01*
X128323545Y-75989661D01*
X128307685Y-75951371D01*
X128299600Y-75910724D01*
X128299600Y-75869276D01*
X128307685Y-75828629D01*
X128323545Y-75790339D01*
X128346571Y-75755879D01*
X128375879Y-75726571D01*
X128410339Y-75703545D01*
X128448629Y-75687685D01*
X128489276Y-75679600D01*
X128530724Y-75679600D01*
X128571371Y-75687685D01*
X128571371Y-75687685D01*
G37*
G36*
X129371371Y-75687685D02*
G01*
X129409661Y-75703545D01*
X129444121Y-75726571D01*
X129473429Y-75755879D01*
X129496455Y-75790339D01*
X129512315Y-75828629D01*
X129520400Y-75869276D01*
X129520400Y-75910724D01*
X129512315Y-75951371D01*
X129496455Y-75989661D01*
X129473429Y-76024121D01*
X129444121Y-76053429D01*
X129409661Y-76076455D01*
X129371371Y-76092315D01*
X129330724Y-76100400D01*
X129289276Y-76100400D01*
X129248629Y-76092315D01*
X129210339Y-76076455D01*
X129175879Y-76053429D01*
X129146571Y-76024121D01*
X129123545Y-75989661D01*
X129107685Y-75951371D01*
X129099600Y-75910724D01*
X129099600Y-75869276D01*
X129107685Y-75828629D01*
X129123545Y-75790339D01*
X129146571Y-75755879D01*
X129175879Y-75726571D01*
X129210339Y-75703545D01*
X129248629Y-75687685D01*
X129289276Y-75679600D01*
X129330724Y-75679600D01*
X129371371Y-75687685D01*
X129371371Y-75687685D01*
G37*
G36*
X130171371Y-75687685D02*
G01*
X130209661Y-75703545D01*
X130244121Y-75726571D01*
X130273429Y-75755879D01*
X130296455Y-75790339D01*
X130312315Y-75828629D01*
X130320400Y-75869276D01*
X130320400Y-75910724D01*
X130312315Y-75951371D01*
X130296455Y-75989661D01*
X130273429Y-76024121D01*
X130244121Y-76053429D01*
X130209661Y-76076455D01*
X130171371Y-76092315D01*
X130130724Y-76100400D01*
X130089276Y-76100400D01*
X130048629Y-76092315D01*
X130010339Y-76076455D01*
X129975879Y-76053429D01*
X129946571Y-76024121D01*
X129923545Y-75989661D01*
X129907685Y-75951371D01*
X129899600Y-75910724D01*
X129899600Y-75869276D01*
X129907685Y-75828629D01*
X129923545Y-75790339D01*
X129946571Y-75755879D01*
X129975879Y-75726571D01*
X130010339Y-75703545D01*
X130048629Y-75687685D01*
X130089276Y-75679600D01*
X130130724Y-75679600D01*
X130171371Y-75687685D01*
X130171371Y-75687685D01*
G37*
G36*
X130971371Y-75687685D02*
G01*
X131009661Y-75703545D01*
X131044121Y-75726571D01*
X131073429Y-75755879D01*
X131096455Y-75790339D01*
X131112315Y-75828629D01*
X131120400Y-75869276D01*
X131120400Y-75910724D01*
X131112315Y-75951371D01*
X131096455Y-75989661D01*
X131073429Y-76024121D01*
X131044121Y-76053429D01*
X131009661Y-76076455D01*
X130971371Y-76092315D01*
X130930724Y-76100400D01*
X130889276Y-76100400D01*
X130848629Y-76092315D01*
X130810339Y-76076455D01*
X130775879Y-76053429D01*
X130746571Y-76024121D01*
X130723545Y-75989661D01*
X130707685Y-75951371D01*
X130699600Y-75910724D01*
X130699600Y-75869276D01*
X130707685Y-75828629D01*
X130723545Y-75790339D01*
X130746571Y-75755879D01*
X130775879Y-75726571D01*
X130810339Y-75703545D01*
X130848629Y-75687685D01*
X130889276Y-75679600D01*
X130930724Y-75679600D01*
X130971371Y-75687685D01*
X130971371Y-75687685D01*
G37*
G36*
X125371371Y-75687685D02*
G01*
X125409661Y-75703545D01*
X125444121Y-75726571D01*
X125473429Y-75755879D01*
X125496455Y-75790339D01*
X125512315Y-75828629D01*
X125520400Y-75869276D01*
X125520400Y-75910724D01*
X125512315Y-75951371D01*
X125496455Y-75989661D01*
X125473429Y-76024121D01*
X125444121Y-76053429D01*
X125409661Y-76076455D01*
X125371371Y-76092315D01*
X125330724Y-76100400D01*
X125289276Y-76100400D01*
X125248629Y-76092315D01*
X125210339Y-76076455D01*
X125175879Y-76053429D01*
X125146571Y-76024121D01*
X125123545Y-75989661D01*
X125107685Y-75951371D01*
X125099600Y-75910724D01*
X125099600Y-75869276D01*
X125107685Y-75828629D01*
X125123545Y-75790339D01*
X125146571Y-75755879D01*
X125175879Y-75726571D01*
X125210339Y-75703545D01*
X125248629Y-75687685D01*
X125289276Y-75679600D01*
X125330724Y-75679600D01*
X125371371Y-75687685D01*
X125371371Y-75687685D01*
G37*
G36*
X123771371Y-75687685D02*
G01*
X123809661Y-75703545D01*
X123844121Y-75726571D01*
X123873429Y-75755879D01*
X123896455Y-75790339D01*
X123912315Y-75828629D01*
X123920400Y-75869276D01*
X123920400Y-75910724D01*
X123912315Y-75951371D01*
X123896455Y-75989661D01*
X123873429Y-76024121D01*
X123844121Y-76053429D01*
X123809661Y-76076455D01*
X123771371Y-76092315D01*
X123730724Y-76100400D01*
X123689276Y-76100400D01*
X123648629Y-76092315D01*
X123610339Y-76076455D01*
X123575879Y-76053429D01*
X123546571Y-76024121D01*
X123523545Y-75989661D01*
X123507685Y-75951371D01*
X123499600Y-75910724D01*
X123499600Y-75869276D01*
X123507685Y-75828629D01*
X123523545Y-75790339D01*
X123546571Y-75755879D01*
X123575879Y-75726571D01*
X123610339Y-75703545D01*
X123648629Y-75687685D01*
X123689276Y-75679600D01*
X123730724Y-75679600D01*
X123771371Y-75687685D01*
X123771371Y-75687685D01*
G37*
G36*
X126171371Y-75687685D02*
G01*
X126209661Y-75703545D01*
X126244121Y-75726571D01*
X126273429Y-75755879D01*
X126296455Y-75790339D01*
X126312315Y-75828629D01*
X126320400Y-75869276D01*
X126320400Y-75910724D01*
X126312315Y-75951371D01*
X126296455Y-75989661D01*
X126273429Y-76024121D01*
X126244121Y-76053429D01*
X126209661Y-76076455D01*
X126171371Y-76092315D01*
X126130724Y-76100400D01*
X126089276Y-76100400D01*
X126048629Y-76092315D01*
X126010339Y-76076455D01*
X125975879Y-76053429D01*
X125946571Y-76024121D01*
X125923545Y-75989661D01*
X125907685Y-75951371D01*
X125899600Y-75910724D01*
X125899600Y-75869276D01*
X125907685Y-75828629D01*
X125923545Y-75790339D01*
X125946571Y-75755879D01*
X125975879Y-75726571D01*
X126010339Y-75703545D01*
X126048629Y-75687685D01*
X126089276Y-75679600D01*
X126130724Y-75679600D01*
X126171371Y-75687685D01*
X126171371Y-75687685D01*
G37*
G36*
X110890400Y-76020400D02*
G01*
X110029600Y-76020400D01*
X110029600Y-75099600D01*
X110890400Y-75099600D01*
X110890400Y-76020400D01*
X110890400Y-76020400D01*
G37*
G36*
X109530400Y-76020400D02*
G01*
X108669600Y-76020400D01*
X108669600Y-75099600D01*
X109530400Y-75099600D01*
X109530400Y-76020400D01*
X109530400Y-76020400D01*
G37*
G36*
X121845400Y-75770400D02*
G01*
X120874600Y-75770400D01*
X120874600Y-74829600D01*
X121845400Y-74829600D01*
X121845400Y-75770400D01*
X121845400Y-75770400D01*
G37*
G36*
X120260400Y-75730400D02*
G01*
X119339600Y-75730400D01*
X119339600Y-74869600D01*
X120260400Y-74869600D01*
X120260400Y-75730400D01*
X120260400Y-75730400D01*
G37*
G36*
X126971371Y-74887685D02*
G01*
X127009661Y-74903545D01*
X127044121Y-74926571D01*
X127073429Y-74955879D01*
X127096455Y-74990339D01*
X127112315Y-75028629D01*
X127120400Y-75069276D01*
X127120400Y-75110724D01*
X127112315Y-75151371D01*
X127096455Y-75189661D01*
X127073429Y-75224121D01*
X127044121Y-75253429D01*
X127009661Y-75276455D01*
X126971371Y-75292315D01*
X126930724Y-75300400D01*
X126889276Y-75300400D01*
X126848629Y-75292315D01*
X126810339Y-75276455D01*
X126775879Y-75253429D01*
X126746571Y-75224121D01*
X126723545Y-75189661D01*
X126707685Y-75151371D01*
X126699600Y-75110724D01*
X126699600Y-75069276D01*
X126707685Y-75028629D01*
X126723545Y-74990339D01*
X126746571Y-74955879D01*
X126775879Y-74926571D01*
X126810339Y-74903545D01*
X126848629Y-74887685D01*
X126889276Y-74879600D01*
X126930724Y-74879600D01*
X126971371Y-74887685D01*
X126971371Y-74887685D01*
G37*
G36*
X123771371Y-74887685D02*
G01*
X123809661Y-74903545D01*
X123844121Y-74926571D01*
X123873429Y-74955879D01*
X123896455Y-74990339D01*
X123912315Y-75028629D01*
X123920400Y-75069276D01*
X123920400Y-75110724D01*
X123912315Y-75151371D01*
X123896455Y-75189661D01*
X123873429Y-75224121D01*
X123844121Y-75253429D01*
X123809661Y-75276455D01*
X123771371Y-75292315D01*
X123730724Y-75300400D01*
X123689276Y-75300400D01*
X123648629Y-75292315D01*
X123610339Y-75276455D01*
X123575879Y-75253429D01*
X123546571Y-75224121D01*
X123523545Y-75189661D01*
X123507685Y-75151371D01*
X123499600Y-75110724D01*
X123499600Y-75069276D01*
X123507685Y-75028629D01*
X123523545Y-74990339D01*
X123546571Y-74955879D01*
X123575879Y-74926571D01*
X123610339Y-74903545D01*
X123648629Y-74887685D01*
X123689276Y-74879600D01*
X123730724Y-74879600D01*
X123771371Y-74887685D01*
X123771371Y-74887685D01*
G37*
G36*
X130971371Y-74887685D02*
G01*
X131009661Y-74903545D01*
X131044121Y-74926571D01*
X131073429Y-74955879D01*
X131096455Y-74990339D01*
X131112315Y-75028629D01*
X131120400Y-75069276D01*
X131120400Y-75110724D01*
X131112315Y-75151371D01*
X131096455Y-75189661D01*
X131073429Y-75224121D01*
X131044121Y-75253429D01*
X131009661Y-75276455D01*
X130971371Y-75292315D01*
X130930724Y-75300400D01*
X130889276Y-75300400D01*
X130848629Y-75292315D01*
X130810339Y-75276455D01*
X130775879Y-75253429D01*
X130746571Y-75224121D01*
X130723545Y-75189661D01*
X130707685Y-75151371D01*
X130699600Y-75110724D01*
X130699600Y-75069276D01*
X130707685Y-75028629D01*
X130723545Y-74990339D01*
X130746571Y-74955879D01*
X130775879Y-74926571D01*
X130810339Y-74903545D01*
X130848629Y-74887685D01*
X130889276Y-74879600D01*
X130930724Y-74879600D01*
X130971371Y-74887685D01*
X130971371Y-74887685D01*
G37*
G36*
X130171371Y-74887685D02*
G01*
X130209661Y-74903545D01*
X130244121Y-74926571D01*
X130273429Y-74955879D01*
X130296455Y-74990339D01*
X130312315Y-75028629D01*
X130320400Y-75069276D01*
X130320400Y-75110724D01*
X130312315Y-75151371D01*
X130296455Y-75189661D01*
X130273429Y-75224121D01*
X130244121Y-75253429D01*
X130209661Y-75276455D01*
X130171371Y-75292315D01*
X130130724Y-75300400D01*
X130089276Y-75300400D01*
X130048629Y-75292315D01*
X130010339Y-75276455D01*
X129975879Y-75253429D01*
X129946571Y-75224121D01*
X129923545Y-75189661D01*
X129907685Y-75151371D01*
X129899600Y-75110724D01*
X129899600Y-75069276D01*
X129907685Y-75028629D01*
X129923545Y-74990339D01*
X129946571Y-74955879D01*
X129975879Y-74926571D01*
X130010339Y-74903545D01*
X130048629Y-74887685D01*
X130089276Y-74879600D01*
X130130724Y-74879600D01*
X130171371Y-74887685D01*
X130171371Y-74887685D01*
G37*
G36*
X129371371Y-74887685D02*
G01*
X129409661Y-74903545D01*
X129444121Y-74926571D01*
X129473429Y-74955879D01*
X129496455Y-74990339D01*
X129512315Y-75028629D01*
X129520400Y-75069276D01*
X129520400Y-75110724D01*
X129512315Y-75151371D01*
X129496455Y-75189661D01*
X129473429Y-75224121D01*
X129444121Y-75253429D01*
X129409661Y-75276455D01*
X129371371Y-75292315D01*
X129330724Y-75300400D01*
X129289276Y-75300400D01*
X129248629Y-75292315D01*
X129210339Y-75276455D01*
X129175879Y-75253429D01*
X129146571Y-75224121D01*
X129123545Y-75189661D01*
X129107685Y-75151371D01*
X129099600Y-75110724D01*
X129099600Y-75069276D01*
X129107685Y-75028629D01*
X129123545Y-74990339D01*
X129146571Y-74955879D01*
X129175879Y-74926571D01*
X129210339Y-74903545D01*
X129248629Y-74887685D01*
X129289276Y-74879600D01*
X129330724Y-74879600D01*
X129371371Y-74887685D01*
X129371371Y-74887685D01*
G37*
G36*
X127771371Y-74887685D02*
G01*
X127809661Y-74903545D01*
X127844121Y-74926571D01*
X127873429Y-74955879D01*
X127896455Y-74990339D01*
X127912315Y-75028629D01*
X127920400Y-75069276D01*
X127920400Y-75110724D01*
X127912315Y-75151371D01*
X127896455Y-75189661D01*
X127873429Y-75224121D01*
X127844121Y-75253429D01*
X127809661Y-75276455D01*
X127771371Y-75292315D01*
X127730724Y-75300400D01*
X127689276Y-75300400D01*
X127648629Y-75292315D01*
X127610339Y-75276455D01*
X127575879Y-75253429D01*
X127546571Y-75224121D01*
X127523545Y-75189661D01*
X127507685Y-75151371D01*
X127499600Y-75110724D01*
X127499600Y-75069276D01*
X127507685Y-75028629D01*
X127523545Y-74990339D01*
X127546571Y-74955879D01*
X127575879Y-74926571D01*
X127610339Y-74903545D01*
X127648629Y-74887685D01*
X127689276Y-74879600D01*
X127730724Y-74879600D01*
X127771371Y-74887685D01*
X127771371Y-74887685D01*
G37*
G36*
X128571371Y-74887685D02*
G01*
X128609661Y-74903545D01*
X128644121Y-74926571D01*
X128673429Y-74955879D01*
X128696455Y-74990339D01*
X128712315Y-75028629D01*
X128720400Y-75069276D01*
X128720400Y-75110724D01*
X128712315Y-75151371D01*
X128696455Y-75189661D01*
X128673429Y-75224121D01*
X128644121Y-75253429D01*
X128609661Y-75276455D01*
X128571371Y-75292315D01*
X128530724Y-75300400D01*
X128489276Y-75300400D01*
X128448629Y-75292315D01*
X128410339Y-75276455D01*
X128375879Y-75253429D01*
X128346571Y-75224121D01*
X128323545Y-75189661D01*
X128307685Y-75151371D01*
X128299600Y-75110724D01*
X128299600Y-75069276D01*
X128307685Y-75028629D01*
X128323545Y-74990339D01*
X128346571Y-74955879D01*
X128375879Y-74926571D01*
X128410339Y-74903545D01*
X128448629Y-74887685D01*
X128489276Y-74879600D01*
X128530724Y-74879600D01*
X128571371Y-74887685D01*
X128571371Y-74887685D01*
G37*
G36*
X125371371Y-74887685D02*
G01*
X125409661Y-74903545D01*
X125444121Y-74926571D01*
X125473429Y-74955879D01*
X125496455Y-74990339D01*
X125512315Y-75028629D01*
X125520400Y-75069276D01*
X125520400Y-75110724D01*
X125512315Y-75151371D01*
X125496455Y-75189661D01*
X125473429Y-75224121D01*
X125444121Y-75253429D01*
X125409661Y-75276455D01*
X125371371Y-75292315D01*
X125330724Y-75300400D01*
X125289276Y-75300400D01*
X125248629Y-75292315D01*
X125210339Y-75276455D01*
X125175879Y-75253429D01*
X125146571Y-75224121D01*
X125123545Y-75189661D01*
X125107685Y-75151371D01*
X125099600Y-75110724D01*
X125099600Y-75069276D01*
X125107685Y-75028629D01*
X125123545Y-74990339D01*
X125146571Y-74955879D01*
X125175879Y-74926571D01*
X125210339Y-74903545D01*
X125248629Y-74887685D01*
X125289276Y-74879600D01*
X125330724Y-74879600D01*
X125371371Y-74887685D01*
X125371371Y-74887685D01*
G37*
G36*
X124571371Y-74887685D02*
G01*
X124609661Y-74903545D01*
X124644121Y-74926571D01*
X124673429Y-74955879D01*
X124696455Y-74990339D01*
X124712315Y-75028629D01*
X124720400Y-75069276D01*
X124720400Y-75110724D01*
X124712315Y-75151371D01*
X124696455Y-75189661D01*
X124673429Y-75224121D01*
X124644121Y-75253429D01*
X124609661Y-75276455D01*
X124571371Y-75292315D01*
X124530724Y-75300400D01*
X124489276Y-75300400D01*
X124448629Y-75292315D01*
X124410339Y-75276455D01*
X124375879Y-75253429D01*
X124346571Y-75224121D01*
X124323545Y-75189661D01*
X124307685Y-75151371D01*
X124299600Y-75110724D01*
X124299600Y-75069276D01*
X124307685Y-75028629D01*
X124323545Y-74990339D01*
X124346571Y-74955879D01*
X124375879Y-74926571D01*
X124410339Y-74903545D01*
X124448629Y-74887685D01*
X124489276Y-74879600D01*
X124530724Y-74879600D01*
X124571371Y-74887685D01*
X124571371Y-74887685D01*
G37*
G36*
X126171371Y-74887685D02*
G01*
X126209661Y-74903545D01*
X126244121Y-74926571D01*
X126273429Y-74955879D01*
X126296455Y-74990339D01*
X126312315Y-75028629D01*
X126320400Y-75069276D01*
X126320400Y-75110724D01*
X126312315Y-75151371D01*
X126296455Y-75189661D01*
X126273429Y-75224121D01*
X126244121Y-75253429D01*
X126209661Y-75276455D01*
X126171371Y-75292315D01*
X126130724Y-75300400D01*
X126089276Y-75300400D01*
X126048629Y-75292315D01*
X126010339Y-75276455D01*
X125975879Y-75253429D01*
X125946571Y-75224121D01*
X125923545Y-75189661D01*
X125907685Y-75151371D01*
X125899600Y-75110724D01*
X125899600Y-75069276D01*
X125907685Y-75028629D01*
X125923545Y-74990339D01*
X125946571Y-74955879D01*
X125975879Y-74926571D01*
X126010339Y-74903545D01*
X126048629Y-74887685D01*
X126089276Y-74879600D01*
X126130724Y-74879600D01*
X126171371Y-74887685D01*
X126171371Y-74887685D01*
G37*
G36*
X135700400Y-74975400D02*
G01*
X134719600Y-74975400D01*
X134719600Y-73604600D01*
X135700400Y-73604600D01*
X135700400Y-74975400D01*
X135700400Y-74975400D01*
G37*
G36*
X134060400Y-74975400D02*
G01*
X133079600Y-74975400D01*
X133079600Y-73604600D01*
X134060400Y-73604600D01*
X134060400Y-74975400D01*
X134060400Y-74975400D01*
G37*
G36*
X116630400Y-74620400D02*
G01*
X115769600Y-74620400D01*
X115769600Y-73699600D01*
X116630400Y-73699600D01*
X116630400Y-74620400D01*
X116630400Y-74620400D01*
G37*
G36*
X117990400Y-74620400D02*
G01*
X117129600Y-74620400D01*
X117129600Y-73699600D01*
X117990400Y-73699600D01*
X117990400Y-74620400D01*
X117990400Y-74620400D01*
G37*
G36*
X110890400Y-74610400D02*
G01*
X110029600Y-74610400D01*
X110029600Y-73689600D01*
X110890400Y-73689600D01*
X110890400Y-74610400D01*
X110890400Y-74610400D01*
G37*
G36*
X109530400Y-74610400D02*
G01*
X108669600Y-74610400D01*
X108669600Y-73689600D01*
X109530400Y-73689600D01*
X109530400Y-74610400D01*
X109530400Y-74610400D01*
G37*
G36*
X111865400Y-74575400D02*
G01*
X111324600Y-74575400D01*
X111324600Y-73964600D01*
X111865400Y-73964600D01*
X111865400Y-74575400D01*
X111865400Y-74575400D01*
G37*
G36*
X112775400Y-74575400D02*
G01*
X112234600Y-74575400D01*
X112234600Y-73964600D01*
X112775400Y-73964600D01*
X112775400Y-74575400D01*
X112775400Y-74575400D01*
G37*
G36*
X126171371Y-74087685D02*
G01*
X126209661Y-74103545D01*
X126244121Y-74126571D01*
X126273429Y-74155879D01*
X126296455Y-74190339D01*
X126312315Y-74228629D01*
X126320400Y-74269276D01*
X126320400Y-74310724D01*
X126312315Y-74351371D01*
X126296455Y-74389661D01*
X126273429Y-74424121D01*
X126244121Y-74453429D01*
X126209661Y-74476455D01*
X126171371Y-74492315D01*
X126130724Y-74500400D01*
X126089276Y-74500400D01*
X126048629Y-74492315D01*
X126010339Y-74476455D01*
X125975879Y-74453429D01*
X125946571Y-74424121D01*
X125923545Y-74389661D01*
X125907685Y-74351371D01*
X125899600Y-74310724D01*
X125899600Y-74269276D01*
X125907685Y-74228629D01*
X125923545Y-74190339D01*
X125946571Y-74155879D01*
X125975879Y-74126571D01*
X126010339Y-74103545D01*
X126048629Y-74087685D01*
X126089276Y-74079600D01*
X126130724Y-74079600D01*
X126171371Y-74087685D01*
X126171371Y-74087685D01*
G37*
G36*
X130971371Y-74087685D02*
G01*
X131009661Y-74103545D01*
X131044121Y-74126571D01*
X131073429Y-74155879D01*
X131096455Y-74190339D01*
X131112315Y-74228629D01*
X131120400Y-74269276D01*
X131120400Y-74310724D01*
X131112315Y-74351371D01*
X131096455Y-74389661D01*
X131073429Y-74424121D01*
X131044121Y-74453429D01*
X131009661Y-74476455D01*
X130971371Y-74492315D01*
X130930724Y-74500400D01*
X130889276Y-74500400D01*
X130848629Y-74492315D01*
X130810339Y-74476455D01*
X130775879Y-74453429D01*
X130746571Y-74424121D01*
X130723545Y-74389661D01*
X130707685Y-74351371D01*
X130699600Y-74310724D01*
X130699600Y-74269276D01*
X130707685Y-74228629D01*
X130723545Y-74190339D01*
X130746571Y-74155879D01*
X130775879Y-74126571D01*
X130810339Y-74103545D01*
X130848629Y-74087685D01*
X130889276Y-74079600D01*
X130930724Y-74079600D01*
X130971371Y-74087685D01*
X130971371Y-74087685D01*
G37*
G36*
X123771371Y-74087685D02*
G01*
X123809661Y-74103545D01*
X123844121Y-74126571D01*
X123873429Y-74155879D01*
X123896455Y-74190339D01*
X123912315Y-74228629D01*
X123920400Y-74269276D01*
X123920400Y-74310724D01*
X123912315Y-74351371D01*
X123896455Y-74389661D01*
X123873429Y-74424121D01*
X123844121Y-74453429D01*
X123809661Y-74476455D01*
X123771371Y-74492315D01*
X123730724Y-74500400D01*
X123689276Y-74500400D01*
X123648629Y-74492315D01*
X123610339Y-74476455D01*
X123575879Y-74453429D01*
X123546571Y-74424121D01*
X123523545Y-74389661D01*
X123507685Y-74351371D01*
X123499600Y-74310724D01*
X123499600Y-74269276D01*
X123507685Y-74228629D01*
X123523545Y-74190339D01*
X123546571Y-74155879D01*
X123575879Y-74126571D01*
X123610339Y-74103545D01*
X123648629Y-74087685D01*
X123689276Y-74079600D01*
X123730724Y-74079600D01*
X123771371Y-74087685D01*
X123771371Y-74087685D01*
G37*
G36*
X124571371Y-74087685D02*
G01*
X124609661Y-74103545D01*
X124644121Y-74126571D01*
X124673429Y-74155879D01*
X124696455Y-74190339D01*
X124712315Y-74228629D01*
X124720400Y-74269276D01*
X124720400Y-74310724D01*
X124712315Y-74351371D01*
X124696455Y-74389661D01*
X124673429Y-74424121D01*
X124644121Y-74453429D01*
X124609661Y-74476455D01*
X124571371Y-74492315D01*
X124530724Y-74500400D01*
X124489276Y-74500400D01*
X124448629Y-74492315D01*
X124410339Y-74476455D01*
X124375879Y-74453429D01*
X124346571Y-74424121D01*
X124323545Y-74389661D01*
X124307685Y-74351371D01*
X124299600Y-74310724D01*
X124299600Y-74269276D01*
X124307685Y-74228629D01*
X124323545Y-74190339D01*
X124346571Y-74155879D01*
X124375879Y-74126571D01*
X124410339Y-74103545D01*
X124448629Y-74087685D01*
X124489276Y-74079600D01*
X124530724Y-74079600D01*
X124571371Y-74087685D01*
X124571371Y-74087685D01*
G37*
G36*
X125371371Y-74087685D02*
G01*
X125409661Y-74103545D01*
X125444121Y-74126571D01*
X125473429Y-74155879D01*
X125496455Y-74190339D01*
X125512315Y-74228629D01*
X125520400Y-74269276D01*
X125520400Y-74310724D01*
X125512315Y-74351371D01*
X125496455Y-74389661D01*
X125473429Y-74424121D01*
X125444121Y-74453429D01*
X125409661Y-74476455D01*
X125371371Y-74492315D01*
X125330724Y-74500400D01*
X125289276Y-74500400D01*
X125248629Y-74492315D01*
X125210339Y-74476455D01*
X125175879Y-74453429D01*
X125146571Y-74424121D01*
X125123545Y-74389661D01*
X125107685Y-74351371D01*
X125099600Y-74310724D01*
X125099600Y-74269276D01*
X125107685Y-74228629D01*
X125123545Y-74190339D01*
X125146571Y-74155879D01*
X125175879Y-74126571D01*
X125210339Y-74103545D01*
X125248629Y-74087685D01*
X125289276Y-74079600D01*
X125330724Y-74079600D01*
X125371371Y-74087685D01*
X125371371Y-74087685D01*
G37*
G36*
X126971371Y-74087685D02*
G01*
X127009661Y-74103545D01*
X127044121Y-74126571D01*
X127073429Y-74155879D01*
X127096455Y-74190339D01*
X127112315Y-74228629D01*
X127120400Y-74269276D01*
X127120400Y-74310724D01*
X127112315Y-74351371D01*
X127096455Y-74389661D01*
X127073429Y-74424121D01*
X127044121Y-74453429D01*
X127009661Y-74476455D01*
X126971371Y-74492315D01*
X126930724Y-74500400D01*
X126889276Y-74500400D01*
X126848629Y-74492315D01*
X126810339Y-74476455D01*
X126775879Y-74453429D01*
X126746571Y-74424121D01*
X126723545Y-74389661D01*
X126707685Y-74351371D01*
X126699600Y-74310724D01*
X126699600Y-74269276D01*
X126707685Y-74228629D01*
X126723545Y-74190339D01*
X126746571Y-74155879D01*
X126775879Y-74126571D01*
X126810339Y-74103545D01*
X126848629Y-74087685D01*
X126889276Y-74079600D01*
X126930724Y-74079600D01*
X126971371Y-74087685D01*
X126971371Y-74087685D01*
G37*
G36*
X127771371Y-74087685D02*
G01*
X127809661Y-74103545D01*
X127844121Y-74126571D01*
X127873429Y-74155879D01*
X127896455Y-74190339D01*
X127912315Y-74228629D01*
X127920400Y-74269276D01*
X127920400Y-74310724D01*
X127912315Y-74351371D01*
X127896455Y-74389661D01*
X127873429Y-74424121D01*
X127844121Y-74453429D01*
X127809661Y-74476455D01*
X127771371Y-74492315D01*
X127730724Y-74500400D01*
X127689276Y-74500400D01*
X127648629Y-74492315D01*
X127610339Y-74476455D01*
X127575879Y-74453429D01*
X127546571Y-74424121D01*
X127523545Y-74389661D01*
X127507685Y-74351371D01*
X127499600Y-74310724D01*
X127499600Y-74269276D01*
X127507685Y-74228629D01*
X127523545Y-74190339D01*
X127546571Y-74155879D01*
X127575879Y-74126571D01*
X127610339Y-74103545D01*
X127648629Y-74087685D01*
X127689276Y-74079600D01*
X127730724Y-74079600D01*
X127771371Y-74087685D01*
X127771371Y-74087685D01*
G37*
G36*
X128571371Y-74087685D02*
G01*
X128609661Y-74103545D01*
X128644121Y-74126571D01*
X128673429Y-74155879D01*
X128696455Y-74190339D01*
X128712315Y-74228629D01*
X128720400Y-74269276D01*
X128720400Y-74310724D01*
X128712315Y-74351371D01*
X128696455Y-74389661D01*
X128673429Y-74424121D01*
X128644121Y-74453429D01*
X128609661Y-74476455D01*
X128571371Y-74492315D01*
X128530724Y-74500400D01*
X128489276Y-74500400D01*
X128448629Y-74492315D01*
X128410339Y-74476455D01*
X128375879Y-74453429D01*
X128346571Y-74424121D01*
X128323545Y-74389661D01*
X128307685Y-74351371D01*
X128299600Y-74310724D01*
X128299600Y-74269276D01*
X128307685Y-74228629D01*
X128323545Y-74190339D01*
X128346571Y-74155879D01*
X128375879Y-74126571D01*
X128410339Y-74103545D01*
X128448629Y-74087685D01*
X128489276Y-74079600D01*
X128530724Y-74079600D01*
X128571371Y-74087685D01*
X128571371Y-74087685D01*
G37*
G36*
X129371371Y-74087685D02*
G01*
X129409661Y-74103545D01*
X129444121Y-74126571D01*
X129473429Y-74155879D01*
X129496455Y-74190339D01*
X129512315Y-74228629D01*
X129520400Y-74269276D01*
X129520400Y-74310724D01*
X129512315Y-74351371D01*
X129496455Y-74389661D01*
X129473429Y-74424121D01*
X129444121Y-74453429D01*
X129409661Y-74476455D01*
X129371371Y-74492315D01*
X129330724Y-74500400D01*
X129289276Y-74500400D01*
X129248629Y-74492315D01*
X129210339Y-74476455D01*
X129175879Y-74453429D01*
X129146571Y-74424121D01*
X129123545Y-74389661D01*
X129107685Y-74351371D01*
X129099600Y-74310724D01*
X129099600Y-74269276D01*
X129107685Y-74228629D01*
X129123545Y-74190339D01*
X129146571Y-74155879D01*
X129175879Y-74126571D01*
X129210339Y-74103545D01*
X129248629Y-74087685D01*
X129289276Y-74079600D01*
X129330724Y-74079600D01*
X129371371Y-74087685D01*
X129371371Y-74087685D01*
G37*
G36*
X130171371Y-74087685D02*
G01*
X130209661Y-74103545D01*
X130244121Y-74126571D01*
X130273429Y-74155879D01*
X130296455Y-74190339D01*
X130312315Y-74228629D01*
X130320400Y-74269276D01*
X130320400Y-74310724D01*
X130312315Y-74351371D01*
X130296455Y-74389661D01*
X130273429Y-74424121D01*
X130244121Y-74453429D01*
X130209661Y-74476455D01*
X130171371Y-74492315D01*
X130130724Y-74500400D01*
X130089276Y-74500400D01*
X130048629Y-74492315D01*
X130010339Y-74476455D01*
X129975879Y-74453429D01*
X129946571Y-74424121D01*
X129923545Y-74389661D01*
X129907685Y-74351371D01*
X129899600Y-74310724D01*
X129899600Y-74269276D01*
X129907685Y-74228629D01*
X129923545Y-74190339D01*
X129946571Y-74155879D01*
X129975879Y-74126571D01*
X130010339Y-74103545D01*
X130048629Y-74087685D01*
X130089276Y-74079600D01*
X130130724Y-74079600D01*
X130171371Y-74087685D01*
X130171371Y-74087685D01*
G37*
G36*
X106600400Y-74380400D02*
G01*
X105679600Y-74380400D01*
X105679600Y-73519600D01*
X106600400Y-73519600D01*
X106600400Y-74380400D01*
X106600400Y-74380400D01*
G37*
G36*
X108040400Y-74380400D02*
G01*
X107119600Y-74380400D01*
X107119600Y-73519600D01*
X108040400Y-73519600D01*
X108040400Y-74380400D01*
X108040400Y-74380400D01*
G37*
G36*
X120700400Y-74330400D02*
G01*
X119779600Y-74330400D01*
X119779600Y-73469600D01*
X120700400Y-73469600D01*
X120700400Y-74330400D01*
X120700400Y-74330400D01*
G37*
G36*
X114040400Y-73820400D02*
G01*
X113179600Y-73820400D01*
X113179600Y-72899600D01*
X114040400Y-72899600D01*
X114040400Y-73820400D01*
X114040400Y-73820400D01*
G37*
G36*
X115400400Y-73820400D02*
G01*
X114539600Y-73820400D01*
X114539600Y-72899600D01*
X115400400Y-72899600D01*
X115400400Y-73820400D01*
X115400400Y-73820400D01*
G37*
G36*
X123771371Y-73287685D02*
G01*
X123809661Y-73303545D01*
X123844121Y-73326571D01*
X123873429Y-73355879D01*
X123896455Y-73390339D01*
X123912315Y-73428629D01*
X123920400Y-73469276D01*
X123920400Y-73510724D01*
X123912315Y-73551371D01*
X123896455Y-73589661D01*
X123873429Y-73624121D01*
X123844121Y-73653429D01*
X123809661Y-73676455D01*
X123771371Y-73692315D01*
X123730724Y-73700400D01*
X123689276Y-73700400D01*
X123648629Y-73692315D01*
X123610339Y-73676455D01*
X123575879Y-73653429D01*
X123546571Y-73624121D01*
X123523545Y-73589661D01*
X123507685Y-73551371D01*
X123499600Y-73510724D01*
X123499600Y-73469276D01*
X123507685Y-73428629D01*
X123523545Y-73390339D01*
X123546571Y-73355879D01*
X123575879Y-73326571D01*
X123610339Y-73303545D01*
X123648629Y-73287685D01*
X123689276Y-73279600D01*
X123730724Y-73279600D01*
X123771371Y-73287685D01*
X123771371Y-73287685D01*
G37*
G36*
X130171371Y-73287685D02*
G01*
X130209661Y-73303545D01*
X130244121Y-73326571D01*
X130273429Y-73355879D01*
X130296455Y-73390339D01*
X130312315Y-73428629D01*
X130320400Y-73469276D01*
X130320400Y-73510724D01*
X130312315Y-73551371D01*
X130296455Y-73589661D01*
X130273429Y-73624121D01*
X130244121Y-73653429D01*
X130209661Y-73676455D01*
X130171371Y-73692315D01*
X130130724Y-73700400D01*
X130089276Y-73700400D01*
X130048629Y-73692315D01*
X130010339Y-73676455D01*
X129975879Y-73653429D01*
X129946571Y-73624121D01*
X129923545Y-73589661D01*
X129907685Y-73551371D01*
X129899600Y-73510724D01*
X129899600Y-73469276D01*
X129907685Y-73428629D01*
X129923545Y-73390339D01*
X129946571Y-73355879D01*
X129975879Y-73326571D01*
X130010339Y-73303545D01*
X130048629Y-73287685D01*
X130089276Y-73279600D01*
X130130724Y-73279600D01*
X130171371Y-73287685D01*
X130171371Y-73287685D01*
G37*
G36*
X129371371Y-73287685D02*
G01*
X129409661Y-73303545D01*
X129444121Y-73326571D01*
X129473429Y-73355879D01*
X129496455Y-73390339D01*
X129512315Y-73428629D01*
X129520400Y-73469276D01*
X129520400Y-73510724D01*
X129512315Y-73551371D01*
X129496455Y-73589661D01*
X129473429Y-73624121D01*
X129444121Y-73653429D01*
X129409661Y-73676455D01*
X129371371Y-73692315D01*
X129330724Y-73700400D01*
X129289276Y-73700400D01*
X129248629Y-73692315D01*
X129210339Y-73676455D01*
X129175879Y-73653429D01*
X129146571Y-73624121D01*
X129123545Y-73589661D01*
X129107685Y-73551371D01*
X129099600Y-73510724D01*
X129099600Y-73469276D01*
X129107685Y-73428629D01*
X129123545Y-73390339D01*
X129146571Y-73355879D01*
X129175879Y-73326571D01*
X129210339Y-73303545D01*
X129248629Y-73287685D01*
X129289276Y-73279600D01*
X129330724Y-73279600D01*
X129371371Y-73287685D01*
X129371371Y-73287685D01*
G37*
G36*
X128571371Y-73287685D02*
G01*
X128609661Y-73303545D01*
X128644121Y-73326571D01*
X128673429Y-73355879D01*
X128696455Y-73390339D01*
X128712315Y-73428629D01*
X128720400Y-73469276D01*
X128720400Y-73510724D01*
X128712315Y-73551371D01*
X128696455Y-73589661D01*
X128673429Y-73624121D01*
X128644121Y-73653429D01*
X128609661Y-73676455D01*
X128571371Y-73692315D01*
X128530724Y-73700400D01*
X128489276Y-73700400D01*
X128448629Y-73692315D01*
X128410339Y-73676455D01*
X128375879Y-73653429D01*
X128346571Y-73624121D01*
X128323545Y-73589661D01*
X128307685Y-73551371D01*
X128299600Y-73510724D01*
X128299600Y-73469276D01*
X128307685Y-73428629D01*
X128323545Y-73390339D01*
X128346571Y-73355879D01*
X128375879Y-73326571D01*
X128410339Y-73303545D01*
X128448629Y-73287685D01*
X128489276Y-73279600D01*
X128530724Y-73279600D01*
X128571371Y-73287685D01*
X128571371Y-73287685D01*
G37*
G36*
X126971371Y-73287685D02*
G01*
X127009661Y-73303545D01*
X127044121Y-73326571D01*
X127073429Y-73355879D01*
X127096455Y-73390339D01*
X127112315Y-73428629D01*
X127120400Y-73469276D01*
X127120400Y-73510724D01*
X127112315Y-73551371D01*
X127096455Y-73589661D01*
X127073429Y-73624121D01*
X127044121Y-73653429D01*
X127009661Y-73676455D01*
X126971371Y-73692315D01*
X126930724Y-73700400D01*
X126889276Y-73700400D01*
X126848629Y-73692315D01*
X126810339Y-73676455D01*
X126775879Y-73653429D01*
X126746571Y-73624121D01*
X126723545Y-73589661D01*
X126707685Y-73551371D01*
X126699600Y-73510724D01*
X126699600Y-73469276D01*
X126707685Y-73428629D01*
X126723545Y-73390339D01*
X126746571Y-73355879D01*
X126775879Y-73326571D01*
X126810339Y-73303545D01*
X126848629Y-73287685D01*
X126889276Y-73279600D01*
X126930724Y-73279600D01*
X126971371Y-73287685D01*
X126971371Y-73287685D01*
G37*
G36*
X126171371Y-73287685D02*
G01*
X126209661Y-73303545D01*
X126244121Y-73326571D01*
X126273429Y-73355879D01*
X126296455Y-73390339D01*
X126312315Y-73428629D01*
X126320400Y-73469276D01*
X126320400Y-73510724D01*
X126312315Y-73551371D01*
X126296455Y-73589661D01*
X126273429Y-73624121D01*
X126244121Y-73653429D01*
X126209661Y-73676455D01*
X126171371Y-73692315D01*
X126130724Y-73700400D01*
X126089276Y-73700400D01*
X126048629Y-73692315D01*
X126010339Y-73676455D01*
X125975879Y-73653429D01*
X125946571Y-73624121D01*
X125923545Y-73589661D01*
X125907685Y-73551371D01*
X125899600Y-73510724D01*
X125899600Y-73469276D01*
X125907685Y-73428629D01*
X125923545Y-73390339D01*
X125946571Y-73355879D01*
X125975879Y-73326571D01*
X126010339Y-73303545D01*
X126048629Y-73287685D01*
X126089276Y-73279600D01*
X126130724Y-73279600D01*
X126171371Y-73287685D01*
X126171371Y-73287685D01*
G37*
G36*
X125371371Y-73287685D02*
G01*
X125409661Y-73303545D01*
X125444121Y-73326571D01*
X125473429Y-73355879D01*
X125496455Y-73390339D01*
X125512315Y-73428629D01*
X125520400Y-73469276D01*
X125520400Y-73510724D01*
X125512315Y-73551371D01*
X125496455Y-73589661D01*
X125473429Y-73624121D01*
X125444121Y-73653429D01*
X125409661Y-73676455D01*
X125371371Y-73692315D01*
X125330724Y-73700400D01*
X125289276Y-73700400D01*
X125248629Y-73692315D01*
X125210339Y-73676455D01*
X125175879Y-73653429D01*
X125146571Y-73624121D01*
X125123545Y-73589661D01*
X125107685Y-73551371D01*
X125099600Y-73510724D01*
X125099600Y-73469276D01*
X125107685Y-73428629D01*
X125123545Y-73390339D01*
X125146571Y-73355879D01*
X125175879Y-73326571D01*
X125210339Y-73303545D01*
X125248629Y-73287685D01*
X125289276Y-73279600D01*
X125330724Y-73279600D01*
X125371371Y-73287685D01*
X125371371Y-73287685D01*
G37*
G36*
X124571371Y-73287685D02*
G01*
X124609661Y-73303545D01*
X124644121Y-73326571D01*
X124673429Y-73355879D01*
X124696455Y-73390339D01*
X124712315Y-73428629D01*
X124720400Y-73469276D01*
X124720400Y-73510724D01*
X124712315Y-73551371D01*
X124696455Y-73589661D01*
X124673429Y-73624121D01*
X124644121Y-73653429D01*
X124609661Y-73676455D01*
X124571371Y-73692315D01*
X124530724Y-73700400D01*
X124489276Y-73700400D01*
X124448629Y-73692315D01*
X124410339Y-73676455D01*
X124375879Y-73653429D01*
X124346571Y-73624121D01*
X124323545Y-73589661D01*
X124307685Y-73551371D01*
X124299600Y-73510724D01*
X124299600Y-73469276D01*
X124307685Y-73428629D01*
X124323545Y-73390339D01*
X124346571Y-73355879D01*
X124375879Y-73326571D01*
X124410339Y-73303545D01*
X124448629Y-73287685D01*
X124489276Y-73279600D01*
X124530724Y-73279600D01*
X124571371Y-73287685D01*
X124571371Y-73287685D01*
G37*
G36*
X130971371Y-73287685D02*
G01*
X131009661Y-73303545D01*
X131044121Y-73326571D01*
X131073429Y-73355879D01*
X131096455Y-73390339D01*
X131112315Y-73428629D01*
X131120400Y-73469276D01*
X131120400Y-73510724D01*
X131112315Y-73551371D01*
X131096455Y-73589661D01*
X131073429Y-73624121D01*
X131044121Y-73653429D01*
X131009661Y-73676455D01*
X130971371Y-73692315D01*
X130930724Y-73700400D01*
X130889276Y-73700400D01*
X130848629Y-73692315D01*
X130810339Y-73676455D01*
X130775879Y-73653429D01*
X130746571Y-73624121D01*
X130723545Y-73589661D01*
X130707685Y-73551371D01*
X130699600Y-73510724D01*
X130699600Y-73469276D01*
X130707685Y-73428629D01*
X130723545Y-73390339D01*
X130746571Y-73355879D01*
X130775879Y-73326571D01*
X130810339Y-73303545D01*
X130848629Y-73287685D01*
X130889276Y-73279600D01*
X130930724Y-73279600D01*
X130971371Y-73287685D01*
X130971371Y-73287685D01*
G37*
G36*
X127771371Y-73287685D02*
G01*
X127809661Y-73303545D01*
X127844121Y-73326571D01*
X127873429Y-73355879D01*
X127896455Y-73390339D01*
X127912315Y-73428629D01*
X127920400Y-73469276D01*
X127920400Y-73510724D01*
X127912315Y-73551371D01*
X127896455Y-73589661D01*
X127873429Y-73624121D01*
X127844121Y-73653429D01*
X127809661Y-73676455D01*
X127771371Y-73692315D01*
X127730724Y-73700400D01*
X127689276Y-73700400D01*
X127648629Y-73692315D01*
X127610339Y-73676455D01*
X127575879Y-73653429D01*
X127546571Y-73624121D01*
X127523545Y-73589661D01*
X127507685Y-73551371D01*
X127499600Y-73510724D01*
X127499600Y-73469276D01*
X127507685Y-73428629D01*
X127523545Y-73390339D01*
X127546571Y-73355879D01*
X127575879Y-73326571D01*
X127610339Y-73303545D01*
X127648629Y-73287685D01*
X127689276Y-73279600D01*
X127730724Y-73279600D01*
X127771371Y-73287685D01*
X127771371Y-73287685D01*
G37*
G36*
X112790400Y-73550400D02*
G01*
X112159600Y-73550400D01*
X112159600Y-72869600D01*
X112790400Y-72869600D01*
X112790400Y-73550400D01*
X112790400Y-73550400D01*
G37*
G36*
X111900400Y-73550400D02*
G01*
X111269600Y-73550400D01*
X111269600Y-72869600D01*
X111900400Y-72869600D01*
X111900400Y-73550400D01*
X111900400Y-73550400D01*
G37*
G36*
X141105400Y-73475400D02*
G01*
X139354600Y-73475400D01*
X139354600Y-71724600D01*
X141105400Y-71724600D01*
X141105400Y-73475400D01*
X141105400Y-73475400D01*
G37*
G36*
X110880400Y-73255400D02*
G01*
X109969600Y-73255400D01*
X109969600Y-72864600D01*
X110880400Y-72864600D01*
X110880400Y-73255400D01*
X110880400Y-73255400D01*
G37*
G36*
X116690400Y-73245400D02*
G01*
X115779600Y-73245400D01*
X115779600Y-72854600D01*
X116690400Y-72854600D01*
X116690400Y-73245400D01*
X116690400Y-73245400D01*
G37*
G36*
X137295400Y-73200400D02*
G01*
X136684600Y-73200400D01*
X136684600Y-72659600D01*
X137295400Y-72659600D01*
X137295400Y-73200400D01*
X137295400Y-73200400D01*
G37*
G36*
X108040400Y-73020400D02*
G01*
X107119600Y-73020400D01*
X107119600Y-72159600D01*
X108040400Y-72159600D01*
X108040400Y-73020400D01*
X108040400Y-73020400D01*
G37*
G36*
X106600400Y-73020400D02*
G01*
X105679600Y-73020400D01*
X105679600Y-72159600D01*
X106600400Y-72159600D01*
X106600400Y-73020400D01*
X106600400Y-73020400D01*
G37*
G36*
X120700400Y-72970400D02*
G01*
X119779600Y-72970400D01*
X119779600Y-72109600D01*
X120700400Y-72109600D01*
X120700400Y-72970400D01*
X120700400Y-72970400D01*
G37*
G36*
X126171371Y-72487685D02*
G01*
X126209661Y-72503545D01*
X126244121Y-72526571D01*
X126273429Y-72555879D01*
X126296455Y-72590339D01*
X126312315Y-72628629D01*
X126320400Y-72669276D01*
X126320400Y-72710724D01*
X126312315Y-72751371D01*
X126296455Y-72789661D01*
X126273429Y-72824121D01*
X126244121Y-72853429D01*
X126209661Y-72876455D01*
X126171371Y-72892315D01*
X126130724Y-72900400D01*
X126089276Y-72900400D01*
X126048629Y-72892315D01*
X126010339Y-72876455D01*
X125975879Y-72853429D01*
X125946571Y-72824121D01*
X125923545Y-72789661D01*
X125907685Y-72751371D01*
X125899600Y-72710724D01*
X125899600Y-72669276D01*
X125907685Y-72628629D01*
X125923545Y-72590339D01*
X125946571Y-72555879D01*
X125975879Y-72526571D01*
X126010339Y-72503545D01*
X126048629Y-72487685D01*
X126089276Y-72479600D01*
X126130724Y-72479600D01*
X126171371Y-72487685D01*
X126171371Y-72487685D01*
G37*
G36*
X129371371Y-72487685D02*
G01*
X129409661Y-72503545D01*
X129444121Y-72526571D01*
X129473429Y-72555879D01*
X129496455Y-72590339D01*
X129512315Y-72628629D01*
X129520400Y-72669276D01*
X129520400Y-72710724D01*
X129512315Y-72751371D01*
X129496455Y-72789661D01*
X129473429Y-72824121D01*
X129444121Y-72853429D01*
X129409661Y-72876455D01*
X129371371Y-72892315D01*
X129330724Y-72900400D01*
X129289276Y-72900400D01*
X129248629Y-72892315D01*
X129210339Y-72876455D01*
X129175879Y-72853429D01*
X129146571Y-72824121D01*
X129123545Y-72789661D01*
X129107685Y-72751371D01*
X129099600Y-72710724D01*
X129099600Y-72669276D01*
X129107685Y-72628629D01*
X129123545Y-72590339D01*
X129146571Y-72555879D01*
X129175879Y-72526571D01*
X129210339Y-72503545D01*
X129248629Y-72487685D01*
X129289276Y-72479600D01*
X129330724Y-72479600D01*
X129371371Y-72487685D01*
X129371371Y-72487685D01*
G37*
G36*
X126971371Y-72487685D02*
G01*
X127009661Y-72503545D01*
X127044121Y-72526571D01*
X127073429Y-72555879D01*
X127096455Y-72590339D01*
X127112315Y-72628629D01*
X127120400Y-72669276D01*
X127120400Y-72710724D01*
X127112315Y-72751371D01*
X127096455Y-72789661D01*
X127073429Y-72824121D01*
X127044121Y-72853429D01*
X127009661Y-72876455D01*
X126971371Y-72892315D01*
X126930724Y-72900400D01*
X126889276Y-72900400D01*
X126848629Y-72892315D01*
X126810339Y-72876455D01*
X126775879Y-72853429D01*
X126746571Y-72824121D01*
X126723545Y-72789661D01*
X126707685Y-72751371D01*
X126699600Y-72710724D01*
X126699600Y-72669276D01*
X126707685Y-72628629D01*
X126723545Y-72590339D01*
X126746571Y-72555879D01*
X126775879Y-72526571D01*
X126810339Y-72503545D01*
X126848629Y-72487685D01*
X126889276Y-72479600D01*
X126930724Y-72479600D01*
X126971371Y-72487685D01*
X126971371Y-72487685D01*
G37*
G36*
X125371371Y-72487685D02*
G01*
X125409661Y-72503545D01*
X125444121Y-72526571D01*
X125473429Y-72555879D01*
X125496455Y-72590339D01*
X125512315Y-72628629D01*
X125520400Y-72669276D01*
X125520400Y-72710724D01*
X125512315Y-72751371D01*
X125496455Y-72789661D01*
X125473429Y-72824121D01*
X125444121Y-72853429D01*
X125409661Y-72876455D01*
X125371371Y-72892315D01*
X125330724Y-72900400D01*
X125289276Y-72900400D01*
X125248629Y-72892315D01*
X125210339Y-72876455D01*
X125175879Y-72853429D01*
X125146571Y-72824121D01*
X125123545Y-72789661D01*
X125107685Y-72751371D01*
X125099600Y-72710724D01*
X125099600Y-72669276D01*
X125107685Y-72628629D01*
X125123545Y-72590339D01*
X125146571Y-72555879D01*
X125175879Y-72526571D01*
X125210339Y-72503545D01*
X125248629Y-72487685D01*
X125289276Y-72479600D01*
X125330724Y-72479600D01*
X125371371Y-72487685D01*
X125371371Y-72487685D01*
G37*
G36*
X130971371Y-72487685D02*
G01*
X131009661Y-72503545D01*
X131044121Y-72526571D01*
X131073429Y-72555879D01*
X131096455Y-72590339D01*
X131112315Y-72628629D01*
X131120400Y-72669276D01*
X131120400Y-72710724D01*
X131112315Y-72751371D01*
X131096455Y-72789661D01*
X131073429Y-72824121D01*
X131044121Y-72853429D01*
X131009661Y-72876455D01*
X130971371Y-72892315D01*
X130930724Y-72900400D01*
X130889276Y-72900400D01*
X130848629Y-72892315D01*
X130810339Y-72876455D01*
X130775879Y-72853429D01*
X130746571Y-72824121D01*
X130723545Y-72789661D01*
X130707685Y-72751371D01*
X130699600Y-72710724D01*
X130699600Y-72669276D01*
X130707685Y-72628629D01*
X130723545Y-72590339D01*
X130746571Y-72555879D01*
X130775879Y-72526571D01*
X130810339Y-72503545D01*
X130848629Y-72487685D01*
X130889276Y-72479600D01*
X130930724Y-72479600D01*
X130971371Y-72487685D01*
X130971371Y-72487685D01*
G37*
G36*
X124571371Y-72487685D02*
G01*
X124609661Y-72503545D01*
X124644121Y-72526571D01*
X124673429Y-72555879D01*
X124696455Y-72590339D01*
X124712315Y-72628629D01*
X124720400Y-72669276D01*
X124720400Y-72710724D01*
X124712315Y-72751371D01*
X124696455Y-72789661D01*
X124673429Y-72824121D01*
X124644121Y-72853429D01*
X124609661Y-72876455D01*
X124571371Y-72892315D01*
X124530724Y-72900400D01*
X124489276Y-72900400D01*
X124448629Y-72892315D01*
X124410339Y-72876455D01*
X124375879Y-72853429D01*
X124346571Y-72824121D01*
X124323545Y-72789661D01*
X124307685Y-72751371D01*
X124299600Y-72710724D01*
X124299600Y-72669276D01*
X124307685Y-72628629D01*
X124323545Y-72590339D01*
X124346571Y-72555879D01*
X124375879Y-72526571D01*
X124410339Y-72503545D01*
X124448629Y-72487685D01*
X124489276Y-72479600D01*
X124530724Y-72479600D01*
X124571371Y-72487685D01*
X124571371Y-72487685D01*
G37*
G36*
X123771371Y-72487685D02*
G01*
X123809661Y-72503545D01*
X123844121Y-72526571D01*
X123873429Y-72555879D01*
X123896455Y-72590339D01*
X123912315Y-72628629D01*
X123920400Y-72669276D01*
X123920400Y-72710724D01*
X123912315Y-72751371D01*
X123896455Y-72789661D01*
X123873429Y-72824121D01*
X123844121Y-72853429D01*
X123809661Y-72876455D01*
X123771371Y-72892315D01*
X123730724Y-72900400D01*
X123689276Y-72900400D01*
X123648629Y-72892315D01*
X123610339Y-72876455D01*
X123575879Y-72853429D01*
X123546571Y-72824121D01*
X123523545Y-72789661D01*
X123507685Y-72751371D01*
X123499600Y-72710724D01*
X123499600Y-72669276D01*
X123507685Y-72628629D01*
X123523545Y-72590339D01*
X123546571Y-72555879D01*
X123575879Y-72526571D01*
X123610339Y-72503545D01*
X123648629Y-72487685D01*
X123689276Y-72479600D01*
X123730724Y-72479600D01*
X123771371Y-72487685D01*
X123771371Y-72487685D01*
G37*
G36*
X127771371Y-72487685D02*
G01*
X127809661Y-72503545D01*
X127844121Y-72526571D01*
X127873429Y-72555879D01*
X127896455Y-72590339D01*
X127912315Y-72628629D01*
X127920400Y-72669276D01*
X127920400Y-72710724D01*
X127912315Y-72751371D01*
X127896455Y-72789661D01*
X127873429Y-72824121D01*
X127844121Y-72853429D01*
X127809661Y-72876455D01*
X127771371Y-72892315D01*
X127730724Y-72900400D01*
X127689276Y-72900400D01*
X127648629Y-72892315D01*
X127610339Y-72876455D01*
X127575879Y-72853429D01*
X127546571Y-72824121D01*
X127523545Y-72789661D01*
X127507685Y-72751371D01*
X127499600Y-72710724D01*
X127499600Y-72669276D01*
X127507685Y-72628629D01*
X127523545Y-72590339D01*
X127546571Y-72555879D01*
X127575879Y-72526571D01*
X127610339Y-72503545D01*
X127648629Y-72487685D01*
X127689276Y-72479600D01*
X127730724Y-72479600D01*
X127771371Y-72487685D01*
X127771371Y-72487685D01*
G37*
G36*
X128571371Y-72487685D02*
G01*
X128609661Y-72503545D01*
X128644121Y-72526571D01*
X128673429Y-72555879D01*
X128696455Y-72590339D01*
X128712315Y-72628629D01*
X128720400Y-72669276D01*
X128720400Y-72710724D01*
X128712315Y-72751371D01*
X128696455Y-72789661D01*
X128673429Y-72824121D01*
X128644121Y-72853429D01*
X128609661Y-72876455D01*
X128571371Y-72892315D01*
X128530724Y-72900400D01*
X128489276Y-72900400D01*
X128448629Y-72892315D01*
X128410339Y-72876455D01*
X128375879Y-72853429D01*
X128346571Y-72824121D01*
X128323545Y-72789661D01*
X128307685Y-72751371D01*
X128299600Y-72710724D01*
X128299600Y-72669276D01*
X128307685Y-72628629D01*
X128323545Y-72590339D01*
X128346571Y-72555879D01*
X128375879Y-72526571D01*
X128410339Y-72503545D01*
X128448629Y-72487685D01*
X128489276Y-72479600D01*
X128530724Y-72479600D01*
X128571371Y-72487685D01*
X128571371Y-72487685D01*
G37*
G36*
X130171371Y-72487685D02*
G01*
X130209661Y-72503545D01*
X130244121Y-72526571D01*
X130273429Y-72555879D01*
X130296455Y-72590339D01*
X130312315Y-72628629D01*
X130320400Y-72669276D01*
X130320400Y-72710724D01*
X130312315Y-72751371D01*
X130296455Y-72789661D01*
X130273429Y-72824121D01*
X130244121Y-72853429D01*
X130209661Y-72876455D01*
X130171371Y-72892315D01*
X130130724Y-72900400D01*
X130089276Y-72900400D01*
X130048629Y-72892315D01*
X130010339Y-72876455D01*
X129975879Y-72853429D01*
X129946571Y-72824121D01*
X129923545Y-72789661D01*
X129907685Y-72751371D01*
X129899600Y-72710724D01*
X129899600Y-72669276D01*
X129907685Y-72628629D01*
X129923545Y-72590339D01*
X129946571Y-72555879D01*
X129975879Y-72526571D01*
X130010339Y-72503545D01*
X130048629Y-72487685D01*
X130089276Y-72479600D01*
X130130724Y-72479600D01*
X130171371Y-72487685D01*
X130171371Y-72487685D01*
G37*
G36*
X108905400Y-72865400D02*
G01*
X108514600Y-72865400D01*
X108514600Y-71954600D01*
X108905400Y-71954600D01*
X108905400Y-72865400D01*
X108905400Y-72865400D01*
G37*
G36*
X137295400Y-72290400D02*
G01*
X136684600Y-72290400D01*
X136684600Y-71749600D01*
X137295400Y-71749600D01*
X137295400Y-72290400D01*
X137295400Y-72290400D01*
G37*
G36*
X128571371Y-71687685D02*
G01*
X128609661Y-71703545D01*
X128644121Y-71726571D01*
X128673429Y-71755879D01*
X128696455Y-71790339D01*
X128712315Y-71828629D01*
X128720400Y-71869276D01*
X128720400Y-71910724D01*
X128712315Y-71951371D01*
X128696455Y-71989661D01*
X128673429Y-72024121D01*
X128644121Y-72053429D01*
X128609661Y-72076455D01*
X128571371Y-72092315D01*
X128530724Y-72100400D01*
X128489276Y-72100400D01*
X128448629Y-72092315D01*
X128410339Y-72076455D01*
X128375879Y-72053429D01*
X128346571Y-72024121D01*
X128323545Y-71989661D01*
X128307685Y-71951371D01*
X128299600Y-71910724D01*
X128299600Y-71869276D01*
X128307685Y-71828629D01*
X128323545Y-71790339D01*
X128346571Y-71755879D01*
X128375879Y-71726571D01*
X128410339Y-71703545D01*
X128448629Y-71687685D01*
X128489276Y-71679600D01*
X128530724Y-71679600D01*
X128571371Y-71687685D01*
X128571371Y-71687685D01*
G37*
G36*
X129371371Y-71687685D02*
G01*
X129409661Y-71703545D01*
X129444121Y-71726571D01*
X129473429Y-71755879D01*
X129496455Y-71790339D01*
X129512315Y-71828629D01*
X129520400Y-71869276D01*
X129520400Y-71910724D01*
X129512315Y-71951371D01*
X129496455Y-71989661D01*
X129473429Y-72024121D01*
X129444121Y-72053429D01*
X129409661Y-72076455D01*
X129371371Y-72092315D01*
X129330724Y-72100400D01*
X129289276Y-72100400D01*
X129248629Y-72092315D01*
X129210339Y-72076455D01*
X129175879Y-72053429D01*
X129146571Y-72024121D01*
X129123545Y-71989661D01*
X129107685Y-71951371D01*
X129099600Y-71910724D01*
X129099600Y-71869276D01*
X129107685Y-71828629D01*
X129123545Y-71790339D01*
X129146571Y-71755879D01*
X129175879Y-71726571D01*
X129210339Y-71703545D01*
X129248629Y-71687685D01*
X129289276Y-71679600D01*
X129330724Y-71679600D01*
X129371371Y-71687685D01*
X129371371Y-71687685D01*
G37*
G36*
X127771371Y-71687685D02*
G01*
X127809661Y-71703545D01*
X127844121Y-71726571D01*
X127873429Y-71755879D01*
X127896455Y-71790339D01*
X127912315Y-71828629D01*
X127920400Y-71869276D01*
X127920400Y-71910724D01*
X127912315Y-71951371D01*
X127896455Y-71989661D01*
X127873429Y-72024121D01*
X127844121Y-72053429D01*
X127809661Y-72076455D01*
X127771371Y-72092315D01*
X127730724Y-72100400D01*
X127689276Y-72100400D01*
X127648629Y-72092315D01*
X127610339Y-72076455D01*
X127575879Y-72053429D01*
X127546571Y-72024121D01*
X127523545Y-71989661D01*
X127507685Y-71951371D01*
X127499600Y-71910724D01*
X127499600Y-71869276D01*
X127507685Y-71828629D01*
X127523545Y-71790339D01*
X127546571Y-71755879D01*
X127575879Y-71726571D01*
X127610339Y-71703545D01*
X127648629Y-71687685D01*
X127689276Y-71679600D01*
X127730724Y-71679600D01*
X127771371Y-71687685D01*
X127771371Y-71687685D01*
G37*
G36*
X123771371Y-71687685D02*
G01*
X123809661Y-71703545D01*
X123844121Y-71726571D01*
X123873429Y-71755879D01*
X123896455Y-71790339D01*
X123912315Y-71828629D01*
X123920400Y-71869276D01*
X123920400Y-71910724D01*
X123912315Y-71951371D01*
X123896455Y-71989661D01*
X123873429Y-72024121D01*
X123844121Y-72053429D01*
X123809661Y-72076455D01*
X123771371Y-72092315D01*
X123730724Y-72100400D01*
X123689276Y-72100400D01*
X123648629Y-72092315D01*
X123610339Y-72076455D01*
X123575879Y-72053429D01*
X123546571Y-72024121D01*
X123523545Y-71989661D01*
X123507685Y-71951371D01*
X123499600Y-71910724D01*
X123499600Y-71869276D01*
X123507685Y-71828629D01*
X123523545Y-71790339D01*
X123546571Y-71755879D01*
X123575879Y-71726571D01*
X123610339Y-71703545D01*
X123648629Y-71687685D01*
X123689276Y-71679600D01*
X123730724Y-71679600D01*
X123771371Y-71687685D01*
X123771371Y-71687685D01*
G37*
G36*
X130171371Y-71687685D02*
G01*
X130209661Y-71703545D01*
X130244121Y-71726571D01*
X130273429Y-71755879D01*
X130296455Y-71790339D01*
X130312315Y-71828629D01*
X130320400Y-71869276D01*
X130320400Y-71910724D01*
X130312315Y-71951371D01*
X130296455Y-71989661D01*
X130273429Y-72024121D01*
X130244121Y-72053429D01*
X130209661Y-72076455D01*
X130171371Y-72092315D01*
X130130724Y-72100400D01*
X130089276Y-72100400D01*
X130048629Y-72092315D01*
X130010339Y-72076455D01*
X129975879Y-72053429D01*
X129946571Y-72024121D01*
X129923545Y-71989661D01*
X129907685Y-71951371D01*
X129899600Y-71910724D01*
X129899600Y-71869276D01*
X129907685Y-71828629D01*
X129923545Y-71790339D01*
X129946571Y-71755879D01*
X129975879Y-71726571D01*
X130010339Y-71703545D01*
X130048629Y-71687685D01*
X130089276Y-71679600D01*
X130130724Y-71679600D01*
X130171371Y-71687685D01*
X130171371Y-71687685D01*
G37*
G36*
X126171371Y-71687685D02*
G01*
X126209661Y-71703545D01*
X126244121Y-71726571D01*
X126273429Y-71755879D01*
X126296455Y-71790339D01*
X126312315Y-71828629D01*
X126320400Y-71869276D01*
X126320400Y-71910724D01*
X126312315Y-71951371D01*
X126296455Y-71989661D01*
X126273429Y-72024121D01*
X126244121Y-72053429D01*
X126209661Y-72076455D01*
X126171371Y-72092315D01*
X126130724Y-72100400D01*
X126089276Y-72100400D01*
X126048629Y-72092315D01*
X126010339Y-72076455D01*
X125975879Y-72053429D01*
X125946571Y-72024121D01*
X125923545Y-71989661D01*
X125907685Y-71951371D01*
X125899600Y-71910724D01*
X125899600Y-71869276D01*
X125907685Y-71828629D01*
X125923545Y-71790339D01*
X125946571Y-71755879D01*
X125975879Y-71726571D01*
X126010339Y-71703545D01*
X126048629Y-71687685D01*
X126089276Y-71679600D01*
X126130724Y-71679600D01*
X126171371Y-71687685D01*
X126171371Y-71687685D01*
G37*
G36*
X130971371Y-71687685D02*
G01*
X131009661Y-71703545D01*
X131044121Y-71726571D01*
X131073429Y-71755879D01*
X131096455Y-71790339D01*
X131112315Y-71828629D01*
X131120400Y-71869276D01*
X131120400Y-71910724D01*
X131112315Y-71951371D01*
X131096455Y-71989661D01*
X131073429Y-72024121D01*
X131044121Y-72053429D01*
X131009661Y-72076455D01*
X130971371Y-72092315D01*
X130930724Y-72100400D01*
X130889276Y-72100400D01*
X130848629Y-72092315D01*
X130810339Y-72076455D01*
X130775879Y-72053429D01*
X130746571Y-72024121D01*
X130723545Y-71989661D01*
X130707685Y-71951371D01*
X130699600Y-71910724D01*
X130699600Y-71869276D01*
X130707685Y-71828629D01*
X130723545Y-71790339D01*
X130746571Y-71755879D01*
X130775879Y-71726571D01*
X130810339Y-71703545D01*
X130848629Y-71687685D01*
X130889276Y-71679600D01*
X130930724Y-71679600D01*
X130971371Y-71687685D01*
X130971371Y-71687685D01*
G37*
G36*
X126971371Y-71687685D02*
G01*
X127009661Y-71703545D01*
X127044121Y-71726571D01*
X127073429Y-71755879D01*
X127096455Y-71790339D01*
X127112315Y-71828629D01*
X127120400Y-71869276D01*
X127120400Y-71910724D01*
X127112315Y-71951371D01*
X127096455Y-71989661D01*
X127073429Y-72024121D01*
X127044121Y-72053429D01*
X127009661Y-72076455D01*
X126971371Y-72092315D01*
X126930724Y-72100400D01*
X126889276Y-72100400D01*
X126848629Y-72092315D01*
X126810339Y-72076455D01*
X126775879Y-72053429D01*
X126746571Y-72024121D01*
X126723545Y-71989661D01*
X126707685Y-71951371D01*
X126699600Y-71910724D01*
X126699600Y-71869276D01*
X126707685Y-71828629D01*
X126723545Y-71790339D01*
X126746571Y-71755879D01*
X126775879Y-71726571D01*
X126810339Y-71703545D01*
X126848629Y-71687685D01*
X126889276Y-71679600D01*
X126930724Y-71679600D01*
X126971371Y-71687685D01*
X126971371Y-71687685D01*
G37*
G36*
X125371371Y-71687685D02*
G01*
X125409661Y-71703545D01*
X125444121Y-71726571D01*
X125473429Y-71755879D01*
X125496455Y-71790339D01*
X125512315Y-71828629D01*
X125520400Y-71869276D01*
X125520400Y-71910724D01*
X125512315Y-71951371D01*
X125496455Y-71989661D01*
X125473429Y-72024121D01*
X125444121Y-72053429D01*
X125409661Y-72076455D01*
X125371371Y-72092315D01*
X125330724Y-72100400D01*
X125289276Y-72100400D01*
X125248629Y-72092315D01*
X125210339Y-72076455D01*
X125175879Y-72053429D01*
X125146571Y-72024121D01*
X125123545Y-71989661D01*
X125107685Y-71951371D01*
X125099600Y-71910724D01*
X125099600Y-71869276D01*
X125107685Y-71828629D01*
X125123545Y-71790339D01*
X125146571Y-71755879D01*
X125175879Y-71726571D01*
X125210339Y-71703545D01*
X125248629Y-71687685D01*
X125289276Y-71679600D01*
X125330724Y-71679600D01*
X125371371Y-71687685D01*
X125371371Y-71687685D01*
G37*
G36*
X124571371Y-71687685D02*
G01*
X124609661Y-71703545D01*
X124644121Y-71726571D01*
X124673429Y-71755879D01*
X124696455Y-71790339D01*
X124712315Y-71828629D01*
X124720400Y-71869276D01*
X124720400Y-71910724D01*
X124712315Y-71951371D01*
X124696455Y-71989661D01*
X124673429Y-72024121D01*
X124644121Y-72053429D01*
X124609661Y-72076455D01*
X124571371Y-72092315D01*
X124530724Y-72100400D01*
X124489276Y-72100400D01*
X124448629Y-72092315D01*
X124410339Y-72076455D01*
X124375879Y-72053429D01*
X124346571Y-72024121D01*
X124323545Y-71989661D01*
X124307685Y-71951371D01*
X124299600Y-71910724D01*
X124299600Y-71869276D01*
X124307685Y-71828629D01*
X124323545Y-71790339D01*
X124346571Y-71755879D01*
X124375879Y-71726571D01*
X124410339Y-71703545D01*
X124448629Y-71687685D01*
X124489276Y-71679600D01*
X124530724Y-71679600D01*
X124571371Y-71687685D01*
X124571371Y-71687685D01*
G37*
G36*
X108905400Y-71520400D02*
G01*
X108294600Y-71520400D01*
X108294600Y-70979600D01*
X108905400Y-70979600D01*
X108905400Y-71520400D01*
X108905400Y-71520400D01*
G37*
G36*
X107880400Y-71455400D02*
G01*
X106899600Y-71455400D01*
X106899600Y-70084600D01*
X107880400Y-70084600D01*
X107880400Y-71455400D01*
X107880400Y-71455400D01*
G37*
G36*
X106240400Y-71455400D02*
G01*
X105259600Y-71455400D01*
X105259600Y-70084600D01*
X106240400Y-70084600D01*
X106240400Y-71455400D01*
X106240400Y-71455400D01*
G37*
G36*
X119459500Y-70609026D02*
G01*
X119527817Y-70637324D01*
X119589302Y-70678407D01*
X119641593Y-70730698D01*
X119682676Y-70792183D01*
X119710974Y-70860500D01*
X119725400Y-70933025D01*
X119725400Y-71006975D01*
X119710974Y-71079500D01*
X119682676Y-71147817D01*
X119641593Y-71209302D01*
X119589302Y-71261593D01*
X119527817Y-71302676D01*
X119459500Y-71330974D01*
X119386975Y-71345400D01*
X119313025Y-71345400D01*
X119240500Y-71330974D01*
X119172183Y-71302676D01*
X119110698Y-71261593D01*
X119058407Y-71209302D01*
X119017324Y-71147817D01*
X118989026Y-71079500D01*
X118974600Y-71006975D01*
X118974600Y-70933025D01*
X118989026Y-70860500D01*
X119017324Y-70792183D01*
X119058407Y-70730698D01*
X119110698Y-70678407D01*
X119172183Y-70637324D01*
X119240500Y-70609026D01*
X119313025Y-70594600D01*
X119386975Y-70594600D01*
X119459500Y-70609026D01*
X119459500Y-70609026D01*
G37*
G36*
X126171371Y-70887685D02*
G01*
X126209661Y-70903545D01*
X126244121Y-70926571D01*
X126273429Y-70955879D01*
X126296455Y-70990339D01*
X126312315Y-71028629D01*
X126320400Y-71069276D01*
X126320400Y-71110724D01*
X126312315Y-71151371D01*
X126296455Y-71189661D01*
X126273429Y-71224121D01*
X126244121Y-71253429D01*
X126209661Y-71276455D01*
X126171371Y-71292315D01*
X126130724Y-71300400D01*
X126089276Y-71300400D01*
X126048629Y-71292315D01*
X126010339Y-71276455D01*
X125975879Y-71253429D01*
X125946571Y-71224121D01*
X125923545Y-71189661D01*
X125907685Y-71151371D01*
X125899600Y-71110724D01*
X125899600Y-71069276D01*
X125907685Y-71028629D01*
X125923545Y-70990339D01*
X125946571Y-70955879D01*
X125975879Y-70926571D01*
X126010339Y-70903545D01*
X126048629Y-70887685D01*
X126089276Y-70879600D01*
X126130724Y-70879600D01*
X126171371Y-70887685D01*
X126171371Y-70887685D01*
G37*
G36*
X130971371Y-70887685D02*
G01*
X131009661Y-70903545D01*
X131044121Y-70926571D01*
X131073429Y-70955879D01*
X131096455Y-70990339D01*
X131112315Y-71028629D01*
X131120400Y-71069276D01*
X131120400Y-71110724D01*
X131112315Y-71151371D01*
X131096455Y-71189661D01*
X131073429Y-71224121D01*
X131044121Y-71253429D01*
X131009661Y-71276455D01*
X130971371Y-71292315D01*
X130930724Y-71300400D01*
X130889276Y-71300400D01*
X130848629Y-71292315D01*
X130810339Y-71276455D01*
X130775879Y-71253429D01*
X130746571Y-71224121D01*
X130723545Y-71189661D01*
X130707685Y-71151371D01*
X130699600Y-71110724D01*
X130699600Y-71069276D01*
X130707685Y-71028629D01*
X130723545Y-70990339D01*
X130746571Y-70955879D01*
X130775879Y-70926571D01*
X130810339Y-70903545D01*
X130848629Y-70887685D01*
X130889276Y-70879600D01*
X130930724Y-70879600D01*
X130971371Y-70887685D01*
X130971371Y-70887685D01*
G37*
G36*
X130171371Y-70887685D02*
G01*
X130209661Y-70903545D01*
X130244121Y-70926571D01*
X130273429Y-70955879D01*
X130296455Y-70990339D01*
X130312315Y-71028629D01*
X130320400Y-71069276D01*
X130320400Y-71110724D01*
X130312315Y-71151371D01*
X130296455Y-71189661D01*
X130273429Y-71224121D01*
X130244121Y-71253429D01*
X130209661Y-71276455D01*
X130171371Y-71292315D01*
X130130724Y-71300400D01*
X130089276Y-71300400D01*
X130048629Y-71292315D01*
X130010339Y-71276455D01*
X129975879Y-71253429D01*
X129946571Y-71224121D01*
X129923545Y-71189661D01*
X129907685Y-71151371D01*
X129899600Y-71110724D01*
X129899600Y-71069276D01*
X129907685Y-71028629D01*
X129923545Y-70990339D01*
X129946571Y-70955879D01*
X129975879Y-70926571D01*
X130010339Y-70903545D01*
X130048629Y-70887685D01*
X130089276Y-70879600D01*
X130130724Y-70879600D01*
X130171371Y-70887685D01*
X130171371Y-70887685D01*
G37*
G36*
X129371371Y-70887685D02*
G01*
X129409661Y-70903545D01*
X129444121Y-70926571D01*
X129473429Y-70955879D01*
X129496455Y-70990339D01*
X129512315Y-71028629D01*
X129520400Y-71069276D01*
X129520400Y-71110724D01*
X129512315Y-71151371D01*
X129496455Y-71189661D01*
X129473429Y-71224121D01*
X129444121Y-71253429D01*
X129409661Y-71276455D01*
X129371371Y-71292315D01*
X129330724Y-71300400D01*
X129289276Y-71300400D01*
X129248629Y-71292315D01*
X129210339Y-71276455D01*
X129175879Y-71253429D01*
X129146571Y-71224121D01*
X129123545Y-71189661D01*
X129107685Y-71151371D01*
X129099600Y-71110724D01*
X129099600Y-71069276D01*
X129107685Y-71028629D01*
X129123545Y-70990339D01*
X129146571Y-70955879D01*
X129175879Y-70926571D01*
X129210339Y-70903545D01*
X129248629Y-70887685D01*
X129289276Y-70879600D01*
X129330724Y-70879600D01*
X129371371Y-70887685D01*
X129371371Y-70887685D01*
G37*
G36*
X128571371Y-70887685D02*
G01*
X128609661Y-70903545D01*
X128644121Y-70926571D01*
X128673429Y-70955879D01*
X128696455Y-70990339D01*
X128712315Y-71028629D01*
X128720400Y-71069276D01*
X128720400Y-71110724D01*
X128712315Y-71151371D01*
X128696455Y-71189661D01*
X128673429Y-71224121D01*
X128644121Y-71253429D01*
X128609661Y-71276455D01*
X128571371Y-71292315D01*
X128530724Y-71300400D01*
X128489276Y-71300400D01*
X128448629Y-71292315D01*
X128410339Y-71276455D01*
X128375879Y-71253429D01*
X128346571Y-71224121D01*
X128323545Y-71189661D01*
X128307685Y-71151371D01*
X128299600Y-71110724D01*
X128299600Y-71069276D01*
X128307685Y-71028629D01*
X128323545Y-70990339D01*
X128346571Y-70955879D01*
X128375879Y-70926571D01*
X128410339Y-70903545D01*
X128448629Y-70887685D01*
X128489276Y-70879600D01*
X128530724Y-70879600D01*
X128571371Y-70887685D01*
X128571371Y-70887685D01*
G37*
G36*
X125371371Y-70887685D02*
G01*
X125409661Y-70903545D01*
X125444121Y-70926571D01*
X125473429Y-70955879D01*
X125496455Y-70990339D01*
X125512315Y-71028629D01*
X125520400Y-71069276D01*
X125520400Y-71110724D01*
X125512315Y-71151371D01*
X125496455Y-71189661D01*
X125473429Y-71224121D01*
X125444121Y-71253429D01*
X125409661Y-71276455D01*
X125371371Y-71292315D01*
X125330724Y-71300400D01*
X125289276Y-71300400D01*
X125248629Y-71292315D01*
X125210339Y-71276455D01*
X125175879Y-71253429D01*
X125146571Y-71224121D01*
X125123545Y-71189661D01*
X125107685Y-71151371D01*
X125099600Y-71110724D01*
X125099600Y-71069276D01*
X125107685Y-71028629D01*
X125123545Y-70990339D01*
X125146571Y-70955879D01*
X125175879Y-70926571D01*
X125210339Y-70903545D01*
X125248629Y-70887685D01*
X125289276Y-70879600D01*
X125330724Y-70879600D01*
X125371371Y-70887685D01*
X125371371Y-70887685D01*
G37*
G36*
X124571371Y-70887685D02*
G01*
X124609661Y-70903545D01*
X124644121Y-70926571D01*
X124673429Y-70955879D01*
X124696455Y-70990339D01*
X124712315Y-71028629D01*
X124720400Y-71069276D01*
X124720400Y-71110724D01*
X124712315Y-71151371D01*
X124696455Y-71189661D01*
X124673429Y-71224121D01*
X124644121Y-71253429D01*
X124609661Y-71276455D01*
X124571371Y-71292315D01*
X124530724Y-71300400D01*
X124489276Y-71300400D01*
X124448629Y-71292315D01*
X124410339Y-71276455D01*
X124375879Y-71253429D01*
X124346571Y-71224121D01*
X124323545Y-71189661D01*
X124307685Y-71151371D01*
X124299600Y-71110724D01*
X124299600Y-71069276D01*
X124307685Y-71028629D01*
X124323545Y-70990339D01*
X124346571Y-70955879D01*
X124375879Y-70926571D01*
X124410339Y-70903545D01*
X124448629Y-70887685D01*
X124489276Y-70879600D01*
X124530724Y-70879600D01*
X124571371Y-70887685D01*
X124571371Y-70887685D01*
G37*
G36*
X126971371Y-70887685D02*
G01*
X127009661Y-70903545D01*
X127044121Y-70926571D01*
X127073429Y-70955879D01*
X127096455Y-70990339D01*
X127112315Y-71028629D01*
X127120400Y-71069276D01*
X127120400Y-71110724D01*
X127112315Y-71151371D01*
X127096455Y-71189661D01*
X127073429Y-71224121D01*
X127044121Y-71253429D01*
X127009661Y-71276455D01*
X126971371Y-71292315D01*
X126930724Y-71300400D01*
X126889276Y-71300400D01*
X126848629Y-71292315D01*
X126810339Y-71276455D01*
X126775879Y-71253429D01*
X126746571Y-71224121D01*
X126723545Y-71189661D01*
X126707685Y-71151371D01*
X126699600Y-71110724D01*
X126699600Y-71069276D01*
X126707685Y-71028629D01*
X126723545Y-70990339D01*
X126746571Y-70955879D01*
X126775879Y-70926571D01*
X126810339Y-70903545D01*
X126848629Y-70887685D01*
X126889276Y-70879600D01*
X126930724Y-70879600D01*
X126971371Y-70887685D01*
X126971371Y-70887685D01*
G37*
G36*
X127771371Y-70887685D02*
G01*
X127809661Y-70903545D01*
X127844121Y-70926571D01*
X127873429Y-70955879D01*
X127896455Y-70990339D01*
X127912315Y-71028629D01*
X127920400Y-71069276D01*
X127920400Y-71110724D01*
X127912315Y-71151371D01*
X127896455Y-71189661D01*
X127873429Y-71224121D01*
X127844121Y-71253429D01*
X127809661Y-71276455D01*
X127771371Y-71292315D01*
X127730724Y-71300400D01*
X127689276Y-71300400D01*
X127648629Y-71292315D01*
X127610339Y-71276455D01*
X127575879Y-71253429D01*
X127546571Y-71224121D01*
X127523545Y-71189661D01*
X127507685Y-71151371D01*
X127499600Y-71110724D01*
X127499600Y-71069276D01*
X127507685Y-71028629D01*
X127523545Y-70990339D01*
X127546571Y-70955879D01*
X127575879Y-70926571D01*
X127610339Y-70903545D01*
X127648629Y-70887685D01*
X127689276Y-70879600D01*
X127730724Y-70879600D01*
X127771371Y-70887685D01*
X127771371Y-70887685D01*
G37*
G36*
X123771371Y-70887685D02*
G01*
X123809661Y-70903545D01*
X123844121Y-70926571D01*
X123873429Y-70955879D01*
X123896455Y-70990339D01*
X123912315Y-71028629D01*
X123920400Y-71069276D01*
X123920400Y-71110724D01*
X123912315Y-71151371D01*
X123896455Y-71189661D01*
X123873429Y-71224121D01*
X123844121Y-71253429D01*
X123809661Y-71276455D01*
X123771371Y-71292315D01*
X123730724Y-71300400D01*
X123689276Y-71300400D01*
X123648629Y-71292315D01*
X123610339Y-71276455D01*
X123575879Y-71253429D01*
X123546571Y-71224121D01*
X123523545Y-71189661D01*
X123507685Y-71151371D01*
X123499600Y-71110724D01*
X123499600Y-71069276D01*
X123507685Y-71028629D01*
X123523545Y-70990339D01*
X123546571Y-70955879D01*
X123575879Y-70926571D01*
X123610339Y-70903545D01*
X123648629Y-70887685D01*
X123689276Y-70879600D01*
X123730724Y-70879600D01*
X123771371Y-70887685D01*
X123771371Y-70887685D01*
G37*
G36*
X137180400Y-70820400D02*
G01*
X136419600Y-70820400D01*
X136419600Y-69999600D01*
X137180400Y-69999600D01*
X137180400Y-70820400D01*
X137180400Y-70820400D01*
G37*
G36*
X115920400Y-65964601D02*
G01*
X115922802Y-65988987D01*
X115929915Y-66012436D01*
X115941466Y-66034047D01*
X115957011Y-66052989D01*
X115975953Y-66068534D01*
X115997564Y-66080085D01*
X116021013Y-66087198D01*
X116045399Y-66089600D01*
X116715400Y-66089600D01*
X116715400Y-69900400D01*
X116045399Y-69900400D01*
X116021013Y-69902802D01*
X115997564Y-69909915D01*
X115975953Y-69921466D01*
X115957011Y-69937011D01*
X115941466Y-69955953D01*
X115929915Y-69977564D01*
X115922802Y-70001013D01*
X115920400Y-70025399D01*
X115920400Y-70695400D01*
X112109600Y-70695400D01*
X112109600Y-70025399D01*
X112107198Y-70001013D01*
X112100085Y-69977564D01*
X112088534Y-69955953D01*
X112072989Y-69937011D01*
X112054047Y-69921466D01*
X112032436Y-69909915D01*
X112008987Y-69902802D01*
X111984601Y-69900400D01*
X111314600Y-69900400D01*
X111314600Y-66150399D01*
X112045400Y-66150399D01*
X112045400Y-69839601D01*
X112047802Y-69863987D01*
X112054915Y-69887436D01*
X112066466Y-69909047D01*
X112082011Y-69927989D01*
X112100953Y-69943534D01*
X112122564Y-69955085D01*
X112146013Y-69962198D01*
X112170399Y-69964600D01*
X115859601Y-69964600D01*
X115883987Y-69962198D01*
X115907436Y-69955085D01*
X115929047Y-69943534D01*
X115947989Y-69927989D01*
X115963534Y-69909047D01*
X115975085Y-69887436D01*
X115982198Y-69863987D01*
X115984600Y-69839601D01*
X115984600Y-66150399D01*
X115982198Y-66126013D01*
X115975085Y-66102564D01*
X115963534Y-66080953D01*
X115947989Y-66062011D01*
X115929047Y-66046466D01*
X115907436Y-66034915D01*
X115883987Y-66027802D01*
X115859601Y-66025400D01*
X112170399Y-66025400D01*
X112146013Y-66027802D01*
X112122564Y-66034915D01*
X112100953Y-66046466D01*
X112082011Y-66062011D01*
X112066466Y-66080953D01*
X112054915Y-66102564D01*
X112047802Y-66126013D01*
X112045400Y-66150399D01*
X111314600Y-66150399D01*
X111314600Y-66089600D01*
X111984601Y-66089600D01*
X112008987Y-66087198D01*
X112032436Y-66080085D01*
X112054047Y-66068534D01*
X112072989Y-66052989D01*
X112088534Y-66034047D01*
X112100085Y-66012436D01*
X112107198Y-65988987D01*
X112109600Y-65964601D01*
X112109600Y-65294600D01*
X115920400Y-65294600D01*
X115920400Y-65964601D01*
X115920400Y-65964601D01*
G37*
G36*
X115590400Y-69570400D02*
G01*
X112439600Y-69570400D01*
X112439600Y-66419600D01*
X115590400Y-66419600D01*
X115590400Y-69570400D01*
X115590400Y-69570400D01*
G37*
G36*
X108905400Y-70610400D02*
G01*
X108294600Y-70610400D01*
X108294600Y-70069600D01*
X108905400Y-70069600D01*
X108905400Y-70610400D01*
X108905400Y-70610400D01*
G37*
G36*
X130971371Y-70087685D02*
G01*
X131009661Y-70103545D01*
X131044121Y-70126571D01*
X131073429Y-70155879D01*
X131096455Y-70190339D01*
X131112315Y-70228629D01*
X131120400Y-70269276D01*
X131120400Y-70310724D01*
X131112315Y-70351371D01*
X131096455Y-70389661D01*
X131073429Y-70424121D01*
X131044121Y-70453429D01*
X131009661Y-70476455D01*
X130971371Y-70492315D01*
X130930724Y-70500400D01*
X130889276Y-70500400D01*
X130848629Y-70492315D01*
X130810339Y-70476455D01*
X130775879Y-70453429D01*
X130746571Y-70424121D01*
X130723545Y-70389661D01*
X130707685Y-70351371D01*
X130699600Y-70310724D01*
X130699600Y-70269276D01*
X130707685Y-70228629D01*
X130723545Y-70190339D01*
X130746571Y-70155879D01*
X130775879Y-70126571D01*
X130810339Y-70103545D01*
X130848629Y-70087685D01*
X130889276Y-70079600D01*
X130930724Y-70079600D01*
X130971371Y-70087685D01*
X130971371Y-70087685D01*
G37*
G36*
X124571371Y-70087685D02*
G01*
X124609661Y-70103545D01*
X124644121Y-70126571D01*
X124673429Y-70155879D01*
X124696455Y-70190339D01*
X124712315Y-70228629D01*
X124720400Y-70269276D01*
X124720400Y-70310724D01*
X124712315Y-70351371D01*
X124696455Y-70389661D01*
X124673429Y-70424121D01*
X124644121Y-70453429D01*
X124609661Y-70476455D01*
X124571371Y-70492315D01*
X124530724Y-70500400D01*
X124489276Y-70500400D01*
X124448629Y-70492315D01*
X124410339Y-70476455D01*
X124375879Y-70453429D01*
X124346571Y-70424121D01*
X124323545Y-70389661D01*
X124307685Y-70351371D01*
X124299600Y-70310724D01*
X124299600Y-70269276D01*
X124307685Y-70228629D01*
X124323545Y-70190339D01*
X124346571Y-70155879D01*
X124375879Y-70126571D01*
X124410339Y-70103545D01*
X124448629Y-70087685D01*
X124489276Y-70079600D01*
X124530724Y-70079600D01*
X124571371Y-70087685D01*
X124571371Y-70087685D01*
G37*
G36*
X126971371Y-70087685D02*
G01*
X127009661Y-70103545D01*
X127044121Y-70126571D01*
X127073429Y-70155879D01*
X127096455Y-70190339D01*
X127112315Y-70228629D01*
X127120400Y-70269276D01*
X127120400Y-70310724D01*
X127112315Y-70351371D01*
X127096455Y-70389661D01*
X127073429Y-70424121D01*
X127044121Y-70453429D01*
X127009661Y-70476455D01*
X126971371Y-70492315D01*
X126930724Y-70500400D01*
X126889276Y-70500400D01*
X126848629Y-70492315D01*
X126810339Y-70476455D01*
X126775879Y-70453429D01*
X126746571Y-70424121D01*
X126723545Y-70389661D01*
X126707685Y-70351371D01*
X126699600Y-70310724D01*
X126699600Y-70269276D01*
X126707685Y-70228629D01*
X126723545Y-70190339D01*
X126746571Y-70155879D01*
X126775879Y-70126571D01*
X126810339Y-70103545D01*
X126848629Y-70087685D01*
X126889276Y-70079600D01*
X126930724Y-70079600D01*
X126971371Y-70087685D01*
X126971371Y-70087685D01*
G37*
G36*
X125371371Y-70087685D02*
G01*
X125409661Y-70103545D01*
X125444121Y-70126571D01*
X125473429Y-70155879D01*
X125496455Y-70190339D01*
X125512315Y-70228629D01*
X125520400Y-70269276D01*
X125520400Y-70310724D01*
X125512315Y-70351371D01*
X125496455Y-70389661D01*
X125473429Y-70424121D01*
X125444121Y-70453429D01*
X125409661Y-70476455D01*
X125371371Y-70492315D01*
X125330724Y-70500400D01*
X125289276Y-70500400D01*
X125248629Y-70492315D01*
X125210339Y-70476455D01*
X125175879Y-70453429D01*
X125146571Y-70424121D01*
X125123545Y-70389661D01*
X125107685Y-70351371D01*
X125099600Y-70310724D01*
X125099600Y-70269276D01*
X125107685Y-70228629D01*
X125123545Y-70190339D01*
X125146571Y-70155879D01*
X125175879Y-70126571D01*
X125210339Y-70103545D01*
X125248629Y-70087685D01*
X125289276Y-70079600D01*
X125330724Y-70079600D01*
X125371371Y-70087685D01*
X125371371Y-70087685D01*
G37*
G36*
X126171371Y-70087685D02*
G01*
X126209661Y-70103545D01*
X126244121Y-70126571D01*
X126273429Y-70155879D01*
X126296455Y-70190339D01*
X126312315Y-70228629D01*
X126320400Y-70269276D01*
X126320400Y-70310724D01*
X126312315Y-70351371D01*
X126296455Y-70389661D01*
X126273429Y-70424121D01*
X126244121Y-70453429D01*
X126209661Y-70476455D01*
X126171371Y-70492315D01*
X126130724Y-70500400D01*
X126089276Y-70500400D01*
X126048629Y-70492315D01*
X126010339Y-70476455D01*
X125975879Y-70453429D01*
X125946571Y-70424121D01*
X125923545Y-70389661D01*
X125907685Y-70351371D01*
X125899600Y-70310724D01*
X125899600Y-70269276D01*
X125907685Y-70228629D01*
X125923545Y-70190339D01*
X125946571Y-70155879D01*
X125975879Y-70126571D01*
X126010339Y-70103545D01*
X126048629Y-70087685D01*
X126089276Y-70079600D01*
X126130724Y-70079600D01*
X126171371Y-70087685D01*
X126171371Y-70087685D01*
G37*
G36*
X127771371Y-70087685D02*
G01*
X127809661Y-70103545D01*
X127844121Y-70126571D01*
X127873429Y-70155879D01*
X127896455Y-70190339D01*
X127912315Y-70228629D01*
X127920400Y-70269276D01*
X127920400Y-70310724D01*
X127912315Y-70351371D01*
X127896455Y-70389661D01*
X127873429Y-70424121D01*
X127844121Y-70453429D01*
X127809661Y-70476455D01*
X127771371Y-70492315D01*
X127730724Y-70500400D01*
X127689276Y-70500400D01*
X127648629Y-70492315D01*
X127610339Y-70476455D01*
X127575879Y-70453429D01*
X127546571Y-70424121D01*
X127523545Y-70389661D01*
X127507685Y-70351371D01*
X127499600Y-70310724D01*
X127499600Y-70269276D01*
X127507685Y-70228629D01*
X127523545Y-70190339D01*
X127546571Y-70155879D01*
X127575879Y-70126571D01*
X127610339Y-70103545D01*
X127648629Y-70087685D01*
X127689276Y-70079600D01*
X127730724Y-70079600D01*
X127771371Y-70087685D01*
X127771371Y-70087685D01*
G37*
G36*
X128571371Y-70087685D02*
G01*
X128609661Y-70103545D01*
X128644121Y-70126571D01*
X128673429Y-70155879D01*
X128696455Y-70190339D01*
X128712315Y-70228629D01*
X128720400Y-70269276D01*
X128720400Y-70310724D01*
X128712315Y-70351371D01*
X128696455Y-70389661D01*
X128673429Y-70424121D01*
X128644121Y-70453429D01*
X128609661Y-70476455D01*
X128571371Y-70492315D01*
X128530724Y-70500400D01*
X128489276Y-70500400D01*
X128448629Y-70492315D01*
X128410339Y-70476455D01*
X128375879Y-70453429D01*
X128346571Y-70424121D01*
X128323545Y-70389661D01*
X128307685Y-70351371D01*
X128299600Y-70310724D01*
X128299600Y-70269276D01*
X128307685Y-70228629D01*
X128323545Y-70190339D01*
X128346571Y-70155879D01*
X128375879Y-70126571D01*
X128410339Y-70103545D01*
X128448629Y-70087685D01*
X128489276Y-70079600D01*
X128530724Y-70079600D01*
X128571371Y-70087685D01*
X128571371Y-70087685D01*
G37*
G36*
X123771371Y-70087685D02*
G01*
X123809661Y-70103545D01*
X123844121Y-70126571D01*
X123873429Y-70155879D01*
X123896455Y-70190339D01*
X123912315Y-70228629D01*
X123920400Y-70269276D01*
X123920400Y-70310724D01*
X123912315Y-70351371D01*
X123896455Y-70389661D01*
X123873429Y-70424121D01*
X123844121Y-70453429D01*
X123809661Y-70476455D01*
X123771371Y-70492315D01*
X123730724Y-70500400D01*
X123689276Y-70500400D01*
X123648629Y-70492315D01*
X123610339Y-70476455D01*
X123575879Y-70453429D01*
X123546571Y-70424121D01*
X123523545Y-70389661D01*
X123507685Y-70351371D01*
X123499600Y-70310724D01*
X123499600Y-70269276D01*
X123507685Y-70228629D01*
X123523545Y-70190339D01*
X123546571Y-70155879D01*
X123575879Y-70126571D01*
X123610339Y-70103545D01*
X123648629Y-70087685D01*
X123689276Y-70079600D01*
X123730724Y-70079600D01*
X123771371Y-70087685D01*
X123771371Y-70087685D01*
G37*
G36*
X129371371Y-70087685D02*
G01*
X129409661Y-70103545D01*
X129444121Y-70126571D01*
X129473429Y-70155879D01*
X129496455Y-70190339D01*
X129512315Y-70228629D01*
X129520400Y-70269276D01*
X129520400Y-70310724D01*
X129512315Y-70351371D01*
X129496455Y-70389661D01*
X129473429Y-70424121D01*
X129444121Y-70453429D01*
X129409661Y-70476455D01*
X129371371Y-70492315D01*
X129330724Y-70500400D01*
X129289276Y-70500400D01*
X129248629Y-70492315D01*
X129210339Y-70476455D01*
X129175879Y-70453429D01*
X129146571Y-70424121D01*
X129123545Y-70389661D01*
X129107685Y-70351371D01*
X129099600Y-70310724D01*
X129099600Y-70269276D01*
X129107685Y-70228629D01*
X129123545Y-70190339D01*
X129146571Y-70155879D01*
X129175879Y-70126571D01*
X129210339Y-70103545D01*
X129248629Y-70087685D01*
X129289276Y-70079600D01*
X129330724Y-70079600D01*
X129371371Y-70087685D01*
X129371371Y-70087685D01*
G37*
G36*
X130171371Y-70087685D02*
G01*
X130209661Y-70103545D01*
X130244121Y-70126571D01*
X130273429Y-70155879D01*
X130296455Y-70190339D01*
X130312315Y-70228629D01*
X130320400Y-70269276D01*
X130320400Y-70310724D01*
X130312315Y-70351371D01*
X130296455Y-70389661D01*
X130273429Y-70424121D01*
X130244121Y-70453429D01*
X130209661Y-70476455D01*
X130171371Y-70492315D01*
X130130724Y-70500400D01*
X130089276Y-70500400D01*
X130048629Y-70492315D01*
X130010339Y-70476455D01*
X129975879Y-70453429D01*
X129946571Y-70424121D01*
X129923545Y-70389661D01*
X129907685Y-70351371D01*
X129899600Y-70310724D01*
X129899600Y-70269276D01*
X129907685Y-70228629D01*
X129923545Y-70190339D01*
X129946571Y-70155879D01*
X129975879Y-70126571D01*
X130010339Y-70103545D01*
X130048629Y-70087685D01*
X130089276Y-70079600D01*
X130130724Y-70079600D01*
X130171371Y-70087685D01*
X130171371Y-70087685D01*
G37*
G36*
X133830400Y-70480400D02*
G01*
X132909600Y-70480400D01*
X132909600Y-69619600D01*
X133830400Y-69619600D01*
X133830400Y-70480400D01*
X133830400Y-70480400D01*
G37*
G36*
X135045400Y-70470400D02*
G01*
X134434600Y-70470400D01*
X134434600Y-69929600D01*
X135045400Y-69929600D01*
X135045400Y-70470400D01*
X135045400Y-70470400D01*
G37*
G36*
X129371371Y-69287685D02*
G01*
X129409661Y-69303545D01*
X129444121Y-69326571D01*
X129473429Y-69355879D01*
X129496455Y-69390339D01*
X129512315Y-69428629D01*
X129520400Y-69469276D01*
X129520400Y-69510724D01*
X129512315Y-69551371D01*
X129496455Y-69589661D01*
X129473429Y-69624121D01*
X129444121Y-69653429D01*
X129409661Y-69676455D01*
X129371371Y-69692315D01*
X129330724Y-69700400D01*
X129289276Y-69700400D01*
X129248629Y-69692315D01*
X129210339Y-69676455D01*
X129175879Y-69653429D01*
X129146571Y-69624121D01*
X129123545Y-69589661D01*
X129107685Y-69551371D01*
X129099600Y-69510724D01*
X129099600Y-69469276D01*
X129107685Y-69428629D01*
X129123545Y-69390339D01*
X129146571Y-69355879D01*
X129175879Y-69326571D01*
X129210339Y-69303545D01*
X129248629Y-69287685D01*
X129289276Y-69279600D01*
X129330724Y-69279600D01*
X129371371Y-69287685D01*
X129371371Y-69287685D01*
G37*
G36*
X127771371Y-69287685D02*
G01*
X127809661Y-69303545D01*
X127844121Y-69326571D01*
X127873429Y-69355879D01*
X127896455Y-69390339D01*
X127912315Y-69428629D01*
X127920400Y-69469276D01*
X127920400Y-69510724D01*
X127912315Y-69551371D01*
X127896455Y-69589661D01*
X127873429Y-69624121D01*
X127844121Y-69653429D01*
X127809661Y-69676455D01*
X127771371Y-69692315D01*
X127730724Y-69700400D01*
X127689276Y-69700400D01*
X127648629Y-69692315D01*
X127610339Y-69676455D01*
X127575879Y-69653429D01*
X127546571Y-69624121D01*
X127523545Y-69589661D01*
X127507685Y-69551371D01*
X127499600Y-69510724D01*
X127499600Y-69469276D01*
X127507685Y-69428629D01*
X127523545Y-69390339D01*
X127546571Y-69355879D01*
X127575879Y-69326571D01*
X127610339Y-69303545D01*
X127648629Y-69287685D01*
X127689276Y-69279600D01*
X127730724Y-69279600D01*
X127771371Y-69287685D01*
X127771371Y-69287685D01*
G37*
G36*
X123771371Y-69287685D02*
G01*
X123809661Y-69303545D01*
X123844121Y-69326571D01*
X123873429Y-69355879D01*
X123896455Y-69390339D01*
X123912315Y-69428629D01*
X123920400Y-69469276D01*
X123920400Y-69510724D01*
X123912315Y-69551371D01*
X123896455Y-69589661D01*
X123873429Y-69624121D01*
X123844121Y-69653429D01*
X123809661Y-69676455D01*
X123771371Y-69692315D01*
X123730724Y-69700400D01*
X123689276Y-69700400D01*
X123648629Y-69692315D01*
X123610339Y-69676455D01*
X123575879Y-69653429D01*
X123546571Y-69624121D01*
X123523545Y-69589661D01*
X123507685Y-69551371D01*
X123499600Y-69510724D01*
X123499600Y-69469276D01*
X123507685Y-69428629D01*
X123523545Y-69390339D01*
X123546571Y-69355879D01*
X123575879Y-69326571D01*
X123610339Y-69303545D01*
X123648629Y-69287685D01*
X123689276Y-69279600D01*
X123730724Y-69279600D01*
X123771371Y-69287685D01*
X123771371Y-69287685D01*
G37*
G36*
X126971371Y-69287685D02*
G01*
X127009661Y-69303545D01*
X127044121Y-69326571D01*
X127073429Y-69355879D01*
X127096455Y-69390339D01*
X127112315Y-69428629D01*
X127120400Y-69469276D01*
X127120400Y-69510724D01*
X127112315Y-69551371D01*
X127096455Y-69589661D01*
X127073429Y-69624121D01*
X127044121Y-69653429D01*
X127009661Y-69676455D01*
X126971371Y-69692315D01*
X126930724Y-69700400D01*
X126889276Y-69700400D01*
X126848629Y-69692315D01*
X126810339Y-69676455D01*
X126775879Y-69653429D01*
X126746571Y-69624121D01*
X126723545Y-69589661D01*
X126707685Y-69551371D01*
X126699600Y-69510724D01*
X126699600Y-69469276D01*
X126707685Y-69428629D01*
X126723545Y-69390339D01*
X126746571Y-69355879D01*
X126775879Y-69326571D01*
X126810339Y-69303545D01*
X126848629Y-69287685D01*
X126889276Y-69279600D01*
X126930724Y-69279600D01*
X126971371Y-69287685D01*
X126971371Y-69287685D01*
G37*
G36*
X128571371Y-69287685D02*
G01*
X128609661Y-69303545D01*
X128644121Y-69326571D01*
X128673429Y-69355879D01*
X128696455Y-69390339D01*
X128712315Y-69428629D01*
X128720400Y-69469276D01*
X128720400Y-69510724D01*
X128712315Y-69551371D01*
X128696455Y-69589661D01*
X128673429Y-69624121D01*
X128644121Y-69653429D01*
X128609661Y-69676455D01*
X128571371Y-69692315D01*
X128530724Y-69700400D01*
X128489276Y-69700400D01*
X128448629Y-69692315D01*
X128410339Y-69676455D01*
X128375879Y-69653429D01*
X128346571Y-69624121D01*
X128323545Y-69589661D01*
X128307685Y-69551371D01*
X128299600Y-69510724D01*
X128299600Y-69469276D01*
X128307685Y-69428629D01*
X128323545Y-69390339D01*
X128346571Y-69355879D01*
X128375879Y-69326571D01*
X128410339Y-69303545D01*
X128448629Y-69287685D01*
X128489276Y-69279600D01*
X128530724Y-69279600D01*
X128571371Y-69287685D01*
X128571371Y-69287685D01*
G37*
G36*
X126171371Y-69287685D02*
G01*
X126209661Y-69303545D01*
X126244121Y-69326571D01*
X126273429Y-69355879D01*
X126296455Y-69390339D01*
X126312315Y-69428629D01*
X126320400Y-69469276D01*
X126320400Y-69510724D01*
X126312315Y-69551371D01*
X126296455Y-69589661D01*
X126273429Y-69624121D01*
X126244121Y-69653429D01*
X126209661Y-69676455D01*
X126171371Y-69692315D01*
X126130724Y-69700400D01*
X126089276Y-69700400D01*
X126048629Y-69692315D01*
X126010339Y-69676455D01*
X125975879Y-69653429D01*
X125946571Y-69624121D01*
X125923545Y-69589661D01*
X125907685Y-69551371D01*
X125899600Y-69510724D01*
X125899600Y-69469276D01*
X125907685Y-69428629D01*
X125923545Y-69390339D01*
X125946571Y-69355879D01*
X125975879Y-69326571D01*
X126010339Y-69303545D01*
X126048629Y-69287685D01*
X126089276Y-69279600D01*
X126130724Y-69279600D01*
X126171371Y-69287685D01*
X126171371Y-69287685D01*
G37*
G36*
X125371371Y-69287685D02*
G01*
X125409661Y-69303545D01*
X125444121Y-69326571D01*
X125473429Y-69355879D01*
X125496455Y-69390339D01*
X125512315Y-69428629D01*
X125520400Y-69469276D01*
X125520400Y-69510724D01*
X125512315Y-69551371D01*
X125496455Y-69589661D01*
X125473429Y-69624121D01*
X125444121Y-69653429D01*
X125409661Y-69676455D01*
X125371371Y-69692315D01*
X125330724Y-69700400D01*
X125289276Y-69700400D01*
X125248629Y-69692315D01*
X125210339Y-69676455D01*
X125175879Y-69653429D01*
X125146571Y-69624121D01*
X125123545Y-69589661D01*
X125107685Y-69551371D01*
X125099600Y-69510724D01*
X125099600Y-69469276D01*
X125107685Y-69428629D01*
X125123545Y-69390339D01*
X125146571Y-69355879D01*
X125175879Y-69326571D01*
X125210339Y-69303545D01*
X125248629Y-69287685D01*
X125289276Y-69279600D01*
X125330724Y-69279600D01*
X125371371Y-69287685D01*
X125371371Y-69287685D01*
G37*
G36*
X124571371Y-69287685D02*
G01*
X124609661Y-69303545D01*
X124644121Y-69326571D01*
X124673429Y-69355879D01*
X124696455Y-69390339D01*
X124712315Y-69428629D01*
X124720400Y-69469276D01*
X124720400Y-69510724D01*
X124712315Y-69551371D01*
X124696455Y-69589661D01*
X124673429Y-69624121D01*
X124644121Y-69653429D01*
X124609661Y-69676455D01*
X124571371Y-69692315D01*
X124530724Y-69700400D01*
X124489276Y-69700400D01*
X124448629Y-69692315D01*
X124410339Y-69676455D01*
X124375879Y-69653429D01*
X124346571Y-69624121D01*
X124323545Y-69589661D01*
X124307685Y-69551371D01*
X124299600Y-69510724D01*
X124299600Y-69469276D01*
X124307685Y-69428629D01*
X124323545Y-69390339D01*
X124346571Y-69355879D01*
X124375879Y-69326571D01*
X124410339Y-69303545D01*
X124448629Y-69287685D01*
X124489276Y-69279600D01*
X124530724Y-69279600D01*
X124571371Y-69287685D01*
X124571371Y-69287685D01*
G37*
G36*
X130171371Y-69287685D02*
G01*
X130209661Y-69303545D01*
X130244121Y-69326571D01*
X130273429Y-69355879D01*
X130296455Y-69390339D01*
X130312315Y-69428629D01*
X130320400Y-69469276D01*
X130320400Y-69510724D01*
X130312315Y-69551371D01*
X130296455Y-69589661D01*
X130273429Y-69624121D01*
X130244121Y-69653429D01*
X130209661Y-69676455D01*
X130171371Y-69692315D01*
X130130724Y-69700400D01*
X130089276Y-69700400D01*
X130048629Y-69692315D01*
X130010339Y-69676455D01*
X129975879Y-69653429D01*
X129946571Y-69624121D01*
X129923545Y-69589661D01*
X129907685Y-69551371D01*
X129899600Y-69510724D01*
X129899600Y-69469276D01*
X129907685Y-69428629D01*
X129923545Y-69390339D01*
X129946571Y-69355879D01*
X129975879Y-69326571D01*
X130010339Y-69303545D01*
X130048629Y-69287685D01*
X130089276Y-69279600D01*
X130130724Y-69279600D01*
X130171371Y-69287685D01*
X130171371Y-69287685D01*
G37*
G36*
X130971371Y-69287685D02*
G01*
X131009661Y-69303545D01*
X131044121Y-69326571D01*
X131073429Y-69355879D01*
X131096455Y-69390339D01*
X131112315Y-69428629D01*
X131120400Y-69469276D01*
X131120400Y-69510724D01*
X131112315Y-69551371D01*
X131096455Y-69589661D01*
X131073429Y-69624121D01*
X131044121Y-69653429D01*
X131009661Y-69676455D01*
X130971371Y-69692315D01*
X130930724Y-69700400D01*
X130889276Y-69700400D01*
X130848629Y-69692315D01*
X130810339Y-69676455D01*
X130775879Y-69653429D01*
X130746571Y-69624121D01*
X130723545Y-69589661D01*
X130707685Y-69551371D01*
X130699600Y-69510724D01*
X130699600Y-69469276D01*
X130707685Y-69428629D01*
X130723545Y-69390339D01*
X130746571Y-69355879D01*
X130775879Y-69326571D01*
X130810339Y-69303545D01*
X130848629Y-69287685D01*
X130889276Y-69279600D01*
X130930724Y-69279600D01*
X130971371Y-69287685D01*
X130971371Y-69287685D01*
G37*
G36*
X108905400Y-69650400D02*
G01*
X108294600Y-69650400D01*
X108294600Y-69109600D01*
X108905400Y-69109600D01*
X108905400Y-69650400D01*
X108905400Y-69650400D01*
G37*
G36*
X107885400Y-69650400D02*
G01*
X107274600Y-69650400D01*
X107274600Y-69109600D01*
X107885400Y-69109600D01*
X107885400Y-69650400D01*
X107885400Y-69650400D01*
G37*
G36*
X135045400Y-69560400D02*
G01*
X134434600Y-69560400D01*
X134434600Y-69019600D01*
X135045400Y-69019600D01*
X135045400Y-69560400D01*
X135045400Y-69560400D01*
G37*
G36*
X137180400Y-69360400D02*
G01*
X136419600Y-69360400D01*
X136419600Y-68539600D01*
X137180400Y-68539600D01*
X137180400Y-69360400D01*
X137180400Y-69360400D01*
G37*
G36*
X141075400Y-69325400D02*
G01*
X139324600Y-69325400D01*
X139324600Y-67574600D01*
X141075400Y-67574600D01*
X141075400Y-69325400D01*
X141075400Y-69325400D01*
G37*
G36*
X133830400Y-69120400D02*
G01*
X132909600Y-69120400D01*
X132909600Y-68259600D01*
X133830400Y-68259600D01*
X133830400Y-69120400D01*
X133830400Y-69120400D01*
G37*
G36*
X107885400Y-68740400D02*
G01*
X107274600Y-68740400D01*
X107274600Y-68199600D01*
X107885400Y-68199600D01*
X107885400Y-68740400D01*
X107885400Y-68740400D01*
G37*
G36*
X108905400Y-68740400D02*
G01*
X108294600Y-68740400D01*
X108294600Y-68199600D01*
X108905400Y-68199600D01*
X108905400Y-68740400D01*
X108905400Y-68740400D01*
G37*
G36*
X137145400Y-67935400D02*
G01*
X136534600Y-67935400D01*
X136534600Y-67394600D01*
X137145400Y-67394600D01*
X137145400Y-67935400D01*
X137145400Y-67935400D01*
G37*
G36*
X107895400Y-67835400D02*
G01*
X107284600Y-67835400D01*
X107284600Y-67294600D01*
X107895400Y-67294600D01*
X107895400Y-67835400D01*
X107895400Y-67835400D01*
G37*
G36*
X108895400Y-67825400D02*
G01*
X108284600Y-67825400D01*
X108284600Y-67284600D01*
X108895400Y-67284600D01*
X108895400Y-67825400D01*
X108895400Y-67825400D01*
G37*
G36*
X127820400Y-67260400D02*
G01*
X126959600Y-67260400D01*
X126959600Y-66339600D01*
X127820400Y-66339600D01*
X127820400Y-67260400D01*
X127820400Y-67260400D01*
G37*
G36*
X129180400Y-67260400D02*
G01*
X128319600Y-67260400D01*
X128319600Y-66339600D01*
X129180400Y-66339600D01*
X129180400Y-67260400D01*
X129180400Y-67260400D01*
G37*
G36*
X131780400Y-67210400D02*
G01*
X130919600Y-67210400D01*
X130919600Y-66289600D01*
X131780400Y-66289600D01*
X131780400Y-67210400D01*
X131780400Y-67210400D01*
G37*
G36*
X133140400Y-67210400D02*
G01*
X132279600Y-67210400D01*
X132279600Y-66289600D01*
X133140400Y-66289600D01*
X133140400Y-67210400D01*
X133140400Y-67210400D01*
G37*
G36*
X137145400Y-67025400D02*
G01*
X136534600Y-67025400D01*
X136534600Y-66484600D01*
X137145400Y-66484600D01*
X137145400Y-67025400D01*
X137145400Y-67025400D01*
G37*
G36*
X107895400Y-66925400D02*
G01*
X107284600Y-66925400D01*
X107284600Y-66384600D01*
X107895400Y-66384600D01*
X107895400Y-66925400D01*
X107895400Y-66925400D01*
G37*
G36*
X108895400Y-66915400D02*
G01*
X108284600Y-66915400D01*
X108284600Y-66374600D01*
X108895400Y-66374600D01*
X108895400Y-66915400D01*
X108895400Y-66915400D01*
G37*
G36*
X106475400Y-65960400D02*
G01*
X105504600Y-65960400D01*
X105504600Y-65019600D01*
X106475400Y-65019600D01*
X106475400Y-65960400D01*
X106475400Y-65960400D01*
G37*
G36*
X108895400Y-65950400D02*
G01*
X108284600Y-65950400D01*
X108284600Y-65409600D01*
X108895400Y-65409600D01*
X108895400Y-65950400D01*
X108895400Y-65950400D01*
G37*
G36*
X107850400Y-65950400D02*
G01*
X106929600Y-65950400D01*
X106929600Y-65089600D01*
X107850400Y-65089600D01*
X107850400Y-65950400D01*
X107850400Y-65950400D01*
G37*
G36*
X131740400Y-65710400D02*
G01*
X130879600Y-65710400D01*
X130879600Y-64789600D01*
X131740400Y-64789600D01*
X131740400Y-65710400D01*
X131740400Y-65710400D01*
G37*
G36*
X127820400Y-65710400D02*
G01*
X126959600Y-65710400D01*
X126959600Y-64789600D01*
X127820400Y-64789600D01*
X127820400Y-65710400D01*
X127820400Y-65710400D01*
G37*
G36*
X133100400Y-65710400D02*
G01*
X132239600Y-65710400D01*
X132239600Y-64789600D01*
X133100400Y-64789600D01*
X133100400Y-65710400D01*
X133100400Y-65710400D01*
G37*
G36*
X129180400Y-65710400D02*
G01*
X128319600Y-65710400D01*
X128319600Y-64789600D01*
X129180400Y-64789600D01*
X129180400Y-65710400D01*
X129180400Y-65710400D01*
G37*
G36*
X108895400Y-65040400D02*
G01*
X108284600Y-65040400D01*
X108284600Y-64499600D01*
X108895400Y-64499600D01*
X108895400Y-65040400D01*
X108895400Y-65040400D01*
G37*
G36*
X113730400Y-64845400D02*
G01*
X112819600Y-64845400D01*
X112819600Y-64454600D01*
X113730400Y-64454600D01*
X113730400Y-64845400D01*
X113730400Y-64845400D01*
G37*
G36*
X117075400Y-64835400D02*
G01*
X116164600Y-64835400D01*
X116164600Y-64444600D01*
X117075400Y-64444600D01*
X117075400Y-64835400D01*
X117075400Y-64835400D01*
G37*
G36*
X106475400Y-64630400D02*
G01*
X105504600Y-64630400D01*
X105504600Y-63689600D01*
X106475400Y-63689600D01*
X106475400Y-64630400D01*
X106475400Y-64630400D01*
G37*
G36*
X107850400Y-64590400D02*
G01*
X106929600Y-64590400D01*
X106929600Y-63729600D01*
X107850400Y-63729600D01*
X107850400Y-64590400D01*
X107850400Y-64590400D01*
G37*
G36*
X132470400Y-64290400D02*
G01*
X131839600Y-64290400D01*
X131839600Y-63609600D01*
X132470400Y-63609600D01*
X132470400Y-64290400D01*
X132470400Y-64290400D01*
G37*
G36*
X131580400Y-64290400D02*
G01*
X130949600Y-64290400D01*
X130949600Y-63609600D01*
X131580400Y-63609600D01*
X131580400Y-64290400D01*
X131580400Y-64290400D01*
G37*
G36*
X129210400Y-64280400D02*
G01*
X128349600Y-64280400D01*
X128349600Y-63359600D01*
X129210400Y-63359600D01*
X129210400Y-64280400D01*
X129210400Y-64280400D01*
G37*
G36*
X127850400Y-64280400D02*
G01*
X126989600Y-64280400D01*
X126989600Y-63359600D01*
X127850400Y-63359600D01*
X127850400Y-64280400D01*
X127850400Y-64280400D01*
G37*
G36*
X113330400Y-64010400D02*
G01*
X112469600Y-64010400D01*
X112469600Y-63089600D01*
X113330400Y-63089600D01*
X113330400Y-64010400D01*
X113330400Y-64010400D01*
G37*
G36*
X117500400Y-64010400D02*
G01*
X116639600Y-64010400D01*
X116639600Y-63089600D01*
X117500400Y-63089600D01*
X117500400Y-64010400D01*
X117500400Y-64010400D01*
G37*
G36*
X116140400Y-64010400D02*
G01*
X115279600Y-64010400D01*
X115279600Y-63089600D01*
X116140400Y-63089600D01*
X116140400Y-64010400D01*
X116140400Y-64010400D01*
G37*
G36*
X114690400Y-64010400D02*
G01*
X113829600Y-64010400D01*
X113829600Y-63089600D01*
X114690400Y-63089600D01*
X114690400Y-64010400D01*
X114690400Y-64010400D01*
G37*
G36*
X109650400Y-63945400D02*
G01*
X109109600Y-63945400D01*
X109109600Y-63334600D01*
X109650400Y-63334600D01*
X109650400Y-63945400D01*
X109650400Y-63945400D01*
G37*
G36*
X110560400Y-63945400D02*
G01*
X110019600Y-63945400D01*
X110019600Y-63334600D01*
X110560400Y-63334600D01*
X110560400Y-63945400D01*
X110560400Y-63945400D01*
G37*
G36*
X110610400Y-62910400D02*
G01*
X109749600Y-62910400D01*
X109749600Y-61989600D01*
X110610400Y-61989600D01*
X110610400Y-62910400D01*
X110610400Y-62910400D01*
G37*
G36*
X109250400Y-62910400D02*
G01*
X108389600Y-62910400D01*
X108389600Y-61989600D01*
X109250400Y-61989600D01*
X109250400Y-62910400D01*
X109250400Y-62910400D01*
G37*
G36*
X130009500Y-61829026D02*
G01*
X130077817Y-61857324D01*
X130139302Y-61898407D01*
X130191593Y-61950698D01*
X130232676Y-62012183D01*
X130260974Y-62080500D01*
X130275400Y-62153025D01*
X130275400Y-62226975D01*
X130260974Y-62299500D01*
X130232676Y-62367817D01*
X130191593Y-62429302D01*
X130139302Y-62481593D01*
X130077817Y-62522676D01*
X130009500Y-62550974D01*
X129936975Y-62565400D01*
X129863025Y-62565400D01*
X129790500Y-62550974D01*
X129722183Y-62522676D01*
X129660698Y-62481593D01*
X129608407Y-62429302D01*
X129567324Y-62367817D01*
X129539026Y-62299500D01*
X129524600Y-62226975D01*
X129524600Y-62153025D01*
X129539026Y-62080500D01*
X129567324Y-62012183D01*
X129608407Y-61950698D01*
X129660698Y-61898407D01*
X129722183Y-61857324D01*
X129790500Y-61829026D01*
X129863025Y-61814600D01*
X129936975Y-61814600D01*
X130009500Y-61829026D01*
X130009500Y-61829026D01*
G37*
G36*
X126290400Y-61715400D02*
G01*
X125309600Y-61715400D01*
X125309600Y-60344600D01*
X126290400Y-60344600D01*
X126290400Y-61715400D01*
X126290400Y-61715400D01*
G37*
G36*
X127930400Y-61715400D02*
G01*
X126949600Y-61715400D01*
X126949600Y-60344600D01*
X127930400Y-60344600D01*
X127930400Y-61715400D01*
X127930400Y-61715400D01*
G37*
G36*
X135490400Y-61635400D02*
G01*
X134509600Y-61635400D01*
X134509600Y-60264600D01*
X135490400Y-60264600D01*
X135490400Y-61635400D01*
X135490400Y-61635400D01*
G37*
G36*
X133850400Y-61635400D02*
G01*
X132869600Y-61635400D01*
X132869600Y-60264600D01*
X133850400Y-60264600D01*
X133850400Y-61635400D01*
X133850400Y-61635400D01*
G37*
G36*
X140885400Y-61515400D02*
G01*
X139134600Y-61515400D01*
X139134600Y-59764600D01*
X140885400Y-59764600D01*
X140885400Y-61515400D01*
X140885400Y-61515400D01*
G37*
G36*
X109275400Y-61505400D02*
G01*
X108334600Y-61505400D01*
X108334600Y-60534600D01*
X109275400Y-60534600D01*
X109275400Y-61505400D01*
X109275400Y-61505400D01*
G37*
G36*
X110605400Y-61505400D02*
G01*
X109664600Y-61505400D01*
X109664600Y-60534600D01*
X110605400Y-60534600D01*
X110605400Y-61505400D01*
X110605400Y-61505400D01*
G37*
G36*
X131555400Y-60630400D02*
G01*
X129244600Y-60630400D01*
X129244600Y-59919600D01*
X131555400Y-59919600D01*
X131555400Y-60630400D01*
X131555400Y-60630400D01*
G37*
G36*
X119879500Y-59489026D02*
G01*
X119947817Y-59517324D01*
X120009302Y-59558407D01*
X120061593Y-59610698D01*
X120102676Y-59672183D01*
X120130974Y-59740500D01*
X120145400Y-59813025D01*
X120145400Y-59886975D01*
X120130974Y-59959500D01*
X120102676Y-60027817D01*
X120061593Y-60089302D01*
X120009302Y-60141593D01*
X119947817Y-60182676D01*
X119879500Y-60210974D01*
X119806975Y-60225400D01*
X119733025Y-60225400D01*
X119660500Y-60210974D01*
X119592183Y-60182676D01*
X119530698Y-60141593D01*
X119478407Y-60089302D01*
X119437324Y-60027817D01*
X119409026Y-59959500D01*
X119394600Y-59886975D01*
X119394600Y-59813025D01*
X119409026Y-59740500D01*
X119437324Y-59672183D01*
X119478407Y-59610698D01*
X119530698Y-59558407D01*
X119592183Y-59517324D01*
X119660500Y-59489026D01*
X119733025Y-59474600D01*
X119806975Y-59474600D01*
X119879500Y-59489026D01*
X119879500Y-59489026D01*
G37*
G36*
X135915400Y-59525400D02*
G01*
X134864600Y-59525400D01*
X134864600Y-56074600D01*
X135915400Y-56074600D01*
X135915400Y-59525400D01*
X135915400Y-59525400D01*
G37*
G36*
X133815400Y-59525400D02*
G01*
X132764600Y-59525400D01*
X132764600Y-56074600D01*
X133815400Y-56074600D01*
X133815400Y-59525400D01*
X133815400Y-59525400D01*
G37*
G36*
X125865400Y-59495400D02*
G01*
X124814600Y-59495400D01*
X124814600Y-56044600D01*
X125865400Y-56044600D01*
X125865400Y-59495400D01*
X125865400Y-59495400D01*
G37*
G36*
X127965400Y-59495400D02*
G01*
X126914600Y-59495400D01*
X126914600Y-56044600D01*
X127965400Y-56044600D01*
X127965400Y-59495400D01*
X127965400Y-59495400D01*
G37*
G36*
X113209500Y-58319026D02*
G01*
X113277817Y-58347324D01*
X113339302Y-58388407D01*
X113391593Y-58440698D01*
X113432676Y-58502183D01*
X113460974Y-58570500D01*
X113475400Y-58643025D01*
X113475400Y-58716975D01*
X113460974Y-58789500D01*
X113432676Y-58857817D01*
X113391593Y-58919302D01*
X113339302Y-58971593D01*
X113277817Y-59012676D01*
X113209500Y-59040974D01*
X113136975Y-59055400D01*
X113063025Y-59055400D01*
X112990500Y-59040974D01*
X112922183Y-59012676D01*
X112860698Y-58971593D01*
X112808407Y-58919302D01*
X112767324Y-58857817D01*
X112739026Y-58789500D01*
X112724600Y-58716975D01*
X112724600Y-58643025D01*
X112739026Y-58570500D01*
X112767324Y-58502183D01*
X112808407Y-58440698D01*
X112860698Y-58388407D01*
X112922183Y-58347324D01*
X112990500Y-58319026D01*
X113063025Y-58304600D01*
X113136975Y-58304600D01*
X113209500Y-58319026D01*
X113209500Y-58319026D01*
G37*
G36*
X119960400Y-58190400D02*
G01*
X119589600Y-58190400D01*
X119589600Y-57399600D01*
X119960400Y-57399600D01*
X119960400Y-58190400D01*
X119960400Y-58190400D01*
G37*
G36*
X118660400Y-58190400D02*
G01*
X118289600Y-58190400D01*
X118289600Y-57399600D01*
X118660400Y-57399600D01*
X118660400Y-58190400D01*
X118660400Y-58190400D01*
G37*
G36*
X118010400Y-58190400D02*
G01*
X117639600Y-58190400D01*
X117639600Y-57399600D01*
X118010400Y-57399600D01*
X118010400Y-58190400D01*
X118010400Y-58190400D01*
G37*
G36*
X119310400Y-58190400D02*
G01*
X118939600Y-58190400D01*
X118939600Y-57399600D01*
X119310400Y-57399600D01*
X119310400Y-58190400D01*
X119310400Y-58190400D01*
G37*
G36*
X131555400Y-57960400D02*
G01*
X129244600Y-57960400D01*
X129244600Y-57249600D01*
X131555400Y-57249600D01*
X131555400Y-57960400D01*
X131555400Y-57960400D01*
G37*
G36*
X115565400Y-57900400D02*
G01*
X114934600Y-57900400D01*
X114934600Y-57219600D01*
X115565400Y-57219600D01*
X115565400Y-57900400D01*
X115565400Y-57900400D01*
G37*
G36*
X114675400Y-57900400D02*
G01*
X114044600Y-57900400D01*
X114044600Y-57219600D01*
X114675400Y-57219600D01*
X114675400Y-57900400D01*
X114675400Y-57900400D01*
G37*
G36*
X120990400Y-57160400D02*
G01*
X120199600Y-57160400D01*
X120199600Y-56789600D01*
X120990400Y-56789600D01*
X120990400Y-57160400D01*
X120990400Y-57160400D01*
G37*
G36*
X117400400Y-57160400D02*
G01*
X116609600Y-57160400D01*
X116609600Y-56789600D01*
X117400400Y-56789600D01*
X117400400Y-57160400D01*
X117400400Y-57160400D01*
G37*
G36*
X119825400Y-57025400D02*
G01*
X117774600Y-57025400D01*
X117774600Y-54974600D01*
X119825400Y-54974600D01*
X119825400Y-57025400D01*
X119825400Y-57025400D01*
G37*
G36*
X140885400Y-56865400D02*
G01*
X139134600Y-56865400D01*
X139134600Y-55114600D01*
X140885400Y-55114600D01*
X140885400Y-56865400D01*
X140885400Y-56865400D01*
G37*
G36*
X114685400Y-56620400D02*
G01*
X114054600Y-56620400D01*
X114054600Y-55939600D01*
X114685400Y-55939600D01*
X114685400Y-56620400D01*
X114685400Y-56620400D01*
G37*
G36*
X115575400Y-56620400D02*
G01*
X114944600Y-56620400D01*
X114944600Y-55939600D01*
X115575400Y-55939600D01*
X115575400Y-56620400D01*
X115575400Y-56620400D01*
G37*
G36*
X120990400Y-56510400D02*
G01*
X120199600Y-56510400D01*
X120199600Y-56139600D01*
X120990400Y-56139600D01*
X120990400Y-56510400D01*
X120990400Y-56510400D01*
G37*
G36*
X117400400Y-56510400D02*
G01*
X116609600Y-56510400D01*
X116609600Y-56139600D01*
X117400400Y-56139600D01*
X117400400Y-56510400D01*
X117400400Y-56510400D01*
G37*
G36*
X131770400Y-56405400D02*
G01*
X130789600Y-56405400D01*
X130789600Y-55034600D01*
X131770400Y-55034600D01*
X131770400Y-56405400D01*
X131770400Y-56405400D01*
G37*
G36*
X130130400Y-56405400D02*
G01*
X129149600Y-56405400D01*
X129149600Y-55034600D01*
X130130400Y-55034600D01*
X130130400Y-56405400D01*
X130130400Y-56405400D01*
G37*
G36*
X117400400Y-55860400D02*
G01*
X116609600Y-55860400D01*
X116609600Y-55489600D01*
X117400400Y-55489600D01*
X117400400Y-55860400D01*
X117400400Y-55860400D01*
G37*
G36*
X120990400Y-55860400D02*
G01*
X120199600Y-55860400D01*
X120199600Y-55489600D01*
X120990400Y-55489600D01*
X120990400Y-55860400D01*
X120990400Y-55860400D01*
G37*
G36*
X114685400Y-55370400D02*
G01*
X114054600Y-55370400D01*
X114054600Y-54689600D01*
X114685400Y-54689600D01*
X114685400Y-55370400D01*
X114685400Y-55370400D01*
G37*
G36*
X115575400Y-55370400D02*
G01*
X114944600Y-55370400D01*
X114944600Y-54689600D01*
X115575400Y-54689600D01*
X115575400Y-55370400D01*
X115575400Y-55370400D01*
G37*
G36*
X117400400Y-55210400D02*
G01*
X116609600Y-55210400D01*
X116609600Y-54839600D01*
X117400400Y-54839600D01*
X117400400Y-55210400D01*
X117400400Y-55210400D01*
G37*
G36*
X120990400Y-55210400D02*
G01*
X120199600Y-55210400D01*
X120199600Y-54839600D01*
X120990400Y-54839600D01*
X120990400Y-55210400D01*
X120990400Y-55210400D01*
G37*
G36*
X124169500Y-54199026D02*
G01*
X124237817Y-54227324D01*
X124299302Y-54268407D01*
X124351593Y-54320698D01*
X124392676Y-54382183D01*
X124420974Y-54450500D01*
X124435400Y-54523025D01*
X124435400Y-54596975D01*
X124420974Y-54669500D01*
X124392676Y-54737817D01*
X124351593Y-54799302D01*
X124299302Y-54851593D01*
X124237817Y-54892676D01*
X124169500Y-54920974D01*
X124096975Y-54935400D01*
X124023025Y-54935400D01*
X123950500Y-54920974D01*
X123882183Y-54892676D01*
X123820698Y-54851593D01*
X123768407Y-54799302D01*
X123727324Y-54737817D01*
X123699026Y-54669500D01*
X123684600Y-54596975D01*
X123684600Y-54523025D01*
X123699026Y-54450500D01*
X123727324Y-54382183D01*
X123768407Y-54320698D01*
X123820698Y-54268407D01*
X123882183Y-54227324D01*
X123950500Y-54199026D01*
X124023025Y-54184600D01*
X124096975Y-54184600D01*
X124169500Y-54199026D01*
X124169500Y-54199026D01*
G37*
G36*
X118660400Y-54600400D02*
G01*
X118289600Y-54600400D01*
X118289600Y-53809600D01*
X118660400Y-53809600D01*
X118660400Y-54600400D01*
X118660400Y-54600400D01*
G37*
G36*
X119310400Y-54600400D02*
G01*
X118939600Y-54600400D01*
X118939600Y-53809600D01*
X119310400Y-53809600D01*
X119310400Y-54600400D01*
X119310400Y-54600400D01*
G37*
G36*
X119960400Y-54600400D02*
G01*
X119589600Y-54600400D01*
X119589600Y-53809600D01*
X119960400Y-53809600D01*
X119960400Y-54600400D01*
X119960400Y-54600400D01*
G37*
G36*
X118010400Y-54600400D02*
G01*
X117639600Y-54600400D01*
X117639600Y-53809600D01*
X118010400Y-53809600D01*
X118010400Y-54600400D01*
X118010400Y-54600400D01*
G37*
G36*
X128419500Y-53679026D02*
G01*
X128487817Y-53707324D01*
X128549302Y-53748407D01*
X128601593Y-53800698D01*
X128642676Y-53862183D01*
X128670974Y-53930500D01*
X128685400Y-54003025D01*
X128685400Y-54076975D01*
X128670974Y-54149500D01*
X128642676Y-54217817D01*
X128601593Y-54279302D01*
X128549302Y-54331593D01*
X128487817Y-54372676D01*
X128419500Y-54400974D01*
X128346975Y-54415400D01*
X128273025Y-54415400D01*
X128200500Y-54400974D01*
X128132183Y-54372676D01*
X128070698Y-54331593D01*
X128018407Y-54279302D01*
X127977324Y-54217817D01*
X127949026Y-54149500D01*
X127934600Y-54076975D01*
X127934600Y-54003025D01*
X127949026Y-53930500D01*
X127977324Y-53862183D01*
X128018407Y-53800698D01*
X128070698Y-53748407D01*
X128132183Y-53707324D01*
X128200500Y-53679026D01*
X128273025Y-53664600D01*
X128346975Y-53664600D01*
X128419500Y-53679026D01*
X128419500Y-53679026D01*
G37*
G36*
X111859500Y-53549026D02*
G01*
X111927817Y-53577324D01*
X111989302Y-53618407D01*
X112041593Y-53670698D01*
X112082676Y-53732183D01*
X112110974Y-53800500D01*
X112125400Y-53873025D01*
X112125400Y-53946975D01*
X112110974Y-54019500D01*
X112082676Y-54087817D01*
X112041593Y-54149302D01*
X111989302Y-54201593D01*
X111927817Y-54242676D01*
X111859500Y-54270974D01*
X111786975Y-54285400D01*
X111713025Y-54285400D01*
X111640500Y-54270974D01*
X111572183Y-54242676D01*
X111510698Y-54201593D01*
X111458407Y-54149302D01*
X111417324Y-54087817D01*
X111389026Y-54019500D01*
X111374600Y-53946975D01*
X111374600Y-53873025D01*
X111389026Y-53800500D01*
X111417324Y-53732183D01*
X111458407Y-53670698D01*
X111510698Y-53618407D01*
X111572183Y-53577324D01*
X111640500Y-53549026D01*
X111713025Y-53534600D01*
X111786975Y-53534600D01*
X111859500Y-53549026D01*
X111859500Y-53549026D01*
G37*
M02*
