G04 #@! TF.GenerationSoftware,KiCad,Pcbnew,(5.1.0)-1*
G04 #@! TF.CreationDate,2019-06-03T19:39:10-07:00*
G04 #@! TF.ProjectId,SDCard-PCB,53444361-7264-42d5-9043-422e6b696361,rev?*
G04 #@! TF.SameCoordinates,Original*
G04 #@! TF.FileFunction,Paste,Top*
G04 #@! TF.FilePolarity,Positive*
%FSLAX46Y46*%
G04 Gerber Fmt 4.6, Leading zero omitted, Abs format (unit mm)*
G04 Created by KiCad (PCBNEW (5.1.0)-1) date 2019-06-03 19:39:10*
%MOMM*%
%LPD*%
G04 APERTURE LIST*
%ADD10R,1.350000X1.350000*%
%ADD11R,0.260000X0.680000*%
%ADD12R,0.680000X0.260000*%
%ADD13R,0.310000X0.340000*%
%ADD14R,0.340000X0.310000*%
%ADD15C,0.700000*%
%ADD16R,1.000000X3.400000*%
%ADD17R,0.930000X1.320000*%
%ADD18R,0.890000X0.920000*%
%ADD19R,0.810000X0.870000*%
%ADD20R,0.580000X0.630000*%
%ADD21R,1.400000X1.200000*%
%ADD22C,0.370000*%
%ADD23R,0.560000X0.490000*%
%ADD24R,0.920000X0.890000*%
%ADD25R,0.740000X0.740000*%
%ADD26R,0.420000X0.420000*%
%ADD27R,0.740000X0.320000*%
%ADD28R,0.320000X0.740000*%
%ADD29R,0.260000X0.660000*%
%ADD30R,0.490000X0.560000*%
%ADD31R,0.710000X0.770000*%
%ADD32R,0.870000X0.810000*%
G04 APERTURE END LIST*
D10*
X114790000Y-67220000D03*
X113240000Y-67220000D03*
X114790000Y-68770000D03*
X113240000Y-68770000D03*
D11*
X112265000Y-65660000D03*
X112765000Y-65660000D03*
X113265000Y-65660000D03*
X113765000Y-65660000D03*
X114265000Y-65660000D03*
X114765000Y-65660000D03*
X115265000Y-65660000D03*
X115765000Y-65660000D03*
D12*
X116350000Y-66245000D03*
X116350000Y-66745000D03*
X116350000Y-67245000D03*
X116350000Y-67745000D03*
X116350000Y-68245000D03*
X116350000Y-68745000D03*
X116350000Y-69245000D03*
X116350000Y-69745000D03*
D11*
X115765000Y-70330000D03*
X115265000Y-70330000D03*
X114765000Y-70330000D03*
X114265000Y-70330000D03*
X113765000Y-70330000D03*
X113265000Y-70330000D03*
X112765000Y-70330000D03*
X112265000Y-70330000D03*
D12*
X111680000Y-69745000D03*
X111680000Y-69245000D03*
X111680000Y-68745000D03*
X111680000Y-68245000D03*
X111680000Y-67745000D03*
X111680000Y-67245000D03*
X111680000Y-66745000D03*
X111680000Y-66245000D03*
D13*
X115960000Y-73050000D03*
X116510000Y-73050000D03*
X116895000Y-64640000D03*
X116345000Y-64640000D03*
X113000000Y-64650000D03*
X113550000Y-64650000D03*
X110150000Y-73060000D03*
X110700000Y-73060000D03*
D14*
X108710000Y-72135000D03*
X108710000Y-72685000D03*
D15*
X119350000Y-70970000D03*
D16*
X127440000Y-57770000D03*
X125340000Y-57770000D03*
D17*
X116080000Y-75810000D03*
X117720000Y-75810000D03*
D18*
X116240000Y-77470000D03*
X117570000Y-77470000D03*
D19*
X116200000Y-74160000D03*
X117560000Y-74160000D03*
D20*
X133405000Y-80930000D03*
X132515000Y-80930000D03*
X135705000Y-80930000D03*
X134815000Y-80930000D03*
D21*
X135120000Y-84570000D03*
X132920000Y-84570000D03*
X132920000Y-82870000D03*
X135120000Y-82870000D03*
D22*
X123710000Y-69490000D03*
X124510000Y-69490000D03*
X125310000Y-69490000D03*
X126110000Y-69490000D03*
X126910000Y-69490000D03*
X127710000Y-69490000D03*
X128510000Y-69490000D03*
X129310000Y-69490000D03*
X130110000Y-69490000D03*
X130910000Y-69490000D03*
X123710000Y-70290000D03*
X124510000Y-70290000D03*
X125310000Y-70290000D03*
X126110000Y-70290000D03*
X126910000Y-70290000D03*
X127710000Y-70290000D03*
X128510000Y-70290000D03*
X129310000Y-70290000D03*
X130110000Y-70290000D03*
X130910000Y-70290000D03*
X123710000Y-71090000D03*
X124510000Y-71090000D03*
X125310000Y-71090000D03*
X126110000Y-71090000D03*
X126910000Y-71090000D03*
X127710000Y-71090000D03*
X128510000Y-71090000D03*
X129310000Y-71090000D03*
X130110000Y-71090000D03*
X130910000Y-71090000D03*
X123710000Y-71890000D03*
X124510000Y-71890000D03*
X125310000Y-71890000D03*
X126110000Y-71890000D03*
X126910000Y-71890000D03*
X127710000Y-71890000D03*
X128510000Y-71890000D03*
X129310000Y-71890000D03*
X130110000Y-71890000D03*
X130910000Y-71890000D03*
X123710000Y-72690000D03*
X124510000Y-72690000D03*
X125310000Y-72690000D03*
X126110000Y-72690000D03*
X126910000Y-72690000D03*
X127710000Y-72690000D03*
X128510000Y-72690000D03*
X129310000Y-72690000D03*
X130110000Y-72690000D03*
X130910000Y-72690000D03*
X123710000Y-73490000D03*
X124510000Y-73490000D03*
X125310000Y-73490000D03*
X126110000Y-73490000D03*
X126910000Y-73490000D03*
X127710000Y-73490000D03*
X128510000Y-73490000D03*
X129310000Y-73490000D03*
X130110000Y-73490000D03*
X130910000Y-73490000D03*
X123710000Y-74290000D03*
X124510000Y-74290000D03*
X125310000Y-74290000D03*
X126110000Y-74290000D03*
X126910000Y-74290000D03*
X127710000Y-74290000D03*
X128510000Y-74290000D03*
X129310000Y-74290000D03*
X130110000Y-74290000D03*
X130910000Y-74290000D03*
X123710000Y-75090000D03*
X124510000Y-75090000D03*
X125310000Y-75090000D03*
X126110000Y-75090000D03*
X126910000Y-75090000D03*
X127710000Y-75090000D03*
X128510000Y-75090000D03*
X129310000Y-75090000D03*
X130110000Y-75090000D03*
X130910000Y-75090000D03*
X123710000Y-75890000D03*
X124510000Y-75890000D03*
X125310000Y-75890000D03*
X126110000Y-75890000D03*
X126910000Y-75890000D03*
X127710000Y-75890000D03*
X128510000Y-75890000D03*
X129310000Y-75890000D03*
X130110000Y-75890000D03*
X130910000Y-75890000D03*
X123710000Y-76690000D03*
X124510000Y-76690000D03*
X125310000Y-76690000D03*
X126110000Y-76690000D03*
X126910000Y-76690000D03*
X127710000Y-76690000D03*
X128510000Y-76690000D03*
X129310000Y-76690000D03*
X130110000Y-76690000D03*
X130910000Y-76690000D03*
D23*
X136990000Y-72930000D03*
X136990000Y-72020000D03*
X134740000Y-69290000D03*
X134740000Y-70200000D03*
D17*
X135210000Y-74290000D03*
X133570000Y-74290000D03*
D24*
X133570000Y-77170000D03*
X133570000Y-78500000D03*
D15*
X113100000Y-58680000D03*
D25*
X118325000Y-55525000D03*
X118325000Y-56475000D03*
X119275000Y-55525000D03*
X119275000Y-56475000D03*
D26*
X118325000Y-55525000D03*
X118325000Y-56475000D03*
X119275000Y-55525000D03*
X119275000Y-56475000D03*
D27*
X117005000Y-56975000D03*
X117005000Y-56325000D03*
X117005000Y-55675000D03*
X117005000Y-55025000D03*
D28*
X117825000Y-54205000D03*
X118475000Y-54205000D03*
X119125000Y-54205000D03*
X119775000Y-54205000D03*
D27*
X120595000Y-55025000D03*
X120595000Y-55675000D03*
X120595000Y-56325000D03*
X120595000Y-56975000D03*
D28*
X119775000Y-57795000D03*
X119125000Y-57795000D03*
X118475000Y-57795000D03*
X117825000Y-57795000D03*
D29*
X129400000Y-57605000D03*
X129900000Y-57605000D03*
X130400000Y-57605000D03*
X130900000Y-57605000D03*
X131400000Y-57605000D03*
X131400000Y-60275000D03*
X130900000Y-60275000D03*
X130400000Y-60275000D03*
X129900000Y-60275000D03*
X129400000Y-60275000D03*
D23*
X136840000Y-66755000D03*
X136840000Y-67665000D03*
X108600000Y-71250000D03*
X108600000Y-70340000D03*
X108590000Y-67555000D03*
X108590000Y-66645000D03*
X107590000Y-66655000D03*
X107590000Y-67565000D03*
D30*
X112505000Y-74270000D03*
X111595000Y-74270000D03*
D23*
X108600000Y-68470000D03*
X108600000Y-69380000D03*
X107580000Y-69380000D03*
X107580000Y-68470000D03*
D30*
X110290000Y-63640000D03*
X109380000Y-63640000D03*
D23*
X108590000Y-65680000D03*
X108590000Y-64770000D03*
D24*
X121360000Y-75300000D03*
X121360000Y-76630000D03*
D16*
X133290000Y-57800000D03*
X135390000Y-57800000D03*
D18*
X109100000Y-76980000D03*
X110430000Y-76980000D03*
X110135000Y-61020000D03*
X108805000Y-61020000D03*
D24*
X105990000Y-65490000D03*
X105990000Y-64160000D03*
D15*
X136470000Y-78390000D03*
X111750000Y-53910000D03*
X124060000Y-54560000D03*
X119770000Y-59850000D03*
X129900000Y-62190000D03*
X128310000Y-54040000D03*
D31*
X136800000Y-68950000D03*
X136800000Y-70410000D03*
D19*
X132670000Y-65250000D03*
X131310000Y-65250000D03*
D32*
X120240000Y-73900000D03*
X120240000Y-72540000D03*
D19*
X128750000Y-66800000D03*
X127390000Y-66800000D03*
D32*
X133370000Y-70050000D03*
X133370000Y-68690000D03*
X119800000Y-76660000D03*
X119800000Y-75300000D03*
D19*
X132710000Y-66750000D03*
X131350000Y-66750000D03*
X128750000Y-65250000D03*
X127390000Y-65250000D03*
X135270000Y-75850000D03*
X133910000Y-75850000D03*
D32*
X135140000Y-77130000D03*
X135140000Y-78490000D03*
D19*
X128780000Y-63820000D03*
X127420000Y-63820000D03*
D20*
X132155000Y-63950000D03*
X131265000Y-63950000D03*
X114370000Y-56280000D03*
X115260000Y-56280000D03*
X114360000Y-57560000D03*
X115250000Y-57560000D03*
X114370000Y-55030000D03*
X115260000Y-55030000D03*
D17*
X125800000Y-61030000D03*
X127440000Y-61030000D03*
X135000000Y-60950000D03*
X133360000Y-60950000D03*
X131280000Y-55720000D03*
X129640000Y-55720000D03*
X105750000Y-70770000D03*
X107390000Y-70770000D03*
D20*
X112475000Y-73210000D03*
X111585000Y-73210000D03*
D19*
X114970000Y-73360000D03*
X113610000Y-73360000D03*
X109100000Y-75560000D03*
X110460000Y-75560000D03*
D32*
X106140000Y-72590000D03*
X106140000Y-73950000D03*
D19*
X109100000Y-74150000D03*
X110460000Y-74150000D03*
D32*
X107580000Y-72590000D03*
X107580000Y-73950000D03*
D19*
X117070000Y-63550000D03*
X115710000Y-63550000D03*
X112900000Y-63550000D03*
X114260000Y-63550000D03*
X108820000Y-62450000D03*
X110180000Y-62450000D03*
D32*
X107390000Y-64160000D03*
X107390000Y-65520000D03*
M02*
