G04 #@! TF.GenerationSoftware,KiCad,Pcbnew,(5.1.0)-1*
G04 #@! TF.CreationDate,2019-06-03T19:39:10-07:00*
G04 #@! TF.ProjectId,SDCard-PCB,53444361-7264-42d5-9043-422e6b696361,rev?*
G04 #@! TF.SameCoordinates,Original*
G04 #@! TF.FileFunction,Copper,L3,Inr*
G04 #@! TF.FilePolarity,Positive*
%FSLAX46Y46*%
G04 Gerber Fmt 4.6, Leading zero omitted, Abs format (unit mm)*
G04 Created by KiCad (PCBNEW (5.1.0)-1) date 2019-06-03 19:39:10*
%MOMM*%
%LPD*%
G04 APERTURE LIST*
%ADD10O,1.700000X1.700000*%
%ADD11R,1.700000X1.700000*%
%ADD12C,2.500000*%
%ADD13C,0.450000*%
%ADD14C,0.152400*%
G04 APERTURE END LIST*
D10*
X111070000Y-83730000D03*
X113610000Y-83730000D03*
X116150000Y-83730000D03*
X118690000Y-83730000D03*
X121230000Y-83730000D03*
X123770000Y-83730000D03*
X126310000Y-83730000D03*
D11*
X128850000Y-83730000D03*
X140150000Y-82910000D03*
X140230000Y-72600000D03*
X140200000Y-68450000D03*
X140150000Y-78710000D03*
X140010000Y-60640000D03*
X140010000Y-55990000D03*
D12*
X106980000Y-84890000D03*
X106980000Y-79810000D03*
X101900000Y-79810000D03*
X101900000Y-84890000D03*
X104440000Y-82350000D03*
D13*
X133985000Y-83835000D03*
X116900000Y-52600000D03*
X116870000Y-54330000D03*
X113550000Y-56280000D03*
X129620000Y-65250000D03*
X133620000Y-65250000D03*
X126330000Y-62390000D03*
X136000000Y-60940000D03*
X108070000Y-75570000D03*
X106830000Y-71830000D03*
X109360000Y-68020000D03*
X110720000Y-69240000D03*
X112220000Y-64650000D03*
X117720000Y-64640000D03*
X109950002Y-72070000D03*
X107390000Y-62460000D03*
X112500000Y-75200000D03*
X115100000Y-72000000D03*
X119800000Y-77550000D03*
X119200000Y-73910000D03*
X114860000Y-75450000D03*
X132720000Y-79900000D03*
X136270000Y-79690000D03*
X137930000Y-82900000D03*
X136340000Y-75840000D03*
X134190000Y-70970000D03*
X128110000Y-72290000D03*
X128910000Y-74690000D03*
X126510000Y-73890000D03*
X126520000Y-72290000D03*
X128910000Y-73890000D03*
X124500000Y-77490000D03*
X131200000Y-61700000D03*
X115570000Y-54080000D03*
X118820000Y-53330000D03*
X118480000Y-58760000D03*
X130370000Y-65250000D03*
X126550000Y-64510000D03*
X132440000Y-59860000D03*
X106900000Y-75130000D03*
X106840000Y-68020000D03*
X114265000Y-64645000D03*
X109410000Y-73090000D03*
X111410000Y-71940000D03*
X108580000Y-63640000D03*
X115240000Y-77480000D03*
X108170000Y-76980000D03*
X137770000Y-79410000D03*
X132920000Y-75860000D03*
X135910000Y-72020000D03*
X135850000Y-68480000D03*
X127310000Y-73890000D03*
X128110000Y-75490000D03*
X130510000Y-74690000D03*
X129710000Y-72300000D03*
X125720000Y-72280000D03*
X119400000Y-52600000D03*
X115852498Y-56897498D03*
X128400000Y-60080000D03*
X109590000Y-70320000D03*
X115765000Y-64615000D03*
X126510000Y-66800000D03*
X122440000Y-76910000D03*
X119200000Y-72240000D03*
X131800000Y-75570000D03*
X134700000Y-68310000D03*
X129710000Y-75490000D03*
X127320000Y-71480000D03*
X127310000Y-75490000D03*
X125710000Y-73090000D03*
X135730000Y-73090000D03*
X116090000Y-52620000D03*
X115000000Y-58530000D03*
X118300000Y-52610000D03*
X120500000Y-52620000D03*
X121590000Y-52670000D03*
X122700000Y-52700000D03*
X123050000Y-76280000D03*
X104670000Y-76280000D03*
X123100000Y-74690000D03*
X104120000Y-74680000D03*
X120570000Y-77500000D03*
X120560000Y-66750000D03*
X125310000Y-67750000D03*
X117280000Y-67750000D03*
X121620000Y-73080000D03*
X117960000Y-73070000D03*
X126510000Y-71490000D03*
X110370000Y-65180000D03*
X127310000Y-69890000D03*
X110920000Y-65710000D03*
X130510000Y-68590000D03*
X111430000Y-65230002D03*
X124510000Y-63720000D03*
X117210004Y-53770000D03*
X120220000Y-53500000D03*
X125710000Y-65039998D03*
X120690000Y-54150000D03*
X124910000Y-61000000D03*
D14*
X125710000Y-73090000D02*
X135730000Y-73090000D01*
X123050000Y-76280000D02*
X104670000Y-76280000D01*
X123100000Y-74690000D02*
X104130000Y-74690000D01*
X120570000Y-66760000D02*
X120560000Y-66750000D01*
X125310000Y-67750000D02*
X117280000Y-67750000D01*
X121620000Y-73080000D02*
X117970000Y-73080000D01*
X110370000Y-65498198D02*
X110370000Y-65180000D01*
X110370000Y-66390000D02*
X110370000Y-65498198D01*
X126510000Y-71490000D02*
X115470000Y-71490000D01*
X115470000Y-71490000D02*
X110370000Y-66390000D01*
X110920000Y-65880000D02*
X110920000Y-65710000D01*
X127310000Y-69890000D02*
X114930000Y-69890000D01*
X114930000Y-69890000D02*
X110920000Y-65880000D01*
X130510000Y-68590000D02*
X114789998Y-68590000D01*
X114789998Y-68590000D02*
X111654999Y-65455001D01*
X111654999Y-65455001D02*
X111430000Y-65230002D01*
M02*
