G04 #@! TF.GenerationSoftware,KiCad,Pcbnew,(5.1.0)-1*
G04 #@! TF.CreationDate,2019-09-19T22:09:00-07:00*
G04 #@! TF.ProjectId,FlexPC-3,466c6578-5043-42d3-932e-6b696361645f,rev?*
G04 #@! TF.SameCoordinates,Original*
G04 #@! TF.FileFunction,Soldermask,Bot*
G04 #@! TF.FilePolarity,Negative*
%FSLAX46Y46*%
G04 Gerber Fmt 4.6, Leading zero omitted, Abs format (unit mm)*
G04 Created by KiCad (PCBNEW (5.1.0)-1) date 2019-09-19 22:09:00*
%MOMM*%
%LPD*%
G04 APERTURE LIST*
%ADD10C,0.100000*%
G04 APERTURE END LIST*
D10*
G36*
X125124544Y-86101880D02*
G01*
X125180050Y-86124871D01*
X125180052Y-86124872D01*
X125205199Y-86141675D01*
X125230005Y-86158250D01*
X125272490Y-86200735D01*
X125305869Y-86250690D01*
X125328860Y-86306196D01*
X125340580Y-86365118D01*
X125340580Y-86425202D01*
X125328860Y-86484124D01*
X125305869Y-86539630D01*
X125275902Y-86584479D01*
X125272489Y-86589586D01*
X125230006Y-86632069D01*
X125180052Y-86665448D01*
X125180051Y-86665449D01*
X125180050Y-86665449D01*
X125124544Y-86688440D01*
X125065622Y-86700160D01*
X125005538Y-86700160D01*
X124946618Y-86688441D01*
X124893145Y-86666292D01*
X124869696Y-86659180D01*
X124845310Y-86656778D01*
X124820924Y-86659180D01*
X124797475Y-86666294D01*
X124775864Y-86677845D01*
X124756922Y-86693390D01*
X124741377Y-86712332D01*
X124729826Y-86733943D01*
X124722714Y-86757392D01*
X124720312Y-86781778D01*
X124722714Y-86806163D01*
X124730980Y-86847718D01*
X124730980Y-86907800D01*
X124722714Y-86949357D01*
X124720312Y-86973744D01*
X124722714Y-86998130D01*
X124729827Y-87021579D01*
X124741378Y-87043189D01*
X124756924Y-87062131D01*
X124775866Y-87077676D01*
X124797477Y-87089227D01*
X124820925Y-87096340D01*
X124845312Y-87098742D01*
X124869698Y-87096340D01*
X124893146Y-87089227D01*
X124946616Y-87067079D01*
X125005538Y-87055359D01*
X125065622Y-87055359D01*
X125124544Y-87067079D01*
X125180050Y-87090070D01*
X125180052Y-87090071D01*
X125230006Y-87123450D01*
X125272489Y-87165933D01*
X125303177Y-87211859D01*
X125305869Y-87215889D01*
X125328860Y-87271395D01*
X125340580Y-87330317D01*
X125340580Y-87390401D01*
X125328860Y-87449323D01*
X125305869Y-87504829D01*
X125305868Y-87504831D01*
X125272489Y-87554785D01*
X125230006Y-87597268D01*
X125180052Y-87630647D01*
X125180051Y-87630648D01*
X125180050Y-87630648D01*
X125124544Y-87653639D01*
X125065622Y-87665359D01*
X125005538Y-87665359D01*
X124946616Y-87653639D01*
X124891110Y-87630648D01*
X124891109Y-87630648D01*
X124891108Y-87630647D01*
X124841154Y-87597268D01*
X124798671Y-87554785D01*
X124765292Y-87504831D01*
X124765291Y-87504829D01*
X124742300Y-87449323D01*
X124730580Y-87390401D01*
X124730580Y-87330318D01*
X124738846Y-87288761D01*
X124741248Y-87264374D01*
X124738846Y-87239988D01*
X124731733Y-87216539D01*
X124720182Y-87194929D01*
X124704636Y-87175987D01*
X124685694Y-87160442D01*
X124664083Y-87148891D01*
X124640635Y-87141778D01*
X124616248Y-87139376D01*
X124591862Y-87141778D01*
X124568414Y-87148891D01*
X124514944Y-87171039D01*
X124456022Y-87182759D01*
X124395938Y-87182759D01*
X124337016Y-87171039D01*
X124281510Y-87148048D01*
X124281509Y-87148048D01*
X124281508Y-87148047D01*
X124231554Y-87114668D01*
X124189071Y-87072185D01*
X124155692Y-87022231D01*
X124155422Y-87021579D01*
X124132700Y-86966723D01*
X124120980Y-86907801D01*
X124120980Y-86847717D01*
X124132700Y-86788795D01*
X124155691Y-86733289D01*
X124189070Y-86683334D01*
X124231555Y-86640849D01*
X124275537Y-86611461D01*
X124281508Y-86607471D01*
X124281510Y-86607470D01*
X124337016Y-86584479D01*
X124395938Y-86572759D01*
X124456022Y-86572759D01*
X124514942Y-86584478D01*
X124568415Y-86606627D01*
X124591864Y-86613739D01*
X124616250Y-86616141D01*
X124640636Y-86613739D01*
X124664085Y-86606625D01*
X124685696Y-86595074D01*
X124704638Y-86579529D01*
X124720183Y-86560587D01*
X124731734Y-86538976D01*
X124738846Y-86515527D01*
X124741248Y-86491141D01*
X124738846Y-86466756D01*
X124730580Y-86425201D01*
X124730580Y-86365118D01*
X124742300Y-86306196D01*
X124765291Y-86250690D01*
X124798670Y-86200735D01*
X124841155Y-86158250D01*
X124865961Y-86141675D01*
X124891108Y-86124872D01*
X124891110Y-86124871D01*
X124946616Y-86101880D01*
X125005538Y-86090160D01*
X125065622Y-86090160D01*
X125124544Y-86101880D01*
X125124544Y-86101880D01*
G37*
G36*
X117124544Y-86097200D02*
G01*
X117180050Y-86120191D01*
X117180052Y-86120192D01*
X117187054Y-86124871D01*
X117230005Y-86153570D01*
X117272490Y-86196055D01*
X117305869Y-86246010D01*
X117328860Y-86301516D01*
X117340580Y-86360438D01*
X117340580Y-86420522D01*
X117328860Y-86479444D01*
X117305869Y-86534950D01*
X117272775Y-86584479D01*
X117272489Y-86584906D01*
X117230006Y-86627389D01*
X117180052Y-86660768D01*
X117180051Y-86660769D01*
X117180050Y-86660769D01*
X117124544Y-86683760D01*
X117065622Y-86695480D01*
X117005538Y-86695480D01*
X116946618Y-86683761D01*
X116893145Y-86661612D01*
X116869696Y-86654500D01*
X116845310Y-86652098D01*
X116820924Y-86654500D01*
X116797475Y-86661614D01*
X116775864Y-86673165D01*
X116756922Y-86688710D01*
X116741377Y-86707652D01*
X116729826Y-86729263D01*
X116722714Y-86752712D01*
X116720312Y-86777098D01*
X116722714Y-86801483D01*
X116730980Y-86843038D01*
X116730980Y-86903120D01*
X116722714Y-86944677D01*
X116720312Y-86969064D01*
X116722714Y-86993450D01*
X116729827Y-87016899D01*
X116741378Y-87038509D01*
X116756924Y-87057451D01*
X116775866Y-87072996D01*
X116797477Y-87084547D01*
X116820925Y-87091660D01*
X116845312Y-87094062D01*
X116869698Y-87091660D01*
X116893146Y-87084547D01*
X116946616Y-87062399D01*
X117005538Y-87050679D01*
X117065622Y-87050679D01*
X117124544Y-87062399D01*
X117180050Y-87085390D01*
X117180052Y-87085391D01*
X117187054Y-87090070D01*
X117230005Y-87118769D01*
X117272490Y-87161254D01*
X117305869Y-87211209D01*
X117328860Y-87266715D01*
X117340580Y-87325637D01*
X117340580Y-87385721D01*
X117328860Y-87444643D01*
X117326921Y-87449324D01*
X117305868Y-87500151D01*
X117272489Y-87550105D01*
X117230006Y-87592588D01*
X117180052Y-87625967D01*
X117180051Y-87625968D01*
X117180050Y-87625968D01*
X117124544Y-87648959D01*
X117065622Y-87660679D01*
X117005538Y-87660679D01*
X116946616Y-87648959D01*
X116891110Y-87625968D01*
X116891109Y-87625968D01*
X116891108Y-87625967D01*
X116841154Y-87592588D01*
X116798671Y-87550105D01*
X116765292Y-87500151D01*
X116744239Y-87449324D01*
X116742300Y-87444643D01*
X116730580Y-87385721D01*
X116730580Y-87325638D01*
X116738846Y-87284081D01*
X116741248Y-87259694D01*
X116738846Y-87235308D01*
X116731733Y-87211859D01*
X116720182Y-87190249D01*
X116704636Y-87171307D01*
X116685694Y-87155762D01*
X116664083Y-87144211D01*
X116640635Y-87137098D01*
X116616248Y-87134696D01*
X116591862Y-87137098D01*
X116568414Y-87144211D01*
X116514944Y-87166359D01*
X116456022Y-87178079D01*
X116395938Y-87178079D01*
X116337016Y-87166359D01*
X116281510Y-87143368D01*
X116281509Y-87143368D01*
X116281508Y-87143367D01*
X116231554Y-87109988D01*
X116189071Y-87067505D01*
X116155692Y-87017551D01*
X116137547Y-86973744D01*
X116132700Y-86962043D01*
X116120980Y-86903121D01*
X116120980Y-86843037D01*
X116132700Y-86784115D01*
X116155691Y-86728609D01*
X116189070Y-86678654D01*
X116231555Y-86636169D01*
X116274506Y-86607470D01*
X116281508Y-86602791D01*
X116281510Y-86602790D01*
X116337016Y-86579799D01*
X116395938Y-86568079D01*
X116456022Y-86568079D01*
X116514942Y-86579798D01*
X116568415Y-86601947D01*
X116591864Y-86609059D01*
X116616250Y-86611461D01*
X116640636Y-86609059D01*
X116664085Y-86601945D01*
X116685696Y-86590394D01*
X116704638Y-86574849D01*
X116720183Y-86555907D01*
X116731734Y-86534296D01*
X116738846Y-86510847D01*
X116741248Y-86486461D01*
X116738846Y-86462076D01*
X116730580Y-86420521D01*
X116730580Y-86360438D01*
X116742300Y-86301516D01*
X116765291Y-86246010D01*
X116798670Y-86196055D01*
X116841155Y-86153570D01*
X116884106Y-86124871D01*
X116891108Y-86120192D01*
X116891110Y-86120191D01*
X116946616Y-86097200D01*
X117005538Y-86085480D01*
X117065622Y-86085480D01*
X117124544Y-86097200D01*
X117124544Y-86097200D01*
G37*
M02*
