G04 #@! TF.GenerationSoftware,KiCad,Pcbnew,(5.1.0)-1*
G04 #@! TF.CreationDate,2019-09-18T18:13:18-07:00*
G04 #@! TF.ProjectId,FlexPC-3,466c6578-5043-42d3-932e-6b696361645f,rev?*
G04 #@! TF.SameCoordinates,Original*
G04 #@! TF.FileFunction,Legend,Top*
G04 #@! TF.FilePolarity,Positive*
%FSLAX46Y46*%
G04 Gerber Fmt 4.6, Leading zero omitted, Abs format (unit mm)*
G04 Created by KiCad (PCBNEW (5.1.0)-1) date 2019-09-18 18:13:18*
%MOMM*%
%LPD*%
G04 APERTURE LIST*
%ADD10C,0.152400*%
%ADD11C,0.150000*%
G04 APERTURE END LIST*
D10*
X118606202Y-86722448D02*
X118463345Y-86651020D01*
X118391917Y-86579591D01*
X118320488Y-86436734D01*
X118320488Y-86365305D01*
X118391917Y-86222448D01*
X118463345Y-86151020D01*
X118606202Y-86079591D01*
X118891917Y-86079591D01*
X119034774Y-86151020D01*
X119106202Y-86222448D01*
X119177631Y-86365305D01*
X119177631Y-86436734D01*
X119106202Y-86579591D01*
X119034774Y-86651020D01*
X118891917Y-86722448D01*
X118606202Y-86722448D01*
X118463345Y-86793877D01*
X118391917Y-86865305D01*
X118320488Y-87008162D01*
X118320488Y-87293877D01*
X118391917Y-87436734D01*
X118463345Y-87508162D01*
X118606202Y-87579591D01*
X118891917Y-87579591D01*
X119034774Y-87508162D01*
X119106202Y-87436734D01*
X119177631Y-87293877D01*
X119177631Y-87008162D01*
X119106202Y-86865305D01*
X119034774Y-86793877D01*
X118891917Y-86722448D01*
X119820488Y-87579591D02*
X119820488Y-86579591D01*
X119820488Y-86722448D02*
X119891917Y-86651020D01*
X120034774Y-86579591D01*
X120249060Y-86579591D01*
X120391917Y-86651020D01*
X120463345Y-86793877D01*
X120463345Y-87579591D01*
X120463345Y-86793877D02*
X120534774Y-86651020D01*
X120677631Y-86579591D01*
X120891917Y-86579591D01*
X121034774Y-86651020D01*
X121106202Y-86793877D01*
X121106202Y-87579591D01*
X121820488Y-87579591D02*
X121820488Y-86579591D01*
X121820488Y-86722448D02*
X121891917Y-86651020D01*
X122034774Y-86579591D01*
X122249060Y-86579591D01*
X122391917Y-86651020D01*
X122463345Y-86793877D01*
X122463345Y-87579591D01*
X122463345Y-86793877D02*
X122534774Y-86651020D01*
X122677631Y-86579591D01*
X122891917Y-86579591D01*
X123034774Y-86651020D01*
X123106202Y-86793877D01*
X123106202Y-87579591D01*
D11*
X126018040Y-87163233D02*
X126732326Y-87163233D01*
X126875183Y-87210852D01*
X126970421Y-87306090D01*
X127018040Y-87448947D01*
X127018040Y-87544185D01*
X126113279Y-86734661D02*
X126065660Y-86687042D01*
X126018040Y-86591804D01*
X126018040Y-86353709D01*
X126065660Y-86258471D01*
X126113279Y-86210852D01*
X126208517Y-86163233D01*
X126303755Y-86163233D01*
X126446612Y-86210852D01*
X127018040Y-86782280D01*
X127018040Y-86163233D01*
X114364520Y-87059093D02*
X115078806Y-87059093D01*
X115221663Y-87106712D01*
X115316901Y-87201950D01*
X115364520Y-87344807D01*
X115364520Y-87440045D01*
X115364520Y-86059093D02*
X115364520Y-86630521D01*
X115364520Y-86344807D02*
X114364520Y-86344807D01*
X114507378Y-86440045D01*
X114602616Y-86535283D01*
X114650235Y-86630521D01*
M02*
