%TF.GenerationSoftware,KiCad,Pcbnew,(5.1.6)-1*%
%TF.CreationDate,2021-06-04T12:20:07-07:00*%
%TF.ProjectId,Miniscope-v4-Wire-Free,4d696e69-7363-46f7-9065-2d76342d5769,rev?*%
%TF.SameCoordinates,Original*%
%TF.FileFunction,Copper,L6,Bot*%
%TF.FilePolarity,Positive*%
%FSLAX46Y46*%
G04 Gerber Fmt 4.6, Leading zero omitted, Abs format (unit mm)*
G04 Created by KiCad (PCBNEW (5.1.6)-1) date 2021-06-04 12:20:07*
%MOMM*%
%LPD*%
G01*
G04 APERTURE LIST*
%TA.AperFunction,ComponentPad*%
%ADD10C,1.000000*%
%TD*%
%TA.AperFunction,SMDPad,CuDef*%
%ADD11R,1.500000X0.450000*%
%TD*%
%TA.AperFunction,SMDPad,CuDef*%
%ADD12R,3.149999X2.550000*%
%TD*%
%TA.AperFunction,ViaPad*%
%ADD13C,0.400000*%
%TD*%
%TA.AperFunction,Conductor*%
%ADD14C,0.152400*%
%TD*%
%TA.AperFunction,Conductor*%
%ADD15C,0.203200*%
%TD*%
G04 APERTURE END LIST*
D10*
%TO.P,J21,1*%
%TO.N,+3V3*%
X97000000Y-60055000D03*
%TD*%
%TO.P,J23,1*%
%TO.N,/I2C_BB_SDA*%
X97000000Y-62595000D03*
%TD*%
D11*
%TO.P,D1,C*%
%TO.N,GND*%
X103800000Y-64150000D03*
%TO.P,D1,A*%
%TO.N,/I_LED*%
X103800000Y-64850000D03*
%TD*%
D10*
%TO.P,J25,1*%
%TO.N,/I_LED*%
X97000000Y-65135000D03*
%TD*%
%TO.P,J26,1*%
%TO.N,+1V8*%
X97000000Y-66405000D03*
%TD*%
%TO.P,J22,1*%
%TO.N,/I2C_BB_SCL*%
X97000000Y-61325000D03*
%TD*%
%TO.P,J24,1*%
%TO.N,/IR_REC*%
X97000000Y-63865000D03*
%TD*%
%TO.P,J27,1*%
%TO.N,/nON*%
X97000000Y-67675000D03*
%TD*%
D12*
%TO.P,U2,11*%
%TO.N,GND*%
X99565400Y-62874400D03*
%TO.P,U2,10*%
%TO.N,Net-(C16-Pad1)*%
%TA.AperFunction,SMDPad,CuDef*%
G36*
G01*
X98185400Y-64359400D02*
X98345400Y-64359400D01*
G75*
G02*
X98425400Y-64439400I0J-80000D01*
G01*
X98425400Y-64979400D01*
G75*
G02*
X98345400Y-65059400I-80000J0D01*
G01*
X98185400Y-65059400D01*
G75*
G02*
X98105400Y-64979400I0J80000D01*
G01*
X98105400Y-64439400D01*
G75*
G02*
X98185400Y-64359400I80000J0D01*
G01*
G37*
%TD.AperFunction*%
%TO.P,U2,9*%
%TO.N,Net-(U2-Pad9)*%
%TA.AperFunction,SMDPad,CuDef*%
G36*
G01*
X98835400Y-64359400D02*
X98995400Y-64359400D01*
G75*
G02*
X99075400Y-64439400I0J-80000D01*
G01*
X99075400Y-64979400D01*
G75*
G02*
X98995400Y-65059400I-80000J0D01*
G01*
X98835400Y-65059400D01*
G75*
G02*
X98755400Y-64979400I0J80000D01*
G01*
X98755400Y-64439400D01*
G75*
G02*
X98835400Y-64359400I80000J0D01*
G01*
G37*
%TD.AperFunction*%
%TO.P,U2,8*%
%TO.N,/EWL_1*%
%TA.AperFunction,SMDPad,CuDef*%
G36*
G01*
X99485400Y-64359400D02*
X99645400Y-64359400D01*
G75*
G02*
X99725400Y-64439400I0J-80000D01*
G01*
X99725400Y-64979400D01*
G75*
G02*
X99645400Y-65059400I-80000J0D01*
G01*
X99485400Y-65059400D01*
G75*
G02*
X99405400Y-64979400I0J80000D01*
G01*
X99405400Y-64439400D01*
G75*
G02*
X99485400Y-64359400I80000J0D01*
G01*
G37*
%TD.AperFunction*%
%TO.P,U2,7*%
%TO.N,/EWL_2*%
%TA.AperFunction,SMDPad,CuDef*%
G36*
G01*
X100135400Y-64359400D02*
X100295400Y-64359400D01*
G75*
G02*
X100375400Y-64439400I0J-80000D01*
G01*
X100375400Y-64979400D01*
G75*
G02*
X100295400Y-65059400I-80000J0D01*
G01*
X100135400Y-65059400D01*
G75*
G02*
X100055400Y-64979400I0J80000D01*
G01*
X100055400Y-64439400D01*
G75*
G02*
X100135400Y-64359400I80000J0D01*
G01*
G37*
%TD.AperFunction*%
%TO.P,U2,6*%
%TO.N,GND*%
%TA.AperFunction,SMDPad,CuDef*%
G36*
G01*
X100785400Y-64359400D02*
X100945400Y-64359400D01*
G75*
G02*
X101025400Y-64439400I0J-80000D01*
G01*
X101025400Y-64979400D01*
G75*
G02*
X100945400Y-65059400I-80000J0D01*
G01*
X100785400Y-65059400D01*
G75*
G02*
X100705400Y-64979400I0J80000D01*
G01*
X100705400Y-64439400D01*
G75*
G02*
X100785400Y-64359400I80000J0D01*
G01*
G37*
%TD.AperFunction*%
%TO.P,U2,5*%
%TO.N,+1V8*%
%TA.AperFunction,SMDPad,CuDef*%
G36*
G01*
X100785400Y-60689400D02*
X100945400Y-60689400D01*
G75*
G02*
X101025400Y-60769400I0J-80000D01*
G01*
X101025400Y-61309400D01*
G75*
G02*
X100945400Y-61389400I-80000J0D01*
G01*
X100785400Y-61389400D01*
G75*
G02*
X100705400Y-61309400I0J80000D01*
G01*
X100705400Y-60769400D01*
G75*
G02*
X100785400Y-60689400I80000J0D01*
G01*
G37*
%TD.AperFunction*%
%TO.P,U2,4*%
%TO.N,/I2C_BB_SDA*%
%TA.AperFunction,SMDPad,CuDef*%
G36*
G01*
X100135400Y-60689400D02*
X100295400Y-60689400D01*
G75*
G02*
X100375400Y-60769400I0J-80000D01*
G01*
X100375400Y-61309400D01*
G75*
G02*
X100295400Y-61389400I-80000J0D01*
G01*
X100135400Y-61389400D01*
G75*
G02*
X100055400Y-61309400I0J80000D01*
G01*
X100055400Y-60769400D01*
G75*
G02*
X100135400Y-60689400I80000J0D01*
G01*
G37*
%TD.AperFunction*%
%TO.P,U2,3*%
%TO.N,/I2C_BB_SCL*%
%TA.AperFunction,SMDPad,CuDef*%
G36*
G01*
X99485400Y-60689400D02*
X99645400Y-60689400D01*
G75*
G02*
X99725400Y-60769400I0J-80000D01*
G01*
X99725400Y-61309400D01*
G75*
G02*
X99645400Y-61389400I-80000J0D01*
G01*
X99485400Y-61389400D01*
G75*
G02*
X99405400Y-61309400I0J80000D01*
G01*
X99405400Y-60769400D01*
G75*
G02*
X99485400Y-60689400I80000J0D01*
G01*
G37*
%TD.AperFunction*%
%TO.P,U2,2*%
%TO.N,+3V3*%
%TA.AperFunction,SMDPad,CuDef*%
G36*
G01*
X98835400Y-60689400D02*
X98995400Y-60689400D01*
G75*
G02*
X99075400Y-60769400I0J-80000D01*
G01*
X99075400Y-61309400D01*
G75*
G02*
X98995400Y-61389400I-80000J0D01*
G01*
X98835400Y-61389400D01*
G75*
G02*
X98755400Y-61309400I0J80000D01*
G01*
X98755400Y-60769400D01*
G75*
G02*
X98835400Y-60689400I80000J0D01*
G01*
G37*
%TD.AperFunction*%
%TO.P,U2,1*%
%TO.N,GND*%
%TA.AperFunction,SMDPad,CuDef*%
G36*
G01*
X98185400Y-60689400D02*
X98345400Y-60689400D01*
G75*
G02*
X98425400Y-60769400I0J-80000D01*
G01*
X98425400Y-61309400D01*
G75*
G02*
X98345400Y-61389400I-80000J0D01*
G01*
X98185400Y-61389400D01*
G75*
G02*
X98105400Y-61309400I0J80000D01*
G01*
X98105400Y-60769400D01*
G75*
G02*
X98185400Y-60689400I80000J0D01*
G01*
G37*
%TD.AperFunction*%
%TD*%
%TO.P,C16,2*%
%TO.N,GND*%
%TA.AperFunction,SMDPad,CuDef*%
G36*
G01*
X99434000Y-66332700D02*
X99434000Y-65867700D01*
G75*
G02*
X99636500Y-65665200I202500J0D01*
G01*
X100041500Y-65665200D01*
G75*
G02*
X100244000Y-65867700I0J-202500D01*
G01*
X100244000Y-66332700D01*
G75*
G02*
X100041500Y-66535200I-202500J0D01*
G01*
X99636500Y-66535200D01*
G75*
G02*
X99434000Y-66332700I0J202500D01*
G01*
G37*
%TD.AperFunction*%
%TO.P,C16,1*%
%TO.N,Net-(C16-Pad1)*%
%TA.AperFunction,SMDPad,CuDef*%
G36*
G01*
X98074000Y-66332700D02*
X98074000Y-65867700D01*
G75*
G02*
X98276500Y-65665200I202500J0D01*
G01*
X98681500Y-65665200D01*
G75*
G02*
X98884000Y-65867700I0J-202500D01*
G01*
X98884000Y-66332700D01*
G75*
G02*
X98681500Y-66535200I-202500J0D01*
G01*
X98276500Y-66535200D01*
G75*
G02*
X98074000Y-66332700I0J202500D01*
G01*
G37*
%TD.AperFunction*%
%TD*%
D10*
%TO.P,J12,1*%
%TO.N,GND*%
X97000000Y-68945000D03*
%TD*%
D13*
%TO.N,GND*%
X99819400Y-66125600D03*
X102200000Y-63590000D03*
X99370000Y-62120000D03*
X103820000Y-63550000D03*
X104410000Y-63580000D03*
X100980000Y-68300000D03*
X99140000Y-68270000D03*
X102210000Y-61070000D03*
%TO.N,+1V8*%
X100860800Y-61045600D03*
X102350000Y-62640000D03*
%TO.N,+3V3*%
X99133600Y-65490600D03*
X98930400Y-61020200D03*
%TO.N,/EWL_1*%
X102300000Y-65990000D03*
%TO.N,/EWL_2*%
X102299996Y-64770000D03*
%TO.N,/IR_REC*%
X101110000Y-65340000D03*
%TO.N,/I2C_BB_SDA*%
X100238009Y-60867800D03*
%TO.N,/I2C_BB_SCL*%
X99565419Y-61285419D03*
%TO.N,/I_LED*%
X103900000Y-65410000D03*
%TO.N,/nON*%
X97700000Y-60740000D03*
%TD*%
D14*
%TO.N,GND*%
X98265400Y-61039400D02*
X98265400Y-61574400D01*
X98265400Y-61574400D02*
X99565400Y-62874400D01*
X104370000Y-63580000D02*
X103800000Y-64150000D01*
X104410000Y-63580000D02*
X104370000Y-63580000D01*
X103820000Y-64130000D02*
X103800000Y-64150000D01*
X103820000Y-63550000D02*
X103820000Y-64130000D01*
X100865400Y-64174400D02*
X99565400Y-62874400D01*
X100865400Y-64709400D02*
X100865400Y-64174400D01*
%TO.N,/EWL_1*%
X99565400Y-64709400D02*
X99565400Y-64774002D01*
X100781398Y-65990000D02*
X102300000Y-65990000D01*
X99565400Y-64774002D02*
X100781398Y-65990000D01*
%TO.N,/EWL_2*%
X101920000Y-65700000D02*
X102299996Y-65320004D01*
X102299996Y-65320004D02*
X102299996Y-64770000D01*
X100215400Y-64709400D02*
X100215400Y-65059400D01*
X100856000Y-65700000D02*
X101920000Y-65700000D01*
X100215400Y-65059400D02*
X100856000Y-65700000D01*
%TO.N,Net-(C16-Pad1)*%
X98265400Y-65886600D02*
X98479000Y-66100200D01*
X98265400Y-64709400D02*
X98265400Y-65886600D01*
D15*
%TO.N,/I_LED*%
X103800000Y-64850000D02*
X103800000Y-65310000D01*
X103800000Y-65310000D02*
X103900000Y-65410000D01*
%TO.N,/nON*%
X97228210Y-67675000D02*
X97710000Y-67193210D01*
X97710000Y-60750000D02*
X97700000Y-60740000D01*
X97710000Y-67193210D02*
X97710000Y-60750000D01*
%TD*%
D14*
%TO.N,GND*%
G36*
X102916304Y-60438905D02*
G01*
X102819977Y-60583069D01*
X102753626Y-60743255D01*
X102719800Y-60913308D01*
X102719800Y-61086692D01*
X102753626Y-61256745D01*
X102819977Y-61416931D01*
X102916304Y-61561095D01*
X103038905Y-61683696D01*
X103183069Y-61780023D01*
X103343255Y-61846374D01*
X103513308Y-61880200D01*
X103686692Y-61880200D01*
X103856745Y-61846374D01*
X104016931Y-61780023D01*
X104161095Y-61683696D01*
X104283696Y-61561095D01*
X104335869Y-61483012D01*
X104338822Y-61492551D01*
X104351309Y-61522257D01*
X104363358Y-61552078D01*
X104365686Y-61556457D01*
X104458510Y-61728134D01*
X104476526Y-61754844D01*
X104494142Y-61781763D01*
X104497276Y-61785607D01*
X104621680Y-61935984D01*
X104644494Y-61958639D01*
X104667048Y-61981670D01*
X104670869Y-61984831D01*
X104822111Y-62108181D01*
X104848940Y-62126006D01*
X104875490Y-62144185D01*
X104879852Y-62146544D01*
X105052174Y-62238169D01*
X105081949Y-62250441D01*
X105111529Y-62263119D01*
X105116266Y-62264586D01*
X105303102Y-62320995D01*
X105334711Y-62327254D01*
X105366172Y-62333941D01*
X105371104Y-62334460D01*
X105565338Y-62353505D01*
X105565347Y-62353505D01*
X105582557Y-62355200D01*
X105923800Y-62355200D01*
X105923800Y-66644800D01*
X105582557Y-66644800D01*
X105567029Y-66646329D01*
X105560825Y-66646286D01*
X105555889Y-66646770D01*
X105361792Y-66667171D01*
X105330265Y-66673643D01*
X105298634Y-66679677D01*
X105293887Y-66681110D01*
X105107449Y-66738822D01*
X105077756Y-66751304D01*
X105047921Y-66763358D01*
X105043543Y-66765686D01*
X104871866Y-66858511D01*
X104845200Y-66876497D01*
X104818236Y-66894142D01*
X104814393Y-66897276D01*
X104664015Y-67021680D01*
X104641324Y-67044530D01*
X104618330Y-67067048D01*
X104615169Y-67070869D01*
X104491819Y-67222111D01*
X104473994Y-67248940D01*
X104455815Y-67275490D01*
X104453456Y-67279852D01*
X104361831Y-67452174D01*
X104349554Y-67481961D01*
X104336881Y-67511529D01*
X104335414Y-67516266D01*
X104335406Y-67516294D01*
X104283696Y-67438905D01*
X104161095Y-67316304D01*
X104016931Y-67219977D01*
X103856745Y-67153626D01*
X103686692Y-67119800D01*
X103513308Y-67119800D01*
X103343255Y-67153626D01*
X103183069Y-67219977D01*
X103038905Y-67316304D01*
X102916304Y-67438905D01*
X102819977Y-67583069D01*
X102753626Y-67743255D01*
X102719800Y-67913308D01*
X102719800Y-68086692D01*
X102753626Y-68256745D01*
X102819977Y-68416931D01*
X102916304Y-68561095D01*
X103000009Y-68644800D01*
X98482557Y-68644800D01*
X98467202Y-68646312D01*
X98462569Y-68646280D01*
X98457634Y-68646764D01*
X98312062Y-68662065D01*
X98280516Y-68668541D01*
X98248905Y-68674571D01*
X98244157Y-68676004D01*
X98104328Y-68719288D01*
X98074647Y-68731765D01*
X98064315Y-68735940D01*
X98033792Y-68601246D01*
X97974071Y-68457069D01*
X97780851Y-68415596D01*
X97355200Y-68841247D01*
X97355200Y-68426474D01*
X97393247Y-68410714D01*
X97529222Y-68319858D01*
X97644858Y-68204222D01*
X97735714Y-68068247D01*
X97798296Y-67917160D01*
X97830200Y-67756768D01*
X97830200Y-67683667D01*
X98000327Y-67513539D01*
X98016806Y-67500016D01*
X98070766Y-67434266D01*
X98110861Y-67359252D01*
X98135552Y-67277858D01*
X98141800Y-67214420D01*
X98141800Y-67214419D01*
X98143889Y-67193210D01*
X98141800Y-67172000D01*
X98141800Y-66847490D01*
X98172264Y-66856731D01*
X98276500Y-66866997D01*
X98681500Y-66866997D01*
X98785736Y-66856731D01*
X98885967Y-66826326D01*
X98918031Y-66809187D01*
X98945905Y-66861335D01*
X99018909Y-66950291D01*
X99107865Y-67023295D01*
X99209354Y-67077542D01*
X99319477Y-67110947D01*
X99434000Y-67122227D01*
X99515150Y-67119400D01*
X99661200Y-66973350D01*
X99661200Y-66278000D01*
X99641200Y-66278000D01*
X99641200Y-65922400D01*
X99661200Y-65922400D01*
X99661200Y-65902400D01*
X100016800Y-65902400D01*
X100016800Y-65922400D01*
X100036800Y-65922400D01*
X100036800Y-66278000D01*
X100016800Y-66278000D01*
X100016800Y-66973350D01*
X100162850Y-67119400D01*
X100244000Y-67122227D01*
X100358523Y-67110947D01*
X100468646Y-67077542D01*
X100570135Y-67023295D01*
X100659091Y-66950291D01*
X100732095Y-66861335D01*
X100786342Y-66759846D01*
X100819747Y-66649723D01*
X100831027Y-66535200D01*
X100828200Y-66424050D01*
X100800622Y-66396472D01*
X100801351Y-66396400D01*
X101956584Y-66396400D01*
X101962017Y-66401833D01*
X102048856Y-66459857D01*
X102145346Y-66499824D01*
X102247780Y-66520200D01*
X102352220Y-66520200D01*
X102454654Y-66499824D01*
X102551144Y-66459857D01*
X102637983Y-66401833D01*
X102711833Y-66327983D01*
X102769857Y-66241144D01*
X102809824Y-66144654D01*
X102830200Y-66042220D01*
X102830200Y-65937780D01*
X102809824Y-65835346D01*
X102769857Y-65738856D01*
X102711833Y-65652017D01*
X102637983Y-65578167D01*
X102622405Y-65567758D01*
X102639540Y-65546880D01*
X102677277Y-65476279D01*
X102693466Y-65422911D01*
X102700515Y-65399673D01*
X102703036Y-65374074D01*
X102706396Y-65339964D01*
X102706396Y-65339958D01*
X102708361Y-65320005D01*
X102706396Y-65300052D01*
X102706396Y-65113416D01*
X102711829Y-65107983D01*
X102720215Y-65095432D01*
X102724578Y-65139730D01*
X102743460Y-65201973D01*
X102774121Y-65259337D01*
X102815384Y-65309616D01*
X102865663Y-65350879D01*
X102923027Y-65381540D01*
X102985270Y-65400422D01*
X103050000Y-65406797D01*
X103369800Y-65406797D01*
X103369800Y-65462220D01*
X103390176Y-65564654D01*
X103430143Y-65661144D01*
X103488167Y-65747983D01*
X103562017Y-65821833D01*
X103648856Y-65879857D01*
X103745346Y-65919824D01*
X103847780Y-65940200D01*
X103952220Y-65940200D01*
X104054654Y-65919824D01*
X104151144Y-65879857D01*
X104237983Y-65821833D01*
X104311833Y-65747983D01*
X104369857Y-65661144D01*
X104409824Y-65564654D01*
X104430200Y-65462220D01*
X104430200Y-65406797D01*
X104550000Y-65406797D01*
X104614730Y-65400422D01*
X104676973Y-65381540D01*
X104734337Y-65350879D01*
X104784616Y-65309616D01*
X104825879Y-65259337D01*
X104856540Y-65201973D01*
X104875422Y-65139730D01*
X104881797Y-65075000D01*
X104881797Y-64856742D01*
X104950954Y-64803761D01*
X105026897Y-64717301D01*
X105084513Y-64617685D01*
X105121588Y-64508744D01*
X105134200Y-64444850D01*
X104988150Y-64298800D01*
X104606830Y-64298800D01*
X104550000Y-64293203D01*
X103050000Y-64293203D01*
X102993170Y-64298800D01*
X102611850Y-64298800D01*
X102586728Y-64323922D01*
X102551140Y-64300143D01*
X102454650Y-64260176D01*
X102352216Y-64239800D01*
X102247776Y-64239800D01*
X102145342Y-64260176D01*
X102048852Y-64300143D01*
X101962013Y-64358167D01*
X101888163Y-64432017D01*
X101830139Y-64518856D01*
X101790172Y-64615346D01*
X101769796Y-64717780D01*
X101769796Y-64822220D01*
X101790172Y-64924654D01*
X101830139Y-65021144D01*
X101888163Y-65107983D01*
X101893596Y-65113416D01*
X101893596Y-65151668D01*
X101751664Y-65293600D01*
X101640200Y-65293600D01*
X101640200Y-65287780D01*
X101619824Y-65185346D01*
X101604865Y-65149232D01*
X101606518Y-65142485D01*
X101609600Y-65033250D01*
X101463550Y-64887200D01*
X101386672Y-64887200D01*
X101361144Y-64870143D01*
X101264654Y-64830176D01*
X101162220Y-64809800D01*
X101057780Y-64809800D01*
X100955346Y-64830176D01*
X100858856Y-64870143D01*
X100803396Y-64907200D01*
X100781600Y-64907200D01*
X100781600Y-64887200D01*
X100707197Y-64887200D01*
X100707197Y-64735448D01*
X101140399Y-64736427D01*
X101254922Y-64725147D01*
X101365045Y-64691742D01*
X101466534Y-64637495D01*
X101555490Y-64564491D01*
X101628494Y-64475535D01*
X101682741Y-64374046D01*
X101716146Y-64263923D01*
X101727426Y-64149400D01*
X101726552Y-63855150D01*
X102465800Y-63855150D01*
X102611850Y-64001200D01*
X103622200Y-64001200D01*
X103622200Y-63486850D01*
X103977800Y-63486850D01*
X103977800Y-64001200D01*
X104988150Y-64001200D01*
X105134200Y-63855150D01*
X105121588Y-63791256D01*
X105084513Y-63682315D01*
X105026897Y-63582699D01*
X104950954Y-63496239D01*
X104859603Y-63426255D01*
X104756354Y-63375438D01*
X104645174Y-63345740D01*
X104530337Y-63338302D01*
X104123850Y-63340800D01*
X103977800Y-63486850D01*
X103622200Y-63486850D01*
X103476150Y-63340800D01*
X103069663Y-63338302D01*
X102954826Y-63345740D01*
X102843646Y-63375438D01*
X102740397Y-63426255D01*
X102649046Y-63496239D01*
X102573103Y-63582699D01*
X102515487Y-63682315D01*
X102478412Y-63791256D01*
X102465800Y-63855150D01*
X101726552Y-63855150D01*
X101724599Y-63198250D01*
X101578549Y-63052200D01*
X99743200Y-63052200D01*
X99743200Y-63072200D01*
X99387600Y-63072200D01*
X99387600Y-63052200D01*
X99367600Y-63052200D01*
X99367600Y-62696600D01*
X99387600Y-62696600D01*
X99387600Y-62676600D01*
X99743200Y-62676600D01*
X99743200Y-62696600D01*
X101578549Y-62696600D01*
X101687369Y-62587780D01*
X101819800Y-62587780D01*
X101819800Y-62692220D01*
X101840176Y-62794654D01*
X101880143Y-62891144D01*
X101938167Y-62977983D01*
X102012017Y-63051833D01*
X102098856Y-63109857D01*
X102195346Y-63149824D01*
X102297780Y-63170200D01*
X102402220Y-63170200D01*
X102504654Y-63149824D01*
X102601144Y-63109857D01*
X102687983Y-63051833D01*
X102761833Y-62977983D01*
X102819857Y-62891144D01*
X102859824Y-62794654D01*
X102880200Y-62692220D01*
X102880200Y-62587780D01*
X102859824Y-62485346D01*
X102819857Y-62388856D01*
X102761833Y-62302017D01*
X102687983Y-62228167D01*
X102601144Y-62170143D01*
X102504654Y-62130176D01*
X102402220Y-62109800D01*
X102297780Y-62109800D01*
X102195346Y-62130176D01*
X102098856Y-62170143D01*
X102012017Y-62228167D01*
X101938167Y-62302017D01*
X101880143Y-62388856D01*
X101840176Y-62485346D01*
X101819800Y-62587780D01*
X101687369Y-62587780D01*
X101724599Y-62550550D01*
X101727426Y-61599400D01*
X101716146Y-61484877D01*
X101682741Y-61374754D01*
X101628494Y-61273265D01*
X101555490Y-61184309D01*
X101466534Y-61111305D01*
X101391000Y-61070931D01*
X101391000Y-60993380D01*
X101370624Y-60890946D01*
X101357197Y-60858530D01*
X101357197Y-60769400D01*
X101349284Y-60689062D01*
X101325851Y-60611812D01*
X101287797Y-60540618D01*
X101236584Y-60478216D01*
X101174182Y-60427003D01*
X101102988Y-60388949D01*
X101025738Y-60365516D01*
X100945400Y-60357603D01*
X100785400Y-60357603D01*
X100705062Y-60365516D01*
X100627812Y-60388949D01*
X100556618Y-60427003D01*
X100545859Y-60435833D01*
X100489153Y-60397943D01*
X100392663Y-60357976D01*
X100378708Y-60355200D01*
X103000009Y-60355200D01*
X102916304Y-60438905D01*
G37*
X102916304Y-60438905D02*
X102819977Y-60583069D01*
X102753626Y-60743255D01*
X102719800Y-60913308D01*
X102719800Y-61086692D01*
X102753626Y-61256745D01*
X102819977Y-61416931D01*
X102916304Y-61561095D01*
X103038905Y-61683696D01*
X103183069Y-61780023D01*
X103343255Y-61846374D01*
X103513308Y-61880200D01*
X103686692Y-61880200D01*
X103856745Y-61846374D01*
X104016931Y-61780023D01*
X104161095Y-61683696D01*
X104283696Y-61561095D01*
X104335869Y-61483012D01*
X104338822Y-61492551D01*
X104351309Y-61522257D01*
X104363358Y-61552078D01*
X104365686Y-61556457D01*
X104458510Y-61728134D01*
X104476526Y-61754844D01*
X104494142Y-61781763D01*
X104497276Y-61785607D01*
X104621680Y-61935984D01*
X104644494Y-61958639D01*
X104667048Y-61981670D01*
X104670869Y-61984831D01*
X104822111Y-62108181D01*
X104848940Y-62126006D01*
X104875490Y-62144185D01*
X104879852Y-62146544D01*
X105052174Y-62238169D01*
X105081949Y-62250441D01*
X105111529Y-62263119D01*
X105116266Y-62264586D01*
X105303102Y-62320995D01*
X105334711Y-62327254D01*
X105366172Y-62333941D01*
X105371104Y-62334460D01*
X105565338Y-62353505D01*
X105565347Y-62353505D01*
X105582557Y-62355200D01*
X105923800Y-62355200D01*
X105923800Y-66644800D01*
X105582557Y-66644800D01*
X105567029Y-66646329D01*
X105560825Y-66646286D01*
X105555889Y-66646770D01*
X105361792Y-66667171D01*
X105330265Y-66673643D01*
X105298634Y-66679677D01*
X105293887Y-66681110D01*
X105107449Y-66738822D01*
X105077756Y-66751304D01*
X105047921Y-66763358D01*
X105043543Y-66765686D01*
X104871866Y-66858511D01*
X104845200Y-66876497D01*
X104818236Y-66894142D01*
X104814393Y-66897276D01*
X104664015Y-67021680D01*
X104641324Y-67044530D01*
X104618330Y-67067048D01*
X104615169Y-67070869D01*
X104491819Y-67222111D01*
X104473994Y-67248940D01*
X104455815Y-67275490D01*
X104453456Y-67279852D01*
X104361831Y-67452174D01*
X104349554Y-67481961D01*
X104336881Y-67511529D01*
X104335414Y-67516266D01*
X104335406Y-67516294D01*
X104283696Y-67438905D01*
X104161095Y-67316304D01*
X104016931Y-67219977D01*
X103856745Y-67153626D01*
X103686692Y-67119800D01*
X103513308Y-67119800D01*
X103343255Y-67153626D01*
X103183069Y-67219977D01*
X103038905Y-67316304D01*
X102916304Y-67438905D01*
X102819977Y-67583069D01*
X102753626Y-67743255D01*
X102719800Y-67913308D01*
X102719800Y-68086692D01*
X102753626Y-68256745D01*
X102819977Y-68416931D01*
X102916304Y-68561095D01*
X103000009Y-68644800D01*
X98482557Y-68644800D01*
X98467202Y-68646312D01*
X98462569Y-68646280D01*
X98457634Y-68646764D01*
X98312062Y-68662065D01*
X98280516Y-68668541D01*
X98248905Y-68674571D01*
X98244157Y-68676004D01*
X98104328Y-68719288D01*
X98074647Y-68731765D01*
X98064315Y-68735940D01*
X98033792Y-68601246D01*
X97974071Y-68457069D01*
X97780851Y-68415596D01*
X97355200Y-68841247D01*
X97355200Y-68426474D01*
X97393247Y-68410714D01*
X97529222Y-68319858D01*
X97644858Y-68204222D01*
X97735714Y-68068247D01*
X97798296Y-67917160D01*
X97830200Y-67756768D01*
X97830200Y-67683667D01*
X98000327Y-67513539D01*
X98016806Y-67500016D01*
X98070766Y-67434266D01*
X98110861Y-67359252D01*
X98135552Y-67277858D01*
X98141800Y-67214420D01*
X98141800Y-67214419D01*
X98143889Y-67193210D01*
X98141800Y-67172000D01*
X98141800Y-66847490D01*
X98172264Y-66856731D01*
X98276500Y-66866997D01*
X98681500Y-66866997D01*
X98785736Y-66856731D01*
X98885967Y-66826326D01*
X98918031Y-66809187D01*
X98945905Y-66861335D01*
X99018909Y-66950291D01*
X99107865Y-67023295D01*
X99209354Y-67077542D01*
X99319477Y-67110947D01*
X99434000Y-67122227D01*
X99515150Y-67119400D01*
X99661200Y-66973350D01*
X99661200Y-66278000D01*
X99641200Y-66278000D01*
X99641200Y-65922400D01*
X99661200Y-65922400D01*
X99661200Y-65902400D01*
X100016800Y-65902400D01*
X100016800Y-65922400D01*
X100036800Y-65922400D01*
X100036800Y-66278000D01*
X100016800Y-66278000D01*
X100016800Y-66973350D01*
X100162850Y-67119400D01*
X100244000Y-67122227D01*
X100358523Y-67110947D01*
X100468646Y-67077542D01*
X100570135Y-67023295D01*
X100659091Y-66950291D01*
X100732095Y-66861335D01*
X100786342Y-66759846D01*
X100819747Y-66649723D01*
X100831027Y-66535200D01*
X100828200Y-66424050D01*
X100800622Y-66396472D01*
X100801351Y-66396400D01*
X101956584Y-66396400D01*
X101962017Y-66401833D01*
X102048856Y-66459857D01*
X102145346Y-66499824D01*
X102247780Y-66520200D01*
X102352220Y-66520200D01*
X102454654Y-66499824D01*
X102551144Y-66459857D01*
X102637983Y-66401833D01*
X102711833Y-66327983D01*
X102769857Y-66241144D01*
X102809824Y-66144654D01*
X102830200Y-66042220D01*
X102830200Y-65937780D01*
X102809824Y-65835346D01*
X102769857Y-65738856D01*
X102711833Y-65652017D01*
X102637983Y-65578167D01*
X102622405Y-65567758D01*
X102639540Y-65546880D01*
X102677277Y-65476279D01*
X102693466Y-65422911D01*
X102700515Y-65399673D01*
X102703036Y-65374074D01*
X102706396Y-65339964D01*
X102706396Y-65339958D01*
X102708361Y-65320005D01*
X102706396Y-65300052D01*
X102706396Y-65113416D01*
X102711829Y-65107983D01*
X102720215Y-65095432D01*
X102724578Y-65139730D01*
X102743460Y-65201973D01*
X102774121Y-65259337D01*
X102815384Y-65309616D01*
X102865663Y-65350879D01*
X102923027Y-65381540D01*
X102985270Y-65400422D01*
X103050000Y-65406797D01*
X103369800Y-65406797D01*
X103369800Y-65462220D01*
X103390176Y-65564654D01*
X103430143Y-65661144D01*
X103488167Y-65747983D01*
X103562017Y-65821833D01*
X103648856Y-65879857D01*
X103745346Y-65919824D01*
X103847780Y-65940200D01*
X103952220Y-65940200D01*
X104054654Y-65919824D01*
X104151144Y-65879857D01*
X104237983Y-65821833D01*
X104311833Y-65747983D01*
X104369857Y-65661144D01*
X104409824Y-65564654D01*
X104430200Y-65462220D01*
X104430200Y-65406797D01*
X104550000Y-65406797D01*
X104614730Y-65400422D01*
X104676973Y-65381540D01*
X104734337Y-65350879D01*
X104784616Y-65309616D01*
X104825879Y-65259337D01*
X104856540Y-65201973D01*
X104875422Y-65139730D01*
X104881797Y-65075000D01*
X104881797Y-64856742D01*
X104950954Y-64803761D01*
X105026897Y-64717301D01*
X105084513Y-64617685D01*
X105121588Y-64508744D01*
X105134200Y-64444850D01*
X104988150Y-64298800D01*
X104606830Y-64298800D01*
X104550000Y-64293203D01*
X103050000Y-64293203D01*
X102993170Y-64298800D01*
X102611850Y-64298800D01*
X102586728Y-64323922D01*
X102551140Y-64300143D01*
X102454650Y-64260176D01*
X102352216Y-64239800D01*
X102247776Y-64239800D01*
X102145342Y-64260176D01*
X102048852Y-64300143D01*
X101962013Y-64358167D01*
X101888163Y-64432017D01*
X101830139Y-64518856D01*
X101790172Y-64615346D01*
X101769796Y-64717780D01*
X101769796Y-64822220D01*
X101790172Y-64924654D01*
X101830139Y-65021144D01*
X101888163Y-65107983D01*
X101893596Y-65113416D01*
X101893596Y-65151668D01*
X101751664Y-65293600D01*
X101640200Y-65293600D01*
X101640200Y-65287780D01*
X101619824Y-65185346D01*
X101604865Y-65149232D01*
X101606518Y-65142485D01*
X101609600Y-65033250D01*
X101463550Y-64887200D01*
X101386672Y-64887200D01*
X101361144Y-64870143D01*
X101264654Y-64830176D01*
X101162220Y-64809800D01*
X101057780Y-64809800D01*
X100955346Y-64830176D01*
X100858856Y-64870143D01*
X100803396Y-64907200D01*
X100781600Y-64907200D01*
X100781600Y-64887200D01*
X100707197Y-64887200D01*
X100707197Y-64735448D01*
X101140399Y-64736427D01*
X101254922Y-64725147D01*
X101365045Y-64691742D01*
X101466534Y-64637495D01*
X101555490Y-64564491D01*
X101628494Y-64475535D01*
X101682741Y-64374046D01*
X101716146Y-64263923D01*
X101727426Y-64149400D01*
X101726552Y-63855150D01*
X102465800Y-63855150D01*
X102611850Y-64001200D01*
X103622200Y-64001200D01*
X103622200Y-63486850D01*
X103977800Y-63486850D01*
X103977800Y-64001200D01*
X104988150Y-64001200D01*
X105134200Y-63855150D01*
X105121588Y-63791256D01*
X105084513Y-63682315D01*
X105026897Y-63582699D01*
X104950954Y-63496239D01*
X104859603Y-63426255D01*
X104756354Y-63375438D01*
X104645174Y-63345740D01*
X104530337Y-63338302D01*
X104123850Y-63340800D01*
X103977800Y-63486850D01*
X103622200Y-63486850D01*
X103476150Y-63340800D01*
X103069663Y-63338302D01*
X102954826Y-63345740D01*
X102843646Y-63375438D01*
X102740397Y-63426255D01*
X102649046Y-63496239D01*
X102573103Y-63582699D01*
X102515487Y-63682315D01*
X102478412Y-63791256D01*
X102465800Y-63855150D01*
X101726552Y-63855150D01*
X101724599Y-63198250D01*
X101578549Y-63052200D01*
X99743200Y-63052200D01*
X99743200Y-63072200D01*
X99387600Y-63072200D01*
X99387600Y-63052200D01*
X99367600Y-63052200D01*
X99367600Y-62696600D01*
X99387600Y-62696600D01*
X99387600Y-62676600D01*
X99743200Y-62676600D01*
X99743200Y-62696600D01*
X101578549Y-62696600D01*
X101687369Y-62587780D01*
X101819800Y-62587780D01*
X101819800Y-62692220D01*
X101840176Y-62794654D01*
X101880143Y-62891144D01*
X101938167Y-62977983D01*
X102012017Y-63051833D01*
X102098856Y-63109857D01*
X102195346Y-63149824D01*
X102297780Y-63170200D01*
X102402220Y-63170200D01*
X102504654Y-63149824D01*
X102601144Y-63109857D01*
X102687983Y-63051833D01*
X102761833Y-62977983D01*
X102819857Y-62891144D01*
X102859824Y-62794654D01*
X102880200Y-62692220D01*
X102880200Y-62587780D01*
X102859824Y-62485346D01*
X102819857Y-62388856D01*
X102761833Y-62302017D01*
X102687983Y-62228167D01*
X102601144Y-62170143D01*
X102504654Y-62130176D01*
X102402220Y-62109800D01*
X102297780Y-62109800D01*
X102195346Y-62130176D01*
X102098856Y-62170143D01*
X102012017Y-62228167D01*
X101938167Y-62302017D01*
X101880143Y-62388856D01*
X101840176Y-62485346D01*
X101819800Y-62587780D01*
X101687369Y-62587780D01*
X101724599Y-62550550D01*
X101727426Y-61599400D01*
X101716146Y-61484877D01*
X101682741Y-61374754D01*
X101628494Y-61273265D01*
X101555490Y-61184309D01*
X101466534Y-61111305D01*
X101391000Y-61070931D01*
X101391000Y-60993380D01*
X101370624Y-60890946D01*
X101357197Y-60858530D01*
X101357197Y-60769400D01*
X101349284Y-60689062D01*
X101325851Y-60611812D01*
X101287797Y-60540618D01*
X101236584Y-60478216D01*
X101174182Y-60427003D01*
X101102988Y-60388949D01*
X101025738Y-60365516D01*
X100945400Y-60357603D01*
X100785400Y-60357603D01*
X100705062Y-60365516D01*
X100627812Y-60388949D01*
X100556618Y-60427003D01*
X100545859Y-60435833D01*
X100489153Y-60397943D01*
X100392663Y-60357976D01*
X100378708Y-60355200D01*
X103000009Y-60355200D01*
X102916304Y-60438905D01*
G36*
X98349200Y-60861600D02*
G01*
X98422210Y-60861600D01*
X98420576Y-60865546D01*
X98400200Y-60967980D01*
X98400200Y-61013299D01*
X98155423Y-61012746D01*
X98169857Y-60991144D01*
X98209824Y-60894654D01*
X98220377Y-60841600D01*
X98349200Y-60841600D01*
X98349200Y-60861600D01*
G37*
X98349200Y-60861600D02*
X98422210Y-60861600D01*
X98420576Y-60865546D01*
X98400200Y-60967980D01*
X98400200Y-61013299D01*
X98155423Y-61012746D01*
X98169857Y-60991144D01*
X98209824Y-60894654D01*
X98220377Y-60841600D01*
X98349200Y-60841600D01*
X98349200Y-60861600D01*
%TD*%
M02*
