%TF.GenerationSoftware,KiCad,Pcbnew,(5.1.6)-1*%
%TF.CreationDate,2021-06-04T12:20:07-07:00*%
%TF.ProjectId,Miniscope-v4-Wire-Free,4d696e69-7363-46f7-9065-2d76342d5769,rev?*%
%TF.SameCoordinates,Original*%
%TF.FileFunction,Copper,L1,Top*%
%TF.FilePolarity,Positive*%
%FSLAX46Y46*%
G04 Gerber Fmt 4.6, Leading zero omitted, Abs format (unit mm)*
G04 Created by KiCad (PCBNEW (5.1.6)-1) date 2021-06-04 12:20:07*
%MOMM*%
%LPD*%
G01*
G04 APERTURE LIST*
%TA.AperFunction,ComponentPad*%
%ADD10C,1.000000*%
%TD*%
%TA.AperFunction,SMDPad,CuDef*%
%ADD11R,0.370000X0.810000*%
%TD*%
%TA.AperFunction,SMDPad,CuDef*%
%ADD12R,0.800000X0.400000*%
%TD*%
%TA.AperFunction,SMDPad,CuDef*%
%ADD13R,0.800000X0.300000*%
%TD*%
%TA.AperFunction,SMDPad,CuDef*%
%ADD14R,0.770000X0.710000*%
%TD*%
%TA.AperFunction,ViaPad*%
%ADD15C,0.400000*%
%TD*%
%TA.AperFunction,Conductor*%
%ADD16C,0.152400*%
%TD*%
%TA.AperFunction,Conductor*%
%ADD17C,0.203200*%
%TD*%
G04 APERTURE END LIST*
D10*
%TO.P,J21,1*%
%TO.N,+3V3*%
X97000000Y-60055000D03*
%TD*%
%TO.P,J23,1*%
%TO.N,/I2C_BB_SDA*%
X97000000Y-62595000D03*
%TD*%
%TO.P,R8,2*%
%TO.N,/I2C_BB_SCL*%
%TA.AperFunction,SMDPad,CuDef*%
G36*
G01*
X100105800Y-62578700D02*
X100105800Y-62763700D01*
G75*
G02*
X100028300Y-62841200I-77500J0D01*
G01*
X99873300Y-62841200D01*
G75*
G02*
X99795800Y-62763700I0J77500D01*
G01*
X99795800Y-62578700D01*
G75*
G02*
X99873300Y-62501200I77500J0D01*
G01*
X100028300Y-62501200D01*
G75*
G02*
X100105800Y-62578700I0J-77500D01*
G01*
G37*
%TD.AperFunction*%
%TO.P,R8,1*%
%TO.N,+1V8*%
%TA.AperFunction,SMDPad,CuDef*%
G36*
G01*
X100655800Y-62578700D02*
X100655800Y-62763700D01*
G75*
G02*
X100578300Y-62841200I-77500J0D01*
G01*
X100423300Y-62841200D01*
G75*
G02*
X100345800Y-62763700I0J77500D01*
G01*
X100345800Y-62578700D01*
G75*
G02*
X100423300Y-62501200I77500J0D01*
G01*
X100578300Y-62501200D01*
G75*
G02*
X100655800Y-62578700I0J-77500D01*
G01*
G37*
%TD.AperFunction*%
%TD*%
D11*
%TO.P,U5,1*%
%TO.N,/IR_REC*%
X101548000Y-64797000D03*
%TO.P,U5,5*%
%TO.N,+3V3*%
X98548000Y-64797000D03*
%TO.P,U5,6*%
%TO.N,GND*%
X98548000Y-68267000D03*
%TO.P,U5,8*%
X101548000Y-68267000D03*
%TD*%
D10*
%TO.P,J25,1*%
%TO.N,/I_LED*%
X97000000Y-65135000D03*
%TD*%
%TO.P,J26,1*%
%TO.N,+1V8*%
X97000000Y-66405000D03*
%TD*%
%TO.P,R15,2*%
%TO.N,GND*%
%TA.AperFunction,SMDPad,CuDef*%
G36*
G01*
X101539600Y-64008300D02*
X101539600Y-63823300D01*
G75*
G02*
X101617100Y-63745800I77500J0D01*
G01*
X101772100Y-63745800D01*
G75*
G02*
X101849600Y-63823300I0J-77500D01*
G01*
X101849600Y-64008300D01*
G75*
G02*
X101772100Y-64085800I-77500J0D01*
G01*
X101617100Y-64085800D01*
G75*
G02*
X101539600Y-64008300I0J77500D01*
G01*
G37*
%TD.AperFunction*%
%TO.P,R15,1*%
%TO.N,/IR_REC*%
%TA.AperFunction,SMDPad,CuDef*%
G36*
G01*
X100989600Y-64008300D02*
X100989600Y-63823300D01*
G75*
G02*
X101067100Y-63745800I77500J0D01*
G01*
X101222100Y-63745800D01*
G75*
G02*
X101299600Y-63823300I0J-77500D01*
G01*
X101299600Y-64008300D01*
G75*
G02*
X101222100Y-64085800I-77500J0D01*
G01*
X101067100Y-64085800D01*
G75*
G02*
X100989600Y-64008300I0J77500D01*
G01*
G37*
%TD.AperFunction*%
%TD*%
%TO.P,J22,1*%
%TO.N,/I2C_BB_SCL*%
X97000000Y-61325000D03*
%TD*%
%TO.P,R7,2*%
%TO.N,/I2C_BB_SDA*%
%TA.AperFunction,SMDPad,CuDef*%
G36*
G01*
X101304000Y-62578700D02*
X101304000Y-62763700D01*
G75*
G02*
X101226500Y-62841200I-77500J0D01*
G01*
X101071500Y-62841200D01*
G75*
G02*
X100994000Y-62763700I0J77500D01*
G01*
X100994000Y-62578700D01*
G75*
G02*
X101071500Y-62501200I77500J0D01*
G01*
X101226500Y-62501200D01*
G75*
G02*
X101304000Y-62578700I0J-77500D01*
G01*
G37*
%TD.AperFunction*%
%TO.P,R7,1*%
%TO.N,+1V8*%
%TA.AperFunction,SMDPad,CuDef*%
G36*
G01*
X101854000Y-62578700D02*
X101854000Y-62763700D01*
G75*
G02*
X101776500Y-62841200I-77500J0D01*
G01*
X101621500Y-62841200D01*
G75*
G02*
X101544000Y-62763700I0J77500D01*
G01*
X101544000Y-62578700D01*
G75*
G02*
X101621500Y-62501200I77500J0D01*
G01*
X101776500Y-62501200D01*
G75*
G02*
X101854000Y-62578700I0J-77500D01*
G01*
G37*
%TD.AperFunction*%
%TD*%
%TO.P,J24,1*%
%TO.N,/IR_REC*%
X97000000Y-63865000D03*
%TD*%
%TO.P,J27,1*%
%TO.N,/nON*%
X97000000Y-67675000D03*
%TD*%
%TO.P,C12,2*%
%TO.N,GND*%
%TA.AperFunction,SMDPad,CuDef*%
G36*
G01*
X99202800Y-62763700D02*
X99202800Y-62578700D01*
G75*
G02*
X99280300Y-62501200I77500J0D01*
G01*
X99435300Y-62501200D01*
G75*
G02*
X99512800Y-62578700I0J-77500D01*
G01*
X99512800Y-62763700D01*
G75*
G02*
X99435300Y-62841200I-77500J0D01*
G01*
X99280300Y-62841200D01*
G75*
G02*
X99202800Y-62763700I0J77500D01*
G01*
G37*
%TD.AperFunction*%
%TO.P,C12,1*%
%TO.N,+3V3*%
%TA.AperFunction,SMDPad,CuDef*%
G36*
G01*
X98652800Y-62763700D02*
X98652800Y-62578700D01*
G75*
G02*
X98730300Y-62501200I77500J0D01*
G01*
X98885300Y-62501200D01*
G75*
G02*
X98962800Y-62578700I0J-77500D01*
G01*
X98962800Y-62763700D01*
G75*
G02*
X98885300Y-62841200I-77500J0D01*
G01*
X98730300Y-62841200D01*
G75*
G02*
X98652800Y-62763700I0J77500D01*
G01*
G37*
%TD.AperFunction*%
%TD*%
D12*
%TO.P,J3,NA*%
%TO.N,N/C*%
X105500000Y-62750000D03*
X105500000Y-66250000D03*
D13*
%TO.P,J3,4*%
%TO.N,/EWL_1*%
X103000000Y-63750000D03*
%TO.P,J3,3*%
X103000000Y-64250000D03*
%TO.P,J3,2*%
%TO.N,/EWL_2*%
X103000000Y-64750000D03*
%TO.P,J3,1*%
X103000000Y-65250000D03*
%TD*%
D10*
%TO.P,J12,1*%
%TO.N,GND*%
X97000000Y-68945000D03*
%TD*%
%TO.P,R18,2*%
%TO.N,Net-(D3-Pad1)*%
%TA.AperFunction,SMDPad,CuDef*%
G36*
G01*
X101299600Y-63207500D02*
X101299600Y-63392500D01*
G75*
G02*
X101222100Y-63470000I-77500J0D01*
G01*
X101067100Y-63470000D01*
G75*
G02*
X100989600Y-63392500I0J77500D01*
G01*
X100989600Y-63207500D01*
G75*
G02*
X101067100Y-63130000I77500J0D01*
G01*
X101222100Y-63130000D01*
G75*
G02*
X101299600Y-63207500I0J-77500D01*
G01*
G37*
%TD.AperFunction*%
%TO.P,R18,1*%
%TO.N,GND*%
%TA.AperFunction,SMDPad,CuDef*%
G36*
G01*
X101849600Y-63207500D02*
X101849600Y-63392500D01*
G75*
G02*
X101772100Y-63470000I-77500J0D01*
G01*
X101617100Y-63470000D01*
G75*
G02*
X101539600Y-63392500I0J77500D01*
G01*
X101539600Y-63207500D01*
G75*
G02*
X101617100Y-63130000I77500J0D01*
G01*
X101772100Y-63130000D01*
G75*
G02*
X101849600Y-63207500I0J-77500D01*
G01*
G37*
%TD.AperFunction*%
%TD*%
D14*
%TO.P,D3,1*%
%TO.N,Net-(D3-Pad1)*%
X100270000Y-63560200D03*
%TO.P,D3,2*%
%TO.N,+3V3*%
X98810000Y-63560200D03*
%TD*%
%TO.P,SW1,2*%
%TO.N,/nON*%
%TA.AperFunction,SMDPad,CuDef*%
G36*
G01*
X98571000Y-60509300D02*
X98571000Y-61734300D01*
G75*
G02*
X98433500Y-61871800I-137500J0D01*
G01*
X98158500Y-61871800D01*
G75*
G02*
X98021000Y-61734300I0J137500D01*
G01*
X98021000Y-60509300D01*
G75*
G02*
X98158500Y-60371800I137500J0D01*
G01*
X98433500Y-60371800D01*
G75*
G02*
X98571000Y-60509300I0J-137500D01*
G01*
G37*
%TD.AperFunction*%
%TO.P,SW1,1*%
%TO.N,GND*%
%TA.AperFunction,SMDPad,CuDef*%
G36*
G01*
X101821000Y-60509300D02*
X101821000Y-61734300D01*
G75*
G02*
X101683500Y-61871800I-137500J0D01*
G01*
X101408500Y-61871800D01*
G75*
G02*
X101271000Y-61734300I0J137500D01*
G01*
X101271000Y-60509300D01*
G75*
G02*
X101408500Y-60371800I137500J0D01*
G01*
X101683500Y-60371800D01*
G75*
G02*
X101821000Y-60509300I0J-137500D01*
G01*
G37*
%TD.AperFunction*%
%TD*%
D15*
%TO.N,GND*%
X99819400Y-66125600D03*
X102200000Y-63590000D03*
X99370000Y-62120000D03*
X103820000Y-63550000D03*
X104410000Y-63580000D03*
X100980000Y-68300000D03*
X99140000Y-68270000D03*
X102210000Y-61070000D03*
%TO.N,+1V8*%
X100860800Y-61045600D03*
X102350000Y-62640000D03*
%TO.N,+3V3*%
X99133600Y-65490600D03*
X98930400Y-61020200D03*
%TO.N,/EWL_1*%
X102300000Y-65990000D03*
%TO.N,/EWL_2*%
X102299996Y-64770000D03*
%TO.N,/IR_REC*%
X101110000Y-65340000D03*
%TO.N,/I2C_BB_SDA*%
X100238009Y-60867800D03*
%TO.N,/I2C_BB_SCL*%
X99565419Y-61285419D03*
%TO.N,/I_LED*%
X103900000Y-65410000D03*
%TO.N,/nON*%
X97700000Y-60740000D03*
%TD*%
D16*
%TO.N,GND*%
X101694600Y-63915800D02*
X101874200Y-63915800D01*
X101874200Y-63915800D02*
X102200000Y-63590000D01*
X101910000Y-63300000D02*
X102200000Y-63590000D01*
X101694600Y-63300000D02*
X101910000Y-63300000D01*
X99357800Y-62132200D02*
X99370000Y-62120000D01*
X99357800Y-62671200D02*
X99357800Y-62132200D01*
X99137000Y-68267000D02*
X99140000Y-68270000D01*
X98548000Y-68267000D02*
X99137000Y-68267000D01*
X101013000Y-68267000D02*
X100980000Y-68300000D01*
X101548000Y-68267000D02*
X101013000Y-68267000D01*
X102158200Y-61121800D02*
X102210000Y-61070000D01*
X101546000Y-61121800D02*
X102158200Y-61121800D01*
%TO.N,+1V8*%
X102318800Y-62671200D02*
X102350000Y-62640000D01*
X101699000Y-62671200D02*
X102318800Y-62671200D01*
X100500800Y-61730800D02*
X100500800Y-62671200D01*
X99885199Y-61115199D02*
X100500800Y-61730800D01*
X100860800Y-60790800D02*
X100490000Y-60420000D01*
X100860800Y-61045600D02*
X100860800Y-60790800D01*
X100490000Y-60420000D02*
X100080000Y-60420000D01*
X99885199Y-60614801D02*
X99885199Y-61115199D01*
X100080000Y-60420000D02*
X99885199Y-60614801D01*
%TO.N,+3V3*%
X98548000Y-64905000D02*
X99133600Y-65490600D01*
X98548000Y-64797000D02*
X98548000Y-63822200D01*
X98810000Y-63560200D02*
X98810000Y-62673400D01*
X98548000Y-64797000D02*
X98548000Y-64905000D01*
X98548000Y-63822200D02*
X98810000Y-63560200D01*
X98810000Y-62673400D02*
X98807800Y-62671200D01*
%TO.N,/EWL_1*%
X103000000Y-64250000D02*
X103000000Y-63750000D01*
X101927198Y-65617198D02*
X102300000Y-65990000D01*
X103000000Y-64250000D02*
X102267852Y-64250000D01*
X102267852Y-64250000D02*
X101927198Y-64590654D01*
X101927198Y-64590654D02*
X101927198Y-65617198D01*
%TO.N,/EWL_2*%
X103000000Y-64750000D02*
X103000000Y-65250000D01*
X102319996Y-64750000D02*
X102299996Y-64770000D01*
X103000000Y-64750000D02*
X102319996Y-64750000D01*
%TO.N,/IR_REC*%
X101144600Y-64148800D02*
X101144600Y-63915800D01*
X101548000Y-64552200D02*
X101144600Y-64148800D01*
X101548000Y-64902000D02*
X101110000Y-65340000D01*
X101548000Y-64797000D02*
X101548000Y-64902000D01*
X97202810Y-64002810D02*
X97202810Y-63865000D01*
X98030000Y-64830000D02*
X97202810Y-64002810D01*
X99980000Y-65340000D02*
X99380000Y-65940000D01*
X101110000Y-65340000D02*
X99980000Y-65340000D01*
X99380000Y-65940000D02*
X98780958Y-65940000D01*
X98780958Y-65940000D02*
X98030000Y-65189042D01*
X98030000Y-65189042D02*
X98030000Y-64830000D01*
%TO.N,/I2C_BB_SDA*%
X100238009Y-60998009D02*
X100238009Y-60867800D01*
X101093190Y-61853190D02*
X100238009Y-60998009D01*
X101149000Y-62671200D02*
X101149000Y-61920718D01*
X101093190Y-61864908D02*
X101093190Y-61853190D01*
X101149000Y-61920718D02*
X101093190Y-61864908D01*
%TO.N,/I2C_BB_SCL*%
X99950800Y-62671200D02*
X99950800Y-61670800D01*
X98801228Y-62049610D02*
X99565419Y-61285419D01*
X99950800Y-61670800D02*
X99565419Y-61285419D01*
X97927420Y-62049610D02*
X98801228Y-62049610D01*
X97202810Y-61325000D02*
X97927420Y-62049610D01*
D17*
%TO.N,/I_LED*%
X97228210Y-65135000D02*
X97228210Y-65363210D01*
X97228210Y-65363210D02*
X98368801Y-66503801D01*
X102806199Y-66503801D02*
X103900000Y-65410000D01*
X98368801Y-66503801D02*
X102806199Y-66503801D01*
%TO.N,/nON*%
X97914200Y-60740000D02*
X97700000Y-60740000D01*
X98296000Y-61121800D02*
X97914200Y-60740000D01*
D16*
%TO.N,Net-(D3-Pad1)*%
X101144600Y-63300000D02*
X100530200Y-63300000D01*
X100530200Y-63300000D02*
X100270000Y-63560200D01*
%TD*%
M02*
