%TF.GenerationSoftware,KiCad,Pcbnew,(7.0.0)*%
%TF.CreationDate,2023-07-05T17:24:14-07:00*%
%TF.ProjectId,Miniscope-v4-Wire-Free,4d696e69-7363-46f7-9065-2d76342d5769,rev?*%
%TF.SameCoordinates,Original*%
%TF.FileFunction,Soldermask,Bot*%
%TF.FilePolarity,Negative*%
%FSLAX46Y46*%
G04 Gerber Fmt 4.6, Leading zero omitted, Abs format (unit mm)*
G04 Created by KiCad (PCBNEW (7.0.0)) date 2023-07-05 17:24:14*
%MOMM*%
%LPD*%
G01*
G04 APERTURE LIST*
G04 Aperture macros list*
%AMRoundRect*
0 Rectangle with rounded corners*
0 $1 Rounding radius*
0 $2 $3 $4 $5 $6 $7 $8 $9 X,Y pos of 4 corners*
0 Add a 4 corners polygon primitive as box body*
4,1,4,$2,$3,$4,$5,$6,$7,$8,$9,$2,$3,0*
0 Add four circle primitives for the rounded corners*
1,1,$1+$1,$2,$3*
1,1,$1+$1,$4,$5*
1,1,$1+$1,$6,$7*
1,1,$1+$1,$8,$9*
0 Add four rect primitives between the rounded corners*
20,1,$1+$1,$2,$3,$4,$5,0*
20,1,$1+$1,$4,$5,$6,$7,0*
20,1,$1+$1,$6,$7,$8,$9,0*
20,1,$1+$1,$8,$9,$2,$3,0*%
%AMRotRect*
0 Rectangle, with rotation*
0 The origin of the aperture is its center*
0 $1 length*
0 $2 width*
0 $3 Rotation angle, in degrees counterclockwise*
0 Add horizontal line*
21,1,$1,$2,0,0,$3*%
%AMFreePoly0*
4,1,6,0.110000,-0.125000,-0.110000,-0.125000,-0.140000,-0.125000,-0.140000,0.095000,0.110000,0.345000,0.110000,-0.125000,0.110000,-0.125000,$1*%
%AMFreePoly1*
4,1,6,0.140000,0.095000,0.140000,-0.125000,-0.110000,-0.125000,-0.110000,0.275000,-0.040000,0.275000,0.140000,0.095000,0.140000,0.095000,$1*%
%AMFreePoly2*
4,1,7,0.110000,-0.125000,-0.110000,-0.125000,-0.140000,-0.125000,-0.140000,0.095000,0.040000,0.275000,0.110000,0.275000,0.110000,-0.125000,0.110000,-0.125000,$1*%
G04 Aperture macros list end*
%ADD10C,1.000000*%
%ADD11R,1.500000X0.450000*%
%ADD12RoundRect,0.145000X0.145000X0.170000X-0.145000X0.170000X-0.145000X-0.170000X0.145000X-0.170000X0*%
%ADD13RoundRect,0.145000X-0.145000X-0.170000X0.145000X-0.170000X0.145000X0.170000X-0.145000X0.170000X0*%
%ADD14RoundRect,0.077500X0.092500X-0.077500X0.092500X0.077500X-0.092500X0.077500X-0.092500X-0.077500X0*%
%ADD15RoundRect,0.202500X-0.202500X-0.232500X0.202500X-0.232500X0.202500X0.232500X-0.202500X0.232500X0*%
%ADD16RoundRect,0.077500X-0.077500X-0.092500X0.077500X-0.092500X0.077500X0.092500X-0.077500X0.092500X0*%
%ADD17RoundRect,0.145000X0.170000X-0.145000X0.170000X0.145000X-0.170000X0.145000X-0.170000X-0.145000X0*%
%ADD18RoundRect,0.222500X0.237500X-0.222500X0.237500X0.222500X-0.237500X0.222500X-0.237500X-0.222500X0*%
%ADD19C,0.250000*%
%ADD20R,0.812800X1.320800*%
%ADD21RoundRect,0.077500X-0.092500X0.077500X-0.092500X-0.077500X0.092500X-0.077500X0.092500X0.077500X0*%
%ADD22R,0.340000X0.990000*%
%ADD23FreePoly0,90.000000*%
%ADD24FreePoly1,90.000000*%
%ADD25FreePoly2,270.000000*%
%ADD26FreePoly1,270.000000*%
%ADD27RotRect,0.480000X0.480000X225.000000*%
%ADD28C,0.228600*%
%ADD29RoundRect,0.050000X-0.050000X0.375000X-0.050000X-0.375000X0.050000X-0.375000X0.050000X0.375000X0*%
%ADD30RoundRect,0.050000X-0.375000X0.050000X-0.375000X-0.050000X0.375000X-0.050000X0.375000X0.050000X0*%
%ADD31R,1.650000X1.650000*%
%ADD32R,0.800000X1.000000*%
%ADD33RoundRect,0.080000X-0.080000X0.270000X-0.080000X-0.270000X0.080000X-0.270000X0.080000X0.270000X0*%
%ADD34R,3.149999X2.550000*%
%ADD35RoundRect,0.077500X0.077500X0.092500X-0.077500X0.092500X-0.077500X-0.092500X0.077500X-0.092500X0*%
%ADD36R,0.400000X0.250000*%
%ADD37R,0.400000X0.700000*%
G04 APERTURE END LIST*
D10*
%TO.C,J21*%
X97000000Y-60055000D03*
%TD*%
%TO.C,J22*%
X97000000Y-61325000D03*
%TD*%
%TO.C,J24*%
X97000000Y-63865000D03*
%TD*%
%TO.C,J25*%
X97000000Y-65135000D03*
%TD*%
%TO.C,J26*%
X97000000Y-66405000D03*
%TD*%
%TO.C,J27*%
X97000000Y-67675000D03*
%TD*%
%TO.C,J23*%
X97000000Y-62595000D03*
%TD*%
%TO.C,J12*%
X97000000Y-68945000D03*
%TD*%
%TO.C,*%
X103600000Y-61000000D03*
%TD*%
%TO.C,REF\u002A\u002A*%
X103600000Y-68000000D03*
%TD*%
D11*
%TO.C,D1*%
X103799999Y-64849999D03*
X103799999Y-64149999D03*
%TD*%
D12*
%TO.C,C6*%
X88883400Y-65134000D03*
X87993400Y-65134000D03*
%TD*%
D13*
%TO.C,C7*%
X89746000Y-65159400D03*
X90636000Y-65159400D03*
%TD*%
D14*
%TO.C,C9*%
X83311500Y-59412500D03*
X83311500Y-58862500D03*
%TD*%
%TO.C,C10*%
X83946500Y-59412500D03*
X83946500Y-58862500D03*
%TD*%
%TO.C,C11*%
X80454100Y-62841500D03*
X80454100Y-62291500D03*
%TD*%
D15*
%TO.C,C16*%
X98479000Y-66100200D03*
X99839000Y-66100200D03*
%TD*%
D14*
%TO.C,C27*%
X82016200Y-69800400D03*
X82016200Y-69250400D03*
%TD*%
%TO.C,C36*%
X80479500Y-64022600D03*
X80479500Y-63472600D03*
%TD*%
%TO.C,C38*%
X83311500Y-60720600D03*
X83311500Y-60170600D03*
%TD*%
%TO.C,C41*%
X83946500Y-60720600D03*
X83946500Y-60170600D03*
%TD*%
D16*
%TO.C,C48*%
X85015600Y-68208400D03*
X85565600Y-68208400D03*
%TD*%
D17*
%TO.C,C50*%
X84759300Y-60585800D03*
X84759300Y-59695800D03*
%TD*%
%TO.C,C52*%
X85699100Y-60560400D03*
X85699100Y-59670400D03*
%TD*%
D18*
%TO.C,L4*%
X80162000Y-66401200D03*
X80162000Y-65071200D03*
%TD*%
D19*
%TO.C,U8*%
X86046000Y-66989600D03*
X86046000Y-66489600D03*
X86046000Y-65989600D03*
X86046000Y-65489600D03*
X86046000Y-64989600D03*
X86046000Y-64489600D03*
X86046000Y-63989600D03*
X86046000Y-63489600D03*
X86046000Y-62989600D03*
X86046000Y-62489600D03*
X86046000Y-61989600D03*
X85546000Y-66989600D03*
X85546000Y-66489600D03*
X85546000Y-65989600D03*
X85546000Y-65489600D03*
X85546000Y-64989600D03*
X85546000Y-64489600D03*
X85546000Y-63989600D03*
X85546000Y-63489600D03*
X85546000Y-62989600D03*
X85546000Y-62489600D03*
X85546000Y-61989600D03*
X85046000Y-66989600D03*
X85046000Y-66489600D03*
X85046000Y-65989600D03*
X85046000Y-65489600D03*
X85046000Y-64989600D03*
X85046000Y-64489600D03*
X85046000Y-63989600D03*
X85046000Y-63489600D03*
X85046000Y-62989600D03*
X85046000Y-62489600D03*
X85046000Y-61989600D03*
X84546000Y-66989600D03*
X84546000Y-66489600D03*
X84546000Y-62489600D03*
X84546000Y-61989600D03*
X84046000Y-66989600D03*
X84046000Y-66489600D03*
X84046000Y-62489600D03*
X84046000Y-61989600D03*
X83546000Y-66989600D03*
X83546000Y-66489600D03*
X83546000Y-62489600D03*
X83546000Y-61989600D03*
X83046000Y-66989600D03*
X83046000Y-66489600D03*
X83046000Y-65989600D03*
X83046000Y-65489600D03*
X83046000Y-64989600D03*
X83046000Y-64489600D03*
X83046000Y-63989600D03*
X83046000Y-63489600D03*
X83046000Y-62989600D03*
X83046000Y-62489600D03*
X83046000Y-61989600D03*
X82546000Y-66989600D03*
X82546000Y-66489600D03*
X82546000Y-65989600D03*
X82546000Y-65489600D03*
X82546000Y-64989600D03*
X82546000Y-64489600D03*
X82546000Y-63989600D03*
X82546000Y-63489600D03*
X82546000Y-62989600D03*
X82546000Y-62489600D03*
X82546000Y-61989600D03*
%TD*%
D20*
%TO.C,J9*%
X85446799Y-69347599D03*
%TD*%
%TO.C,J10*%
X86716799Y-69347599D03*
%TD*%
D21*
%TO.C,C30*%
X82041600Y-68107400D03*
X82041600Y-68657400D03*
%TD*%
D19*
%TO.C,U4*%
X82309000Y-59073300D03*
X81809000Y-59073300D03*
X81309000Y-59073300D03*
X80809000Y-59073300D03*
X82309000Y-59573300D03*
X81809000Y-59573300D03*
X81309000Y-59573300D03*
X80809000Y-59573300D03*
X82309000Y-60073300D03*
X81809000Y-60073300D03*
X81309000Y-60073300D03*
X80809000Y-60073300D03*
X82309000Y-60573300D03*
X81809000Y-60573300D03*
X81309000Y-60573300D03*
X80809000Y-60573300D03*
%TD*%
D22*
%TO.C,U9*%
X81218399Y-69495599D03*
X80568399Y-69495599D03*
X79918399Y-69495599D03*
X79918399Y-67675599D03*
X81218399Y-67675599D03*
%TD*%
D14*
%TO.C,C37*%
X82625800Y-69825800D03*
X82625800Y-69275800D03*
%TD*%
D12*
%TO.C,C51*%
X84213800Y-68382400D03*
X83323800Y-68382400D03*
%TD*%
D23*
%TO.C,U7*%
X84344600Y-69210800D03*
D24*
X84344600Y-69890800D03*
D25*
X83294600Y-69890800D03*
D26*
X83294600Y-69210800D03*
D27*
X83819599Y-69550799D03*
%TD*%
D28*
%TO.C,U6*%
X90782200Y-63598200D03*
X90782200Y-63198200D03*
X90782200Y-62798200D03*
X90782200Y-62398200D03*
X90782200Y-61998200D03*
X90782200Y-61598200D03*
X90782200Y-61198200D03*
X90782200Y-60798200D03*
X90382200Y-63598200D03*
X90382200Y-63198200D03*
X90382200Y-62798200D03*
X90382200Y-62398200D03*
X90382200Y-61998200D03*
X90382200Y-61598200D03*
X90382200Y-61198200D03*
X90382200Y-60798200D03*
X89982200Y-63598200D03*
X89982200Y-63198200D03*
X89982200Y-62798200D03*
X89982200Y-62398200D03*
X89982200Y-61998200D03*
X89982200Y-61598200D03*
X89982200Y-61198200D03*
X89982200Y-60798200D03*
X89582200Y-63598200D03*
X89582200Y-63198200D03*
X89582200Y-62798200D03*
X89582200Y-62398200D03*
X89582200Y-61998200D03*
X89582200Y-61598200D03*
X89582200Y-61198200D03*
X89582200Y-60798200D03*
X89182200Y-63598200D03*
X89182200Y-63198200D03*
X89182200Y-62798200D03*
X89182200Y-62398200D03*
X89182200Y-61998200D03*
X89182200Y-61598200D03*
X89182200Y-61198200D03*
X89182200Y-60798200D03*
X88782200Y-63598200D03*
X88782200Y-63198200D03*
X88782200Y-62798200D03*
X88782200Y-62398200D03*
X88782200Y-61998200D03*
X88782200Y-61598200D03*
X88782200Y-61198200D03*
X88782200Y-60798200D03*
X88382200Y-63598200D03*
X88382200Y-63198200D03*
X88382200Y-62798200D03*
X88382200Y-62398200D03*
X88382200Y-61998200D03*
X88382200Y-61598200D03*
X88382200Y-61198200D03*
X88382200Y-60798200D03*
X87982200Y-63598200D03*
X87982200Y-63198200D03*
X87982200Y-62798200D03*
X87982200Y-62398200D03*
X87982200Y-61998200D03*
X87982200Y-61598200D03*
X87982200Y-61198200D03*
X87982200Y-60798200D03*
%TD*%
D29*
%TO.C,U1*%
X88480600Y-66171100D03*
X88880600Y-66171100D03*
X89280600Y-66171100D03*
X89680600Y-66171100D03*
X90080600Y-66171100D03*
D30*
X90730600Y-66821100D03*
X90730600Y-67221100D03*
X90730600Y-67621100D03*
X90730600Y-68021100D03*
X90730600Y-68421100D03*
D29*
X90080600Y-69071100D03*
X89680600Y-69071100D03*
X89280600Y-69071100D03*
X88880600Y-69071100D03*
X88480600Y-69071100D03*
D30*
X87830600Y-68421100D03*
X87830600Y-68021100D03*
X87830600Y-67621100D03*
X87830600Y-67221100D03*
X87830600Y-66821100D03*
D31*
X89280599Y-67621099D03*
%TD*%
D32*
%TO.C,J14*%
X92330199Y-60054999D03*
%TD*%
%TO.C,J15*%
X92330199Y-61324999D03*
%TD*%
%TO.C,J16*%
X92330199Y-62594999D03*
%TD*%
%TO.C,J17*%
X92330199Y-63864999D03*
%TD*%
%TO.C,J18*%
X92330199Y-65134999D03*
%TD*%
%TO.C,J19*%
X92330199Y-66404999D03*
%TD*%
%TO.C,J20*%
X92330199Y-67674999D03*
%TD*%
D33*
%TO.C,U2*%
X98265400Y-61039400D03*
X98915400Y-61039400D03*
X99565400Y-61039400D03*
X100215400Y-61039400D03*
X100865400Y-61039400D03*
X100865400Y-64709400D03*
X100215400Y-64709400D03*
X99565400Y-64709400D03*
X98915400Y-64709400D03*
X98265400Y-64709400D03*
D34*
X99565399Y-62874399D03*
%TD*%
D14*
%TO.C,C44*%
X81114400Y-62828800D03*
X81114400Y-62278800D03*
%TD*%
%TO.C,C40*%
X81114400Y-66334000D03*
X81114400Y-65784000D03*
%TD*%
D21*
%TO.C,C53*%
X81114400Y-64615600D03*
X81114400Y-65165600D03*
%TD*%
%TO.C,C49*%
X81114500Y-63447200D03*
X81114500Y-63997200D03*
%TD*%
D14*
%TO.C,R16*%
X91424700Y-65643500D03*
X91424700Y-65093500D03*
%TD*%
D35*
%TO.C,R17*%
X86751100Y-68213300D03*
X86201100Y-68213300D03*
%TD*%
D32*
%TO.C,J11*%
X92330199Y-68944999D03*
%TD*%
D21*
%TO.C,R19*%
X86636800Y-60153200D03*
X86636800Y-60703200D03*
%TD*%
D36*
%TO.C,Q2*%
X85640599Y-58475999D03*
X85640599Y-58925999D03*
D37*
X84940599Y-58700999D03*
%TD*%
D21*
%TO.C,R21*%
X82630000Y-68115000D03*
X82630000Y-68665000D03*
%TD*%
M02*
