%TF.GenerationSoftware,KiCad,Pcbnew,8.0.7*%
%TF.CreationDate,2025-01-06T01:22:00-08:00*%
%TF.ProjectId,Miniscope-v4-Wire-Free,4d696e69-7363-46f7-9065-2d76342d5769,rev?*%
%TF.SameCoordinates,Original*%
%TF.FileFunction,Copper,L2,Inr*%
%TF.FilePolarity,Positive*%
%FSLAX46Y46*%
G04 Gerber Fmt 4.6, Leading zero omitted, Abs format (unit mm)*
G04 Created by KiCad (PCBNEW 8.0.7) date 2025-01-06 01:22:00*
%MOMM*%
%LPD*%
G01*
G04 APERTURE LIST*
%TA.AperFunction,ViaPad*%
%ADD10C,0.254000*%
%TD*%
%TA.AperFunction,ViaPad*%
%ADD11C,0.304800*%
%TD*%
%TA.AperFunction,Conductor*%
%ADD12C,0.152400*%
%TD*%
%TA.AperFunction,Conductor*%
%ADD13C,0.101600*%
%TD*%
G04 APERTURE END LIST*
D10*
%TO.N,Net-(R22-Pad1)*%
X84046000Y-66989600D03*
D11*
X82598200Y-67540200D03*
D10*
%TO.N,GND*%
X85049800Y-62858600D03*
D11*
X86131000Y-67544900D03*
X83210000Y-61537800D03*
X81051000Y-68497400D03*
X83946500Y-60170600D03*
X83819600Y-69551500D03*
X85474133Y-59612893D03*
D10*
X89129800Y-60915800D03*
D11*
X82090200Y-63476200D03*
X88417000Y-59963000D03*
D10*
X84999000Y-65322400D03*
D11*
X85032200Y-68810200D03*
X82079700Y-63988900D03*
X83349700Y-68357700D03*
X82625800Y-69275800D03*
X81889200Y-58464400D03*
X83932200Y-66033600D03*
D10*
X89698000Y-68853000D03*
X89850400Y-62299800D03*
D11*
X85722400Y-68835600D03*
D10*
X90907800Y-62840800D03*
D11*
X91615200Y-69707000D03*
X89318700Y-67316300D03*
X86446800Y-64941400D03*
X90282200Y-64535000D03*
X92060200Y-69335600D03*
X83556203Y-64504598D03*
X81127200Y-62274400D03*
X83957611Y-64010396D03*
D10*
X86672400Y-62754000D03*
D11*
X81571700Y-61131400D03*
X81114500Y-65779600D03*
%TO.N,/SD_DAT2*%
X79844500Y-60890100D03*
%TO.N,/SD_DAT3*%
X80187400Y-61741000D03*
%TO.N,/SD_DAT0*%
X82067000Y-61017100D03*
%TO.N,/SD_CMD*%
X79971500Y-62769700D03*
%TO.N,/SD_CLK*%
X81130607Y-61000993D03*
%TO.N,/SD_DAT1*%
X80352500Y-59937600D03*
%TO.N,/USB_VBUS*%
X86933200Y-66502800D03*
D10*
X91983500Y-65774900D03*
D11*
%TO.N,/SWCLK*%
X86154200Y-60123400D03*
%TO.N,/SWDIO*%
X86116600Y-61029800D03*
%TO.N,+1V8*%
X84160800Y-63595200D03*
X91676174Y-59683600D03*
X81508200Y-68522800D03*
D10*
X85828800Y-62641800D03*
D11*
X87920000Y-65805000D03*
X84465600Y-66006475D03*
X81114500Y-63447200D03*
X91145275Y-68904400D03*
D10*
X90374400Y-61697800D03*
D11*
X88021597Y-68785053D03*
X85664425Y-60683005D03*
X91676198Y-62223610D03*
X82143200Y-62210900D03*
X82706100Y-60017900D03*
D10*
X90374400Y-61697800D03*
D11*
%TO.N,/SPI1_MOSI*%
X83451300Y-64966800D03*
%TO.N,/SPI1_MISO*%
X83787717Y-65298375D03*
%TO.N,/SDMMC1_D0*%
X82884880Y-60430360D03*
%TO.N,/SDMMC1_D1*%
X82675813Y-59581213D03*
X83982160Y-61273640D03*
%TO.N,/SDMMC1_D3*%
X84454600Y-61359968D03*
X80365202Y-59074000D03*
%TO.N,/SDMMC1_CMD*%
X80377900Y-59505800D03*
%TO.N,/SDMMC1_CK*%
X82346400Y-61461600D03*
D10*
%TO.N,+3V3*%
X90079000Y-67913200D03*
D11*
X80035000Y-63950800D03*
X83792000Y-67802000D03*
D10*
X90434600Y-65576400D03*
D11*
X83946500Y-60720600D03*
X81114500Y-62833200D03*
X81216100Y-67684600D03*
X83311500Y-60720600D03*
X83652687Y-65681699D03*
X82259295Y-65741708D03*
X91424700Y-64644610D03*
D10*
X90434600Y-65576400D03*
X90079000Y-67913200D03*
%TO.N,/LED_PWM*%
X87472400Y-62746600D03*
D11*
X91245317Y-60771100D03*
D10*
%TO.N,VDC*%
X86861000Y-68843400D03*
D11*
X87043200Y-67349700D03*
X82625800Y-69830900D03*
X89307600Y-69800400D03*
D10*
%TO.N,/ENT*%
X88936000Y-63747600D03*
D11*
X90290855Y-60437692D03*
D10*
X88936000Y-63747600D03*
D11*
%TO.N,/VDD_PIX*%
X85546000Y-64489600D03*
X83627400Y-63519002D03*
%TO.N,Net-(C3-Pad2)*%
X87808100Y-66367500D03*
%TO.N,Net-(C4-Pad2)*%
X90857000Y-66367500D03*
%TO.N,/VDDA*%
X89129800Y-60025800D03*
%TO.N,Net-(R1-Pad1)*%
X87449600Y-68480000D03*
%TO.N,Net-(D2-Pad1)*%
X82191800Y-65254200D03*
%TO.N,/RESET_N*%
X84480000Y-65346075D03*
X86614267Y-63531700D03*
%TO.N,/TRIGGER0*%
X87550000Y-63250000D03*
X84165513Y-65676275D03*
%TO.N,/MONITOR0*%
X83334800Y-67471800D03*
%TO.N,/BAT+*%
X86125873Y-69346527D03*
%TO.N,Net-(L1-Pad1)*%
X87945402Y-69462600D03*
%TO.N,Net-(L2-Pad1)*%
X90614100Y-69513400D03*
%TO.N,/XIN32*%
X91628400Y-60466300D03*
D10*
X88418600Y-61702200D03*
D11*
%TO.N,/XOUT32*%
X90167400Y-59640800D03*
%TO.N,/VDDCORE*%
X91589800Y-62993600D03*
%TO.N,/nRESET*%
X87437400Y-66084400D03*
%TO.N,Net-(L5-Pad2)*%
X91615200Y-61410790D03*
%TO.N,/CLK1_OUT*%
X84150000Y-63150000D03*
X87058100Y-63224392D03*
D10*
%TO.N,/ADC0*%
X85340800Y-67650200D03*
D11*
X90536200Y-68776800D03*
%TO.N,/PCC_DATA7*%
X84175200Y-65002360D03*
D10*
%TO.N,/I_LED*%
X89443500Y-63730200D03*
D11*
X92123196Y-65025600D03*
%TO.N,/UART_RX*%
X91704600Y-68319600D03*
%TO.N,/UART_TX*%
X91441871Y-67629458D03*
%TO.N,/SD_DET*%
X86281200Y-59488402D03*
%TO.N,/nCHRG*%
X88872000Y-68810200D03*
X87398800Y-68962600D03*
%TD*%
D12*
%TO.N,GND*%
X89318700Y-68473700D02*
X89318700Y-67316300D01*
X89698000Y-68853000D02*
X89318700Y-68473700D01*
%TO.N,/USB_VBUS*%
X91983500Y-65774900D02*
X91060699Y-66697701D01*
X91060699Y-66697701D02*
X87128101Y-66697701D01*
X87128101Y-66697701D02*
X86933200Y-66502800D01*
D13*
%TO.N,+1V8*%
X84850000Y-63620600D02*
X84186200Y-63620600D01*
X85828800Y-62641800D02*
X84850000Y-63620600D01*
X84186200Y-63620600D02*
X84160800Y-63595200D01*
%TO.N,/LED_PWM*%
X90827800Y-60771100D02*
X89595900Y-62003000D01*
X91245317Y-60771100D02*
X90827800Y-60771100D01*
X88216000Y-62003000D02*
X87472400Y-62746600D01*
X89595900Y-62003000D02*
X88216000Y-62003000D01*
D12*
%TO.N,VDC*%
X86861000Y-69186800D02*
X86861000Y-68843400D01*
X87525800Y-69851600D02*
X86861000Y-69186800D01*
X89307600Y-69800400D02*
X89256400Y-69851600D01*
X89256400Y-69851600D02*
X87525800Y-69851600D01*
D13*
%TO.N,/XIN32*%
X89490300Y-61702200D02*
X88418600Y-61702200D01*
X91628400Y-60466300D02*
X90726200Y-60466300D01*
X90726200Y-60466300D02*
X89490300Y-61702200D01*
%TO.N,/ADC0*%
X90104400Y-69208600D02*
X90536200Y-68776800D01*
X85340800Y-67650200D02*
X85815000Y-68124400D01*
X85815000Y-68124400D02*
X87983000Y-68124400D01*
X88478800Y-68929200D02*
X88758200Y-69208600D01*
X88478800Y-68620200D02*
X88478800Y-68929200D01*
X87983000Y-68124400D02*
X88478800Y-68620200D01*
X88758200Y-69208600D02*
X90104400Y-69208600D01*
D12*
%TO.N,/I_LED*%
X91119900Y-63730200D02*
X92123196Y-64733496D01*
X89443500Y-63730200D02*
X91119900Y-63730200D01*
X92123196Y-64733496D02*
X92123196Y-65025600D01*
%TD*%
%TA.AperFunction,Conductor*%
%TO.N,GND*%
G36*
X85985414Y-58264586D02*
G01*
X86000000Y-58299800D01*
X86000000Y-59000000D01*
X86139726Y-59139726D01*
X86154312Y-59174939D01*
X86139726Y-59210153D01*
X86129418Y-59218064D01*
X86126196Y-59219924D01*
X86126195Y-59219925D01*
X86049153Y-59284572D01*
X86043717Y-59289133D01*
X85989886Y-59382371D01*
X85989884Y-59382376D01*
X85971190Y-59488399D01*
X85971190Y-59488404D01*
X85989884Y-59594427D01*
X85989886Y-59594432D01*
X86043470Y-59687243D01*
X86043719Y-59687673D01*
X86100111Y-59734992D01*
X86103192Y-59737577D01*
X86120792Y-59771386D01*
X86109330Y-59807737D01*
X86088213Y-59822523D01*
X85999195Y-59854922D01*
X85916717Y-59924131D01*
X85862886Y-60017369D01*
X85862884Y-60017374D01*
X85844190Y-60123397D01*
X85844190Y-60123402D01*
X85862884Y-60229425D01*
X85862886Y-60229430D01*
X85900325Y-60294277D01*
X85916719Y-60322671D01*
X85999195Y-60391877D01*
X86100367Y-60428700D01*
X86208033Y-60428700D01*
X86309205Y-60391877D01*
X86391681Y-60322671D01*
X86445514Y-60229430D01*
X86451087Y-60197823D01*
X86464210Y-60123402D01*
X86464210Y-60123397D01*
X86447000Y-60025797D01*
X88819790Y-60025797D01*
X88819790Y-60025802D01*
X88838484Y-60131825D01*
X88838486Y-60131830D01*
X88892319Y-60225071D01*
X88974795Y-60294277D01*
X89075967Y-60331100D01*
X89183633Y-60331100D01*
X89284805Y-60294277D01*
X89367281Y-60225071D01*
X89421114Y-60131830D01*
X89422600Y-60123402D01*
X89439810Y-60025802D01*
X89439810Y-60025797D01*
X89421115Y-59919774D01*
X89421114Y-59919772D01*
X89421114Y-59919770D01*
X89367281Y-59826529D01*
X89284805Y-59757323D01*
X89284804Y-59757322D01*
X89183633Y-59720500D01*
X89075967Y-59720500D01*
X88974795Y-59757322D01*
X88914714Y-59807737D01*
X88904964Y-59815919D01*
X88892317Y-59826531D01*
X88838486Y-59919769D01*
X88838484Y-59919774D01*
X88819790Y-60025797D01*
X86447000Y-60025797D01*
X86445515Y-60017374D01*
X86445514Y-60017372D01*
X86445514Y-60017370D01*
X86391681Y-59924129D01*
X86332207Y-59874224D01*
X86314607Y-59840415D01*
X86326069Y-59804064D01*
X86347183Y-59789279D01*
X86436205Y-59756879D01*
X86518681Y-59687673D01*
X86572514Y-59594432D01*
X86574845Y-59581213D01*
X86581909Y-59541152D01*
X86602388Y-59509006D01*
X86630952Y-59500000D01*
X89822867Y-59500000D01*
X89858081Y-59514586D01*
X89872667Y-59549800D01*
X89871910Y-59558447D01*
X89857390Y-59640796D01*
X89857390Y-59640802D01*
X89876084Y-59746825D01*
X89876086Y-59746830D01*
X89922101Y-59826531D01*
X89929919Y-59840071D01*
X90012395Y-59909277D01*
X90113567Y-59946100D01*
X90221233Y-59946100D01*
X90322405Y-59909277D01*
X90404881Y-59840071D01*
X90458714Y-59746830D01*
X90460346Y-59737577D01*
X90477410Y-59640802D01*
X90477410Y-59640796D01*
X90462890Y-59558447D01*
X90471139Y-59521236D01*
X90503286Y-59500757D01*
X90511933Y-59500000D01*
X91343388Y-59500000D01*
X91378602Y-59514586D01*
X91393188Y-59549800D01*
X91386517Y-59574698D01*
X91384861Y-59577564D01*
X91384859Y-59577572D01*
X91366164Y-59683597D01*
X91366164Y-59683602D01*
X91384858Y-59789625D01*
X91384860Y-59789630D01*
X91433700Y-59874224D01*
X91438693Y-59882871D01*
X91521169Y-59952077D01*
X91622341Y-59988900D01*
X91730007Y-59988900D01*
X91831179Y-59952077D01*
X91913655Y-59882871D01*
X91967488Y-59789630D01*
X91976534Y-59738329D01*
X91986184Y-59683602D01*
X91986184Y-59683597D01*
X91970460Y-59594427D01*
X91967488Y-59577570D01*
X91967487Y-59577568D01*
X91967486Y-59577564D01*
X91965831Y-59574698D01*
X91960857Y-59536909D01*
X91984062Y-59506671D01*
X92008960Y-59500000D01*
X92700200Y-59500000D01*
X92735414Y-59514586D01*
X92750000Y-59549800D01*
X92750000Y-69950200D01*
X92735414Y-69985414D01*
X92700200Y-70000000D01*
X89631147Y-70000000D01*
X89595933Y-69985414D01*
X89581347Y-69950200D01*
X89588019Y-69925300D01*
X89598914Y-69906430D01*
X89612233Y-69830897D01*
X89617610Y-69800402D01*
X89617610Y-69800397D01*
X89598915Y-69694374D01*
X89598914Y-69694372D01*
X89598914Y-69694370D01*
X89545081Y-69601129D01*
X89462605Y-69531923D01*
X89462604Y-69531922D01*
X89399341Y-69508897D01*
X89371239Y-69483147D01*
X89369576Y-69445068D01*
X89395326Y-69416966D01*
X89416373Y-69412300D01*
X90144917Y-69412300D01*
X90144919Y-69412300D01*
X90219787Y-69381289D01*
X90238734Y-69362341D01*
X90273947Y-69347755D01*
X90309161Y-69362340D01*
X90323748Y-69397554D01*
X90322991Y-69406203D01*
X90304090Y-69513397D01*
X90304090Y-69513402D01*
X90322784Y-69619425D01*
X90322786Y-69619430D01*
X90341490Y-69651827D01*
X90376619Y-69712671D01*
X90459095Y-69781877D01*
X90560267Y-69818700D01*
X90667933Y-69818700D01*
X90769105Y-69781877D01*
X90851581Y-69712671D01*
X90905414Y-69619430D01*
X90905415Y-69619425D01*
X90924110Y-69513402D01*
X90924110Y-69513397D01*
X90905415Y-69407374D01*
X90905414Y-69407372D01*
X90905414Y-69407370D01*
X90851581Y-69314129D01*
X90769105Y-69244923D01*
X90769104Y-69244922D01*
X90667933Y-69208100D01*
X90560267Y-69208100D01*
X90508329Y-69227003D01*
X90470250Y-69225340D01*
X90444500Y-69197238D01*
X90446163Y-69159159D01*
X90456083Y-69144992D01*
X90459846Y-69141230D01*
X90504390Y-69096686D01*
X90539604Y-69082100D01*
X90590033Y-69082100D01*
X90691205Y-69045277D01*
X90772262Y-68977261D01*
X90808611Y-68965800D01*
X90842420Y-68983400D01*
X90853314Y-69006764D01*
X90853959Y-69010424D01*
X90853961Y-69010430D01*
X90900999Y-69091903D01*
X90907794Y-69103671D01*
X90990270Y-69172877D01*
X91091442Y-69209700D01*
X91199108Y-69209700D01*
X91300280Y-69172877D01*
X91382756Y-69103671D01*
X91436589Y-69010430D01*
X91436590Y-69010424D01*
X91455285Y-68904402D01*
X91455285Y-68904397D01*
X91436590Y-68798374D01*
X91436589Y-68798372D01*
X91436589Y-68798370D01*
X91382756Y-68705129D01*
X91300280Y-68635923D01*
X91300279Y-68635922D01*
X91199108Y-68599100D01*
X91091442Y-68599100D01*
X90990270Y-68635922D01*
X90909214Y-68703937D01*
X90872863Y-68715398D01*
X90839054Y-68697799D01*
X90828159Y-68674432D01*
X90827514Y-68670770D01*
X90773681Y-68577529D01*
X90691205Y-68508323D01*
X90691204Y-68508322D01*
X90590033Y-68471500D01*
X90482367Y-68471500D01*
X90381195Y-68508322D01*
X90298717Y-68577531D01*
X90244886Y-68670769D01*
X90244884Y-68670774D01*
X90226190Y-68776797D01*
X90226190Y-68778105D01*
X90225788Y-68779073D01*
X90225433Y-68781091D01*
X90224985Y-68781012D01*
X90211604Y-68813319D01*
X90034611Y-68990314D01*
X89999397Y-69004900D01*
X89198376Y-69004900D01*
X89163162Y-68990314D01*
X89148576Y-68955100D01*
X89155248Y-68930200D01*
X89163314Y-68916230D01*
X89165400Y-68904400D01*
X89182010Y-68810202D01*
X89182010Y-68810197D01*
X89163315Y-68704174D01*
X89163314Y-68704172D01*
X89163314Y-68704170D01*
X89109481Y-68610929D01*
X89027005Y-68541723D01*
X89027004Y-68541722D01*
X88925833Y-68504900D01*
X88818167Y-68504900D01*
X88718153Y-68541301D01*
X88680074Y-68539638D01*
X88655112Y-68513560D01*
X88651489Y-68504813D01*
X88594187Y-68447511D01*
X88591351Y-68444675D01*
X88591344Y-68444669D01*
X88466272Y-68319597D01*
X91394590Y-68319597D01*
X91394590Y-68319602D01*
X91413284Y-68425625D01*
X91413286Y-68425630D01*
X91459002Y-68504813D01*
X91467119Y-68518871D01*
X91549595Y-68588077D01*
X91650767Y-68624900D01*
X91758433Y-68624900D01*
X91859605Y-68588077D01*
X91942081Y-68518871D01*
X91995914Y-68425630D01*
X91997476Y-68416770D01*
X92014610Y-68319602D01*
X92014610Y-68319597D01*
X91995915Y-68213574D01*
X91995914Y-68213572D01*
X91995914Y-68213570D01*
X91942081Y-68120329D01*
X91859605Y-68051123D01*
X91859604Y-68051122D01*
X91758433Y-68014300D01*
X91650767Y-68014300D01*
X91549595Y-68051122D01*
X91467117Y-68120331D01*
X91413286Y-68213569D01*
X91413284Y-68213574D01*
X91394590Y-68319597D01*
X88466272Y-68319597D01*
X88155689Y-68009014D01*
X88155689Y-68009013D01*
X88098387Y-67951711D01*
X88098386Y-67951710D01*
X88023521Y-67920700D01*
X88023519Y-67920700D01*
X85920003Y-67920700D01*
X85901887Y-67913196D01*
X89794782Y-67913196D01*
X89794782Y-67913203D01*
X89811920Y-68010404D01*
X89811923Y-68010411D01*
X89861274Y-68095890D01*
X89861276Y-68095892D01*
X89936891Y-68159340D01*
X90029646Y-68193100D01*
X90128354Y-68193100D01*
X90221109Y-68159340D01*
X90296724Y-68095892D01*
X90346078Y-68010408D01*
X90356428Y-67951710D01*
X90363218Y-67913203D01*
X90363218Y-67913196D01*
X90346079Y-67815995D01*
X90346076Y-67815988D01*
X90296725Y-67730509D01*
X90296723Y-67730507D01*
X90221108Y-67667059D01*
X90128354Y-67633300D01*
X90029646Y-67633300D01*
X89936891Y-67667059D01*
X89861276Y-67730507D01*
X89861274Y-67730509D01*
X89811923Y-67815988D01*
X89811920Y-67815995D01*
X89794782Y-67913196D01*
X85901887Y-67913196D01*
X85884789Y-67906114D01*
X85635294Y-67656619D01*
X85621465Y-67630055D01*
X85607878Y-67552992D01*
X85607876Y-67552988D01*
X85558525Y-67467509D01*
X85558523Y-67467507D01*
X85482908Y-67404059D01*
X85390154Y-67370300D01*
X85291446Y-67370300D01*
X85198691Y-67404059D01*
X85123076Y-67467507D01*
X85123074Y-67467509D01*
X85073723Y-67552988D01*
X85073720Y-67552995D01*
X85056582Y-67650196D01*
X85056582Y-67650203D01*
X85073720Y-67747404D01*
X85073723Y-67747411D01*
X85123074Y-67832890D01*
X85123076Y-67832892D01*
X85198691Y-67896340D01*
X85291446Y-67930100D01*
X85311997Y-67930100D01*
X85347211Y-67944686D01*
X85639469Y-68236944D01*
X85639472Y-68236948D01*
X85699613Y-68297089D01*
X85774478Y-68328099D01*
X85774479Y-68328099D01*
X85774481Y-68328100D01*
X87107025Y-68328100D01*
X87142239Y-68342686D01*
X87156825Y-68377900D01*
X87156068Y-68386548D01*
X87139590Y-68479997D01*
X87139590Y-68480002D01*
X87158284Y-68586025D01*
X87158286Y-68586030D01*
X87207338Y-68670992D01*
X87212313Y-68708782D01*
X87196222Y-68734040D01*
X87191056Y-68738375D01*
X87154705Y-68749838D01*
X87120896Y-68732239D01*
X87115916Y-68725127D01*
X87106479Y-68708782D01*
X87078724Y-68660708D01*
X87036050Y-68624900D01*
X87003108Y-68597259D01*
X86910354Y-68563500D01*
X86811646Y-68563500D01*
X86718891Y-68597259D01*
X86643276Y-68660707D01*
X86643274Y-68660709D01*
X86593923Y-68746188D01*
X86593920Y-68746195D01*
X86576782Y-68843396D01*
X86576782Y-68843403D01*
X86593920Y-68940604D01*
X86593922Y-68940608D01*
X86625228Y-68994833D01*
X86631900Y-69019731D01*
X86631900Y-69232372D01*
X86666777Y-69316574D01*
X87265189Y-69914986D01*
X87279775Y-69950200D01*
X87265189Y-69985414D01*
X87229975Y-70000000D01*
X82965280Y-70000000D01*
X82930066Y-69985414D01*
X82915480Y-69950200D01*
X82917048Y-69941342D01*
X82916358Y-69941221D01*
X82935810Y-69830902D01*
X82935810Y-69830897D01*
X82917115Y-69724874D01*
X82917114Y-69724872D01*
X82917114Y-69724870D01*
X82863281Y-69631629D01*
X82788006Y-69568465D01*
X82780804Y-69562422D01*
X82679633Y-69525600D01*
X82571967Y-69525600D01*
X82470795Y-69562422D01*
X82420687Y-69604469D01*
X82399199Y-69622500D01*
X82388317Y-69631631D01*
X82334486Y-69724869D01*
X82334484Y-69724874D01*
X82315790Y-69830897D01*
X82315790Y-69830902D01*
X82335242Y-69941221D01*
X82332731Y-69941663D01*
X82331484Y-69971183D01*
X82303418Y-69996973D01*
X82286320Y-70000000D01*
X79699800Y-70000000D01*
X79664586Y-69985414D01*
X79650000Y-69950200D01*
X79650000Y-69346524D01*
X85815863Y-69346524D01*
X85815863Y-69346529D01*
X85834557Y-69452552D01*
X85834559Y-69452557D01*
X85880380Y-69531922D01*
X85888392Y-69545798D01*
X85970868Y-69615004D01*
X86072040Y-69651827D01*
X86179706Y-69651827D01*
X86280878Y-69615004D01*
X86363354Y-69545798D01*
X86417187Y-69452557D01*
X86423463Y-69416966D01*
X86435883Y-69346529D01*
X86435883Y-69346524D01*
X86417188Y-69240501D01*
X86417187Y-69240499D01*
X86417187Y-69240497D01*
X86363354Y-69147256D01*
X86280878Y-69078050D01*
X86280877Y-69078049D01*
X86179706Y-69041227D01*
X86072040Y-69041227D01*
X85970868Y-69078049D01*
X85908469Y-69130409D01*
X85895574Y-69141230D01*
X85888390Y-69147258D01*
X85834559Y-69240496D01*
X85834557Y-69240501D01*
X85815863Y-69346524D01*
X79650000Y-69346524D01*
X79650000Y-68522797D01*
X81198190Y-68522797D01*
X81198190Y-68522802D01*
X81216884Y-68628825D01*
X81216886Y-68628830D01*
X81263046Y-68708782D01*
X81270719Y-68722071D01*
X81353195Y-68791277D01*
X81454367Y-68828100D01*
X81562033Y-68828100D01*
X81663205Y-68791277D01*
X81745681Y-68722071D01*
X81799514Y-68628830D01*
X81802670Y-68610931D01*
X81818210Y-68522802D01*
X81818210Y-68522797D01*
X81799515Y-68416774D01*
X81799514Y-68416772D01*
X81799514Y-68416770D01*
X81745681Y-68323529D01*
X81663205Y-68254323D01*
X81663204Y-68254322D01*
X81562033Y-68217500D01*
X81454367Y-68217500D01*
X81353195Y-68254322D01*
X81302229Y-68297089D01*
X81275402Y-68319600D01*
X81270717Y-68323531D01*
X81216886Y-68416769D01*
X81216884Y-68416774D01*
X81198190Y-68522797D01*
X79650000Y-68522797D01*
X79650000Y-67684597D01*
X80906090Y-67684597D01*
X80906090Y-67684602D01*
X80924784Y-67790625D01*
X80924786Y-67790630D01*
X80946782Y-67828729D01*
X80978619Y-67883871D01*
X81061095Y-67953077D01*
X81162267Y-67989900D01*
X81269933Y-67989900D01*
X81371105Y-67953077D01*
X81453581Y-67883871D01*
X81507414Y-67790630D01*
X81516435Y-67739468D01*
X81526110Y-67684602D01*
X81526110Y-67684597D01*
X81507415Y-67578574D01*
X81507414Y-67578572D01*
X81507414Y-67578570D01*
X81485259Y-67540197D01*
X82288190Y-67540197D01*
X82288190Y-67540202D01*
X82306884Y-67646225D01*
X82306886Y-67646230D01*
X82359439Y-67737255D01*
X82360719Y-67739471D01*
X82443195Y-67808677D01*
X82544367Y-67845500D01*
X82652033Y-67845500D01*
X82753205Y-67808677D01*
X82835681Y-67739471D01*
X82889514Y-67646230D01*
X82892471Y-67629460D01*
X82908210Y-67540202D01*
X82908210Y-67540197D01*
X82896149Y-67471797D01*
X83024790Y-67471797D01*
X83024790Y-67471802D01*
X83043484Y-67577825D01*
X83043486Y-67577830D01*
X83095002Y-67667059D01*
X83097319Y-67671071D01*
X83179795Y-67740277D01*
X83280967Y-67777100D01*
X83388632Y-67777100D01*
X83388633Y-67777100D01*
X83416465Y-67766970D01*
X83454542Y-67768633D01*
X83480293Y-67796734D01*
X83482539Y-67805119D01*
X83500684Y-67908025D01*
X83500686Y-67908030D01*
X83554519Y-68001271D01*
X83636995Y-68070477D01*
X83738167Y-68107300D01*
X83845833Y-68107300D01*
X83947005Y-68070477D01*
X84029481Y-68001271D01*
X84083314Y-67908030D01*
X84087574Y-67883871D01*
X84102010Y-67802002D01*
X84102010Y-67801997D01*
X84083315Y-67695974D01*
X84083314Y-67695972D01*
X84083314Y-67695970D01*
X84029481Y-67602729D01*
X83947005Y-67533523D01*
X83947004Y-67533522D01*
X83845833Y-67496700D01*
X83738167Y-67496700D01*
X83738166Y-67496700D01*
X83710334Y-67506829D01*
X83672255Y-67505165D01*
X83646506Y-67477063D01*
X83644260Y-67468680D01*
X83626115Y-67365774D01*
X83626114Y-67365772D01*
X83626114Y-67365770D01*
X83616834Y-67349697D01*
X86733190Y-67349697D01*
X86733190Y-67349702D01*
X86751884Y-67455725D01*
X86751886Y-67455730D01*
X86790971Y-67523428D01*
X86805719Y-67548971D01*
X86888195Y-67618177D01*
X86989367Y-67655000D01*
X87097033Y-67655000D01*
X87167218Y-67629455D01*
X91131861Y-67629455D01*
X91131861Y-67629460D01*
X91150555Y-67735483D01*
X91150557Y-67735488D01*
X91190758Y-67805119D01*
X91204390Y-67828729D01*
X91286866Y-67897935D01*
X91388038Y-67934758D01*
X91495704Y-67934758D01*
X91596876Y-67897935D01*
X91679352Y-67828729D01*
X91733185Y-67735488D01*
X91734063Y-67730507D01*
X91751881Y-67629460D01*
X91751881Y-67629455D01*
X91733186Y-67523432D01*
X91733185Y-67523430D01*
X91733185Y-67523428D01*
X91679352Y-67430187D01*
X91596876Y-67360981D01*
X91596875Y-67360980D01*
X91495704Y-67324158D01*
X91388038Y-67324158D01*
X91286866Y-67360980D01*
X91204388Y-67430189D01*
X91150557Y-67523427D01*
X91150555Y-67523432D01*
X91131861Y-67629455D01*
X87167218Y-67629455D01*
X87198205Y-67618177D01*
X87280681Y-67548971D01*
X87334514Y-67455730D01*
X87350376Y-67365774D01*
X87353210Y-67349702D01*
X87353210Y-67349697D01*
X87334515Y-67243674D01*
X87334514Y-67243672D01*
X87334514Y-67243670D01*
X87280681Y-67150429D01*
X87208243Y-67089646D01*
X87198204Y-67081222D01*
X87097033Y-67044400D01*
X86989367Y-67044400D01*
X86888195Y-67081222D01*
X86805717Y-67150431D01*
X86751886Y-67243669D01*
X86751884Y-67243674D01*
X86733190Y-67349697D01*
X83616834Y-67349697D01*
X83572281Y-67272529D01*
X83489805Y-67203323D01*
X83489804Y-67203322D01*
X83388633Y-67166500D01*
X83280967Y-67166500D01*
X83179795Y-67203322D01*
X83097317Y-67272531D01*
X83043486Y-67365769D01*
X83043484Y-67365774D01*
X83024790Y-67471797D01*
X82896149Y-67471797D01*
X82889515Y-67434174D01*
X82889514Y-67434172D01*
X82889514Y-67434170D01*
X82835681Y-67340929D01*
X82753205Y-67271723D01*
X82753204Y-67271722D01*
X82652033Y-67234900D01*
X82544367Y-67234900D01*
X82443195Y-67271722D01*
X82360717Y-67340931D01*
X82306886Y-67434169D01*
X82306884Y-67434174D01*
X82288190Y-67540197D01*
X81485259Y-67540197D01*
X81453581Y-67485329D01*
X81371105Y-67416123D01*
X81371104Y-67416122D01*
X81269933Y-67379300D01*
X81162267Y-67379300D01*
X81061095Y-67416122D01*
X80978617Y-67485331D01*
X80924786Y-67578569D01*
X80924784Y-67578574D01*
X80906090Y-67684597D01*
X79650000Y-67684597D01*
X79650000Y-66989596D01*
X83761782Y-66989596D01*
X83761782Y-66989603D01*
X83778920Y-67086804D01*
X83778923Y-67086811D01*
X83828274Y-67172290D01*
X83828276Y-67172292D01*
X83903891Y-67235740D01*
X83996646Y-67269500D01*
X84095354Y-67269500D01*
X84188109Y-67235740D01*
X84263724Y-67172292D01*
X84313078Y-67086808D01*
X84320556Y-67044400D01*
X84330218Y-66989603D01*
X84330218Y-66989596D01*
X84313079Y-66892395D01*
X84313076Y-66892388D01*
X84263725Y-66806909D01*
X84263723Y-66806907D01*
X84188108Y-66743459D01*
X84095354Y-66709700D01*
X83996646Y-66709700D01*
X83903891Y-66743459D01*
X83828276Y-66806907D01*
X83828274Y-66806909D01*
X83778923Y-66892388D01*
X83778920Y-66892395D01*
X83761782Y-66989596D01*
X79650000Y-66989596D01*
X79650000Y-66502797D01*
X86623190Y-66502797D01*
X86623190Y-66502802D01*
X86641884Y-66608825D01*
X86641886Y-66608830D01*
X86695719Y-66702071D01*
X86778195Y-66771277D01*
X86879367Y-66808100D01*
X86893876Y-66808100D01*
X86929090Y-66822686D01*
X86998327Y-66891923D01*
X87047652Y-66912353D01*
X87047653Y-66912354D01*
X87065091Y-66919577D01*
X87082530Y-66926801D01*
X91106270Y-66926801D01*
X91121821Y-66920358D01*
X91130931Y-66916586D01*
X91130932Y-66916586D01*
X91189334Y-66892395D01*
X91190474Y-66891923D01*
X92016782Y-66065613D01*
X92034959Y-66054033D01*
X92125609Y-66021040D01*
X92201224Y-65957592D01*
X92250578Y-65872108D01*
X92250579Y-65872104D01*
X92267718Y-65774903D01*
X92267718Y-65774896D01*
X92250579Y-65677695D01*
X92250576Y-65677688D01*
X92201225Y-65592209D01*
X92201223Y-65592207D01*
X92125608Y-65528759D01*
X92032854Y-65495000D01*
X91934146Y-65495000D01*
X91841391Y-65528759D01*
X91765776Y-65592207D01*
X91765774Y-65592209D01*
X91716422Y-65677690D01*
X91716421Y-65677693D01*
X91710523Y-65711142D01*
X91696694Y-65737708D01*
X91203216Y-66231185D01*
X91168002Y-66245771D01*
X91132788Y-66231185D01*
X91124874Y-66220871D01*
X91119816Y-66212110D01*
X91094481Y-66168229D01*
X91012005Y-66099023D01*
X91012004Y-66099022D01*
X90910833Y-66062200D01*
X90803167Y-66062200D01*
X90701995Y-66099022D01*
X90663593Y-66131246D01*
X90619521Y-66168228D01*
X90619517Y-66168231D01*
X90565686Y-66261469D01*
X90565684Y-66261474D01*
X90546990Y-66367497D01*
X90546990Y-66367501D01*
X90554511Y-66410153D01*
X90546262Y-66447365D01*
X90514116Y-66467844D01*
X90505468Y-66468601D01*
X88159632Y-66468601D01*
X88124418Y-66454015D01*
X88109832Y-66418801D01*
X88110589Y-66410153D01*
X88118110Y-66367501D01*
X88118110Y-66367497D01*
X88099415Y-66261474D01*
X88099414Y-66261472D01*
X88099414Y-66261470D01*
X88045581Y-66168229D01*
X88045580Y-66168228D01*
X88041799Y-66165055D01*
X88024200Y-66131246D01*
X88035663Y-66094895D01*
X88056780Y-66080110D01*
X88075002Y-66073478D01*
X88075001Y-66073478D01*
X88075005Y-66073477D01*
X88157481Y-66004271D01*
X88211314Y-65911030D01*
X88213180Y-65900449D01*
X88230010Y-65805002D01*
X88230010Y-65804997D01*
X88211315Y-65698974D01*
X88211314Y-65698972D01*
X88211314Y-65698970D01*
X88157481Y-65605729D01*
X88122524Y-65576396D01*
X90150382Y-65576396D01*
X90150382Y-65576403D01*
X90167520Y-65673604D01*
X90167523Y-65673611D01*
X90216874Y-65759090D01*
X90216876Y-65759092D01*
X90292491Y-65822540D01*
X90385246Y-65856300D01*
X90483954Y-65856300D01*
X90576709Y-65822540D01*
X90652324Y-65759092D01*
X90701678Y-65673608D01*
X90703749Y-65661862D01*
X90718818Y-65576403D01*
X90718818Y-65576396D01*
X90701679Y-65479195D01*
X90701676Y-65479188D01*
X90652325Y-65393709D01*
X90652323Y-65393707D01*
X90576708Y-65330259D01*
X90483954Y-65296500D01*
X90385246Y-65296500D01*
X90292491Y-65330259D01*
X90216876Y-65393707D01*
X90216874Y-65393709D01*
X90167523Y-65479188D01*
X90167520Y-65479195D01*
X90150382Y-65576396D01*
X88122524Y-65576396D01*
X88075005Y-65536523D01*
X88075004Y-65536522D01*
X87973833Y-65499700D01*
X87866167Y-65499700D01*
X87764995Y-65536522D01*
X87682517Y-65605731D01*
X87628686Y-65698969D01*
X87628684Y-65698974D01*
X87617425Y-65762831D01*
X87596946Y-65794977D01*
X87559734Y-65803226D01*
X87551350Y-65800980D01*
X87491233Y-65779100D01*
X87383567Y-65779100D01*
X87282395Y-65815922D01*
X87234276Y-65856300D01*
X87204876Y-65880970D01*
X87199917Y-65885131D01*
X87146086Y-65978369D01*
X87146084Y-65978374D01*
X87127390Y-66084397D01*
X87127390Y-66084398D01*
X87127390Y-66084400D01*
X87132345Y-66112500D01*
X87143347Y-66174899D01*
X87135097Y-66212110D01*
X87102950Y-66232590D01*
X87077271Y-66230343D01*
X86987033Y-66197500D01*
X86879367Y-66197500D01*
X86778195Y-66234322D01*
X86695717Y-66303531D01*
X86641886Y-66396769D01*
X86641884Y-66396774D01*
X86623190Y-66502797D01*
X79650000Y-66502797D01*
X79650000Y-65254197D01*
X81881790Y-65254197D01*
X81881790Y-65254202D01*
X81900484Y-65360225D01*
X81900486Y-65360230D01*
X81925990Y-65404405D01*
X81954319Y-65453471D01*
X82002377Y-65493797D01*
X82019977Y-65527605D01*
X82013494Y-65556844D01*
X81967982Y-65635674D01*
X81967979Y-65635682D01*
X81949285Y-65741705D01*
X81949285Y-65741710D01*
X81967979Y-65847733D01*
X81967981Y-65847738D01*
X81998411Y-65900445D01*
X82021814Y-65940979D01*
X82104290Y-66010185D01*
X82205462Y-66047008D01*
X82313128Y-66047008D01*
X82414300Y-66010185D01*
X82496776Y-65940979D01*
X82550609Y-65847738D01*
X82558145Y-65805000D01*
X82569305Y-65741710D01*
X82569305Y-65741705D01*
X82550610Y-65635682D01*
X82550609Y-65635680D01*
X82550609Y-65635678D01*
X82496776Y-65542437D01*
X82448716Y-65502110D01*
X82431117Y-65468302D01*
X82437600Y-65439062D01*
X82457609Y-65404405D01*
X82483114Y-65360230D01*
X82485610Y-65346075D01*
X82501810Y-65254202D01*
X82501810Y-65254197D01*
X82483115Y-65148174D01*
X82483114Y-65148172D01*
X82483114Y-65148170D01*
X82429281Y-65054929D01*
X82346805Y-64985723D01*
X82346804Y-64985722D01*
X82294806Y-64966797D01*
X83141290Y-64966797D01*
X83141290Y-64966802D01*
X83159984Y-65072825D01*
X83159986Y-65072830D01*
X83213819Y-65166071D01*
X83296295Y-65235277D01*
X83397467Y-65272100D01*
X83431287Y-65272100D01*
X83466501Y-65286686D01*
X83480330Y-65313251D01*
X83483442Y-65330900D01*
X83492929Y-65384705D01*
X83484678Y-65421917D01*
X83475897Y-65431500D01*
X83415204Y-65482429D01*
X83361373Y-65575668D01*
X83361371Y-65575673D01*
X83342677Y-65681696D01*
X83342677Y-65681701D01*
X83361371Y-65787724D01*
X83361373Y-65787729D01*
X83400962Y-65856300D01*
X83415206Y-65880970D01*
X83497682Y-65950176D01*
X83598854Y-65986999D01*
X83706520Y-65986999D01*
X83807692Y-65950176D01*
X83880322Y-65889231D01*
X83916672Y-65877770D01*
X83944341Y-65889231D01*
X84010508Y-65944752D01*
X84102871Y-65978369D01*
X84111683Y-65981576D01*
X84115970Y-65982332D01*
X84115648Y-65984158D01*
X84144626Y-65996161D01*
X84158455Y-66022727D01*
X84174284Y-66112500D01*
X84174286Y-66112505D01*
X84206459Y-66168231D01*
X84228119Y-66205746D01*
X84310595Y-66274952D01*
X84411767Y-66311775D01*
X84519433Y-66311775D01*
X84620605Y-66274952D01*
X84703081Y-66205746D01*
X84756914Y-66112505D01*
X84759291Y-66099023D01*
X84775610Y-66006477D01*
X84775610Y-66006472D01*
X84756915Y-65900449D01*
X84756914Y-65900447D01*
X84756914Y-65900445D01*
X84703081Y-65807204D01*
X84620605Y-65737998D01*
X84620604Y-65737997D01*
X84586795Y-65725692D01*
X84558694Y-65699941D01*
X84557031Y-65661862D01*
X84582782Y-65633761D01*
X84586788Y-65632100D01*
X84635005Y-65614552D01*
X84717481Y-65545346D01*
X84771314Y-65452105D01*
X84778170Y-65413222D01*
X84790010Y-65346077D01*
X84790010Y-65346072D01*
X84771315Y-65240049D01*
X84771314Y-65240047D01*
X84771314Y-65240045D01*
X84717481Y-65146804D01*
X84635005Y-65077598D01*
X84635004Y-65077597D01*
X84533833Y-65040775D01*
X84533771Y-65040775D01*
X84533722Y-65040754D01*
X84529543Y-65040018D01*
X84529706Y-65039091D01*
X84498557Y-65026189D01*
X84484728Y-64999623D01*
X84466515Y-64896334D01*
X84466514Y-64896331D01*
X84466514Y-64896330D01*
X84412681Y-64803089D01*
X84330205Y-64733883D01*
X84330204Y-64733882D01*
X84229033Y-64697060D01*
X84121367Y-64697060D01*
X84020195Y-64733882D01*
X83937717Y-64803091D01*
X83883885Y-64896331D01*
X83883884Y-64896333D01*
X83874083Y-64951923D01*
X83853604Y-64984069D01*
X83825040Y-64993075D01*
X83807730Y-64993075D01*
X83772516Y-64978489D01*
X83758687Y-64951923D01*
X83742615Y-64860774D01*
X83742614Y-64860772D01*
X83742614Y-64860770D01*
X83688781Y-64767529D01*
X83606305Y-64698323D01*
X83606304Y-64698322D01*
X83505133Y-64661500D01*
X83397467Y-64661500D01*
X83296295Y-64698322D01*
X83253916Y-64733883D01*
X83225084Y-64758077D01*
X83213817Y-64767531D01*
X83159986Y-64860769D01*
X83159984Y-64860774D01*
X83141290Y-64966797D01*
X82294806Y-64966797D01*
X82245633Y-64948900D01*
X82137967Y-64948900D01*
X82036795Y-64985722D01*
X81954317Y-65054931D01*
X81900486Y-65148169D01*
X81900484Y-65148174D01*
X81881790Y-65254197D01*
X79650000Y-65254197D01*
X79650000Y-64489597D01*
X85235990Y-64489597D01*
X85235990Y-64489602D01*
X85254684Y-64595625D01*
X85254686Y-64595630D01*
X85308519Y-64688871D01*
X85390995Y-64758077D01*
X85492167Y-64794900D01*
X85599833Y-64794900D01*
X85701005Y-64758077D01*
X85783481Y-64688871D01*
X85837314Y-64595630D01*
X85847373Y-64538584D01*
X85856010Y-64489602D01*
X85856010Y-64489597D01*
X85837315Y-64383574D01*
X85837314Y-64383572D01*
X85837314Y-64383570D01*
X85783481Y-64290329D01*
X85701005Y-64221123D01*
X85701004Y-64221122D01*
X85599833Y-64184300D01*
X85492167Y-64184300D01*
X85390995Y-64221122D01*
X85308517Y-64290331D01*
X85254686Y-64383569D01*
X85254684Y-64383574D01*
X85235990Y-64489597D01*
X79650000Y-64489597D01*
X79650000Y-64080416D01*
X79664586Y-64045202D01*
X79699800Y-64030616D01*
X79735014Y-64045202D01*
X79742928Y-64055516D01*
X79743685Y-64056828D01*
X79743686Y-64056830D01*
X79797519Y-64150071D01*
X79879995Y-64219277D01*
X79981167Y-64256100D01*
X80088833Y-64256100D01*
X80190005Y-64219277D01*
X80272481Y-64150071D01*
X80326314Y-64056830D01*
X80334554Y-64010100D01*
X80345010Y-63950802D01*
X80345010Y-63950797D01*
X80326315Y-63844774D01*
X80326314Y-63844772D01*
X80326314Y-63844770D01*
X80272481Y-63751529D01*
X80190005Y-63682323D01*
X80190004Y-63682322D01*
X80088833Y-63645500D01*
X79981167Y-63645500D01*
X79879995Y-63682322D01*
X79824392Y-63728980D01*
X79801419Y-63748257D01*
X79797517Y-63751531D01*
X79742928Y-63846083D01*
X79712689Y-63869286D01*
X79674900Y-63864311D01*
X79651697Y-63834072D01*
X79650000Y-63821183D01*
X79650000Y-63005266D01*
X79664586Y-62970052D01*
X79699800Y-62955466D01*
X79731811Y-62967117D01*
X79734017Y-62968968D01*
X79734019Y-62968971D01*
X79816495Y-63038177D01*
X79917667Y-63075000D01*
X80025333Y-63075000D01*
X80126505Y-63038177D01*
X80208981Y-62968971D01*
X80262814Y-62875730D01*
X80264942Y-62863660D01*
X80270314Y-62833197D01*
X80804490Y-62833197D01*
X80804490Y-62833202D01*
X80823184Y-62939225D01*
X80823186Y-62939230D01*
X80872776Y-63025123D01*
X80877019Y-63032471D01*
X80927703Y-63075000D01*
X80959940Y-63102051D01*
X80977540Y-63135860D01*
X80966078Y-63172211D01*
X80959940Y-63178349D01*
X80877017Y-63247931D01*
X80823186Y-63341169D01*
X80823184Y-63341174D01*
X80804490Y-63447197D01*
X80804490Y-63447202D01*
X80823184Y-63553225D01*
X80823186Y-63553230D01*
X80860931Y-63618607D01*
X80877019Y-63646471D01*
X80959495Y-63715677D01*
X81060667Y-63752500D01*
X81168333Y-63752500D01*
X81269505Y-63715677D01*
X81351981Y-63646471D01*
X81405814Y-63553230D01*
X81409611Y-63531697D01*
X81411850Y-63518999D01*
X83317390Y-63518999D01*
X83317390Y-63519004D01*
X83336084Y-63625027D01*
X83336086Y-63625032D01*
X83369162Y-63682322D01*
X83389919Y-63718273D01*
X83472395Y-63787479D01*
X83573567Y-63824302D01*
X83681233Y-63824302D01*
X83782405Y-63787479D01*
X83829148Y-63748256D01*
X83865498Y-63736795D01*
X83899307Y-63754395D01*
X83904286Y-63761506D01*
X83923317Y-63794468D01*
X83923319Y-63794471D01*
X84005795Y-63863677D01*
X84106967Y-63900500D01*
X84214633Y-63900500D01*
X84315805Y-63863677D01*
X84348847Y-63835950D01*
X84380858Y-63824300D01*
X84890517Y-63824300D01*
X84890519Y-63824300D01*
X84965387Y-63793289D01*
X85022689Y-63735987D01*
X85022689Y-63735985D01*
X85226978Y-63531697D01*
X86304257Y-63531697D01*
X86304257Y-63531702D01*
X86322951Y-63637725D01*
X86322953Y-63637730D01*
X86376786Y-63730971D01*
X86459262Y-63800177D01*
X86560434Y-63837000D01*
X86668100Y-63837000D01*
X86769272Y-63800177D01*
X86831935Y-63747596D01*
X88651782Y-63747596D01*
X88651782Y-63747603D01*
X88668920Y-63844804D01*
X88668923Y-63844811D01*
X88718274Y-63930290D01*
X88718276Y-63930292D01*
X88793891Y-63993740D01*
X88886646Y-64027500D01*
X88985354Y-64027500D01*
X89078109Y-63993740D01*
X89153724Y-63930292D01*
X89154328Y-63929244D01*
X89155100Y-63928652D01*
X89156528Y-63926951D01*
X89156904Y-63927267D01*
X89184564Y-63906038D01*
X89222354Y-63911009D01*
X89229465Y-63915987D01*
X89301391Y-63976340D01*
X89394146Y-64010100D01*
X89492854Y-64010100D01*
X89585609Y-63976340D01*
X89592030Y-63970951D01*
X89624042Y-63959300D01*
X91004375Y-63959300D01*
X91039589Y-63973886D01*
X91340626Y-64274923D01*
X91355212Y-64310137D01*
X91340626Y-64345351D01*
X91322444Y-64356934D01*
X91269695Y-64376132D01*
X91187217Y-64445341D01*
X91133386Y-64538579D01*
X91133384Y-64538584D01*
X91114690Y-64644607D01*
X91114690Y-64644610D01*
X91133384Y-64750635D01*
X91133386Y-64750640D01*
X91163667Y-64803089D01*
X91187219Y-64843881D01*
X91269695Y-64913087D01*
X91370867Y-64949910D01*
X91478533Y-64949910D01*
X91579705Y-64913087D01*
X91662181Y-64843881D01*
X91716014Y-64750640D01*
X91716015Y-64750631D01*
X91716046Y-64750550D01*
X91716101Y-64750489D01*
X91718193Y-64746867D01*
X91718995Y-64747330D01*
X91741789Y-64722442D01*
X91779868Y-64720770D01*
X91798061Y-64732357D01*
X91861007Y-64795303D01*
X91875593Y-64830517D01*
X91868921Y-64855417D01*
X91831882Y-64919569D01*
X91831880Y-64919574D01*
X91813186Y-65025597D01*
X91813186Y-65025602D01*
X91831880Y-65131625D01*
X91831882Y-65131630D01*
X91885715Y-65224871D01*
X91968191Y-65294077D01*
X92069363Y-65330900D01*
X92177029Y-65330900D01*
X92278201Y-65294077D01*
X92360677Y-65224871D01*
X92414510Y-65131630D01*
X92414511Y-65131625D01*
X92433206Y-65025602D01*
X92433206Y-65025597D01*
X92414511Y-64919574D01*
X92414510Y-64919572D01*
X92414510Y-64919570D01*
X92363095Y-64830517D01*
X92358968Y-64823368D01*
X92352296Y-64798468D01*
X92352296Y-64687926D01*
X92352296Y-64687925D01*
X92334354Y-64644610D01*
X92317418Y-64603722D01*
X92317418Y-64603721D01*
X91249674Y-63535977D01*
X91190133Y-63511315D01*
X91165473Y-63501100D01*
X91165471Y-63501100D01*
X89624042Y-63501100D01*
X89592030Y-63489448D01*
X89585608Y-63484059D01*
X89492854Y-63450300D01*
X89394146Y-63450300D01*
X89301391Y-63484059D01*
X89225776Y-63547507D01*
X89225774Y-63547510D01*
X89225165Y-63548565D01*
X89224390Y-63549159D01*
X89222975Y-63550846D01*
X89222600Y-63550532D01*
X89194923Y-63571764D01*
X89157134Y-63566784D01*
X89150032Y-63561810D01*
X89078109Y-63501460D01*
X89078108Y-63501459D01*
X88985354Y-63467700D01*
X88886646Y-63467700D01*
X88793891Y-63501459D01*
X88718276Y-63564907D01*
X88718274Y-63564909D01*
X88668923Y-63650388D01*
X88668920Y-63650395D01*
X88651782Y-63747596D01*
X86831935Y-63747596D01*
X86851748Y-63730971D01*
X86905581Y-63637730D01*
X86919128Y-63560902D01*
X86939607Y-63528756D01*
X86976819Y-63520507D01*
X86985196Y-63522751D01*
X87004267Y-63529692D01*
X87004268Y-63529692D01*
X87111933Y-63529692D01*
X87213105Y-63492869D01*
X87256780Y-63456220D01*
X87293130Y-63444758D01*
X87320798Y-63456218D01*
X87394995Y-63518477D01*
X87496167Y-63555300D01*
X87603833Y-63555300D01*
X87705005Y-63518477D01*
X87787481Y-63449271D01*
X87841314Y-63356030D01*
X87843934Y-63341170D01*
X87860010Y-63250002D01*
X87860010Y-63249997D01*
X87841315Y-63143974D01*
X87841314Y-63143972D01*
X87841314Y-63143970D01*
X87787481Y-63050729D01*
X87719394Y-62993597D01*
X91279790Y-62993597D01*
X91279790Y-62993602D01*
X91298484Y-63099625D01*
X91298486Y-63099630D01*
X91344150Y-63178723D01*
X91352319Y-63192871D01*
X91434795Y-63262077D01*
X91535967Y-63298900D01*
X91643633Y-63298900D01*
X91744805Y-63262077D01*
X91827281Y-63192871D01*
X91881114Y-63099630D01*
X91890928Y-63043974D01*
X91899810Y-62993602D01*
X91899810Y-62993597D01*
X91881115Y-62887574D01*
X91881114Y-62887572D01*
X91881114Y-62887570D01*
X91827281Y-62794329D01*
X91744805Y-62725123D01*
X91744804Y-62725122D01*
X91643633Y-62688300D01*
X91535967Y-62688300D01*
X91434795Y-62725122D01*
X91352317Y-62794331D01*
X91298486Y-62887569D01*
X91298484Y-62887574D01*
X91279790Y-62993597D01*
X87719394Y-62993597D01*
X87706676Y-62982925D01*
X87689076Y-62949116D01*
X87695557Y-62919880D01*
X87739478Y-62843808D01*
X87753065Y-62766743D01*
X87766893Y-62740180D01*
X88283469Y-62223607D01*
X91366188Y-62223607D01*
X91366188Y-62223612D01*
X91384882Y-62329635D01*
X91384884Y-62329640D01*
X91438717Y-62422881D01*
X91521193Y-62492087D01*
X91622365Y-62528910D01*
X91730031Y-62528910D01*
X91831203Y-62492087D01*
X91913679Y-62422881D01*
X91967512Y-62329640D01*
X91986208Y-62223610D01*
X91986208Y-62223607D01*
X91967513Y-62117584D01*
X91967512Y-62117582D01*
X91967512Y-62117580D01*
X91913679Y-62024339D01*
X91831203Y-61955133D01*
X91831202Y-61955132D01*
X91730031Y-61918310D01*
X91622365Y-61918310D01*
X91521193Y-61955132D01*
X91438715Y-62024341D01*
X91384884Y-62117579D01*
X91384882Y-62117584D01*
X91366188Y-62223607D01*
X88283469Y-62223607D01*
X88285790Y-62221286D01*
X88321004Y-62206700D01*
X89636417Y-62206700D01*
X89636419Y-62206700D01*
X89711287Y-62175689D01*
X89768589Y-62118387D01*
X89768589Y-62118385D01*
X90055810Y-61831163D01*
X90091023Y-61816578D01*
X90126237Y-61831164D01*
X90134151Y-61841478D01*
X90156674Y-61880490D01*
X90156676Y-61880492D01*
X90232291Y-61943940D01*
X90325046Y-61977700D01*
X90423754Y-61977700D01*
X90516509Y-61943940D01*
X90592124Y-61880492D01*
X90641478Y-61795008D01*
X90646434Y-61766900D01*
X90658618Y-61697803D01*
X90658618Y-61697796D01*
X90641479Y-61600595D01*
X90641476Y-61600588D01*
X90592125Y-61515109D01*
X90592123Y-61515107D01*
X90513992Y-61449547D01*
X90496392Y-61415738D01*
X90497953Y-61410787D01*
X91305190Y-61410787D01*
X91305190Y-61410792D01*
X91323884Y-61516815D01*
X91323886Y-61516820D01*
X91372249Y-61600588D01*
X91377719Y-61610061D01*
X91460195Y-61679267D01*
X91561367Y-61716090D01*
X91669033Y-61716090D01*
X91770205Y-61679267D01*
X91852681Y-61610061D01*
X91906514Y-61516820D01*
X91912316Y-61483914D01*
X91925210Y-61410792D01*
X91925210Y-61410787D01*
X91906515Y-61304764D01*
X91906514Y-61304762D01*
X91906514Y-61304760D01*
X91852681Y-61211519D01*
X91770205Y-61142313D01*
X91770204Y-61142312D01*
X91669033Y-61105490D01*
X91561367Y-61105490D01*
X91460195Y-61142312D01*
X91377717Y-61211521D01*
X91323886Y-61304759D01*
X91323884Y-61304764D01*
X91305190Y-61410787D01*
X90497953Y-61410787D01*
X90507854Y-61379387D01*
X90510776Y-61376197D01*
X90897589Y-60989386D01*
X90932803Y-60974800D01*
X90994988Y-60974800D01*
X91026999Y-60986451D01*
X91044332Y-61000995D01*
X91090312Y-61039577D01*
X91191484Y-61076400D01*
X91299150Y-61076400D01*
X91400322Y-61039577D01*
X91482798Y-60970371D01*
X91536631Y-60877130D01*
X91536632Y-60877125D01*
X91547983Y-60812752D01*
X91568462Y-60780606D01*
X91597026Y-60771600D01*
X91682233Y-60771600D01*
X91783405Y-60734777D01*
X91865881Y-60665571D01*
X91919714Y-60572330D01*
X91921028Y-60564876D01*
X91938410Y-60466302D01*
X91938410Y-60466297D01*
X91919715Y-60360274D01*
X91919714Y-60360272D01*
X91919714Y-60360270D01*
X91865881Y-60267029D01*
X91783405Y-60197823D01*
X91783404Y-60197822D01*
X91682233Y-60161000D01*
X91574567Y-60161000D01*
X91473395Y-60197822D01*
X91410082Y-60250949D01*
X91378071Y-60262600D01*
X90772521Y-60262600D01*
X90772513Y-60262599D01*
X90766719Y-60262599D01*
X90685682Y-60262599D01*
X90685679Y-60262599D01*
X90641824Y-60280764D01*
X90641825Y-60280765D01*
X90610317Y-60293816D01*
X90572201Y-60293816D01*
X90548131Y-60272707D01*
X90528336Y-60238421D01*
X90445859Y-60169214D01*
X90344688Y-60132392D01*
X90237022Y-60132392D01*
X90135850Y-60169214D01*
X90053372Y-60238423D01*
X89999541Y-60331661D01*
X89999539Y-60331666D01*
X89980845Y-60437689D01*
X89980845Y-60437694D01*
X89999539Y-60543717D01*
X89999541Y-60543722D01*
X90040447Y-60614574D01*
X90053374Y-60636963D01*
X90128150Y-60699708D01*
X90145750Y-60733516D01*
X90134288Y-60769867D01*
X90131353Y-60773070D01*
X89420511Y-61483914D01*
X89385297Y-61498500D01*
X88629413Y-61498500D01*
X88597402Y-61486849D01*
X88560708Y-61456059D01*
X88467954Y-61422300D01*
X88369246Y-61422300D01*
X88276491Y-61456059D01*
X88200876Y-61519507D01*
X88200874Y-61519509D01*
X88151523Y-61604988D01*
X88151520Y-61604995D01*
X88134382Y-61702196D01*
X88134382Y-61702203D01*
X88146194Y-61769194D01*
X88137945Y-61806405D01*
X88116211Y-61823849D01*
X88100613Y-61830310D01*
X87478811Y-62452114D01*
X87443597Y-62466700D01*
X87423046Y-62466700D01*
X87330291Y-62500459D01*
X87254676Y-62563907D01*
X87254674Y-62563909D01*
X87205323Y-62649388D01*
X87205320Y-62649395D01*
X87188182Y-62746596D01*
X87188182Y-62746603D01*
X87205320Y-62843804D01*
X87205323Y-62843811D01*
X87216783Y-62863660D01*
X87221758Y-62901449D01*
X87198555Y-62931688D01*
X87160766Y-62936663D01*
X87156623Y-62935357D01*
X87111933Y-62919092D01*
X87004267Y-62919092D01*
X86903095Y-62955914D01*
X86820617Y-63025123D01*
X86766786Y-63118361D01*
X86766784Y-63118366D01*
X86753238Y-63195189D01*
X86732759Y-63227335D01*
X86695547Y-63235584D01*
X86687163Y-63233338D01*
X86668100Y-63226400D01*
X86560434Y-63226400D01*
X86459262Y-63263222D01*
X86416744Y-63298900D01*
X86391917Y-63319733D01*
X86376784Y-63332431D01*
X86322953Y-63425669D01*
X86322951Y-63425674D01*
X86304257Y-63531697D01*
X85226978Y-63531697D01*
X85822390Y-62936286D01*
X85857604Y-62921700D01*
X85878154Y-62921700D01*
X85970909Y-62887940D01*
X86046524Y-62824492D01*
X86095878Y-62739008D01*
X86097965Y-62727174D01*
X86113018Y-62641803D01*
X86113018Y-62641796D01*
X86095879Y-62544595D01*
X86095876Y-62544588D01*
X86046525Y-62459109D01*
X86046523Y-62459107D01*
X85970908Y-62395659D01*
X85878154Y-62361900D01*
X85779446Y-62361900D01*
X85686691Y-62395659D01*
X85611076Y-62459107D01*
X85611074Y-62459109D01*
X85561722Y-62544590D01*
X85561721Y-62544593D01*
X85548133Y-62621652D01*
X85534304Y-62648218D01*
X84780211Y-63402314D01*
X84744997Y-63416900D01*
X84439100Y-63416900D01*
X84403886Y-63402314D01*
X84400950Y-63399110D01*
X84398338Y-63395997D01*
X84386878Y-63359646D01*
X84393359Y-63339089D01*
X84441314Y-63256030D01*
X84442742Y-63247931D01*
X84460010Y-63150002D01*
X84460010Y-63149997D01*
X84441315Y-63043974D01*
X84441314Y-63043972D01*
X84441314Y-63043970D01*
X84387481Y-62950729D01*
X84312216Y-62887574D01*
X84305004Y-62881522D01*
X84203833Y-62844700D01*
X84096167Y-62844700D01*
X83994995Y-62881522D01*
X83971248Y-62901449D01*
X83914442Y-62949116D01*
X83912517Y-62950731D01*
X83858686Y-63043969D01*
X83858684Y-63043974D01*
X83839990Y-63149997D01*
X83839990Y-63150002D01*
X83847901Y-63194868D01*
X83839652Y-63232080D01*
X83807506Y-63252559D01*
X83781826Y-63250313D01*
X83681233Y-63213702D01*
X83573567Y-63213702D01*
X83472395Y-63250524D01*
X83389917Y-63319733D01*
X83336086Y-63412971D01*
X83336084Y-63412976D01*
X83317390Y-63518999D01*
X81411850Y-63518999D01*
X81424510Y-63447202D01*
X81424510Y-63447197D01*
X81405815Y-63341174D01*
X81405814Y-63341172D01*
X81405814Y-63341170D01*
X81351981Y-63247929D01*
X81269505Y-63178723D01*
X81269504Y-63178722D01*
X81269059Y-63178349D01*
X81251459Y-63144540D01*
X81262921Y-63108189D01*
X81269059Y-63102051D01*
X81269505Y-63101677D01*
X81351981Y-63032471D01*
X81405814Y-62939230D01*
X81414858Y-62887940D01*
X81424510Y-62833202D01*
X81424510Y-62833197D01*
X81405815Y-62727174D01*
X81405814Y-62727172D01*
X81405814Y-62727170D01*
X81351981Y-62633929D01*
X81278513Y-62572282D01*
X81269504Y-62564722D01*
X81168333Y-62527900D01*
X81060667Y-62527900D01*
X80959495Y-62564722D01*
X80877017Y-62633931D01*
X80823186Y-62727169D01*
X80823184Y-62727174D01*
X80804490Y-62833197D01*
X80270314Y-62833197D01*
X80281510Y-62769702D01*
X80281510Y-62769697D01*
X80262815Y-62663674D01*
X80262814Y-62663672D01*
X80262814Y-62663670D01*
X80208981Y-62570429D01*
X80126505Y-62501223D01*
X80126504Y-62501222D01*
X80025333Y-62464400D01*
X79917667Y-62464400D01*
X79816495Y-62501222D01*
X79749114Y-62557762D01*
X79741791Y-62563908D01*
X79731811Y-62572282D01*
X79695460Y-62583744D01*
X79661651Y-62566144D01*
X79650000Y-62534133D01*
X79650000Y-62210897D01*
X81833190Y-62210897D01*
X81833190Y-62210902D01*
X81851884Y-62316925D01*
X81851886Y-62316930D01*
X81877849Y-62361900D01*
X81905719Y-62410171D01*
X81988195Y-62479377D01*
X82089367Y-62516200D01*
X82197033Y-62516200D01*
X82298205Y-62479377D01*
X82380681Y-62410171D01*
X82434514Y-62316930D01*
X82450969Y-62223610D01*
X82453210Y-62210902D01*
X82453210Y-62210897D01*
X82434515Y-62104874D01*
X82434514Y-62104872D01*
X82434514Y-62104870D01*
X82380681Y-62011629D01*
X82298205Y-61942423D01*
X82298204Y-61942422D01*
X82197033Y-61905600D01*
X82089367Y-61905600D01*
X81988195Y-61942422D01*
X81905717Y-62011631D01*
X81851886Y-62104869D01*
X81851884Y-62104874D01*
X81833190Y-62210897D01*
X79650000Y-62210897D01*
X79650000Y-61740997D01*
X79877390Y-61740997D01*
X79877390Y-61741002D01*
X79896084Y-61847025D01*
X79896086Y-61847030D01*
X79929901Y-61905600D01*
X79949919Y-61940271D01*
X80032395Y-62009477D01*
X80133567Y-62046300D01*
X80241233Y-62046300D01*
X80342405Y-62009477D01*
X80424881Y-61940271D01*
X80478714Y-61847030D01*
X80481662Y-61830310D01*
X80497410Y-61741002D01*
X80497410Y-61740997D01*
X80478715Y-61634974D01*
X80478714Y-61634972D01*
X80478714Y-61634970D01*
X80424881Y-61541729D01*
X80352443Y-61480946D01*
X80342404Y-61472522D01*
X80241233Y-61435700D01*
X80133567Y-61435700D01*
X80032395Y-61472522D01*
X79969996Y-61524882D01*
X79951972Y-61540007D01*
X79949917Y-61541731D01*
X79896086Y-61634969D01*
X79896084Y-61634974D01*
X79877390Y-61740997D01*
X79650000Y-61740997D01*
X79650000Y-61215323D01*
X79664586Y-61180109D01*
X79699800Y-61165523D01*
X79716827Y-61168525D01*
X79790667Y-61195400D01*
X79790668Y-61195400D01*
X79898333Y-61195400D01*
X79999505Y-61158577D01*
X80081981Y-61089371D01*
X80133008Y-61000990D01*
X80820597Y-61000990D01*
X80820597Y-61000995D01*
X80839291Y-61107018D01*
X80839293Y-61107023D01*
X80890317Y-61195400D01*
X80893126Y-61200264D01*
X80975602Y-61269470D01*
X81076774Y-61306293D01*
X81184440Y-61306293D01*
X81285612Y-61269470D01*
X81368088Y-61200264D01*
X81421921Y-61107023D01*
X81424402Y-61092953D01*
X81437778Y-61017097D01*
X81756990Y-61017097D01*
X81756990Y-61017102D01*
X81775684Y-61123125D01*
X81775686Y-61123130D01*
X81826717Y-61211519D01*
X81829519Y-61216371D01*
X81884292Y-61262331D01*
X81911995Y-61285577D01*
X82017261Y-61323890D01*
X82016559Y-61325817D01*
X82042587Y-61342386D01*
X82050849Y-61379595D01*
X82050846Y-61379612D01*
X82036390Y-61461597D01*
X82036390Y-61461602D01*
X82055084Y-61567625D01*
X82055086Y-61567630D01*
X82108919Y-61660871D01*
X82191395Y-61730077D01*
X82292567Y-61766900D01*
X82400233Y-61766900D01*
X82501405Y-61730077D01*
X82583881Y-61660871D01*
X82637714Y-61567630D01*
X82641388Y-61546794D01*
X82656410Y-61461602D01*
X82656410Y-61461597D01*
X82637715Y-61355574D01*
X82637714Y-61355572D01*
X82637714Y-61355570D01*
X82583881Y-61262329D01*
X82501405Y-61193123D01*
X82501404Y-61193122D01*
X82396139Y-61154810D01*
X82396838Y-61152888D01*
X82370797Y-61136292D01*
X82362553Y-61099087D01*
X82363509Y-61093670D01*
X82377010Y-61017100D01*
X82377010Y-61017097D01*
X82358315Y-60911074D01*
X82358314Y-60911072D01*
X82358314Y-60911070D01*
X82304481Y-60817829D01*
X82222005Y-60748623D01*
X82222004Y-60748622D01*
X82120833Y-60711800D01*
X82013167Y-60711800D01*
X81911995Y-60748622D01*
X81882860Y-60773070D01*
X81835570Y-60812752D01*
X81829517Y-60817831D01*
X81775686Y-60911069D01*
X81775684Y-60911074D01*
X81756990Y-61017097D01*
X81437778Y-61017097D01*
X81440617Y-61000995D01*
X81440617Y-61000990D01*
X81421922Y-60894967D01*
X81421921Y-60894965D01*
X81421921Y-60894963D01*
X81368088Y-60801722D01*
X81285612Y-60732516D01*
X81285611Y-60732515D01*
X81184440Y-60695693D01*
X81076774Y-60695693D01*
X80975602Y-60732515D01*
X80893124Y-60801724D01*
X80839293Y-60894962D01*
X80839291Y-60894967D01*
X80820597Y-61000990D01*
X80133008Y-61000990D01*
X80135814Y-60996130D01*
X80137194Y-60988305D01*
X80154510Y-60890102D01*
X80154510Y-60890097D01*
X80135815Y-60784074D01*
X80135814Y-60784072D01*
X80135814Y-60784070D01*
X80081981Y-60690829D01*
X79999505Y-60621623D01*
X79999504Y-60621622D01*
X79898333Y-60584800D01*
X79790667Y-60584800D01*
X79716832Y-60611673D01*
X79678753Y-60610010D01*
X79653003Y-60581908D01*
X79650000Y-60564876D01*
X79650000Y-59937597D01*
X80042490Y-59937597D01*
X80042490Y-59937602D01*
X80061184Y-60043625D01*
X80061186Y-60043630D01*
X80112108Y-60131830D01*
X80115019Y-60136871D01*
X80197495Y-60206077D01*
X80298667Y-60242900D01*
X80406333Y-60242900D01*
X80507505Y-60206077D01*
X80589981Y-60136871D01*
X80643814Y-60043630D01*
X80646958Y-60025800D01*
X80662510Y-59937602D01*
X80662510Y-59937597D01*
X80643815Y-59831574D01*
X80643814Y-59831572D01*
X80643814Y-59831570D01*
X80606229Y-59766471D01*
X80601254Y-59728682D01*
X80613614Y-59709281D01*
X80612578Y-59708412D01*
X80615376Y-59705074D01*
X80615381Y-59705071D01*
X80669214Y-59611830D01*
X80674613Y-59581210D01*
X82365803Y-59581210D01*
X82365803Y-59581215D01*
X82384497Y-59687238D01*
X82384499Y-59687243D01*
X82438330Y-59780482D01*
X82438332Y-59780484D01*
X82441559Y-59783192D01*
X82459159Y-59817001D01*
X82452676Y-59846240D01*
X82414787Y-59911866D01*
X82414784Y-59911874D01*
X82396090Y-60017897D01*
X82396090Y-60017902D01*
X82414784Y-60123925D01*
X82414786Y-60123930D01*
X82422257Y-60136871D01*
X82468619Y-60217171D01*
X82551095Y-60286377D01*
X82558023Y-60288898D01*
X82586126Y-60314647D01*
X82590036Y-60344343D01*
X82574870Y-60430356D01*
X82574870Y-60430362D01*
X82593564Y-60536385D01*
X82593566Y-60536390D01*
X82642775Y-60621623D01*
X82647399Y-60629631D01*
X82729875Y-60698837D01*
X82831047Y-60735660D01*
X82938712Y-60735660D01*
X82938713Y-60735660D01*
X82944427Y-60733580D01*
X82982506Y-60735241D01*
X83008257Y-60763341D01*
X83010504Y-60771728D01*
X83020184Y-60826625D01*
X83020186Y-60826630D01*
X83068937Y-60911070D01*
X83074019Y-60919871D01*
X83156495Y-60989077D01*
X83257667Y-61025900D01*
X83365333Y-61025900D01*
X83466505Y-60989077D01*
X83548981Y-60919871D01*
X83585872Y-60855973D01*
X83616111Y-60832771D01*
X83653900Y-60837746D01*
X83672128Y-60855974D01*
X83694640Y-60894967D01*
X83709019Y-60919871D01*
X83769199Y-60970368D01*
X83773446Y-60973932D01*
X83791046Y-61007741D01*
X83779584Y-61044092D01*
X83773447Y-61050229D01*
X83744677Y-61074370D01*
X83690846Y-61167609D01*
X83690844Y-61167614D01*
X83672150Y-61273637D01*
X83672150Y-61273642D01*
X83690844Y-61379665D01*
X83690846Y-61379670D01*
X83738149Y-61461602D01*
X83744679Y-61472911D01*
X83827155Y-61542117D01*
X83928327Y-61578940D01*
X84035993Y-61578940D01*
X84137165Y-61542117D01*
X84138902Y-61540659D01*
X84140633Y-61540113D01*
X84140932Y-61539941D01*
X84140970Y-61540007D01*
X84175250Y-61529196D01*
X84209060Y-61546794D01*
X84214034Y-61553897D01*
X84217119Y-61559239D01*
X84299595Y-61628445D01*
X84400767Y-61665268D01*
X84508433Y-61665268D01*
X84609605Y-61628445D01*
X84692081Y-61559239D01*
X84745914Y-61465998D01*
X84746689Y-61461602D01*
X84764610Y-61359970D01*
X84764610Y-61359965D01*
X84745915Y-61253942D01*
X84745914Y-61253940D01*
X84745914Y-61253938D01*
X84692081Y-61160697D01*
X84611347Y-61092953D01*
X84609604Y-61091490D01*
X84508433Y-61054668D01*
X84400767Y-61054668D01*
X84299596Y-61091490D01*
X84299590Y-61091493D01*
X84297851Y-61092953D01*
X84296115Y-61093499D01*
X84295821Y-61093670D01*
X84295783Y-61093604D01*
X84261498Y-61104409D01*
X84227692Y-61086804D01*
X84222717Y-61079697D01*
X84219641Y-61074369D01*
X84155213Y-61020307D01*
X84137613Y-60986498D01*
X84149075Y-60950147D01*
X84155204Y-60944017D01*
X84183981Y-60919871D01*
X84237814Y-60826630D01*
X84245318Y-60784074D01*
X84256510Y-60720602D01*
X84256510Y-60720597D01*
X84249881Y-60683002D01*
X85354415Y-60683002D01*
X85354415Y-60683007D01*
X85373109Y-60789030D01*
X85373111Y-60789035D01*
X85394816Y-60826630D01*
X85426944Y-60882276D01*
X85509420Y-60951482D01*
X85610592Y-60988305D01*
X85718259Y-60988305D01*
X85739757Y-60980480D01*
X85777836Y-60982141D01*
X85803586Y-61010243D01*
X85806590Y-61027276D01*
X85806590Y-61029802D01*
X85825284Y-61135825D01*
X85825286Y-61135830D01*
X85871786Y-61216371D01*
X85879119Y-61229071D01*
X85961595Y-61298277D01*
X86062767Y-61335100D01*
X86170433Y-61335100D01*
X86271605Y-61298277D01*
X86354081Y-61229071D01*
X86407914Y-61135830D01*
X86408749Y-61131097D01*
X86426610Y-61029802D01*
X86426610Y-61029797D01*
X86407915Y-60923774D01*
X86407914Y-60923772D01*
X86407914Y-60923770D01*
X86354081Y-60830529D01*
X86271605Y-60761323D01*
X86271604Y-60761322D01*
X86170433Y-60724500D01*
X86062767Y-60724500D01*
X86041267Y-60732325D01*
X86003188Y-60730662D01*
X85977438Y-60702560D01*
X85974435Y-60685528D01*
X85974435Y-60683002D01*
X85955740Y-60576979D01*
X85955739Y-60576977D01*
X85955739Y-60576975D01*
X85901906Y-60483734D01*
X85819430Y-60414528D01*
X85819429Y-60414527D01*
X85718258Y-60377705D01*
X85610592Y-60377705D01*
X85509420Y-60414527D01*
X85426942Y-60483736D01*
X85373111Y-60576974D01*
X85373109Y-60576979D01*
X85354415Y-60683002D01*
X84249881Y-60683002D01*
X84237815Y-60614574D01*
X84237814Y-60614572D01*
X84237814Y-60614570D01*
X84183981Y-60521329D01*
X84101505Y-60452123D01*
X84101504Y-60452122D01*
X84000333Y-60415300D01*
X83892667Y-60415300D01*
X83791495Y-60452122D01*
X83709017Y-60521331D01*
X83672128Y-60585225D01*
X83641889Y-60608428D01*
X83604100Y-60603453D01*
X83585872Y-60585225D01*
X83548982Y-60521331D01*
X83548981Y-60521329D01*
X83466505Y-60452123D01*
X83466504Y-60452122D01*
X83365333Y-60415300D01*
X83257667Y-60415300D01*
X83257666Y-60415300D01*
X83251944Y-60417382D01*
X83213865Y-60415715D01*
X83188118Y-60387610D01*
X83185877Y-60379245D01*
X83176194Y-60324330D01*
X83122361Y-60231089D01*
X83039885Y-60161883D01*
X83032949Y-60159358D01*
X83004850Y-60133606D01*
X83000943Y-60103915D01*
X83016110Y-60017901D01*
X83016110Y-60017897D01*
X82997415Y-59911874D01*
X82997414Y-59911872D01*
X82997414Y-59911870D01*
X82943581Y-59818629D01*
X82940350Y-59815918D01*
X82922752Y-59782109D01*
X82929233Y-59752875D01*
X82967127Y-59687243D01*
X82975317Y-59640796D01*
X82985823Y-59581215D01*
X82985823Y-59581210D01*
X82967128Y-59475187D01*
X82967127Y-59475185D01*
X82967127Y-59475183D01*
X82913294Y-59381942D01*
X82830818Y-59312736D01*
X82830817Y-59312735D01*
X82729646Y-59275913D01*
X82621980Y-59275913D01*
X82520808Y-59312735D01*
X82458409Y-59365095D01*
X82442673Y-59378300D01*
X82438330Y-59381944D01*
X82384499Y-59475182D01*
X82384497Y-59475187D01*
X82365803Y-59581210D01*
X80674613Y-59581210D01*
X80675256Y-59577564D01*
X80687910Y-59505802D01*
X80687910Y-59505797D01*
X80669215Y-59399774D01*
X80669214Y-59399772D01*
X80669214Y-59399770D01*
X80632108Y-59335500D01*
X80613807Y-59303802D01*
X80608832Y-59266013D01*
X80613804Y-59254008D01*
X80656516Y-59180030D01*
X80675212Y-59074000D01*
X80675212Y-59073997D01*
X80656517Y-58967974D01*
X80656516Y-58967972D01*
X80656516Y-58967970D01*
X80602683Y-58874729D01*
X80520207Y-58805523D01*
X80520206Y-58805522D01*
X80419035Y-58768700D01*
X80311369Y-58768700D01*
X80210197Y-58805522D01*
X80127719Y-58874731D01*
X80073888Y-58967969D01*
X80073886Y-58967974D01*
X80055192Y-59073997D01*
X80055192Y-59074002D01*
X80073886Y-59180025D01*
X80073888Y-59180030D01*
X80129294Y-59275996D01*
X80134269Y-59313785D01*
X80129294Y-59325795D01*
X80086587Y-59399766D01*
X80086584Y-59399774D01*
X80067890Y-59505797D01*
X80067890Y-59505802D01*
X80086584Y-59611825D01*
X80086586Y-59611830D01*
X80124170Y-59676928D01*
X80129145Y-59714718D01*
X80116789Y-59734127D01*
X80117819Y-59734992D01*
X80115018Y-59738329D01*
X80061186Y-59831569D01*
X80061184Y-59831574D01*
X80042490Y-59937597D01*
X79650000Y-59937597D01*
X79650000Y-58299800D01*
X79664586Y-58264586D01*
X79699800Y-58250000D01*
X85950200Y-58250000D01*
X85985414Y-58264586D01*
G37*
%TD.AperFunction*%
%TD*%
M02*
