M48
; DRILL file {KiCad 8.0.7} date 2025-01-06T01:21:54-0800
; FORMAT={-:-/ absolute / metric / decimal}
; #@! TF.CreationDate,2025-01-06T01:21:54-08:00
; #@! TF.GenerationSoftware,Kicad,Pcbnew,8.0.7
; #@! TF.FileFunction,Plated,1,6,PTH
FMAT,2
METRIC
; #@! TA.AperFunction,Plated,PTH,ViaDrill
T1C0.102
; #@! TA.AperFunction,Plated,PTH,ViaDrill
T2C0.152
%
G90
G05
T1
X84.046Y-66.99
T2
X79.844Y-60.89
X79.971Y-62.77
X80.035Y-63.951
X80.187Y-61.741
X80.352Y-59.938
X80.365Y-59.074
X80.378Y-59.506
X81.051Y-68.497
X81.114Y-62.833
X81.114Y-63.447
X81.114Y-65.78
X81.127Y-62.274
X81.131Y-61.001
X81.216Y-67.685
X81.508Y-68.523
X81.572Y-61.131
X81.889Y-58.464
X82.067Y-61.017
X82.08Y-63.989
X82.09Y-63.476
X82.143Y-62.211
X82.192Y-65.254
X82.259Y-65.742
X82.346Y-61.462
X82.598Y-67.54
X82.626Y-69.276
X82.626Y-69.831
X82.676Y-59.581
X82.706Y-60.018
X82.885Y-60.43
X83.21Y-61.538
X83.311Y-60.721
X83.335Y-67.472
X83.35Y-68.358
X83.451Y-64.967
X83.556Y-64.505
X83.627Y-63.519
X83.653Y-65.682
X83.788Y-65.298
X83.792Y-67.802
X83.82Y-69.551
X83.932Y-66.034
X83.947Y-60.171
X83.947Y-60.721
X83.958Y-64.01
X83.982Y-61.274
X84.15Y-63.15
X84.161Y-63.595
X84.166Y-65.676
X84.175Y-65.002
X84.455Y-61.36
X84.466Y-66.006
X84.48Y-65.346
X85.032Y-68.81
X85.474Y-59.613
X85.546Y-64.49
X85.664Y-60.683
X85.722Y-68.836
X86.117Y-61.03
X86.126Y-69.347
X86.131Y-67.545
X86.154Y-60.123
X86.281Y-59.488
X86.447Y-64.941
X86.614Y-63.532
X86.933Y-66.503
X87.043Y-67.35
X87.058Y-63.224
X87.399Y-68.963
X87.437Y-66.084
X87.45Y-68.48
X87.55Y-63.25
X87.808Y-66.367
X87.92Y-65.805
X87.945Y-69.463
X88.022Y-68.785
X88.417Y-59.963
X88.872Y-68.81
X89.13Y-60.026
X89.308Y-69.8
X89.319Y-67.316
X90.167Y-59.641
X90.282Y-64.535
X90.291Y-60.438
X90.536Y-68.777
X90.614Y-69.513
X90.857Y-66.367
X91.145Y-68.904
X91.245Y-60.771
X91.425Y-64.645
X91.442Y-67.629
X91.59Y-62.994
X91.615Y-61.411
X91.615Y-69.707
X91.628Y-60.466
X91.676Y-59.684
X91.676Y-62.224
X91.705Y-68.32
X92.06Y-69.336
X92.123Y-65.026
M30
