G04 #@! TF.GenerationSoftware,KiCad,Pcbnew,(5.1.0)-1*
G04 #@! TF.CreationDate,2019-09-21T16:05:28-07:00*
G04 #@! TF.ProjectId,Miniscope-v4-wire-free,4d696e69-7363-46f7-9065-2d76342d7769,rev?*
G04 #@! TF.SameCoordinates,Original*
G04 #@! TF.FileFunction,Copper,L5,Inr*
G04 #@! TF.FilePolarity,Positive*
%FSLAX46Y46*%
G04 Gerber Fmt 4.6, Leading zero omitted, Abs format (unit mm)*
G04 Created by KiCad (PCBNEW (5.1.0)-1) date 2019-09-21 16:05:28*
%MOMM*%
%LPD*%
G04 APERTURE LIST*
%ADD10C,0.450000*%
%ADD11C,0.304800*%
%ADD12C,0.152400*%
G04 APERTURE END LIST*
D10*
X105267200Y-97466600D03*
X105241800Y-94926600D03*
X102676400Y-93732800D03*
X107502399Y-86874800D03*
X113039600Y-94173700D03*
X113039600Y-92539000D03*
X113903200Y-97390400D03*
X117433800Y-91142000D03*
X105394200Y-91142000D03*
X101736600Y-97441200D03*
X103463800Y-88017800D03*
X111398495Y-90948517D03*
X115681200Y-87967000D03*
X116697200Y-97339600D03*
X115630400Y-94901200D03*
X110674038Y-94173700D03*
X109102599Y-97517399D03*
X112455400Y-97492000D03*
X113293600Y-87763800D03*
X111566400Y-88221000D03*
X114614400Y-95714000D03*
X112252200Y-95739400D03*
X111439400Y-94926600D03*
X110626600Y-92539000D03*
X113065000Y-93326400D03*
X102676400Y-94952004D03*
X113776193Y-86265200D03*
X117002000Y-87941600D03*
X107731000Y-97492000D03*
X109737600Y-97492000D03*
X113827000Y-95714000D03*
X111439400Y-95714000D03*
X111439400Y-92564400D03*
X108239000Y-94926600D03*
X113039600Y-95764800D03*
X110403511Y-97492002D03*
X110652000Y-95714000D03*
X111820400Y-97492000D03*
X104784600Y-88017800D03*
X106511800Y-88246400D03*
X103844800Y-97415800D03*
X107019800Y-86265200D03*
X102701800Y-91853200D03*
X101729400Y-86620800D03*
X117408400Y-97365000D03*
X116087600Y-91065800D03*
X115579600Y-95561600D03*
X116748000Y-96653800D03*
X104911600Y-92386600D03*
X104276600Y-91751600D03*
X104479800Y-97441200D03*
X103641600Y-91777000D03*
X106765800Y-97212600D03*
X102651000Y-96095000D03*
X109051800Y-94952000D03*
X115605000Y-93047000D03*
X109026400Y-95739400D03*
X115630400Y-94291600D03*
X117002000Y-89211600D03*
X109051800Y-93326400D03*
X117002000Y-90481600D03*
X108239000Y-93326400D03*
X107172200Y-96628400D03*
X108493000Y-97492000D03*
X108271770Y-91742732D03*
X103590802Y-93428000D03*
X109153400Y-89160800D03*
X102701800Y-94317000D03*
X111159998Y-97492000D03*
X101736600Y-96857000D03*
X108260147Y-96535900D03*
X115706591Y-86265200D03*
X113429700Y-89135400D03*
X110880596Y-86265200D03*
X108213600Y-88703600D03*
X114258792Y-86874800D03*
X112226800Y-90948516D03*
X107984999Y-86265200D03*
X115079399Y-90526400D03*
X106130800Y-91167400D03*
X112328394Y-86874800D03*
X107146800Y-92005600D03*
X111363195Y-86874800D03*
X107121398Y-91370600D03*
X108467598Y-86874800D03*
X110652000Y-91728727D03*
X111439400Y-91751600D03*
X116951200Y-86316000D03*
X108950198Y-86265200D03*
X112226800Y-91751600D03*
X113852400Y-91700800D03*
X115131502Y-87907050D03*
X108264400Y-92513600D03*
X112810994Y-86265200D03*
D11*
X111664399Y-95489001D02*
X111439400Y-95714000D01*
X112049000Y-95104400D02*
X111664399Y-95489001D01*
X111439400Y-92564400D02*
X112049000Y-93174000D01*
X112049000Y-93174000D02*
X112049000Y-95104400D01*
X113602001Y-95489001D02*
X113827000Y-95714000D01*
X113242800Y-95129800D02*
X113602001Y-95489001D01*
X111439400Y-95714000D02*
X112023600Y-95129800D01*
X112023600Y-95129800D02*
X113242800Y-95129800D01*
X111214401Y-92789399D02*
X111439400Y-92564400D01*
X109737600Y-94266200D02*
X111214401Y-92789399D01*
X108239000Y-94926600D02*
X108899400Y-94266200D01*
X108899400Y-94266200D02*
X109737600Y-94266200D01*
X102701800Y-90100600D02*
X102701800Y-91853200D01*
X104784600Y-88017800D02*
X102701800Y-90100600D01*
X103526602Y-97415800D02*
X103844800Y-97415800D01*
X103133600Y-97415800D02*
X103526602Y-97415800D01*
X101939800Y-96222000D02*
X103133600Y-97415800D01*
X102701800Y-91853200D02*
X101939800Y-92615200D01*
X101939800Y-92615200D02*
X101939800Y-96222000D01*
X102294400Y-86620800D02*
X101729400Y-86620800D01*
X104784600Y-88017800D02*
X103387600Y-86620800D01*
X103387600Y-86620800D02*
X102294400Y-86620800D01*
D12*
G36*
X106887490Y-85829031D02*
G01*
X106804940Y-85863225D01*
X106730647Y-85912866D01*
X106667466Y-85976047D01*
X106617825Y-86050340D01*
X106583631Y-86132890D01*
X106566200Y-86220524D01*
X106566200Y-86309876D01*
X106583631Y-86397510D01*
X106617825Y-86480060D01*
X106667466Y-86554353D01*
X106730647Y-86617534D01*
X106804940Y-86667175D01*
X106887490Y-86701369D01*
X106975124Y-86718800D01*
X107064476Y-86718800D01*
X107077081Y-86716293D01*
X107066230Y-86742490D01*
X107048799Y-86830124D01*
X107048799Y-86919476D01*
X107066230Y-87007110D01*
X107100424Y-87089660D01*
X107150065Y-87163953D01*
X107213246Y-87227134D01*
X107287539Y-87276775D01*
X107370089Y-87310969D01*
X107457723Y-87328400D01*
X107547075Y-87328400D01*
X107634709Y-87310969D01*
X107717259Y-87276775D01*
X107791552Y-87227134D01*
X107854733Y-87163953D01*
X107904374Y-87089660D01*
X107938568Y-87007110D01*
X107955999Y-86919476D01*
X107955999Y-86830124D01*
X107938568Y-86742490D01*
X107927716Y-86716292D01*
X107940323Y-86718800D01*
X108029675Y-86718800D01*
X108042280Y-86716293D01*
X108031429Y-86742490D01*
X108013998Y-86830124D01*
X108013998Y-86919476D01*
X108031429Y-87007110D01*
X108065623Y-87089660D01*
X108115264Y-87163953D01*
X108178445Y-87227134D01*
X108252738Y-87276775D01*
X108335288Y-87310969D01*
X108422922Y-87328400D01*
X108512274Y-87328400D01*
X108599908Y-87310969D01*
X108682458Y-87276775D01*
X108756751Y-87227134D01*
X108819932Y-87163953D01*
X108869573Y-87089660D01*
X108903767Y-87007110D01*
X108921198Y-86919476D01*
X108921198Y-86830124D01*
X108903767Y-86742490D01*
X108892915Y-86716292D01*
X108905522Y-86718800D01*
X108994874Y-86718800D01*
X109082508Y-86701369D01*
X109165058Y-86667175D01*
X109239351Y-86617534D01*
X109302532Y-86554353D01*
X109352173Y-86480060D01*
X109386367Y-86397510D01*
X109403798Y-86309876D01*
X109403798Y-86220524D01*
X109386367Y-86132890D01*
X109352173Y-86050340D01*
X109302532Y-85976047D01*
X109239351Y-85912866D01*
X109165058Y-85863225D01*
X109082508Y-85829031D01*
X109068275Y-85826200D01*
X110762519Y-85826200D01*
X110748286Y-85829031D01*
X110665736Y-85863225D01*
X110591443Y-85912866D01*
X110528262Y-85976047D01*
X110478621Y-86050340D01*
X110444427Y-86132890D01*
X110426996Y-86220524D01*
X110426996Y-86309876D01*
X110444427Y-86397510D01*
X110478621Y-86480060D01*
X110528262Y-86554353D01*
X110591443Y-86617534D01*
X110665736Y-86667175D01*
X110748286Y-86701369D01*
X110835920Y-86718800D01*
X110925272Y-86718800D01*
X110937877Y-86716293D01*
X110927026Y-86742490D01*
X110909595Y-86830124D01*
X110909595Y-86919476D01*
X110927026Y-87007110D01*
X110961220Y-87089660D01*
X111010861Y-87163953D01*
X111074042Y-87227134D01*
X111148335Y-87276775D01*
X111230885Y-87310969D01*
X111318519Y-87328400D01*
X111407871Y-87328400D01*
X111495505Y-87310969D01*
X111578055Y-87276775D01*
X111652348Y-87227134D01*
X111715529Y-87163953D01*
X111765170Y-87089660D01*
X111799364Y-87007110D01*
X111816795Y-86919476D01*
X111816795Y-86830124D01*
X111799364Y-86742490D01*
X111765170Y-86659940D01*
X111715529Y-86585647D01*
X111652348Y-86522466D01*
X111578055Y-86472825D01*
X111495505Y-86438631D01*
X111407871Y-86421200D01*
X111318519Y-86421200D01*
X111305914Y-86423707D01*
X111316765Y-86397510D01*
X111334196Y-86309876D01*
X111334196Y-86220524D01*
X111316765Y-86132890D01*
X111282571Y-86050340D01*
X111232930Y-85976047D01*
X111169749Y-85912866D01*
X111095456Y-85863225D01*
X111012906Y-85829031D01*
X110998673Y-85826200D01*
X112692917Y-85826200D01*
X112678684Y-85829031D01*
X112596134Y-85863225D01*
X112521841Y-85912866D01*
X112458660Y-85976047D01*
X112409019Y-86050340D01*
X112374825Y-86132890D01*
X112357394Y-86220524D01*
X112357394Y-86309876D01*
X112374825Y-86397510D01*
X112385677Y-86423708D01*
X112373070Y-86421200D01*
X112283718Y-86421200D01*
X112196084Y-86438631D01*
X112113534Y-86472825D01*
X112039241Y-86522466D01*
X111976060Y-86585647D01*
X111926419Y-86659940D01*
X111892225Y-86742490D01*
X111874794Y-86830124D01*
X111874794Y-86919476D01*
X111892225Y-87007110D01*
X111926419Y-87089660D01*
X111976060Y-87163953D01*
X112039241Y-87227134D01*
X112113534Y-87276775D01*
X112196084Y-87310969D01*
X112283718Y-87328400D01*
X112373070Y-87328400D01*
X112460704Y-87310969D01*
X112543254Y-87276775D01*
X112617547Y-87227134D01*
X112680728Y-87163953D01*
X112730369Y-87089660D01*
X112764563Y-87007110D01*
X112781994Y-86919476D01*
X112781994Y-86830124D01*
X113805192Y-86830124D01*
X113805192Y-86919476D01*
X113822623Y-87007110D01*
X113856817Y-87089660D01*
X113906458Y-87163953D01*
X113969639Y-87227134D01*
X114043932Y-87276775D01*
X114126482Y-87310969D01*
X114214116Y-87328400D01*
X114303468Y-87328400D01*
X114391102Y-87310969D01*
X114473652Y-87276775D01*
X114547945Y-87227134D01*
X114611126Y-87163953D01*
X114660767Y-87089660D01*
X114694961Y-87007110D01*
X114712392Y-86919476D01*
X114712392Y-86830124D01*
X114694961Y-86742490D01*
X114660767Y-86659940D01*
X114611126Y-86585647D01*
X114547945Y-86522466D01*
X114473652Y-86472825D01*
X114391102Y-86438631D01*
X114303468Y-86421200D01*
X114214116Y-86421200D01*
X114126482Y-86438631D01*
X114043932Y-86472825D01*
X113969639Y-86522466D01*
X113906458Y-86585647D01*
X113856817Y-86659940D01*
X113822623Y-86742490D01*
X113805192Y-86830124D01*
X112781994Y-86830124D01*
X112764563Y-86742490D01*
X112753711Y-86716292D01*
X112766318Y-86718800D01*
X112855670Y-86718800D01*
X112943304Y-86701369D01*
X113025854Y-86667175D01*
X113100147Y-86617534D01*
X113163328Y-86554353D01*
X113212969Y-86480060D01*
X113247163Y-86397510D01*
X113264594Y-86309876D01*
X113264594Y-86220524D01*
X113247163Y-86132890D01*
X113212969Y-86050340D01*
X113163328Y-85976047D01*
X113100147Y-85912866D01*
X113025854Y-85863225D01*
X112943304Y-85829031D01*
X112929071Y-85826200D01*
X115588514Y-85826200D01*
X115574281Y-85829031D01*
X115491731Y-85863225D01*
X115417438Y-85912866D01*
X115354257Y-85976047D01*
X115304616Y-86050340D01*
X115270422Y-86132890D01*
X115252991Y-86220524D01*
X115252991Y-86309876D01*
X115270422Y-86397510D01*
X115304616Y-86480060D01*
X115354257Y-86554353D01*
X115417438Y-86617534D01*
X115491731Y-86667175D01*
X115574281Y-86701369D01*
X115661915Y-86718800D01*
X115751267Y-86718800D01*
X115838901Y-86701369D01*
X115921451Y-86667175D01*
X115995744Y-86617534D01*
X116058925Y-86554353D01*
X116108566Y-86480060D01*
X116142760Y-86397510D01*
X116160191Y-86309876D01*
X116160191Y-86271324D01*
X116497600Y-86271324D01*
X116497600Y-86360676D01*
X116515031Y-86448310D01*
X116549225Y-86530860D01*
X116598866Y-86605153D01*
X116662047Y-86668334D01*
X116736340Y-86717975D01*
X116818890Y-86752169D01*
X116906524Y-86769600D01*
X116995876Y-86769600D01*
X117083510Y-86752169D01*
X117166060Y-86717975D01*
X117240353Y-86668334D01*
X117303534Y-86605153D01*
X117353175Y-86530860D01*
X117387369Y-86448310D01*
X117404800Y-86360676D01*
X117404800Y-86271324D01*
X117387369Y-86183690D01*
X117353175Y-86101140D01*
X117303534Y-86026847D01*
X117240353Y-85963666D01*
X117166060Y-85914025D01*
X117083510Y-85879831D01*
X116995876Y-85862400D01*
X116906524Y-85862400D01*
X116818890Y-85879831D01*
X116736340Y-85914025D01*
X116662047Y-85963666D01*
X116598866Y-86026847D01*
X116549225Y-86101140D01*
X116515031Y-86183690D01*
X116497600Y-86271324D01*
X116160191Y-86271324D01*
X116160191Y-86220524D01*
X116142760Y-86132890D01*
X116108566Y-86050340D01*
X116058925Y-85976047D01*
X115995744Y-85912866D01*
X115921451Y-85863225D01*
X115838901Y-85829031D01*
X115824668Y-85826200D01*
X117673800Y-85826200D01*
X117673800Y-90756823D01*
X117648660Y-90740025D01*
X117566110Y-90705831D01*
X117478476Y-90688400D01*
X117407314Y-90688400D01*
X117438169Y-90613910D01*
X117455600Y-90526276D01*
X117455600Y-90436924D01*
X117438169Y-90349290D01*
X117403975Y-90266740D01*
X117354334Y-90192447D01*
X117291153Y-90129266D01*
X117216860Y-90079625D01*
X117134310Y-90045431D01*
X117046676Y-90028000D01*
X116957324Y-90028000D01*
X116869690Y-90045431D01*
X116787140Y-90079625D01*
X116712847Y-90129266D01*
X116649666Y-90192447D01*
X116600025Y-90266740D01*
X116565831Y-90349290D01*
X116548400Y-90436924D01*
X116548400Y-90526276D01*
X116565831Y-90613910D01*
X116600025Y-90696460D01*
X116649666Y-90770753D01*
X116712847Y-90833934D01*
X116787140Y-90883575D01*
X116869690Y-90917769D01*
X116957324Y-90935200D01*
X117028486Y-90935200D01*
X116997631Y-91009690D01*
X116980200Y-91097324D01*
X116980200Y-91186676D01*
X116997631Y-91274310D01*
X117031825Y-91356860D01*
X117081466Y-91431153D01*
X117144647Y-91494334D01*
X117218940Y-91543975D01*
X117301490Y-91578169D01*
X117389124Y-91595600D01*
X117478476Y-91595600D01*
X117566110Y-91578169D01*
X117648660Y-91543975D01*
X117673800Y-91527177D01*
X117673800Y-96996795D01*
X117623260Y-96963025D01*
X117540710Y-96928831D01*
X117453076Y-96911400D01*
X117363724Y-96911400D01*
X117276090Y-96928831D01*
X117193540Y-96963025D01*
X117119247Y-97012666D01*
X117062324Y-97069589D01*
X117049534Y-97050447D01*
X117018011Y-97018924D01*
X117037153Y-97006134D01*
X117100334Y-96942953D01*
X117149975Y-96868660D01*
X117184169Y-96786110D01*
X117201600Y-96698476D01*
X117201600Y-96609124D01*
X117184169Y-96521490D01*
X117149975Y-96438940D01*
X117100334Y-96364647D01*
X117037153Y-96301466D01*
X116962860Y-96251825D01*
X116880310Y-96217631D01*
X116792676Y-96200200D01*
X116703324Y-96200200D01*
X116615690Y-96217631D01*
X116533140Y-96251825D01*
X116458847Y-96301466D01*
X116395666Y-96364647D01*
X116346025Y-96438940D01*
X116311831Y-96521490D01*
X116294400Y-96609124D01*
X116294400Y-96698476D01*
X116311831Y-96786110D01*
X116346025Y-96868660D01*
X116395666Y-96942953D01*
X116427189Y-96974476D01*
X116408047Y-96987266D01*
X116344866Y-97050447D01*
X116295225Y-97124740D01*
X116261031Y-97207290D01*
X116243600Y-97294924D01*
X116243600Y-97384276D01*
X116261031Y-97471910D01*
X116295225Y-97554460D01*
X116344866Y-97628753D01*
X116389913Y-97673800D01*
X114259378Y-97673800D01*
X114305175Y-97605260D01*
X114339369Y-97522710D01*
X114356800Y-97435076D01*
X114356800Y-97345724D01*
X114339369Y-97258090D01*
X114305175Y-97175540D01*
X114255534Y-97101247D01*
X114192353Y-97038066D01*
X114118060Y-96988425D01*
X114035510Y-96954231D01*
X113947876Y-96936800D01*
X113858524Y-96936800D01*
X113770890Y-96954231D01*
X113688340Y-96988425D01*
X113614047Y-97038066D01*
X113550866Y-97101247D01*
X113501225Y-97175540D01*
X113467031Y-97258090D01*
X113449600Y-97345724D01*
X113449600Y-97435076D01*
X113467031Y-97522710D01*
X113501225Y-97605260D01*
X113547022Y-97673800D01*
X112871069Y-97673800D01*
X112891569Y-97624310D01*
X112909000Y-97536676D01*
X112909000Y-97447324D01*
X112891569Y-97359690D01*
X112857375Y-97277140D01*
X112807734Y-97202847D01*
X112744553Y-97139666D01*
X112670260Y-97090025D01*
X112587710Y-97055831D01*
X112500076Y-97038400D01*
X112410724Y-97038400D01*
X112323090Y-97055831D01*
X112240540Y-97090025D01*
X112166247Y-97139666D01*
X112137900Y-97168013D01*
X112109553Y-97139666D01*
X112035260Y-97090025D01*
X111952710Y-97055831D01*
X111865076Y-97038400D01*
X111775724Y-97038400D01*
X111688090Y-97055831D01*
X111605540Y-97090025D01*
X111531247Y-97139666D01*
X111490199Y-97180714D01*
X111449151Y-97139666D01*
X111374858Y-97090025D01*
X111292308Y-97055831D01*
X111204674Y-97038400D01*
X111115322Y-97038400D01*
X111027688Y-97055831D01*
X110945138Y-97090025D01*
X110870845Y-97139666D01*
X110807664Y-97202847D01*
X110781754Y-97241624D01*
X110755845Y-97202849D01*
X110692664Y-97139668D01*
X110618371Y-97090027D01*
X110535821Y-97055833D01*
X110448187Y-97038402D01*
X110358835Y-97038402D01*
X110271201Y-97055833D01*
X110188651Y-97090027D01*
X110114358Y-97139668D01*
X110051177Y-97202849D01*
X110001536Y-97277142D01*
X109967342Y-97359692D01*
X109949911Y-97447326D01*
X109949911Y-97536678D01*
X109967342Y-97624312D01*
X109987841Y-97673800D01*
X109528789Y-97673800D01*
X109538768Y-97649709D01*
X109556199Y-97562075D01*
X109556199Y-97472723D01*
X109538768Y-97385089D01*
X109504574Y-97302539D01*
X109454933Y-97228246D01*
X109391752Y-97165065D01*
X109317459Y-97115424D01*
X109234909Y-97081230D01*
X109147275Y-97063799D01*
X109057923Y-97063799D01*
X108970289Y-97081230D01*
X108887739Y-97115424D01*
X108813446Y-97165065D01*
X108810499Y-97168012D01*
X108782153Y-97139666D01*
X108707860Y-97090025D01*
X108625310Y-97055831D01*
X108537676Y-97038400D01*
X108448324Y-97038400D01*
X108360690Y-97055831D01*
X108278140Y-97090025D01*
X108203847Y-97139666D01*
X108140666Y-97202847D01*
X108091025Y-97277140D01*
X108056831Y-97359690D01*
X108039400Y-97447324D01*
X108039400Y-97536676D01*
X108056831Y-97624310D01*
X108077331Y-97673800D01*
X105672348Y-97673800D01*
X105703369Y-97598910D01*
X105720800Y-97511276D01*
X105720800Y-97421924D01*
X105703369Y-97334290D01*
X105669175Y-97251740D01*
X105619534Y-97177447D01*
X105610011Y-97167924D01*
X106312200Y-97167924D01*
X106312200Y-97257276D01*
X106329631Y-97344910D01*
X106363825Y-97427460D01*
X106413466Y-97501753D01*
X106476647Y-97564934D01*
X106550940Y-97614575D01*
X106633490Y-97648769D01*
X106721124Y-97666200D01*
X106810476Y-97666200D01*
X106898110Y-97648769D01*
X106980660Y-97614575D01*
X107054953Y-97564934D01*
X107118134Y-97501753D01*
X107167775Y-97427460D01*
X107201969Y-97344910D01*
X107219400Y-97257276D01*
X107219400Y-97167924D01*
X107202309Y-97082000D01*
X107216876Y-97082000D01*
X107304510Y-97064569D01*
X107387060Y-97030375D01*
X107461353Y-96980734D01*
X107524534Y-96917553D01*
X107574175Y-96843260D01*
X107608369Y-96760710D01*
X107625800Y-96673076D01*
X107625800Y-96583724D01*
X107608369Y-96496090D01*
X107606354Y-96491224D01*
X107806547Y-96491224D01*
X107806547Y-96580576D01*
X107823978Y-96668210D01*
X107858172Y-96750760D01*
X107907813Y-96825053D01*
X107970994Y-96888234D01*
X108045287Y-96937875D01*
X108127837Y-96972069D01*
X108215471Y-96989500D01*
X108304823Y-96989500D01*
X108392457Y-96972069D01*
X108475007Y-96937875D01*
X108549300Y-96888234D01*
X108612481Y-96825053D01*
X108662122Y-96750760D01*
X108696316Y-96668210D01*
X108713747Y-96580576D01*
X108713747Y-96491224D01*
X108696316Y-96403590D01*
X108662122Y-96321040D01*
X108612481Y-96246747D01*
X108549300Y-96183566D01*
X108475007Y-96133925D01*
X108392457Y-96099731D01*
X108304823Y-96082300D01*
X108215471Y-96082300D01*
X108127837Y-96099731D01*
X108045287Y-96133925D01*
X107970994Y-96183566D01*
X107907813Y-96246747D01*
X107858172Y-96321040D01*
X107823978Y-96403590D01*
X107806547Y-96491224D01*
X107606354Y-96491224D01*
X107574175Y-96413540D01*
X107524534Y-96339247D01*
X107461353Y-96276066D01*
X107387060Y-96226425D01*
X107304510Y-96192231D01*
X107216876Y-96174800D01*
X107127524Y-96174800D01*
X107039890Y-96192231D01*
X106957340Y-96226425D01*
X106883047Y-96276066D01*
X106819866Y-96339247D01*
X106770225Y-96413540D01*
X106736031Y-96496090D01*
X106718600Y-96583724D01*
X106718600Y-96673076D01*
X106735691Y-96759000D01*
X106721124Y-96759000D01*
X106633490Y-96776431D01*
X106550940Y-96810625D01*
X106476647Y-96860266D01*
X106413466Y-96923447D01*
X106363825Y-96997740D01*
X106329631Y-97080290D01*
X106312200Y-97167924D01*
X105610011Y-97167924D01*
X105556353Y-97114266D01*
X105482060Y-97064625D01*
X105399510Y-97030431D01*
X105311876Y-97013000D01*
X105222524Y-97013000D01*
X105134890Y-97030431D01*
X105052340Y-97064625D01*
X104978047Y-97114266D01*
X104914866Y-97177447D01*
X104881936Y-97226730D01*
X104881775Y-97226340D01*
X104832134Y-97152047D01*
X104768953Y-97088866D01*
X104694660Y-97039225D01*
X104612110Y-97005031D01*
X104524476Y-96987600D01*
X104435124Y-96987600D01*
X104347490Y-97005031D01*
X104264940Y-97039225D01*
X104190647Y-97088866D01*
X104175000Y-97104513D01*
X104133953Y-97063466D01*
X104059660Y-97013825D01*
X103977110Y-96979631D01*
X103889476Y-96962200D01*
X103800124Y-96962200D01*
X103712490Y-96979631D01*
X103629940Y-97013825D01*
X103598549Y-97034800D01*
X103291415Y-97034800D01*
X102786473Y-96529859D01*
X102865860Y-96496975D01*
X102940153Y-96447334D01*
X103003334Y-96384153D01*
X103052975Y-96309860D01*
X103087169Y-96227310D01*
X103104600Y-96139676D01*
X103104600Y-96050324D01*
X103087169Y-95962690D01*
X103052975Y-95880140D01*
X103003334Y-95805847D01*
X102940153Y-95742666D01*
X102865860Y-95693025D01*
X102783310Y-95658831D01*
X102695676Y-95641400D01*
X102606324Y-95641400D01*
X102518690Y-95658831D01*
X102436140Y-95693025D01*
X102361847Y-95742666D01*
X102320800Y-95783713D01*
X102320800Y-94881924D01*
X104788200Y-94881924D01*
X104788200Y-94971276D01*
X104805631Y-95058910D01*
X104839825Y-95141460D01*
X104889466Y-95215753D01*
X104952647Y-95278934D01*
X105026940Y-95328575D01*
X105109490Y-95362769D01*
X105197124Y-95380200D01*
X105286476Y-95380200D01*
X105374110Y-95362769D01*
X105456660Y-95328575D01*
X105530953Y-95278934D01*
X105594134Y-95215753D01*
X105643775Y-95141460D01*
X105677969Y-95058910D01*
X105695400Y-94971276D01*
X105695400Y-94881924D01*
X107785400Y-94881924D01*
X107785400Y-94971276D01*
X107802831Y-95058910D01*
X107837025Y-95141460D01*
X107886666Y-95215753D01*
X107949847Y-95278934D01*
X108024140Y-95328575D01*
X108106690Y-95362769D01*
X108194324Y-95380200D01*
X108283676Y-95380200D01*
X108371310Y-95362769D01*
X108453860Y-95328575D01*
X108528153Y-95278934D01*
X108591334Y-95215753D01*
X108639943Y-95143004D01*
X108649825Y-95166860D01*
X108699466Y-95241153D01*
X108762647Y-95304334D01*
X108811930Y-95337264D01*
X108811540Y-95337425D01*
X108737247Y-95387066D01*
X108674066Y-95450247D01*
X108624425Y-95524540D01*
X108590231Y-95607090D01*
X108572800Y-95694724D01*
X108572800Y-95784076D01*
X108590231Y-95871710D01*
X108624425Y-95954260D01*
X108674066Y-96028553D01*
X108737247Y-96091734D01*
X108811540Y-96141375D01*
X108894090Y-96175569D01*
X108981724Y-96193000D01*
X109071076Y-96193000D01*
X109158710Y-96175569D01*
X109241260Y-96141375D01*
X109315553Y-96091734D01*
X109378734Y-96028553D01*
X109428375Y-95954260D01*
X109462569Y-95871710D01*
X109480000Y-95784076D01*
X109480000Y-95694724D01*
X109462569Y-95607090D01*
X109428375Y-95524540D01*
X109378734Y-95450247D01*
X109315553Y-95387066D01*
X109266270Y-95354136D01*
X109266660Y-95353975D01*
X109340953Y-95304334D01*
X109404134Y-95241153D01*
X109453775Y-95166860D01*
X109487969Y-95084310D01*
X109505400Y-94996676D01*
X109505400Y-94907324D01*
X109487969Y-94819690D01*
X109453775Y-94737140D01*
X109404134Y-94662847D01*
X109388487Y-94647200D01*
X109718890Y-94647200D01*
X109737600Y-94649043D01*
X109756310Y-94647200D01*
X109756313Y-94647200D01*
X109812289Y-94641687D01*
X109884108Y-94619901D01*
X109950296Y-94584522D01*
X110008311Y-94536911D01*
X110020246Y-94522368D01*
X110237659Y-94304955D01*
X110237869Y-94306010D01*
X110272063Y-94388560D01*
X110321704Y-94462853D01*
X110384885Y-94526034D01*
X110459178Y-94575675D01*
X110541728Y-94609869D01*
X110629362Y-94627300D01*
X110718714Y-94627300D01*
X110806348Y-94609869D01*
X110888898Y-94575675D01*
X110963191Y-94526034D01*
X111026372Y-94462853D01*
X111076013Y-94388560D01*
X111110207Y-94306010D01*
X111127638Y-94218376D01*
X111127638Y-94129024D01*
X111110207Y-94041390D01*
X111076013Y-93958840D01*
X111026372Y-93884547D01*
X110963191Y-93821366D01*
X110888898Y-93771725D01*
X110806348Y-93737531D01*
X110805293Y-93737321D01*
X111439400Y-93103215D01*
X111668000Y-93331816D01*
X111668001Y-94946583D01*
X111408225Y-95206360D01*
X111408224Y-95206361D01*
X111344120Y-95270466D01*
X111307090Y-95277831D01*
X111224540Y-95312025D01*
X111150247Y-95361666D01*
X111087066Y-95424847D01*
X111045700Y-95486756D01*
X111004334Y-95424847D01*
X110941153Y-95361666D01*
X110866860Y-95312025D01*
X110784310Y-95277831D01*
X110696676Y-95260400D01*
X110607324Y-95260400D01*
X110519690Y-95277831D01*
X110437140Y-95312025D01*
X110362847Y-95361666D01*
X110299666Y-95424847D01*
X110250025Y-95499140D01*
X110215831Y-95581690D01*
X110198400Y-95669324D01*
X110198400Y-95758676D01*
X110215831Y-95846310D01*
X110250025Y-95928860D01*
X110299666Y-96003153D01*
X110362847Y-96066334D01*
X110437140Y-96115975D01*
X110519690Y-96150169D01*
X110607324Y-96167600D01*
X110696676Y-96167600D01*
X110784310Y-96150169D01*
X110866860Y-96115975D01*
X110941153Y-96066334D01*
X111004334Y-96003153D01*
X111045700Y-95941244D01*
X111087066Y-96003153D01*
X111150247Y-96066334D01*
X111224540Y-96115975D01*
X111307090Y-96150169D01*
X111394724Y-96167600D01*
X111484076Y-96167600D01*
X111571710Y-96150169D01*
X111654260Y-96115975D01*
X111728553Y-96066334D01*
X111791734Y-96003153D01*
X111841375Y-95928860D01*
X111875569Y-95846310D01*
X111882934Y-95809280D01*
X111947039Y-95745176D01*
X111947040Y-95745175D01*
X112181416Y-95510800D01*
X112663778Y-95510800D01*
X112637625Y-95549940D01*
X112603431Y-95632490D01*
X112586000Y-95720124D01*
X112586000Y-95809476D01*
X112603431Y-95897110D01*
X112637625Y-95979660D01*
X112687266Y-96053953D01*
X112750447Y-96117134D01*
X112824740Y-96166775D01*
X112907290Y-96200969D01*
X112994924Y-96218400D01*
X113084276Y-96218400D01*
X113171910Y-96200969D01*
X113254460Y-96166775D01*
X113328753Y-96117134D01*
X113391934Y-96053953D01*
X113441575Y-95979660D01*
X113448231Y-95963591D01*
X113474666Y-96003153D01*
X113537847Y-96066334D01*
X113612140Y-96115975D01*
X113694690Y-96150169D01*
X113782324Y-96167600D01*
X113871676Y-96167600D01*
X113959310Y-96150169D01*
X114041860Y-96115975D01*
X114116153Y-96066334D01*
X114179334Y-96003153D01*
X114228975Y-95928860D01*
X114263169Y-95846310D01*
X114280600Y-95758676D01*
X114280600Y-95669324D01*
X114263169Y-95581690D01*
X114236342Y-95516924D01*
X115126000Y-95516924D01*
X115126000Y-95606276D01*
X115143431Y-95693910D01*
X115177625Y-95776460D01*
X115227266Y-95850753D01*
X115290447Y-95913934D01*
X115364740Y-95963575D01*
X115447290Y-95997769D01*
X115534924Y-96015200D01*
X115624276Y-96015200D01*
X115711910Y-95997769D01*
X115794460Y-95963575D01*
X115868753Y-95913934D01*
X115931934Y-95850753D01*
X115981575Y-95776460D01*
X116015769Y-95693910D01*
X116033200Y-95606276D01*
X116033200Y-95516924D01*
X116015769Y-95429290D01*
X115981575Y-95346740D01*
X115931934Y-95272447D01*
X115915637Y-95256150D01*
X115919553Y-95253534D01*
X115982734Y-95190353D01*
X116032375Y-95116060D01*
X116066569Y-95033510D01*
X116084000Y-94945876D01*
X116084000Y-94856524D01*
X116066569Y-94768890D01*
X116032375Y-94686340D01*
X115982734Y-94612047D01*
X115967087Y-94596400D01*
X115982734Y-94580753D01*
X116032375Y-94506460D01*
X116066569Y-94423910D01*
X116084000Y-94336276D01*
X116084000Y-94246924D01*
X116066569Y-94159290D01*
X116032375Y-94076740D01*
X115982734Y-94002447D01*
X115919553Y-93939266D01*
X115845260Y-93889625D01*
X115762710Y-93855431D01*
X115675076Y-93838000D01*
X115585724Y-93838000D01*
X115498090Y-93855431D01*
X115415540Y-93889625D01*
X115341247Y-93939266D01*
X115278066Y-94002447D01*
X115228425Y-94076740D01*
X115194231Y-94159290D01*
X115176800Y-94246924D01*
X115176800Y-94336276D01*
X115194231Y-94423910D01*
X115228425Y-94506460D01*
X115278066Y-94580753D01*
X115293713Y-94596400D01*
X115278066Y-94612047D01*
X115228425Y-94686340D01*
X115194231Y-94768890D01*
X115176800Y-94856524D01*
X115176800Y-94945876D01*
X115194231Y-95033510D01*
X115228425Y-95116060D01*
X115278066Y-95190353D01*
X115294363Y-95206650D01*
X115290447Y-95209266D01*
X115227266Y-95272447D01*
X115177625Y-95346740D01*
X115143431Y-95429290D01*
X115126000Y-95516924D01*
X114236342Y-95516924D01*
X114228975Y-95499140D01*
X114179334Y-95424847D01*
X114116153Y-95361666D01*
X114041860Y-95312025D01*
X113959310Y-95277831D01*
X113922280Y-95270465D01*
X113884644Y-95232830D01*
X113884640Y-95232825D01*
X113525445Y-94873631D01*
X113513511Y-94859089D01*
X113455496Y-94811478D01*
X113389308Y-94776099D01*
X113317489Y-94754313D01*
X113261513Y-94748800D01*
X113261510Y-94748800D01*
X113242800Y-94746957D01*
X113224090Y-94748800D01*
X112430000Y-94748800D01*
X112430000Y-94129024D01*
X112586000Y-94129024D01*
X112586000Y-94218376D01*
X112603431Y-94306010D01*
X112637625Y-94388560D01*
X112687266Y-94462853D01*
X112750447Y-94526034D01*
X112824740Y-94575675D01*
X112907290Y-94609869D01*
X112994924Y-94627300D01*
X113084276Y-94627300D01*
X113171910Y-94609869D01*
X113254460Y-94575675D01*
X113328753Y-94526034D01*
X113391934Y-94462853D01*
X113441575Y-94388560D01*
X113475769Y-94306010D01*
X113493200Y-94218376D01*
X113493200Y-94129024D01*
X113475769Y-94041390D01*
X113441575Y-93958840D01*
X113391934Y-93884547D01*
X113328753Y-93821366D01*
X113254460Y-93771725D01*
X113171910Y-93737531D01*
X113084276Y-93720100D01*
X112994924Y-93720100D01*
X112907290Y-93737531D01*
X112824740Y-93771725D01*
X112750447Y-93821366D01*
X112687266Y-93884547D01*
X112637625Y-93958840D01*
X112603431Y-94041390D01*
X112586000Y-94129024D01*
X112430000Y-94129024D01*
X112430000Y-93192710D01*
X112431843Y-93174000D01*
X112430000Y-93155287D01*
X112424487Y-93099311D01*
X112402701Y-93027492D01*
X112389249Y-93002324D01*
X115151400Y-93002324D01*
X115151400Y-93091676D01*
X115168831Y-93179310D01*
X115203025Y-93261860D01*
X115252666Y-93336153D01*
X115315847Y-93399334D01*
X115390140Y-93448975D01*
X115472690Y-93483169D01*
X115560324Y-93500600D01*
X115649676Y-93500600D01*
X115737310Y-93483169D01*
X115819860Y-93448975D01*
X115894153Y-93399334D01*
X115957334Y-93336153D01*
X116006975Y-93261860D01*
X116041169Y-93179310D01*
X116058600Y-93091676D01*
X116058600Y-93002324D01*
X116041169Y-92914690D01*
X116006975Y-92832140D01*
X115957334Y-92757847D01*
X115894153Y-92694666D01*
X115819860Y-92645025D01*
X115737310Y-92610831D01*
X115649676Y-92593400D01*
X115560324Y-92593400D01*
X115472690Y-92610831D01*
X115390140Y-92645025D01*
X115315847Y-92694666D01*
X115252666Y-92757847D01*
X115203025Y-92832140D01*
X115168831Y-92914690D01*
X115151400Y-93002324D01*
X112389249Y-93002324D01*
X112386960Y-92998043D01*
X112367322Y-92961303D01*
X112331640Y-92917824D01*
X112331637Y-92917821D01*
X112319711Y-92903289D01*
X112305180Y-92891364D01*
X111908140Y-92494324D01*
X112586000Y-92494324D01*
X112586000Y-92583676D01*
X112603431Y-92671310D01*
X112637625Y-92753860D01*
X112687266Y-92828153D01*
X112750447Y-92891334D01*
X112824740Y-92940975D01*
X112907290Y-92975169D01*
X112994924Y-92992600D01*
X113084276Y-92992600D01*
X113171910Y-92975169D01*
X113254460Y-92940975D01*
X113328753Y-92891334D01*
X113391934Y-92828153D01*
X113441575Y-92753860D01*
X113475769Y-92671310D01*
X113493200Y-92583676D01*
X113493200Y-92494324D01*
X113475769Y-92406690D01*
X113441575Y-92324140D01*
X113391934Y-92249847D01*
X113328753Y-92186666D01*
X113254460Y-92137025D01*
X113171910Y-92102831D01*
X113084276Y-92085400D01*
X112994924Y-92085400D01*
X112907290Y-92102831D01*
X112824740Y-92137025D01*
X112750447Y-92186666D01*
X112687266Y-92249847D01*
X112637625Y-92324140D01*
X112603431Y-92406690D01*
X112586000Y-92494324D01*
X111908140Y-92494324D01*
X111882935Y-92469120D01*
X111875569Y-92432090D01*
X111841375Y-92349540D01*
X111791734Y-92275247D01*
X111728553Y-92212066D01*
X111654260Y-92162425D01*
X111643577Y-92158000D01*
X111654260Y-92153575D01*
X111728553Y-92103934D01*
X111791734Y-92040753D01*
X111833100Y-91978844D01*
X111874466Y-92040753D01*
X111937647Y-92103934D01*
X112011940Y-92153575D01*
X112094490Y-92187769D01*
X112182124Y-92205200D01*
X112271476Y-92205200D01*
X112359110Y-92187769D01*
X112441660Y-92153575D01*
X112515953Y-92103934D01*
X112579134Y-92040753D01*
X112628775Y-91966460D01*
X112662969Y-91883910D01*
X112680400Y-91796276D01*
X112680400Y-91706924D01*
X112670296Y-91656124D01*
X113398800Y-91656124D01*
X113398800Y-91745476D01*
X113416231Y-91833110D01*
X113450425Y-91915660D01*
X113500066Y-91989953D01*
X113563247Y-92053134D01*
X113637540Y-92102775D01*
X113720090Y-92136969D01*
X113807724Y-92154400D01*
X113897076Y-92154400D01*
X113984710Y-92136969D01*
X114067260Y-92102775D01*
X114141553Y-92053134D01*
X114204734Y-91989953D01*
X114254375Y-91915660D01*
X114288569Y-91833110D01*
X114306000Y-91745476D01*
X114306000Y-91656124D01*
X114288569Y-91568490D01*
X114254375Y-91485940D01*
X114204734Y-91411647D01*
X114141553Y-91348466D01*
X114067260Y-91298825D01*
X113984710Y-91264631D01*
X113897076Y-91247200D01*
X113807724Y-91247200D01*
X113720090Y-91264631D01*
X113637540Y-91298825D01*
X113563247Y-91348466D01*
X113500066Y-91411647D01*
X113450425Y-91485940D01*
X113416231Y-91568490D01*
X113398800Y-91656124D01*
X112670296Y-91656124D01*
X112662969Y-91619290D01*
X112628775Y-91536740D01*
X112579134Y-91462447D01*
X112515953Y-91399266D01*
X112442308Y-91350058D01*
X112515953Y-91300850D01*
X112579134Y-91237669D01*
X112628775Y-91163376D01*
X112662969Y-91080826D01*
X112674844Y-91021124D01*
X115634000Y-91021124D01*
X115634000Y-91110476D01*
X115651431Y-91198110D01*
X115685625Y-91280660D01*
X115735266Y-91354953D01*
X115798447Y-91418134D01*
X115872740Y-91467775D01*
X115955290Y-91501969D01*
X116042924Y-91519400D01*
X116132276Y-91519400D01*
X116219910Y-91501969D01*
X116302460Y-91467775D01*
X116376753Y-91418134D01*
X116439934Y-91354953D01*
X116489575Y-91280660D01*
X116523769Y-91198110D01*
X116541200Y-91110476D01*
X116541200Y-91021124D01*
X116523769Y-90933490D01*
X116489575Y-90850940D01*
X116439934Y-90776647D01*
X116376753Y-90713466D01*
X116302460Y-90663825D01*
X116219910Y-90629631D01*
X116132276Y-90612200D01*
X116042924Y-90612200D01*
X115955290Y-90629631D01*
X115872740Y-90663825D01*
X115798447Y-90713466D01*
X115735266Y-90776647D01*
X115685625Y-90850940D01*
X115651431Y-90933490D01*
X115634000Y-91021124D01*
X112674844Y-91021124D01*
X112680400Y-90993192D01*
X112680400Y-90903840D01*
X112662969Y-90816206D01*
X112628775Y-90733656D01*
X112579134Y-90659363D01*
X112515953Y-90596182D01*
X112441660Y-90546541D01*
X112359110Y-90512347D01*
X112271476Y-90494916D01*
X112182124Y-90494916D01*
X112094490Y-90512347D01*
X112011940Y-90546541D01*
X111937647Y-90596182D01*
X111874466Y-90659363D01*
X111824825Y-90733656D01*
X111812647Y-90763055D01*
X111800470Y-90733657D01*
X111750829Y-90659364D01*
X111687648Y-90596183D01*
X111613355Y-90546542D01*
X111530805Y-90512348D01*
X111443171Y-90494917D01*
X111353819Y-90494917D01*
X111266185Y-90512348D01*
X111183635Y-90546542D01*
X111109342Y-90596183D01*
X111046161Y-90659364D01*
X110996520Y-90733657D01*
X110962326Y-90816207D01*
X110944895Y-90903841D01*
X110944895Y-90993193D01*
X110962326Y-91080827D01*
X110996520Y-91163377D01*
X111046161Y-91237670D01*
X111109342Y-91300851D01*
X111183635Y-91350492D01*
X111208085Y-91360620D01*
X111150247Y-91399266D01*
X111087066Y-91462447D01*
X111053342Y-91512919D01*
X111004334Y-91439574D01*
X110941153Y-91376393D01*
X110866860Y-91326752D01*
X110784310Y-91292558D01*
X110696676Y-91275127D01*
X110607324Y-91275127D01*
X110519690Y-91292558D01*
X110437140Y-91326752D01*
X110362847Y-91376393D01*
X110299666Y-91439574D01*
X110250025Y-91513867D01*
X110215831Y-91596417D01*
X110198400Y-91684051D01*
X110198400Y-91773403D01*
X110215831Y-91861037D01*
X110250025Y-91943587D01*
X110299666Y-92017880D01*
X110362847Y-92081061D01*
X110437140Y-92130702D01*
X110519690Y-92164896D01*
X110607324Y-92182327D01*
X110696676Y-92182327D01*
X110784310Y-92164896D01*
X110866860Y-92130702D01*
X110941153Y-92081061D01*
X111004334Y-92017880D01*
X111038058Y-91967408D01*
X111087066Y-92040753D01*
X111150247Y-92103934D01*
X111224540Y-92153575D01*
X111235223Y-92158000D01*
X111224540Y-92162425D01*
X111150247Y-92212066D01*
X111087066Y-92275247D01*
X111037425Y-92349540D01*
X111003231Y-92432090D01*
X110995865Y-92469120D01*
X110958230Y-92506756D01*
X110958225Y-92506760D01*
X109579786Y-93885200D01*
X108918110Y-93885200D01*
X108899400Y-93883357D01*
X108880690Y-93885200D01*
X108880687Y-93885200D01*
X108824711Y-93890713D01*
X108752892Y-93912499D01*
X108686703Y-93947878D01*
X108643224Y-93983560D01*
X108643221Y-93983563D01*
X108628689Y-93995489D01*
X108616763Y-94010021D01*
X108143720Y-94483065D01*
X108106690Y-94490431D01*
X108024140Y-94524625D01*
X107949847Y-94574266D01*
X107886666Y-94637447D01*
X107837025Y-94711740D01*
X107802831Y-94794290D01*
X107785400Y-94881924D01*
X105695400Y-94881924D01*
X105677969Y-94794290D01*
X105643775Y-94711740D01*
X105594134Y-94637447D01*
X105530953Y-94574266D01*
X105456660Y-94524625D01*
X105374110Y-94490431D01*
X105286476Y-94473000D01*
X105197124Y-94473000D01*
X105109490Y-94490431D01*
X105026940Y-94524625D01*
X104952647Y-94574266D01*
X104889466Y-94637447D01*
X104839825Y-94711740D01*
X104805631Y-94794290D01*
X104788200Y-94881924D01*
X102320800Y-94881924D01*
X102320800Y-94563251D01*
X102349466Y-94606153D01*
X102412647Y-94669334D01*
X102486940Y-94718975D01*
X102569490Y-94753169D01*
X102657124Y-94770600D01*
X102746476Y-94770600D01*
X102834110Y-94753169D01*
X102916660Y-94718975D01*
X102990953Y-94669334D01*
X103054134Y-94606153D01*
X103103775Y-94531860D01*
X103137969Y-94449310D01*
X103155400Y-94361676D01*
X103155400Y-94272324D01*
X103137969Y-94184690D01*
X103103775Y-94102140D01*
X103054134Y-94027847D01*
X103036547Y-94010260D01*
X103078375Y-93947660D01*
X103112569Y-93865110D01*
X103130000Y-93777476D01*
X103130000Y-93688124D01*
X103112569Y-93600490D01*
X103078375Y-93517940D01*
X103028734Y-93443647D01*
X102968411Y-93383324D01*
X103137202Y-93383324D01*
X103137202Y-93472676D01*
X103154633Y-93560310D01*
X103188827Y-93642860D01*
X103238468Y-93717153D01*
X103301649Y-93780334D01*
X103375942Y-93829975D01*
X103458492Y-93864169D01*
X103546126Y-93881600D01*
X103635478Y-93881600D01*
X103723112Y-93864169D01*
X103805662Y-93829975D01*
X103879955Y-93780334D01*
X103943136Y-93717153D01*
X103992777Y-93642860D01*
X104026971Y-93560310D01*
X104044402Y-93472676D01*
X104044402Y-93383324D01*
X104026971Y-93295690D01*
X104021186Y-93281724D01*
X107785400Y-93281724D01*
X107785400Y-93371076D01*
X107802831Y-93458710D01*
X107837025Y-93541260D01*
X107886666Y-93615553D01*
X107949847Y-93678734D01*
X108024140Y-93728375D01*
X108106690Y-93762569D01*
X108194324Y-93780000D01*
X108283676Y-93780000D01*
X108371310Y-93762569D01*
X108453860Y-93728375D01*
X108528153Y-93678734D01*
X108591334Y-93615553D01*
X108640975Y-93541260D01*
X108645400Y-93530577D01*
X108649825Y-93541260D01*
X108699466Y-93615553D01*
X108762647Y-93678734D01*
X108836940Y-93728375D01*
X108919490Y-93762569D01*
X109007124Y-93780000D01*
X109096476Y-93780000D01*
X109184110Y-93762569D01*
X109266660Y-93728375D01*
X109340953Y-93678734D01*
X109404134Y-93615553D01*
X109453775Y-93541260D01*
X109487969Y-93458710D01*
X109505400Y-93371076D01*
X109505400Y-93281724D01*
X109487969Y-93194090D01*
X109453775Y-93111540D01*
X109404134Y-93037247D01*
X109340953Y-92974066D01*
X109266660Y-92924425D01*
X109184110Y-92890231D01*
X109096476Y-92872800D01*
X109007124Y-92872800D01*
X108919490Y-92890231D01*
X108836940Y-92924425D01*
X108762647Y-92974066D01*
X108699466Y-93037247D01*
X108649825Y-93111540D01*
X108645400Y-93122223D01*
X108640975Y-93111540D01*
X108591334Y-93037247D01*
X108528153Y-92974066D01*
X108455404Y-92925457D01*
X108479260Y-92915575D01*
X108553553Y-92865934D01*
X108616734Y-92802753D01*
X108666375Y-92728460D01*
X108700569Y-92645910D01*
X108718000Y-92558276D01*
X108718000Y-92468924D01*
X108700569Y-92381290D01*
X108666375Y-92298740D01*
X108616734Y-92224447D01*
X108553553Y-92161266D01*
X108507700Y-92130628D01*
X108560923Y-92095066D01*
X108624104Y-92031885D01*
X108673745Y-91957592D01*
X108707939Y-91875042D01*
X108725370Y-91787408D01*
X108725370Y-91698056D01*
X108707939Y-91610422D01*
X108673745Y-91527872D01*
X108624104Y-91453579D01*
X108560923Y-91390398D01*
X108486630Y-91340757D01*
X108404080Y-91306563D01*
X108316446Y-91289132D01*
X108227094Y-91289132D01*
X108139460Y-91306563D01*
X108056910Y-91340757D01*
X107982617Y-91390398D01*
X107919436Y-91453579D01*
X107869795Y-91527872D01*
X107835601Y-91610422D01*
X107818170Y-91698056D01*
X107818170Y-91787408D01*
X107835601Y-91875042D01*
X107869795Y-91957592D01*
X107919436Y-92031885D01*
X107982617Y-92095066D01*
X108028470Y-92125704D01*
X107975247Y-92161266D01*
X107912066Y-92224447D01*
X107862425Y-92298740D01*
X107828231Y-92381290D01*
X107810800Y-92468924D01*
X107810800Y-92558276D01*
X107828231Y-92645910D01*
X107862425Y-92728460D01*
X107912066Y-92802753D01*
X107975247Y-92865934D01*
X108047996Y-92914543D01*
X108024140Y-92924425D01*
X107949847Y-92974066D01*
X107886666Y-93037247D01*
X107837025Y-93111540D01*
X107802831Y-93194090D01*
X107785400Y-93281724D01*
X104021186Y-93281724D01*
X103992777Y-93213140D01*
X103943136Y-93138847D01*
X103879955Y-93075666D01*
X103805662Y-93026025D01*
X103723112Y-92991831D01*
X103635478Y-92974400D01*
X103546126Y-92974400D01*
X103458492Y-92991831D01*
X103375942Y-93026025D01*
X103301649Y-93075666D01*
X103238468Y-93138847D01*
X103188827Y-93213140D01*
X103154633Y-93295690D01*
X103137202Y-93383324D01*
X102968411Y-93383324D01*
X102965553Y-93380466D01*
X102891260Y-93330825D01*
X102808710Y-93296631D01*
X102721076Y-93279200D01*
X102631724Y-93279200D01*
X102544090Y-93296631D01*
X102461540Y-93330825D01*
X102387247Y-93380466D01*
X102324066Y-93443647D01*
X102320800Y-93448535D01*
X102320800Y-92773014D01*
X102797080Y-92296734D01*
X102834110Y-92289369D01*
X102916660Y-92255175D01*
X102990953Y-92205534D01*
X103054134Y-92142353D01*
X103103775Y-92068060D01*
X103137969Y-91985510D01*
X103155400Y-91897876D01*
X103155400Y-91808524D01*
X103140244Y-91732324D01*
X103188000Y-91732324D01*
X103188000Y-91821676D01*
X103205431Y-91909310D01*
X103239625Y-91991860D01*
X103289266Y-92066153D01*
X103352447Y-92129334D01*
X103426740Y-92178975D01*
X103509290Y-92213169D01*
X103596924Y-92230600D01*
X103686276Y-92230600D01*
X103773910Y-92213169D01*
X103856460Y-92178975D01*
X103930753Y-92129334D01*
X103971800Y-92088287D01*
X103987447Y-92103934D01*
X104061740Y-92153575D01*
X104144290Y-92187769D01*
X104231924Y-92205200D01*
X104321276Y-92205200D01*
X104408910Y-92187769D01*
X104491460Y-92153575D01*
X104546203Y-92116997D01*
X104509625Y-92171740D01*
X104475431Y-92254290D01*
X104458000Y-92341924D01*
X104458000Y-92431276D01*
X104475431Y-92518910D01*
X104509625Y-92601460D01*
X104559266Y-92675753D01*
X104622447Y-92738934D01*
X104696740Y-92788575D01*
X104779290Y-92822769D01*
X104866924Y-92840200D01*
X104956276Y-92840200D01*
X105043910Y-92822769D01*
X105126460Y-92788575D01*
X105200753Y-92738934D01*
X105263934Y-92675753D01*
X105313575Y-92601460D01*
X105347769Y-92518910D01*
X105365200Y-92431276D01*
X105365200Y-92341924D01*
X105347769Y-92254290D01*
X105313575Y-92171740D01*
X105263934Y-92097447D01*
X105200753Y-92034266D01*
X105126460Y-91984625D01*
X105043910Y-91950431D01*
X104956276Y-91933000D01*
X104866924Y-91933000D01*
X104779290Y-91950431D01*
X104696740Y-91984625D01*
X104641997Y-92021203D01*
X104678575Y-91966460D01*
X104712769Y-91883910D01*
X104730200Y-91796276D01*
X104730200Y-91706924D01*
X104712769Y-91619290D01*
X104678575Y-91536740D01*
X104628934Y-91462447D01*
X104565753Y-91399266D01*
X104491460Y-91349625D01*
X104408910Y-91315431D01*
X104321276Y-91298000D01*
X104231924Y-91298000D01*
X104144290Y-91315431D01*
X104061740Y-91349625D01*
X103987447Y-91399266D01*
X103946400Y-91440313D01*
X103930753Y-91424666D01*
X103856460Y-91375025D01*
X103773910Y-91340831D01*
X103686276Y-91323400D01*
X103596924Y-91323400D01*
X103509290Y-91340831D01*
X103426740Y-91375025D01*
X103352447Y-91424666D01*
X103289266Y-91487847D01*
X103239625Y-91562140D01*
X103205431Y-91644690D01*
X103188000Y-91732324D01*
X103140244Y-91732324D01*
X103137969Y-91720890D01*
X103103775Y-91638340D01*
X103082800Y-91606949D01*
X103082800Y-91097324D01*
X104940600Y-91097324D01*
X104940600Y-91186676D01*
X104958031Y-91274310D01*
X104992225Y-91356860D01*
X105041866Y-91431153D01*
X105105047Y-91494334D01*
X105179340Y-91543975D01*
X105261890Y-91578169D01*
X105349524Y-91595600D01*
X105438876Y-91595600D01*
X105526510Y-91578169D01*
X105609060Y-91543975D01*
X105683353Y-91494334D01*
X105746534Y-91431153D01*
X105754014Y-91419958D01*
X105778466Y-91456553D01*
X105841647Y-91519734D01*
X105915940Y-91569375D01*
X105998490Y-91603569D01*
X106086124Y-91621000D01*
X106175476Y-91621000D01*
X106263110Y-91603569D01*
X106345660Y-91569375D01*
X106419953Y-91519734D01*
X106483134Y-91456553D01*
X106532775Y-91382260D01*
X106556110Y-91325924D01*
X106667798Y-91325924D01*
X106667798Y-91415276D01*
X106685229Y-91502910D01*
X106719423Y-91585460D01*
X106769064Y-91659753D01*
X106810112Y-91700801D01*
X106794466Y-91716447D01*
X106744825Y-91790740D01*
X106710631Y-91873290D01*
X106693200Y-91960924D01*
X106693200Y-92050276D01*
X106710631Y-92137910D01*
X106744825Y-92220460D01*
X106794466Y-92294753D01*
X106857647Y-92357934D01*
X106931940Y-92407575D01*
X107014490Y-92441769D01*
X107102124Y-92459200D01*
X107191476Y-92459200D01*
X107279110Y-92441769D01*
X107361660Y-92407575D01*
X107435953Y-92357934D01*
X107499134Y-92294753D01*
X107548775Y-92220460D01*
X107582969Y-92137910D01*
X107600400Y-92050276D01*
X107600400Y-91960924D01*
X107582969Y-91873290D01*
X107548775Y-91790740D01*
X107499134Y-91716447D01*
X107458086Y-91675399D01*
X107473732Y-91659753D01*
X107523373Y-91585460D01*
X107557567Y-91502910D01*
X107574998Y-91415276D01*
X107574998Y-91325924D01*
X107557567Y-91238290D01*
X107523373Y-91155740D01*
X107473732Y-91081447D01*
X107410551Y-91018266D01*
X107336258Y-90968625D01*
X107253708Y-90934431D01*
X107166074Y-90917000D01*
X107076722Y-90917000D01*
X106989088Y-90934431D01*
X106906538Y-90968625D01*
X106832245Y-91018266D01*
X106769064Y-91081447D01*
X106719423Y-91155740D01*
X106685229Y-91238290D01*
X106667798Y-91325924D01*
X106556110Y-91325924D01*
X106566969Y-91299710D01*
X106584400Y-91212076D01*
X106584400Y-91122724D01*
X106566969Y-91035090D01*
X106532775Y-90952540D01*
X106483134Y-90878247D01*
X106419953Y-90815066D01*
X106345660Y-90765425D01*
X106263110Y-90731231D01*
X106175476Y-90713800D01*
X106086124Y-90713800D01*
X105998490Y-90731231D01*
X105915940Y-90765425D01*
X105841647Y-90815066D01*
X105778466Y-90878247D01*
X105770986Y-90889442D01*
X105746534Y-90852847D01*
X105683353Y-90789666D01*
X105609060Y-90740025D01*
X105526510Y-90705831D01*
X105438876Y-90688400D01*
X105349524Y-90688400D01*
X105261890Y-90705831D01*
X105179340Y-90740025D01*
X105105047Y-90789666D01*
X105041866Y-90852847D01*
X104992225Y-90927140D01*
X104958031Y-91009690D01*
X104940600Y-91097324D01*
X103082800Y-91097324D01*
X103082800Y-90481724D01*
X114625799Y-90481724D01*
X114625799Y-90571076D01*
X114643230Y-90658710D01*
X114677424Y-90741260D01*
X114727065Y-90815553D01*
X114790246Y-90878734D01*
X114864539Y-90928375D01*
X114947089Y-90962569D01*
X115034723Y-90980000D01*
X115124075Y-90980000D01*
X115211709Y-90962569D01*
X115294259Y-90928375D01*
X115368552Y-90878734D01*
X115431733Y-90815553D01*
X115481374Y-90741260D01*
X115515568Y-90658710D01*
X115532999Y-90571076D01*
X115532999Y-90481724D01*
X115515568Y-90394090D01*
X115481374Y-90311540D01*
X115431733Y-90237247D01*
X115368552Y-90174066D01*
X115294259Y-90124425D01*
X115211709Y-90090231D01*
X115124075Y-90072800D01*
X115034723Y-90072800D01*
X114947089Y-90090231D01*
X114864539Y-90124425D01*
X114790246Y-90174066D01*
X114727065Y-90237247D01*
X114677424Y-90311540D01*
X114643230Y-90394090D01*
X114625799Y-90481724D01*
X103082800Y-90481724D01*
X103082800Y-90258414D01*
X104879880Y-88461334D01*
X104916910Y-88453969D01*
X104999460Y-88419775D01*
X105073753Y-88370134D01*
X105136934Y-88306953D01*
X105186575Y-88232660D01*
X105199389Y-88201724D01*
X106058200Y-88201724D01*
X106058200Y-88291076D01*
X106075631Y-88378710D01*
X106109825Y-88461260D01*
X106159466Y-88535553D01*
X106222647Y-88598734D01*
X106296940Y-88648375D01*
X106379490Y-88682569D01*
X106467124Y-88700000D01*
X106556476Y-88700000D01*
X106644110Y-88682569D01*
X106701192Y-88658924D01*
X107760000Y-88658924D01*
X107760000Y-88748276D01*
X107777431Y-88835910D01*
X107811625Y-88918460D01*
X107861266Y-88992753D01*
X107924447Y-89055934D01*
X107998740Y-89105575D01*
X108081290Y-89139769D01*
X108168924Y-89157200D01*
X108258276Y-89157200D01*
X108345910Y-89139769D01*
X108402992Y-89116124D01*
X108699800Y-89116124D01*
X108699800Y-89205476D01*
X108717231Y-89293110D01*
X108751425Y-89375660D01*
X108801066Y-89449953D01*
X108864247Y-89513134D01*
X108938540Y-89562775D01*
X109021090Y-89596969D01*
X109108724Y-89614400D01*
X109198076Y-89614400D01*
X109285710Y-89596969D01*
X109368260Y-89562775D01*
X109442553Y-89513134D01*
X109505734Y-89449953D01*
X109555375Y-89375660D01*
X109589569Y-89293110D01*
X109607000Y-89205476D01*
X109607000Y-89116124D01*
X109601948Y-89090724D01*
X112976100Y-89090724D01*
X112976100Y-89180076D01*
X112993531Y-89267710D01*
X113027725Y-89350260D01*
X113077366Y-89424553D01*
X113140547Y-89487734D01*
X113214840Y-89537375D01*
X113297390Y-89571569D01*
X113385024Y-89589000D01*
X113474376Y-89589000D01*
X113562010Y-89571569D01*
X113644560Y-89537375D01*
X113718853Y-89487734D01*
X113782034Y-89424553D01*
X113831675Y-89350260D01*
X113865869Y-89267710D01*
X113883300Y-89180076D01*
X113883300Y-89166924D01*
X116548400Y-89166924D01*
X116548400Y-89256276D01*
X116565831Y-89343910D01*
X116600025Y-89426460D01*
X116649666Y-89500753D01*
X116712847Y-89563934D01*
X116787140Y-89613575D01*
X116869690Y-89647769D01*
X116957324Y-89665200D01*
X117046676Y-89665200D01*
X117134310Y-89647769D01*
X117216860Y-89613575D01*
X117291153Y-89563934D01*
X117354334Y-89500753D01*
X117403975Y-89426460D01*
X117438169Y-89343910D01*
X117455600Y-89256276D01*
X117455600Y-89166924D01*
X117438169Y-89079290D01*
X117403975Y-88996740D01*
X117354334Y-88922447D01*
X117291153Y-88859266D01*
X117216860Y-88809625D01*
X117134310Y-88775431D01*
X117046676Y-88758000D01*
X116957324Y-88758000D01*
X116869690Y-88775431D01*
X116787140Y-88809625D01*
X116712847Y-88859266D01*
X116649666Y-88922447D01*
X116600025Y-88996740D01*
X116565831Y-89079290D01*
X116548400Y-89166924D01*
X113883300Y-89166924D01*
X113883300Y-89090724D01*
X113865869Y-89003090D01*
X113831675Y-88920540D01*
X113782034Y-88846247D01*
X113718853Y-88783066D01*
X113644560Y-88733425D01*
X113562010Y-88699231D01*
X113474376Y-88681800D01*
X113385024Y-88681800D01*
X113297390Y-88699231D01*
X113214840Y-88733425D01*
X113140547Y-88783066D01*
X113077366Y-88846247D01*
X113027725Y-88920540D01*
X112993531Y-89003090D01*
X112976100Y-89090724D01*
X109601948Y-89090724D01*
X109589569Y-89028490D01*
X109555375Y-88945940D01*
X109505734Y-88871647D01*
X109442553Y-88808466D01*
X109368260Y-88758825D01*
X109285710Y-88724631D01*
X109198076Y-88707200D01*
X109108724Y-88707200D01*
X109021090Y-88724631D01*
X108938540Y-88758825D01*
X108864247Y-88808466D01*
X108801066Y-88871647D01*
X108751425Y-88945940D01*
X108717231Y-89028490D01*
X108699800Y-89116124D01*
X108402992Y-89116124D01*
X108428460Y-89105575D01*
X108502753Y-89055934D01*
X108565934Y-88992753D01*
X108615575Y-88918460D01*
X108649769Y-88835910D01*
X108667200Y-88748276D01*
X108667200Y-88658924D01*
X108649769Y-88571290D01*
X108615575Y-88488740D01*
X108565934Y-88414447D01*
X108502753Y-88351266D01*
X108428460Y-88301625D01*
X108345910Y-88267431D01*
X108258276Y-88250000D01*
X108168924Y-88250000D01*
X108081290Y-88267431D01*
X107998740Y-88301625D01*
X107924447Y-88351266D01*
X107861266Y-88414447D01*
X107811625Y-88488740D01*
X107777431Y-88571290D01*
X107760000Y-88658924D01*
X106701192Y-88658924D01*
X106726660Y-88648375D01*
X106800953Y-88598734D01*
X106864134Y-88535553D01*
X106913775Y-88461260D01*
X106947969Y-88378710D01*
X106965400Y-88291076D01*
X106965400Y-88201724D01*
X106947969Y-88114090D01*
X106913775Y-88031540D01*
X106864134Y-87957247D01*
X106800953Y-87894066D01*
X106753523Y-87862374D01*
X114677902Y-87862374D01*
X114677902Y-87951726D01*
X114695333Y-88039360D01*
X114729527Y-88121910D01*
X114779168Y-88196203D01*
X114842349Y-88259384D01*
X114916642Y-88309025D01*
X114999192Y-88343219D01*
X115086826Y-88360650D01*
X115176178Y-88360650D01*
X115263812Y-88343219D01*
X115346362Y-88309025D01*
X115367568Y-88294855D01*
X115392047Y-88319334D01*
X115466340Y-88368975D01*
X115548890Y-88403169D01*
X115636524Y-88420600D01*
X115725876Y-88420600D01*
X115813510Y-88403169D01*
X115896060Y-88368975D01*
X115970353Y-88319334D01*
X116033534Y-88256153D01*
X116083175Y-88181860D01*
X116117369Y-88099310D01*
X116134800Y-88011676D01*
X116134800Y-87922324D01*
X116117369Y-87834690D01*
X116083175Y-87752140D01*
X116033534Y-87677847D01*
X115970353Y-87614666D01*
X115896060Y-87565025D01*
X115813510Y-87530831D01*
X115725876Y-87513400D01*
X115636524Y-87513400D01*
X115548890Y-87530831D01*
X115466340Y-87565025D01*
X115445134Y-87579195D01*
X115420655Y-87554716D01*
X115346362Y-87505075D01*
X115263812Y-87470881D01*
X115176178Y-87453450D01*
X115086826Y-87453450D01*
X114999192Y-87470881D01*
X114916642Y-87505075D01*
X114842349Y-87554716D01*
X114779168Y-87617897D01*
X114729527Y-87692190D01*
X114695333Y-87774740D01*
X114677902Y-87862374D01*
X106753523Y-87862374D01*
X106726660Y-87844425D01*
X106644110Y-87810231D01*
X106556476Y-87792800D01*
X106467124Y-87792800D01*
X106379490Y-87810231D01*
X106296940Y-87844425D01*
X106222647Y-87894066D01*
X106159466Y-87957247D01*
X106109825Y-88031540D01*
X106075631Y-88114090D01*
X106058200Y-88201724D01*
X105199389Y-88201724D01*
X105220769Y-88150110D01*
X105238200Y-88062476D01*
X105238200Y-87973124D01*
X105220769Y-87885490D01*
X105186575Y-87802940D01*
X105136934Y-87728647D01*
X105073753Y-87665466D01*
X104999460Y-87615825D01*
X104916910Y-87581631D01*
X104879880Y-87574266D01*
X103670246Y-86364632D01*
X103658311Y-86350089D01*
X103600296Y-86302478D01*
X103534108Y-86267099D01*
X103462289Y-86245313D01*
X103406313Y-86239800D01*
X103406310Y-86239800D01*
X103387600Y-86237957D01*
X103368890Y-86239800D01*
X101975651Y-86239800D01*
X101944260Y-86218825D01*
X101861710Y-86184631D01*
X101774076Y-86167200D01*
X101684724Y-86167200D01*
X101597090Y-86184631D01*
X101514540Y-86218825D01*
X101440247Y-86268466D01*
X101377066Y-86331647D01*
X101327425Y-86405940D01*
X101326200Y-86408897D01*
X101326200Y-85826200D01*
X106901723Y-85826200D01*
X106887490Y-85829031D01*
X106887490Y-85829031D01*
G37*
X106887490Y-85829031D02*
X106804940Y-85863225D01*
X106730647Y-85912866D01*
X106667466Y-85976047D01*
X106617825Y-86050340D01*
X106583631Y-86132890D01*
X106566200Y-86220524D01*
X106566200Y-86309876D01*
X106583631Y-86397510D01*
X106617825Y-86480060D01*
X106667466Y-86554353D01*
X106730647Y-86617534D01*
X106804940Y-86667175D01*
X106887490Y-86701369D01*
X106975124Y-86718800D01*
X107064476Y-86718800D01*
X107077081Y-86716293D01*
X107066230Y-86742490D01*
X107048799Y-86830124D01*
X107048799Y-86919476D01*
X107066230Y-87007110D01*
X107100424Y-87089660D01*
X107150065Y-87163953D01*
X107213246Y-87227134D01*
X107287539Y-87276775D01*
X107370089Y-87310969D01*
X107457723Y-87328400D01*
X107547075Y-87328400D01*
X107634709Y-87310969D01*
X107717259Y-87276775D01*
X107791552Y-87227134D01*
X107854733Y-87163953D01*
X107904374Y-87089660D01*
X107938568Y-87007110D01*
X107955999Y-86919476D01*
X107955999Y-86830124D01*
X107938568Y-86742490D01*
X107927716Y-86716292D01*
X107940323Y-86718800D01*
X108029675Y-86718800D01*
X108042280Y-86716293D01*
X108031429Y-86742490D01*
X108013998Y-86830124D01*
X108013998Y-86919476D01*
X108031429Y-87007110D01*
X108065623Y-87089660D01*
X108115264Y-87163953D01*
X108178445Y-87227134D01*
X108252738Y-87276775D01*
X108335288Y-87310969D01*
X108422922Y-87328400D01*
X108512274Y-87328400D01*
X108599908Y-87310969D01*
X108682458Y-87276775D01*
X108756751Y-87227134D01*
X108819932Y-87163953D01*
X108869573Y-87089660D01*
X108903767Y-87007110D01*
X108921198Y-86919476D01*
X108921198Y-86830124D01*
X108903767Y-86742490D01*
X108892915Y-86716292D01*
X108905522Y-86718800D01*
X108994874Y-86718800D01*
X109082508Y-86701369D01*
X109165058Y-86667175D01*
X109239351Y-86617534D01*
X109302532Y-86554353D01*
X109352173Y-86480060D01*
X109386367Y-86397510D01*
X109403798Y-86309876D01*
X109403798Y-86220524D01*
X109386367Y-86132890D01*
X109352173Y-86050340D01*
X109302532Y-85976047D01*
X109239351Y-85912866D01*
X109165058Y-85863225D01*
X109082508Y-85829031D01*
X109068275Y-85826200D01*
X110762519Y-85826200D01*
X110748286Y-85829031D01*
X110665736Y-85863225D01*
X110591443Y-85912866D01*
X110528262Y-85976047D01*
X110478621Y-86050340D01*
X110444427Y-86132890D01*
X110426996Y-86220524D01*
X110426996Y-86309876D01*
X110444427Y-86397510D01*
X110478621Y-86480060D01*
X110528262Y-86554353D01*
X110591443Y-86617534D01*
X110665736Y-86667175D01*
X110748286Y-86701369D01*
X110835920Y-86718800D01*
X110925272Y-86718800D01*
X110937877Y-86716293D01*
X110927026Y-86742490D01*
X110909595Y-86830124D01*
X110909595Y-86919476D01*
X110927026Y-87007110D01*
X110961220Y-87089660D01*
X111010861Y-87163953D01*
X111074042Y-87227134D01*
X111148335Y-87276775D01*
X111230885Y-87310969D01*
X111318519Y-87328400D01*
X111407871Y-87328400D01*
X111495505Y-87310969D01*
X111578055Y-87276775D01*
X111652348Y-87227134D01*
X111715529Y-87163953D01*
X111765170Y-87089660D01*
X111799364Y-87007110D01*
X111816795Y-86919476D01*
X111816795Y-86830124D01*
X111799364Y-86742490D01*
X111765170Y-86659940D01*
X111715529Y-86585647D01*
X111652348Y-86522466D01*
X111578055Y-86472825D01*
X111495505Y-86438631D01*
X111407871Y-86421200D01*
X111318519Y-86421200D01*
X111305914Y-86423707D01*
X111316765Y-86397510D01*
X111334196Y-86309876D01*
X111334196Y-86220524D01*
X111316765Y-86132890D01*
X111282571Y-86050340D01*
X111232930Y-85976047D01*
X111169749Y-85912866D01*
X111095456Y-85863225D01*
X111012906Y-85829031D01*
X110998673Y-85826200D01*
X112692917Y-85826200D01*
X112678684Y-85829031D01*
X112596134Y-85863225D01*
X112521841Y-85912866D01*
X112458660Y-85976047D01*
X112409019Y-86050340D01*
X112374825Y-86132890D01*
X112357394Y-86220524D01*
X112357394Y-86309876D01*
X112374825Y-86397510D01*
X112385677Y-86423708D01*
X112373070Y-86421200D01*
X112283718Y-86421200D01*
X112196084Y-86438631D01*
X112113534Y-86472825D01*
X112039241Y-86522466D01*
X111976060Y-86585647D01*
X111926419Y-86659940D01*
X111892225Y-86742490D01*
X111874794Y-86830124D01*
X111874794Y-86919476D01*
X111892225Y-87007110D01*
X111926419Y-87089660D01*
X111976060Y-87163953D01*
X112039241Y-87227134D01*
X112113534Y-87276775D01*
X112196084Y-87310969D01*
X112283718Y-87328400D01*
X112373070Y-87328400D01*
X112460704Y-87310969D01*
X112543254Y-87276775D01*
X112617547Y-87227134D01*
X112680728Y-87163953D01*
X112730369Y-87089660D01*
X112764563Y-87007110D01*
X112781994Y-86919476D01*
X112781994Y-86830124D01*
X113805192Y-86830124D01*
X113805192Y-86919476D01*
X113822623Y-87007110D01*
X113856817Y-87089660D01*
X113906458Y-87163953D01*
X113969639Y-87227134D01*
X114043932Y-87276775D01*
X114126482Y-87310969D01*
X114214116Y-87328400D01*
X114303468Y-87328400D01*
X114391102Y-87310969D01*
X114473652Y-87276775D01*
X114547945Y-87227134D01*
X114611126Y-87163953D01*
X114660767Y-87089660D01*
X114694961Y-87007110D01*
X114712392Y-86919476D01*
X114712392Y-86830124D01*
X114694961Y-86742490D01*
X114660767Y-86659940D01*
X114611126Y-86585647D01*
X114547945Y-86522466D01*
X114473652Y-86472825D01*
X114391102Y-86438631D01*
X114303468Y-86421200D01*
X114214116Y-86421200D01*
X114126482Y-86438631D01*
X114043932Y-86472825D01*
X113969639Y-86522466D01*
X113906458Y-86585647D01*
X113856817Y-86659940D01*
X113822623Y-86742490D01*
X113805192Y-86830124D01*
X112781994Y-86830124D01*
X112764563Y-86742490D01*
X112753711Y-86716292D01*
X112766318Y-86718800D01*
X112855670Y-86718800D01*
X112943304Y-86701369D01*
X113025854Y-86667175D01*
X113100147Y-86617534D01*
X113163328Y-86554353D01*
X113212969Y-86480060D01*
X113247163Y-86397510D01*
X113264594Y-86309876D01*
X113264594Y-86220524D01*
X113247163Y-86132890D01*
X113212969Y-86050340D01*
X113163328Y-85976047D01*
X113100147Y-85912866D01*
X113025854Y-85863225D01*
X112943304Y-85829031D01*
X112929071Y-85826200D01*
X115588514Y-85826200D01*
X115574281Y-85829031D01*
X115491731Y-85863225D01*
X115417438Y-85912866D01*
X115354257Y-85976047D01*
X115304616Y-86050340D01*
X115270422Y-86132890D01*
X115252991Y-86220524D01*
X115252991Y-86309876D01*
X115270422Y-86397510D01*
X115304616Y-86480060D01*
X115354257Y-86554353D01*
X115417438Y-86617534D01*
X115491731Y-86667175D01*
X115574281Y-86701369D01*
X115661915Y-86718800D01*
X115751267Y-86718800D01*
X115838901Y-86701369D01*
X115921451Y-86667175D01*
X115995744Y-86617534D01*
X116058925Y-86554353D01*
X116108566Y-86480060D01*
X116142760Y-86397510D01*
X116160191Y-86309876D01*
X116160191Y-86271324D01*
X116497600Y-86271324D01*
X116497600Y-86360676D01*
X116515031Y-86448310D01*
X116549225Y-86530860D01*
X116598866Y-86605153D01*
X116662047Y-86668334D01*
X116736340Y-86717975D01*
X116818890Y-86752169D01*
X116906524Y-86769600D01*
X116995876Y-86769600D01*
X117083510Y-86752169D01*
X117166060Y-86717975D01*
X117240353Y-86668334D01*
X117303534Y-86605153D01*
X117353175Y-86530860D01*
X117387369Y-86448310D01*
X117404800Y-86360676D01*
X117404800Y-86271324D01*
X117387369Y-86183690D01*
X117353175Y-86101140D01*
X117303534Y-86026847D01*
X117240353Y-85963666D01*
X117166060Y-85914025D01*
X117083510Y-85879831D01*
X116995876Y-85862400D01*
X116906524Y-85862400D01*
X116818890Y-85879831D01*
X116736340Y-85914025D01*
X116662047Y-85963666D01*
X116598866Y-86026847D01*
X116549225Y-86101140D01*
X116515031Y-86183690D01*
X116497600Y-86271324D01*
X116160191Y-86271324D01*
X116160191Y-86220524D01*
X116142760Y-86132890D01*
X116108566Y-86050340D01*
X116058925Y-85976047D01*
X115995744Y-85912866D01*
X115921451Y-85863225D01*
X115838901Y-85829031D01*
X115824668Y-85826200D01*
X117673800Y-85826200D01*
X117673800Y-90756823D01*
X117648660Y-90740025D01*
X117566110Y-90705831D01*
X117478476Y-90688400D01*
X117407314Y-90688400D01*
X117438169Y-90613910D01*
X117455600Y-90526276D01*
X117455600Y-90436924D01*
X117438169Y-90349290D01*
X117403975Y-90266740D01*
X117354334Y-90192447D01*
X117291153Y-90129266D01*
X117216860Y-90079625D01*
X117134310Y-90045431D01*
X117046676Y-90028000D01*
X116957324Y-90028000D01*
X116869690Y-90045431D01*
X116787140Y-90079625D01*
X116712847Y-90129266D01*
X116649666Y-90192447D01*
X116600025Y-90266740D01*
X116565831Y-90349290D01*
X116548400Y-90436924D01*
X116548400Y-90526276D01*
X116565831Y-90613910D01*
X116600025Y-90696460D01*
X116649666Y-90770753D01*
X116712847Y-90833934D01*
X116787140Y-90883575D01*
X116869690Y-90917769D01*
X116957324Y-90935200D01*
X117028486Y-90935200D01*
X116997631Y-91009690D01*
X116980200Y-91097324D01*
X116980200Y-91186676D01*
X116997631Y-91274310D01*
X117031825Y-91356860D01*
X117081466Y-91431153D01*
X117144647Y-91494334D01*
X117218940Y-91543975D01*
X117301490Y-91578169D01*
X117389124Y-91595600D01*
X117478476Y-91595600D01*
X117566110Y-91578169D01*
X117648660Y-91543975D01*
X117673800Y-91527177D01*
X117673800Y-96996795D01*
X117623260Y-96963025D01*
X117540710Y-96928831D01*
X117453076Y-96911400D01*
X117363724Y-96911400D01*
X117276090Y-96928831D01*
X117193540Y-96963025D01*
X117119247Y-97012666D01*
X117062324Y-97069589D01*
X117049534Y-97050447D01*
X117018011Y-97018924D01*
X117037153Y-97006134D01*
X117100334Y-96942953D01*
X117149975Y-96868660D01*
X117184169Y-96786110D01*
X117201600Y-96698476D01*
X117201600Y-96609124D01*
X117184169Y-96521490D01*
X117149975Y-96438940D01*
X117100334Y-96364647D01*
X117037153Y-96301466D01*
X116962860Y-96251825D01*
X116880310Y-96217631D01*
X116792676Y-96200200D01*
X116703324Y-96200200D01*
X116615690Y-96217631D01*
X116533140Y-96251825D01*
X116458847Y-96301466D01*
X116395666Y-96364647D01*
X116346025Y-96438940D01*
X116311831Y-96521490D01*
X116294400Y-96609124D01*
X116294400Y-96698476D01*
X116311831Y-96786110D01*
X116346025Y-96868660D01*
X116395666Y-96942953D01*
X116427189Y-96974476D01*
X116408047Y-96987266D01*
X116344866Y-97050447D01*
X116295225Y-97124740D01*
X116261031Y-97207290D01*
X116243600Y-97294924D01*
X116243600Y-97384276D01*
X116261031Y-97471910D01*
X116295225Y-97554460D01*
X116344866Y-97628753D01*
X116389913Y-97673800D01*
X114259378Y-97673800D01*
X114305175Y-97605260D01*
X114339369Y-97522710D01*
X114356800Y-97435076D01*
X114356800Y-97345724D01*
X114339369Y-97258090D01*
X114305175Y-97175540D01*
X114255534Y-97101247D01*
X114192353Y-97038066D01*
X114118060Y-96988425D01*
X114035510Y-96954231D01*
X113947876Y-96936800D01*
X113858524Y-96936800D01*
X113770890Y-96954231D01*
X113688340Y-96988425D01*
X113614047Y-97038066D01*
X113550866Y-97101247D01*
X113501225Y-97175540D01*
X113467031Y-97258090D01*
X113449600Y-97345724D01*
X113449600Y-97435076D01*
X113467031Y-97522710D01*
X113501225Y-97605260D01*
X113547022Y-97673800D01*
X112871069Y-97673800D01*
X112891569Y-97624310D01*
X112909000Y-97536676D01*
X112909000Y-97447324D01*
X112891569Y-97359690D01*
X112857375Y-97277140D01*
X112807734Y-97202847D01*
X112744553Y-97139666D01*
X112670260Y-97090025D01*
X112587710Y-97055831D01*
X112500076Y-97038400D01*
X112410724Y-97038400D01*
X112323090Y-97055831D01*
X112240540Y-97090025D01*
X112166247Y-97139666D01*
X112137900Y-97168013D01*
X112109553Y-97139666D01*
X112035260Y-97090025D01*
X111952710Y-97055831D01*
X111865076Y-97038400D01*
X111775724Y-97038400D01*
X111688090Y-97055831D01*
X111605540Y-97090025D01*
X111531247Y-97139666D01*
X111490199Y-97180714D01*
X111449151Y-97139666D01*
X111374858Y-97090025D01*
X111292308Y-97055831D01*
X111204674Y-97038400D01*
X111115322Y-97038400D01*
X111027688Y-97055831D01*
X110945138Y-97090025D01*
X110870845Y-97139666D01*
X110807664Y-97202847D01*
X110781754Y-97241624D01*
X110755845Y-97202849D01*
X110692664Y-97139668D01*
X110618371Y-97090027D01*
X110535821Y-97055833D01*
X110448187Y-97038402D01*
X110358835Y-97038402D01*
X110271201Y-97055833D01*
X110188651Y-97090027D01*
X110114358Y-97139668D01*
X110051177Y-97202849D01*
X110001536Y-97277142D01*
X109967342Y-97359692D01*
X109949911Y-97447326D01*
X109949911Y-97536678D01*
X109967342Y-97624312D01*
X109987841Y-97673800D01*
X109528789Y-97673800D01*
X109538768Y-97649709D01*
X109556199Y-97562075D01*
X109556199Y-97472723D01*
X109538768Y-97385089D01*
X109504574Y-97302539D01*
X109454933Y-97228246D01*
X109391752Y-97165065D01*
X109317459Y-97115424D01*
X109234909Y-97081230D01*
X109147275Y-97063799D01*
X109057923Y-97063799D01*
X108970289Y-97081230D01*
X108887739Y-97115424D01*
X108813446Y-97165065D01*
X108810499Y-97168012D01*
X108782153Y-97139666D01*
X108707860Y-97090025D01*
X108625310Y-97055831D01*
X108537676Y-97038400D01*
X108448324Y-97038400D01*
X108360690Y-97055831D01*
X108278140Y-97090025D01*
X108203847Y-97139666D01*
X108140666Y-97202847D01*
X108091025Y-97277140D01*
X108056831Y-97359690D01*
X108039400Y-97447324D01*
X108039400Y-97536676D01*
X108056831Y-97624310D01*
X108077331Y-97673800D01*
X105672348Y-97673800D01*
X105703369Y-97598910D01*
X105720800Y-97511276D01*
X105720800Y-97421924D01*
X105703369Y-97334290D01*
X105669175Y-97251740D01*
X105619534Y-97177447D01*
X105610011Y-97167924D01*
X106312200Y-97167924D01*
X106312200Y-97257276D01*
X106329631Y-97344910D01*
X106363825Y-97427460D01*
X106413466Y-97501753D01*
X106476647Y-97564934D01*
X106550940Y-97614575D01*
X106633490Y-97648769D01*
X106721124Y-97666200D01*
X106810476Y-97666200D01*
X106898110Y-97648769D01*
X106980660Y-97614575D01*
X107054953Y-97564934D01*
X107118134Y-97501753D01*
X107167775Y-97427460D01*
X107201969Y-97344910D01*
X107219400Y-97257276D01*
X107219400Y-97167924D01*
X107202309Y-97082000D01*
X107216876Y-97082000D01*
X107304510Y-97064569D01*
X107387060Y-97030375D01*
X107461353Y-96980734D01*
X107524534Y-96917553D01*
X107574175Y-96843260D01*
X107608369Y-96760710D01*
X107625800Y-96673076D01*
X107625800Y-96583724D01*
X107608369Y-96496090D01*
X107606354Y-96491224D01*
X107806547Y-96491224D01*
X107806547Y-96580576D01*
X107823978Y-96668210D01*
X107858172Y-96750760D01*
X107907813Y-96825053D01*
X107970994Y-96888234D01*
X108045287Y-96937875D01*
X108127837Y-96972069D01*
X108215471Y-96989500D01*
X108304823Y-96989500D01*
X108392457Y-96972069D01*
X108475007Y-96937875D01*
X108549300Y-96888234D01*
X108612481Y-96825053D01*
X108662122Y-96750760D01*
X108696316Y-96668210D01*
X108713747Y-96580576D01*
X108713747Y-96491224D01*
X108696316Y-96403590D01*
X108662122Y-96321040D01*
X108612481Y-96246747D01*
X108549300Y-96183566D01*
X108475007Y-96133925D01*
X108392457Y-96099731D01*
X108304823Y-96082300D01*
X108215471Y-96082300D01*
X108127837Y-96099731D01*
X108045287Y-96133925D01*
X107970994Y-96183566D01*
X107907813Y-96246747D01*
X107858172Y-96321040D01*
X107823978Y-96403590D01*
X107806547Y-96491224D01*
X107606354Y-96491224D01*
X107574175Y-96413540D01*
X107524534Y-96339247D01*
X107461353Y-96276066D01*
X107387060Y-96226425D01*
X107304510Y-96192231D01*
X107216876Y-96174800D01*
X107127524Y-96174800D01*
X107039890Y-96192231D01*
X106957340Y-96226425D01*
X106883047Y-96276066D01*
X106819866Y-96339247D01*
X106770225Y-96413540D01*
X106736031Y-96496090D01*
X106718600Y-96583724D01*
X106718600Y-96673076D01*
X106735691Y-96759000D01*
X106721124Y-96759000D01*
X106633490Y-96776431D01*
X106550940Y-96810625D01*
X106476647Y-96860266D01*
X106413466Y-96923447D01*
X106363825Y-96997740D01*
X106329631Y-97080290D01*
X106312200Y-97167924D01*
X105610011Y-97167924D01*
X105556353Y-97114266D01*
X105482060Y-97064625D01*
X105399510Y-97030431D01*
X105311876Y-97013000D01*
X105222524Y-97013000D01*
X105134890Y-97030431D01*
X105052340Y-97064625D01*
X104978047Y-97114266D01*
X104914866Y-97177447D01*
X104881936Y-97226730D01*
X104881775Y-97226340D01*
X104832134Y-97152047D01*
X104768953Y-97088866D01*
X104694660Y-97039225D01*
X104612110Y-97005031D01*
X104524476Y-96987600D01*
X104435124Y-96987600D01*
X104347490Y-97005031D01*
X104264940Y-97039225D01*
X104190647Y-97088866D01*
X104175000Y-97104513D01*
X104133953Y-97063466D01*
X104059660Y-97013825D01*
X103977110Y-96979631D01*
X103889476Y-96962200D01*
X103800124Y-96962200D01*
X103712490Y-96979631D01*
X103629940Y-97013825D01*
X103598549Y-97034800D01*
X103291415Y-97034800D01*
X102786473Y-96529859D01*
X102865860Y-96496975D01*
X102940153Y-96447334D01*
X103003334Y-96384153D01*
X103052975Y-96309860D01*
X103087169Y-96227310D01*
X103104600Y-96139676D01*
X103104600Y-96050324D01*
X103087169Y-95962690D01*
X103052975Y-95880140D01*
X103003334Y-95805847D01*
X102940153Y-95742666D01*
X102865860Y-95693025D01*
X102783310Y-95658831D01*
X102695676Y-95641400D01*
X102606324Y-95641400D01*
X102518690Y-95658831D01*
X102436140Y-95693025D01*
X102361847Y-95742666D01*
X102320800Y-95783713D01*
X102320800Y-94881924D01*
X104788200Y-94881924D01*
X104788200Y-94971276D01*
X104805631Y-95058910D01*
X104839825Y-95141460D01*
X104889466Y-95215753D01*
X104952647Y-95278934D01*
X105026940Y-95328575D01*
X105109490Y-95362769D01*
X105197124Y-95380200D01*
X105286476Y-95380200D01*
X105374110Y-95362769D01*
X105456660Y-95328575D01*
X105530953Y-95278934D01*
X105594134Y-95215753D01*
X105643775Y-95141460D01*
X105677969Y-95058910D01*
X105695400Y-94971276D01*
X105695400Y-94881924D01*
X107785400Y-94881924D01*
X107785400Y-94971276D01*
X107802831Y-95058910D01*
X107837025Y-95141460D01*
X107886666Y-95215753D01*
X107949847Y-95278934D01*
X108024140Y-95328575D01*
X108106690Y-95362769D01*
X108194324Y-95380200D01*
X108283676Y-95380200D01*
X108371310Y-95362769D01*
X108453860Y-95328575D01*
X108528153Y-95278934D01*
X108591334Y-95215753D01*
X108639943Y-95143004D01*
X108649825Y-95166860D01*
X108699466Y-95241153D01*
X108762647Y-95304334D01*
X108811930Y-95337264D01*
X108811540Y-95337425D01*
X108737247Y-95387066D01*
X108674066Y-95450247D01*
X108624425Y-95524540D01*
X108590231Y-95607090D01*
X108572800Y-95694724D01*
X108572800Y-95784076D01*
X108590231Y-95871710D01*
X108624425Y-95954260D01*
X108674066Y-96028553D01*
X108737247Y-96091734D01*
X108811540Y-96141375D01*
X108894090Y-96175569D01*
X108981724Y-96193000D01*
X109071076Y-96193000D01*
X109158710Y-96175569D01*
X109241260Y-96141375D01*
X109315553Y-96091734D01*
X109378734Y-96028553D01*
X109428375Y-95954260D01*
X109462569Y-95871710D01*
X109480000Y-95784076D01*
X109480000Y-95694724D01*
X109462569Y-95607090D01*
X109428375Y-95524540D01*
X109378734Y-95450247D01*
X109315553Y-95387066D01*
X109266270Y-95354136D01*
X109266660Y-95353975D01*
X109340953Y-95304334D01*
X109404134Y-95241153D01*
X109453775Y-95166860D01*
X109487969Y-95084310D01*
X109505400Y-94996676D01*
X109505400Y-94907324D01*
X109487969Y-94819690D01*
X109453775Y-94737140D01*
X109404134Y-94662847D01*
X109388487Y-94647200D01*
X109718890Y-94647200D01*
X109737600Y-94649043D01*
X109756310Y-94647200D01*
X109756313Y-94647200D01*
X109812289Y-94641687D01*
X109884108Y-94619901D01*
X109950296Y-94584522D01*
X110008311Y-94536911D01*
X110020246Y-94522368D01*
X110237659Y-94304955D01*
X110237869Y-94306010D01*
X110272063Y-94388560D01*
X110321704Y-94462853D01*
X110384885Y-94526034D01*
X110459178Y-94575675D01*
X110541728Y-94609869D01*
X110629362Y-94627300D01*
X110718714Y-94627300D01*
X110806348Y-94609869D01*
X110888898Y-94575675D01*
X110963191Y-94526034D01*
X111026372Y-94462853D01*
X111076013Y-94388560D01*
X111110207Y-94306010D01*
X111127638Y-94218376D01*
X111127638Y-94129024D01*
X111110207Y-94041390D01*
X111076013Y-93958840D01*
X111026372Y-93884547D01*
X110963191Y-93821366D01*
X110888898Y-93771725D01*
X110806348Y-93737531D01*
X110805293Y-93737321D01*
X111439400Y-93103215D01*
X111668000Y-93331816D01*
X111668001Y-94946583D01*
X111408225Y-95206360D01*
X111408224Y-95206361D01*
X111344120Y-95270466D01*
X111307090Y-95277831D01*
X111224540Y-95312025D01*
X111150247Y-95361666D01*
X111087066Y-95424847D01*
X111045700Y-95486756D01*
X111004334Y-95424847D01*
X110941153Y-95361666D01*
X110866860Y-95312025D01*
X110784310Y-95277831D01*
X110696676Y-95260400D01*
X110607324Y-95260400D01*
X110519690Y-95277831D01*
X110437140Y-95312025D01*
X110362847Y-95361666D01*
X110299666Y-95424847D01*
X110250025Y-95499140D01*
X110215831Y-95581690D01*
X110198400Y-95669324D01*
X110198400Y-95758676D01*
X110215831Y-95846310D01*
X110250025Y-95928860D01*
X110299666Y-96003153D01*
X110362847Y-96066334D01*
X110437140Y-96115975D01*
X110519690Y-96150169D01*
X110607324Y-96167600D01*
X110696676Y-96167600D01*
X110784310Y-96150169D01*
X110866860Y-96115975D01*
X110941153Y-96066334D01*
X111004334Y-96003153D01*
X111045700Y-95941244D01*
X111087066Y-96003153D01*
X111150247Y-96066334D01*
X111224540Y-96115975D01*
X111307090Y-96150169D01*
X111394724Y-96167600D01*
X111484076Y-96167600D01*
X111571710Y-96150169D01*
X111654260Y-96115975D01*
X111728553Y-96066334D01*
X111791734Y-96003153D01*
X111841375Y-95928860D01*
X111875569Y-95846310D01*
X111882934Y-95809280D01*
X111947039Y-95745176D01*
X111947040Y-95745175D01*
X112181416Y-95510800D01*
X112663778Y-95510800D01*
X112637625Y-95549940D01*
X112603431Y-95632490D01*
X112586000Y-95720124D01*
X112586000Y-95809476D01*
X112603431Y-95897110D01*
X112637625Y-95979660D01*
X112687266Y-96053953D01*
X112750447Y-96117134D01*
X112824740Y-96166775D01*
X112907290Y-96200969D01*
X112994924Y-96218400D01*
X113084276Y-96218400D01*
X113171910Y-96200969D01*
X113254460Y-96166775D01*
X113328753Y-96117134D01*
X113391934Y-96053953D01*
X113441575Y-95979660D01*
X113448231Y-95963591D01*
X113474666Y-96003153D01*
X113537847Y-96066334D01*
X113612140Y-96115975D01*
X113694690Y-96150169D01*
X113782324Y-96167600D01*
X113871676Y-96167600D01*
X113959310Y-96150169D01*
X114041860Y-96115975D01*
X114116153Y-96066334D01*
X114179334Y-96003153D01*
X114228975Y-95928860D01*
X114263169Y-95846310D01*
X114280600Y-95758676D01*
X114280600Y-95669324D01*
X114263169Y-95581690D01*
X114236342Y-95516924D01*
X115126000Y-95516924D01*
X115126000Y-95606276D01*
X115143431Y-95693910D01*
X115177625Y-95776460D01*
X115227266Y-95850753D01*
X115290447Y-95913934D01*
X115364740Y-95963575D01*
X115447290Y-95997769D01*
X115534924Y-96015200D01*
X115624276Y-96015200D01*
X115711910Y-95997769D01*
X115794460Y-95963575D01*
X115868753Y-95913934D01*
X115931934Y-95850753D01*
X115981575Y-95776460D01*
X116015769Y-95693910D01*
X116033200Y-95606276D01*
X116033200Y-95516924D01*
X116015769Y-95429290D01*
X115981575Y-95346740D01*
X115931934Y-95272447D01*
X115915637Y-95256150D01*
X115919553Y-95253534D01*
X115982734Y-95190353D01*
X116032375Y-95116060D01*
X116066569Y-95033510D01*
X116084000Y-94945876D01*
X116084000Y-94856524D01*
X116066569Y-94768890D01*
X116032375Y-94686340D01*
X115982734Y-94612047D01*
X115967087Y-94596400D01*
X115982734Y-94580753D01*
X116032375Y-94506460D01*
X116066569Y-94423910D01*
X116084000Y-94336276D01*
X116084000Y-94246924D01*
X116066569Y-94159290D01*
X116032375Y-94076740D01*
X115982734Y-94002447D01*
X115919553Y-93939266D01*
X115845260Y-93889625D01*
X115762710Y-93855431D01*
X115675076Y-93838000D01*
X115585724Y-93838000D01*
X115498090Y-93855431D01*
X115415540Y-93889625D01*
X115341247Y-93939266D01*
X115278066Y-94002447D01*
X115228425Y-94076740D01*
X115194231Y-94159290D01*
X115176800Y-94246924D01*
X115176800Y-94336276D01*
X115194231Y-94423910D01*
X115228425Y-94506460D01*
X115278066Y-94580753D01*
X115293713Y-94596400D01*
X115278066Y-94612047D01*
X115228425Y-94686340D01*
X115194231Y-94768890D01*
X115176800Y-94856524D01*
X115176800Y-94945876D01*
X115194231Y-95033510D01*
X115228425Y-95116060D01*
X115278066Y-95190353D01*
X115294363Y-95206650D01*
X115290447Y-95209266D01*
X115227266Y-95272447D01*
X115177625Y-95346740D01*
X115143431Y-95429290D01*
X115126000Y-95516924D01*
X114236342Y-95516924D01*
X114228975Y-95499140D01*
X114179334Y-95424847D01*
X114116153Y-95361666D01*
X114041860Y-95312025D01*
X113959310Y-95277831D01*
X113922280Y-95270465D01*
X113884644Y-95232830D01*
X113884640Y-95232825D01*
X113525445Y-94873631D01*
X113513511Y-94859089D01*
X113455496Y-94811478D01*
X113389308Y-94776099D01*
X113317489Y-94754313D01*
X113261513Y-94748800D01*
X113261510Y-94748800D01*
X113242800Y-94746957D01*
X113224090Y-94748800D01*
X112430000Y-94748800D01*
X112430000Y-94129024D01*
X112586000Y-94129024D01*
X112586000Y-94218376D01*
X112603431Y-94306010D01*
X112637625Y-94388560D01*
X112687266Y-94462853D01*
X112750447Y-94526034D01*
X112824740Y-94575675D01*
X112907290Y-94609869D01*
X112994924Y-94627300D01*
X113084276Y-94627300D01*
X113171910Y-94609869D01*
X113254460Y-94575675D01*
X113328753Y-94526034D01*
X113391934Y-94462853D01*
X113441575Y-94388560D01*
X113475769Y-94306010D01*
X113493200Y-94218376D01*
X113493200Y-94129024D01*
X113475769Y-94041390D01*
X113441575Y-93958840D01*
X113391934Y-93884547D01*
X113328753Y-93821366D01*
X113254460Y-93771725D01*
X113171910Y-93737531D01*
X113084276Y-93720100D01*
X112994924Y-93720100D01*
X112907290Y-93737531D01*
X112824740Y-93771725D01*
X112750447Y-93821366D01*
X112687266Y-93884547D01*
X112637625Y-93958840D01*
X112603431Y-94041390D01*
X112586000Y-94129024D01*
X112430000Y-94129024D01*
X112430000Y-93192710D01*
X112431843Y-93174000D01*
X112430000Y-93155287D01*
X112424487Y-93099311D01*
X112402701Y-93027492D01*
X112389249Y-93002324D01*
X115151400Y-93002324D01*
X115151400Y-93091676D01*
X115168831Y-93179310D01*
X115203025Y-93261860D01*
X115252666Y-93336153D01*
X115315847Y-93399334D01*
X115390140Y-93448975D01*
X115472690Y-93483169D01*
X115560324Y-93500600D01*
X115649676Y-93500600D01*
X115737310Y-93483169D01*
X115819860Y-93448975D01*
X115894153Y-93399334D01*
X115957334Y-93336153D01*
X116006975Y-93261860D01*
X116041169Y-93179310D01*
X116058600Y-93091676D01*
X116058600Y-93002324D01*
X116041169Y-92914690D01*
X116006975Y-92832140D01*
X115957334Y-92757847D01*
X115894153Y-92694666D01*
X115819860Y-92645025D01*
X115737310Y-92610831D01*
X115649676Y-92593400D01*
X115560324Y-92593400D01*
X115472690Y-92610831D01*
X115390140Y-92645025D01*
X115315847Y-92694666D01*
X115252666Y-92757847D01*
X115203025Y-92832140D01*
X115168831Y-92914690D01*
X115151400Y-93002324D01*
X112389249Y-93002324D01*
X112386960Y-92998043D01*
X112367322Y-92961303D01*
X112331640Y-92917824D01*
X112331637Y-92917821D01*
X112319711Y-92903289D01*
X112305180Y-92891364D01*
X111908140Y-92494324D01*
X112586000Y-92494324D01*
X112586000Y-92583676D01*
X112603431Y-92671310D01*
X112637625Y-92753860D01*
X112687266Y-92828153D01*
X112750447Y-92891334D01*
X112824740Y-92940975D01*
X112907290Y-92975169D01*
X112994924Y-92992600D01*
X113084276Y-92992600D01*
X113171910Y-92975169D01*
X113254460Y-92940975D01*
X113328753Y-92891334D01*
X113391934Y-92828153D01*
X113441575Y-92753860D01*
X113475769Y-92671310D01*
X113493200Y-92583676D01*
X113493200Y-92494324D01*
X113475769Y-92406690D01*
X113441575Y-92324140D01*
X113391934Y-92249847D01*
X113328753Y-92186666D01*
X113254460Y-92137025D01*
X113171910Y-92102831D01*
X113084276Y-92085400D01*
X112994924Y-92085400D01*
X112907290Y-92102831D01*
X112824740Y-92137025D01*
X112750447Y-92186666D01*
X112687266Y-92249847D01*
X112637625Y-92324140D01*
X112603431Y-92406690D01*
X112586000Y-92494324D01*
X111908140Y-92494324D01*
X111882935Y-92469120D01*
X111875569Y-92432090D01*
X111841375Y-92349540D01*
X111791734Y-92275247D01*
X111728553Y-92212066D01*
X111654260Y-92162425D01*
X111643577Y-92158000D01*
X111654260Y-92153575D01*
X111728553Y-92103934D01*
X111791734Y-92040753D01*
X111833100Y-91978844D01*
X111874466Y-92040753D01*
X111937647Y-92103934D01*
X112011940Y-92153575D01*
X112094490Y-92187769D01*
X112182124Y-92205200D01*
X112271476Y-92205200D01*
X112359110Y-92187769D01*
X112441660Y-92153575D01*
X112515953Y-92103934D01*
X112579134Y-92040753D01*
X112628775Y-91966460D01*
X112662969Y-91883910D01*
X112680400Y-91796276D01*
X112680400Y-91706924D01*
X112670296Y-91656124D01*
X113398800Y-91656124D01*
X113398800Y-91745476D01*
X113416231Y-91833110D01*
X113450425Y-91915660D01*
X113500066Y-91989953D01*
X113563247Y-92053134D01*
X113637540Y-92102775D01*
X113720090Y-92136969D01*
X113807724Y-92154400D01*
X113897076Y-92154400D01*
X113984710Y-92136969D01*
X114067260Y-92102775D01*
X114141553Y-92053134D01*
X114204734Y-91989953D01*
X114254375Y-91915660D01*
X114288569Y-91833110D01*
X114306000Y-91745476D01*
X114306000Y-91656124D01*
X114288569Y-91568490D01*
X114254375Y-91485940D01*
X114204734Y-91411647D01*
X114141553Y-91348466D01*
X114067260Y-91298825D01*
X113984710Y-91264631D01*
X113897076Y-91247200D01*
X113807724Y-91247200D01*
X113720090Y-91264631D01*
X113637540Y-91298825D01*
X113563247Y-91348466D01*
X113500066Y-91411647D01*
X113450425Y-91485940D01*
X113416231Y-91568490D01*
X113398800Y-91656124D01*
X112670296Y-91656124D01*
X112662969Y-91619290D01*
X112628775Y-91536740D01*
X112579134Y-91462447D01*
X112515953Y-91399266D01*
X112442308Y-91350058D01*
X112515953Y-91300850D01*
X112579134Y-91237669D01*
X112628775Y-91163376D01*
X112662969Y-91080826D01*
X112674844Y-91021124D01*
X115634000Y-91021124D01*
X115634000Y-91110476D01*
X115651431Y-91198110D01*
X115685625Y-91280660D01*
X115735266Y-91354953D01*
X115798447Y-91418134D01*
X115872740Y-91467775D01*
X115955290Y-91501969D01*
X116042924Y-91519400D01*
X116132276Y-91519400D01*
X116219910Y-91501969D01*
X116302460Y-91467775D01*
X116376753Y-91418134D01*
X116439934Y-91354953D01*
X116489575Y-91280660D01*
X116523769Y-91198110D01*
X116541200Y-91110476D01*
X116541200Y-91021124D01*
X116523769Y-90933490D01*
X116489575Y-90850940D01*
X116439934Y-90776647D01*
X116376753Y-90713466D01*
X116302460Y-90663825D01*
X116219910Y-90629631D01*
X116132276Y-90612200D01*
X116042924Y-90612200D01*
X115955290Y-90629631D01*
X115872740Y-90663825D01*
X115798447Y-90713466D01*
X115735266Y-90776647D01*
X115685625Y-90850940D01*
X115651431Y-90933490D01*
X115634000Y-91021124D01*
X112674844Y-91021124D01*
X112680400Y-90993192D01*
X112680400Y-90903840D01*
X112662969Y-90816206D01*
X112628775Y-90733656D01*
X112579134Y-90659363D01*
X112515953Y-90596182D01*
X112441660Y-90546541D01*
X112359110Y-90512347D01*
X112271476Y-90494916D01*
X112182124Y-90494916D01*
X112094490Y-90512347D01*
X112011940Y-90546541D01*
X111937647Y-90596182D01*
X111874466Y-90659363D01*
X111824825Y-90733656D01*
X111812647Y-90763055D01*
X111800470Y-90733657D01*
X111750829Y-90659364D01*
X111687648Y-90596183D01*
X111613355Y-90546542D01*
X111530805Y-90512348D01*
X111443171Y-90494917D01*
X111353819Y-90494917D01*
X111266185Y-90512348D01*
X111183635Y-90546542D01*
X111109342Y-90596183D01*
X111046161Y-90659364D01*
X110996520Y-90733657D01*
X110962326Y-90816207D01*
X110944895Y-90903841D01*
X110944895Y-90993193D01*
X110962326Y-91080827D01*
X110996520Y-91163377D01*
X111046161Y-91237670D01*
X111109342Y-91300851D01*
X111183635Y-91350492D01*
X111208085Y-91360620D01*
X111150247Y-91399266D01*
X111087066Y-91462447D01*
X111053342Y-91512919D01*
X111004334Y-91439574D01*
X110941153Y-91376393D01*
X110866860Y-91326752D01*
X110784310Y-91292558D01*
X110696676Y-91275127D01*
X110607324Y-91275127D01*
X110519690Y-91292558D01*
X110437140Y-91326752D01*
X110362847Y-91376393D01*
X110299666Y-91439574D01*
X110250025Y-91513867D01*
X110215831Y-91596417D01*
X110198400Y-91684051D01*
X110198400Y-91773403D01*
X110215831Y-91861037D01*
X110250025Y-91943587D01*
X110299666Y-92017880D01*
X110362847Y-92081061D01*
X110437140Y-92130702D01*
X110519690Y-92164896D01*
X110607324Y-92182327D01*
X110696676Y-92182327D01*
X110784310Y-92164896D01*
X110866860Y-92130702D01*
X110941153Y-92081061D01*
X111004334Y-92017880D01*
X111038058Y-91967408D01*
X111087066Y-92040753D01*
X111150247Y-92103934D01*
X111224540Y-92153575D01*
X111235223Y-92158000D01*
X111224540Y-92162425D01*
X111150247Y-92212066D01*
X111087066Y-92275247D01*
X111037425Y-92349540D01*
X111003231Y-92432090D01*
X110995865Y-92469120D01*
X110958230Y-92506756D01*
X110958225Y-92506760D01*
X109579786Y-93885200D01*
X108918110Y-93885200D01*
X108899400Y-93883357D01*
X108880690Y-93885200D01*
X108880687Y-93885200D01*
X108824711Y-93890713D01*
X108752892Y-93912499D01*
X108686703Y-93947878D01*
X108643224Y-93983560D01*
X108643221Y-93983563D01*
X108628689Y-93995489D01*
X108616763Y-94010021D01*
X108143720Y-94483065D01*
X108106690Y-94490431D01*
X108024140Y-94524625D01*
X107949847Y-94574266D01*
X107886666Y-94637447D01*
X107837025Y-94711740D01*
X107802831Y-94794290D01*
X107785400Y-94881924D01*
X105695400Y-94881924D01*
X105677969Y-94794290D01*
X105643775Y-94711740D01*
X105594134Y-94637447D01*
X105530953Y-94574266D01*
X105456660Y-94524625D01*
X105374110Y-94490431D01*
X105286476Y-94473000D01*
X105197124Y-94473000D01*
X105109490Y-94490431D01*
X105026940Y-94524625D01*
X104952647Y-94574266D01*
X104889466Y-94637447D01*
X104839825Y-94711740D01*
X104805631Y-94794290D01*
X104788200Y-94881924D01*
X102320800Y-94881924D01*
X102320800Y-94563251D01*
X102349466Y-94606153D01*
X102412647Y-94669334D01*
X102486940Y-94718975D01*
X102569490Y-94753169D01*
X102657124Y-94770600D01*
X102746476Y-94770600D01*
X102834110Y-94753169D01*
X102916660Y-94718975D01*
X102990953Y-94669334D01*
X103054134Y-94606153D01*
X103103775Y-94531860D01*
X103137969Y-94449310D01*
X103155400Y-94361676D01*
X103155400Y-94272324D01*
X103137969Y-94184690D01*
X103103775Y-94102140D01*
X103054134Y-94027847D01*
X103036547Y-94010260D01*
X103078375Y-93947660D01*
X103112569Y-93865110D01*
X103130000Y-93777476D01*
X103130000Y-93688124D01*
X103112569Y-93600490D01*
X103078375Y-93517940D01*
X103028734Y-93443647D01*
X102968411Y-93383324D01*
X103137202Y-93383324D01*
X103137202Y-93472676D01*
X103154633Y-93560310D01*
X103188827Y-93642860D01*
X103238468Y-93717153D01*
X103301649Y-93780334D01*
X103375942Y-93829975D01*
X103458492Y-93864169D01*
X103546126Y-93881600D01*
X103635478Y-93881600D01*
X103723112Y-93864169D01*
X103805662Y-93829975D01*
X103879955Y-93780334D01*
X103943136Y-93717153D01*
X103992777Y-93642860D01*
X104026971Y-93560310D01*
X104044402Y-93472676D01*
X104044402Y-93383324D01*
X104026971Y-93295690D01*
X104021186Y-93281724D01*
X107785400Y-93281724D01*
X107785400Y-93371076D01*
X107802831Y-93458710D01*
X107837025Y-93541260D01*
X107886666Y-93615553D01*
X107949847Y-93678734D01*
X108024140Y-93728375D01*
X108106690Y-93762569D01*
X108194324Y-93780000D01*
X108283676Y-93780000D01*
X108371310Y-93762569D01*
X108453860Y-93728375D01*
X108528153Y-93678734D01*
X108591334Y-93615553D01*
X108640975Y-93541260D01*
X108645400Y-93530577D01*
X108649825Y-93541260D01*
X108699466Y-93615553D01*
X108762647Y-93678734D01*
X108836940Y-93728375D01*
X108919490Y-93762569D01*
X109007124Y-93780000D01*
X109096476Y-93780000D01*
X109184110Y-93762569D01*
X109266660Y-93728375D01*
X109340953Y-93678734D01*
X109404134Y-93615553D01*
X109453775Y-93541260D01*
X109487969Y-93458710D01*
X109505400Y-93371076D01*
X109505400Y-93281724D01*
X109487969Y-93194090D01*
X109453775Y-93111540D01*
X109404134Y-93037247D01*
X109340953Y-92974066D01*
X109266660Y-92924425D01*
X109184110Y-92890231D01*
X109096476Y-92872800D01*
X109007124Y-92872800D01*
X108919490Y-92890231D01*
X108836940Y-92924425D01*
X108762647Y-92974066D01*
X108699466Y-93037247D01*
X108649825Y-93111540D01*
X108645400Y-93122223D01*
X108640975Y-93111540D01*
X108591334Y-93037247D01*
X108528153Y-92974066D01*
X108455404Y-92925457D01*
X108479260Y-92915575D01*
X108553553Y-92865934D01*
X108616734Y-92802753D01*
X108666375Y-92728460D01*
X108700569Y-92645910D01*
X108718000Y-92558276D01*
X108718000Y-92468924D01*
X108700569Y-92381290D01*
X108666375Y-92298740D01*
X108616734Y-92224447D01*
X108553553Y-92161266D01*
X108507700Y-92130628D01*
X108560923Y-92095066D01*
X108624104Y-92031885D01*
X108673745Y-91957592D01*
X108707939Y-91875042D01*
X108725370Y-91787408D01*
X108725370Y-91698056D01*
X108707939Y-91610422D01*
X108673745Y-91527872D01*
X108624104Y-91453579D01*
X108560923Y-91390398D01*
X108486630Y-91340757D01*
X108404080Y-91306563D01*
X108316446Y-91289132D01*
X108227094Y-91289132D01*
X108139460Y-91306563D01*
X108056910Y-91340757D01*
X107982617Y-91390398D01*
X107919436Y-91453579D01*
X107869795Y-91527872D01*
X107835601Y-91610422D01*
X107818170Y-91698056D01*
X107818170Y-91787408D01*
X107835601Y-91875042D01*
X107869795Y-91957592D01*
X107919436Y-92031885D01*
X107982617Y-92095066D01*
X108028470Y-92125704D01*
X107975247Y-92161266D01*
X107912066Y-92224447D01*
X107862425Y-92298740D01*
X107828231Y-92381290D01*
X107810800Y-92468924D01*
X107810800Y-92558276D01*
X107828231Y-92645910D01*
X107862425Y-92728460D01*
X107912066Y-92802753D01*
X107975247Y-92865934D01*
X108047996Y-92914543D01*
X108024140Y-92924425D01*
X107949847Y-92974066D01*
X107886666Y-93037247D01*
X107837025Y-93111540D01*
X107802831Y-93194090D01*
X107785400Y-93281724D01*
X104021186Y-93281724D01*
X103992777Y-93213140D01*
X103943136Y-93138847D01*
X103879955Y-93075666D01*
X103805662Y-93026025D01*
X103723112Y-92991831D01*
X103635478Y-92974400D01*
X103546126Y-92974400D01*
X103458492Y-92991831D01*
X103375942Y-93026025D01*
X103301649Y-93075666D01*
X103238468Y-93138847D01*
X103188827Y-93213140D01*
X103154633Y-93295690D01*
X103137202Y-93383324D01*
X102968411Y-93383324D01*
X102965553Y-93380466D01*
X102891260Y-93330825D01*
X102808710Y-93296631D01*
X102721076Y-93279200D01*
X102631724Y-93279200D01*
X102544090Y-93296631D01*
X102461540Y-93330825D01*
X102387247Y-93380466D01*
X102324066Y-93443647D01*
X102320800Y-93448535D01*
X102320800Y-92773014D01*
X102797080Y-92296734D01*
X102834110Y-92289369D01*
X102916660Y-92255175D01*
X102990953Y-92205534D01*
X103054134Y-92142353D01*
X103103775Y-92068060D01*
X103137969Y-91985510D01*
X103155400Y-91897876D01*
X103155400Y-91808524D01*
X103140244Y-91732324D01*
X103188000Y-91732324D01*
X103188000Y-91821676D01*
X103205431Y-91909310D01*
X103239625Y-91991860D01*
X103289266Y-92066153D01*
X103352447Y-92129334D01*
X103426740Y-92178975D01*
X103509290Y-92213169D01*
X103596924Y-92230600D01*
X103686276Y-92230600D01*
X103773910Y-92213169D01*
X103856460Y-92178975D01*
X103930753Y-92129334D01*
X103971800Y-92088287D01*
X103987447Y-92103934D01*
X104061740Y-92153575D01*
X104144290Y-92187769D01*
X104231924Y-92205200D01*
X104321276Y-92205200D01*
X104408910Y-92187769D01*
X104491460Y-92153575D01*
X104546203Y-92116997D01*
X104509625Y-92171740D01*
X104475431Y-92254290D01*
X104458000Y-92341924D01*
X104458000Y-92431276D01*
X104475431Y-92518910D01*
X104509625Y-92601460D01*
X104559266Y-92675753D01*
X104622447Y-92738934D01*
X104696740Y-92788575D01*
X104779290Y-92822769D01*
X104866924Y-92840200D01*
X104956276Y-92840200D01*
X105043910Y-92822769D01*
X105126460Y-92788575D01*
X105200753Y-92738934D01*
X105263934Y-92675753D01*
X105313575Y-92601460D01*
X105347769Y-92518910D01*
X105365200Y-92431276D01*
X105365200Y-92341924D01*
X105347769Y-92254290D01*
X105313575Y-92171740D01*
X105263934Y-92097447D01*
X105200753Y-92034266D01*
X105126460Y-91984625D01*
X105043910Y-91950431D01*
X104956276Y-91933000D01*
X104866924Y-91933000D01*
X104779290Y-91950431D01*
X104696740Y-91984625D01*
X104641997Y-92021203D01*
X104678575Y-91966460D01*
X104712769Y-91883910D01*
X104730200Y-91796276D01*
X104730200Y-91706924D01*
X104712769Y-91619290D01*
X104678575Y-91536740D01*
X104628934Y-91462447D01*
X104565753Y-91399266D01*
X104491460Y-91349625D01*
X104408910Y-91315431D01*
X104321276Y-91298000D01*
X104231924Y-91298000D01*
X104144290Y-91315431D01*
X104061740Y-91349625D01*
X103987447Y-91399266D01*
X103946400Y-91440313D01*
X103930753Y-91424666D01*
X103856460Y-91375025D01*
X103773910Y-91340831D01*
X103686276Y-91323400D01*
X103596924Y-91323400D01*
X103509290Y-91340831D01*
X103426740Y-91375025D01*
X103352447Y-91424666D01*
X103289266Y-91487847D01*
X103239625Y-91562140D01*
X103205431Y-91644690D01*
X103188000Y-91732324D01*
X103140244Y-91732324D01*
X103137969Y-91720890D01*
X103103775Y-91638340D01*
X103082800Y-91606949D01*
X103082800Y-91097324D01*
X104940600Y-91097324D01*
X104940600Y-91186676D01*
X104958031Y-91274310D01*
X104992225Y-91356860D01*
X105041866Y-91431153D01*
X105105047Y-91494334D01*
X105179340Y-91543975D01*
X105261890Y-91578169D01*
X105349524Y-91595600D01*
X105438876Y-91595600D01*
X105526510Y-91578169D01*
X105609060Y-91543975D01*
X105683353Y-91494334D01*
X105746534Y-91431153D01*
X105754014Y-91419958D01*
X105778466Y-91456553D01*
X105841647Y-91519734D01*
X105915940Y-91569375D01*
X105998490Y-91603569D01*
X106086124Y-91621000D01*
X106175476Y-91621000D01*
X106263110Y-91603569D01*
X106345660Y-91569375D01*
X106419953Y-91519734D01*
X106483134Y-91456553D01*
X106532775Y-91382260D01*
X106556110Y-91325924D01*
X106667798Y-91325924D01*
X106667798Y-91415276D01*
X106685229Y-91502910D01*
X106719423Y-91585460D01*
X106769064Y-91659753D01*
X106810112Y-91700801D01*
X106794466Y-91716447D01*
X106744825Y-91790740D01*
X106710631Y-91873290D01*
X106693200Y-91960924D01*
X106693200Y-92050276D01*
X106710631Y-92137910D01*
X106744825Y-92220460D01*
X106794466Y-92294753D01*
X106857647Y-92357934D01*
X106931940Y-92407575D01*
X107014490Y-92441769D01*
X107102124Y-92459200D01*
X107191476Y-92459200D01*
X107279110Y-92441769D01*
X107361660Y-92407575D01*
X107435953Y-92357934D01*
X107499134Y-92294753D01*
X107548775Y-92220460D01*
X107582969Y-92137910D01*
X107600400Y-92050276D01*
X107600400Y-91960924D01*
X107582969Y-91873290D01*
X107548775Y-91790740D01*
X107499134Y-91716447D01*
X107458086Y-91675399D01*
X107473732Y-91659753D01*
X107523373Y-91585460D01*
X107557567Y-91502910D01*
X107574998Y-91415276D01*
X107574998Y-91325924D01*
X107557567Y-91238290D01*
X107523373Y-91155740D01*
X107473732Y-91081447D01*
X107410551Y-91018266D01*
X107336258Y-90968625D01*
X107253708Y-90934431D01*
X107166074Y-90917000D01*
X107076722Y-90917000D01*
X106989088Y-90934431D01*
X106906538Y-90968625D01*
X106832245Y-91018266D01*
X106769064Y-91081447D01*
X106719423Y-91155740D01*
X106685229Y-91238290D01*
X106667798Y-91325924D01*
X106556110Y-91325924D01*
X106566969Y-91299710D01*
X106584400Y-91212076D01*
X106584400Y-91122724D01*
X106566969Y-91035090D01*
X106532775Y-90952540D01*
X106483134Y-90878247D01*
X106419953Y-90815066D01*
X106345660Y-90765425D01*
X106263110Y-90731231D01*
X106175476Y-90713800D01*
X106086124Y-90713800D01*
X105998490Y-90731231D01*
X105915940Y-90765425D01*
X105841647Y-90815066D01*
X105778466Y-90878247D01*
X105770986Y-90889442D01*
X105746534Y-90852847D01*
X105683353Y-90789666D01*
X105609060Y-90740025D01*
X105526510Y-90705831D01*
X105438876Y-90688400D01*
X105349524Y-90688400D01*
X105261890Y-90705831D01*
X105179340Y-90740025D01*
X105105047Y-90789666D01*
X105041866Y-90852847D01*
X104992225Y-90927140D01*
X104958031Y-91009690D01*
X104940600Y-91097324D01*
X103082800Y-91097324D01*
X103082800Y-90481724D01*
X114625799Y-90481724D01*
X114625799Y-90571076D01*
X114643230Y-90658710D01*
X114677424Y-90741260D01*
X114727065Y-90815553D01*
X114790246Y-90878734D01*
X114864539Y-90928375D01*
X114947089Y-90962569D01*
X115034723Y-90980000D01*
X115124075Y-90980000D01*
X115211709Y-90962569D01*
X115294259Y-90928375D01*
X115368552Y-90878734D01*
X115431733Y-90815553D01*
X115481374Y-90741260D01*
X115515568Y-90658710D01*
X115532999Y-90571076D01*
X115532999Y-90481724D01*
X115515568Y-90394090D01*
X115481374Y-90311540D01*
X115431733Y-90237247D01*
X115368552Y-90174066D01*
X115294259Y-90124425D01*
X115211709Y-90090231D01*
X115124075Y-90072800D01*
X115034723Y-90072800D01*
X114947089Y-90090231D01*
X114864539Y-90124425D01*
X114790246Y-90174066D01*
X114727065Y-90237247D01*
X114677424Y-90311540D01*
X114643230Y-90394090D01*
X114625799Y-90481724D01*
X103082800Y-90481724D01*
X103082800Y-90258414D01*
X104879880Y-88461334D01*
X104916910Y-88453969D01*
X104999460Y-88419775D01*
X105073753Y-88370134D01*
X105136934Y-88306953D01*
X105186575Y-88232660D01*
X105199389Y-88201724D01*
X106058200Y-88201724D01*
X106058200Y-88291076D01*
X106075631Y-88378710D01*
X106109825Y-88461260D01*
X106159466Y-88535553D01*
X106222647Y-88598734D01*
X106296940Y-88648375D01*
X106379490Y-88682569D01*
X106467124Y-88700000D01*
X106556476Y-88700000D01*
X106644110Y-88682569D01*
X106701192Y-88658924D01*
X107760000Y-88658924D01*
X107760000Y-88748276D01*
X107777431Y-88835910D01*
X107811625Y-88918460D01*
X107861266Y-88992753D01*
X107924447Y-89055934D01*
X107998740Y-89105575D01*
X108081290Y-89139769D01*
X108168924Y-89157200D01*
X108258276Y-89157200D01*
X108345910Y-89139769D01*
X108402992Y-89116124D01*
X108699800Y-89116124D01*
X108699800Y-89205476D01*
X108717231Y-89293110D01*
X108751425Y-89375660D01*
X108801066Y-89449953D01*
X108864247Y-89513134D01*
X108938540Y-89562775D01*
X109021090Y-89596969D01*
X109108724Y-89614400D01*
X109198076Y-89614400D01*
X109285710Y-89596969D01*
X109368260Y-89562775D01*
X109442553Y-89513134D01*
X109505734Y-89449953D01*
X109555375Y-89375660D01*
X109589569Y-89293110D01*
X109607000Y-89205476D01*
X109607000Y-89116124D01*
X109601948Y-89090724D01*
X112976100Y-89090724D01*
X112976100Y-89180076D01*
X112993531Y-89267710D01*
X113027725Y-89350260D01*
X113077366Y-89424553D01*
X113140547Y-89487734D01*
X113214840Y-89537375D01*
X113297390Y-89571569D01*
X113385024Y-89589000D01*
X113474376Y-89589000D01*
X113562010Y-89571569D01*
X113644560Y-89537375D01*
X113718853Y-89487734D01*
X113782034Y-89424553D01*
X113831675Y-89350260D01*
X113865869Y-89267710D01*
X113883300Y-89180076D01*
X113883300Y-89166924D01*
X116548400Y-89166924D01*
X116548400Y-89256276D01*
X116565831Y-89343910D01*
X116600025Y-89426460D01*
X116649666Y-89500753D01*
X116712847Y-89563934D01*
X116787140Y-89613575D01*
X116869690Y-89647769D01*
X116957324Y-89665200D01*
X117046676Y-89665200D01*
X117134310Y-89647769D01*
X117216860Y-89613575D01*
X117291153Y-89563934D01*
X117354334Y-89500753D01*
X117403975Y-89426460D01*
X117438169Y-89343910D01*
X117455600Y-89256276D01*
X117455600Y-89166924D01*
X117438169Y-89079290D01*
X117403975Y-88996740D01*
X117354334Y-88922447D01*
X117291153Y-88859266D01*
X117216860Y-88809625D01*
X117134310Y-88775431D01*
X117046676Y-88758000D01*
X116957324Y-88758000D01*
X116869690Y-88775431D01*
X116787140Y-88809625D01*
X116712847Y-88859266D01*
X116649666Y-88922447D01*
X116600025Y-88996740D01*
X116565831Y-89079290D01*
X116548400Y-89166924D01*
X113883300Y-89166924D01*
X113883300Y-89090724D01*
X113865869Y-89003090D01*
X113831675Y-88920540D01*
X113782034Y-88846247D01*
X113718853Y-88783066D01*
X113644560Y-88733425D01*
X113562010Y-88699231D01*
X113474376Y-88681800D01*
X113385024Y-88681800D01*
X113297390Y-88699231D01*
X113214840Y-88733425D01*
X113140547Y-88783066D01*
X113077366Y-88846247D01*
X113027725Y-88920540D01*
X112993531Y-89003090D01*
X112976100Y-89090724D01*
X109601948Y-89090724D01*
X109589569Y-89028490D01*
X109555375Y-88945940D01*
X109505734Y-88871647D01*
X109442553Y-88808466D01*
X109368260Y-88758825D01*
X109285710Y-88724631D01*
X109198076Y-88707200D01*
X109108724Y-88707200D01*
X109021090Y-88724631D01*
X108938540Y-88758825D01*
X108864247Y-88808466D01*
X108801066Y-88871647D01*
X108751425Y-88945940D01*
X108717231Y-89028490D01*
X108699800Y-89116124D01*
X108402992Y-89116124D01*
X108428460Y-89105575D01*
X108502753Y-89055934D01*
X108565934Y-88992753D01*
X108615575Y-88918460D01*
X108649769Y-88835910D01*
X108667200Y-88748276D01*
X108667200Y-88658924D01*
X108649769Y-88571290D01*
X108615575Y-88488740D01*
X108565934Y-88414447D01*
X108502753Y-88351266D01*
X108428460Y-88301625D01*
X108345910Y-88267431D01*
X108258276Y-88250000D01*
X108168924Y-88250000D01*
X108081290Y-88267431D01*
X107998740Y-88301625D01*
X107924447Y-88351266D01*
X107861266Y-88414447D01*
X107811625Y-88488740D01*
X107777431Y-88571290D01*
X107760000Y-88658924D01*
X106701192Y-88658924D01*
X106726660Y-88648375D01*
X106800953Y-88598734D01*
X106864134Y-88535553D01*
X106913775Y-88461260D01*
X106947969Y-88378710D01*
X106965400Y-88291076D01*
X106965400Y-88201724D01*
X106947969Y-88114090D01*
X106913775Y-88031540D01*
X106864134Y-87957247D01*
X106800953Y-87894066D01*
X106753523Y-87862374D01*
X114677902Y-87862374D01*
X114677902Y-87951726D01*
X114695333Y-88039360D01*
X114729527Y-88121910D01*
X114779168Y-88196203D01*
X114842349Y-88259384D01*
X114916642Y-88309025D01*
X114999192Y-88343219D01*
X115086826Y-88360650D01*
X115176178Y-88360650D01*
X115263812Y-88343219D01*
X115346362Y-88309025D01*
X115367568Y-88294855D01*
X115392047Y-88319334D01*
X115466340Y-88368975D01*
X115548890Y-88403169D01*
X115636524Y-88420600D01*
X115725876Y-88420600D01*
X115813510Y-88403169D01*
X115896060Y-88368975D01*
X115970353Y-88319334D01*
X116033534Y-88256153D01*
X116083175Y-88181860D01*
X116117369Y-88099310D01*
X116134800Y-88011676D01*
X116134800Y-87922324D01*
X116117369Y-87834690D01*
X116083175Y-87752140D01*
X116033534Y-87677847D01*
X115970353Y-87614666D01*
X115896060Y-87565025D01*
X115813510Y-87530831D01*
X115725876Y-87513400D01*
X115636524Y-87513400D01*
X115548890Y-87530831D01*
X115466340Y-87565025D01*
X115445134Y-87579195D01*
X115420655Y-87554716D01*
X115346362Y-87505075D01*
X115263812Y-87470881D01*
X115176178Y-87453450D01*
X115086826Y-87453450D01*
X114999192Y-87470881D01*
X114916642Y-87505075D01*
X114842349Y-87554716D01*
X114779168Y-87617897D01*
X114729527Y-87692190D01*
X114695333Y-87774740D01*
X114677902Y-87862374D01*
X106753523Y-87862374D01*
X106726660Y-87844425D01*
X106644110Y-87810231D01*
X106556476Y-87792800D01*
X106467124Y-87792800D01*
X106379490Y-87810231D01*
X106296940Y-87844425D01*
X106222647Y-87894066D01*
X106159466Y-87957247D01*
X106109825Y-88031540D01*
X106075631Y-88114090D01*
X106058200Y-88201724D01*
X105199389Y-88201724D01*
X105220769Y-88150110D01*
X105238200Y-88062476D01*
X105238200Y-87973124D01*
X105220769Y-87885490D01*
X105186575Y-87802940D01*
X105136934Y-87728647D01*
X105073753Y-87665466D01*
X104999460Y-87615825D01*
X104916910Y-87581631D01*
X104879880Y-87574266D01*
X103670246Y-86364632D01*
X103658311Y-86350089D01*
X103600296Y-86302478D01*
X103534108Y-86267099D01*
X103462289Y-86245313D01*
X103406313Y-86239800D01*
X103406310Y-86239800D01*
X103387600Y-86237957D01*
X103368890Y-86239800D01*
X101975651Y-86239800D01*
X101944260Y-86218825D01*
X101861710Y-86184631D01*
X101774076Y-86167200D01*
X101684724Y-86167200D01*
X101597090Y-86184631D01*
X101514540Y-86218825D01*
X101440247Y-86268466D01*
X101377066Y-86331647D01*
X101327425Y-86405940D01*
X101326200Y-86408897D01*
X101326200Y-85826200D01*
X106901723Y-85826200D01*
X106887490Y-85829031D01*
M02*
