G04 #@! TF.GenerationSoftware,KiCad,Pcbnew,(5.1.0)-1*
G04 #@! TF.CreationDate,2019-09-21T16:05:28-07:00*
G04 #@! TF.ProjectId,Miniscope-v4-wire-free,4d696e69-7363-46f7-9065-2d76342d7769,rev?*
G04 #@! TF.SameCoordinates,Original*
G04 #@! TF.FileFunction,Copper,L4,Inr*
G04 #@! TF.FilePolarity,Positive*
%FSLAX46Y46*%
G04 Gerber Fmt 4.6, Leading zero omitted, Abs format (unit mm)*
G04 Created by KiCad (PCBNEW (5.1.0)-1) date 2019-09-21 16:05:28*
%MOMM*%
%LPD*%
G04 APERTURE LIST*
%ADD10C,0.450000*%
%ADD11C,0.152400*%
G04 APERTURE END LIST*
D10*
X105267200Y-97466600D03*
X105241800Y-94926600D03*
X102676400Y-93732800D03*
X107502399Y-86874800D03*
X113039600Y-94173700D03*
X113039600Y-92539000D03*
X113903200Y-97390400D03*
X117433800Y-91142000D03*
X105394200Y-91142000D03*
X101736600Y-97441200D03*
X103463800Y-88017800D03*
X111398495Y-90948517D03*
X115681200Y-87967000D03*
X116697200Y-97339600D03*
X115630400Y-94901200D03*
X110674038Y-94173700D03*
X109102599Y-97517399D03*
X112455400Y-97492000D03*
X113293600Y-87763800D03*
X111566400Y-88221000D03*
X114614400Y-95714000D03*
X112252200Y-95739400D03*
X111439400Y-94926600D03*
X110626600Y-92539000D03*
X113065000Y-93326400D03*
X102676400Y-94952004D03*
X113776193Y-86265200D03*
X117002000Y-87941600D03*
X107731000Y-97492000D03*
X109737600Y-97492000D03*
X113827000Y-95714000D03*
X111439400Y-95714000D03*
X111439400Y-92564400D03*
X108239000Y-94926600D03*
X113039600Y-95764800D03*
X110403511Y-97492002D03*
X110652000Y-95714000D03*
X111820400Y-97492000D03*
X104784600Y-88017800D03*
X106511800Y-88246400D03*
X103844800Y-97415800D03*
X107019800Y-86265200D03*
X102701800Y-91853200D03*
X101729400Y-86620800D03*
X117408400Y-97365000D03*
X116087600Y-91065800D03*
X115579600Y-95561600D03*
X116748000Y-96653800D03*
X104911600Y-92386600D03*
X104276600Y-91751600D03*
X104479800Y-97441200D03*
X103641600Y-91777000D03*
X106765800Y-97212600D03*
X102651000Y-96095000D03*
X109051800Y-94952000D03*
X115605000Y-93047000D03*
X109026400Y-95739400D03*
X115630400Y-94291600D03*
X117002000Y-89211600D03*
X109051800Y-93326400D03*
X117002000Y-90481600D03*
X108239000Y-93326400D03*
X107172200Y-96628400D03*
X108493000Y-97492000D03*
X108271770Y-91742732D03*
X103590802Y-93428000D03*
X109153400Y-89160800D03*
X102701800Y-94317000D03*
X111159998Y-97492000D03*
X101736600Y-96857000D03*
X108260147Y-96535900D03*
X115706591Y-86265200D03*
X113429700Y-89135400D03*
X110880596Y-86265200D03*
X108213600Y-88703600D03*
X114258792Y-86874800D03*
X112226800Y-90948516D03*
X107984999Y-86265200D03*
X115079399Y-90526400D03*
X106130800Y-91167400D03*
X112328394Y-86874800D03*
X107146800Y-92005600D03*
X111363195Y-86874800D03*
X107121398Y-91370600D03*
X108467598Y-86874800D03*
X110652000Y-91728727D03*
X111439400Y-91751600D03*
X116951200Y-86316000D03*
X108950198Y-86265200D03*
X112226800Y-91751600D03*
X113852400Y-91700800D03*
X115131502Y-87907050D03*
X108264400Y-92513600D03*
X112810994Y-86265200D03*
D11*
X110652000Y-95714000D02*
X111820400Y-96882400D01*
X111820400Y-96882400D02*
X111820400Y-97173802D01*
X111820400Y-97173802D02*
X111820400Y-97492000D01*
X110677400Y-94952000D02*
X109369998Y-94952000D01*
X111160000Y-94469400D02*
X110677400Y-94952000D01*
X111718800Y-94469400D02*
X111160000Y-94469400D01*
X111947400Y-94698000D02*
X111718800Y-94469400D01*
X115605000Y-93047000D02*
X113954000Y-94698000D01*
X113954000Y-94698000D02*
X111947400Y-94698000D01*
X109369998Y-94952000D02*
X109051800Y-94952000D01*
X109251399Y-95514401D02*
X109026400Y-95739400D01*
X109441901Y-95323899D02*
X109251399Y-95514401D01*
X114598101Y-95323899D02*
X109441901Y-95323899D01*
X115630400Y-94291600D02*
X114598101Y-95323899D01*
X116652001Y-89561599D02*
X117002000Y-89211600D01*
X116652001Y-89790199D02*
X116652001Y-89561599D01*
X114309600Y-92132600D02*
X116652001Y-89790199D01*
X112582400Y-92132600D02*
X114309600Y-92132600D01*
X109051800Y-93326400D02*
X111388600Y-93326400D01*
X111388600Y-93326400D02*
X112582400Y-92132600D01*
X108239000Y-93326400D02*
X108696200Y-93783600D01*
X108696200Y-93783600D02*
X114131800Y-93783600D01*
X114131800Y-93783600D02*
X117002000Y-90913400D01*
X117002000Y-90913400D02*
X117002000Y-90481600D01*
X102701800Y-94317000D02*
X104530600Y-96145800D01*
X110934999Y-97267001D02*
X111159998Y-97492000D01*
X109813798Y-96145800D02*
X110934999Y-97267001D01*
X104530600Y-96145800D02*
X109813798Y-96145800D01*
X102054798Y-96857000D02*
X101736600Y-96857000D01*
X108035148Y-96760899D02*
X107783151Y-96760899D01*
X106890549Y-97653501D02*
X106444701Y-97653501D01*
X108260147Y-96535900D02*
X108035148Y-96760899D01*
X105648200Y-96857000D02*
X102054798Y-96857000D01*
X106444701Y-97653501D02*
X105648200Y-96857000D01*
X107783151Y-96760899D02*
X106890549Y-97653501D01*
X107984999Y-86265200D02*
X107892500Y-86357699D01*
X108467598Y-86874800D02*
X110652000Y-89059202D01*
X110652000Y-91410529D02*
X110652000Y-91728727D01*
X110652000Y-89059202D02*
X110652000Y-91410529D01*
X108950198Y-86265200D02*
X108950198Y-86849398D01*
X112001801Y-91526601D02*
X112226800Y-91751600D01*
X111836699Y-91361499D02*
X112001801Y-91526601D01*
X111836699Y-89735899D02*
X111836699Y-91361499D01*
X108950198Y-86849398D02*
X111836699Y-89735899D01*
M02*
