G04 #@! TF.GenerationSoftware,KiCad,Pcbnew,(5.1.0)-1*
G04 #@! TF.CreationDate,2019-09-21T16:05:28-07:00*
G04 #@! TF.ProjectId,Miniscope-v4-wire-free,4d696e69-7363-46f7-9065-2d76342d7769,rev?*
G04 #@! TF.SameCoordinates,Original*
G04 #@! TF.FileFunction,Soldermask,Top*
G04 #@! TF.FilePolarity,Negative*
%FSLAX46Y46*%
G04 Gerber Fmt 4.6, Leading zero omitted, Abs format (unit mm)*
G04 Created by KiCad (PCBNEW (5.1.0)-1) date 2019-09-21 16:05:28*
%MOMM*%
%LPD*%
G04 APERTURE LIST*
%ADD10C,0.100000*%
G04 APERTURE END LIST*
D10*
G36*
X106052800Y-97734200D02*
G01*
X104802000Y-97734200D01*
X104802000Y-96533400D01*
X106052800Y-96533400D01*
X106052800Y-97734200D01*
X106052800Y-97734200D01*
G37*
G36*
X102312800Y-96482601D02*
G01*
X102313776Y-96492511D01*
X102316667Y-96502041D01*
X102321361Y-96510823D01*
X102327679Y-96518521D01*
X102335377Y-96524839D01*
X102344159Y-96529533D01*
X102353689Y-96532424D01*
X102363599Y-96533400D01*
X103462800Y-96533400D01*
X103462800Y-97734200D01*
X102212000Y-97734200D01*
X102212000Y-96484999D01*
X102211024Y-96475089D01*
X102208133Y-96465559D01*
X102203439Y-96456777D01*
X102197121Y-96449079D01*
X102189423Y-96442761D01*
X102180641Y-96438067D01*
X102171111Y-96435176D01*
X102161201Y-96434200D01*
X101262000Y-96434200D01*
X101262000Y-95683400D01*
X102312800Y-95683400D01*
X102312800Y-96482601D01*
X102312800Y-96482601D01*
G37*
G36*
X110300771Y-96724086D02*
G01*
X110300772Y-96724086D01*
X110300775Y-96724087D01*
X110339060Y-96739944D01*
X110373524Y-96762972D01*
X110402828Y-96792276D01*
X110425856Y-96826740D01*
X110441713Y-96865025D01*
X110449800Y-96905678D01*
X110449800Y-96947122D01*
X110441713Y-96987775D01*
X110425856Y-97026060D01*
X110402828Y-97060524D01*
X110373524Y-97089828D01*
X110339060Y-97112856D01*
X110300775Y-97128713D01*
X110300772Y-97128714D01*
X110300771Y-97128714D01*
X110260123Y-97136800D01*
X110218677Y-97136800D01*
X110178029Y-97128714D01*
X110178028Y-97128714D01*
X110178025Y-97128713D01*
X110139740Y-97112856D01*
X110105276Y-97089828D01*
X110075972Y-97060524D01*
X110052944Y-97026060D01*
X110037087Y-96987775D01*
X110029000Y-96947122D01*
X110029000Y-96905678D01*
X110037087Y-96865025D01*
X110052944Y-96826740D01*
X110075972Y-96792276D01*
X110105276Y-96762972D01*
X110139740Y-96739944D01*
X110178025Y-96724087D01*
X110178028Y-96724086D01*
X110178029Y-96724086D01*
X110218677Y-96716000D01*
X110260123Y-96716000D01*
X110300771Y-96724086D01*
X110300771Y-96724086D01*
G37*
G36*
X107900771Y-96724086D02*
G01*
X107900772Y-96724086D01*
X107900775Y-96724087D01*
X107939060Y-96739944D01*
X107973524Y-96762972D01*
X108002828Y-96792276D01*
X108025856Y-96826740D01*
X108041713Y-96865025D01*
X108049800Y-96905678D01*
X108049800Y-96947122D01*
X108041713Y-96987775D01*
X108025856Y-97026060D01*
X108002828Y-97060524D01*
X107973524Y-97089828D01*
X107939060Y-97112856D01*
X107900775Y-97128713D01*
X107900772Y-97128714D01*
X107900771Y-97128714D01*
X107860123Y-97136800D01*
X107818677Y-97136800D01*
X107778029Y-97128714D01*
X107778028Y-97128714D01*
X107778025Y-97128713D01*
X107739740Y-97112856D01*
X107705276Y-97089828D01*
X107675972Y-97060524D01*
X107652944Y-97026060D01*
X107637087Y-96987775D01*
X107629000Y-96947122D01*
X107629000Y-96905678D01*
X107637087Y-96865025D01*
X107652944Y-96826740D01*
X107675972Y-96792276D01*
X107705276Y-96762972D01*
X107739740Y-96739944D01*
X107778025Y-96724087D01*
X107778028Y-96724086D01*
X107778029Y-96724086D01*
X107818677Y-96716000D01*
X107860123Y-96716000D01*
X107900771Y-96724086D01*
X107900771Y-96724086D01*
G37*
G36*
X108700771Y-96724086D02*
G01*
X108700772Y-96724086D01*
X108700775Y-96724087D01*
X108739060Y-96739944D01*
X108773524Y-96762972D01*
X108802828Y-96792276D01*
X108825856Y-96826740D01*
X108841713Y-96865025D01*
X108849800Y-96905678D01*
X108849800Y-96947122D01*
X108841713Y-96987775D01*
X108825856Y-97026060D01*
X108802828Y-97060524D01*
X108773524Y-97089828D01*
X108739060Y-97112856D01*
X108700775Y-97128713D01*
X108700772Y-97128714D01*
X108700771Y-97128714D01*
X108660123Y-97136800D01*
X108618677Y-97136800D01*
X108578029Y-97128714D01*
X108578028Y-97128714D01*
X108578025Y-97128713D01*
X108539740Y-97112856D01*
X108505276Y-97089828D01*
X108475972Y-97060524D01*
X108452944Y-97026060D01*
X108437087Y-96987775D01*
X108429000Y-96947122D01*
X108429000Y-96905678D01*
X108437087Y-96865025D01*
X108452944Y-96826740D01*
X108475972Y-96792276D01*
X108505276Y-96762972D01*
X108539740Y-96739944D01*
X108578025Y-96724087D01*
X108578028Y-96724086D01*
X108578029Y-96724086D01*
X108618677Y-96716000D01*
X108660123Y-96716000D01*
X108700771Y-96724086D01*
X108700771Y-96724086D01*
G37*
G36*
X109500771Y-96724086D02*
G01*
X109500772Y-96724086D01*
X109500775Y-96724087D01*
X109539060Y-96739944D01*
X109573524Y-96762972D01*
X109602828Y-96792276D01*
X109625856Y-96826740D01*
X109641713Y-96865025D01*
X109649800Y-96905678D01*
X109649800Y-96947122D01*
X109641713Y-96987775D01*
X109625856Y-97026060D01*
X109602828Y-97060524D01*
X109573524Y-97089828D01*
X109539060Y-97112856D01*
X109500775Y-97128713D01*
X109500772Y-97128714D01*
X109500771Y-97128714D01*
X109460123Y-97136800D01*
X109418677Y-97136800D01*
X109378029Y-97128714D01*
X109378028Y-97128714D01*
X109378025Y-97128713D01*
X109339740Y-97112856D01*
X109305276Y-97089828D01*
X109275972Y-97060524D01*
X109252944Y-97026060D01*
X109237087Y-96987775D01*
X109229000Y-96947122D01*
X109229000Y-96905678D01*
X109237087Y-96865025D01*
X109252944Y-96826740D01*
X109275972Y-96792276D01*
X109305276Y-96762972D01*
X109339740Y-96739944D01*
X109378025Y-96724087D01*
X109378028Y-96724086D01*
X109378029Y-96724086D01*
X109418677Y-96716000D01*
X109460123Y-96716000D01*
X109500771Y-96724086D01*
X109500771Y-96724086D01*
G37*
G36*
X111100771Y-96724086D02*
G01*
X111100772Y-96724086D01*
X111100775Y-96724087D01*
X111139060Y-96739944D01*
X111173524Y-96762972D01*
X111202828Y-96792276D01*
X111225856Y-96826740D01*
X111241713Y-96865025D01*
X111249800Y-96905678D01*
X111249800Y-96947122D01*
X111241713Y-96987775D01*
X111225856Y-97026060D01*
X111202828Y-97060524D01*
X111173524Y-97089828D01*
X111139060Y-97112856D01*
X111100775Y-97128713D01*
X111100772Y-97128714D01*
X111100771Y-97128714D01*
X111060123Y-97136800D01*
X111018677Y-97136800D01*
X110978029Y-97128714D01*
X110978028Y-97128714D01*
X110978025Y-97128713D01*
X110939740Y-97112856D01*
X110905276Y-97089828D01*
X110875972Y-97060524D01*
X110852944Y-97026060D01*
X110837087Y-96987775D01*
X110829000Y-96947122D01*
X110829000Y-96905678D01*
X110837087Y-96865025D01*
X110852944Y-96826740D01*
X110875972Y-96792276D01*
X110905276Y-96762972D01*
X110939740Y-96739944D01*
X110978025Y-96724087D01*
X110978028Y-96724086D01*
X110978029Y-96724086D01*
X111018677Y-96716000D01*
X111060123Y-96716000D01*
X111100771Y-96724086D01*
X111100771Y-96724086D01*
G37*
G36*
X111900771Y-96724086D02*
G01*
X111900772Y-96724086D01*
X111900775Y-96724087D01*
X111939060Y-96739944D01*
X111973524Y-96762972D01*
X112002828Y-96792276D01*
X112025856Y-96826740D01*
X112041713Y-96865025D01*
X112049800Y-96905678D01*
X112049800Y-96947122D01*
X112041713Y-96987775D01*
X112025856Y-97026060D01*
X112002828Y-97060524D01*
X111973524Y-97089828D01*
X111939060Y-97112856D01*
X111900775Y-97128713D01*
X111900772Y-97128714D01*
X111900771Y-97128714D01*
X111860123Y-97136800D01*
X111818677Y-97136800D01*
X111778029Y-97128714D01*
X111778028Y-97128714D01*
X111778025Y-97128713D01*
X111739740Y-97112856D01*
X111705276Y-97089828D01*
X111675972Y-97060524D01*
X111652944Y-97026060D01*
X111637087Y-96987775D01*
X111629000Y-96947122D01*
X111629000Y-96905678D01*
X111637087Y-96865025D01*
X111652944Y-96826740D01*
X111675972Y-96792276D01*
X111705276Y-96762972D01*
X111739740Y-96739944D01*
X111778025Y-96724087D01*
X111778028Y-96724086D01*
X111778029Y-96724086D01*
X111818677Y-96716000D01*
X111860123Y-96716000D01*
X111900771Y-96724086D01*
X111900771Y-96724086D01*
G37*
G36*
X112700771Y-96724086D02*
G01*
X112700772Y-96724086D01*
X112700775Y-96724087D01*
X112739060Y-96739944D01*
X112773524Y-96762972D01*
X112802828Y-96792276D01*
X112825856Y-96826740D01*
X112841713Y-96865025D01*
X112849800Y-96905678D01*
X112849800Y-96947122D01*
X112841713Y-96987775D01*
X112825856Y-97026060D01*
X112802828Y-97060524D01*
X112773524Y-97089828D01*
X112739060Y-97112856D01*
X112700775Y-97128713D01*
X112700772Y-97128714D01*
X112700771Y-97128714D01*
X112660123Y-97136800D01*
X112618677Y-97136800D01*
X112578029Y-97128714D01*
X112578028Y-97128714D01*
X112578025Y-97128713D01*
X112539740Y-97112856D01*
X112505276Y-97089828D01*
X112475972Y-97060524D01*
X112452944Y-97026060D01*
X112437087Y-96987775D01*
X112429000Y-96947122D01*
X112429000Y-96905678D01*
X112437087Y-96865025D01*
X112452944Y-96826740D01*
X112475972Y-96792276D01*
X112505276Y-96762972D01*
X112539740Y-96739944D01*
X112578025Y-96724087D01*
X112578028Y-96724086D01*
X112578029Y-96724086D01*
X112618677Y-96716000D01*
X112660123Y-96716000D01*
X112700771Y-96724086D01*
X112700771Y-96724086D01*
G37*
G36*
X114300771Y-96724086D02*
G01*
X114300772Y-96724086D01*
X114300775Y-96724087D01*
X114339060Y-96739944D01*
X114373524Y-96762972D01*
X114402828Y-96792276D01*
X114425856Y-96826740D01*
X114441713Y-96865025D01*
X114449800Y-96905678D01*
X114449800Y-96947122D01*
X114441713Y-96987775D01*
X114425856Y-97026060D01*
X114402828Y-97060524D01*
X114373524Y-97089828D01*
X114339060Y-97112856D01*
X114300775Y-97128713D01*
X114300772Y-97128714D01*
X114300771Y-97128714D01*
X114260123Y-97136800D01*
X114218677Y-97136800D01*
X114178029Y-97128714D01*
X114178028Y-97128714D01*
X114178025Y-97128713D01*
X114139740Y-97112856D01*
X114105276Y-97089828D01*
X114075972Y-97060524D01*
X114052944Y-97026060D01*
X114037087Y-96987775D01*
X114029000Y-96947122D01*
X114029000Y-96905678D01*
X114037087Y-96865025D01*
X114052944Y-96826740D01*
X114075972Y-96792276D01*
X114105276Y-96762972D01*
X114139740Y-96739944D01*
X114178025Y-96724087D01*
X114178028Y-96724086D01*
X114178029Y-96724086D01*
X114218677Y-96716000D01*
X114260123Y-96716000D01*
X114300771Y-96724086D01*
X114300771Y-96724086D01*
G37*
G36*
X115100771Y-96724086D02*
G01*
X115100772Y-96724086D01*
X115100775Y-96724087D01*
X115139060Y-96739944D01*
X115173524Y-96762972D01*
X115202828Y-96792276D01*
X115225856Y-96826740D01*
X115241713Y-96865025D01*
X115249800Y-96905678D01*
X115249800Y-96947122D01*
X115241713Y-96987775D01*
X115225856Y-97026060D01*
X115202828Y-97060524D01*
X115173524Y-97089828D01*
X115139060Y-97112856D01*
X115100775Y-97128713D01*
X115100772Y-97128714D01*
X115100771Y-97128714D01*
X115060123Y-97136800D01*
X115018677Y-97136800D01*
X114978029Y-97128714D01*
X114978028Y-97128714D01*
X114978025Y-97128713D01*
X114939740Y-97112856D01*
X114905276Y-97089828D01*
X114875972Y-97060524D01*
X114852944Y-97026060D01*
X114837087Y-96987775D01*
X114829000Y-96947122D01*
X114829000Y-96905678D01*
X114837087Y-96865025D01*
X114852944Y-96826740D01*
X114875972Y-96792276D01*
X114905276Y-96762972D01*
X114939740Y-96739944D01*
X114978025Y-96724087D01*
X114978028Y-96724086D01*
X114978029Y-96724086D01*
X115018677Y-96716000D01*
X115060123Y-96716000D01*
X115100771Y-96724086D01*
X115100771Y-96724086D01*
G37*
G36*
X113500771Y-96724086D02*
G01*
X113500772Y-96724086D01*
X113500775Y-96724087D01*
X113539060Y-96739944D01*
X113573524Y-96762972D01*
X113602828Y-96792276D01*
X113625856Y-96826740D01*
X113641713Y-96865025D01*
X113649800Y-96905678D01*
X113649800Y-96947122D01*
X113641713Y-96987775D01*
X113625856Y-97026060D01*
X113602828Y-97060524D01*
X113573524Y-97089828D01*
X113539060Y-97112856D01*
X113500775Y-97128713D01*
X113500772Y-97128714D01*
X113500771Y-97128714D01*
X113460123Y-97136800D01*
X113418677Y-97136800D01*
X113378029Y-97128714D01*
X113378028Y-97128714D01*
X113378025Y-97128713D01*
X113339740Y-97112856D01*
X113305276Y-97089828D01*
X113275972Y-97060524D01*
X113252944Y-97026060D01*
X113237087Y-96987775D01*
X113229000Y-96947122D01*
X113229000Y-96905678D01*
X113237087Y-96865025D01*
X113252944Y-96826740D01*
X113275972Y-96792276D01*
X113305276Y-96762972D01*
X113339740Y-96739944D01*
X113378025Y-96724087D01*
X113378028Y-96724086D01*
X113378029Y-96724086D01*
X113418677Y-96716000D01*
X113460123Y-96716000D01*
X113500771Y-96724086D01*
X113500771Y-96724086D01*
G37*
G36*
X114300771Y-95924086D02*
G01*
X114300772Y-95924086D01*
X114300775Y-95924087D01*
X114339060Y-95939944D01*
X114373524Y-95962972D01*
X114402828Y-95992276D01*
X114425856Y-96026740D01*
X114441713Y-96065025D01*
X114449800Y-96105678D01*
X114449800Y-96147122D01*
X114441713Y-96187775D01*
X114425856Y-96226060D01*
X114402828Y-96260524D01*
X114373524Y-96289828D01*
X114339060Y-96312856D01*
X114300775Y-96328713D01*
X114300772Y-96328714D01*
X114300771Y-96328714D01*
X114260123Y-96336800D01*
X114218677Y-96336800D01*
X114178029Y-96328714D01*
X114178028Y-96328714D01*
X114178025Y-96328713D01*
X114139740Y-96312856D01*
X114105276Y-96289828D01*
X114075972Y-96260524D01*
X114052944Y-96226060D01*
X114037087Y-96187775D01*
X114029000Y-96147122D01*
X114029000Y-96105678D01*
X114037087Y-96065025D01*
X114052944Y-96026740D01*
X114075972Y-95992276D01*
X114105276Y-95962972D01*
X114139740Y-95939944D01*
X114178025Y-95924087D01*
X114178028Y-95924086D01*
X114178029Y-95924086D01*
X114218677Y-95916000D01*
X114260123Y-95916000D01*
X114300771Y-95924086D01*
X114300771Y-95924086D01*
G37*
G36*
X115100771Y-95924086D02*
G01*
X115100772Y-95924086D01*
X115100775Y-95924087D01*
X115139060Y-95939944D01*
X115173524Y-95962972D01*
X115202828Y-95992276D01*
X115225856Y-96026740D01*
X115241713Y-96065025D01*
X115249800Y-96105678D01*
X115249800Y-96147122D01*
X115241713Y-96187775D01*
X115225856Y-96226060D01*
X115202828Y-96260524D01*
X115173524Y-96289828D01*
X115139060Y-96312856D01*
X115100775Y-96328713D01*
X115100772Y-96328714D01*
X115100771Y-96328714D01*
X115060123Y-96336800D01*
X115018677Y-96336800D01*
X114978029Y-96328714D01*
X114978028Y-96328714D01*
X114978025Y-96328713D01*
X114939740Y-96312856D01*
X114905276Y-96289828D01*
X114875972Y-96260524D01*
X114852944Y-96226060D01*
X114837087Y-96187775D01*
X114829000Y-96147122D01*
X114829000Y-96105678D01*
X114837087Y-96065025D01*
X114852944Y-96026740D01*
X114875972Y-95992276D01*
X114905276Y-95962972D01*
X114939740Y-95939944D01*
X114978025Y-95924087D01*
X114978028Y-95924086D01*
X114978029Y-95924086D01*
X115018677Y-95916000D01*
X115060123Y-95916000D01*
X115100771Y-95924086D01*
X115100771Y-95924086D01*
G37*
G36*
X113500771Y-95924086D02*
G01*
X113500772Y-95924086D01*
X113500775Y-95924087D01*
X113539060Y-95939944D01*
X113573524Y-95962972D01*
X113602828Y-95992276D01*
X113625856Y-96026740D01*
X113641713Y-96065025D01*
X113649800Y-96105678D01*
X113649800Y-96147122D01*
X113641713Y-96187775D01*
X113625856Y-96226060D01*
X113602828Y-96260524D01*
X113573524Y-96289828D01*
X113539060Y-96312856D01*
X113500775Y-96328713D01*
X113500772Y-96328714D01*
X113500771Y-96328714D01*
X113460123Y-96336800D01*
X113418677Y-96336800D01*
X113378029Y-96328714D01*
X113378028Y-96328714D01*
X113378025Y-96328713D01*
X113339740Y-96312856D01*
X113305276Y-96289828D01*
X113275972Y-96260524D01*
X113252944Y-96226060D01*
X113237087Y-96187775D01*
X113229000Y-96147122D01*
X113229000Y-96105678D01*
X113237087Y-96065025D01*
X113252944Y-96026740D01*
X113275972Y-95992276D01*
X113305276Y-95962972D01*
X113339740Y-95939944D01*
X113378025Y-95924087D01*
X113378028Y-95924086D01*
X113378029Y-95924086D01*
X113418677Y-95916000D01*
X113460123Y-95916000D01*
X113500771Y-95924086D01*
X113500771Y-95924086D01*
G37*
G36*
X112700771Y-95924086D02*
G01*
X112700772Y-95924086D01*
X112700775Y-95924087D01*
X112739060Y-95939944D01*
X112773524Y-95962972D01*
X112802828Y-95992276D01*
X112825856Y-96026740D01*
X112841713Y-96065025D01*
X112849800Y-96105678D01*
X112849800Y-96147122D01*
X112841713Y-96187775D01*
X112825856Y-96226060D01*
X112802828Y-96260524D01*
X112773524Y-96289828D01*
X112739060Y-96312856D01*
X112700775Y-96328713D01*
X112700772Y-96328714D01*
X112700771Y-96328714D01*
X112660123Y-96336800D01*
X112618677Y-96336800D01*
X112578029Y-96328714D01*
X112578028Y-96328714D01*
X112578025Y-96328713D01*
X112539740Y-96312856D01*
X112505276Y-96289828D01*
X112475972Y-96260524D01*
X112452944Y-96226060D01*
X112437087Y-96187775D01*
X112429000Y-96147122D01*
X112429000Y-96105678D01*
X112437087Y-96065025D01*
X112452944Y-96026740D01*
X112475972Y-95992276D01*
X112505276Y-95962972D01*
X112539740Y-95939944D01*
X112578025Y-95924087D01*
X112578028Y-95924086D01*
X112578029Y-95924086D01*
X112618677Y-95916000D01*
X112660123Y-95916000D01*
X112700771Y-95924086D01*
X112700771Y-95924086D01*
G37*
G36*
X111900771Y-95924086D02*
G01*
X111900772Y-95924086D01*
X111900775Y-95924087D01*
X111939060Y-95939944D01*
X111973524Y-95962972D01*
X112002828Y-95992276D01*
X112025856Y-96026740D01*
X112041713Y-96065025D01*
X112049800Y-96105678D01*
X112049800Y-96147122D01*
X112041713Y-96187775D01*
X112025856Y-96226060D01*
X112002828Y-96260524D01*
X111973524Y-96289828D01*
X111939060Y-96312856D01*
X111900775Y-96328713D01*
X111900772Y-96328714D01*
X111900771Y-96328714D01*
X111860123Y-96336800D01*
X111818677Y-96336800D01*
X111778029Y-96328714D01*
X111778028Y-96328714D01*
X111778025Y-96328713D01*
X111739740Y-96312856D01*
X111705276Y-96289828D01*
X111675972Y-96260524D01*
X111652944Y-96226060D01*
X111637087Y-96187775D01*
X111629000Y-96147122D01*
X111629000Y-96105678D01*
X111637087Y-96065025D01*
X111652944Y-96026740D01*
X111675972Y-95992276D01*
X111705276Y-95962972D01*
X111739740Y-95939944D01*
X111778025Y-95924087D01*
X111778028Y-95924086D01*
X111778029Y-95924086D01*
X111818677Y-95916000D01*
X111860123Y-95916000D01*
X111900771Y-95924086D01*
X111900771Y-95924086D01*
G37*
G36*
X109500771Y-95924086D02*
G01*
X109500772Y-95924086D01*
X109500775Y-95924087D01*
X109539060Y-95939944D01*
X109573524Y-95962972D01*
X109602828Y-95992276D01*
X109625856Y-96026740D01*
X109641713Y-96065025D01*
X109649800Y-96105678D01*
X109649800Y-96147122D01*
X109641713Y-96187775D01*
X109625856Y-96226060D01*
X109602828Y-96260524D01*
X109573524Y-96289828D01*
X109539060Y-96312856D01*
X109500775Y-96328713D01*
X109500772Y-96328714D01*
X109500771Y-96328714D01*
X109460123Y-96336800D01*
X109418677Y-96336800D01*
X109378029Y-96328714D01*
X109378028Y-96328714D01*
X109378025Y-96328713D01*
X109339740Y-96312856D01*
X109305276Y-96289828D01*
X109275972Y-96260524D01*
X109252944Y-96226060D01*
X109237087Y-96187775D01*
X109229000Y-96147122D01*
X109229000Y-96105678D01*
X109237087Y-96065025D01*
X109252944Y-96026740D01*
X109275972Y-95992276D01*
X109305276Y-95962972D01*
X109339740Y-95939944D01*
X109378025Y-95924087D01*
X109378028Y-95924086D01*
X109378029Y-95924086D01*
X109418677Y-95916000D01*
X109460123Y-95916000D01*
X109500771Y-95924086D01*
X109500771Y-95924086D01*
G37*
G36*
X108700771Y-95924086D02*
G01*
X108700772Y-95924086D01*
X108700775Y-95924087D01*
X108739060Y-95939944D01*
X108773524Y-95962972D01*
X108802828Y-95992276D01*
X108825856Y-96026740D01*
X108841713Y-96065025D01*
X108849800Y-96105678D01*
X108849800Y-96147122D01*
X108841713Y-96187775D01*
X108825856Y-96226060D01*
X108802828Y-96260524D01*
X108773524Y-96289828D01*
X108739060Y-96312856D01*
X108700775Y-96328713D01*
X108700772Y-96328714D01*
X108700771Y-96328714D01*
X108660123Y-96336800D01*
X108618677Y-96336800D01*
X108578029Y-96328714D01*
X108578028Y-96328714D01*
X108578025Y-96328713D01*
X108539740Y-96312856D01*
X108505276Y-96289828D01*
X108475972Y-96260524D01*
X108452944Y-96226060D01*
X108437087Y-96187775D01*
X108429000Y-96147122D01*
X108429000Y-96105678D01*
X108437087Y-96065025D01*
X108452944Y-96026740D01*
X108475972Y-95992276D01*
X108505276Y-95962972D01*
X108539740Y-95939944D01*
X108578025Y-95924087D01*
X108578028Y-95924086D01*
X108578029Y-95924086D01*
X108618677Y-95916000D01*
X108660123Y-95916000D01*
X108700771Y-95924086D01*
X108700771Y-95924086D01*
G37*
G36*
X107900771Y-95924086D02*
G01*
X107900772Y-95924086D01*
X107900775Y-95924087D01*
X107939060Y-95939944D01*
X107973524Y-95962972D01*
X108002828Y-95992276D01*
X108025856Y-96026740D01*
X108041713Y-96065025D01*
X108049800Y-96105678D01*
X108049800Y-96147122D01*
X108041713Y-96187775D01*
X108025856Y-96226060D01*
X108002828Y-96260524D01*
X107973524Y-96289828D01*
X107939060Y-96312856D01*
X107900775Y-96328713D01*
X107900772Y-96328714D01*
X107900771Y-96328714D01*
X107860123Y-96336800D01*
X107818677Y-96336800D01*
X107778029Y-96328714D01*
X107778028Y-96328714D01*
X107778025Y-96328713D01*
X107739740Y-96312856D01*
X107705276Y-96289828D01*
X107675972Y-96260524D01*
X107652944Y-96226060D01*
X107637087Y-96187775D01*
X107629000Y-96147122D01*
X107629000Y-96105678D01*
X107637087Y-96065025D01*
X107652944Y-96026740D01*
X107675972Y-95992276D01*
X107705276Y-95962972D01*
X107739740Y-95939944D01*
X107778025Y-95924087D01*
X107778028Y-95924086D01*
X107778029Y-95924086D01*
X107818677Y-95916000D01*
X107860123Y-95916000D01*
X107900771Y-95924086D01*
X107900771Y-95924086D01*
G37*
G36*
X111100771Y-95924086D02*
G01*
X111100772Y-95924086D01*
X111100775Y-95924087D01*
X111139060Y-95939944D01*
X111173524Y-95962972D01*
X111202828Y-95992276D01*
X111225856Y-96026740D01*
X111241713Y-96065025D01*
X111249800Y-96105678D01*
X111249800Y-96147122D01*
X111241713Y-96187775D01*
X111225856Y-96226060D01*
X111202828Y-96260524D01*
X111173524Y-96289828D01*
X111139060Y-96312856D01*
X111100775Y-96328713D01*
X111100772Y-96328714D01*
X111100771Y-96328714D01*
X111060123Y-96336800D01*
X111018677Y-96336800D01*
X110978029Y-96328714D01*
X110978028Y-96328714D01*
X110978025Y-96328713D01*
X110939740Y-96312856D01*
X110905276Y-96289828D01*
X110875972Y-96260524D01*
X110852944Y-96226060D01*
X110837087Y-96187775D01*
X110829000Y-96147122D01*
X110829000Y-96105678D01*
X110837087Y-96065025D01*
X110852944Y-96026740D01*
X110875972Y-95992276D01*
X110905276Y-95962972D01*
X110939740Y-95939944D01*
X110978025Y-95924087D01*
X110978028Y-95924086D01*
X110978029Y-95924086D01*
X111018677Y-95916000D01*
X111060123Y-95916000D01*
X111100771Y-95924086D01*
X111100771Y-95924086D01*
G37*
G36*
X110300771Y-95924086D02*
G01*
X110300772Y-95924086D01*
X110300775Y-95924087D01*
X110339060Y-95939944D01*
X110373524Y-95962972D01*
X110402828Y-95992276D01*
X110425856Y-96026740D01*
X110441713Y-96065025D01*
X110449800Y-96105678D01*
X110449800Y-96147122D01*
X110441713Y-96187775D01*
X110425856Y-96226060D01*
X110402828Y-96260524D01*
X110373524Y-96289828D01*
X110339060Y-96312856D01*
X110300775Y-96328713D01*
X110300772Y-96328714D01*
X110300771Y-96328714D01*
X110260123Y-96336800D01*
X110218677Y-96336800D01*
X110178029Y-96328714D01*
X110178028Y-96328714D01*
X110178025Y-96328713D01*
X110139740Y-96312856D01*
X110105276Y-96289828D01*
X110075972Y-96260524D01*
X110052944Y-96226060D01*
X110037087Y-96187775D01*
X110029000Y-96147122D01*
X110029000Y-96105678D01*
X110037087Y-96065025D01*
X110052944Y-96026740D01*
X110075972Y-95992276D01*
X110105276Y-95962972D01*
X110139740Y-95939944D01*
X110178025Y-95924087D01*
X110178028Y-95924086D01*
X110178029Y-95924086D01*
X110218677Y-95916000D01*
X110260123Y-95916000D01*
X110300771Y-95924086D01*
X110300771Y-95924086D01*
G37*
G36*
X110300771Y-95124086D02*
G01*
X110300772Y-95124086D01*
X110300775Y-95124087D01*
X110339060Y-95139944D01*
X110373524Y-95162972D01*
X110402828Y-95192276D01*
X110425856Y-95226740D01*
X110441713Y-95265025D01*
X110449800Y-95305678D01*
X110449800Y-95347122D01*
X110441713Y-95387775D01*
X110425856Y-95426060D01*
X110402828Y-95460524D01*
X110373524Y-95489828D01*
X110339060Y-95512856D01*
X110300775Y-95528713D01*
X110300772Y-95528714D01*
X110300771Y-95528714D01*
X110260123Y-95536800D01*
X110218677Y-95536800D01*
X110178029Y-95528714D01*
X110178028Y-95528714D01*
X110178025Y-95528713D01*
X110139740Y-95512856D01*
X110105276Y-95489828D01*
X110075972Y-95460524D01*
X110052944Y-95426060D01*
X110037087Y-95387775D01*
X110029000Y-95347122D01*
X110029000Y-95305678D01*
X110037087Y-95265025D01*
X110052944Y-95226740D01*
X110075972Y-95192276D01*
X110105276Y-95162972D01*
X110139740Y-95139944D01*
X110178025Y-95124087D01*
X110178028Y-95124086D01*
X110178029Y-95124086D01*
X110218677Y-95116000D01*
X110260123Y-95116000D01*
X110300771Y-95124086D01*
X110300771Y-95124086D01*
G37*
G36*
X109500771Y-95124086D02*
G01*
X109500772Y-95124086D01*
X109500775Y-95124087D01*
X109539060Y-95139944D01*
X109573524Y-95162972D01*
X109602828Y-95192276D01*
X109625856Y-95226740D01*
X109641713Y-95265025D01*
X109649800Y-95305678D01*
X109649800Y-95347122D01*
X109641713Y-95387775D01*
X109625856Y-95426060D01*
X109602828Y-95460524D01*
X109573524Y-95489828D01*
X109539060Y-95512856D01*
X109500775Y-95528713D01*
X109500772Y-95528714D01*
X109500771Y-95528714D01*
X109460123Y-95536800D01*
X109418677Y-95536800D01*
X109378029Y-95528714D01*
X109378028Y-95528714D01*
X109378025Y-95528713D01*
X109339740Y-95512856D01*
X109305276Y-95489828D01*
X109275972Y-95460524D01*
X109252944Y-95426060D01*
X109237087Y-95387775D01*
X109229000Y-95347122D01*
X109229000Y-95305678D01*
X109237087Y-95265025D01*
X109252944Y-95226740D01*
X109275972Y-95192276D01*
X109305276Y-95162972D01*
X109339740Y-95139944D01*
X109378025Y-95124087D01*
X109378028Y-95124086D01*
X109378029Y-95124086D01*
X109418677Y-95116000D01*
X109460123Y-95116000D01*
X109500771Y-95124086D01*
X109500771Y-95124086D01*
G37*
G36*
X108700771Y-95124086D02*
G01*
X108700772Y-95124086D01*
X108700775Y-95124087D01*
X108739060Y-95139944D01*
X108773524Y-95162972D01*
X108802828Y-95192276D01*
X108825856Y-95226740D01*
X108841713Y-95265025D01*
X108849800Y-95305678D01*
X108849800Y-95347122D01*
X108841713Y-95387775D01*
X108825856Y-95426060D01*
X108802828Y-95460524D01*
X108773524Y-95489828D01*
X108739060Y-95512856D01*
X108700775Y-95528713D01*
X108700772Y-95528714D01*
X108700771Y-95528714D01*
X108660123Y-95536800D01*
X108618677Y-95536800D01*
X108578029Y-95528714D01*
X108578028Y-95528714D01*
X108578025Y-95528713D01*
X108539740Y-95512856D01*
X108505276Y-95489828D01*
X108475972Y-95460524D01*
X108452944Y-95426060D01*
X108437087Y-95387775D01*
X108429000Y-95347122D01*
X108429000Y-95305678D01*
X108437087Y-95265025D01*
X108452944Y-95226740D01*
X108475972Y-95192276D01*
X108505276Y-95162972D01*
X108539740Y-95139944D01*
X108578025Y-95124087D01*
X108578028Y-95124086D01*
X108578029Y-95124086D01*
X108618677Y-95116000D01*
X108660123Y-95116000D01*
X108700771Y-95124086D01*
X108700771Y-95124086D01*
G37*
G36*
X107900771Y-95124086D02*
G01*
X107900772Y-95124086D01*
X107900775Y-95124087D01*
X107939060Y-95139944D01*
X107973524Y-95162972D01*
X108002828Y-95192276D01*
X108025856Y-95226740D01*
X108041713Y-95265025D01*
X108049800Y-95305678D01*
X108049800Y-95347122D01*
X108041713Y-95387775D01*
X108025856Y-95426060D01*
X108002828Y-95460524D01*
X107973524Y-95489828D01*
X107939060Y-95512856D01*
X107900775Y-95528713D01*
X107900772Y-95528714D01*
X107900771Y-95528714D01*
X107860123Y-95536800D01*
X107818677Y-95536800D01*
X107778029Y-95528714D01*
X107778028Y-95528714D01*
X107778025Y-95528713D01*
X107739740Y-95512856D01*
X107705276Y-95489828D01*
X107675972Y-95460524D01*
X107652944Y-95426060D01*
X107637087Y-95387775D01*
X107629000Y-95347122D01*
X107629000Y-95305678D01*
X107637087Y-95265025D01*
X107652944Y-95226740D01*
X107675972Y-95192276D01*
X107705276Y-95162972D01*
X107739740Y-95139944D01*
X107778025Y-95124087D01*
X107778028Y-95124086D01*
X107778029Y-95124086D01*
X107818677Y-95116000D01*
X107860123Y-95116000D01*
X107900771Y-95124086D01*
X107900771Y-95124086D01*
G37*
G36*
X111100771Y-95124086D02*
G01*
X111100772Y-95124086D01*
X111100775Y-95124087D01*
X111139060Y-95139944D01*
X111173524Y-95162972D01*
X111202828Y-95192276D01*
X111225856Y-95226740D01*
X111241713Y-95265025D01*
X111249800Y-95305678D01*
X111249800Y-95347122D01*
X111241713Y-95387775D01*
X111225856Y-95426060D01*
X111202828Y-95460524D01*
X111173524Y-95489828D01*
X111139060Y-95512856D01*
X111100775Y-95528713D01*
X111100772Y-95528714D01*
X111100771Y-95528714D01*
X111060123Y-95536800D01*
X111018677Y-95536800D01*
X110978029Y-95528714D01*
X110978028Y-95528714D01*
X110978025Y-95528713D01*
X110939740Y-95512856D01*
X110905276Y-95489828D01*
X110875972Y-95460524D01*
X110852944Y-95426060D01*
X110837087Y-95387775D01*
X110829000Y-95347122D01*
X110829000Y-95305678D01*
X110837087Y-95265025D01*
X110852944Y-95226740D01*
X110875972Y-95192276D01*
X110905276Y-95162972D01*
X110939740Y-95139944D01*
X110978025Y-95124087D01*
X110978028Y-95124086D01*
X110978029Y-95124086D01*
X111018677Y-95116000D01*
X111060123Y-95116000D01*
X111100771Y-95124086D01*
X111100771Y-95124086D01*
G37*
G36*
X111900771Y-95124086D02*
G01*
X111900772Y-95124086D01*
X111900775Y-95124087D01*
X111939060Y-95139944D01*
X111973524Y-95162972D01*
X112002828Y-95192276D01*
X112025856Y-95226740D01*
X112041713Y-95265025D01*
X112049800Y-95305678D01*
X112049800Y-95347122D01*
X112041713Y-95387775D01*
X112025856Y-95426060D01*
X112002828Y-95460524D01*
X111973524Y-95489828D01*
X111939060Y-95512856D01*
X111900775Y-95528713D01*
X111900772Y-95528714D01*
X111900771Y-95528714D01*
X111860123Y-95536800D01*
X111818677Y-95536800D01*
X111778029Y-95528714D01*
X111778028Y-95528714D01*
X111778025Y-95528713D01*
X111739740Y-95512856D01*
X111705276Y-95489828D01*
X111675972Y-95460524D01*
X111652944Y-95426060D01*
X111637087Y-95387775D01*
X111629000Y-95347122D01*
X111629000Y-95305678D01*
X111637087Y-95265025D01*
X111652944Y-95226740D01*
X111675972Y-95192276D01*
X111705276Y-95162972D01*
X111739740Y-95139944D01*
X111778025Y-95124087D01*
X111778028Y-95124086D01*
X111778029Y-95124086D01*
X111818677Y-95116000D01*
X111860123Y-95116000D01*
X111900771Y-95124086D01*
X111900771Y-95124086D01*
G37*
G36*
X112700771Y-95124086D02*
G01*
X112700772Y-95124086D01*
X112700775Y-95124087D01*
X112739060Y-95139944D01*
X112773524Y-95162972D01*
X112802828Y-95192276D01*
X112825856Y-95226740D01*
X112841713Y-95265025D01*
X112849800Y-95305678D01*
X112849800Y-95347122D01*
X112841713Y-95387775D01*
X112825856Y-95426060D01*
X112802828Y-95460524D01*
X112773524Y-95489828D01*
X112739060Y-95512856D01*
X112700775Y-95528713D01*
X112700772Y-95528714D01*
X112700771Y-95528714D01*
X112660123Y-95536800D01*
X112618677Y-95536800D01*
X112578029Y-95528714D01*
X112578028Y-95528714D01*
X112578025Y-95528713D01*
X112539740Y-95512856D01*
X112505276Y-95489828D01*
X112475972Y-95460524D01*
X112452944Y-95426060D01*
X112437087Y-95387775D01*
X112429000Y-95347122D01*
X112429000Y-95305678D01*
X112437087Y-95265025D01*
X112452944Y-95226740D01*
X112475972Y-95192276D01*
X112505276Y-95162972D01*
X112539740Y-95139944D01*
X112578025Y-95124087D01*
X112578028Y-95124086D01*
X112578029Y-95124086D01*
X112618677Y-95116000D01*
X112660123Y-95116000D01*
X112700771Y-95124086D01*
X112700771Y-95124086D01*
G37*
G36*
X113500771Y-95124086D02*
G01*
X113500772Y-95124086D01*
X113500775Y-95124087D01*
X113539060Y-95139944D01*
X113573524Y-95162972D01*
X113602828Y-95192276D01*
X113625856Y-95226740D01*
X113641713Y-95265025D01*
X113649800Y-95305678D01*
X113649800Y-95347122D01*
X113641713Y-95387775D01*
X113625856Y-95426060D01*
X113602828Y-95460524D01*
X113573524Y-95489828D01*
X113539060Y-95512856D01*
X113500775Y-95528713D01*
X113500772Y-95528714D01*
X113500771Y-95528714D01*
X113460123Y-95536800D01*
X113418677Y-95536800D01*
X113378029Y-95528714D01*
X113378028Y-95528714D01*
X113378025Y-95528713D01*
X113339740Y-95512856D01*
X113305276Y-95489828D01*
X113275972Y-95460524D01*
X113252944Y-95426060D01*
X113237087Y-95387775D01*
X113229000Y-95347122D01*
X113229000Y-95305678D01*
X113237087Y-95265025D01*
X113252944Y-95226740D01*
X113275972Y-95192276D01*
X113305276Y-95162972D01*
X113339740Y-95139944D01*
X113378025Y-95124087D01*
X113378028Y-95124086D01*
X113378029Y-95124086D01*
X113418677Y-95116000D01*
X113460123Y-95116000D01*
X113500771Y-95124086D01*
X113500771Y-95124086D01*
G37*
G36*
X114300771Y-95124086D02*
G01*
X114300772Y-95124086D01*
X114300775Y-95124087D01*
X114339060Y-95139944D01*
X114373524Y-95162972D01*
X114402828Y-95192276D01*
X114425856Y-95226740D01*
X114441713Y-95265025D01*
X114449800Y-95305678D01*
X114449800Y-95347122D01*
X114441713Y-95387775D01*
X114425856Y-95426060D01*
X114402828Y-95460524D01*
X114373524Y-95489828D01*
X114339060Y-95512856D01*
X114300775Y-95528713D01*
X114300772Y-95528714D01*
X114300771Y-95528714D01*
X114260123Y-95536800D01*
X114218677Y-95536800D01*
X114178029Y-95528714D01*
X114178028Y-95528714D01*
X114178025Y-95528713D01*
X114139740Y-95512856D01*
X114105276Y-95489828D01*
X114075972Y-95460524D01*
X114052944Y-95426060D01*
X114037087Y-95387775D01*
X114029000Y-95347122D01*
X114029000Y-95305678D01*
X114037087Y-95265025D01*
X114052944Y-95226740D01*
X114075972Y-95192276D01*
X114105276Y-95162972D01*
X114139740Y-95139944D01*
X114178025Y-95124087D01*
X114178028Y-95124086D01*
X114178029Y-95124086D01*
X114218677Y-95116000D01*
X114260123Y-95116000D01*
X114300771Y-95124086D01*
X114300771Y-95124086D01*
G37*
G36*
X115100771Y-95124086D02*
G01*
X115100772Y-95124086D01*
X115100775Y-95124087D01*
X115139060Y-95139944D01*
X115173524Y-95162972D01*
X115202828Y-95192276D01*
X115225856Y-95226740D01*
X115241713Y-95265025D01*
X115249800Y-95305678D01*
X115249800Y-95347122D01*
X115241713Y-95387775D01*
X115225856Y-95426060D01*
X115202828Y-95460524D01*
X115173524Y-95489828D01*
X115139060Y-95512856D01*
X115100775Y-95528713D01*
X115100772Y-95528714D01*
X115100771Y-95528714D01*
X115060123Y-95536800D01*
X115018677Y-95536800D01*
X114978029Y-95528714D01*
X114978028Y-95528714D01*
X114978025Y-95528713D01*
X114939740Y-95512856D01*
X114905276Y-95489828D01*
X114875972Y-95460524D01*
X114852944Y-95426060D01*
X114837087Y-95387775D01*
X114829000Y-95347122D01*
X114829000Y-95305678D01*
X114837087Y-95265025D01*
X114852944Y-95226740D01*
X114875972Y-95192276D01*
X114905276Y-95162972D01*
X114939740Y-95139944D01*
X114978025Y-95124087D01*
X114978028Y-95124086D01*
X114978029Y-95124086D01*
X115018677Y-95116000D01*
X115060123Y-95116000D01*
X115100771Y-95124086D01*
X115100771Y-95124086D01*
G37*
G36*
X117475081Y-95087783D02*
G01*
X117495881Y-95096399D01*
X117516683Y-95105015D01*
X117541588Y-95121656D01*
X117554126Y-95130034D01*
X117585964Y-95161872D01*
X117585965Y-95161874D01*
X117610983Y-95199315D01*
X117610983Y-95199316D01*
X117628215Y-95240917D01*
X117637000Y-95285083D01*
X117637000Y-95330113D01*
X117633617Y-95347123D01*
X117628215Y-95374278D01*
X117610983Y-95415881D01*
X117604181Y-95426060D01*
X117585964Y-95453324D01*
X117554126Y-95485162D01*
X117547143Y-95489828D01*
X117516683Y-95510181D01*
X117475081Y-95527413D01*
X117430915Y-95536198D01*
X117385885Y-95536198D01*
X117341719Y-95527413D01*
X117300117Y-95510181D01*
X117269657Y-95489828D01*
X117262674Y-95485162D01*
X117230836Y-95453324D01*
X117212619Y-95426060D01*
X117205817Y-95415881D01*
X117188585Y-95374278D01*
X117183184Y-95347123D01*
X117179800Y-95330113D01*
X117179800Y-95285083D01*
X117188585Y-95240917D01*
X117205817Y-95199316D01*
X117205817Y-95199315D01*
X117230835Y-95161874D01*
X117230836Y-95161872D01*
X117262674Y-95130034D01*
X117275212Y-95121656D01*
X117300117Y-95105015D01*
X117320919Y-95096399D01*
X117341719Y-95087783D01*
X117385885Y-95078998D01*
X117430915Y-95078998D01*
X117475081Y-95087783D01*
X117475081Y-95087783D01*
G37*
G36*
X102312800Y-95334200D02*
G01*
X101262000Y-95334200D01*
X101262000Y-94583400D01*
X102312800Y-94583400D01*
X102312800Y-95334200D01*
X102312800Y-95334200D01*
G37*
G36*
X116865481Y-94605183D02*
G01*
X116907083Y-94622415D01*
X116931988Y-94639056D01*
X116944526Y-94647434D01*
X116976364Y-94679272D01*
X116976365Y-94679274D01*
X117001383Y-94716715D01*
X117018615Y-94758318D01*
X117027400Y-94802483D01*
X117027400Y-94847513D01*
X117018615Y-94891678D01*
X117001383Y-94933281D01*
X116984742Y-94958186D01*
X116976364Y-94970724D01*
X116944526Y-95002562D01*
X116931988Y-95010940D01*
X116907083Y-95027581D01*
X116865481Y-95044813D01*
X116821315Y-95053598D01*
X116776285Y-95053598D01*
X116732119Y-95044813D01*
X116690517Y-95027581D01*
X116665612Y-95010940D01*
X116653074Y-95002562D01*
X116621236Y-94970724D01*
X116612858Y-94958186D01*
X116596217Y-94933281D01*
X116578985Y-94891678D01*
X116570200Y-94847513D01*
X116570200Y-94802483D01*
X116578985Y-94758318D01*
X116596217Y-94716715D01*
X116621235Y-94679274D01*
X116621236Y-94679272D01*
X116653074Y-94647434D01*
X116665612Y-94639056D01*
X116690517Y-94622415D01*
X116732119Y-94605183D01*
X116776285Y-94596398D01*
X116821315Y-94596398D01*
X116865481Y-94605183D01*
X116865481Y-94605183D01*
G37*
G36*
X109500771Y-94324086D02*
G01*
X109500772Y-94324086D01*
X109500775Y-94324087D01*
X109539060Y-94339944D01*
X109573524Y-94362972D01*
X109602828Y-94392276D01*
X109625856Y-94426740D01*
X109641713Y-94465025D01*
X109641714Y-94465028D01*
X109641714Y-94465029D01*
X109649800Y-94505677D01*
X109649800Y-94547123D01*
X109642584Y-94583400D01*
X109641713Y-94587775D01*
X109625856Y-94626060D01*
X109602828Y-94660524D01*
X109573524Y-94689828D01*
X109539060Y-94712856D01*
X109500775Y-94728713D01*
X109500772Y-94728714D01*
X109500771Y-94728714D01*
X109460123Y-94736800D01*
X109418677Y-94736800D01*
X109378029Y-94728714D01*
X109378028Y-94728714D01*
X109378025Y-94728713D01*
X109339740Y-94712856D01*
X109305276Y-94689828D01*
X109275972Y-94660524D01*
X109252944Y-94626060D01*
X109237087Y-94587775D01*
X109236217Y-94583400D01*
X109229000Y-94547123D01*
X109229000Y-94505677D01*
X109237086Y-94465029D01*
X109237086Y-94465028D01*
X109237087Y-94465025D01*
X109252944Y-94426740D01*
X109275972Y-94392276D01*
X109305276Y-94362972D01*
X109339740Y-94339944D01*
X109378025Y-94324087D01*
X109378028Y-94324086D01*
X109378029Y-94324086D01*
X109418677Y-94316000D01*
X109460123Y-94316000D01*
X109500771Y-94324086D01*
X109500771Y-94324086D01*
G37*
G36*
X115100771Y-94324086D02*
G01*
X115100772Y-94324086D01*
X115100775Y-94324087D01*
X115139060Y-94339944D01*
X115173524Y-94362972D01*
X115202828Y-94392276D01*
X115225856Y-94426740D01*
X115241713Y-94465025D01*
X115241714Y-94465028D01*
X115241714Y-94465029D01*
X115249800Y-94505677D01*
X115249800Y-94547123D01*
X115242584Y-94583400D01*
X115241713Y-94587775D01*
X115225856Y-94626060D01*
X115202828Y-94660524D01*
X115173524Y-94689828D01*
X115139060Y-94712856D01*
X115100775Y-94728713D01*
X115100772Y-94728714D01*
X115100771Y-94728714D01*
X115060123Y-94736800D01*
X115018677Y-94736800D01*
X114978029Y-94728714D01*
X114978028Y-94728714D01*
X114978025Y-94728713D01*
X114939740Y-94712856D01*
X114905276Y-94689828D01*
X114875972Y-94660524D01*
X114852944Y-94626060D01*
X114837087Y-94587775D01*
X114836217Y-94583400D01*
X114829000Y-94547123D01*
X114829000Y-94505677D01*
X114837086Y-94465029D01*
X114837086Y-94465028D01*
X114837087Y-94465025D01*
X114852944Y-94426740D01*
X114875972Y-94392276D01*
X114905276Y-94362972D01*
X114939740Y-94339944D01*
X114978025Y-94324087D01*
X114978028Y-94324086D01*
X114978029Y-94324086D01*
X115018677Y-94316000D01*
X115060123Y-94316000D01*
X115100771Y-94324086D01*
X115100771Y-94324086D01*
G37*
G36*
X114300771Y-94324086D02*
G01*
X114300772Y-94324086D01*
X114300775Y-94324087D01*
X114339060Y-94339944D01*
X114373524Y-94362972D01*
X114402828Y-94392276D01*
X114425856Y-94426740D01*
X114441713Y-94465025D01*
X114441714Y-94465028D01*
X114441714Y-94465029D01*
X114449800Y-94505677D01*
X114449800Y-94547123D01*
X114442584Y-94583400D01*
X114441713Y-94587775D01*
X114425856Y-94626060D01*
X114402828Y-94660524D01*
X114373524Y-94689828D01*
X114339060Y-94712856D01*
X114300775Y-94728713D01*
X114300772Y-94728714D01*
X114300771Y-94728714D01*
X114260123Y-94736800D01*
X114218677Y-94736800D01*
X114178029Y-94728714D01*
X114178028Y-94728714D01*
X114178025Y-94728713D01*
X114139740Y-94712856D01*
X114105276Y-94689828D01*
X114075972Y-94660524D01*
X114052944Y-94626060D01*
X114037087Y-94587775D01*
X114036217Y-94583400D01*
X114029000Y-94547123D01*
X114029000Y-94505677D01*
X114037086Y-94465029D01*
X114037086Y-94465028D01*
X114037087Y-94465025D01*
X114052944Y-94426740D01*
X114075972Y-94392276D01*
X114105276Y-94362972D01*
X114139740Y-94339944D01*
X114178025Y-94324087D01*
X114178028Y-94324086D01*
X114178029Y-94324086D01*
X114218677Y-94316000D01*
X114260123Y-94316000D01*
X114300771Y-94324086D01*
X114300771Y-94324086D01*
G37*
G36*
X113500771Y-94324086D02*
G01*
X113500772Y-94324086D01*
X113500775Y-94324087D01*
X113539060Y-94339944D01*
X113573524Y-94362972D01*
X113602828Y-94392276D01*
X113625856Y-94426740D01*
X113641713Y-94465025D01*
X113641714Y-94465028D01*
X113641714Y-94465029D01*
X113649800Y-94505677D01*
X113649800Y-94547123D01*
X113642584Y-94583400D01*
X113641713Y-94587775D01*
X113625856Y-94626060D01*
X113602828Y-94660524D01*
X113573524Y-94689828D01*
X113539060Y-94712856D01*
X113500775Y-94728713D01*
X113500772Y-94728714D01*
X113500771Y-94728714D01*
X113460123Y-94736800D01*
X113418677Y-94736800D01*
X113378029Y-94728714D01*
X113378028Y-94728714D01*
X113378025Y-94728713D01*
X113339740Y-94712856D01*
X113305276Y-94689828D01*
X113275972Y-94660524D01*
X113252944Y-94626060D01*
X113237087Y-94587775D01*
X113236217Y-94583400D01*
X113229000Y-94547123D01*
X113229000Y-94505677D01*
X113237086Y-94465029D01*
X113237086Y-94465028D01*
X113237087Y-94465025D01*
X113252944Y-94426740D01*
X113275972Y-94392276D01*
X113305276Y-94362972D01*
X113339740Y-94339944D01*
X113378025Y-94324087D01*
X113378028Y-94324086D01*
X113378029Y-94324086D01*
X113418677Y-94316000D01*
X113460123Y-94316000D01*
X113500771Y-94324086D01*
X113500771Y-94324086D01*
G37*
G36*
X112700771Y-94324086D02*
G01*
X112700772Y-94324086D01*
X112700775Y-94324087D01*
X112739060Y-94339944D01*
X112773524Y-94362972D01*
X112802828Y-94392276D01*
X112825856Y-94426740D01*
X112841713Y-94465025D01*
X112841714Y-94465028D01*
X112841714Y-94465029D01*
X112849800Y-94505677D01*
X112849800Y-94547123D01*
X112842584Y-94583400D01*
X112841713Y-94587775D01*
X112825856Y-94626060D01*
X112802828Y-94660524D01*
X112773524Y-94689828D01*
X112739060Y-94712856D01*
X112700775Y-94728713D01*
X112700772Y-94728714D01*
X112700771Y-94728714D01*
X112660123Y-94736800D01*
X112618677Y-94736800D01*
X112578029Y-94728714D01*
X112578028Y-94728714D01*
X112578025Y-94728713D01*
X112539740Y-94712856D01*
X112505276Y-94689828D01*
X112475972Y-94660524D01*
X112452944Y-94626060D01*
X112437087Y-94587775D01*
X112436217Y-94583400D01*
X112429000Y-94547123D01*
X112429000Y-94505677D01*
X112437086Y-94465029D01*
X112437086Y-94465028D01*
X112437087Y-94465025D01*
X112452944Y-94426740D01*
X112475972Y-94392276D01*
X112505276Y-94362972D01*
X112539740Y-94339944D01*
X112578025Y-94324087D01*
X112578028Y-94324086D01*
X112578029Y-94324086D01*
X112618677Y-94316000D01*
X112660123Y-94316000D01*
X112700771Y-94324086D01*
X112700771Y-94324086D01*
G37*
G36*
X107900771Y-94324086D02*
G01*
X107900772Y-94324086D01*
X107900775Y-94324087D01*
X107939060Y-94339944D01*
X107973524Y-94362972D01*
X108002828Y-94392276D01*
X108025856Y-94426740D01*
X108041713Y-94465025D01*
X108041714Y-94465028D01*
X108041714Y-94465029D01*
X108049800Y-94505677D01*
X108049800Y-94547123D01*
X108042584Y-94583400D01*
X108041713Y-94587775D01*
X108025856Y-94626060D01*
X108002828Y-94660524D01*
X107973524Y-94689828D01*
X107939060Y-94712856D01*
X107900775Y-94728713D01*
X107900772Y-94728714D01*
X107900771Y-94728714D01*
X107860123Y-94736800D01*
X107818677Y-94736800D01*
X107778029Y-94728714D01*
X107778028Y-94728714D01*
X107778025Y-94728713D01*
X107739740Y-94712856D01*
X107705276Y-94689828D01*
X107675972Y-94660524D01*
X107652944Y-94626060D01*
X107637087Y-94587775D01*
X107636217Y-94583400D01*
X107629000Y-94547123D01*
X107629000Y-94505677D01*
X107637086Y-94465029D01*
X107637086Y-94465028D01*
X107637087Y-94465025D01*
X107652944Y-94426740D01*
X107675972Y-94392276D01*
X107705276Y-94362972D01*
X107739740Y-94339944D01*
X107778025Y-94324087D01*
X107778028Y-94324086D01*
X107778029Y-94324086D01*
X107818677Y-94316000D01*
X107860123Y-94316000D01*
X107900771Y-94324086D01*
X107900771Y-94324086D01*
G37*
G36*
X108700771Y-94324086D02*
G01*
X108700772Y-94324086D01*
X108700775Y-94324087D01*
X108739060Y-94339944D01*
X108773524Y-94362972D01*
X108802828Y-94392276D01*
X108825856Y-94426740D01*
X108841713Y-94465025D01*
X108841714Y-94465028D01*
X108841714Y-94465029D01*
X108849800Y-94505677D01*
X108849800Y-94547123D01*
X108842584Y-94583400D01*
X108841713Y-94587775D01*
X108825856Y-94626060D01*
X108802828Y-94660524D01*
X108773524Y-94689828D01*
X108739060Y-94712856D01*
X108700775Y-94728713D01*
X108700772Y-94728714D01*
X108700771Y-94728714D01*
X108660123Y-94736800D01*
X108618677Y-94736800D01*
X108578029Y-94728714D01*
X108578028Y-94728714D01*
X108578025Y-94728713D01*
X108539740Y-94712856D01*
X108505276Y-94689828D01*
X108475972Y-94660524D01*
X108452944Y-94626060D01*
X108437087Y-94587775D01*
X108436217Y-94583400D01*
X108429000Y-94547123D01*
X108429000Y-94505677D01*
X108437086Y-94465029D01*
X108437086Y-94465028D01*
X108437087Y-94465025D01*
X108452944Y-94426740D01*
X108475972Y-94392276D01*
X108505276Y-94362972D01*
X108539740Y-94339944D01*
X108578025Y-94324087D01*
X108578028Y-94324086D01*
X108578029Y-94324086D01*
X108618677Y-94316000D01*
X108660123Y-94316000D01*
X108700771Y-94324086D01*
X108700771Y-94324086D01*
G37*
G36*
X111100771Y-94324086D02*
G01*
X111100772Y-94324086D01*
X111100775Y-94324087D01*
X111139060Y-94339944D01*
X111173524Y-94362972D01*
X111202828Y-94392276D01*
X111225856Y-94426740D01*
X111241713Y-94465025D01*
X111241714Y-94465028D01*
X111241714Y-94465029D01*
X111249800Y-94505677D01*
X111249800Y-94547123D01*
X111242584Y-94583400D01*
X111241713Y-94587775D01*
X111225856Y-94626060D01*
X111202828Y-94660524D01*
X111173524Y-94689828D01*
X111139060Y-94712856D01*
X111100775Y-94728713D01*
X111100772Y-94728714D01*
X111100771Y-94728714D01*
X111060123Y-94736800D01*
X111018677Y-94736800D01*
X110978029Y-94728714D01*
X110978028Y-94728714D01*
X110978025Y-94728713D01*
X110939740Y-94712856D01*
X110905276Y-94689828D01*
X110875972Y-94660524D01*
X110852944Y-94626060D01*
X110837087Y-94587775D01*
X110836217Y-94583400D01*
X110829000Y-94547123D01*
X110829000Y-94505677D01*
X110837086Y-94465029D01*
X110837086Y-94465028D01*
X110837087Y-94465025D01*
X110852944Y-94426740D01*
X110875972Y-94392276D01*
X110905276Y-94362972D01*
X110939740Y-94339944D01*
X110978025Y-94324087D01*
X110978028Y-94324086D01*
X110978029Y-94324086D01*
X111018677Y-94316000D01*
X111060123Y-94316000D01*
X111100771Y-94324086D01*
X111100771Y-94324086D01*
G37*
G36*
X110300771Y-94324086D02*
G01*
X110300772Y-94324086D01*
X110300775Y-94324087D01*
X110339060Y-94339944D01*
X110373524Y-94362972D01*
X110402828Y-94392276D01*
X110425856Y-94426740D01*
X110441713Y-94465025D01*
X110441714Y-94465028D01*
X110441714Y-94465029D01*
X110449800Y-94505677D01*
X110449800Y-94547123D01*
X110442584Y-94583400D01*
X110441713Y-94587775D01*
X110425856Y-94626060D01*
X110402828Y-94660524D01*
X110373524Y-94689828D01*
X110339060Y-94712856D01*
X110300775Y-94728713D01*
X110300772Y-94728714D01*
X110300771Y-94728714D01*
X110260123Y-94736800D01*
X110218677Y-94736800D01*
X110178029Y-94728714D01*
X110178028Y-94728714D01*
X110178025Y-94728713D01*
X110139740Y-94712856D01*
X110105276Y-94689828D01*
X110075972Y-94660524D01*
X110052944Y-94626060D01*
X110037087Y-94587775D01*
X110036217Y-94583400D01*
X110029000Y-94547123D01*
X110029000Y-94505677D01*
X110037086Y-94465029D01*
X110037086Y-94465028D01*
X110037087Y-94465025D01*
X110052944Y-94426740D01*
X110075972Y-94392276D01*
X110105276Y-94362972D01*
X110139740Y-94339944D01*
X110178025Y-94324087D01*
X110178028Y-94324086D01*
X110178029Y-94324086D01*
X110218677Y-94316000D01*
X110260123Y-94316000D01*
X110300771Y-94324086D01*
X110300771Y-94324086D01*
G37*
G36*
X111900771Y-94324086D02*
G01*
X111900772Y-94324086D01*
X111900775Y-94324087D01*
X111939060Y-94339944D01*
X111973524Y-94362972D01*
X112002828Y-94392276D01*
X112025856Y-94426740D01*
X112041713Y-94465025D01*
X112041714Y-94465028D01*
X112041714Y-94465029D01*
X112049800Y-94505677D01*
X112049800Y-94547123D01*
X112042584Y-94583400D01*
X112041713Y-94587775D01*
X112025856Y-94626060D01*
X112002828Y-94660524D01*
X111973524Y-94689828D01*
X111939060Y-94712856D01*
X111900775Y-94728713D01*
X111900772Y-94728714D01*
X111900771Y-94728714D01*
X111860123Y-94736800D01*
X111818677Y-94736800D01*
X111778029Y-94728714D01*
X111778028Y-94728714D01*
X111778025Y-94728713D01*
X111739740Y-94712856D01*
X111705276Y-94689828D01*
X111675972Y-94660524D01*
X111652944Y-94626060D01*
X111637087Y-94587775D01*
X111636217Y-94583400D01*
X111629000Y-94547123D01*
X111629000Y-94505677D01*
X111637086Y-94465029D01*
X111637086Y-94465028D01*
X111637087Y-94465025D01*
X111652944Y-94426740D01*
X111675972Y-94392276D01*
X111705276Y-94362972D01*
X111739740Y-94339944D01*
X111778025Y-94324087D01*
X111778028Y-94324086D01*
X111778029Y-94324086D01*
X111818677Y-94316000D01*
X111860123Y-94316000D01*
X111900771Y-94324086D01*
X111900771Y-94324086D01*
G37*
G36*
X117475081Y-94122584D02*
G01*
X117495881Y-94131200D01*
X117516683Y-94139816D01*
X117541588Y-94156457D01*
X117554126Y-94164835D01*
X117585964Y-94196673D01*
X117585965Y-94196675D01*
X117610983Y-94234116D01*
X117628215Y-94275719D01*
X117637000Y-94319884D01*
X117637000Y-94364914D01*
X117628215Y-94409079D01*
X117610983Y-94450682D01*
X117601399Y-94465025D01*
X117585964Y-94488125D01*
X117554126Y-94519963D01*
X117541588Y-94528341D01*
X117516683Y-94544982D01*
X117475081Y-94562214D01*
X117430915Y-94570999D01*
X117385885Y-94570999D01*
X117341719Y-94562214D01*
X117300117Y-94544982D01*
X117275212Y-94528341D01*
X117262674Y-94519963D01*
X117230836Y-94488125D01*
X117215401Y-94465025D01*
X117205817Y-94450682D01*
X117188585Y-94409079D01*
X117179800Y-94364914D01*
X117179800Y-94319884D01*
X117188585Y-94275719D01*
X117205817Y-94234116D01*
X117230835Y-94196675D01*
X117230836Y-94196673D01*
X117262674Y-94164835D01*
X117275212Y-94156457D01*
X117300117Y-94139816D01*
X117320919Y-94131200D01*
X117341719Y-94122584D01*
X117385885Y-94113799D01*
X117430915Y-94113799D01*
X117475081Y-94122584D01*
X117475081Y-94122584D01*
G37*
G36*
X102312800Y-94234200D02*
G01*
X101262000Y-94234200D01*
X101262000Y-93483400D01*
X102312800Y-93483400D01*
X102312800Y-94234200D01*
X102312800Y-94234200D01*
G37*
G36*
X116865481Y-93639984D02*
G01*
X116886281Y-93648600D01*
X116907083Y-93657216D01*
X116931988Y-93673857D01*
X116944526Y-93682235D01*
X116976364Y-93714073D01*
X116976365Y-93714075D01*
X117001383Y-93751516D01*
X117001383Y-93751517D01*
X117018615Y-93793118D01*
X117027400Y-93837284D01*
X117027400Y-93882314D01*
X117018615Y-93926480D01*
X117014340Y-93936800D01*
X117001383Y-93968082D01*
X116984742Y-93992987D01*
X116976364Y-94005525D01*
X116944526Y-94037363D01*
X116931988Y-94045741D01*
X116907083Y-94062382D01*
X116865481Y-94079614D01*
X116821315Y-94088399D01*
X116776285Y-94088399D01*
X116732119Y-94079614D01*
X116690517Y-94062382D01*
X116665612Y-94045741D01*
X116653074Y-94037363D01*
X116621236Y-94005525D01*
X116612858Y-93992987D01*
X116596217Y-93968082D01*
X116583260Y-93936800D01*
X116578985Y-93926480D01*
X116570200Y-93882314D01*
X116570200Y-93837284D01*
X116578985Y-93793118D01*
X116596217Y-93751517D01*
X116596217Y-93751516D01*
X116621235Y-93714075D01*
X116621236Y-93714073D01*
X116653074Y-93682235D01*
X116665612Y-93673857D01*
X116690517Y-93657216D01*
X116711319Y-93648600D01*
X116732119Y-93639984D01*
X116776285Y-93631199D01*
X116821315Y-93631199D01*
X116865481Y-93639984D01*
X116865481Y-93639984D01*
G37*
G36*
X109500771Y-93524086D02*
G01*
X109500772Y-93524086D01*
X109500775Y-93524087D01*
X109539060Y-93539944D01*
X109573524Y-93562972D01*
X109602828Y-93592276D01*
X109625856Y-93626740D01*
X109641713Y-93665025D01*
X109641714Y-93665028D01*
X109641714Y-93665029D01*
X109645137Y-93682235D01*
X109649800Y-93705678D01*
X109649800Y-93747122D01*
X109641713Y-93787775D01*
X109625856Y-93826060D01*
X109602828Y-93860524D01*
X109573524Y-93889828D01*
X109539060Y-93912856D01*
X109500775Y-93928713D01*
X109500772Y-93928714D01*
X109500771Y-93928714D01*
X109460123Y-93936800D01*
X109418677Y-93936800D01*
X109378029Y-93928714D01*
X109378028Y-93928714D01*
X109378025Y-93928713D01*
X109339740Y-93912856D01*
X109305276Y-93889828D01*
X109275972Y-93860524D01*
X109252944Y-93826060D01*
X109237087Y-93787775D01*
X109229000Y-93747122D01*
X109229000Y-93705678D01*
X109233663Y-93682235D01*
X109237086Y-93665029D01*
X109237086Y-93665028D01*
X109237087Y-93665025D01*
X109252944Y-93626740D01*
X109275972Y-93592276D01*
X109305276Y-93562972D01*
X109339740Y-93539944D01*
X109378025Y-93524087D01*
X109378028Y-93524086D01*
X109378029Y-93524086D01*
X109418677Y-93516000D01*
X109460123Y-93516000D01*
X109500771Y-93524086D01*
X109500771Y-93524086D01*
G37*
G36*
X110300771Y-93524086D02*
G01*
X110300772Y-93524086D01*
X110300775Y-93524087D01*
X110339060Y-93539944D01*
X110373524Y-93562972D01*
X110402828Y-93592276D01*
X110425856Y-93626740D01*
X110441713Y-93665025D01*
X110441714Y-93665028D01*
X110441714Y-93665029D01*
X110445137Y-93682235D01*
X110449800Y-93705678D01*
X110449800Y-93747122D01*
X110441713Y-93787775D01*
X110425856Y-93826060D01*
X110402828Y-93860524D01*
X110373524Y-93889828D01*
X110339060Y-93912856D01*
X110300775Y-93928713D01*
X110300772Y-93928714D01*
X110300771Y-93928714D01*
X110260123Y-93936800D01*
X110218677Y-93936800D01*
X110178029Y-93928714D01*
X110178028Y-93928714D01*
X110178025Y-93928713D01*
X110139740Y-93912856D01*
X110105276Y-93889828D01*
X110075972Y-93860524D01*
X110052944Y-93826060D01*
X110037087Y-93787775D01*
X110029000Y-93747122D01*
X110029000Y-93705678D01*
X110033663Y-93682235D01*
X110037086Y-93665029D01*
X110037086Y-93665028D01*
X110037087Y-93665025D01*
X110052944Y-93626740D01*
X110075972Y-93592276D01*
X110105276Y-93562972D01*
X110139740Y-93539944D01*
X110178025Y-93524087D01*
X110178028Y-93524086D01*
X110178029Y-93524086D01*
X110218677Y-93516000D01*
X110260123Y-93516000D01*
X110300771Y-93524086D01*
X110300771Y-93524086D01*
G37*
G36*
X111100771Y-93524086D02*
G01*
X111100772Y-93524086D01*
X111100775Y-93524087D01*
X111139060Y-93539944D01*
X111173524Y-93562972D01*
X111202828Y-93592276D01*
X111225856Y-93626740D01*
X111241713Y-93665025D01*
X111241714Y-93665028D01*
X111241714Y-93665029D01*
X111245137Y-93682235D01*
X111249800Y-93705678D01*
X111249800Y-93747122D01*
X111241713Y-93787775D01*
X111225856Y-93826060D01*
X111202828Y-93860524D01*
X111173524Y-93889828D01*
X111139060Y-93912856D01*
X111100775Y-93928713D01*
X111100772Y-93928714D01*
X111100771Y-93928714D01*
X111060123Y-93936800D01*
X111018677Y-93936800D01*
X110978029Y-93928714D01*
X110978028Y-93928714D01*
X110978025Y-93928713D01*
X110939740Y-93912856D01*
X110905276Y-93889828D01*
X110875972Y-93860524D01*
X110852944Y-93826060D01*
X110837087Y-93787775D01*
X110829000Y-93747122D01*
X110829000Y-93705678D01*
X110833663Y-93682235D01*
X110837086Y-93665029D01*
X110837086Y-93665028D01*
X110837087Y-93665025D01*
X110852944Y-93626740D01*
X110875972Y-93592276D01*
X110905276Y-93562972D01*
X110939740Y-93539944D01*
X110978025Y-93524087D01*
X110978028Y-93524086D01*
X110978029Y-93524086D01*
X111018677Y-93516000D01*
X111060123Y-93516000D01*
X111100771Y-93524086D01*
X111100771Y-93524086D01*
G37*
G36*
X111900771Y-93524086D02*
G01*
X111900772Y-93524086D01*
X111900775Y-93524087D01*
X111939060Y-93539944D01*
X111973524Y-93562972D01*
X112002828Y-93592276D01*
X112025856Y-93626740D01*
X112041713Y-93665025D01*
X112041714Y-93665028D01*
X112041714Y-93665029D01*
X112045137Y-93682235D01*
X112049800Y-93705678D01*
X112049800Y-93747122D01*
X112041713Y-93787775D01*
X112025856Y-93826060D01*
X112002828Y-93860524D01*
X111973524Y-93889828D01*
X111939060Y-93912856D01*
X111900775Y-93928713D01*
X111900772Y-93928714D01*
X111900771Y-93928714D01*
X111860123Y-93936800D01*
X111818677Y-93936800D01*
X111778029Y-93928714D01*
X111778028Y-93928714D01*
X111778025Y-93928713D01*
X111739740Y-93912856D01*
X111705276Y-93889828D01*
X111675972Y-93860524D01*
X111652944Y-93826060D01*
X111637087Y-93787775D01*
X111629000Y-93747122D01*
X111629000Y-93705678D01*
X111633663Y-93682235D01*
X111637086Y-93665029D01*
X111637086Y-93665028D01*
X111637087Y-93665025D01*
X111652944Y-93626740D01*
X111675972Y-93592276D01*
X111705276Y-93562972D01*
X111739740Y-93539944D01*
X111778025Y-93524087D01*
X111778028Y-93524086D01*
X111778029Y-93524086D01*
X111818677Y-93516000D01*
X111860123Y-93516000D01*
X111900771Y-93524086D01*
X111900771Y-93524086D01*
G37*
G36*
X112700771Y-93524086D02*
G01*
X112700772Y-93524086D01*
X112700775Y-93524087D01*
X112739060Y-93539944D01*
X112773524Y-93562972D01*
X112802828Y-93592276D01*
X112825856Y-93626740D01*
X112841713Y-93665025D01*
X112841714Y-93665028D01*
X112841714Y-93665029D01*
X112845137Y-93682235D01*
X112849800Y-93705678D01*
X112849800Y-93747122D01*
X112841713Y-93787775D01*
X112825856Y-93826060D01*
X112802828Y-93860524D01*
X112773524Y-93889828D01*
X112739060Y-93912856D01*
X112700775Y-93928713D01*
X112700772Y-93928714D01*
X112700771Y-93928714D01*
X112660123Y-93936800D01*
X112618677Y-93936800D01*
X112578029Y-93928714D01*
X112578028Y-93928714D01*
X112578025Y-93928713D01*
X112539740Y-93912856D01*
X112505276Y-93889828D01*
X112475972Y-93860524D01*
X112452944Y-93826060D01*
X112437087Y-93787775D01*
X112429000Y-93747122D01*
X112429000Y-93705678D01*
X112433663Y-93682235D01*
X112437086Y-93665029D01*
X112437086Y-93665028D01*
X112437087Y-93665025D01*
X112452944Y-93626740D01*
X112475972Y-93592276D01*
X112505276Y-93562972D01*
X112539740Y-93539944D01*
X112578025Y-93524087D01*
X112578028Y-93524086D01*
X112578029Y-93524086D01*
X112618677Y-93516000D01*
X112660123Y-93516000D01*
X112700771Y-93524086D01*
X112700771Y-93524086D01*
G37*
G36*
X114300771Y-93524086D02*
G01*
X114300772Y-93524086D01*
X114300775Y-93524087D01*
X114339060Y-93539944D01*
X114373524Y-93562972D01*
X114402828Y-93592276D01*
X114425856Y-93626740D01*
X114441713Y-93665025D01*
X114441714Y-93665028D01*
X114441714Y-93665029D01*
X114445137Y-93682235D01*
X114449800Y-93705678D01*
X114449800Y-93747122D01*
X114441713Y-93787775D01*
X114425856Y-93826060D01*
X114402828Y-93860524D01*
X114373524Y-93889828D01*
X114339060Y-93912856D01*
X114300775Y-93928713D01*
X114300772Y-93928714D01*
X114300771Y-93928714D01*
X114260123Y-93936800D01*
X114218677Y-93936800D01*
X114178029Y-93928714D01*
X114178028Y-93928714D01*
X114178025Y-93928713D01*
X114139740Y-93912856D01*
X114105276Y-93889828D01*
X114075972Y-93860524D01*
X114052944Y-93826060D01*
X114037087Y-93787775D01*
X114029000Y-93747122D01*
X114029000Y-93705678D01*
X114033663Y-93682235D01*
X114037086Y-93665029D01*
X114037086Y-93665028D01*
X114037087Y-93665025D01*
X114052944Y-93626740D01*
X114075972Y-93592276D01*
X114105276Y-93562972D01*
X114139740Y-93539944D01*
X114178025Y-93524087D01*
X114178028Y-93524086D01*
X114178029Y-93524086D01*
X114218677Y-93516000D01*
X114260123Y-93516000D01*
X114300771Y-93524086D01*
X114300771Y-93524086D01*
G37*
G36*
X115100771Y-93524086D02*
G01*
X115100772Y-93524086D01*
X115100775Y-93524087D01*
X115139060Y-93539944D01*
X115173524Y-93562972D01*
X115202828Y-93592276D01*
X115225856Y-93626740D01*
X115241713Y-93665025D01*
X115241714Y-93665028D01*
X115241714Y-93665029D01*
X115245137Y-93682235D01*
X115249800Y-93705678D01*
X115249800Y-93747122D01*
X115241713Y-93787775D01*
X115225856Y-93826060D01*
X115202828Y-93860524D01*
X115173524Y-93889828D01*
X115139060Y-93912856D01*
X115100775Y-93928713D01*
X115100772Y-93928714D01*
X115100771Y-93928714D01*
X115060123Y-93936800D01*
X115018677Y-93936800D01*
X114978029Y-93928714D01*
X114978028Y-93928714D01*
X114978025Y-93928713D01*
X114939740Y-93912856D01*
X114905276Y-93889828D01*
X114875972Y-93860524D01*
X114852944Y-93826060D01*
X114837087Y-93787775D01*
X114829000Y-93747122D01*
X114829000Y-93705678D01*
X114833663Y-93682235D01*
X114837086Y-93665029D01*
X114837086Y-93665028D01*
X114837087Y-93665025D01*
X114852944Y-93626740D01*
X114875972Y-93592276D01*
X114905276Y-93562972D01*
X114939740Y-93539944D01*
X114978025Y-93524087D01*
X114978028Y-93524086D01*
X114978029Y-93524086D01*
X115018677Y-93516000D01*
X115060123Y-93516000D01*
X115100771Y-93524086D01*
X115100771Y-93524086D01*
G37*
G36*
X108700771Y-93524086D02*
G01*
X108700772Y-93524086D01*
X108700775Y-93524087D01*
X108739060Y-93539944D01*
X108773524Y-93562972D01*
X108802828Y-93592276D01*
X108825856Y-93626740D01*
X108841713Y-93665025D01*
X108841714Y-93665028D01*
X108841714Y-93665029D01*
X108845137Y-93682235D01*
X108849800Y-93705678D01*
X108849800Y-93747122D01*
X108841713Y-93787775D01*
X108825856Y-93826060D01*
X108802828Y-93860524D01*
X108773524Y-93889828D01*
X108739060Y-93912856D01*
X108700775Y-93928713D01*
X108700772Y-93928714D01*
X108700771Y-93928714D01*
X108660123Y-93936800D01*
X108618677Y-93936800D01*
X108578029Y-93928714D01*
X108578028Y-93928714D01*
X108578025Y-93928713D01*
X108539740Y-93912856D01*
X108505276Y-93889828D01*
X108475972Y-93860524D01*
X108452944Y-93826060D01*
X108437087Y-93787775D01*
X108429000Y-93747122D01*
X108429000Y-93705678D01*
X108433663Y-93682235D01*
X108437086Y-93665029D01*
X108437086Y-93665028D01*
X108437087Y-93665025D01*
X108452944Y-93626740D01*
X108475972Y-93592276D01*
X108505276Y-93562972D01*
X108539740Y-93539944D01*
X108578025Y-93524087D01*
X108578028Y-93524086D01*
X108578029Y-93524086D01*
X108618677Y-93516000D01*
X108660123Y-93516000D01*
X108700771Y-93524086D01*
X108700771Y-93524086D01*
G37*
G36*
X107900771Y-93524086D02*
G01*
X107900772Y-93524086D01*
X107900775Y-93524087D01*
X107939060Y-93539944D01*
X107973524Y-93562972D01*
X108002828Y-93592276D01*
X108025856Y-93626740D01*
X108041713Y-93665025D01*
X108041714Y-93665028D01*
X108041714Y-93665029D01*
X108045137Y-93682235D01*
X108049800Y-93705678D01*
X108049800Y-93747122D01*
X108041713Y-93787775D01*
X108025856Y-93826060D01*
X108002828Y-93860524D01*
X107973524Y-93889828D01*
X107939060Y-93912856D01*
X107900775Y-93928713D01*
X107900772Y-93928714D01*
X107900771Y-93928714D01*
X107860123Y-93936800D01*
X107818677Y-93936800D01*
X107778029Y-93928714D01*
X107778028Y-93928714D01*
X107778025Y-93928713D01*
X107739740Y-93912856D01*
X107705276Y-93889828D01*
X107675972Y-93860524D01*
X107652944Y-93826060D01*
X107637087Y-93787775D01*
X107629000Y-93747122D01*
X107629000Y-93705678D01*
X107633663Y-93682235D01*
X107637086Y-93665029D01*
X107637086Y-93665028D01*
X107637087Y-93665025D01*
X107652944Y-93626740D01*
X107675972Y-93592276D01*
X107705276Y-93562972D01*
X107739740Y-93539944D01*
X107778025Y-93524087D01*
X107778028Y-93524086D01*
X107778029Y-93524086D01*
X107818677Y-93516000D01*
X107860123Y-93516000D01*
X107900771Y-93524086D01*
X107900771Y-93524086D01*
G37*
G36*
X113500771Y-93524086D02*
G01*
X113500772Y-93524086D01*
X113500775Y-93524087D01*
X113539060Y-93539944D01*
X113573524Y-93562972D01*
X113602828Y-93592276D01*
X113625856Y-93626740D01*
X113641713Y-93665025D01*
X113641714Y-93665028D01*
X113641714Y-93665029D01*
X113645137Y-93682235D01*
X113649800Y-93705678D01*
X113649800Y-93747122D01*
X113641713Y-93787775D01*
X113625856Y-93826060D01*
X113602828Y-93860524D01*
X113573524Y-93889828D01*
X113539060Y-93912856D01*
X113500775Y-93928713D01*
X113500772Y-93928714D01*
X113500771Y-93928714D01*
X113460123Y-93936800D01*
X113418677Y-93936800D01*
X113378029Y-93928714D01*
X113378028Y-93928714D01*
X113378025Y-93928713D01*
X113339740Y-93912856D01*
X113305276Y-93889828D01*
X113275972Y-93860524D01*
X113252944Y-93826060D01*
X113237087Y-93787775D01*
X113229000Y-93747122D01*
X113229000Y-93705678D01*
X113233663Y-93682235D01*
X113237086Y-93665029D01*
X113237086Y-93665028D01*
X113237087Y-93665025D01*
X113252944Y-93626740D01*
X113275972Y-93592276D01*
X113305276Y-93562972D01*
X113339740Y-93539944D01*
X113378025Y-93524087D01*
X113378028Y-93524086D01*
X113378029Y-93524086D01*
X113418677Y-93516000D01*
X113460123Y-93516000D01*
X113500771Y-93524086D01*
X113500771Y-93524086D01*
G37*
G36*
X117475081Y-93157385D02*
G01*
X117495881Y-93166001D01*
X117516683Y-93174617D01*
X117541588Y-93191258D01*
X117554126Y-93199636D01*
X117585964Y-93231474D01*
X117585965Y-93231476D01*
X117610983Y-93268917D01*
X117628215Y-93310520D01*
X117637000Y-93354685D01*
X117637000Y-93399715D01*
X117628215Y-93443880D01*
X117610983Y-93485483D01*
X117594342Y-93510388D01*
X117585964Y-93522926D01*
X117554126Y-93554764D01*
X117541842Y-93562972D01*
X117516683Y-93579783D01*
X117475081Y-93597015D01*
X117430915Y-93605800D01*
X117385885Y-93605800D01*
X117341719Y-93597015D01*
X117320919Y-93588399D01*
X117300117Y-93579783D01*
X117274958Y-93562972D01*
X117262674Y-93554764D01*
X117230836Y-93522926D01*
X117222458Y-93510388D01*
X117205817Y-93485483D01*
X117188585Y-93443880D01*
X117179800Y-93399715D01*
X117179800Y-93354685D01*
X117188585Y-93310520D01*
X117205817Y-93268917D01*
X117230835Y-93231476D01*
X117230836Y-93231474D01*
X117262674Y-93199636D01*
X117275212Y-93191258D01*
X117300117Y-93174617D01*
X117320919Y-93166001D01*
X117341719Y-93157385D01*
X117385885Y-93148600D01*
X117430915Y-93148600D01*
X117475081Y-93157385D01*
X117475081Y-93157385D01*
G37*
G36*
X111900771Y-92724086D02*
G01*
X111900772Y-92724086D01*
X111900775Y-92724087D01*
X111939060Y-92739944D01*
X111973524Y-92762972D01*
X112002828Y-92792276D01*
X112025856Y-92826740D01*
X112041713Y-92865025D01*
X112049800Y-92905678D01*
X112049800Y-92947122D01*
X112041713Y-92987775D01*
X112025856Y-93026060D01*
X112002828Y-93060524D01*
X111973524Y-93089828D01*
X111939060Y-93112856D01*
X111900775Y-93128713D01*
X111900772Y-93128714D01*
X111900771Y-93128714D01*
X111860123Y-93136800D01*
X111818677Y-93136800D01*
X111778029Y-93128714D01*
X111778028Y-93128714D01*
X111778025Y-93128713D01*
X111739740Y-93112856D01*
X111705276Y-93089828D01*
X111675972Y-93060524D01*
X111652944Y-93026060D01*
X111637087Y-92987775D01*
X111629000Y-92947122D01*
X111629000Y-92905678D01*
X111637087Y-92865025D01*
X111652944Y-92826740D01*
X111675972Y-92792276D01*
X111705276Y-92762972D01*
X111739740Y-92739944D01*
X111778025Y-92724087D01*
X111778028Y-92724086D01*
X111778029Y-92724086D01*
X111818677Y-92716000D01*
X111860123Y-92716000D01*
X111900771Y-92724086D01*
X111900771Y-92724086D01*
G37*
G36*
X107900771Y-92724086D02*
G01*
X107900772Y-92724086D01*
X107900775Y-92724087D01*
X107939060Y-92739944D01*
X107973524Y-92762972D01*
X108002828Y-92792276D01*
X108025856Y-92826740D01*
X108041713Y-92865025D01*
X108049800Y-92905678D01*
X108049800Y-92947122D01*
X108041713Y-92987775D01*
X108025856Y-93026060D01*
X108002828Y-93060524D01*
X107973524Y-93089828D01*
X107939060Y-93112856D01*
X107900775Y-93128713D01*
X107900772Y-93128714D01*
X107900771Y-93128714D01*
X107860123Y-93136800D01*
X107818677Y-93136800D01*
X107778029Y-93128714D01*
X107778028Y-93128714D01*
X107778025Y-93128713D01*
X107739740Y-93112856D01*
X107705276Y-93089828D01*
X107675972Y-93060524D01*
X107652944Y-93026060D01*
X107637087Y-92987775D01*
X107629000Y-92947122D01*
X107629000Y-92905678D01*
X107637087Y-92865025D01*
X107652944Y-92826740D01*
X107675972Y-92792276D01*
X107705276Y-92762972D01*
X107739740Y-92739944D01*
X107778025Y-92724087D01*
X107778028Y-92724086D01*
X107778029Y-92724086D01*
X107818677Y-92716000D01*
X107860123Y-92716000D01*
X107900771Y-92724086D01*
X107900771Y-92724086D01*
G37*
G36*
X109500771Y-92724086D02*
G01*
X109500772Y-92724086D01*
X109500775Y-92724087D01*
X109539060Y-92739944D01*
X109573524Y-92762972D01*
X109602828Y-92792276D01*
X109625856Y-92826740D01*
X109641713Y-92865025D01*
X109649800Y-92905678D01*
X109649800Y-92947122D01*
X109641713Y-92987775D01*
X109625856Y-93026060D01*
X109602828Y-93060524D01*
X109573524Y-93089828D01*
X109539060Y-93112856D01*
X109500775Y-93128713D01*
X109500772Y-93128714D01*
X109500771Y-93128714D01*
X109460123Y-93136800D01*
X109418677Y-93136800D01*
X109378029Y-93128714D01*
X109378028Y-93128714D01*
X109378025Y-93128713D01*
X109339740Y-93112856D01*
X109305276Y-93089828D01*
X109275972Y-93060524D01*
X109252944Y-93026060D01*
X109237087Y-92987775D01*
X109229000Y-92947122D01*
X109229000Y-92905678D01*
X109237087Y-92865025D01*
X109252944Y-92826740D01*
X109275972Y-92792276D01*
X109305276Y-92762972D01*
X109339740Y-92739944D01*
X109378025Y-92724087D01*
X109378028Y-92724086D01*
X109378029Y-92724086D01*
X109418677Y-92716000D01*
X109460123Y-92716000D01*
X109500771Y-92724086D01*
X109500771Y-92724086D01*
G37*
G36*
X110300771Y-92724086D02*
G01*
X110300772Y-92724086D01*
X110300775Y-92724087D01*
X110339060Y-92739944D01*
X110373524Y-92762972D01*
X110402828Y-92792276D01*
X110425856Y-92826740D01*
X110441713Y-92865025D01*
X110449800Y-92905678D01*
X110449800Y-92947122D01*
X110441713Y-92987775D01*
X110425856Y-93026060D01*
X110402828Y-93060524D01*
X110373524Y-93089828D01*
X110339060Y-93112856D01*
X110300775Y-93128713D01*
X110300772Y-93128714D01*
X110300771Y-93128714D01*
X110260123Y-93136800D01*
X110218677Y-93136800D01*
X110178029Y-93128714D01*
X110178028Y-93128714D01*
X110178025Y-93128713D01*
X110139740Y-93112856D01*
X110105276Y-93089828D01*
X110075972Y-93060524D01*
X110052944Y-93026060D01*
X110037087Y-92987775D01*
X110029000Y-92947122D01*
X110029000Y-92905678D01*
X110037087Y-92865025D01*
X110052944Y-92826740D01*
X110075972Y-92792276D01*
X110105276Y-92762972D01*
X110139740Y-92739944D01*
X110178025Y-92724087D01*
X110178028Y-92724086D01*
X110178029Y-92724086D01*
X110218677Y-92716000D01*
X110260123Y-92716000D01*
X110300771Y-92724086D01*
X110300771Y-92724086D01*
G37*
G36*
X111100771Y-92724086D02*
G01*
X111100772Y-92724086D01*
X111100775Y-92724087D01*
X111139060Y-92739944D01*
X111173524Y-92762972D01*
X111202828Y-92792276D01*
X111225856Y-92826740D01*
X111241713Y-92865025D01*
X111249800Y-92905678D01*
X111249800Y-92947122D01*
X111241713Y-92987775D01*
X111225856Y-93026060D01*
X111202828Y-93060524D01*
X111173524Y-93089828D01*
X111139060Y-93112856D01*
X111100775Y-93128713D01*
X111100772Y-93128714D01*
X111100771Y-93128714D01*
X111060123Y-93136800D01*
X111018677Y-93136800D01*
X110978029Y-93128714D01*
X110978028Y-93128714D01*
X110978025Y-93128713D01*
X110939740Y-93112856D01*
X110905276Y-93089828D01*
X110875972Y-93060524D01*
X110852944Y-93026060D01*
X110837087Y-92987775D01*
X110829000Y-92947122D01*
X110829000Y-92905678D01*
X110837087Y-92865025D01*
X110852944Y-92826740D01*
X110875972Y-92792276D01*
X110905276Y-92762972D01*
X110939740Y-92739944D01*
X110978025Y-92724087D01*
X110978028Y-92724086D01*
X110978029Y-92724086D01*
X111018677Y-92716000D01*
X111060123Y-92716000D01*
X111100771Y-92724086D01*
X111100771Y-92724086D01*
G37*
G36*
X112700771Y-92724086D02*
G01*
X112700772Y-92724086D01*
X112700775Y-92724087D01*
X112739060Y-92739944D01*
X112773524Y-92762972D01*
X112802828Y-92792276D01*
X112825856Y-92826740D01*
X112841713Y-92865025D01*
X112849800Y-92905678D01*
X112849800Y-92947122D01*
X112841713Y-92987775D01*
X112825856Y-93026060D01*
X112802828Y-93060524D01*
X112773524Y-93089828D01*
X112739060Y-93112856D01*
X112700775Y-93128713D01*
X112700772Y-93128714D01*
X112700771Y-93128714D01*
X112660123Y-93136800D01*
X112618677Y-93136800D01*
X112578029Y-93128714D01*
X112578028Y-93128714D01*
X112578025Y-93128713D01*
X112539740Y-93112856D01*
X112505276Y-93089828D01*
X112475972Y-93060524D01*
X112452944Y-93026060D01*
X112437087Y-92987775D01*
X112429000Y-92947122D01*
X112429000Y-92905678D01*
X112437087Y-92865025D01*
X112452944Y-92826740D01*
X112475972Y-92792276D01*
X112505276Y-92762972D01*
X112539740Y-92739944D01*
X112578025Y-92724087D01*
X112578028Y-92724086D01*
X112578029Y-92724086D01*
X112618677Y-92716000D01*
X112660123Y-92716000D01*
X112700771Y-92724086D01*
X112700771Y-92724086D01*
G37*
G36*
X113500771Y-92724086D02*
G01*
X113500772Y-92724086D01*
X113500775Y-92724087D01*
X113539060Y-92739944D01*
X113573524Y-92762972D01*
X113602828Y-92792276D01*
X113625856Y-92826740D01*
X113641713Y-92865025D01*
X113649800Y-92905678D01*
X113649800Y-92947122D01*
X113641713Y-92987775D01*
X113625856Y-93026060D01*
X113602828Y-93060524D01*
X113573524Y-93089828D01*
X113539060Y-93112856D01*
X113500775Y-93128713D01*
X113500772Y-93128714D01*
X113500771Y-93128714D01*
X113460123Y-93136800D01*
X113418677Y-93136800D01*
X113378029Y-93128714D01*
X113378028Y-93128714D01*
X113378025Y-93128713D01*
X113339740Y-93112856D01*
X113305276Y-93089828D01*
X113275972Y-93060524D01*
X113252944Y-93026060D01*
X113237087Y-92987775D01*
X113229000Y-92947122D01*
X113229000Y-92905678D01*
X113237087Y-92865025D01*
X113252944Y-92826740D01*
X113275972Y-92792276D01*
X113305276Y-92762972D01*
X113339740Y-92739944D01*
X113378025Y-92724087D01*
X113378028Y-92724086D01*
X113378029Y-92724086D01*
X113418677Y-92716000D01*
X113460123Y-92716000D01*
X113500771Y-92724086D01*
X113500771Y-92724086D01*
G37*
G36*
X114300771Y-92724086D02*
G01*
X114300772Y-92724086D01*
X114300775Y-92724087D01*
X114339060Y-92739944D01*
X114373524Y-92762972D01*
X114402828Y-92792276D01*
X114425856Y-92826740D01*
X114441713Y-92865025D01*
X114449800Y-92905678D01*
X114449800Y-92947122D01*
X114441713Y-92987775D01*
X114425856Y-93026060D01*
X114402828Y-93060524D01*
X114373524Y-93089828D01*
X114339060Y-93112856D01*
X114300775Y-93128713D01*
X114300772Y-93128714D01*
X114300771Y-93128714D01*
X114260123Y-93136800D01*
X114218677Y-93136800D01*
X114178029Y-93128714D01*
X114178028Y-93128714D01*
X114178025Y-93128713D01*
X114139740Y-93112856D01*
X114105276Y-93089828D01*
X114075972Y-93060524D01*
X114052944Y-93026060D01*
X114037087Y-92987775D01*
X114029000Y-92947122D01*
X114029000Y-92905678D01*
X114037087Y-92865025D01*
X114052944Y-92826740D01*
X114075972Y-92792276D01*
X114105276Y-92762972D01*
X114139740Y-92739944D01*
X114178025Y-92724087D01*
X114178028Y-92724086D01*
X114178029Y-92724086D01*
X114218677Y-92716000D01*
X114260123Y-92716000D01*
X114300771Y-92724086D01*
X114300771Y-92724086D01*
G37*
G36*
X115100771Y-92724086D02*
G01*
X115100772Y-92724086D01*
X115100775Y-92724087D01*
X115139060Y-92739944D01*
X115173524Y-92762972D01*
X115202828Y-92792276D01*
X115225856Y-92826740D01*
X115241713Y-92865025D01*
X115249800Y-92905678D01*
X115249800Y-92947122D01*
X115241713Y-92987775D01*
X115225856Y-93026060D01*
X115202828Y-93060524D01*
X115173524Y-93089828D01*
X115139060Y-93112856D01*
X115100775Y-93128713D01*
X115100772Y-93128714D01*
X115100771Y-93128714D01*
X115060123Y-93136800D01*
X115018677Y-93136800D01*
X114978029Y-93128714D01*
X114978028Y-93128714D01*
X114978025Y-93128713D01*
X114939740Y-93112856D01*
X114905276Y-93089828D01*
X114875972Y-93060524D01*
X114852944Y-93026060D01*
X114837087Y-92987775D01*
X114829000Y-92947122D01*
X114829000Y-92905678D01*
X114837087Y-92865025D01*
X114852944Y-92826740D01*
X114875972Y-92792276D01*
X114905276Y-92762972D01*
X114939740Y-92739944D01*
X114978025Y-92724087D01*
X114978028Y-92724086D01*
X114978029Y-92724086D01*
X115018677Y-92716000D01*
X115060123Y-92716000D01*
X115100771Y-92724086D01*
X115100771Y-92724086D01*
G37*
G36*
X108700771Y-92724086D02*
G01*
X108700772Y-92724086D01*
X108700775Y-92724087D01*
X108739060Y-92739944D01*
X108773524Y-92762972D01*
X108802828Y-92792276D01*
X108825856Y-92826740D01*
X108841713Y-92865025D01*
X108849800Y-92905678D01*
X108849800Y-92947122D01*
X108841713Y-92987775D01*
X108825856Y-93026060D01*
X108802828Y-93060524D01*
X108773524Y-93089828D01*
X108739060Y-93112856D01*
X108700775Y-93128713D01*
X108700772Y-93128714D01*
X108700771Y-93128714D01*
X108660123Y-93136800D01*
X108618677Y-93136800D01*
X108578029Y-93128714D01*
X108578028Y-93128714D01*
X108578025Y-93128713D01*
X108539740Y-93112856D01*
X108505276Y-93089828D01*
X108475972Y-93060524D01*
X108452944Y-93026060D01*
X108437087Y-92987775D01*
X108429000Y-92947122D01*
X108429000Y-92905678D01*
X108437087Y-92865025D01*
X108452944Y-92826740D01*
X108475972Y-92792276D01*
X108505276Y-92762972D01*
X108539740Y-92739944D01*
X108578025Y-92724087D01*
X108578028Y-92724086D01*
X108578029Y-92724086D01*
X108618677Y-92716000D01*
X108660123Y-92716000D01*
X108700771Y-92724086D01*
X108700771Y-92724086D01*
G37*
G36*
X102312800Y-93134200D02*
G01*
X101262000Y-93134200D01*
X101262000Y-92383400D01*
X102312800Y-92383400D01*
X102312800Y-93134200D01*
X102312800Y-93134200D01*
G37*
G36*
X107900771Y-91924086D02*
G01*
X107900772Y-91924086D01*
X107900775Y-91924087D01*
X107939060Y-91939944D01*
X107973524Y-91962972D01*
X108002828Y-91992276D01*
X108025856Y-92026740D01*
X108041713Y-92065025D01*
X108049800Y-92105678D01*
X108049800Y-92147122D01*
X108041713Y-92187775D01*
X108025856Y-92226060D01*
X108002828Y-92260524D01*
X107973524Y-92289828D01*
X107939060Y-92312856D01*
X107900775Y-92328713D01*
X107900772Y-92328714D01*
X107900771Y-92328714D01*
X107860123Y-92336800D01*
X107818677Y-92336800D01*
X107778029Y-92328714D01*
X107778028Y-92328714D01*
X107778025Y-92328713D01*
X107739740Y-92312856D01*
X107705276Y-92289828D01*
X107675972Y-92260524D01*
X107652944Y-92226060D01*
X107637087Y-92187775D01*
X107629000Y-92147122D01*
X107629000Y-92105678D01*
X107637087Y-92065025D01*
X107652944Y-92026740D01*
X107675972Y-91992276D01*
X107705276Y-91962972D01*
X107739740Y-91939944D01*
X107778025Y-91924087D01*
X107778028Y-91924086D01*
X107778029Y-91924086D01*
X107818677Y-91916000D01*
X107860123Y-91916000D01*
X107900771Y-91924086D01*
X107900771Y-91924086D01*
G37*
G36*
X108700771Y-91924086D02*
G01*
X108700772Y-91924086D01*
X108700775Y-91924087D01*
X108739060Y-91939944D01*
X108773524Y-91962972D01*
X108802828Y-91992276D01*
X108825856Y-92026740D01*
X108841713Y-92065025D01*
X108849800Y-92105678D01*
X108849800Y-92147122D01*
X108841713Y-92187775D01*
X108825856Y-92226060D01*
X108802828Y-92260524D01*
X108773524Y-92289828D01*
X108739060Y-92312856D01*
X108700775Y-92328713D01*
X108700772Y-92328714D01*
X108700771Y-92328714D01*
X108660123Y-92336800D01*
X108618677Y-92336800D01*
X108578029Y-92328714D01*
X108578028Y-92328714D01*
X108578025Y-92328713D01*
X108539740Y-92312856D01*
X108505276Y-92289828D01*
X108475972Y-92260524D01*
X108452944Y-92226060D01*
X108437087Y-92187775D01*
X108429000Y-92147122D01*
X108429000Y-92105678D01*
X108437087Y-92065025D01*
X108452944Y-92026740D01*
X108475972Y-91992276D01*
X108505276Y-91962972D01*
X108539740Y-91939944D01*
X108578025Y-91924087D01*
X108578028Y-91924086D01*
X108578029Y-91924086D01*
X108618677Y-91916000D01*
X108660123Y-91916000D01*
X108700771Y-91924086D01*
X108700771Y-91924086D01*
G37*
G36*
X114300771Y-91924086D02*
G01*
X114300772Y-91924086D01*
X114300775Y-91924087D01*
X114339060Y-91939944D01*
X114373524Y-91962972D01*
X114402828Y-91992276D01*
X114425856Y-92026740D01*
X114441713Y-92065025D01*
X114449800Y-92105678D01*
X114449800Y-92147122D01*
X114441713Y-92187775D01*
X114425856Y-92226060D01*
X114402828Y-92260524D01*
X114373524Y-92289828D01*
X114339060Y-92312856D01*
X114300775Y-92328713D01*
X114300772Y-92328714D01*
X114300771Y-92328714D01*
X114260123Y-92336800D01*
X114218677Y-92336800D01*
X114178029Y-92328714D01*
X114178028Y-92328714D01*
X114178025Y-92328713D01*
X114139740Y-92312856D01*
X114105276Y-92289828D01*
X114075972Y-92260524D01*
X114052944Y-92226060D01*
X114037087Y-92187775D01*
X114029000Y-92147122D01*
X114029000Y-92105678D01*
X114037087Y-92065025D01*
X114052944Y-92026740D01*
X114075972Y-91992276D01*
X114105276Y-91962972D01*
X114139740Y-91939944D01*
X114178025Y-91924087D01*
X114178028Y-91924086D01*
X114178029Y-91924086D01*
X114218677Y-91916000D01*
X114260123Y-91916000D01*
X114300771Y-91924086D01*
X114300771Y-91924086D01*
G37*
G36*
X109500771Y-91924086D02*
G01*
X109500772Y-91924086D01*
X109500775Y-91924087D01*
X109539060Y-91939944D01*
X109573524Y-91962972D01*
X109602828Y-91992276D01*
X109625856Y-92026740D01*
X109641713Y-92065025D01*
X109649800Y-92105678D01*
X109649800Y-92147122D01*
X109641713Y-92187775D01*
X109625856Y-92226060D01*
X109602828Y-92260524D01*
X109573524Y-92289828D01*
X109539060Y-92312856D01*
X109500775Y-92328713D01*
X109500772Y-92328714D01*
X109500771Y-92328714D01*
X109460123Y-92336800D01*
X109418677Y-92336800D01*
X109378029Y-92328714D01*
X109378028Y-92328714D01*
X109378025Y-92328713D01*
X109339740Y-92312856D01*
X109305276Y-92289828D01*
X109275972Y-92260524D01*
X109252944Y-92226060D01*
X109237087Y-92187775D01*
X109229000Y-92147122D01*
X109229000Y-92105678D01*
X109237087Y-92065025D01*
X109252944Y-92026740D01*
X109275972Y-91992276D01*
X109305276Y-91962972D01*
X109339740Y-91939944D01*
X109378025Y-91924087D01*
X109378028Y-91924086D01*
X109378029Y-91924086D01*
X109418677Y-91916000D01*
X109460123Y-91916000D01*
X109500771Y-91924086D01*
X109500771Y-91924086D01*
G37*
G36*
X111100771Y-91924086D02*
G01*
X111100772Y-91924086D01*
X111100775Y-91924087D01*
X111139060Y-91939944D01*
X111173524Y-91962972D01*
X111202828Y-91992276D01*
X111225856Y-92026740D01*
X111241713Y-92065025D01*
X111249800Y-92105678D01*
X111249800Y-92147122D01*
X111241713Y-92187775D01*
X111225856Y-92226060D01*
X111202828Y-92260524D01*
X111173524Y-92289828D01*
X111139060Y-92312856D01*
X111100775Y-92328713D01*
X111100772Y-92328714D01*
X111100771Y-92328714D01*
X111060123Y-92336800D01*
X111018677Y-92336800D01*
X110978029Y-92328714D01*
X110978028Y-92328714D01*
X110978025Y-92328713D01*
X110939740Y-92312856D01*
X110905276Y-92289828D01*
X110875972Y-92260524D01*
X110852944Y-92226060D01*
X110837087Y-92187775D01*
X110829000Y-92147122D01*
X110829000Y-92105678D01*
X110837087Y-92065025D01*
X110852944Y-92026740D01*
X110875972Y-91992276D01*
X110905276Y-91962972D01*
X110939740Y-91939944D01*
X110978025Y-91924087D01*
X110978028Y-91924086D01*
X110978029Y-91924086D01*
X111018677Y-91916000D01*
X111060123Y-91916000D01*
X111100771Y-91924086D01*
X111100771Y-91924086D01*
G37*
G36*
X112700771Y-91924086D02*
G01*
X112700772Y-91924086D01*
X112700775Y-91924087D01*
X112739060Y-91939944D01*
X112773524Y-91962972D01*
X112802828Y-91992276D01*
X112825856Y-92026740D01*
X112841713Y-92065025D01*
X112849800Y-92105678D01*
X112849800Y-92147122D01*
X112841713Y-92187775D01*
X112825856Y-92226060D01*
X112802828Y-92260524D01*
X112773524Y-92289828D01*
X112739060Y-92312856D01*
X112700775Y-92328713D01*
X112700772Y-92328714D01*
X112700771Y-92328714D01*
X112660123Y-92336800D01*
X112618677Y-92336800D01*
X112578029Y-92328714D01*
X112578028Y-92328714D01*
X112578025Y-92328713D01*
X112539740Y-92312856D01*
X112505276Y-92289828D01*
X112475972Y-92260524D01*
X112452944Y-92226060D01*
X112437087Y-92187775D01*
X112429000Y-92147122D01*
X112429000Y-92105678D01*
X112437087Y-92065025D01*
X112452944Y-92026740D01*
X112475972Y-91992276D01*
X112505276Y-91962972D01*
X112539740Y-91939944D01*
X112578025Y-91924087D01*
X112578028Y-91924086D01*
X112578029Y-91924086D01*
X112618677Y-91916000D01*
X112660123Y-91916000D01*
X112700771Y-91924086D01*
X112700771Y-91924086D01*
G37*
G36*
X111900771Y-91924086D02*
G01*
X111900772Y-91924086D01*
X111900775Y-91924087D01*
X111939060Y-91939944D01*
X111973524Y-91962972D01*
X112002828Y-91992276D01*
X112025856Y-92026740D01*
X112041713Y-92065025D01*
X112049800Y-92105678D01*
X112049800Y-92147122D01*
X112041713Y-92187775D01*
X112025856Y-92226060D01*
X112002828Y-92260524D01*
X111973524Y-92289828D01*
X111939060Y-92312856D01*
X111900775Y-92328713D01*
X111900772Y-92328714D01*
X111900771Y-92328714D01*
X111860123Y-92336800D01*
X111818677Y-92336800D01*
X111778029Y-92328714D01*
X111778028Y-92328714D01*
X111778025Y-92328713D01*
X111739740Y-92312856D01*
X111705276Y-92289828D01*
X111675972Y-92260524D01*
X111652944Y-92226060D01*
X111637087Y-92187775D01*
X111629000Y-92147122D01*
X111629000Y-92105678D01*
X111637087Y-92065025D01*
X111652944Y-92026740D01*
X111675972Y-91992276D01*
X111705276Y-91962972D01*
X111739740Y-91939944D01*
X111778025Y-91924087D01*
X111778028Y-91924086D01*
X111778029Y-91924086D01*
X111818677Y-91916000D01*
X111860123Y-91916000D01*
X111900771Y-91924086D01*
X111900771Y-91924086D01*
G37*
G36*
X110300771Y-91924086D02*
G01*
X110300772Y-91924086D01*
X110300775Y-91924087D01*
X110339060Y-91939944D01*
X110373524Y-91962972D01*
X110402828Y-91992276D01*
X110425856Y-92026740D01*
X110441713Y-92065025D01*
X110449800Y-92105678D01*
X110449800Y-92147122D01*
X110441713Y-92187775D01*
X110425856Y-92226060D01*
X110402828Y-92260524D01*
X110373524Y-92289828D01*
X110339060Y-92312856D01*
X110300775Y-92328713D01*
X110300772Y-92328714D01*
X110300771Y-92328714D01*
X110260123Y-92336800D01*
X110218677Y-92336800D01*
X110178029Y-92328714D01*
X110178028Y-92328714D01*
X110178025Y-92328713D01*
X110139740Y-92312856D01*
X110105276Y-92289828D01*
X110075972Y-92260524D01*
X110052944Y-92226060D01*
X110037087Y-92187775D01*
X110029000Y-92147122D01*
X110029000Y-92105678D01*
X110037087Y-92065025D01*
X110052944Y-92026740D01*
X110075972Y-91992276D01*
X110105276Y-91962972D01*
X110139740Y-91939944D01*
X110178025Y-91924087D01*
X110178028Y-91924086D01*
X110178029Y-91924086D01*
X110218677Y-91916000D01*
X110260123Y-91916000D01*
X110300771Y-91924086D01*
X110300771Y-91924086D01*
G37*
G36*
X113500771Y-91924086D02*
G01*
X113500772Y-91924086D01*
X113500775Y-91924087D01*
X113539060Y-91939944D01*
X113573524Y-91962972D01*
X113602828Y-91992276D01*
X113625856Y-92026740D01*
X113641713Y-92065025D01*
X113649800Y-92105678D01*
X113649800Y-92147122D01*
X113641713Y-92187775D01*
X113625856Y-92226060D01*
X113602828Y-92260524D01*
X113573524Y-92289828D01*
X113539060Y-92312856D01*
X113500775Y-92328713D01*
X113500772Y-92328714D01*
X113500771Y-92328714D01*
X113460123Y-92336800D01*
X113418677Y-92336800D01*
X113378029Y-92328714D01*
X113378028Y-92328714D01*
X113378025Y-92328713D01*
X113339740Y-92312856D01*
X113305276Y-92289828D01*
X113275972Y-92260524D01*
X113252944Y-92226060D01*
X113237087Y-92187775D01*
X113229000Y-92147122D01*
X113229000Y-92105678D01*
X113237087Y-92065025D01*
X113252944Y-92026740D01*
X113275972Y-91992276D01*
X113305276Y-91962972D01*
X113339740Y-91939944D01*
X113378025Y-91924087D01*
X113378028Y-91924086D01*
X113378029Y-91924086D01*
X113418677Y-91916000D01*
X113460123Y-91916000D01*
X113500771Y-91924086D01*
X113500771Y-91924086D01*
G37*
G36*
X115100771Y-91924086D02*
G01*
X115100772Y-91924086D01*
X115100775Y-91924087D01*
X115139060Y-91939944D01*
X115173524Y-91962972D01*
X115202828Y-91992276D01*
X115225856Y-92026740D01*
X115241713Y-92065025D01*
X115249800Y-92105678D01*
X115249800Y-92147122D01*
X115241713Y-92187775D01*
X115225856Y-92226060D01*
X115202828Y-92260524D01*
X115173524Y-92289828D01*
X115139060Y-92312856D01*
X115100775Y-92328713D01*
X115100772Y-92328714D01*
X115100771Y-92328714D01*
X115060123Y-92336800D01*
X115018677Y-92336800D01*
X114978029Y-92328714D01*
X114978028Y-92328714D01*
X114978025Y-92328713D01*
X114939740Y-92312856D01*
X114905276Y-92289828D01*
X114875972Y-92260524D01*
X114852944Y-92226060D01*
X114837087Y-92187775D01*
X114829000Y-92147122D01*
X114829000Y-92105678D01*
X114837087Y-92065025D01*
X114852944Y-92026740D01*
X114875972Y-91992276D01*
X114905276Y-91962972D01*
X114939740Y-91939944D01*
X114978025Y-91924087D01*
X114978028Y-91924086D01*
X114978029Y-91924086D01*
X115018677Y-91916000D01*
X115060123Y-91916000D01*
X115100771Y-91924086D01*
X115100771Y-91924086D01*
G37*
G36*
X117089274Y-91463898D02*
G01*
X117143724Y-91486452D01*
X117192729Y-91519196D01*
X117234404Y-91560871D01*
X117267148Y-91609876D01*
X117289702Y-91664326D01*
X117301200Y-91722131D01*
X117301200Y-91781069D01*
X117289702Y-91838874D01*
X117267148Y-91893324D01*
X117234404Y-91942329D01*
X117192729Y-91984004D01*
X117143724Y-92016748D01*
X117089274Y-92039302D01*
X117031469Y-92050800D01*
X116972531Y-92050800D01*
X116914726Y-92039302D01*
X116860276Y-92016748D01*
X116811271Y-91984004D01*
X116769596Y-91942329D01*
X116736852Y-91893324D01*
X116714298Y-91838874D01*
X116702800Y-91781069D01*
X116702800Y-91722131D01*
X116714298Y-91664326D01*
X116736852Y-91609876D01*
X116769596Y-91560871D01*
X116811271Y-91519196D01*
X116860276Y-91486452D01*
X116914726Y-91463898D01*
X116972531Y-91452400D01*
X117031469Y-91452400D01*
X117089274Y-91463898D01*
X117089274Y-91463898D01*
G37*
G36*
X102312800Y-92034200D02*
G01*
X101262000Y-92034200D01*
X101262000Y-91283400D01*
X102312800Y-91283400D01*
X102312800Y-92034200D01*
X102312800Y-92034200D01*
G37*
G36*
X114300771Y-91124086D02*
G01*
X114300772Y-91124086D01*
X114300775Y-91124087D01*
X114339060Y-91139944D01*
X114373524Y-91162972D01*
X114402828Y-91192276D01*
X114425856Y-91226740D01*
X114441713Y-91265025D01*
X114449800Y-91305678D01*
X114449800Y-91347122D01*
X114441713Y-91387775D01*
X114425856Y-91426060D01*
X114402828Y-91460524D01*
X114373524Y-91489828D01*
X114339060Y-91512856D01*
X114300775Y-91528713D01*
X114300772Y-91528714D01*
X114300771Y-91528714D01*
X114260123Y-91536800D01*
X114218677Y-91536800D01*
X114178029Y-91528714D01*
X114178028Y-91528714D01*
X114178025Y-91528713D01*
X114139740Y-91512856D01*
X114105276Y-91489828D01*
X114075972Y-91460524D01*
X114052944Y-91426060D01*
X114037087Y-91387775D01*
X114029000Y-91347122D01*
X114029000Y-91305678D01*
X114037087Y-91265025D01*
X114052944Y-91226740D01*
X114075972Y-91192276D01*
X114105276Y-91162972D01*
X114139740Y-91139944D01*
X114178025Y-91124087D01*
X114178028Y-91124086D01*
X114178029Y-91124086D01*
X114218677Y-91116000D01*
X114260123Y-91116000D01*
X114300771Y-91124086D01*
X114300771Y-91124086D01*
G37*
G36*
X115100771Y-91124086D02*
G01*
X115100772Y-91124086D01*
X115100775Y-91124087D01*
X115139060Y-91139944D01*
X115173524Y-91162972D01*
X115202828Y-91192276D01*
X115225856Y-91226740D01*
X115241713Y-91265025D01*
X115249800Y-91305678D01*
X115249800Y-91347122D01*
X115241713Y-91387775D01*
X115225856Y-91426060D01*
X115202828Y-91460524D01*
X115173524Y-91489828D01*
X115139060Y-91512856D01*
X115100775Y-91528713D01*
X115100772Y-91528714D01*
X115100771Y-91528714D01*
X115060123Y-91536800D01*
X115018677Y-91536800D01*
X114978029Y-91528714D01*
X114978028Y-91528714D01*
X114978025Y-91528713D01*
X114939740Y-91512856D01*
X114905276Y-91489828D01*
X114875972Y-91460524D01*
X114852944Y-91426060D01*
X114837087Y-91387775D01*
X114829000Y-91347122D01*
X114829000Y-91305678D01*
X114837087Y-91265025D01*
X114852944Y-91226740D01*
X114875972Y-91192276D01*
X114905276Y-91162972D01*
X114939740Y-91139944D01*
X114978025Y-91124087D01*
X114978028Y-91124086D01*
X114978029Y-91124086D01*
X115018677Y-91116000D01*
X115060123Y-91116000D01*
X115100771Y-91124086D01*
X115100771Y-91124086D01*
G37*
G36*
X110300771Y-91124086D02*
G01*
X110300772Y-91124086D01*
X110300775Y-91124087D01*
X110339060Y-91139944D01*
X110373524Y-91162972D01*
X110402828Y-91192276D01*
X110425856Y-91226740D01*
X110441713Y-91265025D01*
X110449800Y-91305678D01*
X110449800Y-91347122D01*
X110441713Y-91387775D01*
X110425856Y-91426060D01*
X110402828Y-91460524D01*
X110373524Y-91489828D01*
X110339060Y-91512856D01*
X110300775Y-91528713D01*
X110300772Y-91528714D01*
X110300771Y-91528714D01*
X110260123Y-91536800D01*
X110218677Y-91536800D01*
X110178029Y-91528714D01*
X110178028Y-91528714D01*
X110178025Y-91528713D01*
X110139740Y-91512856D01*
X110105276Y-91489828D01*
X110075972Y-91460524D01*
X110052944Y-91426060D01*
X110037087Y-91387775D01*
X110029000Y-91347122D01*
X110029000Y-91305678D01*
X110037087Y-91265025D01*
X110052944Y-91226740D01*
X110075972Y-91192276D01*
X110105276Y-91162972D01*
X110139740Y-91139944D01*
X110178025Y-91124087D01*
X110178028Y-91124086D01*
X110178029Y-91124086D01*
X110218677Y-91116000D01*
X110260123Y-91116000D01*
X110300771Y-91124086D01*
X110300771Y-91124086D01*
G37*
G36*
X111100771Y-91124086D02*
G01*
X111100772Y-91124086D01*
X111100775Y-91124087D01*
X111139060Y-91139944D01*
X111173524Y-91162972D01*
X111202828Y-91192276D01*
X111225856Y-91226740D01*
X111241713Y-91265025D01*
X111249800Y-91305678D01*
X111249800Y-91347122D01*
X111241713Y-91387775D01*
X111225856Y-91426060D01*
X111202828Y-91460524D01*
X111173524Y-91489828D01*
X111139060Y-91512856D01*
X111100775Y-91528713D01*
X111100772Y-91528714D01*
X111100771Y-91528714D01*
X111060123Y-91536800D01*
X111018677Y-91536800D01*
X110978029Y-91528714D01*
X110978028Y-91528714D01*
X110978025Y-91528713D01*
X110939740Y-91512856D01*
X110905276Y-91489828D01*
X110875972Y-91460524D01*
X110852944Y-91426060D01*
X110837087Y-91387775D01*
X110829000Y-91347122D01*
X110829000Y-91305678D01*
X110837087Y-91265025D01*
X110852944Y-91226740D01*
X110875972Y-91192276D01*
X110905276Y-91162972D01*
X110939740Y-91139944D01*
X110978025Y-91124087D01*
X110978028Y-91124086D01*
X110978029Y-91124086D01*
X111018677Y-91116000D01*
X111060123Y-91116000D01*
X111100771Y-91124086D01*
X111100771Y-91124086D01*
G37*
G36*
X111900771Y-91124086D02*
G01*
X111900772Y-91124086D01*
X111900775Y-91124087D01*
X111939060Y-91139944D01*
X111973524Y-91162972D01*
X112002828Y-91192276D01*
X112025856Y-91226740D01*
X112041713Y-91265025D01*
X112049800Y-91305678D01*
X112049800Y-91347122D01*
X112041713Y-91387775D01*
X112025856Y-91426060D01*
X112002828Y-91460524D01*
X111973524Y-91489828D01*
X111939060Y-91512856D01*
X111900775Y-91528713D01*
X111900772Y-91528714D01*
X111900771Y-91528714D01*
X111860123Y-91536800D01*
X111818677Y-91536800D01*
X111778029Y-91528714D01*
X111778028Y-91528714D01*
X111778025Y-91528713D01*
X111739740Y-91512856D01*
X111705276Y-91489828D01*
X111675972Y-91460524D01*
X111652944Y-91426060D01*
X111637087Y-91387775D01*
X111629000Y-91347122D01*
X111629000Y-91305678D01*
X111637087Y-91265025D01*
X111652944Y-91226740D01*
X111675972Y-91192276D01*
X111705276Y-91162972D01*
X111739740Y-91139944D01*
X111778025Y-91124087D01*
X111778028Y-91124086D01*
X111778029Y-91124086D01*
X111818677Y-91116000D01*
X111860123Y-91116000D01*
X111900771Y-91124086D01*
X111900771Y-91124086D01*
G37*
G36*
X112700771Y-91124086D02*
G01*
X112700772Y-91124086D01*
X112700775Y-91124087D01*
X112739060Y-91139944D01*
X112773524Y-91162972D01*
X112802828Y-91192276D01*
X112825856Y-91226740D01*
X112841713Y-91265025D01*
X112849800Y-91305678D01*
X112849800Y-91347122D01*
X112841713Y-91387775D01*
X112825856Y-91426060D01*
X112802828Y-91460524D01*
X112773524Y-91489828D01*
X112739060Y-91512856D01*
X112700775Y-91528713D01*
X112700772Y-91528714D01*
X112700771Y-91528714D01*
X112660123Y-91536800D01*
X112618677Y-91536800D01*
X112578029Y-91528714D01*
X112578028Y-91528714D01*
X112578025Y-91528713D01*
X112539740Y-91512856D01*
X112505276Y-91489828D01*
X112475972Y-91460524D01*
X112452944Y-91426060D01*
X112437087Y-91387775D01*
X112429000Y-91347122D01*
X112429000Y-91305678D01*
X112437087Y-91265025D01*
X112452944Y-91226740D01*
X112475972Y-91192276D01*
X112505276Y-91162972D01*
X112539740Y-91139944D01*
X112578025Y-91124087D01*
X112578028Y-91124086D01*
X112578029Y-91124086D01*
X112618677Y-91116000D01*
X112660123Y-91116000D01*
X112700771Y-91124086D01*
X112700771Y-91124086D01*
G37*
G36*
X113500771Y-91124086D02*
G01*
X113500772Y-91124086D01*
X113500775Y-91124087D01*
X113539060Y-91139944D01*
X113573524Y-91162972D01*
X113602828Y-91192276D01*
X113625856Y-91226740D01*
X113641713Y-91265025D01*
X113649800Y-91305678D01*
X113649800Y-91347122D01*
X113641713Y-91387775D01*
X113625856Y-91426060D01*
X113602828Y-91460524D01*
X113573524Y-91489828D01*
X113539060Y-91512856D01*
X113500775Y-91528713D01*
X113500772Y-91528714D01*
X113500771Y-91528714D01*
X113460123Y-91536800D01*
X113418677Y-91536800D01*
X113378029Y-91528714D01*
X113378028Y-91528714D01*
X113378025Y-91528713D01*
X113339740Y-91512856D01*
X113305276Y-91489828D01*
X113275972Y-91460524D01*
X113252944Y-91426060D01*
X113237087Y-91387775D01*
X113229000Y-91347122D01*
X113229000Y-91305678D01*
X113237087Y-91265025D01*
X113252944Y-91226740D01*
X113275972Y-91192276D01*
X113305276Y-91162972D01*
X113339740Y-91139944D01*
X113378025Y-91124087D01*
X113378028Y-91124086D01*
X113378029Y-91124086D01*
X113418677Y-91116000D01*
X113460123Y-91116000D01*
X113500771Y-91124086D01*
X113500771Y-91124086D01*
G37*
G36*
X107900771Y-91124086D02*
G01*
X107900772Y-91124086D01*
X107900775Y-91124087D01*
X107939060Y-91139944D01*
X107973524Y-91162972D01*
X108002828Y-91192276D01*
X108025856Y-91226740D01*
X108041713Y-91265025D01*
X108049800Y-91305678D01*
X108049800Y-91347122D01*
X108041713Y-91387775D01*
X108025856Y-91426060D01*
X108002828Y-91460524D01*
X107973524Y-91489828D01*
X107939060Y-91512856D01*
X107900775Y-91528713D01*
X107900772Y-91528714D01*
X107900771Y-91528714D01*
X107860123Y-91536800D01*
X107818677Y-91536800D01*
X107778029Y-91528714D01*
X107778028Y-91528714D01*
X107778025Y-91528713D01*
X107739740Y-91512856D01*
X107705276Y-91489828D01*
X107675972Y-91460524D01*
X107652944Y-91426060D01*
X107637087Y-91387775D01*
X107629000Y-91347122D01*
X107629000Y-91305678D01*
X107637087Y-91265025D01*
X107652944Y-91226740D01*
X107675972Y-91192276D01*
X107705276Y-91162972D01*
X107739740Y-91139944D01*
X107778025Y-91124087D01*
X107778028Y-91124086D01*
X107778029Y-91124086D01*
X107818677Y-91116000D01*
X107860123Y-91116000D01*
X107900771Y-91124086D01*
X107900771Y-91124086D01*
G37*
G36*
X108700771Y-91124086D02*
G01*
X108700772Y-91124086D01*
X108700775Y-91124087D01*
X108739060Y-91139944D01*
X108773524Y-91162972D01*
X108802828Y-91192276D01*
X108825856Y-91226740D01*
X108841713Y-91265025D01*
X108849800Y-91305678D01*
X108849800Y-91347122D01*
X108841713Y-91387775D01*
X108825856Y-91426060D01*
X108802828Y-91460524D01*
X108773524Y-91489828D01*
X108739060Y-91512856D01*
X108700775Y-91528713D01*
X108700772Y-91528714D01*
X108700771Y-91528714D01*
X108660123Y-91536800D01*
X108618677Y-91536800D01*
X108578029Y-91528714D01*
X108578028Y-91528714D01*
X108578025Y-91528713D01*
X108539740Y-91512856D01*
X108505276Y-91489828D01*
X108475972Y-91460524D01*
X108452944Y-91426060D01*
X108437087Y-91387775D01*
X108429000Y-91347122D01*
X108429000Y-91305678D01*
X108437087Y-91265025D01*
X108452944Y-91226740D01*
X108475972Y-91192276D01*
X108505276Y-91162972D01*
X108539740Y-91139944D01*
X108578025Y-91124087D01*
X108578028Y-91124086D01*
X108578029Y-91124086D01*
X108618677Y-91116000D01*
X108660123Y-91116000D01*
X108700771Y-91124086D01*
X108700771Y-91124086D01*
G37*
G36*
X109500771Y-91124086D02*
G01*
X109500772Y-91124086D01*
X109500775Y-91124087D01*
X109539060Y-91139944D01*
X109573524Y-91162972D01*
X109602828Y-91192276D01*
X109625856Y-91226740D01*
X109641713Y-91265025D01*
X109649800Y-91305678D01*
X109649800Y-91347122D01*
X109641713Y-91387775D01*
X109625856Y-91426060D01*
X109602828Y-91460524D01*
X109573524Y-91489828D01*
X109539060Y-91512856D01*
X109500775Y-91528713D01*
X109500772Y-91528714D01*
X109500771Y-91528714D01*
X109460123Y-91536800D01*
X109418677Y-91536800D01*
X109378029Y-91528714D01*
X109378028Y-91528714D01*
X109378025Y-91528713D01*
X109339740Y-91512856D01*
X109305276Y-91489828D01*
X109275972Y-91460524D01*
X109252944Y-91426060D01*
X109237087Y-91387775D01*
X109229000Y-91347122D01*
X109229000Y-91305678D01*
X109237087Y-91265025D01*
X109252944Y-91226740D01*
X109275972Y-91192276D01*
X109305276Y-91162972D01*
X109339740Y-91139944D01*
X109378025Y-91124087D01*
X109378028Y-91124086D01*
X109378029Y-91124086D01*
X109418677Y-91116000D01*
X109460123Y-91116000D01*
X109500771Y-91124086D01*
X109500771Y-91124086D01*
G37*
G36*
X102312800Y-90934200D02*
G01*
X101262000Y-90934200D01*
X101262000Y-90183400D01*
X102312800Y-90183400D01*
X102312800Y-90934200D01*
X102312800Y-90934200D01*
G37*
G36*
X117089274Y-90193898D02*
G01*
X117143724Y-90216452D01*
X117192729Y-90249196D01*
X117234404Y-90290871D01*
X117267148Y-90339876D01*
X117289702Y-90394326D01*
X117301200Y-90452131D01*
X117301200Y-90511069D01*
X117289702Y-90568874D01*
X117267148Y-90623324D01*
X117234404Y-90672329D01*
X117192729Y-90714004D01*
X117143724Y-90746748D01*
X117089274Y-90769302D01*
X117031469Y-90780800D01*
X116972531Y-90780800D01*
X116914726Y-90769302D01*
X116860276Y-90746748D01*
X116811271Y-90714004D01*
X116769596Y-90672329D01*
X116736852Y-90623324D01*
X116714298Y-90568874D01*
X116702800Y-90511069D01*
X116702800Y-90452131D01*
X116714298Y-90394326D01*
X116736852Y-90339876D01*
X116769596Y-90290871D01*
X116811271Y-90249196D01*
X116860276Y-90216452D01*
X116914726Y-90193898D01*
X116972531Y-90182400D01*
X117031469Y-90182400D01*
X117089274Y-90193898D01*
X117089274Y-90193898D01*
G37*
G36*
X110300771Y-90324086D02*
G01*
X110300772Y-90324086D01*
X110300775Y-90324087D01*
X110339060Y-90339944D01*
X110373524Y-90362972D01*
X110402828Y-90392276D01*
X110425856Y-90426740D01*
X110441713Y-90465025D01*
X110449800Y-90505678D01*
X110449800Y-90547122D01*
X110441713Y-90587775D01*
X110425856Y-90626060D01*
X110402828Y-90660524D01*
X110373524Y-90689828D01*
X110339060Y-90712856D01*
X110300775Y-90728713D01*
X110300772Y-90728714D01*
X110300771Y-90728714D01*
X110260123Y-90736800D01*
X110218677Y-90736800D01*
X110178029Y-90728714D01*
X110178028Y-90728714D01*
X110178025Y-90728713D01*
X110139740Y-90712856D01*
X110105276Y-90689828D01*
X110075972Y-90660524D01*
X110052944Y-90626060D01*
X110037087Y-90587775D01*
X110029000Y-90547122D01*
X110029000Y-90505678D01*
X110037087Y-90465025D01*
X110052944Y-90426740D01*
X110075972Y-90392276D01*
X110105276Y-90362972D01*
X110139740Y-90339944D01*
X110178025Y-90324087D01*
X110178028Y-90324086D01*
X110178029Y-90324086D01*
X110218677Y-90316000D01*
X110260123Y-90316000D01*
X110300771Y-90324086D01*
X110300771Y-90324086D01*
G37*
G36*
X111100771Y-90324086D02*
G01*
X111100772Y-90324086D01*
X111100775Y-90324087D01*
X111139060Y-90339944D01*
X111173524Y-90362972D01*
X111202828Y-90392276D01*
X111225856Y-90426740D01*
X111241713Y-90465025D01*
X111249800Y-90505678D01*
X111249800Y-90547122D01*
X111241713Y-90587775D01*
X111225856Y-90626060D01*
X111202828Y-90660524D01*
X111173524Y-90689828D01*
X111139060Y-90712856D01*
X111100775Y-90728713D01*
X111100772Y-90728714D01*
X111100771Y-90728714D01*
X111060123Y-90736800D01*
X111018677Y-90736800D01*
X110978029Y-90728714D01*
X110978028Y-90728714D01*
X110978025Y-90728713D01*
X110939740Y-90712856D01*
X110905276Y-90689828D01*
X110875972Y-90660524D01*
X110852944Y-90626060D01*
X110837087Y-90587775D01*
X110829000Y-90547122D01*
X110829000Y-90505678D01*
X110837087Y-90465025D01*
X110852944Y-90426740D01*
X110875972Y-90392276D01*
X110905276Y-90362972D01*
X110939740Y-90339944D01*
X110978025Y-90324087D01*
X110978028Y-90324086D01*
X110978029Y-90324086D01*
X111018677Y-90316000D01*
X111060123Y-90316000D01*
X111100771Y-90324086D01*
X111100771Y-90324086D01*
G37*
G36*
X109500771Y-90324086D02*
G01*
X109500772Y-90324086D01*
X109500775Y-90324087D01*
X109539060Y-90339944D01*
X109573524Y-90362972D01*
X109602828Y-90392276D01*
X109625856Y-90426740D01*
X109641713Y-90465025D01*
X109649800Y-90505678D01*
X109649800Y-90547122D01*
X109641713Y-90587775D01*
X109625856Y-90626060D01*
X109602828Y-90660524D01*
X109573524Y-90689828D01*
X109539060Y-90712856D01*
X109500775Y-90728713D01*
X109500772Y-90728714D01*
X109500771Y-90728714D01*
X109460123Y-90736800D01*
X109418677Y-90736800D01*
X109378029Y-90728714D01*
X109378028Y-90728714D01*
X109378025Y-90728713D01*
X109339740Y-90712856D01*
X109305276Y-90689828D01*
X109275972Y-90660524D01*
X109252944Y-90626060D01*
X109237087Y-90587775D01*
X109229000Y-90547122D01*
X109229000Y-90505678D01*
X109237087Y-90465025D01*
X109252944Y-90426740D01*
X109275972Y-90392276D01*
X109305276Y-90362972D01*
X109339740Y-90339944D01*
X109378025Y-90324087D01*
X109378028Y-90324086D01*
X109378029Y-90324086D01*
X109418677Y-90316000D01*
X109460123Y-90316000D01*
X109500771Y-90324086D01*
X109500771Y-90324086D01*
G37*
G36*
X108700771Y-90324086D02*
G01*
X108700772Y-90324086D01*
X108700775Y-90324087D01*
X108739060Y-90339944D01*
X108773524Y-90362972D01*
X108802828Y-90392276D01*
X108825856Y-90426740D01*
X108841713Y-90465025D01*
X108849800Y-90505678D01*
X108849800Y-90547122D01*
X108841713Y-90587775D01*
X108825856Y-90626060D01*
X108802828Y-90660524D01*
X108773524Y-90689828D01*
X108739060Y-90712856D01*
X108700775Y-90728713D01*
X108700772Y-90728714D01*
X108700771Y-90728714D01*
X108660123Y-90736800D01*
X108618677Y-90736800D01*
X108578029Y-90728714D01*
X108578028Y-90728714D01*
X108578025Y-90728713D01*
X108539740Y-90712856D01*
X108505276Y-90689828D01*
X108475972Y-90660524D01*
X108452944Y-90626060D01*
X108437087Y-90587775D01*
X108429000Y-90547122D01*
X108429000Y-90505678D01*
X108437087Y-90465025D01*
X108452944Y-90426740D01*
X108475972Y-90392276D01*
X108505276Y-90362972D01*
X108539740Y-90339944D01*
X108578025Y-90324087D01*
X108578028Y-90324086D01*
X108578029Y-90324086D01*
X108618677Y-90316000D01*
X108660123Y-90316000D01*
X108700771Y-90324086D01*
X108700771Y-90324086D01*
G37*
G36*
X107900771Y-90324086D02*
G01*
X107900772Y-90324086D01*
X107900775Y-90324087D01*
X107939060Y-90339944D01*
X107973524Y-90362972D01*
X108002828Y-90392276D01*
X108025856Y-90426740D01*
X108041713Y-90465025D01*
X108049800Y-90505678D01*
X108049800Y-90547122D01*
X108041713Y-90587775D01*
X108025856Y-90626060D01*
X108002828Y-90660524D01*
X107973524Y-90689828D01*
X107939060Y-90712856D01*
X107900775Y-90728713D01*
X107900772Y-90728714D01*
X107900771Y-90728714D01*
X107860123Y-90736800D01*
X107818677Y-90736800D01*
X107778029Y-90728714D01*
X107778028Y-90728714D01*
X107778025Y-90728713D01*
X107739740Y-90712856D01*
X107705276Y-90689828D01*
X107675972Y-90660524D01*
X107652944Y-90626060D01*
X107637087Y-90587775D01*
X107629000Y-90547122D01*
X107629000Y-90505678D01*
X107637087Y-90465025D01*
X107652944Y-90426740D01*
X107675972Y-90392276D01*
X107705276Y-90362972D01*
X107739740Y-90339944D01*
X107778025Y-90324087D01*
X107778028Y-90324086D01*
X107778029Y-90324086D01*
X107818677Y-90316000D01*
X107860123Y-90316000D01*
X107900771Y-90324086D01*
X107900771Y-90324086D01*
G37*
G36*
X111900771Y-90324086D02*
G01*
X111900772Y-90324086D01*
X111900775Y-90324087D01*
X111939060Y-90339944D01*
X111973524Y-90362972D01*
X112002828Y-90392276D01*
X112025856Y-90426740D01*
X112041713Y-90465025D01*
X112049800Y-90505678D01*
X112049800Y-90547122D01*
X112041713Y-90587775D01*
X112025856Y-90626060D01*
X112002828Y-90660524D01*
X111973524Y-90689828D01*
X111939060Y-90712856D01*
X111900775Y-90728713D01*
X111900772Y-90728714D01*
X111900771Y-90728714D01*
X111860123Y-90736800D01*
X111818677Y-90736800D01*
X111778029Y-90728714D01*
X111778028Y-90728714D01*
X111778025Y-90728713D01*
X111739740Y-90712856D01*
X111705276Y-90689828D01*
X111675972Y-90660524D01*
X111652944Y-90626060D01*
X111637087Y-90587775D01*
X111629000Y-90547122D01*
X111629000Y-90505678D01*
X111637087Y-90465025D01*
X111652944Y-90426740D01*
X111675972Y-90392276D01*
X111705276Y-90362972D01*
X111739740Y-90339944D01*
X111778025Y-90324087D01*
X111778028Y-90324086D01*
X111778029Y-90324086D01*
X111818677Y-90316000D01*
X111860123Y-90316000D01*
X111900771Y-90324086D01*
X111900771Y-90324086D01*
G37*
G36*
X115100771Y-90324086D02*
G01*
X115100772Y-90324086D01*
X115100775Y-90324087D01*
X115139060Y-90339944D01*
X115173524Y-90362972D01*
X115202828Y-90392276D01*
X115225856Y-90426740D01*
X115241713Y-90465025D01*
X115249800Y-90505678D01*
X115249800Y-90547122D01*
X115241713Y-90587775D01*
X115225856Y-90626060D01*
X115202828Y-90660524D01*
X115173524Y-90689828D01*
X115139060Y-90712856D01*
X115100775Y-90728713D01*
X115100772Y-90728714D01*
X115100771Y-90728714D01*
X115060123Y-90736800D01*
X115018677Y-90736800D01*
X114978029Y-90728714D01*
X114978028Y-90728714D01*
X114978025Y-90728713D01*
X114939740Y-90712856D01*
X114905276Y-90689828D01*
X114875972Y-90660524D01*
X114852944Y-90626060D01*
X114837087Y-90587775D01*
X114829000Y-90547122D01*
X114829000Y-90505678D01*
X114837087Y-90465025D01*
X114852944Y-90426740D01*
X114875972Y-90392276D01*
X114905276Y-90362972D01*
X114939740Y-90339944D01*
X114978025Y-90324087D01*
X114978028Y-90324086D01*
X114978029Y-90324086D01*
X115018677Y-90316000D01*
X115060123Y-90316000D01*
X115100771Y-90324086D01*
X115100771Y-90324086D01*
G37*
G36*
X114300771Y-90324086D02*
G01*
X114300772Y-90324086D01*
X114300775Y-90324087D01*
X114339060Y-90339944D01*
X114373524Y-90362972D01*
X114402828Y-90392276D01*
X114425856Y-90426740D01*
X114441713Y-90465025D01*
X114449800Y-90505678D01*
X114449800Y-90547122D01*
X114441713Y-90587775D01*
X114425856Y-90626060D01*
X114402828Y-90660524D01*
X114373524Y-90689828D01*
X114339060Y-90712856D01*
X114300775Y-90728713D01*
X114300772Y-90728714D01*
X114300771Y-90728714D01*
X114260123Y-90736800D01*
X114218677Y-90736800D01*
X114178029Y-90728714D01*
X114178028Y-90728714D01*
X114178025Y-90728713D01*
X114139740Y-90712856D01*
X114105276Y-90689828D01*
X114075972Y-90660524D01*
X114052944Y-90626060D01*
X114037087Y-90587775D01*
X114029000Y-90547122D01*
X114029000Y-90505678D01*
X114037087Y-90465025D01*
X114052944Y-90426740D01*
X114075972Y-90392276D01*
X114105276Y-90362972D01*
X114139740Y-90339944D01*
X114178025Y-90324087D01*
X114178028Y-90324086D01*
X114178029Y-90324086D01*
X114218677Y-90316000D01*
X114260123Y-90316000D01*
X114300771Y-90324086D01*
X114300771Y-90324086D01*
G37*
G36*
X113500771Y-90324086D02*
G01*
X113500772Y-90324086D01*
X113500775Y-90324087D01*
X113539060Y-90339944D01*
X113573524Y-90362972D01*
X113602828Y-90392276D01*
X113625856Y-90426740D01*
X113641713Y-90465025D01*
X113649800Y-90505678D01*
X113649800Y-90547122D01*
X113641713Y-90587775D01*
X113625856Y-90626060D01*
X113602828Y-90660524D01*
X113573524Y-90689828D01*
X113539060Y-90712856D01*
X113500775Y-90728713D01*
X113500772Y-90728714D01*
X113500771Y-90728714D01*
X113460123Y-90736800D01*
X113418677Y-90736800D01*
X113378029Y-90728714D01*
X113378028Y-90728714D01*
X113378025Y-90728713D01*
X113339740Y-90712856D01*
X113305276Y-90689828D01*
X113275972Y-90660524D01*
X113252944Y-90626060D01*
X113237087Y-90587775D01*
X113229000Y-90547122D01*
X113229000Y-90505678D01*
X113237087Y-90465025D01*
X113252944Y-90426740D01*
X113275972Y-90392276D01*
X113305276Y-90362972D01*
X113339740Y-90339944D01*
X113378025Y-90324087D01*
X113378028Y-90324086D01*
X113378029Y-90324086D01*
X113418677Y-90316000D01*
X113460123Y-90316000D01*
X113500771Y-90324086D01*
X113500771Y-90324086D01*
G37*
G36*
X112700771Y-90324086D02*
G01*
X112700772Y-90324086D01*
X112700775Y-90324087D01*
X112739060Y-90339944D01*
X112773524Y-90362972D01*
X112802828Y-90392276D01*
X112825856Y-90426740D01*
X112841713Y-90465025D01*
X112849800Y-90505678D01*
X112849800Y-90547122D01*
X112841713Y-90587775D01*
X112825856Y-90626060D01*
X112802828Y-90660524D01*
X112773524Y-90689828D01*
X112739060Y-90712856D01*
X112700775Y-90728713D01*
X112700772Y-90728714D01*
X112700771Y-90728714D01*
X112660123Y-90736800D01*
X112618677Y-90736800D01*
X112578029Y-90728714D01*
X112578028Y-90728714D01*
X112578025Y-90728713D01*
X112539740Y-90712856D01*
X112505276Y-90689828D01*
X112475972Y-90660524D01*
X112452944Y-90626060D01*
X112437087Y-90587775D01*
X112429000Y-90547122D01*
X112429000Y-90505678D01*
X112437087Y-90465025D01*
X112452944Y-90426740D01*
X112475972Y-90392276D01*
X112505276Y-90362972D01*
X112539740Y-90339944D01*
X112578025Y-90324087D01*
X112578028Y-90324086D01*
X112578029Y-90324086D01*
X112618677Y-90316000D01*
X112660123Y-90316000D01*
X112700771Y-90324086D01*
X112700771Y-90324086D01*
G37*
G36*
X107900771Y-89524086D02*
G01*
X107900772Y-89524086D01*
X107900775Y-89524087D01*
X107939060Y-89539944D01*
X107973524Y-89562972D01*
X108002828Y-89592276D01*
X108025856Y-89626740D01*
X108041713Y-89665025D01*
X108049800Y-89705678D01*
X108049800Y-89747122D01*
X108041713Y-89787775D01*
X108025856Y-89826060D01*
X108002828Y-89860524D01*
X107973524Y-89889828D01*
X107939060Y-89912856D01*
X107900775Y-89928713D01*
X107900772Y-89928714D01*
X107900771Y-89928714D01*
X107860123Y-89936800D01*
X107818677Y-89936800D01*
X107778029Y-89928714D01*
X107778028Y-89928714D01*
X107778025Y-89928713D01*
X107739740Y-89912856D01*
X107705276Y-89889828D01*
X107675972Y-89860524D01*
X107652944Y-89826060D01*
X107637087Y-89787775D01*
X107629000Y-89747122D01*
X107629000Y-89705678D01*
X107637087Y-89665025D01*
X107652944Y-89626740D01*
X107675972Y-89592276D01*
X107705276Y-89562972D01*
X107739740Y-89539944D01*
X107778025Y-89524087D01*
X107778028Y-89524086D01*
X107778029Y-89524086D01*
X107818677Y-89516000D01*
X107860123Y-89516000D01*
X107900771Y-89524086D01*
X107900771Y-89524086D01*
G37*
G36*
X108700771Y-89524086D02*
G01*
X108700772Y-89524086D01*
X108700775Y-89524087D01*
X108739060Y-89539944D01*
X108773524Y-89562972D01*
X108802828Y-89592276D01*
X108825856Y-89626740D01*
X108841713Y-89665025D01*
X108849800Y-89705678D01*
X108849800Y-89747122D01*
X108841713Y-89787775D01*
X108825856Y-89826060D01*
X108802828Y-89860524D01*
X108773524Y-89889828D01*
X108739060Y-89912856D01*
X108700775Y-89928713D01*
X108700772Y-89928714D01*
X108700771Y-89928714D01*
X108660123Y-89936800D01*
X108618677Y-89936800D01*
X108578029Y-89928714D01*
X108578028Y-89928714D01*
X108578025Y-89928713D01*
X108539740Y-89912856D01*
X108505276Y-89889828D01*
X108475972Y-89860524D01*
X108452944Y-89826060D01*
X108437087Y-89787775D01*
X108429000Y-89747122D01*
X108429000Y-89705678D01*
X108437087Y-89665025D01*
X108452944Y-89626740D01*
X108475972Y-89592276D01*
X108505276Y-89562972D01*
X108539740Y-89539944D01*
X108578025Y-89524087D01*
X108578028Y-89524086D01*
X108578029Y-89524086D01*
X108618677Y-89516000D01*
X108660123Y-89516000D01*
X108700771Y-89524086D01*
X108700771Y-89524086D01*
G37*
G36*
X109500771Y-89524086D02*
G01*
X109500772Y-89524086D01*
X109500775Y-89524087D01*
X109539060Y-89539944D01*
X109573524Y-89562972D01*
X109602828Y-89592276D01*
X109625856Y-89626740D01*
X109641713Y-89665025D01*
X109649800Y-89705678D01*
X109649800Y-89747122D01*
X109641713Y-89787775D01*
X109625856Y-89826060D01*
X109602828Y-89860524D01*
X109573524Y-89889828D01*
X109539060Y-89912856D01*
X109500775Y-89928713D01*
X109500772Y-89928714D01*
X109500771Y-89928714D01*
X109460123Y-89936800D01*
X109418677Y-89936800D01*
X109378029Y-89928714D01*
X109378028Y-89928714D01*
X109378025Y-89928713D01*
X109339740Y-89912856D01*
X109305276Y-89889828D01*
X109275972Y-89860524D01*
X109252944Y-89826060D01*
X109237087Y-89787775D01*
X109229000Y-89747122D01*
X109229000Y-89705678D01*
X109237087Y-89665025D01*
X109252944Y-89626740D01*
X109275972Y-89592276D01*
X109305276Y-89562972D01*
X109339740Y-89539944D01*
X109378025Y-89524087D01*
X109378028Y-89524086D01*
X109378029Y-89524086D01*
X109418677Y-89516000D01*
X109460123Y-89516000D01*
X109500771Y-89524086D01*
X109500771Y-89524086D01*
G37*
G36*
X110300771Y-89524086D02*
G01*
X110300772Y-89524086D01*
X110300775Y-89524087D01*
X110339060Y-89539944D01*
X110373524Y-89562972D01*
X110402828Y-89592276D01*
X110425856Y-89626740D01*
X110441713Y-89665025D01*
X110449800Y-89705678D01*
X110449800Y-89747122D01*
X110441713Y-89787775D01*
X110425856Y-89826060D01*
X110402828Y-89860524D01*
X110373524Y-89889828D01*
X110339060Y-89912856D01*
X110300775Y-89928713D01*
X110300772Y-89928714D01*
X110300771Y-89928714D01*
X110260123Y-89936800D01*
X110218677Y-89936800D01*
X110178029Y-89928714D01*
X110178028Y-89928714D01*
X110178025Y-89928713D01*
X110139740Y-89912856D01*
X110105276Y-89889828D01*
X110075972Y-89860524D01*
X110052944Y-89826060D01*
X110037087Y-89787775D01*
X110029000Y-89747122D01*
X110029000Y-89705678D01*
X110037087Y-89665025D01*
X110052944Y-89626740D01*
X110075972Y-89592276D01*
X110105276Y-89562972D01*
X110139740Y-89539944D01*
X110178025Y-89524087D01*
X110178028Y-89524086D01*
X110178029Y-89524086D01*
X110218677Y-89516000D01*
X110260123Y-89516000D01*
X110300771Y-89524086D01*
X110300771Y-89524086D01*
G37*
G36*
X111100771Y-89524086D02*
G01*
X111100772Y-89524086D01*
X111100775Y-89524087D01*
X111139060Y-89539944D01*
X111173524Y-89562972D01*
X111202828Y-89592276D01*
X111225856Y-89626740D01*
X111241713Y-89665025D01*
X111249800Y-89705678D01*
X111249800Y-89747122D01*
X111241713Y-89787775D01*
X111225856Y-89826060D01*
X111202828Y-89860524D01*
X111173524Y-89889828D01*
X111139060Y-89912856D01*
X111100775Y-89928713D01*
X111100772Y-89928714D01*
X111100771Y-89928714D01*
X111060123Y-89936800D01*
X111018677Y-89936800D01*
X110978029Y-89928714D01*
X110978028Y-89928714D01*
X110978025Y-89928713D01*
X110939740Y-89912856D01*
X110905276Y-89889828D01*
X110875972Y-89860524D01*
X110852944Y-89826060D01*
X110837087Y-89787775D01*
X110829000Y-89747122D01*
X110829000Y-89705678D01*
X110837087Y-89665025D01*
X110852944Y-89626740D01*
X110875972Y-89592276D01*
X110905276Y-89562972D01*
X110939740Y-89539944D01*
X110978025Y-89524087D01*
X110978028Y-89524086D01*
X110978029Y-89524086D01*
X111018677Y-89516000D01*
X111060123Y-89516000D01*
X111100771Y-89524086D01*
X111100771Y-89524086D01*
G37*
G36*
X114300771Y-89524086D02*
G01*
X114300772Y-89524086D01*
X114300775Y-89524087D01*
X114339060Y-89539944D01*
X114373524Y-89562972D01*
X114402828Y-89592276D01*
X114425856Y-89626740D01*
X114441713Y-89665025D01*
X114449800Y-89705678D01*
X114449800Y-89747122D01*
X114441713Y-89787775D01*
X114425856Y-89826060D01*
X114402828Y-89860524D01*
X114373524Y-89889828D01*
X114339060Y-89912856D01*
X114300775Y-89928713D01*
X114300772Y-89928714D01*
X114300771Y-89928714D01*
X114260123Y-89936800D01*
X114218677Y-89936800D01*
X114178029Y-89928714D01*
X114178028Y-89928714D01*
X114178025Y-89928713D01*
X114139740Y-89912856D01*
X114105276Y-89889828D01*
X114075972Y-89860524D01*
X114052944Y-89826060D01*
X114037087Y-89787775D01*
X114029000Y-89747122D01*
X114029000Y-89705678D01*
X114037087Y-89665025D01*
X114052944Y-89626740D01*
X114075972Y-89592276D01*
X114105276Y-89562972D01*
X114139740Y-89539944D01*
X114178025Y-89524087D01*
X114178028Y-89524086D01*
X114178029Y-89524086D01*
X114218677Y-89516000D01*
X114260123Y-89516000D01*
X114300771Y-89524086D01*
X114300771Y-89524086D01*
G37*
G36*
X111900771Y-89524086D02*
G01*
X111900772Y-89524086D01*
X111900775Y-89524087D01*
X111939060Y-89539944D01*
X111973524Y-89562972D01*
X112002828Y-89592276D01*
X112025856Y-89626740D01*
X112041713Y-89665025D01*
X112049800Y-89705678D01*
X112049800Y-89747122D01*
X112041713Y-89787775D01*
X112025856Y-89826060D01*
X112002828Y-89860524D01*
X111973524Y-89889828D01*
X111939060Y-89912856D01*
X111900775Y-89928713D01*
X111900772Y-89928714D01*
X111900771Y-89928714D01*
X111860123Y-89936800D01*
X111818677Y-89936800D01*
X111778029Y-89928714D01*
X111778028Y-89928714D01*
X111778025Y-89928713D01*
X111739740Y-89912856D01*
X111705276Y-89889828D01*
X111675972Y-89860524D01*
X111652944Y-89826060D01*
X111637087Y-89787775D01*
X111629000Y-89747122D01*
X111629000Y-89705678D01*
X111637087Y-89665025D01*
X111652944Y-89626740D01*
X111675972Y-89592276D01*
X111705276Y-89562972D01*
X111739740Y-89539944D01*
X111778025Y-89524087D01*
X111778028Y-89524086D01*
X111778029Y-89524086D01*
X111818677Y-89516000D01*
X111860123Y-89516000D01*
X111900771Y-89524086D01*
X111900771Y-89524086D01*
G37*
G36*
X112700771Y-89524086D02*
G01*
X112700772Y-89524086D01*
X112700775Y-89524087D01*
X112739060Y-89539944D01*
X112773524Y-89562972D01*
X112802828Y-89592276D01*
X112825856Y-89626740D01*
X112841713Y-89665025D01*
X112849800Y-89705678D01*
X112849800Y-89747122D01*
X112841713Y-89787775D01*
X112825856Y-89826060D01*
X112802828Y-89860524D01*
X112773524Y-89889828D01*
X112739060Y-89912856D01*
X112700775Y-89928713D01*
X112700772Y-89928714D01*
X112700771Y-89928714D01*
X112660123Y-89936800D01*
X112618677Y-89936800D01*
X112578029Y-89928714D01*
X112578028Y-89928714D01*
X112578025Y-89928713D01*
X112539740Y-89912856D01*
X112505276Y-89889828D01*
X112475972Y-89860524D01*
X112452944Y-89826060D01*
X112437087Y-89787775D01*
X112429000Y-89747122D01*
X112429000Y-89705678D01*
X112437087Y-89665025D01*
X112452944Y-89626740D01*
X112475972Y-89592276D01*
X112505276Y-89562972D01*
X112539740Y-89539944D01*
X112578025Y-89524087D01*
X112578028Y-89524086D01*
X112578029Y-89524086D01*
X112618677Y-89516000D01*
X112660123Y-89516000D01*
X112700771Y-89524086D01*
X112700771Y-89524086D01*
G37*
G36*
X113500771Y-89524086D02*
G01*
X113500772Y-89524086D01*
X113500775Y-89524087D01*
X113539060Y-89539944D01*
X113573524Y-89562972D01*
X113602828Y-89592276D01*
X113625856Y-89626740D01*
X113641713Y-89665025D01*
X113649800Y-89705678D01*
X113649800Y-89747122D01*
X113641713Y-89787775D01*
X113625856Y-89826060D01*
X113602828Y-89860524D01*
X113573524Y-89889828D01*
X113539060Y-89912856D01*
X113500775Y-89928713D01*
X113500772Y-89928714D01*
X113500771Y-89928714D01*
X113460123Y-89936800D01*
X113418677Y-89936800D01*
X113378029Y-89928714D01*
X113378028Y-89928714D01*
X113378025Y-89928713D01*
X113339740Y-89912856D01*
X113305276Y-89889828D01*
X113275972Y-89860524D01*
X113252944Y-89826060D01*
X113237087Y-89787775D01*
X113229000Y-89747122D01*
X113229000Y-89705678D01*
X113237087Y-89665025D01*
X113252944Y-89626740D01*
X113275972Y-89592276D01*
X113305276Y-89562972D01*
X113339740Y-89539944D01*
X113378025Y-89524087D01*
X113378028Y-89524086D01*
X113378029Y-89524086D01*
X113418677Y-89516000D01*
X113460123Y-89516000D01*
X113500771Y-89524086D01*
X113500771Y-89524086D01*
G37*
G36*
X115100771Y-89524086D02*
G01*
X115100772Y-89524086D01*
X115100775Y-89524087D01*
X115139060Y-89539944D01*
X115173524Y-89562972D01*
X115202828Y-89592276D01*
X115225856Y-89626740D01*
X115241713Y-89665025D01*
X115249800Y-89705678D01*
X115249800Y-89747122D01*
X115241713Y-89787775D01*
X115225856Y-89826060D01*
X115202828Y-89860524D01*
X115173524Y-89889828D01*
X115139060Y-89912856D01*
X115100775Y-89928713D01*
X115100772Y-89928714D01*
X115100771Y-89928714D01*
X115060123Y-89936800D01*
X115018677Y-89936800D01*
X114978029Y-89928714D01*
X114978028Y-89928714D01*
X114978025Y-89928713D01*
X114939740Y-89912856D01*
X114905276Y-89889828D01*
X114875972Y-89860524D01*
X114852944Y-89826060D01*
X114837087Y-89787775D01*
X114829000Y-89747122D01*
X114829000Y-89705678D01*
X114837087Y-89665025D01*
X114852944Y-89626740D01*
X114875972Y-89592276D01*
X114905276Y-89562972D01*
X114939740Y-89539944D01*
X114978025Y-89524087D01*
X114978028Y-89524086D01*
X114978029Y-89524086D01*
X115018677Y-89516000D01*
X115060123Y-89516000D01*
X115100771Y-89524086D01*
X115100771Y-89524086D01*
G37*
G36*
X102312800Y-89834200D02*
G01*
X101262000Y-89834200D01*
X101262000Y-89083400D01*
X102312800Y-89083400D01*
X102312800Y-89834200D01*
X102312800Y-89834200D01*
G37*
G36*
X117089274Y-88923898D02*
G01*
X117143724Y-88946452D01*
X117192729Y-88979196D01*
X117234404Y-89020871D01*
X117267148Y-89069876D01*
X117289702Y-89124326D01*
X117301200Y-89182131D01*
X117301200Y-89241069D01*
X117289702Y-89298874D01*
X117267148Y-89353324D01*
X117234404Y-89402329D01*
X117192729Y-89444004D01*
X117143724Y-89476748D01*
X117089274Y-89499302D01*
X117031469Y-89510800D01*
X116972531Y-89510800D01*
X116914726Y-89499302D01*
X116860276Y-89476748D01*
X116811271Y-89444004D01*
X116769596Y-89402329D01*
X116736852Y-89353324D01*
X116714298Y-89298874D01*
X116702800Y-89241069D01*
X116702800Y-89182131D01*
X116714298Y-89124326D01*
X116736852Y-89069876D01*
X116769596Y-89020871D01*
X116811271Y-88979196D01*
X116860276Y-88946452D01*
X116914726Y-88923898D01*
X116972531Y-88912400D01*
X117031469Y-88912400D01*
X117089274Y-88923898D01*
X117089274Y-88923898D01*
G37*
G36*
X102312800Y-88734200D02*
G01*
X101262000Y-88734200D01*
X101262000Y-87983400D01*
X102312800Y-87983400D01*
X102312800Y-88734200D01*
X102312800Y-88734200D01*
G37*
G36*
X106548274Y-88136498D02*
G01*
X106602724Y-88159052D01*
X106651729Y-88191796D01*
X106693404Y-88233471D01*
X106726148Y-88282476D01*
X106748702Y-88336926D01*
X106760200Y-88394731D01*
X106760200Y-88453669D01*
X106748702Y-88511474D01*
X106726148Y-88565924D01*
X106693404Y-88614929D01*
X106651729Y-88656604D01*
X106602724Y-88689348D01*
X106548274Y-88711902D01*
X106490469Y-88723400D01*
X106431531Y-88723400D01*
X106373726Y-88711902D01*
X106319276Y-88689348D01*
X106270271Y-88656604D01*
X106228596Y-88614929D01*
X106195852Y-88565924D01*
X106173298Y-88511474D01*
X106161800Y-88453669D01*
X106161800Y-88394731D01*
X106173298Y-88336926D01*
X106195852Y-88282476D01*
X106228596Y-88233471D01*
X106270271Y-88191796D01*
X106319276Y-88159052D01*
X106373726Y-88136498D01*
X106431531Y-88125000D01*
X106490469Y-88125000D01*
X106548274Y-88136498D01*
X106548274Y-88136498D01*
G37*
G36*
X110837274Y-87962298D02*
G01*
X110891724Y-87984852D01*
X110940729Y-88017596D01*
X110982404Y-88059271D01*
X111015148Y-88108276D01*
X111037702Y-88162726D01*
X111049200Y-88220531D01*
X111049200Y-88279469D01*
X111037702Y-88337274D01*
X111015148Y-88391724D01*
X110982404Y-88440729D01*
X110940729Y-88482404D01*
X110891724Y-88515148D01*
X110837274Y-88537702D01*
X110779469Y-88549200D01*
X110720531Y-88549200D01*
X110662726Y-88537702D01*
X110608276Y-88515148D01*
X110559271Y-88482404D01*
X110517596Y-88440729D01*
X110484852Y-88391724D01*
X110462298Y-88337274D01*
X110450800Y-88279469D01*
X110450800Y-88220531D01*
X110462298Y-88162726D01*
X110484852Y-88108276D01*
X110517596Y-88059271D01*
X110559271Y-88017596D01*
X110608276Y-87984852D01*
X110662726Y-87962298D01*
X110720531Y-87950800D01*
X110779469Y-87950800D01*
X110837274Y-87962298D01*
X110837274Y-87962298D01*
G37*
G36*
X112364874Y-87958698D02*
G01*
X112419324Y-87981252D01*
X112468329Y-88013996D01*
X112510004Y-88055671D01*
X112542748Y-88104676D01*
X112565302Y-88159126D01*
X112576800Y-88216931D01*
X112576800Y-88275869D01*
X112565302Y-88333674D01*
X112542748Y-88388124D01*
X112510004Y-88437129D01*
X112468329Y-88478804D01*
X112419324Y-88511548D01*
X112364874Y-88534102D01*
X112307069Y-88545600D01*
X112248131Y-88545600D01*
X112190326Y-88534102D01*
X112135876Y-88511548D01*
X112086871Y-88478804D01*
X112045196Y-88437129D01*
X112012452Y-88388124D01*
X111989898Y-88333674D01*
X111978400Y-88275869D01*
X111978400Y-88216931D01*
X111989898Y-88159126D01*
X112012452Y-88104676D01*
X112045196Y-88055671D01*
X112086871Y-88013996D01*
X112135876Y-87981252D01*
X112190326Y-87958698D01*
X112248131Y-87947200D01*
X112307069Y-87947200D01*
X112364874Y-87958698D01*
X112364874Y-87958698D01*
G37*
G36*
X117089274Y-87653898D02*
G01*
X117143724Y-87676452D01*
X117192729Y-87709196D01*
X117234404Y-87750871D01*
X117267148Y-87799876D01*
X117289702Y-87854326D01*
X117301200Y-87912131D01*
X117301200Y-87971069D01*
X117289702Y-88028874D01*
X117267148Y-88083324D01*
X117234404Y-88132329D01*
X117192729Y-88174004D01*
X117143724Y-88206748D01*
X117089274Y-88229302D01*
X117031469Y-88240800D01*
X116972531Y-88240800D01*
X116914726Y-88229302D01*
X116860276Y-88206748D01*
X116811271Y-88174004D01*
X116769596Y-88132329D01*
X116736852Y-88083324D01*
X116714298Y-88028874D01*
X116702800Y-87971069D01*
X116702800Y-87912131D01*
X116714298Y-87854326D01*
X116736852Y-87799876D01*
X116769596Y-87750871D01*
X116811271Y-87709196D01*
X116860276Y-87676452D01*
X116914726Y-87653898D01*
X116972531Y-87642400D01*
X117031469Y-87642400D01*
X117089274Y-87653898D01*
X117089274Y-87653898D01*
G37*
G36*
X107259474Y-87501498D02*
G01*
X107313924Y-87524052D01*
X107362929Y-87556796D01*
X107404604Y-87598471D01*
X107437348Y-87647476D01*
X107459902Y-87701926D01*
X107471400Y-87759731D01*
X107471400Y-87818669D01*
X107459902Y-87876474D01*
X107437348Y-87930924D01*
X107404604Y-87979929D01*
X107362929Y-88021604D01*
X107313924Y-88054348D01*
X107259474Y-88076902D01*
X107201669Y-88088400D01*
X107142731Y-88088400D01*
X107084926Y-88076902D01*
X107030476Y-88054348D01*
X106981471Y-88021604D01*
X106939796Y-87979929D01*
X106907052Y-87930924D01*
X106884498Y-87876474D01*
X106873000Y-87818669D01*
X106873000Y-87759731D01*
X106884498Y-87701926D01*
X106907052Y-87647476D01*
X106939796Y-87598471D01*
X106981471Y-87556796D01*
X107030476Y-87524052D01*
X107084926Y-87501498D01*
X107142731Y-87490000D01*
X107201669Y-87490000D01*
X107259474Y-87501498D01*
X107259474Y-87501498D01*
G37*
G36*
X103902800Y-87484200D02*
G01*
X102652000Y-87484200D01*
X102652000Y-85983400D01*
X103902800Y-85983400D01*
X103902800Y-87484200D01*
X103902800Y-87484200D01*
G37*
G36*
X106052800Y-87434200D02*
G01*
X105102000Y-87434200D01*
X105102000Y-85983400D01*
X106052800Y-85983400D01*
X106052800Y-87434200D01*
X106052800Y-87434200D01*
G37*
G36*
X110479495Y-86606137D02*
G01*
X110530342Y-86627198D01*
X110576105Y-86657776D01*
X110615020Y-86696691D01*
X110645598Y-86742454D01*
X110666659Y-86793301D01*
X110677396Y-86847281D01*
X110677396Y-86902319D01*
X110666659Y-86956299D01*
X110645598Y-87007146D01*
X110615020Y-87052909D01*
X110576105Y-87091824D01*
X110530342Y-87122402D01*
X110479495Y-87143463D01*
X110425515Y-87154200D01*
X110370477Y-87154200D01*
X110316497Y-87143463D01*
X110265650Y-87122402D01*
X110219887Y-87091824D01*
X110180972Y-87052909D01*
X110150394Y-87007146D01*
X110129333Y-86956299D01*
X110118596Y-86902319D01*
X110118596Y-86847281D01*
X110129333Y-86793301D01*
X110150394Y-86742454D01*
X110180972Y-86696691D01*
X110219887Y-86657776D01*
X110265650Y-86627198D01*
X110316497Y-86606137D01*
X110370477Y-86595400D01*
X110425515Y-86595400D01*
X110479495Y-86606137D01*
X110479495Y-86606137D01*
G37*
G36*
X111444694Y-86606137D02*
G01*
X111495541Y-86627198D01*
X111541304Y-86657776D01*
X111580219Y-86696691D01*
X111610797Y-86742454D01*
X111631858Y-86793301D01*
X111642595Y-86847281D01*
X111642595Y-86902319D01*
X111631858Y-86956299D01*
X111610797Y-87007146D01*
X111580219Y-87052909D01*
X111541304Y-87091824D01*
X111495541Y-87122402D01*
X111444694Y-87143463D01*
X111390714Y-87154200D01*
X111335676Y-87154200D01*
X111281696Y-87143463D01*
X111230849Y-87122402D01*
X111185086Y-87091824D01*
X111146171Y-87052909D01*
X111115593Y-87007146D01*
X111094532Y-86956299D01*
X111083795Y-86902319D01*
X111083795Y-86847281D01*
X111094532Y-86793301D01*
X111115593Y-86742454D01*
X111146171Y-86696691D01*
X111185086Y-86657776D01*
X111230849Y-86627198D01*
X111281696Y-86606137D01*
X111335676Y-86595400D01*
X111390714Y-86595400D01*
X111444694Y-86606137D01*
X111444694Y-86606137D01*
G37*
G36*
X112409893Y-86606137D02*
G01*
X112460740Y-86627198D01*
X112506503Y-86657776D01*
X112545418Y-86696691D01*
X112575996Y-86742454D01*
X112597057Y-86793301D01*
X112607794Y-86847281D01*
X112607794Y-86902319D01*
X112597057Y-86956299D01*
X112575996Y-87007146D01*
X112545418Y-87052909D01*
X112506503Y-87091824D01*
X112460740Y-87122402D01*
X112409893Y-87143463D01*
X112355913Y-87154200D01*
X112300875Y-87154200D01*
X112246895Y-87143463D01*
X112196048Y-87122402D01*
X112150285Y-87091824D01*
X112111370Y-87052909D01*
X112080792Y-87007146D01*
X112059731Y-86956299D01*
X112048994Y-86902319D01*
X112048994Y-86847281D01*
X112059731Y-86793301D01*
X112080792Y-86742454D01*
X112111370Y-86696691D01*
X112150285Y-86657776D01*
X112196048Y-86627198D01*
X112246895Y-86606137D01*
X112300875Y-86595400D01*
X112355913Y-86595400D01*
X112409893Y-86606137D01*
X112409893Y-86606137D01*
G37*
G36*
X107583898Y-86606137D02*
G01*
X107634745Y-86627198D01*
X107680508Y-86657776D01*
X107719423Y-86696691D01*
X107750001Y-86742454D01*
X107771062Y-86793301D01*
X107781799Y-86847281D01*
X107781799Y-86902319D01*
X107771062Y-86956299D01*
X107750001Y-87007146D01*
X107719423Y-87052909D01*
X107680508Y-87091824D01*
X107634745Y-87122402D01*
X107583898Y-87143463D01*
X107529918Y-87154200D01*
X107474880Y-87154200D01*
X107420900Y-87143463D01*
X107370053Y-87122402D01*
X107324290Y-87091824D01*
X107285375Y-87052909D01*
X107254797Y-87007146D01*
X107233736Y-86956299D01*
X107222999Y-86902319D01*
X107222999Y-86847281D01*
X107233736Y-86793301D01*
X107254797Y-86742454D01*
X107285375Y-86696691D01*
X107324290Y-86657776D01*
X107370053Y-86627198D01*
X107420900Y-86606137D01*
X107474880Y-86595400D01*
X107529918Y-86595400D01*
X107583898Y-86606137D01*
X107583898Y-86606137D01*
G37*
G36*
X113375092Y-86606137D02*
G01*
X113425939Y-86627198D01*
X113471702Y-86657776D01*
X113510617Y-86696691D01*
X113541195Y-86742454D01*
X113562256Y-86793301D01*
X113572993Y-86847281D01*
X113572993Y-86902319D01*
X113562256Y-86956299D01*
X113541195Y-87007146D01*
X113510617Y-87052909D01*
X113471702Y-87091824D01*
X113425939Y-87122402D01*
X113375092Y-87143463D01*
X113321112Y-87154200D01*
X113266074Y-87154200D01*
X113212094Y-87143463D01*
X113161247Y-87122402D01*
X113115484Y-87091824D01*
X113076569Y-87052909D01*
X113045991Y-87007146D01*
X113024930Y-86956299D01*
X113014193Y-86902319D01*
X113014193Y-86847281D01*
X113024930Y-86793301D01*
X113045991Y-86742454D01*
X113076569Y-86696691D01*
X113115484Y-86657776D01*
X113161247Y-86627198D01*
X113212094Y-86606137D01*
X113266074Y-86595400D01*
X113321112Y-86595400D01*
X113375092Y-86606137D01*
X113375092Y-86606137D01*
G37*
G36*
X114340291Y-86606137D02*
G01*
X114391138Y-86627198D01*
X114436901Y-86657776D01*
X114475816Y-86696691D01*
X114506394Y-86742454D01*
X114527455Y-86793301D01*
X114538192Y-86847281D01*
X114538192Y-86902319D01*
X114527455Y-86956299D01*
X114506394Y-87007146D01*
X114475816Y-87052909D01*
X114436901Y-87091824D01*
X114391138Y-87122402D01*
X114340291Y-87143463D01*
X114286311Y-87154200D01*
X114231273Y-87154200D01*
X114177293Y-87143463D01*
X114126446Y-87122402D01*
X114080683Y-87091824D01*
X114041768Y-87052909D01*
X114011190Y-87007146D01*
X113990129Y-86956299D01*
X113979392Y-86902319D01*
X113979392Y-86847281D01*
X113990129Y-86793301D01*
X114011190Y-86742454D01*
X114041768Y-86696691D01*
X114080683Y-86657776D01*
X114126446Y-86627198D01*
X114177293Y-86606137D01*
X114231273Y-86595400D01*
X114286311Y-86595400D01*
X114340291Y-86606137D01*
X114340291Y-86606137D01*
G37*
G36*
X108549097Y-86606137D02*
G01*
X108599944Y-86627198D01*
X108645707Y-86657776D01*
X108684622Y-86696691D01*
X108715200Y-86742454D01*
X108736261Y-86793301D01*
X108746998Y-86847281D01*
X108746998Y-86902319D01*
X108736261Y-86956299D01*
X108715200Y-87007146D01*
X108684622Y-87052909D01*
X108645707Y-87091824D01*
X108599944Y-87122402D01*
X108549097Y-87143463D01*
X108495117Y-87154200D01*
X108440079Y-87154200D01*
X108386099Y-87143463D01*
X108335252Y-87122402D01*
X108289489Y-87091824D01*
X108250574Y-87052909D01*
X108219996Y-87007146D01*
X108198935Y-86956299D01*
X108188198Y-86902319D01*
X108188198Y-86847281D01*
X108198935Y-86793301D01*
X108219996Y-86742454D01*
X108250574Y-86696691D01*
X108289489Y-86657776D01*
X108335252Y-86627198D01*
X108386099Y-86606137D01*
X108440079Y-86595400D01*
X108495117Y-86595400D01*
X108549097Y-86606137D01*
X108549097Y-86606137D01*
G37*
G36*
X115305490Y-86606137D02*
G01*
X115356337Y-86627198D01*
X115402100Y-86657776D01*
X115441015Y-86696691D01*
X115471593Y-86742454D01*
X115492654Y-86793301D01*
X115503391Y-86847281D01*
X115503391Y-86902319D01*
X115492654Y-86956299D01*
X115471593Y-87007146D01*
X115441015Y-87052909D01*
X115402100Y-87091824D01*
X115356337Y-87122402D01*
X115305490Y-87143463D01*
X115251510Y-87154200D01*
X115196472Y-87154200D01*
X115142492Y-87143463D01*
X115091645Y-87122402D01*
X115045882Y-87091824D01*
X115006967Y-87052909D01*
X114976389Y-87007146D01*
X114955328Y-86956299D01*
X114944591Y-86902319D01*
X114944591Y-86847281D01*
X114955328Y-86793301D01*
X114976389Y-86742454D01*
X115006967Y-86696691D01*
X115045882Y-86657776D01*
X115091645Y-86627198D01*
X115142492Y-86606137D01*
X115196472Y-86595400D01*
X115251510Y-86595400D01*
X115305490Y-86606137D01*
X115305490Y-86606137D01*
G37*
G36*
X116270689Y-86606137D02*
G01*
X116321536Y-86627198D01*
X116367299Y-86657776D01*
X116406214Y-86696691D01*
X116436792Y-86742454D01*
X116457853Y-86793301D01*
X116468590Y-86847281D01*
X116468590Y-86902319D01*
X116457853Y-86956299D01*
X116436792Y-87007146D01*
X116406214Y-87052909D01*
X116367299Y-87091824D01*
X116321536Y-87122402D01*
X116270689Y-87143463D01*
X116216709Y-87154200D01*
X116161671Y-87154200D01*
X116107691Y-87143463D01*
X116056844Y-87122402D01*
X116011081Y-87091824D01*
X115972166Y-87052909D01*
X115941588Y-87007146D01*
X115920527Y-86956299D01*
X115909790Y-86902319D01*
X115909790Y-86847281D01*
X115920527Y-86793301D01*
X115941588Y-86742454D01*
X115972166Y-86696691D01*
X116011081Y-86657776D01*
X116056844Y-86627198D01*
X116107691Y-86606137D01*
X116161671Y-86595400D01*
X116216709Y-86595400D01*
X116270689Y-86606137D01*
X116270689Y-86606137D01*
G37*
G36*
X109514296Y-86606137D02*
G01*
X109565143Y-86627198D01*
X109610906Y-86657776D01*
X109649821Y-86696691D01*
X109680399Y-86742454D01*
X109701460Y-86793301D01*
X109712197Y-86847281D01*
X109712197Y-86902319D01*
X109701460Y-86956299D01*
X109680399Y-87007146D01*
X109649821Y-87052909D01*
X109610906Y-87091824D01*
X109565143Y-87122402D01*
X109514296Y-87143463D01*
X109460316Y-87154200D01*
X109405278Y-87154200D01*
X109351298Y-87143463D01*
X109300451Y-87122402D01*
X109254688Y-87091824D01*
X109215773Y-87052909D01*
X109185195Y-87007146D01*
X109164134Y-86956299D01*
X109153397Y-86902319D01*
X109153397Y-86847281D01*
X109164134Y-86793301D01*
X109185195Y-86742454D01*
X109215773Y-86696691D01*
X109254688Y-86657776D01*
X109300451Y-86627198D01*
X109351298Y-86606137D01*
X109405278Y-86595400D01*
X109460316Y-86595400D01*
X109514296Y-86606137D01*
X109514296Y-86606137D01*
G37*
G36*
X104802800Y-87034200D02*
G01*
X104052000Y-87034200D01*
X104052000Y-85983400D01*
X104802800Y-85983400D01*
X104802800Y-87034200D01*
X104802800Y-87034200D01*
G37*
G36*
X108066498Y-85996537D02*
G01*
X108117345Y-86017598D01*
X108163108Y-86048176D01*
X108202023Y-86087091D01*
X108232601Y-86132854D01*
X108253662Y-86183701D01*
X108264399Y-86237681D01*
X108264399Y-86292719D01*
X108253662Y-86346699D01*
X108232601Y-86397546D01*
X108202023Y-86443309D01*
X108163108Y-86482224D01*
X108117345Y-86512802D01*
X108066498Y-86533863D01*
X108012518Y-86544600D01*
X107957480Y-86544600D01*
X107903500Y-86533863D01*
X107852653Y-86512802D01*
X107806890Y-86482224D01*
X107767975Y-86443309D01*
X107737397Y-86397546D01*
X107716336Y-86346699D01*
X107705599Y-86292719D01*
X107705599Y-86237681D01*
X107716336Y-86183701D01*
X107737397Y-86132854D01*
X107767975Y-86087091D01*
X107806890Y-86048176D01*
X107852653Y-86017598D01*
X107903500Y-85996537D01*
X107957480Y-85985800D01*
X108012518Y-85985800D01*
X108066498Y-85996537D01*
X108066498Y-85996537D01*
G37*
G36*
X109031697Y-85996537D02*
G01*
X109082544Y-86017598D01*
X109128307Y-86048176D01*
X109167222Y-86087091D01*
X109197800Y-86132854D01*
X109218861Y-86183701D01*
X109229598Y-86237681D01*
X109229598Y-86292719D01*
X109218861Y-86346699D01*
X109197800Y-86397546D01*
X109167222Y-86443309D01*
X109128307Y-86482224D01*
X109082544Y-86512802D01*
X109031697Y-86533863D01*
X108977717Y-86544600D01*
X108922679Y-86544600D01*
X108868699Y-86533863D01*
X108817852Y-86512802D01*
X108772089Y-86482224D01*
X108733174Y-86443309D01*
X108702596Y-86397546D01*
X108681535Y-86346699D01*
X108670798Y-86292719D01*
X108670798Y-86237681D01*
X108681535Y-86183701D01*
X108702596Y-86132854D01*
X108733174Y-86087091D01*
X108772089Y-86048176D01*
X108817852Y-86017598D01*
X108868699Y-85996537D01*
X108922679Y-85985800D01*
X108977717Y-85985800D01*
X109031697Y-85996537D01*
X109031697Y-85996537D01*
G37*
G36*
X107101299Y-85996537D02*
G01*
X107152146Y-86017598D01*
X107197909Y-86048176D01*
X107236824Y-86087091D01*
X107267402Y-86132854D01*
X107288463Y-86183701D01*
X107299200Y-86237681D01*
X107299200Y-86292719D01*
X107288463Y-86346699D01*
X107267402Y-86397546D01*
X107236824Y-86443309D01*
X107197909Y-86482224D01*
X107152146Y-86512802D01*
X107101299Y-86533863D01*
X107047319Y-86544600D01*
X106992281Y-86544600D01*
X106938301Y-86533863D01*
X106887454Y-86512802D01*
X106841691Y-86482224D01*
X106802776Y-86443309D01*
X106772198Y-86397546D01*
X106751137Y-86346699D01*
X106740400Y-86292719D01*
X106740400Y-86237681D01*
X106751137Y-86183701D01*
X106772198Y-86132854D01*
X106802776Y-86087091D01*
X106841691Y-86048176D01*
X106887454Y-86017598D01*
X106938301Y-85996537D01*
X106992281Y-85985800D01*
X107047319Y-85985800D01*
X107101299Y-85996537D01*
X107101299Y-85996537D01*
G37*
G36*
X109996896Y-85996537D02*
G01*
X110047743Y-86017598D01*
X110093506Y-86048176D01*
X110132421Y-86087091D01*
X110162999Y-86132854D01*
X110184060Y-86183701D01*
X110194797Y-86237681D01*
X110194797Y-86292719D01*
X110184060Y-86346699D01*
X110162999Y-86397546D01*
X110132421Y-86443309D01*
X110093506Y-86482224D01*
X110047743Y-86512802D01*
X109996896Y-86533863D01*
X109942916Y-86544600D01*
X109887878Y-86544600D01*
X109833898Y-86533863D01*
X109783051Y-86512802D01*
X109737288Y-86482224D01*
X109698373Y-86443309D01*
X109667795Y-86397546D01*
X109646734Y-86346699D01*
X109635997Y-86292719D01*
X109635997Y-86237681D01*
X109646734Y-86183701D01*
X109667795Y-86132854D01*
X109698373Y-86087091D01*
X109737288Y-86048176D01*
X109783051Y-86017598D01*
X109833898Y-85996537D01*
X109887878Y-85985800D01*
X109942916Y-85985800D01*
X109996896Y-85996537D01*
X109996896Y-85996537D01*
G37*
G36*
X112892493Y-85996537D02*
G01*
X112943340Y-86017598D01*
X112989103Y-86048176D01*
X113028018Y-86087091D01*
X113058596Y-86132854D01*
X113079657Y-86183701D01*
X113090394Y-86237681D01*
X113090394Y-86292719D01*
X113079657Y-86346699D01*
X113058596Y-86397546D01*
X113028018Y-86443309D01*
X112989103Y-86482224D01*
X112943340Y-86512802D01*
X112892493Y-86533863D01*
X112838513Y-86544600D01*
X112783475Y-86544600D01*
X112729495Y-86533863D01*
X112678648Y-86512802D01*
X112632885Y-86482224D01*
X112593970Y-86443309D01*
X112563392Y-86397546D01*
X112542331Y-86346699D01*
X112531594Y-86292719D01*
X112531594Y-86237681D01*
X112542331Y-86183701D01*
X112563392Y-86132854D01*
X112593970Y-86087091D01*
X112632885Y-86048176D01*
X112678648Y-86017598D01*
X112729495Y-85996537D01*
X112783475Y-85985800D01*
X112838513Y-85985800D01*
X112892493Y-85996537D01*
X112892493Y-85996537D01*
G37*
G36*
X110962095Y-85996537D02*
G01*
X111012942Y-86017598D01*
X111058705Y-86048176D01*
X111097620Y-86087091D01*
X111128198Y-86132854D01*
X111149259Y-86183701D01*
X111159996Y-86237681D01*
X111159996Y-86292719D01*
X111149259Y-86346699D01*
X111128198Y-86397546D01*
X111097620Y-86443309D01*
X111058705Y-86482224D01*
X111012942Y-86512802D01*
X110962095Y-86533863D01*
X110908115Y-86544600D01*
X110853077Y-86544600D01*
X110799097Y-86533863D01*
X110748250Y-86512802D01*
X110702487Y-86482224D01*
X110663572Y-86443309D01*
X110632994Y-86397546D01*
X110611933Y-86346699D01*
X110601196Y-86292719D01*
X110601196Y-86237681D01*
X110611933Y-86183701D01*
X110632994Y-86132854D01*
X110663572Y-86087091D01*
X110702487Y-86048176D01*
X110748250Y-86017598D01*
X110799097Y-85996537D01*
X110853077Y-85985800D01*
X110908115Y-85985800D01*
X110962095Y-85996537D01*
X110962095Y-85996537D01*
G37*
G36*
X113857692Y-85996537D02*
G01*
X113908539Y-86017598D01*
X113954302Y-86048176D01*
X113993217Y-86087091D01*
X114023795Y-86132854D01*
X114044856Y-86183701D01*
X114055593Y-86237681D01*
X114055593Y-86292719D01*
X114044856Y-86346699D01*
X114023795Y-86397546D01*
X113993217Y-86443309D01*
X113954302Y-86482224D01*
X113908539Y-86512802D01*
X113857692Y-86533863D01*
X113803712Y-86544600D01*
X113748674Y-86544600D01*
X113694694Y-86533863D01*
X113643847Y-86512802D01*
X113598084Y-86482224D01*
X113559169Y-86443309D01*
X113528591Y-86397546D01*
X113507530Y-86346699D01*
X113496793Y-86292719D01*
X113496793Y-86237681D01*
X113507530Y-86183701D01*
X113528591Y-86132854D01*
X113559169Y-86087091D01*
X113598084Y-86048176D01*
X113643847Y-86017598D01*
X113694694Y-85996537D01*
X113748674Y-85985800D01*
X113803712Y-85985800D01*
X113857692Y-85996537D01*
X113857692Y-85996537D01*
G37*
G36*
X111927294Y-85996537D02*
G01*
X111978141Y-86017598D01*
X112023904Y-86048176D01*
X112062819Y-86087091D01*
X112093397Y-86132854D01*
X112114458Y-86183701D01*
X112125195Y-86237681D01*
X112125195Y-86292719D01*
X112114458Y-86346699D01*
X112093397Y-86397546D01*
X112062819Y-86443309D01*
X112023904Y-86482224D01*
X111978141Y-86512802D01*
X111927294Y-86533863D01*
X111873314Y-86544600D01*
X111818276Y-86544600D01*
X111764296Y-86533863D01*
X111713449Y-86512802D01*
X111667686Y-86482224D01*
X111628771Y-86443309D01*
X111598193Y-86397546D01*
X111577132Y-86346699D01*
X111566395Y-86292719D01*
X111566395Y-86237681D01*
X111577132Y-86183701D01*
X111598193Y-86132854D01*
X111628771Y-86087091D01*
X111667686Y-86048176D01*
X111713449Y-86017598D01*
X111764296Y-85996537D01*
X111818276Y-85985800D01*
X111873314Y-85985800D01*
X111927294Y-85996537D01*
X111927294Y-85996537D01*
G37*
G36*
X114822891Y-85996537D02*
G01*
X114873738Y-86017598D01*
X114919501Y-86048176D01*
X114958416Y-86087091D01*
X114988994Y-86132854D01*
X115010055Y-86183701D01*
X115020792Y-86237681D01*
X115020792Y-86292719D01*
X115010055Y-86346699D01*
X114988994Y-86397546D01*
X114958416Y-86443309D01*
X114919501Y-86482224D01*
X114873738Y-86512802D01*
X114822891Y-86533863D01*
X114768911Y-86544600D01*
X114713873Y-86544600D01*
X114659893Y-86533863D01*
X114609046Y-86512802D01*
X114563283Y-86482224D01*
X114524368Y-86443309D01*
X114493790Y-86397546D01*
X114472729Y-86346699D01*
X114461992Y-86292719D01*
X114461992Y-86237681D01*
X114472729Y-86183701D01*
X114493790Y-86132854D01*
X114524368Y-86087091D01*
X114563283Y-86048176D01*
X114609046Y-86017598D01*
X114659893Y-85996537D01*
X114713873Y-85985800D01*
X114768911Y-85985800D01*
X114822891Y-85996537D01*
X114822891Y-85996537D01*
G37*
G36*
X115788090Y-85996537D02*
G01*
X115838937Y-86017598D01*
X115884700Y-86048176D01*
X115923615Y-86087091D01*
X115954193Y-86132854D01*
X115975254Y-86183701D01*
X115985991Y-86237681D01*
X115985991Y-86292719D01*
X115975254Y-86346699D01*
X115954193Y-86397546D01*
X115923615Y-86443309D01*
X115884700Y-86482224D01*
X115838937Y-86512802D01*
X115788090Y-86533863D01*
X115734110Y-86544600D01*
X115679072Y-86544600D01*
X115625092Y-86533863D01*
X115574245Y-86512802D01*
X115528482Y-86482224D01*
X115489567Y-86443309D01*
X115458989Y-86397546D01*
X115437928Y-86346699D01*
X115427191Y-86292719D01*
X115427191Y-86237681D01*
X115437928Y-86183701D01*
X115458989Y-86132854D01*
X115489567Y-86087091D01*
X115528482Y-86048176D01*
X115574245Y-86017598D01*
X115625092Y-85996537D01*
X115679072Y-85985800D01*
X115734110Y-85985800D01*
X115788090Y-85996537D01*
X115788090Y-85996537D01*
G37*
M02*
