M48
; DRILL file {KiCad (5.1.0)-1} date 9/21/2019 4:05:30 PM
; FORMAT={-:-/ absolute / inch / decimal}
; #@! TF.CreationDate,2019-09-21T16:05:30-07:00
; #@! TF.GenerationSoftware,Kicad,Pcbnew,(5.1.0)-1
FMAT,2
INCH
T1C0.0079
%
G90
G05
T1
X4.0051Y-3.4103
X4.0054Y-3.8133
X4.0054Y-3.8363
X4.0414Y-3.7833
X4.0424Y-3.6903
X4.0424Y-3.7383
X4.0434Y-3.6163
X4.0434Y-3.7133
X4.0734Y-3.4653
X4.0784Y-3.6783
X4.0804Y-3.6133
X4.0884Y-3.8353
X4.1054Y-3.6123
X4.1134Y-3.8363
X4.1254Y-3.4653
X4.1304Y-3.6373
X4.1434Y-3.7373
X4.1444Y-3.8373
X4.1494Y-3.5883
X4.1784Y-3.5893
X4.1934Y-3.4743
X4.2034Y-3.8273
X4.2134Y-3.3963
X4.2174Y-3.5973
X4.2184Y-3.6223
X4.2194Y-3.8043
X4.2324Y-3.4203
X4.2414Y-3.8383
X4.2514Y-3.3963
X4.2604Y-3.4923
X4.2614Y-3.6743
X4.2614Y-3.7373
X4.2622Y-3.8006
X4.2624Y-3.6423
X4.2627Y-3.6119
X4.2704Y-3.4203
X4.2714Y-3.8383
X4.2894Y-3.3963
X4.2924Y-3.7693
X4.2934Y-3.6743
X4.2934Y-3.7383
X4.2954Y-3.8393
X4.2974Y-3.5103
X4.3204Y-3.8383
X4.3466Y-3.8383
X4.3554Y-3.6433
X4.3564Y-3.6114
X4.3564Y-3.7683
X4.3572Y-3.7076
X4.3654Y-3.3963
X4.3764Y-3.8383
X4.3844Y-3.4203
X4.3858Y-3.5807
X4.3874Y-3.6123
X4.3874Y-3.6443
X4.3874Y-3.7373
X4.3874Y-3.7683
X4.3924Y-3.4733
X4.4024Y-3.8383
X4.4184Y-3.5807
X4.4184Y-3.6123
X4.4194Y-3.7693
X4.4224Y-3.4203
X4.4274Y-3.8383
X4.4414Y-3.3963
X4.4504Y-3.6433
X4.4504Y-3.7076
X4.4504Y-3.7703
X4.4514Y-3.6743
X4.4604Y-3.4553
X4.4657Y-3.5093
X4.4794Y-3.3963
X4.4814Y-3.7683
X4.4824Y-3.6103
X4.4844Y-3.8343
X4.4984Y-3.4203
X4.5124Y-3.7683
X4.5307Y-3.564
X4.5327Y-3.4609
X4.5504Y-3.7623
X4.5514Y-3.6633
X4.5524Y-3.7123
X4.5524Y-3.7363
X4.5544Y-3.4633
X4.5554Y-3.3963
X4.5704Y-3.5853
X4.5944Y-3.8323
X4.5964Y-3.8053
X4.6044Y-3.3983
X4.6064Y-3.4623
X4.6064Y-3.5123
X4.6064Y-3.5623
X4.6224Y-3.8333
X4.6234Y-3.5883
T0
M30
