G04 #@! TF.GenerationSoftware,KiCad,Pcbnew,(5.1.0)-1*
G04 #@! TF.CreationDate,2019-09-21T16:05:28-07:00*
G04 #@! TF.ProjectId,Miniscope-v4-wire-free,4d696e69-7363-46f7-9065-2d76342d7769,rev?*
G04 #@! TF.SameCoordinates,Original*
G04 #@! TF.FileFunction,Paste,Top*
G04 #@! TF.FilePolarity,Positive*
%FSLAX46Y46*%
G04 Gerber Fmt 4.6, Leading zero omitted, Abs format (unit mm)*
G04 Created by KiCad (PCBNEW (5.1.0)-1) date 2019-09-21 16:05:28*
%MOMM*%
%LPD*%
G04 APERTURE LIST*
%ADD10C,0.370000*%
%ADD11C,0.508000*%
%ADD12R,0.900000X1.400000*%
%ADD13R,0.700000X1.000000*%
%ADD14R,1.200000X1.450000*%
%ADD15R,1.000000X0.700000*%
%ADD16R,1.200000X1.150000*%
G04 APERTURE END LIST*
D10*
X107839400Y-89726400D03*
X108639400Y-89726400D03*
X109439400Y-89726400D03*
X110239400Y-89726400D03*
X111039400Y-89726400D03*
X111839400Y-89726400D03*
X112639400Y-89726400D03*
X113439400Y-89726400D03*
X114239400Y-89726400D03*
X115039400Y-89726400D03*
X107839400Y-90526400D03*
X108639400Y-90526400D03*
X109439400Y-90526400D03*
X110239400Y-90526400D03*
X111039400Y-90526400D03*
X111839400Y-90526400D03*
X112639400Y-90526400D03*
X113439400Y-90526400D03*
X114239400Y-90526400D03*
X115039400Y-90526400D03*
X107839400Y-91326400D03*
X108639400Y-91326400D03*
X109439400Y-91326400D03*
X110239400Y-91326400D03*
X111039400Y-91326400D03*
X111839400Y-91326400D03*
X112639400Y-91326400D03*
X113439400Y-91326400D03*
X114239400Y-91326400D03*
X115039400Y-91326400D03*
X107839400Y-92126400D03*
X108639400Y-92126400D03*
X109439400Y-92126400D03*
X110239400Y-92126400D03*
X111039400Y-92126400D03*
X111839400Y-92126400D03*
X112639400Y-92126400D03*
X113439400Y-92126400D03*
X114239400Y-92126400D03*
X115039400Y-92126400D03*
X107839400Y-92926400D03*
X108639400Y-92926400D03*
X109439400Y-92926400D03*
X110239400Y-92926400D03*
X111039400Y-92926400D03*
X111839400Y-92926400D03*
X112639400Y-92926400D03*
X113439400Y-92926400D03*
X114239400Y-92926400D03*
X115039400Y-92926400D03*
X107839400Y-93726400D03*
X108639400Y-93726400D03*
X109439400Y-93726400D03*
X110239400Y-93726400D03*
X111039400Y-93726400D03*
X111839400Y-93726400D03*
X112639400Y-93726400D03*
X113439400Y-93726400D03*
X114239400Y-93726400D03*
X115039400Y-93726400D03*
X107839400Y-94526400D03*
X108639400Y-94526400D03*
X109439400Y-94526400D03*
X110239400Y-94526400D03*
X111039400Y-94526400D03*
X111839400Y-94526400D03*
X112639400Y-94526400D03*
X113439400Y-94526400D03*
X114239400Y-94526400D03*
X115039400Y-94526400D03*
X107839400Y-95326400D03*
X108639400Y-95326400D03*
X109439400Y-95326400D03*
X110239400Y-95326400D03*
X111039400Y-95326400D03*
X111839400Y-95326400D03*
X112639400Y-95326400D03*
X113439400Y-95326400D03*
X114239400Y-95326400D03*
X115039400Y-95326400D03*
X107839400Y-96126400D03*
X108639400Y-96126400D03*
X109439400Y-96126400D03*
X110239400Y-96126400D03*
X111039400Y-96126400D03*
X111839400Y-96126400D03*
X112639400Y-96126400D03*
X113439400Y-96126400D03*
X114239400Y-96126400D03*
X115039400Y-96126400D03*
X107839400Y-96926400D03*
X108639400Y-96926400D03*
X109439400Y-96926400D03*
X110239400Y-96926400D03*
X111039400Y-96926400D03*
X111839400Y-96926400D03*
X112639400Y-96926400D03*
X113439400Y-96926400D03*
X114239400Y-96926400D03*
X115039400Y-96926400D03*
D11*
X116189190Y-86874800D03*
X115706591Y-86265200D03*
X115223991Y-86874800D03*
X114741392Y-86265200D03*
X114258792Y-86874800D03*
X113776193Y-86265200D03*
X113293593Y-86874800D03*
X112810994Y-86265200D03*
X112328394Y-86874800D03*
X111845795Y-86265200D03*
X111363195Y-86874800D03*
X110880596Y-86265200D03*
X110397996Y-86874800D03*
X109915397Y-86265200D03*
X109432797Y-86874800D03*
X108950198Y-86265200D03*
X108467598Y-86874800D03*
X107984999Y-86265200D03*
X107502399Y-86874800D03*
X107019800Y-86265200D03*
D12*
X105577400Y-86708800D03*
D13*
X104427400Y-86508800D03*
D14*
X103277400Y-86733800D03*
D15*
X101787400Y-88358800D03*
X101787400Y-89458800D03*
X101787400Y-94958800D03*
X101787400Y-93858800D03*
X101787400Y-90558800D03*
X101787400Y-91658800D03*
X101787400Y-92758800D03*
X101787400Y-96058800D03*
D16*
X102837400Y-97133800D03*
X105427400Y-97133800D03*
M02*
