%TF.GenerationSoftware,KiCad,Pcbnew,(7.0.0)*%
%TF.CreationDate,2023-08-10T15:11:27-07:00*%
%TF.ProjectId,Miniscope-v4-Wire-Free,4d696e69-7363-46f7-9065-2d76342d5769,rev?*%
%TF.SameCoordinates,Original*%
%TF.FileFunction,Profile,NP*%
%FSLAX46Y46*%
G04 Gerber Fmt 4.6, Leading zero omitted, Abs format (unit mm)*
G04 Created by KiCad (PCBNEW (7.0.0)) date 2023-08-10 15:11:27*
%MOMM*%
%LPD*%
G01*
G04 APERTURE LIST*
%TA.AperFunction,Profile*%
%ADD10C,0.050000*%
%TD*%
G04 APERTURE END LIST*
D10*
X93000000Y-59250000D02*
X87250000Y-59250000D01*
X97750000Y-59250000D02*
X97000000Y-59250000D01*
X105600000Y-67000000D02*
X107000000Y-67000000D01*
X104600000Y-61000000D02*
G75*
G03*
X103600000Y-60000000I-1000000J0D01*
G01*
X104600000Y-61000000D02*
G75*
G03*
X105600000Y-62000000I1000000J0D01*
G01*
X105600000Y-62000000D02*
X107000000Y-62000000D01*
X98500000Y-69000000D02*
X103600000Y-69000000D01*
X93000000Y-70250000D02*
X93000000Y-59250000D01*
X86250000Y-58000000D02*
X85400000Y-58000000D01*
X86250000Y-58000000D02*
X86250000Y-58250000D01*
X79400000Y-58000000D02*
X85400000Y-58000000D01*
X79400000Y-58000000D02*
X79400000Y-70250000D01*
X97750000Y-59250000D02*
G75*
G03*
X98500000Y-60000000I750000J0D01*
G01*
X103600000Y-60000000D02*
X98500000Y-60000000D01*
X97000000Y-59250000D02*
X97000000Y-69750000D01*
X105600000Y-67000000D02*
G75*
G03*
X104600000Y-68000000I0J-1000000D01*
G01*
X98500000Y-69000000D02*
G75*
G03*
X97750000Y-69750000I0J-750000D01*
G01*
X107000000Y-62000000D02*
X107000000Y-67000000D01*
X97000000Y-69750000D02*
X97750000Y-69750000D01*
X79400000Y-70250000D02*
X93000000Y-70250000D01*
X93000000Y-59250000D02*
X93000000Y-59250000D01*
X103600000Y-69000000D02*
G75*
G03*
X104600000Y-68000000I0J1000000D01*
G01*
X86250000Y-58250000D02*
G75*
G03*
X87250000Y-59250000I1000000J0D01*
G01*
M02*
