%TF.GenerationSoftware,KiCad,Pcbnew,(7.0.0)*%
%TF.CreationDate,2023-08-10T15:11:27-07:00*%
%TF.ProjectId,Miniscope-v4-Wire-Free,4d696e69-7363-46f7-9065-2d76342d5769,rev?*%
%TF.SameCoordinates,Original*%
%TF.FileFunction,Legend,Top*%
%TF.FilePolarity,Positive*%
%FSLAX46Y46*%
G04 Gerber Fmt 4.6, Leading zero omitted, Abs format (unit mm)*
G04 Created by KiCad (PCBNEW (7.0.0)) date 2023-08-10 15:11:27*
%MOMM*%
%LPD*%
G01*
G04 APERTURE LIST*
%ADD10C,0.120000*%
%ADD11C,0.080000*%
%ADD12C,0.150000*%
%ADD13C,0.100000*%
G04 APERTURE END LIST*
D10*
X106200000Y-62150000D02*
X106200000Y-66850000D01*
X104399999Y-67400000D02*
G75*
G03*
X102800001Y-68600000I-799999J-600000D01*
G01*
X102600000Y-61000000D02*
G75*
G03*
X104352577Y-61658505I1000000J0D01*
G01*
D11*
X98909285Y-65768028D02*
X99109285Y-66368028D01*
X99109285Y-66368028D02*
X99309285Y-65768028D01*
X99766429Y-65968028D02*
X99766429Y-66368028D01*
X99623571Y-65739457D02*
X99480714Y-66168028D01*
X99480714Y-66168028D02*
X99852143Y-66168028D01*
X100023572Y-65768028D02*
X100166429Y-66368028D01*
X100166429Y-66368028D02*
X100280715Y-65939457D01*
X100280715Y-65939457D02*
X100395000Y-66368028D01*
X100395000Y-66368028D02*
X100537858Y-65768028D01*
X100966429Y-66053742D02*
X100766429Y-66053742D01*
X100766429Y-66368028D02*
X100766429Y-65768028D01*
X100766429Y-65768028D02*
X101052143Y-65768028D01*
X99317857Y-66940028D02*
X99460714Y-67340028D01*
X99460714Y-67340028D02*
X99603571Y-66940028D01*
X99946428Y-66740028D02*
X100003571Y-66740028D01*
X100003571Y-66740028D02*
X100060714Y-66768600D01*
X100060714Y-66768600D02*
X100089286Y-66797171D01*
X100089286Y-66797171D02*
X100117857Y-66854314D01*
X100117857Y-66854314D02*
X100146428Y-66968600D01*
X100146428Y-66968600D02*
X100146428Y-67111457D01*
X100146428Y-67111457D02*
X100117857Y-67225742D01*
X100117857Y-67225742D02*
X100089286Y-67282885D01*
X100089286Y-67282885D02*
X100060714Y-67311457D01*
X100060714Y-67311457D02*
X100003571Y-67340028D01*
X100003571Y-67340028D02*
X99946428Y-67340028D01*
X99946428Y-67340028D02*
X99889286Y-67311457D01*
X99889286Y-67311457D02*
X99860714Y-67282885D01*
X99860714Y-67282885D02*
X99832143Y-67225742D01*
X99832143Y-67225742D02*
X99803571Y-67111457D01*
X99803571Y-67111457D02*
X99803571Y-66968600D01*
X99803571Y-66968600D02*
X99832143Y-66854314D01*
X99832143Y-66854314D02*
X99860714Y-66797171D01*
X99860714Y-66797171D02*
X99889286Y-66768600D01*
X99889286Y-66768600D02*
X99946428Y-66740028D01*
X100403572Y-67282885D02*
X100432143Y-67311457D01*
X100432143Y-67311457D02*
X100403572Y-67340028D01*
X100403572Y-67340028D02*
X100375000Y-67311457D01*
X100375000Y-67311457D02*
X100403572Y-67282885D01*
X100403572Y-67282885D02*
X100403572Y-67340028D01*
X100660714Y-66797171D02*
X100689286Y-66768600D01*
X100689286Y-66768600D02*
X100746429Y-66740028D01*
X100746429Y-66740028D02*
X100889286Y-66740028D01*
X100889286Y-66740028D02*
X100946429Y-66768600D01*
X100946429Y-66768600D02*
X100975000Y-66797171D01*
X100975000Y-66797171D02*
X101003571Y-66854314D01*
X101003571Y-66854314D02*
X101003571Y-66911457D01*
X101003571Y-66911457D02*
X100975000Y-66997171D01*
X100975000Y-66997171D02*
X100632143Y-67340028D01*
X100632143Y-67340028D02*
X101003571Y-67340028D01*
D12*
%TO.C,*%
%TO.C,J1*%
X78950000Y-69900000D02*
X80250000Y-69900000D01*
X82150000Y-69900000D02*
X82950000Y-69900000D01*
X84350000Y-60000000D02*
X84350000Y-68600000D01*
X78950000Y-58500000D02*
X78950000Y-69900000D01*
X78950000Y-58500000D02*
X80750000Y-58500000D01*
D13*
%TO.C,L2*%
X89674400Y-68917600D02*
X89674400Y-68507600D01*
X91074400Y-68917600D02*
X91074400Y-68507600D01*
D10*
%TO.C,Y2*%
X86500200Y-62264800D02*
X88000200Y-62264800D01*
X86450200Y-61064800D02*
X86450200Y-60764800D01*
X88050200Y-61064800D02*
X88050200Y-60764800D01*
D13*
%TO.C,L5*%
X91288240Y-62413360D02*
X91288240Y-62003360D01*
X92688240Y-62413360D02*
X92688240Y-62003360D01*
%TO.C,U3*%
X90984600Y-65647800D02*
X90719600Y-65647800D01*
X90984600Y-63547800D02*
X90984600Y-65647800D01*
X90719600Y-63547800D02*
X90984600Y-63547800D01*
X88149600Y-63547800D02*
X87884600Y-63547800D01*
X87884600Y-65647800D02*
X88149600Y-65647800D01*
X87884600Y-63547800D02*
X87884600Y-65647800D01*
%TO.C,Q1*%
X87727400Y-62821600D02*
X87727400Y-63681600D01*
X86417400Y-62821600D02*
X86417400Y-63681600D01*
%TO.C,L1*%
X87515400Y-68917600D02*
X87515400Y-68507600D01*
X88915400Y-68917600D02*
X88915400Y-68507600D01*
D10*
%TO.C,J3*%
X103500000Y-66500000D02*
X105000000Y-66500000D01*
X103500000Y-66500000D02*
X103500000Y-62500000D01*
X105750000Y-65750000D02*
X105750000Y-63250000D01*
X103500000Y-62500000D02*
X105000000Y-62500000D01*
D13*
%TO.C,U5*%
X102078000Y-68562000D02*
X101883000Y-68562000D01*
X102078000Y-64502000D02*
X102078000Y-68562000D01*
X101883000Y-64502000D02*
X102078000Y-64502000D01*
X98213000Y-64502000D02*
X98018000Y-64502000D01*
X98018000Y-68562000D02*
X98213000Y-68562000D01*
X98018000Y-64502000D02*
X98018000Y-68562000D01*
D10*
%TO.C,SW1*%
X101421000Y-60121800D02*
X98421000Y-60121800D01*
X98421000Y-62121800D02*
X101421000Y-62121800D01*
D13*
%TO.C,D3*%
X99345000Y-63110200D02*
X99735000Y-63110200D01*
X99345000Y-64010200D02*
X99735000Y-64010200D01*
%TO.C,D2*%
X86323800Y-69198400D02*
X85933800Y-69198400D01*
X86323800Y-70098400D02*
X85933800Y-70098400D01*
%TD*%
M02*
