%TF.GenerationSoftware,KiCad,Pcbnew,(7.0.0)*%
%TF.CreationDate,2023-08-10T15:11:27-07:00*%
%TF.ProjectId,Miniscope-v4-Wire-Free,4d696e69-7363-46f7-9065-2d76342d5769,rev?*%
%TF.SameCoordinates,Original*%
%TF.FileFunction,Other,ECO2*%
%FSLAX46Y46*%
G04 Gerber Fmt 4.6, Leading zero omitted, Abs format (unit mm)*
G04 Created by KiCad (PCBNEW (7.0.0)) date 2023-08-10 15:11:27*
%MOMM*%
%LPD*%
G01*
G04 APERTURE LIST*
%ADD10C,0.050000*%
%ADD11C,0.050038*%
G04 APERTURE END LIST*
D10*
%TO.C,D1*%
X103910214Y-64278571D02*
X103610214Y-64278571D01*
X103610214Y-64278571D02*
X103610214Y-64350000D01*
X103610214Y-64350000D02*
X103624500Y-64392857D01*
X103624500Y-64392857D02*
X103653071Y-64421428D01*
X103653071Y-64421428D02*
X103681642Y-64435714D01*
X103681642Y-64435714D02*
X103738785Y-64450000D01*
X103738785Y-64450000D02*
X103781642Y-64450000D01*
X103781642Y-64450000D02*
X103838785Y-64435714D01*
X103838785Y-64435714D02*
X103867357Y-64421428D01*
X103867357Y-64421428D02*
X103895928Y-64392857D01*
X103895928Y-64392857D02*
X103910214Y-64350000D01*
X103910214Y-64350000D02*
X103910214Y-64278571D01*
X103910214Y-64735714D02*
X103910214Y-64564285D01*
X103910214Y-64650000D02*
X103610214Y-64650000D01*
X103610214Y-64650000D02*
X103653071Y-64621428D01*
X103653071Y-64621428D02*
X103681642Y-64592857D01*
X103681642Y-64592857D02*
X103695928Y-64564285D01*
%TO.C,C6*%
X88488399Y-65215642D02*
X88502685Y-65229928D01*
X88502685Y-65229928D02*
X88545542Y-65244214D01*
X88545542Y-65244214D02*
X88574114Y-65244214D01*
X88574114Y-65244214D02*
X88616971Y-65229928D01*
X88616971Y-65229928D02*
X88645542Y-65201357D01*
X88645542Y-65201357D02*
X88659828Y-65172785D01*
X88659828Y-65172785D02*
X88674114Y-65115642D01*
X88674114Y-65115642D02*
X88674114Y-65072785D01*
X88674114Y-65072785D02*
X88659828Y-65015642D01*
X88659828Y-65015642D02*
X88645542Y-64987071D01*
X88645542Y-64987071D02*
X88616971Y-64958500D01*
X88616971Y-64958500D02*
X88574114Y-64944214D01*
X88574114Y-64944214D02*
X88545542Y-64944214D01*
X88545542Y-64944214D02*
X88502685Y-64958500D01*
X88502685Y-64958500D02*
X88488399Y-64972785D01*
X88231257Y-64944214D02*
X88288399Y-64944214D01*
X88288399Y-64944214D02*
X88316971Y-64958500D01*
X88316971Y-64958500D02*
X88331257Y-64972785D01*
X88331257Y-64972785D02*
X88359828Y-65015642D01*
X88359828Y-65015642D02*
X88374114Y-65072785D01*
X88374114Y-65072785D02*
X88374114Y-65187071D01*
X88374114Y-65187071D02*
X88359828Y-65215642D01*
X88359828Y-65215642D02*
X88345542Y-65229928D01*
X88345542Y-65229928D02*
X88316971Y-65244214D01*
X88316971Y-65244214D02*
X88259828Y-65244214D01*
X88259828Y-65244214D02*
X88231257Y-65229928D01*
X88231257Y-65229928D02*
X88216971Y-65215642D01*
X88216971Y-65215642D02*
X88202685Y-65187071D01*
X88202685Y-65187071D02*
X88202685Y-65115642D01*
X88202685Y-65115642D02*
X88216971Y-65087071D01*
X88216971Y-65087071D02*
X88231257Y-65072785D01*
X88231257Y-65072785D02*
X88259828Y-65058500D01*
X88259828Y-65058500D02*
X88316971Y-65058500D01*
X88316971Y-65058500D02*
X88345542Y-65072785D01*
X88345542Y-65072785D02*
X88359828Y-65087071D01*
X88359828Y-65087071D02*
X88374114Y-65115642D01*
%TO.C,C7*%
X90240999Y-65241042D02*
X90255285Y-65255328D01*
X90255285Y-65255328D02*
X90298142Y-65269614D01*
X90298142Y-65269614D02*
X90326714Y-65269614D01*
X90326714Y-65269614D02*
X90369571Y-65255328D01*
X90369571Y-65255328D02*
X90398142Y-65226757D01*
X90398142Y-65226757D02*
X90412428Y-65198185D01*
X90412428Y-65198185D02*
X90426714Y-65141042D01*
X90426714Y-65141042D02*
X90426714Y-65098185D01*
X90426714Y-65098185D02*
X90412428Y-65041042D01*
X90412428Y-65041042D02*
X90398142Y-65012471D01*
X90398142Y-65012471D02*
X90369571Y-64983900D01*
X90369571Y-64983900D02*
X90326714Y-64969614D01*
X90326714Y-64969614D02*
X90298142Y-64969614D01*
X90298142Y-64969614D02*
X90255285Y-64983900D01*
X90255285Y-64983900D02*
X90240999Y-64998185D01*
X90140999Y-64969614D02*
X89940999Y-64969614D01*
X89940999Y-64969614D02*
X90069571Y-65269614D01*
%TO.C,C9*%
X83393142Y-59087500D02*
X83407428Y-59073214D01*
X83407428Y-59073214D02*
X83421714Y-59030357D01*
X83421714Y-59030357D02*
X83421714Y-59001785D01*
X83421714Y-59001785D02*
X83407428Y-58958928D01*
X83407428Y-58958928D02*
X83378857Y-58930357D01*
X83378857Y-58930357D02*
X83350285Y-58916071D01*
X83350285Y-58916071D02*
X83293142Y-58901785D01*
X83293142Y-58901785D02*
X83250285Y-58901785D01*
X83250285Y-58901785D02*
X83193142Y-58916071D01*
X83193142Y-58916071D02*
X83164571Y-58930357D01*
X83164571Y-58930357D02*
X83136000Y-58958928D01*
X83136000Y-58958928D02*
X83121714Y-59001785D01*
X83121714Y-59001785D02*
X83121714Y-59030357D01*
X83121714Y-59030357D02*
X83136000Y-59073214D01*
X83136000Y-59073214D02*
X83150285Y-59087500D01*
X83421714Y-59230357D02*
X83421714Y-59287500D01*
X83421714Y-59287500D02*
X83407428Y-59316071D01*
X83407428Y-59316071D02*
X83393142Y-59330357D01*
X83393142Y-59330357D02*
X83350285Y-59358928D01*
X83350285Y-59358928D02*
X83293142Y-59373214D01*
X83293142Y-59373214D02*
X83178857Y-59373214D01*
X83178857Y-59373214D02*
X83150285Y-59358928D01*
X83150285Y-59358928D02*
X83136000Y-59344643D01*
X83136000Y-59344643D02*
X83121714Y-59316071D01*
X83121714Y-59316071D02*
X83121714Y-59258928D01*
X83121714Y-59258928D02*
X83136000Y-59230357D01*
X83136000Y-59230357D02*
X83150285Y-59216071D01*
X83150285Y-59216071D02*
X83178857Y-59201785D01*
X83178857Y-59201785D02*
X83250285Y-59201785D01*
X83250285Y-59201785D02*
X83278857Y-59216071D01*
X83278857Y-59216071D02*
X83293142Y-59230357D01*
X83293142Y-59230357D02*
X83307428Y-59258928D01*
X83307428Y-59258928D02*
X83307428Y-59316071D01*
X83307428Y-59316071D02*
X83293142Y-59344643D01*
X83293142Y-59344643D02*
X83278857Y-59358928D01*
X83278857Y-59358928D02*
X83250285Y-59373214D01*
%TO.C,C10*%
X84028142Y-58944643D02*
X84042428Y-58930357D01*
X84042428Y-58930357D02*
X84056714Y-58887500D01*
X84056714Y-58887500D02*
X84056714Y-58858928D01*
X84056714Y-58858928D02*
X84042428Y-58816071D01*
X84042428Y-58816071D02*
X84013857Y-58787500D01*
X84013857Y-58787500D02*
X83985285Y-58773214D01*
X83985285Y-58773214D02*
X83928142Y-58758928D01*
X83928142Y-58758928D02*
X83885285Y-58758928D01*
X83885285Y-58758928D02*
X83828142Y-58773214D01*
X83828142Y-58773214D02*
X83799571Y-58787500D01*
X83799571Y-58787500D02*
X83771000Y-58816071D01*
X83771000Y-58816071D02*
X83756714Y-58858928D01*
X83756714Y-58858928D02*
X83756714Y-58887500D01*
X83756714Y-58887500D02*
X83771000Y-58930357D01*
X83771000Y-58930357D02*
X83785285Y-58944643D01*
X84056714Y-59230357D02*
X84056714Y-59058928D01*
X84056714Y-59144643D02*
X83756714Y-59144643D01*
X83756714Y-59144643D02*
X83799571Y-59116071D01*
X83799571Y-59116071D02*
X83828142Y-59087500D01*
X83828142Y-59087500D02*
X83842428Y-59058928D01*
X83756714Y-59416071D02*
X83756714Y-59444642D01*
X83756714Y-59444642D02*
X83771000Y-59473214D01*
X83771000Y-59473214D02*
X83785285Y-59487500D01*
X83785285Y-59487500D02*
X83813857Y-59501785D01*
X83813857Y-59501785D02*
X83871000Y-59516071D01*
X83871000Y-59516071D02*
X83942428Y-59516071D01*
X83942428Y-59516071D02*
X83999571Y-59501785D01*
X83999571Y-59501785D02*
X84028142Y-59487500D01*
X84028142Y-59487500D02*
X84042428Y-59473214D01*
X84042428Y-59473214D02*
X84056714Y-59444642D01*
X84056714Y-59444642D02*
X84056714Y-59416071D01*
X84056714Y-59416071D02*
X84042428Y-59387500D01*
X84042428Y-59387500D02*
X84028142Y-59373214D01*
X84028142Y-59373214D02*
X83999571Y-59358928D01*
X83999571Y-59358928D02*
X83942428Y-59344642D01*
X83942428Y-59344642D02*
X83871000Y-59344642D01*
X83871000Y-59344642D02*
X83813857Y-59358928D01*
X83813857Y-59358928D02*
X83785285Y-59373214D01*
X83785285Y-59373214D02*
X83771000Y-59387500D01*
X83771000Y-59387500D02*
X83756714Y-59416071D01*
%TO.C,C11*%
X80535742Y-62373643D02*
X80550028Y-62359357D01*
X80550028Y-62359357D02*
X80564314Y-62316500D01*
X80564314Y-62316500D02*
X80564314Y-62287928D01*
X80564314Y-62287928D02*
X80550028Y-62245071D01*
X80550028Y-62245071D02*
X80521457Y-62216500D01*
X80521457Y-62216500D02*
X80492885Y-62202214D01*
X80492885Y-62202214D02*
X80435742Y-62187928D01*
X80435742Y-62187928D02*
X80392885Y-62187928D01*
X80392885Y-62187928D02*
X80335742Y-62202214D01*
X80335742Y-62202214D02*
X80307171Y-62216500D01*
X80307171Y-62216500D02*
X80278600Y-62245071D01*
X80278600Y-62245071D02*
X80264314Y-62287928D01*
X80264314Y-62287928D02*
X80264314Y-62316500D01*
X80264314Y-62316500D02*
X80278600Y-62359357D01*
X80278600Y-62359357D02*
X80292885Y-62373643D01*
X80564314Y-62659357D02*
X80564314Y-62487928D01*
X80564314Y-62573643D02*
X80264314Y-62573643D01*
X80264314Y-62573643D02*
X80307171Y-62545071D01*
X80307171Y-62545071D02*
X80335742Y-62516500D01*
X80335742Y-62516500D02*
X80350028Y-62487928D01*
X80564314Y-62945071D02*
X80564314Y-62773642D01*
X80564314Y-62859357D02*
X80264314Y-62859357D01*
X80264314Y-62859357D02*
X80307171Y-62830785D01*
X80307171Y-62830785D02*
X80335742Y-62802214D01*
X80335742Y-62802214D02*
X80350028Y-62773642D01*
%TO.C,C16*%
X99352856Y-66181642D02*
X99367142Y-66195928D01*
X99367142Y-66195928D02*
X99409999Y-66210214D01*
X99409999Y-66210214D02*
X99438571Y-66210214D01*
X99438571Y-66210214D02*
X99481428Y-66195928D01*
X99481428Y-66195928D02*
X99509999Y-66167357D01*
X99509999Y-66167357D02*
X99524285Y-66138785D01*
X99524285Y-66138785D02*
X99538571Y-66081642D01*
X99538571Y-66081642D02*
X99538571Y-66038785D01*
X99538571Y-66038785D02*
X99524285Y-65981642D01*
X99524285Y-65981642D02*
X99509999Y-65953071D01*
X99509999Y-65953071D02*
X99481428Y-65924500D01*
X99481428Y-65924500D02*
X99438571Y-65910214D01*
X99438571Y-65910214D02*
X99409999Y-65910214D01*
X99409999Y-65910214D02*
X99367142Y-65924500D01*
X99367142Y-65924500D02*
X99352856Y-65938785D01*
X99067142Y-66210214D02*
X99238571Y-66210214D01*
X99152856Y-66210214D02*
X99152856Y-65910214D01*
X99152856Y-65910214D02*
X99181428Y-65953071D01*
X99181428Y-65953071D02*
X99209999Y-65981642D01*
X99209999Y-65981642D02*
X99238571Y-65995928D01*
X98810000Y-65910214D02*
X98867142Y-65910214D01*
X98867142Y-65910214D02*
X98895714Y-65924500D01*
X98895714Y-65924500D02*
X98910000Y-65938785D01*
X98910000Y-65938785D02*
X98938571Y-65981642D01*
X98938571Y-65981642D02*
X98952857Y-66038785D01*
X98952857Y-66038785D02*
X98952857Y-66153071D01*
X98952857Y-66153071D02*
X98938571Y-66181642D01*
X98938571Y-66181642D02*
X98924285Y-66195928D01*
X98924285Y-66195928D02*
X98895714Y-66210214D01*
X98895714Y-66210214D02*
X98838571Y-66210214D01*
X98838571Y-66210214D02*
X98810000Y-66195928D01*
X98810000Y-66195928D02*
X98795714Y-66181642D01*
X98795714Y-66181642D02*
X98781428Y-66153071D01*
X98781428Y-66153071D02*
X98781428Y-66081642D01*
X98781428Y-66081642D02*
X98795714Y-66053071D01*
X98795714Y-66053071D02*
X98810000Y-66038785D01*
X98810000Y-66038785D02*
X98838571Y-66024500D01*
X98838571Y-66024500D02*
X98895714Y-66024500D01*
X98895714Y-66024500D02*
X98924285Y-66038785D01*
X98924285Y-66038785D02*
X98938571Y-66053071D01*
X98938571Y-66053071D02*
X98952857Y-66081642D01*
%TO.C,C27*%
X82097842Y-69332543D02*
X82112128Y-69318257D01*
X82112128Y-69318257D02*
X82126414Y-69275400D01*
X82126414Y-69275400D02*
X82126414Y-69246828D01*
X82126414Y-69246828D02*
X82112128Y-69203971D01*
X82112128Y-69203971D02*
X82083557Y-69175400D01*
X82083557Y-69175400D02*
X82054985Y-69161114D01*
X82054985Y-69161114D02*
X81997842Y-69146828D01*
X81997842Y-69146828D02*
X81954985Y-69146828D01*
X81954985Y-69146828D02*
X81897842Y-69161114D01*
X81897842Y-69161114D02*
X81869271Y-69175400D01*
X81869271Y-69175400D02*
X81840700Y-69203971D01*
X81840700Y-69203971D02*
X81826414Y-69246828D01*
X81826414Y-69246828D02*
X81826414Y-69275400D01*
X81826414Y-69275400D02*
X81840700Y-69318257D01*
X81840700Y-69318257D02*
X81854985Y-69332543D01*
X81854985Y-69446828D02*
X81840700Y-69461114D01*
X81840700Y-69461114D02*
X81826414Y-69489686D01*
X81826414Y-69489686D02*
X81826414Y-69561114D01*
X81826414Y-69561114D02*
X81840700Y-69589686D01*
X81840700Y-69589686D02*
X81854985Y-69603971D01*
X81854985Y-69603971D02*
X81883557Y-69618257D01*
X81883557Y-69618257D02*
X81912128Y-69618257D01*
X81912128Y-69618257D02*
X81954985Y-69603971D01*
X81954985Y-69603971D02*
X82126414Y-69432543D01*
X82126414Y-69432543D02*
X82126414Y-69618257D01*
X81826414Y-69718257D02*
X81826414Y-69918257D01*
X81826414Y-69918257D02*
X82126414Y-69789685D01*
%TO.C,C36*%
X80561142Y-63554743D02*
X80575428Y-63540457D01*
X80575428Y-63540457D02*
X80589714Y-63497600D01*
X80589714Y-63497600D02*
X80589714Y-63469028D01*
X80589714Y-63469028D02*
X80575428Y-63426171D01*
X80575428Y-63426171D02*
X80546857Y-63397600D01*
X80546857Y-63397600D02*
X80518285Y-63383314D01*
X80518285Y-63383314D02*
X80461142Y-63369028D01*
X80461142Y-63369028D02*
X80418285Y-63369028D01*
X80418285Y-63369028D02*
X80361142Y-63383314D01*
X80361142Y-63383314D02*
X80332571Y-63397600D01*
X80332571Y-63397600D02*
X80304000Y-63426171D01*
X80304000Y-63426171D02*
X80289714Y-63469028D01*
X80289714Y-63469028D02*
X80289714Y-63497600D01*
X80289714Y-63497600D02*
X80304000Y-63540457D01*
X80304000Y-63540457D02*
X80318285Y-63554743D01*
X80289714Y-63654743D02*
X80289714Y-63840457D01*
X80289714Y-63840457D02*
X80404000Y-63740457D01*
X80404000Y-63740457D02*
X80404000Y-63783314D01*
X80404000Y-63783314D02*
X80418285Y-63811886D01*
X80418285Y-63811886D02*
X80432571Y-63826171D01*
X80432571Y-63826171D02*
X80461142Y-63840457D01*
X80461142Y-63840457D02*
X80532571Y-63840457D01*
X80532571Y-63840457D02*
X80561142Y-63826171D01*
X80561142Y-63826171D02*
X80575428Y-63811886D01*
X80575428Y-63811886D02*
X80589714Y-63783314D01*
X80589714Y-63783314D02*
X80589714Y-63697600D01*
X80589714Y-63697600D02*
X80575428Y-63669028D01*
X80575428Y-63669028D02*
X80561142Y-63654743D01*
X80289714Y-64097600D02*
X80289714Y-64040457D01*
X80289714Y-64040457D02*
X80304000Y-64011885D01*
X80304000Y-64011885D02*
X80318285Y-63997600D01*
X80318285Y-63997600D02*
X80361142Y-63969028D01*
X80361142Y-63969028D02*
X80418285Y-63954742D01*
X80418285Y-63954742D02*
X80532571Y-63954742D01*
X80532571Y-63954742D02*
X80561142Y-63969028D01*
X80561142Y-63969028D02*
X80575428Y-63983314D01*
X80575428Y-63983314D02*
X80589714Y-64011885D01*
X80589714Y-64011885D02*
X80589714Y-64069028D01*
X80589714Y-64069028D02*
X80575428Y-64097600D01*
X80575428Y-64097600D02*
X80561142Y-64111885D01*
X80561142Y-64111885D02*
X80532571Y-64126171D01*
X80532571Y-64126171D02*
X80461142Y-64126171D01*
X80461142Y-64126171D02*
X80432571Y-64111885D01*
X80432571Y-64111885D02*
X80418285Y-64097600D01*
X80418285Y-64097600D02*
X80404000Y-64069028D01*
X80404000Y-64069028D02*
X80404000Y-64011885D01*
X80404000Y-64011885D02*
X80418285Y-63983314D01*
X80418285Y-63983314D02*
X80432571Y-63969028D01*
X80432571Y-63969028D02*
X80461142Y-63954742D01*
%TO.C,C38*%
X83393142Y-60252743D02*
X83407428Y-60238457D01*
X83407428Y-60238457D02*
X83421714Y-60195600D01*
X83421714Y-60195600D02*
X83421714Y-60167028D01*
X83421714Y-60167028D02*
X83407428Y-60124171D01*
X83407428Y-60124171D02*
X83378857Y-60095600D01*
X83378857Y-60095600D02*
X83350285Y-60081314D01*
X83350285Y-60081314D02*
X83293142Y-60067028D01*
X83293142Y-60067028D02*
X83250285Y-60067028D01*
X83250285Y-60067028D02*
X83193142Y-60081314D01*
X83193142Y-60081314D02*
X83164571Y-60095600D01*
X83164571Y-60095600D02*
X83136000Y-60124171D01*
X83136000Y-60124171D02*
X83121714Y-60167028D01*
X83121714Y-60167028D02*
X83121714Y-60195600D01*
X83121714Y-60195600D02*
X83136000Y-60238457D01*
X83136000Y-60238457D02*
X83150285Y-60252743D01*
X83121714Y-60352743D02*
X83121714Y-60538457D01*
X83121714Y-60538457D02*
X83236000Y-60438457D01*
X83236000Y-60438457D02*
X83236000Y-60481314D01*
X83236000Y-60481314D02*
X83250285Y-60509886D01*
X83250285Y-60509886D02*
X83264571Y-60524171D01*
X83264571Y-60524171D02*
X83293142Y-60538457D01*
X83293142Y-60538457D02*
X83364571Y-60538457D01*
X83364571Y-60538457D02*
X83393142Y-60524171D01*
X83393142Y-60524171D02*
X83407428Y-60509886D01*
X83407428Y-60509886D02*
X83421714Y-60481314D01*
X83421714Y-60481314D02*
X83421714Y-60395600D01*
X83421714Y-60395600D02*
X83407428Y-60367028D01*
X83407428Y-60367028D02*
X83393142Y-60352743D01*
X83250285Y-60709885D02*
X83236000Y-60681314D01*
X83236000Y-60681314D02*
X83221714Y-60667028D01*
X83221714Y-60667028D02*
X83193142Y-60652742D01*
X83193142Y-60652742D02*
X83178857Y-60652742D01*
X83178857Y-60652742D02*
X83150285Y-60667028D01*
X83150285Y-60667028D02*
X83136000Y-60681314D01*
X83136000Y-60681314D02*
X83121714Y-60709885D01*
X83121714Y-60709885D02*
X83121714Y-60767028D01*
X83121714Y-60767028D02*
X83136000Y-60795600D01*
X83136000Y-60795600D02*
X83150285Y-60809885D01*
X83150285Y-60809885D02*
X83178857Y-60824171D01*
X83178857Y-60824171D02*
X83193142Y-60824171D01*
X83193142Y-60824171D02*
X83221714Y-60809885D01*
X83221714Y-60809885D02*
X83236000Y-60795600D01*
X83236000Y-60795600D02*
X83250285Y-60767028D01*
X83250285Y-60767028D02*
X83250285Y-60709885D01*
X83250285Y-60709885D02*
X83264571Y-60681314D01*
X83264571Y-60681314D02*
X83278857Y-60667028D01*
X83278857Y-60667028D02*
X83307428Y-60652742D01*
X83307428Y-60652742D02*
X83364571Y-60652742D01*
X83364571Y-60652742D02*
X83393142Y-60667028D01*
X83393142Y-60667028D02*
X83407428Y-60681314D01*
X83407428Y-60681314D02*
X83421714Y-60709885D01*
X83421714Y-60709885D02*
X83421714Y-60767028D01*
X83421714Y-60767028D02*
X83407428Y-60795600D01*
X83407428Y-60795600D02*
X83393142Y-60809885D01*
X83393142Y-60809885D02*
X83364571Y-60824171D01*
X83364571Y-60824171D02*
X83307428Y-60824171D01*
X83307428Y-60824171D02*
X83278857Y-60809885D01*
X83278857Y-60809885D02*
X83264571Y-60795600D01*
X83264571Y-60795600D02*
X83250285Y-60767028D01*
%TO.C,C41*%
X84028142Y-60252743D02*
X84042428Y-60238457D01*
X84042428Y-60238457D02*
X84056714Y-60195600D01*
X84056714Y-60195600D02*
X84056714Y-60167028D01*
X84056714Y-60167028D02*
X84042428Y-60124171D01*
X84042428Y-60124171D02*
X84013857Y-60095600D01*
X84013857Y-60095600D02*
X83985285Y-60081314D01*
X83985285Y-60081314D02*
X83928142Y-60067028D01*
X83928142Y-60067028D02*
X83885285Y-60067028D01*
X83885285Y-60067028D02*
X83828142Y-60081314D01*
X83828142Y-60081314D02*
X83799571Y-60095600D01*
X83799571Y-60095600D02*
X83771000Y-60124171D01*
X83771000Y-60124171D02*
X83756714Y-60167028D01*
X83756714Y-60167028D02*
X83756714Y-60195600D01*
X83756714Y-60195600D02*
X83771000Y-60238457D01*
X83771000Y-60238457D02*
X83785285Y-60252743D01*
X83856714Y-60509886D02*
X84056714Y-60509886D01*
X83742428Y-60438457D02*
X83956714Y-60367028D01*
X83956714Y-60367028D02*
X83956714Y-60552743D01*
X84056714Y-60824171D02*
X84056714Y-60652742D01*
X84056714Y-60738457D02*
X83756714Y-60738457D01*
X83756714Y-60738457D02*
X83799571Y-60709885D01*
X83799571Y-60709885D02*
X83828142Y-60681314D01*
X83828142Y-60681314D02*
X83842428Y-60652742D01*
%TO.C,C48*%
X85483456Y-68290042D02*
X85497742Y-68304328D01*
X85497742Y-68304328D02*
X85540599Y-68318614D01*
X85540599Y-68318614D02*
X85569171Y-68318614D01*
X85569171Y-68318614D02*
X85612028Y-68304328D01*
X85612028Y-68304328D02*
X85640599Y-68275757D01*
X85640599Y-68275757D02*
X85654885Y-68247185D01*
X85654885Y-68247185D02*
X85669171Y-68190042D01*
X85669171Y-68190042D02*
X85669171Y-68147185D01*
X85669171Y-68147185D02*
X85654885Y-68090042D01*
X85654885Y-68090042D02*
X85640599Y-68061471D01*
X85640599Y-68061471D02*
X85612028Y-68032900D01*
X85612028Y-68032900D02*
X85569171Y-68018614D01*
X85569171Y-68018614D02*
X85540599Y-68018614D01*
X85540599Y-68018614D02*
X85497742Y-68032900D01*
X85497742Y-68032900D02*
X85483456Y-68047185D01*
X85226314Y-68118614D02*
X85226314Y-68318614D01*
X85297742Y-68004328D02*
X85369171Y-68218614D01*
X85369171Y-68218614D02*
X85183456Y-68218614D01*
X85026314Y-68147185D02*
X85054885Y-68132900D01*
X85054885Y-68132900D02*
X85069171Y-68118614D01*
X85069171Y-68118614D02*
X85083457Y-68090042D01*
X85083457Y-68090042D02*
X85083457Y-68075757D01*
X85083457Y-68075757D02*
X85069171Y-68047185D01*
X85069171Y-68047185D02*
X85054885Y-68032900D01*
X85054885Y-68032900D02*
X85026314Y-68018614D01*
X85026314Y-68018614D02*
X84969171Y-68018614D01*
X84969171Y-68018614D02*
X84940600Y-68032900D01*
X84940600Y-68032900D02*
X84926314Y-68047185D01*
X84926314Y-68047185D02*
X84912028Y-68075757D01*
X84912028Y-68075757D02*
X84912028Y-68090042D01*
X84912028Y-68090042D02*
X84926314Y-68118614D01*
X84926314Y-68118614D02*
X84940600Y-68132900D01*
X84940600Y-68132900D02*
X84969171Y-68147185D01*
X84969171Y-68147185D02*
X85026314Y-68147185D01*
X85026314Y-68147185D02*
X85054885Y-68161471D01*
X85054885Y-68161471D02*
X85069171Y-68175757D01*
X85069171Y-68175757D02*
X85083457Y-68204328D01*
X85083457Y-68204328D02*
X85083457Y-68261471D01*
X85083457Y-68261471D02*
X85069171Y-68290042D01*
X85069171Y-68290042D02*
X85054885Y-68304328D01*
X85054885Y-68304328D02*
X85026314Y-68318614D01*
X85026314Y-68318614D02*
X84969171Y-68318614D01*
X84969171Y-68318614D02*
X84940600Y-68304328D01*
X84940600Y-68304328D02*
X84926314Y-68290042D01*
X84926314Y-68290042D02*
X84912028Y-68261471D01*
X84912028Y-68261471D02*
X84912028Y-68204328D01*
X84912028Y-68204328D02*
X84926314Y-68175757D01*
X84926314Y-68175757D02*
X84940600Y-68161471D01*
X84940600Y-68161471D02*
X84969171Y-68147185D01*
%TO.C,C50*%
X84840942Y-60333656D02*
X84855228Y-60347942D01*
X84855228Y-60347942D02*
X84869514Y-60390799D01*
X84869514Y-60390799D02*
X84869514Y-60419371D01*
X84869514Y-60419371D02*
X84855228Y-60462228D01*
X84855228Y-60462228D02*
X84826657Y-60490799D01*
X84826657Y-60490799D02*
X84798085Y-60505085D01*
X84798085Y-60505085D02*
X84740942Y-60519371D01*
X84740942Y-60519371D02*
X84698085Y-60519371D01*
X84698085Y-60519371D02*
X84640942Y-60505085D01*
X84640942Y-60505085D02*
X84612371Y-60490799D01*
X84612371Y-60490799D02*
X84583800Y-60462228D01*
X84583800Y-60462228D02*
X84569514Y-60419371D01*
X84569514Y-60419371D02*
X84569514Y-60390799D01*
X84569514Y-60390799D02*
X84583800Y-60347942D01*
X84583800Y-60347942D02*
X84598085Y-60333656D01*
X84569514Y-60062228D02*
X84569514Y-60205085D01*
X84569514Y-60205085D02*
X84712371Y-60219371D01*
X84712371Y-60219371D02*
X84698085Y-60205085D01*
X84698085Y-60205085D02*
X84683800Y-60176514D01*
X84683800Y-60176514D02*
X84683800Y-60105085D01*
X84683800Y-60105085D02*
X84698085Y-60076514D01*
X84698085Y-60076514D02*
X84712371Y-60062228D01*
X84712371Y-60062228D02*
X84740942Y-60047942D01*
X84740942Y-60047942D02*
X84812371Y-60047942D01*
X84812371Y-60047942D02*
X84840942Y-60062228D01*
X84840942Y-60062228D02*
X84855228Y-60076514D01*
X84855228Y-60076514D02*
X84869514Y-60105085D01*
X84869514Y-60105085D02*
X84869514Y-60176514D01*
X84869514Y-60176514D02*
X84855228Y-60205085D01*
X84855228Y-60205085D02*
X84840942Y-60219371D01*
X84569514Y-59862228D02*
X84569514Y-59833657D01*
X84569514Y-59833657D02*
X84583800Y-59805085D01*
X84583800Y-59805085D02*
X84598085Y-59790800D01*
X84598085Y-59790800D02*
X84626657Y-59776514D01*
X84626657Y-59776514D02*
X84683800Y-59762228D01*
X84683800Y-59762228D02*
X84755228Y-59762228D01*
X84755228Y-59762228D02*
X84812371Y-59776514D01*
X84812371Y-59776514D02*
X84840942Y-59790800D01*
X84840942Y-59790800D02*
X84855228Y-59805085D01*
X84855228Y-59805085D02*
X84869514Y-59833657D01*
X84869514Y-59833657D02*
X84869514Y-59862228D01*
X84869514Y-59862228D02*
X84855228Y-59890800D01*
X84855228Y-59890800D02*
X84840942Y-59905085D01*
X84840942Y-59905085D02*
X84812371Y-59919371D01*
X84812371Y-59919371D02*
X84755228Y-59933657D01*
X84755228Y-59933657D02*
X84683800Y-59933657D01*
X84683800Y-59933657D02*
X84626657Y-59919371D01*
X84626657Y-59919371D02*
X84598085Y-59905085D01*
X84598085Y-59905085D02*
X84583800Y-59890800D01*
X84583800Y-59890800D02*
X84569514Y-59862228D01*
%TO.C,C52*%
X85780742Y-60308256D02*
X85795028Y-60322542D01*
X85795028Y-60322542D02*
X85809314Y-60365399D01*
X85809314Y-60365399D02*
X85809314Y-60393971D01*
X85809314Y-60393971D02*
X85795028Y-60436828D01*
X85795028Y-60436828D02*
X85766457Y-60465399D01*
X85766457Y-60465399D02*
X85737885Y-60479685D01*
X85737885Y-60479685D02*
X85680742Y-60493971D01*
X85680742Y-60493971D02*
X85637885Y-60493971D01*
X85637885Y-60493971D02*
X85580742Y-60479685D01*
X85580742Y-60479685D02*
X85552171Y-60465399D01*
X85552171Y-60465399D02*
X85523600Y-60436828D01*
X85523600Y-60436828D02*
X85509314Y-60393971D01*
X85509314Y-60393971D02*
X85509314Y-60365399D01*
X85509314Y-60365399D02*
X85523600Y-60322542D01*
X85523600Y-60322542D02*
X85537885Y-60308256D01*
X85509314Y-60036828D02*
X85509314Y-60179685D01*
X85509314Y-60179685D02*
X85652171Y-60193971D01*
X85652171Y-60193971D02*
X85637885Y-60179685D01*
X85637885Y-60179685D02*
X85623600Y-60151114D01*
X85623600Y-60151114D02*
X85623600Y-60079685D01*
X85623600Y-60079685D02*
X85637885Y-60051114D01*
X85637885Y-60051114D02*
X85652171Y-60036828D01*
X85652171Y-60036828D02*
X85680742Y-60022542D01*
X85680742Y-60022542D02*
X85752171Y-60022542D01*
X85752171Y-60022542D02*
X85780742Y-60036828D01*
X85780742Y-60036828D02*
X85795028Y-60051114D01*
X85795028Y-60051114D02*
X85809314Y-60079685D01*
X85809314Y-60079685D02*
X85809314Y-60151114D01*
X85809314Y-60151114D02*
X85795028Y-60179685D01*
X85795028Y-60179685D02*
X85780742Y-60193971D01*
X85537885Y-59908257D02*
X85523600Y-59893971D01*
X85523600Y-59893971D02*
X85509314Y-59865400D01*
X85509314Y-59865400D02*
X85509314Y-59793971D01*
X85509314Y-59793971D02*
X85523600Y-59765400D01*
X85523600Y-59765400D02*
X85537885Y-59751114D01*
X85537885Y-59751114D02*
X85566457Y-59736828D01*
X85566457Y-59736828D02*
X85595028Y-59736828D01*
X85595028Y-59736828D02*
X85637885Y-59751114D01*
X85637885Y-59751114D02*
X85809314Y-59922542D01*
X85809314Y-59922542D02*
X85809314Y-59736828D01*
%TO.C,L4*%
X80272214Y-65686200D02*
X80272214Y-65543343D01*
X80272214Y-65543343D02*
X79972214Y-65543343D01*
X80072214Y-65914772D02*
X80272214Y-65914772D01*
X79957928Y-65843343D02*
X80172214Y-65771914D01*
X80172214Y-65771914D02*
X80172214Y-65957629D01*
%TO.C,U8*%
X84060214Y-64271428D02*
X84303071Y-64271428D01*
X84303071Y-64271428D02*
X84331642Y-64285714D01*
X84331642Y-64285714D02*
X84345928Y-64300000D01*
X84345928Y-64300000D02*
X84360214Y-64328571D01*
X84360214Y-64328571D02*
X84360214Y-64385714D01*
X84360214Y-64385714D02*
X84345928Y-64414285D01*
X84345928Y-64414285D02*
X84331642Y-64428571D01*
X84331642Y-64428571D02*
X84303071Y-64442857D01*
X84303071Y-64442857D02*
X84060214Y-64442857D01*
X84188785Y-64628571D02*
X84174500Y-64600000D01*
X84174500Y-64600000D02*
X84160214Y-64585714D01*
X84160214Y-64585714D02*
X84131642Y-64571428D01*
X84131642Y-64571428D02*
X84117357Y-64571428D01*
X84117357Y-64571428D02*
X84088785Y-64585714D01*
X84088785Y-64585714D02*
X84074500Y-64600000D01*
X84074500Y-64600000D02*
X84060214Y-64628571D01*
X84060214Y-64628571D02*
X84060214Y-64685714D01*
X84060214Y-64685714D02*
X84074500Y-64714286D01*
X84074500Y-64714286D02*
X84088785Y-64728571D01*
X84088785Y-64728571D02*
X84117357Y-64742857D01*
X84117357Y-64742857D02*
X84131642Y-64742857D01*
X84131642Y-64742857D02*
X84160214Y-64728571D01*
X84160214Y-64728571D02*
X84174500Y-64714286D01*
X84174500Y-64714286D02*
X84188785Y-64685714D01*
X84188785Y-64685714D02*
X84188785Y-64628571D01*
X84188785Y-64628571D02*
X84203071Y-64600000D01*
X84203071Y-64600000D02*
X84217357Y-64585714D01*
X84217357Y-64585714D02*
X84245928Y-64571428D01*
X84245928Y-64571428D02*
X84303071Y-64571428D01*
X84303071Y-64571428D02*
X84331642Y-64585714D01*
X84331642Y-64585714D02*
X84345928Y-64600000D01*
X84345928Y-64600000D02*
X84360214Y-64628571D01*
X84360214Y-64628571D02*
X84360214Y-64685714D01*
X84360214Y-64685714D02*
X84345928Y-64714286D01*
X84345928Y-64714286D02*
X84331642Y-64728571D01*
X84331642Y-64728571D02*
X84303071Y-64742857D01*
X84303071Y-64742857D02*
X84245928Y-64742857D01*
X84245928Y-64742857D02*
X84217357Y-64728571D01*
X84217357Y-64728571D02*
X84203071Y-64714286D01*
X84203071Y-64714286D02*
X84188785Y-64685714D01*
%TO.C,C30*%
X82123242Y-68189543D02*
X82137528Y-68175257D01*
X82137528Y-68175257D02*
X82151814Y-68132400D01*
X82151814Y-68132400D02*
X82151814Y-68103828D01*
X82151814Y-68103828D02*
X82137528Y-68060971D01*
X82137528Y-68060971D02*
X82108957Y-68032400D01*
X82108957Y-68032400D02*
X82080385Y-68018114D01*
X82080385Y-68018114D02*
X82023242Y-68003828D01*
X82023242Y-68003828D02*
X81980385Y-68003828D01*
X81980385Y-68003828D02*
X81923242Y-68018114D01*
X81923242Y-68018114D02*
X81894671Y-68032400D01*
X81894671Y-68032400D02*
X81866100Y-68060971D01*
X81866100Y-68060971D02*
X81851814Y-68103828D01*
X81851814Y-68103828D02*
X81851814Y-68132400D01*
X81851814Y-68132400D02*
X81866100Y-68175257D01*
X81866100Y-68175257D02*
X81880385Y-68189543D01*
X81851814Y-68289543D02*
X81851814Y-68475257D01*
X81851814Y-68475257D02*
X81966100Y-68375257D01*
X81966100Y-68375257D02*
X81966100Y-68418114D01*
X81966100Y-68418114D02*
X81980385Y-68446686D01*
X81980385Y-68446686D02*
X81994671Y-68460971D01*
X81994671Y-68460971D02*
X82023242Y-68475257D01*
X82023242Y-68475257D02*
X82094671Y-68475257D01*
X82094671Y-68475257D02*
X82123242Y-68460971D01*
X82123242Y-68460971D02*
X82137528Y-68446686D01*
X82137528Y-68446686D02*
X82151814Y-68418114D01*
X82151814Y-68418114D02*
X82151814Y-68332400D01*
X82151814Y-68332400D02*
X82137528Y-68303828D01*
X82137528Y-68303828D02*
X82123242Y-68289543D01*
X81851814Y-68660971D02*
X81851814Y-68689542D01*
X81851814Y-68689542D02*
X81866100Y-68718114D01*
X81866100Y-68718114D02*
X81880385Y-68732400D01*
X81880385Y-68732400D02*
X81908957Y-68746685D01*
X81908957Y-68746685D02*
X81966100Y-68760971D01*
X81966100Y-68760971D02*
X82037528Y-68760971D01*
X82037528Y-68760971D02*
X82094671Y-68746685D01*
X82094671Y-68746685D02*
X82123242Y-68732400D01*
X82123242Y-68732400D02*
X82137528Y-68718114D01*
X82137528Y-68718114D02*
X82151814Y-68689542D01*
X82151814Y-68689542D02*
X82151814Y-68660971D01*
X82151814Y-68660971D02*
X82137528Y-68632400D01*
X82137528Y-68632400D02*
X82123242Y-68618114D01*
X82123242Y-68618114D02*
X82094671Y-68603828D01*
X82094671Y-68603828D02*
X82037528Y-68589542D01*
X82037528Y-68589542D02*
X81966100Y-68589542D01*
X81966100Y-68589542D02*
X81908957Y-68603828D01*
X81908957Y-68603828D02*
X81880385Y-68618114D01*
X81880385Y-68618114D02*
X81866100Y-68632400D01*
X81866100Y-68632400D02*
X81851814Y-68660971D01*
%TO.C,U4*%
X81787571Y-59630214D02*
X81787571Y-59873071D01*
X81787571Y-59873071D02*
X81773285Y-59901642D01*
X81773285Y-59901642D02*
X81759000Y-59915928D01*
X81759000Y-59915928D02*
X81730428Y-59930214D01*
X81730428Y-59930214D02*
X81673285Y-59930214D01*
X81673285Y-59930214D02*
X81644714Y-59915928D01*
X81644714Y-59915928D02*
X81630428Y-59901642D01*
X81630428Y-59901642D02*
X81616142Y-59873071D01*
X81616142Y-59873071D02*
X81616142Y-59630214D01*
X81344714Y-59730214D02*
X81344714Y-59930214D01*
X81416142Y-59615928D02*
X81487571Y-59830214D01*
X81487571Y-59830214D02*
X81301856Y-59830214D01*
%TO.C,U9*%
X80796971Y-68395814D02*
X80796971Y-68638671D01*
X80796971Y-68638671D02*
X80782685Y-68667242D01*
X80782685Y-68667242D02*
X80768400Y-68681528D01*
X80768400Y-68681528D02*
X80739828Y-68695814D01*
X80739828Y-68695814D02*
X80682685Y-68695814D01*
X80682685Y-68695814D02*
X80654114Y-68681528D01*
X80654114Y-68681528D02*
X80639828Y-68667242D01*
X80639828Y-68667242D02*
X80625542Y-68638671D01*
X80625542Y-68638671D02*
X80625542Y-68395814D01*
X80468399Y-68695814D02*
X80411256Y-68695814D01*
X80411256Y-68695814D02*
X80382685Y-68681528D01*
X80382685Y-68681528D02*
X80368399Y-68667242D01*
X80368399Y-68667242D02*
X80339828Y-68624385D01*
X80339828Y-68624385D02*
X80325542Y-68567242D01*
X80325542Y-68567242D02*
X80325542Y-68452957D01*
X80325542Y-68452957D02*
X80339828Y-68424385D01*
X80339828Y-68424385D02*
X80354114Y-68410100D01*
X80354114Y-68410100D02*
X80382685Y-68395814D01*
X80382685Y-68395814D02*
X80439828Y-68395814D01*
X80439828Y-68395814D02*
X80468399Y-68410100D01*
X80468399Y-68410100D02*
X80482685Y-68424385D01*
X80482685Y-68424385D02*
X80496971Y-68452957D01*
X80496971Y-68452957D02*
X80496971Y-68524385D01*
X80496971Y-68524385D02*
X80482685Y-68552957D01*
X80482685Y-68552957D02*
X80468399Y-68567242D01*
X80468399Y-68567242D02*
X80439828Y-68581528D01*
X80439828Y-68581528D02*
X80382685Y-68581528D01*
X80382685Y-68581528D02*
X80354114Y-68567242D01*
X80354114Y-68567242D02*
X80339828Y-68552957D01*
X80339828Y-68552957D02*
X80325542Y-68524385D01*
%TO.C,C37*%
X82707442Y-69357943D02*
X82721728Y-69343657D01*
X82721728Y-69343657D02*
X82736014Y-69300800D01*
X82736014Y-69300800D02*
X82736014Y-69272228D01*
X82736014Y-69272228D02*
X82721728Y-69229371D01*
X82721728Y-69229371D02*
X82693157Y-69200800D01*
X82693157Y-69200800D02*
X82664585Y-69186514D01*
X82664585Y-69186514D02*
X82607442Y-69172228D01*
X82607442Y-69172228D02*
X82564585Y-69172228D01*
X82564585Y-69172228D02*
X82507442Y-69186514D01*
X82507442Y-69186514D02*
X82478871Y-69200800D01*
X82478871Y-69200800D02*
X82450300Y-69229371D01*
X82450300Y-69229371D02*
X82436014Y-69272228D01*
X82436014Y-69272228D02*
X82436014Y-69300800D01*
X82436014Y-69300800D02*
X82450300Y-69343657D01*
X82450300Y-69343657D02*
X82464585Y-69357943D01*
X82436014Y-69457943D02*
X82436014Y-69643657D01*
X82436014Y-69643657D02*
X82550300Y-69543657D01*
X82550300Y-69543657D02*
X82550300Y-69586514D01*
X82550300Y-69586514D02*
X82564585Y-69615086D01*
X82564585Y-69615086D02*
X82578871Y-69629371D01*
X82578871Y-69629371D02*
X82607442Y-69643657D01*
X82607442Y-69643657D02*
X82678871Y-69643657D01*
X82678871Y-69643657D02*
X82707442Y-69629371D01*
X82707442Y-69629371D02*
X82721728Y-69615086D01*
X82721728Y-69615086D02*
X82736014Y-69586514D01*
X82736014Y-69586514D02*
X82736014Y-69500800D01*
X82736014Y-69500800D02*
X82721728Y-69472228D01*
X82721728Y-69472228D02*
X82707442Y-69457943D01*
X82436014Y-69743657D02*
X82436014Y-69943657D01*
X82436014Y-69943657D02*
X82736014Y-69815085D01*
%TO.C,C51*%
X83961656Y-68464042D02*
X83975942Y-68478328D01*
X83975942Y-68478328D02*
X84018799Y-68492614D01*
X84018799Y-68492614D02*
X84047371Y-68492614D01*
X84047371Y-68492614D02*
X84090228Y-68478328D01*
X84090228Y-68478328D02*
X84118799Y-68449757D01*
X84118799Y-68449757D02*
X84133085Y-68421185D01*
X84133085Y-68421185D02*
X84147371Y-68364042D01*
X84147371Y-68364042D02*
X84147371Y-68321185D01*
X84147371Y-68321185D02*
X84133085Y-68264042D01*
X84133085Y-68264042D02*
X84118799Y-68235471D01*
X84118799Y-68235471D02*
X84090228Y-68206900D01*
X84090228Y-68206900D02*
X84047371Y-68192614D01*
X84047371Y-68192614D02*
X84018799Y-68192614D01*
X84018799Y-68192614D02*
X83975942Y-68206900D01*
X83975942Y-68206900D02*
X83961656Y-68221185D01*
X83690228Y-68192614D02*
X83833085Y-68192614D01*
X83833085Y-68192614D02*
X83847371Y-68335471D01*
X83847371Y-68335471D02*
X83833085Y-68321185D01*
X83833085Y-68321185D02*
X83804514Y-68306900D01*
X83804514Y-68306900D02*
X83733085Y-68306900D01*
X83733085Y-68306900D02*
X83704514Y-68321185D01*
X83704514Y-68321185D02*
X83690228Y-68335471D01*
X83690228Y-68335471D02*
X83675942Y-68364042D01*
X83675942Y-68364042D02*
X83675942Y-68435471D01*
X83675942Y-68435471D02*
X83690228Y-68464042D01*
X83690228Y-68464042D02*
X83704514Y-68478328D01*
X83704514Y-68478328D02*
X83733085Y-68492614D01*
X83733085Y-68492614D02*
X83804514Y-68492614D01*
X83804514Y-68492614D02*
X83833085Y-68478328D01*
X83833085Y-68478328D02*
X83847371Y-68464042D01*
X83390228Y-68492614D02*
X83561657Y-68492614D01*
X83475942Y-68492614D02*
X83475942Y-68192614D01*
X83475942Y-68192614D02*
X83504514Y-68235471D01*
X83504514Y-68235471D02*
X83533085Y-68264042D01*
X83533085Y-68264042D02*
X83561657Y-68278328D01*
%TO.C,U7*%
X83630214Y-69321428D02*
X83873071Y-69321428D01*
X83873071Y-69321428D02*
X83901642Y-69335714D01*
X83901642Y-69335714D02*
X83915928Y-69350000D01*
X83915928Y-69350000D02*
X83930214Y-69378571D01*
X83930214Y-69378571D02*
X83930214Y-69435714D01*
X83930214Y-69435714D02*
X83915928Y-69464285D01*
X83915928Y-69464285D02*
X83901642Y-69478571D01*
X83901642Y-69478571D02*
X83873071Y-69492857D01*
X83873071Y-69492857D02*
X83630214Y-69492857D01*
X83630214Y-69607143D02*
X83630214Y-69807143D01*
X83630214Y-69807143D02*
X83930214Y-69678571D01*
%TO.C,U6*%
X89192414Y-61969628D02*
X89435271Y-61969628D01*
X89435271Y-61969628D02*
X89463842Y-61983914D01*
X89463842Y-61983914D02*
X89478128Y-61998200D01*
X89478128Y-61998200D02*
X89492414Y-62026771D01*
X89492414Y-62026771D02*
X89492414Y-62083914D01*
X89492414Y-62083914D02*
X89478128Y-62112485D01*
X89478128Y-62112485D02*
X89463842Y-62126771D01*
X89463842Y-62126771D02*
X89435271Y-62141057D01*
X89435271Y-62141057D02*
X89192414Y-62141057D01*
X89192414Y-62412486D02*
X89192414Y-62355343D01*
X89192414Y-62355343D02*
X89206700Y-62326771D01*
X89206700Y-62326771D02*
X89220985Y-62312486D01*
X89220985Y-62312486D02*
X89263842Y-62283914D01*
X89263842Y-62283914D02*
X89320985Y-62269628D01*
X89320985Y-62269628D02*
X89435271Y-62269628D01*
X89435271Y-62269628D02*
X89463842Y-62283914D01*
X89463842Y-62283914D02*
X89478128Y-62298200D01*
X89478128Y-62298200D02*
X89492414Y-62326771D01*
X89492414Y-62326771D02*
X89492414Y-62383914D01*
X89492414Y-62383914D02*
X89478128Y-62412486D01*
X89478128Y-62412486D02*
X89463842Y-62426771D01*
X89463842Y-62426771D02*
X89435271Y-62441057D01*
X89435271Y-62441057D02*
X89363842Y-62441057D01*
X89363842Y-62441057D02*
X89335271Y-62426771D01*
X89335271Y-62426771D02*
X89320985Y-62412486D01*
X89320985Y-62412486D02*
X89306700Y-62383914D01*
X89306700Y-62383914D02*
X89306700Y-62326771D01*
X89306700Y-62326771D02*
X89320985Y-62298200D01*
X89320985Y-62298200D02*
X89335271Y-62283914D01*
X89335271Y-62283914D02*
X89363842Y-62269628D01*
%TO.C,U1*%
X89090214Y-67392528D02*
X89333071Y-67392528D01*
X89333071Y-67392528D02*
X89361642Y-67406814D01*
X89361642Y-67406814D02*
X89375928Y-67421100D01*
X89375928Y-67421100D02*
X89390214Y-67449671D01*
X89390214Y-67449671D02*
X89390214Y-67506814D01*
X89390214Y-67506814D02*
X89375928Y-67535385D01*
X89375928Y-67535385D02*
X89361642Y-67549671D01*
X89361642Y-67549671D02*
X89333071Y-67563957D01*
X89333071Y-67563957D02*
X89090214Y-67563957D01*
X89390214Y-67863957D02*
X89390214Y-67692528D01*
X89390214Y-67778243D02*
X89090214Y-67778243D01*
X89090214Y-67778243D02*
X89133071Y-67749671D01*
X89133071Y-67749671D02*
X89161642Y-67721100D01*
X89161642Y-67721100D02*
X89175928Y-67692528D01*
%TO.C,U2*%
X99793971Y-62684614D02*
X99793971Y-62927471D01*
X99793971Y-62927471D02*
X99779685Y-62956042D01*
X99779685Y-62956042D02*
X99765400Y-62970328D01*
X99765400Y-62970328D02*
X99736828Y-62984614D01*
X99736828Y-62984614D02*
X99679685Y-62984614D01*
X99679685Y-62984614D02*
X99651114Y-62970328D01*
X99651114Y-62970328D02*
X99636828Y-62956042D01*
X99636828Y-62956042D02*
X99622542Y-62927471D01*
X99622542Y-62927471D02*
X99622542Y-62684614D01*
X99493971Y-62713185D02*
X99479685Y-62698900D01*
X99479685Y-62698900D02*
X99451114Y-62684614D01*
X99451114Y-62684614D02*
X99379685Y-62684614D01*
X99379685Y-62684614D02*
X99351114Y-62698900D01*
X99351114Y-62698900D02*
X99336828Y-62713185D01*
X99336828Y-62713185D02*
X99322542Y-62741757D01*
X99322542Y-62741757D02*
X99322542Y-62770328D01*
X99322542Y-62770328D02*
X99336828Y-62813185D01*
X99336828Y-62813185D02*
X99508256Y-62984614D01*
X99508256Y-62984614D02*
X99322542Y-62984614D01*
%TO.C,C44*%
X81196042Y-62360943D02*
X81210328Y-62346657D01*
X81210328Y-62346657D02*
X81224614Y-62303800D01*
X81224614Y-62303800D02*
X81224614Y-62275228D01*
X81224614Y-62275228D02*
X81210328Y-62232371D01*
X81210328Y-62232371D02*
X81181757Y-62203800D01*
X81181757Y-62203800D02*
X81153185Y-62189514D01*
X81153185Y-62189514D02*
X81096042Y-62175228D01*
X81096042Y-62175228D02*
X81053185Y-62175228D01*
X81053185Y-62175228D02*
X80996042Y-62189514D01*
X80996042Y-62189514D02*
X80967471Y-62203800D01*
X80967471Y-62203800D02*
X80938900Y-62232371D01*
X80938900Y-62232371D02*
X80924614Y-62275228D01*
X80924614Y-62275228D02*
X80924614Y-62303800D01*
X80924614Y-62303800D02*
X80938900Y-62346657D01*
X80938900Y-62346657D02*
X80953185Y-62360943D01*
X81024614Y-62618086D02*
X81224614Y-62618086D01*
X80910328Y-62546657D02*
X81124614Y-62475228D01*
X81124614Y-62475228D02*
X81124614Y-62660943D01*
X81024614Y-62903800D02*
X81224614Y-62903800D01*
X80910328Y-62832371D02*
X81124614Y-62760942D01*
X81124614Y-62760942D02*
X81124614Y-62946657D01*
%TO.C,C40*%
X81196042Y-65866143D02*
X81210328Y-65851857D01*
X81210328Y-65851857D02*
X81224614Y-65809000D01*
X81224614Y-65809000D02*
X81224614Y-65780428D01*
X81224614Y-65780428D02*
X81210328Y-65737571D01*
X81210328Y-65737571D02*
X81181757Y-65709000D01*
X81181757Y-65709000D02*
X81153185Y-65694714D01*
X81153185Y-65694714D02*
X81096042Y-65680428D01*
X81096042Y-65680428D02*
X81053185Y-65680428D01*
X81053185Y-65680428D02*
X80996042Y-65694714D01*
X80996042Y-65694714D02*
X80967471Y-65709000D01*
X80967471Y-65709000D02*
X80938900Y-65737571D01*
X80938900Y-65737571D02*
X80924614Y-65780428D01*
X80924614Y-65780428D02*
X80924614Y-65809000D01*
X80924614Y-65809000D02*
X80938900Y-65851857D01*
X80938900Y-65851857D02*
X80953185Y-65866143D01*
X81024614Y-66123286D02*
X81224614Y-66123286D01*
X80910328Y-66051857D02*
X81124614Y-65980428D01*
X81124614Y-65980428D02*
X81124614Y-66166143D01*
X80924614Y-66337571D02*
X80924614Y-66366142D01*
X80924614Y-66366142D02*
X80938900Y-66394714D01*
X80938900Y-66394714D02*
X80953185Y-66409000D01*
X80953185Y-66409000D02*
X80981757Y-66423285D01*
X80981757Y-66423285D02*
X81038900Y-66437571D01*
X81038900Y-66437571D02*
X81110328Y-66437571D01*
X81110328Y-66437571D02*
X81167471Y-66423285D01*
X81167471Y-66423285D02*
X81196042Y-66409000D01*
X81196042Y-66409000D02*
X81210328Y-66394714D01*
X81210328Y-66394714D02*
X81224614Y-66366142D01*
X81224614Y-66366142D02*
X81224614Y-66337571D01*
X81224614Y-66337571D02*
X81210328Y-66309000D01*
X81210328Y-66309000D02*
X81196042Y-66294714D01*
X81196042Y-66294714D02*
X81167471Y-66280428D01*
X81167471Y-66280428D02*
X81110328Y-66266142D01*
X81110328Y-66266142D02*
X81038900Y-66266142D01*
X81038900Y-66266142D02*
X80981757Y-66280428D01*
X80981757Y-66280428D02*
X80953185Y-66294714D01*
X80953185Y-66294714D02*
X80938900Y-66309000D01*
X80938900Y-66309000D02*
X80924614Y-66337571D01*
%TO.C,C53*%
X81196042Y-64697743D02*
X81210328Y-64683457D01*
X81210328Y-64683457D02*
X81224614Y-64640600D01*
X81224614Y-64640600D02*
X81224614Y-64612028D01*
X81224614Y-64612028D02*
X81210328Y-64569171D01*
X81210328Y-64569171D02*
X81181757Y-64540600D01*
X81181757Y-64540600D02*
X81153185Y-64526314D01*
X81153185Y-64526314D02*
X81096042Y-64512028D01*
X81096042Y-64512028D02*
X81053185Y-64512028D01*
X81053185Y-64512028D02*
X80996042Y-64526314D01*
X80996042Y-64526314D02*
X80967471Y-64540600D01*
X80967471Y-64540600D02*
X80938900Y-64569171D01*
X80938900Y-64569171D02*
X80924614Y-64612028D01*
X80924614Y-64612028D02*
X80924614Y-64640600D01*
X80924614Y-64640600D02*
X80938900Y-64683457D01*
X80938900Y-64683457D02*
X80953185Y-64697743D01*
X80924614Y-64969171D02*
X80924614Y-64826314D01*
X80924614Y-64826314D02*
X81067471Y-64812028D01*
X81067471Y-64812028D02*
X81053185Y-64826314D01*
X81053185Y-64826314D02*
X81038900Y-64854886D01*
X81038900Y-64854886D02*
X81038900Y-64926314D01*
X81038900Y-64926314D02*
X81053185Y-64954886D01*
X81053185Y-64954886D02*
X81067471Y-64969171D01*
X81067471Y-64969171D02*
X81096042Y-64983457D01*
X81096042Y-64983457D02*
X81167471Y-64983457D01*
X81167471Y-64983457D02*
X81196042Y-64969171D01*
X81196042Y-64969171D02*
X81210328Y-64954886D01*
X81210328Y-64954886D02*
X81224614Y-64926314D01*
X81224614Y-64926314D02*
X81224614Y-64854886D01*
X81224614Y-64854886D02*
X81210328Y-64826314D01*
X81210328Y-64826314D02*
X81196042Y-64812028D01*
X80924614Y-65083457D02*
X80924614Y-65269171D01*
X80924614Y-65269171D02*
X81038900Y-65169171D01*
X81038900Y-65169171D02*
X81038900Y-65212028D01*
X81038900Y-65212028D02*
X81053185Y-65240600D01*
X81053185Y-65240600D02*
X81067471Y-65254885D01*
X81067471Y-65254885D02*
X81096042Y-65269171D01*
X81096042Y-65269171D02*
X81167471Y-65269171D01*
X81167471Y-65269171D02*
X81196042Y-65254885D01*
X81196042Y-65254885D02*
X81210328Y-65240600D01*
X81210328Y-65240600D02*
X81224614Y-65212028D01*
X81224614Y-65212028D02*
X81224614Y-65126314D01*
X81224614Y-65126314D02*
X81210328Y-65097742D01*
X81210328Y-65097742D02*
X81196042Y-65083457D01*
%TO.C,C49*%
X81196142Y-63529343D02*
X81210428Y-63515057D01*
X81210428Y-63515057D02*
X81224714Y-63472200D01*
X81224714Y-63472200D02*
X81224714Y-63443628D01*
X81224714Y-63443628D02*
X81210428Y-63400771D01*
X81210428Y-63400771D02*
X81181857Y-63372200D01*
X81181857Y-63372200D02*
X81153285Y-63357914D01*
X81153285Y-63357914D02*
X81096142Y-63343628D01*
X81096142Y-63343628D02*
X81053285Y-63343628D01*
X81053285Y-63343628D02*
X80996142Y-63357914D01*
X80996142Y-63357914D02*
X80967571Y-63372200D01*
X80967571Y-63372200D02*
X80939000Y-63400771D01*
X80939000Y-63400771D02*
X80924714Y-63443628D01*
X80924714Y-63443628D02*
X80924714Y-63472200D01*
X80924714Y-63472200D02*
X80939000Y-63515057D01*
X80939000Y-63515057D02*
X80953285Y-63529343D01*
X81024714Y-63786486D02*
X81224714Y-63786486D01*
X80910428Y-63715057D02*
X81124714Y-63643628D01*
X81124714Y-63643628D02*
X81124714Y-63829343D01*
X81224714Y-63957914D02*
X81224714Y-64015057D01*
X81224714Y-64015057D02*
X81210428Y-64043628D01*
X81210428Y-64043628D02*
X81196142Y-64057914D01*
X81196142Y-64057914D02*
X81153285Y-64086485D01*
X81153285Y-64086485D02*
X81096142Y-64100771D01*
X81096142Y-64100771D02*
X80981857Y-64100771D01*
X80981857Y-64100771D02*
X80953285Y-64086485D01*
X80953285Y-64086485D02*
X80939000Y-64072200D01*
X80939000Y-64072200D02*
X80924714Y-64043628D01*
X80924714Y-64043628D02*
X80924714Y-63986485D01*
X80924714Y-63986485D02*
X80939000Y-63957914D01*
X80939000Y-63957914D02*
X80953285Y-63943628D01*
X80953285Y-63943628D02*
X80981857Y-63929342D01*
X80981857Y-63929342D02*
X81053285Y-63929342D01*
X81053285Y-63929342D02*
X81081857Y-63943628D01*
X81081857Y-63943628D02*
X81096142Y-63957914D01*
X81096142Y-63957914D02*
X81110428Y-63986485D01*
X81110428Y-63986485D02*
X81110428Y-64043628D01*
X81110428Y-64043628D02*
X81096142Y-64072200D01*
X81096142Y-64072200D02*
X81081857Y-64086485D01*
X81081857Y-64086485D02*
X81053285Y-64100771D01*
%TO.C,R16*%
X91534914Y-65175643D02*
X91392057Y-65075643D01*
X91534914Y-65004214D02*
X91234914Y-65004214D01*
X91234914Y-65004214D02*
X91234914Y-65118500D01*
X91234914Y-65118500D02*
X91249200Y-65147071D01*
X91249200Y-65147071D02*
X91263485Y-65161357D01*
X91263485Y-65161357D02*
X91292057Y-65175643D01*
X91292057Y-65175643D02*
X91334914Y-65175643D01*
X91334914Y-65175643D02*
X91363485Y-65161357D01*
X91363485Y-65161357D02*
X91377771Y-65147071D01*
X91377771Y-65147071D02*
X91392057Y-65118500D01*
X91392057Y-65118500D02*
X91392057Y-65004214D01*
X91534914Y-65461357D02*
X91534914Y-65289928D01*
X91534914Y-65375643D02*
X91234914Y-65375643D01*
X91234914Y-65375643D02*
X91277771Y-65347071D01*
X91277771Y-65347071D02*
X91306342Y-65318500D01*
X91306342Y-65318500D02*
X91320628Y-65289928D01*
X91234914Y-65718500D02*
X91234914Y-65661357D01*
X91234914Y-65661357D02*
X91249200Y-65632785D01*
X91249200Y-65632785D02*
X91263485Y-65618500D01*
X91263485Y-65618500D02*
X91306342Y-65589928D01*
X91306342Y-65589928D02*
X91363485Y-65575642D01*
X91363485Y-65575642D02*
X91477771Y-65575642D01*
X91477771Y-65575642D02*
X91506342Y-65589928D01*
X91506342Y-65589928D02*
X91520628Y-65604214D01*
X91520628Y-65604214D02*
X91534914Y-65632785D01*
X91534914Y-65632785D02*
X91534914Y-65689928D01*
X91534914Y-65689928D02*
X91520628Y-65718500D01*
X91520628Y-65718500D02*
X91506342Y-65732785D01*
X91506342Y-65732785D02*
X91477771Y-65747071D01*
X91477771Y-65747071D02*
X91406342Y-65747071D01*
X91406342Y-65747071D02*
X91377771Y-65732785D01*
X91377771Y-65732785D02*
X91363485Y-65718500D01*
X91363485Y-65718500D02*
X91349200Y-65689928D01*
X91349200Y-65689928D02*
X91349200Y-65632785D01*
X91349200Y-65632785D02*
X91363485Y-65604214D01*
X91363485Y-65604214D02*
X91377771Y-65589928D01*
X91377771Y-65589928D02*
X91406342Y-65575642D01*
D11*
%TO.C,R17*%
X86669000Y-68323505D02*
X86769023Y-68180660D01*
X86840468Y-68323505D02*
X86840468Y-68023531D01*
X86840468Y-68023531D02*
X86726156Y-68023531D01*
X86726156Y-68023531D02*
X86697578Y-68037816D01*
X86697578Y-68037816D02*
X86683289Y-68052100D01*
X86683289Y-68052100D02*
X86669000Y-68080669D01*
X86669000Y-68080669D02*
X86669000Y-68123522D01*
X86669000Y-68123522D02*
X86683289Y-68152091D01*
X86683289Y-68152091D02*
X86697578Y-68166376D01*
X86697578Y-68166376D02*
X86726156Y-68180660D01*
X86726156Y-68180660D02*
X86840468Y-68180660D01*
X86383221Y-68323505D02*
X86554689Y-68323505D01*
X86468955Y-68323505D02*
X86468955Y-68023531D01*
X86468955Y-68023531D02*
X86497533Y-68066384D01*
X86497533Y-68066384D02*
X86526111Y-68094953D01*
X86526111Y-68094953D02*
X86554689Y-68109238D01*
X86283199Y-68023531D02*
X86083153Y-68023531D01*
X86083153Y-68023531D02*
X86211754Y-68323505D01*
D10*
%TO.C,R19*%
X86747014Y-60235343D02*
X86604157Y-60135343D01*
X86747014Y-60063914D02*
X86447014Y-60063914D01*
X86447014Y-60063914D02*
X86447014Y-60178200D01*
X86447014Y-60178200D02*
X86461300Y-60206771D01*
X86461300Y-60206771D02*
X86475585Y-60221057D01*
X86475585Y-60221057D02*
X86504157Y-60235343D01*
X86504157Y-60235343D02*
X86547014Y-60235343D01*
X86547014Y-60235343D02*
X86575585Y-60221057D01*
X86575585Y-60221057D02*
X86589871Y-60206771D01*
X86589871Y-60206771D02*
X86604157Y-60178200D01*
X86604157Y-60178200D02*
X86604157Y-60063914D01*
X86747014Y-60521057D02*
X86747014Y-60349628D01*
X86747014Y-60435343D02*
X86447014Y-60435343D01*
X86447014Y-60435343D02*
X86489871Y-60406771D01*
X86489871Y-60406771D02*
X86518442Y-60378200D01*
X86518442Y-60378200D02*
X86532728Y-60349628D01*
X86747014Y-60663914D02*
X86747014Y-60721057D01*
X86747014Y-60721057D02*
X86732728Y-60749628D01*
X86732728Y-60749628D02*
X86718442Y-60763914D01*
X86718442Y-60763914D02*
X86675585Y-60792485D01*
X86675585Y-60792485D02*
X86618442Y-60806771D01*
X86618442Y-60806771D02*
X86504157Y-60806771D01*
X86504157Y-60806771D02*
X86475585Y-60792485D01*
X86475585Y-60792485D02*
X86461300Y-60778200D01*
X86461300Y-60778200D02*
X86447014Y-60749628D01*
X86447014Y-60749628D02*
X86447014Y-60692485D01*
X86447014Y-60692485D02*
X86461300Y-60663914D01*
X86461300Y-60663914D02*
X86475585Y-60649628D01*
X86475585Y-60649628D02*
X86504157Y-60635342D01*
X86504157Y-60635342D02*
X86575585Y-60635342D01*
X86575585Y-60635342D02*
X86604157Y-60649628D01*
X86604157Y-60649628D02*
X86618442Y-60663914D01*
X86618442Y-60663914D02*
X86632728Y-60692485D01*
X86632728Y-60692485D02*
X86632728Y-60749628D01*
X86632728Y-60749628D02*
X86618442Y-60778200D01*
X86618442Y-60778200D02*
X86604157Y-60792485D01*
X86604157Y-60792485D02*
X86575585Y-60806771D01*
%TO.C,Q2*%
X85319171Y-58839785D02*
X85347742Y-58825500D01*
X85347742Y-58825500D02*
X85376314Y-58796928D01*
X85376314Y-58796928D02*
X85419171Y-58754071D01*
X85419171Y-58754071D02*
X85447742Y-58739785D01*
X85447742Y-58739785D02*
X85476314Y-58739785D01*
X85462028Y-58811214D02*
X85490600Y-58796928D01*
X85490600Y-58796928D02*
X85519171Y-58768357D01*
X85519171Y-58768357D02*
X85533457Y-58711214D01*
X85533457Y-58711214D02*
X85533457Y-58611214D01*
X85533457Y-58611214D02*
X85519171Y-58554071D01*
X85519171Y-58554071D02*
X85490600Y-58525500D01*
X85490600Y-58525500D02*
X85462028Y-58511214D01*
X85462028Y-58511214D02*
X85404885Y-58511214D01*
X85404885Y-58511214D02*
X85376314Y-58525500D01*
X85376314Y-58525500D02*
X85347742Y-58554071D01*
X85347742Y-58554071D02*
X85333457Y-58611214D01*
X85333457Y-58611214D02*
X85333457Y-58711214D01*
X85333457Y-58711214D02*
X85347742Y-58768357D01*
X85347742Y-58768357D02*
X85376314Y-58796928D01*
X85376314Y-58796928D02*
X85404885Y-58811214D01*
X85404885Y-58811214D02*
X85462028Y-58811214D01*
X85219171Y-58539785D02*
X85204885Y-58525500D01*
X85204885Y-58525500D02*
X85176314Y-58511214D01*
X85176314Y-58511214D02*
X85104885Y-58511214D01*
X85104885Y-58511214D02*
X85076314Y-58525500D01*
X85076314Y-58525500D02*
X85062028Y-58539785D01*
X85062028Y-58539785D02*
X85047742Y-58568357D01*
X85047742Y-58568357D02*
X85047742Y-58596928D01*
X85047742Y-58596928D02*
X85062028Y-58639785D01*
X85062028Y-58639785D02*
X85233456Y-58811214D01*
X85233456Y-58811214D02*
X85047742Y-58811214D01*
D11*
%TO.C,R21*%
X82740205Y-68582840D02*
X82597360Y-68682832D01*
X82740205Y-68754254D02*
X82440231Y-68754254D01*
X82440231Y-68754254D02*
X82440231Y-68639978D01*
X82440231Y-68639978D02*
X82454516Y-68611409D01*
X82454516Y-68611409D02*
X82468800Y-68597125D01*
X82468800Y-68597125D02*
X82497369Y-68582840D01*
X82497369Y-68582840D02*
X82540222Y-68582840D01*
X82540222Y-68582840D02*
X82568791Y-68597125D01*
X82568791Y-68597125D02*
X82583076Y-68611409D01*
X82583076Y-68611409D02*
X82597360Y-68639978D01*
X82597360Y-68639978D02*
X82597360Y-68754254D01*
X82468800Y-68468565D02*
X82454516Y-68454280D01*
X82454516Y-68454280D02*
X82440231Y-68425711D01*
X82440231Y-68425711D02*
X82440231Y-68354289D01*
X82440231Y-68354289D02*
X82454516Y-68325720D01*
X82454516Y-68325720D02*
X82468800Y-68311435D01*
X82468800Y-68311435D02*
X82497369Y-68297151D01*
X82497369Y-68297151D02*
X82525938Y-68297151D01*
X82525938Y-68297151D02*
X82568791Y-68311435D01*
X82568791Y-68311435D02*
X82740205Y-68482849D01*
X82740205Y-68482849D02*
X82740205Y-68297151D01*
X82740205Y-68011461D02*
X82740205Y-68182875D01*
X82740205Y-68097168D02*
X82440231Y-68097168D01*
X82440231Y-68097168D02*
X82483084Y-68125737D01*
X82483084Y-68125737D02*
X82511653Y-68154306D01*
X82511653Y-68154306D02*
X82525938Y-68182875D01*
%TD*%
M02*
