G04 #@! TF.GenerationSoftware,KiCad,Pcbnew,(5.1.5)-3*
G04 #@! TF.CreationDate,2020-10-07T11:53:22+09:00*
G04 #@! TF.ProjectId,Flex Cable,466c6578-2043-4616-926c-652e6b696361,rev?*
G04 #@! TF.SameCoordinates,Original*
G04 #@! TF.FileFunction,Soldermask,Bot*
G04 #@! TF.FilePolarity,Negative*
%FSLAX46Y46*%
G04 Gerber Fmt 4.6, Leading zero omitted, Abs format (unit mm)*
G04 Created by KiCad (PCBNEW (5.1.5)-3) date 2020-10-07 11:53:22*
%MOMM*%
%LPD*%
G04 APERTURE LIST*
%ADD10C,0.100000*%
G04 APERTURE END LIST*
D10*
G36*
X135419400Y-103427280D02*
G01*
X135168600Y-103427280D01*
X135168600Y-102376480D01*
X135419400Y-102376480D01*
X135419400Y-103427280D01*
G37*
G36*
X130219400Y-103427280D02*
G01*
X129968600Y-103427280D01*
X129968600Y-102376480D01*
X130219400Y-102376480D01*
X130219400Y-103427280D01*
G37*
G36*
X139819400Y-103427280D02*
G01*
X139568600Y-103427280D01*
X139568600Y-102376480D01*
X139819400Y-102376480D01*
X139819400Y-103427280D01*
G37*
G36*
X140619400Y-103427280D02*
G01*
X140368600Y-103427280D01*
X140368600Y-102376480D01*
X140619400Y-102376480D01*
X140619400Y-103427280D01*
G37*
G36*
X139019400Y-103427280D02*
G01*
X138768600Y-103427280D01*
X138768600Y-102376480D01*
X139019400Y-102376480D01*
X139019400Y-103427280D01*
G37*
G36*
X138219400Y-103427280D02*
G01*
X137968600Y-103427280D01*
X137968600Y-102376480D01*
X138219400Y-102376480D01*
X138219400Y-103427280D01*
G37*
G36*
X139419400Y-103427280D02*
G01*
X139168600Y-103427280D01*
X139168600Y-102376480D01*
X139419400Y-102376480D01*
X139419400Y-103427280D01*
G37*
G36*
X137819400Y-103427280D02*
G01*
X137568600Y-103427280D01*
X137568600Y-102376480D01*
X137819400Y-102376480D01*
X137819400Y-103427280D01*
G37*
G36*
X137419400Y-103427280D02*
G01*
X137168600Y-103427280D01*
X137168600Y-102376480D01*
X137419400Y-102376480D01*
X137419400Y-103427280D01*
G37*
G36*
X137019400Y-103427280D02*
G01*
X136768600Y-103427280D01*
X136768600Y-102376480D01*
X137019400Y-102376480D01*
X137019400Y-103427280D01*
G37*
G36*
X136619400Y-103427280D02*
G01*
X136368600Y-103427280D01*
X136368600Y-102376480D01*
X136619400Y-102376480D01*
X136619400Y-103427280D01*
G37*
G36*
X136219400Y-103427280D02*
G01*
X135968600Y-103427280D01*
X135968600Y-102376480D01*
X136219400Y-102376480D01*
X136219400Y-103427280D01*
G37*
G36*
X135819400Y-103427280D02*
G01*
X135568600Y-103427280D01*
X135568600Y-102376480D01*
X135819400Y-102376480D01*
X135819400Y-103427280D01*
G37*
G36*
X138619400Y-103427280D02*
G01*
X138368600Y-103427280D01*
X138368600Y-102376480D01*
X138619400Y-102376480D01*
X138619400Y-103427280D01*
G37*
G36*
X130619400Y-103427280D02*
G01*
X130368600Y-103427280D01*
X130368600Y-102376480D01*
X130619400Y-102376480D01*
X130619400Y-103427280D01*
G37*
G36*
X140219400Y-103427280D02*
G01*
X139968600Y-103427280D01*
X139968600Y-102376480D01*
X140219400Y-102376480D01*
X140219400Y-103427280D01*
G37*
G36*
X135019400Y-103427280D02*
G01*
X134768600Y-103427280D01*
X134768600Y-102376480D01*
X135019400Y-102376480D01*
X135019400Y-103427280D01*
G37*
G36*
X134619400Y-103427280D02*
G01*
X134368600Y-103427280D01*
X134368600Y-102376480D01*
X134619400Y-102376480D01*
X134619400Y-103427280D01*
G37*
G36*
X134219400Y-103427280D02*
G01*
X133968600Y-103427280D01*
X133968600Y-102376480D01*
X134219400Y-102376480D01*
X134219400Y-103427280D01*
G37*
G36*
X133819400Y-103427280D02*
G01*
X133568600Y-103427280D01*
X133568600Y-102376480D01*
X133819400Y-102376480D01*
X133819400Y-103427280D01*
G37*
G36*
X133419400Y-103427280D02*
G01*
X133168600Y-103427280D01*
X133168600Y-102376480D01*
X133419400Y-102376480D01*
X133419400Y-103427280D01*
G37*
G36*
X133019400Y-103427280D02*
G01*
X132768600Y-103427280D01*
X132768600Y-102376480D01*
X133019400Y-102376480D01*
X133019400Y-103427280D01*
G37*
G36*
X132619400Y-103427280D02*
G01*
X132368600Y-103427280D01*
X132368600Y-102376480D01*
X132619400Y-102376480D01*
X132619400Y-103427280D01*
G37*
G36*
X132219400Y-103427280D02*
G01*
X131968600Y-103427280D01*
X131968600Y-102376480D01*
X132219400Y-102376480D01*
X132219400Y-103427280D01*
G37*
G36*
X131819400Y-103427280D02*
G01*
X131568600Y-103427280D01*
X131568600Y-102376480D01*
X131819400Y-102376480D01*
X131819400Y-103427280D01*
G37*
G36*
X131419400Y-103427280D02*
G01*
X131168600Y-103427280D01*
X131168600Y-102376480D01*
X131419400Y-102376480D01*
X131419400Y-103427280D01*
G37*
G36*
X131019400Y-103427280D02*
G01*
X130768600Y-103427280D01*
X130768600Y-102376480D01*
X131019400Y-102376480D01*
X131019400Y-103427280D01*
G37*
G36*
X130219400Y-97299400D02*
G01*
X129968600Y-97299400D01*
X129968600Y-96248600D01*
X130219400Y-96248600D01*
X130219400Y-97299400D01*
G37*
G36*
X140619400Y-97299400D02*
G01*
X140368600Y-97299400D01*
X140368600Y-96248600D01*
X140619400Y-96248600D01*
X140619400Y-97299400D01*
G37*
G36*
X135819400Y-97299400D02*
G01*
X135568600Y-97299400D01*
X135568600Y-96248600D01*
X135819400Y-96248600D01*
X135819400Y-97299400D01*
G37*
G36*
X136219400Y-97299400D02*
G01*
X135968600Y-97299400D01*
X135968600Y-96248600D01*
X136219400Y-96248600D01*
X136219400Y-97299400D01*
G37*
G36*
X136619400Y-97299400D02*
G01*
X136368600Y-97299400D01*
X136368600Y-96248600D01*
X136619400Y-96248600D01*
X136619400Y-97299400D01*
G37*
G36*
X137019400Y-97299400D02*
G01*
X136768600Y-97299400D01*
X136768600Y-96248600D01*
X137019400Y-96248600D01*
X137019400Y-97299400D01*
G37*
G36*
X137419400Y-97299400D02*
G01*
X137168600Y-97299400D01*
X137168600Y-96248600D01*
X137419400Y-96248600D01*
X137419400Y-97299400D01*
G37*
G36*
X133419400Y-97299400D02*
G01*
X133168600Y-97299400D01*
X133168600Y-96248600D01*
X133419400Y-96248600D01*
X133419400Y-97299400D01*
G37*
G36*
X137819400Y-97299400D02*
G01*
X137568600Y-97299400D01*
X137568600Y-96248600D01*
X137819400Y-96248600D01*
X137819400Y-97299400D01*
G37*
G36*
X139419400Y-97299400D02*
G01*
X139168600Y-97299400D01*
X139168600Y-96248600D01*
X139419400Y-96248600D01*
X139419400Y-97299400D01*
G37*
G36*
X138219400Y-97299400D02*
G01*
X137968600Y-97299400D01*
X137968600Y-96248600D01*
X138219400Y-96248600D01*
X138219400Y-97299400D01*
G37*
G36*
X139019400Y-97299400D02*
G01*
X138768600Y-97299400D01*
X138768600Y-96248600D01*
X139019400Y-96248600D01*
X139019400Y-97299400D01*
G37*
G36*
X139819400Y-97299400D02*
G01*
X139568600Y-97299400D01*
X139568600Y-96248600D01*
X139819400Y-96248600D01*
X139819400Y-97299400D01*
G37*
G36*
X140219400Y-97299400D02*
G01*
X139968600Y-97299400D01*
X139968600Y-96248600D01*
X140219400Y-96248600D01*
X140219400Y-97299400D01*
G37*
G36*
X131019400Y-97299400D02*
G01*
X130768600Y-97299400D01*
X130768600Y-96248600D01*
X131019400Y-96248600D01*
X131019400Y-97299400D01*
G37*
G36*
X135419400Y-97299400D02*
G01*
X135168600Y-97299400D01*
X135168600Y-96248600D01*
X135419400Y-96248600D01*
X135419400Y-97299400D01*
G37*
G36*
X135019400Y-97299400D02*
G01*
X134768600Y-97299400D01*
X134768600Y-96248600D01*
X135019400Y-96248600D01*
X135019400Y-97299400D01*
G37*
G36*
X138619400Y-97299400D02*
G01*
X138368600Y-97299400D01*
X138368600Y-96248600D01*
X138619400Y-96248600D01*
X138619400Y-97299400D01*
G37*
G36*
X134619400Y-97299400D02*
G01*
X134368600Y-97299400D01*
X134368600Y-96248600D01*
X134619400Y-96248600D01*
X134619400Y-97299400D01*
G37*
G36*
X134219400Y-97299400D02*
G01*
X133968600Y-97299400D01*
X133968600Y-96248600D01*
X134219400Y-96248600D01*
X134219400Y-97299400D01*
G37*
G36*
X133819400Y-97299400D02*
G01*
X133568600Y-97299400D01*
X133568600Y-96248600D01*
X133819400Y-96248600D01*
X133819400Y-97299400D01*
G37*
G36*
X132619400Y-97299400D02*
G01*
X132368600Y-97299400D01*
X132368600Y-96248600D01*
X132619400Y-96248600D01*
X132619400Y-97299400D01*
G37*
G36*
X132219400Y-97299400D02*
G01*
X131968600Y-97299400D01*
X131968600Y-96248600D01*
X132219400Y-96248600D01*
X132219400Y-97299400D01*
G37*
G36*
X131819400Y-97299400D02*
G01*
X131568600Y-97299400D01*
X131568600Y-96248600D01*
X131819400Y-96248600D01*
X131819400Y-97299400D01*
G37*
G36*
X131419400Y-97299400D02*
G01*
X131168600Y-97299400D01*
X131168600Y-96248600D01*
X131419400Y-96248600D01*
X131419400Y-97299400D01*
G37*
G36*
X130619400Y-97299400D02*
G01*
X130368600Y-97299400D01*
X130368600Y-96248600D01*
X130619400Y-96248600D01*
X130619400Y-97299400D01*
G37*
G36*
X133019400Y-97299400D02*
G01*
X132768600Y-97299400D01*
X132768600Y-96248600D01*
X133019400Y-96248600D01*
X133019400Y-97299400D01*
G37*
G36*
X148985860Y-92098800D02*
G01*
X147935060Y-92098800D01*
X147935060Y-91848000D01*
X148985860Y-91848000D01*
X148985860Y-92098800D01*
G37*
G36*
X142244700Y-92097480D02*
G01*
X141193900Y-92097480D01*
X141193900Y-91846680D01*
X142244700Y-91846680D01*
X142244700Y-92097480D01*
G37*
G36*
X148985860Y-91698800D02*
G01*
X147935060Y-91698800D01*
X147935060Y-91448000D01*
X148985860Y-91448000D01*
X148985860Y-91698800D01*
G37*
G36*
X142244700Y-91697480D02*
G01*
X141193900Y-91697480D01*
X141193900Y-91446680D01*
X142244700Y-91446680D01*
X142244700Y-91697480D01*
G37*
G36*
X148985860Y-91298800D02*
G01*
X147935060Y-91298800D01*
X147935060Y-91048000D01*
X148985860Y-91048000D01*
X148985860Y-91298800D01*
G37*
G36*
X142244700Y-91297480D02*
G01*
X141193900Y-91297480D01*
X141193900Y-91046680D01*
X142244700Y-91046680D01*
X142244700Y-91297480D01*
G37*
G36*
X148985860Y-90898800D02*
G01*
X147935060Y-90898800D01*
X147935060Y-90648000D01*
X148985860Y-90648000D01*
X148985860Y-90898800D01*
G37*
G36*
X142244700Y-90897480D02*
G01*
X141193900Y-90897480D01*
X141193900Y-90646680D01*
X142244700Y-90646680D01*
X142244700Y-90897480D01*
G37*
G36*
X148985860Y-90498800D02*
G01*
X147935060Y-90498800D01*
X147935060Y-90248000D01*
X148985860Y-90248000D01*
X148985860Y-90498800D01*
G37*
G36*
X142244700Y-90497480D02*
G01*
X141193900Y-90497480D01*
X141193900Y-90246680D01*
X142244700Y-90246680D01*
X142244700Y-90497480D01*
G37*
G36*
X148985860Y-90098800D02*
G01*
X147935060Y-90098800D01*
X147935060Y-89848000D01*
X148985860Y-89848000D01*
X148985860Y-90098800D01*
G37*
G36*
X142244700Y-90097480D02*
G01*
X141193900Y-90097480D01*
X141193900Y-89846680D01*
X142244700Y-89846680D01*
X142244700Y-90097480D01*
G37*
M02*
